<?xml version="1.0" encoding="UTF-8" standalone="no"?>
<!DOCTYPE svg PUBLIC "-//W3C//DTD SVG 1.1//EN"
 "http://www.w3.org/Graphics/SVG/1.1/DTD/svg11.dtd">
<!-- Generated by graphviz version 2.26.3 (20100126.1600)
 -->
<!-- Title: MenuItem Pages: 1 -->
<svg width="1658pt" height="1150pt"
 viewBox="0.00 0.00 398.00 276.00" xmlns="http://www.w3.org/2000/svg" xmlns:xlink="http://www.w3.org/1999/xlink">
<g id="graph1" class="graph" transform="scale(4.16667 4.16667) rotate(0) translate(4 272)">
<title>MenuItem</title>
<polygon fill="white" stroke="white" points="-4,5 -4,-272 395,-272 395,5 -4,5"/>
<!-- Box_KnotFileIO -->
<g id="node1" class="node"><title>Box_KnotFileIO</title>
<polygon fill="#fcfcda" stroke="black" points="113.5,-1 113.5,-145 340.5,-145 340.5,-1 113.5,-1"/>
<text text-anchor="middle" x="227" y="-133.8" font-family="Arial" font-size="8.00">KnotFileIO</text>
<polyline fill="none" stroke="black" points="113.5,-127 340.5,-127 "/>
<text text-anchor="start" x="121.5" y="-115.8" font-family="Arial" font-size="8.00">+ CountEdges : int</text>
<text text-anchor="start" x="121.5" y="-105.8" font-family="Arial" font-size="8.00">+ Hash : string</text>
<text text-anchor="start" x="121.5" y="-95.8" font-family="Arial" font-size="8.00">+ Name : string</text>
<text text-anchor="start" x="121.5" y="-85.8" font-family="Arial" font-size="8.00">&#45; parser : KnotStringIO</text>
<text text-anchor="start" x="121.5" y="-75.8" font-family="Arial" font-size="8.00">+ Edges : IEnumerable&lt;Edge&gt;</text>
<text text-anchor="start" x="121.5" y="-65.8" font-family="Arial" font-size="8.00">+ FileExtensions : string[] static</text>
<polyline fill="none" stroke="black" points="113.5,-59 340.5,-59 "/>
<text text-anchor="start" x="121.5" y="-47.8" font-family="Arial" font-size="8.00">+ KnotFileIO (Knot knot)</text>
<text text-anchor="start" x="121.5" y="-37.8" font-family="Arial" font-size="8.00">+ Save (Knot knot)</text>
<text text-anchor="start" x="121.5" y="-27.8" font-family="Arial" font-size="8.00">+ KnotFileIO (string filename)</text>
<text text-anchor="start" x="121.5" y="-17.8" font-family="Arial" font-size="8.00">+ ConvertToFilename (string humanReadableName) : string</text>
<text text-anchor="start" x="121.5" y="-7.8" font-family="Arial" font-size="8.00">+ ToString () : string</text>
</g>
<!-- Box_FileIO -->
<g id="node2" class="node"><title>Box_FileIO</title>
<polygon fill="#fcfcda" stroke="black" points="-0.5,-198 -0.5,-252 250.5,-252 250.5,-198 -0.5,-198"/>
<text text-anchor="middle" x="125" y="-240.8" font-family="Arial" font-size="8.00">FileIO</text>
<polyline fill="none" stroke="black" points="-0.5,-234 250.5,-234 "/>
<text text-anchor="start" x="7.5" y="-222.8" font-family="Arial" font-size="8.00"># Filename : string</text>
<polyline fill="none" stroke="black" points="-0.5,-216 250.5,-216 "/>
<text text-anchor="start" x="7.5" y="-204.8" font-family="Arial" font-size="8.00">+ ConvertToFilename (string humanReadableName) : string virtual</text>
</g>
<!-- Box_FileIO&#45;&gt;Box_KnotFileIO -->
<g id="edge2" class="edge"><title>Box_FileIO&#45;&gt;Box_KnotFileIO</title>
<path fill="none" stroke="midnightblue" d="M148.839,-189.475C157.734,-176.22 168.186,-160.645 178.501,-145.274"/>
<polygon fill="none" stroke="midnightblue" points="145.902,-187.571 143.236,-197.825 151.714,-191.472 145.902,-187.571"/>
</g>
<!-- Box_IKnotIO -->
<g id="node3" class="node"><title>Box_IKnotIO</title>
<polygon fill="#dafcda" stroke="black" points="267.5,-183 267.5,-267 390.5,-267 390.5,-183 267.5,-183"/>
<text text-anchor="middle" x="329" y="-255.8" font-family="Arial" font-size="8.00">IKnotIO</text>
<polyline fill="none" stroke="black" points="267.5,-249 390.5,-249 "/>
<text text-anchor="start" x="275.5" y="-237.8" font-family="Arial" font-size="8.00">+ Edges : IEnumerable&lt;Edge&gt;</text>
<text text-anchor="start" x="275.5" y="-227.8" font-family="Arial" font-size="8.00">+ CountEdges : int</text>
<text text-anchor="start" x="275.5" y="-217.8" font-family="Arial" font-size="8.00">+ Name : string</text>
<text text-anchor="start" x="275.5" y="-207.8" font-family="Arial" font-size="8.00">+ Hash : string</text>
<polyline fill="none" stroke="black" points="267.5,-201 390.5,-201 "/>
<text text-anchor="start" x="275.5" y="-189.8" font-family="Arial" font-size="8.00">+ Save (Knot knot)</text>
</g>
<!-- Box_IKnotIO&#45;&gt;Box_KnotFileIO -->
<g id="edge4" class="edge"><title>Box_IKnotIO&#45;&gt;Box_KnotFileIO</title>
<path fill="none" stroke="midnightblue" d="M294.941,-174.245C288.66,-164.885 281.992,-154.949 275.383,-145.1"/>
<polygon fill="none" stroke="midnightblue" points="292.109,-176.306 300.587,-182.66 297.921,-172.406 292.109,-176.306"/>
</g>
</g>
</svg>
