<?xml version="1.0" encoding="UTF-8" standalone="no"?>
<!DOCTYPE svg PUBLIC "-//W3C//DTD SVG 1.1//EN"
 "http://www.w3.org/Graphics/SVG/1.1/DTD/svg11.dtd">
<!-- Generated by graphviz version 2.26.3 (20100126.1600)
 -->
<!-- Title: MenuItem Pages: 1 -->
<svg width="967pt" height="2367pt"
 viewBox="0.00 0.00 232.00 568.00" xmlns="http://www.w3.org/2000/svg" xmlns:xlink="http://www.w3.org/1999/xlink">
<g id="graph1" class="graph" transform="scale(4.16667 4.16667) rotate(0) translate(4 564)">
<title>MenuItem</title>
<polygon fill="white" stroke="white" points="-4,5 -4,-564 229,-564 229,5 -4,5"/>
<!-- Box_PipeModel -->
<g id="node1" class="node"><title>Box_PipeModel</title>
<polygon fill="#fcfcda" stroke="black" points="6,-1 6,-95 218,-95 218,-1 6,-1"/>
<text text-anchor="middle" x="112" y="-83.8" font-family="Arial" font-size="8.00">PipeModel</text>
<polyline fill="none" stroke="black" points="6,-77 218,-77 "/>
<text text-anchor="start" x="14" y="-65.8" font-family="Arial" font-size="8.00">&#45; Bounds : BoundingSphere[]</text>
<text text-anchor="start" x="14" y="-55.8" font-family="Arial" font-size="8.00">+ Info : PipeModelInfo</text>
<polyline fill="none" stroke="black" points="6,-49 218,-49 "/>
<text text-anchor="start" x="14" y="-37.8" font-family="Arial" font-size="8.00">+ OnDataChange () : Action</text>
<text text-anchor="start" x="14" y="-27.8" font-family="Arial" font-size="8.00">+ PipeModel (GameScreen screen, PipeModelInfo info)</text>
<text text-anchor="start" x="14" y="-17.8" font-family="Arial" font-size="8.00">+ Intersects (Ray ray) : GameObjectDistance</text>
<text text-anchor="start" x="14" y="-7.8" font-family="Arial" font-size="8.00">+ Draw (GameTime time)</text>
</g>
<!-- Box_GameModel -->
<g id="node2" class="node"><title>Box_GameModel</title>
<polygon fill="#fcfcda" stroke="black" points="0,-133 0,-427 224,-427 224,-133 0,-133"/>
<text text-anchor="middle" x="112" y="-415.8" font-family="Arial" font-size="8.00">GameModel</text>
<polyline fill="none" stroke="black" points="0,-409 224,-409 "/>
<text text-anchor="start" x="8" y="-397.8" font-family="Arial" font-size="8.00">&#45; IGameObject.Info : GameObjectInfo</text>
<text text-anchor="start" x="8" y="-387.8" font-family="Arial" font-size="8.00">&#45; _rotation : Angles3</text>
<text text-anchor="start" x="8" y="-377.8" font-family="Arial" font-size="8.00">&#45; Bounds : BoundingSphere[]</text>
<text text-anchor="start" x="8" y="-367.8" font-family="Arial" font-size="8.00">&#45; _bounds : BoundingSphere[]</text>
<text text-anchor="start" x="8" y="-357.8" font-family="Arial" font-size="8.00">&#45; _worldMatrix : Matrix</text>
<text text-anchor="start" x="8" y="-347.8" font-family="Arial" font-size="8.00">&#45; _position : Vector3</text>
<text text-anchor="start" x="8" y="-337.8" font-family="Arial" font-size="8.00">&#45; _inFrustum : bool</text>
<text text-anchor="start" x="8" y="-327.8" font-family="Arial" font-size="8.00"># InCameraFrustum : bool</text>
<text text-anchor="start" x="8" y="-317.8" font-family="Arial" font-size="8.00">+ BaseColor : Color</text>
<text text-anchor="start" x="8" y="-307.8" font-family="Arial" font-size="8.00">+ HighlightColor : Color</text>
<text text-anchor="start" x="8" y="-297.8" font-family="Arial" font-size="8.00">+ Info : GameModelInfo</text>
<text text-anchor="start" x="8" y="-287.8" font-family="Arial" font-size="8.00">+ WorldMatrix : Matrix</text>
<text text-anchor="start" x="8" y="-277.8" font-family="Arial" font-size="8.00">+ World : World</text>
<text text-anchor="start" x="8" y="-267.8" font-family="Arial" font-size="8.00">+ Alpha : float</text>
<text text-anchor="start" x="8" y="-257.8" font-family="Arial" font-size="8.00">+ HighlightIntensity : float</text>
<text text-anchor="start" x="8" y="-247.8" font-family="Arial" font-size="8.00">&#45; _scale : Vector3</text>
<text text-anchor="start" x="8" y="-237.8" font-family="Arial" font-size="8.00">&#45; _world : World</text>
<text text-anchor="start" x="8" y="-227.8" font-family="Arial" font-size="8.00"># screen : GameScreen</text>
<text text-anchor="start" x="8" y="-217.8" font-family="Arial" font-size="8.00">+ Model : Model virtual</text>
<polyline fill="none" stroke="black" points="0,-211 224,-211 "/>
<text text-anchor="start" x="8" y="-199.8" font-family="Arial" font-size="8.00">&#45; OnViewChanged ()</text>
<text text-anchor="start" x="8" y="-189.8" font-family="Arial" font-size="8.00">&#45; UpdatePrecomputed ()</text>
<text text-anchor="start" x="8" y="-179.8" font-family="Arial" font-size="8.00">+ GameModel (GameScreen screen, GameModelInfo info)</text>
<text text-anchor="start" x="8" y="-169.8" font-family="Arial" font-size="8.00">+ Draw (GameTime time) virtual</text>
<text text-anchor="start" x="8" y="-159.8" font-family="Arial" font-size="8.00">+ Center () : Vector3</text>
<text text-anchor="start" x="8" y="-149.8" font-family="Arial" font-size="8.00">+ Intersects (Ray ray) : GameObjectDistance virtual</text>
<text text-anchor="start" x="8" y="-139.8" font-family="Arial" font-size="8.00">+ Update (GameTime time) virtual</text>
</g>
<!-- Box_GameModel&#45;&gt;Box_PipeModel -->
<g id="edge2" class="edge"><title>Box_GameModel&#45;&gt;Box_PipeModel</title>
<path fill="none" stroke="midnightblue" d="M112,-122.476C112,-112.767 112,-103.505 112,-95.0174"/>
<polygon fill="none" stroke="midnightblue" points="108.5,-122.742 112,-132.742 115.5,-122.742 108.5,-122.742"/>
</g>
<!-- Box_IGameObject -->
<g id="node3" class="node"><title>Box_IGameObject</title>
<polygon fill="#dafcda" stroke="black" points="22.5,-465 22.5,-559 201.5,-559 201.5,-465 22.5,-465"/>
<text text-anchor="middle" x="112" y="-547.8" font-family="Arial" font-size="8.00">IGameObject</text>
<polyline fill="none" stroke="black" points="22.5,-541 201.5,-541 "/>
<text text-anchor="start" x="30.5" y="-529.8" font-family="Arial" font-size="8.00">+ Info : GameObjectInfo</text>
<text text-anchor="start" x="30.5" y="-519.8" font-family="Arial" font-size="8.00">+ World : World</text>
<polyline fill="none" stroke="black" points="22.5,-513 201.5,-513 "/>
<text text-anchor="start" x="30.5" y="-501.8" font-family="Arial" font-size="8.00">+ Draw (GameTime time)</text>
<text text-anchor="start" x="30.5" y="-491.8" font-family="Arial" font-size="8.00">+ Update (GameTime time)</text>
<text text-anchor="start" x="30.5" y="-481.8" font-family="Arial" font-size="8.00">+ Intersects (Ray ray) : GameObjectDistance</text>
<text text-anchor="start" x="30.5" y="-471.8" font-family="Arial" font-size="8.00">+ Center () : Vector3</text>
</g>
<!-- Box_IGameObject&#45;&gt;Box_GameModel -->
<g id="edge4" class="edge"><title>Box_IGameObject&#45;&gt;Box_GameModel</title>
<path fill="none" stroke="midnightblue" d="M112,-454.563C112,-445.94 112,-436.731 112,-427.221"/>
<polygon fill="none" stroke="midnightblue" points="108.5,-454.772 112,-464.772 115.5,-454.772 108.5,-454.772"/>
</g>
</g>
</svg>
