<?xml version="1.0" encoding="UTF-8" standalone="no"?>
<!DOCTYPE svg PUBLIC "-//W3C//DTD SVG 1.1//EN"
 "http://www.w3.org/Graphics/SVG/1.1/DTD/svg11.dtd">
<!-- Generated by graphviz version 2.26.3 (20100126.1600)
 -->
<!-- Title: MenuItem Pages: 1 -->
<svg width="487pt" height="988pt"
 viewBox="0.00 0.00 487.00 988.00" xmlns="http://www.w3.org/2000/svg" xmlns:xlink="http://www.w3.org/1999/xlink">
<g id="graph1" class="graph" transform="scale(1 1) rotate(0) translate(4 984)">
<title>MenuItem</title>
<polygon fill="white" stroke="white" points="-4,5 -4,-984 484,-984 484,5 -4,5"/>
<!-- Box_Menu -->
<g id="node1" class="node"><title>Box_Menu</title>
<polygon fill="#fcfcda" stroke="black" points="80.5,-207 80.5,-507 479.5,-507 479.5,-207 80.5,-207"/>
<text text-anchor="middle" x="280" y="-495.8" font-family="Helvetica,sans-Serif" font-size="8.00">Menu</text>
<polyline fill="none" stroke="black" points="80.5,-487 479.5,-487 "/>
<text text-anchor="start" x="88.5" y="-475.8" font-family="Helvetica,sans-Serif" font-size="8.00">Attributes:</text>
<text text-anchor="start" x="88.5" y="-463.8" font-family="Helvetica,sans-Serif" font-size="8.00">&#45; isVisible : bool</text>
<text text-anchor="start" x="88.5" y="-451.8" font-family="Helvetica,sans-Serif" font-size="8.00"># Items : List&lt;MenuItem&gt;</text>
<text text-anchor="start" x="88.5" y="-439.8" font-family="Helvetica,sans-Serif" font-size="8.00">+ Color&gt; ItemBackgroundColor : Func&lt;ItemState,</text>
<text text-anchor="start" x="88.5" y="-427.8" font-family="Helvetica,sans-Serif" font-size="8.00">+ Color&gt; ItemForegroundColor : Func&lt;ItemState,</text>
<text text-anchor="start" x="88.5" y="-415.8" font-family="Helvetica,sans-Serif" font-size="8.00">+ Vector2&gt; RelativeItemPosition : Func&lt;int,</text>
<text text-anchor="start" x="88.5" y="-403.8" font-family="Helvetica,sans-Serif" font-size="8.00">+ ItemAlignX : HAlign?</text>
<text text-anchor="start" x="88.5" y="-391.8" font-family="Helvetica,sans-Serif" font-size="8.00">+ ItemAlignY : VAlign?</text>
<text text-anchor="start" x="88.5" y="-379.8" font-family="Helvetica,sans-Serif" font-size="8.00">+ Count : int</text>
<text text-anchor="start" x="88.5" y="-367.8" font-family="Helvetica,sans-Serif" font-size="8.00">+ IsVisible : bool</text>
<text text-anchor="start" x="88.5" y="-355.8" font-family="Helvetica,sans-Serif" font-size="8.00">&#45; ItemDisplayLayer : DisplayLayer</text>
<text text-anchor="start" x="88.5" y="-343.8" font-family="Helvetica,sans-Serif" font-size="8.00">+ Vector2&gt; RelativeItemSize : Func&lt;int,</text>
<text text-anchor="start" x="88.5" y="-331.8" font-family="Helvetica,sans-Serif" font-size="8.00">Methods:</text>
<polyline fill="none" stroke="black" points="80.5,-323 479.5,-323 "/>
<text text-anchor="start" x="88.5" y="-311.8" font-family="Helvetica,sans-Serif" font-size="8.00">&#45; assignMenuItemInfo (ref MenuItemInfo info, int num, MenuItem item)</text>
<text text-anchor="start" x="88.5" y="-299.8" font-family="Helvetica,sans-Serif" font-size="8.00">+ Menu (GameState state, WidgetInfo info, DisplayLayer drawOrder)</text>
<text text-anchor="start" x="88.5" y="-287.8" font-family="Helvetica,sans-Serif" font-size="8.00">+ this (int i) : MenuItem</text>
<text text-anchor="start" x="88.5" y="-275.8" font-family="Helvetica,sans-Serif" font-size="8.00">+ SubComponents (GameTime gameTime) : IEnumerable&lt;IGameStateComponent&gt;</text>
<text text-anchor="start" x="88.5" y="-263.8" font-family="Helvetica,sans-Serif" font-size="8.00">+ CollapseMenus (MenuItem menu)</text>
<text text-anchor="start" x="88.5" y="-251.8" font-family="Helvetica,sans-Serif" font-size="8.00">+ AddButton (MenuItemInfo info) : MenuButton virtual</text>
<text text-anchor="start" x="88.5" y="-239.8" font-family="Helvetica,sans-Serif" font-size="8.00">+ AddDropDown (MenuItemInfo info, DistinctOptionInfo option) virtual</text>
<text text-anchor="start" x="88.5" y="-227.8" font-family="Helvetica,sans-Serif" font-size="8.00">+ AddDropDown (MenuItemInfo info, DropDownMenuItem[] items, DropDownMenuItem defaultItem) virtual</text>
<text text-anchor="start" x="88.5" y="-215.8" font-family="Helvetica,sans-Serif" font-size="8.00">+ Clear ()</text>
</g>
<!-- Box_VerticalMenu -->
<g id="node5" class="node"><title>Box_VerticalMenu</title>
<polygon fill="#fcfcda" stroke="black" points="92,-1 92,-169 468,-169 468,-1 92,-1"/>
<text text-anchor="middle" x="280" y="-157.8" font-family="Helvetica,sans-Serif" font-size="8.00">VerticalMenu</text>
<polyline fill="none" stroke="black" points="92,-149 468,-149 "/>
<text text-anchor="start" x="100" y="-137.8" font-family="Helvetica,sans-Serif" font-size="8.00">Attributes:</text>
<text text-anchor="start" x="100" y="-125.8" font-family="Helvetica,sans-Serif" font-size="8.00"># spriteBatch : SpriteBatch</text>
<text text-anchor="start" x="100" y="-113.8" font-family="Helvetica,sans-Serif" font-size="8.00">+ Border : Border</text>
<text text-anchor="start" x="100" y="-101.8" font-family="Helvetica,sans-Serif" font-size="8.00">Methods:</text>
<polyline fill="none" stroke="black" points="92,-93 468,-93 "/>
<text text-anchor="start" x="100" y="-81.8" font-family="Helvetica,sans-Serif" font-size="8.00">+ VerticalMenu (GameState state, WidgetInfo info, DisplayLayer drawOrder)</text>
<text text-anchor="start" x="100" y="-69.8" font-family="Helvetica,sans-Serif" font-size="8.00">+ Align (Viewport viewport, float scale, int posX, int posY, int? sizeX)</text>
<text text-anchor="start" x="100" y="-57.8" font-family="Helvetica,sans-Serif" font-size="8.00">+ AddButton (MenuItemInfo info) : MenuButton</text>
<text text-anchor="start" x="100" y="-45.8" font-family="Helvetica,sans-Serif" font-size="8.00">+ AddDropDown (MenuItemInfo info, DistinctOptionInfo option)</text>
<text text-anchor="start" x="100" y="-33.8" font-family="Helvetica,sans-Serif" font-size="8.00">+ AddDropDown (MenuItemInfo info, DropDownMenuItem[] items, DropDownMenuItem defaultItem)</text>
<text text-anchor="start" x="100" y="-21.8" font-family="Helvetica,sans-Serif" font-size="8.00">+ Draw (GameTime gameTime)</text>
<text text-anchor="start" x="100" y="-9.8" font-family="Helvetica,sans-Serif" font-size="8.00">+ Align (Viewport viewport, float scale, Vector2? givenPosition)</text>
</g>
<!-- Box_Menu&#45;&gt;Box_VerticalMenu -->
<g id="edge32" class="edge"><title>Box_Menu&#45;&gt;Box_VerticalMenu</title>
<path fill="none" stroke="midnightblue" d="M273.348,-196.542C273.423,-187.249 273.542,-178.113 273.703,-169.316"/>
<polygon fill="none" stroke="midnightblue" points="269.847,-196.658 273.283,-206.68 276.847,-196.702 269.847,-196.658"/>
</g>
<!-- Box_Menu&#45;&gt;Box_VerticalMenu -->
<g id="edge34" class="edge"><title>Box_Menu&#45;&gt;Box_VerticalMenu</title>
<path fill="none" stroke="midnightblue" d="M286.652,-196.542C286.577,-187.249 286.458,-178.113 286.297,-169.316"/>
<polygon fill="none" stroke="midnightblue" points="283.153,-196.702 286.717,-206.68 290.153,-196.658 283.153,-196.702"/>
</g>
<!-- Box_Widget -->
<g id="node2" class="node"><title>Box_Widget</title>
<polygon fill="#fcfcda" stroke="black" points="147,-545 147,-653 413,-653 413,-545 147,-545"/>
<text text-anchor="middle" x="280" y="-641.8" font-family="Helvetica,sans-Serif" font-size="8.00">Widget</text>
<polyline fill="none" stroke="black" points="147,-633 413,-633 "/>
<text text-anchor="start" x="155" y="-621.8" font-family="Helvetica,sans-Serif" font-size="8.00">Attributes:</text>
<text text-anchor="start" x="155" y="-609.8" font-family="Helvetica,sans-Serif" font-size="8.00">+ Info : WidgetInfo</text>
<text text-anchor="start" x="155" y="-597.8" font-family="Helvetica,sans-Serif" font-size="8.00">+ IsVisible : bool virtual</text>
<text text-anchor="start" x="155" y="-585.8" font-family="Helvetica,sans-Serif" font-size="8.00">Methods:</text>
<polyline fill="none" stroke="black" points="147,-577 413,-577 "/>
<text text-anchor="start" x="155" y="-565.8" font-family="Helvetica,sans-Serif" font-size="8.00">+ bounds () : Rectangle</text>
<text text-anchor="start" x="155" y="-553.8" font-family="Helvetica,sans-Serif" font-size="8.00">+ Widget (GameState state, WidgetInfo info, DisplayLayer drawOrder)</text>
</g>
<!-- Box_Widget&#45;&gt;Box_Menu -->
<g id="edge2" class="edge"><title>Box_Widget&#45;&gt;Box_Menu</title>
<path fill="none" stroke="midnightblue" d="M280,-534.969C280,-526.216 280,-516.948 280,-507.421"/>
<polygon fill="none" stroke="midnightblue" points="276.5,-534.992 280,-544.992 283.5,-534.992 276.5,-534.992"/>
</g>
<!-- Box_DrawableGameStateComponent -->
<g id="node3" class="node"><title>Box_DrawableGameStateComponent</title>
<polygon fill="#fcfcda" stroke="black" points="109.5,-691 109.5,-799 450.5,-799 450.5,-691 109.5,-691"/>
<text text-anchor="middle" x="280" y="-787.8" font-family="Helvetica,sans-Serif" font-size="8.00">DrawableGameStateComponent</text>
<polyline fill="none" stroke="black" points="109.5,-779 450.5,-779 "/>
<text text-anchor="start" x="117.5" y="-767.8" font-family="Helvetica,sans-Serif" font-size="8.00">Attributes:</text>
<text text-anchor="start" x="117.5" y="-755.8" font-family="Helvetica,sans-Serif" font-size="8.00">+ state : GameState</text>
<text text-anchor="start" x="117.5" y="-743.8" font-family="Helvetica,sans-Serif" font-size="8.00">+ Index : int</text>
<text text-anchor="start" x="117.5" y="-731.8" font-family="Helvetica,sans-Serif" font-size="8.00">Methods:</text>
<polyline fill="none" stroke="black" points="109.5,-723 450.5,-723 "/>
<text text-anchor="start" x="117.5" y="-711.8" font-family="Helvetica,sans-Serif" font-size="8.00">+ DrawableGameStateComponent (GameState state, DisplayLayer drawOrder)</text>
<text text-anchor="start" x="117.5" y="-699.8" font-family="Helvetica,sans-Serif" font-size="8.00">+ SubComponents (GameTime gameTime) : IEnumerable&lt;IGameStateComponent&gt; virtual</text>
</g>
<!-- Box_DrawableGameStateComponent&#45;&gt;Box_Widget -->
<g id="edge4" class="edge"><title>Box_DrawableGameStateComponent&#45;&gt;Box_Widget</title>
<path fill="none" stroke="midnightblue" d="M273.291,-680.523C273.204,-671.474 273.256,-662.248 273.448,-653.41"/>
<polygon fill="none" stroke="midnightblue" points="269.793,-680.691 273.449,-690.635 276.792,-680.581 269.793,-680.691"/>
</g>
<!-- Box_DrawableGameStateComponent&#45;&gt;Box_Widget -->
<g id="edge18" class="edge"><title>Box_DrawableGameStateComponent&#45;&gt;Box_Widget</title>
<path fill="none" stroke="midnightblue" d="M286.709,-680.523C286.796,-671.474 286.744,-662.248 286.552,-653.41"/>
<polygon fill="none" stroke="midnightblue" points="283.208,-680.581 286.551,-690.635 290.207,-680.691 283.208,-680.581"/>
</g>
<!-- Box_IGameStateComponent -->
<g id="node4" class="node"><title>Box_IGameStateComponent</title>
<polygon fill="#dafcda" stroke="black" points="0,-837 0,-921 318,-921 318,-837 0,-837"/>
<text text-anchor="middle" x="159" y="-909.8" font-family="Helvetica,sans-Serif" font-size="8.00">IGameStateComponent</text>
<polyline fill="none" stroke="black" points="0,-901 318,-901 "/>
<text text-anchor="start" x="8" y="-889.8" font-family="Helvetica,sans-Serif" font-size="8.00">Attributes:</text>
<text text-anchor="start" x="8" y="-877.8" font-family="Helvetica,sans-Serif" font-size="8.00">+ Index : int</text>
<text text-anchor="start" x="8" y="-865.8" font-family="Helvetica,sans-Serif" font-size="8.00">Methods:</text>
<polyline fill="none" stroke="black" points="0,-857 318,-857 "/>
<text text-anchor="start" x="8" y="-845.8" font-family="Helvetica,sans-Serif" font-size="8.00">+ SubComponents (GameTime gameTime) : IEnumerable&lt;IGameStateComponent&gt;</text>
</g>
<!-- Box_IGameStateComponent&#45;&gt;Box_DrawableGameStateComponent -->
<g id="edge22" class="edge"><title>Box_IGameStateComponent&#45;&gt;Box_DrawableGameStateComponent</title>
<path fill="none" stroke="midnightblue" d="M184.529,-828.953C192.61,-819.244 201.751,-809.027 211.148,-799.192"/>
<polygon fill="none" stroke="midnightblue" points="181.604,-827.003 178.009,-836.969 187.034,-831.42 181.604,-827.003"/>
</g>
<!-- Box_IGameStateComponent&#45;&gt;Box_DrawableGameStateComponent -->
<g id="edge28" class="edge"><title>Box_IGameStateComponent&#45;&gt;Box_DrawableGameStateComponent</title>
<path fill="none" stroke="midnightblue" d="M223.003,-829.825C232.748,-819.857 242.368,-809.322 250.983,-799.192"/>
<polygon fill="none" stroke="midnightblue" points="220.468,-827.411 215.898,-836.969 225.431,-832.347 220.468,-827.411"/>
</g>
<!-- Box_IGameStateComponent&#45;&gt;Box_DrawableGameStateComponent -->
<g id="edge8" class="edge"><title>Box_IGameStateComponent&#45;&gt;Box_DrawableGameStateComponent</title>
<path fill="none" stroke="midnightblue" d="M197.382,-829.244C205.992,-819.448 215.283,-809.125 224.426,-799.192"/>
<polygon fill="none" stroke="midnightblue" points="194.578,-827.134 190.638,-836.969 199.851,-831.737 194.578,-827.134"/>
</g>
<!-- Box_IGameStateComponent&#45;&gt;Box_DrawableGameStateComponent -->
<g id="edge14" class="edge"><title>Box_IGameStateComponent&#45;&gt;Box_DrawableGameStateComponent</title>
<path fill="none" stroke="midnightblue" d="M210.207,-829.535C219.371,-819.653 228.822,-809.224 237.705,-799.192"/>
<polygon fill="none" stroke="midnightblue" points="207.532,-827.27 203.268,-836.969 212.65,-832.047 207.532,-827.27"/>
</g>
<!-- Box_XnaDrawableGameComponent -->
<g id="node6" class="node"><title>Box_XnaDrawableGameComponent</title>
<polygon fill="#ffffff" stroke="black" points="335.5,-869 335.5,-889 466.5,-889 466.5,-869 335.5,-869"/>
<text text-anchor="middle" x="401" y="-877.8" font-family="Helvetica,sans-Serif" font-size="8.00">Xna.DrawableGameComponent</text>
</g>
<!-- Box_XnaDrawableGameComponent&#45;&gt;Box_DrawableGameStateComponent -->
<g id="edge26" class="edge"><title>Box_XnaDrawableGameComponent&#45;&gt;Box_DrawableGameStateComponent</title>
<path fill="none" stroke="midnightblue" d="M372.526,-862.736C352.943,-846.909 328.381,-821.97 308.948,-799.111"/>
<polygon fill="none" stroke="midnightblue" points="370.523,-865.61 380.585,-868.928 374.788,-860.06 370.523,-865.61"/>
</g>
<!-- Box_XnaDrawableGameComponent&#45;&gt;Box_DrawableGameStateComponent -->
<g id="edge6" class="edge"><title>Box_XnaDrawableGameComponent&#45;&gt;Box_DrawableGameStateComponent</title>
<path fill="none" stroke="midnightblue" d="M380.851,-861.879C364.835,-846.019 342.101,-821.562 322.223,-799.111"/>
<polygon fill="none" stroke="midnightblue" points="378.513,-864.487 388.132,-868.928 383.382,-859.458 378.513,-864.487"/>
</g>
<!-- Box_XnaDrawableGameComponent&#45;&gt;Box_DrawableGameStateComponent -->
<g id="edge12" class="edge"><title>Box_XnaDrawableGameComponent&#45;&gt;Box_DrawableGameStateComponent</title>
<path fill="none" stroke="midnightblue" d="M389.532,-861.006C376.823,-845.13 355.791,-821.153 335.499,-799.111"/>
<polygon fill="none" stroke="midnightblue" points="386.783,-863.173 395.679,-868.928 392.314,-858.882 386.783,-863.173"/>
</g>
<!-- Box_XnaDrawableGameComponent&#45;&gt;Box_DrawableGameStateComponent -->
<g id="edge20" class="edge"><title>Box_XnaDrawableGameComponent&#45;&gt;Box_DrawableGameStateComponent</title>
<path fill="none" stroke="midnightblue" d="M398.282,-859.664C388.537,-843.8 369.258,-820.541 348.774,-799.111"/>
<polygon fill="none" stroke="midnightblue" points="395.429,-861.754 403.226,-868.928 401.605,-858.458 395.429,-861.754"/>
</g>
<!-- Box_XnaIGameComponent -->
<g id="node7" class="node"><title>Box_XnaIGameComponent</title>
<polygon fill="#ffffff" stroke="black" points="109.5,-959 109.5,-979 208.5,-979 208.5,-959 109.5,-959"/>
<text text-anchor="middle" x="159" y="-967.8" font-family="Helvetica,sans-Serif" font-size="8.00">Xna.IGameComponent</text>
</g>
<!-- Box_XnaIGameComponent&#45;&gt;Box_IGameStateComponent -->
<g id="edge24" class="edge"><title>Box_XnaIGameComponent&#45;&gt;Box_IGameStateComponent</title>
<path fill="none" stroke="midnightblue" d="M141.911,-949.282C139.599,-941.052 138.555,-931.152 138.78,-921.414"/>
<polygon fill="none" stroke="midnightblue" points="138.666,-950.595 145.518,-958.676 145.201,-948.086 138.666,-950.595"/>
</g>
<!-- Box_XnaIGameComponent&#45;&gt;Box_IGameStateComponent -->
<g id="edge30" class="edge"><title>Box_XnaIGameComponent&#45;&gt;Box_IGameStateComponent</title>
<path fill="none" stroke="midnightblue" d="M176.089,-949.282C178.401,-941.052 179.445,-931.152 179.22,-921.414"/>
<polygon fill="none" stroke="midnightblue" points="172.799,-948.086 172.482,-958.676 179.334,-950.595 172.799,-948.086"/>
</g>
<!-- Box_XnaIGameComponent&#45;&gt;Box_IGameStateComponent -->
<g id="edge10" class="edge"><title>Box_XnaIGameComponent&#45;&gt;Box_IGameStateComponent</title>
<path fill="none" stroke="midnightblue" d="M153.253,-948.731C152.518,-940.612 152.187,-930.936 152.26,-921.414"/>
<polygon fill="none" stroke="midnightblue" points="149.783,-949.192 154.506,-958.676 156.728,-948.317 149.783,-949.192"/>
</g>
<!-- Box_XnaIGameComponent&#45;&gt;Box_IGameStateComponent -->
<g id="edge16" class="edge"><title>Box_XnaIGameComponent&#45;&gt;Box_IGameStateComponent</title>
<path fill="none" stroke="midnightblue" d="M164.747,-948.731C165.482,-940.612 165.813,-930.936 165.74,-921.414"/>
<polygon fill="none" stroke="midnightblue" points="161.272,-948.317 163.494,-958.676 168.217,-949.192 161.272,-948.317"/>
</g>
</g>
</svg>
