<?xml version="1.0" encoding="UTF-8" standalone="no"?>
<!DOCTYPE svg PUBLIC "-//W3C//DTD SVG 1.1//EN"
 "http://www.w3.org/Graphics/SVG/1.1/DTD/svg11.dtd">
<!-- Generated by graphviz version 2.26.3 (20100126.1600)
 -->
<!-- Title: MenuItem Pages: 1 -->
<svg width="1737pt" height="1558pt"
 viewBox="0.00 0.00 417.00 374.00" xmlns="http://www.w3.org/2000/svg" xmlns:xlink="http://www.w3.org/1999/xlink">
<g id="graph1" class="graph" transform="scale(4.16667 4.16667) rotate(0) translate(4 370)">
<title>MenuItem</title>
<polygon fill="white" stroke="white" points="-4,5 -4,-370 414,-370 414,5 -4,5"/>
<!-- Box_ModelMousePicker -->
<g id="node1" class="node"><title>Box_ModelMousePicker</title>
<polygon fill="#fcfcda" stroke="black" points="140,-1 140,-105 362,-105 362,-1 140,-1"/>
<text text-anchor="middle" x="251" y="-93.8" font-family="Arial" font-size="8.00">ModelMousePicker</text>
<polyline fill="none" stroke="black" points="140,-87 362,-87 "/>
<text text-anchor="start" x="148" y="-75.8" font-family="Arial" font-size="8.00">&#45; lastMousePosition : Vector2</text>
<text text-anchor="start" x="148" y="-65.8" font-family="Arial" font-size="8.00">&#45; World : World</text>
<text text-anchor="start" x="148" y="-55.8" font-family="Arial" font-size="8.00">&#45; lastRayCheck : double</text>
<polyline fill="none" stroke="black" points="140,-49 362,-49 "/>
<text text-anchor="start" x="148" y="-37.8" font-family="Arial" font-size="8.00">&#45; UpdateMouseRay (GameTime time)</text>
<text text-anchor="start" x="148" y="-27.8" font-family="Arial" font-size="8.00">+ ModelMousePicker (GameScreen screen, World world)</text>
<text text-anchor="start" x="148" y="-17.8" font-family="Arial" font-size="8.00">&#45; CheckMouseRay (GameTime time)</text>
<text text-anchor="start" x="148" y="-7.8" font-family="Arial" font-size="8.00">+ Update (GameTime time)</text>
</g>
<!-- Box_GameScreenComponent -->
<g id="node2" class="node"><title>Box_GameScreenComponent</title>
<polygon fill="#fcfcda" stroke="black" points="92.5,-143 92.5,-217 409.5,-217 409.5,-143 92.5,-143"/>
<text text-anchor="middle" x="251" y="-205.8" font-family="Arial" font-size="8.00">GameScreenComponent</text>
<polyline fill="none" stroke="black" points="92.5,-199 409.5,-199 "/>
<text text-anchor="start" x="100.5" y="-187.8" font-family="Arial" font-size="8.00">+ Index : DisplayLayer</text>
<text text-anchor="start" x="100.5" y="-177.8" font-family="Arial" font-size="8.00">+ screen : GameScreen</text>
<polyline fill="none" stroke="black" points="92.5,-171 409.5,-171 "/>
<text text-anchor="start" x="100.5" y="-159.8" font-family="Arial" font-size="8.00">+ GameScreenComponent (GameScreen screen, DisplayLayer index)</text>
<text text-anchor="start" x="100.5" y="-149.8" font-family="Arial" font-size="8.00">+ SubComponents (GameTime time) : IEnumerable&lt;IGameScreenComponent&gt; virtual</text>
</g>
<!-- Box_GameScreenComponent&#45;&gt;Box_ModelMousePicker -->
<g id="edge2" class="edge"><title>Box_GameScreenComponent&#45;&gt;Box_ModelMousePicker</title>
<path fill="none" stroke="midnightblue" d="M251,-132.74C251,-123.847 251,-114.498 251,-105.458"/>
<polygon fill="none" stroke="midnightblue" points="247.5,-132.925 251,-142.925 254.5,-132.925 247.5,-132.925"/>
</g>
<!-- Box_IGameScreenComponent -->
<g id="node3" class="node"><title>Box_IGameScreenComponent</title>
<polygon fill="#dafcda" stroke="black" points="-0.5,-255 -0.5,-309 292.5,-309 292.5,-255 -0.5,-255"/>
<text text-anchor="middle" x="146" y="-297.8" font-family="Arial" font-size="8.00">IGameScreenComponent</text>
<polyline fill="none" stroke="black" points="-0.5,-291 292.5,-291 "/>
<text text-anchor="start" x="7.5" y="-279.8" font-family="Arial" font-size="8.00">+ Index : DisplayLayer</text>
<polyline fill="none" stroke="black" points="-0.5,-273 292.5,-273 "/>
<text text-anchor="start" x="7.5" y="-261.8" font-family="Arial" font-size="8.00">+ SubComponents (GameTime time) : IEnumerable&lt;IGameScreenComponent&gt;</text>
</g>
<!-- Box_IGameScreenComponent&#45;&gt;Box_GameScreenComponent -->
<g id="edge6" class="edge"><title>Box_IGameScreenComponent&#45;&gt;Box_GameScreenComponent</title>
<path fill="none" stroke="midnightblue" d="M181.065,-247.937C191.229,-238.063 202.378,-227.233 212.728,-217.178"/>
<polygon fill="none" stroke="midnightblue" points="178.596,-245.455 173.862,-254.934 183.474,-250.476 178.596,-245.455"/>
</g>
<!-- Box_XnaGameComponent -->
<g id="node4" class="node"><title>Box_XnaGameComponent</title>
<polygon fill="#ffffff" stroke="black" points="309.5,-273 309.5,-291 404.5,-291 404.5,-273 309.5,-273"/>
<text text-anchor="middle" x="357" y="-279.8" font-family="Arial" font-size="8.00">Xna.GameComponent</text>
</g>
<!-- Box_XnaGameComponent&#45;&gt;Box_GameScreenComponent -->
<g id="edge4" class="edge"><title>Box_XnaGameComponent&#45;&gt;Box_GameScreenComponent</title>
<path fill="none" stroke="midnightblue" d="M340.37,-265.998C326.786,-252.926 307.044,-233.929 289.568,-217.113"/>
<polygon fill="none" stroke="midnightblue" points="337.961,-268.536 347.593,-272.948 342.814,-263.492 337.961,-268.536"/>
</g>
<!-- Box_XnaIGameComponent -->
<g id="node5" class="node"><title>Box_XnaIGameComponent</title>
<polygon fill="#ffffff" stroke="black" points="98,-347 98,-365 194,-365 194,-347 98,-347"/>
<text text-anchor="middle" x="146" y="-353.8" font-family="Arial" font-size="8.00">Xna.IGameComponent</text>
</g>
<!-- Box_XnaIGameComponent&#45;&gt;Box_IGameScreenComponent -->
<g id="edge8" class="edge"><title>Box_XnaIGameComponent&#45;&gt;Box_IGameScreenComponent</title>
<path fill="none" stroke="midnightblue" d="M146,-336.64C146,-328.2 146,-318.16 146,-309.004"/>
<polygon fill="none" stroke="midnightblue" points="142.5,-336.926 146,-346.926 149.5,-336.926 142.5,-336.926"/>
</g>
</g>
</svg>
