<?xml version="1.0" encoding="UTF-8" standalone="no"?>
<!DOCTYPE svg PUBLIC "-//W3C//DTD SVG 1.1//EN"
 "http://www.w3.org/Graphics/SVG/1.1/DTD/svg11.dtd">
<!-- Generated by graphviz version 2.26.3 (20100126.1600)
 -->
<!-- Title: MenuItem Pages: 1 -->
<svg width="1867pt" height="2225pt"
 viewBox="0.00 0.00 448.00 534.00" xmlns="http://www.w3.org/2000/svg" xmlns:xlink="http://www.w3.org/1999/xlink">
<g id="graph1" class="graph" transform="scale(4.16667 4.16667) rotate(0) translate(4 530)">
<title>MenuItem</title>
<polygon fill="white" stroke="white" points="-4,5 -4,-530 445,-530 445,5 -4,5"/>
<!-- Box_Overlay -->
<g id="node1" class="node"><title>Box_Overlay</title>
<polygon fill="#fcfcda" stroke="black" points="95.5,-1 95.5,-255 424.5,-255 424.5,-1 95.5,-1"/>
<text text-anchor="middle" x="260" y="-243.8" font-family="Arial" font-size="8.00">Overlay</text>
<polyline fill="none" stroke="black" points="95.5,-237 424.5,-237 "/>
<text text-anchor="start" x="103.5" y="-225.8" font-family="Arial" font-size="8.00">&#45; effect : BasicEffect</text>
<text text-anchor="start" x="103.5" y="-215.8" font-family="Arial" font-size="8.00">&#45; _elapsed_time : float</text>
<text text-anchor="start" x="103.5" y="-205.8" font-family="Arial" font-size="8.00">&#45; _fps : int</text>
<text text-anchor="start" x="103.5" y="-195.8" font-family="Arial" font-size="8.00">&#45; World : World</text>
<text text-anchor="start" x="103.5" y="-185.8" font-family="Arial" font-size="8.00">+ HashtableWrapper : class</text>
<text text-anchor="start" x="103.5" y="-175.8" font-family="Arial" font-size="8.00">&#45; _total_frames : int</text>
<text text-anchor="start" x="103.5" y="-165.8" font-family="Arial" font-size="8.00">&#45; spriteBatch : SpriteBatch</text>
<text text-anchor="start" x="103.5" y="-155.8" font-family="Arial" font-size="8.00">&#45; font : SpriteFont</text>
<polyline fill="none" stroke="black" points="95.5,-149 424.5,-149 "/>
<text text-anchor="start" x="103.5" y="-137.8" font-family="Arial" font-size="8.00">&#45; profiler () : Hashtable static</text>
<text text-anchor="start" x="103.5" y="-127.8" font-family="Arial" font-size="8.00">+ Profiler () : HashtableWrapper static</text>
<text text-anchor="start" x="103.5" y="-117.8" font-family="Arial" font-size="8.00">&#45; DrawFPS (GameTime time)</text>
<text text-anchor="start" x="103.5" y="-107.8" font-family="Arial" font-size="8.00">&#45; DrawString (float n, int width, int height, Color color)</text>
<text text-anchor="start" x="103.5" y="-97.8" font-family="Arial" font-size="8.00">&#45; DrawVectorCoordinates (Vector3 vector, int width2, int width3, int width4, int height)</text>
<text text-anchor="start" x="103.5" y="-87.8" font-family="Arial" font-size="8.00">&#45; UpdateFPS (GameTime time)</text>
<text text-anchor="start" x="103.5" y="-77.8" font-family="Arial" font-size="8.00">+ Overlay (GameScreen screen, World world)</text>
<text text-anchor="start" x="103.5" y="-67.8" font-family="Arial" font-size="8.00">+ Draw (GameTime time)</text>
<text text-anchor="start" x="103.5" y="-57.8" font-family="Arial" font-size="8.00">&#45; DrawCoordinates (GameTime time)</text>
<text text-anchor="start" x="103.5" y="-47.8" font-family="Arial" font-size="8.00">&#45; DrawOverlay (GameTime time)</text>
<text text-anchor="start" x="103.5" y="-37.8" font-family="Arial" font-size="8.00">&#45; DrawProfiler (GameTime time)</text>
<text text-anchor="start" x="103.5" y="-27.8" font-family="Arial" font-size="8.00">&#45; DrawString (string str, int width, int height, Color color)</text>
<text text-anchor="start" x="103.5" y="-17.8" font-family="Arial" font-size="8.00"># LoadContent ()</text>
<text text-anchor="start" x="103.5" y="-7.8" font-family="Arial" font-size="8.00">+ Update (GameTime time)</text>
</g>
<!-- Box_DrawableGameScreenComponent -->
<g id="node2" class="node"><title>Box_DrawableGameScreenComponent</title>
<polygon fill="#fcfcda" stroke="black" points="101.5,-293 101.5,-377 418.5,-377 418.5,-293 101.5,-293"/>
<text text-anchor="middle" x="260" y="-365.8" font-family="Arial" font-size="8.00">DrawableGameScreenComponent</text>
<polyline fill="none" stroke="black" points="101.5,-359 418.5,-359 "/>
<text text-anchor="start" x="109.5" y="-347.8" font-family="Arial" font-size="8.00">+ Index : DisplayLayer</text>
<text text-anchor="start" x="109.5" y="-337.8" font-family="Arial" font-size="8.00">&#45; _index : DisplayLayer</text>
<text text-anchor="start" x="109.5" y="-327.8" font-family="Arial" font-size="8.00">+ screen : GameScreen</text>
<polyline fill="none" stroke="black" points="101.5,-321 418.5,-321 "/>
<text text-anchor="start" x="109.5" y="-309.8" font-family="Arial" font-size="8.00">+ DrawableGameScreenComponent (GameScreen screen, DisplayLayer index)</text>
<text text-anchor="start" x="109.5" y="-299.8" font-family="Arial" font-size="8.00">+ SubComponents (GameTime time) : IEnumerable&lt;IGameScreenComponent&gt; virtual</text>
</g>
<!-- Box_DrawableGameScreenComponent&#45;&gt;Box_Overlay -->
<g id="edge2" class="edge"><title>Box_DrawableGameScreenComponent&#45;&gt;Box_Overlay</title>
<path fill="none" stroke="midnightblue" d="M260,-282.657C260,-274.014 260,-264.736 260,-255.172"/>
<polygon fill="none" stroke="midnightblue" points="256.5,-282.861 260,-292.861 263.5,-282.861 256.5,-282.861"/>
</g>
<!-- Box_IGameScreenComponent -->
<g id="node3" class="node"><title>Box_IGameScreenComponent</title>
<polygon fill="#dafcda" stroke="black" points="-0.5,-415 -0.5,-469 292.5,-469 292.5,-415 -0.5,-415"/>
<text text-anchor="middle" x="146" y="-457.8" font-family="Arial" font-size="8.00">IGameScreenComponent</text>
<polyline fill="none" stroke="black" points="-0.5,-451 292.5,-451 "/>
<text text-anchor="start" x="7.5" y="-439.8" font-family="Arial" font-size="8.00">+ Index : DisplayLayer</text>
<polyline fill="none" stroke="black" points="-0.5,-433 292.5,-433 "/>
<text text-anchor="start" x="7.5" y="-421.8" font-family="Arial" font-size="8.00">+ SubComponents (GameTime time) : IEnumerable&lt;IGameScreenComponent&gt;</text>
</g>
<!-- Box_IGameScreenComponent&#45;&gt;Box_DrawableGameScreenComponent -->
<g id="edge6" class="edge"><title>Box_IGameScreenComponent&#45;&gt;Box_DrawableGameScreenComponent</title>
<path fill="none" stroke="midnightblue" d="M182.116,-408.102C192.502,-398.354 203.961,-387.598 214.821,-377.404"/>
<polygon fill="none" stroke="midnightblue" points="179.663,-405.604 174.767,-414.999 184.454,-410.708 179.663,-405.604"/>
</g>
<!-- Box_XnaDrawableGameComponent -->
<g id="node4" class="node"><title>Box_XnaDrawableGameComponent</title>
<polygon fill="#ffffff" stroke="black" points="310,-433 310,-451 440,-451 440,-433 310,-433"/>
<text text-anchor="middle" x="375" y="-439.8" font-family="Arial" font-size="8.00">Xna.DrawableGameComponent</text>
</g>
<!-- Box_XnaDrawableGameComponent&#45;&gt;Box_DrawableGameScreenComponent -->
<g id="edge4" class="edge"><title>Box_XnaDrawableGameComponent&#45;&gt;Box_DrawableGameScreenComponent</title>
<path fill="none" stroke="midnightblue" d="M357.824,-426.018C343.966,-413.124 323.815,-394.376 305.399,-377.241"/>
<polygon fill="none" stroke="midnightblue" points="355.49,-428.628 365.195,-432.877 360.258,-423.503 355.49,-428.628"/>
</g>
<!-- Box_XnaIGameComponent -->
<g id="node5" class="node"><title>Box_XnaIGameComponent</title>
<polygon fill="#ffffff" stroke="black" points="98,-507 98,-525 194,-525 194,-507 98,-507"/>
<text text-anchor="middle" x="146" y="-513.8" font-family="Arial" font-size="8.00">Xna.IGameComponent</text>
</g>
<!-- Box_XnaIGameComponent&#45;&gt;Box_IGameScreenComponent -->
<g id="edge8" class="edge"><title>Box_XnaIGameComponent&#45;&gt;Box_IGameScreenComponent</title>
<path fill="none" stroke="midnightblue" d="M146,-496.64C146,-488.2 146,-478.16 146,-469.004"/>
<polygon fill="none" stroke="midnightblue" points="142.5,-496.926 146,-506.926 149.5,-496.926 142.5,-496.926"/>
</g>
</g>
</svg>
