<?xml version="1.0" encoding="UTF-8" standalone="no"?>
<!DOCTYPE svg PUBLIC "-//W3C//DTD SVG 1.1//EN"
 "http://www.w3.org/Graphics/SVG/1.1/DTD/svg11.dtd">
<!-- Generated by graphviz version 2.26.3 (20100126.1600)
 -->
<!-- Title: MenuItem Pages: 1 -->
<svg width="2169pt" height="1424pt"
 viewBox="0.00 0.00 2169.00 1424.00" xmlns="http://www.w3.org/2000/svg" xmlns:xlink="http://www.w3.org/1999/xlink">
<g id="graph1" class="graph" transform="scale(1 1) rotate(0) translate(4 1420)">
<title>MenuItem</title>
<polygon fill="white" stroke="white" points="-4,5 -4,-1420 2166,-1420 2166,5 -4,5"/>
<!-- Box_IGameStateComponent -->
<g id="node1" class="node"><title>Box_IGameStateComponent</title>
<polygon fill="#dafcda" stroke="black" points="322,-1297 322,-1357 640,-1357 640,-1297 322,-1297"/>
<text text-anchor="middle" x="481" y="-1345.8" font-family="Helvetica,sans-Serif" font-size="8.00">IGameStateComponent</text>
<polyline fill="none" stroke="black" points="322,-1337 640,-1337 "/>
<text text-anchor="start" x="330" y="-1325.8" font-family="Helvetica,sans-Serif" font-size="8.00">+ Index : int</text>
<polyline fill="none" stroke="black" points="322,-1317 640,-1317 "/>
<text text-anchor="start" x="330" y="-1305.8" font-family="Helvetica,sans-Serif" font-size="8.00">+ SubComponents (GameTime gameTime) : IEnumerable&lt;IGameStateComponent&gt;</text>
</g>
<!-- Box_DrawableGameStateComponent -->
<g id="node18" class="node"><title>Box_DrawableGameStateComponent</title>
<polygon fill="#fcfcda" stroke="black" points="431.5,-1175 431.5,-1259 772.5,-1259 772.5,-1175 431.5,-1175"/>
<text text-anchor="middle" x="602" y="-1247.8" font-family="Helvetica,sans-Serif" font-size="8.00">DrawableGameStateComponent</text>
<polyline fill="none" stroke="black" points="431.5,-1239 772.5,-1239 "/>
<text text-anchor="start" x="439.5" y="-1227.8" font-family="Helvetica,sans-Serif" font-size="8.00">+ state : GameState</text>
<text text-anchor="start" x="439.5" y="-1215.8" font-family="Helvetica,sans-Serif" font-size="8.00">+ Index : int</text>
<polyline fill="none" stroke="black" points="431.5,-1207 772.5,-1207 "/>
<text text-anchor="start" x="439.5" y="-1195.8" font-family="Helvetica,sans-Serif" font-size="8.00">+ DrawableGameStateComponent (GameState state, DisplayLayer drawOrder)</text>
<text text-anchor="start" x="439.5" y="-1183.8" font-family="Helvetica,sans-Serif" font-size="8.00">+ SubComponents (GameTime gameTime) : IEnumerable&lt;IGameStateComponent&gt; virtual</text>
</g>
<!-- Box_IGameStateComponent&#45;&gt;Box_DrawableGameStateComponent -->
<g id="edge48" class="edge"><title>Box_IGameStateComponent&#45;&gt;Box_DrawableGameStateComponent</title>
<path fill="none" stroke="midnightblue" d="M521.738,-1289.97C532.538,-1280.15 544.282,-1269.47 555.37,-1259.39"/>
<polygon fill="none" stroke="midnightblue" points="519.109,-1287.63 514.064,-1296.94 523.818,-1292.81 519.109,-1287.63"/>
</g>
<!-- Box_MousePointer -->
<g id="node2" class="node"><title>Box_MousePointer</title>
<polygon fill="#fcfcda" stroke="black" points="-0.5,-969 -0.5,-1053 162.5,-1053 162.5,-969 -0.5,-969"/>
<text text-anchor="middle" x="81" y="-1041.8" font-family="Helvetica,sans-Serif" font-size="8.00">MousePointer</text>
<polyline fill="none" stroke="black" points="-0.5,-1033 162.5,-1033 "/>
<text text-anchor="start" x="7.5" y="-1021.8" font-family="Helvetica,sans-Serif" font-size="8.00">&#45; spriteBatch : SpriteBatch</text>
<polyline fill="none" stroke="black" points="-0.5,-1013 162.5,-1013 "/>
<text text-anchor="start" x="7.5" y="-1001.8" font-family="Helvetica,sans-Serif" font-size="8.00">+ MousePointer (GameState state)</text>
<text text-anchor="start" x="7.5" y="-989.8" font-family="Helvetica,sans-Serif" font-size="8.00">+ Draw (GameTime gameTime) override</text>
<text text-anchor="start" x="7.5" y="-977.8" font-family="Helvetica,sans-Serif" font-size="8.00">&#45; DrawCursor (GameTime gameTime)</text>
</g>
<!-- Box_Overlay -->
<g id="node3" class="node"><title>Box_Overlay</title>
<polygon fill="#fcfcda" stroke="black" points="180,-885 180,-1137 500,-1137 500,-885 180,-885"/>
<text text-anchor="middle" x="340" y="-1125.8" font-family="Helvetica,sans-Serif" font-size="8.00">Overlay</text>
<polyline fill="none" stroke="black" points="180,-1117 500,-1117 "/>
<text text-anchor="start" x="188" y="-1105.8" font-family="Helvetica,sans-Serif" font-size="8.00">&#45; spriteBatch : SpriteBatch</text>
<text text-anchor="start" x="188" y="-1093.8" font-family="Helvetica,sans-Serif" font-size="8.00">&#45; effect : BasicEffect</text>
<text text-anchor="start" x="188" y="-1081.8" font-family="Helvetica,sans-Serif" font-size="8.00">&#45; World : World</text>
<text text-anchor="start" x="188" y="-1069.8" font-family="Helvetica,sans-Serif" font-size="8.00">&#45; font : SpriteFont</text>
<text text-anchor="start" x="188" y="-1057.8" font-family="Helvetica,sans-Serif" font-size="8.00">&#45; _total_frames : int</text>
<text text-anchor="start" x="188" y="-1045.8" font-family="Helvetica,sans-Serif" font-size="8.00">&#45; _elapsed_time : float</text>
<text text-anchor="start" x="188" y="-1033.8" font-family="Helvetica,sans-Serif" font-size="8.00">&#45; _fps : int</text>
<polyline fill="none" stroke="black" points="180,-1025 500,-1025 "/>
<text text-anchor="start" x="188" y="-1013.8" font-family="Helvetica,sans-Serif" font-size="8.00">+ Overlay (GameState state, World world)</text>
<text text-anchor="start" x="188" y="-1001.8" font-family="Helvetica,sans-Serif" font-size="8.00"># LoadContent () override</text>
<text text-anchor="start" x="188" y="-989.8" font-family="Helvetica,sans-Serif" font-size="8.00">+ Draw (GameTime gameTime) override</text>
<text text-anchor="start" x="188" y="-977.8" font-family="Helvetica,sans-Serif" font-size="8.00">+ Update (GameTime gameTime) override</text>
<text text-anchor="start" x="188" y="-965.8" font-family="Helvetica,sans-Serif" font-size="8.00">&#45; DrawCoordinates (GameTime gameTime)</text>
<text text-anchor="start" x="188" y="-953.8" font-family="Helvetica,sans-Serif" font-size="8.00">&#45; DrawOverlay (GameTime gameTime)</text>
<text text-anchor="start" x="188" y="-941.8" font-family="Helvetica,sans-Serif" font-size="8.00">&#45; DrawVectorCoordinates (Vector3 vector, int width2, int width3, int width4, int height)</text>
<text text-anchor="start" x="188" y="-929.8" font-family="Helvetica,sans-Serif" font-size="8.00">&#45; DrawString (string str, int width, int height, Color color)</text>
<text text-anchor="start" x="188" y="-917.8" font-family="Helvetica,sans-Serif" font-size="8.00">&#45; DrawString (float n, int width, int height, Color color)</text>
<text text-anchor="start" x="188" y="-905.8" font-family="Helvetica,sans-Serif" font-size="8.00">&#45; UpdateFPS (GameTime gameTime)</text>
<text text-anchor="start" x="188" y="-893.8" font-family="Helvetica,sans-Serif" font-size="8.00">&#45; DrawFPS (GameTime gameTime)</text>
</g>
<!-- Box_World -->
<g id="node4" class="node"><title>Box_World</title>
<polygon fill="#fcfcda" stroke="black" points="1015,-897 1015,-1125 1365,-1125 1365,-897 1015,-897"/>
<text text-anchor="middle" x="1190" y="-1113.8" font-family="Helvetica,sans-Serif" font-size="8.00">World</text>
<polyline fill="none" stroke="black" points="1015,-1105 1365,-1105 "/>
<text text-anchor="start" x="1023" y="-1093.8" font-family="Helvetica,sans-Serif" font-size="8.00">&#45; knotRenderEffects : List&lt;RenderEffect&gt;</text>
<text text-anchor="start" x="1023" y="-1081.8" font-family="Helvetica,sans-Serif" font-size="8.00">&#45; knotRenderEffect : RenderEffect</text>
<text text-anchor="start" x="1023" y="-1069.8" font-family="Helvetica,sans-Serif" font-size="8.00">+ Objects : List&lt;IGameObject&gt;</text>
<text text-anchor="start" x="1023" y="-1057.8" font-family="Helvetica,sans-Serif" font-size="8.00">+ SelectedObject : IGameObject</text>
<text text-anchor="start" x="1023" y="-1045.8" font-family="Helvetica,sans-Serif" font-size="8.00">+ Camera : Camera</text>
<text text-anchor="start" x="1023" y="-1033.8" font-family="Helvetica,sans-Serif" font-size="8.00">&#45; floor : TexturedRectangle</text>
<polyline fill="none" stroke="black" points="1015,-1025 1365,-1025 "/>
<text text-anchor="start" x="1023" y="-1013.8" font-family="Helvetica,sans-Serif" font-size="8.00">+ World (GameState state)</text>
<text text-anchor="start" x="1023" y="-1001.8" font-family="Helvetica,sans-Serif" font-size="8.00">+ SelectObject (IGameObject obj, GameTime gameTime)</text>
<text text-anchor="start" x="1023" y="-989.8" font-family="Helvetica,sans-Serif" font-size="8.00">+ SelectedObjectDistance () : float</text>
<text text-anchor="start" x="1023" y="-977.8" font-family="Helvetica,sans-Serif" font-size="8.00">+ Add (IGameObject obj)</text>
<text text-anchor="start" x="1023" y="-965.8" font-family="Helvetica,sans-Serif" font-size="8.00">+ Initialize () override</text>
<text text-anchor="start" x="1023" y="-953.8" font-family="Helvetica,sans-Serif" font-size="8.00">+ Draw (GameTime gameTime) override</text>
<text text-anchor="start" x="1023" y="-941.8" font-family="Helvetica,sans-Serif" font-size="8.00">+ Update (GameTime gameTime) override</text>
<text text-anchor="start" x="1023" y="-929.8" font-family="Helvetica,sans-Serif" font-size="8.00">+ GetEnumerator () : IEnumerator&lt;IGameObject&gt;</text>
<text text-anchor="start" x="1023" y="-917.8" font-family="Helvetica,sans-Serif" font-size="8.00">&#45; IEnumerable.GetEnumerator () : IEnumerator</text>
<text text-anchor="start" x="1023" y="-905.8" font-family="Helvetica,sans-Serif" font-size="8.00">+ SubComponents (GameTime gameTime) : IEnumerable&lt;IGameStateComponent&gt; override</text>
</g>
<!-- Box_Widget -->
<g id="node5" class="node"><title>Box_Widget</title>
<polygon fill="#fcfcda" stroke="black" points="731,-969 731,-1053 997,-1053 997,-969 731,-969"/>
<text text-anchor="middle" x="864" y="-1041.8" font-family="Helvetica,sans-Serif" font-size="8.00">Widget</text>
<polyline fill="none" stroke="black" points="731,-1033 997,-1033 "/>
<text text-anchor="start" x="739" y="-1021.8" font-family="Helvetica,sans-Serif" font-size="8.00">+ Info : WidgetInfo</text>
<text text-anchor="start" x="739" y="-1009.8" font-family="Helvetica,sans-Serif" font-size="8.00">+ IsVisible : bool virtual</text>
<polyline fill="none" stroke="black" points="731,-1001 997,-1001 "/>
<text text-anchor="start" x="739" y="-989.8" font-family="Helvetica,sans-Serif" font-size="8.00">+ Widget (GameState state, WidgetInfo info, DisplayLayer drawOrder)</text>
<text text-anchor="start" x="739" y="-977.8" font-family="Helvetica,sans-Serif" font-size="8.00">+ bounds () : Rectangle</text>
</g>
<!-- Box_ColorPicker -->
<g id="node6" class="node"><title>Box_ColorPicker</title>
<polygon fill="#fcfcda" stroke="black" points="420.5,-601 420.5,-817 703.5,-817 703.5,-601 420.5,-601"/>
<text text-anchor="middle" x="562" y="-805.8" font-family="Helvetica,sans-Serif" font-size="8.00">ColorPicker</text>
<polyline fill="none" stroke="black" points="420.5,-797 703.5,-797 "/>
<text text-anchor="start" x="428.5" y="-785.8" font-family="Helvetica,sans-Serif" font-size="8.00">&#45; colors : List&lt;Color&gt;</text>
<text text-anchor="start" x="428.5" y="-773.8" font-family="Helvetica,sans-Serif" font-size="8.00">&#45; tiles : List&lt;Vector2&gt;</text>
<text text-anchor="start" x="428.5" y="-761.8" font-family="Helvetica,sans-Serif" font-size="8.00">&#45; Vector2 tileSize : readonly static</text>
<text text-anchor="start" x="428.5" y="-749.8" font-family="Helvetica,sans-Serif" font-size="8.00">+ SelectedColor : Color</text>
<text text-anchor="start" x="428.5" y="-737.8" font-family="Helvetica,sans-Serif" font-size="8.00">+ OnSelectColor : Action&lt;Color&gt;</text>
<text text-anchor="start" x="428.5" y="-725.8" font-family="Helvetica,sans-Serif" font-size="8.00"># spriteBatch : SpriteBatch</text>
<text text-anchor="start" x="428.5" y="-713.8" font-family="Helvetica,sans-Serif" font-size="8.00">+ IsMouseEventEnabled : bool</text>
<polyline fill="none" stroke="black" points="420.5,-705 703.5,-705 "/>
<text text-anchor="start" x="428.5" y="-693.8" font-family="Helvetica,sans-Serif" font-size="8.00">+ ColorPicker (GameState state, WidgetInfo info, DisplayLayer drawOrder)</text>
<text text-anchor="start" x="428.5" y="-681.8" font-family="Helvetica,sans-Serif" font-size="8.00">+ Draw (GameTime gameTime) override</text>
<text text-anchor="start" x="428.5" y="-669.8" font-family="Helvetica,sans-Serif" font-size="8.00">&#45; CreateColors (int num) : IEnumerable&lt;Color&gt; static</text>
<text text-anchor="start" x="428.5" y="-657.8" font-family="Helvetica,sans-Serif" font-size="8.00">&#45; CreateTiles (IEnumerable&lt;Color&gt; _colors) : IEnumerable&lt;Vector2&gt; static</text>
<text text-anchor="start" x="428.5" y="-645.8" font-family="Helvetica,sans-Serif" font-size="8.00">&#45; SelectColor (Color color)</text>
<text text-anchor="start" x="428.5" y="-633.8" font-family="Helvetica,sans-Serif" font-size="8.00">+ OnLeftClick (Vector2 position, ClickState click, GameTime gameTime)</text>
<text text-anchor="start" x="428.5" y="-621.8" font-family="Helvetica,sans-Serif" font-size="8.00">+ OnRightClick (Vector2 position, ClickState click, GameTime gameTime)</text>
<text text-anchor="start" x="428.5" y="-609.8" font-family="Helvetica,sans-Serif" font-size="8.00">+ SetHovered (bool hovered)</text>
</g>
<!-- Box_Widget&#45;&gt;Box_ColorPicker -->
<g id="edge14" class="edge"><title>Box_Widget&#45;&gt;Box_ColorPicker</title>
<path fill="none" stroke="midnightblue" d="M814.591,-961.591C775.482,-922.482 719.416,-866.416 670.037,-817.037"/>
<polygon fill="none" stroke="midnightblue" points="812.144,-964.094 821.69,-968.69 817.094,-959.144 812.144,-964.094"/>
</g>
<!-- Box_Dialog -->
<g id="node7" class="node"><title>Box_Dialog</title>
<polygon fill="#fcfcda" stroke="black" points="1371,-625 1371,-793 1721,-793 1721,-625 1371,-625"/>
<text text-anchor="middle" x="1546" y="-781.8" font-family="Helvetica,sans-Serif" font-size="8.00">Dialog</text>
<polyline fill="none" stroke="black" points="1371,-773 1721,-773 "/>
<text text-anchor="start" x="1379" y="-761.8" font-family="Helvetica,sans-Serif" font-size="8.00">+ buttons : Menu</text>
<text text-anchor="start" x="1379" y="-749.8" font-family="Helvetica,sans-Serif" font-size="8.00">+ Done : Action</text>
<text text-anchor="start" x="1379" y="-737.8" font-family="Helvetica,sans-Serif" font-size="8.00"># spriteBatch : SpriteBatch</text>
<polyline fill="none" stroke="black" points="1371,-729 1721,-729 "/>
<text text-anchor="start" x="1379" y="-717.8" font-family="Helvetica,sans-Serif" font-size="8.00">+ Dialog (GameState state, WidgetInfo info, DisplayLayer drawOrder)</text>
<text text-anchor="start" x="1379" y="-705.8" font-family="Helvetica,sans-Serif" font-size="8.00"># RelativeButtonPosition (int n) : Vector2</text>
<text text-anchor="start" x="1379" y="-693.8" font-family="Helvetica,sans-Serif" font-size="8.00"># RelativeButtonSize (int n) : Vector2</text>
<text text-anchor="start" x="1379" y="-681.8" font-family="Helvetica,sans-Serif" font-size="8.00">+ SubComponents (GameTime gameTime) : IEnumerable&lt;IGameStateComponent&gt; override</text>
<text text-anchor="start" x="1379" y="-669.8" font-family="Helvetica,sans-Serif" font-size="8.00">+ Draw (GameTime gameTime) override</text>
<text text-anchor="start" x="1379" y="-657.8" font-family="Helvetica,sans-Serif" font-size="8.00"># DrawDialog (GameTime gameTime) abstract</text>
<text text-anchor="start" x="1379" y="-645.8" font-family="Helvetica,sans-Serif" font-size="8.00">&#45; ButtonBackgroundColor (ItemState itemState) : Color</text>
<text text-anchor="start" x="1379" y="-633.8" font-family="Helvetica,sans-Serif" font-size="8.00">&#45; ButtonForegroundColor (ItemState itemState) : Color</text>
</g>
<!-- Box_Widget&#45;&gt;Box_Dialog -->
<g id="edge18" class="edge"><title>Box_Widget&#45;&gt;Box_Dialog</title>
<path fill="none" stroke="midnightblue" d="M905.14,-961.17C931.02,-933.495 966.857,-901.257 1006,-884 1151.51,-819.847 1213.96,-906.082 1362,-848 1394.98,-835.06 1427.15,-814.454 1455.13,-793.03"/>
<polygon fill="none" stroke="midnightblue" points="902.287,-959.102 898.109,-968.839 907.447,-963.833 902.287,-959.102"/>
</g>
<!-- Box_Menu -->
<g id="node11" class="node"><title>Box_Menu</title>
<polygon fill="#fcfcda" stroke="black" points="1738.5,-571 1738.5,-847 2137.5,-847 2137.5,-571 1738.5,-571"/>
<text text-anchor="middle" x="1938" y="-835.8" font-family="Helvetica,sans-Serif" font-size="8.00">Menu</text>
<polyline fill="none" stroke="black" points="1738.5,-827 2137.5,-827 "/>
<text text-anchor="start" x="1746.5" y="-815.8" font-family="Helvetica,sans-Serif" font-size="8.00">+ Vector2&gt; RelativeItemSize : Func&lt;int,</text>
<text text-anchor="start" x="1746.5" y="-803.8" font-family="Helvetica,sans-Serif" font-size="8.00">+ Vector2&gt; RelativeItemPosition : Func&lt;int,</text>
<text text-anchor="start" x="1746.5" y="-791.8" font-family="Helvetica,sans-Serif" font-size="8.00">+ Color&gt; ItemForegroundColor : Func&lt;ItemState,</text>
<text text-anchor="start" x="1746.5" y="-779.8" font-family="Helvetica,sans-Serif" font-size="8.00">+ Color&gt; ItemBackgroundColor : Func&lt;ItemState,</text>
<text text-anchor="start" x="1746.5" y="-767.8" font-family="Helvetica,sans-Serif" font-size="8.00">+ ItemAlignX : HAlign?</text>
<text text-anchor="start" x="1746.5" y="-755.8" font-family="Helvetica,sans-Serif" font-size="8.00">+ ItemAlignY : VAlign?</text>
<text text-anchor="start" x="1746.5" y="-743.8" font-family="Helvetica,sans-Serif" font-size="8.00"># Items : List&lt;MenuItem&gt;</text>
<text text-anchor="start" x="1746.5" y="-731.8" font-family="Helvetica,sans-Serif" font-size="8.00">&#45; ItemDisplayLayer : DisplayLayer</text>
<text text-anchor="start" x="1746.5" y="-719.8" font-family="Helvetica,sans-Serif" font-size="8.00">+ this [int i] : MenuItem</text>
<text text-anchor="start" x="1746.5" y="-707.8" font-family="Helvetica,sans-Serif" font-size="8.00">+ Count : int</text>
<text text-anchor="start" x="1746.5" y="-695.8" font-family="Helvetica,sans-Serif" font-size="8.00">&#45; isVisible : bool</text>
<text text-anchor="start" x="1746.5" y="-683.8" font-family="Helvetica,sans-Serif" font-size="8.00">+ IsVisible : bool override</text>
<polyline fill="none" stroke="black" points="1738.5,-675 2137.5,-675 "/>
<text text-anchor="start" x="1746.5" y="-663.8" font-family="Helvetica,sans-Serif" font-size="8.00">+ Menu (GameState state, WidgetInfo info, DisplayLayer drawOrder)</text>
<text text-anchor="start" x="1746.5" y="-651.8" font-family="Helvetica,sans-Serif" font-size="8.00">&#45; assignMenuItemInfo (ref MenuItemInfo info, int num, MenuItem item)</text>
<text text-anchor="start" x="1746.5" y="-639.8" font-family="Helvetica,sans-Serif" font-size="8.00">+ AddButton (MenuItemInfo info) : MenuButton virtual</text>
<text text-anchor="start" x="1746.5" y="-627.8" font-family="Helvetica,sans-Serif" font-size="8.00">+ AddDropDown (MenuItemInfo info, DropDownMenuItem[] items, DropDownMenuItem defaultItem) virtual</text>
<text text-anchor="start" x="1746.5" y="-615.8" font-family="Helvetica,sans-Serif" font-size="8.00">+ AddDropDown (MenuItemInfo info, DistinctOptionInfo option) virtual</text>
<text text-anchor="start" x="1746.5" y="-603.8" font-family="Helvetica,sans-Serif" font-size="8.00">+ Clear ()</text>
<text text-anchor="start" x="1746.5" y="-591.8" font-family="Helvetica,sans-Serif" font-size="8.00">+ SubComponents (GameTime gameTime) : IEnumerable&lt;IGameStateComponent&gt; override</text>
<text text-anchor="start" x="1746.5" y="-579.8" font-family="Helvetica,sans-Serif" font-size="8.00">+ CollapseMenus (MenuItem menu)</text>
</g>
<!-- Box_Widget&#45;&gt;Box_Menu -->
<g id="edge26" class="edge"><title>Box_Widget&#45;&gt;Box_Menu</title>
<path fill="none" stroke="midnightblue" d="M904.28,-961.023C930.09,-932.956 966.149,-900.366 1006,-884 1155.01,-822.803 1577.06,-898.581 1730,-848 1732.78,-847.079 1735.56,-846.111 1738.34,-845.097"/>
<polygon fill="none" stroke="midnightblue" points="901.367,-959.028 897.278,-968.802 906.569,-963.712 901.367,-959.028"/>
</g>
<!-- Box_TextInput -->
<g id="node13" class="node"><title>Box_TextInput</title>
<polygon fill="#fcfcda" stroke="black" points="721,-637 721,-781 1007,-781 1007,-637 721,-637"/>
<text text-anchor="middle" x="864" y="-769.8" font-family="Helvetica,sans-Serif" font-size="8.00">TextInput</text>
<polyline fill="none" stroke="black" points="721,-761 1007,-761 "/>
<text text-anchor="start" x="729" y="-749.8" font-family="Helvetica,sans-Serif" font-size="8.00">+ InputText : string</text>
<text text-anchor="start" x="729" y="-737.8" font-family="Helvetica,sans-Serif" font-size="8.00">&#45; font : SpriteFont</text>
<text text-anchor="start" x="729" y="-725.8" font-family="Helvetica,sans-Serif" font-size="8.00"># spriteBatch : SpriteBatch</text>
<text text-anchor="start" x="729" y="-713.8" font-family="Helvetica,sans-Serif" font-size="8.00">+ ValidKeys : List&lt;Keys&gt;</text>
<text text-anchor="start" x="729" y="-701.8" font-family="Helvetica,sans-Serif" font-size="8.00">+ IsKeyEventEnabled : bool</text>
<polyline fill="none" stroke="black" points="721,-693 1007,-693 "/>
<text text-anchor="start" x="729" y="-681.8" font-family="Helvetica,sans-Serif" font-size="8.00">+ TextInput (GameState state, WidgetInfo info, DisplayLayer drawOrder)</text>
<text text-anchor="start" x="729" y="-669.8" font-family="Helvetica,sans-Serif" font-size="8.00">+ Update (GameTime gameTime) override</text>
<text text-anchor="start" x="729" y="-657.8" font-family="Helvetica,sans-Serif" font-size="8.00">+ Draw (GameTime gameTime) override</text>
<text text-anchor="start" x="729" y="-645.8" font-family="Helvetica,sans-Serif" font-size="8.00">+ OnKeyEvent (List&lt;Keys&gt; key, KeyEvent keyEvent, GameTime gameTime)</text>
</g>
<!-- Box_Widget&#45;&gt;Box_TextInput -->
<g id="edge30" class="edge"><title>Box_Widget&#45;&gt;Box_TextInput</title>
<path fill="none" stroke="midnightblue" d="M864,-958.615C864,-909.57 864,-835.856 864,-781.237"/>
<polygon fill="none" stroke="midnightblue" points="860.5,-958.69 864,-968.69 867.5,-958.69 860.5,-958.69"/>
</g>
<!-- Box_ItemWidget -->
<g id="node14" class="node"><title>Box_ItemWidget</title>
<polygon fill="#fcfcda" stroke="black" points="1024.5,-673 1024.5,-745 1353.5,-745 1353.5,-673 1024.5,-673"/>
<text text-anchor="middle" x="1189" y="-733.8" font-family="Helvetica,sans-Serif" font-size="8.00">ItemWidget</text>
<polyline fill="none" stroke="black" points="1024.5,-725 1353.5,-725 "/>
<text text-anchor="start" x="1032.5" y="-713.8" font-family="Helvetica,sans-Serif" font-size="8.00"># ItemNum : int</text>
<text text-anchor="start" x="1032.5" y="-701.8" font-family="Helvetica,sans-Serif" font-size="8.00">+ ItemState : ItemState</text>
<polyline fill="none" stroke="black" points="1024.5,-693 1353.5,-693 "/>
<text text-anchor="start" x="1032.5" y="-681.8" font-family="Helvetica,sans-Serif" font-size="8.00">+ ItemWidget (GameState state, WidgetInfo info, DisplayLayer drawOrder, int itemNum)</text>
</g>
<!-- Box_Widget&#45;&gt;Box_ItemWidget -->
<g id="edge34" class="edge"><title>Box_Widget&#45;&gt;Box_ItemWidget</title>
<path fill="none" stroke="midnightblue" d="M916.878,-961.864C982.163,-901.199 1091.68,-799.433 1149.88,-745.353"/>
<polygon fill="none" stroke="midnightblue" points="914.475,-959.319 909.532,-968.69 919.24,-964.447 914.475,-959.319"/>
</g>
<!-- Box_ConfirmDialog -->
<g id="node8" class="node"><title>Box_ConfirmDialog</title>
<polygon fill="#fcfcda" stroke="black" points="1400,-371 1400,-479 1692,-479 1692,-371 1400,-371"/>
<text text-anchor="middle" x="1546" y="-467.8" font-family="Helvetica,sans-Serif" font-size="8.00">ConfirmDialog</text>
<polyline fill="none" stroke="black" points="1400,-459 1692,-459 "/>
<text text-anchor="start" x="1408" y="-447.8" font-family="Helvetica,sans-Serif" font-size="8.00"># Text : string[]</text>
<text text-anchor="start" x="1408" y="-435.8" font-family="Helvetica,sans-Serif" font-size="8.00"># OnYesClick : Action</text>
<text text-anchor="start" x="1408" y="-423.8" font-family="Helvetica,sans-Serif" font-size="8.00"># OnNoClick : Action</text>
<text text-anchor="start" x="1408" y="-411.8" font-family="Helvetica,sans-Serif" font-size="8.00"># OnCancelClick : Action</text>
<polyline fill="none" stroke="black" points="1400,-403 1692,-403 "/>
<text text-anchor="start" x="1408" y="-391.8" font-family="Helvetica,sans-Serif" font-size="8.00">+ ConfirmDialog (GameState state, WidgetInfo info, DisplayLayer drawOrder)</text>
<text text-anchor="start" x="1408" y="-379.8" font-family="Helvetica,sans-Serif" font-size="8.00"># DrawDialog (GameTime gameTime) override</text>
</g>
<!-- Box_Dialog&#45;&gt;Box_ConfirmDialog -->
<g id="edge20" class="edge"><title>Box_Dialog&#45;&gt;Box_ConfirmDialog</title>
<path fill="none" stroke="midnightblue" d="M1546,-614.864C1546,-569.849 1546,-517.566 1546,-479.275"/>
<polygon fill="none" stroke="midnightblue" points="1542.5,-614.943 1546,-624.943 1549.5,-614.943 1542.5,-614.943"/>
</g>
<!-- Box_TextInputDialog -->
<g id="node9" class="node"><title>Box_TextInputDialog</title>
<polygon fill="#fcfcda" stroke="black" points="1371,-141 1371,-237 1721,-237 1721,-141 1371,-141"/>
<text text-anchor="middle" x="1546" y="-225.8" font-family="Helvetica,sans-Serif" font-size="8.00">TextInputDialog</text>
<polyline fill="none" stroke="black" points="1371,-217 1721,-217 "/>
<text text-anchor="start" x="1379" y="-205.8" font-family="Helvetica,sans-Serif" font-size="8.00"># TextInput : TextInput</text>
<polyline fill="none" stroke="black" points="1371,-197 1721,-197 "/>
<text text-anchor="start" x="1379" y="-185.8" font-family="Helvetica,sans-Serif" font-size="8.00">+ TextInputDialog (GameState state, WidgetInfo info, DisplayLayer drawOrder)</text>
<text text-anchor="start" x="1379" y="-173.8" font-family="Helvetica,sans-Serif" font-size="8.00">+ SubComponents (GameTime gameTime) : IEnumerable&lt;IGameStateComponent&gt; override</text>
<text text-anchor="start" x="1379" y="-161.8" font-family="Helvetica,sans-Serif" font-size="8.00"># TextInputPosition () : Vector2</text>
<text text-anchor="start" x="1379" y="-149.8" font-family="Helvetica,sans-Serif" font-size="8.00"># TextInputSize () : Vector2</text>
</g>
<!-- Box_ConfirmDialog&#45;&gt;Box_TextInputDialog -->
<g id="edge22" class="edge"><title>Box_ConfirmDialog&#45;&gt;Box_TextInputDialog</title>
<path fill="none" stroke="midnightblue" d="M1546,-360.674C1546,-321.742 1546,-272.905 1546,-237.283"/>
<polygon fill="none" stroke="midnightblue" points="1542.5,-360.857 1546,-370.857 1549.5,-360.857 1542.5,-360.857"/>
</g>
<!-- Box_KnotSaveConfirmDialog -->
<g id="node10" class="node"><title>Box_KnotSaveConfirmDialog</title>
<polygon fill="#fcfcda" stroke="black" points="1363.5,-1 1363.5,-61 1728.5,-61 1728.5,-1 1363.5,-1"/>
<text text-anchor="middle" x="1546" y="-49.8" font-family="Helvetica,sans-Serif" font-size="8.00">KnotSaveConfirmDialog</text>
<polyline fill="none" stroke="black" points="1363.5,-41 1728.5,-41 "/>
<text text-anchor="middle" x="1546" y="-29.8" font-family="Helvetica,sans-Serif" font-size="8.00"> </text>
<polyline fill="none" stroke="black" points="1363.5,-21 1728.5,-21 "/>
<text text-anchor="start" x="1371.5" y="-9.8" font-family="Helvetica,sans-Serif" font-size="8.00">+ KnotSaveConfirmDialog (GameState state, WidgetInfo info, DisplayLayer drawOrder, Knot knot)</text>
</g>
<!-- Box_TextInputDialog&#45;&gt;Box_KnotSaveConfirmDialog -->
<g id="edge24" class="edge"><title>Box_TextInputDialog&#45;&gt;Box_KnotSaveConfirmDialog</title>
<path fill="none" stroke="midnightblue" d="M1546,-130.467C1546,-106.883 1546,-80.6836 1546,-61.0963"/>
<polygon fill="none" stroke="midnightblue" points="1542.5,-130.736 1546,-140.736 1549.5,-130.736 1542.5,-130.736"/>
</g>
<!-- Box_VerticalMenu -->
<g id="node12" class="node"><title>Box_VerticalMenu</title>
<polygon fill="#fcfcda" stroke="black" points="1715,-353 1715,-497 2161,-497 2161,-353 1715,-353"/>
<text text-anchor="middle" x="1938" y="-485.8" font-family="Helvetica,sans-Serif" font-size="8.00">VerticalMenu</text>
<polyline fill="none" stroke="black" points="1715,-477 2161,-477 "/>
<text text-anchor="start" x="1723" y="-465.8" font-family="Helvetica,sans-Serif" font-size="8.00">+ Border : Border</text>
<text text-anchor="start" x="1723" y="-453.8" font-family="Helvetica,sans-Serif" font-size="8.00"># spriteBatch : SpriteBatch</text>
<polyline fill="none" stroke="black" points="1715,-445 2161,-445 "/>
<text text-anchor="start" x="1723" y="-433.8" font-family="Helvetica,sans-Serif" font-size="8.00">+ VerticalMenu (GameState state, WidgetInfo info, DisplayLayer drawOrder)</text>
<text text-anchor="start" x="1723" y="-421.8" font-family="Helvetica,sans-Serif" font-size="8.00">+ AddButton (MenuItemInfo info) : MenuButton override</text>
<text text-anchor="start" x="1723" y="-409.8" font-family="Helvetica,sans-Serif" font-size="8.00">+ AddDropDown (MenuItemInfo info, DropDownMenuItem[] items, DropDownMenuItem defaultItem) override</text>
<text text-anchor="start" x="1723" y="-397.8" font-family="Helvetica,sans-Serif" font-size="8.00">+ AddDropDown (MenuItemInfo info, DistinctOptionInfo option) override</text>
<text text-anchor="start" x="1723" y="-385.8" font-family="Helvetica,sans-Serif" font-size="8.00">+ Align (Viewport viewport, float scale, Vector2? givenPosition = null, Vector2? givenItemSize = null, float padding = 0.15f)</text>
<text text-anchor="start" x="1723" y="-373.8" font-family="Helvetica,sans-Serif" font-size="8.00">+ Align (Viewport viewport, float scale, int posX, int posY, int? sizeX = null, int? sizeY = null, float padding = 0.15f)</text>
<text text-anchor="start" x="1723" y="-361.8" font-family="Helvetica,sans-Serif" font-size="8.00">+ Draw (GameTime gameTime) override</text>
</g>
<!-- Box_Menu&#45;&gt;Box_VerticalMenu -->
<g id="edge28" class="edge"><title>Box_Menu&#45;&gt;Box_VerticalMenu</title>
<path fill="none" stroke="midnightblue" d="M1938,-560.626C1938,-538.619 1938,-516.817 1938,-497.34"/>
<polygon fill="none" stroke="midnightblue" points="1934.5,-560.744 1938,-570.744 1941.5,-560.744 1934.5,-560.744"/>
</g>
<!-- Box_MenuItem -->
<g id="node15" class="node"><title>Box_MenuItem</title>
<polygon fill="#fcfcda" stroke="black" points="225.5,-317 225.5,-533 560.5,-533 560.5,-317 225.5,-317"/>
<text text-anchor="middle" x="393" y="-521.8" font-family="Helvetica,sans-Serif" font-size="8.00">MenuItem</text>
<polyline fill="none" stroke="black" points="225.5,-513 560.5,-513 "/>
<text text-anchor="start" x="233.5" y="-501.8" font-family="Helvetica,sans-Serif" font-size="8.00">+ Info : MenuItemInfo new</text>
<text text-anchor="start" x="233.5" y="-489.8" font-family="Helvetica,sans-Serif" font-size="8.00"># spriteBatch : SpriteBatch</text>
<text text-anchor="start" x="233.5" y="-477.8" font-family="Helvetica,sans-Serif" font-size="8.00">+ ValidKeys : List&lt;Keys&gt;</text>
<text text-anchor="start" x="233.5" y="-465.8" font-family="Helvetica,sans-Serif" font-size="8.00">+ IsKeyEventEnabled : bool</text>
<text text-anchor="start" x="233.5" y="-453.8" font-family="Helvetica,sans-Serif" font-size="8.00">+ IsMouseEventEnabled : bool</text>
<polyline fill="none" stroke="black" points="225.5,-445 560.5,-445 "/>
<text text-anchor="start" x="233.5" y="-433.8" font-family="Helvetica,sans-Serif" font-size="8.00">+ MenuItem (GameState state, DisplayLayer drawOrder, int itemNum, MenuItemInfo info)</text>
<text text-anchor="start" x="233.5" y="-421.8" font-family="Helvetica,sans-Serif" font-size="8.00">+ Draw (GameTime gameTime) override</text>
<text text-anchor="start" x="233.5" y="-409.8" font-family="Helvetica,sans-Serif" font-size="8.00">+ TextPosition (SpriteFont font) : Vector2</text>
<text text-anchor="start" x="233.5" y="-397.8" font-family="Helvetica,sans-Serif" font-size="8.00">+ TextPosition (SpriteFont font, Vector2 scale) : Vector2</text>
<text text-anchor="start" x="233.5" y="-385.8" font-family="Helvetica,sans-Serif" font-size="8.00">+ MinimumSize (SpriteFont font) : Vector2</text>
<text text-anchor="start" x="233.5" y="-373.8" font-family="Helvetica,sans-Serif" font-size="8.00">+ OnLeftClick (Vector2 position, ClickState click, GameTime gameTime)</text>
<text text-anchor="start" x="233.5" y="-361.8" font-family="Helvetica,sans-Serif" font-size="8.00">+ OnRightClick (Vector2 position, ClickState click, GameTime gameTime)</text>
<text text-anchor="start" x="233.5" y="-349.8" font-family="Helvetica,sans-Serif" font-size="8.00">+ OnKeyEvent (List&lt;Keys&gt; key, KeyEvent keyEvent, GameTime gameTime)</text>
<text text-anchor="start" x="233.5" y="-337.8" font-family="Helvetica,sans-Serif" font-size="8.00">+ SetHovered (bool hovered)</text>
<text text-anchor="start" x="233.5" y="-325.8" font-family="Helvetica,sans-Serif" font-size="8.00">+ Collapse () virtual</text>
</g>
<!-- Box_ItemWidget&#45;&gt;Box_MenuItem -->
<g id="edge36" class="edge"><title>Box_ItemWidget&#45;&gt;Box_MenuItem</title>
<path fill="none" stroke="midnightblue" d="M1146.3,-665.468C1113.43,-634.405 1065.4,-594.029 1016,-570 871.076,-499.499 690.252,-462.333 560.805,-443.364"/>
<polygon fill="none" stroke="midnightblue" points="1144.26,-668.361 1153.9,-672.746 1149.1,-663.304 1144.26,-668.361"/>
</g>
<!-- Box_DropDownMenu -->
<g id="node16" class="node"><title>Box_DropDownMenu</title>
<polygon fill="#fcfcda" stroke="black" points="29.5,-99 29.5,-279 388.5,-279 388.5,-99 29.5,-99"/>
<text text-anchor="middle" x="209" y="-267.8" font-family="Helvetica,sans-Serif" font-size="8.00">DropDownMenu</text>
<polyline fill="none" stroke="black" points="29.5,-259 388.5,-259 "/>
<text text-anchor="start" x="37.5" y="-247.8" font-family="Helvetica,sans-Serif" font-size="8.00">&#45; dropdown : VerticalMenu</text>
<text text-anchor="start" x="37.5" y="-235.8" font-family="Helvetica,sans-Serif" font-size="8.00">&#45; selected : MenuButton</text>
<polyline fill="none" stroke="black" points="29.5,-227 388.5,-227 "/>
<text text-anchor="start" x="37.5" y="-215.8" font-family="Helvetica,sans-Serif" font-size="8.00">+ DropDownMenu (GameState state, DisplayLayer drawOrder, int itemNum, MenuItemInfo info)</text>
<text text-anchor="start" x="37.5" y="-203.8" font-family="Helvetica,sans-Serif" font-size="8.00">+ AddEntries (DropDownMenuItem[] entries, DropDownMenuItem defaultEntry)</text>
<text text-anchor="start" x="37.5" y="-191.8" font-family="Helvetica,sans-Serif" font-size="8.00">+ AddEntries (DistinctOptionInfo option)</text>
<text text-anchor="start" x="37.5" y="-179.8" font-family="Helvetica,sans-Serif" font-size="8.00">+ SubComponents (GameTime gameTime) : IEnumerable&lt;IGameStateComponent&gt; override</text>
<text text-anchor="start" x="37.5" y="-167.8" font-family="Helvetica,sans-Serif" font-size="8.00">+ Collapse () override</text>
<text text-anchor="start" x="37.5" y="-155.8" font-family="Helvetica,sans-Serif" font-size="8.00">+ Draw (GameTime gameTime) override</text>
<text text-anchor="start" x="37.5" y="-143.8" font-family="Helvetica,sans-Serif" font-size="8.00">&#45; ValuePosition (int dummy = 0) : Vector2</text>
<text text-anchor="start" x="37.5" y="-131.8" font-family="Helvetica,sans-Serif" font-size="8.00">&#45; ValueSize (int dummy = 0) : Vector2</text>
<text text-anchor="start" x="37.5" y="-119.8" font-family="Helvetica,sans-Serif" font-size="8.00">&#45; DropDownBackgroundColor (ItemState itemState) : Color</text>
<text text-anchor="start" x="37.5" y="-107.8" font-family="Helvetica,sans-Serif" font-size="8.00">&#45; DropDownForegroundColor (ItemState itemState) : Color</text>
</g>
<!-- Box_MenuItem&#45;&gt;Box_DropDownMenu -->
<g id="edge42" class="edge"><title>Box_MenuItem&#45;&gt;Box_DropDownMenu</title>
<path fill="none" stroke="midnightblue" d="M302.371,-308.758C294.67,-298.881 286.957,-288.988 279.447,-279.355"/>
<polygon fill="none" stroke="midnightblue" points="299.63,-310.936 308.539,-316.67 305.151,-306.632 299.63,-310.936"/>
</g>
<!-- Box_MenuButton -->
<g id="node17" class="node"><title>Box_MenuButton</title>
<polygon fill="#fcfcda" stroke="black" points="405.5,-159 405.5,-219 748.5,-219 748.5,-159 405.5,-159"/>
<text text-anchor="middle" x="577" y="-207.8" font-family="Helvetica,sans-Serif" font-size="8.00">MenuButton</text>
<polyline fill="none" stroke="black" points="405.5,-199 748.5,-199 "/>
<text text-anchor="middle" x="577" y="-187.8" font-family="Helvetica,sans-Serif" font-size="8.00"> </text>
<polyline fill="none" stroke="black" points="405.5,-179 748.5,-179 "/>
<text text-anchor="start" x="413.5" y="-167.8" font-family="Helvetica,sans-Serif" font-size="8.00">+ MenuButton (GameState state, DisplayLayer drawOrder, int itemNum, MenuItemInfo info)</text>
</g>
<!-- Box_MenuItem&#45;&gt;Box_MenuButton -->
<g id="edge44" class="edge"><title>Box_MenuItem&#45;&gt;Box_MenuButton</title>
<path fill="none" stroke="midnightblue" d="M483.677,-308.697C509.553,-275.508 535.569,-242.139 553.534,-219.097"/>
<polygon fill="none" stroke="midnightblue" points="480.849,-306.632 477.461,-316.67 486.37,-310.936 480.849,-306.632"/>
</g>
<!-- Box_DrawableGameStateComponent&#45;&gt;Box_MousePointer -->
<g id="edge4" class="edge"><title>Box_DrawableGameStateComponent&#45;&gt;Box_MousePointer</title>
<path fill="none" stroke="midnightblue" d="M421.375,-1197.69C322.828,-1184.48 212.622,-1164.55 171,-1138 139.103,-1117.65 115.177,-1081.58 100.043,-1053.06"/>
<polygon fill="none" stroke="midnightblue" points="421.111,-1201.18 431.484,-1199.02 422.029,-1194.24 421.111,-1201.18"/>
</g>
<!-- Box_DrawableGameStateComponent&#45;&gt;Box_Overlay -->
<g id="edge6" class="edge"><title>Box_DrawableGameStateComponent&#45;&gt;Box_Overlay</title>
<path fill="none" stroke="midnightblue" d="M540.336,-1168.52C527.875,-1158.72 514.237,-1148 500.125,-1136.9"/>
<polygon fill="none" stroke="midnightblue" points="538.324,-1171.39 548.348,-1174.82 542.65,-1165.88 538.324,-1171.39"/>
</g>
<!-- Box_DrawableGameStateComponent&#45;&gt;Box_World -->
<g id="edge8" class="edge"><title>Box_DrawableGameStateComponent&#45;&gt;Box_World</title>
<path fill="none" stroke="midnightblue" d="M782.667,-1197.86C854.166,-1186.17 935.861,-1167.54 1006,-1138 1015.12,-1134.16 1024.25,-1129.82 1033.3,-1125.13"/>
<polygon fill="none" stroke="midnightblue" points="781.969,-1194.43 772.648,-1199.47 783.076,-1201.34 781.969,-1194.43"/>
</g>
<!-- Box_DrawableGameStateComponent&#45;&gt;Box_Widget -->
<g id="edge12" class="edge"><title>Box_DrawableGameStateComponent&#45;&gt;Box_Widget</title>
<path fill="none" stroke="midnightblue" d="M676.83,-1169.08C691.396,-1159.15 706.367,-1148.5 720,-1138 754.594,-1111.35 791.491,-1078.72 819.274,-1053.21"/>
<polygon fill="none" stroke="midnightblue" points="674.636,-1166.34 668.314,-1174.84 678.558,-1172.14 674.636,-1166.34"/>
</g>
<!-- Box_XnaIGameComponent -->
<g id="node19" class="node"><title>Box_XnaIGameComponent</title>
<polygon fill="#ffffff" stroke="black" points="431.5,-1395 431.5,-1415 530.5,-1415 530.5,-1395 431.5,-1395"/>
<text text-anchor="middle" x="481" y="-1403.8" font-family="Helvetica,sans-Serif" font-size="8.00">Xna.IGameComponent</text>
</g>
<!-- Box_XnaIGameComponent&#45;&gt;Box_IGameStateComponent -->
<g id="edge2" class="edge"><title>Box_XnaIGameComponent&#45;&gt;Box_IGameStateComponent</title>
<path fill="none" stroke="midnightblue" d="M481,-1384.78C481,-1376.33 481,-1366.34 481,-1357.06"/>
<polygon fill="none" stroke="midnightblue" points="477.5,-1384.8 481,-1394.8 484.5,-1384.8 477.5,-1384.8"/>
</g>
<!-- Box_IEnumerable -->
<g id="node20" class="node"><title>Box_IEnumerable</title>
<polygon fill="#ffffff" stroke="black" points="1131,-1207 1131,-1227 1249,-1227 1249,-1207 1131,-1207"/>
<text text-anchor="middle" x="1190" y="-1215.8" font-family="Helvetica,sans-Serif" font-size="8.00">IEnumerable&lt;IGameObject&gt;</text>
</g>
<!-- Box_IEnumerable&#45;&gt;Box_World -->
<g id="edge10" class="edge"><title>Box_IEnumerable&#45;&gt;Box_World</title>
<path fill="none" stroke="midnightblue" d="M1190,-1196.75C1190,-1179.34 1190,-1152.71 1190,-1125.01"/>
<polygon fill="none" stroke="midnightblue" points="1186.5,-1196.78 1190,-1206.78 1193.5,-1196.78 1186.5,-1196.78"/>
</g>
<!-- Box_IMouseEventListener -->
<g id="node21" class="node"><title>Box_IMouseEventListener</title>
<polygon fill="#ffffff" stroke="black" points="518,-1001 518,-1021 610,-1021 610,-1001 518,-1001"/>
<text text-anchor="middle" x="564" y="-1009.8" font-family="Helvetica,sans-Serif" font-size="8.00">IMouseEventListener</text>
</g>
<!-- Box_IMouseEventListener&#45;&gt;Box_ColorPicker -->
<g id="edge16" class="edge"><title>Box_IMouseEventListener&#45;&gt;Box_ColorPicker</title>
<path fill="none" stroke="midnightblue" d="M563.865,-990.583C563.631,-955.348 563.138,-880.785 562.717,-817.236"/>
<polygon fill="none" stroke="midnightblue" points="560.367,-990.975 563.933,-1000.95 567.367,-990.929 560.367,-990.975"/>
</g>
<!-- Box_IMouseEventListener&#45;&gt;Box_MenuItem -->
<g id="edge38" class="edge"><title>Box_IMouseEventListener&#45;&gt;Box_MenuItem</title>
<path fill="none" stroke="midnightblue" d="M560.809,-990.789C555.302,-962.694 541.322,-912.128 509,-884 463.775,-844.643 415.298,-895.715 379,-848 311.269,-758.964 329.053,-626.217 354.592,-533.244"/>
<polygon fill="none" stroke="midnightblue" points="557.373,-991.456 562.578,-1000.68 564.264,-990.225 557.373,-991.456"/>
</g>
<!-- Box_IKeyEventListener -->
<g id="node22" class="node"><title>Box_IKeyEventListener</title>
<polygon fill="#ffffff" stroke="black" points="630.5,-1001 630.5,-1021 711.5,-1021 711.5,-1001 630.5,-1001"/>
<text text-anchor="middle" x="671" y="-1009.8" font-family="Helvetica,sans-Serif" font-size="8.00">IKeyEventListener</text>
</g>
<!-- Box_IKeyEventListener&#45;&gt;Box_TextInput -->
<g id="edge32" class="edge"><title>Box_IKeyEventListener&#45;&gt;Box_TextInput</title>
<path fill="none" stroke="midnightblue" d="M676.876,-991.28C684.987,-965.564 701.022,-919.659 722,-884 743.228,-847.916 771.517,-811.424 797.257,-781.169"/>
<polygon fill="none" stroke="midnightblue" points="673.488,-990.389 673.893,-1000.98 680.179,-992.447 673.488,-990.389"/>
</g>
<!-- Box_IKeyEventListener&#45;&gt;Box_MenuItem -->
<g id="edge40" class="edge"><title>Box_IKeyEventListener&#45;&gt;Box_MenuItem</title>
<path fill="none" stroke="midnightblue" d="M668.753,-990.796C664.446,-962.288 652.276,-910.754 619,-884 546.224,-825.488 473.696,-918.097 412,-848 372.295,-802.889 375.557,-642.858 383.098,-533.1"/>
<polygon fill="none" stroke="midnightblue" points="665.298,-991.368 670.083,-1000.82 672.237,-990.447 665.298,-991.368"/>
</g>
<!-- Box_XnaDrawableGameComponent -->
<g id="node23" class="node"><title>Box_XnaDrawableGameComponent</title>
<polygon fill="#ffffff" stroke="black" points="657.5,-1317 657.5,-1337 788.5,-1337 788.5,-1317 657.5,-1317"/>
<text text-anchor="middle" x="723" y="-1325.8" font-family="Helvetica,sans-Serif" font-size="8.00">Xna.DrawableGameComponent</text>
</g>
<!-- Box_XnaDrawableGameComponent&#45;&gt;Box_DrawableGameStateComponent -->
<g id="edge46" class="edge"><title>Box_XnaDrawableGameComponent&#45;&gt;Box_DrawableGameStateComponent</title>
<path fill="none" stroke="midnightblue" d="M704.298,-1310C689.412,-1296.47 667.923,-1276.93 648.479,-1259.25"/>
<polygon fill="none" stroke="midnightblue" points="702.08,-1312.71 711.833,-1316.85 706.788,-1307.53 702.08,-1312.71"/>
</g>
</g>
</svg>
