<?xml version="1.0" encoding="UTF-8" standalone="no"?>
<!DOCTYPE svg PUBLIC "-//W3C//DTD SVG 1.1//EN"
 "http://www.w3.org/Graphics/SVG/1.1/DTD/svg11.dtd">
<!-- Generated by graphviz version 2.26.3 (20100126.1600)
 -->
<!-- Title: MenuItem Pages: 1 -->
<svg width="449pt" height="408pt"
 viewBox="0.00 0.00 449.00 408.00" xmlns="http://www.w3.org/2000/svg" xmlns:xlink="http://www.w3.org/1999/xlink">
<g id="graph1" class="graph" transform="scale(1 1) rotate(0) translate(4 404)">
<title>MenuItem</title>
<polygon fill="white" stroke="white" points="-4,5 -4,-404 446,-404 446,5 -4,5"/>
<!-- Box_GameStateComponent -->
<g id="node1" class="node"><title>Box_GameStateComponent</title>
<polygon fill="#fcfcda" stroke="black" points="100.5,-147 100.5,-243 441.5,-243 441.5,-147 100.5,-147"/>
<text text-anchor="middle" x="271" y="-231.8" font-family="Helvetica,sans-Serif" font-size="8.00">GameStateComponent</text>
<polyline fill="none" stroke="black" points="100.5,-223 441.5,-223 "/>
<text text-anchor="start" x="108.5" y="-211.8" font-family="Helvetica,sans-Serif" font-size="8.00"># InputOrder : DisplayLayer</text>
<text text-anchor="start" x="108.5" y="-199.8" font-family="Helvetica,sans-Serif" font-size="8.00">+ state : GameState</text>
<text text-anchor="start" x="108.5" y="-187.8" font-family="Helvetica,sans-Serif" font-size="8.00">+ Index : int</text>
<polyline fill="none" stroke="black" points="100.5,-179 441.5,-179 "/>
<text text-anchor="start" x="108.5" y="-167.8" font-family="Helvetica,sans-Serif" font-size="8.00">+ GameStateComponent (GameState state, DisplayLayer inputOrder)</text>
<text text-anchor="start" x="108.5" y="-155.8" font-family="Helvetica,sans-Serif" font-size="8.00">+ SubComponents (GameTime gameTime) : IEnumerable&lt;IGameStateComponent&gt; virtual</text>
</g>
<!-- Box_ClickHandler -->
<g id="node3" class="node"><title>Box_ClickHandler</title>
<polygon fill="#fcfcda" stroke="black" points="186,-1 186,-109 356,-109 356,-1 186,-1"/>
<text text-anchor="middle" x="271" y="-97.8" font-family="Helvetica,sans-Serif" font-size="8.00">ClickHandler</text>
<polyline fill="none" stroke="black" points="186,-89 356,-89 "/>
<text text-anchor="start" x="194" y="-77.8" font-family="Helvetica,sans-Serif" font-size="8.00">private class ClickEventComponent :</text>
<text text-anchor="start" x="194" y="-65.8" font-family="Helvetica,sans-Serif" font-size="8.00">+ receiver : IMouseEventListener</text>
<text text-anchor="start" x="194" y="-53.8" font-family="Helvetica,sans-Serif" font-size="8.00">+ layer : int</text>
<text text-anchor="start" x="194" y="-41.8" font-family="Helvetica,sans-Serif" font-size="8.00">+ relativePosition : Vector2</text>
<polyline fill="none" stroke="black" points="186,-33 356,-33 "/>
<text text-anchor="start" x="194" y="-21.8" font-family="Helvetica,sans-Serif" font-size="8.00">+ ClickHandler (GameState state)</text>
<text text-anchor="start" x="194" y="-9.8" font-family="Helvetica,sans-Serif" font-size="8.00">+ Update (GameTime gameTime) override</text>
</g>
<!-- Box_GameStateComponent&#45;&gt;Box_ClickHandler -->
<g id="edge8" class="edge"><title>Box_GameStateComponent&#45;&gt;Box_ClickHandler</title>
<path fill="none" stroke="midnightblue" d="M271,-136.643C271,-127.495 271,-118.075 271,-109.031"/>
<polygon fill="none" stroke="midnightblue" points="267.5,-136.82 271,-146.82 274.5,-136.82 267.5,-136.82"/>
</g>
<!-- Box_IGameStateComponent -->
<g id="node2" class="node"><title>Box_IGameStateComponent</title>
<polygon fill="#dafcda" stroke="black" points="0,-281 0,-341 318,-341 318,-281 0,-281"/>
<text text-anchor="middle" x="159" y="-329.8" font-family="Helvetica,sans-Serif" font-size="8.00">IGameStateComponent</text>
<polyline fill="none" stroke="black" points="0,-321 318,-321 "/>
<text text-anchor="start" x="8" y="-309.8" font-family="Helvetica,sans-Serif" font-size="8.00">+ Index : int</text>
<polyline fill="none" stroke="black" points="0,-301 318,-301 "/>
<text text-anchor="start" x="8" y="-289.8" font-family="Helvetica,sans-Serif" font-size="8.00">+ SubComponents (GameTime gameTime) : IEnumerable&lt;IGameStateComponent&gt;</text>
</g>
<!-- Box_IGameStateComponent&#45;&gt;Box_GameStateComponent -->
<g id="edge4" class="edge"><title>Box_IGameStateComponent&#45;&gt;Box_GameStateComponent</title>
<path fill="none" stroke="midnightblue" d="M195.137,-273.572C204.541,-263.833 214.803,-253.204 224.655,-243.001"/>
<polygon fill="none" stroke="midnightblue" points="192.562,-271.2 188.134,-280.825 197.598,-276.062 192.562,-271.2"/>
</g>
<!-- Box_XnaGameComponent -->
<g id="node4" class="node"><title>Box_XnaGameComponent</title>
<polygon fill="#ffffff" stroke="black" points="335.5,-301 335.5,-321 432.5,-321 432.5,-301 335.5,-301"/>
<text text-anchor="middle" x="384" y="-309.8" font-family="Helvetica,sans-Serif" font-size="8.00">Xna.GameComponent</text>
</g>
<!-- Box_XnaGameComponent&#45;&gt;Box_GameStateComponent -->
<g id="edge2" class="edge"><title>Box_XnaGameComponent&#45;&gt;Box_GameStateComponent</title>
<path fill="none" stroke="midnightblue" d="M366.632,-293.171C353.618,-279.812 335.161,-260.865 317.928,-243.174"/>
<polygon fill="none" stroke="midnightblue" points="364.487,-295.985 373.972,-300.706 369.501,-291.1 364.487,-295.985"/>
</g>
<!-- Box_XnaIGameComponent -->
<g id="node5" class="node"><title>Box_XnaIGameComponent</title>
<polygon fill="#ffffff" stroke="black" points="109.5,-379 109.5,-399 208.5,-399 208.5,-379 109.5,-379"/>
<text text-anchor="middle" x="159" y="-387.8" font-family="Helvetica,sans-Serif" font-size="8.00">Xna.IGameComponent</text>
</g>
<!-- Box_XnaIGameComponent&#45;&gt;Box_IGameStateComponent -->
<g id="edge6" class="edge"><title>Box_XnaIGameComponent&#45;&gt;Box_IGameStateComponent</title>
<path fill="none" stroke="midnightblue" d="M159,-368.777C159,-360.329 159,-350.337 159,-341.059"/>
<polygon fill="none" stroke="midnightblue" points="155.5,-368.803 159,-378.803 162.5,-368.803 155.5,-368.803"/>
</g>
</g>
</svg>
