<?xml version="1.0" encoding="UTF-8" standalone="no"?>
<!DOCTYPE svg PUBLIC "-//W3C//DTD SVG 1.1//EN"
 "http://www.w3.org/Graphics/SVG/1.1/DTD/svg11.dtd">
<!-- Generated by graphviz version 2.26.3 (20100126.1600)
 -->
<!-- Title: MenuItem Pages: 1 -->
<svg width="414pt" height="430pt"
 viewBox="0.00 0.00 414.00 430.00" xmlns="http://www.w3.org/2000/svg" xmlns:xlink="http://www.w3.org/1999/xlink">
<g id="graph1" class="graph" transform="scale(1 1) rotate(0) translate(4 426)">
<title>MenuItem</title>
<polygon fill="white" stroke="white" points="-4,5 -4,-426 411,-426 411,5 -4,5"/>
<!-- Box_TexturedRectangleInfo -->
<g id="node1" class="node"><title>Box_TexturedRectangleInfo</title>
<polygon fill="#fcfcda" stroke="black" points="-0.5,-1 -0.5,-145 406.5,-145 406.5,-1 -0.5,-1"/>
<text text-anchor="middle" x="203" y="-133.8" font-family="Helvetica,sans-Serif" font-size="8.00">TexturedRectangleInfo</text>
<polyline fill="none" stroke="black" points="-0.5,-125 406.5,-125 "/>
<text text-anchor="start" x="7.5" y="-113.8" font-family="Helvetica,sans-Serif" font-size="8.00">Attributes:</text>
<text text-anchor="start" x="7.5" y="-101.8" font-family="Helvetica,sans-Serif" font-size="8.00">+ Left : Vector3</text>
<text text-anchor="start" x="7.5" y="-89.8" font-family="Helvetica,sans-Serif" font-size="8.00">+ Up : Vector3</text>
<text text-anchor="start" x="7.5" y="-77.8" font-family="Helvetica,sans-Serif" font-size="8.00">+ Height : float</text>
<text text-anchor="start" x="7.5" y="-65.8" font-family="Helvetica,sans-Serif" font-size="8.00">+ Width : float</text>
<text text-anchor="start" x="7.5" y="-53.8" font-family="Helvetica,sans-Serif" font-size="8.00">+ Texturename : string</text>
<text text-anchor="start" x="7.5" y="-41.8" font-family="Helvetica,sans-Serif" font-size="8.00">Methods:</text>
<polyline fill="none" stroke="black" points="-0.5,-33 406.5,-33 "/>
<text text-anchor="start" x="7.5" y="-21.8" font-family="Helvetica,sans-Serif" font-size="8.00">+ TexturedRectangleInfo (string texturename, Vector3 origin, Vector3 left, float width, Vector3 up, float height)</text>
<text text-anchor="start" x="7.5" y="-9.8" font-family="Helvetica,sans-Serif" font-size="8.00">+ Equals (GameObjectInfo other) : bool</text>
</g>
<!-- Box_GameObjectInfo -->
<g id="node2" class="node"><title>Box_GameObjectInfo</title>
<polygon fill="#fcfcda" stroke="black" points="77.5,-183 77.5,-363 328.5,-363 328.5,-183 77.5,-183"/>
<text text-anchor="middle" x="203" y="-351.8" font-family="Helvetica,sans-Serif" font-size="8.00">GameObjectInfo</text>
<polyline fill="none" stroke="black" points="77.5,-343 328.5,-343 "/>
<text text-anchor="start" x="85.5" y="-331.8" font-family="Helvetica,sans-Serif" font-size="8.00">Attributes:</text>
<text text-anchor="start" x="85.5" y="-319.8" font-family="Helvetica,sans-Serif" font-size="8.00">+ IsMovable : bool</text>
<text text-anchor="start" x="85.5" y="-307.8" font-family="Helvetica,sans-Serif" font-size="8.00">+ IsSelectable : bool</text>
<text text-anchor="start" x="85.5" y="-295.8" font-family="Helvetica,sans-Serif" font-size="8.00">+ IsVisible : bool</text>
<text text-anchor="start" x="85.5" y="-283.8" font-family="Helvetica,sans-Serif" font-size="8.00">+ Position : Vector3</text>
<text text-anchor="start" x="85.5" y="-271.8" font-family="Helvetica,sans-Serif" font-size="8.00">Methods:</text>
<polyline fill="none" stroke="black" points="77.5,-263 328.5,-263 "/>
<text text-anchor="start" x="85.5" y="-251.8" font-family="Helvetica,sans-Serif" font-size="8.00">+ GameObjectInfo ()</text>
<text text-anchor="start" x="85.5" y="-239.8" font-family="Helvetica,sans-Serif" font-size="8.00">+ operator (GameObjectInfo o1, GameObjectInfo o2) : bool static</text>
<text text-anchor="start" x="85.5" y="-227.8" font-family="Helvetica,sans-Serif" font-size="8.00">+ Equals (Object obj) : bool</text>
<text text-anchor="start" x="85.5" y="-215.8" font-family="Helvetica,sans-Serif" font-size="8.00">+ GetHashCode () : int</text>
<text text-anchor="start" x="85.5" y="-203.8" font-family="Helvetica,sans-Serif" font-size="8.00">+ operator ! (GameObjectInfo o1, GameObjectInfo o2) : bool static</text>
<text text-anchor="start" x="85.5" y="-191.8" font-family="Helvetica,sans-Serif" font-size="8.00">+ Equals (GameObjectInfo other) : bool virtual</text>
</g>
<!-- Box_GameObjectInfo&#45;&gt;Box_TexturedRectangleInfo -->
<g id="edge2" class="edge"><title>Box_GameObjectInfo&#45;&gt;Box_TexturedRectangleInfo</title>
<path fill="none" stroke="midnightblue" d="M203,-172.836C203,-163.506 203,-154.178 203,-145.176"/>
<polygon fill="none" stroke="midnightblue" points="199.5,-172.946 203,-182.946 206.5,-172.946 199.5,-172.946"/>
</g>
<!-- Box_IEquatable -->
<g id="node3" class="node"><title>Box_IEquatable</title>
<polygon fill="#ffffff" stroke="black" points="142,-401 142,-421 264,-421 264,-401 142,-401"/>
<text text-anchor="middle" x="203" y="-409.8" font-family="Helvetica,sans-Serif" font-size="8.00">IEquatable&lt;GameObjectInfo&gt;</text>
</g>
<!-- Box_IEquatable&#45;&gt;Box_GameObjectInfo -->
<g id="edge4" class="edge"><title>Box_IEquatable&#45;&gt;Box_GameObjectInfo</title>
<path fill="none" stroke="midnightblue" d="M203,-390.572C203,-382.819 203,-373.407 203,-363.321"/>
<polygon fill="none" stroke="midnightblue" points="199.5,-390.628 203,-400.628 206.5,-390.628 199.5,-390.628"/>
</g>
</g>
</svg>
