<?xml version="1.0" encoding="UTF-8" standalone="no"?>
<!DOCTYPE svg PUBLIC "-//W3C//DTD SVG 1.1//EN"
 "http://www.w3.org/Graphics/SVG/1.1/DTD/svg11.dtd">
<!-- Generated by graphviz version 2.26.3 (20100126.1600)
 -->
<!-- Title: MenuItem Pages: 1 -->
<svg width="1789pt" height="1132pt"
 viewBox="0.00 0.00 1789.00 1132.00" xmlns="http://www.w3.org/2000/svg" xmlns:xlink="http://www.w3.org/1999/xlink">
<g id="graph1" class="graph" transform="scale(1 1) rotate(0) translate(4 1128)">
<title>MenuItem</title>
<polygon fill="white" stroke="white" points="-4,5 -4,-1128 1786,-1128 1786,5 -4,5"/>
<!-- Box_Widget -->
<g id="node1" class="node"><title>Box_Widget</title>
<polygon fill="#fcfcda" stroke="black" points="745,-779 745,-853 1029,-853 1029,-779 745,-779"/>
<text text-anchor="middle" x="887" y="-841.8" font-family="Arial" font-size="8.00">Widget</text>
<polyline fill="none" stroke="black" points="745,-835 1029,-835 "/>
<text text-anchor="start" x="753" y="-823.8" font-family="Arial" font-size="8.00">+ Info : WidgetInfo</text>
<text text-anchor="start" x="753" y="-813.8" font-family="Arial" font-size="8.00">+ IsVisible : bool virtual</text>
<polyline fill="none" stroke="black" points="745,-807 1029,-807 "/>
<text text-anchor="start" x="753" y="-795.8" font-family="Arial" font-size="8.00">+ bounds () : Rectangle</text>
<text text-anchor="start" x="753" y="-785.8" font-family="Arial" font-size="8.00">+ Widget (GameScreen screen, WidgetInfo info, DisplayLayer drawOrder)</text>
</g>
<!-- Box_ColorPicker -->
<g id="node4" class="node"><title>Box_ColorPicker</title>
<polygon fill="#fcfcda" stroke="black" points="397,-532 397,-716 697,-716 697,-532 397,-532"/>
<text text-anchor="middle" x="547" y="-704.8" font-family="Arial" font-size="8.00">ColorPicker</text>
<polyline fill="none" stroke="black" points="397,-698 697,-698 "/>
<text text-anchor="start" x="405" y="-686.8" font-family="Arial" font-size="8.00">&#45; tiles : List&lt;Vector2&gt;</text>
<text text-anchor="start" x="405" y="-676.8" font-family="Arial" font-size="8.00">+ SelectedColor : Color</text>
<text text-anchor="start" x="405" y="-666.8" font-family="Arial" font-size="8.00">+ IsMouseEventEnabled : bool</text>
<text text-anchor="start" x="405" y="-656.8" font-family="Arial" font-size="8.00">&#45; colors : List&lt;Color&gt;</text>
<text text-anchor="start" x="405" y="-646.8" font-family="Arial" font-size="8.00"># spriteBatch : SpriteBatch</text>
<text text-anchor="start" x="405" y="-636.8" font-family="Arial" font-size="8.00">+ OnSelectColor : Action&lt;Color&gt;</text>
<polyline fill="none" stroke="black" points="397,-630 697,-630 "/>
<text text-anchor="start" x="405" y="-618.8" font-family="Arial" font-size="8.00">&#45; Vector2 tileSize (0.032f, 0.032f) : readonly static</text>
<text text-anchor="start" x="405" y="-608.8" font-family="Arial" font-size="8.00">&#45; CreateTiles (IEnumerable&lt;Color&gt; _colors) : IEnumerable&lt;Vector2&gt; static</text>
<text text-anchor="start" x="405" y="-598.8" font-family="Arial" font-size="8.00">+ ColorPicker (GameScreen screen, WidgetInfo info, DisplayLayer drawOrder)</text>
<text text-anchor="start" x="405" y="-588.8" font-family="Arial" font-size="8.00">+ Draw (GameTime time)</text>
<text text-anchor="start" x="405" y="-578.8" font-family="Arial" font-size="8.00">+ OnRightClick (Vector2 position, ClickState click, GameTime time)</text>
<text text-anchor="start" x="405" y="-568.8" font-family="Arial" font-size="8.00">+ SetHovered (bool hovered)</text>
<text text-anchor="start" x="405" y="-558.8" font-family="Arial" font-size="8.00">&#45; CreateColors (int num) : IEnumerable&lt;Color&gt; static</text>
<text text-anchor="start" x="405" y="-548.8" font-family="Arial" font-size="8.00">&#45; SelectColor (Color color)</text>
<text text-anchor="start" x="405" y="-538.8" font-family="Arial" font-size="8.00">+ OnLeftClick (Vector2 position, ClickState click, GameTime time)</text>
</g>
<!-- Box_Widget&#45;&gt;Box_ColorPicker -->
<g id="edge10" class="edge"><title>Box_Widget&#45;&gt;Box_ColorPicker</title>
<path fill="none" stroke="midnightblue" d="M773.966,-774.898C750.972,-765.128 727.314,-754.014 706,-742 692.225,-734.235 678.267,-725.451 664.635,-716.265"/>
<polygon fill="none" stroke="midnightblue" points="772.849,-778.224 783.424,-778.858 775.552,-771.767 772.849,-778.224"/>
</g>
<!-- Box_Dialog -->
<g id="node5" class="node"><title>Box_Dialog</title>
<polygon fill="#fcfcda" stroke="black" points="1076.5,-552 1076.5,-696 1369.5,-696 1369.5,-552 1076.5,-552"/>
<text text-anchor="middle" x="1223" y="-684.8" font-family="Arial" font-size="8.00">Dialog</text>
<polyline fill="none" stroke="black" points="1076.5,-678 1369.5,-678 "/>
<text text-anchor="start" x="1084.5" y="-666.8" font-family="Arial" font-size="8.00"># spriteBatch : SpriteBatch</text>
<text text-anchor="start" x="1084.5" y="-656.8" font-family="Arial" font-size="8.00">+ Done : Action</text>
<text text-anchor="start" x="1084.5" y="-646.8" font-family="Arial" font-size="8.00">+ buttons : Menu</text>
<polyline fill="none" stroke="black" points="1076.5,-640 1369.5,-640 "/>
<text text-anchor="start" x="1084.5" y="-628.8" font-family="Arial" font-size="8.00">&#45; ButtonBackgroundColor (ItemState itemState) : Color</text>
<text text-anchor="start" x="1084.5" y="-618.8" font-family="Arial" font-size="8.00"># RelativeButtonSize (int n) : Vector2</text>
<text text-anchor="start" x="1084.5" y="-608.8" font-family="Arial" font-size="8.00">+ Dialog (GameScreen screen, WidgetInfo info, DisplayLayer drawOrder)</text>
<text text-anchor="start" x="1084.5" y="-598.8" font-family="Arial" font-size="8.00">&#45; ButtonForegroundColor (ItemState itemState) : Color</text>
<text text-anchor="start" x="1084.5" y="-588.8" font-family="Arial" font-size="8.00"># RelativeButtonPosition (int n) : Vector2</text>
<text text-anchor="start" x="1084.5" y="-578.8" font-family="Arial" font-size="8.00"># DrawDialog (GameTime time) abstract</text>
<text text-anchor="start" x="1084.5" y="-568.8" font-family="Arial" font-size="8.00">+ SubComponents (GameTime time) : IEnumerable&lt;IGameScreenComponent&gt;</text>
<text text-anchor="start" x="1084.5" y="-558.8" font-family="Arial" font-size="8.00">+ Draw (GameTime time)</text>
</g>
<!-- Box_Widget&#45;&gt;Box_Dialog -->
<g id="edge14" class="edge"><title>Box_Widget&#45;&gt;Box_Dialog</title>
<path fill="none" stroke="midnightblue" d="M1000.57,-774.92C1023.42,-765.179 1046.89,-754.07 1068,-742 1091.19,-728.738 1114.83,-712.424 1136.44,-696.205"/>
<polygon fill="none" stroke="midnightblue" points="999.032,-771.77 991.166,-778.867 1001.74,-778.224 999.032,-771.77"/>
</g>
<!-- Box_Menu -->
<g id="node9" class="node"><title>Box_Menu</title>
<polygon fill="#fcfcda" stroke="black" points="1387,-507 1387,-741 1781,-741 1781,-507 1387,-507"/>
<text text-anchor="middle" x="1584" y="-729.8" font-family="Arial" font-size="8.00">Menu</text>
<polyline fill="none" stroke="black" points="1387,-723 1781,-723 "/>
<text text-anchor="start" x="1395" y="-711.8" font-family="Arial" font-size="8.00">&#45; isVisible : bool</text>
<text text-anchor="start" x="1395" y="-701.8" font-family="Arial" font-size="8.00"># Items : List&lt;MenuItem&gt;</text>
<text text-anchor="start" x="1395" y="-691.8" font-family="Arial" font-size="8.00">+ Color&gt; ItemBackgroundColor : Func&lt;ItemState,</text>
<text text-anchor="start" x="1395" y="-681.8" font-family="Arial" font-size="8.00">+ Color&gt; ItemForegroundColor : Func&lt;ItemState,</text>
<text text-anchor="start" x="1395" y="-671.8" font-family="Arial" font-size="8.00">+ Vector2&gt; RelativeItemPosition : Func&lt;int,</text>
<text text-anchor="start" x="1395" y="-661.8" font-family="Arial" font-size="8.00">+ ItemAlignX : HAlign?</text>
<text text-anchor="start" x="1395" y="-651.8" font-family="Arial" font-size="8.00">+ ItemAlignY : VAlign?</text>
<text text-anchor="start" x="1395" y="-641.8" font-family="Arial" font-size="8.00">+ Count : int</text>
<text text-anchor="start" x="1395" y="-631.8" font-family="Arial" font-size="8.00">+ IsVisible : bool</text>
<text text-anchor="start" x="1395" y="-621.8" font-family="Arial" font-size="8.00">&#45; ItemDisplayLayer : DisplayLayer</text>
<text text-anchor="start" x="1395" y="-611.8" font-family="Arial" font-size="8.00">+ Vector2&gt; RelativeItemSize : Func&lt;int,</text>
<polyline fill="none" stroke="black" points="1387,-605 1781,-605 "/>
<text text-anchor="start" x="1395" y="-593.8" font-family="Arial" font-size="8.00">&#45; assignMenuItemInfo (ref MenuItemInfo info, int num, MenuItem item)</text>
<text text-anchor="start" x="1395" y="-583.8" font-family="Arial" font-size="8.00">+ Menu (GameScreen screen, WidgetInfo info, DisplayLayer drawOrder)</text>
<text text-anchor="start" x="1395" y="-573.8" font-family="Arial" font-size="8.00">+ this (int i) : MenuItem</text>
<text text-anchor="start" x="1395" y="-563.8" font-family="Arial" font-size="8.00">+ SubComponents (GameTime time) : IEnumerable&lt;IGameScreenComponent&gt;</text>
<text text-anchor="start" x="1395" y="-553.8" font-family="Arial" font-size="8.00">+ CollapseMenus (MenuItem menu)</text>
<text text-anchor="start" x="1395" y="-543.8" font-family="Arial" font-size="8.00">+ AddButton (MenuItemInfo info) : MenuButton virtual</text>
<text text-anchor="start" x="1395" y="-533.8" font-family="Arial" font-size="8.00">+ AddDropDown (MenuItemInfo info, DistinctOptionInfo option) virtual</text>
<text text-anchor="start" x="1395" y="-523.8" font-family="Arial" font-size="8.00">+ AddDropDown (MenuItemInfo info, DropDownMenuItem[] items, DropDownMenuItem defaultItem) virtual</text>
<text text-anchor="start" x="1395" y="-513.8" font-family="Arial" font-size="8.00">+ Clear ()</text>
</g>
<!-- Box_Widget&#45;&gt;Box_Menu -->
<g id="edge22" class="edge"><title>Box_Widget&#45;&gt;Box_Menu</title>
<path fill="none" stroke="midnightblue" d="M1039.27,-807.617C1138.04,-798.667 1268.29,-780.178 1378,-742 1380.92,-740.984 1383.84,-739.926 1386.77,-738.83"/>
<polygon fill="none" stroke="midnightblue" points="1038.86,-804.139 1029.21,-808.506 1039.48,-811.112 1038.86,-804.139"/>
</g>
<!-- Box_TextInput -->
<g id="node11" class="node"><title>Box_TextInput</title>
<polygon fill="#fcfcda" stroke="black" points="49,-562 49,-686 341,-686 341,-562 49,-562"/>
<text text-anchor="middle" x="195" y="-674.8" font-family="Arial" font-size="8.00">TextInput</text>
<polyline fill="none" stroke="black" points="49,-668 341,-668 "/>
<text text-anchor="start" x="57" y="-656.8" font-family="Arial" font-size="8.00">&#45; font : SpriteFont</text>
<text text-anchor="start" x="57" y="-646.8" font-family="Arial" font-size="8.00"># spriteBatch : SpriteBatch</text>
<text text-anchor="start" x="57" y="-636.8" font-family="Arial" font-size="8.00">+ IsKeyEventEnabled : bool</text>
<text text-anchor="start" x="57" y="-626.8" font-family="Arial" font-size="8.00">+ ValidKeys : List&lt;Keys&gt;</text>
<text text-anchor="start" x="57" y="-616.8" font-family="Arial" font-size="8.00">+ InputText : string</text>
<polyline fill="none" stroke="black" points="49,-610 341,-610 "/>
<text text-anchor="start" x="57" y="-598.8" font-family="Arial" font-size="8.00">+ TextInput (GameScreen screen, WidgetInfo info, DisplayLayer drawOrder)</text>
<text text-anchor="start" x="57" y="-588.8" font-family="Arial" font-size="8.00">+ Draw (GameTime time)</text>
<text text-anchor="start" x="57" y="-578.8" font-family="Arial" font-size="8.00">+ OnKeyEvent (List&lt;Keys&gt; key, KeyEvent keyEvent, GameTime time)</text>
<text text-anchor="start" x="57" y="-568.8" font-family="Arial" font-size="8.00">+ Update (GameTime time)</text>
</g>
<!-- Box_Widget&#45;&gt;Box_TextInput -->
<g id="edge26" class="edge"><title>Box_Widget&#45;&gt;Box_TextInput</title>
<path fill="none" stroke="midnightblue" d="M734.516,-800.145C611.826,-786.139 450.011,-764.495 388,-742 350.527,-728.406 312.429,-707.043 280.093,-686.207"/>
<polygon fill="none" stroke="midnightblue" points="734.437,-803.658 744.768,-801.308 735.226,-796.703 734.437,-803.658"/>
</g>
<!-- Box_ItemWidget -->
<g id="node12" class="node"><title>Box_ItemWidget</title>
<polygon fill="#fcfcda" stroke="black" points="715,-592 715,-656 1059,-656 1059,-592 715,-592"/>
<text text-anchor="middle" x="887" y="-644.8" font-family="Arial" font-size="8.00">ItemWidget</text>
<polyline fill="none" stroke="black" points="715,-638 1059,-638 "/>
<text text-anchor="start" x="723" y="-626.8" font-family="Arial" font-size="8.00">+ ItemState : ItemState</text>
<text text-anchor="start" x="723" y="-616.8" font-family="Arial" font-size="8.00"># ItemNum : int</text>
<polyline fill="none" stroke="black" points="715,-610 1059,-610 "/>
<text text-anchor="start" x="723" y="-598.8" font-family="Arial" font-size="8.00">+ ItemWidget (GameScreen screen, WidgetInfo info, DisplayLayer drawOrder, int itemNum)</text>
</g>
<!-- Box_Widget&#45;&gt;Box_ItemWidget -->
<g id="edge30" class="edge"><title>Box_Widget&#45;&gt;Box_ItemWidget</title>
<path fill="none" stroke="midnightblue" d="M887,-768.974C887,-733.921 887,-686.968 887,-656.123"/>
<polygon fill="none" stroke="midnightblue" points="883.5,-768.98 887,-778.98 890.5,-768.981 883.5,-768.98"/>
</g>
<!-- Box_DrawableGameScreenComponent -->
<g id="node2" class="node"><title>Box_DrawableGameScreenComponent</title>
<polygon fill="#fcfcda" stroke="black" points="728.5,-891 728.5,-975 1045.5,-975 1045.5,-891 728.5,-891"/>
<text text-anchor="middle" x="887" y="-963.8" font-family="Arial" font-size="8.00">DrawableGameScreenComponent</text>
<polyline fill="none" stroke="black" points="728.5,-957 1045.5,-957 "/>
<text text-anchor="start" x="736.5" y="-945.8" font-family="Arial" font-size="8.00">+ Index : DisplayLayer</text>
<text text-anchor="start" x="736.5" y="-935.8" font-family="Arial" font-size="8.00">&#45; _index : DisplayLayer</text>
<text text-anchor="start" x="736.5" y="-925.8" font-family="Arial" font-size="8.00">+ screen : GameScreen</text>
<polyline fill="none" stroke="black" points="728.5,-919 1045.5,-919 "/>
<text text-anchor="start" x="736.5" y="-907.8" font-family="Arial" font-size="8.00">+ DrawableGameScreenComponent (GameScreen screen, DisplayLayer index)</text>
<text text-anchor="start" x="736.5" y="-897.8" font-family="Arial" font-size="8.00">+ SubComponents (GameTime time) : IEnumerable&lt;IGameScreenComponent&gt; virtual</text>
</g>
<!-- Box_DrawableGameScreenComponent&#45;&gt;Box_Widget -->
<g id="edge2" class="edge"><title>Box_DrawableGameScreenComponent&#45;&gt;Box_Widget</title>
<path fill="none" stroke="midnightblue" d="M887,-880.482C887,-871.258 887,-861.834 887,-853.14"/>
<polygon fill="none" stroke="midnightblue" points="883.5,-880.76 887,-890.76 890.5,-880.76 883.5,-880.76"/>
</g>
<!-- Box_IGameScreenComponent -->
<g id="node3" class="node"><title>Box_IGameScreenComponent</title>
<polygon fill="#dafcda" stroke="black" points="626.5,-1013 626.5,-1067 919.5,-1067 919.5,-1013 626.5,-1013"/>
<text text-anchor="middle" x="773" y="-1055.8" font-family="Arial" font-size="8.00">IGameScreenComponent</text>
<polyline fill="none" stroke="black" points="626.5,-1049 919.5,-1049 "/>
<text text-anchor="start" x="634.5" y="-1037.8" font-family="Arial" font-size="8.00">+ Index : DisplayLayer</text>
<polyline fill="none" stroke="black" points="626.5,-1031 919.5,-1031 "/>
<text text-anchor="start" x="634.5" y="-1019.8" font-family="Arial" font-size="8.00">+ SubComponents (GameTime time) : IEnumerable&lt;IGameScreenComponent&gt;</text>
</g>
<!-- Box_IGameScreenComponent&#45;&gt;Box_DrawableGameScreenComponent -->
<g id="edge6" class="edge"><title>Box_IGameScreenComponent&#45;&gt;Box_DrawableGameScreenComponent</title>
<path fill="none" stroke="midnightblue" d="M809.116,-1006.1C819.502,-996.354 830.961,-985.598 841.821,-975.404"/>
<polygon fill="none" stroke="midnightblue" points="806.663,-1003.6 801.767,-1013 811.454,-1008.71 806.663,-1003.6"/>
</g>
<!-- Box_ConfirmDialog -->
<g id="node6" class="node"><title>Box_ConfirmDialog</title>
<polygon fill="#fcfcda" stroke="black" points="1068.5,-325 1068.5,-429 1377.5,-429 1377.5,-325 1068.5,-325"/>
<text text-anchor="middle" x="1223" y="-417.8" font-family="Arial" font-size="8.00">ConfirmDialog</text>
<polyline fill="none" stroke="black" points="1068.5,-411 1377.5,-411 "/>
<text text-anchor="start" x="1076.5" y="-399.8" font-family="Arial" font-size="8.00"># CanClose : bool</text>
<text text-anchor="start" x="1076.5" y="-389.8" font-family="Arial" font-size="8.00"># Text : string[]</text>
<polyline fill="none" stroke="black" points="1068.5,-383 1377.5,-383 "/>
<text text-anchor="start" x="1076.5" y="-371.8" font-family="Arial" font-size="8.00"># OnYesClick () : Action</text>
<text text-anchor="start" x="1076.5" y="-361.8" font-family="Arial" font-size="8.00"># OnCancelClick () : Action</text>
<text text-anchor="start" x="1076.5" y="-351.8" font-family="Arial" font-size="8.00"># OnNoClick () : Action</text>
<text text-anchor="start" x="1076.5" y="-341.8" font-family="Arial" font-size="8.00"># DrawDialog (GameTime time)</text>
<text text-anchor="start" x="1076.5" y="-331.8" font-family="Arial" font-size="8.00">+ ConfirmDialog (GameScreen screen, WidgetInfo info, DisplayLayer drawOrder)</text>
</g>
<!-- Box_Dialog&#45;&gt;Box_ConfirmDialog -->
<g id="edge16" class="edge"><title>Box_Dialog&#45;&gt;Box_ConfirmDialog</title>
<path fill="none" stroke="midnightblue" d="M1223,-541.587C1223,-504.475 1223,-461.776 1223,-429.17"/>
<polygon fill="none" stroke="midnightblue" points="1219.5,-541.893 1223,-551.893 1226.5,-541.893 1219.5,-541.893"/>
</g>
<!-- Box_TextInputDialog -->
<g id="node7" class="node"><title>Box_TextInputDialog</title>
<polygon fill="#fcfcda" stroke="black" points="1066,-128 1066,-212 1380,-212 1380,-128 1066,-128"/>
<text text-anchor="middle" x="1223" y="-200.8" font-family="Arial" font-size="8.00">TextInputDialog</text>
<polyline fill="none" stroke="black" points="1066,-194 1380,-194 "/>
<text text-anchor="start" x="1074" y="-182.8" font-family="Arial" font-size="8.00"># TextInput : TextInput</text>
<polyline fill="none" stroke="black" points="1066,-176 1380,-176 "/>
<text text-anchor="start" x="1074" y="-164.8" font-family="Arial" font-size="8.00"># TextInputSize () : Vector2</text>
<text text-anchor="start" x="1074" y="-154.8" font-family="Arial" font-size="8.00">+ TextInputDialog (GameScreen screen, WidgetInfo info, DisplayLayer drawOrder)</text>
<text text-anchor="start" x="1074" y="-144.8" font-family="Arial" font-size="8.00"># TextInputPosition () : Vector2</text>
<text text-anchor="start" x="1074" y="-134.8" font-family="Arial" font-size="8.00">+ SubComponents (GameTime time) : IEnumerable&lt;IGameScreenComponent&gt;</text>
</g>
<!-- Box_ConfirmDialog&#45;&gt;Box_TextInputDialog -->
<g id="edge18" class="edge"><title>Box_ConfirmDialog&#45;&gt;Box_TextInputDialog</title>
<path fill="none" stroke="midnightblue" d="M1223,-314.708C1223,-281.543 1223,-241.631 1223,-212.131"/>
<polygon fill="none" stroke="midnightblue" points="1219.5,-314.765 1223,-324.765 1226.5,-314.765 1219.5,-314.765"/>
</g>
<!-- Box_KnotSaveConfirmDialog -->
<g id="node8" class="node"><title>Box_KnotSaveConfirmDialog</title>
<polygon fill="#fcfcda" stroke="black" points="1031.5,-1 1031.5,-55 1414.5,-55 1414.5,-1 1031.5,-1"/>
<text text-anchor="middle" x="1223" y="-43.8" font-family="Arial" font-size="8.00">KnotSaveConfirmDialog</text>
<polyline fill="none" stroke="black" points="1031.5,-37 1414.5,-37 "/>
<text text-anchor="middle" x="1223" y="-25.8" font-family="Arial" font-size="8.00"> </text>
<polyline fill="none" stroke="black" points="1031.5,-19 1414.5,-19 "/>
<text text-anchor="start" x="1039.5" y="-7.8" font-family="Arial" font-size="8.00">+ KnotSaveConfirmDialog (GameScreen screen, WidgetInfo info, DisplayLayer drawOrder, Knot knot)</text>
</g>
<!-- Box_TextInputDialog&#45;&gt;Box_KnotSaveConfirmDialog -->
<g id="edge20" class="edge"><title>Box_TextInputDialog&#45;&gt;Box_KnotSaveConfirmDialog</title>
<path fill="none" stroke="midnightblue" d="M1223,-117.582C1223,-96.3431 1223,-72.7182 1223,-55.0643"/>
<polygon fill="none" stroke="midnightblue" points="1219.5,-117.78 1223,-127.78 1226.5,-117.78 1219.5,-117.78"/>
</g>
<!-- Box_VerticalMenu -->
<g id="node10" class="node"><title>Box_VerticalMenu</title>
<polygon fill="#fcfcda" stroke="black" points="1399,-315 1399,-439 1769,-439 1769,-315 1399,-315"/>
<text text-anchor="middle" x="1584" y="-427.8" font-family="Arial" font-size="8.00">VerticalMenu</text>
<polyline fill="none" stroke="black" points="1399,-421 1769,-421 "/>
<text text-anchor="start" x="1407" y="-409.8" font-family="Arial" font-size="8.00"># spriteBatch : SpriteBatch</text>
<text text-anchor="start" x="1407" y="-399.8" font-family="Arial" font-size="8.00">+ Border : Border</text>
<polyline fill="none" stroke="black" points="1399,-393 1769,-393 "/>
<text text-anchor="start" x="1407" y="-381.8" font-family="Arial" font-size="8.00">+ VerticalMenu (GameScreen screen, WidgetInfo info, DisplayLayer drawOrder)</text>
<text text-anchor="start" x="1407" y="-371.8" font-family="Arial" font-size="8.00">+ Align (Viewport viewport, float scale, int posX, int posY, int? sizeX)</text>
<text text-anchor="start" x="1407" y="-361.8" font-family="Arial" font-size="8.00">+ AddButton (MenuItemInfo info) : MenuButton</text>
<text text-anchor="start" x="1407" y="-351.8" font-family="Arial" font-size="8.00">+ AddDropDown (MenuItemInfo info, DistinctOptionInfo option)</text>
<text text-anchor="start" x="1407" y="-341.8" font-family="Arial" font-size="8.00">+ AddDropDown (MenuItemInfo info, DropDownMenuItem[] items, DropDownMenuItem defaultItem)</text>
<text text-anchor="start" x="1407" y="-331.8" font-family="Arial" font-size="8.00">+ Draw (GameTime time)</text>
<text text-anchor="start" x="1407" y="-321.8" font-family="Arial" font-size="8.00">+ Align (Viewport viewport, float scale, Vector2? givenPosition)</text>
</g>
<!-- Box_Menu&#45;&gt;Box_VerticalMenu -->
<g id="edge24" class="edge"><title>Box_Menu&#45;&gt;Box_VerticalMenu</title>
<path fill="none" stroke="midnightblue" d="M1584,-496.548C1584,-476.623 1584,-456.835 1584,-439.262"/>
<polygon fill="none" stroke="midnightblue" points="1580.5,-496.649 1584,-506.649 1587.5,-496.649 1580.5,-496.649"/>
</g>
<!-- Box_MenuItem -->
<g id="node13" class="node"><title>Box_MenuItem</title>
<polygon fill="#fcfcda" stroke="black" points="195.5,-285 195.5,-469 542.5,-469 542.5,-285 195.5,-285"/>
<text text-anchor="middle" x="369" y="-457.8" font-family="Arial" font-size="8.00">MenuItem</text>
<polyline fill="none" stroke="black" points="195.5,-451 542.5,-451 "/>
<text text-anchor="start" x="203.5" y="-439.8" font-family="Arial" font-size="8.00"># spriteBatch : SpriteBatch</text>
<text text-anchor="start" x="203.5" y="-429.8" font-family="Arial" font-size="8.00">+ IsMouseEventEnabled : bool</text>
<text text-anchor="start" x="203.5" y="-419.8" font-family="Arial" font-size="8.00">+ ValidKeys : List&lt;Keys&gt;</text>
<text text-anchor="start" x="203.5" y="-409.8" font-family="Arial" font-size="8.00">+ IsKeyEventEnabled : bool</text>
<text text-anchor="start" x="203.5" y="-399.8" font-family="Arial" font-size="8.00">+ Info : MenuItemInfo</text>
<polyline fill="none" stroke="black" points="195.5,-393 542.5,-393 "/>
<text text-anchor="start" x="203.5" y="-381.8" font-family="Arial" font-size="8.00">+ MenuItem (GameScreen screen, DisplayLayer drawOrder, int itemNum, MenuItemInfo info)</text>
<text text-anchor="start" x="203.5" y="-371.8" font-family="Arial" font-size="8.00">+ Collapse () virtual</text>
<text text-anchor="start" x="203.5" y="-361.8" font-family="Arial" font-size="8.00">+ OnKeyEvent (List&lt;Keys&gt; key, KeyEvent keyEvent, GameTime time)</text>
<text text-anchor="start" x="203.5" y="-351.8" font-family="Arial" font-size="8.00">+ OnLeftClick (Vector2 position, ClickState click, GameTime time)</text>
<text text-anchor="start" x="203.5" y="-341.8" font-family="Arial" font-size="8.00">+ OnRightClick (Vector2 position, ClickState click, GameTime time)</text>
<text text-anchor="start" x="203.5" y="-331.8" font-family="Arial" font-size="8.00">+ MinimumSize (SpriteFont font) : Vector2</text>
<text text-anchor="start" x="203.5" y="-321.8" font-family="Arial" font-size="8.00">+ TextPosition (SpriteFont font) : Vector2</text>
<text text-anchor="start" x="203.5" y="-311.8" font-family="Arial" font-size="8.00">+ TextPosition (SpriteFont font, Vector2 scale) : Vector2</text>
<text text-anchor="start" x="203.5" y="-301.8" font-family="Arial" font-size="8.00">+ Draw (GameTime time)</text>
<text text-anchor="start" x="203.5" y="-291.8" font-family="Arial" font-size="8.00">+ SetHovered (bool hovered)</text>
</g>
<!-- Box_ItemWidget&#45;&gt;Box_MenuItem -->
<g id="edge32" class="edge"><title>Box_ItemWidget&#45;&gt;Box_MenuItem</title>
<path fill="none" stroke="midnightblue" d="M835.359,-586.105C800.081,-561.293 751.63,-529.274 706,-506 654.379,-479.67 596.064,-455.526 542.632,-435.425"/>
<polygon fill="none" stroke="midnightblue" points="833.398,-589.005 843.582,-591.926 837.442,-583.291 833.398,-589.005"/>
</g>
<!-- Box_DropDownMenu -->
<g id="node14" class="node"><title>Box_DropDownMenu</title>
<polygon fill="#fcfcda" stroke="black" points="374,-93 374,-247 746,-247 746,-93 374,-93"/>
<text text-anchor="middle" x="560" y="-235.8" font-family="Arial" font-size="8.00">DropDownMenu</text>
<polyline fill="none" stroke="black" points="374,-229 746,-229 "/>
<text text-anchor="start" x="382" y="-217.8" font-family="Arial" font-size="8.00">&#45; selected : MenuButton</text>
<text text-anchor="start" x="382" y="-207.8" font-family="Arial" font-size="8.00">&#45; dropdown : VerticalMenu</text>
<polyline fill="none" stroke="black" points="374,-201 746,-201 "/>
<text text-anchor="start" x="382" y="-189.8" font-family="Arial" font-size="8.00">&#45; ValuePosition (int dummy) : Vector2</text>
<text text-anchor="start" x="382" y="-179.8" font-family="Arial" font-size="8.00">+ DropDownMenu (GameScreen screen, DisplayLayer drawOrder, int itemNum, MenuItemInfo info)</text>
<text text-anchor="start" x="382" y="-169.8" font-family="Arial" font-size="8.00">&#45; DropDownBackgroundColor (ItemState itemState) : Color</text>
<text text-anchor="start" x="382" y="-159.8" font-family="Arial" font-size="8.00">&#45; DropDownForegroundColor (ItemState itemState) : Color</text>
<text text-anchor="start" x="382" y="-149.8" font-family="Arial" font-size="8.00">&#45; ValueSize (int dummy) : Vector2</text>
<text text-anchor="start" x="382" y="-139.8" font-family="Arial" font-size="8.00">+ SubComponents (GameTime time) : IEnumerable&lt;IGameScreenComponent&gt;</text>
<text text-anchor="start" x="382" y="-129.8" font-family="Arial" font-size="8.00">+ Collapse ()</text>
<text text-anchor="start" x="382" y="-119.8" font-family="Arial" font-size="8.00">+ Draw (GameTime time)</text>
<text text-anchor="start" x="382" y="-109.8" font-family="Arial" font-size="8.00">+ AddEntries (DistinctOptionInfo option)</text>
<text text-anchor="start" x="382" y="-99.8" font-family="Arial" font-size="8.00">+ AddEntries (DropDownMenuItem[] entries, DropDownMenuItem defaultEntry)</text>
</g>
<!-- Box_MenuItem&#45;&gt;Box_DropDownMenu -->
<g id="edge38" class="edge"><title>Box_MenuItem&#45;&gt;Box_DropDownMenu</title>
<path fill="none" stroke="midnightblue" d="M461.217,-277.058C470.456,-267.045 479.736,-256.987 488.711,-247.261"/>
<polygon fill="none" stroke="midnightblue" points="458.375,-274.977 454.166,-284.7 463.52,-279.724 458.375,-274.977"/>
</g>
<!-- Box_MenuButton -->
<g id="node15" class="node"><title>Box_MenuButton</title>
<polygon fill="#fcfcda" stroke="black" points="0,-143 0,-197 356,-197 356,-143 0,-143"/>
<text text-anchor="middle" x="178" y="-185.8" font-family="Arial" font-size="8.00">MenuButton</text>
<polyline fill="none" stroke="black" points="0,-179 356,-179 "/>
<text text-anchor="middle" x="178" y="-167.8" font-family="Arial" font-size="8.00"> </text>
<polyline fill="none" stroke="black" points="0,-161 356,-161 "/>
<text text-anchor="start" x="8" y="-149.8" font-family="Arial" font-size="8.00">+ MenuButton (GameScreen screen, DisplayLayer drawOrder, int itemNum, MenuItemInfo info)</text>
</g>
<!-- Box_MenuItem&#45;&gt;Box_MenuButton -->
<g id="edge40" class="edge"><title>Box_MenuItem&#45;&gt;Box_MenuButton</title>
<path fill="none" stroke="midnightblue" d="M276.961,-277.251C249.873,-247.894 222.414,-218.134 203.315,-197.435"/>
<polygon fill="none" stroke="midnightblue" points="274.48,-279.724 283.834,-284.7 279.625,-274.977 274.48,-279.724"/>
</g>
<!-- Box_XnaDrawableGameComponent -->
<g id="node16" class="node"><title>Box_XnaDrawableGameComponent</title>
<polygon fill="#ffffff" stroke="black" points="937,-1031 937,-1049 1067,-1049 1067,-1031 937,-1031"/>
<text text-anchor="middle" x="1002" y="-1037.8" font-family="Arial" font-size="8.00">Xna.DrawableGameComponent</text>
</g>
<!-- Box_XnaDrawableGameComponent&#45;&gt;Box_DrawableGameScreenComponent -->
<g id="edge4" class="edge"><title>Box_XnaDrawableGameComponent&#45;&gt;Box_DrawableGameScreenComponent</title>
<path fill="none" stroke="midnightblue" d="M984.824,-1024.02C970.966,-1011.12 950.815,-992.376 932.399,-975.241"/>
<polygon fill="none" stroke="midnightblue" points="982.49,-1026.63 992.195,-1030.88 987.258,-1021.5 982.49,-1026.63"/>
</g>
<!-- Box_XnaIGameComponent -->
<g id="node17" class="node"><title>Box_XnaIGameComponent</title>
<polygon fill="#ffffff" stroke="black" points="725,-1105 725,-1123 821,-1123 821,-1105 725,-1105"/>
<text text-anchor="middle" x="773" y="-1111.8" font-family="Arial" font-size="8.00">Xna.IGameComponent</text>
</g>
<!-- Box_XnaIGameComponent&#45;&gt;Box_IGameScreenComponent -->
<g id="edge8" class="edge"><title>Box_XnaIGameComponent&#45;&gt;Box_IGameScreenComponent</title>
<path fill="none" stroke="midnightblue" d="M773,-1094.64C773,-1086.2 773,-1076.16 773,-1067"/>
<polygon fill="none" stroke="midnightblue" points="769.5,-1094.93 773,-1104.93 776.5,-1094.93 769.5,-1094.93"/>
</g>
<!-- Box_IMouseEventListener -->
<g id="node18" class="node"><title>Box_IMouseEventListener</title>
<polygon fill="#ffffff" stroke="black" points="412,-807 412,-825 504,-825 504,-807 412,-807"/>
<text text-anchor="middle" x="458" y="-813.8" font-family="Arial" font-size="8.00">IMouseEventListener</text>
</g>
<!-- Box_IMouseEventListener&#45;&gt;Box_ColorPicker -->
<g id="edge12" class="edge"><title>Box_IMouseEventListener&#45;&gt;Box_ColorPicker</title>
<path fill="none" stroke="midnightblue" d="M466.462,-797.745C475.309,-778.658 489.878,-747.23 504.209,-716.313"/>
<polygon fill="none" stroke="midnightblue" points="463.203,-796.452 462.173,-806.997 469.554,-799.396 463.203,-796.452"/>
</g>
<!-- Box_IMouseEventListener&#45;&gt;Box_MenuItem -->
<g id="edge34" class="edge"><title>Box_IMouseEventListener&#45;&gt;Box_MenuItem</title>
<path fill="none" stroke="midnightblue" d="M436.698,-800.493C420.144,-787.08 398.32,-766.086 388,-742 350.7,-654.95 350.435,-545.339 356.699,-469.061"/>
<polygon fill="none" stroke="midnightblue" points="434.745,-803.409 444.785,-806.792 439.047,-797.886 434.745,-803.409"/>
</g>
<!-- Box_IKeyEventListener -->
<g id="node19" class="node"><title>Box_IKeyEventListener</title>
<polygon fill="#ffffff" stroke="black" points="67,-807 67,-825 149,-825 149,-807 67,-807"/>
<text text-anchor="middle" x="108" y="-813.8" font-family="Arial" font-size="8.00">IKeyEventListener</text>
</g>
<!-- Box_IKeyEventListener&#45;&gt;Box_TextInput -->
<g id="edge28" class="edge"><title>Box_IKeyEventListener&#45;&gt;Box_TextInput</title>
<path fill="none" stroke="midnightblue" d="M116.234,-797.829C127.743,-772.43 149.209,-725.055 166.829,-686.171"/>
<polygon fill="none" stroke="midnightblue" points="113.019,-796.444 112.08,-806.997 119.395,-799.333 113.019,-796.444"/>
</g>
<!-- Box_IKeyEventListener&#45;&gt;Box_MenuItem -->
<g id="edge36" class="edge"><title>Box_IKeyEventListener&#45;&gt;Box_MenuItem</title>
<path fill="none" stroke="midnightblue" d="M86.9667,-800.495C70.6879,-787.082 49.3869,-766.088 40,-742 1.91562,-644.269 -19.1001,-592.654 40,-506 59.6611,-477.173 126.806,-448.494 195.355,-425.524"/>
<polygon fill="none" stroke="midnightblue" points="84.9172,-803.336 94.932,-806.793 89.2591,-797.845 84.9172,-803.336"/>
</g>
</g>
</svg>
