<?xml version="1.0" encoding="UTF-8" standalone="no"?>
<!DOCTYPE svg PUBLIC "-//W3C//DTD SVG 1.1//EN"
 "http://www.w3.org/Graphics/SVG/1.1/DTD/svg11.dtd">
<!-- Generated by graphviz version 2.26.3 (20100126.1600)
 -->
<!-- Title: MenuItem Pages: 1 -->
<svg width="1275pt" height="1908pt"
 viewBox="0.00 0.00 306.00 458.00" xmlns="http://www.w3.org/2000/svg" xmlns:xlink="http://www.w3.org/1999/xlink">
<g id="graph1" class="graph" transform="scale(4.16667 4.16667) rotate(0) translate(4 454)">
<title>MenuItem</title>
<polygon fill="white" stroke="white" points="-4,5 -4,-454 303,-454 303,5 -4,5"/>
<!-- Box_InstancingTest -->
<g id="node1" class="node"><title>Box_InstancingTest</title>
<polygon fill="#fcfcda" stroke="black" points="16,-1 16,-105 282,-105 282,-1 16,-1"/>
<text text-anchor="middle" x="149" y="-93.8" font-family="Arial" font-size="8.00">InstancingTest</text>
<polyline fill="none" stroke="black" points="16,-87 282,-87 "/>
<text text-anchor="start" x="24" y="-75.8" font-family="Arial" font-size="8.00">&#45; ModelInstances : class</text>
<polyline fill="none" stroke="black" points="16,-69 282,-69 "/>
<text text-anchor="start" x="24" y="-57.8" font-family="Arial" font-size="8.00">&#45; instanceHash () : Hashtable</text>
<text text-anchor="start" x="24" y="-47.8" font-family="Arial" font-size="8.00">+ Begin (Color background, GameTime gameTime)</text>
<text text-anchor="start" x="24" y="-37.8" font-family="Arial" font-size="8.00"># DrawRenderTarget (SpriteBatch spriteBatch, GameTime gameTime)</text>
<text text-anchor="start" x="24" y="-27.8" font-family="Arial" font-size="8.00">+ InstancingTest (GameScreen screen)</text>
<text text-anchor="start" x="24" y="-17.8" font-family="Arial" font-size="8.00">+ DrawModel (GameModel model, GameTime gameTime)</text>
<text text-anchor="start" x="24" y="-7.8" font-family="Arial" font-size="8.00">+ End (GameTime gameTime)</text>
</g>
<!-- Box_RenderEffect -->
<g id="node2" class="node"><title>Box_RenderEffect</title>
<polygon fill="#fcfcda" stroke="black" points="-0.5,-143 -0.5,-317 298.5,-317 298.5,-143 -0.5,-143"/>
<text text-anchor="middle" x="149" y="-305.8" font-family="Arial" font-size="8.00">RenderEffect</text>
<polyline fill="none" stroke="black" points="-0.5,-299 298.5,-299 "/>
<text text-anchor="start" x="7.5" y="-287.8" font-family="Arial" font-size="8.00">&#45; background : Color</text>
<text text-anchor="start" x="7.5" y="-277.8" font-family="Arial" font-size="8.00">&#45; renderTarget : RenderTargetCache</text>
<text text-anchor="start" x="7.5" y="-267.8" font-family="Arial" font-size="8.00">&#45; spriteBatch : SpriteBatch</text>
<text text-anchor="start" x="7.5" y="-257.8" font-family="Arial" font-size="8.00"># screen : GameScreen</text>
<text text-anchor="start" x="7.5" y="-247.8" font-family="Arial" font-size="8.00">+ RenderTarget : RenderTarget2D</text>
<polyline fill="none" stroke="black" points="-0.5,-241 298.5,-241 "/>
<text text-anchor="start" x="7.5" y="-229.8" font-family="Arial" font-size="8.00"># DrawRenderTarget (SpriteBatch spriteBatch, GameTime gameTime) abstract</text>
<text text-anchor="start" x="7.5" y="-219.8" font-family="Arial" font-size="8.00">+ RenderEffect (GameScreen screen)</text>
<text text-anchor="start" x="7.5" y="-209.8" font-family="Arial" font-size="8.00">+ DrawModel (GameModel model, GameTime gameTime) virtual</text>
<text text-anchor="start" x="7.5" y="-199.8" font-family="Arial" font-size="8.00">+ RemapModel (Model model) virtual</text>
<text text-anchor="start" x="7.5" y="-189.8" font-family="Arial" font-size="8.00">+ Begin (GameTime gameTime)</text>
<text text-anchor="start" x="7.5" y="-179.8" font-family="Arial" font-size="8.00"># ModifyBasicEffect (BasicEffect effect, GameModel model)</text>
<text text-anchor="start" x="7.5" y="-169.8" font-family="Arial" font-size="8.00">+ Begin (Color background, GameTime gameTime) virtual</text>
<text text-anchor="start" x="7.5" y="-159.8" font-family="Arial" font-size="8.00">+ End (GameTime gameTime) virtual</text>
<text text-anchor="start" x="7.5" y="-149.8" font-family="Arial" font-size="8.00">+ DrawLastFrame (GameTime gameTime)</text>
</g>
<!-- Box_RenderEffect&#45;&gt;Box_InstancingTest -->
<g id="edge2" class="edge"><title>Box_RenderEffect&#45;&gt;Box_InstancingTest</title>
<path fill="none" stroke="midnightblue" d="M149,-132.518C149,-123.076 149,-113.772 149,-105.042"/>
<polygon fill="none" stroke="midnightblue" points="145.5,-132.796 149,-142.796 152.5,-132.796 145.5,-132.796"/>
</g>
<!-- Box_IRenderEffect -->
<g id="node3" class="node"><title>Box_IRenderEffect</title>
<polygon fill="#dafcda" stroke="black" points="40,-355 40,-449 258,-449 258,-355 40,-355"/>
<text text-anchor="middle" x="149" y="-437.8" font-family="Arial" font-size="8.00">IRenderEffect</text>
<polyline fill="none" stroke="black" points="40,-431 258,-431 "/>
<text text-anchor="start" x="48" y="-419.8" font-family="Arial" font-size="8.00">+ RenderTarget : RenderTarget2D</text>
<polyline fill="none" stroke="black" points="40,-413 258,-413 "/>
<text text-anchor="start" x="48" y="-401.8" font-family="Arial" font-size="8.00">+ Begin (GameTime gameTime)</text>
<text text-anchor="start" x="48" y="-391.8" font-family="Arial" font-size="8.00">+ End (GameTime gameTime)</text>
<text text-anchor="start" x="48" y="-381.8" font-family="Arial" font-size="8.00">+ RemapModel (Model model)</text>
<text text-anchor="start" x="48" y="-371.8" font-family="Arial" font-size="8.00">+ DrawModel (GameModel model, GameTime gameTime)</text>
<text text-anchor="start" x="48" y="-361.8" font-family="Arial" font-size="8.00">+ DrawLastFrame (GameTime gameTime)</text>
</g>
<!-- Box_IRenderEffect&#45;&gt;Box_RenderEffect -->
<g id="edge4" class="edge"><title>Box_IRenderEffect&#45;&gt;Box_RenderEffect</title>
<path fill="none" stroke="midnightblue" d="M149,-344.473C149,-335.697 149,-326.474 149,-317.233"/>
<polygon fill="none" stroke="midnightblue" points="145.5,-344.545 149,-354.545 152.5,-344.545 145.5,-344.545"/>
</g>
</g>
</svg>
