<?xml version="1.0" encoding="UTF-8" standalone="no"?>
<!DOCTYPE svg PUBLIC "-//W3C//DTD SVG 1.1//EN"
 "http://www.w3.org/Graphics/SVG/1.1/DTD/svg11.dtd">
<!-- Generated by graphviz version 2.26.3 (20100126.1600)
 -->
<!-- Title: MenuItem Pages: 1 -->
<svg width="503pt" height="790pt"
 viewBox="0.00 0.00 503.00 790.00" xmlns="http://www.w3.org/2000/svg" xmlns:xlink="http://www.w3.org/1999/xlink">
<g id="graph1" class="graph" transform="scale(1 1) rotate(0) translate(4 786)">
<title>MenuItem</title>
<polygon fill="white" stroke="white" points="-4,5 -4,-786 500,-786 500,5 -4,5"/>
<!-- Box_MenuScreen -->
<g id="node1" class="node"><title>Box_MenuScreen</title>
<polygon fill="#fcfcda" stroke="black" points="142,-345 142,-529 330,-529 330,-345 142,-345"/>
<text text-anchor="middle" x="236" y="-517.8" font-family="Arial" font-size="8.00">MenuScreen</text>
<polyline fill="none" stroke="black" points="142,-511 330,-511 "/>
<text text-anchor="start" x="150" y="-499.8" font-family="Arial" font-size="8.00">&#45; backColor : Color</text>
<text text-anchor="start" x="150" y="-489.8" font-family="Arial" font-size="8.00">&#45; pointer : MousePointer</text>
<text text-anchor="start" x="150" y="-479.8" font-family="Arial" font-size="8.00"># LinePoints : List&lt;Vector2&gt;</text>
<text text-anchor="start" x="150" y="-469.8" font-family="Arial" font-size="8.00"># LineWidth : int</text>
<text text-anchor="start" x="150" y="-459.8" font-family="Arial" font-size="8.00">&#45; spriteBatch : SpriteBatch</text>
<polyline fill="none" stroke="black" points="142,-453 330,-453 "/>
<text text-anchor="start" x="150" y="-441.8" font-family="Arial" font-size="8.00">+ MenuScreen (Core.Game game)</text>
<text text-anchor="start" x="150" y="-431.8" font-family="Arial" font-size="8.00">+ Activate (GameTime time)</text>
<text text-anchor="start" x="150" y="-421.8" font-family="Arial" font-size="8.00">+ Draw (GameTime time)</text>
<text text-anchor="start" x="150" y="-411.8" font-family="Arial" font-size="8.00"># BackgroundColor (ItemState itemState) : Color</text>
<text text-anchor="start" x="150" y="-401.8" font-family="Arial" font-size="8.00"># ForegroundColor (ItemState itemState) : Color</text>
<text text-anchor="start" x="150" y="-391.8" font-family="Arial" font-size="8.00">+ DrawMenu (GameTime time) abstract</text>
<text text-anchor="start" x="150" y="-381.8" font-family="Arial" font-size="8.00">+ UpdateMenu (GameTime time) abstract</text>
<text text-anchor="start" x="150" y="-371.8" font-family="Arial" font-size="8.00">+ Initialize ()</text>
<text text-anchor="start" x="150" y="-361.8" font-family="Arial" font-size="8.00">+ Unload ()</text>
<text text-anchor="start" x="150" y="-351.8" font-family="Arial" font-size="8.00">+ Update (GameTime time)</text>
</g>
<!-- Box_StartScreen -->
<g id="node3" class="node"><title>Box_StartScreen</title>
<polygon fill="#fcfcda" stroke="black" points="-0.5,-173 -0.5,-287 130.5,-287 130.5,-173 -0.5,-173"/>
<text text-anchor="middle" x="65" y="-275.8" font-family="Arial" font-size="8.00">StartScreen</text>
<polyline fill="none" stroke="black" points="-0.5,-269 130.5,-269 "/>
<text text-anchor="start" x="7.5" y="-257.8" font-family="Arial" font-size="8.00">&#45; spriteBatch : SpriteBatch</text>
<text text-anchor="start" x="7.5" y="-247.8" font-family="Arial" font-size="8.00">&#45; logo : Texture2D</text>
<text text-anchor="start" x="7.5" y="-237.8" font-family="Arial" font-size="8.00"># menu : Menu</text>
<polyline fill="none" stroke="black" points="-0.5,-231 130.5,-231 "/>
<text text-anchor="start" x="7.5" y="-219.8" font-family="Arial" font-size="8.00">+ StartScreen (Game game)</text>
<text text-anchor="start" x="7.5" y="-209.8" font-family="Arial" font-size="8.00">+ Activate (GameTime time)</text>
<text text-anchor="start" x="7.5" y="-199.8" font-family="Arial" font-size="8.00">+ UpdateMenu (GameTime time)</text>
<text text-anchor="start" x="7.5" y="-189.8" font-family="Arial" font-size="8.00">+ DrawMenu (GameTime time)</text>
<text text-anchor="start" x="7.5" y="-179.8" font-family="Arial" font-size="8.00">+ Initialize ()</text>
</g>
<!-- Box_MenuScreen&#45;&gt;Box_StartScreen -->
<g id="edge4" class="edge"><title>Box_MenuScreen&#45;&gt;Box_StartScreen</title>
<path fill="none" stroke="midnightblue" d="M153.275,-336.86C139.152,-319.762 124.927,-302.543 112.145,-287.07"/>
<polygon fill="none" stroke="midnightblue" points="150.685,-339.219 159.752,-344.7 156.081,-334.761 150.685,-339.219"/>
</g>
<!-- Box_LoadSavegameScreen -->
<g id="node4" class="node"><title>Box_LoadSavegameScreen</title>
<polygon fill="#fcfcda" stroke="black" points="148,-153 148,-307 324,-307 324,-153 148,-153"/>
<text text-anchor="middle" x="236" y="-295.8" font-family="Arial" font-size="8.00">LoadSavegameScreen</text>
<polyline fill="none" stroke="black" points="148,-289 324,-289 "/>
<text text-anchor="start" x="156" y="-277.8" font-family="Arial" font-size="8.00">&#45; fileIndex : FileIndex</text>
<text text-anchor="start" x="156" y="-267.8" font-family="Arial" font-size="8.00">&#45; fileFormat : IKnotIO</text>
<text text-anchor="start" x="156" y="-257.8" font-family="Arial" font-size="8.00">&#45; spriteBatch : SpriteBatch</text>
<text text-anchor="start" x="156" y="-247.8" font-family="Arial" font-size="8.00">&#45; menu : VerticalMenu</text>
<polyline fill="none" stroke="black" points="148,-241 324,-241 "/>
<text text-anchor="start" x="156" y="-229.8" font-family="Arial" font-size="8.00">&#45; AddDefaultKnots ()</text>
<text text-anchor="start" x="156" y="-219.8" font-family="Arial" font-size="8.00">+ LoadSavegameScreen (Core.Game game)</text>
<text text-anchor="start" x="156" y="-209.8" font-family="Arial" font-size="8.00">+ Activate (GameTime time)</text>
<text text-anchor="start" x="156" y="-199.8" font-family="Arial" font-size="8.00">+ DrawMenu (GameTime time)</text>
<text text-anchor="start" x="156" y="-189.8" font-family="Arial" font-size="8.00">&#45; AddFileToList (string filename)</text>
<text text-anchor="start" x="156" y="-179.8" font-family="Arial" font-size="8.00">&#45; UpdateFiles ()</text>
<text text-anchor="start" x="156" y="-169.8" font-family="Arial" font-size="8.00">+ Initialize ()</text>
<text text-anchor="start" x="156" y="-159.8" font-family="Arial" font-size="8.00">+ UpdateMenu (GameTime time)</text>
</g>
<!-- Box_MenuScreen&#45;&gt;Box_LoadSavegameScreen -->
<g id="edge6" class="edge"><title>Box_MenuScreen&#45;&gt;Box_LoadSavegameScreen</title>
<path fill="none" stroke="midnightblue" d="M236,-334.406C236,-325.272 236,-316.129 236,-307.261"/>
<polygon fill="none" stroke="midnightblue" points="232.5,-334.7 236,-344.7 239.5,-334.7 232.5,-334.7"/>
</g>
<!-- Box_OptionScreen -->
<g id="node5" class="node"><title>Box_OptionScreen</title>
<polygon fill="#fcfcda" stroke="black" points="341.5,-178 341.5,-282 484.5,-282 484.5,-178 341.5,-178"/>
<text text-anchor="middle" x="413" y="-270.8" font-family="Arial" font-size="8.00">OptionScreen</text>
<polyline fill="none" stroke="black" points="341.5,-264 484.5,-264 "/>
<text text-anchor="start" x="349.5" y="-252.8" font-family="Arial" font-size="8.00">&#45; spriteBatch : SpriteBatch</text>
<text text-anchor="start" x="349.5" y="-242.8" font-family="Arial" font-size="8.00">&#45; menu : VerticalMenu</text>
<polyline fill="none" stroke="black" points="341.5,-236 484.5,-236 "/>
<text text-anchor="start" x="349.5" y="-224.8" font-family="Arial" font-size="8.00">+ OptionScreen (Core.Game game)</text>
<text text-anchor="start" x="349.5" y="-214.8" font-family="Arial" font-size="8.00">+ Activate (GameTime time)</text>
<text text-anchor="start" x="349.5" y="-204.8" font-family="Arial" font-size="8.00">+ DrawMenu (GameTime time)</text>
<text text-anchor="start" x="349.5" y="-194.8" font-family="Arial" font-size="8.00">+ UpdateMenu (GameTime time)</text>
<text text-anchor="start" x="349.5" y="-184.8" font-family="Arial" font-size="8.00">+ Initialize ()</text>
</g>
<!-- Box_MenuScreen&#45;&gt;Box_OptionScreen -->
<g id="edge8" class="edge"><title>Box_MenuScreen&#45;&gt;Box_OptionScreen</title>
<path fill="none" stroke="midnightblue" d="M321.607,-336.884C337.807,-317.937 354.138,-298.839 368.422,-282.133"/>
<polygon fill="none" stroke="midnightblue" points="318.762,-334.825 314.923,-344.7 324.082,-339.374 318.762,-334.825"/>
</g>
<!-- Box_GameScreen -->
<g id="node2" class="node"><title>Box_GameScreen</title>
<polygon fill="#fcfcda" stroke="black" points="58.5,-567 58.5,-781 413.5,-781 413.5,-567 58.5,-567"/>
<text text-anchor="middle" x="236" y="-769.8" font-family="Arial" font-size="8.00">GameScreen</text>
<polyline fill="none" stroke="black" points="58.5,-763 413.5,-763 "/>
<text text-anchor="start" x="66.5" y="-751.8" font-family="Arial" font-size="8.00">+ content : ContentManager</text>
<text text-anchor="start" x="66.5" y="-741.8" font-family="Arial" font-size="8.00">+ NextState : GameScreen</text>
<text text-anchor="start" x="66.5" y="-731.8" font-family="Arial" font-size="8.00">+ device : GraphicsDevice</text>
<text text-anchor="start" x="66.5" y="-721.8" font-family="Arial" font-size="8.00">+ RenderEffects : RenderEffectStack</text>
<text text-anchor="start" x="66.5" y="-711.8" font-family="Arial" font-size="8.00">+ viewport : Viewport</text>
<text text-anchor="start" x="66.5" y="-701.8" font-family="Arial" font-size="8.00">+ game : Game</text>
<text text-anchor="start" x="66.5" y="-691.8" font-family="Arial" font-size="8.00">+ graphics : GraphicsDeviceManager</text>
<text text-anchor="start" x="66.5" y="-681.8" font-family="Arial" font-size="8.00">+ input : InputManager</text>
<text text-anchor="start" x="66.5" y="-671.8" font-family="Arial" font-size="8.00">+ PostProcessing : RenderEffect</text>
<polyline fill="none" stroke="black" points="58.5,-665 413.5,-665 "/>
<text text-anchor="start" x="66.5" y="-653.8" font-family="Arial" font-size="8.00">+ Draw (GameTime time) abstract</text>
<text text-anchor="start" x="66.5" y="-643.8" font-family="Arial" font-size="8.00">+ Initialize () abstract</text>
<text text-anchor="start" x="66.5" y="-633.8" font-family="Arial" font-size="8.00">+ Unload () abstract</text>
<text text-anchor="start" x="66.5" y="-623.8" font-family="Arial" font-size="8.00">+ Activate (GameTime time) virtual</text>
<text text-anchor="start" x="66.5" y="-613.8" font-family="Arial" font-size="8.00">+ GameScreen (Game game)</text>
<text text-anchor="start" x="66.5" y="-603.8" font-family="Arial" font-size="8.00">+ Update (GameTime time) abstract</text>
<text text-anchor="start" x="66.5" y="-593.8" font-family="Arial" font-size="8.00">+ Deactivate (GameTime time) virtual</text>
<text text-anchor="start" x="66.5" y="-583.8" font-family="Arial" font-size="8.00">+ AddGameComponents (GameTime time, params IGameScreenComponent[] components)</text>
<text text-anchor="start" x="66.5" y="-573.8" font-family="Arial" font-size="8.00">+ RemoveGameComponents (GameTime time, params IGameScreenComponent[] components)</text>
</g>
<!-- Box_GameScreen&#45;&gt;Box_MenuScreen -->
<g id="edge2" class="edge"><title>Box_GameScreen&#45;&gt;Box_MenuScreen</title>
<path fill="none" stroke="midnightblue" d="M236,-556.846C236,-547.529 236,-538.201 236,-529.092"/>
<polygon fill="none" stroke="midnightblue" points="232.5,-556.941 236,-566.941 239.5,-556.941 232.5,-556.941"/>
</g>
<!-- Box_VideoOptionScreen -->
<g id="node6" class="node"><title>Box_VideoOptionScreen</title>
<polygon fill="#fcfcda" stroke="black" points="331,-1 331,-115 495,-115 495,-1 331,-1"/>
<text text-anchor="middle" x="413" y="-103.8" font-family="Arial" font-size="8.00">VideoOptionScreen</text>
<polyline fill="none" stroke="black" points="331,-97 495,-97 "/>
<text text-anchor="start" x="339" y="-85.8" font-family="Arial" font-size="8.00">&#45; spriteBatch : SpriteBatch</text>
<text text-anchor="start" x="339" y="-75.8" font-family="Arial" font-size="8.00">&#45; menu : VerticalMenu</text>
<polyline fill="none" stroke="black" points="331,-69 495,-69 "/>
<text text-anchor="start" x="339" y="-57.8" font-family="Arial" font-size="8.00">+ VideoOptionScreen (Core.Game game)</text>
<text text-anchor="start" x="339" y="-47.8" font-family="Arial" font-size="8.00">+ Activate (GameTime time)</text>
<text text-anchor="start" x="339" y="-37.8" font-family="Arial" font-size="8.00">+ DrawMenu (GameTime time)</text>
<text text-anchor="start" x="339" y="-27.8" font-family="Arial" font-size="8.00">+ Initialize ()</text>
<text text-anchor="start" x="339" y="-17.8" font-family="Arial" font-size="8.00">+ UpdateMenu (GameTime time)</text>
<text text-anchor="start" x="339" y="-7.8" font-family="Arial" font-size="8.00">+ Collapse (MenuItem item)</text>
</g>
<!-- Box_OptionScreen&#45;&gt;Box_VideoOptionScreen -->
<g id="edge10" class="edge"><title>Box_OptionScreen&#45;&gt;Box_VideoOptionScreen</title>
<path fill="none" stroke="midnightblue" d="M413,-167.505C413,-150.446 413,-132.05 413,-115.296"/>
<polygon fill="none" stroke="midnightblue" points="409.5,-167.928 413,-177.928 416.5,-167.928 409.5,-167.928"/>
</g>
</g>
</svg>
