<?xml version="1.0" encoding="UTF-8" standalone="no"?>
<!DOCTYPE svg PUBLIC "-//W3C//DTD SVG 1.1//EN"
 "http://www.w3.org/Graphics/SVG/1.1/DTD/svg11.dtd">
<!-- Generated by graphviz version 2.26.3 (20100126.1600)
 -->
<!-- Title: MenuItem Pages: 1 -->
<svg width="449pt" height="480pt"
 viewBox="0.00 0.00 449.00 480.00" xmlns="http://www.w3.org/2000/svg" xmlns:xlink="http://www.w3.org/1999/xlink">
<g id="graph1" class="graph" transform="scale(1 1) rotate(0) translate(4 476)">
<title>MenuItem</title>
<polygon fill="white" stroke="white" points="-4,5 -4,-476 446,-476 446,5 -4,5"/>
<!-- Box_MousePicker -->
<g id="node1" class="node"><title>Box_MousePicker</title>
<polygon fill="#fcfcda" stroke="black" points="178.5,-1 178.5,-133 363.5,-133 363.5,-1 178.5,-1"/>
<text text-anchor="middle" x="271" y="-121.8" font-family="Helvetica,sans-Serif" font-size="8.00">MousePicker</text>
<polyline fill="none" stroke="black" points="178.5,-113 363.5,-113 "/>
<text text-anchor="start" x="186.5" y="-101.8" font-family="Helvetica,sans-Serif" font-size="8.00">Attributes:</text>
<text text-anchor="start" x="186.5" y="-89.8" font-family="Helvetica,sans-Serif" font-size="8.00">&#45; lastMousePosition : Vector2</text>
<text text-anchor="start" x="186.5" y="-77.8" font-family="Helvetica,sans-Serif" font-size="8.00">&#45; World : World</text>
<text text-anchor="start" x="186.5" y="-65.8" font-family="Helvetica,sans-Serif" font-size="8.00">&#45; lastRayCheck : double</text>
<text text-anchor="start" x="186.5" y="-53.8" font-family="Helvetica,sans-Serif" font-size="8.00">Methods:</text>
<polyline fill="none" stroke="black" points="178.5,-45 363.5,-45 "/>
<text text-anchor="start" x="186.5" y="-33.8" font-family="Helvetica,sans-Serif" font-size="8.00">+ MousePicker (GameState state, World world)</text>
<text text-anchor="start" x="186.5" y="-21.8" font-family="Helvetica,sans-Serif" font-size="8.00">+ Update (GameTime gameTime)</text>
<text text-anchor="start" x="186.5" y="-9.8" font-family="Helvetica,sans-Serif" font-size="8.00">+ UpdateMouseRay (GameTime gameTime)</text>
</g>
<!-- Box_GameStateComponent -->
<g id="node2" class="node"><title>Box_GameStateComponent</title>
<polygon fill="#fcfcda" stroke="black" points="100.5,-171 100.5,-291 441.5,-291 441.5,-171 100.5,-171"/>
<text text-anchor="middle" x="271" y="-279.8" font-family="Helvetica,sans-Serif" font-size="8.00">GameStateComponent</text>
<polyline fill="none" stroke="black" points="100.5,-271 441.5,-271 "/>
<text text-anchor="start" x="108.5" y="-259.8" font-family="Helvetica,sans-Serif" font-size="8.00">Attributes:</text>
<text text-anchor="start" x="108.5" y="-247.8" font-family="Helvetica,sans-Serif" font-size="8.00"># InputOrder : DisplayLayer</text>
<text text-anchor="start" x="108.5" y="-235.8" font-family="Helvetica,sans-Serif" font-size="8.00">+ state : GameState</text>
<text text-anchor="start" x="108.5" y="-223.8" font-family="Helvetica,sans-Serif" font-size="8.00">+ Index : int</text>
<text text-anchor="start" x="108.5" y="-211.8" font-family="Helvetica,sans-Serif" font-size="8.00">Methods:</text>
<polyline fill="none" stroke="black" points="100.5,-203 441.5,-203 "/>
<text text-anchor="start" x="108.5" y="-191.8" font-family="Helvetica,sans-Serif" font-size="8.00">+ GameStateComponent (GameState state, DisplayLayer inputOrder)</text>
<text text-anchor="start" x="108.5" y="-179.8" font-family="Helvetica,sans-Serif" font-size="8.00">+ SubComponents (GameTime gameTime) : IEnumerable&lt;IGameStateComponent&gt; virtual</text>
</g>
<!-- Box_GameStateComponent&#45;&gt;Box_MousePicker -->
<g id="edge2" class="edge"><title>Box_GameStateComponent&#45;&gt;Box_MousePicker</title>
<path fill="none" stroke="midnightblue" d="M271,-160.682C271,-151.568 271,-142.258 271,-133.214"/>
<polygon fill="none" stroke="midnightblue" points="267.5,-160.864 271,-170.864 274.5,-160.864 267.5,-160.864"/>
</g>
<!-- Box_IGameStateComponent -->
<g id="node3" class="node"><title>Box_IGameStateComponent</title>
<polygon fill="#dafcda" stroke="black" points="0,-329 0,-413 318,-413 318,-329 0,-329"/>
<text text-anchor="middle" x="159" y="-401.8" font-family="Helvetica,sans-Serif" font-size="8.00">IGameStateComponent</text>
<polyline fill="none" stroke="black" points="0,-393 318,-393 "/>
<text text-anchor="start" x="8" y="-381.8" font-family="Helvetica,sans-Serif" font-size="8.00">Attributes:</text>
<text text-anchor="start" x="8" y="-369.8" font-family="Helvetica,sans-Serif" font-size="8.00">+ Index : int</text>
<text text-anchor="start" x="8" y="-357.8" font-family="Helvetica,sans-Serif" font-size="8.00">Methods:</text>
<polyline fill="none" stroke="black" points="0,-349 318,-349 "/>
<text text-anchor="start" x="8" y="-337.8" font-family="Helvetica,sans-Serif" font-size="8.00">+ SubComponents (GameTime gameTime) : IEnumerable&lt;IGameStateComponent&gt;</text>
</g>
<!-- Box_IGameStateComponent&#45;&gt;Box_GameStateComponent -->
<g id="edge6" class="edge"><title>Box_IGameStateComponent&#45;&gt;Box_GameStateComponent</title>
<path fill="none" stroke="midnightblue" d="M198.996,-321.005C206.749,-311.314 214.948,-301.065 222.928,-291.09"/>
<polygon fill="none" stroke="midnightblue" points="196.118,-319 192.604,-328.995 201.584,-323.373 196.118,-319"/>
</g>
<!-- Box_XnaGameComponent -->
<g id="node4" class="node"><title>Box_XnaGameComponent</title>
<polygon fill="#ffffff" stroke="black" points="335.5,-361 335.5,-381 432.5,-381 432.5,-361 335.5,-361"/>
<text text-anchor="middle" x="384" y="-369.8" font-family="Helvetica,sans-Serif" font-size="8.00">Xna.GameComponent</text>
</g>
<!-- Box_XnaGameComponent&#45;&gt;Box_GameStateComponent -->
<g id="edge4" class="edge"><title>Box_XnaGameComponent&#45;&gt;Box_GameStateComponent</title>
<path fill="none" stroke="midnightblue" d="M369.529,-353.071C356.811,-337.314 337.556,-313.459 319.432,-291.004"/>
<polygon fill="none" stroke="midnightblue" points="366.869,-355.348 375.873,-360.932 372.316,-350.952 366.869,-355.348"/>
</g>
<!-- Box_XnaIGameComponent -->
<g id="node5" class="node"><title>Box_XnaIGameComponent</title>
<polygon fill="#ffffff" stroke="black" points="109.5,-451 109.5,-471 208.5,-471 208.5,-451 109.5,-451"/>
<text text-anchor="middle" x="159" y="-459.8" font-family="Helvetica,sans-Serif" font-size="8.00">Xna.IGameComponent</text>
</g>
<!-- Box_XnaIGameComponent&#45;&gt;Box_IGameStateComponent -->
<g id="edge8" class="edge"><title>Box_XnaIGameComponent&#45;&gt;Box_IGameStateComponent</title>
<path fill="none" stroke="midnightblue" d="M159,-440.454C159,-432.393 159,-422.828 159,-413.414"/>
<polygon fill="none" stroke="midnightblue" points="155.5,-440.676 159,-450.676 162.5,-440.676 155.5,-440.676"/>
</g>
</g>
</svg>
