<?xml version="1.0" encoding="UTF-8" standalone="no"?>
<!DOCTYPE svg PUBLIC "-//W3C//DTD SVG 1.1//EN"
 "http://www.w3.org/Graphics/SVG/1.1/DTD/svg11.dtd">
<!-- Generated by graphviz version 2.26.3 (20100126.1600)
 -->
<!-- Title: MenuItem Pages: 1 -->
<svg width="422pt" height="342pt"
 viewBox="0.00 0.00 422.00 342.00" xmlns="http://www.w3.org/2000/svg" xmlns:xlink="http://www.w3.org/1999/xlink">
<g id="graph1" class="graph" transform="scale(1 1) rotate(0) translate(4 338)">
<title>MenuItem</title>
<polygon fill="white" stroke="white" points="-4,5 -4,-338 419,-338 419,5 -4,5"/>
<!-- Box_TexturedRectangleInfo -->
<g id="node1" class="node"><title>Box_TexturedRectangleInfo</title>
<polygon fill="#fcfcda" stroke="black" points="-0.5,-1 -0.5,-105 414.5,-105 414.5,-1 -0.5,-1"/>
<text text-anchor="middle" x="207" y="-93.8" font-family="Arial" font-size="8.00">TexturedRectangleInfo</text>
<polyline fill="none" stroke="black" points="-0.5,-87 414.5,-87 "/>
<text text-anchor="start" x="7.5" y="-75.8" font-family="Arial" font-size="8.00">+ Left : Vector3</text>
<text text-anchor="start" x="7.5" y="-65.8" font-family="Arial" font-size="8.00">+ Up : Vector3</text>
<text text-anchor="start" x="7.5" y="-55.8" font-family="Arial" font-size="8.00">+ Height : float</text>
<text text-anchor="start" x="7.5" y="-45.8" font-family="Arial" font-size="8.00">+ Width : float</text>
<text text-anchor="start" x="7.5" y="-35.8" font-family="Arial" font-size="8.00">+ Texturename : string</text>
<polyline fill="none" stroke="black" points="-0.5,-29 414.5,-29 "/>
<text text-anchor="start" x="7.5" y="-17.8" font-family="Arial" font-size="8.00">+ TexturedRectangleInfo (string texturename, Vector3 origin, Vector3 left, float width, Vector3 up, float height)</text>
<text text-anchor="start" x="7.5" y="-7.8" font-family="Arial" font-size="8.00">+ Equals (GameObjectInfo other) : bool</text>
</g>
<!-- Box_GameObjectInfo -->
<g id="node2" class="node"><title>Box_GameObjectInfo</title>
<polygon fill="#fcfcda" stroke="black" points="81,-143 81,-277 333,-277 333,-143 81,-143"/>
<text text-anchor="middle" x="207" y="-265.8" font-family="Arial" font-size="8.00">GameObjectInfo</text>
<polyline fill="none" stroke="black" points="81,-259 333,-259 "/>
<text text-anchor="start" x="89" y="-247.8" font-family="Arial" font-size="8.00">+ IsMovable : bool</text>
<text text-anchor="start" x="89" y="-237.8" font-family="Arial" font-size="8.00">+ IsSelectable : bool</text>
<text text-anchor="start" x="89" y="-227.8" font-family="Arial" font-size="8.00">+ IsVisible : bool</text>
<text text-anchor="start" x="89" y="-217.8" font-family="Arial" font-size="8.00">+ Position : Vector3</text>
<polyline fill="none" stroke="black" points="81,-211 333,-211 "/>
<text text-anchor="start" x="89" y="-199.8" font-family="Arial" font-size="8.00">+ GameObjectInfo ()</text>
<text text-anchor="start" x="89" y="-189.8" font-family="Arial" font-size="8.00">+ operator (GameObjectInfo o1, GameObjectInfo o2) : bool static</text>
<text text-anchor="start" x="89" y="-179.8" font-family="Arial" font-size="8.00">+ Equals (Object obj) : bool</text>
<text text-anchor="start" x="89" y="-169.8" font-family="Arial" font-size="8.00">+ GetHashCode () : int</text>
<text text-anchor="start" x="89" y="-159.8" font-family="Arial" font-size="8.00">+ operator ! (GameObjectInfo o1, GameObjectInfo o2) : bool static</text>
<text text-anchor="start" x="89" y="-149.8" font-family="Arial" font-size="8.00">+ Equals (GameObjectInfo other) : bool virtual</text>
</g>
<!-- Box_GameObjectInfo&#45;&gt;Box_TexturedRectangleInfo -->
<g id="edge2" class="edge"><title>Box_GameObjectInfo&#45;&gt;Box_TexturedRectangleInfo</title>
<path fill="none" stroke="midnightblue" d="M207,-132.807C207,-123.415 207,-113.998 207,-105.095"/>
<polygon fill="none" stroke="midnightblue" points="203.5,-132.962 207,-142.962 210.5,-132.963 203.5,-132.962"/>
</g>
<!-- Box_IEquatable -->
<g id="node3" class="node"><title>Box_IEquatable</title>
<polygon fill="#ffffff" stroke="black" points="147,-315 147,-333 267,-333 267,-315 147,-315"/>
<text text-anchor="middle" x="207" y="-321.8" font-family="Arial" font-size="8.00">IEquatable&lt;GameObjectInfo&gt;</text>
</g>
<!-- Box_IEquatable&#45;&gt;Box_GameObjectInfo -->
<g id="edge4" class="edge"><title>Box_IEquatable&#45;&gt;Box_GameObjectInfo</title>
<path fill="none" stroke="midnightblue" d="M207,-304.57C207,-296.742 207,-287.21 207,-277.246"/>
<polygon fill="none" stroke="midnightblue" points="203.5,-304.671 207,-314.671 210.5,-304.671 203.5,-304.671"/>
</g>
</g>
</svg>
