<?xml version="1.0" encoding="UTF-8" standalone="no"?>
<!DOCTYPE svg PUBLIC "-//W3C//DTD SVG 1.1//EN"
 "http://www.w3.org/Graphics/SVG/1.1/DTD/svg11.dtd">
<!-- Generated by graphviz version 2.26.3 (20100126.1600)
 -->
<!-- Title: MenuItem Pages: 1 -->
<svg width="699pt" height="414pt"
 viewBox="0.00 0.00 699.00 414.00" xmlns="http://www.w3.org/2000/svg" xmlns:xlink="http://www.w3.org/1999/xlink">
<g id="graph1" class="graph" transform="scale(1 1) rotate(0) translate(4 410)">
<title>MenuItem</title>
<polygon fill="white" stroke="white" points="-4,5 -4,-410 696,-410 696,5 -4,5"/>
<!-- Box_KnotInputHandler -->
<g id="node1" class="node"><title>Box_KnotInputHandler</title>
<polygon fill="#fcfcda" stroke="black" points="272.5,-1 272.5,-145 537.5,-145 537.5,-1 272.5,-1"/>
<text text-anchor="middle" x="405" y="-133.8" font-family="Arial" font-size="8.00">KnotInputHandler</text>
<polyline fill="none" stroke="black" points="272.5,-127 537.5,-127 "/>
<text text-anchor="start" x="280.5" y="-115.8" font-family="Arial" font-size="8.00">&#45; wasdSpeed : int</text>
<text text-anchor="start" x="280.5" y="-105.8" font-family="Arial" font-size="8.00">&#45; camera : Camera</text>
<text text-anchor="start" x="280.5" y="-95.8" font-family="Arial" font-size="8.00">&#45; World : World</text>
<text text-anchor="start" x="280.5" y="-85.8" font-family="Arial" font-size="8.00">+ ValidKeys : List&lt;Keys&gt;</text>
<text text-anchor="start" x="280.5" y="-75.8" font-family="Arial" font-size="8.00">+ IsKeyEventEnabled : bool</text>
<polyline fill="none" stroke="black" points="272.5,-69 537.5,-69 "/>
<text text-anchor="start" x="280.5" y="-57.8" font-family="Arial" font-size="8.00"># UpdateMouse (GameTime time)</text>
<text text-anchor="start" x="280.5" y="-47.8" font-family="Arial" font-size="8.00">+ KnotInputHandler (GameScreen screen, World world)</text>
<text text-anchor="start" x="280.5" y="-37.8" font-family="Arial" font-size="8.00">+ OnKeyEvent (List&lt;Keys&gt; key, KeyEvent keyEvent, GameTime time)</text>
<text text-anchor="start" x="280.5" y="-27.8" font-family="Arial" font-size="8.00">&#45; ResetMousePosition ()</text>
<text text-anchor="start" x="280.5" y="-17.8" font-family="Arial" font-size="8.00"># UpdateKeys (GameTime time)</text>
<text text-anchor="start" x="280.5" y="-7.8" font-family="Arial" font-size="8.00">+ Update (GameTime time)</text>
</g>
<!-- Box_GameScreenComponent -->
<g id="node2" class="node"><title>Box_GameScreenComponent</title>
<polygon fill="#fcfcda" stroke="black" points="92.5,-183 92.5,-257 409.5,-257 409.5,-183 92.5,-183"/>
<text text-anchor="middle" x="251" y="-245.8" font-family="Arial" font-size="8.00">GameScreenComponent</text>
<polyline fill="none" stroke="black" points="92.5,-239 409.5,-239 "/>
<text text-anchor="start" x="100.5" y="-227.8" font-family="Arial" font-size="8.00">+ Index : DisplayLayer</text>
<text text-anchor="start" x="100.5" y="-217.8" font-family="Arial" font-size="8.00">+ screen : GameScreen</text>
<polyline fill="none" stroke="black" points="92.5,-211 409.5,-211 "/>
<text text-anchor="start" x="100.5" y="-199.8" font-family="Arial" font-size="8.00">+ GameScreenComponent (GameScreen screen, DisplayLayer index)</text>
<text text-anchor="start" x="100.5" y="-189.8" font-family="Arial" font-size="8.00">+ SubComponents (GameTime time) : IEnumerable&lt;IGameScreenComponent&gt; virtual</text>
</g>
<!-- Box_GameScreenComponent&#45;&gt;Box_KnotInputHandler -->
<g id="edge2" class="edge"><title>Box_GameScreenComponent&#45;&gt;Box_KnotInputHandler</title>
<path fill="none" stroke="midnightblue" d="M297.141,-175.956C307.369,-166.194 318.467,-155.6 329.523,-145.047"/>
<polygon fill="none" stroke="midnightblue" points="294.678,-173.469 289.861,-182.906 299.511,-178.533 294.678,-173.469"/>
</g>
<!-- Box_IGameScreenComponent -->
<g id="node3" class="node"><title>Box_IGameScreenComponent</title>
<polygon fill="#dafcda" stroke="black" points="-0.5,-295 -0.5,-349 292.5,-349 292.5,-295 -0.5,-295"/>
<text text-anchor="middle" x="146" y="-337.8" font-family="Arial" font-size="8.00">IGameScreenComponent</text>
<polyline fill="none" stroke="black" points="-0.5,-331 292.5,-331 "/>
<text text-anchor="start" x="7.5" y="-319.8" font-family="Arial" font-size="8.00">+ Index : DisplayLayer</text>
<polyline fill="none" stroke="black" points="-0.5,-313 292.5,-313 "/>
<text text-anchor="start" x="7.5" y="-301.8" font-family="Arial" font-size="8.00">+ SubComponents (GameTime time) : IEnumerable&lt;IGameScreenComponent&gt;</text>
</g>
<!-- Box_IGameScreenComponent&#45;&gt;Box_GameScreenComponent -->
<g id="edge8" class="edge"><title>Box_IGameScreenComponent&#45;&gt;Box_GameScreenComponent</title>
<path fill="none" stroke="midnightblue" d="M181.065,-287.937C191.229,-278.063 202.378,-267.233 212.728,-257.178"/>
<polygon fill="none" stroke="midnightblue" points="178.596,-285.455 173.862,-294.934 183.474,-290.476 178.596,-285.455"/>
</g>
<!-- Box_IKeyEventListener -->
<g id="node4" class="node"><title>Box_IKeyEventListener</title>
<polygon fill="#dafcda" stroke="black" points="426.5,-183 426.5,-257 691.5,-257 691.5,-183 426.5,-183"/>
<text text-anchor="middle" x="559" y="-245.8" font-family="Arial" font-size="8.00">IKeyEventListener</text>
<polyline fill="none" stroke="black" points="426.5,-239 691.5,-239 "/>
<text text-anchor="start" x="434.5" y="-227.8" font-family="Arial" font-size="8.00">+ ValidKeys : List&lt;Keys&gt;</text>
<text text-anchor="start" x="434.5" y="-217.8" font-family="Arial" font-size="8.00">+ Index : DisplayLayer</text>
<text text-anchor="start" x="434.5" y="-207.8" font-family="Arial" font-size="8.00">+ IsKeyEventEnabled : bool</text>
<polyline fill="none" stroke="black" points="426.5,-201 691.5,-201 "/>
<text text-anchor="start" x="434.5" y="-189.8" font-family="Arial" font-size="8.00">+ OnKeyEvent (List&lt;Keys&gt; key, KeyEvent keyEvent, GameTime time)</text>
</g>
<!-- Box_IKeyEventListener&#45;&gt;Box_KnotInputHandler -->
<g id="edge4" class="edge"><title>Box_IKeyEventListener&#45;&gt;Box_KnotInputHandler</title>
<path fill="none" stroke="midnightblue" d="M512.859,-175.956C502.631,-166.194 491.533,-155.6 480.477,-145.047"/>
<polygon fill="none" stroke="midnightblue" points="510.489,-178.533 520.139,-182.906 515.322,-173.469 510.489,-178.533"/>
</g>
<!-- Box_XnaGameComponent -->
<g id="node5" class="node"><title>Box_XnaGameComponent</title>
<polygon fill="#ffffff" stroke="black" points="309.5,-313 309.5,-331 404.5,-331 404.5,-313 309.5,-313"/>
<text text-anchor="middle" x="357" y="-319.8" font-family="Arial" font-size="8.00">Xna.GameComponent</text>
</g>
<!-- Box_XnaGameComponent&#45;&gt;Box_GameScreenComponent -->
<g id="edge6" class="edge"><title>Box_XnaGameComponent&#45;&gt;Box_GameScreenComponent</title>
<path fill="none" stroke="midnightblue" d="M340.37,-305.998C326.786,-292.926 307.044,-273.929 289.568,-257.113"/>
<polygon fill="none" stroke="midnightblue" points="337.961,-308.536 347.593,-312.948 342.814,-303.492 337.961,-308.536"/>
</g>
<!-- Box_XnaIGameComponent -->
<g id="node6" class="node"><title>Box_XnaIGameComponent</title>
<polygon fill="#ffffff" stroke="black" points="98,-387 98,-405 194,-405 194,-387 98,-387"/>
<text text-anchor="middle" x="146" y="-393.8" font-family="Arial" font-size="8.00">Xna.IGameComponent</text>
</g>
<!-- Box_XnaIGameComponent&#45;&gt;Box_IGameScreenComponent -->
<g id="edge10" class="edge"><title>Box_XnaIGameComponent&#45;&gt;Box_IGameScreenComponent</title>
<path fill="none" stroke="midnightblue" d="M146,-376.64C146,-368.2 146,-358.16 146,-349.004"/>
<polygon fill="none" stroke="midnightblue" points="142.5,-376.926 146,-386.926 149.5,-376.926 142.5,-376.926"/>
</g>
</g>
</svg>
