<?xml version="1.0" encoding="UTF-8" standalone="no"?>
<!DOCTYPE svg PUBLIC "-//W3C//DTD SVG 1.1//EN"
 "http://www.w3.org/Graphics/SVG/1.1/DTD/svg11.dtd">
<!-- Generated by graphviz version 2.26.3 (20100126.1600)
 -->
<!-- Title: MenuItem Pages: 1 -->
<svg width="362pt" height="646pt"
 viewBox="0.00 0.00 362.00 646.00" xmlns="http://www.w3.org/2000/svg" xmlns:xlink="http://www.w3.org/1999/xlink">
<g id="graph1" class="graph" transform="scale(1 1) rotate(0) translate(4 642)">
<title>MenuItem</title>
<polygon fill="white" stroke="white" points="-4,5 -4,-642 359,-642 359,5 -4,5"/>
<!-- Box_CreativeLoadScreen -->
<g id="node1" class="node"><title>Box_CreativeLoadScreen</title>
<polygon fill="#fcfcda" stroke="black" points="93,-1 93,-155 261,-155 261,-1 93,-1"/>
<text text-anchor="middle" x="177" y="-143.8" font-family="Arial" font-size="8.00">CreativeLoadScreen</text>
<polyline fill="none" stroke="black" points="93,-137 261,-137 "/>
<text text-anchor="start" x="101" y="-125.8" font-family="Arial" font-size="8.00">&#45; fileIndex : FileIndex</text>
<text text-anchor="start" x="101" y="-115.8" font-family="Arial" font-size="8.00">&#45; fileFormat : IKnotIO</text>
<text text-anchor="start" x="101" y="-105.8" font-family="Arial" font-size="8.00">&#45; spriteBatch : SpriteBatch</text>
<text text-anchor="start" x="101" y="-95.8" font-family="Arial" font-size="8.00">&#45; menu : VerticalMenu</text>
<polyline fill="none" stroke="black" points="93,-89 261,-89 "/>
<text text-anchor="start" x="101" y="-77.8" font-family="Arial" font-size="8.00">&#45; AddDefaultKnots ()</text>
<text text-anchor="start" x="101" y="-67.8" font-family="Arial" font-size="8.00">+ CreativeLoadScreen (Core.Game game)</text>
<text text-anchor="start" x="101" y="-57.8" font-family="Arial" font-size="8.00">+ Activate (GameTime time)</text>
<text text-anchor="start" x="101" y="-47.8" font-family="Arial" font-size="8.00">+ DrawMenu (GameTime time)</text>
<text text-anchor="start" x="101" y="-37.8" font-family="Arial" font-size="8.00">&#45; AddFileToList (string filename)</text>
<text text-anchor="start" x="101" y="-27.8" font-family="Arial" font-size="8.00">&#45; UpdateFiles ()</text>
<text text-anchor="start" x="101" y="-17.8" font-family="Arial" font-size="8.00">+ Initialize ()</text>
<text text-anchor="start" x="101" y="-7.8" font-family="Arial" font-size="8.00">+ UpdateMenu (GameTime time)</text>
</g>
<!-- Box_MenuScreen -->
<g id="node2" class="node"><title>Box_MenuScreen</title>
<polygon fill="#fcfcda" stroke="black" points="83,-193 83,-377 271,-377 271,-193 83,-193"/>
<text text-anchor="middle" x="177" y="-365.8" font-family="Arial" font-size="8.00">MenuScreen</text>
<polyline fill="none" stroke="black" points="83,-359 271,-359 "/>
<text text-anchor="start" x="91" y="-347.8" font-family="Arial" font-size="8.00">&#45; backColor : Color</text>
<text text-anchor="start" x="91" y="-337.8" font-family="Arial" font-size="8.00">&#45; pointer : MousePointer</text>
<text text-anchor="start" x="91" y="-327.8" font-family="Arial" font-size="8.00"># LinePoints : List&lt;Vector2&gt;</text>
<text text-anchor="start" x="91" y="-317.8" font-family="Arial" font-size="8.00"># LineWidth : int</text>
<text text-anchor="start" x="91" y="-307.8" font-family="Arial" font-size="8.00">&#45; spriteBatch : SpriteBatch</text>
<polyline fill="none" stroke="black" points="83,-301 271,-301 "/>
<text text-anchor="start" x="91" y="-289.8" font-family="Arial" font-size="8.00">+ MenuScreen (Core.Game game)</text>
<text text-anchor="start" x="91" y="-279.8" font-family="Arial" font-size="8.00">+ Activate (GameTime time)</text>
<text text-anchor="start" x="91" y="-269.8" font-family="Arial" font-size="8.00">+ Draw (GameTime time)</text>
<text text-anchor="start" x="91" y="-259.8" font-family="Arial" font-size="8.00"># BackgroundColor (ItemState itemState) : Color</text>
<text text-anchor="start" x="91" y="-249.8" font-family="Arial" font-size="8.00"># ForegroundColor (ItemState itemState) : Color</text>
<text text-anchor="start" x="91" y="-239.8" font-family="Arial" font-size="8.00">+ DrawMenu (GameTime time) abstract</text>
<text text-anchor="start" x="91" y="-229.8" font-family="Arial" font-size="8.00">+ UpdateMenu (GameTime time) abstract</text>
<text text-anchor="start" x="91" y="-219.8" font-family="Arial" font-size="8.00">+ Initialize ()</text>
<text text-anchor="start" x="91" y="-209.8" font-family="Arial" font-size="8.00">+ Unload ()</text>
<text text-anchor="start" x="91" y="-199.8" font-family="Arial" font-size="8.00">+ Update (GameTime time)</text>
</g>
<!-- Box_MenuScreen&#45;&gt;Box_CreativeLoadScreen -->
<g id="edge2" class="edge"><title>Box_MenuScreen&#45;&gt;Box_CreativeLoadScreen</title>
<path fill="none" stroke="midnightblue" d="M177,-182.406C177,-173.272 177,-164.129 177,-155.261"/>
<polygon fill="none" stroke="midnightblue" points="173.5,-182.7 177,-192.7 180.5,-182.7 173.5,-182.7"/>
</g>
<!-- Box_GameScreen -->
<g id="node3" class="node"><title>Box_GameScreen</title>
<polygon fill="#fcfcda" stroke="black" points="-0.5,-414.5 -0.5,-637.5 354.5,-637.5 354.5,-414.5 -0.5,-414.5"/>
<text text-anchor="middle" x="177" y="-626.3" font-family="Arial" font-size="8.00">GameScreen</text>
<polyline fill="none" stroke="black" points="-0.5,-619.5 354.5,-619.5 "/>
<text text-anchor="start" x="7.5" y="-608.3" font-family="Arial" font-size="8.00">+ content : ContentManager</text>
<text text-anchor="start" x="7.5" y="-598.3" font-family="Arial" font-size="8.00">+ NextState : GameScreen</text>
<text text-anchor="start" x="7.5" y="-588.3" font-family="Arial" font-size="8.00">+ device : GraphicsDevice</text>
<text text-anchor="start" x="7.5" y="-578.3" font-family="Arial" font-size="8.00">+ RenderEffects : RenderEffectStack</text>
<text text-anchor="start" x="7.5" y="-568.3" font-family="Arial" font-size="8.00">+ viewport : Viewport</text>
<text text-anchor="start" x="7.5" y="-558.3" font-family="Arial" font-size="8.00">+ game : Game</text>
<text text-anchor="start" x="7.5" y="-548.3" font-family="Arial" font-size="8.00">+ graphics : GraphicsDeviceManager</text>
<text text-anchor="start" x="7.5" y="-538.3" font-family="Arial" font-size="8.00">+ input : InputManager</text>
<text text-anchor="start" x="7.5" y="-528.3" font-family="Arial" font-size="8.00">+ PostProcessing : RenderEffect</text>
<polyline fill="none" stroke="black" points="-0.5,-521.5 354.5,-521.5 "/>
<text text-anchor="start" x="7.5" y="-510.3" font-family="Arial" font-size="8.00">+ Draw (GameTime time) abstract</text>
<text text-anchor="start" x="7.5" y="-500.3" font-family="Arial" font-size="8.00">+ Initialize () abstract</text>
<text text-anchor="start" x="7.5" y="-490.3" font-family="Arial" font-size="8.00">+ Unload () abstract</text>
<text text-anchor="start" x="7.5" y="-480.3" font-family="Arial" font-size="8.00">+ Activate (GameTime time) virtual</text>
<text text-anchor="start" x="7.5" y="-470.3" font-family="Arial" font-size="8.00">+ GameScreen (Game game)</text>
<text text-anchor="start" x="7.5" y="-460.3" font-family="Arial" font-size="8.00">+ Update (GameTime time) abstract</text>
<text text-anchor="start" x="7.5" y="-450.3" font-family="Arial" font-size="8.00">+ Deactivate (GameTime time) virtual</text>
<text text-anchor="start" x="7.5" y="-440.3" font-family="Arial" font-size="8.00">+ AddGameComponents (GameTime time, params IGameScreenComponent[] components)</text>
<text text-anchor="start" x="7.5" y="-430.3" font-family="Arial" font-size="8.00">+ RemoveGameComponents (GameTime time, params IGameScreenComponent[] components)</text>
</g>
<!-- Box_GameScreen&#45;&gt;Box_MenuScreen -->
<g id="edge4" class="edge"><title>Box_GameScreen&#45;&gt;Box_MenuScreen</title>
<path fill="none" stroke="midnightblue" d="M177,-404.1C177,-395.044 177,-385.998 177,-377.167"/>
<polygon fill="none" stroke="midnightblue" points="173.5,-404.319 177,-414.319 180.5,-404.319 173.5,-404.319"/>
</g>
</g>
</svg>
