<?xml version="1.0" encoding="UTF-8" standalone="no"?>
<!DOCTYPE svg PUBLIC "-//W3C//DTD SVG 1.1//EN"
 "http://www.w3.org/Graphics/SVG/1.1/DTD/svg11.dtd">
<!-- Generated by graphviz version 2.26.3 (20100126.1600)
 -->
<!-- Title: MenuItem Pages: 1 -->
<svg width="618pt" height="216pt"
 viewBox="0.00 0.00 618.00 216.00" xmlns="http://www.w3.org/2000/svg" xmlns:xlink="http://www.w3.org/1999/xlink">
<g id="graph1" class="graph" transform="scale(1 1) rotate(0) translate(4 212)">
<title>MenuItem</title>
<polygon fill="white" stroke="white" points="-4,5 -4,-212 615,-212 615,5 -4,5"/>
<!-- Box_ModelFactory -->
<g id="node1" class="node"><title>Box_ModelFactory</title>
<polygon fill="#fcfcda" stroke="black" points="157,-111 157,-207 453,-207 453,-111 157,-111"/>
<text text-anchor="middle" x="305" y="-195.8" font-family="Helvetica,sans-Serif" font-size="8.00">ModelFactory</text>
<polyline fill="none" stroke="black" points="157,-187 453,-187 "/>
<text text-anchor="start" x="165" y="-175.8" font-family="Helvetica,sans-Serif" font-size="8.00">Attributes:</text>
<text text-anchor="start" x="165" y="-163.8" font-family="Helvetica,sans-Serif" font-size="8.00">&#45; GameModel&gt; cache : Dictionary&lt;GameModelInfo, new</text>
<text text-anchor="start" x="165" y="-151.8" font-family="Helvetica,sans-Serif" font-size="8.00">+ this [GameState state, GameModelInfo info] : GameModel</text>
<text text-anchor="start" x="165" y="-139.8" font-family="Helvetica,sans-Serif" font-size="8.00">Methods:</text>
<polyline fill="none" stroke="black" points="157,-131 453,-131 "/>
<text text-anchor="start" x="165" y="-119.8" font-family="Helvetica,sans-Serif" font-size="8.00"># CreateModel (GameState state, GameModelInfo info) : GameModel abstract</text>
</g>
<!-- Box_NodeModelFactory -->
<g id="node2" class="node"><title>Box_NodeModelFactory</title>
<polygon fill="#fcfcda" stroke="black" points="0,-1 0,-73 296,-73 296,-1 0,-1"/>
<text text-anchor="middle" x="148" y="-61.8" font-family="Helvetica,sans-Serif" font-size="8.00">NodeModelFactory</text>
<polyline fill="none" stroke="black" points="0,-53 296,-53 "/>
<text text-anchor="start" x="8" y="-41.8" font-family="Helvetica,sans-Serif" font-size="8.00">Attributes:</text>
<text text-anchor="start" x="8" y="-29.8" font-family="Helvetica,sans-Serif" font-size="8.00">Methods:</text>
<polyline fill="none" stroke="black" points="0,-21 296,-21 "/>
<text text-anchor="start" x="8" y="-9.8" font-family="Helvetica,sans-Serif" font-size="8.00"># CreateModel (GameState state, GameModelInfo info) : GameModel override</text>
</g>
<!-- Box_ModelFactory&#45;&gt;Box_NodeModelFactory -->
<g id="edge2" class="edge"><title>Box_ModelFactory&#45;&gt;Box_NodeModelFactory</title>
<path fill="none" stroke="midnightblue" d="M234.953,-104.569C221.282,-93.9455 207.266,-83.0535 194.587,-73.2016"/>
<polygon fill="none" stroke="midnightblue" points="232.906,-107.41 242.949,-110.782 237.201,-101.883 232.906,-107.41"/>
</g>
<!-- Box_PipeModelFactory -->
<g id="node3" class="node"><title>Box_PipeModelFactory</title>
<polygon fill="#fcfcda" stroke="black" points="314,-1 314,-73 610,-73 610,-1 314,-1"/>
<text text-anchor="middle" x="462" y="-61.8" font-family="Helvetica,sans-Serif" font-size="8.00">PipeModelFactory</text>
<polyline fill="none" stroke="black" points="314,-53 610,-53 "/>
<text text-anchor="start" x="322" y="-41.8" font-family="Helvetica,sans-Serif" font-size="8.00">Attributes:</text>
<text text-anchor="start" x="322" y="-29.8" font-family="Helvetica,sans-Serif" font-size="8.00">Methods:</text>
<polyline fill="none" stroke="black" points="314,-21 610,-21 "/>
<text text-anchor="start" x="322" y="-9.8" font-family="Helvetica,sans-Serif" font-size="8.00"># CreateModel (GameState state, GameModelInfo info) : GameModel override</text>
</g>
<!-- Box_ModelFactory&#45;&gt;Box_PipeModelFactory -->
<g id="edge4" class="edge"><title>Box_ModelFactory&#45;&gt;Box_PipeModelFactory</title>
<path fill="none" stroke="midnightblue" d="M375.047,-104.569C388.718,-93.9455 402.734,-83.0535 415.413,-73.2016"/>
<polygon fill="none" stroke="midnightblue" points="372.799,-101.883 367.051,-110.782 377.094,-107.41 372.799,-101.883"/>
</g>
</g>
</svg>
