<?xml version="1.0" encoding="UTF-8" standalone="no"?>
<!DOCTYPE svg PUBLIC "-//W3C//DTD SVG 1.1//EN"
 "http://www.w3.org/Graphics/SVG/1.1/DTD/svg11.dtd">
<!-- Generated by graphviz version 2.26.3 (20100126.1600)
 -->
<!-- Title: MenuItem Pages: 1 -->
<svg width="430pt" height="422pt"
 viewBox="0.00 0.00 430.00 422.00" xmlns="http://www.w3.org/2000/svg" xmlns:xlink="http://www.w3.org/1999/xlink">
<g id="graph1" class="graph" transform="scale(1 1) rotate(0) translate(4 418)">
<title>MenuItem</title>
<polygon fill="white" stroke="white" points="-4,5 -4,-418 427,-418 427,5 -4,5"/>
<!-- Box_OptionInfo -->
<g id="node1" class="node"><title>Box_OptionInfo</title>
<polygon fill="#fcfcda" stroke="black" points="48,-269 48,-413 374,-413 374,-269 48,-269"/>
<text text-anchor="middle" x="211" y="-401.8" font-family="Helvetica,sans-Serif" font-size="8.00">OptionInfo</text>
<polyline fill="none" stroke="black" points="48,-393 374,-393 "/>
<text text-anchor="start" x="56" y="-381.8" font-family="Helvetica,sans-Serif" font-size="8.00">Attributes:</text>
<text text-anchor="start" x="56" y="-369.8" font-family="Helvetica,sans-Serif" font-size="8.00">&#45; ConfigFile : ConfigFile</text>
<text text-anchor="start" x="56" y="-357.8" font-family="Helvetica,sans-Serif" font-size="8.00">+ OnChange : Action&lt;string&gt;</text>
<text text-anchor="start" x="56" y="-345.8" font-family="Helvetica,sans-Serif" font-size="8.00">+ DefaultValue : string</text>
<text text-anchor="start" x="56" y="-333.8" font-family="Helvetica,sans-Serif" font-size="8.00">+ Name : string</text>
<text text-anchor="start" x="56" y="-321.8" font-family="Helvetica,sans-Serif" font-size="8.00">+ Section : string</text>
<text text-anchor="start" x="56" y="-309.8" font-family="Helvetica,sans-Serif" font-size="8.00">+ Value : string virtual</text>
<text text-anchor="start" x="56" y="-297.8" font-family="Helvetica,sans-Serif" font-size="8.00">Methods:</text>
<polyline fill="none" stroke="black" points="48,-289 374,-289 "/>
<text text-anchor="start" x="56" y="-277.8" font-family="Helvetica,sans-Serif" font-size="8.00">+ OptionInfo (string section, string name, string defaultValue, Action&lt;string&gt; onChange)</text>
</g>
<!-- Box_DistinctOptionInfo -->
<g id="node2" class="node"><title>Box_DistinctOptionInfo</title>
<polygon fill="#fcfcda" stroke="black" points="0,-135 0,-231 422,-231 422,-135 0,-135"/>
<text text-anchor="middle" x="211" y="-219.8" font-family="Helvetica,sans-Serif" font-size="8.00">DistinctOptionInfo</text>
<polyline fill="none" stroke="black" points="0,-211 422,-211 "/>
<text text-anchor="start" x="8" y="-199.8" font-family="Helvetica,sans-Serif" font-size="8.00">Attributes:</text>
<text text-anchor="start" x="8" y="-187.8" font-family="Helvetica,sans-Serif" font-size="8.00">+ ValidValues : HashSet&lt;string&gt;</text>
<text text-anchor="start" x="8" y="-175.8" font-family="Helvetica,sans-Serif" font-size="8.00">+ Value : string</text>
<text text-anchor="start" x="8" y="-163.8" font-family="Helvetica,sans-Serif" font-size="8.00">Methods:</text>
<polyline fill="none" stroke="black" points="0,-155 422,-155 "/>
<text text-anchor="start" x="8" y="-143.8" font-family="Helvetica,sans-Serif" font-size="8.00">+ DistinctOptionInfo (string section, string name, string defaultValue, string[] validValues, Action&lt;string&gt; onChange)</text>
</g>
<!-- Box_OptionInfo&#45;&gt;Box_DistinctOptionInfo -->
<g id="edge2" class="edge"><title>Box_OptionInfo&#45;&gt;Box_DistinctOptionInfo</title>
<path fill="none" stroke="midnightblue" d="M204.255,-258.792C204.284,-249.442 204.439,-240.153 204.72,-231.449"/>
<polygon fill="none" stroke="midnightblue" points="200.755,-258.942 204.273,-268.935 207.755,-258.929 200.755,-258.942"/>
</g>
<!-- Box_OptionInfo&#45;&gt;Box_DistinctOptionInfo -->
<g id="edge8" class="edge"><title>Box_OptionInfo&#45;&gt;Box_DistinctOptionInfo</title>
<path fill="none" stroke="midnightblue" d="M217.745,-258.792C217.716,-249.442 217.561,-240.153 217.28,-231.449"/>
<polygon fill="none" stroke="midnightblue" points="214.245,-258.929 217.727,-268.935 221.245,-258.942 214.245,-258.929"/>
</g>
<!-- Box_BooleanOptionInfo -->
<g id="node3" class="node"><title>Box_BooleanOptionInfo</title>
<polygon fill="#fcfcda" stroke="black" points="37.5,-1 37.5,-97 384.5,-97 384.5,-1 37.5,-1"/>
<text text-anchor="middle" x="211" y="-85.8" font-family="Helvetica,sans-Serif" font-size="8.00">BooleanOptionInfo</text>
<polyline fill="none" stroke="black" points="37.5,-77 384.5,-77 "/>
<text text-anchor="start" x="45.5" y="-65.8" font-family="Helvetica,sans-Serif" font-size="8.00">Attributes:</text>
<text text-anchor="start" x="45.5" y="-53.8" font-family="Helvetica,sans-Serif" font-size="8.00">+ BoolValue : bool</text>
<text text-anchor="start" x="45.5" y="-41.8" font-family="Helvetica,sans-Serif" font-size="8.00">+ ValidValues : string[] static</text>
<text text-anchor="start" x="45.5" y="-29.8" font-family="Helvetica,sans-Serif" font-size="8.00">Methods:</text>
<polyline fill="none" stroke="black" points="37.5,-21 384.5,-21 "/>
<text text-anchor="start" x="45.5" y="-9.8" font-family="Helvetica,sans-Serif" font-size="8.00">+ BooleanOptionInfo (string section, string name, bool defaultValue, Action&lt;bool&gt; onChange)</text>
</g>
<!-- Box_DistinctOptionInfo&#45;&gt;Box_BooleanOptionInfo -->
<g id="edge4" class="edge"><title>Box_DistinctOptionInfo&#45;&gt;Box_BooleanOptionInfo</title>
<path fill="none" stroke="midnightblue" d="M190.895,-124.498C190.583,-115.418 190.774,-106.127 191.467,-97.3061"/>
<polygon fill="none" stroke="midnightblue" points="187.409,-124.834 191.462,-134.623 194.398,-124.443 187.409,-124.834"/>
</g>
<!-- Box_DistinctOptionInfo&#45;&gt;Box_BooleanOptionInfo -->
<g id="edge6" class="edge"><title>Box_DistinctOptionInfo&#45;&gt;Box_BooleanOptionInfo</title>
<path fill="none" stroke="midnightblue" d="M204.298,-124.498C204.194,-115.418 204.258,-106.127 204.489,-97.3061"/>
<polygon fill="none" stroke="midnightblue" points="200.801,-124.69 204.487,-134.623 207.8,-124.559 200.801,-124.69"/>
</g>
<!-- Box_DistinctOptionInfo&#45;&gt;Box_BooleanOptionInfo -->
<g id="edge10" class="edge"><title>Box_DistinctOptionInfo&#45;&gt;Box_BooleanOptionInfo</title>
<path fill="none" stroke="midnightblue" d="M217.702,-124.498C217.806,-115.418 217.742,-106.127 217.511,-97.3061"/>
<polygon fill="none" stroke="midnightblue" points="214.2,-124.559 217.513,-134.623 221.199,-124.69 214.2,-124.559"/>
</g>
<!-- Box_DistinctOptionInfo&#45;&gt;Box_BooleanOptionInfo -->
<g id="edge12" class="edge"><title>Box_DistinctOptionInfo&#45;&gt;Box_BooleanOptionInfo</title>
<path fill="none" stroke="midnightblue" d="M231.105,-124.498C231.417,-115.418 231.226,-106.127 230.533,-97.3061"/>
<polygon fill="none" stroke="midnightblue" points="227.602,-124.443 230.538,-134.623 234.591,-124.834 227.602,-124.443"/>
</g>
</g>
</svg>
