<?xml version="1.0" encoding="UTF-8" standalone="no"?>
<!DOCTYPE svg PUBLIC "-//W3C//DTD SVG 1.1//EN"
 "http://www.w3.org/Graphics/SVG/1.1/DTD/svg11.dtd">
<!-- Generated by graphviz version 2.26.3 (20100126.1600)
 -->
<!-- Title: MenuItem Pages: 1 -->
<svg width="1275pt" height="2075pt"
 viewBox="0.00 0.00 306.00 498.00" xmlns="http://www.w3.org/2000/svg" xmlns:xlink="http://www.w3.org/1999/xlink">
<g id="graph1" class="graph" transform="scale(4.16667 4.16667) rotate(0) translate(4 494)">
<title>MenuItem</title>
<polygon fill="white" stroke="white" points="-4,5 -4,-494 303,-494 303,5 -4,5"/>
<!-- Box_CelShadingEffect -->
<g id="node1" class="node"><title>Box_CelShadingEffect</title>
<polygon fill="#fcfcda" stroke="black" points="16,-1 16,-145 282,-145 282,-1 16,-1"/>
<text text-anchor="middle" x="149" y="-133.8" font-family="Arial" font-size="8.00">CelShadingEffect</text>
<polyline fill="none" stroke="black" points="16,-127 282,-127 "/>
<text text-anchor="start" x="24" y="-115.8" font-family="Arial" font-size="8.00">&#45; outlineShader : Effect</text>
<text text-anchor="start" x="24" y="-105.8" font-family="Arial" font-size="8.00">&#45; celMap : Texture2D</text>
<text text-anchor="start" x="24" y="-95.8" font-family="Arial" font-size="8.00">&#45; lightDirection : Vector4</text>
<text text-anchor="start" x="24" y="-85.8" font-family="Arial" font-size="8.00">&#45; outlineThickness : float</text>
<text text-anchor="start" x="24" y="-75.8" font-family="Arial" font-size="8.00">&#45; outlineThreshold : float</text>
<text text-anchor="start" x="24" y="-65.8" font-family="Arial" font-size="8.00">&#45; celShader : Effect</text>
<text text-anchor="start" x="24" y="-55.8" font-family="Arial" font-size="8.00">+ Color : Color</text>
<polyline fill="none" stroke="black" points="16,-49 282,-49 "/>
<text text-anchor="start" x="24" y="-37.8" font-family="Arial" font-size="8.00">+ CelShadingEffect (GameScreen screen)</text>
<text text-anchor="start" x="24" y="-27.8" font-family="Arial" font-size="8.00"># DrawRenderTarget (SpriteBatch spriteBatch, GameTime gameTime)</text>
<text text-anchor="start" x="24" y="-17.8" font-family="Arial" font-size="8.00">+ DrawModel (GameModel model, GameTime gameTime)</text>
<text text-anchor="start" x="24" y="-7.8" font-family="Arial" font-size="8.00">+ RemapModel (Model model)</text>
</g>
<!-- Box_RenderEffect -->
<g id="node2" class="node"><title>Box_RenderEffect</title>
<polygon fill="#fcfcda" stroke="black" points="-0.5,-183 -0.5,-357 298.5,-357 298.5,-183 -0.5,-183"/>
<text text-anchor="middle" x="149" y="-345.8" font-family="Arial" font-size="8.00">RenderEffect</text>
<polyline fill="none" stroke="black" points="-0.5,-339 298.5,-339 "/>
<text text-anchor="start" x="7.5" y="-327.8" font-family="Arial" font-size="8.00">&#45; background : Color</text>
<text text-anchor="start" x="7.5" y="-317.8" font-family="Arial" font-size="8.00">&#45; renderTarget : RenderTargetCache</text>
<text text-anchor="start" x="7.5" y="-307.8" font-family="Arial" font-size="8.00">&#45; spriteBatch : SpriteBatch</text>
<text text-anchor="start" x="7.5" y="-297.8" font-family="Arial" font-size="8.00"># screen : GameScreen</text>
<text text-anchor="start" x="7.5" y="-287.8" font-family="Arial" font-size="8.00">+ RenderTarget : RenderTarget2D</text>
<polyline fill="none" stroke="black" points="-0.5,-281 298.5,-281 "/>
<text text-anchor="start" x="7.5" y="-269.8" font-family="Arial" font-size="8.00"># DrawRenderTarget (SpriteBatch spriteBatch, GameTime gameTime) abstract</text>
<text text-anchor="start" x="7.5" y="-259.8" font-family="Arial" font-size="8.00">+ RenderEffect (GameScreen screen)</text>
<text text-anchor="start" x="7.5" y="-249.8" font-family="Arial" font-size="8.00">+ DrawModel (GameModel model, GameTime gameTime) virtual</text>
<text text-anchor="start" x="7.5" y="-239.8" font-family="Arial" font-size="8.00">+ RemapModel (Model model) virtual</text>
<text text-anchor="start" x="7.5" y="-229.8" font-family="Arial" font-size="8.00">+ Begin (GameTime gameTime)</text>
<text text-anchor="start" x="7.5" y="-219.8" font-family="Arial" font-size="8.00"># ModifyBasicEffect (BasicEffect effect, GameModel model)</text>
<text text-anchor="start" x="7.5" y="-209.8" font-family="Arial" font-size="8.00">+ Begin (Color background, GameTime gameTime) virtual</text>
<text text-anchor="start" x="7.5" y="-199.8" font-family="Arial" font-size="8.00">+ End (GameTime gameTime) virtual</text>
<text text-anchor="start" x="7.5" y="-189.8" font-family="Arial" font-size="8.00">+ DrawLastFrame (GameTime gameTime)</text>
</g>
<!-- Box_RenderEffect&#45;&gt;Box_CelShadingEffect -->
<g id="edge2" class="edge"><title>Box_RenderEffect&#45;&gt;Box_CelShadingEffect</title>
<path fill="none" stroke="midnightblue" d="M149,-172.69C149,-163.416 149,-154.128 149,-145.155"/>
<polygon fill="none" stroke="midnightblue" points="145.5,-172.733 149,-182.733 152.5,-172.733 145.5,-172.733"/>
</g>
<!-- Box_IRenderEffect -->
<g id="node3" class="node"><title>Box_IRenderEffect</title>
<polygon fill="#dafcda" stroke="black" points="40,-395 40,-489 258,-489 258,-395 40,-395"/>
<text text-anchor="middle" x="149" y="-477.8" font-family="Arial" font-size="8.00">IRenderEffect</text>
<polyline fill="none" stroke="black" points="40,-471 258,-471 "/>
<text text-anchor="start" x="48" y="-459.8" font-family="Arial" font-size="8.00">+ RenderTarget : RenderTarget2D</text>
<polyline fill="none" stroke="black" points="40,-453 258,-453 "/>
<text text-anchor="start" x="48" y="-441.8" font-family="Arial" font-size="8.00">+ Begin (GameTime gameTime)</text>
<text text-anchor="start" x="48" y="-431.8" font-family="Arial" font-size="8.00">+ End (GameTime gameTime)</text>
<text text-anchor="start" x="48" y="-421.8" font-family="Arial" font-size="8.00">+ RemapModel (Model model)</text>
<text text-anchor="start" x="48" y="-411.8" font-family="Arial" font-size="8.00">+ DrawModel (GameModel model, GameTime gameTime)</text>
<text text-anchor="start" x="48" y="-401.8" font-family="Arial" font-size="8.00">+ DrawLastFrame (GameTime gameTime)</text>
</g>
<!-- Box_IRenderEffect&#45;&gt;Box_RenderEffect -->
<g id="edge4" class="edge"><title>Box_IRenderEffect&#45;&gt;Box_RenderEffect</title>
<path fill="none" stroke="midnightblue" d="M149,-384.473C149,-375.697 149,-366.474 149,-357.233"/>
<polygon fill="none" stroke="midnightblue" points="145.5,-384.545 149,-394.545 152.5,-384.545 145.5,-384.545"/>
</g>
</g>
</svg>
