<?xml version="1.0" encoding="UTF-8" standalone="no"?>
<!DOCTYPE svg PUBLIC "-//W3C//DTD SVG 1.1//EN"
 "http://www.w3.org/Graphics/SVG/1.1/DTD/svg11.dtd">
<!-- Generated by graphviz version 2.26.3 (20100126.1600)
 -->
<!-- Title: MenuItem Pages: 1 -->
<svg width="631pt" height="554pt"
 viewBox="0.00 0.00 631.00 554.00" xmlns="http://www.w3.org/2000/svg" xmlns:xlink="http://www.w3.org/1999/xlink">
<g id="graph1" class="graph" transform="scale(1 1) rotate(0) translate(4 550)">
<title>MenuItem</title>
<polygon fill="white" stroke="white" points="-4,5 -4,-550 628,-550 628,5 -4,5"/>
<!-- Box_IKeyEventListener -->
<g id="node1" class="node"><title>Box_IKeyEventListener</title>
<polygon fill="#dafcda" stroke="black" points="0,-183 0,-267 286,-267 286,-183 0,-183"/>
<text text-anchor="middle" x="143" y="-255.8" font-family="Helvetica,sans-Serif" font-size="8.00">IKeyEventListener</text>
<polyline fill="none" stroke="black" points="0,-247 286,-247 "/>
<text text-anchor="start" x="8" y="-235.8" font-family="Helvetica,sans-Serif" font-size="8.00">+ ValidKeys : List&lt;Keys&gt;</text>
<text text-anchor="start" x="8" y="-223.8" font-family="Helvetica,sans-Serif" font-size="8.00">+ Index : int</text>
<text text-anchor="start" x="8" y="-211.8" font-family="Helvetica,sans-Serif" font-size="8.00">+ IsKeyEventEnabled : bool</text>
<polyline fill="none" stroke="black" points="0,-203 286,-203 "/>
<text text-anchor="start" x="8" y="-191.8" font-family="Helvetica,sans-Serif" font-size="8.00">+ OnKeyEvent (List&lt;Keys&gt; key, KeyEvent keyEvent, GameTime gameTime)</text>
</g>
<!-- Box_TextInput -->
<g id="node5" class="node"><title>Box_TextInput</title>
<polygon fill="#fcfcda" stroke="black" points="147,-1 147,-145 433,-145 433,-1 147,-1"/>
<text text-anchor="middle" x="290" y="-133.8" font-family="Helvetica,sans-Serif" font-size="8.00">TextInput</text>
<polyline fill="none" stroke="black" points="147,-125 433,-125 "/>
<text text-anchor="start" x="155" y="-113.8" font-family="Helvetica,sans-Serif" font-size="8.00">+ InputText : string</text>
<text text-anchor="start" x="155" y="-101.8" font-family="Helvetica,sans-Serif" font-size="8.00">&#45; font : SpriteFont</text>
<text text-anchor="start" x="155" y="-89.8" font-family="Helvetica,sans-Serif" font-size="8.00"># spriteBatch : SpriteBatch</text>
<text text-anchor="start" x="155" y="-77.8" font-family="Helvetica,sans-Serif" font-size="8.00">+ ValidKeys : List&lt;Keys&gt;</text>
<text text-anchor="start" x="155" y="-65.8" font-family="Helvetica,sans-Serif" font-size="8.00">+ IsKeyEventEnabled : bool</text>
<polyline fill="none" stroke="black" points="147,-57 433,-57 "/>
<text text-anchor="start" x="155" y="-45.8" font-family="Helvetica,sans-Serif" font-size="8.00">+ TextInput (GameState state, WidgetInfo info, DisplayLayer drawOrder)</text>
<text text-anchor="start" x="155" y="-33.8" font-family="Helvetica,sans-Serif" font-size="8.00">+ Update (GameTime gameTime) override</text>
<text text-anchor="start" x="155" y="-21.8" font-family="Helvetica,sans-Serif" font-size="8.00">+ Draw (GameTime gameTime) override</text>
<text text-anchor="start" x="155" y="-9.8" font-family="Helvetica,sans-Serif" font-size="8.00">+ OnKeyEvent (List&lt;Keys&gt; key, KeyEvent keyEvent, GameTime gameTime)</text>
</g>
<!-- Box_IKeyEventListener&#45;&gt;Box_TextInput -->
<g id="edge12" class="edge"><title>Box_IKeyEventListener&#45;&gt;Box_TextInput</title>
<path fill="none" stroke="midnightblue" d="M190.98,-175.388C200.353,-165.696 210.358,-155.351 220.272,-145.1"/>
<polygon fill="none" stroke="midnightblue" points="188.384,-173.038 183.948,-182.66 193.415,-177.904 188.384,-173.038"/>
</g>
<!-- Box_Widget -->
<g id="node2" class="node"><title>Box_Widget</title>
<polygon fill="#fcfcda" stroke="black" points="304,-183 304,-267 570,-267 570,-183 304,-183"/>
<text text-anchor="middle" x="437" y="-255.8" font-family="Helvetica,sans-Serif" font-size="8.00">Widget</text>
<polyline fill="none" stroke="black" points="304,-247 570,-247 "/>
<text text-anchor="start" x="312" y="-235.8" font-family="Helvetica,sans-Serif" font-size="8.00">+ Info : WidgetInfo</text>
<text text-anchor="start" x="312" y="-223.8" font-family="Helvetica,sans-Serif" font-size="8.00">+ IsVisible : bool virtual</text>
<polyline fill="none" stroke="black" points="304,-215 570,-215 "/>
<text text-anchor="start" x="312" y="-203.8" font-family="Helvetica,sans-Serif" font-size="8.00">+ Widget (GameState state, WidgetInfo info, DisplayLayer drawOrder)</text>
<text text-anchor="start" x="312" y="-191.8" font-family="Helvetica,sans-Serif" font-size="8.00">+ bounds () : Rectangle</text>
</g>
<!-- Box_Widget&#45;&gt;Box_TextInput -->
<g id="edge10" class="edge"><title>Box_Widget&#45;&gt;Box_TextInput</title>
<path fill="none" stroke="midnightblue" d="M389.02,-175.388C379.647,-165.696 369.642,-155.351 359.728,-145.1"/>
<polygon fill="none" stroke="midnightblue" points="386.585,-177.904 396.052,-182.66 391.616,-173.038 386.585,-177.904"/>
</g>
<!-- Box_DrawableGameStateComponent -->
<g id="node3" class="node"><title>Box_DrawableGameStateComponent</title>
<polygon fill="#fcfcda" stroke="black" points="266.5,-305 266.5,-389 607.5,-389 607.5,-305 266.5,-305"/>
<text text-anchor="middle" x="437" y="-377.8" font-family="Helvetica,sans-Serif" font-size="8.00">DrawableGameStateComponent</text>
<polyline fill="none" stroke="black" points="266.5,-369 607.5,-369 "/>
<text text-anchor="start" x="274.5" y="-357.8" font-family="Helvetica,sans-Serif" font-size="8.00">+ state : GameState</text>
<text text-anchor="start" x="274.5" y="-345.8" font-family="Helvetica,sans-Serif" font-size="8.00">+ Index : int</text>
<polyline fill="none" stroke="black" points="266.5,-337 607.5,-337 "/>
<text text-anchor="start" x="274.5" y="-325.8" font-family="Helvetica,sans-Serif" font-size="8.00">+ DrawableGameStateComponent (GameState state, DisplayLayer drawOrder)</text>
<text text-anchor="start" x="274.5" y="-313.8" font-family="Helvetica,sans-Serif" font-size="8.00">+ SubComponents (GameTime gameTime) : IEnumerable&lt;IGameStateComponent&gt; virtual</text>
</g>
<!-- Box_DrawableGameStateComponent&#45;&gt;Box_Widget -->
<g id="edge2" class="edge"><title>Box_DrawableGameStateComponent&#45;&gt;Box_Widget</title>
<path fill="none" stroke="midnightblue" d="M437,-294.537C437,-285.423 437,-276.05 437,-267.252"/>
<polygon fill="none" stroke="midnightblue" points="433.5,-294.673 437,-304.673 440.5,-294.673 433.5,-294.673"/>
</g>
<!-- Box_IGameStateComponent -->
<g id="node4" class="node"><title>Box_IGameStateComponent</title>
<polygon fill="#dafcda" stroke="black" points="157,-427 157,-487 475,-487 475,-427 157,-427"/>
<text text-anchor="middle" x="316" y="-475.8" font-family="Helvetica,sans-Serif" font-size="8.00">IGameStateComponent</text>
<polyline fill="none" stroke="black" points="157,-467 475,-467 "/>
<text text-anchor="start" x="165" y="-455.8" font-family="Helvetica,sans-Serif" font-size="8.00">+ Index : int</text>
<polyline fill="none" stroke="black" points="157,-447 475,-447 "/>
<text text-anchor="start" x="165" y="-435.8" font-family="Helvetica,sans-Serif" font-size="8.00">+ SubComponents (GameTime gameTime) : IEnumerable&lt;IGameStateComponent&gt;</text>
</g>
<!-- Box_IGameStateComponent&#45;&gt;Box_DrawableGameStateComponent -->
<g id="edge6" class="edge"><title>Box_IGameStateComponent&#45;&gt;Box_DrawableGameStateComponent</title>
<path fill="none" stroke="midnightblue" d="M356.738,-419.965C367.538,-410.147 379.282,-399.47 390.37,-389.391"/>
<polygon fill="none" stroke="midnightblue" points="354.109,-417.625 349.064,-426.942 358.818,-422.805 354.109,-417.625"/>
</g>
<!-- Box_XnaDrawableGameComponent -->
<g id="node6" class="node"><title>Box_XnaDrawableGameComponent</title>
<polygon fill="#ffffff" stroke="black" points="492.5,-447 492.5,-467 623.5,-467 623.5,-447 492.5,-447"/>
<text text-anchor="middle" x="558" y="-455.8" font-family="Helvetica,sans-Serif" font-size="8.00">Xna.DrawableGameComponent</text>
</g>
<!-- Box_XnaDrawableGameComponent&#45;&gt;Box_DrawableGameStateComponent -->
<g id="edge4" class="edge"><title>Box_XnaDrawableGameComponent&#45;&gt;Box_DrawableGameStateComponent</title>
<path fill="none" stroke="midnightblue" d="M539.298,-439.998C524.412,-426.466 502.923,-406.93 483.479,-389.254"/>
<polygon fill="none" stroke="midnightblue" points="537.08,-442.712 546.833,-446.849 541.788,-437.532 537.08,-442.712"/>
</g>
<!-- Box_XnaIGameComponent -->
<g id="node7" class="node"><title>Box_XnaIGameComponent</title>
<polygon fill="#ffffff" stroke="black" points="266.5,-525 266.5,-545 365.5,-545 365.5,-525 266.5,-525"/>
<text text-anchor="middle" x="316" y="-533.8" font-family="Helvetica,sans-Serif" font-size="8.00">Xna.IGameComponent</text>
</g>
<!-- Box_XnaIGameComponent&#45;&gt;Box_IGameStateComponent -->
<g id="edge8" class="edge"><title>Box_XnaIGameComponent&#45;&gt;Box_IGameStateComponent</title>
<path fill="none" stroke="midnightblue" d="M316,-514.777C316,-506.329 316,-496.337 316,-487.059"/>
<polygon fill="none" stroke="midnightblue" points="312.5,-514.803 316,-524.803 319.5,-514.803 312.5,-514.803"/>
</g>
</g>
</svg>
