<?xml version="1.0" encoding="UTF-8" standalone="no"?>
<!DOCTYPE svg PUBLIC "-//W3C//DTD SVG 1.1//EN"
 "http://www.w3.org/Graphics/SVG/1.1/DTD/svg11.dtd">
<!-- Generated by graphviz version 2.26.3 (20100126.1600)
 -->
<!-- Title: MenuItem Pages: 1 -->
<svg width="1298pt" height="806pt"
 viewBox="0.00 0.00 1298.00 806.00" xmlns="http://www.w3.org/2000/svg" xmlns:xlink="http://www.w3.org/1999/xlink">
<g id="graph1" class="graph" transform="scale(1 1) rotate(0) translate(4 802)">
<title>MenuItem</title>
<polygon fill="white" stroke="white" points="-4,5 -4,-802 1295,-802 1295,5 -4,5"/>
<!-- Box_GameStateComponent -->
<g id="node1" class="node"><title>Box_GameStateComponent</title>
<polygon fill="#fcfcda" stroke="black" points="356.5,-497 356.5,-617 697.5,-617 697.5,-497 356.5,-497"/>
<text text-anchor="middle" x="527" y="-605.8" font-family="Helvetica,sans-Serif" font-size="8.00">GameStateComponent</text>
<polyline fill="none" stroke="black" points="356.5,-597 697.5,-597 "/>
<text text-anchor="start" x="364.5" y="-585.8" font-family="Helvetica,sans-Serif" font-size="8.00">Attributes:</text>
<text text-anchor="start" x="364.5" y="-573.8" font-family="Helvetica,sans-Serif" font-size="8.00"># InputOrder : DisplayLayer</text>
<text text-anchor="start" x="364.5" y="-561.8" font-family="Helvetica,sans-Serif" font-size="8.00">+ state : GameState</text>
<text text-anchor="start" x="364.5" y="-549.8" font-family="Helvetica,sans-Serif" font-size="8.00">+ Index : int</text>
<text text-anchor="start" x="364.5" y="-537.8" font-family="Helvetica,sans-Serif" font-size="8.00">Methods:</text>
<polyline fill="none" stroke="black" points="356.5,-529 697.5,-529 "/>
<text text-anchor="start" x="364.5" y="-517.8" font-family="Helvetica,sans-Serif" font-size="8.00">+ GameStateComponent (GameState state, DisplayLayer inputOrder)</text>
<text text-anchor="start" x="364.5" y="-505.8" font-family="Helvetica,sans-Serif" font-size="8.00">+ SubComponents (GameTime gameTime) : IEnumerable&lt;IGameStateComponent&gt; virtual</text>
</g>
<!-- Box_Camera -->
<g id="node3" class="node"><title>Box_Camera</title>
<polygon fill="#fcfcda" stroke="black" points="358,-111 358,-459 526,-459 526,-111 358,-111"/>
<text text-anchor="middle" x="442" y="-447.8" font-family="Helvetica,sans-Serif" font-size="8.00">Camera</text>
<polyline fill="none" stroke="black" points="358,-439 526,-439 "/>
<text text-anchor="start" x="366" y="-427.8" font-family="Helvetica,sans-Serif" font-size="8.00">Attributes:</text>
<text text-anchor="start" x="366" y="-415.8" font-family="Helvetica,sans-Serif" font-size="8.00">&#45; AutoRotation : Angles3</text>
<text text-anchor="start" x="366" y="-403.8" font-family="Helvetica,sans-Serif" font-size="8.00">&#45; aspectRatio : float</text>
<text text-anchor="start" x="366" y="-391.8" font-family="Helvetica,sans-Serif" font-size="8.00">&#45; farPlane : float</text>
<text text-anchor="start" x="366" y="-379.8" font-family="Helvetica,sans-Serif" font-size="8.00">&#45; nearPlane : float</text>
<text text-anchor="start" x="366" y="-367.8" font-family="Helvetica,sans-Serif" font-size="8.00">+ RotationAngle : Angles3</text>
<text text-anchor="start" x="366" y="-355.8" font-family="Helvetica,sans-Serif" font-size="8.00">+ TargetDirection : Vector3</text>
<text text-anchor="start" x="366" y="-343.8" font-family="Helvetica,sans-Serif" font-size="8.00">+ FoV : float</text>
<text text-anchor="start" x="366" y="-331.8" font-family="Helvetica,sans-Serif" font-size="8.00">&#45; World : World</text>
<text text-anchor="start" x="366" y="-319.8" font-family="Helvetica,sans-Serif" font-size="8.00">&#45; foV : float</text>
<text text-anchor="start" x="366" y="-307.8" font-family="Helvetica,sans-Serif" font-size="8.00">+ ViewFrustum : BoundingFrustum</text>
<text text-anchor="start" x="366" y="-295.8" font-family="Helvetica,sans-Serif" font-size="8.00">+ ProjectionMatrix : Matrix</text>
<text text-anchor="start" x="366" y="-283.8" font-family="Helvetica,sans-Serif" font-size="8.00">+ ViewMatrix : Matrix</text>
<text text-anchor="start" x="366" y="-271.8" font-family="Helvetica,sans-Serif" font-size="8.00">+ WorldMatrix : Matrix</text>
<text text-anchor="start" x="366" y="-259.8" font-family="Helvetica,sans-Serif" font-size="8.00">+ ArcballTarget : Vector3</text>
<text text-anchor="start" x="366" y="-247.8" font-family="Helvetica,sans-Serif" font-size="8.00">+ DefaultPosition : Vector3</text>
<text text-anchor="start" x="366" y="-235.8" font-family="Helvetica,sans-Serif" font-size="8.00">+ Position : Vector3</text>
<text text-anchor="start" x="366" y="-223.8" font-family="Helvetica,sans-Serif" font-size="8.00">+ Target : Vector3</text>
<text text-anchor="start" x="366" y="-211.8" font-family="Helvetica,sans-Serif" font-size="8.00">+ UpVector : Vector3</text>
<text text-anchor="start" x="366" y="-199.8" font-family="Helvetica,sans-Serif" font-size="8.00">+ TargetDistance : float</text>
<text text-anchor="start" x="366" y="-187.8" font-family="Helvetica,sans-Serif" font-size="8.00">Methods:</text>
<polyline fill="none" stroke="black" points="358,-179 526,-179 "/>
<text text-anchor="start" x="366" y="-167.8" font-family="Helvetica,sans-Serif" font-size="8.00">+ Camera (GameState state, World world)</text>
<text text-anchor="start" x="366" y="-155.8" font-family="Helvetica,sans-Serif" font-size="8.00">+ GetMouseRay (Vector2 mouse) : Ray</text>
<text text-anchor="start" x="366" y="-143.8" font-family="Helvetica,sans-Serif" font-size="8.00">&#45; UpdateMatrices (GameTime gameTime)</text>
<text text-anchor="start" x="366" y="-131.8" font-family="Helvetica,sans-Serif" font-size="8.00">&#45; UpdateRotation (GameTime gameTime)</text>
<text text-anchor="start" x="366" y="-119.8" font-family="Helvetica,sans-Serif" font-size="8.00">+ Update (GameTime gameTime)</text>
</g>
<!-- Box_GameStateComponent&#45;&gt;Box_Camera -->
<g id="edge8" class="edge"><title>Box_GameStateComponent&#45;&gt;Box_Camera</title>
<path fill="none" stroke="midnightblue" d="M505.249,-487.397C502.43,-478.377 499.45,-468.84 496.38,-459.016"/>
<polygon fill="none" stroke="midnightblue" points="501.918,-488.471 508.241,-496.972 508.599,-486.383 501.918,-488.471"/>
</g>
<!-- Box_ClickHandler -->
<g id="node4" class="node"><title>Box_ClickHandler</title>
<polygon fill="#fcfcda" stroke="black" points="544,-237 544,-333 682,-333 682,-237 544,-237"/>
<text text-anchor="middle" x="613" y="-321.8" font-family="Helvetica,sans-Serif" font-size="8.00">ClickHandler</text>
<polyline fill="none" stroke="black" points="544,-313 682,-313 "/>
<text text-anchor="start" x="552" y="-301.8" font-family="Helvetica,sans-Serif" font-size="8.00">Attributes:</text>
<text text-anchor="start" x="552" y="-289.8" font-family="Helvetica,sans-Serif" font-size="8.00">&#45; ClickEventComponent : class</text>
<text text-anchor="start" x="552" y="-277.8" font-family="Helvetica,sans-Serif" font-size="8.00">Methods:</text>
<polyline fill="none" stroke="black" points="544,-269 682,-269 "/>
<text text-anchor="start" x="552" y="-257.8" font-family="Helvetica,sans-Serif" font-size="8.00">+ ClickHandler (GameState state)</text>
<text text-anchor="start" x="552" y="-245.8" font-family="Helvetica,sans-Serif" font-size="8.00">+ Update (GameTime gameTime)</text>
</g>
<!-- Box_GameStateComponent&#45;&gt;Box_ClickHandler -->
<g id="edge10" class="edge"><title>Box_GameStateComponent&#45;&gt;Box_ClickHandler</title>
<path fill="none" stroke="midnightblue" d="M549.066,-487.21C564.338,-438.908 584.27,-375.868 597.79,-333.108"/>
<polygon fill="none" stroke="midnightblue" points="545.657,-486.382 545.98,-496.972 552.331,-488.492 545.657,-486.382"/>
</g>
<!-- Box_Input -->
<g id="node5" class="node"><title>Box_Input</title>
<polygon fill="#fcfcda" stroke="black" points="700,-135 700,-435 986,-435 986,-135 700,-135"/>
<text text-anchor="middle" x="843" y="-423.8" font-family="Helvetica,sans-Serif" font-size="8.00">Input</text>
<polyline fill="none" stroke="black" points="700,-415 986,-415 "/>
<text text-anchor="start" x="708" y="-403.8" font-family="Helvetica,sans-Serif" font-size="8.00">Attributes:</text>
<text text-anchor="start" x="708" y="-391.8" font-family="Helvetica,sans-Serif" font-size="8.00">&#45; PreviousClickMouseState : MouseState static</text>
<text text-anchor="start" x="708" y="-379.8" font-family="Helvetica,sans-Serif" font-size="8.00">&#45; LeftButtonClickTimer : double static</text>
<text text-anchor="start" x="708" y="-367.8" font-family="Helvetica,sans-Serif" font-size="8.00">&#45; RightButtonClickTimer : double static</text>
<text text-anchor="start" x="708" y="-355.8" font-family="Helvetica,sans-Serif" font-size="8.00">+ GrabMouseMovement : bool</text>
<text text-anchor="start" x="708" y="-343.8" font-family="Helvetica,sans-Serif" font-size="8.00">+ LeftButton : ClickState static</text>
<text text-anchor="start" x="708" y="-331.8" font-family="Helvetica,sans-Serif" font-size="8.00">+ RightButton : ClickState static</text>
<text text-anchor="start" x="708" y="-319.8" font-family="Helvetica,sans-Serif" font-size="8.00">+ PreviousKeyboardState : KeyboardState static</text>
<text text-anchor="start" x="708" y="-307.8" font-family="Helvetica,sans-Serif" font-size="8.00">+ MouseState : MouseState static</text>
<text text-anchor="start" x="708" y="-295.8" font-family="Helvetica,sans-Serif" font-size="8.00">+ PreviousMouseState : MouseState static</text>
<text text-anchor="start" x="708" y="-283.8" font-family="Helvetica,sans-Serif" font-size="8.00"># FullscreenToggled : bool static</text>
<text text-anchor="start" x="708" y="-271.8" font-family="Helvetica,sans-Serif" font-size="8.00">+ CurrentInputAction : InputAction</text>
<text text-anchor="start" x="708" y="-259.8" font-family="Helvetica,sans-Serif" font-size="8.00">+ ValidKeys : List&lt;Keys&gt;</text>
<text text-anchor="start" x="708" y="-247.8" font-family="Helvetica,sans-Serif" font-size="8.00">+ WASDMode : WASDMode</text>
<text text-anchor="start" x="708" y="-235.8" font-family="Helvetica,sans-Serif" font-size="8.00">+ IsKeyEventEnabled : bool</text>
<text text-anchor="start" x="708" y="-223.8" font-family="Helvetica,sans-Serif" font-size="8.00">+ KeyboardState : KeyboardState static</text>
<text text-anchor="start" x="708" y="-211.8" font-family="Helvetica,sans-Serif" font-size="8.00">Methods:</text>
<polyline fill="none" stroke="black" points="700,-203 986,-203 "/>
<text text-anchor="start" x="708" y="-191.8" font-family="Helvetica,sans-Serif" font-size="8.00"># UpdateMouse (GameTime gameTime) virtual</text>
<text text-anchor="start" x="708" y="-179.8" font-family="Helvetica,sans-Serif" font-size="8.00">+ Update (GameTime gameTime)</text>
<text text-anchor="start" x="708" y="-167.8" font-family="Helvetica,sans-Serif" font-size="8.00">+ OnKeyEvent (List&lt;Keys&gt; key, KeyEvent keyEvent, GameTime gameTime)</text>
<text text-anchor="start" x="708" y="-155.8" font-family="Helvetica,sans-Serif" font-size="8.00"># UpdateKeys (GameTime gameTime) virtual</text>
<text text-anchor="start" x="708" y="-143.8" font-family="Helvetica,sans-Serif" font-size="8.00">+ Input (GameState state)</text>
</g>
<!-- Box_GameStateComponent&#45;&gt;Box_Input -->
<g id="edge12" class="edge"><title>Box_GameStateComponent&#45;&gt;Box_Input</title>
<path fill="none" stroke="midnightblue" d="M648.426,-491.265C663.272,-481.486 677.831,-470.977 691,-460 700.273,-452.27 709.461,-443.949 718.455,-435.28"/>
<polygon fill="none" stroke="midnightblue" points="646.154,-488.566 639.66,-496.937 649.957,-494.443 646.154,-488.566"/>
</g>
<!-- Box_KeyHandler -->
<g id="node7" class="node"><title>Box_KeyHandler</title>
<polygon fill="#fcfcda" stroke="black" points="0,-237 0,-333 138,-333 138,-237 0,-237"/>
<text text-anchor="middle" x="69" y="-321.8" font-family="Helvetica,sans-Serif" font-size="8.00">KeyHandler</text>
<polyline fill="none" stroke="black" points="0,-313 138,-313 "/>
<text text-anchor="start" x="8" y="-301.8" font-family="Helvetica,sans-Serif" font-size="8.00">Attributes:</text>
<text text-anchor="start" x="8" y="-289.8" font-family="Helvetica,sans-Serif" font-size="8.00">&#45; KeyEventComponent : class</text>
<text text-anchor="start" x="8" y="-277.8" font-family="Helvetica,sans-Serif" font-size="8.00">Methods:</text>
<polyline fill="none" stroke="black" points="0,-269 138,-269 "/>
<text text-anchor="start" x="8" y="-257.8" font-family="Helvetica,sans-Serif" font-size="8.00">+ KeyHandler (GameState state)</text>
<text text-anchor="start" x="8" y="-245.8" font-family="Helvetica,sans-Serif" font-size="8.00">+ Update (GameTime gameTime)</text>
</g>
<!-- Box_GameStateComponent&#45;&gt;Box_KeyHandler -->
<g id="edge18" class="edge"><title>Box_GameStateComponent&#45;&gt;Box_KeyHandler</title>
<path fill="none" stroke="midnightblue" d="M346.382,-526.412C264.184,-509.437 178.32,-486.419 147,-460 108.734,-427.722 88.5027,-372.913 78.3263,-333.221"/>
<polygon fill="none" stroke="midnightblue" points="345.887,-529.883 356.384,-528.452 347.286,-523.024 345.887,-529.883"/>
</g>
<!-- Box_MousePicker -->
<g id="node8" class="node"><title>Box_MousePicker</title>
<polygon fill="#fcfcda" stroke="black" points="155.5,-219 155.5,-351 340.5,-351 340.5,-219 155.5,-219"/>
<text text-anchor="middle" x="248" y="-339.8" font-family="Helvetica,sans-Serif" font-size="8.00">MousePicker</text>
<polyline fill="none" stroke="black" points="155.5,-331 340.5,-331 "/>
<text text-anchor="start" x="163.5" y="-319.8" font-family="Helvetica,sans-Serif" font-size="8.00">Attributes:</text>
<text text-anchor="start" x="163.5" y="-307.8" font-family="Helvetica,sans-Serif" font-size="8.00">&#45; lastMousePosition : Vector2</text>
<text text-anchor="start" x="163.5" y="-295.8" font-family="Helvetica,sans-Serif" font-size="8.00">&#45; World : World</text>
<text text-anchor="start" x="163.5" y="-283.8" font-family="Helvetica,sans-Serif" font-size="8.00">&#45; lastRayCheck : double</text>
<text text-anchor="start" x="163.5" y="-271.8" font-family="Helvetica,sans-Serif" font-size="8.00">Methods:</text>
<polyline fill="none" stroke="black" points="155.5,-263 340.5,-263 "/>
<text text-anchor="start" x="163.5" y="-251.8" font-family="Helvetica,sans-Serif" font-size="8.00">+ MousePicker (GameState state, World world)</text>
<text text-anchor="start" x="163.5" y="-239.8" font-family="Helvetica,sans-Serif" font-size="8.00">+ Update (GameTime gameTime)</text>
<text text-anchor="start" x="163.5" y="-227.8" font-family="Helvetica,sans-Serif" font-size="8.00">+ UpdateMouseRay (GameTime gameTime)</text>
</g>
<!-- Box_GameStateComponent&#45;&gt;Box_MousePicker -->
<g id="edge20" class="edge"><title>Box_GameStateComponent&#45;&gt;Box_MousePicker</title>
<path fill="none" stroke="midnightblue" d="M387.531,-491.071C373.734,-481.664 360.577,-471.297 349,-460 317.491,-429.254 292.603,-386.596 275.416,-351.094"/>
<polygon fill="none" stroke="midnightblue" points="385.925,-494.205 396.196,-496.803 389.788,-488.367 385.925,-494.205"/>
</g>
<!-- Box_PipeColoring -->
<g id="node9" class="node"><title>Box_PipeColoring</title>
<polygon fill="#fcfcda" stroke="black" points="1004,-219 1004,-351 1290,-351 1290,-219 1004,-219"/>
<text text-anchor="middle" x="1147" y="-339.8" font-family="Helvetica,sans-Serif" font-size="8.00">PipeColoring</text>
<polyline fill="none" stroke="black" points="1004,-331 1290,-331 "/>
<text text-anchor="start" x="1012" y="-319.8" font-family="Helvetica,sans-Serif" font-size="8.00">Attributes:</text>
<text text-anchor="start" x="1012" y="-307.8" font-family="Helvetica,sans-Serif" font-size="8.00">+ ValidKeys : List&lt;Keys&gt;</text>
<text text-anchor="start" x="1012" y="-295.8" font-family="Helvetica,sans-Serif" font-size="8.00">+ Knot : Knot</text>
<text text-anchor="start" x="1012" y="-283.8" font-family="Helvetica,sans-Serif" font-size="8.00">+ IsKeyEventEnabled : bool</text>
<text text-anchor="start" x="1012" y="-271.8" font-family="Helvetica,sans-Serif" font-size="8.00">Methods:</text>
<polyline fill="none" stroke="black" points="1004,-263 1290,-263 "/>
<text text-anchor="start" x="1012" y="-251.8" font-family="Helvetica,sans-Serif" font-size="8.00">+ OnKeyEvent (List&lt;Keys&gt; key, KeyEvent keyEvent, GameTime gameTime)</text>
<text text-anchor="start" x="1012" y="-239.8" font-family="Helvetica,sans-Serif" font-size="8.00">+ PipeColoring (GameState state)</text>
<text text-anchor="start" x="1012" y="-227.8" font-family="Helvetica,sans-Serif" font-size="8.00">+ Update (GameTime gameTime)</text>
</g>
<!-- Box_GameStateComponent&#45;&gt;Box_PipeColoring -->
<g id="edge22" class="edge"><title>Box_GameStateComponent&#45;&gt;Box_PipeColoring</title>
<path fill="none" stroke="midnightblue" d="M707.542,-531.756C817.7,-514.033 946.396,-488.477 995,-460 1040.14,-433.553 1078.63,-388.839 1105.58,-351.229"/>
<polygon fill="none" stroke="midnightblue" points="706.945,-528.307 697.622,-533.339 708.048,-535.22 706.945,-528.307"/>
</g>
<!-- Box_IGameStateComponent -->
<g id="node2" class="node"><title>Box_IGameStateComponent</title>
<polygon fill="#dafcda" stroke="black" points="256,-655 256,-739 574,-739 574,-655 256,-655"/>
<text text-anchor="middle" x="415" y="-727.8" font-family="Helvetica,sans-Serif" font-size="8.00">IGameStateComponent</text>
<polyline fill="none" stroke="black" points="256,-719 574,-719 "/>
<text text-anchor="start" x="264" y="-707.8" font-family="Helvetica,sans-Serif" font-size="8.00">Attributes:</text>
<text text-anchor="start" x="264" y="-695.8" font-family="Helvetica,sans-Serif" font-size="8.00">+ Index : int</text>
<text text-anchor="start" x="264" y="-683.8" font-family="Helvetica,sans-Serif" font-size="8.00">Methods:</text>
<polyline fill="none" stroke="black" points="256,-675 574,-675 "/>
<text text-anchor="start" x="264" y="-663.8" font-family="Helvetica,sans-Serif" font-size="8.00">+ SubComponents (GameTime gameTime) : IEnumerable&lt;IGameStateComponent&gt;</text>
</g>
<!-- Box_IGameStateComponent&#45;&gt;Box_GameStateComponent -->
<g id="edge4" class="edge"><title>Box_IGameStateComponent&#45;&gt;Box_GameStateComponent</title>
<path fill="none" stroke="midnightblue" d="M454.996,-647.005C462.749,-637.314 470.948,-627.065 478.928,-617.09"/>
<polygon fill="none" stroke="midnightblue" points="452.118,-645 448.604,-654.995 457.584,-649.373 452.118,-645"/>
</g>
<!-- Box_MenuScreenInput -->
<g id="node6" class="node"><title>Box_MenuScreenInput</title>
<polygon fill="#fcfcda" stroke="black" points="765.5,-1 765.5,-73 920.5,-73 920.5,-1 765.5,-1"/>
<text text-anchor="middle" x="843" y="-61.8" font-family="Helvetica,sans-Serif" font-size="8.00">MenuScreenInput</text>
<polyline fill="none" stroke="black" points="765.5,-53 920.5,-53 "/>
<text text-anchor="start" x="773.5" y="-41.8" font-family="Helvetica,sans-Serif" font-size="8.00">Attributes:</text>
<text text-anchor="start" x="773.5" y="-29.8" font-family="Helvetica,sans-Serif" font-size="8.00">Methods:</text>
<polyline fill="none" stroke="black" points="765.5,-21 920.5,-21 "/>
<text text-anchor="start" x="773.5" y="-9.8" font-family="Helvetica,sans-Serif" font-size="8.00">+ MenuScreenInput (GameState state)</text>
</g>
<!-- Box_Input&#45;&gt;Box_MenuScreenInput -->
<g id="edge16" class="edge"><title>Box_Input&#45;&gt;Box_MenuScreenInput</title>
<path fill="none" stroke="midnightblue" d="M843,-124.607C843,-105.58 843,-87.8075 843,-73.3103"/>
<polygon fill="none" stroke="midnightblue" points="839.5,-124.66 843,-134.66 846.5,-124.66 839.5,-124.66"/>
</g>
<!-- Box_XnaGameComponent -->
<g id="node10" class="node"><title>Box_XnaGameComponent</title>
<polygon fill="#ffffff" stroke="black" points="591.5,-687 591.5,-707 688.5,-707 688.5,-687 591.5,-687"/>
<text text-anchor="middle" x="640" y="-695.8" font-family="Helvetica,sans-Serif" font-size="8.00">Xna.GameComponent</text>
</g>
<!-- Box_XnaGameComponent&#45;&gt;Box_GameStateComponent -->
<g id="edge2" class="edge"><title>Box_XnaGameComponent&#45;&gt;Box_GameStateComponent</title>
<path fill="none" stroke="midnightblue" d="M625.529,-679.071C612.811,-663.314 593.556,-639.459 575.432,-617.004"/>
<polygon fill="none" stroke="midnightblue" points="622.869,-681.348 631.873,-686.932 628.316,-676.952 622.869,-681.348"/>
</g>
<!-- Box_XnaIGameComponent -->
<g id="node11" class="node"><title>Box_XnaIGameComponent</title>
<polygon fill="#ffffff" stroke="black" points="365.5,-777 365.5,-797 464.5,-797 464.5,-777 365.5,-777"/>
<text text-anchor="middle" x="415" y="-785.8" font-family="Helvetica,sans-Serif" font-size="8.00">Xna.IGameComponent</text>
</g>
<!-- Box_XnaIGameComponent&#45;&gt;Box_IGameStateComponent -->
<g id="edge6" class="edge"><title>Box_XnaIGameComponent&#45;&gt;Box_IGameStateComponent</title>
<path fill="none" stroke="midnightblue" d="M415,-766.454C415,-758.393 415,-748.828 415,-739.414"/>
<polygon fill="none" stroke="midnightblue" points="411.5,-766.676 415,-776.676 418.5,-766.676 411.5,-766.676"/>
</g>
<!-- Box_IKeyEventListener -->
<g id="node12" class="node"><title>Box_IKeyEventListener</title>
<polygon fill="#ffffff" stroke="black" points="954.5,-547 954.5,-567 1035.5,-567 1035.5,-547 954.5,-547"/>
<text text-anchor="middle" x="995" y="-555.8" font-family="Helvetica,sans-Serif" font-size="8.00">IKeyEventListener</text>
</g>
<!-- Box_IKeyEventListener&#45;&gt;Box_Input -->
<g id="edge14" class="edge"><title>Box_IKeyEventListener&#45;&gt;Box_Input</title>
<path fill="none" stroke="midnightblue" d="M984.53,-538.263C972.054,-515.938 949.983,-476.444 926.929,-435.189"/>
<polygon fill="none" stroke="midnightblue" points="981.476,-539.975 989.41,-546.997 987.587,-536.56 981.476,-539.975"/>
</g>
<!-- Box_IKeyEventListener&#45;&gt;Box_PipeColoring -->
<g id="edge24" class="edge"><title>Box_IKeyEventListener&#45;&gt;Box_PipeColoring</title>
<path fill="none" stroke="midnightblue" d="M1005.61,-538.02C1026.89,-499.935 1075.7,-412.596 1109.99,-351.237"/>
<polygon fill="none" stroke="midnightblue" points="1002.41,-536.56 1000.59,-546.997 1008.52,-539.975 1002.41,-536.56"/>
</g>
</g>
</svg>
