<?xml version="1.0" encoding="UTF-8" standalone="no"?>
<!DOCTYPE svg PUBLIC "-//W3C//DTD SVG 1.1//EN"
 "http://www.w3.org/Graphics/SVG/1.1/DTD/svg11.dtd">
<!-- Generated by graphviz version 2.26.3 (20100126.1600)
 -->
<!-- Title: MenuItem Pages: 1 -->
<svg width="474pt" height="1112pt"
 viewBox="0.00 0.00 474.00 1112.00" xmlns="http://www.w3.org/2000/svg" xmlns:xlink="http://www.w3.org/1999/xlink">
<g id="graph1" class="graph" transform="scale(1 1) rotate(0) translate(4 1108)">
<title>MenuItem</title>
<polygon fill="white" stroke="white" points="-4,5 -4,-1108 471,-1108 471,5 -4,5"/>
<!-- Box_Dialog -->
<g id="node1" class="node"><title>Box_Dialog</title>
<polygon fill="#fcfcda" stroke="black" points="121,-439 121,-631 439,-631 439,-439 121,-439"/>
<text text-anchor="middle" x="280" y="-619.8" font-family="Helvetica,sans-Serif" font-size="8.00">Dialog</text>
<polyline fill="none" stroke="black" points="121,-611 439,-611 "/>
<text text-anchor="start" x="129" y="-599.8" font-family="Helvetica,sans-Serif" font-size="8.00">Attributes:</text>
<text text-anchor="start" x="129" y="-587.8" font-family="Helvetica,sans-Serif" font-size="8.00"># spriteBatch : SpriteBatch</text>
<text text-anchor="start" x="129" y="-575.8" font-family="Helvetica,sans-Serif" font-size="8.00">+ Done : Action</text>
<text text-anchor="start" x="129" y="-563.8" font-family="Helvetica,sans-Serif" font-size="8.00">+ buttons : Menu</text>
<text text-anchor="start" x="129" y="-551.8" font-family="Helvetica,sans-Serif" font-size="8.00">Methods:</text>
<polyline fill="none" stroke="black" points="121,-543 439,-543 "/>
<text text-anchor="start" x="129" y="-531.8" font-family="Helvetica,sans-Serif" font-size="8.00">&#45; ButtonBackgroundColor (ItemState itemState) : Color</text>
<text text-anchor="start" x="129" y="-519.8" font-family="Helvetica,sans-Serif" font-size="8.00"># RelativeButtonSize (int n) : Vector2</text>
<text text-anchor="start" x="129" y="-507.8" font-family="Helvetica,sans-Serif" font-size="8.00">+ Dialog (GameState state, WidgetInfo info, DisplayLayer drawOrder)</text>
<text text-anchor="start" x="129" y="-495.8" font-family="Helvetica,sans-Serif" font-size="8.00">&#45; ButtonForegroundColor (ItemState itemState) : Color</text>
<text text-anchor="start" x="129" y="-483.8" font-family="Helvetica,sans-Serif" font-size="8.00"># RelativeButtonPosition (int n) : Vector2</text>
<text text-anchor="start" x="129" y="-471.8" font-family="Helvetica,sans-Serif" font-size="8.00"># DrawDialog (GameTime gameTime) abstract</text>
<text text-anchor="start" x="129" y="-459.8" font-family="Helvetica,sans-Serif" font-size="8.00">+ SubComponents (GameTime gameTime) : IEnumerable&lt;IGameStateComponent&gt;</text>
<text text-anchor="start" x="129" y="-447.8" font-family="Helvetica,sans-Serif" font-size="8.00">+ Draw (GameTime gameTime)</text>
</g>
<!-- Box_ConfirmDialog -->
<g id="node5" class="node"><title>Box_ConfirmDialog</title>
<polygon fill="#fcfcda" stroke="black" points="134,-269 134,-401 426,-401 426,-269 134,-269"/>
<text text-anchor="middle" x="280" y="-389.8" font-family="Helvetica,sans-Serif" font-size="8.00">ConfirmDialog</text>
<polyline fill="none" stroke="black" points="134,-381 426,-381 "/>
<text text-anchor="start" x="142" y="-369.8" font-family="Helvetica,sans-Serif" font-size="8.00">Attributes:</text>
<text text-anchor="start" x="142" y="-357.8" font-family="Helvetica,sans-Serif" font-size="8.00"># Text : string[]</text>
<text text-anchor="start" x="142" y="-345.8" font-family="Helvetica,sans-Serif" font-size="8.00">Methods:</text>
<polyline fill="none" stroke="black" points="134,-337 426,-337 "/>
<text text-anchor="start" x="142" y="-325.8" font-family="Helvetica,sans-Serif" font-size="8.00"># OnYesClick () : Action</text>
<text text-anchor="start" x="142" y="-313.8" font-family="Helvetica,sans-Serif" font-size="8.00"># OnCancelClick () : Action</text>
<text text-anchor="start" x="142" y="-301.8" font-family="Helvetica,sans-Serif" font-size="8.00"># OnNoClick () : Action</text>
<text text-anchor="start" x="142" y="-289.8" font-family="Helvetica,sans-Serif" font-size="8.00"># DrawDialog (GameTime gameTime)</text>
<text text-anchor="start" x="142" y="-277.8" font-family="Helvetica,sans-Serif" font-size="8.00">+ ConfirmDialog (GameState state, WidgetInfo info, DisplayLayer drawOrder)</text>
</g>
<!-- Box_Dialog&#45;&gt;Box_ConfirmDialog -->
<g id="edge32" class="edge"><title>Box_Dialog&#45;&gt;Box_ConfirmDialog</title>
<path fill="none" stroke="midnightblue" d="M273.262,-428.678C273.297,-419.356 273.411,-410.107 273.604,-401.257"/>
<polygon fill="none" stroke="midnightblue" points="269.762,-428.805 273.254,-438.808 276.762,-428.81 269.762,-428.805"/>
</g>
<!-- Box_Dialog&#45;&gt;Box_ConfirmDialog -->
<g id="edge46" class="edge"><title>Box_Dialog&#45;&gt;Box_ConfirmDialog</title>
<path fill="none" stroke="midnightblue" d="M286.738,-428.678C286.703,-419.356 286.589,-410.107 286.396,-401.257"/>
<polygon fill="none" stroke="midnightblue" points="283.238,-428.81 286.746,-438.808 290.238,-428.805 283.238,-428.81"/>
</g>
<!-- Box_Widget -->
<g id="node2" class="node"><title>Box_Widget</title>
<polygon fill="#fcfcda" stroke="black" points="147,-669 147,-777 413,-777 413,-669 147,-669"/>
<text text-anchor="middle" x="280" y="-765.8" font-family="Helvetica,sans-Serif" font-size="8.00">Widget</text>
<polyline fill="none" stroke="black" points="147,-757 413,-757 "/>
<text text-anchor="start" x="155" y="-745.8" font-family="Helvetica,sans-Serif" font-size="8.00">Attributes:</text>
<text text-anchor="start" x="155" y="-733.8" font-family="Helvetica,sans-Serif" font-size="8.00">+ Info : WidgetInfo</text>
<text text-anchor="start" x="155" y="-721.8" font-family="Helvetica,sans-Serif" font-size="8.00">+ IsVisible : bool virtual</text>
<text text-anchor="start" x="155" y="-709.8" font-family="Helvetica,sans-Serif" font-size="8.00">Methods:</text>
<polyline fill="none" stroke="black" points="147,-701 413,-701 "/>
<text text-anchor="start" x="155" y="-689.8" font-family="Helvetica,sans-Serif" font-size="8.00">+ bounds () : Rectangle</text>
<text text-anchor="start" x="155" y="-677.8" font-family="Helvetica,sans-Serif" font-size="8.00">+ Widget (GameState state, WidgetInfo info, DisplayLayer drawOrder)</text>
</g>
<!-- Box_Widget&#45;&gt;Box_Dialog -->
<g id="edge2" class="edge"><title>Box_Widget&#45;&gt;Box_Dialog</title>
<path fill="none" stroke="midnightblue" d="M280,-658.675C280,-649.815 280,-640.562 280,-631.28"/>
<polygon fill="none" stroke="midnightblue" points="276.5,-658.875 280,-668.875 283.5,-658.875 276.5,-658.875"/>
</g>
<!-- Box_DrawableGameStateComponent -->
<g id="node3" class="node"><title>Box_DrawableGameStateComponent</title>
<polygon fill="#fcfcda" stroke="black" points="109.5,-815 109.5,-923 450.5,-923 450.5,-815 109.5,-815"/>
<text text-anchor="middle" x="280" y="-911.8" font-family="Helvetica,sans-Serif" font-size="8.00">DrawableGameStateComponent</text>
<polyline fill="none" stroke="black" points="109.5,-903 450.5,-903 "/>
<text text-anchor="start" x="117.5" y="-891.8" font-family="Helvetica,sans-Serif" font-size="8.00">Attributes:</text>
<text text-anchor="start" x="117.5" y="-879.8" font-family="Helvetica,sans-Serif" font-size="8.00">+ state : GameState</text>
<text text-anchor="start" x="117.5" y="-867.8" font-family="Helvetica,sans-Serif" font-size="8.00">+ Index : int</text>
<text text-anchor="start" x="117.5" y="-855.8" font-family="Helvetica,sans-Serif" font-size="8.00">Methods:</text>
<polyline fill="none" stroke="black" points="109.5,-847 450.5,-847 "/>
<text text-anchor="start" x="117.5" y="-835.8" font-family="Helvetica,sans-Serif" font-size="8.00">+ DrawableGameStateComponent (GameState state, DisplayLayer drawOrder)</text>
<text text-anchor="start" x="117.5" y="-823.8" font-family="Helvetica,sans-Serif" font-size="8.00">+ SubComponents (GameTime gameTime) : IEnumerable&lt;IGameStateComponent&gt; virtual</text>
</g>
<!-- Box_DrawableGameStateComponent&#45;&gt;Box_Widget -->
<g id="edge4" class="edge"><title>Box_DrawableGameStateComponent&#45;&gt;Box_Widget</title>
<path fill="none" stroke="midnightblue" d="M273.291,-804.523C273.204,-795.474 273.256,-786.248 273.448,-777.41"/>
<polygon fill="none" stroke="midnightblue" points="269.793,-804.691 273.449,-814.635 276.792,-804.581 269.793,-804.691"/>
</g>
<!-- Box_DrawableGameStateComponent&#45;&gt;Box_Widget -->
<g id="edge18" class="edge"><title>Box_DrawableGameStateComponent&#45;&gt;Box_Widget</title>
<path fill="none" stroke="midnightblue" d="M286.709,-804.523C286.796,-795.474 286.744,-786.248 286.552,-777.41"/>
<polygon fill="none" stroke="midnightblue" points="283.208,-804.581 286.551,-814.635 290.207,-804.691 283.208,-804.581"/>
</g>
<!-- Box_IGameStateComponent -->
<g id="node4" class="node"><title>Box_IGameStateComponent</title>
<polygon fill="#dafcda" stroke="black" points="0,-961 0,-1045 318,-1045 318,-961 0,-961"/>
<text text-anchor="middle" x="159" y="-1033.8" font-family="Helvetica,sans-Serif" font-size="8.00">IGameStateComponent</text>
<polyline fill="none" stroke="black" points="0,-1025 318,-1025 "/>
<text text-anchor="start" x="8" y="-1013.8" font-family="Helvetica,sans-Serif" font-size="8.00">Attributes:</text>
<text text-anchor="start" x="8" y="-1001.8" font-family="Helvetica,sans-Serif" font-size="8.00">+ Index : int</text>
<text text-anchor="start" x="8" y="-989.8" font-family="Helvetica,sans-Serif" font-size="8.00">Methods:</text>
<polyline fill="none" stroke="black" points="0,-981 318,-981 "/>
<text text-anchor="start" x="8" y="-969.8" font-family="Helvetica,sans-Serif" font-size="8.00">+ SubComponents (GameTime gameTime) : IEnumerable&lt;IGameStateComponent&gt;</text>
</g>
<!-- Box_IGameStateComponent&#45;&gt;Box_DrawableGameStateComponent -->
<g id="edge22" class="edge"><title>Box_IGameStateComponent&#45;&gt;Box_DrawableGameStateComponent</title>
<path fill="none" stroke="midnightblue" d="M184.529,-952.953C192.61,-943.244 201.751,-933.027 211.148,-923.192"/>
<polygon fill="none" stroke="midnightblue" points="181.604,-951.003 178.009,-960.969 187.034,-955.42 181.604,-951.003"/>
</g>
<!-- Box_IGameStateComponent&#45;&gt;Box_DrawableGameStateComponent -->
<g id="edge28" class="edge"><title>Box_IGameStateComponent&#45;&gt;Box_DrawableGameStateComponent</title>
<path fill="none" stroke="midnightblue" d="M223.003,-953.825C232.748,-943.857 242.368,-933.322 250.983,-923.192"/>
<polygon fill="none" stroke="midnightblue" points="220.468,-951.411 215.898,-960.969 225.431,-956.347 220.468,-951.411"/>
</g>
<!-- Box_IGameStateComponent&#45;&gt;Box_DrawableGameStateComponent -->
<g id="edge8" class="edge"><title>Box_IGameStateComponent&#45;&gt;Box_DrawableGameStateComponent</title>
<path fill="none" stroke="midnightblue" d="M197.382,-953.244C205.992,-943.448 215.283,-933.125 224.426,-923.192"/>
<polygon fill="none" stroke="midnightblue" points="194.578,-951.134 190.638,-960.969 199.851,-955.737 194.578,-951.134"/>
</g>
<!-- Box_IGameStateComponent&#45;&gt;Box_DrawableGameStateComponent -->
<g id="edge14" class="edge"><title>Box_IGameStateComponent&#45;&gt;Box_DrawableGameStateComponent</title>
<path fill="none" stroke="midnightblue" d="M210.207,-953.535C219.371,-943.653 228.822,-933.224 237.705,-923.192"/>
<polygon fill="none" stroke="midnightblue" points="207.532,-951.27 203.268,-960.969 212.65,-956.047 207.532,-951.27"/>
</g>
<!-- Box_TextInputDialog -->
<g id="node6" class="node"><title>Box_TextInputDialog</title>
<polygon fill="#fcfcda" stroke="black" points="121,-111 121,-231 439,-231 439,-111 121,-111"/>
<text text-anchor="middle" x="280" y="-219.8" font-family="Helvetica,sans-Serif" font-size="8.00">TextInputDialog</text>
<polyline fill="none" stroke="black" points="121,-211 439,-211 "/>
<text text-anchor="start" x="129" y="-199.8" font-family="Helvetica,sans-Serif" font-size="8.00">Attributes:</text>
<text text-anchor="start" x="129" y="-187.8" font-family="Helvetica,sans-Serif" font-size="8.00"># TextInput : TextInput</text>
<text text-anchor="start" x="129" y="-175.8" font-family="Helvetica,sans-Serif" font-size="8.00">Methods:</text>
<polyline fill="none" stroke="black" points="121,-167 439,-167 "/>
<text text-anchor="start" x="129" y="-155.8" font-family="Helvetica,sans-Serif" font-size="8.00"># TextInputSize () : Vector2</text>
<text text-anchor="start" x="129" y="-143.8" font-family="Helvetica,sans-Serif" font-size="8.00">+ TextInputDialog (GameState state, WidgetInfo info, DisplayLayer drawOrder)</text>
<text text-anchor="start" x="129" y="-131.8" font-family="Helvetica,sans-Serif" font-size="8.00"># TextInputPosition () : Vector2</text>
<text text-anchor="start" x="129" y="-119.8" font-family="Helvetica,sans-Serif" font-size="8.00">+ SubComponents (GameTime gameTime) : IEnumerable&lt;IGameStateComponent&gt;</text>
</g>
<!-- Box_ConfirmDialog&#45;&gt;Box_TextInputDialog -->
<g id="edge34" class="edge"><title>Box_ConfirmDialog&#45;&gt;Box_TextInputDialog</title>
<path fill="none" stroke="midnightblue" d="M259.795,-258.766C259.651,-249.492 259.854,-240.119 260.404,-231.125"/>
<polygon fill="none" stroke="midnightblue" points="256.296,-258.874 260.086,-268.768 263.293,-258.67 256.296,-258.874"/>
</g>
<!-- Box_ConfirmDialog&#45;&gt;Box_TextInputDialog -->
<g id="edge40" class="edge"><title>Box_ConfirmDialog&#45;&gt;Box_TextInputDialog</title>
<path fill="none" stroke="midnightblue" d="M273.265,-258.766C273.217,-249.492 273.285,-240.119 273.468,-231.125"/>
<polygon fill="none" stroke="midnightblue" points="269.765,-258.802 273.362,-268.768 276.765,-258.734 269.765,-258.802"/>
</g>
<!-- Box_ConfirmDialog&#45;&gt;Box_TextInputDialog -->
<g id="edge48" class="edge"><title>Box_ConfirmDialog&#45;&gt;Box_TextInputDialog</title>
<path fill="none" stroke="midnightblue" d="M286.735,-258.766C286.783,-249.492 286.715,-240.119 286.532,-231.125"/>
<polygon fill="none" stroke="midnightblue" points="283.235,-258.734 286.638,-268.768 290.235,-258.802 283.235,-258.734"/>
</g>
<!-- Box_ConfirmDialog&#45;&gt;Box_TextInputDialog -->
<g id="edge54" class="edge"><title>Box_ConfirmDialog&#45;&gt;Box_TextInputDialog</title>
<path fill="none" stroke="midnightblue" d="M300.205,-258.766C300.349,-249.492 300.146,-240.119 299.596,-231.125"/>
<polygon fill="none" stroke="midnightblue" points="296.707,-258.67 299.914,-268.768 303.704,-258.874 296.707,-258.67"/>
</g>
<!-- Box_KnotSaveConfirmDialog -->
<g id="node7" class="node"><title>Box_KnotSaveConfirmDialog</title>
<polygon fill="#fcfcda" stroke="black" points="97.5,-1 97.5,-73 462.5,-73 462.5,-1 97.5,-1"/>
<text text-anchor="middle" x="280" y="-61.8" font-family="Helvetica,sans-Serif" font-size="8.00">KnotSaveConfirmDialog</text>
<polyline fill="none" stroke="black" points="97.5,-53 462.5,-53 "/>
<text text-anchor="start" x="105.5" y="-41.8" font-family="Helvetica,sans-Serif" font-size="8.00">Attributes:</text>
<text text-anchor="start" x="105.5" y="-29.8" font-family="Helvetica,sans-Serif" font-size="8.00">Methods:</text>
<polyline fill="none" stroke="black" points="97.5,-21 462.5,-21 "/>
<text text-anchor="start" x="105.5" y="-9.8" font-family="Helvetica,sans-Serif" font-size="8.00">+ KnotSaveConfirmDialog (GameState state, WidgetInfo info, DisplayLayer drawOrder, Knot knot)</text>
</g>
<!-- Box_TextInputDialog&#45;&gt;Box_KnotSaveConfirmDialog -->
<g id="edge36" class="edge"><title>Box_TextInputDialog&#45;&gt;Box_KnotSaveConfirmDialog</title>
<path fill="none" stroke="midnightblue" d="M232.809,-100.445C233.123,-91.0281 234.684,-81.7055 237.493,-73.2237"/>
<polygon fill="none" stroke="midnightblue" points="229.313,-100.716 232.958,-110.664 236.312,-100.614 229.313,-100.716"/>
</g>
<!-- Box_TextInputDialog&#45;&gt;Box_KnotSaveConfirmDialog -->
<g id="edge38" class="edge"><title>Box_TextInputDialog&#45;&gt;Box_KnotSaveConfirmDialog</title>
<path fill="none" stroke="midnightblue" d="M246.292,-100.445C246.516,-91.0281 247.632,-81.7055 249.638,-73.2237"/>
<polygon fill="none" stroke="midnightblue" points="242.795,-100.701 246.399,-110.664 249.794,-100.628 242.795,-100.701"/>
</g>
<!-- Box_TextInputDialog&#45;&gt;Box_KnotSaveConfirmDialog -->
<g id="edge42" class="edge"><title>Box_TextInputDialog&#45;&gt;Box_KnotSaveConfirmDialog</title>
<path fill="none" stroke="midnightblue" d="M259.775,-100.445C259.91,-91.0281 260.579,-81.7055 261.783,-73.2237"/>
<polygon fill="none" stroke="midnightblue" points="256.277,-100.686 259.839,-110.664 263.277,-100.642 256.277,-100.686"/>
</g>
<!-- Box_TextInputDialog&#45;&gt;Box_KnotSaveConfirmDialog -->
<g id="edge44" class="edge"><title>Box_TextInputDialog&#45;&gt;Box_KnotSaveConfirmDialog</title>
<path fill="none" stroke="midnightblue" d="M273.258,-100.445C273.303,-91.0281 273.526,-81.7055 273.928,-73.2237"/>
<polygon fill="none" stroke="midnightblue" points="269.759,-100.671 273.28,-110.664 276.759,-100.657 269.759,-100.671"/>
</g>
<!-- Box_TextInputDialog&#45;&gt;Box_KnotSaveConfirmDialog -->
<g id="edge50" class="edge"><title>Box_TextInputDialog&#45;&gt;Box_KnotSaveConfirmDialog</title>
<path fill="none" stroke="midnightblue" d="M286.742,-100.445C286.697,-91.0281 286.474,-81.7055 286.072,-73.2237"/>
<polygon fill="none" stroke="midnightblue" points="283.241,-100.657 286.72,-110.664 290.241,-100.671 283.241,-100.657"/>
</g>
<!-- Box_TextInputDialog&#45;&gt;Box_KnotSaveConfirmDialog -->
<g id="edge52" class="edge"><title>Box_TextInputDialog&#45;&gt;Box_KnotSaveConfirmDialog</title>
<path fill="none" stroke="midnightblue" d="M300.225,-100.445C300.09,-91.0281 299.421,-81.7055 298.217,-73.2237"/>
<polygon fill="none" stroke="midnightblue" points="296.723,-100.642 300.161,-110.664 303.723,-100.686 296.723,-100.642"/>
</g>
<!-- Box_TextInputDialog&#45;&gt;Box_KnotSaveConfirmDialog -->
<g id="edge56" class="edge"><title>Box_TextInputDialog&#45;&gt;Box_KnotSaveConfirmDialog</title>
<path fill="none" stroke="midnightblue" d="M313.708,-100.445C313.484,-91.0281 312.368,-81.7055 310.362,-73.2237"/>
<polygon fill="none" stroke="midnightblue" points="310.206,-100.628 313.601,-110.664 317.205,-100.701 310.206,-100.628"/>
</g>
<!-- Box_TextInputDialog&#45;&gt;Box_KnotSaveConfirmDialog -->
<g id="edge58" class="edge"><title>Box_TextInputDialog&#45;&gt;Box_KnotSaveConfirmDialog</title>
<path fill="none" stroke="midnightblue" d="M327.191,-100.445C326.877,-91.0281 325.316,-81.7055 322.507,-73.2237"/>
<polygon fill="none" stroke="midnightblue" points="323.688,-100.614 327.042,-110.664 330.687,-100.716 323.688,-100.614"/>
</g>
<!-- Box_XnaDrawableGameComponent -->
<g id="node8" class="node"><title>Box_XnaDrawableGameComponent</title>
<polygon fill="#ffffff" stroke="black" points="335.5,-993 335.5,-1013 466.5,-1013 466.5,-993 335.5,-993"/>
<text text-anchor="middle" x="401" y="-1001.8" font-family="Helvetica,sans-Serif" font-size="8.00">Xna.DrawableGameComponent</text>
</g>
<!-- Box_XnaDrawableGameComponent&#45;&gt;Box_DrawableGameStateComponent -->
<g id="edge26" class="edge"><title>Box_XnaDrawableGameComponent&#45;&gt;Box_DrawableGameStateComponent</title>
<path fill="none" stroke="midnightblue" d="M372.526,-986.736C352.943,-970.909 328.381,-945.97 308.948,-923.111"/>
<polygon fill="none" stroke="midnightblue" points="370.523,-989.61 380.585,-992.928 374.788,-984.06 370.523,-989.61"/>
</g>
<!-- Box_XnaDrawableGameComponent&#45;&gt;Box_DrawableGameStateComponent -->
<g id="edge6" class="edge"><title>Box_XnaDrawableGameComponent&#45;&gt;Box_DrawableGameStateComponent</title>
<path fill="none" stroke="midnightblue" d="M380.851,-985.879C364.835,-970.019 342.101,-945.562 322.223,-923.111"/>
<polygon fill="none" stroke="midnightblue" points="378.513,-988.487 388.132,-992.928 383.382,-983.458 378.513,-988.487"/>
</g>
<!-- Box_XnaDrawableGameComponent&#45;&gt;Box_DrawableGameStateComponent -->
<g id="edge12" class="edge"><title>Box_XnaDrawableGameComponent&#45;&gt;Box_DrawableGameStateComponent</title>
<path fill="none" stroke="midnightblue" d="M389.532,-985.006C376.823,-969.13 355.791,-945.153 335.499,-923.111"/>
<polygon fill="none" stroke="midnightblue" points="386.783,-987.173 395.679,-992.928 392.314,-982.882 386.783,-987.173"/>
</g>
<!-- Box_XnaDrawableGameComponent&#45;&gt;Box_DrawableGameStateComponent -->
<g id="edge20" class="edge"><title>Box_XnaDrawableGameComponent&#45;&gt;Box_DrawableGameStateComponent</title>
<path fill="none" stroke="midnightblue" d="M398.282,-983.664C388.537,-967.8 369.258,-944.541 348.774,-923.111"/>
<polygon fill="none" stroke="midnightblue" points="395.429,-985.754 403.226,-992.928 401.605,-982.458 395.429,-985.754"/>
</g>
<!-- Box_XnaIGameComponent -->
<g id="node9" class="node"><title>Box_XnaIGameComponent</title>
<polygon fill="#ffffff" stroke="black" points="109.5,-1083 109.5,-1103 208.5,-1103 208.5,-1083 109.5,-1083"/>
<text text-anchor="middle" x="159" y="-1091.8" font-family="Helvetica,sans-Serif" font-size="8.00">Xna.IGameComponent</text>
</g>
<!-- Box_XnaIGameComponent&#45;&gt;Box_IGameStateComponent -->
<g id="edge24" class="edge"><title>Box_XnaIGameComponent&#45;&gt;Box_IGameStateComponent</title>
<path fill="none" stroke="midnightblue" d="M141.911,-1073.28C139.599,-1065.05 138.555,-1055.15 138.78,-1045.41"/>
<polygon fill="none" stroke="midnightblue" points="138.666,-1074.59 145.518,-1082.68 145.201,-1072.09 138.666,-1074.59"/>
</g>
<!-- Box_XnaIGameComponent&#45;&gt;Box_IGameStateComponent -->
<g id="edge30" class="edge"><title>Box_XnaIGameComponent&#45;&gt;Box_IGameStateComponent</title>
<path fill="none" stroke="midnightblue" d="M176.089,-1073.28C178.401,-1065.05 179.445,-1055.15 179.22,-1045.41"/>
<polygon fill="none" stroke="midnightblue" points="172.799,-1072.09 172.482,-1082.68 179.334,-1074.59 172.799,-1072.09"/>
</g>
<!-- Box_XnaIGameComponent&#45;&gt;Box_IGameStateComponent -->
<g id="edge10" class="edge"><title>Box_XnaIGameComponent&#45;&gt;Box_IGameStateComponent</title>
<path fill="none" stroke="midnightblue" d="M153.253,-1072.73C152.518,-1064.61 152.187,-1054.94 152.26,-1045.41"/>
<polygon fill="none" stroke="midnightblue" points="149.783,-1073.19 154.506,-1082.68 156.728,-1072.32 149.783,-1073.19"/>
</g>
<!-- Box_XnaIGameComponent&#45;&gt;Box_IGameStateComponent -->
<g id="edge16" class="edge"><title>Box_XnaIGameComponent&#45;&gt;Box_IGameStateComponent</title>
<path fill="none" stroke="midnightblue" d="M164.747,-1072.73C165.482,-1064.61 165.813,-1054.94 165.74,-1045.41"/>
<polygon fill="none" stroke="midnightblue" points="161.272,-1072.32 163.494,-1082.68 168.217,-1073.19 161.272,-1072.32"/>
</g>
</g>
</svg>
