<?xml version="1.0" encoding="UTF-8" standalone="no"?>
<!DOCTYPE svg PUBLIC "-//W3C//DTD SVG 1.1//EN"
 "http://www.w3.org/Graphics/SVG/1.1/DTD/svg11.dtd">
<!-- Generated by graphviz version 2.26.3 (20100126.1600)
 -->
<!-- Title: MenuItem Pages: 1 -->
<svg width="1837pt" height="1256pt"
 viewBox="0.00 0.00 1836.76 1256.00" xmlns="http://www.w3.org/2000/svg" xmlns:xlink="http://www.w3.org/1999/xlink">
<g id="graph1" class="graph" transform="scale(1 1) rotate(0) translate(4 1252)">
<title>MenuItem</title>
<polygon fill="white" stroke="white" points="-4,5 -4,-1252 1833.76,-1252 1833.76,5 -4,5"/>
<!-- Box_DrawableGameStateComponent -->
<g id="node1" class="node"><title>Box_DrawableGameStateComponent</title>
<polygon fill="#fcfcda" stroke="black" points="686.257,-1007 686.257,-1091 1027.26,-1091 1027.26,-1007 686.257,-1007"/>
<text text-anchor="middle" x="856.757" y="-1079.8" font-family="Helvetica,sans-Serif" font-size="8.00">DrawableGameStateComponent</text>
<polyline fill="none" stroke="black" points="686.257,-1071 1027.26,-1071 "/>
<text text-anchor="start" x="694.257" y="-1059.8" font-family="Helvetica,sans-Serif" font-size="8.00">+ state : GameState</text>
<text text-anchor="start" x="694.257" y="-1047.8" font-family="Helvetica,sans-Serif" font-size="8.00">+ Index : int</text>
<polyline fill="none" stroke="black" points="686.257,-1039 1027.26,-1039 "/>
<text text-anchor="start" x="694.257" y="-1027.8" font-family="Helvetica,sans-Serif" font-size="8.00">+ DrawableGameStateComponent (GameState state, DisplayLayer drawOrder)</text>
<text text-anchor="start" x="694.257" y="-1015.8" font-family="Helvetica,sans-Serif" font-size="8.00">+ SubComponents (GameTime gameTime) : IEnumerable&lt;IGameStateComponent&gt; virtual</text>
</g>
<!-- Box_Widget -->
<g id="node15" class="node"><title>Box_Widget</title>
<polygon fill="#fcfcda" stroke="black" points="723.757,-885 723.757,-969 989.757,-969 989.757,-885 723.757,-885"/>
<text text-anchor="middle" x="856.757" y="-957.8" font-family="Helvetica,sans-Serif" font-size="8.00">Widget</text>
<polyline fill="none" stroke="black" points="723.757,-949 989.757,-949 "/>
<text text-anchor="start" x="731.757" y="-937.8" font-family="Helvetica,sans-Serif" font-size="8.00">+ Info : WidgetInfo</text>
<text text-anchor="start" x="731.757" y="-925.8" font-family="Helvetica,sans-Serif" font-size="8.00">+ IsVisible : bool virtual</text>
<polyline fill="none" stroke="black" points="723.757,-917 989.757,-917 "/>
<text text-anchor="start" x="731.757" y="-905.8" font-family="Helvetica,sans-Serif" font-size="8.00">+ Widget (GameState state, WidgetInfo info, DisplayLayer drawOrder)</text>
<text text-anchor="start" x="731.757" y="-893.8" font-family="Helvetica,sans-Serif" font-size="8.00">+ bounds () : Rectangle</text>
</g>
<!-- Box_DrawableGameStateComponent&#45;&gt;Box_Widget -->
<g id="edge40" class="edge"><title>Box_DrawableGameStateComponent&#45;&gt;Box_Widget</title>
<path fill="none" stroke="midnightblue" d="M856.757,-996.537C856.757,-987.423 856.757,-978.05 856.757,-969.252"/>
<polygon fill="none" stroke="midnightblue" points="853.257,-996.673 856.757,-1006.67 860.257,-996.673 853.257,-996.673"/>
</g>
<!-- Box_IGameStateComponent -->
<g id="node2" class="node"><title>Box_IGameStateComponent</title>
<polygon fill="#dafcda" stroke="black" points="576.757,-1129 576.757,-1189 894.757,-1189 894.757,-1129 576.757,-1129"/>
<text text-anchor="middle" x="735.757" y="-1177.8" font-family="Helvetica,sans-Serif" font-size="8.00">IGameStateComponent</text>
<polyline fill="none" stroke="black" points="576.757,-1169 894.757,-1169 "/>
<text text-anchor="start" x="584.757" y="-1157.8" font-family="Helvetica,sans-Serif" font-size="8.00">+ Index : int</text>
<polyline fill="none" stroke="black" points="576.757,-1149 894.757,-1149 "/>
<text text-anchor="start" x="584.757" y="-1137.8" font-family="Helvetica,sans-Serif" font-size="8.00">+ SubComponents (GameTime gameTime) : IEnumerable&lt;IGameStateComponent&gt;</text>
</g>
<!-- Box_IGameStateComponent&#45;&gt;Box_DrawableGameStateComponent -->
<g id="edge4" class="edge"><title>Box_IGameStateComponent&#45;&gt;Box_DrawableGameStateComponent</title>
<path fill="none" stroke="midnightblue" d="M776.495,-1121.97C787.295,-1112.15 799.039,-1101.47 810.126,-1091.39"/>
<polygon fill="none" stroke="midnightblue" points="773.865,-1119.63 768.82,-1128.94 778.574,-1124.81 773.865,-1119.63"/>
</g>
<!-- Box_ColorPicker -->
<g id="node3" class="node"><title>Box_ColorPicker</title>
<polygon fill="#fcfcda" stroke="black" points="392.257,-601 392.257,-817 675.257,-817 675.257,-601 392.257,-601"/>
<text text-anchor="middle" x="533.757" y="-805.8" font-family="Helvetica,sans-Serif" font-size="8.00">ColorPicker</text>
<polyline fill="none" stroke="black" points="392.257,-797 675.257,-797 "/>
<text text-anchor="start" x="400.257" y="-785.8" font-family="Helvetica,sans-Serif" font-size="8.00">&#45; colors : List&lt;Color&gt;</text>
<text text-anchor="start" x="400.257" y="-773.8" font-family="Helvetica,sans-Serif" font-size="8.00">&#45; tiles : List&lt;Vector2&gt;</text>
<text text-anchor="start" x="400.257" y="-761.8" font-family="Helvetica,sans-Serif" font-size="8.00">&#45; Vector2 tileSize : readonly static</text>
<text text-anchor="start" x="400.257" y="-749.8" font-family="Helvetica,sans-Serif" font-size="8.00">+ SelectedColor : Color</text>
<text text-anchor="start" x="400.257" y="-737.8" font-family="Helvetica,sans-Serif" font-size="8.00">+ OnSelectColor : Action&lt;Color&gt;</text>
<text text-anchor="start" x="400.257" y="-725.8" font-family="Helvetica,sans-Serif" font-size="8.00"># spriteBatch : SpriteBatch</text>
<text text-anchor="start" x="400.257" y="-713.8" font-family="Helvetica,sans-Serif" font-size="8.00">+ IsMouseEventEnabled : bool</text>
<polyline fill="none" stroke="black" points="392.257,-705 675.257,-705 "/>
<text text-anchor="start" x="400.257" y="-693.8" font-family="Helvetica,sans-Serif" font-size="8.00">+ ColorPicker (GameState state, WidgetInfo info, DisplayLayer drawOrder)</text>
<text text-anchor="start" x="400.257" y="-681.8" font-family="Helvetica,sans-Serif" font-size="8.00">+ Draw (GameTime gameTime) override</text>
<text text-anchor="start" x="400.257" y="-669.8" font-family="Helvetica,sans-Serif" font-size="8.00">&#45; CreateColors (int num) : IEnumerable&lt;Color&gt; static</text>
<text text-anchor="start" x="400.257" y="-657.8" font-family="Helvetica,sans-Serif" font-size="8.00">&#45; CreateTiles (IEnumerable&lt;Color&gt; _colors) : IEnumerable&lt;Vector2&gt; static</text>
<text text-anchor="start" x="400.257" y="-645.8" font-family="Helvetica,sans-Serif" font-size="8.00">&#45; SelectColor (Color color)</text>
<text text-anchor="start" x="400.257" y="-633.8" font-family="Helvetica,sans-Serif" font-size="8.00">+ OnLeftClick (Vector2 position, ClickState click, GameTime gameTime)</text>
<text text-anchor="start" x="400.257" y="-621.8" font-family="Helvetica,sans-Serif" font-size="8.00">+ OnRightClick (Vector2 position, ClickState click, GameTime gameTime)</text>
<text text-anchor="start" x="400.257" y="-609.8" font-family="Helvetica,sans-Serif" font-size="8.00">+ SetHovered (bool hovered)</text>
</g>
<!-- Box_Dialog -->
<g id="node4" class="node"><title>Box_Dialog</title>
<polygon fill="#fcfcda" stroke="black" points="1038.76,-625 1038.76,-793 1388.76,-793 1388.76,-625 1038.76,-625"/>
<text text-anchor="middle" x="1213.76" y="-781.8" font-family="Helvetica,sans-Serif" font-size="8.00">Dialog</text>
<polyline fill="none" stroke="black" points="1038.76,-773 1388.76,-773 "/>
<text text-anchor="start" x="1046.76" y="-761.8" font-family="Helvetica,sans-Serif" font-size="8.00">+ buttons : Menu</text>
<text text-anchor="start" x="1046.76" y="-749.8" font-family="Helvetica,sans-Serif" font-size="8.00">+ Done : Action</text>
<text text-anchor="start" x="1046.76" y="-737.8" font-family="Helvetica,sans-Serif" font-size="8.00"># spriteBatch : SpriteBatch</text>
<polyline fill="none" stroke="black" points="1038.76,-729 1388.76,-729 "/>
<text text-anchor="start" x="1046.76" y="-717.8" font-family="Helvetica,sans-Serif" font-size="8.00">+ Dialog (GameState state, WidgetInfo info, DisplayLayer drawOrder)</text>
<text text-anchor="start" x="1046.76" y="-705.8" font-family="Helvetica,sans-Serif" font-size="8.00"># RelativeButtonPosition (int n) : Vector2</text>
<text text-anchor="start" x="1046.76" y="-693.8" font-family="Helvetica,sans-Serif" font-size="8.00"># RelativeButtonSize (int n) : Vector2</text>
<text text-anchor="start" x="1046.76" y="-681.8" font-family="Helvetica,sans-Serif" font-size="8.00">+ SubComponents (GameTime gameTime) : IEnumerable&lt;IGameStateComponent&gt; override</text>
<text text-anchor="start" x="1046.76" y="-669.8" font-family="Helvetica,sans-Serif" font-size="8.00">+ Draw (GameTime gameTime) override</text>
<text text-anchor="start" x="1046.76" y="-657.8" font-family="Helvetica,sans-Serif" font-size="8.00"># DrawDialog (GameTime gameTime) abstract</text>
<text text-anchor="start" x="1046.76" y="-645.8" font-family="Helvetica,sans-Serif" font-size="8.00">&#45; ButtonBackgroundColor (ItemState itemState) : Color</text>
<text text-anchor="start" x="1046.76" y="-633.8" font-family="Helvetica,sans-Serif" font-size="8.00">&#45; ButtonForegroundColor (ItemState itemState) : Color</text>
</g>
<!-- Box_ConfirmDialog -->
<g id="node5" class="node"><title>Box_ConfirmDialog</title>
<polygon fill="#fcfcda" stroke="black" points="1067.76,-371 1067.76,-479 1359.76,-479 1359.76,-371 1067.76,-371"/>
<text text-anchor="middle" x="1213.76" y="-467.8" font-family="Helvetica,sans-Serif" font-size="8.00">ConfirmDialog</text>
<polyline fill="none" stroke="black" points="1067.76,-459 1359.76,-459 "/>
<text text-anchor="start" x="1075.76" y="-447.8" font-family="Helvetica,sans-Serif" font-size="8.00"># Text : string[]</text>
<text text-anchor="start" x="1075.76" y="-435.8" font-family="Helvetica,sans-Serif" font-size="8.00"># OnYesClick : Action</text>
<text text-anchor="start" x="1075.76" y="-423.8" font-family="Helvetica,sans-Serif" font-size="8.00"># OnNoClick : Action</text>
<text text-anchor="start" x="1075.76" y="-411.8" font-family="Helvetica,sans-Serif" font-size="8.00"># OnCancelClick : Action</text>
<polyline fill="none" stroke="black" points="1067.76,-403 1359.76,-403 "/>
<text text-anchor="start" x="1075.76" y="-391.8" font-family="Helvetica,sans-Serif" font-size="8.00">+ ConfirmDialog (GameState state, WidgetInfo info, DisplayLayer drawOrder)</text>
<text text-anchor="start" x="1075.76" y="-379.8" font-family="Helvetica,sans-Serif" font-size="8.00"># DrawDialog (GameTime gameTime) override</text>
</g>
<!-- Box_Dialog&#45;&gt;Box_ConfirmDialog -->
<g id="edge14" class="edge"><title>Box_Dialog&#45;&gt;Box_ConfirmDialog</title>
<path fill="none" stroke="midnightblue" d="M1213.76,-614.864C1213.76,-569.849 1213.76,-517.566 1213.76,-479.275"/>
<polygon fill="none" stroke="midnightblue" points="1210.26,-614.943 1213.76,-624.943 1217.26,-614.943 1210.26,-614.943"/>
</g>
<!-- Box_TextInputDialog -->
<g id="node6" class="node"><title>Box_TextInputDialog</title>
<polygon fill="#fcfcda" stroke="black" points="1038.76,-141 1038.76,-237 1388.76,-237 1388.76,-141 1038.76,-141"/>
<text text-anchor="middle" x="1213.76" y="-225.8" font-family="Helvetica,sans-Serif" font-size="8.00">TextInputDialog</text>
<polyline fill="none" stroke="black" points="1038.76,-217 1388.76,-217 "/>
<text text-anchor="start" x="1046.76" y="-205.8" font-family="Helvetica,sans-Serif" font-size="8.00"># TextInput : TextInput</text>
<polyline fill="none" stroke="black" points="1038.76,-197 1388.76,-197 "/>
<text text-anchor="start" x="1046.76" y="-185.8" font-family="Helvetica,sans-Serif" font-size="8.00">+ TextInputDialog (GameState state, WidgetInfo info, DisplayLayer drawOrder)</text>
<text text-anchor="start" x="1046.76" y="-173.8" font-family="Helvetica,sans-Serif" font-size="8.00">+ SubComponents (GameTime gameTime) : IEnumerable&lt;IGameStateComponent&gt; override</text>
<text text-anchor="start" x="1046.76" y="-161.8" font-family="Helvetica,sans-Serif" font-size="8.00"># TextInputPosition () : Vector2</text>
<text text-anchor="start" x="1046.76" y="-149.8" font-family="Helvetica,sans-Serif" font-size="8.00"># TextInputSize () : Vector2</text>
</g>
<!-- Box_ConfirmDialog&#45;&gt;Box_TextInputDialog -->
<g id="edge16" class="edge"><title>Box_ConfirmDialog&#45;&gt;Box_TextInputDialog</title>
<path fill="none" stroke="midnightblue" d="M1213.76,-360.674C1213.76,-321.742 1213.76,-272.905 1213.76,-237.283"/>
<polygon fill="none" stroke="midnightblue" points="1210.26,-360.857 1213.76,-370.857 1217.26,-360.857 1210.26,-360.857"/>
</g>
<!-- Box_KnotSaveConfirmDialog -->
<g id="node7" class="node"><title>Box_KnotSaveConfirmDialog</title>
<polygon fill="#fcfcda" stroke="black" points="1031.26,-1 1031.26,-61 1396.26,-61 1396.26,-1 1031.26,-1"/>
<text text-anchor="middle" x="1213.76" y="-49.8" font-family="Helvetica,sans-Serif" font-size="8.00">KnotSaveConfirmDialog</text>
<polyline fill="none" stroke="black" points="1031.26,-41 1396.26,-41 "/>
<text text-anchor="middle" x="1213.76" y="-29.8" font-family="Helvetica,sans-Serif" font-size="8.00"> </text>
<polyline fill="none" stroke="black" points="1031.26,-21 1396.26,-21 "/>
<text text-anchor="start" x="1039.26" y="-9.8" font-family="Helvetica,sans-Serif" font-size="8.00">+ KnotSaveConfirmDialog (GameState state, WidgetInfo info, DisplayLayer drawOrder, Knot knot)</text>
</g>
<!-- Box_TextInputDialog&#45;&gt;Box_KnotSaveConfirmDialog -->
<g id="edge18" class="edge"><title>Box_TextInputDialog&#45;&gt;Box_KnotSaveConfirmDialog</title>
<path fill="none" stroke="midnightblue" d="M1213.76,-130.467C1213.76,-106.883 1213.76,-80.6836 1213.76,-61.0963"/>
<polygon fill="none" stroke="midnightblue" points="1210.26,-130.736 1213.76,-140.736 1217.26,-130.736 1210.26,-130.736"/>
</g>
<!-- Box_Menu -->
<g id="node8" class="node"><title>Box_Menu</title>
<polygon fill="#fcfcda" stroke="black" points="1406.26,-571 1406.26,-847 1805.26,-847 1805.26,-571 1406.26,-571"/>
<text text-anchor="middle" x="1605.76" y="-835.8" font-family="Helvetica,sans-Serif" font-size="8.00">Menu</text>
<polyline fill="none" stroke="black" points="1406.26,-827 1805.26,-827 "/>
<text text-anchor="start" x="1414.26" y="-815.8" font-family="Helvetica,sans-Serif" font-size="8.00">+ Vector2&gt; RelativeItemSize : Func&lt;int,</text>
<text text-anchor="start" x="1414.26" y="-803.8" font-family="Helvetica,sans-Serif" font-size="8.00">+ Vector2&gt; RelativeItemPosition : Func&lt;int,</text>
<text text-anchor="start" x="1414.26" y="-791.8" font-family="Helvetica,sans-Serif" font-size="8.00">+ Color&gt; ItemForegroundColor : Func&lt;ItemState,</text>
<text text-anchor="start" x="1414.26" y="-779.8" font-family="Helvetica,sans-Serif" font-size="8.00">+ Color&gt; ItemBackgroundColor : Func&lt;ItemState,</text>
<text text-anchor="start" x="1414.26" y="-767.8" font-family="Helvetica,sans-Serif" font-size="8.00">+ ItemAlignX : HAlign?</text>
<text text-anchor="start" x="1414.26" y="-755.8" font-family="Helvetica,sans-Serif" font-size="8.00">+ ItemAlignY : VAlign?</text>
<text text-anchor="start" x="1414.26" y="-743.8" font-family="Helvetica,sans-Serif" font-size="8.00"># Items : List&lt;MenuItem&gt;</text>
<text text-anchor="start" x="1414.26" y="-731.8" font-family="Helvetica,sans-Serif" font-size="8.00">&#45; ItemDisplayLayer : DisplayLayer</text>
<text text-anchor="start" x="1414.26" y="-719.8" font-family="Helvetica,sans-Serif" font-size="8.00">+ this [int i] : MenuItem</text>
<text text-anchor="start" x="1414.26" y="-707.8" font-family="Helvetica,sans-Serif" font-size="8.00">+ Count : int</text>
<text text-anchor="start" x="1414.26" y="-695.8" font-family="Helvetica,sans-Serif" font-size="8.00">&#45; isVisible : bool</text>
<text text-anchor="start" x="1414.26" y="-683.8" font-family="Helvetica,sans-Serif" font-size="8.00">+ IsVisible : bool override</text>
<polyline fill="none" stroke="black" points="1406.26,-675 1805.26,-675 "/>
<text text-anchor="start" x="1414.26" y="-663.8" font-family="Helvetica,sans-Serif" font-size="8.00">+ Menu (GameState state, WidgetInfo info, DisplayLayer drawOrder)</text>
<text text-anchor="start" x="1414.26" y="-651.8" font-family="Helvetica,sans-Serif" font-size="8.00">&#45; assignMenuItemInfo (ref MenuItemInfo info, int num, MenuItem item)</text>
<text text-anchor="start" x="1414.26" y="-639.8" font-family="Helvetica,sans-Serif" font-size="8.00">+ AddButton (MenuItemInfo info) : MenuButton virtual</text>
<text text-anchor="start" x="1414.26" y="-627.8" font-family="Helvetica,sans-Serif" font-size="8.00">+ AddDropDown (MenuItemInfo info, DropDownMenuItem[] items, DropDownMenuItem defaultItem) virtual</text>
<text text-anchor="start" x="1414.26" y="-615.8" font-family="Helvetica,sans-Serif" font-size="8.00">+ AddDropDown (MenuItemInfo info, DistinctOptionInfo option) virtual</text>
<text text-anchor="start" x="1414.26" y="-603.8" font-family="Helvetica,sans-Serif" font-size="8.00">+ Clear ()</text>
<text text-anchor="start" x="1414.26" y="-591.8" font-family="Helvetica,sans-Serif" font-size="8.00">+ SubComponents (GameTime gameTime) : IEnumerable&lt;IGameStateComponent&gt; override</text>
<text text-anchor="start" x="1414.26" y="-579.8" font-family="Helvetica,sans-Serif" font-size="8.00">+ CollapseMenus (MenuItem menu)</text>
</g>
<!-- Box_VerticalMenu -->
<g id="node9" class="node"><title>Box_VerticalMenu</title>
<polygon fill="#fcfcda" stroke="black" points="1382.76,-353 1382.76,-497 1828.76,-497 1828.76,-353 1382.76,-353"/>
<text text-anchor="middle" x="1605.76" y="-485.8" font-family="Helvetica,sans-Serif" font-size="8.00">VerticalMenu</text>
<polyline fill="none" stroke="black" points="1382.76,-477 1828.76,-477 "/>
<text text-anchor="start" x="1390.76" y="-465.8" font-family="Helvetica,sans-Serif" font-size="8.00">+ Border : Border</text>
<text text-anchor="start" x="1390.76" y="-453.8" font-family="Helvetica,sans-Serif" font-size="8.00"># spriteBatch : SpriteBatch</text>
<polyline fill="none" stroke="black" points="1382.76,-445 1828.76,-445 "/>
<text text-anchor="start" x="1390.76" y="-433.8" font-family="Helvetica,sans-Serif" font-size="8.00">+ VerticalMenu (GameState state, WidgetInfo info, DisplayLayer drawOrder)</text>
<text text-anchor="start" x="1390.76" y="-421.8" font-family="Helvetica,sans-Serif" font-size="8.00">+ AddButton (MenuItemInfo info) : MenuButton override</text>
<text text-anchor="start" x="1390.76" y="-409.8" font-family="Helvetica,sans-Serif" font-size="8.00">+ AddDropDown (MenuItemInfo info, DropDownMenuItem[] items, DropDownMenuItem defaultItem) override</text>
<text text-anchor="start" x="1390.76" y="-397.8" font-family="Helvetica,sans-Serif" font-size="8.00">+ AddDropDown (MenuItemInfo info, DistinctOptionInfo option) override</text>
<text text-anchor="start" x="1390.76" y="-385.8" font-family="Helvetica,sans-Serif" font-size="8.00">+ Align (Viewport viewport, float scale, Vector2? givenPosition = null, Vector2? givenItemSize = null, float padding = 0.15f)</text>
<text text-anchor="start" x="1390.76" y="-373.8" font-family="Helvetica,sans-Serif" font-size="8.00">+ Align (Viewport viewport, float scale, int posX, int posY, int? sizeX = null, int? sizeY = null, float padding = 0.15f)</text>
<text text-anchor="start" x="1390.76" y="-361.8" font-family="Helvetica,sans-Serif" font-size="8.00">+ Draw (GameTime gameTime) override</text>
</g>
<!-- Box_Menu&#45;&gt;Box_VerticalMenu -->
<g id="edge22" class="edge"><title>Box_Menu&#45;&gt;Box_VerticalMenu</title>
<path fill="none" stroke="midnightblue" d="M1605.76,-560.626C1605.76,-538.619 1605.76,-516.817 1605.76,-497.34"/>
<polygon fill="none" stroke="midnightblue" points="1602.26,-560.744 1605.76,-570.744 1609.26,-560.744 1602.26,-560.744"/>
</g>
<!-- Box_TextInput -->
<g id="node10" class="node"><title>Box_TextInput</title>
<polygon fill="#fcfcda" stroke="black" points="50.7566,-637 50.7566,-781 336.757,-781 336.757,-637 50.7566,-637"/>
<text text-anchor="middle" x="193.757" y="-769.8" font-family="Helvetica,sans-Serif" font-size="8.00">TextInput</text>
<polyline fill="none" stroke="black" points="50.7566,-761 336.757,-761 "/>
<text text-anchor="start" x="58.7566" y="-749.8" font-family="Helvetica,sans-Serif" font-size="8.00">+ InputText : string</text>
<text text-anchor="start" x="58.7566" y="-737.8" font-family="Helvetica,sans-Serif" font-size="8.00">&#45; font : SpriteFont</text>
<text text-anchor="start" x="58.7566" y="-725.8" font-family="Helvetica,sans-Serif" font-size="8.00"># spriteBatch : SpriteBatch</text>
<text text-anchor="start" x="58.7566" y="-713.8" font-family="Helvetica,sans-Serif" font-size="8.00">+ ValidKeys : List&lt;Keys&gt;</text>
<text text-anchor="start" x="58.7566" y="-701.8" font-family="Helvetica,sans-Serif" font-size="8.00">+ IsKeyEventEnabled : bool</text>
<polyline fill="none" stroke="black" points="50.7566,-693 336.757,-693 "/>
<text text-anchor="start" x="58.7566" y="-681.8" font-family="Helvetica,sans-Serif" font-size="8.00">+ TextInput (GameState state, WidgetInfo info, DisplayLayer drawOrder)</text>
<text text-anchor="start" x="58.7566" y="-669.8" font-family="Helvetica,sans-Serif" font-size="8.00">+ Update (GameTime gameTime) override</text>
<text text-anchor="start" x="58.7566" y="-657.8" font-family="Helvetica,sans-Serif" font-size="8.00">+ Draw (GameTime gameTime) override</text>
<text text-anchor="start" x="58.7566" y="-645.8" font-family="Helvetica,sans-Serif" font-size="8.00">+ OnKeyEvent (List&lt;Keys&gt; key, KeyEvent keyEvent, GameTime gameTime)</text>
</g>
<!-- Box_ItemWidget -->
<g id="node11" class="node"><title>Box_ItemWidget</title>
<polygon fill="#fcfcda" stroke="black" points="692.257,-673 692.257,-745 1021.26,-745 1021.26,-673 692.257,-673"/>
<text text-anchor="middle" x="856.757" y="-733.8" font-family="Helvetica,sans-Serif" font-size="8.00">ItemWidget</text>
<polyline fill="none" stroke="black" points="692.257,-725 1021.26,-725 "/>
<text text-anchor="start" x="700.257" y="-713.8" font-family="Helvetica,sans-Serif" font-size="8.00"># ItemNum : int</text>
<text text-anchor="start" x="700.257" y="-701.8" font-family="Helvetica,sans-Serif" font-size="8.00">+ ItemState : ItemState</text>
<polyline fill="none" stroke="black" points="692.257,-693 1021.26,-693 "/>
<text text-anchor="start" x="700.257" y="-681.8" font-family="Helvetica,sans-Serif" font-size="8.00">+ ItemWidget (GameState state, WidgetInfo info, DisplayLayer drawOrder, int itemNum)</text>
</g>
<!-- Box_MenuItem -->
<g id="node12" class="node"><title>Box_MenuItem</title>
<polygon fill="#fcfcda" stroke="black" points="197.257,-317 197.257,-533 532.257,-533 532.257,-317 197.257,-317"/>
<text text-anchor="middle" x="364.757" y="-521.8" font-family="Helvetica,sans-Serif" font-size="8.00">MenuItem</text>
<polyline fill="none" stroke="black" points="197.257,-513 532.257,-513 "/>
<text text-anchor="start" x="205.257" y="-501.8" font-family="Helvetica,sans-Serif" font-size="8.00">+ Info : MenuItemInfo new</text>
<text text-anchor="start" x="205.257" y="-489.8" font-family="Helvetica,sans-Serif" font-size="8.00"># spriteBatch : SpriteBatch</text>
<text text-anchor="start" x="205.257" y="-477.8" font-family="Helvetica,sans-Serif" font-size="8.00">+ ValidKeys : List&lt;Keys&gt;</text>
<text text-anchor="start" x="205.257" y="-465.8" font-family="Helvetica,sans-Serif" font-size="8.00">+ IsKeyEventEnabled : bool</text>
<text text-anchor="start" x="205.257" y="-453.8" font-family="Helvetica,sans-Serif" font-size="8.00">+ IsMouseEventEnabled : bool</text>
<polyline fill="none" stroke="black" points="197.257,-445 532.257,-445 "/>
<text text-anchor="start" x="205.257" y="-433.8" font-family="Helvetica,sans-Serif" font-size="8.00">+ MenuItem (GameState state, DisplayLayer drawOrder, int itemNum, MenuItemInfo info)</text>
<text text-anchor="start" x="205.257" y="-421.8" font-family="Helvetica,sans-Serif" font-size="8.00">+ Draw (GameTime gameTime) override</text>
<text text-anchor="start" x="205.257" y="-409.8" font-family="Helvetica,sans-Serif" font-size="8.00">+ TextPosition (SpriteFont font) : Vector2</text>
<text text-anchor="start" x="205.257" y="-397.8" font-family="Helvetica,sans-Serif" font-size="8.00">+ TextPosition (SpriteFont font, Vector2 scale) : Vector2</text>
<text text-anchor="start" x="205.257" y="-385.8" font-family="Helvetica,sans-Serif" font-size="8.00">+ MinimumSize (SpriteFont font) : Vector2</text>
<text text-anchor="start" x="205.257" y="-373.8" font-family="Helvetica,sans-Serif" font-size="8.00">+ OnLeftClick (Vector2 position, ClickState click, GameTime gameTime)</text>
<text text-anchor="start" x="205.257" y="-361.8" font-family="Helvetica,sans-Serif" font-size="8.00">+ OnRightClick (Vector2 position, ClickState click, GameTime gameTime)</text>
<text text-anchor="start" x="205.257" y="-349.8" font-family="Helvetica,sans-Serif" font-size="8.00">+ OnKeyEvent (List&lt;Keys&gt; key, KeyEvent keyEvent, GameTime gameTime)</text>
<text text-anchor="start" x="205.257" y="-337.8" font-family="Helvetica,sans-Serif" font-size="8.00">+ SetHovered (bool hovered)</text>
<text text-anchor="start" x="205.257" y="-325.8" font-family="Helvetica,sans-Serif" font-size="8.00">+ Collapse () virtual</text>
</g>
<!-- Box_ItemWidget&#45;&gt;Box_MenuItem -->
<g id="edge30" class="edge"><title>Box_ItemWidget&#45;&gt;Box_MenuItem</title>
<path fill="none" stroke="midnightblue" d="M809.863,-665.943C776.358,-636.565 729.321,-598.045 683.757,-570 636.482,-540.902 582.379,-514.126 532.322,-491.712"/>
<polygon fill="none" stroke="midnightblue" points="807.84,-668.826 817.652,-672.823 812.474,-663.58 807.84,-668.826"/>
</g>
<!-- Box_DropDownMenu -->
<g id="node13" class="node"><title>Box_DropDownMenu</title>
<polygon fill="#fcfcda" stroke="black" points="369.257,-99 369.257,-279 728.257,-279 728.257,-99 369.257,-99"/>
<text text-anchor="middle" x="548.757" y="-267.8" font-family="Helvetica,sans-Serif" font-size="8.00">DropDownMenu</text>
<polyline fill="none" stroke="black" points="369.257,-259 728.257,-259 "/>
<text text-anchor="start" x="377.257" y="-247.8" font-family="Helvetica,sans-Serif" font-size="8.00">&#45; dropdown : VerticalMenu</text>
<text text-anchor="start" x="377.257" y="-235.8" font-family="Helvetica,sans-Serif" font-size="8.00">&#45; selected : MenuButton</text>
<polyline fill="none" stroke="black" points="369.257,-227 728.257,-227 "/>
<text text-anchor="start" x="377.257" y="-215.8" font-family="Helvetica,sans-Serif" font-size="8.00">+ DropDownMenu (GameState state, DisplayLayer drawOrder, int itemNum, MenuItemInfo info)</text>
<text text-anchor="start" x="377.257" y="-203.8" font-family="Helvetica,sans-Serif" font-size="8.00">+ AddEntries (DropDownMenuItem[] entries, DropDownMenuItem defaultEntry)</text>
<text text-anchor="start" x="377.257" y="-191.8" font-family="Helvetica,sans-Serif" font-size="8.00">+ AddEntries (DistinctOptionInfo option)</text>
<text text-anchor="start" x="377.257" y="-179.8" font-family="Helvetica,sans-Serif" font-size="8.00">+ SubComponents (GameTime gameTime) : IEnumerable&lt;IGameStateComponent&gt; override</text>
<text text-anchor="start" x="377.257" y="-167.8" font-family="Helvetica,sans-Serif" font-size="8.00">+ Collapse () override</text>
<text text-anchor="start" x="377.257" y="-155.8" font-family="Helvetica,sans-Serif" font-size="8.00">+ Draw (GameTime gameTime) override</text>
<text text-anchor="start" x="377.257" y="-143.8" font-family="Helvetica,sans-Serif" font-size="8.00">&#45; ValuePosition (int dummy = 0) : Vector2</text>
<text text-anchor="start" x="377.257" y="-131.8" font-family="Helvetica,sans-Serif" font-size="8.00">&#45; ValueSize (int dummy = 0) : Vector2</text>
<text text-anchor="start" x="377.257" y="-119.8" font-family="Helvetica,sans-Serif" font-size="8.00">&#45; DropDownBackgroundColor (ItemState itemState) : Color</text>
<text text-anchor="start" x="377.257" y="-107.8" font-family="Helvetica,sans-Serif" font-size="8.00">&#45; DropDownForegroundColor (ItemState itemState) : Color</text>
</g>
<!-- Box_MenuItem&#45;&gt;Box_DropDownMenu -->
<g id="edge36" class="edge"><title>Box_MenuItem&#45;&gt;Box_DropDownMenu</title>
<path fill="none" stroke="midnightblue" d="M455.386,-308.758C463.086,-298.881 470.8,-288.988 478.31,-279.355"/>
<polygon fill="none" stroke="midnightblue" points="452.606,-306.632 449.217,-316.67 458.126,-310.936 452.606,-306.632"/>
</g>
<!-- Box_MenuButton -->
<g id="node14" class="node"><title>Box_MenuButton</title>
<polygon fill="#fcfcda" stroke="black" points="9.25658,-159 9.25658,-219 352.257,-219 352.257,-159 9.25658,-159"/>
<text text-anchor="middle" x="180.757" y="-207.8" font-family="Helvetica,sans-Serif" font-size="8.00">MenuButton</text>
<polyline fill="none" stroke="black" points="9.25658,-199 352.257,-199 "/>
<text text-anchor="middle" x="180.757" y="-187.8" font-family="Helvetica,sans-Serif" font-size="8.00"> </text>
<polyline fill="none" stroke="black" points="9.25658,-179 352.257,-179 "/>
<text text-anchor="start" x="17.2566" y="-167.8" font-family="Helvetica,sans-Serif" font-size="8.00">+ MenuButton (GameState state, DisplayLayer drawOrder, int itemNum, MenuItemInfo info)</text>
</g>
<!-- Box_MenuItem&#45;&gt;Box_MenuButton -->
<g id="edge38" class="edge"><title>Box_MenuItem&#45;&gt;Box_MenuButton</title>
<path fill="none" stroke="midnightblue" d="M274.079,-308.697C248.203,-275.508 222.187,-242.139 204.222,-219.097"/>
<polygon fill="none" stroke="midnightblue" points="271.387,-310.936 280.296,-316.67 276.907,-306.632 271.387,-310.936"/>
</g>
<!-- Box_Widget&#45;&gt;Box_ColorPicker -->
<g id="edge8" class="edge"><title>Box_Widget&#45;&gt;Box_ColorPicker</title>
<path fill="none" stroke="midnightblue" d="M741.412,-880.587C721.582,-870.867 701.626,-859.909 683.757,-848 669.871,-838.746 656.028,-828.204 642.68,-817.16"/>
<polygon fill="none" stroke="midnightblue" points="739.977,-883.78 750.505,-884.965 743.013,-877.473 739.977,-883.78"/>
</g>
<!-- Box_Widget&#45;&gt;Box_Dialog -->
<g id="edge12" class="edge"><title>Box_Widget&#45;&gt;Box_Dialog</title>
<path fill="none" stroke="midnightblue" d="M968.072,-880.531C988.988,-870.585 1010.36,-859.563 1029.76,-848 1056.92,-831.802 1084.84,-812.365 1110.47,-793.229"/>
<polygon fill="none" stroke="midnightblue" points="966.388,-877.455 958.825,-884.874 969.364,-883.791 966.388,-877.455"/>
</g>
<!-- Box_Widget&#45;&gt;Box_Menu -->
<g id="edge20" class="edge"><title>Box_Widget&#45;&gt;Box_Menu</title>
<path fill="none" stroke="midnightblue" d="M999.9,-913.304C1135.05,-899.076 1327.2,-875.126 1397.76,-848 1400.49,-846.948 1403.23,-845.855 1405.96,-844.723"/>
<polygon fill="none" stroke="midnightblue" points="999.445,-909.832 989.864,-914.354 1000.17,-916.794 999.445,-909.832"/>
</g>
<!-- Box_Widget&#45;&gt;Box_TextInput -->
<g id="edge24" class="edge"><title>Box_Widget&#45;&gt;Box_TextInput</title>
<path fill="none" stroke="midnightblue" d="M713.619,-910.479C596.784,-895.637 441.865,-872.468 383.757,-848 344.959,-831.663 306.624,-805.971 274.66,-781.096"/>
<polygon fill="none" stroke="midnightblue" points="713.374,-913.976 723.734,-911.755 714.251,-907.031 713.374,-913.976"/>
</g>
<!-- Box_Widget&#45;&gt;Box_ItemWidget -->
<g id="edge28" class="edge"><title>Box_Widget&#45;&gt;Box_ItemWidget</title>
<path fill="none" stroke="midnightblue" d="M856.757,-874.851C856.757,-834.79 856.757,-780.502 856.757,-745.121"/>
<polygon fill="none" stroke="midnightblue" points="853.257,-874.967 856.757,-884.967 860.257,-874.967 853.257,-874.967"/>
</g>
<!-- Box_XnaDrawableGameComponent -->
<g id="node16" class="node"><title>Box_XnaDrawableGameComponent</title>
<polygon fill="#ffffff" stroke="black" points="912.257,-1149 912.257,-1169 1043.26,-1169 1043.26,-1149 912.257,-1149"/>
<text text-anchor="middle" x="977.757" y="-1157.8" font-family="Helvetica,sans-Serif" font-size="8.00">Xna.DrawableGameComponent</text>
</g>
<!-- Box_XnaDrawableGameComponent&#45;&gt;Box_DrawableGameStateComponent -->
<g id="edge2" class="edge"><title>Box_XnaDrawableGameComponent&#45;&gt;Box_DrawableGameStateComponent</title>
<path fill="none" stroke="midnightblue" d="M959.055,-1142C944.169,-1128.47 922.68,-1108.93 903.236,-1091.25"/>
<polygon fill="none" stroke="midnightblue" points="956.836,-1144.71 966.59,-1148.85 961.545,-1139.53 956.836,-1144.71"/>
</g>
<!-- Box_XnaIGameComponent -->
<g id="node17" class="node"><title>Box_XnaIGameComponent</title>
<polygon fill="#ffffff" stroke="black" points="686.257,-1227 686.257,-1247 785.257,-1247 785.257,-1227 686.257,-1227"/>
<text text-anchor="middle" x="735.757" y="-1235.8" font-family="Helvetica,sans-Serif" font-size="8.00">Xna.IGameComponent</text>
</g>
<!-- Box_XnaIGameComponent&#45;&gt;Box_IGameStateComponent -->
<g id="edge6" class="edge"><title>Box_XnaIGameComponent&#45;&gt;Box_IGameStateComponent</title>
<path fill="none" stroke="midnightblue" d="M735.757,-1216.78C735.757,-1208.33 735.757,-1198.34 735.757,-1189.06"/>
<polygon fill="none" stroke="midnightblue" points="732.257,-1216.8 735.757,-1226.8 739.257,-1216.8 732.257,-1216.8"/>
</g>
<!-- Box_IMouseEventListener -->
<g id="node18" class="node"><title>Box_IMouseEventListener</title>
<polygon fill="#ffffff" stroke="black" points="402.757,-917 402.757,-937 494.757,-937 494.757,-917 402.757,-917"/>
<text text-anchor="middle" x="448.757" y="-925.8" font-family="Helvetica,sans-Serif" font-size="8.00">IMouseEventListener</text>
</g>
<!-- Box_IMouseEventListener&#45;&gt;Box_ColorPicker -->
<g id="edge10" class="edge"><title>Box_IMouseEventListener&#45;&gt;Box_ColorPicker</title>
<path fill="none" stroke="midnightblue" d="M456.376,-907.458C464.514,-886.587 478.075,-851.807 491.591,-817.143"/>
<polygon fill="none" stroke="midnightblue" points="453.114,-906.189 452.742,-916.778 459.636,-908.732 453.114,-906.189"/>
</g>
<!-- Box_IMouseEventListener&#45;&gt;Box_MenuItem -->
<g id="edge32" class="edge"><title>Box_IMouseEventListener&#45;&gt;Box_MenuItem</title>
<path fill="none" stroke="midnightblue" d="M429.163,-910.088C413.714,-895.421 393.246,-872.709 383.757,-848 344.75,-746.436 344.495,-620.926 351.221,-533.104"/>
<polygon fill="none" stroke="midnightblue" points="426.962,-912.818 436.699,-916.993 431.69,-907.657 426.962,-912.818"/>
</g>
<!-- Box_IKeyEventListener -->
<g id="node19" class="node"><title>Box_IKeyEventListener</title>
<polygon fill="#ffffff" stroke="black" points="67.2566,-917 67.2566,-937 148.257,-937 148.257,-917 67.2566,-917"/>
<text text-anchor="middle" x="107.757" y="-925.8" font-family="Helvetica,sans-Serif" font-size="8.00">IKeyEventListener</text>
</g>
<!-- Box_IKeyEventListener&#45;&gt;Box_TextInput -->
<g id="edge26" class="edge"><title>Box_IKeyEventListener&#45;&gt;Box_TextInput</title>
<path fill="none" stroke="midnightblue" d="M115.549,-907.246C126.705,-878.967 147.812,-825.465 165.288,-781.164"/>
<polygon fill="none" stroke="midnightblue" points="112.203,-906.191 111.789,-916.778 118.715,-908.76 112.203,-906.191"/>
</g>
<!-- Box_IKeyEventListener&#45;&gt;Box_MenuItem -->
<g id="edge34" class="edge"><title>Box_IKeyEventListener&#45;&gt;Box_MenuItem</title>
<path fill="none" stroke="midnightblue" d="M87.2991,-910.009C71.4741,-895.436 50.7869,-872.894 41.7566,-848 -0.377092,-731.85 -25.3773,-673.726 41.7566,-570 76.9084,-515.688 137.753,-481.526 197.222,-460.125"/>
<polygon fill="none" stroke="midnightblue" points="85.2388,-912.86 95.0439,-916.874 89.882,-907.622 85.2388,-912.86"/>
</g>
</g>
</svg>
