<?xml version="1.0" encoding="UTF-8" standalone="no"?>
<!DOCTYPE svg PUBLIC "-//W3C//DTD SVG 1.1//EN"
 "http://www.w3.org/Graphics/SVG/1.1/DTD/svg11.dtd">
<!-- Generated by graphviz version 2.26.3 (20100126.1600)
 -->
<!-- Title: MenuItem Pages: 1 -->
<svg width="3967pt" height="3333pt"
 viewBox="0.00 0.00 952.00 800.00" xmlns="http://www.w3.org/2000/svg" xmlns:xlink="http://www.w3.org/1999/xlink">
<g id="graph1" class="graph" transform="scale(4.16667 4.16667) rotate(0) translate(4 796)">
<title>MenuItem</title>
<polygon fill="white" stroke="white" points="-4,5 -4,-796 949,-796 949,5 -4,5"/>
<!-- Box_MenuButton -->
<g id="node1" class="node"><title>Box_MenuButton</title>
<polygon fill="#fcfcda" stroke="black" points="270.5,-1 270.5,-55 611.5,-55 611.5,-1 270.5,-1"/>
<text text-anchor="middle" x="441" y="-43.8" font-family="Arial" font-size="8.00">MenuButton</text>
<polyline fill="none" stroke="black" points="270.5,-37 611.5,-37 "/>
<text text-anchor="middle" x="441" y="-25.8" font-family="Arial" font-size="8.00"> </text>
<polyline fill="none" stroke="black" points="270.5,-19 611.5,-19 "/>
<text text-anchor="start" x="278.5" y="-7.8" font-family="Arial" font-size="8.00">+ MenuButton (GameState state, DisplayLayer drawOrder, int itemNum, MenuItemInfo info)</text>
</g>
<!-- Box_MenuItem -->
<g id="node2" class="node"><title>Box_MenuItem</title>
<polygon fill="#fcfcda" stroke="black" points="275,-93 275,-277 607,-277 607,-93 275,-93"/>
<text text-anchor="middle" x="441" y="-265.8" font-family="Arial" font-size="8.00">MenuItem</text>
<polyline fill="none" stroke="black" points="275,-259 607,-259 "/>
<text text-anchor="start" x="283" y="-247.8" font-family="Arial" font-size="8.00"># spriteBatch : SpriteBatch</text>
<text text-anchor="start" x="283" y="-237.8" font-family="Arial" font-size="8.00">+ IsMouseEventEnabled : bool</text>
<text text-anchor="start" x="283" y="-227.8" font-family="Arial" font-size="8.00">+ ValidKeys : List&lt;Keys&gt;</text>
<text text-anchor="start" x="283" y="-217.8" font-family="Arial" font-size="8.00">+ IsKeyEventEnabled : bool</text>
<text text-anchor="start" x="283" y="-207.8" font-family="Arial" font-size="8.00">+ Info : MenuItemInfo</text>
<polyline fill="none" stroke="black" points="275,-201 607,-201 "/>
<text text-anchor="start" x="283" y="-189.8" font-family="Arial" font-size="8.00">+ MenuItem (GameState state, DisplayLayer drawOrder, int itemNum, MenuItemInfo info)</text>
<text text-anchor="start" x="283" y="-179.8" font-family="Arial" font-size="8.00">+ Collapse () virtual</text>
<text text-anchor="start" x="283" y="-169.8" font-family="Arial" font-size="8.00">+ OnKeyEvent (List&lt;Keys&gt; key, KeyEvent keyEvent, GameTime gameTime)</text>
<text text-anchor="start" x="283" y="-159.8" font-family="Arial" font-size="8.00">+ OnLeftClick (Vector2 position, ClickState click, GameTime gameTime)</text>
<text text-anchor="start" x="283" y="-149.8" font-family="Arial" font-size="8.00">+ OnRightClick (Vector2 position, ClickState click, GameTime gameTime)</text>
<text text-anchor="start" x="283" y="-139.8" font-family="Arial" font-size="8.00">+ MinimumSize (SpriteFont font) : Vector2</text>
<text text-anchor="start" x="283" y="-129.8" font-family="Arial" font-size="8.00">+ TextPosition (SpriteFont font) : Vector2</text>
<text text-anchor="start" x="283" y="-119.8" font-family="Arial" font-size="8.00">+ TextPosition (SpriteFont font, Vector2 scale) : Vector2</text>
<text text-anchor="start" x="283" y="-109.8" font-family="Arial" font-size="8.00">+ Draw (GameTime gameTime)</text>
<text text-anchor="start" x="283" y="-99.8" font-family="Arial" font-size="8.00">+ SetHovered (bool hovered)</text>
</g>
<!-- Box_MenuItem&#45;&gt;Box_MenuButton -->
<g id="edge2" class="edge"><title>Box_MenuItem&#45;&gt;Box_MenuButton</title>
<path fill="none" stroke="midnightblue" d="M441,-82.5882C441,-72.5758 441,-63.1372 441,-55.0144"/>
<polygon fill="none" stroke="midnightblue" points="437.5,-82.7643 441,-92.7643 444.5,-82.7644 437.5,-82.7643"/>
</g>
<!-- Box_IKeyEventListener -->
<g id="node3" class="node"><title>Box_IKeyEventListener</title>
<polygon fill="#dafcda" stroke="black" points="-0.5,-325 -0.5,-399 286.5,-399 286.5,-325 -0.5,-325"/>
<text text-anchor="middle" x="143" y="-387.8" font-family="Arial" font-size="8.00">IKeyEventListener</text>
<polyline fill="none" stroke="black" points="-0.5,-381 286.5,-381 "/>
<text text-anchor="start" x="7.5" y="-369.8" font-family="Arial" font-size="8.00">+ ValidKeys : List&lt;Keys&gt;</text>
<text text-anchor="start" x="7.5" y="-359.8" font-family="Arial" font-size="8.00">+ Index : DisplayLayer</text>
<text text-anchor="start" x="7.5" y="-349.8" font-family="Arial" font-size="8.00">+ IsKeyEventEnabled : bool</text>
<polyline fill="none" stroke="black" points="-0.5,-343 286.5,-343 "/>
<text text-anchor="start" x="7.5" y="-331.8" font-family="Arial" font-size="8.00">+ OnKeyEvent (List&lt;Keys&gt; key, KeyEvent keyEvent, GameTime gameTime)</text>
</g>
<!-- Box_IKeyEventListener&#45;&gt;Box_MenuItem -->
<g id="edge8" class="edge"><title>Box_IKeyEventListener&#45;&gt;Box_MenuItem</title>
<path fill="none" stroke="midnightblue" d="M214.278,-319.664C236.028,-306.745 260.847,-292.004 285.895,-277.126"/>
<polygon fill="none" stroke="midnightblue" points="212.281,-316.779 205.471,-324.895 215.856,-322.797 212.281,-316.779"/>
</g>
<!-- Box_IMouseEventListener -->
<g id="node4" class="node"><title>Box_IMouseEventListener</title>
<polygon fill="#dafcda" stroke="black" points="304,-315 304,-409 578,-409 578,-315 304,-315"/>
<text text-anchor="middle" x="441" y="-397.8" font-family="Arial" font-size="8.00">IMouseEventListener</text>
<polyline fill="none" stroke="black" points="304,-391 578,-391 "/>
<text text-anchor="start" x="312" y="-379.8" font-family="Arial" font-size="8.00">+ Index : DisplayLayer</text>
<text text-anchor="start" x="312" y="-369.8" font-family="Arial" font-size="8.00">+ IsMouseEventEnabled : bool</text>
<polyline fill="none" stroke="black" points="304,-363 578,-363 "/>
<text text-anchor="start" x="312" y="-351.8" font-family="Arial" font-size="8.00">+ OnLeftClick (Vector2 position, ClickState click, GameTime gameTime)</text>
<text text-anchor="start" x="312" y="-341.8" font-family="Arial" font-size="8.00">+ OnRightClick (Vector2 position, ClickState click, GameTime gameTime)</text>
<text text-anchor="start" x="312" y="-331.8" font-family="Arial" font-size="8.00">+ SetHovered (bool hovered)</text>
<text text-anchor="start" x="312" y="-321.8" font-family="Arial" font-size="8.00">+ bounds () : Rectangle</text>
</g>
<!-- Box_IMouseEventListener&#45;&gt;Box_MenuItem -->
<g id="edge6" class="edge"><title>Box_IMouseEventListener&#45;&gt;Box_MenuItem</title>
<path fill="none" stroke="midnightblue" d="M441,-304.543C441,-295.801 441,-286.597 441,-277.337"/>
<polygon fill="none" stroke="midnightblue" points="437.5,-304.567 441,-314.567 444.5,-304.567 437.5,-304.567"/>
</g>
<!-- Box_ItemWidget -->
<g id="node5" class="node"><title>Box_ItemWidget</title>
<polygon fill="#fcfcda" stroke="black" points="595.5,-330 595.5,-394 924.5,-394 924.5,-330 595.5,-330"/>
<text text-anchor="middle" x="760" y="-382.8" font-family="Arial" font-size="8.00">ItemWidget</text>
<polyline fill="none" stroke="black" points="595.5,-376 924.5,-376 "/>
<text text-anchor="start" x="603.5" y="-364.8" font-family="Arial" font-size="8.00">+ ItemState : ItemState</text>
<text text-anchor="start" x="603.5" y="-354.8" font-family="Arial" font-size="8.00"># ItemNum : int</text>
<polyline fill="none" stroke="black" points="595.5,-348 924.5,-348 "/>
<text text-anchor="start" x="603.5" y="-336.8" font-family="Arial" font-size="8.00">+ ItemWidget (GameState state, WidgetInfo info, DisplayLayer drawOrder, int itemNum)</text>
</g>
<!-- Box_ItemWidget&#45;&gt;Box_MenuItem -->
<g id="edge4" class="edge"><title>Box_ItemWidget&#45;&gt;Box_MenuItem</title>
<path fill="none" stroke="midnightblue" d="M693.436,-325.066C667.977,-310.94 637.667,-294.122 607.035,-277.126"/>
<polygon fill="none" stroke="midnightblue" points="691.789,-328.155 702.232,-329.947 695.185,-322.034 691.789,-328.155"/>
</g>
<!-- Box_Widget -->
<g id="node6" class="node"><title>Box_Widget</title>
<polygon fill="#fcfcda" stroke="black" points="625.5,-447 625.5,-521 894.5,-521 894.5,-447 625.5,-447"/>
<text text-anchor="middle" x="760" y="-509.8" font-family="Arial" font-size="8.00">Widget</text>
<polyline fill="none" stroke="black" points="625.5,-503 894.5,-503 "/>
<text text-anchor="start" x="633.5" y="-491.8" font-family="Arial" font-size="8.00">+ Info : WidgetInfo</text>
<text text-anchor="start" x="633.5" y="-481.8" font-family="Arial" font-size="8.00">+ IsVisible : bool virtual</text>
<polyline fill="none" stroke="black" points="625.5,-475 894.5,-475 "/>
<text text-anchor="start" x="633.5" y="-463.8" font-family="Arial" font-size="8.00">+ bounds () : Rectangle</text>
<text text-anchor="start" x="633.5" y="-453.8" font-family="Arial" font-size="8.00">+ Widget (GameState state, WidgetInfo info, DisplayLayer drawOrder)</text>
</g>
<!-- Box_Widget&#45;&gt;Box_ItemWidget -->
<g id="edge10" class="edge"><title>Box_Widget&#45;&gt;Box_ItemWidget</title>
<path fill="none" stroke="midnightblue" d="M760,-436.6C760,-422.366 760,-407.091 760,-394.094"/>
<polygon fill="none" stroke="midnightblue" points="756.5,-436.733 760,-446.733 763.5,-436.733 756.5,-436.733"/>
</g>
<!-- Box_DrawableGameStateComponent -->
<g id="node7" class="node"><title>Box_DrawableGameStateComponent</title>
<polygon fill="#fcfcda" stroke="black" points="594,-559 594,-643 926,-643 926,-559 594,-559"/>
<text text-anchor="middle" x="760" y="-631.8" font-family="Arial" font-size="8.00">DrawableGameStateComponent</text>
<polyline fill="none" stroke="black" points="594,-625 926,-625 "/>
<text text-anchor="start" x="602" y="-613.8" font-family="Arial" font-size="8.00">+ Index : DisplayLayer</text>
<text text-anchor="start" x="602" y="-603.8" font-family="Arial" font-size="8.00">&#45; _index : DisplayLayer</text>
<text text-anchor="start" x="602" y="-593.8" font-family="Arial" font-size="8.00">+ state : GameState</text>
<polyline fill="none" stroke="black" points="594,-587 926,-587 "/>
<text text-anchor="start" x="602" y="-575.8" font-family="Arial" font-size="8.00">+ DrawableGameStateComponent (GameState state, DisplayLayer index)</text>
<text text-anchor="start" x="602" y="-565.8" font-family="Arial" font-size="8.00">+ SubComponents (GameTime gameTime) : IEnumerable&lt;IGameStateComponent&gt; virtual</text>
</g>
<!-- Box_DrawableGameStateComponent&#45;&gt;Box_Widget -->
<g id="edge12" class="edge"><title>Box_DrawableGameStateComponent&#45;&gt;Box_Widget</title>
<path fill="none" stroke="midnightblue" d="M760,-548.482C760,-539.258 760,-529.834 760,-521.14"/>
<polygon fill="none" stroke="midnightblue" points="756.5,-548.76 760,-558.76 763.5,-548.76 756.5,-548.76"/>
</g>
<!-- Box_IGameStateComponent -->
<g id="node8" class="node"><title>Box_IGameStateComponent</title>
<polygon fill="#dafcda" stroke="black" points="488,-681 488,-735 796,-735 796,-681 488,-681"/>
<text text-anchor="middle" x="642" y="-723.8" font-family="Arial" font-size="8.00">IGameStateComponent</text>
<polyline fill="none" stroke="black" points="488,-717 796,-717 "/>
<text text-anchor="start" x="496" y="-705.8" font-family="Arial" font-size="8.00">+ Index : DisplayLayer</text>
<polyline fill="none" stroke="black" points="488,-699 796,-699 "/>
<text text-anchor="start" x="496" y="-687.8" font-family="Arial" font-size="8.00">+ SubComponents (GameTime gameTime) : IEnumerable&lt;IGameStateComponent&gt;</text>
</g>
<!-- Box_IGameStateComponent&#45;&gt;Box_DrawableGameStateComponent -->
<g id="edge16" class="edge"><title>Box_IGameStateComponent&#45;&gt;Box_DrawableGameStateComponent</title>
<path fill="none" stroke="midnightblue" d="M679.383,-674.102C690.133,-664.354 701.995,-653.598 713.236,-643.404"/>
<polygon fill="none" stroke="midnightblue" points="676.833,-671.689 671.776,-680.999 681.535,-676.875 676.833,-671.689"/>
</g>
<!-- Box_XnaDrawableGameComponent -->
<g id="node9" class="node"><title>Box_XnaDrawableGameComponent</title>
<polygon fill="#ffffff" stroke="black" points="814,-699 814,-717 944,-717 944,-699 814,-699"/>
<text text-anchor="middle" x="879" y="-705.8" font-family="Arial" font-size="8.00">Xna.DrawableGameComponent</text>
</g>
<!-- Box_XnaDrawableGameComponent&#45;&gt;Box_DrawableGameStateComponent -->
<g id="edge14" class="edge"><title>Box_XnaDrawableGameComponent&#45;&gt;Box_DrawableGameStateComponent</title>
<path fill="none" stroke="midnightblue" d="M861.226,-692.018C846.886,-679.124 826.035,-660.376 806.979,-643.241"/>
<polygon fill="none" stroke="midnightblue" points="859.078,-694.794 868.854,-698.877 863.758,-689.588 859.078,-694.794"/>
</g>
<!-- Box_XnaIGameComponent -->
<g id="node10" class="node"><title>Box_XnaIGameComponent</title>
<polygon fill="#ffffff" stroke="black" points="594,-773 594,-791 690,-791 690,-773 594,-773"/>
<text text-anchor="middle" x="642" y="-779.8" font-family="Arial" font-size="8.00">Xna.IGameComponent</text>
</g>
<!-- Box_XnaIGameComponent&#45;&gt;Box_IGameStateComponent -->
<g id="edge18" class="edge"><title>Box_XnaIGameComponent&#45;&gt;Box_IGameStateComponent</title>
<path fill="none" stroke="midnightblue" d="M642,-762.64C642,-754.2 642,-744.16 642,-735.004"/>
<polygon fill="none" stroke="midnightblue" points="638.5,-762.926 642,-772.926 645.5,-762.926 638.5,-762.926"/>
</g>
</g>
</svg>
