<?xml version="1.0" encoding="UTF-8" standalone="no"?>
<!DOCTYPE svg PUBLIC "-//W3C//DTD SVG 1.1//EN"
 "http://www.w3.org/Graphics/SVG/1.1/DTD/svg11.dtd">
<!-- Generated by graphviz version 2.26.3 (20100126.1600)
 -->
<!-- Title: MenuItem Pages: 1 -->
<svg width="1896pt" height="574pt"
 viewBox="0.00 0.00 1896.00 574.00" xmlns="http://www.w3.org/2000/svg" xmlns:xlink="http://www.w3.org/1999/xlink">
<g id="graph1" class="graph" transform="scale(1 1) rotate(0) translate(4 570)">
<title>MenuItem</title>
<polygon fill="white" stroke="white" points="-4,5 -4,-570 1893,-570 1893,5 -4,5"/>
<!-- Box_GameScreenComponent -->
<g id="node1" class="node"><title>Box_GameScreenComponent</title>
<polygon fill="#fcfcda" stroke="black" points="672.5,-343 672.5,-417 989.5,-417 989.5,-343 672.5,-343"/>
<text text-anchor="middle" x="831" y="-405.8" font-family="Arial" font-size="8.00">GameScreenComponent</text>
<polyline fill="none" stroke="black" points="672.5,-399 989.5,-399 "/>
<text text-anchor="start" x="680.5" y="-387.8" font-family="Arial" font-size="8.00">+ Index : DisplayLayer</text>
<text text-anchor="start" x="680.5" y="-377.8" font-family="Arial" font-size="8.00">+ screen : GameScreen</text>
<polyline fill="none" stroke="black" points="672.5,-371 989.5,-371 "/>
<text text-anchor="start" x="680.5" y="-359.8" font-family="Arial" font-size="8.00">+ GameScreenComponent (GameScreen screen, DisplayLayer index)</text>
<text text-anchor="start" x="680.5" y="-349.8" font-family="Arial" font-size="8.00">+ SubComponents (GameTime time) : IEnumerable&lt;IGameScreenComponent&gt; virtual</text>
</g>
<!-- Box_Camera -->
<g id="node3" class="node"><title>Box_Camera</title>
<polygon fill="#fcfcda" stroke="black" points="239.5,-1 239.5,-305 422.5,-305 422.5,-1 239.5,-1"/>
<text text-anchor="middle" x="331" y="-293.8" font-family="Arial" font-size="8.00">Camera</text>
<polyline fill="none" stroke="black" points="239.5,-287 422.5,-287 "/>
<text text-anchor="start" x="247.5" y="-275.8" font-family="Arial" font-size="8.00">&#45; AutoRotation : Angles3</text>
<text text-anchor="start" x="247.5" y="-265.8" font-family="Arial" font-size="8.00">&#45; _target : Vector3</text>
<text text-anchor="start" x="247.5" y="-255.8" font-family="Arial" font-size="8.00">&#45; aspectRatio : float</text>
<text text-anchor="start" x="247.5" y="-245.8" font-family="Arial" font-size="8.00">&#45; farPlane : float</text>
<text text-anchor="start" x="247.5" y="-235.8" font-family="Arial" font-size="8.00">&#45; nearPlane : float</text>
<text text-anchor="start" x="247.5" y="-225.8" font-family="Arial" font-size="8.00">+ Position : Vector3</text>
<text text-anchor="start" x="247.5" y="-215.8" font-family="Arial" font-size="8.00">+ Target : Vector3</text>
<text text-anchor="start" x="247.5" y="-205.8" font-family="Arial" font-size="8.00">+ TargetDirection : Vector3</text>
<text text-anchor="start" x="247.5" y="-195.8" font-family="Arial" font-size="8.00">+ UpVector : Vector3</text>
<text text-anchor="start" x="247.5" y="-185.8" font-family="Arial" font-size="8.00">+ FoV : float</text>
<text text-anchor="start" x="247.5" y="-175.8" font-family="Arial" font-size="8.00">&#45; World : World</text>
<text text-anchor="start" x="247.5" y="-165.8" font-family="Arial" font-size="8.00">&#45; _position : Vector3</text>
<text text-anchor="start" x="247.5" y="-155.8" font-family="Arial" font-size="8.00">&#45; foV : float</text>
<text text-anchor="start" x="247.5" y="-145.8" font-family="Arial" font-size="8.00">+ RotationAngle : Angles3</text>
<text text-anchor="start" x="247.5" y="-135.8" font-family="Arial" font-size="8.00">+ ViewFrustum : BoundingFrustum</text>
<text text-anchor="start" x="247.5" y="-125.8" font-family="Arial" font-size="8.00">+ ProjectionMatrix : Matrix</text>
<text text-anchor="start" x="247.5" y="-115.8" font-family="Arial" font-size="8.00">+ ViewMatrix : Matrix</text>
<text text-anchor="start" x="247.5" y="-105.8" font-family="Arial" font-size="8.00">+ WorldMatrix : Matrix</text>
<text text-anchor="start" x="247.5" y="-95.8" font-family="Arial" font-size="8.00">+ ArcballTarget : Vector3</text>
<text text-anchor="start" x="247.5" y="-85.8" font-family="Arial" font-size="8.00">+ DefaultPosition : Vector3</text>
<text text-anchor="start" x="247.5" y="-75.8" font-family="Arial" font-size="8.00">+ TargetDistance : float</text>
<polyline fill="none" stroke="black" points="239.5,-69 422.5,-69 "/>
<text text-anchor="start" x="247.5" y="-57.8" font-family="Arial" font-size="8.00">+ OnViewChanged () : Action</text>
<text text-anchor="start" x="247.5" y="-47.8" font-family="Arial" font-size="8.00">+ Camera (GameScreen screen, World world)</text>
<text text-anchor="start" x="247.5" y="-37.8" font-family="Arial" font-size="8.00">+ GetMouseRay (Vector2 mouse) : Ray</text>
<text text-anchor="start" x="247.5" y="-27.8" font-family="Arial" font-size="8.00">&#45; UpdateMatrices (GameTime time)</text>
<text text-anchor="start" x="247.5" y="-17.8" font-family="Arial" font-size="8.00">&#45; UpdateRotation (GameTime time)</text>
<text text-anchor="start" x="247.5" y="-7.8" font-family="Arial" font-size="8.00">+ Update (GameTime time)</text>
</g>
<!-- Box_GameScreenComponent&#45;&gt;Box_Camera -->
<g id="edge8" class="edge"><title>Box_GameScreenComponent&#45;&gt;Box_Camera</title>
<path fill="none" stroke="midnightblue" d="M662.462,-362.223C571.022,-349.991 469.072,-331.349 431,-306 428.227,-304.153 425.512,-302.201 422.857,-300.154"/>
<polygon fill="none" stroke="midnightblue" points="662.04,-365.698 672.412,-363.535 662.955,-358.758 662.04,-365.698"/>
</g>
<!-- Box_InputManager -->
<g id="node4" class="node"><title>Box_InputManager</title>
<polygon fill="#fcfcda" stroke="black" points="439.5,-61 439.5,-245 630.5,-245 630.5,-61 439.5,-61"/>
<text text-anchor="middle" x="535" y="-233.8" font-family="Arial" font-size="8.00">InputManager</text>
<polyline fill="none" stroke="black" points="439.5,-227 630.5,-227 "/>
<text text-anchor="start" x="447.5" y="-215.8" font-family="Arial" font-size="8.00">&#45; PreviousClickMouseState : MouseState static</text>
<text text-anchor="start" x="447.5" y="-205.8" font-family="Arial" font-size="8.00">&#45; LeftButtonClickTimer : double static</text>
<text text-anchor="start" x="447.5" y="-195.8" font-family="Arial" font-size="8.00">&#45; RightButtonClickTimer : double static</text>
<text text-anchor="start" x="447.5" y="-185.8" font-family="Arial" font-size="8.00">+ GrabMouseMovement : bool</text>
<text text-anchor="start" x="447.5" y="-175.8" font-family="Arial" font-size="8.00">+ LeftButton : ClickState static</text>
<text text-anchor="start" x="447.5" y="-165.8" font-family="Arial" font-size="8.00">+ RightButton : ClickState static</text>
<text text-anchor="start" x="447.5" y="-155.8" font-family="Arial" font-size="8.00">+ PreviousKeyboardState : KeyboardState static</text>
<text text-anchor="start" x="447.5" y="-145.8" font-family="Arial" font-size="8.00">+ MouseState : MouseState static</text>
<text text-anchor="start" x="447.5" y="-135.8" font-family="Arial" font-size="8.00">+ PreviousMouseState : MouseState static</text>
<text text-anchor="start" x="447.5" y="-125.8" font-family="Arial" font-size="8.00">+ CurrentInputAction : InputAction</text>
<text text-anchor="start" x="447.5" y="-115.8" font-family="Arial" font-size="8.00">+ WASDMode : WASDMode</text>
<text text-anchor="start" x="447.5" y="-105.8" font-family="Arial" font-size="8.00">+ KeyboardState : KeyboardState static</text>
<text text-anchor="start" x="447.5" y="-95.8" font-family="Arial" font-size="8.00">+ FullscreenToggled : bool static</text>
<polyline fill="none" stroke="black" points="439.5,-89 630.5,-89 "/>
<text text-anchor="start" x="447.5" y="-77.8" font-family="Arial" font-size="8.00">+ Update (GameTime time)</text>
<text text-anchor="start" x="447.5" y="-67.8" font-family="Arial" font-size="8.00">+ InputManager (GameScreen screen)</text>
</g>
<!-- Box_GameScreenComponent&#45;&gt;Box_InputManager -->
<g id="edge10" class="edge"><title>Box_GameScreenComponent&#45;&gt;Box_InputManager</title>
<path fill="none" stroke="midnightblue" d="M693.282,-338.815C673.997,-329.743 655.245,-318.892 639,-306 617.993,-289.328 599.625,-267.255 584.41,-245.077"/>
<polygon fill="none" stroke="midnightblue" points="691.925,-342.043 702.477,-342.993 694.821,-335.67 691.925,-342.043"/>
</g>
<!-- Box_WidgetKeyHandler -->
<g id="node5" class="node"><title>Box_WidgetKeyHandler</title>
<polygon fill="#fcfcda" stroke="black" points="647.5,-121 647.5,-185 820.5,-185 820.5,-121 647.5,-121"/>
<text text-anchor="middle" x="734" y="-173.8" font-family="Arial" font-size="8.00">WidgetKeyHandler</text>
<polyline fill="none" stroke="black" points="647.5,-167 820.5,-167 "/>
<text text-anchor="start" x="655.5" y="-155.8" font-family="Arial" font-size="8.00">&#45; KeyEventComponent : class</text>
<polyline fill="none" stroke="black" points="647.5,-149 820.5,-149 "/>
<text text-anchor="start" x="655.5" y="-137.8" font-family="Arial" font-size="8.00">+ WidgetKeyHandler (GameScreen screen)</text>
<text text-anchor="start" x="655.5" y="-127.8" font-family="Arial" font-size="8.00">+ Update (GameTime time)</text>
</g>
<!-- Box_GameScreenComponent&#45;&gt;Box_WidgetKeyHandler -->
<g id="edge12" class="edge"><title>Box_GameScreenComponent&#45;&gt;Box_WidgetKeyHandler</title>
<path fill="none" stroke="midnightblue" d="M811.083,-333.389C792.175,-289.141 764.257,-223.807 747.72,-185.107"/>
<polygon fill="none" stroke="midnightblue" points="807.943,-334.949 815.091,-342.77 814.38,-332.199 807.943,-334.949"/>
</g>
<!-- Box_WidgetMouseHandler -->
<g id="node6" class="node"><title>Box_WidgetMouseHandler</title>
<polygon fill="#fcfcda" stroke="black" points="837.5,-121 837.5,-185 1020.5,-185 1020.5,-121 837.5,-121"/>
<text text-anchor="middle" x="929" y="-173.8" font-family="Arial" font-size="8.00">WidgetMouseHandler</text>
<polyline fill="none" stroke="black" points="837.5,-167 1020.5,-167 "/>
<text text-anchor="start" x="845.5" y="-155.8" font-family="Arial" font-size="8.00">&#45; ClickEventComponent : class</text>
<polyline fill="none" stroke="black" points="837.5,-149 1020.5,-149 "/>
<text text-anchor="start" x="845.5" y="-137.8" font-family="Arial" font-size="8.00">+ WidgetMouseHandler (GameScreen screen)</text>
<text text-anchor="start" x="845.5" y="-127.8" font-family="Arial" font-size="8.00">+ Update (GameTime time)</text>
</g>
<!-- Box_GameScreenComponent&#45;&gt;Box_WidgetMouseHandler -->
<g id="edge14" class="edge"><title>Box_GameScreenComponent&#45;&gt;Box_WidgetMouseHandler</title>
<path fill="none" stroke="midnightblue" d="M851.123,-333.389C870.225,-289.141 898.432,-223.807 915.139,-185.107"/>
<polygon fill="none" stroke="midnightblue" points="847.823,-332.202 847.073,-342.77 854.25,-334.976 847.823,-332.202"/>
</g>
<!-- Box_KnotInputHandler -->
<g id="node7" class="node"><title>Box_KnotInputHandler</title>
<polygon fill="#fcfcda" stroke="black" points="1037.5,-81 1037.5,-225 1302.5,-225 1302.5,-81 1037.5,-81"/>
<text text-anchor="middle" x="1170" y="-213.8" font-family="Arial" font-size="8.00">KnotInputHandler</text>
<polyline fill="none" stroke="black" points="1037.5,-207 1302.5,-207 "/>
<text text-anchor="start" x="1045.5" y="-195.8" font-family="Arial" font-size="8.00">&#45; wasdSpeed : int</text>
<text text-anchor="start" x="1045.5" y="-185.8" font-family="Arial" font-size="8.00">&#45; camera : Camera</text>
<text text-anchor="start" x="1045.5" y="-175.8" font-family="Arial" font-size="8.00">&#45; World : World</text>
<text text-anchor="start" x="1045.5" y="-165.8" font-family="Arial" font-size="8.00">+ ValidKeys : List&lt;Keys&gt;</text>
<text text-anchor="start" x="1045.5" y="-155.8" font-family="Arial" font-size="8.00">+ IsKeyEventEnabled : bool</text>
<polyline fill="none" stroke="black" points="1037.5,-149 1302.5,-149 "/>
<text text-anchor="start" x="1045.5" y="-137.8" font-family="Arial" font-size="8.00"># UpdateMouse (GameTime time)</text>
<text text-anchor="start" x="1045.5" y="-127.8" font-family="Arial" font-size="8.00">+ KnotInputHandler (GameScreen screen, World world)</text>
<text text-anchor="start" x="1045.5" y="-117.8" font-family="Arial" font-size="8.00">+ OnKeyEvent (List&lt;Keys&gt; key, KeyEvent keyEvent, GameTime time)</text>
<text text-anchor="start" x="1045.5" y="-107.8" font-family="Arial" font-size="8.00">&#45; ResetMousePosition ()</text>
<text text-anchor="start" x="1045.5" y="-97.8" font-family="Arial" font-size="8.00"># UpdateKeys (GameTime time)</text>
<text text-anchor="start" x="1045.5" y="-87.8" font-family="Arial" font-size="8.00">+ Update (GameTime time)</text>
</g>
<!-- Box_GameScreenComponent&#45;&gt;Box_KnotInputHandler -->
<g id="edge16" class="edge"><title>Box_GameScreenComponent&#45;&gt;Box_KnotInputHandler</title>
<path fill="none" stroke="midnightblue" d="M966.669,-339.041C988.382,-329.779 1009.95,-318.81 1029,-306 1061.52,-284.132 1091.81,-253.317 1115.91,-225.068"/>
<polygon fill="none" stroke="midnightblue" points="965.255,-335.838 957.362,-342.906 967.939,-342.303 965.255,-335.838"/>
</g>
<!-- Box_EdgeColoring -->
<g id="node8" class="node"><title>Box_EdgeColoring</title>
<polygon fill="#fcfcda" stroke="black" points="1319.5,-106 1319.5,-200 1584.5,-200 1584.5,-106 1319.5,-106"/>
<text text-anchor="middle" x="1452" y="-188.8" font-family="Arial" font-size="8.00">EdgeColoring</text>
<polyline fill="none" stroke="black" points="1319.5,-182 1584.5,-182 "/>
<text text-anchor="start" x="1327.5" y="-170.8" font-family="Arial" font-size="8.00">+ ValidKeys : List&lt;Keys&gt;</text>
<text text-anchor="start" x="1327.5" y="-160.8" font-family="Arial" font-size="8.00">+ Knot : Knot</text>
<text text-anchor="start" x="1327.5" y="-150.8" font-family="Arial" font-size="8.00">+ IsKeyEventEnabled : bool</text>
<polyline fill="none" stroke="black" points="1319.5,-144 1584.5,-144 "/>
<text text-anchor="start" x="1327.5" y="-132.8" font-family="Arial" font-size="8.00">+ OnKeyEvent (List&lt;Keys&gt; key, KeyEvent keyEvent, GameTime time)</text>
<text text-anchor="start" x="1327.5" y="-122.8" font-family="Arial" font-size="8.00">+ EdgeColoring (GameScreen screen)</text>
<text text-anchor="start" x="1327.5" y="-112.8" font-family="Arial" font-size="8.00">+ Update (GameTime time)</text>
</g>
<!-- Box_GameScreenComponent&#45;&gt;Box_EdgeColoring -->
<g id="edge20" class="edge"><title>Box_GameScreenComponent&#45;&gt;Box_EdgeColoring</title>
<path fill="none" stroke="midnightblue" d="M999.789,-365.852C1115.8,-353.905 1258.08,-334.198 1311,-306 1357.38,-281.285 1396.59,-235.24 1421.79,-200.095"/>
<polygon fill="none" stroke="midnightblue" points="999.309,-362.383 989.715,-366.877 1000.02,-369.347 999.309,-362.383"/>
</g>
<!-- Box_ModelMousePicker -->
<g id="node9" class="node"><title>Box_ModelMousePicker</title>
<polygon fill="#fcfcda" stroke="black" points="0,-101 0,-205 222,-205 222,-101 0,-101"/>
<text text-anchor="middle" x="111" y="-193.8" font-family="Arial" font-size="8.00">ModelMousePicker</text>
<polyline fill="none" stroke="black" points="0,-187 222,-187 "/>
<text text-anchor="start" x="8" y="-175.8" font-family="Arial" font-size="8.00">&#45; lastMousePosition : Vector2</text>
<text text-anchor="start" x="8" y="-165.8" font-family="Arial" font-size="8.00">&#45; World : World</text>
<text text-anchor="start" x="8" y="-155.8" font-family="Arial" font-size="8.00">&#45; lastRayCheck : double</text>
<polyline fill="none" stroke="black" points="0,-149 222,-149 "/>
<text text-anchor="start" x="8" y="-137.8" font-family="Arial" font-size="8.00">&#45; UpdateMouseRay (GameTime time)</text>
<text text-anchor="start" x="8" y="-127.8" font-family="Arial" font-size="8.00">+ ModelMousePicker (GameScreen screen, World world)</text>
<text text-anchor="start" x="8" y="-117.8" font-family="Arial" font-size="8.00">&#45; CheckMouseRay (GameTime time)</text>
<text text-anchor="start" x="8" y="-107.8" font-family="Arial" font-size="8.00">+ Update (GameTime time)</text>
</g>
<!-- Box_GameScreenComponent&#45;&gt;Box_ModelMousePicker -->
<g id="edge24" class="edge"><title>Box_GameScreenComponent&#45;&gt;Box_ModelMousePicker</title>
<path fill="none" stroke="midnightblue" d="M662.029,-373.464C510.895,-365.062 302.521,-346.401 231,-306 190.144,-282.921 158.278,-239.798 137.683,-205.201"/>
<polygon fill="none" stroke="midnightblue" points="662.178,-376.977 672.354,-374.027 662.559,-369.988 662.178,-376.977"/>
</g>
<!-- Box_PipeColoring -->
<g id="node10" class="node"><title>Box_PipeColoring</title>
<polygon fill="#fcfcda" stroke="black" points="1601.5,-106 1601.5,-200 1888.5,-200 1888.5,-106 1601.5,-106"/>
<text text-anchor="middle" x="1745" y="-188.8" font-family="Arial" font-size="8.00">PipeColoring</text>
<polyline fill="none" stroke="black" points="1601.5,-182 1888.5,-182 "/>
<text text-anchor="start" x="1609.5" y="-170.8" font-family="Arial" font-size="8.00">+ ValidKeys : List&lt;Keys&gt;</text>
<text text-anchor="start" x="1609.5" y="-160.8" font-family="Arial" font-size="8.00">+ Knot : Knot</text>
<text text-anchor="start" x="1609.5" y="-150.8" font-family="Arial" font-size="8.00">+ IsKeyEventEnabled : bool</text>
<polyline fill="none" stroke="black" points="1601.5,-144 1888.5,-144 "/>
<text text-anchor="start" x="1609.5" y="-132.8" font-family="Arial" font-size="8.00">+ OnKeyEvent (List&lt;Keys&gt; key, KeyEvent keyEvent, GameTime gameTime)</text>
<text text-anchor="start" x="1609.5" y="-122.8" font-family="Arial" font-size="8.00">+ PipeColoring (GameScreen screen)</text>
<text text-anchor="start" x="1609.5" y="-112.8" font-family="Arial" font-size="8.00">+ Update (GameTime gameTime)</text>
</g>
<!-- Box_GameScreenComponent&#45;&gt;Box_PipeColoring -->
<g id="edge26" class="edge"><title>Box_GameScreenComponent&#45;&gt;Box_PipeColoring</title>
<path fill="none" stroke="midnightblue" d="M999.73,-369.688C1207.88,-356.026 1540.79,-330.756 1593,-306 1642.56,-282.5 1685.18,-235.791 1712.57,-200.132"/>
<polygon fill="none" stroke="midnightblue" points="999.356,-366.205 989.606,-370.35 999.813,-373.19 999.356,-366.205"/>
</g>
<!-- Box_IGameScreenComponent -->
<g id="node2" class="node"><title>Box_IGameScreenComponent</title>
<polygon fill="#dafcda" stroke="black" points="579.5,-455 579.5,-509 872.5,-509 872.5,-455 579.5,-455"/>
<text text-anchor="middle" x="726" y="-497.8" font-family="Arial" font-size="8.00">IGameScreenComponent</text>
<polyline fill="none" stroke="black" points="579.5,-491 872.5,-491 "/>
<text text-anchor="start" x="587.5" y="-479.8" font-family="Arial" font-size="8.00">+ Index : DisplayLayer</text>
<polyline fill="none" stroke="black" points="579.5,-473 872.5,-473 "/>
<text text-anchor="start" x="587.5" y="-461.8" font-family="Arial" font-size="8.00">+ SubComponents (GameTime time) : IEnumerable&lt;IGameScreenComponent&gt;</text>
</g>
<!-- Box_IGameScreenComponent&#45;&gt;Box_GameScreenComponent -->
<g id="edge4" class="edge"><title>Box_IGameScreenComponent&#45;&gt;Box_GameScreenComponent</title>
<path fill="none" stroke="midnightblue" d="M761.065,-447.937C771.229,-438.063 782.378,-427.233 792.728,-417.178"/>
<polygon fill="none" stroke="midnightblue" points="758.596,-445.455 753.862,-454.934 763.474,-450.476 758.596,-445.455"/>
</g>
<!-- Box_XnaGameComponent -->
<g id="node11" class="node"><title>Box_XnaGameComponent</title>
<polygon fill="#ffffff" stroke="black" points="889.5,-473 889.5,-491 984.5,-491 984.5,-473 889.5,-473"/>
<text text-anchor="middle" x="937" y="-479.8" font-family="Arial" font-size="8.00">Xna.GameComponent</text>
</g>
<!-- Box_XnaGameComponent&#45;&gt;Box_GameScreenComponent -->
<g id="edge2" class="edge"><title>Box_XnaGameComponent&#45;&gt;Box_GameScreenComponent</title>
<path fill="none" stroke="midnightblue" d="M920.37,-465.998C906.786,-452.926 887.044,-433.929 869.568,-417.113"/>
<polygon fill="none" stroke="midnightblue" points="917.961,-468.536 927.593,-472.948 922.814,-463.492 917.961,-468.536"/>
</g>
<!-- Box_XnaIGameComponent -->
<g id="node12" class="node"><title>Box_XnaIGameComponent</title>
<polygon fill="#ffffff" stroke="black" points="678,-547 678,-565 774,-565 774,-547 678,-547"/>
<text text-anchor="middle" x="726" y="-553.8" font-family="Arial" font-size="8.00">Xna.IGameComponent</text>
</g>
<!-- Box_XnaIGameComponent&#45;&gt;Box_IGameScreenComponent -->
<g id="edge6" class="edge"><title>Box_XnaIGameComponent&#45;&gt;Box_IGameScreenComponent</title>
<path fill="none" stroke="midnightblue" d="M726,-536.64C726,-528.2 726,-518.16 726,-509.004"/>
<polygon fill="none" stroke="midnightblue" points="722.5,-536.926 726,-546.926 729.5,-536.926 722.5,-536.926"/>
</g>
<!-- Box_IKeyEventListener -->
<g id="node13" class="node"><title>Box_IKeyEventListener</title>
<polygon fill="#ffffff" stroke="black" points="1411,-371 1411,-389 1493,-389 1493,-371 1411,-371"/>
<text text-anchor="middle" x="1452" y="-377.8" font-family="Arial" font-size="8.00">IKeyEventListener</text>
</g>
<!-- Box_IKeyEventListener&#45;&gt;Box_KnotInputHandler -->
<g id="edge18" class="edge"><title>Box_IKeyEventListener&#45;&gt;Box_KnotInputHandler</title>
<path fill="none" stroke="midnightblue" d="M1419.85,-366.939C1390.01,-353.963 1345.18,-332.242 1311,-306 1280.63,-282.683 1251.23,-252.444 1227.22,-225.013"/>
<polygon fill="none" stroke="midnightblue" points="1418.79,-370.29 1429.36,-370.998 1421.54,-363.853 1418.79,-370.29"/>
</g>
<!-- Box_IKeyEventListener&#45;&gt;Box_EdgeColoring -->
<g id="edge22" class="edge"><title>Box_IKeyEventListener&#45;&gt;Box_EdgeColoring</title>
<path fill="none" stroke="midnightblue" d="M1452,-360.474C1452,-325.149 1452,-249.71 1452,-200.196"/>
<polygon fill="none" stroke="midnightblue" points="1448.5,-360.82 1452,-370.82 1455.5,-360.82 1448.5,-360.82"/>
</g>
<!-- Box_IKeyEventListener&#45;&gt;Box_PipeColoring -->
<g id="edge28" class="edge"><title>Box_IKeyEventListener&#45;&gt;Box_PipeColoring</title>
<path fill="none" stroke="midnightblue" d="M1483.67,-366.756C1513.35,-353.584 1558.23,-331.67 1593,-306 1634.87,-275.086 1676.08,-232.636 1705.01,-200.292"/>
<polygon fill="none" stroke="midnightblue" points="1481.98,-363.672 1474.22,-370.881 1484.79,-370.087 1481.98,-363.672"/>
</g>
</g>
</svg>
