<?xml version="1.0" encoding="UTF-8" standalone="no"?>
<!DOCTYPE svg PUBLIC "-//W3C//DTD SVG 1.1//EN"
 "http://www.w3.org/Graphics/SVG/1.1/DTD/svg11.dtd">
<!-- Generated by graphviz version 2.26.3 (20100126.1600)
 -->
<!-- Title: MenuItem Pages: 1 -->
<svg width="689pt" height="798pt"
 viewBox="0.00 0.00 689.00 798.00" xmlns="http://www.w3.org/2000/svg" xmlns:xlink="http://www.w3.org/1999/xlink">
<g id="graph1" class="graph" transform="scale(1 1) rotate(0) translate(4 794)">
<title>MenuItem</title>
<polygon fill="white" stroke="white" points="-4,5 -4,-794 686,-794 686,5 -4,5"/>
<!-- Box_MenuScreen -->
<g id="node1" class="node"><title>Box_MenuScreen</title>
<polygon fill="#fcfcda" stroke="black" points="233,-345 233,-529 421,-529 421,-345 233,-345"/>
<text text-anchor="middle" x="327" y="-517.8" font-family="Arial" font-size="8.00">MenuScreen</text>
<polyline fill="none" stroke="black" points="233,-511 421,-511 "/>
<text text-anchor="start" x="241" y="-499.8" font-family="Arial" font-size="8.00">&#45; backColor : Color</text>
<text text-anchor="start" x="241" y="-489.8" font-family="Arial" font-size="8.00">&#45; pointer : MousePointer</text>
<text text-anchor="start" x="241" y="-479.8" font-family="Arial" font-size="8.00"># LinePoints : List&lt;Vector2&gt;</text>
<text text-anchor="start" x="241" y="-469.8" font-family="Arial" font-size="8.00"># LineWidth : int</text>
<text text-anchor="start" x="241" y="-459.8" font-family="Arial" font-size="8.00">&#45; spriteBatch : SpriteBatch</text>
<polyline fill="none" stroke="black" points="233,-453 421,-453 "/>
<text text-anchor="start" x="241" y="-441.8" font-family="Arial" font-size="8.00">+ MenuScreen (Core.Game game)</text>
<text text-anchor="start" x="241" y="-431.8" font-family="Arial" font-size="8.00">+ Activate (GameTime time)</text>
<text text-anchor="start" x="241" y="-421.8" font-family="Arial" font-size="8.00">+ Draw (GameTime time)</text>
<text text-anchor="start" x="241" y="-411.8" font-family="Arial" font-size="8.00"># BackgroundColor (ItemState itemState) : Color</text>
<text text-anchor="start" x="241" y="-401.8" font-family="Arial" font-size="8.00"># ForegroundColor (ItemState itemState) : Color</text>
<text text-anchor="start" x="241" y="-391.8" font-family="Arial" font-size="8.00">+ DrawMenu (GameTime time) abstract</text>
<text text-anchor="start" x="241" y="-381.8" font-family="Arial" font-size="8.00">+ UpdateMenu (GameTime time) abstract</text>
<text text-anchor="start" x="241" y="-371.8" font-family="Arial" font-size="8.00">+ Initialize ()</text>
<text text-anchor="start" x="241" y="-361.8" font-family="Arial" font-size="8.00">+ Unload ()</text>
<text text-anchor="start" x="241" y="-351.8" font-family="Arial" font-size="8.00">+ Update (GameTime time)</text>
</g>
<!-- Box_StartScreen -->
<g id="node3" class="node"><title>Box_StartScreen</title>
<polygon fill="#fcfcda" stroke="black" points="-0.5,-173 -0.5,-287 130.5,-287 130.5,-173 -0.5,-173"/>
<text text-anchor="middle" x="65" y="-275.8" font-family="Arial" font-size="8.00">StartScreen</text>
<polyline fill="none" stroke="black" points="-0.5,-269 130.5,-269 "/>
<text text-anchor="start" x="7.5" y="-257.8" font-family="Arial" font-size="8.00">&#45; spriteBatch : SpriteBatch</text>
<text text-anchor="start" x="7.5" y="-247.8" font-family="Arial" font-size="8.00">&#45; logo : Texture2D</text>
<text text-anchor="start" x="7.5" y="-237.8" font-family="Arial" font-size="8.00"># menu : Menu</text>
<polyline fill="none" stroke="black" points="-0.5,-231 130.5,-231 "/>
<text text-anchor="start" x="7.5" y="-219.8" font-family="Arial" font-size="8.00">+ StartScreen (Game game)</text>
<text text-anchor="start" x="7.5" y="-209.8" font-family="Arial" font-size="8.00">+ Activate (GameTime time)</text>
<text text-anchor="start" x="7.5" y="-199.8" font-family="Arial" font-size="8.00">+ UpdateMenu (GameTime time)</text>
<text text-anchor="start" x="7.5" y="-189.8" font-family="Arial" font-size="8.00">+ DrawMenu (GameTime time)</text>
<text text-anchor="start" x="7.5" y="-179.8" font-family="Arial" font-size="8.00">+ Initialize ()</text>
</g>
<!-- Box_MenuScreen&#45;&gt;Box_StartScreen -->
<g id="edge4" class="edge"><title>Box_MenuScreen&#45;&gt;Box_StartScreen</title>
<path fill="none" stroke="midnightblue" d="M224.437,-372.354C195.872,-352.838 165.444,-330.571 139,-308 131.475,-301.577 123.894,-294.471 116.603,-287.239"/>
<polygon fill="none" stroke="midnightblue" points="222.596,-375.334 232.836,-378.051 226.525,-369.541 222.596,-375.334"/>
</g>
<!-- Box_CreativeLoadScreen -->
<g id="node4" class="node"><title>Box_CreativeLoadScreen</title>
<polygon fill="#fcfcda" stroke="black" points="148,-153 148,-307 316,-307 316,-153 148,-153"/>
<text text-anchor="middle" x="232" y="-295.8" font-family="Arial" font-size="8.00">CreativeLoadScreen</text>
<polyline fill="none" stroke="black" points="148,-289 316,-289 "/>
<text text-anchor="start" x="156" y="-277.8" font-family="Arial" font-size="8.00">&#45; fileIndex : FileIndex</text>
<text text-anchor="start" x="156" y="-267.8" font-family="Arial" font-size="8.00">&#45; fileFormat : IKnotIO</text>
<text text-anchor="start" x="156" y="-257.8" font-family="Arial" font-size="8.00">&#45; spriteBatch : SpriteBatch</text>
<text text-anchor="start" x="156" y="-247.8" font-family="Arial" font-size="8.00">&#45; menu : VerticalMenu</text>
<polyline fill="none" stroke="black" points="148,-241 316,-241 "/>
<text text-anchor="start" x="156" y="-229.8" font-family="Arial" font-size="8.00">&#45; AddDefaultKnots ()</text>
<text text-anchor="start" x="156" y="-219.8" font-family="Arial" font-size="8.00">+ CreativeLoadScreen (Core.Game game)</text>
<text text-anchor="start" x="156" y="-209.8" font-family="Arial" font-size="8.00">+ Activate (GameTime time)</text>
<text text-anchor="start" x="156" y="-199.8" font-family="Arial" font-size="8.00">+ DrawMenu (GameTime time)</text>
<text text-anchor="start" x="156" y="-189.8" font-family="Arial" font-size="8.00">&#45; AddFileToList (string filename)</text>
<text text-anchor="start" x="156" y="-179.8" font-family="Arial" font-size="8.00">&#45; UpdateFiles ()</text>
<text text-anchor="start" x="156" y="-169.8" font-family="Arial" font-size="8.00">+ Initialize ()</text>
<text text-anchor="start" x="156" y="-159.8" font-family="Arial" font-size="8.00">+ UpdateMenu (GameTime time)</text>
</g>
<!-- Box_MenuScreen&#45;&gt;Box_CreativeLoadScreen -->
<g id="edge6" class="edge"><title>Box_MenuScreen&#45;&gt;Box_CreativeLoadScreen</title>
<path fill="none" stroke="midnightblue" d="M280.457,-335.585C276.085,-326.059 271.703,-316.51 267.458,-307.261"/>
<polygon fill="none" stroke="midnightblue" points="277.288,-337.071 284.64,-344.7 283.65,-334.151 277.288,-337.071"/>
</g>
<!-- Box_LoadSavegameScreen -->
<g id="node5" class="node"><title>Box_LoadSavegameScreen</title>
<polygon fill="#fcfcda" stroke="black" points="334,-153 334,-307 510,-307 510,-153 334,-153"/>
<text text-anchor="middle" x="422" y="-295.8" font-family="Arial" font-size="8.00">LoadSavegameScreen</text>
<polyline fill="none" stroke="black" points="334,-289 510,-289 "/>
<text text-anchor="start" x="342" y="-277.8" font-family="Arial" font-size="8.00">&#45; fileIndex : FileIndex</text>
<text text-anchor="start" x="342" y="-267.8" font-family="Arial" font-size="8.00">&#45; fileFormat : IKnotIO</text>
<text text-anchor="start" x="342" y="-257.8" font-family="Arial" font-size="8.00">&#45; spriteBatch : SpriteBatch</text>
<text text-anchor="start" x="342" y="-247.8" font-family="Arial" font-size="8.00">&#45; menu : VerticalMenu</text>
<polyline fill="none" stroke="black" points="334,-241 510,-241 "/>
<text text-anchor="start" x="342" y="-229.8" font-family="Arial" font-size="8.00">&#45; AddDefaultKnots ()</text>
<text text-anchor="start" x="342" y="-219.8" font-family="Arial" font-size="8.00">+ LoadSavegameScreen (Core.Game game)</text>
<text text-anchor="start" x="342" y="-209.8" font-family="Arial" font-size="8.00">+ Activate (GameTime time)</text>
<text text-anchor="start" x="342" y="-199.8" font-family="Arial" font-size="8.00">+ DrawMenu (GameTime time)</text>
<text text-anchor="start" x="342" y="-189.8" font-family="Arial" font-size="8.00">&#45; AddFileToList (string filename)</text>
<text text-anchor="start" x="342" y="-179.8" font-family="Arial" font-size="8.00">&#45; UpdateFiles ()</text>
<text text-anchor="start" x="342" y="-169.8" font-family="Arial" font-size="8.00">+ Initialize ()</text>
<text text-anchor="start" x="342" y="-159.8" font-family="Arial" font-size="8.00">+ UpdateMenu (GameTime time)</text>
</g>
<!-- Box_MenuScreen&#45;&gt;Box_LoadSavegameScreen -->
<g id="edge8" class="edge"><title>Box_MenuScreen&#45;&gt;Box_LoadSavegameScreen</title>
<path fill="none" stroke="midnightblue" d="M373.543,-335.585C377.915,-326.059 382.297,-316.51 386.542,-307.261"/>
<polygon fill="none" stroke="midnightblue" points="370.35,-334.151 369.36,-344.7 376.712,-337.071 370.35,-334.151"/>
</g>
<!-- Box_OptionScreen -->
<g id="node6" class="node"><title>Box_OptionScreen</title>
<polygon fill="#fcfcda" stroke="black" points="527.5,-178 527.5,-282 670.5,-282 670.5,-178 527.5,-178"/>
<text text-anchor="middle" x="599" y="-270.8" font-family="Arial" font-size="8.00">OptionScreen</text>
<polyline fill="none" stroke="black" points="527.5,-264 670.5,-264 "/>
<text text-anchor="start" x="535.5" y="-252.8" font-family="Arial" font-size="8.00">&#45; spriteBatch : SpriteBatch</text>
<text text-anchor="start" x="535.5" y="-242.8" font-family="Arial" font-size="8.00">&#45; menu : VerticalMenu</text>
<polyline fill="none" stroke="black" points="527.5,-236 670.5,-236 "/>
<text text-anchor="start" x="535.5" y="-224.8" font-family="Arial" font-size="8.00">+ OptionScreen (Core.Game game)</text>
<text text-anchor="start" x="535.5" y="-214.8" font-family="Arial" font-size="8.00">+ Activate (GameTime time)</text>
<text text-anchor="start" x="535.5" y="-204.8" font-family="Arial" font-size="8.00">+ DrawMenu (GameTime time)</text>
<text text-anchor="start" x="535.5" y="-194.8" font-family="Arial" font-size="8.00">+ UpdateMenu (GameTime time)</text>
<text text-anchor="start" x="535.5" y="-184.8" font-family="Arial" font-size="8.00">+ Initialize ()</text>
</g>
<!-- Box_MenuScreen&#45;&gt;Box_OptionScreen -->
<g id="edge10" class="edge"><title>Box_MenuScreen&#45;&gt;Box_OptionScreen</title>
<path fill="none" stroke="midnightblue" d="M429.906,-372.831C459.46,-353.09 491.197,-330.583 519,-308 528.787,-300.051 538.761,-291.109 548.197,-282.193"/>
<polygon fill="none" stroke="midnightblue" points="427.62,-370.148 421.223,-378.594 431.491,-375.98 427.62,-370.148"/>
</g>
<!-- Box_GameScreen -->
<g id="node2" class="node"><title>Box_GameScreen</title>
<polygon fill="#fcfcda" stroke="black" points="149.5,-566.5 149.5,-789.5 504.5,-789.5 504.5,-566.5 149.5,-566.5"/>
<text text-anchor="middle" x="327" y="-778.3" font-family="Arial" font-size="8.00">GameScreen</text>
<polyline fill="none" stroke="black" points="149.5,-771.5 504.5,-771.5 "/>
<text text-anchor="start" x="157.5" y="-760.3" font-family="Arial" font-size="8.00">+ content : ContentManager</text>
<text text-anchor="start" x="157.5" y="-750.3" font-family="Arial" font-size="8.00">+ NextState : GameScreen</text>
<text text-anchor="start" x="157.5" y="-740.3" font-family="Arial" font-size="8.00">+ device : GraphicsDevice</text>
<text text-anchor="start" x="157.5" y="-730.3" font-family="Arial" font-size="8.00">+ RenderEffects : RenderEffectStack</text>
<text text-anchor="start" x="157.5" y="-720.3" font-family="Arial" font-size="8.00">+ viewport : Viewport</text>
<text text-anchor="start" x="157.5" y="-710.3" font-family="Arial" font-size="8.00">+ game : Game</text>
<text text-anchor="start" x="157.5" y="-700.3" font-family="Arial" font-size="8.00">+ graphics : GraphicsDeviceManager</text>
<text text-anchor="start" x="157.5" y="-690.3" font-family="Arial" font-size="8.00">+ input : InputManager</text>
<text text-anchor="start" x="157.5" y="-680.3" font-family="Arial" font-size="8.00">+ PostProcessing : RenderEffect</text>
<polyline fill="none" stroke="black" points="149.5,-673.5 504.5,-673.5 "/>
<text text-anchor="start" x="157.5" y="-662.3" font-family="Arial" font-size="8.00">+ Draw (GameTime time) abstract</text>
<text text-anchor="start" x="157.5" y="-652.3" font-family="Arial" font-size="8.00">+ Initialize () abstract</text>
<text text-anchor="start" x="157.5" y="-642.3" font-family="Arial" font-size="8.00">+ Unload () abstract</text>
<text text-anchor="start" x="157.5" y="-632.3" font-family="Arial" font-size="8.00">+ Activate (GameTime time) virtual</text>
<text text-anchor="start" x="157.5" y="-622.3" font-family="Arial" font-size="8.00">+ GameScreen (Game game)</text>
<text text-anchor="start" x="157.5" y="-612.3" font-family="Arial" font-size="8.00">+ Update (GameTime time) abstract</text>
<text text-anchor="start" x="157.5" y="-602.3" font-family="Arial" font-size="8.00">+ Deactivate (GameTime time) virtual</text>
<text text-anchor="start" x="157.5" y="-592.3" font-family="Arial" font-size="8.00">+ AddGameComponents (GameTime time, params IGameScreenComponent[] components)</text>
<text text-anchor="start" x="157.5" y="-582.3" font-family="Arial" font-size="8.00">+ RemoveGameComponents (GameTime time, params IGameScreenComponent[] components)</text>
</g>
<!-- Box_GameScreen&#45;&gt;Box_MenuScreen -->
<g id="edge2" class="edge"><title>Box_GameScreen&#45;&gt;Box_MenuScreen</title>
<path fill="none" stroke="midnightblue" d="M327,-556.1C327,-547.044 327,-537.998 327,-529.167"/>
<polygon fill="none" stroke="midnightblue" points="323.5,-556.319 327,-566.319 330.5,-556.319 323.5,-556.319"/>
</g>
<!-- Box_VideoOptionScreen -->
<g id="node7" class="node"><title>Box_VideoOptionScreen</title>
<polygon fill="#fcfcda" stroke="black" points="517,-1 517,-115 681,-115 681,-1 517,-1"/>
<text text-anchor="middle" x="599" y="-103.8" font-family="Arial" font-size="8.00">VideoOptionScreen</text>
<polyline fill="none" stroke="black" points="517,-97 681,-97 "/>
<text text-anchor="start" x="525" y="-85.8" font-family="Arial" font-size="8.00">&#45; spriteBatch : SpriteBatch</text>
<text text-anchor="start" x="525" y="-75.8" font-family="Arial" font-size="8.00">&#45; menu : VerticalMenu</text>
<polyline fill="none" stroke="black" points="517,-69 681,-69 "/>
<text text-anchor="start" x="525" y="-57.8" font-family="Arial" font-size="8.00">+ VideoOptionScreen (Core.Game game)</text>
<text text-anchor="start" x="525" y="-47.8" font-family="Arial" font-size="8.00">+ Activate (GameTime time)</text>
<text text-anchor="start" x="525" y="-37.8" font-family="Arial" font-size="8.00">+ DrawMenu (GameTime time)</text>
<text text-anchor="start" x="525" y="-27.8" font-family="Arial" font-size="8.00">+ Initialize ()</text>
<text text-anchor="start" x="525" y="-17.8" font-family="Arial" font-size="8.00">+ UpdateMenu (GameTime time)</text>
<text text-anchor="start" x="525" y="-7.8" font-family="Arial" font-size="8.00">+ Collapse (MenuItem item)</text>
</g>
<!-- Box_OptionScreen&#45;&gt;Box_VideoOptionScreen -->
<g id="edge12" class="edge"><title>Box_OptionScreen&#45;&gt;Box_VideoOptionScreen</title>
<path fill="none" stroke="midnightblue" d="M599,-167.505C599,-150.446 599,-132.05 599,-115.296"/>
<polygon fill="none" stroke="midnightblue" points="595.5,-167.928 599,-177.928 602.5,-167.928 595.5,-167.928"/>
</g>
</g>
</svg>
