<?xml version="1.0" encoding="UTF-8" standalone="no"?>
<!DOCTYPE svg PUBLIC "-//W3C//DTD SVG 1.1//EN"
 "http://www.w3.org/Graphics/SVG/1.1/DTD/svg11.dtd">
<!-- Generated by graphviz version 2.26.3 (20100126.1600)
 -->
<!-- Title: MenuItem Pages: 1 -->
<svg width="449pt" height="504pt"
 viewBox="0.00 0.00 449.00 504.00" xmlns="http://www.w3.org/2000/svg" xmlns:xlink="http://www.w3.org/1999/xlink">
<g id="graph1" class="graph" transform="scale(1 1) rotate(0) translate(4 500)">
<title>MenuItem</title>
<polygon fill="white" stroke="white" points="-4,5 -4,-500 446,-500 446,5 -4,5"/>
<!-- Box_ClickHandler -->
<g id="node1" class="node"><title>Box_ClickHandler</title>
<polygon fill="#fcfcda" stroke="black" points="186,-1 186,-157 356,-157 356,-1 186,-1"/>
<text text-anchor="middle" x="271" y="-145.8" font-family="Helvetica,sans-Serif" font-size="8.00">ClickHandler</text>
<polyline fill="none" stroke="black" points="186,-137 356,-137 "/>
<text text-anchor="start" x="194" y="-125.8" font-family="Helvetica,sans-Serif" font-size="8.00">Attributes:</text>
<text text-anchor="start" x="194" y="-113.8" font-family="Helvetica,sans-Serif" font-size="8.00">Methods:</text>
<text text-anchor="start" x="194" y="-101.8" font-family="Helvetica,sans-Serif" font-size="8.00">private class ClickEventComponent :</text>
<text text-anchor="start" x="194" y="-89.8" font-family="Helvetica,sans-Serif" font-size="8.00">Attributes:</text>
<text text-anchor="start" x="194" y="-77.8" font-family="Helvetica,sans-Serif" font-size="8.00">+ receiver : IMouseEventListener</text>
<text text-anchor="start" x="194" y="-65.8" font-family="Helvetica,sans-Serif" font-size="8.00">+ layer : int</text>
<text text-anchor="start" x="194" y="-53.8" font-family="Helvetica,sans-Serif" font-size="8.00">+ relativePosition : Vector2</text>
<text text-anchor="start" x="194" y="-41.8" font-family="Helvetica,sans-Serif" font-size="8.00">Methods:</text>
<polyline fill="none" stroke="black" points="186,-33 356,-33 "/>
<text text-anchor="start" x="194" y="-21.8" font-family="Helvetica,sans-Serif" font-size="8.00">+ ClickHandler (GameState state)</text>
<text text-anchor="start" x="194" y="-9.8" font-family="Helvetica,sans-Serif" font-size="8.00">+ Update (GameTime gameTime) override</text>
</g>
<!-- Box_GameStateComponent -->
<g id="node2" class="node"><title>Box_GameStateComponent</title>
<polygon fill="#fcfcda" stroke="black" points="100.5,-195 100.5,-315 441.5,-315 441.5,-195 100.5,-195"/>
<text text-anchor="middle" x="271" y="-303.8" font-family="Helvetica,sans-Serif" font-size="8.00">GameStateComponent</text>
<polyline fill="none" stroke="black" points="100.5,-295 441.5,-295 "/>
<text text-anchor="start" x="108.5" y="-283.8" font-family="Helvetica,sans-Serif" font-size="8.00">Attributes:</text>
<text text-anchor="start" x="108.5" y="-271.8" font-family="Helvetica,sans-Serif" font-size="8.00"># InputOrder : DisplayLayer</text>
<text text-anchor="start" x="108.5" y="-259.8" font-family="Helvetica,sans-Serif" font-size="8.00">+ state : GameState</text>
<text text-anchor="start" x="108.5" y="-247.8" font-family="Helvetica,sans-Serif" font-size="8.00">+ Index : int</text>
<text text-anchor="start" x="108.5" y="-235.8" font-family="Helvetica,sans-Serif" font-size="8.00">Methods:</text>
<polyline fill="none" stroke="black" points="100.5,-227 441.5,-227 "/>
<text text-anchor="start" x="108.5" y="-215.8" font-family="Helvetica,sans-Serif" font-size="8.00">+ GameStateComponent (GameState state, DisplayLayer inputOrder)</text>
<text text-anchor="start" x="108.5" y="-203.8" font-family="Helvetica,sans-Serif" font-size="8.00">+ SubComponents (GameTime gameTime) : IEnumerable&lt;IGameStateComponent&gt; virtual</text>
</g>
<!-- Box_GameStateComponent&#45;&gt;Box_ClickHandler -->
<g id="edge2" class="edge"><title>Box_GameStateComponent&#45;&gt;Box_ClickHandler</title>
<path fill="none" stroke="midnightblue" d="M271,-184.801C271,-175.717 271,-166.37 271,-157.167"/>
<polygon fill="none" stroke="midnightblue" points="267.5,-184.923 271,-194.923 274.5,-184.923 267.5,-184.923"/>
</g>
<!-- Box_IGameStateComponent -->
<g id="node3" class="node"><title>Box_IGameStateComponent</title>
<polygon fill="#dafcda" stroke="black" points="0,-353 0,-437 318,-437 318,-353 0,-353"/>
<text text-anchor="middle" x="159" y="-425.8" font-family="Helvetica,sans-Serif" font-size="8.00">IGameStateComponent</text>
<polyline fill="none" stroke="black" points="0,-417 318,-417 "/>
<text text-anchor="start" x="8" y="-405.8" font-family="Helvetica,sans-Serif" font-size="8.00">Attributes:</text>
<text text-anchor="start" x="8" y="-393.8" font-family="Helvetica,sans-Serif" font-size="8.00">+ Index : int</text>
<text text-anchor="start" x="8" y="-381.8" font-family="Helvetica,sans-Serif" font-size="8.00">Methods:</text>
<polyline fill="none" stroke="black" points="0,-373 318,-373 "/>
<text text-anchor="start" x="8" y="-361.8" font-family="Helvetica,sans-Serif" font-size="8.00">+ SubComponents (GameTime gameTime) : IEnumerable&lt;IGameStateComponent&gt;</text>
</g>
<!-- Box_IGameStateComponent&#45;&gt;Box_GameStateComponent -->
<g id="edge6" class="edge"><title>Box_IGameStateComponent&#45;&gt;Box_GameStateComponent</title>
<path fill="none" stroke="midnightblue" d="M198.996,-345.005C206.749,-335.314 214.948,-325.065 222.928,-315.09"/>
<polygon fill="none" stroke="midnightblue" points="196.118,-343 192.604,-352.995 201.584,-347.373 196.118,-343"/>
</g>
<!-- Box_XnaGameComponent -->
<g id="node4" class="node"><title>Box_XnaGameComponent</title>
<polygon fill="#ffffff" stroke="black" points="335.5,-385 335.5,-405 432.5,-405 432.5,-385 335.5,-385"/>
<text text-anchor="middle" x="384" y="-393.8" font-family="Helvetica,sans-Serif" font-size="8.00">Xna.GameComponent</text>
</g>
<!-- Box_XnaGameComponent&#45;&gt;Box_GameStateComponent -->
<g id="edge4" class="edge"><title>Box_XnaGameComponent&#45;&gt;Box_GameStateComponent</title>
<path fill="none" stroke="midnightblue" d="M369.529,-377.071C356.811,-361.314 337.556,-337.459 319.432,-315.004"/>
<polygon fill="none" stroke="midnightblue" points="366.869,-379.348 375.873,-384.932 372.316,-374.952 366.869,-379.348"/>
</g>
<!-- Box_XnaIGameComponent -->
<g id="node5" class="node"><title>Box_XnaIGameComponent</title>
<polygon fill="#ffffff" stroke="black" points="109.5,-475 109.5,-495 208.5,-495 208.5,-475 109.5,-475"/>
<text text-anchor="middle" x="159" y="-483.8" font-family="Helvetica,sans-Serif" font-size="8.00">Xna.IGameComponent</text>
</g>
<!-- Box_XnaIGameComponent&#45;&gt;Box_IGameStateComponent -->
<g id="edge8" class="edge"><title>Box_XnaIGameComponent&#45;&gt;Box_IGameStateComponent</title>
<path fill="none" stroke="midnightblue" d="M159,-464.454C159,-456.393 159,-446.828 159,-437.414"/>
<polygon fill="none" stroke="midnightblue" points="155.5,-464.676 159,-474.676 162.5,-464.676 155.5,-464.676"/>
</g>
</g>
</svg>
