<?xml version="1.0" encoding="UTF-8" standalone="no"?>
<!DOCTYPE svg PUBLIC "-//W3C//DTD SVG 1.1//EN"
 "http://www.w3.org/Graphics/SVG/1.1/DTD/svg11.dtd">
<!-- Generated by graphviz version 2.26.3 (20100126.1600)
 -->
<!-- Title: MenuItem Pages: 1 -->
<svg width="779pt" height="1098pt"
 viewBox="0.00 0.00 779.00 1098.00" xmlns="http://www.w3.org/2000/svg" xmlns:xlink="http://www.w3.org/1999/xlink">
<g id="graph1" class="graph" transform="scale(1 1) rotate(0) translate(4 1094)">
<title>MenuItem</title>
<polygon fill="white" stroke="white" points="-4,5 -4,-1094 776,-1094 776,5 -4,5"/>
<!-- Box_ItemWidget -->
<g id="node1" class="node"><title>Box_ItemWidget</title>
<polygon fill="#fcfcda" stroke="black" points="420.5,-521 420.5,-617 749.5,-617 749.5,-521 420.5,-521"/>
<text text-anchor="middle" x="585" y="-605.8" font-family="Helvetica,sans-Serif" font-size="8.00">ItemWidget</text>
<polyline fill="none" stroke="black" points="420.5,-597 749.5,-597 "/>
<text text-anchor="start" x="428.5" y="-585.8" font-family="Helvetica,sans-Serif" font-size="8.00">Attributes:</text>
<text text-anchor="start" x="428.5" y="-573.8" font-family="Helvetica,sans-Serif" font-size="8.00">+ ItemState : ItemState</text>
<text text-anchor="start" x="428.5" y="-561.8" font-family="Helvetica,sans-Serif" font-size="8.00"># ItemNum : int</text>
<text text-anchor="start" x="428.5" y="-549.8" font-family="Helvetica,sans-Serif" font-size="8.00">Methods:</text>
<polyline fill="none" stroke="black" points="420.5,-541 749.5,-541 "/>
<text text-anchor="start" x="428.5" y="-529.8" font-family="Helvetica,sans-Serif" font-size="8.00">+ ItemWidget (GameState state, WidgetInfo info, DisplayLayer drawOrder, int itemNum)</text>
</g>
<!-- Box_MenuItem -->
<g id="node5" class="node"><title>Box_MenuItem</title>
<polygon fill="#fcfcda" stroke="black" points="195.5,-243 195.5,-483 530.5,-483 530.5,-243 195.5,-243"/>
<text text-anchor="middle" x="363" y="-471.8" font-family="Helvetica,sans-Serif" font-size="8.00">MenuItem</text>
<polyline fill="none" stroke="black" points="195.5,-463 530.5,-463 "/>
<text text-anchor="start" x="203.5" y="-451.8" font-family="Helvetica,sans-Serif" font-size="8.00">Attributes:</text>
<text text-anchor="start" x="203.5" y="-439.8" font-family="Helvetica,sans-Serif" font-size="8.00"># spriteBatch : SpriteBatch</text>
<text text-anchor="start" x="203.5" y="-427.8" font-family="Helvetica,sans-Serif" font-size="8.00">+ IsMouseEventEnabled : bool</text>
<text text-anchor="start" x="203.5" y="-415.8" font-family="Helvetica,sans-Serif" font-size="8.00">+ ValidKeys : List&lt;Keys&gt;</text>
<text text-anchor="start" x="203.5" y="-403.8" font-family="Helvetica,sans-Serif" font-size="8.00">+ IsKeyEventEnabled : bool</text>
<text text-anchor="start" x="203.5" y="-391.8" font-family="Helvetica,sans-Serif" font-size="8.00">+ Info : MenuItemInfo</text>
<text text-anchor="start" x="203.5" y="-379.8" font-family="Helvetica,sans-Serif" font-size="8.00">Methods:</text>
<polyline fill="none" stroke="black" points="195.5,-371 530.5,-371 "/>
<text text-anchor="start" x="203.5" y="-359.8" font-family="Helvetica,sans-Serif" font-size="8.00">+ MenuItem (GameState state, DisplayLayer drawOrder, int itemNum, MenuItemInfo info)</text>
<text text-anchor="start" x="203.5" y="-347.8" font-family="Helvetica,sans-Serif" font-size="8.00">+ Collapse () virtual</text>
<text text-anchor="start" x="203.5" y="-335.8" font-family="Helvetica,sans-Serif" font-size="8.00">+ OnKeyEvent (List&lt;Keys&gt; key, KeyEvent keyEvent, GameTime gameTime)</text>
<text text-anchor="start" x="203.5" y="-323.8" font-family="Helvetica,sans-Serif" font-size="8.00">+ OnLeftClick (Vector2 position, ClickState click, GameTime gameTime)</text>
<text text-anchor="start" x="203.5" y="-311.8" font-family="Helvetica,sans-Serif" font-size="8.00">+ OnRightClick (Vector2 position, ClickState click, GameTime gameTime)</text>
<text text-anchor="start" x="203.5" y="-299.8" font-family="Helvetica,sans-Serif" font-size="8.00">+ MinimumSize (SpriteFont font) : Vector2</text>
<text text-anchor="start" x="203.5" y="-287.8" font-family="Helvetica,sans-Serif" font-size="8.00">+ TextPosition (SpriteFont font) : Vector2</text>
<text text-anchor="start" x="203.5" y="-275.8" font-family="Helvetica,sans-Serif" font-size="8.00">+ TextPosition (SpriteFont font, Vector2 scale) : Vector2</text>
<text text-anchor="start" x="203.5" y="-263.8" font-family="Helvetica,sans-Serif" font-size="8.00">+ Draw (GameTime gameTime)</text>
<text text-anchor="start" x="203.5" y="-251.8" font-family="Helvetica,sans-Serif" font-size="8.00">+ SetHovered (bool hovered)</text>
</g>
<!-- Box_ItemWidget&#45;&gt;Box_MenuItem -->
<g id="edge12" class="edge"><title>Box_ItemWidget&#45;&gt;Box_MenuItem</title>
<path fill="none" stroke="midnightblue" d="M525.796,-514.063C515.385,-504.402 504.19,-494.014 492.721,-483.372"/>
<polygon fill="none" stroke="midnightblue" points="523.52,-516.726 533.231,-520.962 528.281,-511.595 523.52,-516.726"/>
</g>
<!-- Box_Widget -->
<g id="node2" class="node"><title>Box_Widget</title>
<polygon fill="#fcfcda" stroke="black" points="452,-655 452,-763 718,-763 718,-655 452,-655"/>
<text text-anchor="middle" x="585" y="-751.8" font-family="Helvetica,sans-Serif" font-size="8.00">Widget</text>
<polyline fill="none" stroke="black" points="452,-743 718,-743 "/>
<text text-anchor="start" x="460" y="-731.8" font-family="Helvetica,sans-Serif" font-size="8.00">Attributes:</text>
<text text-anchor="start" x="460" y="-719.8" font-family="Helvetica,sans-Serif" font-size="8.00">+ Info : WidgetInfo</text>
<text text-anchor="start" x="460" y="-707.8" font-family="Helvetica,sans-Serif" font-size="8.00">+ IsVisible : bool virtual</text>
<text text-anchor="start" x="460" y="-695.8" font-family="Helvetica,sans-Serif" font-size="8.00">Methods:</text>
<polyline fill="none" stroke="black" points="452,-687 718,-687 "/>
<text text-anchor="start" x="460" y="-675.8" font-family="Helvetica,sans-Serif" font-size="8.00">+ bounds () : Rectangle</text>
<text text-anchor="start" x="460" y="-663.8" font-family="Helvetica,sans-Serif" font-size="8.00">+ Widget (GameState state, WidgetInfo info, DisplayLayer drawOrder)</text>
</g>
<!-- Box_Widget&#45;&gt;Box_ItemWidget -->
<g id="edge2" class="edge"><title>Box_Widget&#45;&gt;Box_ItemWidget</title>
<path fill="none" stroke="midnightblue" d="M585,-644.821C585,-635.478 585,-625.996 585,-617.047"/>
<polygon fill="none" stroke="midnightblue" points="581.5,-644.872 585,-654.872 588.5,-644.872 581.5,-644.872"/>
</g>
<!-- Box_DrawableGameStateComponent -->
<g id="node3" class="node"><title>Box_DrawableGameStateComponent</title>
<polygon fill="#fcfcda" stroke="black" points="414.5,-801 414.5,-909 755.5,-909 755.5,-801 414.5,-801"/>
<text text-anchor="middle" x="585" y="-897.8" font-family="Helvetica,sans-Serif" font-size="8.00">DrawableGameStateComponent</text>
<polyline fill="none" stroke="black" points="414.5,-889 755.5,-889 "/>
<text text-anchor="start" x="422.5" y="-877.8" font-family="Helvetica,sans-Serif" font-size="8.00">Attributes:</text>
<text text-anchor="start" x="422.5" y="-865.8" font-family="Helvetica,sans-Serif" font-size="8.00">+ state : GameState</text>
<text text-anchor="start" x="422.5" y="-853.8" font-family="Helvetica,sans-Serif" font-size="8.00">+ Index : int</text>
<text text-anchor="start" x="422.5" y="-841.8" font-family="Helvetica,sans-Serif" font-size="8.00">Methods:</text>
<polyline fill="none" stroke="black" points="414.5,-833 755.5,-833 "/>
<text text-anchor="start" x="422.5" y="-821.8" font-family="Helvetica,sans-Serif" font-size="8.00">+ DrawableGameStateComponent (GameState state, DisplayLayer drawOrder)</text>
<text text-anchor="start" x="422.5" y="-809.8" font-family="Helvetica,sans-Serif" font-size="8.00">+ SubComponents (GameTime gameTime) : IEnumerable&lt;IGameStateComponent&gt; virtual</text>
</g>
<!-- Box_DrawableGameStateComponent&#45;&gt;Box_Widget -->
<g id="edge4" class="edge"><title>Box_DrawableGameStateComponent&#45;&gt;Box_Widget</title>
<path fill="none" stroke="midnightblue" d="M585,-790.523C585,-781.474 585,-772.248 585,-763.41"/>
<polygon fill="none" stroke="midnightblue" points="581.5,-790.635 585,-800.635 588.5,-790.635 581.5,-790.635"/>
</g>
<!-- Box_IGameStateComponent -->
<g id="node4" class="node"><title>Box_IGameStateComponent</title>
<polygon fill="#dafcda" stroke="black" points="305,-947 305,-1031 623,-1031 623,-947 305,-947"/>
<text text-anchor="middle" x="464" y="-1019.8" font-family="Helvetica,sans-Serif" font-size="8.00">IGameStateComponent</text>
<polyline fill="none" stroke="black" points="305,-1011 623,-1011 "/>
<text text-anchor="start" x="313" y="-999.8" font-family="Helvetica,sans-Serif" font-size="8.00">Attributes:</text>
<text text-anchor="start" x="313" y="-987.8" font-family="Helvetica,sans-Serif" font-size="8.00">+ Index : int</text>
<text text-anchor="start" x="313" y="-975.8" font-family="Helvetica,sans-Serif" font-size="8.00">Methods:</text>
<polyline fill="none" stroke="black" points="305,-967 623,-967 "/>
<text text-anchor="start" x="313" y="-955.8" font-family="Helvetica,sans-Serif" font-size="8.00">+ SubComponents (GameTime gameTime) : IEnumerable&lt;IGameStateComponent&gt;</text>
</g>
<!-- Box_IGameStateComponent&#45;&gt;Box_DrawableGameStateComponent -->
<g id="edge8" class="edge"><title>Box_IGameStateComponent&#45;&gt;Box_DrawableGameStateComponent</title>
<path fill="none" stroke="midnightblue" d="M508.666,-939.535C517.59,-929.653 527.007,-919.224 536.065,-909.192"/>
<polygon fill="none" stroke="midnightblue" points="506.057,-937.202 501.953,-946.969 511.253,-941.893 506.057,-937.202"/>
</g>
<!-- Box_DropDownMenu -->
<g id="node6" class="node"><title>Box_DropDownMenu</title>
<polygon fill="#fcfcda" stroke="black" points="-0.5,-1 -0.5,-205 358.5,-205 358.5,-1 -0.5,-1"/>
<text text-anchor="middle" x="179" y="-193.8" font-family="Helvetica,sans-Serif" font-size="8.00">DropDownMenu</text>
<polyline fill="none" stroke="black" points="-0.5,-185 358.5,-185 "/>
<text text-anchor="start" x="7.5" y="-173.8" font-family="Helvetica,sans-Serif" font-size="8.00">Attributes:</text>
<text text-anchor="start" x="7.5" y="-161.8" font-family="Helvetica,sans-Serif" font-size="8.00">&#45; selected : MenuButton</text>
<text text-anchor="start" x="7.5" y="-149.8" font-family="Helvetica,sans-Serif" font-size="8.00">&#45; dropdown : VerticalMenu</text>
<text text-anchor="start" x="7.5" y="-137.8" font-family="Helvetica,sans-Serif" font-size="8.00">Methods:</text>
<polyline fill="none" stroke="black" points="-0.5,-129 358.5,-129 "/>
<text text-anchor="start" x="7.5" y="-117.8" font-family="Helvetica,sans-Serif" font-size="8.00">&#45; ValuePosition (int dummy) : Vector2</text>
<text text-anchor="start" x="7.5" y="-105.8" font-family="Helvetica,sans-Serif" font-size="8.00">+ DropDownMenu (GameState state, DisplayLayer drawOrder, int itemNum, MenuItemInfo info)</text>
<text text-anchor="start" x="7.5" y="-93.8" font-family="Helvetica,sans-Serif" font-size="8.00">&#45; DropDownBackgroundColor (ItemState itemState) : Color</text>
<text text-anchor="start" x="7.5" y="-81.8" font-family="Helvetica,sans-Serif" font-size="8.00">&#45; DropDownForegroundColor (ItemState itemState) : Color</text>
<text text-anchor="start" x="7.5" y="-69.8" font-family="Helvetica,sans-Serif" font-size="8.00">&#45; ValueSize (int dummy) : Vector2</text>
<text text-anchor="start" x="7.5" y="-57.8" font-family="Helvetica,sans-Serif" font-size="8.00">+ SubComponents (GameTime gameTime) : IEnumerable&lt;IGameStateComponent&gt;</text>
<text text-anchor="start" x="7.5" y="-45.8" font-family="Helvetica,sans-Serif" font-size="8.00">+ Collapse ()</text>
<text text-anchor="start" x="7.5" y="-33.8" font-family="Helvetica,sans-Serif" font-size="8.00">+ Draw (GameTime gameTime)</text>
<text text-anchor="start" x="7.5" y="-21.8" font-family="Helvetica,sans-Serif" font-size="8.00">+ AddEntries (DistinctOptionInfo option)</text>
<text text-anchor="start" x="7.5" y="-9.8" font-family="Helvetica,sans-Serif" font-size="8.00">+ AddEntries (DropDownMenuItem[] entries, DropDownMenuItem defaultEntry)</text>
</g>
<!-- Box_MenuItem&#45;&gt;Box_DropDownMenu -->
<g id="edge18" class="edge"><title>Box_MenuItem&#45;&gt;Box_DropDownMenu</title>
<path fill="none" stroke="midnightblue" d="M272.122,-234.586C265.116,-224.686 258.101,-214.773 251.24,-205.078"/>
<polygon fill="none" stroke="midnightblue" points="269.368,-236.753 278.002,-242.894 275.082,-232.709 269.368,-236.753"/>
</g>
<!-- Box_MenuButton -->
<g id="node7" class="node"><title>Box_MenuButton</title>
<polygon fill="#fcfcda" stroke="black" points="375.5,-67 375.5,-139 718.5,-139 718.5,-67 375.5,-67"/>
<text text-anchor="middle" x="547" y="-127.8" font-family="Helvetica,sans-Serif" font-size="8.00">MenuButton</text>
<polyline fill="none" stroke="black" points="375.5,-119 718.5,-119 "/>
<text text-anchor="start" x="383.5" y="-107.8" font-family="Helvetica,sans-Serif" font-size="8.00">Attributes:</text>
<text text-anchor="start" x="383.5" y="-95.8" font-family="Helvetica,sans-Serif" font-size="8.00">Methods:</text>
<polyline fill="none" stroke="black" points="375.5,-87 718.5,-87 "/>
<text text-anchor="start" x="383.5" y="-75.8" font-family="Helvetica,sans-Serif" font-size="8.00">+ MenuButton (GameState state, DisplayLayer drawOrder, int itemNum, MenuItemInfo info)</text>
</g>
<!-- Box_MenuItem&#45;&gt;Box_MenuButton -->
<g id="edge20" class="edge"><title>Box_MenuItem&#45;&gt;Box_MenuButton</title>
<path fill="none" stroke="midnightblue" d="M453.962,-234.467C478.782,-199.395 503.703,-164.181 521.497,-139.037"/>
<polygon fill="none" stroke="midnightblue" points="450.918,-232.709 447.998,-242.894 456.632,-236.753 450.918,-232.709"/>
</g>
<!-- Box_XnaDrawableGameComponent -->
<g id="node8" class="node"><title>Box_XnaDrawableGameComponent</title>
<polygon fill="#ffffff" stroke="black" points="640.5,-979 640.5,-999 771.5,-999 771.5,-979 640.5,-979"/>
<text text-anchor="middle" x="706" y="-987.8" font-family="Helvetica,sans-Serif" font-size="8.00">Xna.DrawableGameComponent</text>
</g>
<!-- Box_XnaDrawableGameComponent&#45;&gt;Box_DrawableGameStateComponent -->
<g id="edge6" class="edge"><title>Box_XnaDrawableGameComponent&#45;&gt;Box_DrawableGameStateComponent</title>
<path fill="none" stroke="midnightblue" d="M690.148,-971.445C675.817,-955.574 653.95,-931.357 633.861,-909.111"/>
<polygon fill="none" stroke="midnightblue" points="687.606,-973.852 696.905,-978.928 692.801,-969.161 687.606,-973.852"/>
</g>
<!-- Box_XnaIGameComponent -->
<g id="node9" class="node"><title>Box_XnaIGameComponent</title>
<polygon fill="#ffffff" stroke="black" points="414.5,-1069 414.5,-1089 513.5,-1089 513.5,-1069 414.5,-1069"/>
<text text-anchor="middle" x="464" y="-1077.8" font-family="Helvetica,sans-Serif" font-size="8.00">Xna.IGameComponent</text>
</g>
<!-- Box_XnaIGameComponent&#45;&gt;Box_IGameStateComponent -->
<g id="edge10" class="edge"><title>Box_XnaIGameComponent&#45;&gt;Box_IGameStateComponent</title>
<path fill="none" stroke="midnightblue" d="M464,-1058.45C464,-1050.39 464,-1040.83 464,-1031.41"/>
<polygon fill="none" stroke="midnightblue" points="460.5,-1058.68 464,-1068.68 467.5,-1058.68 460.5,-1058.68"/>
</g>
<!-- Box_IMouseEventListener -->
<g id="node10" class="node"><title>Box_IMouseEventListener</title>
<polygon fill="#ffffff" stroke="black" points="213,-559 213,-579 305,-579 305,-559 213,-559"/>
<text text-anchor="middle" x="259" y="-567.8" font-family="Helvetica,sans-Serif" font-size="8.00">IMouseEventListener</text>
</g>
<!-- Box_IMouseEventListener&#45;&gt;Box_MenuItem -->
<g id="edge14" class="edge"><title>Box_IMouseEventListener&#45;&gt;Box_MenuItem</title>
<path fill="none" stroke="midnightblue" d="M268.869,-549.452C277,-533.345 289.277,-509.028 302.304,-483.226"/>
<polygon fill="none" stroke="midnightblue" points="265.54,-548.28 264.157,-558.784 271.789,-551.435 265.54,-548.28"/>
</g>
<!-- Box_IKeyEventListener -->
<g id="node11" class="node"><title>Box_IKeyEventListener</title>
<polygon fill="#ffffff" stroke="black" points="322.5,-559 322.5,-579 403.5,-579 403.5,-559 322.5,-559"/>
<text text-anchor="middle" x="363" y="-567.8" font-family="Helvetica,sans-Serif" font-size="8.00">IKeyEventListener</text>
</g>
<!-- Box_IKeyEventListener&#45;&gt;Box_MenuItem -->
<g id="edge16" class="edge"><title>Box_IKeyEventListener&#45;&gt;Box_MenuItem</title>
<path fill="none" stroke="midnightblue" d="M363,-548.523C363,-532.418 363,-508.536 363,-483.226"/>
<polygon fill="none" stroke="midnightblue" points="359.5,-548.784 363,-558.784 366.5,-548.784 359.5,-548.784"/>
</g>
</g>
</svg>
