<?xml version="1.0" encoding="UTF-8" standalone="no"?>
<!DOCTYPE svg PUBLIC "-//W3C//DTD SVG 1.1//EN"
 "http://www.w3.org/Graphics/SVG/1.1/DTD/svg11.dtd">
<!-- Generated by graphviz version 2.26.3 (20100126.1600)
 -->
<!-- Title: MenuItem Pages: 1 -->
<svg width="4004pt" height="3333pt"
 viewBox="0.00 0.00 961.00 800.00" xmlns="http://www.w3.org/2000/svg" xmlns:xlink="http://www.w3.org/1999/xlink">
<g id="graph1" class="graph" transform="scale(4.16667 4.16667) rotate(0) translate(4 796)">
<title>MenuItem</title>
<polygon fill="white" stroke="white" points="-4,5 -4,-796 958,-796 958,5 -4,5"/>
<!-- Box_MenuButton -->
<g id="node1" class="node"><title>Box_MenuButton</title>
<polygon fill="#fcfcda" stroke="black" points="263,-1 263,-55 619,-55 619,-1 263,-1"/>
<text text-anchor="middle" x="441" y="-43.8" font-family="Arial" font-size="8.00">MenuButton</text>
<polyline fill="none" stroke="black" points="263,-37 619,-37 "/>
<text text-anchor="middle" x="441" y="-25.8" font-family="Arial" font-size="8.00"> </text>
<polyline fill="none" stroke="black" points="263,-19 619,-19 "/>
<text text-anchor="start" x="271" y="-7.8" font-family="Arial" font-size="8.00">+ MenuButton (GameScreen screen, DisplayLayer drawOrder, int itemNum, MenuItemInfo info)</text>
</g>
<!-- Box_MenuItem -->
<g id="node2" class="node"><title>Box_MenuItem</title>
<polygon fill="#fcfcda" stroke="black" points="267.5,-93 267.5,-277 614.5,-277 614.5,-93 267.5,-93"/>
<text text-anchor="middle" x="441" y="-265.8" font-family="Arial" font-size="8.00">MenuItem</text>
<polyline fill="none" stroke="black" points="267.5,-259 614.5,-259 "/>
<text text-anchor="start" x="275.5" y="-247.8" font-family="Arial" font-size="8.00"># spriteBatch : SpriteBatch</text>
<text text-anchor="start" x="275.5" y="-237.8" font-family="Arial" font-size="8.00">+ IsMouseEventEnabled : bool</text>
<text text-anchor="start" x="275.5" y="-227.8" font-family="Arial" font-size="8.00">+ ValidKeys : List&lt;Keys&gt;</text>
<text text-anchor="start" x="275.5" y="-217.8" font-family="Arial" font-size="8.00">+ IsKeyEventEnabled : bool</text>
<text text-anchor="start" x="275.5" y="-207.8" font-family="Arial" font-size="8.00">+ Info : MenuItemInfo</text>
<polyline fill="none" stroke="black" points="267.5,-201 614.5,-201 "/>
<text text-anchor="start" x="275.5" y="-189.8" font-family="Arial" font-size="8.00">+ MenuItem (GameScreen screen, DisplayLayer drawOrder, int itemNum, MenuItemInfo info)</text>
<text text-anchor="start" x="275.5" y="-179.8" font-family="Arial" font-size="8.00">+ Collapse () virtual</text>
<text text-anchor="start" x="275.5" y="-169.8" font-family="Arial" font-size="8.00">+ OnKeyEvent (List&lt;Keys&gt; key, KeyEvent keyEvent, GameTime gameTime)</text>
<text text-anchor="start" x="275.5" y="-159.8" font-family="Arial" font-size="8.00">+ OnLeftClick (Vector2 position, ClickState click, GameTime gameTime)</text>
<text text-anchor="start" x="275.5" y="-149.8" font-family="Arial" font-size="8.00">+ OnRightClick (Vector2 position, ClickState click, GameTime gameTime)</text>
<text text-anchor="start" x="275.5" y="-139.8" font-family="Arial" font-size="8.00">+ MinimumSize (SpriteFont font) : Vector2</text>
<text text-anchor="start" x="275.5" y="-129.8" font-family="Arial" font-size="8.00">+ TextPosition (SpriteFont font) : Vector2</text>
<text text-anchor="start" x="275.5" y="-119.8" font-family="Arial" font-size="8.00">+ TextPosition (SpriteFont font, Vector2 scale) : Vector2</text>
<text text-anchor="start" x="275.5" y="-109.8" font-family="Arial" font-size="8.00">+ Draw (GameTime gameTime)</text>
<text text-anchor="start" x="275.5" y="-99.8" font-family="Arial" font-size="8.00">+ SetHovered (bool hovered)</text>
</g>
<!-- Box_MenuItem&#45;&gt;Box_MenuButton -->
<g id="edge2" class="edge"><title>Box_MenuItem&#45;&gt;Box_MenuButton</title>
<path fill="none" stroke="midnightblue" d="M441,-82.5882C441,-72.5758 441,-63.1372 441,-55.0144"/>
<polygon fill="none" stroke="midnightblue" points="437.5,-82.7643 441,-92.7643 444.5,-82.7644 437.5,-82.7643"/>
</g>
<!-- Box_IKeyEventListener -->
<g id="node3" class="node"><title>Box_IKeyEventListener</title>
<polygon fill="#dafcda" stroke="black" points="-0.5,-325 -0.5,-399 286.5,-399 286.5,-325 -0.5,-325"/>
<text text-anchor="middle" x="143" y="-387.8" font-family="Arial" font-size="8.00">IKeyEventListener</text>
<polyline fill="none" stroke="black" points="-0.5,-381 286.5,-381 "/>
<text text-anchor="start" x="7.5" y="-369.8" font-family="Arial" font-size="8.00">+ ValidKeys : List&lt;Keys&gt;</text>
<text text-anchor="start" x="7.5" y="-359.8" font-family="Arial" font-size="8.00">+ Index : DisplayLayer</text>
<text text-anchor="start" x="7.5" y="-349.8" font-family="Arial" font-size="8.00">+ IsKeyEventEnabled : bool</text>
<polyline fill="none" stroke="black" points="-0.5,-343 286.5,-343 "/>
<text text-anchor="start" x="7.5" y="-331.8" font-family="Arial" font-size="8.00">+ OnKeyEvent (List&lt;Keys&gt; key, KeyEvent keyEvent, GameTime gameTime)</text>
</g>
<!-- Box_IKeyEventListener&#45;&gt;Box_MenuItem -->
<g id="edge8" class="edge"><title>Box_IKeyEventListener&#45;&gt;Box_MenuItem</title>
<path fill="none" stroke="midnightblue" d="M214.278,-319.664C236.028,-306.745 260.847,-292.004 285.895,-277.126"/>
<polygon fill="none" stroke="midnightblue" points="212.281,-316.779 205.471,-324.895 215.856,-322.797 212.281,-316.779"/>
</g>
<!-- Box_IMouseEventListener -->
<g id="node4" class="node"><title>Box_IMouseEventListener</title>
<polygon fill="#dafcda" stroke="black" points="304,-315 304,-409 578,-409 578,-315 304,-315"/>
<text text-anchor="middle" x="441" y="-397.8" font-family="Arial" font-size="8.00">IMouseEventListener</text>
<polyline fill="none" stroke="black" points="304,-391 578,-391 "/>
<text text-anchor="start" x="312" y="-379.8" font-family="Arial" font-size="8.00">+ Index : DisplayLayer</text>
<text text-anchor="start" x="312" y="-369.8" font-family="Arial" font-size="8.00">+ IsMouseEventEnabled : bool</text>
<polyline fill="none" stroke="black" points="304,-363 578,-363 "/>
<text text-anchor="start" x="312" y="-351.8" font-family="Arial" font-size="8.00">+ OnLeftClick (Vector2 position, ClickState click, GameTime gameTime)</text>
<text text-anchor="start" x="312" y="-341.8" font-family="Arial" font-size="8.00">+ OnRightClick (Vector2 position, ClickState click, GameTime gameTime)</text>
<text text-anchor="start" x="312" y="-331.8" font-family="Arial" font-size="8.00">+ SetHovered (bool hovered)</text>
<text text-anchor="start" x="312" y="-321.8" font-family="Arial" font-size="8.00">+ bounds () : Rectangle</text>
</g>
<!-- Box_IMouseEventListener&#45;&gt;Box_MenuItem -->
<g id="edge6" class="edge"><title>Box_IMouseEventListener&#45;&gt;Box_MenuItem</title>
<path fill="none" stroke="midnightblue" d="M441,-304.543C441,-295.801 441,-286.597 441,-277.337"/>
<polygon fill="none" stroke="midnightblue" points="437.5,-304.567 441,-314.567 444.5,-304.567 437.5,-304.567"/>
</g>
<!-- Box_ItemWidget -->
<g id="node5" class="node"><title>Box_ItemWidget</title>
<polygon fill="#fcfcda" stroke="black" points="596,-330 596,-394 940,-394 940,-330 596,-330"/>
<text text-anchor="middle" x="768" y="-382.8" font-family="Arial" font-size="8.00">ItemWidget</text>
<polyline fill="none" stroke="black" points="596,-376 940,-376 "/>
<text text-anchor="start" x="604" y="-364.8" font-family="Arial" font-size="8.00">+ ItemState : ItemState</text>
<text text-anchor="start" x="604" y="-354.8" font-family="Arial" font-size="8.00"># ItemNum : int</text>
<polyline fill="none" stroke="black" points="596,-348 940,-348 "/>
<text text-anchor="start" x="604" y="-336.8" font-family="Arial" font-size="8.00">+ ItemWidget (GameScreen screen, WidgetInfo info, DisplayLayer drawOrder, int itemNum)</text>
</g>
<!-- Box_ItemWidget&#45;&gt;Box_MenuItem -->
<g id="edge4" class="edge"><title>Box_ItemWidget&#45;&gt;Box_MenuItem</title>
<path fill="none" stroke="midnightblue" d="M699.767,-325.066C673.67,-310.94 642.599,-294.122 611.199,-277.126"/>
<polygon fill="none" stroke="midnightblue" points="698.322,-328.264 708.783,-329.947 701.655,-322.108 698.322,-328.264"/>
</g>
<!-- Box_Widget -->
<g id="node6" class="node"><title>Box_Widget</title>
<polygon fill="#fcfcda" stroke="black" points="626,-447 626,-521 910,-521 910,-447 626,-447"/>
<text text-anchor="middle" x="768" y="-509.8" font-family="Arial" font-size="8.00">Widget</text>
<polyline fill="none" stroke="black" points="626,-503 910,-503 "/>
<text text-anchor="start" x="634" y="-491.8" font-family="Arial" font-size="8.00">+ Info : WidgetInfo</text>
<text text-anchor="start" x="634" y="-481.8" font-family="Arial" font-size="8.00">+ IsVisible : bool virtual</text>
<polyline fill="none" stroke="black" points="626,-475 910,-475 "/>
<text text-anchor="start" x="634" y="-463.8" font-family="Arial" font-size="8.00">+ bounds () : Rectangle</text>
<text text-anchor="start" x="634" y="-453.8" font-family="Arial" font-size="8.00">+ Widget (GameScreen screen, WidgetInfo info, DisplayLayer drawOrder)</text>
</g>
<!-- Box_Widget&#45;&gt;Box_ItemWidget -->
<g id="edge10" class="edge"><title>Box_Widget&#45;&gt;Box_ItemWidget</title>
<path fill="none" stroke="midnightblue" d="M768,-436.6C768,-422.366 768,-407.091 768,-394.094"/>
<polygon fill="none" stroke="midnightblue" points="764.5,-436.733 768,-446.733 771.5,-436.733 764.5,-436.733"/>
</g>
<!-- Box_DrawableGameScreenComponent -->
<g id="node7" class="node"><title>Box_DrawableGameScreenComponent</title>
<polygon fill="#fcfcda" stroke="black" points="598.5,-559 598.5,-643 937.5,-643 937.5,-559 598.5,-559"/>
<text text-anchor="middle" x="768" y="-631.8" font-family="Arial" font-size="8.00">DrawableGameScreenComponent</text>
<polyline fill="none" stroke="black" points="598.5,-625 937.5,-625 "/>
<text text-anchor="start" x="606.5" y="-613.8" font-family="Arial" font-size="8.00">+ Index : DisplayLayer</text>
<text text-anchor="start" x="606.5" y="-603.8" font-family="Arial" font-size="8.00">&#45; _index : DisplayLayer</text>
<text text-anchor="start" x="606.5" y="-593.8" font-family="Arial" font-size="8.00">+ screen : GameScreen</text>
<polyline fill="none" stroke="black" points="598.5,-587 937.5,-587 "/>
<text text-anchor="start" x="606.5" y="-575.8" font-family="Arial" font-size="8.00">+ DrawableGameScreenComponent (GameScreen screen, DisplayLayer index)</text>
<text text-anchor="start" x="606.5" y="-565.8" font-family="Arial" font-size="8.00">+ SubComponents (GameTime gameTime) : IEnumerable&lt;IGameScreenComponent&gt; virtual</text>
</g>
<!-- Box_DrawableGameScreenComponent&#45;&gt;Box_Widget -->
<g id="edge12" class="edge"><title>Box_DrawableGameScreenComponent&#45;&gt;Box_Widget</title>
<path fill="none" stroke="midnightblue" d="M768,-548.482C768,-539.258 768,-529.834 768,-521.14"/>
<polygon fill="none" stroke="midnightblue" points="764.5,-548.76 768,-558.76 771.5,-548.76 764.5,-548.76"/>
</g>
<!-- Box_IGameScreenComponent -->
<g id="node8" class="node"><title>Box_IGameScreenComponent</title>
<polygon fill="#dafcda" stroke="black" points="490.5,-681 490.5,-735 805.5,-735 805.5,-681 490.5,-681"/>
<text text-anchor="middle" x="648" y="-723.8" font-family="Arial" font-size="8.00">IGameScreenComponent</text>
<polyline fill="none" stroke="black" points="490.5,-717 805.5,-717 "/>
<text text-anchor="start" x="498.5" y="-705.8" font-family="Arial" font-size="8.00">+ Index : DisplayLayer</text>
<polyline fill="none" stroke="black" points="490.5,-699 805.5,-699 "/>
<text text-anchor="start" x="498.5" y="-687.8" font-family="Arial" font-size="8.00">+ SubComponents (GameTime gameTime) : IEnumerable&lt;IGameScreenComponent&gt;</text>
</g>
<!-- Box_IGameScreenComponent&#45;&gt;Box_DrawableGameScreenComponent -->
<g id="edge16" class="edge"><title>Box_IGameScreenComponent&#45;&gt;Box_DrawableGameScreenComponent</title>
<path fill="none" stroke="midnightblue" d="M686.017,-674.102C696.949,-664.354 709.012,-653.598 720.444,-643.404"/>
<polygon fill="none" stroke="midnightblue" points="683.416,-671.732 678.281,-680.999 688.074,-676.956 683.416,-671.732"/>
</g>
<!-- Box_XnaDrawableGameComponent -->
<g id="node9" class="node"><title>Box_XnaDrawableGameComponent</title>
<polygon fill="#ffffff" stroke="black" points="823,-699 823,-717 953,-717 953,-699 823,-699"/>
<text text-anchor="middle" x="888" y="-705.8" font-family="Arial" font-size="8.00">Xna.DrawableGameComponent</text>
</g>
<!-- Box_XnaDrawableGameComponent&#45;&gt;Box_DrawableGameScreenComponent -->
<g id="edge14" class="edge"><title>Box_XnaDrawableGameComponent&#45;&gt;Box_DrawableGameScreenComponent</title>
<path fill="none" stroke="midnightblue" d="M870.077,-692.018C855.616,-679.124 834.59,-660.376 815.373,-643.241"/>
<polygon fill="none" stroke="midnightblue" points="867.976,-694.834 877.769,-698.877 872.634,-689.61 867.976,-694.834"/>
</g>
<!-- Box_XnaIGameComponent -->
<g id="node10" class="node"><title>Box_XnaIGameComponent</title>
<polygon fill="#ffffff" stroke="black" points="600,-773 600,-791 696,-791 696,-773 600,-773"/>
<text text-anchor="middle" x="648" y="-779.8" font-family="Arial" font-size="8.00">Xna.IGameComponent</text>
</g>
<!-- Box_XnaIGameComponent&#45;&gt;Box_IGameScreenComponent -->
<g id="edge18" class="edge"><title>Box_XnaIGameComponent&#45;&gt;Box_IGameScreenComponent</title>
<path fill="none" stroke="midnightblue" d="M648,-762.64C648,-754.2 648,-744.16 648,-735.004"/>
<polygon fill="none" stroke="midnightblue" points="644.5,-762.926 648,-772.926 651.5,-762.926 644.5,-762.926"/>
</g>
</g>
</svg>
