<?xml version="1.0" encoding="UTF-8" standalone="no"?>
<!DOCTYPE svg PUBLIC "-//W3C//DTD SVG 1.1//EN"
 "http://www.w3.org/Graphics/SVG/1.1/DTD/svg11.dtd">
<!-- Generated by graphviz version 2.26.3 (20100126.1600)
 -->
<!-- Title: MenuItem Pages: 1 -->
<svg width="618pt" height="180pt"
 viewBox="0.00 0.00 618.00 180.00" xmlns="http://www.w3.org/2000/svg" xmlns:xlink="http://www.w3.org/1999/xlink">
<g id="graph1" class="graph" transform="scale(1 1) rotate(0) translate(4 176)">
<title>MenuItem</title>
<polygon fill="white" stroke="white" points="-4,5 -4,-176 615,-176 615,5 -4,5"/>
<!-- Box_NodeModelFactory -->
<g id="node1" class="node"><title>Box_NodeModelFactory</title>
<polygon fill="#fcfcda" stroke="black" points="0,-1 0,-61 296,-61 296,-1 0,-1"/>
<text text-anchor="middle" x="148" y="-49.8" font-family="Helvetica,sans-Serif" font-size="8.00">NodeModelFactory</text>
<polyline fill="none" stroke="black" points="0,-41 296,-41 "/>
<text text-anchor="middle" x="148" y="-29.8" font-family="Helvetica,sans-Serif" font-size="8.00"> </text>
<polyline fill="none" stroke="black" points="0,-21 296,-21 "/>
<text text-anchor="start" x="8" y="-9.8" font-family="Helvetica,sans-Serif" font-size="8.00"># CreateModel (GameState state, GameModelInfo info) : GameModel override</text>
</g>
<!-- Box_PipeModelFactory -->
<g id="node2" class="node"><title>Box_PipeModelFactory</title>
<polygon fill="#fcfcda" stroke="black" points="314,-1 314,-61 610,-61 610,-1 314,-1"/>
<text text-anchor="middle" x="462" y="-49.8" font-family="Helvetica,sans-Serif" font-size="8.00">PipeModelFactory</text>
<polyline fill="none" stroke="black" points="314,-41 610,-41 "/>
<text text-anchor="middle" x="462" y="-29.8" font-family="Helvetica,sans-Serif" font-size="8.00"> </text>
<polyline fill="none" stroke="black" points="314,-21 610,-21 "/>
<text text-anchor="start" x="322" y="-9.8" font-family="Helvetica,sans-Serif" font-size="8.00"># CreateModel (GameState state, GameModelInfo info) : GameModel override</text>
</g>
<!-- Box_ModelFactory -->
<g id="node3" class="node"><title>Box_ModelFactory</title>
<polygon fill="#fcfcda" stroke="black" points="157,-99 157,-171 453,-171 453,-99 157,-99"/>
<text text-anchor="middle" x="305" y="-159.8" font-family="Helvetica,sans-Serif" font-size="8.00">ModelFactory</text>
<polyline fill="none" stroke="black" points="157,-151 453,-151 "/>
<text text-anchor="start" x="165" y="-139.8" font-family="Helvetica,sans-Serif" font-size="8.00">&#45; GameModel&gt; cache : Dictionary&lt;GameModelInfo, new</text>
<text text-anchor="start" x="165" y="-127.8" font-family="Helvetica,sans-Serif" font-size="8.00">+ this [GameState state, GameModelInfo info] : GameModel</text>
<polyline fill="none" stroke="black" points="157,-119 453,-119 "/>
<text text-anchor="start" x="165" y="-107.8" font-family="Helvetica,sans-Serif" font-size="8.00"># CreateModel (GameState state, GameModelInfo info) : GameModel abstract</text>
</g>
<!-- Box_ModelFactory&#45;&gt;Box_NodeModelFactory -->
<g id="edge2" class="edge"><title>Box_ModelFactory&#45;&gt;Box_NodeModelFactory</title>
<path fill="none" stroke="midnightblue" d="M242.131,-93.3545C225.879,-82.5888 208.696,-71.206 193.521,-61.1542"/>
<polygon fill="none" stroke="midnightblue" points="240.26,-96.3131 250.53,-98.9177 244.126,-90.4773 240.26,-96.3131"/>
</g>
<!-- Box_ModelFactory&#45;&gt;Box_PipeModelFactory -->
<g id="edge4" class="edge"><title>Box_ModelFactory&#45;&gt;Box_PipeModelFactory</title>
<path fill="none" stroke="midnightblue" d="M367.869,-93.3545C384.121,-82.5888 401.304,-71.206 416.479,-61.1542"/>
<polygon fill="none" stroke="midnightblue" points="365.874,-90.4773 359.47,-98.9177 369.74,-96.3131 365.874,-90.4773"/>
</g>
</g>
</svg>
