<?xml version="1.0" encoding="UTF-8" standalone="no"?>
<!DOCTYPE svg PUBLIC "-//W3C//DTD SVG 1.1//EN"
 "http://www.w3.org/Graphics/SVG/1.1/DTD/svg11.dtd">
<!-- Generated by graphviz version 2.26.3 (20100126.1600)
 -->
<!-- Title: MenuItem Pages: 1 -->
<svg width="1298pt" height="830pt"
 viewBox="0.00 0.00 1298.00 830.00" xmlns="http://www.w3.org/2000/svg" xmlns:xlink="http://www.w3.org/1999/xlink">
<g id="graph1" class="graph" transform="scale(1 1) rotate(0) translate(4 826)">
<title>MenuItem</title>
<polygon fill="white" stroke="white" points="-4,5 -4,-826 1295,-826 1295,5 -4,5"/>
<!-- Box_GameStateComponent -->
<g id="node1" class="node"><title>Box_GameStateComponent</title>
<polygon fill="#fcfcda" stroke="black" points="356.5,-533 356.5,-641 697.5,-641 697.5,-533 356.5,-533"/>
<text text-anchor="middle" x="527" y="-629.8" font-family="Helvetica,sans-Serif" font-size="8.00">GameStateComponent</text>
<polyline fill="none" stroke="black" points="356.5,-621 697.5,-621 "/>
<text text-anchor="start" x="364.5" y="-609.8" font-family="Helvetica,sans-Serif" font-size="8.00">Attributes:</text>
<text text-anchor="start" x="364.5" y="-597.8" font-family="Helvetica,sans-Serif" font-size="8.00">+ Index : DisplayLayer</text>
<text text-anchor="start" x="364.5" y="-585.8" font-family="Helvetica,sans-Serif" font-size="8.00">+ state : GameState</text>
<text text-anchor="start" x="364.5" y="-573.8" font-family="Helvetica,sans-Serif" font-size="8.00">Methods:</text>
<polyline fill="none" stroke="black" points="356.5,-565 697.5,-565 "/>
<text text-anchor="start" x="364.5" y="-553.8" font-family="Helvetica,sans-Serif" font-size="8.00">+ GameStateComponent (GameState state, DisplayLayer index)</text>
<text text-anchor="start" x="364.5" y="-541.8" font-family="Helvetica,sans-Serif" font-size="8.00">+ SubComponents (GameTime gameTime) : IEnumerable&lt;IGameStateComponent&gt; virtual</text>
</g>
<!-- Box_Camera -->
<g id="node3" class="node"><title>Box_Camera</title>
<polygon fill="#fcfcda" stroke="black" points="358,-111 358,-495 526,-495 526,-111 358,-111"/>
<text text-anchor="middle" x="442" y="-483.8" font-family="Helvetica,sans-Serif" font-size="8.00">Camera</text>
<polyline fill="none" stroke="black" points="358,-475 526,-475 "/>
<text text-anchor="start" x="366" y="-463.8" font-family="Helvetica,sans-Serif" font-size="8.00">Attributes:</text>
<text text-anchor="start" x="366" y="-451.8" font-family="Helvetica,sans-Serif" font-size="8.00">&#45; AutoRotation : Angles3</text>
<text text-anchor="start" x="366" y="-439.8" font-family="Helvetica,sans-Serif" font-size="8.00">&#45; _target : Vector3</text>
<text text-anchor="start" x="366" y="-427.8" font-family="Helvetica,sans-Serif" font-size="8.00">&#45; aspectRatio : float</text>
<text text-anchor="start" x="366" y="-415.8" font-family="Helvetica,sans-Serif" font-size="8.00">&#45; farPlane : float</text>
<text text-anchor="start" x="366" y="-403.8" font-family="Helvetica,sans-Serif" font-size="8.00">&#45; nearPlane : float</text>
<text text-anchor="start" x="366" y="-391.8" font-family="Helvetica,sans-Serif" font-size="8.00">+ Position : Vector3</text>
<text text-anchor="start" x="366" y="-379.8" font-family="Helvetica,sans-Serif" font-size="8.00">+ Target : Vector3</text>
<text text-anchor="start" x="366" y="-367.8" font-family="Helvetica,sans-Serif" font-size="8.00">+ TargetDirection : Vector3</text>
<text text-anchor="start" x="366" y="-355.8" font-family="Helvetica,sans-Serif" font-size="8.00">+ UpVector : Vector3</text>
<text text-anchor="start" x="366" y="-343.8" font-family="Helvetica,sans-Serif" font-size="8.00">+ FoV : float</text>
<text text-anchor="start" x="366" y="-331.8" font-family="Helvetica,sans-Serif" font-size="8.00">&#45; World : World</text>
<text text-anchor="start" x="366" y="-319.8" font-family="Helvetica,sans-Serif" font-size="8.00">&#45; _position : Vector3</text>
<text text-anchor="start" x="366" y="-307.8" font-family="Helvetica,sans-Serif" font-size="8.00">&#45; foV : float</text>
<text text-anchor="start" x="366" y="-295.8" font-family="Helvetica,sans-Serif" font-size="8.00">+ RotationAngle : Angles3</text>
<text text-anchor="start" x="366" y="-283.8" font-family="Helvetica,sans-Serif" font-size="8.00">+ ViewFrustum : BoundingFrustum</text>
<text text-anchor="start" x="366" y="-271.8" font-family="Helvetica,sans-Serif" font-size="8.00">+ ProjectionMatrix : Matrix</text>
<text text-anchor="start" x="366" y="-259.8" font-family="Helvetica,sans-Serif" font-size="8.00">+ ViewMatrix : Matrix</text>
<text text-anchor="start" x="366" y="-247.8" font-family="Helvetica,sans-Serif" font-size="8.00">+ WorldMatrix : Matrix</text>
<text text-anchor="start" x="366" y="-235.8" font-family="Helvetica,sans-Serif" font-size="8.00">+ ArcballTarget : Vector3</text>
<text text-anchor="start" x="366" y="-223.8" font-family="Helvetica,sans-Serif" font-size="8.00">+ DefaultPosition : Vector3</text>
<text text-anchor="start" x="366" y="-211.8" font-family="Helvetica,sans-Serif" font-size="8.00">+ TargetDistance : float</text>
<text text-anchor="start" x="366" y="-199.8" font-family="Helvetica,sans-Serif" font-size="8.00">Methods:</text>
<polyline fill="none" stroke="black" points="358,-191 526,-191 "/>
<text text-anchor="start" x="366" y="-179.8" font-family="Helvetica,sans-Serif" font-size="8.00">+ OnViewChanged () : Action</text>
<text text-anchor="start" x="366" y="-167.8" font-family="Helvetica,sans-Serif" font-size="8.00">+ Camera (GameState state, World world)</text>
<text text-anchor="start" x="366" y="-155.8" font-family="Helvetica,sans-Serif" font-size="8.00">+ GetMouseRay (Vector2 mouse) : Ray</text>
<text text-anchor="start" x="366" y="-143.8" font-family="Helvetica,sans-Serif" font-size="8.00">&#45; UpdateMatrices (GameTime gameTime)</text>
<text text-anchor="start" x="366" y="-131.8" font-family="Helvetica,sans-Serif" font-size="8.00">&#45; UpdateRotation (GameTime gameTime)</text>
<text text-anchor="start" x="366" y="-119.8" font-family="Helvetica,sans-Serif" font-size="8.00">+ Update (GameTime gameTime)</text>
</g>
<!-- Box_GameStateComponent&#45;&gt;Box_Camera -->
<g id="edge8" class="edge"><title>Box_GameStateComponent&#45;&gt;Box_Camera</title>
<path fill="none" stroke="midnightblue" d="M507.905,-523.201C505.261,-514.367 502.442,-504.947 499.513,-495.162"/>
<polygon fill="none" stroke="midnightblue" points="504.592,-524.337 510.812,-532.913 511.298,-522.33 504.592,-524.337"/>
</g>
<!-- Box_ClickHandler -->
<g id="node4" class="node"><title>Box_ClickHandler</title>
<polygon fill="#fcfcda" stroke="black" points="544,-255 544,-351 682,-351 682,-255 544,-255"/>
<text text-anchor="middle" x="613" y="-339.8" font-family="Helvetica,sans-Serif" font-size="8.00">ClickHandler</text>
<polyline fill="none" stroke="black" points="544,-331 682,-331 "/>
<text text-anchor="start" x="552" y="-319.8" font-family="Helvetica,sans-Serif" font-size="8.00">Attributes:</text>
<text text-anchor="start" x="552" y="-307.8" font-family="Helvetica,sans-Serif" font-size="8.00">&#45; ClickEventComponent : class</text>
<text text-anchor="start" x="552" y="-295.8" font-family="Helvetica,sans-Serif" font-size="8.00">Methods:</text>
<polyline fill="none" stroke="black" points="544,-287 682,-287 "/>
<text text-anchor="start" x="552" y="-275.8" font-family="Helvetica,sans-Serif" font-size="8.00">+ ClickHandler (GameState state)</text>
<text text-anchor="start" x="552" y="-263.8" font-family="Helvetica,sans-Serif" font-size="8.00">+ Update (GameTime gameTime)</text>
</g>
<!-- Box_GameStateComponent&#45;&gt;Box_ClickHandler -->
<g id="edge10" class="edge"><title>Box_GameStateComponent&#45;&gt;Box_ClickHandler</title>
<path fill="none" stroke="midnightblue" d="M546.348,-523.105C562.126,-471.002 584.071,-398.534 598.401,-351.209"/>
<polygon fill="none" stroke="midnightblue" points="542.927,-522.328 543.378,-532.913 549.626,-524.357 542.927,-522.328"/>
</g>
<!-- Box_Input -->
<g id="node5" class="node"><title>Box_Input</title>
<polygon fill="#fcfcda" stroke="black" points="700,-153 700,-453 986,-453 986,-153 700,-153"/>
<text text-anchor="middle" x="843" y="-441.8" font-family="Helvetica,sans-Serif" font-size="8.00">Input</text>
<polyline fill="none" stroke="black" points="700,-433 986,-433 "/>
<text text-anchor="start" x="708" y="-421.8" font-family="Helvetica,sans-Serif" font-size="8.00">Attributes:</text>
<text text-anchor="start" x="708" y="-409.8" font-family="Helvetica,sans-Serif" font-size="8.00">&#45; PreviousClickMouseState : MouseState static</text>
<text text-anchor="start" x="708" y="-397.8" font-family="Helvetica,sans-Serif" font-size="8.00">&#45; LeftButtonClickTimer : double static</text>
<text text-anchor="start" x="708" y="-385.8" font-family="Helvetica,sans-Serif" font-size="8.00">&#45; RightButtonClickTimer : double static</text>
<text text-anchor="start" x="708" y="-373.8" font-family="Helvetica,sans-Serif" font-size="8.00">+ GrabMouseMovement : bool</text>
<text text-anchor="start" x="708" y="-361.8" font-family="Helvetica,sans-Serif" font-size="8.00">+ LeftButton : ClickState static</text>
<text text-anchor="start" x="708" y="-349.8" font-family="Helvetica,sans-Serif" font-size="8.00">+ RightButton : ClickState static</text>
<text text-anchor="start" x="708" y="-337.8" font-family="Helvetica,sans-Serif" font-size="8.00">+ PreviousKeyboardState : KeyboardState static</text>
<text text-anchor="start" x="708" y="-325.8" font-family="Helvetica,sans-Serif" font-size="8.00">+ MouseState : MouseState static</text>
<text text-anchor="start" x="708" y="-313.8" font-family="Helvetica,sans-Serif" font-size="8.00">+ PreviousMouseState : MouseState static</text>
<text text-anchor="start" x="708" y="-301.8" font-family="Helvetica,sans-Serif" font-size="8.00"># FullscreenToggled : bool static</text>
<text text-anchor="start" x="708" y="-289.8" font-family="Helvetica,sans-Serif" font-size="8.00">+ CurrentInputAction : InputAction</text>
<text text-anchor="start" x="708" y="-277.8" font-family="Helvetica,sans-Serif" font-size="8.00">+ ValidKeys : List&lt;Keys&gt;</text>
<text text-anchor="start" x="708" y="-265.8" font-family="Helvetica,sans-Serif" font-size="8.00">+ WASDMode : WASDMode</text>
<text text-anchor="start" x="708" y="-253.8" font-family="Helvetica,sans-Serif" font-size="8.00">+ IsKeyEventEnabled : bool</text>
<text text-anchor="start" x="708" y="-241.8" font-family="Helvetica,sans-Serif" font-size="8.00">+ KeyboardState : KeyboardState static</text>
<text text-anchor="start" x="708" y="-229.8" font-family="Helvetica,sans-Serif" font-size="8.00">Methods:</text>
<polyline fill="none" stroke="black" points="700,-221 986,-221 "/>
<text text-anchor="start" x="708" y="-209.8" font-family="Helvetica,sans-Serif" font-size="8.00"># UpdateMouse (GameTime gameTime) virtual</text>
<text text-anchor="start" x="708" y="-197.8" font-family="Helvetica,sans-Serif" font-size="8.00">+ Update (GameTime gameTime)</text>
<text text-anchor="start" x="708" y="-185.8" font-family="Helvetica,sans-Serif" font-size="8.00">+ OnKeyEvent (List&lt;Keys&gt; key, KeyEvent keyEvent, GameTime gameTime)</text>
<text text-anchor="start" x="708" y="-173.8" font-family="Helvetica,sans-Serif" font-size="8.00"># UpdateKeys (GameTime gameTime) virtual</text>
<text text-anchor="start" x="708" y="-161.8" font-family="Helvetica,sans-Serif" font-size="8.00">+ Input (GameState state)</text>
</g>
<!-- Box_GameStateComponent&#45;&gt;Box_Input -->
<g id="edge12" class="edge"><title>Box_GameStateComponent&#45;&gt;Box_Input</title>
<path fill="none" stroke="midnightblue" d="M647.537,-527.498C662.806,-517.868 677.714,-507.307 691,-496 706.103,-483.146 720.734,-468.594 734.567,-453.384"/>
<polygon fill="none" stroke="midnightblue" points="645.696,-524.521 639.025,-532.752 649.373,-530.478 645.696,-524.521"/>
</g>
<!-- Box_KeyHandler -->
<g id="node7" class="node"><title>Box_KeyHandler</title>
<polygon fill="#fcfcda" stroke="black" points="0,-255 0,-351 138,-351 138,-255 0,-255"/>
<text text-anchor="middle" x="69" y="-339.8" font-family="Helvetica,sans-Serif" font-size="8.00">KeyHandler</text>
<polyline fill="none" stroke="black" points="0,-331 138,-331 "/>
<text text-anchor="start" x="8" y="-319.8" font-family="Helvetica,sans-Serif" font-size="8.00">Attributes:</text>
<text text-anchor="start" x="8" y="-307.8" font-family="Helvetica,sans-Serif" font-size="8.00">&#45; KeyEventComponent : class</text>
<text text-anchor="start" x="8" y="-295.8" font-family="Helvetica,sans-Serif" font-size="8.00">Methods:</text>
<polyline fill="none" stroke="black" points="0,-287 138,-287 "/>
<text text-anchor="start" x="8" y="-275.8" font-family="Helvetica,sans-Serif" font-size="8.00">+ KeyHandler (GameState state)</text>
<text text-anchor="start" x="8" y="-263.8" font-family="Helvetica,sans-Serif" font-size="8.00">+ Update (GameTime gameTime)</text>
</g>
<!-- Box_GameStateComponent&#45;&gt;Box_KeyHandler -->
<g id="edge18" class="edge"><title>Box_GameStateComponent&#45;&gt;Box_KeyHandler</title>
<path fill="none" stroke="midnightblue" d="M346.305,-559.911C263.948,-544.386 177.967,-522.664 147,-496 104.14,-459.095 84.5331,-395.184 75.766,-351.078"/>
<polygon fill="none" stroke="midnightblue" points="345.855,-563.388 356.327,-561.774 347.134,-556.506 345.855,-563.388"/>
</g>
<!-- Box_MousePicker -->
<g id="node8" class="node"><title>Box_MousePicker</title>
<polygon fill="#fcfcda" stroke="black" points="155.5,-237 155.5,-369 340.5,-369 340.5,-237 155.5,-237"/>
<text text-anchor="middle" x="248" y="-357.8" font-family="Helvetica,sans-Serif" font-size="8.00">MousePicker</text>
<polyline fill="none" stroke="black" points="155.5,-349 340.5,-349 "/>
<text text-anchor="start" x="163.5" y="-337.8" font-family="Helvetica,sans-Serif" font-size="8.00">Attributes:</text>
<text text-anchor="start" x="163.5" y="-325.8" font-family="Helvetica,sans-Serif" font-size="8.00">&#45; lastMousePosition : Vector2</text>
<text text-anchor="start" x="163.5" y="-313.8" font-family="Helvetica,sans-Serif" font-size="8.00">&#45; World : World</text>
<text text-anchor="start" x="163.5" y="-301.8" font-family="Helvetica,sans-Serif" font-size="8.00">&#45; lastRayCheck : double</text>
<text text-anchor="start" x="163.5" y="-289.8" font-family="Helvetica,sans-Serif" font-size="8.00">Methods:</text>
<polyline fill="none" stroke="black" points="155.5,-281 340.5,-281 "/>
<text text-anchor="start" x="163.5" y="-269.8" font-family="Helvetica,sans-Serif" font-size="8.00">+ MousePicker (GameState state, World world)</text>
<text text-anchor="start" x="163.5" y="-257.8" font-family="Helvetica,sans-Serif" font-size="8.00">+ Update (GameTime gameTime)</text>
<text text-anchor="start" x="163.5" y="-245.8" font-family="Helvetica,sans-Serif" font-size="8.00">+ UpdateMouseRay (GameTime gameTime)</text>
</g>
<!-- Box_GameStateComponent&#45;&gt;Box_MousePicker -->
<g id="edge20" class="edge"><title>Box_GameStateComponent&#45;&gt;Box_MousePicker</title>
<path fill="none" stroke="midnightblue" d="M388.552,-527.41C374.291,-518.096 360.749,-507.638 349,-496 313.265,-460.604 287.4,-409.894 270.794,-369.335"/>
<polygon fill="none" stroke="midnightblue" points="386.699,-530.38 397.023,-532.763 390.438,-524.462 386.699,-530.38"/>
</g>
<!-- Box_PipeColoring -->
<g id="node9" class="node"><title>Box_PipeColoring</title>
<polygon fill="#fcfcda" stroke="black" points="1004,-237 1004,-369 1290,-369 1290,-237 1004,-237"/>
<text text-anchor="middle" x="1147" y="-357.8" font-family="Helvetica,sans-Serif" font-size="8.00">PipeColoring</text>
<polyline fill="none" stroke="black" points="1004,-349 1290,-349 "/>
<text text-anchor="start" x="1012" y="-337.8" font-family="Helvetica,sans-Serif" font-size="8.00">Attributes:</text>
<text text-anchor="start" x="1012" y="-325.8" font-family="Helvetica,sans-Serif" font-size="8.00">+ ValidKeys : List&lt;Keys&gt;</text>
<text text-anchor="start" x="1012" y="-313.8" font-family="Helvetica,sans-Serif" font-size="8.00">+ Knot : Knot</text>
<text text-anchor="start" x="1012" y="-301.8" font-family="Helvetica,sans-Serif" font-size="8.00">+ IsKeyEventEnabled : bool</text>
<text text-anchor="start" x="1012" y="-289.8" font-family="Helvetica,sans-Serif" font-size="8.00">Methods:</text>
<polyline fill="none" stroke="black" points="1004,-281 1290,-281 "/>
<text text-anchor="start" x="1012" y="-269.8" font-family="Helvetica,sans-Serif" font-size="8.00">+ OnKeyEvent (List&lt;Keys&gt; key, KeyEvent keyEvent, GameTime gameTime)</text>
<text text-anchor="start" x="1012" y="-257.8" font-family="Helvetica,sans-Serif" font-size="8.00">+ PipeColoring (GameState state)</text>
<text text-anchor="start" x="1012" y="-245.8" font-family="Helvetica,sans-Serif" font-size="8.00">+ Update (GameTime gameTime)</text>
</g>
<!-- Box_GameStateComponent&#45;&gt;Box_PipeColoring -->
<g id="edge22" class="edge"><title>Box_GameStateComponent&#45;&gt;Box_PipeColoring</title>
<path fill="none" stroke="midnightblue" d="M707.667,-565.049C818.067,-549.132 946.989,-525.295 995,-496 1045.06,-465.454 1085.2,-412.043 1111.63,-369.141"/>
<polygon fill="none" stroke="midnightblue" points="707.129,-561.591 697.724,-566.469 708.119,-568.52 707.129,-561.591"/>
</g>
<!-- Box_IGameStateComponent -->
<g id="node2" class="node"><title>Box_IGameStateComponent</title>
<polygon fill="#dafcda" stroke="black" points="256,-679 256,-763 574,-763 574,-679 256,-679"/>
<text text-anchor="middle" x="415" y="-751.8" font-family="Helvetica,sans-Serif" font-size="8.00">IGameStateComponent</text>
<polyline fill="none" stroke="black" points="256,-743 574,-743 "/>
<text text-anchor="start" x="264" y="-731.8" font-family="Helvetica,sans-Serif" font-size="8.00">Attributes:</text>
<text text-anchor="start" x="264" y="-719.8" font-family="Helvetica,sans-Serif" font-size="8.00">+ Index : DisplayLayer</text>
<text text-anchor="start" x="264" y="-707.8" font-family="Helvetica,sans-Serif" font-size="8.00">Methods:</text>
<polyline fill="none" stroke="black" points="256,-699 574,-699 "/>
<text text-anchor="start" x="264" y="-687.8" font-family="Helvetica,sans-Serif" font-size="8.00">+ SubComponents (GameTime gameTime) : IEnumerable&lt;IGameStateComponent&gt;</text>
</g>
<!-- Box_IGameStateComponent&#45;&gt;Box_GameStateComponent -->
<g id="edge4" class="edge"><title>Box_IGameStateComponent&#45;&gt;Box_GameStateComponent</title>
<path fill="none" stroke="midnightblue" d="M456.587,-671.244C464.774,-661.448 473.403,-651.125 481.705,-641.192"/>
<polygon fill="none" stroke="midnightblue" points="453.858,-669.052 450.13,-678.969 459.229,-673.541 453.858,-669.052"/>
</g>
<!-- Box_MenuScreenInput -->
<g id="node6" class="node"><title>Box_MenuScreenInput</title>
<polygon fill="#fcfcda" stroke="black" points="765.5,-1 765.5,-73 920.5,-73 920.5,-1 765.5,-1"/>
<text text-anchor="middle" x="843" y="-61.8" font-family="Helvetica,sans-Serif" font-size="8.00">MenuScreenInput</text>
<polyline fill="none" stroke="black" points="765.5,-53 920.5,-53 "/>
<text text-anchor="start" x="773.5" y="-41.8" font-family="Helvetica,sans-Serif" font-size="8.00">Attributes:</text>
<text text-anchor="start" x="773.5" y="-29.8" font-family="Helvetica,sans-Serif" font-size="8.00">Methods:</text>
<polyline fill="none" stroke="black" points="765.5,-21 920.5,-21 "/>
<text text-anchor="start" x="773.5" y="-9.8" font-family="Helvetica,sans-Serif" font-size="8.00">+ MenuScreenInput (GameState state)</text>
</g>
<!-- Box_Input&#45;&gt;Box_MenuScreenInput -->
<g id="edge16" class="edge"><title>Box_Input&#45;&gt;Box_MenuScreenInput</title>
<path fill="none" stroke="midnightblue" d="M843,-142.819C843,-116.686 843,-92.0153 843,-73.0793"/>
<polygon fill="none" stroke="midnightblue" points="839.5,-142.898 843,-152.898 846.5,-142.898 839.5,-142.898"/>
</g>
<!-- Box_XnaGameComponent -->
<g id="node10" class="node"><title>Box_XnaGameComponent</title>
<polygon fill="#ffffff" stroke="black" points="591.5,-711 591.5,-731 688.5,-731 688.5,-711 591.5,-711"/>
<text text-anchor="middle" x="640" y="-719.8" font-family="Helvetica,sans-Serif" font-size="8.00">Xna.GameComponent</text>
</g>
<!-- Box_XnaGameComponent&#45;&gt;Box_GameStateComponent -->
<g id="edge2" class="edge"><title>Box_XnaGameComponent&#45;&gt;Box_GameStateComponent</title>
<path fill="none" stroke="midnightblue" d="M624.826,-703.006C611.438,-687.13 591.219,-663.153 572.631,-641.111"/>
<polygon fill="none" stroke="midnightblue" points="622.384,-705.54 631.507,-710.928 627.736,-701.027 622.384,-705.54"/>
</g>
<!-- Box_XnaIGameComponent -->
<g id="node11" class="node"><title>Box_XnaIGameComponent</title>
<polygon fill="#ffffff" stroke="black" points="365.5,-801 365.5,-821 464.5,-821 464.5,-801 365.5,-801"/>
<text text-anchor="middle" x="415" y="-809.8" font-family="Helvetica,sans-Serif" font-size="8.00">Xna.IGameComponent</text>
</g>
<!-- Box_XnaIGameComponent&#45;&gt;Box_IGameStateComponent -->
<g id="edge6" class="edge"><title>Box_XnaIGameComponent&#45;&gt;Box_IGameStateComponent</title>
<path fill="none" stroke="midnightblue" d="M415,-790.454C415,-782.393 415,-772.828 415,-763.414"/>
<polygon fill="none" stroke="midnightblue" points="411.5,-790.676 415,-800.676 418.5,-790.676 411.5,-790.676"/>
</g>
<!-- Box_IKeyEventListener -->
<g id="node12" class="node"><title>Box_IKeyEventListener</title>
<polygon fill="#ffffff" stroke="black" points="954.5,-577 954.5,-597 1035.5,-597 1035.5,-577 954.5,-577"/>
<text text-anchor="middle" x="995" y="-585.8" font-family="Helvetica,sans-Serif" font-size="8.00">IKeyEventListener</text>
</g>
<!-- Box_IKeyEventListener&#45;&gt;Box_Input -->
<g id="edge14" class="edge"><title>Box_IKeyEventListener&#45;&gt;Box_Input</title>
<path fill="none" stroke="midnightblue" d="M984.847,-568.03C971.813,-543.678 947.945,-499.082 923.458,-453.329"/>
<polygon fill="none" stroke="midnightblue" points="981.786,-569.727 989.59,-576.892 987.957,-566.424 981.786,-569.727"/>
</g>
<!-- Box_IKeyEventListener&#45;&gt;Box_PipeColoring -->
<g id="edge24" class="edge"><title>Box_IKeyEventListener&#45;&gt;Box_PipeColoring</title>
<path fill="none" stroke="midnightblue" d="M1005.19,-567.956C1026.57,-528.009 1076.98,-433.822 1111.56,-369.224"/>
<polygon fill="none" stroke="midnightblue" points="1002.04,-566.424 1000.41,-576.892 1008.21,-569.727 1002.04,-566.424"/>
</g>
</g>
</svg>
