<?xml version="1.0" encoding="UTF-8" standalone="no"?>
<!DOCTYPE svg PUBLIC "-//W3C//DTD SVG 1.1//EN"
 "http://www.w3.org/Graphics/SVG/1.1/DTD/svg11.dtd">
<!-- Generated by graphviz version 2.26.3 (20100126.1600)
 -->
<!-- Title: MenuItem Pages: 1 -->
<svg width="440pt" height="318pt"
 viewBox="0.00 0.00 440.00 318.00" xmlns="http://www.w3.org/2000/svg" xmlns:xlink="http://www.w3.org/1999/xlink">
<g id="graph1" class="graph" transform="scale(1 1) rotate(0) translate(4 314)">
<title>MenuItem</title>
<polygon fill="white" stroke="white" points="-4,5 -4,-314 437,-314 437,5 -4,5"/>
<!-- Box_OptionInfo -->
<g id="node1" class="node"><title>Box_OptionInfo</title>
<polygon fill="#fcfcda" stroke="black" points="50,-205 50,-309 382,-309 382,-205 50,-205"/>
<text text-anchor="middle" x="216" y="-297.8" font-family="Arial" font-size="8.00">OptionInfo</text>
<polyline fill="none" stroke="black" points="50,-291 382,-291 "/>
<text text-anchor="start" x="58" y="-279.8" font-family="Arial" font-size="8.00">&#45; ConfigFile : ConfigFile</text>
<text text-anchor="start" x="58" y="-269.8" font-family="Arial" font-size="8.00">+ OnChange : Action&lt;string&gt;</text>
<text text-anchor="start" x="58" y="-259.8" font-family="Arial" font-size="8.00">+ DefaultValue : string</text>
<text text-anchor="start" x="58" y="-249.8" font-family="Arial" font-size="8.00">+ Name : string</text>
<text text-anchor="start" x="58" y="-239.8" font-family="Arial" font-size="8.00">+ Section : string</text>
<text text-anchor="start" x="58" y="-229.8" font-family="Arial" font-size="8.00">+ Value : string virtual</text>
<polyline fill="none" stroke="black" points="50,-223 382,-223 "/>
<text text-anchor="start" x="58" y="-211.8" font-family="Arial" font-size="8.00">+ OptionInfo (string section, string name, string defaultValue, Action&lt;string&gt; onChange)</text>
</g>
<!-- Box_DistinctOptionInfo -->
<g id="node2" class="node"><title>Box_DistinctOptionInfo</title>
<polygon fill="#fcfcda" stroke="black" points="0,-103 0,-167 432,-167 432,-103 0,-103"/>
<text text-anchor="middle" x="216" y="-155.8" font-family="Arial" font-size="8.00">DistinctOptionInfo</text>
<polyline fill="none" stroke="black" points="0,-149 432,-149 "/>
<text text-anchor="start" x="8" y="-137.8" font-family="Arial" font-size="8.00">+ ValidValues : HashSet&lt;string&gt;</text>
<text text-anchor="start" x="8" y="-127.8" font-family="Arial" font-size="8.00">+ Value : string</text>
<polyline fill="none" stroke="black" points="0,-121 432,-121 "/>
<text text-anchor="start" x="8" y="-109.8" font-family="Arial" font-size="8.00">+ DistinctOptionInfo (string section, string name, string defaultValue, string[] validValues, Action&lt;string&gt; onChange)</text>
</g>
<!-- Box_OptionInfo&#45;&gt;Box_DistinctOptionInfo -->
<g id="edge2" class="edge"><title>Box_OptionInfo&#45;&gt;Box_DistinctOptionInfo</title>
<path fill="none" stroke="midnightblue" d="M216,-194.619C216,-185.113 216,-175.652 216,-167.16"/>
<polygon fill="none" stroke="midnightblue" points="212.5,-194.907 216,-204.907 219.5,-194.907 212.5,-194.907"/>
</g>
<!-- Box_BooleanOptionInfo -->
<g id="node3" class="node"><title>Box_BooleanOptionInfo</title>
<polygon fill="#fcfcda" stroke="black" points="40.5,-1 40.5,-65 391.5,-65 391.5,-1 40.5,-1"/>
<text text-anchor="middle" x="216" y="-53.8" font-family="Arial" font-size="8.00">BooleanOptionInfo</text>
<polyline fill="none" stroke="black" points="40.5,-47 391.5,-47 "/>
<text text-anchor="start" x="48.5" y="-35.8" font-family="Arial" font-size="8.00">+ BoolValue : bool</text>
<text text-anchor="start" x="48.5" y="-25.8" font-family="Arial" font-size="8.00">+ ValidValues : string[] static</text>
<polyline fill="none" stroke="black" points="40.5,-19 391.5,-19 "/>
<text text-anchor="start" x="48.5" y="-7.8" font-family="Arial" font-size="8.00">+ BooleanOptionInfo (string section, string name, bool defaultValue, Action&lt;bool&gt; onChange)</text>
</g>
<!-- Box_DistinctOptionInfo&#45;&gt;Box_BooleanOptionInfo -->
<g id="edge4" class="edge"><title>Box_DistinctOptionInfo&#45;&gt;Box_BooleanOptionInfo</title>
<path fill="none" stroke="midnightblue" d="M216,-92.5684C216,-83.3684 216,-73.7853 216,-65.0635"/>
<polygon fill="none" stroke="midnightblue" points="212.5,-92.7265 216,-102.727 219.5,-92.7266 212.5,-92.7265"/>
</g>
</g>
</svg>
