<?xml version="1.0" encoding="UTF-8" standalone="no"?>
<!DOCTYPE svg PUBLIC "-//W3C//DTD SVG 1.1//EN"
 "http://www.w3.org/Graphics/SVG/1.1/DTD/svg11.dtd">
<!-- Generated by graphviz version 2.26.3 (20100126.1600)
 -->
<!-- Title: MenuItem Pages: 1 -->
<svg width="1508pt" height="2617pt"
 viewBox="0.00 0.00 362.00 628.00" xmlns="http://www.w3.org/2000/svg" xmlns:xlink="http://www.w3.org/1999/xlink">
<g id="graph1" class="graph" transform="scale(4.16667 4.16667) rotate(0) translate(4 624)">
<title>MenuItem</title>
<polygon fill="white" stroke="white" points="-4,5 -4,-624 359,-624 359,5 -4,5"/>
<!-- Box_LoadSavegameScreen -->
<g id="node1" class="node"><title>Box_LoadSavegameScreen</title>
<polygon fill="#fcfcda" stroke="black" points="89,-1 89,-145 265,-145 265,-1 89,-1"/>
<text text-anchor="middle" x="177" y="-133.8" font-family="Arial" font-size="8.00">LoadSavegameScreen</text>
<polyline fill="none" stroke="black" points="89,-127 265,-127 "/>
<text text-anchor="start" x="97" y="-115.8" font-family="Arial" font-size="8.00">&#45; fileIndex : FileIndex</text>
<text text-anchor="start" x="97" y="-105.8" font-family="Arial" font-size="8.00">&#45; spriteBatch : SpriteBatch</text>
<text text-anchor="start" x="97" y="-95.8" font-family="Arial" font-size="8.00">&#45; menu : VerticalMenu</text>
<polyline fill="none" stroke="black" points="89,-89 265,-89 "/>
<text text-anchor="start" x="97" y="-77.8" font-family="Arial" font-size="8.00">&#45; AddDefaultKnots ()</text>
<text text-anchor="start" x="97" y="-67.8" font-family="Arial" font-size="8.00">+ LoadSavegameScreen (Core.Game game)</text>
<text text-anchor="start" x="97" y="-57.8" font-family="Arial" font-size="8.00">+ Activate (GameTime time)</text>
<text text-anchor="start" x="97" y="-47.8" font-family="Arial" font-size="8.00">+ DrawMenu (GameTime time)</text>
<text text-anchor="start" x="97" y="-37.8" font-family="Arial" font-size="8.00">&#45; AddFileToList (string filename)</text>
<text text-anchor="start" x="97" y="-27.8" font-family="Arial" font-size="8.00">&#45; UpdateFiles ()</text>
<text text-anchor="start" x="97" y="-17.8" font-family="Arial" font-size="8.00">+ Initialize ()</text>
<text text-anchor="start" x="97" y="-7.8" font-family="Arial" font-size="8.00">+ UpdateMenu (GameTime time)</text>
</g>
<!-- Box_MenuScreen -->
<g id="node2" class="node"><title>Box_MenuScreen</title>
<polygon fill="#fcfcda" stroke="black" points="83,-183 83,-367 271,-367 271,-183 83,-183"/>
<text text-anchor="middle" x="177" y="-355.8" font-family="Arial" font-size="8.00">MenuScreen</text>
<polyline fill="none" stroke="black" points="83,-349 271,-349 "/>
<text text-anchor="start" x="91" y="-337.8" font-family="Arial" font-size="8.00">&#45; backColor : Color</text>
<text text-anchor="start" x="91" y="-327.8" font-family="Arial" font-size="8.00">&#45; pointer : MousePointer</text>
<text text-anchor="start" x="91" y="-317.8" font-family="Arial" font-size="8.00"># LinePoints : List&lt;Vector2&gt;</text>
<text text-anchor="start" x="91" y="-307.8" font-family="Arial" font-size="8.00"># LineWidth : int</text>
<text text-anchor="start" x="91" y="-297.8" font-family="Arial" font-size="8.00">&#45; spriteBatch : SpriteBatch</text>
<polyline fill="none" stroke="black" points="83,-291 271,-291 "/>
<text text-anchor="start" x="91" y="-279.8" font-family="Arial" font-size="8.00">+ MenuScreen (Core.Game game)</text>
<text text-anchor="start" x="91" y="-269.8" font-family="Arial" font-size="8.00">+ Activate (GameTime time)</text>
<text text-anchor="start" x="91" y="-259.8" font-family="Arial" font-size="8.00">+ Draw (GameTime time)</text>
<text text-anchor="start" x="91" y="-249.8" font-family="Arial" font-size="8.00"># BackgroundColor (ItemState itemState) : Color</text>
<text text-anchor="start" x="91" y="-239.8" font-family="Arial" font-size="8.00"># ForegroundColor (ItemState itemState) : Color</text>
<text text-anchor="start" x="91" y="-229.8" font-family="Arial" font-size="8.00">+ DrawMenu (GameTime time) abstract</text>
<text text-anchor="start" x="91" y="-219.8" font-family="Arial" font-size="8.00">+ UpdateMenu (GameTime time) abstract</text>
<text text-anchor="start" x="91" y="-209.8" font-family="Arial" font-size="8.00">+ Initialize ()</text>
<text text-anchor="start" x="91" y="-199.8" font-family="Arial" font-size="8.00">+ Unload ()</text>
<text text-anchor="start" x="91" y="-189.8" font-family="Arial" font-size="8.00">+ Update (GameTime time)</text>
</g>
<!-- Box_MenuScreen&#45;&gt;Box_LoadSavegameScreen -->
<g id="edge2" class="edge"><title>Box_MenuScreen&#45;&gt;Box_LoadSavegameScreen</title>
<path fill="none" stroke="midnightblue" d="M177,-172.726C177,-163.372 177,-154.033 177,-145.029"/>
<polygon fill="none" stroke="midnightblue" points="173.5,-172.867 177,-182.867 180.5,-172.867 173.5,-172.867"/>
</g>
<!-- Box_GameScreen -->
<g id="node3" class="node"><title>Box_GameScreen</title>
<polygon fill="#fcfcda" stroke="black" points="-0.5,-405 -0.5,-619 354.5,-619 354.5,-405 -0.5,-405"/>
<text text-anchor="middle" x="177" y="-607.8" font-family="Arial" font-size="8.00">GameScreen</text>
<polyline fill="none" stroke="black" points="-0.5,-601 354.5,-601 "/>
<text text-anchor="start" x="7.5" y="-589.8" font-family="Arial" font-size="8.00">+ content : ContentManager</text>
<text text-anchor="start" x="7.5" y="-579.8" font-family="Arial" font-size="8.00">+ NextState : GameScreen</text>
<text text-anchor="start" x="7.5" y="-569.8" font-family="Arial" font-size="8.00">+ device : GraphicsDevice</text>
<text text-anchor="start" x="7.5" y="-559.8" font-family="Arial" font-size="8.00">+ RenderEffects : RenderEffectStack</text>
<text text-anchor="start" x="7.5" y="-549.8" font-family="Arial" font-size="8.00">+ viewport : Viewport</text>
<text text-anchor="start" x="7.5" y="-539.8" font-family="Arial" font-size="8.00">+ game : Game</text>
<text text-anchor="start" x="7.5" y="-529.8" font-family="Arial" font-size="8.00">+ graphics : GraphicsDeviceManager</text>
<text text-anchor="start" x="7.5" y="-519.8" font-family="Arial" font-size="8.00">+ input : InputManager</text>
<text text-anchor="start" x="7.5" y="-509.8" font-family="Arial" font-size="8.00">+ PostProcessing : RenderEffect</text>
<polyline fill="none" stroke="black" points="-0.5,-503 354.5,-503 "/>
<text text-anchor="start" x="7.5" y="-491.8" font-family="Arial" font-size="8.00">+ Draw (GameTime time) abstract</text>
<text text-anchor="start" x="7.5" y="-481.8" font-family="Arial" font-size="8.00">+ Initialize () abstract</text>
<text text-anchor="start" x="7.5" y="-471.8" font-family="Arial" font-size="8.00">+ Unload () abstract</text>
<text text-anchor="start" x="7.5" y="-461.8" font-family="Arial" font-size="8.00">+ Activate (GameTime time) virtual</text>
<text text-anchor="start" x="7.5" y="-451.8" font-family="Arial" font-size="8.00">+ GameScreen (Game game)</text>
<text text-anchor="start" x="7.5" y="-441.8" font-family="Arial" font-size="8.00">+ Update (GameTime time) abstract</text>
<text text-anchor="start" x="7.5" y="-431.8" font-family="Arial" font-size="8.00">+ Deactivate (GameTime time) virtual</text>
<text text-anchor="start" x="7.5" y="-421.8" font-family="Arial" font-size="8.00">+ AddGameComponents (GameTime time, params IGameScreenComponent[] components)</text>
<text text-anchor="start" x="7.5" y="-411.8" font-family="Arial" font-size="8.00">+ RemoveGameComponents (GameTime time, params IGameScreenComponent[] components)</text>
</g>
<!-- Box_GameScreen&#45;&gt;Box_MenuScreen -->
<g id="edge4" class="edge"><title>Box_GameScreen&#45;&gt;Box_MenuScreen</title>
<path fill="none" stroke="midnightblue" d="M177,-394.846C177,-385.529 177,-376.201 177,-367.092"/>
<polygon fill="none" stroke="midnightblue" points="173.5,-394.941 177,-404.941 180.5,-394.941 173.5,-394.941"/>
</g>
</g>
</svg>
