<?xml version="1.0" encoding="UTF-8" standalone="no"?>
<!DOCTYPE svg PUBLIC "-//W3C//DTD SVG 1.1//EN"
 "http://www.w3.org/Graphics/SVG/1.1/DTD/svg11.dtd">
<!-- Generated by graphviz version 2.26.3 (20100126.1600)
 -->
<!-- Title: MenuItem Pages: 1 -->
<svg width="1658pt" height="1067pt"
 viewBox="0.00 0.00 398.00 256.00" xmlns="http://www.w3.org/2000/svg" xmlns:xlink="http://www.w3.org/1999/xlink">
<g id="graph1" class="graph" transform="scale(4.16667 4.16667) rotate(0) translate(4 252)">
<title>MenuItem</title>
<polygon fill="white" stroke="white" points="-4,5 -4,-252 395,-252 395,5 -4,5"/>
<!-- Box_KnotFileIO -->
<g id="node1" class="node"><title>Box_KnotFileIO</title>
<polygon fill="#fcfcda" stroke="black" points="113.5,-1 113.5,-135 340.5,-135 340.5,-1 113.5,-1"/>
<text text-anchor="middle" x="227" y="-123.8" font-family="Arial" font-size="8.00">KnotFileIO</text>
<polyline fill="none" stroke="black" points="113.5,-117 340.5,-117 "/>
<text text-anchor="start" x="121.5" y="-105.8" font-family="Arial" font-size="8.00">+ CountEdges : int</text>
<text text-anchor="start" x="121.5" y="-95.8" font-family="Arial" font-size="8.00">+ Name : string</text>
<text text-anchor="start" x="121.5" y="-85.8" font-family="Arial" font-size="8.00">&#45; parser : KnotStringIO</text>
<text text-anchor="start" x="121.5" y="-75.8" font-family="Arial" font-size="8.00">+ Edges : IEnumerable&lt;Edge&gt;</text>
<text text-anchor="start" x="121.5" y="-65.8" font-family="Arial" font-size="8.00">+ FileExtensions : string[] static</text>
<polyline fill="none" stroke="black" points="113.5,-59 340.5,-59 "/>
<text text-anchor="start" x="121.5" y="-47.8" font-family="Arial" font-size="8.00">+ KnotFileIO (Knot knot)</text>
<text text-anchor="start" x="121.5" y="-37.8" font-family="Arial" font-size="8.00">+ Save (Knot knot)</text>
<text text-anchor="start" x="121.5" y="-27.8" font-family="Arial" font-size="8.00">+ KnotFileIO (string filename)</text>
<text text-anchor="start" x="121.5" y="-17.8" font-family="Arial" font-size="8.00">+ ConvertToFilename (string humanReadableName) : string</text>
<text text-anchor="start" x="121.5" y="-7.8" font-family="Arial" font-size="8.00">+ ToString () : string</text>
</g>
<!-- Box_FileIO -->
<g id="node2" class="node"><title>Box_FileIO</title>
<polygon fill="#fcfcda" stroke="black" points="-0.5,-183 -0.5,-237 250.5,-237 250.5,-183 -0.5,-183"/>
<text text-anchor="middle" x="125" y="-225.8" font-family="Arial" font-size="8.00">FileIO</text>
<polyline fill="none" stroke="black" points="-0.5,-219 250.5,-219 "/>
<text text-anchor="start" x="7.5" y="-207.8" font-family="Arial" font-size="8.00"># Filename : string</text>
<polyline fill="none" stroke="black" points="-0.5,-201 250.5,-201 "/>
<text text-anchor="start" x="7.5" y="-189.8" font-family="Arial" font-size="8.00">+ ConvertToFilename (string humanReadableName) : string virtual</text>
</g>
<!-- Box_FileIO&#45;&gt;Box_KnotFileIO -->
<g id="edge2" class="edge"><title>Box_FileIO&#45;&gt;Box_KnotFileIO</title>
<path fill="none" stroke="midnightblue" d="M150.457,-174.559C159.089,-162.543 169.036,-148.694 178.843,-135.042"/>
<polygon fill="none" stroke="midnightblue" points="147.417,-172.793 144.426,-182.957 153.102,-176.877 147.417,-172.793"/>
</g>
<!-- Box_IKnotIO -->
<g id="node3" class="node"><title>Box_IKnotIO</title>
<polygon fill="#dafcda" stroke="black" points="267.5,-173 267.5,-247 390.5,-247 390.5,-173 267.5,-173"/>
<text text-anchor="middle" x="329" y="-235.8" font-family="Arial" font-size="8.00">IKnotIO</text>
<polyline fill="none" stroke="black" points="267.5,-229 390.5,-229 "/>
<text text-anchor="start" x="275.5" y="-217.8" font-family="Arial" font-size="8.00">+ Edges : IEnumerable&lt;Edge&gt;</text>
<text text-anchor="start" x="275.5" y="-207.8" font-family="Arial" font-size="8.00">+ CountEdges : int</text>
<text text-anchor="start" x="275.5" y="-197.8" font-family="Arial" font-size="8.00">+ Name : string</text>
<polyline fill="none" stroke="black" points="267.5,-191 390.5,-191 "/>
<text text-anchor="start" x="275.5" y="-179.8" font-family="Arial" font-size="8.00">+ Save (Knot knot)</text>
</g>
<!-- Box_IKnotIO&#45;&gt;Box_KnotFileIO -->
<g id="edge4" class="edge"><title>Box_IKnotIO&#45;&gt;Box_KnotFileIO</title>
<path fill="none" stroke="midnightblue" d="M296.224,-164.371C289.553,-155.083 282.402,-145.129 275.321,-135.27"/>
<polygon fill="none" stroke="midnightblue" points="293.524,-166.611 302.201,-172.691 299.209,-162.527 293.524,-166.611"/>
</g>
</g>
</svg>
