<?xml version="1.0" encoding="UTF-8" standalone="no"?>
<!DOCTYPE svg PUBLIC "-//W3C//DTD SVG 1.1//EN"
 "http://www.w3.org/Graphics/SVG/1.1/DTD/svg11.dtd">
<!-- Generated by graphviz version 2.26.3 (20100126.1600)
 -->
<!-- Title: MenuItem Pages: 1 -->
<svg width="258pt" height="542pt"
 viewBox="0.00 0.00 258.00 542.00" xmlns="http://www.w3.org/2000/svg" xmlns:xlink="http://www.w3.org/1999/xlink">
<g id="graph1" class="graph" transform="scale(1 1) rotate(0) translate(4 538)">
<title>MenuItem</title>
<polygon fill="white" stroke="white" points="-4,5 -4,-538 255,-538 255,5 -4,5"/>
<!-- Box_BlurEffect -->
<g id="node1" class="node"><title>Box_BlurEffect</title>
<polygon fill="#fcfcda" stroke="black" points="15.5,-1 15.5,-121 234.5,-121 234.5,-1 15.5,-1"/>
<text text-anchor="middle" x="125" y="-109.8" font-family="Helvetica,sans-Serif" font-size="8.00">BlurEffect</text>
<polyline fill="none" stroke="black" points="15.5,-101 234.5,-101 "/>
<text text-anchor="start" x="23.5" y="-89.8" font-family="Helvetica,sans-Serif" font-size="8.00">Attributes:</text>
<text text-anchor="start" x="23.5" y="-77.8" font-family="Helvetica,sans-Serif" font-size="8.00">&#45; testEffect : Effect static</text>
<text text-anchor="start" x="23.5" y="-65.8" font-family="Helvetica,sans-Serif" font-size="8.00">Methods:</text>
<polyline fill="none" stroke="black" points="15.5,-57 234.5,-57 "/>
<text text-anchor="start" x="23.5" y="-45.8" font-family="Helvetica,sans-Serif" font-size="8.00">+ BlurEffect (GameState state)</text>
<text text-anchor="start" x="23.5" y="-33.8" font-family="Helvetica,sans-Serif" font-size="8.00">+ Begin (Color background, GameTime gameTime)</text>
<text text-anchor="start" x="23.5" y="-21.8" font-family="Helvetica,sans-Serif" font-size="8.00">+ Draw (SpriteBatch spriteBatch, GameTime gameTime)</text>
<text text-anchor="start" x="23.5" y="-9.8" font-family="Helvetica,sans-Serif" font-size="8.00">+ End (GameTime gameTime)</text>
</g>
<!-- Box_RenderEffect -->
<g id="node2" class="node"><title>Box_RenderEffect</title>
<polygon fill="#fcfcda" stroke="black" points="0,-159 0,-363 250,-363 250,-159 0,-159"/>
<text text-anchor="middle" x="125" y="-351.8" font-family="Helvetica,sans-Serif" font-size="8.00">RenderEffect</text>
<polyline fill="none" stroke="black" points="0,-343 250,-343 "/>
<text text-anchor="start" x="8" y="-331.8" font-family="Helvetica,sans-Serif" font-size="8.00">Attributes:</text>
<text text-anchor="start" x="8" y="-319.8" font-family="Helvetica,sans-Serif" font-size="8.00">&#45; background : Color</text>
<text text-anchor="start" x="8" y="-307.8" font-family="Helvetica,sans-Serif" font-size="8.00">&#45; renderTarget : RenderTargetCache</text>
<text text-anchor="start" x="8" y="-295.8" font-family="Helvetica,sans-Serif" font-size="8.00">&#45; spriteBatch : SpriteBatch</text>
<text text-anchor="start" x="8" y="-283.8" font-family="Helvetica,sans-Serif" font-size="8.00"># state : GameState</text>
<text text-anchor="start" x="8" y="-271.8" font-family="Helvetica,sans-Serif" font-size="8.00">+ RenderTarget : RenderTarget2D</text>
<text text-anchor="start" x="8" y="-259.8" font-family="Helvetica,sans-Serif" font-size="8.00">Methods:</text>
<polyline fill="none" stroke="black" points="0,-251 250,-251 "/>
<text text-anchor="start" x="8" y="-239.8" font-family="Helvetica,sans-Serif" font-size="8.00">+ RenderEffect (GameState state)</text>
<text text-anchor="start" x="8" y="-227.8" font-family="Helvetica,sans-Serif" font-size="8.00">+ Draw (SpriteBatch spriteBatch, GameTime gameTime) abstract</text>
<text text-anchor="start" x="8" y="-215.8" font-family="Helvetica,sans-Serif" font-size="8.00">+ DrawModel (GameModel model, GameTime gameTime) virtual</text>
<text text-anchor="start" x="8" y="-203.8" font-family="Helvetica,sans-Serif" font-size="8.00">+ RemapModel (Model model) virtual</text>
<text text-anchor="start" x="8" y="-191.8" font-family="Helvetica,sans-Serif" font-size="8.00">+ Begin (GameTime gameTime)</text>
<text text-anchor="start" x="8" y="-179.8" font-family="Helvetica,sans-Serif" font-size="8.00">+ Begin (Color background, GameTime gameTime) virtual</text>
<text text-anchor="start" x="8" y="-167.8" font-family="Helvetica,sans-Serif" font-size="8.00">+ End (GameTime gameTime) virtual</text>
</g>
<!-- Box_RenderEffect&#45;&gt;Box_BlurEffect -->
<g id="edge2" class="edge"><title>Box_RenderEffect&#45;&gt;Box_BlurEffect</title>
<path fill="none" stroke="midnightblue" d="M125,-148.692C125,-139.277 125,-130.011 125,-121.232"/>
<polygon fill="none" stroke="midnightblue" points="121.5,-148.949 125,-158.949 128.5,-148.949 121.5,-148.949"/>
</g>
<!-- Box_IRenderEffect -->
<g id="node3" class="node"><title>Box_IRenderEffect</title>
<polygon fill="#dafcda" stroke="black" points="12.5,-401 12.5,-533 237.5,-533 237.5,-401 12.5,-401"/>
<text text-anchor="middle" x="125" y="-521.8" font-family="Helvetica,sans-Serif" font-size="8.00">IRenderEffect</text>
<polyline fill="none" stroke="black" points="12.5,-513 237.5,-513 "/>
<text text-anchor="start" x="20.5" y="-501.8" font-family="Helvetica,sans-Serif" font-size="8.00">Attributes:</text>
<text text-anchor="start" x="20.5" y="-489.8" font-family="Helvetica,sans-Serif" font-size="8.00">+ RenderTarget : RenderTarget2D</text>
<text text-anchor="start" x="20.5" y="-477.8" font-family="Helvetica,sans-Serif" font-size="8.00">Methods:</text>
<polyline fill="none" stroke="black" points="12.5,-469 237.5,-469 "/>
<text text-anchor="start" x="20.5" y="-457.8" font-family="Helvetica,sans-Serif" font-size="8.00">+ Begin (GameTime gameTime)</text>
<text text-anchor="start" x="20.5" y="-445.8" font-family="Helvetica,sans-Serif" font-size="8.00">+ End (GameTime gameTime)</text>
<text text-anchor="start" x="20.5" y="-433.8" font-family="Helvetica,sans-Serif" font-size="8.00">+ Draw (SpriteBatch spriteBatch, GameTime gameTime)</text>
<text text-anchor="start" x="20.5" y="-421.8" font-family="Helvetica,sans-Serif" font-size="8.00">+ RemapModel (Model model)</text>
<text text-anchor="start" x="20.5" y="-409.8" font-family="Helvetica,sans-Serif" font-size="8.00">+ DrawModel (GameModel model, GameTime gameTime)</text>
</g>
<!-- Box_IRenderEffect&#45;&gt;Box_RenderEffect -->
<g id="edge4" class="edge"><title>Box_IRenderEffect&#45;&gt;Box_RenderEffect</title>
<path fill="none" stroke="midnightblue" d="M118.458,-390.867C118.315,-381.791 118.245,-372.415 118.25,-363.051"/>
<polygon fill="none" stroke="midnightblue" points="114.961,-391.039 118.652,-400.97 121.96,-390.905 114.961,-391.039"/>
</g>
<!-- Box_IRenderEffect&#45;&gt;Box_RenderEffect -->
<g id="edge6" class="edge"><title>Box_IRenderEffect&#45;&gt;Box_RenderEffect</title>
<path fill="none" stroke="midnightblue" d="M131.542,-390.867C131.685,-381.791 131.755,-372.415 131.75,-363.051"/>
<polygon fill="none" stroke="midnightblue" points="128.04,-390.905 131.348,-400.97 135.039,-391.039 128.04,-390.905"/>
</g>
</g>
</svg>
