<?xml version="1.0" encoding="UTF-8" standalone="no"?>
<!DOCTYPE svg PUBLIC "-//W3C//DTD SVG 1.1//EN"
 "http://www.w3.org/Graphics/SVG/1.1/DTD/svg11.dtd">
<!-- Generated by graphviz version 2.26.3 (20100126.1600)
 -->
<!-- Title: MenuItem Pages: 1 -->
<svg width="1716pt" height="770pt"
 viewBox="0.00 0.00 1716.00 770.00" xmlns="http://www.w3.org/2000/svg" xmlns:xlink="http://www.w3.org/1999/xlink">
<g id="graph1" class="graph" transform="scale(1 1) rotate(0) translate(4 766)">
<title>MenuItem</title>
<polygon fill="white" stroke="white" points="-4,5 -4,-766 1713,-766 1713,5 -4,5"/>
<!-- Box_IGameObject -->
<g id="node1" class="node"><title>Box_IGameObject</title>
<polygon fill="#dafcda" stroke="black" points="846,-629 846,-761 1022,-761 1022,-629 846,-629"/>
<text text-anchor="middle" x="934" y="-749.8" font-family="Helvetica,sans-Serif" font-size="8.00">IGameObject</text>
<polyline fill="none" stroke="black" points="846,-741 1022,-741 "/>
<text text-anchor="start" x="854" y="-729.8" font-family="Helvetica,sans-Serif" font-size="8.00">Attributes:</text>
<text text-anchor="start" x="854" y="-717.8" font-family="Helvetica,sans-Serif" font-size="8.00">+ Info : dynamic</text>
<text text-anchor="start" x="854" y="-705.8" font-family="Helvetica,sans-Serif" font-size="8.00">+ World : World</text>
<text text-anchor="start" x="854" y="-693.8" font-family="Helvetica,sans-Serif" font-size="8.00">Methods:</text>
<polyline fill="none" stroke="black" points="846,-685 1022,-685 "/>
<text text-anchor="start" x="854" y="-673.8" font-family="Helvetica,sans-Serif" font-size="8.00">+ Draw (GameTime gameTime)</text>
<text text-anchor="start" x="854" y="-661.8" font-family="Helvetica,sans-Serif" font-size="8.00">+ Update (GameTime gameTime)</text>
<text text-anchor="start" x="854" y="-649.8" font-family="Helvetica,sans-Serif" font-size="8.00">+ Intersects (Ray ray) : GameObjectDistance</text>
<text text-anchor="start" x="854" y="-637.8" font-family="Helvetica,sans-Serif" font-size="8.00">+ Center () : Vector3</text>
</g>
<!-- Box_GameModel -->
<g id="node2" class="node"><title>Box_GameModel</title>
<polygon fill="#fcfcda" stroke="black" points="704,-267 704,-591 916,-591 916,-267 704,-267"/>
<text text-anchor="middle" x="810" y="-579.8" font-family="Helvetica,sans-Serif" font-size="8.00">GameModel</text>
<polyline fill="none" stroke="black" points="704,-571 916,-571 "/>
<text text-anchor="start" x="712" y="-559.8" font-family="Helvetica,sans-Serif" font-size="8.00">Attributes:</text>
<text text-anchor="start" x="712" y="-547.8" font-family="Helvetica,sans-Serif" font-size="8.00">&#45; _rotation : Angles3</text>
<text text-anchor="start" x="712" y="-535.8" font-family="Helvetica,sans-Serif" font-size="8.00">&#45; Bounds : BoundingSphere[]</text>
<text text-anchor="start" x="712" y="-523.8" font-family="Helvetica,sans-Serif" font-size="8.00">&#45; _bounds : BoundingSphere[]</text>
<text text-anchor="start" x="712" y="-511.8" font-family="Helvetica,sans-Serif" font-size="8.00">&#45; _worldMatrix : Matrix</text>
<text text-anchor="start" x="712" y="-499.8" font-family="Helvetica,sans-Serif" font-size="8.00">&#45; _position : Vector3</text>
<text text-anchor="start" x="712" y="-487.8" font-family="Helvetica,sans-Serif" font-size="8.00">+ BaseColor : Color</text>
<text text-anchor="start" x="712" y="-475.8" font-family="Helvetica,sans-Serif" font-size="8.00">+ HighlightColor : Color</text>
<text text-anchor="start" x="712" y="-463.8" font-family="Helvetica,sans-Serif" font-size="8.00">+ WorldMatrix : Matrix</text>
<text text-anchor="start" x="712" y="-451.8" font-family="Helvetica,sans-Serif" font-size="8.00">+ Info : dynamic</text>
<text text-anchor="start" x="712" y="-439.8" font-family="Helvetica,sans-Serif" font-size="8.00">+ Alpha : float</text>
<text text-anchor="start" x="712" y="-427.8" font-family="Helvetica,sans-Serif" font-size="8.00">+ HighlightIntensity : float</text>
<text text-anchor="start" x="712" y="-415.8" font-family="Helvetica,sans-Serif" font-size="8.00">&#45; _scale : float</text>
<text text-anchor="start" x="712" y="-403.8" font-family="Helvetica,sans-Serif" font-size="8.00"># state : GameState</text>
<text text-anchor="start" x="712" y="-391.8" font-family="Helvetica,sans-Serif" font-size="8.00">+ World : World</text>
<text text-anchor="start" x="712" y="-379.8" font-family="Helvetica,sans-Serif" font-size="8.00">+ Model : Model virtual</text>
<text text-anchor="start" x="712" y="-367.8" font-family="Helvetica,sans-Serif" font-size="8.00">Methods:</text>
<polyline fill="none" stroke="black" points="704,-359 916,-359 "/>
<text text-anchor="start" x="712" y="-347.8" font-family="Helvetica,sans-Serif" font-size="8.00">&#45; UpdatePrecomputed ()</text>
<text text-anchor="start" x="712" y="-335.8" font-family="Helvetica,sans-Serif" font-size="8.00">+ GameModel (GameState state, GameModelInfo info)</text>
<text text-anchor="start" x="712" y="-323.8" font-family="Helvetica,sans-Serif" font-size="8.00">+ Draw (GameTime gameTime) virtual</text>
<text text-anchor="start" x="712" y="-311.8" font-family="Helvetica,sans-Serif" font-size="8.00">&#45; inFrustum () : bool</text>
<text text-anchor="start" x="712" y="-299.8" font-family="Helvetica,sans-Serif" font-size="8.00">+ Center () : Vector3</text>
<text text-anchor="start" x="712" y="-287.8" font-family="Helvetica,sans-Serif" font-size="8.00">+ Intersects (Ray ray) : GameObjectDistance virtual</text>
<text text-anchor="start" x="712" y="-275.8" font-family="Helvetica,sans-Serif" font-size="8.00">+ Update (GameTime gameTime) virtual</text>
</g>
<!-- Box_IGameObject&#45;&gt;Box_GameModel -->
<g id="edge2" class="edge"><title>Box_IGameObject&#45;&gt;Box_GameModel</title>
<path fill="none" stroke="midnightblue" d="M898.833,-619.561C894.576,-610.428 890.109,-600.847 885.54,-591.045"/>
<polygon fill="none" stroke="midnightblue" points="895.792,-621.321 903.189,-628.905 902.136,-618.363 895.792,-621.321"/>
</g>
<!-- Box_KnotRenderer -->
<g id="node6" class="node"><title>Box_KnotRenderer</title>
<polygon fill="#fcfcda" stroke="black" points="480,-345 480,-513 686,-513 686,-345 480,-345"/>
<text text-anchor="middle" x="583" y="-501.8" font-family="Helvetica,sans-Serif" font-size="8.00">KnotRenderer</text>
<polyline fill="none" stroke="black" points="480,-493 686,-493 "/>
<text text-anchor="start" x="488" y="-481.8" font-family="Helvetica,sans-Serif" font-size="8.00">Attributes:</text>
<text text-anchor="start" x="488" y="-469.8" font-family="Helvetica,sans-Serif" font-size="8.00">+ World : World abstract</text>
<text text-anchor="start" x="488" y="-457.8" font-family="Helvetica,sans-Serif" font-size="8.00"># state : GameState</text>
<text text-anchor="start" x="488" y="-445.8" font-family="Helvetica,sans-Serif" font-size="8.00">+ Info : dynamic abstract</text>
<text text-anchor="start" x="488" y="-433.8" font-family="Helvetica,sans-Serif" font-size="8.00">Methods:</text>
<polyline fill="none" stroke="black" points="480,-425 686,-425 "/>
<text text-anchor="start" x="488" y="-413.8" font-family="Helvetica,sans-Serif" font-size="8.00">+ Intersects (Ray ray) : GameObjectDistance abstract</text>
<text text-anchor="start" x="488" y="-401.8" font-family="Helvetica,sans-Serif" font-size="8.00">+ Center () : Vector3 abstract</text>
<text text-anchor="start" x="488" y="-389.8" font-family="Helvetica,sans-Serif" font-size="8.00">+ Draw (GameTime gameTime) abstract</text>
<text text-anchor="start" x="488" y="-377.8" font-family="Helvetica,sans-Serif" font-size="8.00">+ Update (GameTime gameTime) abstract</text>
<text text-anchor="start" x="488" y="-365.8" font-family="Helvetica,sans-Serif" font-size="8.00">+ KnotRenderer (GameState state)</text>
<text text-anchor="start" x="488" y="-353.8" font-family="Helvetica,sans-Serif" font-size="8.00">+ OnEdgesChanged (EdgeList edges) abstract</text>
</g>
<!-- Box_IGameObject&#45;&gt;Box_KnotRenderer -->
<g id="edge12" class="edge"><title>Box_IGameObject&#45;&gt;Box_KnotRenderer</title>
<path fill="none" stroke="midnightblue" d="M836.292,-666.934C790.078,-650.326 736.15,-625.813 695,-592 668.737,-570.42 646.037,-541.154 628.072,-513.373"/>
<polygon fill="none" stroke="midnightblue" points="835.132,-670.236 845.727,-670.254 837.456,-663.633 835.132,-670.236"/>
</g>
<!-- Box_MovableGameObject -->
<g id="node9" class="node"><title>Box_MovableGameObject</title>
<polygon fill="#fcfcda" stroke="black" points="933.5,-327 933.5,-531 1184.5,-531 1184.5,-327 933.5,-327"/>
<text text-anchor="middle" x="1059" y="-519.8" font-family="Helvetica,sans-Serif" font-size="8.00">MovableGameObject</text>
<polyline fill="none" stroke="black" points="933.5,-511 1184.5,-511 "/>
<text text-anchor="start" x="941.5" y="-499.8" font-family="Helvetica,sans-Serif" font-size="8.00">Attributes:</text>
<text text-anchor="start" x="941.5" y="-487.8" font-family="Helvetica,sans-Serif" font-size="8.00">&#45; Obj : IGameObject</text>
<text text-anchor="start" x="941.5" y="-475.8" font-family="Helvetica,sans-Serif" font-size="8.00">+ World : World</text>
<text text-anchor="start" x="941.5" y="-463.8" font-family="Helvetica,sans-Serif" font-size="8.00">&#45; state : GameState</text>
<text text-anchor="start" x="941.5" y="-451.8" font-family="Helvetica,sans-Serif" font-size="8.00">+ Info : dynamic</text>
<text text-anchor="start" x="941.5" y="-439.8" font-family="Helvetica,sans-Serif" font-size="8.00">Methods:</text>
<polyline fill="none" stroke="black" points="933.5,-431 1184.5,-431 "/>
<text text-anchor="start" x="941.5" y="-419.8" font-family="Helvetica,sans-Serif" font-size="8.00"># CurrentGroundPlane () : Plane</text>
<text text-anchor="start" x="941.5" y="-407.8" font-family="Helvetica,sans-Serif" font-size="8.00">+ MovableGameObject (GameState state, IGameObject obj)</text>
<text text-anchor="start" x="941.5" y="-395.8" font-family="Helvetica,sans-Serif" font-size="8.00">+ Update (GameTime gameTime) virtual</text>
<text text-anchor="start" x="941.5" y="-383.8" font-family="Helvetica,sans-Serif" font-size="8.00"># CurrentMouseRay () : Ray</text>
<text text-anchor="start" x="941.5" y="-371.8" font-family="Helvetica,sans-Serif" font-size="8.00"># CurrentMousePosition (Ray ray, Plane groundPlane) : Vector3?</text>
<text text-anchor="start" x="941.5" y="-359.8" font-family="Helvetica,sans-Serif" font-size="8.00">+ Intersects (Ray ray) : GameObjectDistance</text>
<text text-anchor="start" x="941.5" y="-347.8" font-family="Helvetica,sans-Serif" font-size="8.00">+ Center () : Vector3</text>
<text text-anchor="start" x="941.5" y="-335.8" font-family="Helvetica,sans-Serif" font-size="8.00">+ Draw (GameTime gameTime)</text>
</g>
<!-- Box_IGameObject&#45;&gt;Box_MovableGameObject -->
<g id="edge20" class="edge"><title>Box_IGameObject&#45;&gt;Box_MovableGameObject</title>
<path fill="none" stroke="midnightblue" d="M969.372,-619.729C982.318,-592.18 997.19,-560.531 1011.05,-531.034"/>
<polygon fill="none" stroke="midnightblue" points="966.145,-618.366 965.059,-628.905 972.48,-621.343 966.145,-618.366"/>
</g>
<!-- Box_PipeMovement -->
<g id="node10" class="node"><title>Box_PipeMovement</title>
<polygon fill="#fcfcda" stroke="black" points="125.5,-291 125.5,-567 462.5,-567 462.5,-291 125.5,-291"/>
<text text-anchor="middle" x="294" y="-555.8" font-family="Helvetica,sans-Serif" font-size="8.00">PipeMovement</text>
<polyline fill="none" stroke="black" points="125.5,-547 462.5,-547 "/>
<text text-anchor="start" x="133.5" y="-535.8" font-family="Helvetica,sans-Serif" font-size="8.00">Attributes:</text>
<text text-anchor="start" x="133.5" y="-523.8" font-family="Helvetica,sans-Serif" font-size="8.00">&#45; shadowObjects : List&lt;ShadowGameObject&gt;</text>
<text text-anchor="start" x="133.5" y="-511.8" font-family="Helvetica,sans-Serif" font-size="8.00">+ World : World</text>
<text text-anchor="start" x="133.5" y="-499.8" font-family="Helvetica,sans-Serif" font-size="8.00">&#45; state : GameState</text>
<text text-anchor="start" x="133.5" y="-487.8" font-family="Helvetica,sans-Serif" font-size="8.00">&#45; previousMousePosition : Vector3</text>
<text text-anchor="start" x="133.5" y="-475.8" font-family="Helvetica,sans-Serif" font-size="8.00">+ Knot : Knot</text>
<text text-anchor="start" x="133.5" y="-463.8" font-family="Helvetica,sans-Serif" font-size="8.00">+ Info : dynamic</text>
<text text-anchor="start" x="133.5" y="-451.8" font-family="Helvetica,sans-Serif" font-size="8.00">Methods:</text>
<polyline fill="none" stroke="black" points="125.5,-443 462.5,-443 "/>
<text text-anchor="start" x="133.5" y="-431.8" font-family="Helvetica,sans-Serif" font-size="8.00">&#45; IEnumerable.GetEnumerator () : IEnumerator</text>
<text text-anchor="start" x="133.5" y="-419.8" font-family="Helvetica,sans-Serif" font-size="8.00">&#45; CreateShadowPipes ()</text>
<text text-anchor="start" x="133.5" y="-407.8" font-family="Helvetica,sans-Serif" font-size="8.00">&#45; MovePipes (Vector3 currentMousePosition)</text>
<text text-anchor="start" x="133.5" y="-395.8" font-family="Helvetica,sans-Serif" font-size="8.00">+ Intersects (Ray ray) : GameObjectDistance</text>
<text text-anchor="start" x="133.5" y="-383.8" font-family="Helvetica,sans-Serif" font-size="8.00">+ GetEnumerator () : IEnumerator&lt;IGameObject&gt;</text>
<text text-anchor="start" x="133.5" y="-371.8" font-family="Helvetica,sans-Serif" font-size="8.00">+ PipeMovement (GameState state, World world, GameObjectInfo info)</text>
<text text-anchor="start" x="133.5" y="-359.8" font-family="Helvetica,sans-Serif" font-size="8.00">+ Draw (GameTime gameTime)</text>
<text text-anchor="start" x="133.5" y="-347.8" font-family="Helvetica,sans-Serif" font-size="8.00">+ Update (GameTime gameTime)</text>
<text text-anchor="start" x="133.5" y="-335.8" font-family="Helvetica,sans-Serif" font-size="8.00">&#45; ComputeDirection (Vector3 currentMousePosition, out Vector3 direction, out float count)</text>
<text text-anchor="start" x="133.5" y="-323.8" font-family="Helvetica,sans-Serif" font-size="8.00">&#45; ComputeDirection (Vector3 currentMousePosition, out Vector3 direction, out int countInt)</text>
<text text-anchor="start" x="133.5" y="-311.8" font-family="Helvetica,sans-Serif" font-size="8.00">&#45; MoveShadowPipes (Vector3 currentMousePosition)</text>
<text text-anchor="start" x="133.5" y="-299.8" font-family="Helvetica,sans-Serif" font-size="8.00">+ Center () : Vector3</text>
</g>
<!-- Box_IGameObject&#45;&gt;Box_PipeMovement -->
<g id="edge22" class="edge"><title>Box_IGameObject&#45;&gt;Box_PipeMovement</title>
<path fill="none" stroke="midnightblue" d="M836.172,-672.466C778.771,-659.323 704.813,-642.524 639,-628 564.433,-611.543 538.814,-627.104 471,-592 457.274,-584.894 443.818,-576.438 430.84,-567.169"/>
<polygon fill="none" stroke="midnightblue" points="835.434,-675.887 845.963,-674.709 836.997,-669.064 835.434,-675.887"/>
</g>
<!-- Box_ShadowGameObject -->
<g id="node11" class="node"><title>Box_ShadowGameObject</title>
<polygon fill="#fcfcda" stroke="black" points="1201.5,-333 1201.5,-525 1430.5,-525 1430.5,-333 1201.5,-333"/>
<text text-anchor="middle" x="1316" y="-513.8" font-family="Helvetica,sans-Serif" font-size="8.00">ShadowGameObject</text>
<polyline fill="none" stroke="black" points="1201.5,-505 1430.5,-505 "/>
<text text-anchor="start" x="1209.5" y="-493.8" font-family="Helvetica,sans-Serif" font-size="8.00">Attributes:</text>
<text text-anchor="start" x="1209.5" y="-481.8" font-family="Helvetica,sans-Serif" font-size="8.00">&#45; Obj : IGameObject</text>
<text text-anchor="start" x="1209.5" y="-469.8" font-family="Helvetica,sans-Serif" font-size="8.00">+ OriginalPosition : Vector3</text>
<text text-anchor="start" x="1209.5" y="-457.8" font-family="Helvetica,sans-Serif" font-size="8.00">+ World : World</text>
<text text-anchor="start" x="1209.5" y="-445.8" font-family="Helvetica,sans-Serif" font-size="8.00">+ Info : dynamic</text>
<text text-anchor="start" x="1209.5" y="-433.8" font-family="Helvetica,sans-Serif" font-size="8.00"># state : GameState</text>
<text text-anchor="start" x="1209.5" y="-421.8" font-family="Helvetica,sans-Serif" font-size="8.00">+ ShadowPosition : Vector3</text>
<text text-anchor="start" x="1209.5" y="-409.8" font-family="Helvetica,sans-Serif" font-size="8.00">Methods:</text>
<polyline fill="none" stroke="black" points="1201.5,-401 1430.5,-401 "/>
<text text-anchor="start" x="1209.5" y="-389.8" font-family="Helvetica,sans-Serif" font-size="8.00">+ Update (GameTime gameTime) virtual</text>
<text text-anchor="start" x="1209.5" y="-377.8" font-family="Helvetica,sans-Serif" font-size="8.00">+ Intersects (Ray ray) : GameObjectDistance</text>
<text text-anchor="start" x="1209.5" y="-365.8" font-family="Helvetica,sans-Serif" font-size="8.00">+ ShadowGameObject (GameState state, IGameObject obj)</text>
<text text-anchor="start" x="1209.5" y="-353.8" font-family="Helvetica,sans-Serif" font-size="8.00">+ Center () : Vector3</text>
<text text-anchor="start" x="1209.5" y="-341.8" font-family="Helvetica,sans-Serif" font-size="8.00">+ Draw (GameTime gameTime) virtual</text>
</g>
<!-- Box_IGameObject&#45;&gt;Box_ShadowGameObject -->
<g id="edge26" class="edge"><title>Box_IGameObject&#45;&gt;Box_ShadowGameObject</title>
<path fill="none" stroke="midnightblue" d="M1032.09,-669.921C1083.49,-653.496 1145.46,-628.247 1193,-592 1217.1,-573.622 1238.83,-549.337 1257.07,-525.142"/>
<polygon fill="none" stroke="midnightblue" points="1030.78,-666.661 1022.29,-672.988 1032.87,-673.342 1030.78,-666.661"/>
</g>
<!-- Box_TexturedRectangle -->
<g id="node13" class="node"><title>Box_TexturedRectangle</title>
<polygon fill="#fcfcda" stroke="black" points="1447.5,-273 1447.5,-585 1708.5,-585 1708.5,-273 1447.5,-273"/>
<text text-anchor="middle" x="1578" y="-573.8" font-family="Helvetica,sans-Serif" font-size="8.00">TexturedRectangle</text>
<polyline fill="none" stroke="black" points="1447.5,-565 1708.5,-565 "/>
<text text-anchor="start" x="1455.5" y="-553.8" font-family="Helvetica,sans-Serif" font-size="8.00">Attributes:</text>
<text text-anchor="start" x="1455.5" y="-541.8" font-family="Helvetica,sans-Serif" font-size="8.00">&#45; basicEffect : BasicEffect</text>
<text text-anchor="start" x="1455.5" y="-529.8" font-family="Helvetica,sans-Serif" font-size="8.00">&#45; texture : Texture2D</text>
<text text-anchor="start" x="1455.5" y="-517.8" font-family="Helvetica,sans-Serif" font-size="8.00">&#45; LowerLeft : Vector3</text>
<text text-anchor="start" x="1455.5" y="-505.8" font-family="Helvetica,sans-Serif" font-size="8.00">&#45; LowerRight : Vector3</text>
<text text-anchor="start" x="1455.5" y="-493.8" font-family="Helvetica,sans-Serif" font-size="8.00">&#45; Normal : Vector3</text>
<text text-anchor="start" x="1455.5" y="-481.8" font-family="Helvetica,sans-Serif" font-size="8.00">&#45; UpperRight : Vector3</text>
<text text-anchor="start" x="1455.5" y="-469.8" font-family="Helvetica,sans-Serif" font-size="8.00">&#45; Vertices : VertexPositionNormalTexture[]</text>
<text text-anchor="start" x="1455.5" y="-457.8" font-family="Helvetica,sans-Serif" font-size="8.00">&#45; Indexes : short[]</text>
<text text-anchor="start" x="1455.5" y="-445.8" font-family="Helvetica,sans-Serif" font-size="8.00">+ Info : dynamic</text>
<text text-anchor="start" x="1455.5" y="-433.8" font-family="Helvetica,sans-Serif" font-size="8.00">&#45; UpperLeft : Vector3</text>
<text text-anchor="start" x="1455.5" y="-421.8" font-family="Helvetica,sans-Serif" font-size="8.00"># state : GameState</text>
<text text-anchor="start" x="1455.5" y="-409.8" font-family="Helvetica,sans-Serif" font-size="8.00">+ World : World</text>
<text text-anchor="start" x="1455.5" y="-397.8" font-family="Helvetica,sans-Serif" font-size="8.00">Methods:</text>
<polyline fill="none" stroke="black" points="1447.5,-389 1708.5,-389 "/>
<text text-anchor="start" x="1455.5" y="-377.8" font-family="Helvetica,sans-Serif" font-size="8.00">&#45; Length () : Vector3</text>
<text text-anchor="start" x="1455.5" y="-365.8" font-family="Helvetica,sans-Serif" font-size="8.00">&#45; FillVertices ()</text>
<text text-anchor="start" x="1455.5" y="-353.8" font-family="Helvetica,sans-Serif" font-size="8.00">+ Intersects (Ray ray) : GameObjectDistance</text>
<text text-anchor="start" x="1455.5" y="-341.8" font-family="Helvetica,sans-Serif" font-size="8.00">+ TexturedRectangle (GameState state, TexturedRectangleInfo info)</text>
<text text-anchor="start" x="1455.5" y="-329.8" font-family="Helvetica,sans-Serif" font-size="8.00">+ Draw (GameTime gameTime)</text>
<text text-anchor="start" x="1455.5" y="-317.8" font-family="Helvetica,sans-Serif" font-size="8.00"># SetPosition (Vector3 position)</text>
<text text-anchor="start" x="1455.5" y="-305.8" font-family="Helvetica,sans-Serif" font-size="8.00">+ Bounds () : BoundingBox[]</text>
<text text-anchor="start" x="1455.5" y="-293.8" font-family="Helvetica,sans-Serif" font-size="8.00">+ Center () : Vector3</text>
<text text-anchor="start" x="1455.5" y="-281.8" font-family="Helvetica,sans-Serif" font-size="8.00">+ Update (GameTime gameTime)</text>
</g>
<!-- Box_IGameObject&#45;&gt;Box_TexturedRectangle -->
<g id="edge30" class="edge"><title>Box_IGameObject&#45;&gt;Box_TexturedRectangle</title>
<path fill="none" stroke="midnightblue" d="M1032.34,-682.684C1159.14,-665.495 1371.37,-631.892 1439,-592 1442.68,-589.827 1446.32,-587.52 1449.9,-585.096"/>
<polygon fill="none" stroke="midnightblue" points="1031.68,-679.242 1022.24,-684.044 1032.61,-686.18 1031.68,-679.242"/>
</g>
<!-- Box_NodeModel -->
<g id="node3" class="node"><title>Box_NodeModel</title>
<polygon fill="#fcfcda" stroke="black" points="730.5,-67 730.5,-163 937.5,-163 937.5,-67 730.5,-67"/>
<text text-anchor="middle" x="834" y="-151.8" font-family="Helvetica,sans-Serif" font-size="8.00">NodeModel</text>
<polyline fill="none" stroke="black" points="730.5,-143 937.5,-143 "/>
<text text-anchor="start" x="738.5" y="-131.8" font-family="Helvetica,sans-Serif" font-size="8.00">Attributes:</text>
<text text-anchor="start" x="738.5" y="-119.8" font-family="Helvetica,sans-Serif" font-size="8.00">+ Info : NodeModelInfo</text>
<text text-anchor="start" x="738.5" y="-107.8" font-family="Helvetica,sans-Serif" font-size="8.00">Methods:</text>
<polyline fill="none" stroke="black" points="730.5,-99 937.5,-99 "/>
<text text-anchor="start" x="738.5" y="-87.8" font-family="Helvetica,sans-Serif" font-size="8.00">+ NodeModel (GameState state, NodeModelInfo info)</text>
<text text-anchor="start" x="738.5" y="-75.8" font-family="Helvetica,sans-Serif" font-size="8.00">+ Draw (GameTime gameTime)</text>
</g>
<!-- Box_GameModel&#45;&gt;Box_NodeModel -->
<g id="edge4" class="edge"><title>Box_GameModel&#45;&gt;Box_NodeModel</title>
<path fill="none" stroke="midnightblue" d="M823.167,-256.731C825.796,-222.331 828.35,-188.917 830.317,-163.181"/>
<polygon fill="none" stroke="midnightblue" points="819.659,-256.704 822.387,-266.941 826.639,-257.237 819.659,-256.704"/>
</g>
<!-- Box_PipeModel -->
<g id="node4" class="node"><title>Box_PipeModel</title>
<polygon fill="#fcfcda" stroke="black" points="955,-43 955,-187 1155,-187 1155,-43 955,-43"/>
<text text-anchor="middle" x="1055" y="-175.8" font-family="Helvetica,sans-Serif" font-size="8.00">PipeModel</text>
<polyline fill="none" stroke="black" points="955,-167 1155,-167 "/>
<text text-anchor="start" x="963" y="-155.8" font-family="Helvetica,sans-Serif" font-size="8.00">Attributes:</text>
<text text-anchor="start" x="963" y="-143.8" font-family="Helvetica,sans-Serif" font-size="8.00">&#45; Bounds : BoundingSphere[]</text>
<text text-anchor="start" x="963" y="-131.8" font-family="Helvetica,sans-Serif" font-size="8.00">+ Info : PipeModelInfo</text>
<text text-anchor="start" x="963" y="-119.8" font-family="Helvetica,sans-Serif" font-size="8.00">Methods:</text>
<polyline fill="none" stroke="black" points="955,-111 1155,-111 "/>
<text text-anchor="start" x="963" y="-99.8" font-family="Helvetica,sans-Serif" font-size="8.00">+ OnDataChange () : Action</text>
<text text-anchor="start" x="963" y="-87.8" font-family="Helvetica,sans-Serif" font-size="8.00">+ Draw (GameTime gameTime)</text>
<text text-anchor="start" x="963" y="-75.8" font-family="Helvetica,sans-Serif" font-size="8.00">+ PipeModel (GameState state, PipeModelInfo info)</text>
<text text-anchor="start" x="963" y="-63.8" font-family="Helvetica,sans-Serif" font-size="8.00">+ Intersects (Ray ray) : GameObjectDistance</text>
<text text-anchor="start" x="963" y="-51.8" font-family="Helvetica,sans-Serif" font-size="8.00">+ Update (GameTime gameTime)</text>
</g>
<!-- Box_GameModel&#45;&gt;Box_PipeModel -->
<g id="edge6" class="edge"><title>Box_GameModel&#45;&gt;Box_PipeModel</title>
<path fill="none" stroke="midnightblue" d="M922.199,-269.603C923.134,-268.396 924.068,-267.195 925,-266 945.536,-239.682 969.061,-211.75 990.405,-187.159"/>
<polygon fill="none" stroke="midnightblue" points="919.328,-267.595 916.01,-277.657 924.878,-271.861 919.328,-267.595"/>
</g>
<!-- Box_TestModel -->
<g id="node5" class="node"><title>Box_TestModel</title>
<polygon fill="#fcfcda" stroke="black" points="507,-73 507,-157 713,-157 713,-73 507,-73"/>
<text text-anchor="middle" x="610" y="-145.8" font-family="Helvetica,sans-Serif" font-size="8.00">TestModel</text>
<polyline fill="none" stroke="black" points="507,-137 713,-137 "/>
<text text-anchor="start" x="515" y="-125.8" font-family="Helvetica,sans-Serif" font-size="8.00">Attributes:</text>
<text text-anchor="start" x="515" y="-113.8" font-family="Helvetica,sans-Serif" font-size="8.00">Methods:</text>
<polyline fill="none" stroke="black" points="507,-105 713,-105 "/>
<text text-anchor="start" x="515" y="-93.8" font-family="Helvetica,sans-Serif" font-size="8.00">+ Update (GameTime gameTime)</text>
<text text-anchor="start" x="515" y="-81.8" font-family="Helvetica,sans-Serif" font-size="8.00">+ TestModel (GameState state, GameModelInfo info)</text>
</g>
<!-- Box_GameModel&#45;&gt;Box_TestModel -->
<g id="edge8" class="edge"><title>Box_GameModel&#45;&gt;Box_TestModel</title>
<path fill="none" stroke="midnightblue" d="M701.325,-258.38C677.33,-220.708 654.006,-184.09 636.936,-157.289"/>
<polygon fill="none" stroke="midnightblue" points="698.454,-260.387 706.778,-266.941 704.358,-256.626 698.454,-260.387"/>
</g>
<!-- Box_LineRenderer -->
<g id="node7" class="node"><title>Box_LineRenderer</title>
<polygon fill="#fcfcda" stroke="black" points="271,-19 271,-211 489,-211 489,-19 271,-19"/>
<text text-anchor="middle" x="380" y="-199.8" font-family="Helvetica,sans-Serif" font-size="8.00">LineRenderer</text>
<polyline fill="none" stroke="black" points="271,-191 489,-191 "/>
<text text-anchor="start" x="279" y="-179.8" font-family="Helvetica,sans-Serif" font-size="8.00">Attributes:</text>
<text text-anchor="start" x="279" y="-167.8" font-family="Helvetica,sans-Serif" font-size="8.00">&#45; edges : EdgeList</text>
<text text-anchor="start" x="279" y="-155.8" font-family="Helvetica,sans-Serif" font-size="8.00">&#45; basicEffect : BasicEffect</text>
<text text-anchor="start" x="279" y="-143.8" font-family="Helvetica,sans-Serif" font-size="8.00">+ World : World</text>
<text text-anchor="start" x="279" y="-131.8" font-family="Helvetica,sans-Serif" font-size="8.00">+ Info : dynamic</text>
<text text-anchor="start" x="279" y="-119.8" font-family="Helvetica,sans-Serif" font-size="8.00">Methods:</text>
<polyline fill="none" stroke="black" points="271,-111 489,-111 "/>
<text text-anchor="start" x="279" y="-99.8" font-family="Helvetica,sans-Serif" font-size="8.00">+ LineRenderer (GameState state, GameObjectInfo info)</text>
<text text-anchor="start" x="279" y="-87.8" font-family="Helvetica,sans-Serif" font-size="8.00">+ OnEdgesChanged (EdgeList edges)</text>
<text text-anchor="start" x="279" y="-75.8" font-family="Helvetica,sans-Serif" font-size="8.00">&#45; DrawRoundedLines ()</text>
<text text-anchor="start" x="279" y="-63.8" font-family="Helvetica,sans-Serif" font-size="8.00">+ Intersects (Ray ray) : GameObjectDistance</text>
<text text-anchor="start" x="279" y="-51.8" font-family="Helvetica,sans-Serif" font-size="8.00">+ Center () : Vector3</text>
<text text-anchor="start" x="279" y="-39.8" font-family="Helvetica,sans-Serif" font-size="8.00">+ Draw (GameTime gameTime)</text>
<text text-anchor="start" x="279" y="-27.8" font-family="Helvetica,sans-Serif" font-size="8.00">+ Update (GameTime gameTime)</text>
</g>
<!-- Box_KnotRenderer&#45;&gt;Box_LineRenderer -->
<g id="edge14" class="edge"><title>Box_KnotRenderer&#45;&gt;Box_LineRenderer</title>
<path fill="none" stroke="midnightblue" d="M522.897,-336.033C497.431,-296.641 467.768,-250.759 442.09,-211.04"/>
<polygon fill="none" stroke="midnightblue" points="520.231,-338.356 528.6,-344.854 526.11,-334.556 520.231,-338.356"/>
</g>
<!-- Box_PipeRenderer -->
<g id="node8" class="node"><title>Box_PipeRenderer</title>
<polygon fill="#fcfcda" stroke="black" points="-0.5,-1 -0.5,-229 218.5,-229 218.5,-1 -0.5,-1"/>
<text text-anchor="middle" x="109" y="-217.8" font-family="Helvetica,sans-Serif" font-size="8.00">PipeRenderer</text>
<polyline fill="none" stroke="black" points="-0.5,-209 218.5,-209 "/>
<text text-anchor="start" x="7.5" y="-197.8" font-family="Helvetica,sans-Serif" font-size="8.00">Attributes:</text>
<text text-anchor="start" x="7.5" y="-185.8" font-family="Helvetica,sans-Serif" font-size="8.00">&#45; nodes : List&lt;NodeModel&gt;</text>
<text text-anchor="start" x="7.5" y="-173.8" font-family="Helvetica,sans-Serif" font-size="8.00">&#45; nodeFactory : ModelFactory</text>
<text text-anchor="start" x="7.5" y="-161.8" font-family="Helvetica,sans-Serif" font-size="8.00">&#45; pipeFactory : ModelFactory</text>
<text text-anchor="start" x="7.5" y="-149.8" font-family="Helvetica,sans-Serif" font-size="8.00">&#45; pipes : List&lt;PipeModel&gt;</text>
<text text-anchor="start" x="7.5" y="-137.8" font-family="Helvetica,sans-Serif" font-size="8.00">+ World : World</text>
<text text-anchor="start" x="7.5" y="-125.8" font-family="Helvetica,sans-Serif" font-size="8.00">+ Info : dynamic</text>
<text text-anchor="start" x="7.5" y="-113.8" font-family="Helvetica,sans-Serif" font-size="8.00">Methods:</text>
<polyline fill="none" stroke="black" points="-0.5,-105 218.5,-105 "/>
<text text-anchor="start" x="7.5" y="-93.8" font-family="Helvetica,sans-Serif" font-size="8.00">&#45; IEnumerable.GetEnumerator () : IEnumerator</text>
<text text-anchor="start" x="7.5" y="-81.8" font-family="Helvetica,sans-Serif" font-size="8.00">+ PipeRenderer (GameState state, GameObjectInfo info)</text>
<text text-anchor="start" x="7.5" y="-69.8" font-family="Helvetica,sans-Serif" font-size="8.00">+ Draw (GameTime gameTime)</text>
<text text-anchor="start" x="7.5" y="-57.8" font-family="Helvetica,sans-Serif" font-size="8.00">+ OnEdgesChanged (EdgeList edges)</text>
<text text-anchor="start" x="7.5" y="-45.8" font-family="Helvetica,sans-Serif" font-size="8.00">+ GetEnumerator () : IEnumerator&lt;IGameObject&gt;</text>
<text text-anchor="start" x="7.5" y="-33.8" font-family="Helvetica,sans-Serif" font-size="8.00">+ Intersects (Ray ray) : GameObjectDistance</text>
<text text-anchor="start" x="7.5" y="-21.8" font-family="Helvetica,sans-Serif" font-size="8.00">+ Center () : Vector3</text>
<text text-anchor="start" x="7.5" y="-9.8" font-family="Helvetica,sans-Serif" font-size="8.00">+ Update (GameTime gameTime)</text>
</g>
<!-- Box_KnotRenderer&#45;&gt;Box_PipeRenderer -->
<g id="edge16" class="edge"><title>Box_KnotRenderer&#45;&gt;Box_PipeRenderer</title>
<path fill="none" stroke="midnightblue" d="M537.525,-336.186C520.209,-309.665 498.002,-283.295 471,-266 391.628,-215.162 348.536,-267.361 262,-230 247.356,-223.678 232.825,-215.684 218.879,-206.866"/>
<polygon fill="none" stroke="midnightblue" points="534.668,-338.216 542.976,-344.791 540.582,-334.47 534.668,-338.216"/>
</g>
<!-- Box_ShadowGameModel -->
<g id="node12" class="node"><title>Box_ShadowGameModel</title>
<polygon fill="#fcfcda" stroke="black" points="1198,-55 1198,-175 1434,-175 1434,-55 1198,-55"/>
<text text-anchor="middle" x="1316" y="-163.8" font-family="Helvetica,sans-Serif" font-size="8.00">ShadowGameModel</text>
<polyline fill="none" stroke="black" points="1198,-155 1434,-155 "/>
<text text-anchor="start" x="1206" y="-143.8" font-family="Helvetica,sans-Serif" font-size="8.00">Attributes:</text>
<text text-anchor="start" x="1206" y="-131.8" font-family="Helvetica,sans-Serif" font-size="8.00">+ ShadowColor : Color</text>
<text text-anchor="start" x="1206" y="-119.8" font-family="Helvetica,sans-Serif" font-size="8.00">&#45; Model : GameModel</text>
<text text-anchor="start" x="1206" y="-107.8" font-family="Helvetica,sans-Serif" font-size="8.00">+ ShadowAlpha : float</text>
<text text-anchor="start" x="1206" y="-95.8" font-family="Helvetica,sans-Serif" font-size="8.00">Methods:</text>
<polyline fill="none" stroke="black" points="1198,-87 1434,-87 "/>
<text text-anchor="start" x="1206" y="-75.8" font-family="Helvetica,sans-Serif" font-size="8.00">+ ShadowGameModel (GameState state, GameModel model)</text>
<text text-anchor="start" x="1206" y="-63.8" font-family="Helvetica,sans-Serif" font-size="8.00">+ Draw (GameTime gameTime)</text>
</g>
<!-- Box_ShadowGameObject&#45;&gt;Box_ShadowGameModel -->
<g id="edge28" class="edge"><title>Box_ShadowGameObject&#45;&gt;Box_ShadowGameModel</title>
<path fill="none" stroke="midnightblue" d="M1316,-322.601C1316,-273.405 1316,-216.786 1316,-175.116"/>
<polygon fill="none" stroke="midnightblue" points="1312.5,-322.656 1316,-332.656 1319.5,-322.656 1312.5,-322.656"/>
</g>
<!-- Box_IEdgeChangeListener -->
<g id="node14" class="node"><title>Box_IEdgeChangeListener</title>
<polygon fill="#ffffff" stroke="black" points="535.5,-685 535.5,-705 630.5,-705 630.5,-685 535.5,-685"/>
<text text-anchor="middle" x="583" y="-693.8" font-family="Helvetica,sans-Serif" font-size="8.00">IEdgeChangeListener</text>
</g>
<!-- Box_IEdgeChangeListener&#45;&gt;Box_KnotRenderer -->
<g id="edge10" class="edge"><title>Box_IEdgeChangeListener&#45;&gt;Box_KnotRenderer</title>
<path fill="none" stroke="midnightblue" d="M583,-674.83C583,-640.783 583,-570.059 583,-513.173"/>
<polygon fill="none" stroke="midnightblue" points="579.5,-674.897 583,-684.897 586.5,-674.897 579.5,-674.897"/>
</g>
<!-- Box_IEnumerable -->
<g id="node15" class="node"><title>Box_IEnumerable</title>
<polygon fill="#ffffff" stroke="black" points="137,-685 137,-705 255,-705 255,-685 137,-685"/>
<text text-anchor="middle" x="196" y="-693.8" font-family="Helvetica,sans-Serif" font-size="8.00">IEnumerable&lt;IGameObject&gt;</text>
</g>
<!-- Box_IEnumerable&#45;&gt;Box_PipeRenderer -->
<g id="edge18" class="edge"><title>Box_IEnumerable&#45;&gt;Box_PipeRenderer</title>
<path fill="none" stroke="midnightblue" d="M177.255,-677.994C157.983,-659.147 129.131,-626.787 117,-592 75.6839,-473.519 80.4675,-328.214 91.2573,-229.33"/>
<polygon fill="none" stroke="midnightblue" points="174.948,-680.63 184.606,-684.986 179.772,-675.558 174.948,-680.63"/>
</g>
<!-- Box_IEnumerable&#45;&gt;Box_PipeMovement -->
<g id="edge24" class="edge"><title>Box_IEnumerable&#45;&gt;Box_PipeMovement</title>
<path fill="none" stroke="midnightblue" d="M203.23,-675.376C211.946,-651.718 227.39,-609.799 243.095,-567.171"/>
<polygon fill="none" stroke="midnightblue" points="199.895,-674.304 199.722,-684.897 206.463,-676.724 199.895,-674.304"/>
</g>
</g>
</svg>
