<?xml version="1.0" encoding="UTF-8" standalone="no"?>
<!DOCTYPE svg PUBLIC "-//W3C//DTD SVG 1.1//EN"
 "http://www.w3.org/Graphics/SVG/1.1/DTD/svg11.dtd">
<!-- Generated by graphviz version 2.26.3 (20100126.1600)
 -->
<!-- Title: MenuItem Pages: 1 -->
<svg width="900pt" height="2242pt"
 viewBox="0.00 0.00 216.00 538.00" xmlns="http://www.w3.org/2000/svg" xmlns:xlink="http://www.w3.org/1999/xlink">
<g id="graph1" class="graph" transform="scale(4.16667 4.16667) rotate(0) translate(4 534)">
<title>MenuItem</title>
<polygon fill="white" stroke="white" points="-4,5 -4,-534 213,-534 213,5 -4,5"/>
<!-- Box_TestModel -->
<g id="node1" class="node"><title>Box_TestModel</title>
<polygon fill="#fcfcda" stroke="black" points="2.5,-1 2.5,-65 205.5,-65 205.5,-1 2.5,-1"/>
<text text-anchor="middle" x="104" y="-53.8" font-family="Arial" font-size="8.00">TestModel</text>
<polyline fill="none" stroke="black" points="2.5,-47 205.5,-47 "/>
<text text-anchor="middle" x="104" y="-35.8" font-family="Arial" font-size="8.00"> </text>
<polyline fill="none" stroke="black" points="2.5,-29 205.5,-29 "/>
<text text-anchor="start" x="10.5" y="-17.8" font-family="Arial" font-size="8.00">+ Update (GameTime gameTime)</text>
<text text-anchor="start" x="10.5" y="-7.8" font-family="Arial" font-size="8.00">+ TestModel (GameState state, GameModelInfo info)</text>
</g>
<!-- Box_GameModel -->
<g id="node2" class="node"><title>Box_GameModel</title>
<polygon fill="#fcfcda" stroke="black" points="-0.5,-103 -0.5,-397 208.5,-397 208.5,-103 -0.5,-103"/>
<text text-anchor="middle" x="104" y="-385.8" font-family="Arial" font-size="8.00">GameModel</text>
<polyline fill="none" stroke="black" points="-0.5,-379 208.5,-379 "/>
<text text-anchor="start" x="7.5" y="-367.8" font-family="Arial" font-size="8.00">&#45; IGameObject.Info : GameObjectInfo</text>
<text text-anchor="start" x="7.5" y="-357.8" font-family="Arial" font-size="8.00">&#45; _rotation : Angles3</text>
<text text-anchor="start" x="7.5" y="-347.8" font-family="Arial" font-size="8.00">&#45; Bounds : BoundingSphere[]</text>
<text text-anchor="start" x="7.5" y="-337.8" font-family="Arial" font-size="8.00">&#45; _bounds : BoundingSphere[]</text>
<text text-anchor="start" x="7.5" y="-327.8" font-family="Arial" font-size="8.00">&#45; _worldMatrix : Matrix</text>
<text text-anchor="start" x="7.5" y="-317.8" font-family="Arial" font-size="8.00">&#45; _position : Vector3</text>
<text text-anchor="start" x="7.5" y="-307.8" font-family="Arial" font-size="8.00">&#45; _inFrustum : bool</text>
<text text-anchor="start" x="7.5" y="-297.8" font-family="Arial" font-size="8.00"># InCameraFrustum : bool</text>
<text text-anchor="start" x="7.5" y="-287.8" font-family="Arial" font-size="8.00">+ BaseColor : Color</text>
<text text-anchor="start" x="7.5" y="-277.8" font-family="Arial" font-size="8.00">+ HighlightColor : Color</text>
<text text-anchor="start" x="7.5" y="-267.8" font-family="Arial" font-size="8.00">+ Info : GameModelInfo</text>
<text text-anchor="start" x="7.5" y="-257.8" font-family="Arial" font-size="8.00">+ WorldMatrix : Matrix</text>
<text text-anchor="start" x="7.5" y="-247.8" font-family="Arial" font-size="8.00">+ World : World</text>
<text text-anchor="start" x="7.5" y="-237.8" font-family="Arial" font-size="8.00">+ Alpha : float</text>
<text text-anchor="start" x="7.5" y="-227.8" font-family="Arial" font-size="8.00">+ HighlightIntensity : float</text>
<text text-anchor="start" x="7.5" y="-217.8" font-family="Arial" font-size="8.00">&#45; _scale : Vector3</text>
<text text-anchor="start" x="7.5" y="-207.8" font-family="Arial" font-size="8.00">&#45; _world : World</text>
<text text-anchor="start" x="7.5" y="-197.8" font-family="Arial" font-size="8.00"># state : GameState</text>
<text text-anchor="start" x="7.5" y="-187.8" font-family="Arial" font-size="8.00">+ Model : Model virtual</text>
<polyline fill="none" stroke="black" points="-0.5,-181 208.5,-181 "/>
<text text-anchor="start" x="7.5" y="-169.8" font-family="Arial" font-size="8.00">&#45; OnViewChanged ()</text>
<text text-anchor="start" x="7.5" y="-159.8" font-family="Arial" font-size="8.00">&#45; UpdatePrecomputed ()</text>
<text text-anchor="start" x="7.5" y="-149.8" font-family="Arial" font-size="8.00">+ GameModel (GameState state, GameModelInfo info)</text>
<text text-anchor="start" x="7.5" y="-139.8" font-family="Arial" font-size="8.00">+ Draw (GameTime gameTime) virtual</text>
<text text-anchor="start" x="7.5" y="-129.8" font-family="Arial" font-size="8.00">+ Center () : Vector3</text>
<text text-anchor="start" x="7.5" y="-119.8" font-family="Arial" font-size="8.00">+ Intersects (Ray ray) : GameObjectDistance virtual</text>
<text text-anchor="start" x="7.5" y="-109.8" font-family="Arial" font-size="8.00">+ Update (GameTime gameTime) virtual</text>
</g>
<!-- Box_GameModel&#45;&gt;Box_TestModel -->
<g id="edge2" class="edge"><title>Box_GameModel&#45;&gt;Box_TestModel</title>
<path fill="none" stroke="midnightblue" d="M104,-92.6236C104,-82.6096 104,-73.2978 104,-65.1505"/>
<polygon fill="none" stroke="midnightblue" points="100.5,-92.8546 104,-102.855 107.5,-92.8547 100.5,-92.8546"/>
</g>
<!-- Box_IGameObject -->
<g id="node3" class="node"><title>Box_IGameObject</title>
<polygon fill="#dafcda" stroke="black" points="14.5,-435 14.5,-529 193.5,-529 193.5,-435 14.5,-435"/>
<text text-anchor="middle" x="104" y="-517.8" font-family="Arial" font-size="8.00">IGameObject</text>
<polyline fill="none" stroke="black" points="14.5,-511 193.5,-511 "/>
<text text-anchor="start" x="22.5" y="-499.8" font-family="Arial" font-size="8.00">+ Info : GameObjectInfo</text>
<text text-anchor="start" x="22.5" y="-489.8" font-family="Arial" font-size="8.00">+ World : World</text>
<polyline fill="none" stroke="black" points="14.5,-483 193.5,-483 "/>
<text text-anchor="start" x="22.5" y="-471.8" font-family="Arial" font-size="8.00">+ Draw (GameTime gameTime)</text>
<text text-anchor="start" x="22.5" y="-461.8" font-family="Arial" font-size="8.00">+ Update (GameTime gameTime)</text>
<text text-anchor="start" x="22.5" y="-451.8" font-family="Arial" font-size="8.00">+ Intersects (Ray ray) : GameObjectDistance</text>
<text text-anchor="start" x="22.5" y="-441.8" font-family="Arial" font-size="8.00">+ Center () : Vector3</text>
</g>
<!-- Box_IGameObject&#45;&gt;Box_GameModel -->
<g id="edge4" class="edge"><title>Box_IGameObject&#45;&gt;Box_GameModel</title>
<path fill="none" stroke="midnightblue" d="M104,-424.563C104,-415.94 104,-406.731 104,-397.221"/>
<polygon fill="none" stroke="midnightblue" points="100.5,-424.772 104,-434.772 107.5,-424.772 100.5,-424.772"/>
</g>
</g>
</svg>
