<?xml version="1.0" encoding="UTF-8" standalone="no"?>
<!DOCTYPE svg PUBLIC "-//W3C//DTD SVG 1.1//EN"
 "http://www.w3.org/Graphics/SVG/1.1/DTD/svg11.dtd">
<!-- Generated by graphviz version 2.26.3 (20100126.1600)
 -->
<!-- Title: MenuItem Pages: 1 -->
<svg width="6325pt" height="2775pt"
 viewBox="0.00 0.00 1518.00 666.00" xmlns="http://www.w3.org/2000/svg" xmlns:xlink="http://www.w3.org/1999/xlink">
<g id="graph1" class="graph" transform="scale(4.16667 4.16667) rotate(0) translate(4 662)">
<title>MenuItem</title>
<polygon fill="white" stroke="white" points="-4,5 -4,-662 1515,-662 1515,5 -4,5"/>
<!-- Box_GameStateComponent -->
<g id="node1" class="node"><title>Box_GameStateComponent</title>
<polygon fill="#fcfcda" stroke="black" points="663,-435 663,-509 995,-509 995,-435 663,-435"/>
<text text-anchor="middle" x="829" y="-497.8" font-family="Arial" font-size="8.00">GameStateComponent</text>
<polyline fill="none" stroke="black" points="663,-491 995,-491 "/>
<text text-anchor="start" x="671" y="-479.8" font-family="Arial" font-size="8.00">+ Index : DisplayLayer</text>
<text text-anchor="start" x="671" y="-469.8" font-family="Arial" font-size="8.00">+ state : GameState</text>
<polyline fill="none" stroke="black" points="663,-463 995,-463 "/>
<text text-anchor="start" x="671" y="-451.8" font-family="Arial" font-size="8.00">+ GameStateComponent (GameState state, DisplayLayer index)</text>
<text text-anchor="start" x="671" y="-441.8" font-family="Arial" font-size="8.00">+ SubComponents (GameTime gameTime) : IEnumerable&lt;IGameStateComponent&gt; virtual</text>
</g>
<!-- Box_Camera -->
<g id="node3" class="node"><title>Box_Camera</title>
<polygon fill="#fcfcda" stroke="black" points="1342,-93 1342,-397 1510,-397 1510,-93 1342,-93"/>
<text text-anchor="middle" x="1426" y="-385.8" font-family="Arial" font-size="8.00">Camera</text>
<polyline fill="none" stroke="black" points="1342,-379 1510,-379 "/>
<text text-anchor="start" x="1350" y="-367.8" font-family="Arial" font-size="8.00">&#45; AutoRotation : Angles3</text>
<text text-anchor="start" x="1350" y="-357.8" font-family="Arial" font-size="8.00">&#45; _target : Vector3</text>
<text text-anchor="start" x="1350" y="-347.8" font-family="Arial" font-size="8.00">&#45; aspectRatio : float</text>
<text text-anchor="start" x="1350" y="-337.8" font-family="Arial" font-size="8.00">&#45; farPlane : float</text>
<text text-anchor="start" x="1350" y="-327.8" font-family="Arial" font-size="8.00">&#45; nearPlane : float</text>
<text text-anchor="start" x="1350" y="-317.8" font-family="Arial" font-size="8.00">+ Position : Vector3</text>
<text text-anchor="start" x="1350" y="-307.8" font-family="Arial" font-size="8.00">+ Target : Vector3</text>
<text text-anchor="start" x="1350" y="-297.8" font-family="Arial" font-size="8.00">+ TargetDirection : Vector3</text>
<text text-anchor="start" x="1350" y="-287.8" font-family="Arial" font-size="8.00">+ UpVector : Vector3</text>
<text text-anchor="start" x="1350" y="-277.8" font-family="Arial" font-size="8.00">+ FoV : float</text>
<text text-anchor="start" x="1350" y="-267.8" font-family="Arial" font-size="8.00">&#45; World : World</text>
<text text-anchor="start" x="1350" y="-257.8" font-family="Arial" font-size="8.00">&#45; _position : Vector3</text>
<text text-anchor="start" x="1350" y="-247.8" font-family="Arial" font-size="8.00">&#45; foV : float</text>
<text text-anchor="start" x="1350" y="-237.8" font-family="Arial" font-size="8.00">+ RotationAngle : Angles3</text>
<text text-anchor="start" x="1350" y="-227.8" font-family="Arial" font-size="8.00">+ ViewFrustum : BoundingFrustum</text>
<text text-anchor="start" x="1350" y="-217.8" font-family="Arial" font-size="8.00">+ ProjectionMatrix : Matrix</text>
<text text-anchor="start" x="1350" y="-207.8" font-family="Arial" font-size="8.00">+ ViewMatrix : Matrix</text>
<text text-anchor="start" x="1350" y="-197.8" font-family="Arial" font-size="8.00">+ WorldMatrix : Matrix</text>
<text text-anchor="start" x="1350" y="-187.8" font-family="Arial" font-size="8.00">+ ArcballTarget : Vector3</text>
<text text-anchor="start" x="1350" y="-177.8" font-family="Arial" font-size="8.00">+ DefaultPosition : Vector3</text>
<text text-anchor="start" x="1350" y="-167.8" font-family="Arial" font-size="8.00">+ TargetDistance : float</text>
<polyline fill="none" stroke="black" points="1342,-161 1510,-161 "/>
<text text-anchor="start" x="1350" y="-149.8" font-family="Arial" font-size="8.00">+ OnViewChanged () : Action</text>
<text text-anchor="start" x="1350" y="-139.8" font-family="Arial" font-size="8.00">+ Camera (GameState state, World world)</text>
<text text-anchor="start" x="1350" y="-129.8" font-family="Arial" font-size="8.00">+ GetMouseRay (Vector2 mouse) : Ray</text>
<text text-anchor="start" x="1350" y="-119.8" font-family="Arial" font-size="8.00">&#45; UpdateMatrices (GameTime gameTime)</text>
<text text-anchor="start" x="1350" y="-109.8" font-family="Arial" font-size="8.00">&#45; UpdateRotation (GameTime gameTime)</text>
<text text-anchor="start" x="1350" y="-99.8" font-family="Arial" font-size="8.00">+ Update (GameTime gameTime)</text>
</g>
<!-- Box_GameStateComponent&#45;&gt;Box_Camera -->
<g id="edge8" class="edge"><title>Box_GameStateComponent&#45;&gt;Box_Camera</title>
<path fill="none" stroke="midnightblue" d="M1005.52,-461.937C1128.73,-451.984 1280.21,-432.983 1333,-398 1335.98,-396.025 1338.88,-393.919 1341.7,-391.698"/>
<polygon fill="none" stroke="midnightblue" points="1004.89,-458.476 995.196,-462.755 1005.44,-465.454 1004.89,-458.476"/>
</g>
<!-- Box_ClickHandler -->
<g id="node4" class="node"><title>Box_ClickHandler</title>
<polygon fill="#fcfcda" stroke="black" points="608,-213 608,-277 744,-277 744,-213 608,-213"/>
<text text-anchor="middle" x="676" y="-265.8" font-family="Arial" font-size="8.00">ClickHandler</text>
<polyline fill="none" stroke="black" points="608,-259 744,-259 "/>
<text text-anchor="start" x="616" y="-247.8" font-family="Arial" font-size="8.00">&#45; ClickEventComponent : class</text>
<polyline fill="none" stroke="black" points="608,-241 744,-241 "/>
<text text-anchor="start" x="616" y="-229.8" font-family="Arial" font-size="8.00">+ ClickHandler (GameState state)</text>
<text text-anchor="start" x="616" y="-219.8" font-family="Arial" font-size="8.00">+ Update (GameTime gameTime)</text>
</g>
<!-- Box_GameStateComponent&#45;&gt;Box_ClickHandler -->
<g id="edge10" class="edge"><title>Box_GameStateComponent&#45;&gt;Box_ClickHandler</title>
<path fill="none" stroke="midnightblue" d="M778.473,-427.494C769.404,-418.246 760.474,-408.197 753,-398 724.873,-359.625 701.827,-309.453 688.497,-277.221"/>
<polygon fill="none" stroke="midnightblue" points="776.19,-430.159 785.75,-434.726 781.124,-425.194 776.19,-430.159"/>
</g>
<!-- Box_Input -->
<g id="node5" class="node"><title>Box_Input</title>
<polygon fill="#fcfcda" stroke="black" points="303.5,-128 303.5,-362 590.5,-362 590.5,-128 303.5,-128"/>
<text text-anchor="middle" x="447" y="-350.8" font-family="Arial" font-size="8.00">Input</text>
<polyline fill="none" stroke="black" points="303.5,-344 590.5,-344 "/>
<text text-anchor="start" x="311.5" y="-332.8" font-family="Arial" font-size="8.00">&#45; PreviousClickMouseState : MouseState static</text>
<text text-anchor="start" x="311.5" y="-322.8" font-family="Arial" font-size="8.00">&#45; LeftButtonClickTimer : double static</text>
<text text-anchor="start" x="311.5" y="-312.8" font-family="Arial" font-size="8.00">&#45; RightButtonClickTimer : double static</text>
<text text-anchor="start" x="311.5" y="-302.8" font-family="Arial" font-size="8.00">+ GrabMouseMovement : bool</text>
<text text-anchor="start" x="311.5" y="-292.8" font-family="Arial" font-size="8.00">+ LeftButton : ClickState static</text>
<text text-anchor="start" x="311.5" y="-282.8" font-family="Arial" font-size="8.00">+ RightButton : ClickState static</text>
<text text-anchor="start" x="311.5" y="-272.8" font-family="Arial" font-size="8.00">+ PreviousKeyboardState : KeyboardState static</text>
<text text-anchor="start" x="311.5" y="-262.8" font-family="Arial" font-size="8.00">+ MouseState : MouseState static</text>
<text text-anchor="start" x="311.5" y="-252.8" font-family="Arial" font-size="8.00">+ PreviousMouseState : MouseState static</text>
<text text-anchor="start" x="311.5" y="-242.8" font-family="Arial" font-size="8.00"># FullscreenToggled : bool static</text>
<text text-anchor="start" x="311.5" y="-232.8" font-family="Arial" font-size="8.00">+ CurrentInputAction : InputAction</text>
<text text-anchor="start" x="311.5" y="-222.8" font-family="Arial" font-size="8.00">+ ValidKeys : List&lt;Keys&gt;</text>
<text text-anchor="start" x="311.5" y="-212.8" font-family="Arial" font-size="8.00">+ WASDMode : WASDMode</text>
<text text-anchor="start" x="311.5" y="-202.8" font-family="Arial" font-size="8.00">+ IsKeyEventEnabled : bool</text>
<text text-anchor="start" x="311.5" y="-192.8" font-family="Arial" font-size="8.00">+ KeyboardState : KeyboardState static</text>
<polyline fill="none" stroke="black" points="303.5,-186 590.5,-186 "/>
<text text-anchor="start" x="311.5" y="-174.8" font-family="Arial" font-size="8.00"># UpdateMouse (GameTime gameTime) virtual</text>
<text text-anchor="start" x="311.5" y="-164.8" font-family="Arial" font-size="8.00">+ Update (GameTime gameTime)</text>
<text text-anchor="start" x="311.5" y="-154.8" font-family="Arial" font-size="8.00">+ OnKeyEvent (List&lt;Keys&gt; key, KeyEvent keyEvent, GameTime gameTime)</text>
<text text-anchor="start" x="311.5" y="-144.8" font-family="Arial" font-size="8.00"># UpdateKeys (GameTime gameTime) virtual</text>
<text text-anchor="start" x="311.5" y="-134.8" font-family="Arial" font-size="8.00">+ Input (GameState state)</text>
</g>
<!-- Box_GameStateComponent&#45;&gt;Box_Input -->
<g id="edge12" class="edge"><title>Box_GameStateComponent&#45;&gt;Box_Input</title>
<path fill="none" stroke="midnightblue" d="M668.483,-431.335C644.338,-422.138 620.389,-411.113 599,-398 582.401,-387.824 566.274,-375.469 551.112,-362.24"/>
<polygon fill="none" stroke="midnightblue" points="667.511,-434.707 678.104,-434.901 669.944,-428.143 667.511,-434.707"/>
</g>
<!-- Box_KeyHandler -->
<g id="node7" class="node"><title>Box_KeyHandler</title>
<polygon fill="#fcfcda" stroke="black" points="762,-213 762,-277 896,-277 896,-213 762,-213"/>
<text text-anchor="middle" x="829" y="-265.8" font-family="Arial" font-size="8.00">KeyHandler</text>
<polyline fill="none" stroke="black" points="762,-259 896,-259 "/>
<text text-anchor="start" x="770" y="-247.8" font-family="Arial" font-size="8.00">&#45; KeyEventComponent : class</text>
<polyline fill="none" stroke="black" points="762,-241 896,-241 "/>
<text text-anchor="start" x="770" y="-229.8" font-family="Arial" font-size="8.00">+ KeyHandler (GameState state)</text>
<text text-anchor="start" x="770" y="-219.8" font-family="Arial" font-size="8.00">+ Update (GameTime gameTime)</text>
</g>
<!-- Box_GameStateComponent&#45;&gt;Box_KeyHandler -->
<g id="edge18" class="edge"><title>Box_GameStateComponent&#45;&gt;Box_KeyHandler</title>
<path fill="none" stroke="midnightblue" d="M829,-424.552C829,-380.321 829,-315.563 829,-277.107"/>
<polygon fill="none" stroke="midnightblue" points="825.5,-424.77 829,-434.77 832.5,-424.77 825.5,-424.77"/>
</g>
<!-- Box_ModelMousePicker -->
<g id="node8" class="node"><title>Box_ModelMousePicker</title>
<polygon fill="#fcfcda" stroke="black" points="913.5,-193 913.5,-297 1120.5,-297 1120.5,-193 913.5,-193"/>
<text text-anchor="middle" x="1017" y="-285.8" font-family="Arial" font-size="8.00">ModelMousePicker</text>
<polyline fill="none" stroke="black" points="913.5,-279 1120.5,-279 "/>
<text text-anchor="start" x="921.5" y="-267.8" font-family="Arial" font-size="8.00">&#45; lastMousePosition : Vector2</text>
<text text-anchor="start" x="921.5" y="-257.8" font-family="Arial" font-size="8.00">&#45; World : World</text>
<text text-anchor="start" x="921.5" y="-247.8" font-family="Arial" font-size="8.00">&#45; lastRayCheck : double</text>
<polyline fill="none" stroke="black" points="913.5,-241 1120.5,-241 "/>
<text text-anchor="start" x="921.5" y="-229.8" font-family="Arial" font-size="8.00">&#45; UpdateMouseRay (GameTime gameTime)</text>
<text text-anchor="start" x="921.5" y="-219.8" font-family="Arial" font-size="8.00">+ ModelMousePicker (GameState state, World world)</text>
<text text-anchor="start" x="921.5" y="-209.8" font-family="Arial" font-size="8.00">&#45; CheckMouseRay (GameTime gameTime)</text>
<text text-anchor="start" x="921.5" y="-199.8" font-family="Arial" font-size="8.00">+ Update (GameTime gameTime)</text>
</g>
<!-- Box_GameStateComponent&#45;&gt;Box_ModelMousePicker -->
<g id="edge20" class="edge"><title>Box_GameStateComponent&#45;&gt;Box_ModelMousePicker</title>
<path fill="none" stroke="midnightblue" d="M876.982,-427.669C886.564,-418.162 896.338,-407.97 905,-398 932.743,-366.068 960.854,-327.643 981.973,-297.289"/>
<polygon fill="none" stroke="midnightblue" points="874.407,-425.292 869.713,-434.79 879.305,-430.292 874.407,-425.292"/>
</g>
<!-- Box_MousePicker -->
<g id="node9" class="node"><title>Box_MousePicker</title>
<polygon fill="#fcfcda" stroke="black" points="1138,-198 1138,-292 1324,-292 1324,-198 1138,-198"/>
<text text-anchor="middle" x="1231" y="-280.8" font-family="Arial" font-size="8.00">MousePicker</text>
<polyline fill="none" stroke="black" points="1138,-274 1324,-274 "/>
<text text-anchor="start" x="1146" y="-262.8" font-family="Arial" font-size="8.00">&#45; lastMousePosition : Vector2</text>
<text text-anchor="start" x="1146" y="-252.8" font-family="Arial" font-size="8.00">&#45; World : World</text>
<text text-anchor="start" x="1146" y="-242.8" font-family="Arial" font-size="8.00">&#45; lastRayCheck : double</text>
<polyline fill="none" stroke="black" points="1138,-236 1324,-236 "/>
<text text-anchor="start" x="1146" y="-224.8" font-family="Arial" font-size="8.00">+ MousePicker (GameState state, World world)</text>
<text text-anchor="start" x="1146" y="-214.8" font-family="Arial" font-size="8.00">+ Update (GameTime gameTime)</text>
<text text-anchor="start" x="1146" y="-204.8" font-family="Arial" font-size="8.00">+ UpdateMouseRay (GameTime gameTime)</text>
</g>
<!-- Box_GameStateComponent&#45;&gt;Box_MousePicker -->
<g id="edge22" class="edge"><title>Box_GameStateComponent&#45;&gt;Box_MousePicker</title>
<path fill="none" stroke="midnightblue" d="M1005.21,-439.72C1057.87,-427.673 1107.36,-413.203 1129,-398 1166.62,-371.578 1194.19,-326.47 1211.11,-292.059"/>
<polygon fill="none" stroke="midnightblue" points="1004.33,-436.33 995.343,-441.941 1005.87,-443.159 1004.33,-436.33"/>
</g>
<!-- Box_PipeColoring -->
<g id="node10" class="node"><title>Box_PipeColoring</title>
<polygon fill="#fcfcda" stroke="black" points="-0.5,-198 -0.5,-292 286.5,-292 286.5,-198 -0.5,-198"/>
<text text-anchor="middle" x="143" y="-280.8" font-family="Arial" font-size="8.00">PipeColoring</text>
<polyline fill="none" stroke="black" points="-0.5,-274 286.5,-274 "/>
<text text-anchor="start" x="7.5" y="-262.8" font-family="Arial" font-size="8.00">+ ValidKeys : List&lt;Keys&gt;</text>
<text text-anchor="start" x="7.5" y="-252.8" font-family="Arial" font-size="8.00">+ Knot : Knot</text>
<text text-anchor="start" x="7.5" y="-242.8" font-family="Arial" font-size="8.00">+ IsKeyEventEnabled : bool</text>
<polyline fill="none" stroke="black" points="-0.5,-236 286.5,-236 "/>
<text text-anchor="start" x="7.5" y="-224.8" font-family="Arial" font-size="8.00">+ OnKeyEvent (List&lt;Keys&gt; key, KeyEvent keyEvent, GameTime gameTime)</text>
<text text-anchor="start" x="7.5" y="-214.8" font-family="Arial" font-size="8.00">+ PipeColoring (GameState state)</text>
<text text-anchor="start" x="7.5" y="-204.8" font-family="Arial" font-size="8.00">+ Update (GameTime gameTime)</text>
</g>
<!-- Box_GameStateComponent&#45;&gt;Box_PipeColoring -->
<g id="edge24" class="edge"><title>Box_GameStateComponent&#45;&gt;Box_PipeColoring</title>
<path fill="none" stroke="midnightblue" d="M652.646,-459.735C521.925,-448.388 356.256,-428.593 295,-398 246.261,-373.659 203.824,-327.563 176.269,-292.304"/>
<polygon fill="none" stroke="midnightblue" points="652.526,-463.238 662.789,-460.605 653.124,-456.263 652.526,-463.238"/>
</g>
<!-- Box_IGameStateComponent -->
<g id="node2" class="node"><title>Box_IGameStateComponent</title>
<polygon fill="#dafcda" stroke="black" points="565,-547 565,-601 873,-601 873,-547 565,-547"/>
<text text-anchor="middle" x="719" y="-589.8" font-family="Arial" font-size="8.00">IGameStateComponent</text>
<polyline fill="none" stroke="black" points="565,-583 873,-583 "/>
<text text-anchor="start" x="573" y="-571.8" font-family="Arial" font-size="8.00">+ Index : DisplayLayer</text>
<polyline fill="none" stroke="black" points="565,-565 873,-565 "/>
<text text-anchor="start" x="573" y="-553.8" font-family="Arial" font-size="8.00">+ SubComponents (GameTime gameTime) : IEnumerable&lt;IGameStateComponent&gt;</text>
</g>
<!-- Box_IGameStateComponent&#45;&gt;Box_GameStateComponent -->
<g id="edge4" class="edge"><title>Box_IGameStateComponent&#45;&gt;Box_GameStateComponent</title>
<path fill="none" stroke="midnightblue" d="M755.734,-539.937C766.383,-530.063 778.062,-519.233 788.906,-509.178"/>
<polygon fill="none" stroke="midnightblue" points="753.142,-537.568 748.189,-546.934 757.902,-542.701 753.142,-537.568"/>
</g>
<!-- Box_MenuScreenInput -->
<g id="node6" class="node"><title>Box_MenuScreenInput</title>
<polygon fill="#fcfcda" stroke="black" points="369.5,-1 369.5,-55 524.5,-55 524.5,-1 369.5,-1"/>
<text text-anchor="middle" x="447" y="-43.8" font-family="Arial" font-size="8.00">MenuScreenInput</text>
<polyline fill="none" stroke="black" points="369.5,-37 524.5,-37 "/>
<text text-anchor="middle" x="447" y="-25.8" font-family="Arial" font-size="8.00"> </text>
<polyline fill="none" stroke="black" points="369.5,-19 524.5,-19 "/>
<text text-anchor="start" x="377.5" y="-7.8" font-family="Arial" font-size="8.00">+ MenuScreenInput (GameState state)</text>
</g>
<!-- Box_Input&#45;&gt;Box_MenuScreenInput -->
<g id="edge16" class="edge"><title>Box_Input&#45;&gt;Box_MenuScreenInput</title>
<path fill="none" stroke="midnightblue" d="M447,-117.764C447,-94.1952 447,-71.8431 447,-55.3389"/>
<polygon fill="none" stroke="midnightblue" points="443.5,-117.925 447,-127.925 450.5,-117.925 443.5,-117.925"/>
</g>
<!-- Box_XnaGameComponent -->
<g id="node11" class="node"><title>Box_XnaGameComponent</title>
<polygon fill="#ffffff" stroke="black" points="890.5,-565 890.5,-583 985.5,-583 985.5,-565 890.5,-565"/>
<text text-anchor="middle" x="938" y="-571.8" font-family="Arial" font-size="8.00">Xna.GameComponent</text>
</g>
<!-- Box_XnaGameComponent&#45;&gt;Box_GameStateComponent -->
<g id="edge2" class="edge"><title>Box_XnaGameComponent&#45;&gt;Box_GameStateComponent</title>
<path fill="none" stroke="midnightblue" d="M920.899,-557.998C906.931,-544.926 886.63,-525.929 868.66,-509.113"/>
<polygon fill="none" stroke="midnightblue" points="918.634,-560.671 928.327,-564.948 923.417,-555.56 918.634,-560.671"/>
</g>
<!-- Box_XnaIGameComponent -->
<g id="node12" class="node"><title>Box_XnaIGameComponent</title>
<polygon fill="#ffffff" stroke="black" points="671,-639 671,-657 767,-657 767,-639 671,-639"/>
<text text-anchor="middle" x="719" y="-645.8" font-family="Arial" font-size="8.00">Xna.IGameComponent</text>
</g>
<!-- Box_XnaIGameComponent&#45;&gt;Box_IGameStateComponent -->
<g id="edge6" class="edge"><title>Box_XnaIGameComponent&#45;&gt;Box_IGameStateComponent</title>
<path fill="none" stroke="midnightblue" d="M719,-628.64C719,-620.2 719,-610.16 719,-601.004"/>
<polygon fill="none" stroke="midnightblue" points="715.5,-628.926 719,-638.926 722.5,-628.926 715.5,-628.926"/>
</g>
<!-- Box_IKeyEventListener -->
<g id="node13" class="node"><title>Box_IKeyEventListener</title>
<polygon fill="#ffffff" stroke="black" points="254,-463 254,-481 336,-481 336,-463 254,-463"/>
<text text-anchor="middle" x="295" y="-469.8" font-family="Arial" font-size="8.00">IKeyEventListener</text>
</g>
<!-- Box_IKeyEventListener&#45;&gt;Box_Input -->
<g id="edge14" class="edge"><title>Box_IKeyEventListener&#45;&gt;Box_Input</title>
<path fill="none" stroke="midnightblue" d="M306.87,-454.273C320.596,-433.774 344.415,-398.202 368.562,-362.14"/>
<polygon fill="none" stroke="midnightblue" points="303.803,-452.564 301.147,-462.82 309.619,-456.458 303.803,-452.564"/>
</g>
<!-- Box_IKeyEventListener&#45;&gt;Box_PipeColoring -->
<g id="edge26" class="edge"><title>Box_IKeyEventListener&#45;&gt;Box_PipeColoring</title>
<path fill="none" stroke="midnightblue" d="M283.135,-454.28C260.034,-419.781 208.334,-342.571 174.603,-292.196"/>
<polygon fill="none" stroke="midnightblue" points="280.381,-456.458 288.853,-462.82 286.197,-452.564 280.381,-456.458"/>
</g>
</g>
</svg>
