<?xml version="1.0" encoding="UTF-8" standalone="no"?>
<!DOCTYPE svg PUBLIC "-//W3C//DTD SVG 1.1//EN"
 "http://www.w3.org/Graphics/SVG/1.1/DTD/svg11.dtd">
<!-- Generated by graphviz version 2.26.3 (20100126.1600)
 -->
<!-- Title: MenuItem Pages: 1 -->
<svg width="474pt" height="1112pt"
 viewBox="0.00 0.00 474.00 1112.00" xmlns="http://www.w3.org/2000/svg" xmlns:xlink="http://www.w3.org/1999/xlink">
<g id="graph1" class="graph" transform="scale(1 1) rotate(0) translate(4 1108)">
<title>MenuItem</title>
<polygon fill="white" stroke="white" points="-4,5 -4,-1108 471,-1108 471,5 -4,5"/>
<!-- Box_ConfirmDialog -->
<g id="node1" class="node"><title>Box_ConfirmDialog</title>
<polygon fill="#fcfcda" stroke="black" points="134,-269 134,-401 426,-401 426,-269 134,-269"/>
<text text-anchor="middle" x="280" y="-389.8" font-family="Helvetica,sans-Serif" font-size="8.00">ConfirmDialog</text>
<polyline fill="none" stroke="black" points="134,-381 426,-381 "/>
<text text-anchor="start" x="142" y="-369.8" font-family="Helvetica,sans-Serif" font-size="8.00">Attributes:</text>
<text text-anchor="start" x="142" y="-357.8" font-family="Helvetica,sans-Serif" font-size="8.00"># Text : string[]</text>
<text text-anchor="start" x="142" y="-345.8" font-family="Helvetica,sans-Serif" font-size="8.00"># OnYesClick : Action</text>
<text text-anchor="start" x="142" y="-333.8" font-family="Helvetica,sans-Serif" font-size="8.00"># OnNoClick : Action</text>
<text text-anchor="start" x="142" y="-321.8" font-family="Helvetica,sans-Serif" font-size="8.00"># OnCancelClick : Action</text>
<text text-anchor="start" x="142" y="-309.8" font-family="Helvetica,sans-Serif" font-size="8.00">Methods:</text>
<polyline fill="none" stroke="black" points="134,-301 426,-301 "/>
<text text-anchor="start" x="142" y="-289.8" font-family="Helvetica,sans-Serif" font-size="8.00">+ ConfirmDialog (GameState state, WidgetInfo info, DisplayLayer drawOrder)</text>
<text text-anchor="start" x="142" y="-277.8" font-family="Helvetica,sans-Serif" font-size="8.00"># DrawDialog (GameTime gameTime) override</text>
</g>
<!-- Box_TextInputDialog -->
<g id="node6" class="node"><title>Box_TextInputDialog</title>
<polygon fill="#fcfcda" stroke="black" points="105,-111 105,-231 455,-231 455,-111 105,-111"/>
<text text-anchor="middle" x="280" y="-219.8" font-family="Helvetica,sans-Serif" font-size="8.00">TextInputDialog</text>
<polyline fill="none" stroke="black" points="105,-211 455,-211 "/>
<text text-anchor="start" x="113" y="-199.8" font-family="Helvetica,sans-Serif" font-size="8.00">Attributes:</text>
<text text-anchor="start" x="113" y="-187.8" font-family="Helvetica,sans-Serif" font-size="8.00"># TextInput : TextInput</text>
<text text-anchor="start" x="113" y="-175.8" font-family="Helvetica,sans-Serif" font-size="8.00">Methods:</text>
<polyline fill="none" stroke="black" points="105,-167 455,-167 "/>
<text text-anchor="start" x="113" y="-155.8" font-family="Helvetica,sans-Serif" font-size="8.00">+ TextInputDialog (GameState state, WidgetInfo info, DisplayLayer drawOrder)</text>
<text text-anchor="start" x="113" y="-143.8" font-family="Helvetica,sans-Serif" font-size="8.00">+ SubComponents (GameTime gameTime) : IEnumerable&lt;IGameStateComponent&gt; override</text>
<text text-anchor="start" x="113" y="-131.8" font-family="Helvetica,sans-Serif" font-size="8.00"># TextInputPosition () : Vector2</text>
<text text-anchor="start" x="113" y="-119.8" font-family="Helvetica,sans-Serif" font-size="8.00"># TextInputSize () : Vector2</text>
</g>
<!-- Box_ConfirmDialog&#45;&gt;Box_TextInputDialog -->
<g id="edge14" class="edge"><title>Box_ConfirmDialog&#45;&gt;Box_TextInputDialog</title>
<path fill="none" stroke="midnightblue" d="M280,-258.766C280,-249.492 280,-240.119 280,-231.125"/>
<polygon fill="none" stroke="midnightblue" points="276.5,-258.768 280,-268.768 283.5,-258.768 276.5,-258.768"/>
</g>
<!-- Box_Dialog -->
<g id="node2" class="node"><title>Box_Dialog</title>
<polygon fill="#fcfcda" stroke="black" points="105,-439 105,-631 455,-631 455,-439 105,-439"/>
<text text-anchor="middle" x="280" y="-619.8" font-family="Helvetica,sans-Serif" font-size="8.00">Dialog</text>
<polyline fill="none" stroke="black" points="105,-611 455,-611 "/>
<text text-anchor="start" x="113" y="-599.8" font-family="Helvetica,sans-Serif" font-size="8.00">Attributes:</text>
<text text-anchor="start" x="113" y="-587.8" font-family="Helvetica,sans-Serif" font-size="8.00">+ buttons : Menu</text>
<text text-anchor="start" x="113" y="-575.8" font-family="Helvetica,sans-Serif" font-size="8.00">+ Done : Action</text>
<text text-anchor="start" x="113" y="-563.8" font-family="Helvetica,sans-Serif" font-size="8.00"># spriteBatch : SpriteBatch</text>
<text text-anchor="start" x="113" y="-551.8" font-family="Helvetica,sans-Serif" font-size="8.00">Methods:</text>
<polyline fill="none" stroke="black" points="105,-543 455,-543 "/>
<text text-anchor="start" x="113" y="-531.8" font-family="Helvetica,sans-Serif" font-size="8.00">+ Dialog (GameState state, WidgetInfo info, DisplayLayer drawOrder)</text>
<text text-anchor="start" x="113" y="-519.8" font-family="Helvetica,sans-Serif" font-size="8.00"># RelativeButtonPosition (int n) : Vector2</text>
<text text-anchor="start" x="113" y="-507.8" font-family="Helvetica,sans-Serif" font-size="8.00"># RelativeButtonSize (int n) : Vector2</text>
<text text-anchor="start" x="113" y="-495.8" font-family="Helvetica,sans-Serif" font-size="8.00">+ SubComponents (GameTime gameTime) : IEnumerable&lt;IGameStateComponent&gt; override</text>
<text text-anchor="start" x="113" y="-483.8" font-family="Helvetica,sans-Serif" font-size="8.00">+ Draw (GameTime gameTime) override</text>
<text text-anchor="start" x="113" y="-471.8" font-family="Helvetica,sans-Serif" font-size="8.00"># DrawDialog (GameTime gameTime) abstract</text>
<text text-anchor="start" x="113" y="-459.8" font-family="Helvetica,sans-Serif" font-size="8.00">&#45; ButtonBackgroundColor (ItemState itemState) : Color</text>
<text text-anchor="start" x="113" y="-447.8" font-family="Helvetica,sans-Serif" font-size="8.00">&#45; ButtonForegroundColor (ItemState itemState) : Color</text>
</g>
<!-- Box_Dialog&#45;&gt;Box_ConfirmDialog -->
<g id="edge2" class="edge"><title>Box_Dialog&#45;&gt;Box_ConfirmDialog</title>
<path fill="none" stroke="midnightblue" d="M280,-428.678C280,-419.356 280,-410.107 280,-401.257"/>
<polygon fill="none" stroke="midnightblue" points="276.5,-428.808 280,-438.808 283.5,-428.808 276.5,-428.808"/>
</g>
<!-- Box_Widget -->
<g id="node3" class="node"><title>Box_Widget</title>
<polygon fill="#fcfcda" stroke="black" points="147,-669 147,-777 413,-777 413,-669 147,-669"/>
<text text-anchor="middle" x="280" y="-765.8" font-family="Helvetica,sans-Serif" font-size="8.00">Widget</text>
<polyline fill="none" stroke="black" points="147,-757 413,-757 "/>
<text text-anchor="start" x="155" y="-745.8" font-family="Helvetica,sans-Serif" font-size="8.00">Attributes:</text>
<text text-anchor="start" x="155" y="-733.8" font-family="Helvetica,sans-Serif" font-size="8.00">+ Info : WidgetInfo</text>
<text text-anchor="start" x="155" y="-721.8" font-family="Helvetica,sans-Serif" font-size="8.00">+ IsVisible : bool virtual</text>
<text text-anchor="start" x="155" y="-709.8" font-family="Helvetica,sans-Serif" font-size="8.00">Methods:</text>
<polyline fill="none" stroke="black" points="147,-701 413,-701 "/>
<text text-anchor="start" x="155" y="-689.8" font-family="Helvetica,sans-Serif" font-size="8.00">+ Widget (GameState state, WidgetInfo info, DisplayLayer drawOrder)</text>
<text text-anchor="start" x="155" y="-677.8" font-family="Helvetica,sans-Serif" font-size="8.00">+ bounds () : Rectangle</text>
</g>
<!-- Box_Widget&#45;&gt;Box_Dialog -->
<g id="edge4" class="edge"><title>Box_Widget&#45;&gt;Box_Dialog</title>
<path fill="none" stroke="midnightblue" d="M280,-658.675C280,-649.815 280,-640.562 280,-631.28"/>
<polygon fill="none" stroke="midnightblue" points="276.5,-658.875 280,-668.875 283.5,-658.875 276.5,-658.875"/>
</g>
<!-- Box_DrawableGameStateComponent -->
<g id="node4" class="node"><title>Box_DrawableGameStateComponent</title>
<polygon fill="#fcfcda" stroke="black" points="109.5,-815 109.5,-923 450.5,-923 450.5,-815 109.5,-815"/>
<text text-anchor="middle" x="280" y="-911.8" font-family="Helvetica,sans-Serif" font-size="8.00">DrawableGameStateComponent</text>
<polyline fill="none" stroke="black" points="109.5,-903 450.5,-903 "/>
<text text-anchor="start" x="117.5" y="-891.8" font-family="Helvetica,sans-Serif" font-size="8.00">Attributes:</text>
<text text-anchor="start" x="117.5" y="-879.8" font-family="Helvetica,sans-Serif" font-size="8.00">+ state : GameState</text>
<text text-anchor="start" x="117.5" y="-867.8" font-family="Helvetica,sans-Serif" font-size="8.00">+ Index : int</text>
<text text-anchor="start" x="117.5" y="-855.8" font-family="Helvetica,sans-Serif" font-size="8.00">Methods:</text>
<polyline fill="none" stroke="black" points="109.5,-847 450.5,-847 "/>
<text text-anchor="start" x="117.5" y="-835.8" font-family="Helvetica,sans-Serif" font-size="8.00">+ DrawableGameStateComponent (GameState state, DisplayLayer drawOrder)</text>
<text text-anchor="start" x="117.5" y="-823.8" font-family="Helvetica,sans-Serif" font-size="8.00">+ SubComponents (GameTime gameTime) : IEnumerable&lt;IGameStateComponent&gt; virtual</text>
</g>
<!-- Box_DrawableGameStateComponent&#45;&gt;Box_Widget -->
<g id="edge6" class="edge"><title>Box_DrawableGameStateComponent&#45;&gt;Box_Widget</title>
<path fill="none" stroke="midnightblue" d="M280,-804.523C280,-795.474 280,-786.248 280,-777.41"/>
<polygon fill="none" stroke="midnightblue" points="276.5,-804.635 280,-814.635 283.5,-804.635 276.5,-804.635"/>
</g>
<!-- Box_IGameStateComponent -->
<g id="node5" class="node"><title>Box_IGameStateComponent</title>
<polygon fill="#dafcda" stroke="black" points="0,-961 0,-1045 318,-1045 318,-961 0,-961"/>
<text text-anchor="middle" x="159" y="-1033.8" font-family="Helvetica,sans-Serif" font-size="8.00">IGameStateComponent</text>
<polyline fill="none" stroke="black" points="0,-1025 318,-1025 "/>
<text text-anchor="start" x="8" y="-1013.8" font-family="Helvetica,sans-Serif" font-size="8.00">Attributes:</text>
<text text-anchor="start" x="8" y="-1001.8" font-family="Helvetica,sans-Serif" font-size="8.00">+ Index : int</text>
<text text-anchor="start" x="8" y="-989.8" font-family="Helvetica,sans-Serif" font-size="8.00">Methods:</text>
<polyline fill="none" stroke="black" points="0,-981 318,-981 "/>
<text text-anchor="start" x="8" y="-969.8" font-family="Helvetica,sans-Serif" font-size="8.00">+ SubComponents (GameTime gameTime) : IEnumerable&lt;IGameStateComponent&gt;</text>
</g>
<!-- Box_IGameStateComponent&#45;&gt;Box_DrawableGameStateComponent -->
<g id="edge10" class="edge"><title>Box_IGameStateComponent&#45;&gt;Box_DrawableGameStateComponent</title>
<path fill="none" stroke="midnightblue" d="M203.666,-953.535C212.59,-943.653 222.007,-933.224 231.065,-923.192"/>
<polygon fill="none" stroke="midnightblue" points="201.057,-951.202 196.953,-960.969 206.253,-955.893 201.057,-951.202"/>
</g>
<!-- Box_KnotSaveConfirmDialog -->
<g id="node7" class="node"><title>Box_KnotSaveConfirmDialog</title>
<polygon fill="#fcfcda" stroke="black" points="97.5,-1 97.5,-73 462.5,-73 462.5,-1 97.5,-1"/>
<text text-anchor="middle" x="280" y="-61.8" font-family="Helvetica,sans-Serif" font-size="8.00">KnotSaveConfirmDialog</text>
<polyline fill="none" stroke="black" points="97.5,-53 462.5,-53 "/>
<text text-anchor="start" x="105.5" y="-41.8" font-family="Helvetica,sans-Serif" font-size="8.00">Attributes:</text>
<text text-anchor="start" x="105.5" y="-29.8" font-family="Helvetica,sans-Serif" font-size="8.00">Methods:</text>
<polyline fill="none" stroke="black" points="97.5,-21 462.5,-21 "/>
<text text-anchor="start" x="105.5" y="-9.8" font-family="Helvetica,sans-Serif" font-size="8.00">+ KnotSaveConfirmDialog (GameState state, WidgetInfo info, DisplayLayer drawOrder, Knot knot)</text>
</g>
<!-- Box_TextInputDialog&#45;&gt;Box_KnotSaveConfirmDialog -->
<g id="edge16" class="edge"><title>Box_TextInputDialog&#45;&gt;Box_KnotSaveConfirmDialog</title>
<path fill="none" stroke="midnightblue" d="M280,-100.445C280,-91.0281 280,-81.7055 280,-73.2237"/>
<polygon fill="none" stroke="midnightblue" points="276.5,-100.664 280,-110.664 283.5,-100.664 276.5,-100.664"/>
</g>
<!-- Box_XnaDrawableGameComponent -->
<g id="node8" class="node"><title>Box_XnaDrawableGameComponent</title>
<polygon fill="#ffffff" stroke="black" points="335.5,-993 335.5,-1013 466.5,-1013 466.5,-993 335.5,-993"/>
<text text-anchor="middle" x="401" y="-1001.8" font-family="Helvetica,sans-Serif" font-size="8.00">Xna.DrawableGameComponent</text>
</g>
<!-- Box_XnaDrawableGameComponent&#45;&gt;Box_DrawableGameStateComponent -->
<g id="edge8" class="edge"><title>Box_XnaDrawableGameComponent&#45;&gt;Box_DrawableGameStateComponent</title>
<path fill="none" stroke="midnightblue" d="M385.148,-985.445C370.817,-969.574 348.95,-945.357 328.861,-923.111"/>
<polygon fill="none" stroke="midnightblue" points="382.606,-987.852 391.905,-992.928 387.801,-983.161 382.606,-987.852"/>
</g>
<!-- Box_XnaIGameComponent -->
<g id="node9" class="node"><title>Box_XnaIGameComponent</title>
<polygon fill="#ffffff" stroke="black" points="109.5,-1083 109.5,-1103 208.5,-1103 208.5,-1083 109.5,-1083"/>
<text text-anchor="middle" x="159" y="-1091.8" font-family="Helvetica,sans-Serif" font-size="8.00">Xna.IGameComponent</text>
</g>
<!-- Box_XnaIGameComponent&#45;&gt;Box_IGameStateComponent -->
<g id="edge12" class="edge"><title>Box_XnaIGameComponent&#45;&gt;Box_IGameStateComponent</title>
<path fill="none" stroke="midnightblue" d="M159,-1072.45C159,-1064.39 159,-1054.83 159,-1045.41"/>
<polygon fill="none" stroke="midnightblue" points="155.5,-1072.68 159,-1082.68 162.5,-1072.68 155.5,-1072.68"/>
</g>
</g>
</svg>
