<?xml version="1.0" encoding="UTF-8" standalone="no"?>
<!DOCTYPE svg PUBLIC "-//W3C//DTD SVG 1.1//EN"
 "http://www.w3.org/Graphics/SVG/1.1/DTD/svg11.dtd">
<!-- Generated by graphviz version 2.26.3 (20100126.1600)
 -->
<!-- Title: MenuItem Pages: 1 -->
<svg width="426pt" height="542pt"
 viewBox="0.00 0.00 426.00 542.00" xmlns="http://www.w3.org/2000/svg" xmlns:xlink="http://www.w3.org/1999/xlink">
<g id="graph1" class="graph" transform="scale(1 1) rotate(0) translate(4 538)">
<title>MenuItem</title>
<polygon fill="white" stroke="white" points="-4,5 -4,-538 423,-538 423,5 -4,5"/>
<!-- Box_KnotRenderer -->
<g id="node1" class="node"><title>Box_KnotRenderer</title>
<polygon fill="#fcfcda" stroke="black" points="136,-243 136,-387 342,-387 342,-243 136,-243"/>
<text text-anchor="middle" x="239" y="-375.8" font-family="Helvetica,sans-Serif" font-size="8.00">KnotRenderer</text>
<polyline fill="none" stroke="black" points="136,-367 342,-367 "/>
<text text-anchor="start" x="144" y="-355.8" font-family="Helvetica,sans-Serif" font-size="8.00"># state : GameState</text>
<text text-anchor="start" x="144" y="-343.8" font-family="Helvetica,sans-Serif" font-size="8.00">+ World : World abstract</text>
<text text-anchor="start" x="144" y="-331.8" font-family="Helvetica,sans-Serif" font-size="8.00">+ Info : dynamic abstract</text>
<polyline fill="none" stroke="black" points="136,-323 342,-323 "/>
<text text-anchor="start" x="144" y="-311.8" font-family="Helvetica,sans-Serif" font-size="8.00">+ KnotRenderer (GameState state)</text>
<text text-anchor="start" x="144" y="-299.8" font-family="Helvetica,sans-Serif" font-size="8.00">+ OnEdgesChanged (EdgeList edges) abstract</text>
<text text-anchor="start" x="144" y="-287.8" font-family="Helvetica,sans-Serif" font-size="8.00">+ Update (GameTime gameTime) abstract</text>
<text text-anchor="start" x="144" y="-275.8" font-family="Helvetica,sans-Serif" font-size="8.00">+ Draw (GameTime gameTime) abstract</text>
<text text-anchor="start" x="144" y="-263.8" font-family="Helvetica,sans-Serif" font-size="8.00">+ Intersects (Ray ray) : GameObjectDistance abstract</text>
<text text-anchor="start" x="144" y="-251.8" font-family="Helvetica,sans-Serif" font-size="8.00">+ Center () : Vector3 abstract</text>
</g>
<!-- Box_PipeRenderer -->
<g id="node4" class="node"><title>Box_PipeRenderer</title>
<polygon fill="#fcfcda" stroke="black" points="39.5,-1 39.5,-205 258.5,-205 258.5,-1 39.5,-1"/>
<text text-anchor="middle" x="149" y="-193.8" font-family="Helvetica,sans-Serif" font-size="8.00">PipeRenderer</text>
<polyline fill="none" stroke="black" points="39.5,-185 258.5,-185 "/>
<text text-anchor="start" x="47.5" y="-173.8" font-family="Helvetica,sans-Serif" font-size="8.00">+ Info : dynamic override</text>
<text text-anchor="start" x="47.5" y="-161.8" font-family="Helvetica,sans-Serif" font-size="8.00">+ World : World override</text>
<text text-anchor="start" x="47.5" y="-149.8" font-family="Helvetica,sans-Serif" font-size="8.00">&#45; pipes : List&lt;PipeModel&gt;</text>
<text text-anchor="start" x="47.5" y="-137.8" font-family="Helvetica,sans-Serif" font-size="8.00">&#45; knots : List&lt;NodeModel&gt;</text>
<text text-anchor="start" x="47.5" y="-125.8" font-family="Helvetica,sans-Serif" font-size="8.00">&#45; pipeFactory : PipeModelFactory</text>
<text text-anchor="start" x="47.5" y="-113.8" font-family="Helvetica,sans-Serif" font-size="8.00">&#45; knotFactory : NodeModelFactory</text>
<polyline fill="none" stroke="black" points="39.5,-105 258.5,-105 "/>
<text text-anchor="start" x="47.5" y="-93.8" font-family="Helvetica,sans-Serif" font-size="8.00">+ PipeRenderer (GameState state, GameObjectInfo info)</text>
<text text-anchor="start" x="47.5" y="-81.8" font-family="Helvetica,sans-Serif" font-size="8.00">+ Update (GameTime gameTime) override</text>
<text text-anchor="start" x="47.5" y="-69.8" font-family="Helvetica,sans-Serif" font-size="8.00">+ OnEdgesChanged (EdgeList edges) override</text>
<text text-anchor="start" x="47.5" y="-57.8" font-family="Helvetica,sans-Serif" font-size="8.00">+ GetEnumerator () : IEnumerator&lt;IGameObject&gt;</text>
<text text-anchor="start" x="47.5" y="-45.8" font-family="Helvetica,sans-Serif" font-size="8.00">&#45; IEnumerable.GetEnumerator () : IEnumerator</text>
<text text-anchor="start" x="47.5" y="-33.8" font-family="Helvetica,sans-Serif" font-size="8.00">+ Draw (GameTime gameTime) override</text>
<text text-anchor="start" x="47.5" y="-21.8" font-family="Helvetica,sans-Serif" font-size="8.00">+ Intersects (Ray ray) : GameObjectDistance override</text>
<text text-anchor="start" x="47.5" y="-9.8" font-family="Helvetica,sans-Serif" font-size="8.00">+ Center () : Vector3 override</text>
</g>
<!-- Box_KnotRenderer&#45;&gt;Box_PipeRenderer -->
<g id="edge6" class="edge"><title>Box_KnotRenderer&#45;&gt;Box_PipeRenderer</title>
<path fill="none" stroke="midnightblue" d="M204.497,-233.725C200.546,-224.418 196.48,-214.842 192.432,-205.306"/>
<polygon fill="none" stroke="midnightblue" points="201.275,-235.093 208.405,-242.931 207.718,-232.358 201.275,-235.093"/>
</g>
<!-- Box_IEdgeChangeListener -->
<g id="node2" class="node"><title>Box_IEdgeChangeListener</title>
<polygon fill="#dafcda" stroke="black" points="72,-449 72,-509 224,-509 224,-449 72,-449"/>
<text text-anchor="middle" x="148" y="-497.8" font-family="Helvetica,sans-Serif" font-size="8.00">IEdgeChangeListener</text>
<polyline fill="none" stroke="black" points="72,-489 224,-489 "/>
<text text-anchor="middle" x="148" y="-477.8" font-family="Helvetica,sans-Serif" font-size="8.00"> </text>
<polyline fill="none" stroke="black" points="72,-469 224,-469 "/>
<text text-anchor="start" x="80" y="-457.8" font-family="Helvetica,sans-Serif" font-size="8.00">+ OnEdgesChanged (EdgeList edges)</text>
</g>
<!-- Box_IEdgeChangeListener&#45;&gt;Box_KnotRenderer -->
<g id="edge2" class="edge"><title>Box_IEdgeChangeListener&#45;&gt;Box_KnotRenderer</title>
<path fill="none" stroke="midnightblue" d="M169.66,-439.964C178.451,-424.121 188.897,-405.296 198.978,-387.127"/>
<polygon fill="none" stroke="midnightblue" points="166.482,-438.478 164.691,-448.92 172.603,-441.874 166.482,-438.478"/>
</g>
<!-- Box_IGameObject -->
<g id="node3" class="node"><title>Box_IGameObject</title>
<polygon fill="#dafcda" stroke="black" points="242,-425 242,-533 418,-533 418,-425 242,-425"/>
<text text-anchor="middle" x="330" y="-521.8" font-family="Helvetica,sans-Serif" font-size="8.00">IGameObject</text>
<polyline fill="none" stroke="black" points="242,-513 418,-513 "/>
<text text-anchor="start" x="250" y="-501.8" font-family="Helvetica,sans-Serif" font-size="8.00">+ Info : dynamic</text>
<text text-anchor="start" x="250" y="-489.8" font-family="Helvetica,sans-Serif" font-size="8.00">+ World : World</text>
<polyline fill="none" stroke="black" points="242,-481 418,-481 "/>
<text text-anchor="start" x="250" y="-469.8" font-family="Helvetica,sans-Serif" font-size="8.00">+ Draw (GameTime gameTime)</text>
<text text-anchor="start" x="250" y="-457.8" font-family="Helvetica,sans-Serif" font-size="8.00">+ Update (GameTime gameTime)</text>
<text text-anchor="start" x="250" y="-445.8" font-family="Helvetica,sans-Serif" font-size="8.00">+ Intersects (Ray ray) : GameObjectDistance</text>
<text text-anchor="start" x="250" y="-433.8" font-family="Helvetica,sans-Serif" font-size="8.00">+ Center () : Vector3</text>
</g>
<!-- Box_IGameObject&#45;&gt;Box_KnotRenderer -->
<g id="edge4" class="edge"><title>Box_IGameObject&#45;&gt;Box_KnotRenderer</title>
<path fill="none" stroke="midnightblue" d="M295.02,-415.959C289.804,-406.559 284.393,-396.807 279.082,-387.236"/>
<polygon fill="none" stroke="midnightblue" points="292.039,-417.8 299.951,-424.846 298.159,-414.403 292.039,-417.8"/>
</g>
<!-- Box_IEnumerable -->
<g id="node5" class="node"><title>Box_IEnumerable</title>
<polygon fill="#ffffff" stroke="black" points="0,-305 0,-325 118,-325 118,-305 0,-305"/>
<text text-anchor="middle" x="59" y="-313.8" font-family="Helvetica,sans-Serif" font-size="8.00">IEnumerable&lt;IGameObject&gt;</text>
</g>
<!-- Box_IEnumerable&#45;&gt;Box_PipeRenderer -->
<g id="edge8" class="edge"><title>Box_IEnumerable&#45;&gt;Box_PipeRenderer</title>
<path fill="none" stroke="midnightblue" d="M67.3177,-295.407C76.2232,-274.43 91.0511,-239.502 105.648,-205.119"/>
<polygon fill="none" stroke="midnightblue" points="64.027,-294.202 63.3409,-304.775 70.4704,-296.938 64.027,-294.202"/>
</g>
</g>
</svg>
