<?xml version="1.0" encoding="UTF-8" standalone="no"?>
<!DOCTYPE svg PUBLIC "-//W3C//DTD SVG 1.1//EN"
 "http://www.w3.org/Graphics/SVG/1.1/DTD/svg11.dtd">
<!-- Generated by graphviz version 2.26.3 (20100126.1600)
 -->
<!-- Title: MenuItem Pages: 1 -->
<svg width="3654pt" height="2158pt"
 viewBox="0.00 0.00 877.00 518.00" xmlns="http://www.w3.org/2000/svg" xmlns:xlink="http://www.w3.org/1999/xlink">
<g id="graph1" class="graph" transform="scale(4.16667 4.16667) rotate(0) translate(4 514)">
<title>MenuItem</title>
<polygon fill="white" stroke="white" points="-4,5 -4,-514 874,-514 874,5 -4,5"/>
<!-- Box_IMouseEventListener -->
<g id="node1" class="node"><title>Box_IMouseEventListener</title>
<polygon fill="#dafcda" stroke="black" points="180,-415 180,-509 454,-509 454,-415 180,-415"/>
<text text-anchor="middle" x="317" y="-497.8" font-family="Arial" font-size="8.00">IMouseEventListener</text>
<polyline fill="none" stroke="black" points="180,-491 454,-491 "/>
<text text-anchor="start" x="188" y="-479.8" font-family="Arial" font-size="8.00">+ Index : DisplayLayer</text>
<text text-anchor="start" x="188" y="-469.8" font-family="Arial" font-size="8.00">+ IsMouseEventEnabled : bool</text>
<polyline fill="none" stroke="black" points="180,-463 454,-463 "/>
<text text-anchor="start" x="188" y="-451.8" font-family="Arial" font-size="8.00">+ OnLeftClick (Vector2 position, ClickState click, GameTime gameTime)</text>
<text text-anchor="start" x="188" y="-441.8" font-family="Arial" font-size="8.00">+ OnRightClick (Vector2 position, ClickState click, GameTime gameTime)</text>
<text text-anchor="start" x="188" y="-431.8" font-family="Arial" font-size="8.00">+ SetHovered (bool hovered)</text>
<text text-anchor="start" x="188" y="-421.8" font-family="Arial" font-size="8.00">+ bounds () : Rectangle</text>
</g>
<!-- Box_ColorPicker -->
<g id="node2" class="node"><title>Box_ColorPicker</title>
<polygon fill="#fcfcda" stroke="black" points="0,-193 0,-377 300,-377 300,-193 0,-193"/>
<text text-anchor="middle" x="150" y="-365.8" font-family="Arial" font-size="8.00">ColorPicker</text>
<polyline fill="none" stroke="black" points="0,-359 300,-359 "/>
<text text-anchor="start" x="8" y="-347.8" font-family="Arial" font-size="8.00">&#45; tiles : List&lt;Vector2&gt;</text>
<text text-anchor="start" x="8" y="-337.8" font-family="Arial" font-size="8.00">+ SelectedColor : Color</text>
<text text-anchor="start" x="8" y="-327.8" font-family="Arial" font-size="8.00">+ IsMouseEventEnabled : bool</text>
<text text-anchor="start" x="8" y="-317.8" font-family="Arial" font-size="8.00">&#45; colors : List&lt;Color&gt;</text>
<text text-anchor="start" x="8" y="-307.8" font-family="Arial" font-size="8.00"># spriteBatch : SpriteBatch</text>
<text text-anchor="start" x="8" y="-297.8" font-family="Arial" font-size="8.00">+ OnSelectColor : Action&lt;Color&gt;</text>
<polyline fill="none" stroke="black" points="0,-291 300,-291 "/>
<text text-anchor="start" x="8" y="-279.8" font-family="Arial" font-size="8.00">&#45; Vector2 tileSize (0.032f, 0.032f) : readonly static</text>
<text text-anchor="start" x="8" y="-269.8" font-family="Arial" font-size="8.00">&#45; CreateTiles (IEnumerable&lt;Color&gt; _colors) : IEnumerable&lt;Vector2&gt; static</text>
<text text-anchor="start" x="8" y="-259.8" font-family="Arial" font-size="8.00">+ ColorPicker (GameScreen screen, WidgetInfo info, DisplayLayer drawOrder)</text>
<text text-anchor="start" x="8" y="-249.8" font-family="Arial" font-size="8.00">+ Draw (GameTime gameTime)</text>
<text text-anchor="start" x="8" y="-239.8" font-family="Arial" font-size="8.00">+ OnRightClick (Vector2 position, ClickState click, GameTime gameTime)</text>
<text text-anchor="start" x="8" y="-229.8" font-family="Arial" font-size="8.00">+ SetHovered (bool hovered)</text>
<text text-anchor="start" x="8" y="-219.8" font-family="Arial" font-size="8.00">&#45; CreateColors (int num) : IEnumerable&lt;Color&gt; static</text>
<text text-anchor="start" x="8" y="-209.8" font-family="Arial" font-size="8.00">&#45; SelectColor (Color color)</text>
<text text-anchor="start" x="8" y="-199.8" font-family="Arial" font-size="8.00">+ OnLeftClick (Vector2 position, ClickState click, GameTime gameTime)</text>
</g>
<!-- Box_IMouseEventListener&#45;&gt;Box_ColorPicker -->
<g id="edge4" class="edge"><title>Box_IMouseEventListener&#45;&gt;Box_ColorPicker</title>
<path fill="none" stroke="midnightblue" d="M265.196,-407.094C256.24,-397.602 246.712,-387.503 237.121,-377.337"/>
<polygon fill="none" stroke="midnightblue" points="262.839,-409.696 272.247,-414.567 267.93,-404.892 262.839,-409.696"/>
</g>
<!-- Box_MenuItem -->
<g id="node3" class="node"><title>Box_MenuItem</title>
<polygon fill="#fcfcda" stroke="black" points="326.5,-193 326.5,-377 673.5,-377 673.5,-193 326.5,-193"/>
<text text-anchor="middle" x="500" y="-365.8" font-family="Arial" font-size="8.00">MenuItem</text>
<polyline fill="none" stroke="black" points="326.5,-359 673.5,-359 "/>
<text text-anchor="start" x="334.5" y="-347.8" font-family="Arial" font-size="8.00"># spriteBatch : SpriteBatch</text>
<text text-anchor="start" x="334.5" y="-337.8" font-family="Arial" font-size="8.00">+ IsMouseEventEnabled : bool</text>
<text text-anchor="start" x="334.5" y="-327.8" font-family="Arial" font-size="8.00">+ ValidKeys : List&lt;Keys&gt;</text>
<text text-anchor="start" x="334.5" y="-317.8" font-family="Arial" font-size="8.00">+ IsKeyEventEnabled : bool</text>
<text text-anchor="start" x="334.5" y="-307.8" font-family="Arial" font-size="8.00">+ Info : MenuItemInfo</text>
<polyline fill="none" stroke="black" points="326.5,-301 673.5,-301 "/>
<text text-anchor="start" x="334.5" y="-289.8" font-family="Arial" font-size="8.00">+ MenuItem (GameScreen screen, DisplayLayer drawOrder, int itemNum, MenuItemInfo info)</text>
<text text-anchor="start" x="334.5" y="-279.8" font-family="Arial" font-size="8.00">+ Collapse () virtual</text>
<text text-anchor="start" x="334.5" y="-269.8" font-family="Arial" font-size="8.00">+ OnKeyEvent (List&lt;Keys&gt; key, KeyEvent keyEvent, GameTime gameTime)</text>
<text text-anchor="start" x="334.5" y="-259.8" font-family="Arial" font-size="8.00">+ OnLeftClick (Vector2 position, ClickState click, GameTime gameTime)</text>
<text text-anchor="start" x="334.5" y="-249.8" font-family="Arial" font-size="8.00">+ OnRightClick (Vector2 position, ClickState click, GameTime gameTime)</text>
<text text-anchor="start" x="334.5" y="-239.8" font-family="Arial" font-size="8.00">+ MinimumSize (SpriteFont font) : Vector2</text>
<text text-anchor="start" x="334.5" y="-229.8" font-family="Arial" font-size="8.00">+ TextPosition (SpriteFont font) : Vector2</text>
<text text-anchor="start" x="334.5" y="-219.8" font-family="Arial" font-size="8.00">+ TextPosition (SpriteFont font, Vector2 scale) : Vector2</text>
<text text-anchor="start" x="334.5" y="-209.8" font-family="Arial" font-size="8.00">+ Draw (GameTime gameTime)</text>
<text text-anchor="start" x="334.5" y="-199.8" font-family="Arial" font-size="8.00">+ SetHovered (bool hovered)</text>
</g>
<!-- Box_IMouseEventListener&#45;&gt;Box_MenuItem -->
<g id="edge8" class="edge"><title>Box_IMouseEventListener&#45;&gt;Box_MenuItem</title>
<path fill="none" stroke="midnightblue" d="M373.476,-407.376C383.375,-397.802 393.918,-387.604 404.532,-377.337"/>
<polygon fill="none" stroke="midnightblue" points="370.795,-405.099 366.041,-414.567 375.662,-410.131 370.795,-405.099"/>
</g>
<!-- Box_DropDownMenu -->
<g id="node4" class="node"><title>Box_DropDownMenu</title>
<polygon fill="#fcfcda" stroke="black" points="123,-1 123,-155 495,-155 495,-1 123,-1"/>
<text text-anchor="middle" x="309" y="-143.8" font-family="Arial" font-size="8.00">DropDownMenu</text>
<polyline fill="none" stroke="black" points="123,-137 495,-137 "/>
<text text-anchor="start" x="131" y="-125.8" font-family="Arial" font-size="8.00">&#45; selected : MenuButton</text>
<text text-anchor="start" x="131" y="-115.8" font-family="Arial" font-size="8.00">&#45; dropdown : VerticalMenu</text>
<polyline fill="none" stroke="black" points="123,-109 495,-109 "/>
<text text-anchor="start" x="131" y="-97.8" font-family="Arial" font-size="8.00">&#45; ValuePosition (int dummy) : Vector2</text>
<text text-anchor="start" x="131" y="-87.8" font-family="Arial" font-size="8.00">+ DropDownMenu (GameScreen screen, DisplayLayer drawOrder, int itemNum, MenuItemInfo info)</text>
<text text-anchor="start" x="131" y="-77.8" font-family="Arial" font-size="8.00">&#45; DropDownBackgroundColor (ItemState itemState) : Color</text>
<text text-anchor="start" x="131" y="-67.8" font-family="Arial" font-size="8.00">&#45; DropDownForegroundColor (ItemState itemState) : Color</text>
<text text-anchor="start" x="131" y="-57.8" font-family="Arial" font-size="8.00">&#45; ValueSize (int dummy) : Vector2</text>
<text text-anchor="start" x="131" y="-47.8" font-family="Arial" font-size="8.00">+ SubComponents (GameTime gameTime) : IEnumerable&lt;IGameScreenComponent&gt;</text>
<text text-anchor="start" x="131" y="-37.8" font-family="Arial" font-size="8.00">+ Collapse ()</text>
<text text-anchor="start" x="131" y="-27.8" font-family="Arial" font-size="8.00">+ Draw (GameTime gameTime)</text>
<text text-anchor="start" x="131" y="-17.8" font-family="Arial" font-size="8.00">+ AddEntries (DistinctOptionInfo option)</text>
<text text-anchor="start" x="131" y="-7.8" font-family="Arial" font-size="8.00">+ AddEntries (DropDownMenuItem[] entries, DropDownMenuItem defaultEntry)</text>
</g>
<!-- Box_MenuItem&#45;&gt;Box_DropDownMenu -->
<g id="edge12" class="edge"><title>Box_MenuItem&#45;&gt;Box_DropDownMenu</title>
<path fill="none" stroke="midnightblue" d="M407.783,-185.058C398.544,-175.045 389.264,-164.987 380.289,-155.261"/>
<polygon fill="none" stroke="midnightblue" points="405.48,-187.724 414.834,-192.7 410.625,-182.977 405.48,-187.724"/>
</g>
<!-- Box_MenuButton -->
<g id="node5" class="node"><title>Box_MenuButton</title>
<polygon fill="#fcfcda" stroke="black" points="513,-51 513,-105 869,-105 869,-51 513,-51"/>
<text text-anchor="middle" x="691" y="-93.8" font-family="Arial" font-size="8.00">MenuButton</text>
<polyline fill="none" stroke="black" points="513,-87 869,-87 "/>
<text text-anchor="middle" x="691" y="-75.8" font-family="Arial" font-size="8.00"> </text>
<polyline fill="none" stroke="black" points="513,-69 869,-69 "/>
<text text-anchor="start" x="521" y="-57.8" font-family="Arial" font-size="8.00">+ MenuButton (GameScreen screen, DisplayLayer drawOrder, int itemNum, MenuItemInfo info)</text>
</g>
<!-- Box_MenuItem&#45;&gt;Box_MenuButton -->
<g id="edge14" class="edge"><title>Box_MenuItem&#45;&gt;Box_MenuButton</title>
<path fill="none" stroke="midnightblue" d="M592.039,-185.251C619.127,-155.894 646.586,-126.134 665.685,-105.435"/>
<polygon fill="none" stroke="midnightblue" points="589.375,-182.977 585.166,-192.7 594.52,-187.724 589.375,-182.977"/>
</g>
<!-- Box_Widget -->
<g id="node6" class="node"><title>Box_Widget</title>
<polygon fill="#ffffff" stroke="black" points="121.5,-453 121.5,-471 162.5,-471 162.5,-453 121.5,-453"/>
<text text-anchor="middle" x="142" y="-459.8" font-family="Arial" font-size="8.00">Widget</text>
</g>
<!-- Box_Widget&#45;&gt;Box_ColorPicker -->
<g id="edge2" class="edge"><title>Box_Widget&#45;&gt;Box_ColorPicker</title>
<path fill="none" stroke="midnightblue" d="M142.87,-442.754C143.602,-426.557 144.706,-402.12 145.829,-377.285"/>
<polygon fill="none" stroke="midnightblue" points="139.363,-442.831 142.408,-452.979 146.356,-443.147 139.363,-442.831"/>
</g>
<!-- Box_ItemWidget -->
<g id="node7" class="node"><title>Box_ItemWidget</title>
<polygon fill="#ffffff" stroke="black" points="472,-453 472,-471 528,-471 528,-453 472,-453"/>
<text text-anchor="middle" x="500" y="-459.8" font-family="Arial" font-size="8.00">ItemWidget</text>
</g>
<!-- Box_ItemWidget&#45;&gt;Box_MenuItem -->
<g id="edge6" class="edge"><title>Box_ItemWidget&#45;&gt;Box_MenuItem</title>
<path fill="none" stroke="midnightblue" d="M500,-442.754C500,-426.557 500,-402.12 500,-377.285"/>
<polygon fill="none" stroke="midnightblue" points="496.5,-442.979 500,-452.979 503.5,-442.979 496.5,-442.979"/>
</g>
<!-- Box_IKeyEventListener -->
<g id="node8" class="node"><title>Box_IKeyEventListener</title>
<polygon fill="#ffffff" stroke="black" points="546,-453 546,-471 628,-471 628,-453 546,-453"/>
<text text-anchor="middle" x="587" y="-459.8" font-family="Arial" font-size="8.00">IKeyEventListener</text>
</g>
<!-- Box_IKeyEventListener&#45;&gt;Box_MenuItem -->
<g id="edge10" class="edge"><title>Box_IKeyEventListener&#45;&gt;Box_MenuItem</title>
<path fill="none" stroke="midnightblue" d="M577.999,-443.688C570.045,-427.506 557.805,-402.602 545.36,-377.285"/>
<polygon fill="none" stroke="midnightblue" points="575.014,-445.549 582.566,-452.979 581.296,-442.461 575.014,-445.549"/>
</g>
</g>
</svg>
