<?xml version="1.0" encoding="UTF-8" standalone="no"?>
<!DOCTYPE svg PUBLIC "-//W3C//DTD SVG 1.1//EN"
 "http://www.w3.org/Graphics/SVG/1.1/DTD/svg11.dtd">
<!-- Generated by graphviz version 2.26.3 (20100126.1600)
 -->
<!-- Title: MenuItem Pages: 1 -->
<svg width="925pt" height="2325pt"
 viewBox="0.00 0.00 222.00 558.00" xmlns="http://www.w3.org/2000/svg" xmlns:xlink="http://www.w3.org/1999/xlink">
<g id="graph1" class="graph" transform="scale(4.16667 4.16667) rotate(0) translate(4 554)">
<title>MenuItem</title>
<polygon fill="white" stroke="white" points="-4,5 -4,-554 219,-554 219,5 -4,5"/>
<!-- Box_ArrowModel -->
<g id="node1" class="node"><title>Box_ArrowModel</title>
<polygon fill="#fcfcda" stroke="black" points="-0.5,-1 -0.5,-85 214.5,-85 214.5,-1 -0.5,-1"/>
<text text-anchor="middle" x="107" y="-73.8" font-family="Arial" font-size="8.00">ArrowModel</text>
<polyline fill="none" stroke="black" points="-0.5,-67 214.5,-67 "/>
<text text-anchor="start" x="7.5" y="-55.8" font-family="Arial" font-size="8.00">&#45; Bounds : BoundingSphere[]</text>
<text text-anchor="start" x="7.5" y="-45.8" font-family="Arial" font-size="8.00">+ Info : ArrowModelInfo</text>
<polyline fill="none" stroke="black" points="-0.5,-39 214.5,-39 "/>
<text text-anchor="start" x="7.5" y="-27.8" font-family="Arial" font-size="8.00">+ ArrowModel (GameState state, ArrowModelInfo info)</text>
<text text-anchor="start" x="7.5" y="-17.8" font-family="Arial" font-size="8.00">+ Intersects (Ray ray) : GameObjectDistance</text>
<text text-anchor="start" x="7.5" y="-7.8" font-family="Arial" font-size="8.00">+ Draw (GameTime gameTime)</text>
</g>
<!-- Box_GameModel -->
<g id="node2" class="node"><title>Box_GameModel</title>
<polygon fill="#fcfcda" stroke="black" points="2.5,-123 2.5,-417 211.5,-417 211.5,-123 2.5,-123"/>
<text text-anchor="middle" x="107" y="-405.8" font-family="Arial" font-size="8.00">GameModel</text>
<polyline fill="none" stroke="black" points="2.5,-399 211.5,-399 "/>
<text text-anchor="start" x="10.5" y="-387.8" font-family="Arial" font-size="8.00">&#45; IGameObject.Info : GameObjectInfo</text>
<text text-anchor="start" x="10.5" y="-377.8" font-family="Arial" font-size="8.00">&#45; _rotation : Angles3</text>
<text text-anchor="start" x="10.5" y="-367.8" font-family="Arial" font-size="8.00">&#45; Bounds : BoundingSphere[]</text>
<text text-anchor="start" x="10.5" y="-357.8" font-family="Arial" font-size="8.00">&#45; _bounds : BoundingSphere[]</text>
<text text-anchor="start" x="10.5" y="-347.8" font-family="Arial" font-size="8.00">&#45; _worldMatrix : Matrix</text>
<text text-anchor="start" x="10.5" y="-337.8" font-family="Arial" font-size="8.00">&#45; _position : Vector3</text>
<text text-anchor="start" x="10.5" y="-327.8" font-family="Arial" font-size="8.00">&#45; _inFrustum : bool</text>
<text text-anchor="start" x="10.5" y="-317.8" font-family="Arial" font-size="8.00"># InCameraFrustum : bool</text>
<text text-anchor="start" x="10.5" y="-307.8" font-family="Arial" font-size="8.00">+ BaseColor : Color</text>
<text text-anchor="start" x="10.5" y="-297.8" font-family="Arial" font-size="8.00">+ HighlightColor : Color</text>
<text text-anchor="start" x="10.5" y="-287.8" font-family="Arial" font-size="8.00">+ Info : GameModelInfo</text>
<text text-anchor="start" x="10.5" y="-277.8" font-family="Arial" font-size="8.00">+ WorldMatrix : Matrix</text>
<text text-anchor="start" x="10.5" y="-267.8" font-family="Arial" font-size="8.00">+ World : World</text>
<text text-anchor="start" x="10.5" y="-257.8" font-family="Arial" font-size="8.00">+ Alpha : float</text>
<text text-anchor="start" x="10.5" y="-247.8" font-family="Arial" font-size="8.00">+ HighlightIntensity : float</text>
<text text-anchor="start" x="10.5" y="-237.8" font-family="Arial" font-size="8.00">&#45; _scale : Vector3</text>
<text text-anchor="start" x="10.5" y="-227.8" font-family="Arial" font-size="8.00">&#45; _world : World</text>
<text text-anchor="start" x="10.5" y="-217.8" font-family="Arial" font-size="8.00"># state : GameState</text>
<text text-anchor="start" x="10.5" y="-207.8" font-family="Arial" font-size="8.00">+ Model : Model virtual</text>
<polyline fill="none" stroke="black" points="2.5,-201 211.5,-201 "/>
<text text-anchor="start" x="10.5" y="-189.8" font-family="Arial" font-size="8.00">&#45; OnViewChanged ()</text>
<text text-anchor="start" x="10.5" y="-179.8" font-family="Arial" font-size="8.00">&#45; UpdatePrecomputed ()</text>
<text text-anchor="start" x="10.5" y="-169.8" font-family="Arial" font-size="8.00">+ GameModel (GameState state, GameModelInfo info)</text>
<text text-anchor="start" x="10.5" y="-159.8" font-family="Arial" font-size="8.00">+ Draw (GameTime gameTime) virtual</text>
<text text-anchor="start" x="10.5" y="-149.8" font-family="Arial" font-size="8.00">+ Center () : Vector3</text>
<text text-anchor="start" x="10.5" y="-139.8" font-family="Arial" font-size="8.00">+ Intersects (Ray ray) : GameObjectDistance virtual</text>
<text text-anchor="start" x="10.5" y="-129.8" font-family="Arial" font-size="8.00">+ Update (GameTime gameTime) virtual</text>
</g>
<!-- Box_GameModel&#45;&gt;Box_ArrowModel -->
<g id="edge2" class="edge"><title>Box_GameModel&#45;&gt;Box_ArrowModel</title>
<path fill="none" stroke="midnightblue" d="M107,-112.483C107,-102.828 107,-93.6755 107,-85.3735"/>
<polygon fill="none" stroke="midnightblue" points="103.5,-112.712 107,-122.713 110.5,-112.713 103.5,-112.712"/>
</g>
<!-- Box_IGameObject -->
<g id="node3" class="node"><title>Box_IGameObject</title>
<polygon fill="#dafcda" stroke="black" points="17.5,-455 17.5,-549 196.5,-549 196.5,-455 17.5,-455"/>
<text text-anchor="middle" x="107" y="-537.8" font-family="Arial" font-size="8.00">IGameObject</text>
<polyline fill="none" stroke="black" points="17.5,-531 196.5,-531 "/>
<text text-anchor="start" x="25.5" y="-519.8" font-family="Arial" font-size="8.00">+ Info : GameObjectInfo</text>
<text text-anchor="start" x="25.5" y="-509.8" font-family="Arial" font-size="8.00">+ World : World</text>
<polyline fill="none" stroke="black" points="17.5,-503 196.5,-503 "/>
<text text-anchor="start" x="25.5" y="-491.8" font-family="Arial" font-size="8.00">+ Draw (GameTime gameTime)</text>
<text text-anchor="start" x="25.5" y="-481.8" font-family="Arial" font-size="8.00">+ Update (GameTime gameTime)</text>
<text text-anchor="start" x="25.5" y="-471.8" font-family="Arial" font-size="8.00">+ Intersects (Ray ray) : GameObjectDistance</text>
<text text-anchor="start" x="25.5" y="-461.8" font-family="Arial" font-size="8.00">+ Center () : Vector3</text>
</g>
<!-- Box_IGameObject&#45;&gt;Box_GameModel -->
<g id="edge4" class="edge"><title>Box_IGameObject&#45;&gt;Box_GameModel</title>
<path fill="none" stroke="midnightblue" d="M107,-444.563C107,-435.94 107,-426.731 107,-417.221"/>
<polygon fill="none" stroke="midnightblue" points="103.5,-444.772 107,-454.772 110.5,-444.772 103.5,-444.772"/>
</g>
</g>
</svg>
