<?xml version="1.0" encoding="UTF-8" standalone="no"?>
<!DOCTYPE svg PUBLIC "-//W3C//DTD SVG 1.1//EN"
 "http://www.w3.org/Graphics/SVG/1.1/DTD/svg11.dtd">
<!-- Generated by graphviz version 2.26.3 (20100126.1600)
 -->
<!-- Title: MenuItem Pages: 1 -->
<svg width="414pt" height="382pt"
 viewBox="0.00 0.00 414.00 382.00" xmlns="http://www.w3.org/2000/svg" xmlns:xlink="http://www.w3.org/1999/xlink">
<g id="graph1" class="graph" transform="scale(1 1) rotate(0) translate(4 378)">
<title>MenuItem</title>
<polygon fill="white" stroke="white" points="-4,5 -4,-378 411,-378 411,5 -4,5"/>
<!-- Box_GameObjectInfo -->
<g id="node1" class="node"><title>Box_GameObjectInfo</title>
<polygon fill="#fcfcda" stroke="black" points="113.5,-159 113.5,-315 292.5,-315 292.5,-159 113.5,-159"/>
<text text-anchor="middle" x="203" y="-303.8" font-family="Helvetica,sans-Serif" font-size="8.00">GameObjectInfo</text>
<polyline fill="none" stroke="black" points="113.5,-295 292.5,-295 "/>
<text text-anchor="start" x="121.5" y="-283.8" font-family="Helvetica,sans-Serif" font-size="8.00">+ Position : Vector3</text>
<text text-anchor="start" x="121.5" y="-271.8" font-family="Helvetica,sans-Serif" font-size="8.00">+ IsVisible : bool</text>
<text text-anchor="start" x="121.5" y="-259.8" font-family="Helvetica,sans-Serif" font-size="8.00">+ IsSelectable : bool</text>
<text text-anchor="start" x="121.5" y="-247.8" font-family="Helvetica,sans-Serif" font-size="8.00">+ IsMovable : bool</text>
<text text-anchor="start" x="121.5" y="-235.8" font-family="Helvetica,sans-Serif" font-size="8.00">+ operator : bool static</text>
<text text-anchor="start" x="121.5" y="-223.8" font-family="Helvetica,sans-Serif" font-size="8.00">+ operator ! : bool static</text>
<polyline fill="none" stroke="black" points="113.5,-215 292.5,-215 "/>
<text text-anchor="start" x="121.5" y="-203.8" font-family="Helvetica,sans-Serif" font-size="8.00">+ GameObjectInfo ()</text>
<text text-anchor="start" x="121.5" y="-191.8" font-family="Helvetica,sans-Serif" font-size="8.00">+ Equals (GameObjectInfo other) : bool virtual</text>
<text text-anchor="start" x="121.5" y="-179.8" font-family="Helvetica,sans-Serif" font-size="8.00">+ Equals (Object obj) : bool override</text>
<text text-anchor="start" x="121.5" y="-167.8" font-family="Helvetica,sans-Serif" font-size="8.00">+ GetHashCode () : int override</text>
</g>
<!-- Box_TexturedRectangleInfo -->
<g id="node2" class="node"><title>Box_TexturedRectangleInfo</title>
<polygon fill="#fcfcda" stroke="black" points="-0.5,-1 -0.5,-121 406.5,-121 406.5,-1 -0.5,-1"/>
<text text-anchor="middle" x="203" y="-109.8" font-family="Helvetica,sans-Serif" font-size="8.00">TexturedRectangleInfo</text>
<polyline fill="none" stroke="black" points="-0.5,-101 406.5,-101 "/>
<text text-anchor="start" x="7.5" y="-89.8" font-family="Helvetica,sans-Serif" font-size="8.00">+ Texturename : string</text>
<text text-anchor="start" x="7.5" y="-77.8" font-family="Helvetica,sans-Serif" font-size="8.00">+ Up : Vector3</text>
<text text-anchor="start" x="7.5" y="-65.8" font-family="Helvetica,sans-Serif" font-size="8.00">+ Left : Vector3</text>
<text text-anchor="start" x="7.5" y="-53.8" font-family="Helvetica,sans-Serif" font-size="8.00">+ Width : float</text>
<text text-anchor="start" x="7.5" y="-41.8" font-family="Helvetica,sans-Serif" font-size="8.00">+ Height : float</text>
<polyline fill="none" stroke="black" points="-0.5,-33 406.5,-33 "/>
<text text-anchor="start" x="7.5" y="-21.8" font-family="Helvetica,sans-Serif" font-size="8.00">+ TexturedRectangleInfo (string texturename, Vector3 origin, Vector3 left, float width, Vector3 up, float height)</text>
<text text-anchor="start" x="7.5" y="-9.8" font-family="Helvetica,sans-Serif" font-size="8.00">+ Equals (GameObjectInfo other) : bool override</text>
</g>
<!-- Box_GameObjectInfo&#45;&gt;Box_TexturedRectangleInfo -->
<g id="edge4" class="edge"><title>Box_GameObjectInfo&#45;&gt;Box_TexturedRectangleInfo</title>
<path fill="none" stroke="midnightblue" d="M203,-148.645C203,-139.289 203,-129.939 203,-121.017"/>
<polygon fill="none" stroke="midnightblue" points="199.5,-148.779 203,-158.779 206.5,-148.779 199.5,-148.779"/>
</g>
<!-- Box_IEquatable -->
<g id="node3" class="node"><title>Box_IEquatable</title>
<polygon fill="#ffffff" stroke="black" points="142,-353 142,-373 264,-373 264,-353 142,-353"/>
<text text-anchor="middle" x="203" y="-361.8" font-family="Helvetica,sans-Serif" font-size="8.00">IEquatable&lt;GameObjectInfo&gt;</text>
</g>
<!-- Box_IEquatable&#45;&gt;Box_GameObjectInfo -->
<g id="edge2" class="edge"><title>Box_IEquatable&#45;&gt;Box_GameObjectInfo</title>
<path fill="none" stroke="midnightblue" d="M203,-342.521C203,-334.692 203,-325.219 203,-315.201"/>
<polygon fill="none" stroke="midnightblue" points="199.5,-342.689 203,-352.689 206.5,-342.689 199.5,-342.689"/>
</g>
</g>
</svg>
