<?xml version="1.0" encoding="UTF-8" standalone="no"?>
<!DOCTYPE svg PUBLIC "-//W3C//DTD SVG 1.1//EN"
 "http://www.w3.org/Graphics/SVG/1.1/DTD/svg11.dtd">
<!-- Generated by graphviz version 2.26.3 (20100126.1600)
 -->
<!-- Title: MenuItem Pages: 1 -->
<svg width="704pt" height="566pt"
 viewBox="0.00 0.00 704.00 566.00" xmlns="http://www.w3.org/2000/svg" xmlns:xlink="http://www.w3.org/1999/xlink">
<g id="graph1" class="graph" transform="scale(1 1) rotate(0) translate(4 562)">
<title>MenuItem</title>
<polygon fill="white" stroke="white" points="-4,5 -4,-562 701,-562 701,5 -4,5"/>
<!-- Box_IEdgeChangeListener -->
<g id="node1" class="node"><title>Box_IEdgeChangeListener</title>
<polygon fill="#dafcda" stroke="black" points="207,-485 207,-557 359,-557 359,-485 207,-485"/>
<text text-anchor="middle" x="283" y="-545.8" font-family="Helvetica,sans-Serif" font-size="8.00">IEdgeChangeListener</text>
<polyline fill="none" stroke="black" points="207,-537 359,-537 "/>
<text text-anchor="start" x="215" y="-525.8" font-family="Helvetica,sans-Serif" font-size="8.00">Attributes:</text>
<text text-anchor="start" x="215" y="-513.8" font-family="Helvetica,sans-Serif" font-size="8.00">Methods:</text>
<polyline fill="none" stroke="black" points="207,-505 359,-505 "/>
<text text-anchor="start" x="215" y="-493.8" font-family="Helvetica,sans-Serif" font-size="8.00">+ OnEdgesChanged (EdgeList edges)</text>
</g>
<!-- Box_KnotRenderer -->
<g id="node2" class="node"><title>Box_KnotRenderer</title>
<polygon fill="#fcfcda" stroke="black" points="242,-267 242,-447 448,-447 448,-267 242,-267"/>
<text text-anchor="middle" x="345" y="-435.8" font-family="Helvetica,sans-Serif" font-size="8.00">KnotRenderer</text>
<polyline fill="none" stroke="black" points="242,-427 448,-427 "/>
<text text-anchor="start" x="250" y="-415.8" font-family="Helvetica,sans-Serif" font-size="8.00">Attributes:</text>
<text text-anchor="start" x="250" y="-403.8" font-family="Helvetica,sans-Serif" font-size="8.00">+ World : World abstract</text>
<text text-anchor="start" x="250" y="-391.8" font-family="Helvetica,sans-Serif" font-size="8.00"># state : GameState</text>
<text text-anchor="start" x="250" y="-379.8" font-family="Helvetica,sans-Serif" font-size="8.00">+ Info : GameObjectInfo abstract</text>
<text text-anchor="start" x="250" y="-367.8" font-family="Helvetica,sans-Serif" font-size="8.00">Methods:</text>
<polyline fill="none" stroke="black" points="242,-359 448,-359 "/>
<text text-anchor="start" x="250" y="-347.8" font-family="Helvetica,sans-Serif" font-size="8.00"># nodeMap () : NodeMap</text>
<text text-anchor="start" x="250" y="-335.8" font-family="Helvetica,sans-Serif" font-size="8.00">+ Intersects (Ray ray) : GameObjectDistance abstract</text>
<text text-anchor="start" x="250" y="-323.8" font-family="Helvetica,sans-Serif" font-size="8.00">+ Center () : Vector3 abstract</text>
<text text-anchor="start" x="250" y="-311.8" font-family="Helvetica,sans-Serif" font-size="8.00">+ Draw (GameTime gameTime) abstract</text>
<text text-anchor="start" x="250" y="-299.8" font-family="Helvetica,sans-Serif" font-size="8.00">+ KnotRenderer (GameState state)</text>
<text text-anchor="start" x="250" y="-287.8" font-family="Helvetica,sans-Serif" font-size="8.00">+ Update (GameTime gameTime) abstract</text>
<text text-anchor="start" x="250" y="-275.8" font-family="Helvetica,sans-Serif" font-size="8.00">+ OnEdgesChanged (EdgeList edges) virtual</text>
</g>
<!-- Box_IEdgeChangeListener&#45;&gt;Box_KnotRenderer -->
<g id="edge2" class="edge"><title>Box_IEdgeChangeListener&#45;&gt;Box_KnotRenderer</title>
<path fill="none" stroke="midnightblue" d="M300.373,-475.044C303.681,-466.296 307.247,-456.864 310.87,-447.279"/>
<polygon fill="none" stroke="midnightblue" points="297.022,-474.011 296.76,-484.603 303.57,-476.487 297.022,-474.011"/>
</g>
<!-- Box_LineRenderer -->
<g id="node3" class="node"><title>Box_LineRenderer</title>
<polygon fill="#fcfcda" stroke="black" points="0,-19 0,-211 218,-211 218,-19 0,-19"/>
<text text-anchor="middle" x="109" y="-199.8" font-family="Helvetica,sans-Serif" font-size="8.00">LineRenderer</text>
<polyline fill="none" stroke="black" points="0,-191 218,-191 "/>
<text text-anchor="start" x="8" y="-179.8" font-family="Helvetica,sans-Serif" font-size="8.00">Attributes:</text>
<text text-anchor="start" x="8" y="-167.8" font-family="Helvetica,sans-Serif" font-size="8.00">&#45; edges : EdgeList</text>
<text text-anchor="start" x="8" y="-155.8" font-family="Helvetica,sans-Serif" font-size="8.00">&#45; basicEffect : BasicEffect</text>
<text text-anchor="start" x="8" y="-143.8" font-family="Helvetica,sans-Serif" font-size="8.00">+ Info : GameObjectInfo</text>
<text text-anchor="start" x="8" y="-131.8" font-family="Helvetica,sans-Serif" font-size="8.00">+ World : World</text>
<text text-anchor="start" x="8" y="-119.8" font-family="Helvetica,sans-Serif" font-size="8.00">Methods:</text>
<polyline fill="none" stroke="black" points="0,-111 218,-111 "/>
<text text-anchor="start" x="8" y="-99.8" font-family="Helvetica,sans-Serif" font-size="8.00">+ LineRenderer (GameState state, GameObjectInfo info)</text>
<text text-anchor="start" x="8" y="-87.8" font-family="Helvetica,sans-Serif" font-size="8.00">+ OnEdgesChanged (EdgeList edges)</text>
<text text-anchor="start" x="8" y="-75.8" font-family="Helvetica,sans-Serif" font-size="8.00">&#45; DrawRoundedLines ()</text>
<text text-anchor="start" x="8" y="-63.8" font-family="Helvetica,sans-Serif" font-size="8.00">+ Intersects (Ray ray) : GameObjectDistance</text>
<text text-anchor="start" x="8" y="-51.8" font-family="Helvetica,sans-Serif" font-size="8.00">+ Center () : Vector3</text>
<text text-anchor="start" x="8" y="-39.8" font-family="Helvetica,sans-Serif" font-size="8.00">+ Draw (GameTime gameTime)</text>
<text text-anchor="start" x="8" y="-27.8" font-family="Helvetica,sans-Serif" font-size="8.00">+ Update (GameTime gameTime)</text>
</g>
<!-- Box_KnotRenderer&#45;&gt;Box_LineRenderer -->
<g id="edge6" class="edge"><title>Box_KnotRenderer&#45;&gt;Box_LineRenderer</title>
<path fill="none" stroke="midnightblue" d="M250.026,-259.611C234.487,-243.678 218.395,-227.176 202.883,-211.27"/>
<polygon fill="none" stroke="midnightblue" points="247.635,-262.172 257.122,-266.888 252.646,-257.285 247.635,-262.172"/>
</g>
<!-- Box_ModelRenderer -->
<g id="node4" class="node"><title>Box_ModelRenderer</title>
<polygon fill="#fcfcda" stroke="black" points="471.5,-1 471.5,-229 696.5,-229 696.5,-1 471.5,-1"/>
<text text-anchor="middle" x="584" y="-217.8" font-family="Helvetica,sans-Serif" font-size="8.00">ModelRenderer</text>
<polyline fill="none" stroke="black" points="471.5,-209 696.5,-209 "/>
<text text-anchor="start" x="479.5" y="-197.8" font-family="Helvetica,sans-Serif" font-size="8.00">Attributes:</text>
<text text-anchor="start" x="479.5" y="-185.8" font-family="Helvetica,sans-Serif" font-size="8.00">&#45; nodes : List&lt;NodeModel&gt;</text>
<text text-anchor="start" x="479.5" y="-173.8" font-family="Helvetica,sans-Serif" font-size="8.00">&#45; nodeFactory : ModelFactory</text>
<text text-anchor="start" x="479.5" y="-161.8" font-family="Helvetica,sans-Serif" font-size="8.00">&#45; pipeFactory : ModelFactory</text>
<text text-anchor="start" x="479.5" y="-149.8" font-family="Helvetica,sans-Serif" font-size="8.00">&#45; pipes : List&lt;PipeModel&gt;</text>
<text text-anchor="start" x="479.5" y="-137.8" font-family="Helvetica,sans-Serif" font-size="8.00">+ Info : GameObjectInfo</text>
<text text-anchor="start" x="479.5" y="-125.8" font-family="Helvetica,sans-Serif" font-size="8.00">+ World : World</text>
<text text-anchor="start" x="479.5" y="-113.8" font-family="Helvetica,sans-Serif" font-size="8.00">Methods:</text>
<polyline fill="none" stroke="black" points="471.5,-105 696.5,-105 "/>
<text text-anchor="start" x="479.5" y="-93.8" font-family="Helvetica,sans-Serif" font-size="8.00">&#45; IEnumerable.GetEnumerator () : IEnumerator</text>
<text text-anchor="start" x="479.5" y="-81.8" font-family="Helvetica,sans-Serif" font-size="8.00">+ ModelRenderer (GameState state, GameObjectInfo info)</text>
<text text-anchor="start" x="479.5" y="-69.8" font-family="Helvetica,sans-Serif" font-size="8.00">+ Draw (GameTime gameTime)</text>
<text text-anchor="start" x="479.5" y="-57.8" font-family="Helvetica,sans-Serif" font-size="8.00">+ OnEdgesChanged (EdgeList edgeList)</text>
<text text-anchor="start" x="479.5" y="-45.8" font-family="Helvetica,sans-Serif" font-size="8.00">+ GetEnumerator () : IEnumerator&lt;IGameObject&gt;</text>
<text text-anchor="start" x="479.5" y="-33.8" font-family="Helvetica,sans-Serif" font-size="8.00">+ Intersects (Ray ray) : GameObjectDistance</text>
<text text-anchor="start" x="479.5" y="-21.8" font-family="Helvetica,sans-Serif" font-size="8.00">+ Center () : Vector3</text>
<text text-anchor="start" x="479.5" y="-9.8" font-family="Helvetica,sans-Serif" font-size="8.00">+ Update (GameTime gameTime)</text>
</g>
<!-- Box_KnotRenderer&#45;&gt;Box_ModelRenderer -->
<g id="edge8" class="edge"><title>Box_KnotRenderer&#45;&gt;Box_ModelRenderer</title>
<path fill="none" stroke="midnightblue" d="M441.197,-259.595C451.148,-249.519 461.324,-239.216 471.433,-228.98"/>
<polygon fill="none" stroke="midnightblue" points="438.531,-257.314 433.995,-266.888 443.512,-262.232 438.531,-257.314"/>
</g>
<!-- Box_PipeRenderer -->
<g id="node5" class="node"><title>Box_PipeRenderer</title>
<polygon fill="#fcfcda" stroke="black" points="235.5,-1 235.5,-229 454.5,-229 454.5,-1 235.5,-1"/>
<text text-anchor="middle" x="345" y="-217.8" font-family="Helvetica,sans-Serif" font-size="8.00">PipeRenderer</text>
<polyline fill="none" stroke="black" points="235.5,-209 454.5,-209 "/>
<text text-anchor="start" x="243.5" y="-197.8" font-family="Helvetica,sans-Serif" font-size="8.00">Attributes:</text>
<text text-anchor="start" x="243.5" y="-185.8" font-family="Helvetica,sans-Serif" font-size="8.00">&#45; nodes : List&lt;NodeModel&gt;</text>
<text text-anchor="start" x="243.5" y="-173.8" font-family="Helvetica,sans-Serif" font-size="8.00">&#45; nodeFactory : ModelFactory</text>
<text text-anchor="start" x="243.5" y="-161.8" font-family="Helvetica,sans-Serif" font-size="8.00">&#45; pipeFactory : ModelFactory</text>
<text text-anchor="start" x="243.5" y="-149.8" font-family="Helvetica,sans-Serif" font-size="8.00">&#45; pipes : List&lt;PipeModel&gt;</text>
<text text-anchor="start" x="243.5" y="-137.8" font-family="Helvetica,sans-Serif" font-size="8.00">+ Info : GameObjectInfo</text>
<text text-anchor="start" x="243.5" y="-125.8" font-family="Helvetica,sans-Serif" font-size="8.00">+ World : World</text>
<text text-anchor="start" x="243.5" y="-113.8" font-family="Helvetica,sans-Serif" font-size="8.00">Methods:</text>
<polyline fill="none" stroke="black" points="235.5,-105 454.5,-105 "/>
<text text-anchor="start" x="243.5" y="-93.8" font-family="Helvetica,sans-Serif" font-size="8.00">&#45; IEnumerable.GetEnumerator () : IEnumerator</text>
<text text-anchor="start" x="243.5" y="-81.8" font-family="Helvetica,sans-Serif" font-size="8.00">+ PipeRenderer (GameState state, GameObjectInfo info)</text>
<text text-anchor="start" x="243.5" y="-69.8" font-family="Helvetica,sans-Serif" font-size="8.00">+ Draw (GameTime gameTime)</text>
<text text-anchor="start" x="243.5" y="-57.8" font-family="Helvetica,sans-Serif" font-size="8.00">+ OnEdgesChanged (EdgeList edges)</text>
<text text-anchor="start" x="243.5" y="-45.8" font-family="Helvetica,sans-Serif" font-size="8.00">+ GetEnumerator () : IEnumerator&lt;IGameObject&gt;</text>
<text text-anchor="start" x="243.5" y="-33.8" font-family="Helvetica,sans-Serif" font-size="8.00">+ Intersects (Ray ray) : GameObjectDistance</text>
<text text-anchor="start" x="243.5" y="-21.8" font-family="Helvetica,sans-Serif" font-size="8.00">+ Center () : Vector3</text>
<text text-anchor="start" x="243.5" y="-9.8" font-family="Helvetica,sans-Serif" font-size="8.00">+ Update (GameTime gameTime)</text>
</g>
<!-- Box_KnotRenderer&#45;&gt;Box_PipeRenderer -->
<g id="edge12" class="edge"><title>Box_KnotRenderer&#45;&gt;Box_PipeRenderer</title>
<path fill="none" stroke="midnightblue" d="M345,-256.767C345,-247.732 345,-238.538 345,-229.395"/>
<polygon fill="none" stroke="midnightblue" points="341.5,-256.888 345,-266.888 348.5,-256.888 341.5,-256.888"/>
</g>
<!-- Box_IGameObject -->
<g id="node6" class="node"><title>Box_IGameObject</title>
<polygon fill="#ffffff" stroke="black" points="376.5,-511 376.5,-531 439.5,-531 439.5,-511 376.5,-511"/>
<text text-anchor="middle" x="408" y="-519.8" font-family="Helvetica,sans-Serif" font-size="8.00">IGameObject</text>
</g>
<!-- Box_IGameObject&#45;&gt;Box_KnotRenderer -->
<g id="edge4" class="edge"><title>Box_IGameObject&#45;&gt;Box_KnotRenderer</title>
<path fill="none" stroke="midnightblue" d="M400.437,-501.311C395.084,-487.377 387.484,-467.594 379.623,-447.13"/>
<polygon fill="none" stroke="midnightblue" points="397.206,-502.661 404.059,-510.741 403.74,-500.151 397.206,-502.661"/>
</g>
<!-- Box_IEnumerable -->
<g id="node7" class="node"><title>Box_IEnumerable</title>
<polygon fill="#ffffff" stroke="black" points="495,-347 495,-367 613,-367 613,-347 495,-347"/>
<text text-anchor="middle" x="554" y="-355.8" font-family="Helvetica,sans-Serif" font-size="8.00">IEnumerable&lt;IGameObject&gt;</text>
</g>
<!-- Box_IEnumerable&#45;&gt;Box_ModelRenderer -->
<g id="edge10" class="edge"><title>Box_IEnumerable&#45;&gt;Box_ModelRenderer</title>
<path fill="none" stroke="midnightblue" d="M556.491,-336.909C559.478,-312.812 564.725,-270.485 569.841,-229.214"/>
<polygon fill="none" stroke="midnightblue" points="553.008,-336.555 555.251,-346.91 559.955,-337.416 553.008,-336.555"/>
</g>
<!-- Box_IEnumerable&#45;&gt;Box_PipeRenderer -->
<g id="edge14" class="edge"><title>Box_IEnumerable&#45;&gt;Box_PipeRenderer</title>
<path fill="none" stroke="midnightblue" d="M538.579,-339.144C518.155,-315.495 480.412,-271.792 443.639,-229.214"/>
<polygon fill="none" stroke="midnightblue" points="536.1,-341.629 545.286,-346.91 541.398,-337.054 536.1,-341.629"/>
</g>
</g>
</svg>
