<?xml version="1.0" encoding="UTF-8" standalone="no"?>
<!DOCTYPE svg PUBLIC "-//W3C//DTD SVG 1.1//EN"
 "http://www.w3.org/Graphics/SVG/1.1/DTD/svg11.dtd">
<!-- Generated by graphviz version 2.26.3 (20100126.1600)
 -->
<!-- Title: MenuItem Pages: 1 -->
<svg width="202pt" height="200pt"
 viewBox="0.00 0.00 202.00 200.00" xmlns="http://www.w3.org/2000/svg" xmlns:xlink="http://www.w3.org/1999/xlink">
<g id="graph1" class="graph" transform="scale(1 1) rotate(0) translate(4 196)">
<title>MenuItem</title>
<polygon fill="white" stroke="white" points="-4,5 -4,-196 199,-196 199,5 -4,5"/>
<!-- Box_KnotModeInput -->
<g id="node1" class="node"><title>Box_KnotModeInput</title>
<polygon fill="#fcfcda" stroke="black" points="0,-1 0,-133 194,-133 194,-1 0,-1"/>
<text text-anchor="middle" x="97" y="-121.8" font-family="Helvetica,sans-Serif" font-size="8.00">KnotModeInput</text>
<polyline fill="none" stroke="black" points="0,-113 194,-113 "/>
<text text-anchor="start" x="8" y="-101.8" font-family="Helvetica,sans-Serif" font-size="8.00">&#45; World : World</text>
<text text-anchor="start" x="8" y="-89.8" font-family="Helvetica,sans-Serif" font-size="8.00">&#45; camera : Camera</text>
<text text-anchor="start" x="8" y="-77.8" font-family="Helvetica,sans-Serif" font-size="8.00">&#45; wasdSpeed : int</text>
<polyline fill="none" stroke="black" points="0,-69 194,-69 "/>
<text text-anchor="start" x="8" y="-57.8" font-family="Helvetica,sans-Serif" font-size="8.00">+ KnotModeInput (GameState state, World world)</text>
<text text-anchor="start" x="8" y="-45.8" font-family="Helvetica,sans-Serif" font-size="8.00"># UpdateKeys (GameTime gameTime) override</text>
<text text-anchor="start" x="8" y="-33.8" font-family="Helvetica,sans-Serif" font-size="8.00">+ Update (GameTime gameTime) override</text>
<text text-anchor="start" x="8" y="-21.8" font-family="Helvetica,sans-Serif" font-size="8.00"># UpdateMouse (GameTime gameTime) override</text>
<text text-anchor="start" x="8" y="-9.8" font-family="Helvetica,sans-Serif" font-size="8.00">&#45; ResetMousePosition ()</text>
</g>
<!-- Box_CoreInput -->
<g id="node2" class="node"><title>Box_CoreInput</title>
<polygon fill="#ffffff" stroke="black" points="69.5,-171 69.5,-191 124.5,-191 124.5,-171 69.5,-171"/>
<text text-anchor="middle" x="97" y="-179.8" font-family="Helvetica,sans-Serif" font-size="8.00">Core.Input</text>
</g>
<!-- Box_CoreInput&#45;&gt;Box_KnotModeInput -->
<g id="edge2" class="edge"><title>Box_CoreInput&#45;&gt;Box_KnotModeInput</title>
<path fill="none" stroke="midnightblue" d="M97,-160.843C97,-152.847 97,-143.158 97,-133.081"/>
<polygon fill="none" stroke="midnightblue" points="93.5001,-160.883 97,-170.883 100.5,-160.883 93.5001,-160.883"/>
</g>
</g>
</svg>
