<?xml version="1.0" encoding="UTF-8" standalone="no"?>
<!DOCTYPE svg PUBLIC "-//W3C//DTD SVG 1.1//EN"
 "http://www.w3.org/Graphics/SVG/1.1/DTD/svg11.dtd">
<!-- Generated by graphviz version 2.26.3 (20100126.1600)
 -->
<!-- Title: MenuItem Pages: 1 -->
<svg width="846pt" height="662pt"
 viewBox="0.00 0.00 846.00 662.00" xmlns="http://www.w3.org/2000/svg" xmlns:xlink="http://www.w3.org/1999/xlink">
<g id="graph1" class="graph" transform="scale(1 1) rotate(0) translate(4 658)">
<title>MenuItem</title>
<polygon fill="white" stroke="white" points="-4,5 -4,-658 843,-658 843,5 -4,5"/>
<!-- Box_IMouseEventListener -->
<g id="node1" class="node"><title>Box_IMouseEventListener</title>
<polygon fill="#dafcda" stroke="black" points="162.5,-521 162.5,-653 437.5,-653 437.5,-521 162.5,-521"/>
<text text-anchor="middle" x="300" y="-641.8" font-family="Helvetica,sans-Serif" font-size="8.00">IMouseEventListener</text>
<polyline fill="none" stroke="black" points="162.5,-633 437.5,-633 "/>
<text text-anchor="start" x="170.5" y="-621.8" font-family="Helvetica,sans-Serif" font-size="8.00">Attributes:</text>
<text text-anchor="start" x="170.5" y="-609.8" font-family="Helvetica,sans-Serif" font-size="8.00">+ Index : int</text>
<text text-anchor="start" x="170.5" y="-597.8" font-family="Helvetica,sans-Serif" font-size="8.00">+ IsMouseEventEnabled : bool</text>
<text text-anchor="start" x="170.5" y="-585.8" font-family="Helvetica,sans-Serif" font-size="8.00">Methods:</text>
<polyline fill="none" stroke="black" points="162.5,-577 437.5,-577 "/>
<text text-anchor="start" x="170.5" y="-565.8" font-family="Helvetica,sans-Serif" font-size="8.00">+ OnLeftClick (Vector2 position, ClickState click, GameTime gameTime)</text>
<text text-anchor="start" x="170.5" y="-553.8" font-family="Helvetica,sans-Serif" font-size="8.00">+ OnRightClick (Vector2 position, ClickState click, GameTime gameTime)</text>
<text text-anchor="start" x="170.5" y="-541.8" font-family="Helvetica,sans-Serif" font-size="8.00">+ SetHovered (bool hovered)</text>
<text text-anchor="start" x="170.5" y="-529.8" font-family="Helvetica,sans-Serif" font-size="8.00">+ bounds () : Rectangle</text>
</g>
<!-- Box_ColorPicker -->
<g id="node2" class="node"><title>Box_ColorPicker</title>
<polygon fill="#fcfcda" stroke="black" points="-0.5,-243 -0.5,-483 282.5,-483 282.5,-243 -0.5,-243"/>
<text text-anchor="middle" x="141" y="-471.8" font-family="Helvetica,sans-Serif" font-size="8.00">ColorPicker</text>
<polyline fill="none" stroke="black" points="-0.5,-463 282.5,-463 "/>
<text text-anchor="start" x="7.5" y="-451.8" font-family="Helvetica,sans-Serif" font-size="8.00">Attributes:</text>
<text text-anchor="start" x="7.5" y="-439.8" font-family="Helvetica,sans-Serif" font-size="8.00">&#45; tiles : List&lt;Vector2&gt;</text>
<text text-anchor="start" x="7.5" y="-427.8" font-family="Helvetica,sans-Serif" font-size="8.00">+ SelectedColor : Color</text>
<text text-anchor="start" x="7.5" y="-415.8" font-family="Helvetica,sans-Serif" font-size="8.00">+ IsMouseEventEnabled : bool</text>
<text text-anchor="start" x="7.5" y="-403.8" font-family="Helvetica,sans-Serif" font-size="8.00">&#45; colors : List&lt;Color&gt;</text>
<text text-anchor="start" x="7.5" y="-391.8" font-family="Helvetica,sans-Serif" font-size="8.00"># spriteBatch : SpriteBatch</text>
<text text-anchor="start" x="7.5" y="-379.8" font-family="Helvetica,sans-Serif" font-size="8.00">+ OnSelectColor : Action&lt;Color&gt;</text>
<text text-anchor="start" x="7.5" y="-367.8" font-family="Helvetica,sans-Serif" font-size="8.00">Methods:</text>
<polyline fill="none" stroke="black" points="-0.5,-359 282.5,-359 "/>
<text text-anchor="start" x="7.5" y="-347.8" font-family="Helvetica,sans-Serif" font-size="8.00">&#45; Vector2 tileSize (0.032f, 0.032f) : readonly static</text>
<text text-anchor="start" x="7.5" y="-335.8" font-family="Helvetica,sans-Serif" font-size="8.00">&#45; CreateTiles (IEnumerable&lt;Color&gt; _colors) : IEnumerable&lt;Vector2&gt; static</text>
<text text-anchor="start" x="7.5" y="-323.8" font-family="Helvetica,sans-Serif" font-size="8.00">+ ColorPicker (GameState state, WidgetInfo info, DisplayLayer drawOrder)</text>
<text text-anchor="start" x="7.5" y="-311.8" font-family="Helvetica,sans-Serif" font-size="8.00">+ Draw (GameTime gameTime)</text>
<text text-anchor="start" x="7.5" y="-299.8" font-family="Helvetica,sans-Serif" font-size="8.00">+ OnRightClick (Vector2 position, ClickState click, GameTime gameTime)</text>
<text text-anchor="start" x="7.5" y="-287.8" font-family="Helvetica,sans-Serif" font-size="8.00">+ SetHovered (bool hovered)</text>
<text text-anchor="start" x="7.5" y="-275.8" font-family="Helvetica,sans-Serif" font-size="8.00">&#45; CreateColors (int num) : IEnumerable&lt;Color&gt; static</text>
<text text-anchor="start" x="7.5" y="-263.8" font-family="Helvetica,sans-Serif" font-size="8.00">&#45; SelectColor (Color color)</text>
<text text-anchor="start" x="7.5" y="-251.8" font-family="Helvetica,sans-Serif" font-size="8.00">+ OnLeftClick (Vector2 position, ClickState click, GameTime gameTime)</text>
</g>
<!-- Box_IMouseEventListener&#45;&gt;Box_ColorPicker -->
<g id="edge4" class="edge"><title>Box_IMouseEventListener&#45;&gt;Box_ColorPicker</title>
<path fill="none" stroke="midnightblue" d="M247.129,-512.515C240.427,-503.073 233.439,-493.228 226.389,-483.296"/>
<polygon fill="none" stroke="midnightblue" points="244.298,-514.573 252.94,-520.702 250.006,-510.521 244.298,-514.573"/>
</g>
<!-- Box_MenuItem -->
<g id="node3" class="node"><title>Box_MenuItem</title>
<polygon fill="#fcfcda" stroke="black" points="315.5,-243 315.5,-483 650.5,-483 650.5,-243 315.5,-243"/>
<text text-anchor="middle" x="483" y="-471.8" font-family="Helvetica,sans-Serif" font-size="8.00">MenuItem</text>
<polyline fill="none" stroke="black" points="315.5,-463 650.5,-463 "/>
<text text-anchor="start" x="323.5" y="-451.8" font-family="Helvetica,sans-Serif" font-size="8.00">Attributes:</text>
<text text-anchor="start" x="323.5" y="-439.8" font-family="Helvetica,sans-Serif" font-size="8.00"># spriteBatch : SpriteBatch</text>
<text text-anchor="start" x="323.5" y="-427.8" font-family="Helvetica,sans-Serif" font-size="8.00">+ IsMouseEventEnabled : bool</text>
<text text-anchor="start" x="323.5" y="-415.8" font-family="Helvetica,sans-Serif" font-size="8.00">+ ValidKeys : List&lt;Keys&gt;</text>
<text text-anchor="start" x="323.5" y="-403.8" font-family="Helvetica,sans-Serif" font-size="8.00">+ IsKeyEventEnabled : bool</text>
<text text-anchor="start" x="323.5" y="-391.8" font-family="Helvetica,sans-Serif" font-size="8.00">+ Info : MenuItemInfo</text>
<text text-anchor="start" x="323.5" y="-379.8" font-family="Helvetica,sans-Serif" font-size="8.00">Methods:</text>
<polyline fill="none" stroke="black" points="315.5,-371 650.5,-371 "/>
<text text-anchor="start" x="323.5" y="-359.8" font-family="Helvetica,sans-Serif" font-size="8.00">+ MenuItem (GameState state, DisplayLayer drawOrder, int itemNum, MenuItemInfo info)</text>
<text text-anchor="start" x="323.5" y="-347.8" font-family="Helvetica,sans-Serif" font-size="8.00">+ Collapse () virtual</text>
<text text-anchor="start" x="323.5" y="-335.8" font-family="Helvetica,sans-Serif" font-size="8.00">+ OnKeyEvent (List&lt;Keys&gt; key, KeyEvent keyEvent, GameTime gameTime)</text>
<text text-anchor="start" x="323.5" y="-323.8" font-family="Helvetica,sans-Serif" font-size="8.00">+ OnLeftClick (Vector2 position, ClickState click, GameTime gameTime)</text>
<text text-anchor="start" x="323.5" y="-311.8" font-family="Helvetica,sans-Serif" font-size="8.00">+ OnRightClick (Vector2 position, ClickState click, GameTime gameTime)</text>
<text text-anchor="start" x="323.5" y="-299.8" font-family="Helvetica,sans-Serif" font-size="8.00">+ MinimumSize (SpriteFont font) : Vector2</text>
<text text-anchor="start" x="323.5" y="-287.8" font-family="Helvetica,sans-Serif" font-size="8.00">+ TextPosition (SpriteFont font) : Vector2</text>
<text text-anchor="start" x="323.5" y="-275.8" font-family="Helvetica,sans-Serif" font-size="8.00">+ TextPosition (SpriteFont font, Vector2 scale) : Vector2</text>
<text text-anchor="start" x="323.5" y="-263.8" font-family="Helvetica,sans-Serif" font-size="8.00">+ Draw (GameTime gameTime)</text>
<text text-anchor="start" x="323.5" y="-251.8" font-family="Helvetica,sans-Serif" font-size="8.00">+ SetHovered (bool hovered)</text>
</g>
<!-- Box_IMouseEventListener&#45;&gt;Box_MenuItem -->
<g id="edge8" class="edge"><title>Box_IMouseEventListener&#45;&gt;Box_MenuItem</title>
<path fill="none" stroke="midnightblue" d="M360.618,-512.801C368.403,-503.272 376.526,-493.329 384.722,-483.296"/>
<polygon fill="none" stroke="midnightblue" points="357.78,-510.743 354.163,-520.702 363.201,-515.172 357.78,-510.743"/>
</g>
<!-- Box_DropDownMenu -->
<g id="node4" class="node"><title>Box_DropDownMenu</title>
<polygon fill="#fcfcda" stroke="black" points="119.5,-1 119.5,-205 478.5,-205 478.5,-1 119.5,-1"/>
<text text-anchor="middle" x="299" y="-193.8" font-family="Helvetica,sans-Serif" font-size="8.00">DropDownMenu</text>
<polyline fill="none" stroke="black" points="119.5,-185 478.5,-185 "/>
<text text-anchor="start" x="127.5" y="-173.8" font-family="Helvetica,sans-Serif" font-size="8.00">Attributes:</text>
<text text-anchor="start" x="127.5" y="-161.8" font-family="Helvetica,sans-Serif" font-size="8.00">&#45; selected : MenuButton</text>
<text text-anchor="start" x="127.5" y="-149.8" font-family="Helvetica,sans-Serif" font-size="8.00">&#45; dropdown : VerticalMenu</text>
<text text-anchor="start" x="127.5" y="-137.8" font-family="Helvetica,sans-Serif" font-size="8.00">Methods:</text>
<polyline fill="none" stroke="black" points="119.5,-129 478.5,-129 "/>
<text text-anchor="start" x="127.5" y="-117.8" font-family="Helvetica,sans-Serif" font-size="8.00">&#45; ValuePosition (int dummy) : Vector2</text>
<text text-anchor="start" x="127.5" y="-105.8" font-family="Helvetica,sans-Serif" font-size="8.00">+ DropDownMenu (GameState state, DisplayLayer drawOrder, int itemNum, MenuItemInfo info)</text>
<text text-anchor="start" x="127.5" y="-93.8" font-family="Helvetica,sans-Serif" font-size="8.00">&#45; DropDownBackgroundColor (ItemState itemState) : Color</text>
<text text-anchor="start" x="127.5" y="-81.8" font-family="Helvetica,sans-Serif" font-size="8.00">&#45; DropDownForegroundColor (ItemState itemState) : Color</text>
<text text-anchor="start" x="127.5" y="-69.8" font-family="Helvetica,sans-Serif" font-size="8.00">&#45; ValueSize (int dummy) : Vector2</text>
<text text-anchor="start" x="127.5" y="-57.8" font-family="Helvetica,sans-Serif" font-size="8.00">+ SubComponents (GameTime gameTime) : IEnumerable&lt;IGameStateComponent&gt;</text>
<text text-anchor="start" x="127.5" y="-45.8" font-family="Helvetica,sans-Serif" font-size="8.00">+ Collapse ()</text>
<text text-anchor="start" x="127.5" y="-33.8" font-family="Helvetica,sans-Serif" font-size="8.00">+ Draw (GameTime gameTime)</text>
<text text-anchor="start" x="127.5" y="-21.8" font-family="Helvetica,sans-Serif" font-size="8.00">+ AddEntries (DistinctOptionInfo option)</text>
<text text-anchor="start" x="127.5" y="-9.8" font-family="Helvetica,sans-Serif" font-size="8.00">+ AddEntries (DropDownMenuItem[] entries, DropDownMenuItem defaultEntry)</text>
</g>
<!-- Box_MenuItem&#45;&gt;Box_DropDownMenu -->
<g id="edge12" class="edge"><title>Box_MenuItem&#45;&gt;Box_DropDownMenu</title>
<path fill="none" stroke="midnightblue" d="M392.122,-234.586C385.116,-224.686 378.101,-214.773 371.24,-205.078"/>
<polygon fill="none" stroke="midnightblue" points="389.368,-236.753 398.002,-242.894 395.082,-232.709 389.368,-236.753"/>
</g>
<!-- Box_MenuButton -->
<g id="node5" class="node"><title>Box_MenuButton</title>
<polygon fill="#fcfcda" stroke="black" points="495.5,-67 495.5,-139 838.5,-139 838.5,-67 495.5,-67"/>
<text text-anchor="middle" x="667" y="-127.8" font-family="Helvetica,sans-Serif" font-size="8.00">MenuButton</text>
<polyline fill="none" stroke="black" points="495.5,-119 838.5,-119 "/>
<text text-anchor="start" x="503.5" y="-107.8" font-family="Helvetica,sans-Serif" font-size="8.00">Attributes:</text>
<text text-anchor="start" x="503.5" y="-95.8" font-family="Helvetica,sans-Serif" font-size="8.00">Methods:</text>
<polyline fill="none" stroke="black" points="495.5,-87 838.5,-87 "/>
<text text-anchor="start" x="503.5" y="-75.8" font-family="Helvetica,sans-Serif" font-size="8.00">+ MenuButton (GameState state, DisplayLayer drawOrder, int itemNum, MenuItemInfo info)</text>
</g>
<!-- Box_MenuItem&#45;&gt;Box_MenuButton -->
<g id="edge14" class="edge"><title>Box_MenuItem&#45;&gt;Box_MenuButton</title>
<path fill="none" stroke="midnightblue" d="M573.962,-234.467C598.782,-199.395 623.703,-164.181 641.497,-139.037"/>
<polygon fill="none" stroke="midnightblue" points="570.918,-232.709 567.998,-242.894 576.632,-236.753 570.918,-232.709"/>
</g>
<!-- Box_Widget -->
<g id="node6" class="node"><title>Box_Widget</title>
<polygon fill="#ffffff" stroke="black" points="104.5,-577 104.5,-597 145.5,-597 145.5,-577 104.5,-577"/>
<text text-anchor="middle" x="125" y="-585.8" font-family="Helvetica,sans-Serif" font-size="8.00">Widget</text>
</g>
<!-- Box_Widget&#45;&gt;Box_ColorPicker -->
<g id="edge2" class="edge"><title>Box_Widget&#45;&gt;Box_ColorPicker</title>
<path fill="none" stroke="midnightblue" d="M126.452,-566.665C127.857,-546.998 130.108,-515.484 132.424,-483.064"/>
<polygon fill="none" stroke="midnightblue" points="122.951,-566.569 125.729,-576.793 129.933,-567.068 122.951,-566.569"/>
</g>
<!-- Box_ItemWidget -->
<g id="node7" class="node"><title>Box_ItemWidget</title>
<polygon fill="#ffffff" stroke="black" points="454.5,-577 454.5,-597 511.5,-597 511.5,-577 454.5,-577"/>
<text text-anchor="middle" x="483" y="-585.8" font-family="Helvetica,sans-Serif" font-size="8.00">ItemWidget</text>
</g>
<!-- Box_ItemWidget&#45;&gt;Box_MenuItem -->
<g id="edge6" class="edge"><title>Box_ItemWidget&#45;&gt;Box_MenuItem</title>
<path fill="none" stroke="midnightblue" d="M483,-566.665C483,-546.998 483,-515.484 483,-483.064"/>
<polygon fill="none" stroke="midnightblue" points="479.5,-566.793 483,-576.793 486.5,-566.793 479.5,-566.793"/>
</g>
<!-- Box_IKeyEventListener -->
<g id="node8" class="node"><title>Box_IKeyEventListener</title>
<polygon fill="#ffffff" stroke="black" points="528.5,-577 528.5,-597 609.5,-597 609.5,-577 528.5,-577"/>
<text text-anchor="middle" x="569" y="-585.8" font-family="Helvetica,sans-Serif" font-size="8.00">IKeyEventListener</text>
</g>
<!-- Box_IKeyEventListener&#45;&gt;Box_MenuItem -->
<g id="edge10" class="edge"><title>Box_IKeyEventListener&#45;&gt;Box_MenuItem</title>
<path fill="none" stroke="midnightblue" d="M561.403,-567.213C553.868,-547.587 541.659,-515.787 529.096,-483.064"/>
<polygon fill="none" stroke="midnightblue" points="558.23,-568.712 565.081,-576.793 564.764,-566.203 558.23,-568.712"/>
</g>
</g>
</svg>
