<?xml version="1.0" encoding="UTF-8" standalone="no"?>
<!DOCTYPE svg PUBLIC "-//W3C//DTD SVG 1.1//EN"
 "http://www.w3.org/Graphics/SVG/1.1/DTD/svg11.dtd">
<!-- Generated by graphviz version 2.26.3 (20100126.1600)
 -->
<!-- Title: MenuItem Pages: 1 -->
<svg width="1483pt" height="1908pt"
 viewBox="0.00 0.00 356.00 458.00" xmlns="http://www.w3.org/2000/svg" xmlns:xlink="http://www.w3.org/1999/xlink">
<g id="graph1" class="graph" transform="scale(4.16667 4.16667) rotate(0) translate(4 454)">
<title>MenuItem</title>
<polygon fill="white" stroke="white" points="-4,5 -4,-454 353,-454 353,5 -4,5"/>
<!-- Box_LineRenderer -->
<g id="node1" class="node"><title>Box_LineRenderer</title>
<polygon fill="#fcfcda" stroke="black" points="50.5,-1 50.5,-145 283.5,-145 283.5,-1 50.5,-1"/>
<text text-anchor="middle" x="167" y="-133.8" font-family="Arial" font-size="8.00">LineRenderer</text>
<polyline fill="none" stroke="black" points="50.5,-127 283.5,-127 "/>
<text text-anchor="start" x="58.5" y="-115.8" font-family="Arial" font-size="8.00">&#45; edges : EdgeList</text>
<text text-anchor="start" x="58.5" y="-105.8" font-family="Arial" font-size="8.00">&#45; basicEffect : BasicEffect</text>
<text text-anchor="start" x="58.5" y="-95.8" font-family="Arial" font-size="8.00">+ Info : GameObjectInfo</text>
<text text-anchor="start" x="58.5" y="-85.8" font-family="Arial" font-size="8.00">+ World : World</text>
<polyline fill="none" stroke="black" points="50.5,-79 283.5,-79 "/>
<text text-anchor="start" x="58.5" y="-67.8" font-family="Arial" font-size="8.00">+ LineRenderer (GameScreen screen, GameObjectInfo info)</text>
<text text-anchor="start" x="58.5" y="-57.8" font-family="Arial" font-size="8.00">+ OnEdgesChanged (EdgeList edges)</text>
<text text-anchor="start" x="58.5" y="-47.8" font-family="Arial" font-size="8.00">&#45; DrawRoundedLines ()</text>
<text text-anchor="start" x="58.5" y="-37.8" font-family="Arial" font-size="8.00">+ Intersects (Ray ray) : GameObjectDistance</text>
<text text-anchor="start" x="58.5" y="-27.8" font-family="Arial" font-size="8.00">+ Center () : Vector3</text>
<text text-anchor="start" x="58.5" y="-17.8" font-family="Arial" font-size="8.00">+ Draw (GameTime gameTime)</text>
<text text-anchor="start" x="58.5" y="-7.8" font-family="Arial" font-size="8.00">+ Update (GameTime gameTime)</text>
</g>
<!-- Box_KnotRenderer -->
<g id="node2" class="node"><title>Box_KnotRenderer</title>
<polygon fill="#fcfcda" stroke="black" points="61.5,-183 61.5,-317 272.5,-317 272.5,-183 61.5,-183"/>
<text text-anchor="middle" x="167" y="-305.8" font-family="Arial" font-size="8.00">KnotRenderer</text>
<polyline fill="none" stroke="black" points="61.5,-299 272.5,-299 "/>
<text text-anchor="start" x="69.5" y="-287.8" font-family="Arial" font-size="8.00">+ World : World abstract</text>
<text text-anchor="start" x="69.5" y="-277.8" font-family="Arial" font-size="8.00"># screen : GameScreen</text>
<text text-anchor="start" x="69.5" y="-267.8" font-family="Arial" font-size="8.00">+ Info : GameObjectInfo abstract</text>
<polyline fill="none" stroke="black" points="61.5,-261 272.5,-261 "/>
<text text-anchor="start" x="69.5" y="-249.8" font-family="Arial" font-size="8.00"># nodeMap () : NodeMap</text>
<text text-anchor="start" x="69.5" y="-239.8" font-family="Arial" font-size="8.00">+ Intersects (Ray ray) : GameObjectDistance abstract</text>
<text text-anchor="start" x="69.5" y="-229.8" font-family="Arial" font-size="8.00">+ Center () : Vector3 abstract</text>
<text text-anchor="start" x="69.5" y="-219.8" font-family="Arial" font-size="8.00">+ Draw (GameTime gameTime) abstract</text>
<text text-anchor="start" x="69.5" y="-209.8" font-family="Arial" font-size="8.00">+ KnotRenderer (GameScreen screen)</text>
<text text-anchor="start" x="69.5" y="-199.8" font-family="Arial" font-size="8.00">+ Update (GameTime gameTime) abstract</text>
<text text-anchor="start" x="69.5" y="-189.8" font-family="Arial" font-size="8.00">+ OnEdgesChanged (EdgeList edges) virtual</text>
</g>
<!-- Box_KnotRenderer&#45;&gt;Box_LineRenderer -->
<g id="edge2" class="edge"><title>Box_KnotRenderer&#45;&gt;Box_LineRenderer</title>
<path fill="none" stroke="midnightblue" d="M167,-172.613C167,-163.483 167,-154.193 167,-145.139"/>
<polygon fill="none" stroke="midnightblue" points="163.5,-172.831 167,-182.832 170.5,-172.832 163.5,-172.831"/>
</g>
<!-- Box_IEdgeChangeListener -->
<g id="node3" class="node"><title>Box_IEdgeChangeListener</title>
<polygon fill="#dafcda" stroke="black" points="0,-375 0,-429 152,-429 152,-375 0,-375"/>
<text text-anchor="middle" x="76" y="-417.8" font-family="Arial" font-size="8.00">IEdgeChangeListener</text>
<polyline fill="none" stroke="black" points="0,-411 152,-411 "/>
<text text-anchor="middle" x="76" y="-399.8" font-family="Arial" font-size="8.00"> </text>
<polyline fill="none" stroke="black" points="0,-393 152,-393 "/>
<text text-anchor="start" x="8" y="-381.8" font-family="Arial" font-size="8.00">+ OnEdgesChanged (EdgeList edges)</text>
</g>
<!-- Box_IEdgeChangeListener&#45;&gt;Box_KnotRenderer -->
<g id="edge4" class="edge"><title>Box_IEdgeChangeListener&#45;&gt;Box_KnotRenderer</title>
<path fill="none" stroke="midnightblue" d="M97.5032,-366.083C106.286,-351.413 116.739,-333.953 126.837,-317.086"/>
<polygon fill="none" stroke="midnightblue" points="94.4027,-364.448 92.269,-374.825 100.409,-368.043 94.4027,-364.448"/>
</g>
<!-- Box_IGameObject -->
<g id="node4" class="node"><title>Box_IGameObject</title>
<polygon fill="#dafcda" stroke="black" points="169.5,-355 169.5,-449 348.5,-449 348.5,-355 169.5,-355"/>
<text text-anchor="middle" x="259" y="-437.8" font-family="Arial" font-size="8.00">IGameObject</text>
<polyline fill="none" stroke="black" points="169.5,-431 348.5,-431 "/>
<text text-anchor="start" x="177.5" y="-419.8" font-family="Arial" font-size="8.00">+ Info : GameObjectInfo</text>
<text text-anchor="start" x="177.5" y="-409.8" font-family="Arial" font-size="8.00">+ World : World</text>
<polyline fill="none" stroke="black" points="169.5,-403 348.5,-403 "/>
<text text-anchor="start" x="177.5" y="-391.8" font-family="Arial" font-size="8.00">+ Draw (GameTime gameTime)</text>
<text text-anchor="start" x="177.5" y="-381.8" font-family="Arial" font-size="8.00">+ Update (GameTime gameTime)</text>
<text text-anchor="start" x="177.5" y="-371.8" font-family="Arial" font-size="8.00">+ Intersects (Ray ray) : GameObjectDistance</text>
<text text-anchor="start" x="177.5" y="-361.8" font-family="Arial" font-size="8.00">+ Center () : Vector3</text>
</g>
<!-- Box_IGameObject&#45;&gt;Box_KnotRenderer -->
<g id="edge6" class="edge"><title>Box_IGameObject&#45;&gt;Box_KnotRenderer</title>
<path fill="none" stroke="midnightblue" d="M225.214,-346.18C219.478,-336.702 213.467,-326.772 207.577,-317.041"/>
<polygon fill="none" stroke="midnightblue" points="222.223,-347.997 230.395,-354.739 228.211,-344.372 222.223,-347.997"/>
</g>
</g>
</svg>
