<?xml version="1.0" encoding="UTF-8" standalone="no"?>
<!DOCTYPE svg PUBLIC "-//W3C//DTD SVG 1.1//EN"
 "http://www.w3.org/Graphics/SVG/1.1/DTD/svg11.dtd">
<!-- Generated by graphviz version 2.26.3 (20100126.1600)
 -->
<!-- Title: MenuItem Pages: 1 -->
<svg width="386pt" height="940pt"
 viewBox="0.00 0.00 386.00 940.00" xmlns="http://www.w3.org/2000/svg" xmlns:xlink="http://www.w3.org/1999/xlink">
<g id="graph1" class="graph" transform="scale(1 1) rotate(0) translate(4 936)">
<title>MenuItem</title>
<polygon fill="white" stroke="white" points="-4,5 -4,-936 383,-936 383,5 -4,5"/>
<!-- Box_VideoOptionScreen -->
<g id="node1" class="node"><title>Box_VideoOptionScreen</title>
<polygon fill="#fcfcda" stroke="black" points="106.5,-1 106.5,-157 271.5,-157 271.5,-1 106.5,-1"/>
<text text-anchor="middle" x="189" y="-145.8" font-family="Helvetica,sans-Serif" font-size="8.00">VideoOptionScreen</text>
<polyline fill="none" stroke="black" points="106.5,-137 271.5,-137 "/>
<text text-anchor="start" x="114.5" y="-125.8" font-family="Helvetica,sans-Serif" font-size="8.00">Attributes:</text>
<text text-anchor="start" x="114.5" y="-113.8" font-family="Helvetica,sans-Serif" font-size="8.00">&#45; spriteBatch : SpriteBatch</text>
<text text-anchor="start" x="114.5" y="-101.8" font-family="Helvetica,sans-Serif" font-size="8.00">&#45; menu : VerticalMenu</text>
<text text-anchor="start" x="114.5" y="-89.8" font-family="Helvetica,sans-Serif" font-size="8.00">Methods:</text>
<polyline fill="none" stroke="black" points="106.5,-81 271.5,-81 "/>
<text text-anchor="start" x="114.5" y="-69.8" font-family="Helvetica,sans-Serif" font-size="8.00">+ VideoOptionScreen (Core.Game game)</text>
<text text-anchor="start" x="114.5" y="-57.8" font-family="Helvetica,sans-Serif" font-size="8.00">+ Activate (GameTime gameTime)</text>
<text text-anchor="start" x="114.5" y="-45.8" font-family="Helvetica,sans-Serif" font-size="8.00">+ DrawMenu (GameTime gameTime)</text>
<text text-anchor="start" x="114.5" y="-33.8" font-family="Helvetica,sans-Serif" font-size="8.00">+ Initialize ()</text>
<text text-anchor="start" x="114.5" y="-21.8" font-family="Helvetica,sans-Serif" font-size="8.00">+ UpdateMenu (GameTime gameTime)</text>
<text text-anchor="start" x="114.5" y="-9.8" font-family="Helvetica,sans-Serif" font-size="8.00">+ Collapse (MenuItem item)</text>
</g>
<!-- Box_OptionScreen -->
<g id="node2" class="node"><title>Box_OptionScreen</title>
<polygon fill="#fcfcda" stroke="black" points="110,-195 110,-339 268,-339 268,-195 110,-195"/>
<text text-anchor="middle" x="189" y="-327.8" font-family="Helvetica,sans-Serif" font-size="8.00">OptionScreen</text>
<polyline fill="none" stroke="black" points="110,-319 268,-319 "/>
<text text-anchor="start" x="118" y="-307.8" font-family="Helvetica,sans-Serif" font-size="8.00">Attributes:</text>
<text text-anchor="start" x="118" y="-295.8" font-family="Helvetica,sans-Serif" font-size="8.00">&#45; spriteBatch : SpriteBatch</text>
<text text-anchor="start" x="118" y="-283.8" font-family="Helvetica,sans-Serif" font-size="8.00">&#45; menu : VerticalMenu</text>
<text text-anchor="start" x="118" y="-271.8" font-family="Helvetica,sans-Serif" font-size="8.00">Methods:</text>
<polyline fill="none" stroke="black" points="110,-263 268,-263 "/>
<text text-anchor="start" x="118" y="-251.8" font-family="Helvetica,sans-Serif" font-size="8.00">+ OptionScreen (Core.Game game)</text>
<text text-anchor="start" x="118" y="-239.8" font-family="Helvetica,sans-Serif" font-size="8.00">+ Activate (GameTime gameTime)</text>
<text text-anchor="start" x="118" y="-227.8" font-family="Helvetica,sans-Serif" font-size="8.00">+ DrawMenu (GameTime gameTime)</text>
<text text-anchor="start" x="118" y="-215.8" font-family="Helvetica,sans-Serif" font-size="8.00">+ UpdateMenu (GameTime gameTime)</text>
<text text-anchor="start" x="118" y="-203.8" font-family="Helvetica,sans-Serif" font-size="8.00">+ Initialize ()</text>
</g>
<!-- Box_OptionScreen&#45;&gt;Box_VideoOptionScreen -->
<g id="edge2" class="edge"><title>Box_OptionScreen&#45;&gt;Box_VideoOptionScreen</title>
<path fill="none" stroke="midnightblue" d="M189,-184.644C189,-175.529 189,-166.267 189,-157.206"/>
<polygon fill="none" stroke="midnightblue" points="185.5,-184.852 189,-194.852 192.5,-184.852 185.5,-184.852"/>
</g>
<!-- Box_MenuScreen -->
<g id="node3" class="node"><title>Box_MenuScreen</title>
<polygon fill="#fcfcda" stroke="black" points="93.5,-377 93.5,-617 284.5,-617 284.5,-377 93.5,-377"/>
<text text-anchor="middle" x="189" y="-605.8" font-family="Helvetica,sans-Serif" font-size="8.00">MenuScreen</text>
<polyline fill="none" stroke="black" points="93.5,-597 284.5,-597 "/>
<text text-anchor="start" x="101.5" y="-585.8" font-family="Helvetica,sans-Serif" font-size="8.00">Attributes:</text>
<text text-anchor="start" x="101.5" y="-573.8" font-family="Helvetica,sans-Serif" font-size="8.00">&#45; backColor : Color</text>
<text text-anchor="start" x="101.5" y="-561.8" font-family="Helvetica,sans-Serif" font-size="8.00">&#45; pointer : MousePointer</text>
<text text-anchor="start" x="101.5" y="-549.8" font-family="Helvetica,sans-Serif" font-size="8.00"># LinePoints : List&lt;Vector2&gt;</text>
<text text-anchor="start" x="101.5" y="-537.8" font-family="Helvetica,sans-Serif" font-size="8.00"># LineWidth : int</text>
<text text-anchor="start" x="101.5" y="-525.8" font-family="Helvetica,sans-Serif" font-size="8.00">&#45; spriteBatch : SpriteBatch</text>
<text text-anchor="start" x="101.5" y="-513.8" font-family="Helvetica,sans-Serif" font-size="8.00">Methods:</text>
<polyline fill="none" stroke="black" points="93.5,-505 284.5,-505 "/>
<text text-anchor="start" x="101.5" y="-493.8" font-family="Helvetica,sans-Serif" font-size="8.00">+ MenuScreen (Core.Game game)</text>
<text text-anchor="start" x="101.5" y="-481.8" font-family="Helvetica,sans-Serif" font-size="8.00">+ Activate (GameTime gameTime)</text>
<text text-anchor="start" x="101.5" y="-469.8" font-family="Helvetica,sans-Serif" font-size="8.00">+ Draw (GameTime gameTime)</text>
<text text-anchor="start" x="101.5" y="-457.8" font-family="Helvetica,sans-Serif" font-size="8.00"># BackgroundColor (ItemState itemState) : Color</text>
<text text-anchor="start" x="101.5" y="-445.8" font-family="Helvetica,sans-Serif" font-size="8.00"># ForegroundColor (ItemState itemState) : Color</text>
<text text-anchor="start" x="101.5" y="-433.8" font-family="Helvetica,sans-Serif" font-size="8.00">+ DrawMenu (GameTime gameTime) abstract</text>
<text text-anchor="start" x="101.5" y="-421.8" font-family="Helvetica,sans-Serif" font-size="8.00">+ UpdateMenu (GameTime gameTime) abstract</text>
<text text-anchor="start" x="101.5" y="-409.8" font-family="Helvetica,sans-Serif" font-size="8.00">+ Initialize ()</text>
<text text-anchor="start" x="101.5" y="-397.8" font-family="Helvetica,sans-Serif" font-size="8.00">+ Unload ()</text>
<text text-anchor="start" x="101.5" y="-385.8" font-family="Helvetica,sans-Serif" font-size="8.00">+ Update (GameTime gameTime)</text>
</g>
<!-- Box_MenuScreen&#45;&gt;Box_OptionScreen -->
<g id="edge4" class="edge"><title>Box_MenuScreen&#45;&gt;Box_OptionScreen</title>
<path fill="none" stroke="midnightblue" d="M182.303,-366.736C182.369,-357.363 182.495,-348.129 182.682,-339.286"/>
<polygon fill="none" stroke="midnightblue" points="178.802,-366.932 182.256,-376.948 185.802,-366.964 178.802,-366.932"/>
</g>
<!-- Box_MenuScreen&#45;&gt;Box_OptionScreen -->
<g id="edge10" class="edge"><title>Box_MenuScreen&#45;&gt;Box_OptionScreen</title>
<path fill="none" stroke="midnightblue" d="M195.697,-366.736C195.631,-357.363 195.505,-348.129 195.318,-339.286"/>
<polygon fill="none" stroke="midnightblue" points="192.198,-366.964 195.744,-376.948 199.198,-366.932 192.198,-366.964"/>
</g>
<!-- Box_GameState -->
<g id="node4" class="node"><title>Box_GameState</title>
<polygon fill="#fcfcda" stroke="black" points="0,-655 0,-931 378,-931 378,-655 0,-655"/>
<text text-anchor="middle" x="189" y="-919.8" font-family="Helvetica,sans-Serif" font-size="8.00">GameState</text>
<polyline fill="none" stroke="black" points="0,-911 378,-911 "/>
<text text-anchor="start" x="8" y="-899.8" font-family="Helvetica,sans-Serif" font-size="8.00">Attributes:</text>
<text text-anchor="start" x="8" y="-887.8" font-family="Helvetica,sans-Serif" font-size="8.00">+ content : ContentManager</text>
<text text-anchor="start" x="8" y="-875.8" font-family="Helvetica,sans-Serif" font-size="8.00">+ NextState : GameState</text>
<text text-anchor="start" x="8" y="-863.8" font-family="Helvetica,sans-Serif" font-size="8.00">+ device : GraphicsDevice</text>
<text text-anchor="start" x="8" y="-851.8" font-family="Helvetica,sans-Serif" font-size="8.00">+ RenderEffects : RenderEffectStack</text>
<text text-anchor="start" x="8" y="-839.8" font-family="Helvetica,sans-Serif" font-size="8.00">+ viewport : Viewport</text>
<text text-anchor="start" x="8" y="-827.8" font-family="Helvetica,sans-Serif" font-size="8.00">+ game : Game</text>
<text text-anchor="start" x="8" y="-815.8" font-family="Helvetica,sans-Serif" font-size="8.00">+ graphics : GraphicsDeviceManager</text>
<text text-anchor="start" x="8" y="-803.8" font-family="Helvetica,sans-Serif" font-size="8.00">+ input : Input</text>
<text text-anchor="start" x="8" y="-791.8" font-family="Helvetica,sans-Serif" font-size="8.00">+ PostProcessing : RenderEffect</text>
<text text-anchor="start" x="8" y="-779.8" font-family="Helvetica,sans-Serif" font-size="8.00">Methods:</text>
<polyline fill="none" stroke="black" points="0,-771 378,-771 "/>
<text text-anchor="start" x="8" y="-759.8" font-family="Helvetica,sans-Serif" font-size="8.00">+ Draw (GameTime gameTime) abstract</text>
<text text-anchor="start" x="8" y="-747.8" font-family="Helvetica,sans-Serif" font-size="8.00">+ Initialize () abstract</text>
<text text-anchor="start" x="8" y="-735.8" font-family="Helvetica,sans-Serif" font-size="8.00">+ Unload () abstract</text>
<text text-anchor="start" x="8" y="-723.8" font-family="Helvetica,sans-Serif" font-size="8.00">+ Activate (GameTime gameTime) virtual</text>
<text text-anchor="start" x="8" y="-711.8" font-family="Helvetica,sans-Serif" font-size="8.00">+ GameState (Game game)</text>
<text text-anchor="start" x="8" y="-699.8" font-family="Helvetica,sans-Serif" font-size="8.00">+ Update (GameTime gameTime) abstract</text>
<text text-anchor="start" x="8" y="-687.8" font-family="Helvetica,sans-Serif" font-size="8.00">+ Deactivate (GameTime gameTime) virtual</text>
<text text-anchor="start" x="8" y="-675.8" font-family="Helvetica,sans-Serif" font-size="8.00">+ AddGameComponents (GameTime gameTime, params IGameStateComponent[] components)</text>
<text text-anchor="start" x="8" y="-663.8" font-family="Helvetica,sans-Serif" font-size="8.00">+ RemoveGameComponents (GameTime gameTime, params IGameStateComponent[] components)</text>
</g>
<!-- Box_GameState&#45;&gt;Box_MenuScreen -->
<g id="edge6" class="edge"><title>Box_GameState&#45;&gt;Box_MenuScreen</title>
<path fill="none" stroke="midnightblue" d="M168.75,-644.863C168.751,-635.547 168.859,-626.232 169.074,-617.064"/>
<polygon fill="none" stroke="midnightblue" points="165.25,-644.98 168.791,-654.966 172.25,-644.952 165.25,-644.98"/>
</g>
<!-- Box_GameState&#45;&gt;Box_MenuScreen -->
<g id="edge8" class="edge"><title>Box_GameState&#45;&gt;Box_MenuScreen</title>
<path fill="none" stroke="midnightblue" d="M182.25,-644.863C182.25,-635.547 182.286,-626.232 182.358,-617.064"/>
<polygon fill="none" stroke="midnightblue" points="178.75,-644.971 182.264,-654.966 185.75,-644.961 178.75,-644.971"/>
</g>
<!-- Box_GameState&#45;&gt;Box_MenuScreen -->
<g id="edge12" class="edge"><title>Box_GameState&#45;&gt;Box_MenuScreen</title>
<path fill="none" stroke="midnightblue" d="M195.75,-644.863C195.75,-635.547 195.714,-626.232 195.642,-617.064"/>
<polygon fill="none" stroke="midnightblue" points="192.25,-644.961 195.736,-654.966 199.25,-644.971 192.25,-644.961"/>
</g>
<!-- Box_GameState&#45;&gt;Box_MenuScreen -->
<g id="edge14" class="edge"><title>Box_GameState&#45;&gt;Box_MenuScreen</title>
<path fill="none" stroke="midnightblue" d="M209.25,-644.863C209.249,-635.547 209.141,-626.232 208.926,-617.064"/>
<polygon fill="none" stroke="midnightblue" points="205.75,-644.952 209.209,-654.966 212.75,-644.98 205.75,-644.952"/>
</g>
</g>
</svg>
