<?xml version="1.0" encoding="UTF-8" standalone="no"?>
<!DOCTYPE svg PUBLIC "-//W3C//DTD SVG 1.1//EN"
 "http://www.w3.org/Graphics/SVG/1.1/DTD/svg11.dtd">
<!-- Generated by graphviz version 2.26.3 (20100126.1600)
 -->
<!-- Title: MenuItem Pages: 1 -->
<svg width="812pt" height="540pt"
 viewBox="0.00 0.00 812.00 540.00" xmlns="http://www.w3.org/2000/svg" xmlns:xlink="http://www.w3.org/1999/xlink">
<g id="graph1" class="graph" transform="scale(1 1) rotate(0) translate(4 536)">
<title>MenuItem</title>
<polygon fill="white" stroke="white" points="-4,5 -4,-536 809,-536 809,5 -4,5"/>
<!-- Box_GameModelInfo -->
<g id="node1" class="node"><title>Box_GameModelInfo</title>
<polygon fill="#fcfcda" stroke="black" points="192,-171 192,-267 380,-267 380,-171 192,-171"/>
<text text-anchor="middle" x="286" y="-255.8" font-family="Helvetica,sans-Serif" font-size="8.00">GameModelInfo</text>
<polyline fill="none" stroke="black" points="192,-247 380,-247 "/>
<text text-anchor="start" x="200" y="-235.8" font-family="Helvetica,sans-Serif" font-size="8.00">+ Modelname : string</text>
<text text-anchor="start" x="200" y="-223.8" font-family="Helvetica,sans-Serif" font-size="8.00">+ Rotation : Angles3</text>
<text text-anchor="start" x="200" y="-211.8" font-family="Helvetica,sans-Serif" font-size="8.00">+ Scale : float</text>
<polyline fill="none" stroke="black" points="192,-203 380,-203 "/>
<text text-anchor="start" x="200" y="-191.8" font-family="Helvetica,sans-Serif" font-size="8.00">+ GameModelInfo (string modelname)</text>
<text text-anchor="start" x="200" y="-179.8" font-family="Helvetica,sans-Serif" font-size="8.00">+ Equals (GameObjectInfo other) : bool override</text>
</g>
<!-- Box_NodeModelInfo -->
<g id="node2" class="node"><title>Box_NodeModelInfo</title>
<polygon fill="#fcfcda" stroke="black" points="-0.5,-13 -0.5,-109 292.5,-109 292.5,-13 -0.5,-13"/>
<text text-anchor="middle" x="146" y="-97.8" font-family="Helvetica,sans-Serif" font-size="8.00">NodeModelInfo</text>
<polyline fill="none" stroke="black" points="-0.5,-89 292.5,-89 "/>
<text text-anchor="start" x="7.5" y="-77.8" font-family="Helvetica,sans-Serif" font-size="8.00">+ Edges : EdgeList</text>
<text text-anchor="start" x="7.5" y="-65.8" font-family="Helvetica,sans-Serif" font-size="8.00">+ EdgeA : Edge</text>
<text text-anchor="start" x="7.5" y="-53.8" font-family="Helvetica,sans-Serif" font-size="8.00">+ EdgeB : Edge</text>
<polyline fill="none" stroke="black" points="-0.5,-45 292.5,-45 "/>
<text text-anchor="start" x="7.5" y="-33.8" font-family="Helvetica,sans-Serif" font-size="8.00">+ NodeModelInfo (EdgeList edges, Edge edgeA, Edge edgeB, Vector3 offset)</text>
<text text-anchor="start" x="7.5" y="-21.8" font-family="Helvetica,sans-Serif" font-size="8.00">+ Equals (GameObjectInfo other) : bool override</text>
</g>
<!-- Box_GameModelInfo&#45;&gt;Box_NodeModelInfo -->
<g id="edge4" class="edge"><title>Box_GameModelInfo&#45;&gt;Box_NodeModelInfo</title>
<path fill="none" stroke="midnightblue" d="M236.22,-162.819C220.702,-145.307 203.735,-126.158 188.744,-109.24"/>
<polygon fill="none" stroke="midnightblue" points="233.983,-165.573 243.235,-170.736 239.222,-160.931 233.983,-165.573"/>
</g>
<!-- Box_PipeModelInfo -->
<g id="node3" class="node"><title>Box_PipeModelInfo</title>
<polygon fill="#fcfcda" stroke="black" points="309.5,-1 309.5,-121 544.5,-121 544.5,-1 309.5,-1"/>
<text text-anchor="middle" x="427" y="-109.8" font-family="Helvetica,sans-Serif" font-size="8.00">PipeModelInfo</text>
<polyline fill="none" stroke="black" points="309.5,-101 544.5,-101 "/>
<text text-anchor="start" x="317.5" y="-89.8" font-family="Helvetica,sans-Serif" font-size="8.00">+ Edges : EdgeList</text>
<text text-anchor="start" x="317.5" y="-77.8" font-family="Helvetica,sans-Serif" font-size="8.00">+ Edge : Edge</text>
<text text-anchor="start" x="317.5" y="-65.8" font-family="Helvetica,sans-Serif" font-size="8.00">+ Direction : Vector3</text>
<text text-anchor="start" x="317.5" y="-53.8" font-family="Helvetica,sans-Serif" font-size="8.00">+ PositionFrom : Vector3</text>
<text text-anchor="start" x="317.5" y="-41.8" font-family="Helvetica,sans-Serif" font-size="8.00">+ PositionTo : Vector3</text>
<polyline fill="none" stroke="black" points="309.5,-33 544.5,-33 "/>
<text text-anchor="start" x="317.5" y="-21.8" font-family="Helvetica,sans-Serif" font-size="8.00">+ PipeModelInfo (EdgeList edges, Edge edge, Vector3 offset)</text>
<text text-anchor="start" x="317.5" y="-9.8" font-family="Helvetica,sans-Serif" font-size="8.00">+ Equals (GameObjectInfo other) : bool override</text>
</g>
<!-- Box_GameModelInfo&#45;&gt;Box_PipeModelInfo -->
<g id="edge6" class="edge"><title>Box_GameModelInfo&#45;&gt;Box_PipeModelInfo</title>
<path fill="none" stroke="midnightblue" d="M336.052,-162.914C348.099,-149.413 361.019,-134.936 373.229,-121.254"/>
<polygon fill="none" stroke="midnightblue" points="333.118,-160.945 329.071,-170.736 338.34,-165.606 333.118,-160.945"/>
</g>
<!-- Box_TexturedRectangleInfo -->
<g id="node4" class="node"><title>Box_TexturedRectangleInfo</title>
<polygon fill="#fcfcda" stroke="black" points="397.5,-159 397.5,-279 804.5,-279 804.5,-159 397.5,-159"/>
<text text-anchor="middle" x="601" y="-267.8" font-family="Helvetica,sans-Serif" font-size="8.00">TexturedRectangleInfo</text>
<polyline fill="none" stroke="black" points="397.5,-259 804.5,-259 "/>
<text text-anchor="start" x="405.5" y="-247.8" font-family="Helvetica,sans-Serif" font-size="8.00">+ Texturename : string</text>
<text text-anchor="start" x="405.5" y="-235.8" font-family="Helvetica,sans-Serif" font-size="8.00">+ Up : Vector3</text>
<text text-anchor="start" x="405.5" y="-223.8" font-family="Helvetica,sans-Serif" font-size="8.00">+ Left : Vector3</text>
<text text-anchor="start" x="405.5" y="-211.8" font-family="Helvetica,sans-Serif" font-size="8.00">+ Width : float</text>
<text text-anchor="start" x="405.5" y="-199.8" font-family="Helvetica,sans-Serif" font-size="8.00">+ Height : float</text>
<polyline fill="none" stroke="black" points="397.5,-191 804.5,-191 "/>
<text text-anchor="start" x="405.5" y="-179.8" font-family="Helvetica,sans-Serif" font-size="8.00">+ TexturedRectangleInfo (string texturename, Vector3 origin, Vector3 left, float width, Vector3 up, float height)</text>
<text text-anchor="start" x="405.5" y="-167.8" font-family="Helvetica,sans-Serif" font-size="8.00">+ Equals (GameObjectInfo other) : bool override</text>
</g>
<!-- Box_GameObjectInfo -->
<g id="node5" class="node"><title>Box_GameObjectInfo</title>
<polygon fill="#fcfcda" stroke="black" points="353.5,-317 353.5,-473 532.5,-473 532.5,-317 353.5,-317"/>
<text text-anchor="middle" x="443" y="-461.8" font-family="Helvetica,sans-Serif" font-size="8.00">GameObjectInfo</text>
<polyline fill="none" stroke="black" points="353.5,-453 532.5,-453 "/>
<text text-anchor="start" x="361.5" y="-441.8" font-family="Helvetica,sans-Serif" font-size="8.00">+ Position : Vector3</text>
<text text-anchor="start" x="361.5" y="-429.8" font-family="Helvetica,sans-Serif" font-size="8.00">+ IsVisible : bool</text>
<text text-anchor="start" x="361.5" y="-417.8" font-family="Helvetica,sans-Serif" font-size="8.00">+ IsSelectable : bool</text>
<text text-anchor="start" x="361.5" y="-405.8" font-family="Helvetica,sans-Serif" font-size="8.00">+ IsMovable : bool</text>
<text text-anchor="start" x="361.5" y="-393.8" font-family="Helvetica,sans-Serif" font-size="8.00">+ operator : bool static</text>
<text text-anchor="start" x="361.5" y="-381.8" font-family="Helvetica,sans-Serif" font-size="8.00">+ operator ! : bool static</text>
<polyline fill="none" stroke="black" points="353.5,-373 532.5,-373 "/>
<text text-anchor="start" x="361.5" y="-361.8" font-family="Helvetica,sans-Serif" font-size="8.00">+ GameObjectInfo ()</text>
<text text-anchor="start" x="361.5" y="-349.8" font-family="Helvetica,sans-Serif" font-size="8.00">+ Equals (GameObjectInfo other) : bool virtual</text>
<text text-anchor="start" x="361.5" y="-337.8" font-family="Helvetica,sans-Serif" font-size="8.00">+ Equals (Object obj) : bool override</text>
<text text-anchor="start" x="361.5" y="-325.8" font-family="Helvetica,sans-Serif" font-size="8.00">+ GetHashCode () : int override</text>
</g>
<!-- Box_GameObjectInfo&#45;&gt;Box_GameModelInfo -->
<g id="edge2" class="edge"><title>Box_GameObjectInfo&#45;&gt;Box_GameModelInfo</title>
<path fill="none" stroke="midnightblue" d="M366.492,-309.233C353.592,-294.772 340.621,-280.231 328.972,-267.173"/>
<polygon fill="none" stroke="midnightblue" points="363.955,-311.646 373.223,-316.779 369.178,-306.987 363.955,-311.646"/>
</g>
<!-- Box_GameObjectInfo&#45;&gt;Box_TexturedRectangleInfo -->
<g id="edge8" class="edge"><title>Box_GameObjectInfo&#45;&gt;Box_TexturedRectangleInfo</title>
<path fill="none" stroke="midnightblue" d="M519.906,-309.332C529.107,-299.084 538.344,-288.794 547.121,-279.017"/>
<polygon fill="none" stroke="midnightblue" points="517.297,-306.999 513.221,-316.779 522.506,-311.676 517.297,-306.999"/>
</g>
<!-- Box_IEquatable -->
<g id="node6" class="node"><title>Box_IEquatable</title>
<polygon fill="#ffffff" stroke="black" points="382,-511 382,-531 504,-531 504,-511 382,-511"/>
<text text-anchor="middle" x="443" y="-519.8" font-family="Helvetica,sans-Serif" font-size="8.00">IEquatable&lt;GameObjectInfo&gt;</text>
</g>
<!-- Box_IEquatable&#45;&gt;Box_GameObjectInfo -->
<g id="edge10" class="edge"><title>Box_IEquatable&#45;&gt;Box_GameObjectInfo</title>
<path fill="none" stroke="midnightblue" d="M443,-500.521C443,-492.692 443,-483.219 443,-473.201"/>
<polygon fill="none" stroke="midnightblue" points="439.5,-500.689 443,-510.689 446.5,-500.689 439.5,-500.689"/>
</g>
</g>
</svg>
