<?xml version="1.0" encoding="UTF-8" standalone="no"?>
<!DOCTYPE svg PUBLIC "-//W3C//DTD SVG 1.1//EN"
 "http://www.w3.org/Graphics/SVG/1.1/DTD/svg11.dtd">
<!-- Generated by graphviz version 2.26.3 (20100126.1600)
 -->
<!-- Title: MenuItem Pages: 1 -->
<svg width="1782pt" height="1412pt"
 viewBox="0.00 0.00 1782.22 1412.00" xmlns="http://www.w3.org/2000/svg" xmlns:xlink="http://www.w3.org/1999/xlink">
<g id="graph1" class="graph" transform="scale(1 1) rotate(0) translate(4 1408)">
<title>MenuItem</title>
<polygon fill="white" stroke="white" points="-4,5 -4,-1408 1779.22,-1408 1779.22,5 -4,5"/>
<!-- Box_Widget -->
<g id="node1" class="node"><title>Box_Widget</title>
<polygon fill="#fcfcda" stroke="black" points="725.217,-969 725.217,-1077 991.217,-1077 991.217,-969 725.217,-969"/>
<text text-anchor="middle" x="858.217" y="-1065.8" font-family="Helvetica,sans-Serif" font-size="8.00">Widget</text>
<polyline fill="none" stroke="black" points="725.217,-1057 991.217,-1057 "/>
<text text-anchor="start" x="733.217" y="-1045.8" font-family="Helvetica,sans-Serif" font-size="8.00">Attributes:</text>
<text text-anchor="start" x="733.217" y="-1033.8" font-family="Helvetica,sans-Serif" font-size="8.00">+ Info : WidgetInfo</text>
<text text-anchor="start" x="733.217" y="-1021.8" font-family="Helvetica,sans-Serif" font-size="8.00">+ IsVisible : bool virtual</text>
<text text-anchor="start" x="733.217" y="-1009.8" font-family="Helvetica,sans-Serif" font-size="8.00">Methods:</text>
<polyline fill="none" stroke="black" points="725.217,-1001 991.217,-1001 "/>
<text text-anchor="start" x="733.217" y="-989.8" font-family="Helvetica,sans-Serif" font-size="8.00">+ bounds () : Rectangle</text>
<text text-anchor="start" x="733.217" y="-977.8" font-family="Helvetica,sans-Serif" font-size="8.00">+ Widget (GameState state, WidgetInfo info, DisplayLayer drawOrder)</text>
</g>
<!-- Box_ColorPicker -->
<g id="node4" class="node"><title>Box_ColorPicker</title>
<polygon fill="#fcfcda" stroke="black" points="393.717,-661 393.717,-901 676.717,-901 676.717,-661 393.717,-661"/>
<text text-anchor="middle" x="535.217" y="-889.8" font-family="Helvetica,sans-Serif" font-size="8.00">ColorPicker</text>
<polyline fill="none" stroke="black" points="393.717,-881 676.717,-881 "/>
<text text-anchor="start" x="401.717" y="-869.8" font-family="Helvetica,sans-Serif" font-size="8.00">Attributes:</text>
<text text-anchor="start" x="401.717" y="-857.8" font-family="Helvetica,sans-Serif" font-size="8.00">&#45; tiles : List&lt;Vector2&gt;</text>
<text text-anchor="start" x="401.717" y="-845.8" font-family="Helvetica,sans-Serif" font-size="8.00">+ SelectedColor : Color</text>
<text text-anchor="start" x="401.717" y="-833.8" font-family="Helvetica,sans-Serif" font-size="8.00">+ IsMouseEventEnabled : bool</text>
<text text-anchor="start" x="401.717" y="-821.8" font-family="Helvetica,sans-Serif" font-size="8.00">&#45; colors : List&lt;Color&gt;</text>
<text text-anchor="start" x="401.717" y="-809.8" font-family="Helvetica,sans-Serif" font-size="8.00"># spriteBatch : SpriteBatch</text>
<text text-anchor="start" x="401.717" y="-797.8" font-family="Helvetica,sans-Serif" font-size="8.00">+ OnSelectColor : Action&lt;Color&gt;</text>
<text text-anchor="start" x="401.717" y="-785.8" font-family="Helvetica,sans-Serif" font-size="8.00">Methods:</text>
<polyline fill="none" stroke="black" points="393.717,-777 676.717,-777 "/>
<text text-anchor="start" x="401.717" y="-765.8" font-family="Helvetica,sans-Serif" font-size="8.00">&#45; Vector2 tileSize (0.032f, 0.032f) : readonly static</text>
<text text-anchor="start" x="401.717" y="-753.8" font-family="Helvetica,sans-Serif" font-size="8.00">&#45; CreateTiles (IEnumerable&lt;Color&gt; _colors) : IEnumerable&lt;Vector2&gt; static</text>
<text text-anchor="start" x="401.717" y="-741.8" font-family="Helvetica,sans-Serif" font-size="8.00">+ ColorPicker (GameState state, WidgetInfo info, DisplayLayer drawOrder)</text>
<text text-anchor="start" x="401.717" y="-729.8" font-family="Helvetica,sans-Serif" font-size="8.00">+ Draw (GameTime gameTime)</text>
<text text-anchor="start" x="401.717" y="-717.8" font-family="Helvetica,sans-Serif" font-size="8.00">+ OnRightClick (Vector2 position, ClickState click, GameTime gameTime)</text>
<text text-anchor="start" x="401.717" y="-705.8" font-family="Helvetica,sans-Serif" font-size="8.00">+ SetHovered (bool hovered)</text>
<text text-anchor="start" x="401.717" y="-693.8" font-family="Helvetica,sans-Serif" font-size="8.00">&#45; CreateColors (int num) : IEnumerable&lt;Color&gt; static</text>
<text text-anchor="start" x="401.717" y="-681.8" font-family="Helvetica,sans-Serif" font-size="8.00">&#45; SelectColor (Color color)</text>
<text text-anchor="start" x="401.717" y="-669.8" font-family="Helvetica,sans-Serif" font-size="8.00">+ OnLeftClick (Vector2 position, ClickState click, GameTime gameTime)</text>
</g>
<!-- Box_Widget&#45;&gt;Box_ColorPicker -->
<g id="edge10" class="edge"><title>Box_Widget&#45;&gt;Box_ColorPicker</title>
<path fill="none" stroke="midnightblue" d="M734.211,-963.724C717.241,-953.919 700.439,-943.251 685.217,-932 672.439,-922.556 659.721,-912.024 647.405,-901.037"/>
<polygon fill="none" stroke="midnightblue" points="732.67,-966.874 743.093,-968.771 736.128,-960.788 732.67,-966.874"/>
</g>
<!-- Box_Dialog -->
<g id="node5" class="node"><title>Box_Dialog</title>
<polygon fill="#fcfcda" stroke="black" points="1040.22,-685 1040.22,-877 1358.22,-877 1358.22,-685 1040.22,-685"/>
<text text-anchor="middle" x="1199.22" y="-865.8" font-family="Helvetica,sans-Serif" font-size="8.00">Dialog</text>
<polyline fill="none" stroke="black" points="1040.22,-857 1358.22,-857 "/>
<text text-anchor="start" x="1048.22" y="-845.8" font-family="Helvetica,sans-Serif" font-size="8.00">Attributes:</text>
<text text-anchor="start" x="1048.22" y="-833.8" font-family="Helvetica,sans-Serif" font-size="8.00"># spriteBatch : SpriteBatch</text>
<text text-anchor="start" x="1048.22" y="-821.8" font-family="Helvetica,sans-Serif" font-size="8.00">+ Done : Action</text>
<text text-anchor="start" x="1048.22" y="-809.8" font-family="Helvetica,sans-Serif" font-size="8.00">+ buttons : Menu</text>
<text text-anchor="start" x="1048.22" y="-797.8" font-family="Helvetica,sans-Serif" font-size="8.00">Methods:</text>
<polyline fill="none" stroke="black" points="1040.22,-789 1358.22,-789 "/>
<text text-anchor="start" x="1048.22" y="-777.8" font-family="Helvetica,sans-Serif" font-size="8.00">&#45; ButtonBackgroundColor (ItemState itemState) : Color</text>
<text text-anchor="start" x="1048.22" y="-765.8" font-family="Helvetica,sans-Serif" font-size="8.00"># RelativeButtonSize (int n) : Vector2</text>
<text text-anchor="start" x="1048.22" y="-753.8" font-family="Helvetica,sans-Serif" font-size="8.00">+ Dialog (GameState state, WidgetInfo info, DisplayLayer drawOrder)</text>
<text text-anchor="start" x="1048.22" y="-741.8" font-family="Helvetica,sans-Serif" font-size="8.00">&#45; ButtonForegroundColor (ItemState itemState) : Color</text>
<text text-anchor="start" x="1048.22" y="-729.8" font-family="Helvetica,sans-Serif" font-size="8.00"># RelativeButtonPosition (int n) : Vector2</text>
<text text-anchor="start" x="1048.22" y="-717.8" font-family="Helvetica,sans-Serif" font-size="8.00"># DrawDialog (GameTime gameTime) abstract</text>
<text text-anchor="start" x="1048.22" y="-705.8" font-family="Helvetica,sans-Serif" font-size="8.00">+ SubComponents (GameTime gameTime) : IEnumerable&lt;IGameStateComponent&gt;</text>
<text text-anchor="start" x="1048.22" y="-693.8" font-family="Helvetica,sans-Serif" font-size="8.00">+ Draw (GameTime gameTime)</text>
</g>
<!-- Box_Widget&#45;&gt;Box_Dialog -->
<g id="edge14" class="edge"><title>Box_Widget&#45;&gt;Box_Dialog</title>
<path fill="none" stroke="midnightblue" d="M980.087,-963.811C997.666,-953.874 1015.21,-943.146 1031.22,-932 1054.71,-915.642 1078.47,-896.335 1100.43,-877.091"/>
<polygon fill="none" stroke="midnightblue" points="977.929,-961.007 970.899,-968.933 981.338,-967.121 977.929,-961.007"/>
</g>
<!-- Box_Menu -->
<g id="node9" class="node"><title>Box_Menu</title>
<polygon fill="#fcfcda" stroke="black" points="1375.72,-631 1375.72,-931 1774.72,-931 1774.72,-631 1375.72,-631"/>
<text text-anchor="middle" x="1575.22" y="-919.8" font-family="Helvetica,sans-Serif" font-size="8.00">Menu</text>
<polyline fill="none" stroke="black" points="1375.72,-911 1774.72,-911 "/>
<text text-anchor="start" x="1383.72" y="-899.8" font-family="Helvetica,sans-Serif" font-size="8.00">Attributes:</text>
<text text-anchor="start" x="1383.72" y="-887.8" font-family="Helvetica,sans-Serif" font-size="8.00">&#45; isVisible : bool</text>
<text text-anchor="start" x="1383.72" y="-875.8" font-family="Helvetica,sans-Serif" font-size="8.00"># Items : List&lt;MenuItem&gt;</text>
<text text-anchor="start" x="1383.72" y="-863.8" font-family="Helvetica,sans-Serif" font-size="8.00">+ Color&gt; ItemBackgroundColor : Func&lt;ItemState,</text>
<text text-anchor="start" x="1383.72" y="-851.8" font-family="Helvetica,sans-Serif" font-size="8.00">+ Color&gt; ItemForegroundColor : Func&lt;ItemState,</text>
<text text-anchor="start" x="1383.72" y="-839.8" font-family="Helvetica,sans-Serif" font-size="8.00">+ Vector2&gt; RelativeItemPosition : Func&lt;int,</text>
<text text-anchor="start" x="1383.72" y="-827.8" font-family="Helvetica,sans-Serif" font-size="8.00">+ ItemAlignX : HAlign?</text>
<text text-anchor="start" x="1383.72" y="-815.8" font-family="Helvetica,sans-Serif" font-size="8.00">+ ItemAlignY : VAlign?</text>
<text text-anchor="start" x="1383.72" y="-803.8" font-family="Helvetica,sans-Serif" font-size="8.00">+ Count : int</text>
<text text-anchor="start" x="1383.72" y="-791.8" font-family="Helvetica,sans-Serif" font-size="8.00">+ IsVisible : bool</text>
<text text-anchor="start" x="1383.72" y="-779.8" font-family="Helvetica,sans-Serif" font-size="8.00">&#45; ItemDisplayLayer : DisplayLayer</text>
<text text-anchor="start" x="1383.72" y="-767.8" font-family="Helvetica,sans-Serif" font-size="8.00">+ Vector2&gt; RelativeItemSize : Func&lt;int,</text>
<text text-anchor="start" x="1383.72" y="-755.8" font-family="Helvetica,sans-Serif" font-size="8.00">Methods:</text>
<polyline fill="none" stroke="black" points="1375.72,-747 1774.72,-747 "/>
<text text-anchor="start" x="1383.72" y="-735.8" font-family="Helvetica,sans-Serif" font-size="8.00">&#45; assignMenuItemInfo (ref MenuItemInfo info, int num, MenuItem item)</text>
<text text-anchor="start" x="1383.72" y="-723.8" font-family="Helvetica,sans-Serif" font-size="8.00">+ Menu (GameState state, WidgetInfo info, DisplayLayer drawOrder)</text>
<text text-anchor="start" x="1383.72" y="-711.8" font-family="Helvetica,sans-Serif" font-size="8.00">+ this (int i) : MenuItem</text>
<text text-anchor="start" x="1383.72" y="-699.8" font-family="Helvetica,sans-Serif" font-size="8.00">+ SubComponents (GameTime gameTime) : IEnumerable&lt;IGameStateComponent&gt;</text>
<text text-anchor="start" x="1383.72" y="-687.8" font-family="Helvetica,sans-Serif" font-size="8.00">+ CollapseMenus (MenuItem menu)</text>
<text text-anchor="start" x="1383.72" y="-675.8" font-family="Helvetica,sans-Serif" font-size="8.00">+ AddButton (MenuItemInfo info) : MenuButton virtual</text>
<text text-anchor="start" x="1383.72" y="-663.8" font-family="Helvetica,sans-Serif" font-size="8.00">+ AddDropDown (MenuItemInfo info, DistinctOptionInfo option) virtual</text>
<text text-anchor="start" x="1383.72" y="-651.8" font-family="Helvetica,sans-Serif" font-size="8.00">+ AddDropDown (MenuItemInfo info, DropDownMenuItem[] items, DropDownMenuItem defaultItem) virtual</text>
<text text-anchor="start" x="1383.72" y="-639.8" font-family="Helvetica,sans-Serif" font-size="8.00">+ Clear ()</text>
</g>
<!-- Box_Widget&#45;&gt;Box_Menu -->
<g id="edge22" class="edge"><title>Box_Widget&#45;&gt;Box_Menu</title>
<path fill="none" stroke="midnightblue" d="M1001.26,-1014.64C1106.06,-1004.48 1249.89,-981.94 1367.22,-932 1369.99,-930.82 1372.76,-929.598 1375.52,-928.336"/>
<polygon fill="none" stroke="midnightblue" points="1000.87,-1011.17 991.24,-1015.59 1001.52,-1018.14 1000.87,-1011.17"/>
</g>
<!-- Box_TextInput -->
<g id="node11" class="node"><title>Box_TextInput</title>
<polygon fill="#fcfcda" stroke="black" points="52.2166,-697 52.2166,-865 338.217,-865 338.217,-697 52.2166,-697"/>
<text text-anchor="middle" x="195.217" y="-853.8" font-family="Helvetica,sans-Serif" font-size="8.00">TextInput</text>
<polyline fill="none" stroke="black" points="52.2166,-845 338.217,-845 "/>
<text text-anchor="start" x="60.2166" y="-833.8" font-family="Helvetica,sans-Serif" font-size="8.00">Attributes:</text>
<text text-anchor="start" x="60.2166" y="-821.8" font-family="Helvetica,sans-Serif" font-size="8.00">&#45; font : SpriteFont</text>
<text text-anchor="start" x="60.2166" y="-809.8" font-family="Helvetica,sans-Serif" font-size="8.00"># spriteBatch : SpriteBatch</text>
<text text-anchor="start" x="60.2166" y="-797.8" font-family="Helvetica,sans-Serif" font-size="8.00">+ IsKeyEventEnabled : bool</text>
<text text-anchor="start" x="60.2166" y="-785.8" font-family="Helvetica,sans-Serif" font-size="8.00">+ ValidKeys : List&lt;Keys&gt;</text>
<text text-anchor="start" x="60.2166" y="-773.8" font-family="Helvetica,sans-Serif" font-size="8.00">+ InputText : string</text>
<text text-anchor="start" x="60.2166" y="-761.8" font-family="Helvetica,sans-Serif" font-size="8.00">Methods:</text>
<polyline fill="none" stroke="black" points="52.2166,-753 338.217,-753 "/>
<text text-anchor="start" x="60.2166" y="-741.8" font-family="Helvetica,sans-Serif" font-size="8.00">+ TextInput (GameState state, WidgetInfo info, DisplayLayer drawOrder)</text>
<text text-anchor="start" x="60.2166" y="-729.8" font-family="Helvetica,sans-Serif" font-size="8.00">+ Draw (GameTime gameTime)</text>
<text text-anchor="start" x="60.2166" y="-717.8" font-family="Helvetica,sans-Serif" font-size="8.00">+ OnKeyEvent (List&lt;Keys&gt; key, KeyEvent keyEvent, GameTime gameTime)</text>
<text text-anchor="start" x="60.2166" y="-705.8" font-family="Helvetica,sans-Serif" font-size="8.00">+ Update (GameTime gameTime)</text>
</g>
<!-- Box_Widget&#45;&gt;Box_TextInput -->
<g id="edge26" class="edge"><title>Box_Widget&#45;&gt;Box_TextInput</title>
<path fill="none" stroke="midnightblue" d="M715.077,-1003.14C598.031,-985.496 442.805,-958.467 385.217,-932 348.846,-915.285 313.304,-890.181 282.985,-865.216"/>
<polygon fill="none" stroke="midnightblue" points="714.802,-1006.64 725.211,-1004.66 715.84,-999.717 714.802,-1006.64"/>
</g>
<!-- Box_ItemWidget -->
<g id="node12" class="node"><title>Box_ItemWidget</title>
<polygon fill="#fcfcda" stroke="black" points="693.717,-733 693.717,-829 1022.72,-829 1022.72,-733 693.717,-733"/>
<text text-anchor="middle" x="858.217" y="-817.8" font-family="Helvetica,sans-Serif" font-size="8.00">ItemWidget</text>
<polyline fill="none" stroke="black" points="693.717,-809 1022.72,-809 "/>
<text text-anchor="start" x="701.717" y="-797.8" font-family="Helvetica,sans-Serif" font-size="8.00">Attributes:</text>
<text text-anchor="start" x="701.717" y="-785.8" font-family="Helvetica,sans-Serif" font-size="8.00">+ ItemState : ItemState</text>
<text text-anchor="start" x="701.717" y="-773.8" font-family="Helvetica,sans-Serif" font-size="8.00"># ItemNum : int</text>
<text text-anchor="start" x="701.717" y="-761.8" font-family="Helvetica,sans-Serif" font-size="8.00">Methods:</text>
<polyline fill="none" stroke="black" points="693.717,-753 1022.72,-753 "/>
<text text-anchor="start" x="701.717" y="-741.8" font-family="Helvetica,sans-Serif" font-size="8.00">+ ItemWidget (GameState state, WidgetInfo info, DisplayLayer drawOrder, int itemNum)</text>
</g>
<!-- Box_Widget&#45;&gt;Box_ItemWidget -->
<g id="edge30" class="edge"><title>Box_Widget&#45;&gt;Box_ItemWidget</title>
<path fill="none" stroke="midnightblue" d="M858.217,-958.893C858.217,-918.167 858.217,-866.307 858.217,-829.104"/>
<polygon fill="none" stroke="midnightblue" points="854.717,-958.992 858.217,-968.992 861.717,-958.992 854.717,-958.992"/>
</g>
<!-- Box_DrawableGameStateComponent -->
<g id="node2" class="node"><title>Box_DrawableGameStateComponent</title>
<polygon fill="#fcfcda" stroke="black" points="687.717,-1115 687.717,-1223 1028.72,-1223 1028.72,-1115 687.717,-1115"/>
<text text-anchor="middle" x="858.217" y="-1211.8" font-family="Helvetica,sans-Serif" font-size="8.00">DrawableGameStateComponent</text>
<polyline fill="none" stroke="black" points="687.717,-1203 1028.72,-1203 "/>
<text text-anchor="start" x="695.717" y="-1191.8" font-family="Helvetica,sans-Serif" font-size="8.00">Attributes:</text>
<text text-anchor="start" x="695.717" y="-1179.8" font-family="Helvetica,sans-Serif" font-size="8.00">+ state : GameState</text>
<text text-anchor="start" x="695.717" y="-1167.8" font-family="Helvetica,sans-Serif" font-size="8.00">+ Index : int</text>
<text text-anchor="start" x="695.717" y="-1155.8" font-family="Helvetica,sans-Serif" font-size="8.00">Methods:</text>
<polyline fill="none" stroke="black" points="687.717,-1147 1028.72,-1147 "/>
<text text-anchor="start" x="695.717" y="-1135.8" font-family="Helvetica,sans-Serif" font-size="8.00">+ DrawableGameStateComponent (GameState state, DisplayLayer drawOrder)</text>
<text text-anchor="start" x="695.717" y="-1123.8" font-family="Helvetica,sans-Serif" font-size="8.00">+ SubComponents (GameTime gameTime) : IEnumerable&lt;IGameStateComponent&gt; virtual</text>
</g>
<!-- Box_DrawableGameStateComponent&#45;&gt;Box_Widget -->
<g id="edge2" class="edge"><title>Box_DrawableGameStateComponent&#45;&gt;Box_Widget</title>
<path fill="none" stroke="midnightblue" d="M858.217,-1104.52C858.217,-1095.47 858.217,-1086.25 858.217,-1077.41"/>
<polygon fill="none" stroke="midnightblue" points="854.717,-1104.63 858.217,-1114.63 861.717,-1104.64 854.717,-1104.63"/>
</g>
<!-- Box_IGameStateComponent -->
<g id="node3" class="node"><title>Box_IGameStateComponent</title>
<polygon fill="#dafcda" stroke="black" points="578.217,-1261 578.217,-1345 896.217,-1345 896.217,-1261 578.217,-1261"/>
<text text-anchor="middle" x="737.217" y="-1333.8" font-family="Helvetica,sans-Serif" font-size="8.00">IGameStateComponent</text>
<polyline fill="none" stroke="black" points="578.217,-1325 896.217,-1325 "/>
<text text-anchor="start" x="586.217" y="-1313.8" font-family="Helvetica,sans-Serif" font-size="8.00">Attributes:</text>
<text text-anchor="start" x="586.217" y="-1301.8" font-family="Helvetica,sans-Serif" font-size="8.00">+ Index : int</text>
<text text-anchor="start" x="586.217" y="-1289.8" font-family="Helvetica,sans-Serif" font-size="8.00">Methods:</text>
<polyline fill="none" stroke="black" points="578.217,-1281 896.217,-1281 "/>
<text text-anchor="start" x="586.217" y="-1269.8" font-family="Helvetica,sans-Serif" font-size="8.00">+ SubComponents (GameTime gameTime) : IEnumerable&lt;IGameStateComponent&gt;</text>
</g>
<!-- Box_IGameStateComponent&#45;&gt;Box_DrawableGameStateComponent -->
<g id="edge6" class="edge"><title>Box_IGameStateComponent&#45;&gt;Box_DrawableGameStateComponent</title>
<path fill="none" stroke="midnightblue" d="M781.883,-1253.53C790.806,-1243.65 800.224,-1233.22 809.282,-1223.19"/>
<polygon fill="none" stroke="midnightblue" points="779.274,-1251.2 775.17,-1260.97 784.469,-1255.89 779.274,-1251.2"/>
</g>
<!-- Box_ConfirmDialog -->
<g id="node6" class="node"><title>Box_ConfirmDialog</title>
<polygon fill="#fcfcda" stroke="black" points="1053.22,-407 1053.22,-539 1345.22,-539 1345.22,-407 1053.22,-407"/>
<text text-anchor="middle" x="1199.22" y="-527.8" font-family="Helvetica,sans-Serif" font-size="8.00">ConfirmDialog</text>
<polyline fill="none" stroke="black" points="1053.22,-519 1345.22,-519 "/>
<text text-anchor="start" x="1061.22" y="-507.8" font-family="Helvetica,sans-Serif" font-size="8.00">Attributes:</text>
<text text-anchor="start" x="1061.22" y="-495.8" font-family="Helvetica,sans-Serif" font-size="8.00"># Text : string[]</text>
<text text-anchor="start" x="1061.22" y="-483.8" font-family="Helvetica,sans-Serif" font-size="8.00">Methods:</text>
<polyline fill="none" stroke="black" points="1053.22,-475 1345.22,-475 "/>
<text text-anchor="start" x="1061.22" y="-463.8" font-family="Helvetica,sans-Serif" font-size="8.00"># OnYesClick () : Action</text>
<text text-anchor="start" x="1061.22" y="-451.8" font-family="Helvetica,sans-Serif" font-size="8.00"># OnCancelClick () : Action</text>
<text text-anchor="start" x="1061.22" y="-439.8" font-family="Helvetica,sans-Serif" font-size="8.00"># OnNoClick () : Action</text>
<text text-anchor="start" x="1061.22" y="-427.8" font-family="Helvetica,sans-Serif" font-size="8.00"># DrawDialog (GameTime gameTime)</text>
<text text-anchor="start" x="1061.22" y="-415.8" font-family="Helvetica,sans-Serif" font-size="8.00">+ ConfirmDialog (GameState state, WidgetInfo info, DisplayLayer drawOrder)</text>
</g>
<!-- Box_Dialog&#45;&gt;Box_ConfirmDialog -->
<g id="edge16" class="edge"><title>Box_Dialog&#45;&gt;Box_ConfirmDialog</title>
<path fill="none" stroke="midnightblue" d="M1199.22,-674.717C1199.22,-629.727 1199.22,-578.708 1199.22,-539.236"/>
<polygon fill="none" stroke="midnightblue" points="1195.72,-674.814 1199.22,-684.814 1202.72,-674.814 1195.72,-674.814"/>
</g>
<!-- Box_TextInputDialog -->
<g id="node7" class="node"><title>Box_TextInputDialog</title>
<polygon fill="#fcfcda" stroke="black" points="1040.22,-153 1040.22,-273 1358.22,-273 1358.22,-153 1040.22,-153"/>
<text text-anchor="middle" x="1199.22" y="-261.8" font-family="Helvetica,sans-Serif" font-size="8.00">TextInputDialog</text>
<polyline fill="none" stroke="black" points="1040.22,-253 1358.22,-253 "/>
<text text-anchor="start" x="1048.22" y="-241.8" font-family="Helvetica,sans-Serif" font-size="8.00">Attributes:</text>
<text text-anchor="start" x="1048.22" y="-229.8" font-family="Helvetica,sans-Serif" font-size="8.00"># TextInput : TextInput</text>
<text text-anchor="start" x="1048.22" y="-217.8" font-family="Helvetica,sans-Serif" font-size="8.00">Methods:</text>
<polyline fill="none" stroke="black" points="1040.22,-209 1358.22,-209 "/>
<text text-anchor="start" x="1048.22" y="-197.8" font-family="Helvetica,sans-Serif" font-size="8.00"># TextInputSize () : Vector2</text>
<text text-anchor="start" x="1048.22" y="-185.8" font-family="Helvetica,sans-Serif" font-size="8.00">+ TextInputDialog (GameState state, WidgetInfo info, DisplayLayer drawOrder)</text>
<text text-anchor="start" x="1048.22" y="-173.8" font-family="Helvetica,sans-Serif" font-size="8.00"># TextInputPosition () : Vector2</text>
<text text-anchor="start" x="1048.22" y="-161.8" font-family="Helvetica,sans-Serif" font-size="8.00">+ SubComponents (GameTime gameTime) : IEnumerable&lt;IGameStateComponent&gt;</text>
</g>
<!-- Box_ConfirmDialog&#45;&gt;Box_TextInputDialog -->
<g id="edge18" class="edge"><title>Box_ConfirmDialog&#45;&gt;Box_TextInputDialog</title>
<path fill="none" stroke="midnightblue" d="M1199.22,-396.646C1199.22,-357.341 1199.22,-310.1 1199.22,-273.376"/>
<polygon fill="none" stroke="midnightblue" points="1195.72,-396.718 1199.22,-406.718 1202.72,-396.718 1195.72,-396.718"/>
</g>
<!-- Box_KnotSaveConfirmDialog -->
<g id="node8" class="node"><title>Box_KnotSaveConfirmDialog</title>
<polygon fill="#fcfcda" stroke="black" points="1016.72,-1 1016.72,-73 1381.72,-73 1381.72,-1 1016.72,-1"/>
<text text-anchor="middle" x="1199.22" y="-61.8" font-family="Helvetica,sans-Serif" font-size="8.00">KnotSaveConfirmDialog</text>
<polyline fill="none" stroke="black" points="1016.72,-53 1381.72,-53 "/>
<text text-anchor="start" x="1024.72" y="-41.8" font-family="Helvetica,sans-Serif" font-size="8.00">Attributes:</text>
<text text-anchor="start" x="1024.72" y="-29.8" font-family="Helvetica,sans-Serif" font-size="8.00">Methods:</text>
<polyline fill="none" stroke="black" points="1016.72,-21 1381.72,-21 "/>
<text text-anchor="start" x="1024.72" y="-9.8" font-family="Helvetica,sans-Serif" font-size="8.00">+ KnotSaveConfirmDialog (GameState state, WidgetInfo info, DisplayLayer drawOrder, Knot knot)</text>
</g>
<!-- Box_TextInputDialog&#45;&gt;Box_KnotSaveConfirmDialog -->
<g id="edge20" class="edge"><title>Box_TextInputDialog&#45;&gt;Box_KnotSaveConfirmDialog</title>
<path fill="none" stroke="midnightblue" d="M1199.22,-142.835C1199.22,-118.985 1199.22,-93.3102 1199.22,-73.2223"/>
<polygon fill="none" stroke="midnightblue" points="1195.72,-142.923 1199.22,-152.923 1202.72,-142.923 1195.72,-142.923"/>
</g>
<!-- Box_VerticalMenu -->
<g id="node10" class="node"><title>Box_VerticalMenu</title>
<polygon fill="#fcfcda" stroke="black" points="1387.22,-389 1387.22,-557 1763.22,-557 1763.22,-389 1387.22,-389"/>
<text text-anchor="middle" x="1575.22" y="-545.8" font-family="Helvetica,sans-Serif" font-size="8.00">VerticalMenu</text>
<polyline fill="none" stroke="black" points="1387.22,-537 1763.22,-537 "/>
<text text-anchor="start" x="1395.22" y="-525.8" font-family="Helvetica,sans-Serif" font-size="8.00">Attributes:</text>
<text text-anchor="start" x="1395.22" y="-513.8" font-family="Helvetica,sans-Serif" font-size="8.00"># spriteBatch : SpriteBatch</text>
<text text-anchor="start" x="1395.22" y="-501.8" font-family="Helvetica,sans-Serif" font-size="8.00">+ Border : Border</text>
<text text-anchor="start" x="1395.22" y="-489.8" font-family="Helvetica,sans-Serif" font-size="8.00">Methods:</text>
<polyline fill="none" stroke="black" points="1387.22,-481 1763.22,-481 "/>
<text text-anchor="start" x="1395.22" y="-469.8" font-family="Helvetica,sans-Serif" font-size="8.00">+ VerticalMenu (GameState state, WidgetInfo info, DisplayLayer drawOrder)</text>
<text text-anchor="start" x="1395.22" y="-457.8" font-family="Helvetica,sans-Serif" font-size="8.00">+ Align (Viewport viewport, float scale, int posX, int posY, int? sizeX)</text>
<text text-anchor="start" x="1395.22" y="-445.8" font-family="Helvetica,sans-Serif" font-size="8.00">+ AddButton (MenuItemInfo info) : MenuButton</text>
<text text-anchor="start" x="1395.22" y="-433.8" font-family="Helvetica,sans-Serif" font-size="8.00">+ AddDropDown (MenuItemInfo info, DistinctOptionInfo option)</text>
<text text-anchor="start" x="1395.22" y="-421.8" font-family="Helvetica,sans-Serif" font-size="8.00">+ AddDropDown (MenuItemInfo info, DropDownMenuItem[] items, DropDownMenuItem defaultItem)</text>
<text text-anchor="start" x="1395.22" y="-409.8" font-family="Helvetica,sans-Serif" font-size="8.00">+ Draw (GameTime gameTime)</text>
<text text-anchor="start" x="1395.22" y="-397.8" font-family="Helvetica,sans-Serif" font-size="8.00">+ Align (Viewport viewport, float scale, Vector2? givenPosition)</text>
</g>
<!-- Box_Menu&#45;&gt;Box_VerticalMenu -->
<g id="edge24" class="edge"><title>Box_Menu&#45;&gt;Box_VerticalMenu</title>
<path fill="none" stroke="midnightblue" d="M1575.22,-620.57C1575.22,-598.731 1575.22,-577.066 1575.22,-557.334"/>
<polygon fill="none" stroke="midnightblue" points="1571.72,-620.609 1575.22,-630.609 1578.72,-620.609 1571.72,-620.609"/>
</g>
<!-- Box_MenuItem -->
<g id="node13" class="node"><title>Box_MenuItem</title>
<polygon fill="#fcfcda" stroke="black" points="198.717,-353 198.717,-593 533.717,-593 533.717,-353 198.717,-353"/>
<text text-anchor="middle" x="366.217" y="-581.8" font-family="Helvetica,sans-Serif" font-size="8.00">MenuItem</text>
<polyline fill="none" stroke="black" points="198.717,-573 533.717,-573 "/>
<text text-anchor="start" x="206.717" y="-561.8" font-family="Helvetica,sans-Serif" font-size="8.00">Attributes:</text>
<text text-anchor="start" x="206.717" y="-549.8" font-family="Helvetica,sans-Serif" font-size="8.00"># spriteBatch : SpriteBatch</text>
<text text-anchor="start" x="206.717" y="-537.8" font-family="Helvetica,sans-Serif" font-size="8.00">+ IsMouseEventEnabled : bool</text>
<text text-anchor="start" x="206.717" y="-525.8" font-family="Helvetica,sans-Serif" font-size="8.00">+ ValidKeys : List&lt;Keys&gt;</text>
<text text-anchor="start" x="206.717" y="-513.8" font-family="Helvetica,sans-Serif" font-size="8.00">+ IsKeyEventEnabled : bool</text>
<text text-anchor="start" x="206.717" y="-501.8" font-family="Helvetica,sans-Serif" font-size="8.00">+ Info : MenuItemInfo</text>
<text text-anchor="start" x="206.717" y="-489.8" font-family="Helvetica,sans-Serif" font-size="8.00">Methods:</text>
<polyline fill="none" stroke="black" points="198.717,-481 533.717,-481 "/>
<text text-anchor="start" x="206.717" y="-469.8" font-family="Helvetica,sans-Serif" font-size="8.00">+ MenuItem (GameState state, DisplayLayer drawOrder, int itemNum, MenuItemInfo info)</text>
<text text-anchor="start" x="206.717" y="-457.8" font-family="Helvetica,sans-Serif" font-size="8.00">+ Collapse () virtual</text>
<text text-anchor="start" x="206.717" y="-445.8" font-family="Helvetica,sans-Serif" font-size="8.00">+ OnKeyEvent (List&lt;Keys&gt; key, KeyEvent keyEvent, GameTime gameTime)</text>
<text text-anchor="start" x="206.717" y="-433.8" font-family="Helvetica,sans-Serif" font-size="8.00">+ OnLeftClick (Vector2 position, ClickState click, GameTime gameTime)</text>
<text text-anchor="start" x="206.717" y="-421.8" font-family="Helvetica,sans-Serif" font-size="8.00">+ OnRightClick (Vector2 position, ClickState click, GameTime gameTime)</text>
<text text-anchor="start" x="206.717" y="-409.8" font-family="Helvetica,sans-Serif" font-size="8.00">+ MinimumSize (SpriteFont font) : Vector2</text>
<text text-anchor="start" x="206.717" y="-397.8" font-family="Helvetica,sans-Serif" font-size="8.00">+ TextPosition (SpriteFont font) : Vector2</text>
<text text-anchor="start" x="206.717" y="-385.8" font-family="Helvetica,sans-Serif" font-size="8.00">+ TextPosition (SpriteFont font, Vector2 scale) : Vector2</text>
<text text-anchor="start" x="206.717" y="-373.8" font-family="Helvetica,sans-Serif" font-size="8.00">+ Draw (GameTime gameTime)</text>
<text text-anchor="start" x="206.717" y="-361.8" font-family="Helvetica,sans-Serif" font-size="8.00">+ SetHovered (bool hovered)</text>
</g>
<!-- Box_ItemWidget&#45;&gt;Box_MenuItem -->
<g id="edge32" class="edge"><title>Box_ItemWidget&#45;&gt;Box_MenuItem</title>
<path fill="none" stroke="midnightblue" d="M802.319,-725.537C769.838,-695.073 727.149,-657.923 685.217,-630 638.207,-598.695 584.049,-569.712 533.859,-545.39"/>
<polygon fill="none" stroke="midnightblue" points="800.256,-728.403 809.929,-732.726 805.064,-723.314 800.256,-728.403"/>
</g>
<!-- Box_DropDownMenu -->
<g id="node14" class="node"><title>Box_DropDownMenu</title>
<polygon fill="#fcfcda" stroke="black" points="370.717,-111 370.717,-315 729.717,-315 729.717,-111 370.717,-111"/>
<text text-anchor="middle" x="550.217" y="-303.8" font-family="Helvetica,sans-Serif" font-size="8.00">DropDownMenu</text>
<polyline fill="none" stroke="black" points="370.717,-295 729.717,-295 "/>
<text text-anchor="start" x="378.717" y="-283.8" font-family="Helvetica,sans-Serif" font-size="8.00">Attributes:</text>
<text text-anchor="start" x="378.717" y="-271.8" font-family="Helvetica,sans-Serif" font-size="8.00">&#45; selected : MenuButton</text>
<text text-anchor="start" x="378.717" y="-259.8" font-family="Helvetica,sans-Serif" font-size="8.00">&#45; dropdown : VerticalMenu</text>
<text text-anchor="start" x="378.717" y="-247.8" font-family="Helvetica,sans-Serif" font-size="8.00">Methods:</text>
<polyline fill="none" stroke="black" points="370.717,-239 729.717,-239 "/>
<text text-anchor="start" x="378.717" y="-227.8" font-family="Helvetica,sans-Serif" font-size="8.00">&#45; ValuePosition (int dummy) : Vector2</text>
<text text-anchor="start" x="378.717" y="-215.8" font-family="Helvetica,sans-Serif" font-size="8.00">+ DropDownMenu (GameState state, DisplayLayer drawOrder, int itemNum, MenuItemInfo info)</text>
<text text-anchor="start" x="378.717" y="-203.8" font-family="Helvetica,sans-Serif" font-size="8.00">&#45; DropDownBackgroundColor (ItemState itemState) : Color</text>
<text text-anchor="start" x="378.717" y="-191.8" font-family="Helvetica,sans-Serif" font-size="8.00">&#45; DropDownForegroundColor (ItemState itemState) : Color</text>
<text text-anchor="start" x="378.717" y="-179.8" font-family="Helvetica,sans-Serif" font-size="8.00">&#45; ValueSize (int dummy) : Vector2</text>
<text text-anchor="start" x="378.717" y="-167.8" font-family="Helvetica,sans-Serif" font-size="8.00">+ SubComponents (GameTime gameTime) : IEnumerable&lt;IGameStateComponent&gt;</text>
<text text-anchor="start" x="378.717" y="-155.8" font-family="Helvetica,sans-Serif" font-size="8.00">+ Collapse ()</text>
<text text-anchor="start" x="378.717" y="-143.8" font-family="Helvetica,sans-Serif" font-size="8.00">+ Draw (GameTime gameTime)</text>
<text text-anchor="start" x="378.717" y="-131.8" font-family="Helvetica,sans-Serif" font-size="8.00">+ AddEntries (DistinctOptionInfo option)</text>
<text text-anchor="start" x="378.717" y="-119.8" font-family="Helvetica,sans-Serif" font-size="8.00">+ AddEntries (DropDownMenuItem[] entries, DropDownMenuItem defaultEntry)</text>
</g>
<!-- Box_MenuItem&#45;&gt;Box_DropDownMenu -->
<g id="edge38" class="edge"><title>Box_MenuItem&#45;&gt;Box_DropDownMenu</title>
<path fill="none" stroke="midnightblue" d="M457.094,-344.586C464.101,-334.686 471.116,-324.773 477.977,-315.078"/>
<polygon fill="none" stroke="midnightblue" points="454.135,-342.709 451.215,-352.894 459.849,-346.753 454.135,-342.709"/>
</g>
<!-- Box_MenuButton -->
<g id="node15" class="node"><title>Box_MenuButton</title>
<polygon fill="#fcfcda" stroke="black" points="10.7166,-177 10.7166,-249 353.717,-249 353.717,-177 10.7166,-177"/>
<text text-anchor="middle" x="182.217" y="-237.8" font-family="Helvetica,sans-Serif" font-size="8.00">MenuButton</text>
<polyline fill="none" stroke="black" points="10.7166,-229 353.717,-229 "/>
<text text-anchor="start" x="18.7166" y="-217.8" font-family="Helvetica,sans-Serif" font-size="8.00">Attributes:</text>
<text text-anchor="start" x="18.7166" y="-205.8" font-family="Helvetica,sans-Serif" font-size="8.00">Methods:</text>
<polyline fill="none" stroke="black" points="10.7166,-197 353.717,-197 "/>
<text text-anchor="start" x="18.7166" y="-185.8" font-family="Helvetica,sans-Serif" font-size="8.00">+ MenuButton (GameState state, DisplayLayer drawOrder, int itemNum, MenuItemInfo info)</text>
</g>
<!-- Box_MenuItem&#45;&gt;Box_MenuButton -->
<g id="edge40" class="edge"><title>Box_MenuItem&#45;&gt;Box_MenuButton</title>
<path fill="none" stroke="midnightblue" d="M275.255,-344.467C250.435,-309.395 225.514,-274.181 207.719,-249.037"/>
<polygon fill="none" stroke="midnightblue" points="272.585,-346.753 281.218,-352.894 278.299,-342.709 272.585,-346.753"/>
</g>
<!-- Box_XnaDrawableGameComponent -->
<g id="node16" class="node"><title>Box_XnaDrawableGameComponent</title>
<polygon fill="#ffffff" stroke="black" points="913.717,-1293 913.717,-1313 1044.72,-1313 1044.72,-1293 913.717,-1293"/>
<text text-anchor="middle" x="979.217" y="-1301.8" font-family="Helvetica,sans-Serif" font-size="8.00">Xna.DrawableGameComponent</text>
</g>
<!-- Box_XnaDrawableGameComponent&#45;&gt;Box_DrawableGameStateComponent -->
<g id="edge4" class="edge"><title>Box_XnaDrawableGameComponent&#45;&gt;Box_DrawableGameStateComponent</title>
<path fill="none" stroke="midnightblue" d="M963.364,-1285.44C949.034,-1269.57 927.166,-1245.36 907.078,-1223.11"/>
<polygon fill="none" stroke="midnightblue" points="960.822,-1287.85 970.122,-1292.93 966.018,-1283.16 960.822,-1287.85"/>
</g>
<!-- Box_XnaIGameComponent -->
<g id="node17" class="node"><title>Box_XnaIGameComponent</title>
<polygon fill="#ffffff" stroke="black" points="687.717,-1383 687.717,-1403 786.717,-1403 786.717,-1383 687.717,-1383"/>
<text text-anchor="middle" x="737.217" y="-1391.8" font-family="Helvetica,sans-Serif" font-size="8.00">Xna.IGameComponent</text>
</g>
<!-- Box_XnaIGameComponent&#45;&gt;Box_IGameStateComponent -->
<g id="edge8" class="edge"><title>Box_XnaIGameComponent&#45;&gt;Box_IGameStateComponent</title>
<path fill="none" stroke="midnightblue" d="M737.217,-1372.45C737.217,-1364.39 737.217,-1354.83 737.217,-1345.41"/>
<polygon fill="none" stroke="midnightblue" points="733.717,-1372.68 737.217,-1382.68 740.717,-1372.68 733.717,-1372.68"/>
</g>
<!-- Box_IMouseEventListener -->
<g id="node18" class="node"><title>Box_IMouseEventListener</title>
<polygon fill="#ffffff" stroke="black" points="404.217,-1013 404.217,-1033 496.217,-1033 496.217,-1013 404.217,-1013"/>
<text text-anchor="middle" x="450.217" y="-1021.8" font-family="Helvetica,sans-Serif" font-size="8.00">IMouseEventListener</text>
</g>
<!-- Box_IMouseEventListener&#45;&gt;Box_ColorPicker -->
<g id="edge12" class="edge"><title>Box_IMouseEventListener&#45;&gt;Box_ColorPicker</title>
<path fill="none" stroke="midnightblue" d="M457.109,-1003.38C465.144,-980.5 479.108,-940.746 493.027,-901.117"/>
<polygon fill="none" stroke="midnightblue" points="453.773,-1002.31 453.761,-1012.91 460.377,-1004.63 453.773,-1002.31"/>
</g>
<!-- Box_IMouseEventListener&#45;&gt;Box_MenuItem -->
<g id="edge34" class="edge"><title>Box_IMouseEventListener&#45;&gt;Box_MenuItem</title>
<path fill="none" stroke="midnightblue" d="M432.836,-1005.44C417.154,-988.314 395.08,-960.72 385.217,-932 347.395,-821.87 346.534,-688.065 352.777,-593.409"/>
<polygon fill="none" stroke="midnightblue" points="430.53,-1008.09 439.94,-1012.96 435.62,-1003.29 430.53,-1008.09"/>
</g>
<!-- Box_IKeyEventListener -->
<g id="node19" class="node"><title>Box_IKeyEventListener</title>
<polygon fill="#ffffff" stroke="black" points="68.7166,-1013 68.7166,-1033 149.717,-1033 149.717,-1013 68.7166,-1013"/>
<text text-anchor="middle" x="109.217" y="-1021.8" font-family="Helvetica,sans-Serif" font-size="8.00">IKeyEventListener</text>
</g>
<!-- Box_IKeyEventListener&#45;&gt;Box_TextInput -->
<g id="edge28" class="edge"><title>Box_IKeyEventListener&#45;&gt;Box_TextInput</title>
<path fill="none" stroke="midnightblue" d="M116.233,-1003.25C126.864,-973.341 147.677,-914.773 165.27,-865.268"/>
<polygon fill="none" stroke="midnightblue" points="112.853,-1002.31 112.802,-1012.91 119.449,-1004.66 112.853,-1002.31"/>
</g>
<!-- Box_IKeyEventListener&#45;&gt;Box_MenuItem -->
<g id="edge36" class="edge"><title>Box_IKeyEventListener&#45;&gt;Box_MenuItem</title>
<path fill="none" stroke="midnightblue" d="M91.0327,-1005.3C74.9354,-988.257 52.5855,-960.875 43.2166,-932 1.79266,-804.33 -27.9869,-743.779 43.2166,-630 78.029,-574.372 138.813,-537.947 198.329,-514.338"/>
<polygon fill="none" stroke="midnightblue" points="88.8595,-1008.08 98.3485,-1012.8 93.8695,-1003.2 88.8595,-1008.08"/>
</g>
</g>
</svg>
