<?xml version="1.0" encoding="UTF-8" standalone="no"?>
<!DOCTYPE svg PUBLIC "-//W3C//DTD SVG 1.1//EN"
 "http://www.w3.org/Graphics/SVG/1.1/DTD/svg11.dtd">
<!-- Generated by graphviz version 2.26.3 (20100126.1600)
 -->
<!-- Title: MenuItem Pages: 1 -->
<svg width="1854pt" height="2392pt"
 viewBox="0.00 0.00 445.00 574.00" xmlns="http://www.w3.org/2000/svg" xmlns:xlink="http://www.w3.org/1999/xlink">
<g id="graph1" class="graph" transform="scale(4.16667 4.16667) rotate(0) translate(4 570)">
<title>MenuItem</title>
<polygon fill="white" stroke="white" points="-4,5 -4,-570 442,-570 442,5 -4,5"/>
<!-- Box_Camera -->
<g id="node1" class="node"><title>Box_Camera</title>
<polygon fill="#fcfcda" stroke="black" points="176.5,-1 176.5,-305 359.5,-305 359.5,-1 176.5,-1"/>
<text text-anchor="middle" x="268" y="-293.8" font-family="Arial" font-size="8.00">Camera</text>
<polyline fill="none" stroke="black" points="176.5,-287 359.5,-287 "/>
<text text-anchor="start" x="184.5" y="-275.8" font-family="Arial" font-size="8.00">&#45; AutoRotation : Angles3</text>
<text text-anchor="start" x="184.5" y="-265.8" font-family="Arial" font-size="8.00">&#45; _target : Vector3</text>
<text text-anchor="start" x="184.5" y="-255.8" font-family="Arial" font-size="8.00">&#45; aspectRatio : float</text>
<text text-anchor="start" x="184.5" y="-245.8" font-family="Arial" font-size="8.00">&#45; farPlane : float</text>
<text text-anchor="start" x="184.5" y="-235.8" font-family="Arial" font-size="8.00">&#45; nearPlane : float</text>
<text text-anchor="start" x="184.5" y="-225.8" font-family="Arial" font-size="8.00">+ Position : Vector3</text>
<text text-anchor="start" x="184.5" y="-215.8" font-family="Arial" font-size="8.00">+ Target : Vector3</text>
<text text-anchor="start" x="184.5" y="-205.8" font-family="Arial" font-size="8.00">+ TargetDirection : Vector3</text>
<text text-anchor="start" x="184.5" y="-195.8" font-family="Arial" font-size="8.00">+ UpVector : Vector3</text>
<text text-anchor="start" x="184.5" y="-185.8" font-family="Arial" font-size="8.00">+ FoV : float</text>
<text text-anchor="start" x="184.5" y="-175.8" font-family="Arial" font-size="8.00">&#45; World : World</text>
<text text-anchor="start" x="184.5" y="-165.8" font-family="Arial" font-size="8.00">&#45; _position : Vector3</text>
<text text-anchor="start" x="184.5" y="-155.8" font-family="Arial" font-size="8.00">&#45; foV : float</text>
<text text-anchor="start" x="184.5" y="-145.8" font-family="Arial" font-size="8.00">+ RotationAngle : Angles3</text>
<text text-anchor="start" x="184.5" y="-135.8" font-family="Arial" font-size="8.00">+ ViewFrustum : BoundingFrustum</text>
<text text-anchor="start" x="184.5" y="-125.8" font-family="Arial" font-size="8.00">+ ProjectionMatrix : Matrix</text>
<text text-anchor="start" x="184.5" y="-115.8" font-family="Arial" font-size="8.00">+ ViewMatrix : Matrix</text>
<text text-anchor="start" x="184.5" y="-105.8" font-family="Arial" font-size="8.00">+ WorldMatrix : Matrix</text>
<text text-anchor="start" x="184.5" y="-95.8" font-family="Arial" font-size="8.00">+ ArcballTarget : Vector3</text>
<text text-anchor="start" x="184.5" y="-85.8" font-family="Arial" font-size="8.00">+ DefaultPosition : Vector3</text>
<text text-anchor="start" x="184.5" y="-75.8" font-family="Arial" font-size="8.00">+ TargetDistance : float</text>
<polyline fill="none" stroke="black" points="176.5,-69 359.5,-69 "/>
<text text-anchor="start" x="184.5" y="-57.8" font-family="Arial" font-size="8.00">+ OnViewChanged () : Action</text>
<text text-anchor="start" x="184.5" y="-47.8" font-family="Arial" font-size="8.00">+ Camera (GameScreen screen, World world)</text>
<text text-anchor="start" x="184.5" y="-37.8" font-family="Arial" font-size="8.00">+ GetMouseRay (Vector2 mouse) : Ray</text>
<text text-anchor="start" x="184.5" y="-27.8" font-family="Arial" font-size="8.00">&#45; UpdateMatrices (GameTime gameTime)</text>
<text text-anchor="start" x="184.5" y="-17.8" font-family="Arial" font-size="8.00">&#45; UpdateRotation (GameTime gameTime)</text>
<text text-anchor="start" x="184.5" y="-7.8" font-family="Arial" font-size="8.00">+ Update (GameTime gameTime)</text>
</g>
<!-- Box_GameScreenComponent -->
<g id="node2" class="node"><title>Box_GameScreenComponent</title>
<polygon fill="#fcfcda" stroke="black" points="98.5,-343 98.5,-417 437.5,-417 437.5,-343 98.5,-343"/>
<text text-anchor="middle" x="268" y="-405.8" font-family="Arial" font-size="8.00">GameScreenComponent</text>
<polyline fill="none" stroke="black" points="98.5,-399 437.5,-399 "/>
<text text-anchor="start" x="106.5" y="-387.8" font-family="Arial" font-size="8.00">+ Index : DisplayLayer</text>
<text text-anchor="start" x="106.5" y="-377.8" font-family="Arial" font-size="8.00">+ screen : GameScreen</text>
<polyline fill="none" stroke="black" points="98.5,-371 437.5,-371 "/>
<text text-anchor="start" x="106.5" y="-359.8" font-family="Arial" font-size="8.00">+ GameScreenComponent (GameScreen screen, DisplayLayer index)</text>
<text text-anchor="start" x="106.5" y="-349.8" font-family="Arial" font-size="8.00">+ SubComponents (GameTime gameTime) : IEnumerable&lt;IGameScreenComponent&gt; virtual</text>
</g>
<!-- Box_GameScreenComponent&#45;&gt;Box_Camera -->
<g id="edge2" class="edge"><title>Box_GameScreenComponent&#45;&gt;Box_Camera</title>
<path fill="none" stroke="midnightblue" d="M268,-332.743C268,-324.189 268,-314.864 268,-305.107"/>
<polygon fill="none" stroke="midnightblue" points="264.5,-332.77 268,-342.77 271.5,-332.77 264.5,-332.77"/>
</g>
<!-- Box_IGameScreenComponent -->
<g id="node3" class="node"><title>Box_IGameScreenComponent</title>
<polygon fill="#dafcda" stroke="black" points="-0.5,-455 -0.5,-509 314.5,-509 314.5,-455 -0.5,-455"/>
<text text-anchor="middle" x="157" y="-497.8" font-family="Arial" font-size="8.00">IGameScreenComponent</text>
<polyline fill="none" stroke="black" points="-0.5,-491 314.5,-491 "/>
<text text-anchor="start" x="7.5" y="-479.8" font-family="Arial" font-size="8.00">+ Index : DisplayLayer</text>
<polyline fill="none" stroke="black" points="-0.5,-473 314.5,-473 "/>
<text text-anchor="start" x="7.5" y="-461.8" font-family="Arial" font-size="8.00">+ SubComponents (GameTime gameTime) : IEnumerable&lt;IGameScreenComponent&gt;</text>
</g>
<!-- Box_IGameScreenComponent&#45;&gt;Box_GameScreenComponent -->
<g id="edge6" class="edge"><title>Box_IGameScreenComponent&#45;&gt;Box_GameScreenComponent</title>
<path fill="none" stroke="midnightblue" d="M194.068,-447.937C204.814,-438.063 216.599,-427.233 227.541,-417.178"/>
<polygon fill="none" stroke="midnightblue" points="191.45,-445.59 186.455,-454.934 196.186,-450.745 191.45,-445.59"/>
</g>
<!-- Box_XnaGameComponent -->
<g id="node4" class="node"><title>Box_XnaGameComponent</title>
<polygon fill="#ffffff" stroke="black" points="331.5,-473 331.5,-491 426.5,-491 426.5,-473 331.5,-473"/>
<text text-anchor="middle" x="379" y="-479.8" font-family="Arial" font-size="8.00">Xna.GameComponent</text>
</g>
<!-- Box_XnaGameComponent&#45;&gt;Box_GameScreenComponent -->
<g id="edge4" class="edge"><title>Box_XnaGameComponent&#45;&gt;Box_GameScreenComponent</title>
<path fill="none" stroke="midnightblue" d="M361.586,-465.998C347.361,-452.926 326.688,-433.929 308.388,-417.113"/>
<polygon fill="none" stroke="midnightblue" points="359.418,-468.759 369.149,-472.948 364.154,-463.605 359.418,-468.759"/>
</g>
<!-- Box_XnaIGameComponent -->
<g id="node5" class="node"><title>Box_XnaIGameComponent</title>
<polygon fill="#ffffff" stroke="black" points="109,-547 109,-565 205,-565 205,-547 109,-547"/>
<text text-anchor="middle" x="157" y="-553.8" font-family="Arial" font-size="8.00">Xna.IGameComponent</text>
</g>
<!-- Box_XnaIGameComponent&#45;&gt;Box_IGameScreenComponent -->
<g id="edge8" class="edge"><title>Box_XnaIGameComponent&#45;&gt;Box_IGameScreenComponent</title>
<path fill="none" stroke="midnightblue" d="M157,-536.64C157,-528.2 157,-518.16 157,-509.004"/>
<polygon fill="none" stroke="midnightblue" points="153.5,-536.926 157,-546.926 160.5,-536.926 153.5,-536.926"/>
</g>
</g>
</svg>
