<?xml version="1.0" encoding="UTF-8" standalone="no"?>
<!DOCTYPE svg PUBLIC "-//W3C//DTD SVG 1.1//EN"
 "http://www.w3.org/Graphics/SVG/1.1/DTD/svg11.dtd">
<!-- Generated by graphviz version 2.26.3 (20100126.1600)
 -->
<!-- Title: MenuItem Pages: 1 -->
<svg width="492pt" height="542pt"
 viewBox="0.00 0.00 492.00 542.00" xmlns="http://www.w3.org/2000/svg" xmlns:xlink="http://www.w3.org/1999/xlink">
<g id="graph1" class="graph" transform="scale(1 1) rotate(0) translate(4 538)">
<title>MenuItem</title>
<polygon fill="white" stroke="white" points="-4,5 -4,-538 489,-538 489,5 -4,5"/>
<!-- Box_IEdgeChangeListener -->
<g id="node1" class="node"><title>Box_IEdgeChangeListener</title>
<polygon fill="#dafcda" stroke="black" points="0,-449 0,-509 152,-509 152,-449 0,-449"/>
<text text-anchor="middle" x="76" y="-497.8" font-family="Helvetica,sans-Serif" font-size="8.00">IEdgeChangeListener</text>
<polyline fill="none" stroke="black" points="0,-489 152,-489 "/>
<text text-anchor="middle" x="76" y="-477.8" font-family="Helvetica,sans-Serif" font-size="8.00"> </text>
<polyline fill="none" stroke="black" points="0,-469 152,-469 "/>
<text text-anchor="start" x="8" y="-457.8" font-family="Helvetica,sans-Serif" font-size="8.00">+ OnEdgesChanged (EdgeList edges)</text>
</g>
<!-- Box_KnotRenderer -->
<g id="node5" class="node"><title>Box_KnotRenderer</title>
<polygon fill="#fcfcda" stroke="black" points="64,-243 64,-387 270,-387 270,-243 64,-243"/>
<text text-anchor="middle" x="167" y="-375.8" font-family="Helvetica,sans-Serif" font-size="8.00">KnotRenderer</text>
<polyline fill="none" stroke="black" points="64,-367 270,-367 "/>
<text text-anchor="start" x="72" y="-355.8" font-family="Helvetica,sans-Serif" font-size="8.00"># state : GameState</text>
<text text-anchor="start" x="72" y="-343.8" font-family="Helvetica,sans-Serif" font-size="8.00">+ World : World abstract</text>
<text text-anchor="start" x="72" y="-331.8" font-family="Helvetica,sans-Serif" font-size="8.00">+ Info : dynamic abstract</text>
<polyline fill="none" stroke="black" points="64,-323 270,-323 "/>
<text text-anchor="start" x="72" y="-311.8" font-family="Helvetica,sans-Serif" font-size="8.00">+ KnotRenderer (GameState state)</text>
<text text-anchor="start" x="72" y="-299.8" font-family="Helvetica,sans-Serif" font-size="8.00">+ OnEdgesChanged (EdgeList edges) abstract</text>
<text text-anchor="start" x="72" y="-287.8" font-family="Helvetica,sans-Serif" font-size="8.00">+ Update (GameTime gameTime) abstract</text>
<text text-anchor="start" x="72" y="-275.8" font-family="Helvetica,sans-Serif" font-size="8.00">+ Draw (GameTime gameTime) abstract</text>
<text text-anchor="start" x="72" y="-263.8" font-family="Helvetica,sans-Serif" font-size="8.00">+ Intersects (Ray ray) : GameObjectDistance abstract</text>
<text text-anchor="start" x="72" y="-251.8" font-family="Helvetica,sans-Serif" font-size="8.00">+ Center () : Vector3 abstract</text>
</g>
<!-- Box_IEdgeChangeListener&#45;&gt;Box_KnotRenderer -->
<g id="edge8" class="edge"><title>Box_IEdgeChangeListener&#45;&gt;Box_KnotRenderer</title>
<path fill="none" stroke="midnightblue" d="M97.6603,-439.964C106.451,-424.121 116.897,-405.296 126.978,-387.127"/>
<polygon fill="none" stroke="midnightblue" points="94.4823,-438.478 92.6908,-448.92 100.603,-441.874 94.4823,-438.478"/>
</g>
<!-- Box_IGameObject -->
<g id="node2" class="node"><title>Box_IGameObject</title>
<polygon fill="#dafcda" stroke="black" points="170,-425 170,-533 346,-533 346,-425 170,-425"/>
<text text-anchor="middle" x="258" y="-521.8" font-family="Helvetica,sans-Serif" font-size="8.00">IGameObject</text>
<polyline fill="none" stroke="black" points="170,-513 346,-513 "/>
<text text-anchor="start" x="178" y="-501.8" font-family="Helvetica,sans-Serif" font-size="8.00">+ Info : dynamic</text>
<text text-anchor="start" x="178" y="-489.8" font-family="Helvetica,sans-Serif" font-size="8.00">+ World : World</text>
<polyline fill="none" stroke="black" points="170,-481 346,-481 "/>
<text text-anchor="start" x="178" y="-469.8" font-family="Helvetica,sans-Serif" font-size="8.00">+ Draw (GameTime gameTime)</text>
<text text-anchor="start" x="178" y="-457.8" font-family="Helvetica,sans-Serif" font-size="8.00">+ Update (GameTime gameTime)</text>
<text text-anchor="start" x="178" y="-445.8" font-family="Helvetica,sans-Serif" font-size="8.00">+ Intersects (Ray ray) : GameObjectDistance</text>
<text text-anchor="start" x="178" y="-433.8" font-family="Helvetica,sans-Serif" font-size="8.00">+ Center () : Vector3</text>
</g>
<!-- Box_IGameObject&#45;&gt;Box_KnotRenderer -->
<g id="edge10" class="edge"><title>Box_IGameObject&#45;&gt;Box_KnotRenderer</title>
<path fill="none" stroke="midnightblue" d="M223.02,-415.959C217.804,-406.559 212.393,-396.807 207.082,-387.236"/>
<polygon fill="none" stroke="midnightblue" points="220.039,-417.8 227.951,-424.846 226.159,-414.403 220.039,-417.8"/>
</g>
<!-- Box_LineRenderer -->
<g id="node3" class="node"><title>Box_LineRenderer</title>
<polygon fill="#fcfcda" stroke="black" points="30,-19 30,-187 248,-187 248,-19 30,-19"/>
<text text-anchor="middle" x="139" y="-175.8" font-family="Helvetica,sans-Serif" font-size="8.00">LineRenderer</text>
<polyline fill="none" stroke="black" points="30,-167 248,-167 "/>
<text text-anchor="start" x="38" y="-155.8" font-family="Helvetica,sans-Serif" font-size="8.00">+ Info : dynamic override</text>
<text text-anchor="start" x="38" y="-143.8" font-family="Helvetica,sans-Serif" font-size="8.00">+ World : World override</text>
<text text-anchor="start" x="38" y="-131.8" font-family="Helvetica,sans-Serif" font-size="8.00">&#45; basicEffect : BasicEffect</text>
<text text-anchor="start" x="38" y="-119.8" font-family="Helvetica,sans-Serif" font-size="8.00">&#45; edges : EdgeList</text>
<polyline fill="none" stroke="black" points="30,-111 248,-111 "/>
<text text-anchor="start" x="38" y="-99.8" font-family="Helvetica,sans-Serif" font-size="8.00">+ LineRenderer (GameState state, GameObjectInfo info)</text>
<text text-anchor="start" x="38" y="-87.8" font-family="Helvetica,sans-Serif" font-size="8.00">+ Update (GameTime gameTime) override</text>
<text text-anchor="start" x="38" y="-75.8" font-family="Helvetica,sans-Serif" font-size="8.00">+ OnEdgesChanged (EdgeList edges) override</text>
<text text-anchor="start" x="38" y="-63.8" font-family="Helvetica,sans-Serif" font-size="8.00">+ Draw (GameTime gameTime) override</text>
<text text-anchor="start" x="38" y="-51.8" font-family="Helvetica,sans-Serif" font-size="8.00">&#45; DrawRoundedLines ()</text>
<text text-anchor="start" x="38" y="-39.8" font-family="Helvetica,sans-Serif" font-size="8.00">+ Intersects (Ray ray) : GameObjectDistance override</text>
<text text-anchor="start" x="38" y="-27.8" font-family="Helvetica,sans-Serif" font-size="8.00">+ Center () : Vector3 override</text>
</g>
<!-- Box_PipeRenderer -->
<g id="node4" class="node"><title>Box_PipeRenderer</title>
<polygon fill="#fcfcda" stroke="black" points="265.5,-1 265.5,-205 484.5,-205 484.5,-1 265.5,-1"/>
<text text-anchor="middle" x="375" y="-193.8" font-family="Helvetica,sans-Serif" font-size="8.00">PipeRenderer</text>
<polyline fill="none" stroke="black" points="265.5,-185 484.5,-185 "/>
<text text-anchor="start" x="273.5" y="-173.8" font-family="Helvetica,sans-Serif" font-size="8.00">+ Info : dynamic override</text>
<text text-anchor="start" x="273.5" y="-161.8" font-family="Helvetica,sans-Serif" font-size="8.00">+ World : World override</text>
<text text-anchor="start" x="273.5" y="-149.8" font-family="Helvetica,sans-Serif" font-size="8.00">&#45; pipes : List&lt;PipeModel&gt;</text>
<text text-anchor="start" x="273.5" y="-137.8" font-family="Helvetica,sans-Serif" font-size="8.00">&#45; knots : List&lt;NodeModel&gt;</text>
<text text-anchor="start" x="273.5" y="-125.8" font-family="Helvetica,sans-Serif" font-size="8.00">&#45; pipeFactory : PipeModelFactory</text>
<text text-anchor="start" x="273.5" y="-113.8" font-family="Helvetica,sans-Serif" font-size="8.00">&#45; knotFactory : NodeModelFactory</text>
<polyline fill="none" stroke="black" points="265.5,-105 484.5,-105 "/>
<text text-anchor="start" x="273.5" y="-93.8" font-family="Helvetica,sans-Serif" font-size="8.00">+ PipeRenderer (GameState state, GameObjectInfo info)</text>
<text text-anchor="start" x="273.5" y="-81.8" font-family="Helvetica,sans-Serif" font-size="8.00">+ Update (GameTime gameTime) override</text>
<text text-anchor="start" x="273.5" y="-69.8" font-family="Helvetica,sans-Serif" font-size="8.00">+ OnEdgesChanged (EdgeList edges) override</text>
<text text-anchor="start" x="273.5" y="-57.8" font-family="Helvetica,sans-Serif" font-size="8.00">+ GetEnumerator () : IEnumerator&lt;IGameObject&gt;</text>
<text text-anchor="start" x="273.5" y="-45.8" font-family="Helvetica,sans-Serif" font-size="8.00">&#45; IEnumerable.GetEnumerator () : IEnumerator</text>
<text text-anchor="start" x="273.5" y="-33.8" font-family="Helvetica,sans-Serif" font-size="8.00">+ Draw (GameTime gameTime) override</text>
<text text-anchor="start" x="273.5" y="-21.8" font-family="Helvetica,sans-Serif" font-size="8.00">+ Intersects (Ray ray) : GameObjectDistance override</text>
<text text-anchor="start" x="273.5" y="-9.8" font-family="Helvetica,sans-Serif" font-size="8.00">+ Center () : Vector3 override</text>
</g>
<!-- Box_KnotRenderer&#45;&gt;Box_LineRenderer -->
<g id="edge2" class="edge"><title>Box_KnotRenderer&#45;&gt;Box_LineRenderer</title>
<path fill="none" stroke="midnightblue" d="M156.135,-232.734C154.166,-217.83 152.111,-202.266 150.135,-187.305"/>
<polygon fill="none" stroke="midnightblue" points="152.702,-233.475 157.481,-242.931 159.642,-232.558 152.702,-233.475"/>
</g>
<!-- Box_KnotRenderer&#45;&gt;Box_PipeRenderer -->
<g id="edge4" class="edge"><title>Box_KnotRenderer&#45;&gt;Box_PipeRenderer</title>
<path fill="none" stroke="midnightblue" d="M244.748,-235.757C254.502,-225.815 264.586,-215.538 274.624,-205.306"/>
<polygon fill="none" stroke="midnightblue" points="242.215,-233.341 237.71,-242.931 247.211,-238.244 242.215,-233.341"/>
</g>
<!-- Box_IEnumerable -->
<g id="node6" class="node"><title>Box_IEnumerable</title>
<polygon fill="#ffffff" stroke="black" points="316,-305 316,-325 434,-325 434,-305 316,-305"/>
<text text-anchor="middle" x="375" y="-313.8" font-family="Helvetica,sans-Serif" font-size="8.00">IEnumerable&lt;IGameObject&gt;</text>
</g>
<!-- Box_IEnumerable&#45;&gt;Box_PipeRenderer -->
<g id="edge6" class="edge"><title>Box_IEnumerable&#45;&gt;Box_PipeRenderer</title>
<path fill="none" stroke="midnightblue" d="M375,-294.537C375,-273.473 375,-239.031 375,-205.119"/>
<polygon fill="none" stroke="midnightblue" points="371.5,-294.775 375,-304.775 378.5,-294.775 371.5,-294.775"/>
</g>
</g>
</svg>
