<?xml version="1.0" encoding="UTF-8" standalone="no"?>
<!DOCTYPE svg PUBLIC "-//W3C//DTD SVG 1.1//EN"
 "http://www.w3.org/Graphics/SVG/1.1/DTD/svg11.dtd">
<!-- Generated by graphviz version 2.26.3 (20100126.1600)
 -->
<!-- Title: MenuItem Pages: 1 -->
<svg width="662pt" height="650pt"
 viewBox="0.00 0.00 662.00 650.00" xmlns="http://www.w3.org/2000/svg" xmlns:xlink="http://www.w3.org/1999/xlink">
<g id="graph1" class="graph" transform="scale(1 1) rotate(0) translate(4 646)">
<title>MenuItem</title>
<polygon fill="white" stroke="white" points="-4,5 -4,-646 659,-646 659,5 -4,5"/>
<!-- Box_GameModel -->
<g id="node1" class="node"><title>Box_GameModel</title>
<polygon fill="#fcfcda" stroke="black" points="221,-183 221,-471 433,-471 433,-183 221,-183"/>
<text text-anchor="middle" x="327" y="-459.8" font-family="Helvetica,sans-Serif" font-size="8.00">GameModel</text>
<polyline fill="none" stroke="black" points="221,-451 433,-451 "/>
<text text-anchor="start" x="229" y="-439.8" font-family="Helvetica,sans-Serif" font-size="8.00">Attributes:</text>
<text text-anchor="start" x="229" y="-427.8" font-family="Helvetica,sans-Serif" font-size="8.00"># state : GameState</text>
<text text-anchor="start" x="229" y="-415.8" font-family="Helvetica,sans-Serif" font-size="8.00">+ Info : dynamic</text>
<text text-anchor="start" x="229" y="-403.8" font-family="Helvetica,sans-Serif" font-size="8.00">+ World : World</text>
<text text-anchor="start" x="229" y="-391.8" font-family="Helvetica,sans-Serif" font-size="8.00">+ Model : Model virtual</text>
<text text-anchor="start" x="229" y="-379.8" font-family="Helvetica,sans-Serif" font-size="8.00">+ BaseColor : Color</text>
<text text-anchor="start" x="229" y="-367.8" font-family="Helvetica,sans-Serif" font-size="8.00">+ HighlightColor : Color</text>
<text text-anchor="start" x="229" y="-355.8" font-family="Helvetica,sans-Serif" font-size="8.00">+ HighlightIntensity : float</text>
<text text-anchor="start" x="229" y="-343.8" font-family="Helvetica,sans-Serif" font-size="8.00">+ Alpha : float</text>
<text text-anchor="start" x="229" y="-331.8" font-family="Helvetica,sans-Serif" font-size="8.00">&#45; _scale : float</text>
<text text-anchor="start" x="229" y="-319.8" font-family="Helvetica,sans-Serif" font-size="8.00">&#45; _rotation : Angles3</text>
<text text-anchor="start" x="229" y="-307.8" font-family="Helvetica,sans-Serif" font-size="8.00">&#45; _position : Vector3</text>
<text text-anchor="start" x="229" y="-295.8" font-family="Helvetica,sans-Serif" font-size="8.00">&#45; _worldMatrix : Matrix</text>
<text text-anchor="start" x="229" y="-283.8" font-family="Helvetica,sans-Serif" font-size="8.00">+ WorldMatrix : Matrix</text>
<text text-anchor="start" x="229" y="-271.8" font-family="Helvetica,sans-Serif" font-size="8.00">Methods:</text>
<polyline fill="none" stroke="black" points="221,-263 433,-263 "/>
<text text-anchor="start" x="229" y="-251.8" font-family="Helvetica,sans-Serif" font-size="8.00">+ GameModel (GameState state, GameModelInfo info)</text>
<text text-anchor="start" x="229" y="-239.8" font-family="Helvetica,sans-Serif" font-size="8.00">+ Update (GameTime gameTime) virtual</text>
<text text-anchor="start" x="229" y="-227.8" font-family="Helvetica,sans-Serif" font-size="8.00">+ Draw (GameTime gameTime) virtual</text>
<text text-anchor="start" x="229" y="-215.8" font-family="Helvetica,sans-Serif" font-size="8.00">+ Intersects (Ray ray) : GameObjectDistance virtual</text>
<text text-anchor="start" x="229" y="-203.8" font-family="Helvetica,sans-Serif" font-size="8.00">+ Center () : Vector3</text>
<text text-anchor="start" x="229" y="-191.8" font-family="Helvetica,sans-Serif" font-size="8.00">&#45; UpdateWorldMatrix ()</text>
</g>
<!-- Box_NodeModel -->
<g id="node3" class="node"><title>Box_NodeModel</title>
<polygon fill="#fcfcda" stroke="black" points="-0.5,-25 -0.5,-121 206.5,-121 206.5,-25 -0.5,-25"/>
<text text-anchor="middle" x="103" y="-109.8" font-family="Helvetica,sans-Serif" font-size="8.00">NodeModel</text>
<polyline fill="none" stroke="black" points="-0.5,-101 206.5,-101 "/>
<text text-anchor="start" x="7.5" y="-89.8" font-family="Helvetica,sans-Serif" font-size="8.00">Attributes:</text>
<text text-anchor="start" x="7.5" y="-77.8" font-family="Helvetica,sans-Serif" font-size="8.00">+ Info : NodeModelInfo new</text>
<text text-anchor="start" x="7.5" y="-65.8" font-family="Helvetica,sans-Serif" font-size="8.00">Methods:</text>
<polyline fill="none" stroke="black" points="-0.5,-57 206.5,-57 "/>
<text text-anchor="start" x="7.5" y="-45.8" font-family="Helvetica,sans-Serif" font-size="8.00">+ NodeModel (GameState state, NodeModelInfo info)</text>
<text text-anchor="start" x="7.5" y="-33.8" font-family="Helvetica,sans-Serif" font-size="8.00">+ Draw (GameTime gameTime) override</text>
</g>
<!-- Box_GameModel&#45;&gt;Box_NodeModel -->
<g id="edge4" class="edge"><title>Box_GameModel&#45;&gt;Box_NodeModel</title>
<path fill="none" stroke="midnightblue" d="M214.018,-198.886C189.595,-171.192 165.234,-143.569 145.582,-121.284"/>
<polygon fill="none" stroke="midnightblue" points="211.664,-201.509 220.904,-206.695 216.915,-196.879 211.664,-201.509"/>
</g>
<!-- Box_PipeModel -->
<g id="node4" class="node"><title>Box_PipeModel</title>
<polygon fill="#fcfcda" stroke="black" points="223.5,-1 223.5,-145 430.5,-145 430.5,-1 223.5,-1"/>
<text text-anchor="middle" x="327" y="-133.8" font-family="Helvetica,sans-Serif" font-size="8.00">PipeModel</text>
<polyline fill="none" stroke="black" points="223.5,-125 430.5,-125 "/>
<text text-anchor="start" x="231.5" y="-113.8" font-family="Helvetica,sans-Serif" font-size="8.00">Attributes:</text>
<text text-anchor="start" x="231.5" y="-101.8" font-family="Helvetica,sans-Serif" font-size="8.00">+ Info : PipeModelInfo new</text>
<text text-anchor="start" x="231.5" y="-89.8" font-family="Helvetica,sans-Serif" font-size="8.00">&#45; Bounds : BoundingSphere[]</text>
<text text-anchor="start" x="231.5" y="-77.8" font-family="Helvetica,sans-Serif" font-size="8.00">+ OnDataChange : Action</text>
<text text-anchor="start" x="231.5" y="-65.8" font-family="Helvetica,sans-Serif" font-size="8.00">Methods:</text>
<polyline fill="none" stroke="black" points="223.5,-57 430.5,-57 "/>
<text text-anchor="start" x="231.5" y="-45.8" font-family="Helvetica,sans-Serif" font-size="8.00">+ PipeModel (GameState state, PipeModelInfo info)</text>
<text text-anchor="start" x="231.5" y="-33.8" font-family="Helvetica,sans-Serif" font-size="8.00">+ Draw (GameTime gameTime) override</text>
<text text-anchor="start" x="231.5" y="-21.8" font-family="Helvetica,sans-Serif" font-size="8.00">+ Update (GameTime gameTime) override</text>
<text text-anchor="start" x="231.5" y="-9.8" font-family="Helvetica,sans-Serif" font-size="8.00">+ Intersects (Ray ray) : GameObjectDistance override</text>
</g>
<!-- Box_GameModel&#45;&gt;Box_PipeModel -->
<g id="edge6" class="edge"><title>Box_GameModel&#45;&gt;Box_PipeModel</title>
<path fill="none" stroke="midnightblue" d="M327,-172.642C327,-163.228 327,-154.023 327,-145.25"/>
<polygon fill="none" stroke="midnightblue" points="323.5,-172.931 327,-182.931 330.5,-172.931 323.5,-172.931"/>
</g>
<!-- Box_TestModel -->
<g id="node5" class="node"><title>Box_TestModel</title>
<polygon fill="#fcfcda" stroke="black" points="448,-31 448,-115 654,-115 654,-31 448,-31"/>
<text text-anchor="middle" x="551" y="-103.8" font-family="Helvetica,sans-Serif" font-size="8.00">TestModel</text>
<polyline fill="none" stroke="black" points="448,-95 654,-95 "/>
<text text-anchor="start" x="456" y="-83.8" font-family="Helvetica,sans-Serif" font-size="8.00">Attributes:</text>
<text text-anchor="start" x="456" y="-71.8" font-family="Helvetica,sans-Serif" font-size="8.00">Methods:</text>
<polyline fill="none" stroke="black" points="448,-63 654,-63 "/>
<text text-anchor="start" x="456" y="-51.8" font-family="Helvetica,sans-Serif" font-size="8.00">+ TestModel (GameState state, GameModelInfo info)</text>
<text text-anchor="start" x="456" y="-39.8" font-family="Helvetica,sans-Serif" font-size="8.00">+ Update (GameTime gameTime) override</text>
</g>
<!-- Box_GameModel&#45;&gt;Box_TestModel -->
<g id="edge8" class="edge"><title>Box_GameModel&#45;&gt;Box_TestModel</title>
<path fill="none" stroke="midnightblue" d="M439.887,-198.994C466.606,-168.697 493.258,-138.475 513.76,-115.228"/>
<polygon fill="none" stroke="midnightblue" points="437.085,-196.879 433.096,-206.695 442.336,-201.509 437.085,-196.879"/>
</g>
<!-- Box_IGameObject -->
<g id="node2" class="node"><title>Box_IGameObject</title>
<polygon fill="#dafcda" stroke="black" points="239,-509 239,-641 415,-641 415,-509 239,-509"/>
<text text-anchor="middle" x="327" y="-629.8" font-family="Helvetica,sans-Serif" font-size="8.00">IGameObject</text>
<polyline fill="none" stroke="black" points="239,-621 415,-621 "/>
<text text-anchor="start" x="247" y="-609.8" font-family="Helvetica,sans-Serif" font-size="8.00">Attributes:</text>
<text text-anchor="start" x="247" y="-597.8" font-family="Helvetica,sans-Serif" font-size="8.00">+ Info : dynamic</text>
<text text-anchor="start" x="247" y="-585.8" font-family="Helvetica,sans-Serif" font-size="8.00">+ World : World</text>
<text text-anchor="start" x="247" y="-573.8" font-family="Helvetica,sans-Serif" font-size="8.00">Methods:</text>
<polyline fill="none" stroke="black" points="239,-565 415,-565 "/>
<text text-anchor="start" x="247" y="-553.8" font-family="Helvetica,sans-Serif" font-size="8.00">+ Draw (GameTime gameTime)</text>
<text text-anchor="start" x="247" y="-541.8" font-family="Helvetica,sans-Serif" font-size="8.00">+ Update (GameTime gameTime)</text>
<text text-anchor="start" x="247" y="-529.8" font-family="Helvetica,sans-Serif" font-size="8.00">+ Intersects (Ray ray) : GameObjectDistance</text>
<text text-anchor="start" x="247" y="-517.8" font-family="Helvetica,sans-Serif" font-size="8.00">+ Center () : Vector3</text>
</g>
<!-- Box_IGameObject&#45;&gt;Box_GameModel -->
<g id="edge2" class="edge"><title>Box_IGameObject&#45;&gt;Box_GameModel</title>
<path fill="none" stroke="midnightblue" d="M327,-498.739C327,-489.953 327,-480.79 327,-471.469"/>
<polygon fill="none" stroke="midnightblue" points="323.5,-498.866 327,-508.866 330.5,-498.866 323.5,-498.866"/>
</g>
</g>
</svg>
