<?xml version="1.0" encoding="UTF-8" standalone="no"?>
<!DOCTYPE svg PUBLIC "-//W3C//DTD SVG 1.1//EN"
 "http://www.w3.org/Graphics/SVG/1.1/DTD/svg11.dtd">
<!-- Generated by graphviz version 2.26.3 (20100126.1600)
 -->
<!-- Title: MenuItem Pages: 1 -->
<svg width="462pt" height="494pt"
 viewBox="0.00 0.00 462.00 494.00" xmlns="http://www.w3.org/2000/svg" xmlns:xlink="http://www.w3.org/1999/xlink">
<g id="graph1" class="graph" transform="scale(1 1) rotate(0) translate(4 490)">
<title>MenuItem</title>
<polygon fill="white" stroke="white" points="-4,5 -4,-490 459,-490 459,5 -4,5"/>
<!-- Box_KnotRenderer -->
<g id="node1" class="node"><title>Box_KnotRenderer</title>
<polygon fill="#fcfcda" stroke="black" points="214,-243 214,-387 420,-387 420,-243 214,-243"/>
<text text-anchor="middle" x="317" y="-375.8" font-family="Helvetica,sans-Serif" font-size="8.00">KnotRenderer</text>
<polyline fill="none" stroke="black" points="214,-367 420,-367 "/>
<text text-anchor="start" x="222" y="-355.8" font-family="Helvetica,sans-Serif" font-size="8.00"># state : GameState</text>
<text text-anchor="start" x="222" y="-343.8" font-family="Helvetica,sans-Serif" font-size="8.00">+ World : World abstract</text>
<text text-anchor="start" x="222" y="-331.8" font-family="Helvetica,sans-Serif" font-size="8.00">+ Info : dynamic abstract</text>
<polyline fill="none" stroke="black" points="214,-323 420,-323 "/>
<text text-anchor="start" x="222" y="-311.8" font-family="Helvetica,sans-Serif" font-size="8.00">+ KnotRenderer (GameState state)</text>
<text text-anchor="start" x="222" y="-299.8" font-family="Helvetica,sans-Serif" font-size="8.00">+ OnEdgesChanged (EdgeList edges) abstract</text>
<text text-anchor="start" x="222" y="-287.8" font-family="Helvetica,sans-Serif" font-size="8.00">+ Update (GameTime gameTime) abstract</text>
<text text-anchor="start" x="222" y="-275.8" font-family="Helvetica,sans-Serif" font-size="8.00">+ Draw (GameTime gameTime) abstract</text>
<text text-anchor="start" x="222" y="-263.8" font-family="Helvetica,sans-Serif" font-size="8.00">+ Intersects (Ray ray) : GameObjectDistance abstract</text>
<text text-anchor="start" x="222" y="-251.8" font-family="Helvetica,sans-Serif" font-size="8.00">+ Center () : Vector3 abstract</text>
</g>
<!-- Box_LineRenderer -->
<g id="node2" class="node"><title>Box_LineRenderer</title>
<polygon fill="#fcfcda" stroke="black" points="236,-19 236,-187 454,-187 454,-19 236,-19"/>
<text text-anchor="middle" x="345" y="-175.8" font-family="Helvetica,sans-Serif" font-size="8.00">LineRenderer</text>
<polyline fill="none" stroke="black" points="236,-167 454,-167 "/>
<text text-anchor="start" x="244" y="-155.8" font-family="Helvetica,sans-Serif" font-size="8.00">+ Info : dynamic override</text>
<text text-anchor="start" x="244" y="-143.8" font-family="Helvetica,sans-Serif" font-size="8.00">+ World : World override</text>
<text text-anchor="start" x="244" y="-131.8" font-family="Helvetica,sans-Serif" font-size="8.00">&#45; basicEffect : BasicEffect</text>
<text text-anchor="start" x="244" y="-119.8" font-family="Helvetica,sans-Serif" font-size="8.00">&#45; edges : EdgeList</text>
<polyline fill="none" stroke="black" points="236,-111 454,-111 "/>
<text text-anchor="start" x="244" y="-99.8" font-family="Helvetica,sans-Serif" font-size="8.00">+ LineRenderer (GameState state, GameObjectInfo info)</text>
<text text-anchor="start" x="244" y="-87.8" font-family="Helvetica,sans-Serif" font-size="8.00">+ Update (GameTime gameTime) override</text>
<text text-anchor="start" x="244" y="-75.8" font-family="Helvetica,sans-Serif" font-size="8.00">+ OnEdgesChanged (EdgeList edges) override</text>
<text text-anchor="start" x="244" y="-63.8" font-family="Helvetica,sans-Serif" font-size="8.00">+ Draw (GameTime gameTime) override</text>
<text text-anchor="start" x="244" y="-51.8" font-family="Helvetica,sans-Serif" font-size="8.00">&#45; DrawRoundedLines ()</text>
<text text-anchor="start" x="244" y="-39.8" font-family="Helvetica,sans-Serif" font-size="8.00">+ Intersects (Ray ray) : GameObjectDistance override</text>
<text text-anchor="start" x="244" y="-27.8" font-family="Helvetica,sans-Serif" font-size="8.00">+ Center () : Vector3 override</text>
</g>
<!-- Box_KnotRenderer&#45;&gt;Box_LineRenderer -->
<g id="edge6" class="edge"><title>Box_KnotRenderer&#45;&gt;Box_LineRenderer</title>
<path fill="none" stroke="midnightblue" d="M327.865,-232.734C329.834,-217.83 331.889,-202.266 333.865,-187.305"/>
<polygon fill="none" stroke="midnightblue" points="324.358,-232.558 326.519,-242.931 331.298,-233.475 324.358,-232.558"/>
</g>
<!-- Box_PipeRenderer -->
<g id="node3" class="node"><title>Box_PipeRenderer</title>
<polygon fill="#fcfcda" stroke="black" points="-0.5,-1 -0.5,-205 218.5,-205 218.5,-1 -0.5,-1"/>
<text text-anchor="middle" x="109" y="-193.8" font-family="Helvetica,sans-Serif" font-size="8.00">PipeRenderer</text>
<polyline fill="none" stroke="black" points="-0.5,-185 218.5,-185 "/>
<text text-anchor="start" x="7.5" y="-173.8" font-family="Helvetica,sans-Serif" font-size="8.00">+ Info : dynamic override</text>
<text text-anchor="start" x="7.5" y="-161.8" font-family="Helvetica,sans-Serif" font-size="8.00">+ World : World override</text>
<text text-anchor="start" x="7.5" y="-149.8" font-family="Helvetica,sans-Serif" font-size="8.00">&#45; pipes : List&lt;PipeModel&gt;</text>
<text text-anchor="start" x="7.5" y="-137.8" font-family="Helvetica,sans-Serif" font-size="8.00">&#45; knots : List&lt;NodeModel&gt;</text>
<text text-anchor="start" x="7.5" y="-125.8" font-family="Helvetica,sans-Serif" font-size="8.00">&#45; pipeFactory : PipeModelFactory</text>
<text text-anchor="start" x="7.5" y="-113.8" font-family="Helvetica,sans-Serif" font-size="8.00">&#45; knotFactory : NodeModelFactory</text>
<polyline fill="none" stroke="black" points="-0.5,-105 218.5,-105 "/>
<text text-anchor="start" x="7.5" y="-93.8" font-family="Helvetica,sans-Serif" font-size="8.00">+ PipeRenderer (GameState state, GameObjectInfo info)</text>
<text text-anchor="start" x="7.5" y="-81.8" font-family="Helvetica,sans-Serif" font-size="8.00">+ Update (GameTime gameTime) override</text>
<text text-anchor="start" x="7.5" y="-69.8" font-family="Helvetica,sans-Serif" font-size="8.00">+ OnEdgesChanged (EdgeList edges) override</text>
<text text-anchor="start" x="7.5" y="-57.8" font-family="Helvetica,sans-Serif" font-size="8.00">+ GetEnumerator () : IEnumerator&lt;IGameObject&gt;</text>
<text text-anchor="start" x="7.5" y="-45.8" font-family="Helvetica,sans-Serif" font-size="8.00">&#45; IEnumerable.GetEnumerator () : IEnumerator</text>
<text text-anchor="start" x="7.5" y="-33.8" font-family="Helvetica,sans-Serif" font-size="8.00">+ Draw (GameTime gameTime) override</text>
<text text-anchor="start" x="7.5" y="-21.8" font-family="Helvetica,sans-Serif" font-size="8.00">+ Intersects (Ray ray) : GameObjectDistance override</text>
<text text-anchor="start" x="7.5" y="-9.8" font-family="Helvetica,sans-Serif" font-size="8.00">+ Center () : Vector3 override</text>
</g>
<!-- Box_KnotRenderer&#45;&gt;Box_PipeRenderer -->
<g id="edge8" class="edge"><title>Box_KnotRenderer&#45;&gt;Box_PipeRenderer</title>
<path fill="none" stroke="midnightblue" d="M239.252,-235.757C229.498,-225.815 219.414,-215.538 209.376,-205.306"/>
<polygon fill="none" stroke="midnightblue" points="236.789,-238.244 246.29,-242.931 241.785,-233.341 236.789,-238.244"/>
</g>
<!-- Box_IEdgeChangeListener -->
<g id="node4" class="node"><title>Box_IEdgeChangeListener</title>
<polygon fill="#dafcda" stroke="black" points="178,-425 178,-485 330,-485 330,-425 178,-425"/>
<text text-anchor="middle" x="254" y="-473.8" font-family="Helvetica,sans-Serif" font-size="8.00">IEdgeChangeListener</text>
<polyline fill="none" stroke="black" points="178,-465 330,-465 "/>
<text text-anchor="middle" x="254" y="-453.8" font-family="Helvetica,sans-Serif" font-size="8.00"> </text>
<polyline fill="none" stroke="black" points="178,-445 330,-445 "/>
<text text-anchor="start" x="186" y="-433.8" font-family="Helvetica,sans-Serif" font-size="8.00">+ OnEdgesChanged (EdgeList edges)</text>
</g>
<!-- Box_IEdgeChangeListener&#45;&gt;Box_KnotRenderer -->
<g id="edge2" class="edge"><title>Box_IEdgeChangeListener&#45;&gt;Box_KnotRenderer</title>
<path fill="none" stroke="midnightblue" d="M271.698,-415.671C275.702,-406.773 280.077,-397.052 284.478,-387.271"/>
<polygon fill="none" stroke="midnightblue" points="268.427,-414.411 267.515,-424.966 274.811,-417.284 268.427,-414.411"/>
</g>
<!-- Box_IGameObject -->
<g id="node5" class="node"><title>Box_IGameObject</title>
<polygon fill="#ffffff" stroke="black" points="347.5,-445 347.5,-465 410.5,-465 410.5,-445 347.5,-445"/>
<text text-anchor="middle" x="379" y="-453.8" font-family="Helvetica,sans-Serif" font-size="8.00">IGameObject</text>
</g>
<!-- Box_IGameObject&#45;&gt;Box_KnotRenderer -->
<g id="edge4" class="edge"><title>Box_IGameObject&#45;&gt;Box_KnotRenderer</title>
<path fill="none" stroke="midnightblue" d="M370.328,-435.419C364.668,-422.637 356.891,-405.076 349.026,-387.316"/>
<polygon fill="none" stroke="midnightblue" points="367.292,-437.205 374.541,-444.932 373.692,-434.371 367.292,-437.205"/>
</g>
<!-- Box_IEnumerable -->
<g id="node6" class="node"><title>Box_IEnumerable</title>
<polygon fill="#ffffff" stroke="black" points="50,-305 50,-325 168,-325 168,-305 50,-305"/>
<text text-anchor="middle" x="109" y="-313.8" font-family="Helvetica,sans-Serif" font-size="8.00">IEnumerable&lt;IGameObject&gt;</text>
</g>
<!-- Box_IEnumerable&#45;&gt;Box_PipeRenderer -->
<g id="edge10" class="edge"><title>Box_IEnumerable&#45;&gt;Box_PipeRenderer</title>
<path fill="none" stroke="midnightblue" d="M109,-294.537C109,-273.473 109,-239.031 109,-205.119"/>
<polygon fill="none" stroke="midnightblue" points="105.5,-294.775 109,-304.775 112.5,-294.775 105.5,-294.775"/>
</g>
</g>
</svg>
