<?xml version="1.0" encoding="UTF-8" standalone="no"?>
<!DOCTYPE svg PUBLIC "-//W3C//DTD SVG 1.1//EN"
 "http://www.w3.org/Graphics/SVG/1.1/DTD/svg11.dtd">
<!-- Generated by graphviz version 2.26.3 (20100126.1600)
 -->
<!-- Title: MenuItem Pages: 1 -->
<svg width="2096pt" height="3208pt"
 viewBox="0.00 0.00 503.00 770.00" xmlns="http://www.w3.org/2000/svg" xmlns:xlink="http://www.w3.org/1999/xlink">
<g id="graph1" class="graph" transform="scale(4.16667 4.16667) rotate(0) translate(4 766)">
<title>MenuItem</title>
<polygon fill="white" stroke="white" points="-4,5 -4,-766 500,-766 500,5 -4,5"/>
<!-- Box_MenuScreen -->
<g id="node1" class="node"><title>Box_MenuScreen</title>
<polygon fill="#fcfcda" stroke="black" points="142,-325 142,-509 330,-509 330,-325 142,-325"/>
<text text-anchor="middle" x="236" y="-497.8" font-family="Arial" font-size="8.00">MenuScreen</text>
<polyline fill="none" stroke="black" points="142,-491 330,-491 "/>
<text text-anchor="start" x="150" y="-479.8" font-family="Arial" font-size="8.00">&#45; backColor : Color</text>
<text text-anchor="start" x="150" y="-469.8" font-family="Arial" font-size="8.00">&#45; pointer : MousePointer</text>
<text text-anchor="start" x="150" y="-459.8" font-family="Arial" font-size="8.00"># LinePoints : List&lt;Vector2&gt;</text>
<text text-anchor="start" x="150" y="-449.8" font-family="Arial" font-size="8.00"># LineWidth : int</text>
<text text-anchor="start" x="150" y="-439.8" font-family="Arial" font-size="8.00">&#45; spriteBatch : SpriteBatch</text>
<polyline fill="none" stroke="black" points="142,-433 330,-433 "/>
<text text-anchor="start" x="150" y="-421.8" font-family="Arial" font-size="8.00">+ MenuScreen (Core.Game game)</text>
<text text-anchor="start" x="150" y="-411.8" font-family="Arial" font-size="8.00">+ Activate (GameTime time)</text>
<text text-anchor="start" x="150" y="-401.8" font-family="Arial" font-size="8.00">+ Draw (GameTime time)</text>
<text text-anchor="start" x="150" y="-391.8" font-family="Arial" font-size="8.00"># BackgroundColor (ItemState itemState) : Color</text>
<text text-anchor="start" x="150" y="-381.8" font-family="Arial" font-size="8.00"># ForegroundColor (ItemState itemState) : Color</text>
<text text-anchor="start" x="150" y="-371.8" font-family="Arial" font-size="8.00">+ DrawMenu (GameTime time) abstract</text>
<text text-anchor="start" x="150" y="-361.8" font-family="Arial" font-size="8.00">+ UpdateMenu (GameTime time) abstract</text>
<text text-anchor="start" x="150" y="-351.8" font-family="Arial" font-size="8.00">+ Initialize ()</text>
<text text-anchor="start" x="150" y="-341.8" font-family="Arial" font-size="8.00">+ Unload ()</text>
<text text-anchor="start" x="150" y="-331.8" font-family="Arial" font-size="8.00">+ Update (GameTime time)</text>
</g>
<!-- Box_StartScreen -->
<g id="node3" class="node"><title>Box_StartScreen</title>
<polygon fill="#fcfcda" stroke="black" points="-0.5,-163 -0.5,-277 130.5,-277 130.5,-163 -0.5,-163"/>
<text text-anchor="middle" x="65" y="-265.8" font-family="Arial" font-size="8.00">StartScreen</text>
<polyline fill="none" stroke="black" points="-0.5,-259 130.5,-259 "/>
<text text-anchor="start" x="7.5" y="-247.8" font-family="Arial" font-size="8.00">&#45; spriteBatch : SpriteBatch</text>
<text text-anchor="start" x="7.5" y="-237.8" font-family="Arial" font-size="8.00">&#45; logo : Texture2D</text>
<text text-anchor="start" x="7.5" y="-227.8" font-family="Arial" font-size="8.00"># menu : Menu</text>
<polyline fill="none" stroke="black" points="-0.5,-221 130.5,-221 "/>
<text text-anchor="start" x="7.5" y="-209.8" font-family="Arial" font-size="8.00">+ StartScreen (Game game)</text>
<text text-anchor="start" x="7.5" y="-199.8" font-family="Arial" font-size="8.00">+ Activate (GameTime time)</text>
<text text-anchor="start" x="7.5" y="-189.8" font-family="Arial" font-size="8.00">+ UpdateMenu (GameTime time)</text>
<text text-anchor="start" x="7.5" y="-179.8" font-family="Arial" font-size="8.00">+ DrawMenu (GameTime time)</text>
<text text-anchor="start" x="7.5" y="-169.8" font-family="Arial" font-size="8.00">+ Initialize ()</text>
</g>
<!-- Box_MenuScreen&#45;&gt;Box_StartScreen -->
<g id="edge4" class="edge"><title>Box_MenuScreen&#45;&gt;Box_StartScreen</title>
<path fill="none" stroke="midnightblue" d="M149.398,-317.23C137.495,-303.518 125.622,-289.839 114.699,-277.256"/>
<polygon fill="none" stroke="midnightblue" points="146.809,-319.587 156.007,-324.845 152.095,-314.999 146.809,-319.587"/>
</g>
<!-- Box_LoadSavegameScreen -->
<g id="node4" class="node"><title>Box_LoadSavegameScreen</title>
<polygon fill="#fcfcda" stroke="black" points="148,-153 148,-287 324,-287 324,-153 148,-153"/>
<text text-anchor="middle" x="236" y="-275.8" font-family="Arial" font-size="8.00">LoadSavegameScreen</text>
<polyline fill="none" stroke="black" points="148,-269 324,-269 "/>
<text text-anchor="start" x="156" y="-257.8" font-family="Arial" font-size="8.00">&#45; spriteBatch : SpriteBatch</text>
<text text-anchor="start" x="156" y="-247.8" font-family="Arial" font-size="8.00">&#45; menu : VerticalMenu</text>
<polyline fill="none" stroke="black" points="148,-241 324,-241 "/>
<text text-anchor="start" x="156" y="-229.8" font-family="Arial" font-size="8.00">+ LoadSavegameScreen (Core.Game game)</text>
<text text-anchor="start" x="156" y="-219.8" font-family="Arial" font-size="8.00">+ Activate (GameTime time)</text>
<text text-anchor="start" x="156" y="-209.8" font-family="Arial" font-size="8.00">+ DrawMenu (GameTime time)</text>
<text text-anchor="start" x="156" y="-199.8" font-family="Arial" font-size="8.00">&#45; AddDefaultKnots ()</text>
<text text-anchor="start" x="156" y="-189.8" font-family="Arial" font-size="8.00">&#45; AddFileToList (string filename)</text>
<text text-anchor="start" x="156" y="-179.8" font-family="Arial" font-size="8.00">&#45; UpdateFiles ()</text>
<text text-anchor="start" x="156" y="-169.8" font-family="Arial" font-size="8.00">+ Initialize ()</text>
<text text-anchor="start" x="156" y="-159.8" font-family="Arial" font-size="8.00">+ UpdateMenu (GameTime time)</text>
</g>
<!-- Box_MenuScreen&#45;&gt;Box_LoadSavegameScreen -->
<g id="edge6" class="edge"><title>Box_MenuScreen&#45;&gt;Box_LoadSavegameScreen</title>
<path fill="none" stroke="midnightblue" d="M236,-314.696C236,-305.346 236,-296.041 236,-287.119"/>
<polygon fill="none" stroke="midnightblue" points="232.5,-314.845 236,-324.845 239.5,-314.845 232.5,-314.845"/>
</g>
<!-- Box_OptionScreen -->
<g id="node5" class="node"><title>Box_OptionScreen</title>
<polygon fill="#fcfcda" stroke="black" points="341.5,-168 341.5,-272 484.5,-272 484.5,-168 341.5,-168"/>
<text text-anchor="middle" x="413" y="-260.8" font-family="Arial" font-size="8.00">OptionScreen</text>
<polyline fill="none" stroke="black" points="341.5,-254 484.5,-254 "/>
<text text-anchor="start" x="349.5" y="-242.8" font-family="Arial" font-size="8.00">&#45; spriteBatch : SpriteBatch</text>
<text text-anchor="start" x="349.5" y="-232.8" font-family="Arial" font-size="8.00">&#45; menu : VerticalMenu</text>
<polyline fill="none" stroke="black" points="341.5,-226 484.5,-226 "/>
<text text-anchor="start" x="349.5" y="-214.8" font-family="Arial" font-size="8.00">+ OptionScreen (Core.Game game)</text>
<text text-anchor="start" x="349.5" y="-204.8" font-family="Arial" font-size="8.00">+ Activate (GameTime time)</text>
<text text-anchor="start" x="349.5" y="-194.8" font-family="Arial" font-size="8.00">+ DrawMenu (GameTime time)</text>
<text text-anchor="start" x="349.5" y="-184.8" font-family="Arial" font-size="8.00">+ UpdateMenu (GameTime time)</text>
<text text-anchor="start" x="349.5" y="-174.8" font-family="Arial" font-size="8.00">+ Initialize ()</text>
</g>
<!-- Box_MenuScreen&#45;&gt;Box_OptionScreen -->
<g id="edge8" class="edge"><title>Box_MenuScreen&#45;&gt;Box_OptionScreen</title>
<path fill="none" stroke="midnightblue" d="M325.679,-317.188C339.699,-301.584 353.679,-286.024 366.212,-272.075"/>
<polygon fill="none" stroke="midnightblue" points="322.879,-315.067 318.799,-324.845 328.086,-319.745 322.879,-315.067"/>
</g>
<!-- Box_GameScreen -->
<g id="node2" class="node"><title>Box_GameScreen</title>
<polygon fill="#fcfcda" stroke="black" points="58.5,-547 58.5,-761 413.5,-761 413.5,-547 58.5,-547"/>
<text text-anchor="middle" x="236" y="-749.8" font-family="Arial" font-size="8.00">GameScreen</text>
<polyline fill="none" stroke="black" points="58.5,-743 413.5,-743 "/>
<text text-anchor="start" x="66.5" y="-731.8" font-family="Arial" font-size="8.00">+ content : ContentManager</text>
<text text-anchor="start" x="66.5" y="-721.8" font-family="Arial" font-size="8.00">+ NextState : GameScreen</text>
<text text-anchor="start" x="66.5" y="-711.8" font-family="Arial" font-size="8.00">+ device : GraphicsDevice</text>
<text text-anchor="start" x="66.5" y="-701.8" font-family="Arial" font-size="8.00">+ RenderEffects : RenderEffectStack</text>
<text text-anchor="start" x="66.5" y="-691.8" font-family="Arial" font-size="8.00">+ viewport : Viewport</text>
<text text-anchor="start" x="66.5" y="-681.8" font-family="Arial" font-size="8.00">+ game : Game</text>
<text text-anchor="start" x="66.5" y="-671.8" font-family="Arial" font-size="8.00">+ graphics : GraphicsDeviceManager</text>
<text text-anchor="start" x="66.5" y="-661.8" font-family="Arial" font-size="8.00">+ input : InputManager</text>
<text text-anchor="start" x="66.5" y="-651.8" font-family="Arial" font-size="8.00">+ PostProcessing : RenderEffect</text>
<polyline fill="none" stroke="black" points="58.5,-645 413.5,-645 "/>
<text text-anchor="start" x="66.5" y="-633.8" font-family="Arial" font-size="8.00">+ Draw (GameTime time) abstract</text>
<text text-anchor="start" x="66.5" y="-623.8" font-family="Arial" font-size="8.00">+ Initialize () abstract</text>
<text text-anchor="start" x="66.5" y="-613.8" font-family="Arial" font-size="8.00">+ Unload () abstract</text>
<text text-anchor="start" x="66.5" y="-603.8" font-family="Arial" font-size="8.00">+ Activate (GameTime time) virtual</text>
<text text-anchor="start" x="66.5" y="-593.8" font-family="Arial" font-size="8.00">+ GameScreen (Game game)</text>
<text text-anchor="start" x="66.5" y="-583.8" font-family="Arial" font-size="8.00">+ Update (GameTime time) abstract</text>
<text text-anchor="start" x="66.5" y="-573.8" font-family="Arial" font-size="8.00">+ Deactivate (GameTime time) virtual</text>
<text text-anchor="start" x="66.5" y="-563.8" font-family="Arial" font-size="8.00">+ AddGameComponents (GameTime time, params IGameScreenComponent[] components)</text>
<text text-anchor="start" x="66.5" y="-553.8" font-family="Arial" font-size="8.00">+ RemoveGameComponents (GameTime time, params IGameScreenComponent[] components)</text>
</g>
<!-- Box_GameScreen&#45;&gt;Box_MenuScreen -->
<g id="edge2" class="edge"><title>Box_GameScreen&#45;&gt;Box_MenuScreen</title>
<path fill="none" stroke="midnightblue" d="M236,-536.846C236,-527.529 236,-518.201 236,-509.092"/>
<polygon fill="none" stroke="midnightblue" points="232.5,-536.941 236,-546.941 239.5,-536.941 232.5,-536.941"/>
</g>
<!-- Box_VideoOptionScreen -->
<g id="node6" class="node"><title>Box_VideoOptionScreen</title>
<polygon fill="#fcfcda" stroke="black" points="331,-1 331,-115 495,-115 495,-1 331,-1"/>
<text text-anchor="middle" x="413" y="-103.8" font-family="Arial" font-size="8.00">VideoOptionScreen</text>
<polyline fill="none" stroke="black" points="331,-97 495,-97 "/>
<text text-anchor="start" x="339" y="-85.8" font-family="Arial" font-size="8.00">&#45; spriteBatch : SpriteBatch</text>
<text text-anchor="start" x="339" y="-75.8" font-family="Arial" font-size="8.00">&#45; menu : VerticalMenu</text>
<polyline fill="none" stroke="black" points="331,-69 495,-69 "/>
<text text-anchor="start" x="339" y="-57.8" font-family="Arial" font-size="8.00">+ VideoOptionScreen (Core.Game game)</text>
<text text-anchor="start" x="339" y="-47.8" font-family="Arial" font-size="8.00">+ Activate (GameTime time)</text>
<text text-anchor="start" x="339" y="-37.8" font-family="Arial" font-size="8.00">+ DrawMenu (GameTime time)</text>
<text text-anchor="start" x="339" y="-27.8" font-family="Arial" font-size="8.00">+ Initialize ()</text>
<text text-anchor="start" x="339" y="-17.8" font-family="Arial" font-size="8.00">+ UpdateMenu (GameTime time)</text>
<text text-anchor="start" x="339" y="-7.8" font-family="Arial" font-size="8.00">+ Collapse (MenuItem item)</text>
</g>
<!-- Box_OptionScreen&#45;&gt;Box_VideoOptionScreen -->
<g id="edge10" class="edge"><title>Box_OptionScreen&#45;&gt;Box_VideoOptionScreen</title>
<path fill="none" stroke="midnightblue" d="M413,-157.794C413,-143.753 413,-128.916 413,-115.097"/>
<polygon fill="none" stroke="midnightblue" points="409.5,-157.85 413,-167.85 416.5,-157.85 409.5,-157.85"/>
</g>
</g>
</svg>
