<?xml version="1.0" encoding="UTF-8" standalone="no"?>
<!DOCTYPE svg PUBLIC "-//W3C//DTD SVG 1.1//EN"
 "http://www.w3.org/Graphics/SVG/1.1/DTD/svg11.dtd">
<!-- Generated by graphviz version 2.26.3 (20100126.1600)
 -->
<!-- Title: MenuItem Pages: 1 -->
<svg width="3521pt" height="2158pt"
 viewBox="0.00 0.00 845.00 518.00" xmlns="http://www.w3.org/2000/svg" xmlns:xlink="http://www.w3.org/1999/xlink">
<g id="graph1" class="graph" transform="scale(4.16667 4.16667) rotate(0) translate(4 514)">
<title>MenuItem</title>
<polygon fill="white" stroke="white" points="-4,5 -4,-514 842,-514 842,5 -4,5"/>
<!-- Box_IMouseEventListener -->
<g id="node1" class="node"><title>Box_IMouseEventListener</title>
<polygon fill="#dafcda" stroke="black" points="164,-415 164,-509 438,-509 438,-415 164,-415"/>
<text text-anchor="middle" x="301" y="-497.8" font-family="Arial" font-size="8.00">IMouseEventListener</text>
<polyline fill="none" stroke="black" points="164,-491 438,-491 "/>
<text text-anchor="start" x="172" y="-479.8" font-family="Arial" font-size="8.00">+ Index : DisplayLayer</text>
<text text-anchor="start" x="172" y="-469.8" font-family="Arial" font-size="8.00">+ IsMouseEventEnabled : bool</text>
<polyline fill="none" stroke="black" points="164,-463 438,-463 "/>
<text text-anchor="start" x="172" y="-451.8" font-family="Arial" font-size="8.00">+ OnLeftClick (Vector2 position, ClickState click, GameTime gameTime)</text>
<text text-anchor="start" x="172" y="-441.8" font-family="Arial" font-size="8.00">+ OnRightClick (Vector2 position, ClickState click, GameTime gameTime)</text>
<text text-anchor="start" x="172" y="-431.8" font-family="Arial" font-size="8.00">+ SetHovered (bool hovered)</text>
<text text-anchor="start" x="172" y="-421.8" font-family="Arial" font-size="8.00">+ bounds () : Rectangle</text>
</g>
<!-- Box_ColorPicker -->
<g id="node2" class="node"><title>Box_ColorPicker</title>
<polygon fill="#fcfcda" stroke="black" points="-0.5,-193 -0.5,-377 284.5,-377 284.5,-193 -0.5,-193"/>
<text text-anchor="middle" x="142" y="-365.8" font-family="Arial" font-size="8.00">ColorPicker</text>
<polyline fill="none" stroke="black" points="-0.5,-359 284.5,-359 "/>
<text text-anchor="start" x="7.5" y="-347.8" font-family="Arial" font-size="8.00">&#45; tiles : List&lt;Vector2&gt;</text>
<text text-anchor="start" x="7.5" y="-337.8" font-family="Arial" font-size="8.00">+ SelectedColor : Color</text>
<text text-anchor="start" x="7.5" y="-327.8" font-family="Arial" font-size="8.00">+ IsMouseEventEnabled : bool</text>
<text text-anchor="start" x="7.5" y="-317.8" font-family="Arial" font-size="8.00">&#45; colors : List&lt;Color&gt;</text>
<text text-anchor="start" x="7.5" y="-307.8" font-family="Arial" font-size="8.00"># spriteBatch : SpriteBatch</text>
<text text-anchor="start" x="7.5" y="-297.8" font-family="Arial" font-size="8.00">+ OnSelectColor : Action&lt;Color&gt;</text>
<polyline fill="none" stroke="black" points="-0.5,-291 284.5,-291 "/>
<text text-anchor="start" x="7.5" y="-279.8" font-family="Arial" font-size="8.00">&#45; Vector2 tileSize (0.032f, 0.032f) : readonly static</text>
<text text-anchor="start" x="7.5" y="-269.8" font-family="Arial" font-size="8.00">&#45; CreateTiles (IEnumerable&lt;Color&gt; _colors) : IEnumerable&lt;Vector2&gt; static</text>
<text text-anchor="start" x="7.5" y="-259.8" font-family="Arial" font-size="8.00">+ ColorPicker (GameState state, WidgetInfo info, DisplayLayer drawOrder)</text>
<text text-anchor="start" x="7.5" y="-249.8" font-family="Arial" font-size="8.00">+ Draw (GameTime gameTime)</text>
<text text-anchor="start" x="7.5" y="-239.8" font-family="Arial" font-size="8.00">+ OnRightClick (Vector2 position, ClickState click, GameTime gameTime)</text>
<text text-anchor="start" x="7.5" y="-229.8" font-family="Arial" font-size="8.00">+ SetHovered (bool hovered)</text>
<text text-anchor="start" x="7.5" y="-219.8" font-family="Arial" font-size="8.00">&#45; CreateColors (int num) : IEnumerable&lt;Color&gt; static</text>
<text text-anchor="start" x="7.5" y="-209.8" font-family="Arial" font-size="8.00">&#45; SelectColor (Color color)</text>
<text text-anchor="start" x="7.5" y="-199.8" font-family="Arial" font-size="8.00">+ OnLeftClick (Vector2 position, ClickState click, GameTime gameTime)</text>
</g>
<!-- Box_IMouseEventListener&#45;&gt;Box_ColorPicker -->
<g id="edge4" class="edge"><title>Box_IMouseEventListener&#45;&gt;Box_ColorPicker</title>
<path fill="none" stroke="midnightblue" d="M251.678,-407.094C243.151,-397.602 234.079,-387.503 224.947,-377.337"/>
<polygon fill="none" stroke="midnightblue" points="249.104,-409.467 258.391,-414.567 254.312,-404.789 249.104,-409.467"/>
</g>
<!-- Box_MenuItem -->
<g id="node3" class="node"><title>Box_MenuItem</title>
<polygon fill="#fcfcda" stroke="black" points="318,-193 318,-377 650,-377 650,-193 318,-193"/>
<text text-anchor="middle" x="484" y="-365.8" font-family="Arial" font-size="8.00">MenuItem</text>
<polyline fill="none" stroke="black" points="318,-359 650,-359 "/>
<text text-anchor="start" x="326" y="-347.8" font-family="Arial" font-size="8.00"># spriteBatch : SpriteBatch</text>
<text text-anchor="start" x="326" y="-337.8" font-family="Arial" font-size="8.00">+ IsMouseEventEnabled : bool</text>
<text text-anchor="start" x="326" y="-327.8" font-family="Arial" font-size="8.00">+ ValidKeys : List&lt;Keys&gt;</text>
<text text-anchor="start" x="326" y="-317.8" font-family="Arial" font-size="8.00">+ IsKeyEventEnabled : bool</text>
<text text-anchor="start" x="326" y="-307.8" font-family="Arial" font-size="8.00">+ Info : MenuItemInfo</text>
<polyline fill="none" stroke="black" points="318,-301 650,-301 "/>
<text text-anchor="start" x="326" y="-289.8" font-family="Arial" font-size="8.00">+ MenuItem (GameState state, DisplayLayer drawOrder, int itemNum, MenuItemInfo info)</text>
<text text-anchor="start" x="326" y="-279.8" font-family="Arial" font-size="8.00">+ Collapse () virtual</text>
<text text-anchor="start" x="326" y="-269.8" font-family="Arial" font-size="8.00">+ OnKeyEvent (List&lt;Keys&gt; key, KeyEvent keyEvent, GameTime gameTime)</text>
<text text-anchor="start" x="326" y="-259.8" font-family="Arial" font-size="8.00">+ OnLeftClick (Vector2 position, ClickState click, GameTime gameTime)</text>
<text text-anchor="start" x="326" y="-249.8" font-family="Arial" font-size="8.00">+ OnRightClick (Vector2 position, ClickState click, GameTime gameTime)</text>
<text text-anchor="start" x="326" y="-239.8" font-family="Arial" font-size="8.00">+ MinimumSize (SpriteFont font) : Vector2</text>
<text text-anchor="start" x="326" y="-229.8" font-family="Arial" font-size="8.00">+ TextPosition (SpriteFont font) : Vector2</text>
<text text-anchor="start" x="326" y="-219.8" font-family="Arial" font-size="8.00">+ TextPosition (SpriteFont font, Vector2 scale) : Vector2</text>
<text text-anchor="start" x="326" y="-209.8" font-family="Arial" font-size="8.00">+ Draw (GameTime gameTime)</text>
<text text-anchor="start" x="326" y="-199.8" font-family="Arial" font-size="8.00">+ SetHovered (bool hovered)</text>
</g>
<!-- Box_IMouseEventListener&#45;&gt;Box_MenuItem -->
<g id="edge8" class="edge"><title>Box_IMouseEventListener&#45;&gt;Box_MenuItem</title>
<path fill="none" stroke="midnightblue" d="M357.476,-407.376C367.375,-397.802 377.918,-387.604 388.532,-377.337"/>
<polygon fill="none" stroke="midnightblue" points="354.795,-405.099 350.041,-414.567 359.662,-410.131 354.795,-405.099"/>
</g>
<!-- Box_DropDownMenu -->
<g id="node4" class="node"><title>Box_DropDownMenu</title>
<polygon fill="#fcfcda" stroke="black" points="122.5,-1 122.5,-155 479.5,-155 479.5,-1 122.5,-1"/>
<text text-anchor="middle" x="301" y="-143.8" font-family="Arial" font-size="8.00">DropDownMenu</text>
<polyline fill="none" stroke="black" points="122.5,-137 479.5,-137 "/>
<text text-anchor="start" x="130.5" y="-125.8" font-family="Arial" font-size="8.00">&#45; selected : MenuButton</text>
<text text-anchor="start" x="130.5" y="-115.8" font-family="Arial" font-size="8.00">&#45; dropdown : VerticalMenu</text>
<polyline fill="none" stroke="black" points="122.5,-109 479.5,-109 "/>
<text text-anchor="start" x="130.5" y="-97.8" font-family="Arial" font-size="8.00">&#45; ValuePosition (int dummy) : Vector2</text>
<text text-anchor="start" x="130.5" y="-87.8" font-family="Arial" font-size="8.00">+ DropDownMenu (GameState state, DisplayLayer drawOrder, int itemNum, MenuItemInfo info)</text>
<text text-anchor="start" x="130.5" y="-77.8" font-family="Arial" font-size="8.00">&#45; DropDownBackgroundColor (ItemState itemState) : Color</text>
<text text-anchor="start" x="130.5" y="-67.8" font-family="Arial" font-size="8.00">&#45; DropDownForegroundColor (ItemState itemState) : Color</text>
<text text-anchor="start" x="130.5" y="-57.8" font-family="Arial" font-size="8.00">&#45; ValueSize (int dummy) : Vector2</text>
<text text-anchor="start" x="130.5" y="-47.8" font-family="Arial" font-size="8.00">+ SubComponents (GameTime gameTime) : IEnumerable&lt;IGameStateComponent&gt;</text>
<text text-anchor="start" x="130.5" y="-37.8" font-family="Arial" font-size="8.00">+ Collapse ()</text>
<text text-anchor="start" x="130.5" y="-27.8" font-family="Arial" font-size="8.00">+ Draw (GameTime gameTime)</text>
<text text-anchor="start" x="130.5" y="-17.8" font-family="Arial" font-size="8.00">+ AddEntries (DistinctOptionInfo option)</text>
<text text-anchor="start" x="130.5" y="-7.8" font-family="Arial" font-size="8.00">+ AddEntries (DropDownMenuItem[] entries, DropDownMenuItem defaultEntry)</text>
</g>
<!-- Box_MenuItem&#45;&gt;Box_DropDownMenu -->
<g id="edge12" class="edge"><title>Box_MenuItem&#45;&gt;Box_DropDownMenu</title>
<path fill="none" stroke="midnightblue" d="M395.645,-185.058C386.793,-175.045 377.902,-164.987 369.303,-155.261"/>
<polygon fill="none" stroke="midnightblue" points="393.156,-187.526 402.401,-192.7 398.4,-182.889 393.156,-187.526"/>
</g>
<!-- Box_MenuButton -->
<g id="node5" class="node"><title>Box_MenuButton</title>
<polygon fill="#fcfcda" stroke="black" points="496.5,-51 496.5,-105 837.5,-105 837.5,-51 496.5,-51"/>
<text text-anchor="middle" x="667" y="-93.8" font-family="Arial" font-size="8.00">MenuButton</text>
<polyline fill="none" stroke="black" points="496.5,-87 837.5,-87 "/>
<text text-anchor="middle" x="667" y="-75.8" font-family="Arial" font-size="8.00"> </text>
<polyline fill="none" stroke="black" points="496.5,-69 837.5,-69 "/>
<text text-anchor="start" x="504.5" y="-57.8" font-family="Arial" font-size="8.00">+ MenuButton (GameState state, DisplayLayer drawOrder, int itemNum, MenuItemInfo info)</text>
</g>
<!-- Box_MenuItem&#45;&gt;Box_MenuButton -->
<g id="edge14" class="edge"><title>Box_MenuItem&#45;&gt;Box_MenuButton</title>
<path fill="none" stroke="midnightblue" d="M572.514,-184.877C598.36,-155.642 624.524,-126.046 642.746,-105.435"/>
<polygon fill="none" stroke="midnightblue" points="569.6,-182.889 565.599,-192.7 574.844,-187.526 569.6,-182.889"/>
</g>
<!-- Box_Widget -->
<g id="node6" class="node"><title>Box_Widget</title>
<polygon fill="#ffffff" stroke="black" points="105.5,-453 105.5,-471 146.5,-471 146.5,-453 105.5,-453"/>
<text text-anchor="middle" x="126" y="-459.8" font-family="Arial" font-size="8.00">Widget</text>
</g>
<!-- Box_Widget&#45;&gt;Box_ColorPicker -->
<g id="edge2" class="edge"><title>Box_Widget&#45;&gt;Box_ColorPicker</title>
<path fill="none" stroke="midnightblue" d="M127.74,-442.754C129.204,-426.557 131.413,-402.12 133.658,-377.285"/>
<polygon fill="none" stroke="midnightblue" points="124.23,-442.705 126.815,-452.979 131.202,-443.335 124.23,-442.705"/>
</g>
<!-- Box_ItemWidget -->
<g id="node7" class="node"><title>Box_ItemWidget</title>
<polygon fill="#ffffff" stroke="black" points="456,-453 456,-471 512,-471 512,-453 456,-453"/>
<text text-anchor="middle" x="484" y="-459.8" font-family="Arial" font-size="8.00">ItemWidget</text>
</g>
<!-- Box_ItemWidget&#45;&gt;Box_MenuItem -->
<g id="edge6" class="edge"><title>Box_ItemWidget&#45;&gt;Box_MenuItem</title>
<path fill="none" stroke="midnightblue" d="M484,-442.754C484,-426.557 484,-402.12 484,-377.285"/>
<polygon fill="none" stroke="midnightblue" points="480.5,-442.979 484,-452.979 487.5,-442.979 480.5,-442.979"/>
</g>
<!-- Box_IKeyEventListener -->
<g id="node8" class="node"><title>Box_IKeyEventListener</title>
<polygon fill="#ffffff" stroke="black" points="530,-453 530,-471 612,-471 612,-453 530,-453"/>
<text text-anchor="middle" x="571" y="-459.8" font-family="Arial" font-size="8.00">IKeyEventListener</text>
</g>
<!-- Box_IKeyEventListener&#45;&gt;Box_MenuItem -->
<g id="edge10" class="edge"><title>Box_IKeyEventListener&#45;&gt;Box_MenuItem</title>
<path fill="none" stroke="midnightblue" d="M561.999,-443.688C554.045,-427.506 541.805,-402.602 529.36,-377.285"/>
<polygon fill="none" stroke="midnightblue" points="559.014,-445.549 566.566,-452.979 565.296,-442.461 559.014,-445.549"/>
</g>
</g>
</svg>
