<?xml version="1.0" encoding="UTF-8" standalone="no"?>
<!DOCTYPE svg PUBLIC "-//W3C//DTD SVG 1.1//EN"
 "http://www.w3.org/Graphics/SVG/1.1/DTD/svg11.dtd">
<!-- Generated by graphviz version 2.26.3 (20100126.1600)
 -->
<!-- Title: MenuItem Pages: 1 -->
<svg width="340pt" height="272pt"
 viewBox="0.00 0.00 340.00 272.00" xmlns="http://www.w3.org/2000/svg" xmlns:xlink="http://www.w3.org/1999/xlink">
<g id="graph1" class="graph" transform="scale(1 1) rotate(0) translate(4 268)">
<title>MenuItem</title>
<polygon fill="white" stroke="white" points="-4,5 -4,-268 337,-268 337,5 -4,5"/>
<!-- Box_MousePicker -->
<g id="node1" class="node"><title>Box_MousePicker</title>
<polygon fill="#fcfcda" stroke="black" points="73,-1 73,-95 259,-95 259,-1 73,-1"/>
<text text-anchor="middle" x="166" y="-83.8" font-family="Arial" font-size="8.00">MousePicker</text>
<polyline fill="none" stroke="black" points="73,-77 259,-77 "/>
<text text-anchor="start" x="81" y="-65.8" font-family="Arial" font-size="8.00">&#45; lastMousePosition : Vector2</text>
<text text-anchor="start" x="81" y="-55.8" font-family="Arial" font-size="8.00">&#45; World : World</text>
<text text-anchor="start" x="81" y="-45.8" font-family="Arial" font-size="8.00">&#45; lastRayCheck : double</text>
<polyline fill="none" stroke="black" points="73,-39 259,-39 "/>
<text text-anchor="start" x="81" y="-27.8" font-family="Arial" font-size="8.00">+ MousePicker (GameState state, World world)</text>
<text text-anchor="start" x="81" y="-17.8" font-family="Arial" font-size="8.00">+ Update (GameTime gameTime)</text>
<text text-anchor="start" x="81" y="-7.8" font-family="Arial" font-size="8.00">+ UpdateMouseRay (GameTime gameTime)</text>
</g>
<!-- Box_GameStateComponent -->
<g id="node2" class="node"><title>Box_GameStateComponent</title>
<polygon fill="#fcfcda" stroke="black" points="0,-133 0,-207 332,-207 332,-133 0,-133"/>
<text text-anchor="middle" x="166" y="-195.8" font-family="Arial" font-size="8.00">GameStateComponent</text>
<polyline fill="none" stroke="black" points="0,-189 332,-189 "/>
<text text-anchor="start" x="8" y="-177.8" font-family="Arial" font-size="8.00">+ Index : DisplayLayer</text>
<text text-anchor="start" x="8" y="-167.8" font-family="Arial" font-size="8.00">+ state : GameState</text>
<polyline fill="none" stroke="black" points="0,-161 332,-161 "/>
<text text-anchor="start" x="8" y="-149.8" font-family="Arial" font-size="8.00">+ GameStateComponent (GameState state, DisplayLayer index)</text>
<text text-anchor="start" x="8" y="-139.8" font-family="Arial" font-size="8.00">+ SubComponents (GameTime gameTime) : IEnumerable&lt;IGameStateComponent&gt; virtual</text>
</g>
<!-- Box_GameStateComponent&#45;&gt;Box_MousePicker -->
<g id="edge2" class="edge"><title>Box_GameStateComponent&#45;&gt;Box_MousePicker</title>
<path fill="none" stroke="midnightblue" d="M166,-122.517C166,-113.615 166,-104.308 166,-95.4085"/>
<polygon fill="none" stroke="midnightblue" points="162.5,-122.733 166,-132.733 169.5,-122.733 162.5,-122.733"/>
</g>
<!-- Box_XnaGameComponent -->
<g id="node3" class="node"><title>Box_XnaGameComponent</title>
<polygon fill="#ffffff" stroke="black" points="61.5,-245 61.5,-263 156.5,-263 156.5,-245 61.5,-245"/>
<text text-anchor="middle" x="109" y="-251.8" font-family="Arial" font-size="8.00">Xna.GameComponent</text>
</g>
<!-- Box_XnaGameComponent&#45;&gt;Box_GameStateComponent -->
<g id="edge4" class="edge"><title>Box_XnaGameComponent&#45;&gt;Box_GameStateComponent</title>
<path fill="none" stroke="midnightblue" d="M120.96,-236.375C126.731,-227.87 133.887,-217.325 140.782,-207.163"/>
<polygon fill="none" stroke="midnightblue" points="118.037,-234.45 115.318,-244.69 123.829,-238.38 118.037,-234.45"/>
</g>
<!-- Box_IGameStateComponent -->
<g id="node4" class="node"><title>Box_IGameStateComponent</title>
<polygon fill="#ffffff" stroke="black" points="174,-245 174,-263 272,-263 272,-245 174,-245"/>
<text text-anchor="middle" x="223" y="-251.8" font-family="Arial" font-size="8.00">IGameStateComponent</text>
</g>
<!-- Box_IGameStateComponent&#45;&gt;Box_GameStateComponent -->
<g id="edge6" class="edge"><title>Box_IGameStateComponent&#45;&gt;Box_GameStateComponent</title>
<path fill="none" stroke="midnightblue" d="M211.04,-236.375C205.269,-227.87 198.113,-217.325 191.218,-207.163"/>
<polygon fill="none" stroke="midnightblue" points="208.171,-238.38 216.682,-244.69 213.963,-234.45 208.171,-238.38"/>
</g>
</g>
</svg>
