<?xml version="1.0" encoding="UTF-8" standalone="no"?>
<!DOCTYPE svg PUBLIC "-//W3C//DTD SVG 1.1//EN"
 "http://www.w3.org/Graphics/SVG/1.1/DTD/svg11.dtd">
<!-- Generated by graphviz version 2.26.3 (20100126.1600)
 -->
<!-- Title: MenuItem Pages: 1 -->
<svg width="474pt" height="372pt"
 viewBox="0.00 0.00 474.00 372.00" xmlns="http://www.w3.org/2000/svg" xmlns:xlink="http://www.w3.org/1999/xlink">
<g id="graph1" class="graph" transform="scale(1 1) rotate(0) translate(4 368)">
<title>MenuItem</title>
<polygon fill="white" stroke="white" points="-4,5 -4,-368 471,-368 471,5 -4,5"/>
<!-- Box_DrawableGameStateComponent -->
<g id="node1" class="node"><title>Box_DrawableGameStateComponent</title>
<polygon fill="#fcfcda" stroke="black" points="109.5,-123 109.5,-207 450.5,-207 450.5,-123 109.5,-123"/>
<text text-anchor="middle" x="280" y="-195.8" font-family="Helvetica,sans-Serif" font-size="8.00">DrawableGameStateComponent</text>
<polyline fill="none" stroke="black" points="109.5,-187 450.5,-187 "/>
<text text-anchor="start" x="117.5" y="-175.8" font-family="Helvetica,sans-Serif" font-size="8.00">+ state : GameState</text>
<text text-anchor="start" x="117.5" y="-163.8" font-family="Helvetica,sans-Serif" font-size="8.00">+ Index : int</text>
<polyline fill="none" stroke="black" points="109.5,-155 450.5,-155 "/>
<text text-anchor="start" x="117.5" y="-143.8" font-family="Helvetica,sans-Serif" font-size="8.00">+ DrawableGameStateComponent (GameState state, DisplayLayer drawOrder)</text>
<text text-anchor="start" x="117.5" y="-131.8" font-family="Helvetica,sans-Serif" font-size="8.00">+ SubComponents (GameTime gameTime) : IEnumerable&lt;IGameStateComponent&gt; virtual</text>
</g>
<!-- Box_MousePointer -->
<g id="node3" class="node"><title>Box_MousePointer</title>
<polygon fill="#fcfcda" stroke="black" points="198.5,-1 198.5,-85 361.5,-85 361.5,-1 198.5,-1"/>
<text text-anchor="middle" x="280" y="-73.8" font-family="Helvetica,sans-Serif" font-size="8.00">MousePointer</text>
<polyline fill="none" stroke="black" points="198.5,-65 361.5,-65 "/>
<text text-anchor="start" x="206.5" y="-53.8" font-family="Helvetica,sans-Serif" font-size="8.00">&#45; spriteBatch : SpriteBatch</text>
<polyline fill="none" stroke="black" points="198.5,-45 361.5,-45 "/>
<text text-anchor="start" x="206.5" y="-33.8" font-family="Helvetica,sans-Serif" font-size="8.00">+ MousePointer (GameState state)</text>
<text text-anchor="start" x="206.5" y="-21.8" font-family="Helvetica,sans-Serif" font-size="8.00">+ Draw (GameTime gameTime) override</text>
<text text-anchor="start" x="206.5" y="-9.8" font-family="Helvetica,sans-Serif" font-size="8.00">&#45; DrawCursor (GameTime gameTime)</text>
</g>
<!-- Box_DrawableGameStateComponent&#45;&gt;Box_MousePointer -->
<g id="edge8" class="edge"><title>Box_DrawableGameStateComponent&#45;&gt;Box_MousePointer</title>
<path fill="none" stroke="midnightblue" d="M280,-112.537C280,-103.423 280,-94.0497 280,-85.2525"/>
<polygon fill="none" stroke="midnightblue" points="276.5,-112.673 280,-122.673 283.5,-112.673 276.5,-112.673"/>
</g>
<!-- Box_IGameStateComponent -->
<g id="node2" class="node"><title>Box_IGameStateComponent</title>
<polygon fill="#dafcda" stroke="black" points="0,-245 0,-305 318,-305 318,-245 0,-245"/>
<text text-anchor="middle" x="159" y="-293.8" font-family="Helvetica,sans-Serif" font-size="8.00">IGameStateComponent</text>
<polyline fill="none" stroke="black" points="0,-285 318,-285 "/>
<text text-anchor="start" x="8" y="-273.8" font-family="Helvetica,sans-Serif" font-size="8.00">+ Index : int</text>
<polyline fill="none" stroke="black" points="0,-265 318,-265 "/>
<text text-anchor="start" x="8" y="-253.8" font-family="Helvetica,sans-Serif" font-size="8.00">+ SubComponents (GameTime gameTime) : IEnumerable&lt;IGameStateComponent&gt;</text>
</g>
<!-- Box_IGameStateComponent&#45;&gt;Box_DrawableGameStateComponent -->
<g id="edge4" class="edge"><title>Box_IGameStateComponent&#45;&gt;Box_DrawableGameStateComponent</title>
<path fill="none" stroke="midnightblue" d="M199.738,-237.965C210.538,-228.147 222.282,-217.47 233.37,-207.391"/>
<polygon fill="none" stroke="midnightblue" points="197.109,-235.625 192.064,-244.942 201.818,-240.805 197.109,-235.625"/>
</g>
<!-- Box_XnaDrawableGameComponent -->
<g id="node4" class="node"><title>Box_XnaDrawableGameComponent</title>
<polygon fill="#ffffff" stroke="black" points="335.5,-265 335.5,-285 466.5,-285 466.5,-265 335.5,-265"/>
<text text-anchor="middle" x="401" y="-273.8" font-family="Helvetica,sans-Serif" font-size="8.00">Xna.DrawableGameComponent</text>
</g>
<!-- Box_XnaDrawableGameComponent&#45;&gt;Box_DrawableGameStateComponent -->
<g id="edge2" class="edge"><title>Box_XnaDrawableGameComponent&#45;&gt;Box_DrawableGameStateComponent</title>
<path fill="none" stroke="midnightblue" d="M382.298,-257.998C367.412,-244.466 345.923,-224.93 326.479,-207.254"/>
<polygon fill="none" stroke="midnightblue" points="380.08,-260.712 389.833,-264.849 384.788,-255.532 380.08,-260.712"/>
</g>
<!-- Box_XnaIGameComponent -->
<g id="node5" class="node"><title>Box_XnaIGameComponent</title>
<polygon fill="#ffffff" stroke="black" points="109.5,-343 109.5,-363 208.5,-363 208.5,-343 109.5,-343"/>
<text text-anchor="middle" x="159" y="-351.8" font-family="Helvetica,sans-Serif" font-size="8.00">Xna.IGameComponent</text>
</g>
<!-- Box_XnaIGameComponent&#45;&gt;Box_IGameStateComponent -->
<g id="edge6" class="edge"><title>Box_XnaIGameComponent&#45;&gt;Box_IGameStateComponent</title>
<path fill="none" stroke="midnightblue" d="M159,-332.777C159,-324.329 159,-314.337 159,-305.059"/>
<polygon fill="none" stroke="midnightblue" points="155.5,-332.803 159,-342.803 162.5,-332.803 155.5,-332.803"/>
</g>
</g>
</svg>
