<?xml version="1.0" encoding="UTF-8" standalone="no"?>
<!DOCTYPE svg PUBLIC "-//W3C//DTD SVG 1.1//EN"
 "http://www.w3.org/Graphics/SVG/1.1/DTD/svg11.dtd">
<!-- Generated by graphviz version 2.26.3 (20100126.1600)
 -->
<!-- Title: MenuItem Pages: 1 -->
<svg width="541pt" height="988pt"
 viewBox="0.00 0.00 541.00 988.00" xmlns="http://www.w3.org/2000/svg" xmlns:xlink="http://www.w3.org/1999/xlink">
<g id="graph1" class="graph" transform="scale(1 1) rotate(0) translate(4 984)">
<title>MenuItem</title>
<polygon fill="white" stroke="white" points="-4,5 -4,-984 538,-984 538,5 -4,5"/>
<!-- Box_MenuScreen -->
<g id="node1" class="node"><title>Box_MenuScreen</title>
<polygon fill="#fcfcda" stroke="black" points="169.5,-425 169.5,-665 360.5,-665 360.5,-425 169.5,-425"/>
<text text-anchor="middle" x="265" y="-653.8" font-family="Helvetica,sans-Serif" font-size="8.00">MenuScreen</text>
<polyline fill="none" stroke="black" points="169.5,-645 360.5,-645 "/>
<text text-anchor="start" x="177.5" y="-633.8" font-family="Helvetica,sans-Serif" font-size="8.00">Attributes:</text>
<text text-anchor="start" x="177.5" y="-621.8" font-family="Helvetica,sans-Serif" font-size="8.00">&#45; backColor : Color</text>
<text text-anchor="start" x="177.5" y="-609.8" font-family="Helvetica,sans-Serif" font-size="8.00">&#45; pointer : MousePointer</text>
<text text-anchor="start" x="177.5" y="-597.8" font-family="Helvetica,sans-Serif" font-size="8.00"># LinePoints : List&lt;Vector2&gt;</text>
<text text-anchor="start" x="177.5" y="-585.8" font-family="Helvetica,sans-Serif" font-size="8.00"># LineWidth : int</text>
<text text-anchor="start" x="177.5" y="-573.8" font-family="Helvetica,sans-Serif" font-size="8.00">&#45; spriteBatch : SpriteBatch</text>
<text text-anchor="start" x="177.5" y="-561.8" font-family="Helvetica,sans-Serif" font-size="8.00">Methods:</text>
<polyline fill="none" stroke="black" points="169.5,-553 360.5,-553 "/>
<text text-anchor="start" x="177.5" y="-541.8" font-family="Helvetica,sans-Serif" font-size="8.00">+ MenuScreen (Core.Game game)</text>
<text text-anchor="start" x="177.5" y="-529.8" font-family="Helvetica,sans-Serif" font-size="8.00">+ Activate (GameTime gameTime)</text>
<text text-anchor="start" x="177.5" y="-517.8" font-family="Helvetica,sans-Serif" font-size="8.00">+ Draw (GameTime gameTime)</text>
<text text-anchor="start" x="177.5" y="-505.8" font-family="Helvetica,sans-Serif" font-size="8.00"># BackgroundColor (ItemState itemState) : Color</text>
<text text-anchor="start" x="177.5" y="-493.8" font-family="Helvetica,sans-Serif" font-size="8.00"># ForegroundColor (ItemState itemState) : Color</text>
<text text-anchor="start" x="177.5" y="-481.8" font-family="Helvetica,sans-Serif" font-size="8.00">+ DrawMenu (GameTime gameTime) abstract</text>
<text text-anchor="start" x="177.5" y="-469.8" font-family="Helvetica,sans-Serif" font-size="8.00">+ UpdateMenu (GameTime gameTime) abstract</text>
<text text-anchor="start" x="177.5" y="-457.8" font-family="Helvetica,sans-Serif" font-size="8.00">+ Initialize ()</text>
<text text-anchor="start" x="177.5" y="-445.8" font-family="Helvetica,sans-Serif" font-size="8.00">+ Unload ()</text>
<text text-anchor="start" x="177.5" y="-433.8" font-family="Helvetica,sans-Serif" font-size="8.00">+ Update (GameTime gameTime)</text>
</g>
<!-- Box_StartScreen -->
<g id="node3" class="node"><title>Box_StartScreen</title>
<polygon fill="#fcfcda" stroke="black" points="0,-213 0,-369 158,-369 158,-213 0,-213"/>
<text text-anchor="middle" x="79" y="-357.8" font-family="Helvetica,sans-Serif" font-size="8.00">StartScreen</text>
<polyline fill="none" stroke="black" points="0,-349 158,-349 "/>
<text text-anchor="start" x="8" y="-337.8" font-family="Helvetica,sans-Serif" font-size="8.00">Attributes:</text>
<text text-anchor="start" x="8" y="-325.8" font-family="Helvetica,sans-Serif" font-size="8.00">&#45; spriteBatch : SpriteBatch</text>
<text text-anchor="start" x="8" y="-313.8" font-family="Helvetica,sans-Serif" font-size="8.00">&#45; logo : Texture2D</text>
<text text-anchor="start" x="8" y="-301.8" font-family="Helvetica,sans-Serif" font-size="8.00"># menu : Menu</text>
<text text-anchor="start" x="8" y="-289.8" font-family="Helvetica,sans-Serif" font-size="8.00">Methods:</text>
<polyline fill="none" stroke="black" points="0,-281 158,-281 "/>
<text text-anchor="start" x="8" y="-269.8" font-family="Helvetica,sans-Serif" font-size="8.00">+ StartScreen (Game game)</text>
<text text-anchor="start" x="8" y="-257.8" font-family="Helvetica,sans-Serif" font-size="8.00">+ Activate (GameTime gameTime)</text>
<text text-anchor="start" x="8" y="-245.8" font-family="Helvetica,sans-Serif" font-size="8.00">+ UpdateMenu (GameTime gameTime)</text>
<text text-anchor="start" x="8" y="-233.8" font-family="Helvetica,sans-Serif" font-size="8.00">+ DrawMenu (GameTime gameTime)</text>
<text text-anchor="start" x="8" y="-221.8" font-family="Helvetica,sans-Serif" font-size="8.00">+ Initialize ()</text>
</g>
<!-- Box_MenuScreen&#45;&gt;Box_StartScreen -->
<g id="edge4" class="edge"><title>Box_MenuScreen&#45;&gt;Box_StartScreen</title>
<path fill="none" stroke="midnightblue" d="M164.001,-416.293C152.243,-400.223 140.657,-384.19 129.995,-369.223"/>
<polygon fill="none" stroke="midnightblue" points="161.425,-418.7 170.161,-424.695 167.07,-414.56 161.425,-418.7"/>
</g>
<!-- Box_MenuScreen&#45;&gt;Box_StartScreen -->
<g id="edge14" class="edge"><title>Box_MenuScreen&#45;&gt;Box_StartScreen</title>
<path fill="none" stroke="midnightblue" d="M177.5,-416.293C165.722,-400.223 153.827,-384.19 142.568,-369.223"/>
<polygon fill="none" stroke="midnightblue" points="174.916,-418.689 183.644,-424.695 180.566,-414.557 174.916,-418.689"/>
</g>
<!-- Box_LoadSavegameScreen -->
<g id="node4" class="node"><title>Box_LoadSavegameScreen</title>
<polygon fill="#fcfcda" stroke="black" points="176,-195 176,-387 354,-387 354,-195 176,-195"/>
<text text-anchor="middle" x="265" y="-375.8" font-family="Helvetica,sans-Serif" font-size="8.00">LoadSavegameScreen</text>
<polyline fill="none" stroke="black" points="176,-367 354,-367 "/>
<text text-anchor="start" x="184" y="-355.8" font-family="Helvetica,sans-Serif" font-size="8.00">Attributes:</text>
<text text-anchor="start" x="184" y="-343.8" font-family="Helvetica,sans-Serif" font-size="8.00">&#45; spriteBatch : SpriteBatch</text>
<text text-anchor="start" x="184" y="-331.8" font-family="Helvetica,sans-Serif" font-size="8.00">&#45; menu : VerticalMenu</text>
<text text-anchor="start" x="184" y="-319.8" font-family="Helvetica,sans-Serif" font-size="8.00">&#45; format : IKnotFormat</text>
<text text-anchor="start" x="184" y="-307.8" font-family="Helvetica,sans-Serif" font-size="8.00">Methods:</text>
<polyline fill="none" stroke="black" points="176,-299 354,-299 "/>
<text text-anchor="start" x="184" y="-287.8" font-family="Helvetica,sans-Serif" font-size="8.00">+ LoadSavegameScreen (Core.Game game)</text>
<text text-anchor="start" x="184" y="-275.8" font-family="Helvetica,sans-Serif" font-size="8.00">+ Activate (GameTime gameTime)</text>
<text text-anchor="start" x="184" y="-263.8" font-family="Helvetica,sans-Serif" font-size="8.00">+ DrawMenu (GameTime gameTime)</text>
<text text-anchor="start" x="184" y="-251.8" font-family="Helvetica,sans-Serif" font-size="8.00">&#45; AddDefaultKnots ()</text>
<text text-anchor="start" x="184" y="-239.8" font-family="Helvetica,sans-Serif" font-size="8.00">&#45; AddFileToList (string filename)</text>
<text text-anchor="start" x="184" y="-227.8" font-family="Helvetica,sans-Serif" font-size="8.00">&#45; UpdateFiles ()</text>
<text text-anchor="start" x="184" y="-215.8" font-family="Helvetica,sans-Serif" font-size="8.00">+ Initialize ()</text>
<text text-anchor="start" x="184" y="-203.8" font-family="Helvetica,sans-Serif" font-size="8.00">+ UpdateMenu (GameTime gameTime)</text>
</g>
<!-- Box_MenuScreen&#45;&gt;Box_LoadSavegameScreen -->
<g id="edge6" class="edge"><title>Box_MenuScreen&#45;&gt;Box_LoadSavegameScreen</title>
<path fill="none" stroke="midnightblue" d="M258.252,-414.672C258.264,-405.435 258.323,-396.222 258.429,-387.227"/>
<polygon fill="none" stroke="midnightblue" points="254.752,-414.697 258.258,-424.695 261.752,-414.692 254.752,-414.697"/>
</g>
<!-- Box_MenuScreen&#45;&gt;Box_LoadSavegameScreen -->
<g id="edge16" class="edge"><title>Box_MenuScreen&#45;&gt;Box_LoadSavegameScreen</title>
<path fill="none" stroke="midnightblue" d="M271.748,-414.672C271.736,-405.435 271.677,-396.222 271.571,-387.227"/>
<polygon fill="none" stroke="midnightblue" points="268.248,-414.692 271.742,-424.695 275.248,-414.697 268.248,-414.692"/>
</g>
<!-- Box_OptionScreen -->
<g id="node5" class="node"><title>Box_OptionScreen</title>
<polygon fill="#fcfcda" stroke="black" points="372,-219 372,-363 530,-363 530,-219 372,-219"/>
<text text-anchor="middle" x="451" y="-351.8" font-family="Helvetica,sans-Serif" font-size="8.00">OptionScreen</text>
<polyline fill="none" stroke="black" points="372,-343 530,-343 "/>
<text text-anchor="start" x="380" y="-331.8" font-family="Helvetica,sans-Serif" font-size="8.00">Attributes:</text>
<text text-anchor="start" x="380" y="-319.8" font-family="Helvetica,sans-Serif" font-size="8.00">&#45; spriteBatch : SpriteBatch</text>
<text text-anchor="start" x="380" y="-307.8" font-family="Helvetica,sans-Serif" font-size="8.00">&#45; menu : VerticalMenu</text>
<text text-anchor="start" x="380" y="-295.8" font-family="Helvetica,sans-Serif" font-size="8.00">Methods:</text>
<polyline fill="none" stroke="black" points="372,-287 530,-287 "/>
<text text-anchor="start" x="380" y="-275.8" font-family="Helvetica,sans-Serif" font-size="8.00">+ OptionScreen (Core.Game game)</text>
<text text-anchor="start" x="380" y="-263.8" font-family="Helvetica,sans-Serif" font-size="8.00">+ Activate (GameTime gameTime)</text>
<text text-anchor="start" x="380" y="-251.8" font-family="Helvetica,sans-Serif" font-size="8.00">+ DrawMenu (GameTime gameTime)</text>
<text text-anchor="start" x="380" y="-239.8" font-family="Helvetica,sans-Serif" font-size="8.00">+ UpdateMenu (GameTime gameTime)</text>
<text text-anchor="start" x="380" y="-227.8" font-family="Helvetica,sans-Serif" font-size="8.00">+ Initialize ()</text>
</g>
<!-- Box_MenuScreen&#45;&gt;Box_OptionScreen -->
<g id="edge8" class="edge"><title>Box_MenuScreen&#45;&gt;Box_OptionScreen</title>
<path fill="none" stroke="midnightblue" d="M352.489,-416.308C365.87,-398.051 379.403,-379.841 391.982,-363.186"/>
<polygon fill="none" stroke="midnightblue" points="349.434,-414.557 346.356,-424.695 355.084,-418.689 349.434,-414.557"/>
</g>
<!-- Box_MenuScreen&#45;&gt;Box_OptionScreen -->
<g id="edge18" class="edge"><title>Box_MenuScreen&#45;&gt;Box_OptionScreen</title>
<path fill="none" stroke="midnightblue" d="M365.988,-416.308C379.346,-398.051 392.484,-379.841 404.296,-363.186"/>
<polygon fill="none" stroke="midnightblue" points="362.93,-414.56 359.839,-424.695 368.575,-418.7 362.93,-414.56"/>
</g>
<!-- Box_GameState -->
<g id="node2" class="node"><title>Box_GameState</title>
<polygon fill="#fcfcda" stroke="black" points="76,-703 76,-979 454,-979 454,-703 76,-703"/>
<text text-anchor="middle" x="265" y="-967.8" font-family="Helvetica,sans-Serif" font-size="8.00">GameState</text>
<polyline fill="none" stroke="black" points="76,-959 454,-959 "/>
<text text-anchor="start" x="84" y="-947.8" font-family="Helvetica,sans-Serif" font-size="8.00">Attributes:</text>
<text text-anchor="start" x="84" y="-935.8" font-family="Helvetica,sans-Serif" font-size="8.00">+ content : ContentManager</text>
<text text-anchor="start" x="84" y="-923.8" font-family="Helvetica,sans-Serif" font-size="8.00">+ NextState : GameState</text>
<text text-anchor="start" x="84" y="-911.8" font-family="Helvetica,sans-Serif" font-size="8.00">+ device : GraphicsDevice</text>
<text text-anchor="start" x="84" y="-899.8" font-family="Helvetica,sans-Serif" font-size="8.00">+ RenderEffects : RenderEffectStack</text>
<text text-anchor="start" x="84" y="-887.8" font-family="Helvetica,sans-Serif" font-size="8.00">+ viewport : Viewport</text>
<text text-anchor="start" x="84" y="-875.8" font-family="Helvetica,sans-Serif" font-size="8.00">+ game : Game</text>
<text text-anchor="start" x="84" y="-863.8" font-family="Helvetica,sans-Serif" font-size="8.00">+ graphics : GraphicsDeviceManager</text>
<text text-anchor="start" x="84" y="-851.8" font-family="Helvetica,sans-Serif" font-size="8.00">+ input : Input</text>
<text text-anchor="start" x="84" y="-839.8" font-family="Helvetica,sans-Serif" font-size="8.00">+ PostProcessing : RenderEffect</text>
<text text-anchor="start" x="84" y="-827.8" font-family="Helvetica,sans-Serif" font-size="8.00">Methods:</text>
<polyline fill="none" stroke="black" points="76,-819 454,-819 "/>
<text text-anchor="start" x="84" y="-807.8" font-family="Helvetica,sans-Serif" font-size="8.00">+ Draw (GameTime gameTime) abstract</text>
<text text-anchor="start" x="84" y="-795.8" font-family="Helvetica,sans-Serif" font-size="8.00">+ Initialize () abstract</text>
<text text-anchor="start" x="84" y="-783.8" font-family="Helvetica,sans-Serif" font-size="8.00">+ Unload () abstract</text>
<text text-anchor="start" x="84" y="-771.8" font-family="Helvetica,sans-Serif" font-size="8.00">+ Activate (GameTime gameTime) virtual</text>
<text text-anchor="start" x="84" y="-759.8" font-family="Helvetica,sans-Serif" font-size="8.00">+ GameState (Game game)</text>
<text text-anchor="start" x="84" y="-747.8" font-family="Helvetica,sans-Serif" font-size="8.00">+ Update (GameTime gameTime) abstract</text>
<text text-anchor="start" x="84" y="-735.8" font-family="Helvetica,sans-Serif" font-size="8.00">+ Deactivate (GameTime gameTime) virtual</text>
<text text-anchor="start" x="84" y="-723.8" font-family="Helvetica,sans-Serif" font-size="8.00">+ AddGameComponents (GameTime gameTime, params IGameStateComponent[] components)</text>
<text text-anchor="start" x="84" y="-711.8" font-family="Helvetica,sans-Serif" font-size="8.00">+ RemoveGameComponents (GameTime gameTime, params IGameStateComponent[] components)</text>
</g>
<!-- Box_GameState&#45;&gt;Box_MenuScreen -->
<g id="edge2" class="edge"><title>Box_GameState&#45;&gt;Box_MenuScreen</title>
<path fill="none" stroke="midnightblue" d="M265,-692.863C265,-683.547 265,-674.232 265,-665.064"/>
<polygon fill="none" stroke="midnightblue" points="261.5,-692.966 265,-702.966 268.5,-692.966 261.5,-692.966"/>
</g>
<!-- Box_VideoOptionScreen -->
<g id="node6" class="node"><title>Box_VideoOptionScreen</title>
<polygon fill="#fcfcda" stroke="black" points="368.5,-1 368.5,-157 533.5,-157 533.5,-1 368.5,-1"/>
<text text-anchor="middle" x="451" y="-145.8" font-family="Helvetica,sans-Serif" font-size="8.00">VideoOptionScreen</text>
<polyline fill="none" stroke="black" points="368.5,-137 533.5,-137 "/>
<text text-anchor="start" x="376.5" y="-125.8" font-family="Helvetica,sans-Serif" font-size="8.00">Attributes:</text>
<text text-anchor="start" x="376.5" y="-113.8" font-family="Helvetica,sans-Serif" font-size="8.00">&#45; spriteBatch : SpriteBatch</text>
<text text-anchor="start" x="376.5" y="-101.8" font-family="Helvetica,sans-Serif" font-size="8.00">&#45; menu : VerticalMenu</text>
<text text-anchor="start" x="376.5" y="-89.8" font-family="Helvetica,sans-Serif" font-size="8.00">Methods:</text>
<polyline fill="none" stroke="black" points="368.5,-81 533.5,-81 "/>
<text text-anchor="start" x="376.5" y="-69.8" font-family="Helvetica,sans-Serif" font-size="8.00">+ VideoOptionScreen (Core.Game game)</text>
<text text-anchor="start" x="376.5" y="-57.8" font-family="Helvetica,sans-Serif" font-size="8.00">+ Activate (GameTime gameTime)</text>
<text text-anchor="start" x="376.5" y="-45.8" font-family="Helvetica,sans-Serif" font-size="8.00">+ DrawMenu (GameTime gameTime)</text>
<text text-anchor="start" x="376.5" y="-33.8" font-family="Helvetica,sans-Serif" font-size="8.00">+ Initialize ()</text>
<text text-anchor="start" x="376.5" y="-21.8" font-family="Helvetica,sans-Serif" font-size="8.00">+ UpdateMenu (GameTime gameTime)</text>
<text text-anchor="start" x="376.5" y="-9.8" font-family="Helvetica,sans-Serif" font-size="8.00">+ Collapse (MenuItem item)</text>
</g>
<!-- Box_OptionScreen&#45;&gt;Box_VideoOptionScreen -->
<g id="edge22" class="edge"><title>Box_OptionScreen&#45;&gt;Box_VideoOptionScreen</title>
<path fill="none" stroke="midnightblue" d="M431.2,-208.514C430.542,-191.583 430.606,-173.81 431.39,-157.041"/>
<polygon fill="none" stroke="midnightblue" points="427.724,-209.111 431.702,-218.931 434.716,-208.774 427.724,-209.111"/>
</g>
<!-- Box_OptionScreen&#45;&gt;Box_VideoOptionScreen -->
<g id="edge10" class="edge"><title>Box_OptionScreen&#45;&gt;Box_VideoOptionScreen</title>
<path fill="none" stroke="midnightblue" d="M444.4,-208.514C444.181,-191.583 444.202,-173.81 444.463,-157.041"/>
<polygon fill="none" stroke="midnightblue" points="440.907,-208.988 444.567,-218.931 447.906,-208.876 440.907,-208.988"/>
</g>
<!-- Box_OptionScreen&#45;&gt;Box_VideoOptionScreen -->
<g id="edge12" class="edge"><title>Box_OptionScreen&#45;&gt;Box_VideoOptionScreen</title>
<path fill="none" stroke="midnightblue" d="M457.6,-208.514C457.819,-191.583 457.798,-173.81 457.537,-157.041"/>
<polygon fill="none" stroke="midnightblue" points="454.094,-208.876 457.433,-218.931 461.093,-208.988 454.094,-208.876"/>
</g>
<!-- Box_OptionScreen&#45;&gt;Box_VideoOptionScreen -->
<g id="edge20" class="edge"><title>Box_OptionScreen&#45;&gt;Box_VideoOptionScreen</title>
<path fill="none" stroke="midnightblue" d="M470.8,-208.514C471.458,-191.583 471.394,-173.81 470.61,-157.041"/>
<polygon fill="none" stroke="midnightblue" points="467.284,-208.774 470.298,-218.931 474.276,-209.111 467.284,-208.774"/>
</g>
</g>
</svg>
