<?xml version="1.0" encoding="UTF-8" standalone="no"?>
<!DOCTYPE svg PUBLIC "-//W3C//DTD SVG 1.1//EN"
 "http://www.w3.org/Graphics/SVG/1.1/DTD/svg11.dtd">
<!-- Generated by graphviz version 2.26.3 (20100126.1600)
 -->
<!-- Title: MenuItem Pages: 1 -->
<svg width="2612pt" height="2483pt"
 viewBox="0.00 0.00 627.00 596.00" xmlns="http://www.w3.org/2000/svg" xmlns:xlink="http://www.w3.org/1999/xlink">
<g id="graph1" class="graph" transform="scale(4.16667 4.16667) rotate(0) translate(4 592)">
<title>MenuItem</title>
<polygon fill="white" stroke="white" points="-4,5 -4,-592 624,-592 624,5 -4,5"/>
<!-- Box_ColorPicker -->
<g id="node1" class="node"><title>Box_ColorPicker</title>
<polygon fill="#fcfcda" stroke="black" points="135,-1 135,-185 435,-185 435,-1 135,-1"/>
<text text-anchor="middle" x="285" y="-173.8" font-family="Arial" font-size="8.00">ColorPicker</text>
<polyline fill="none" stroke="black" points="135,-167 435,-167 "/>
<text text-anchor="start" x="143" y="-155.8" font-family="Arial" font-size="8.00">&#45; tiles : List&lt;Vector2&gt;</text>
<text text-anchor="start" x="143" y="-145.8" font-family="Arial" font-size="8.00">+ SelectedColor : Color</text>
<text text-anchor="start" x="143" y="-135.8" font-family="Arial" font-size="8.00">+ IsMouseEventEnabled : bool</text>
<text text-anchor="start" x="143" y="-125.8" font-family="Arial" font-size="8.00">&#45; colors : List&lt;Color&gt;</text>
<text text-anchor="start" x="143" y="-115.8" font-family="Arial" font-size="8.00"># spriteBatch : SpriteBatch</text>
<text text-anchor="start" x="143" y="-105.8" font-family="Arial" font-size="8.00">+ OnSelectColor : Action&lt;Color&gt;</text>
<polyline fill="none" stroke="black" points="135,-99 435,-99 "/>
<text text-anchor="start" x="143" y="-87.8" font-family="Arial" font-size="8.00">&#45; Vector2 tileSize (0.032f, 0.032f) : readonly static</text>
<text text-anchor="start" x="143" y="-77.8" font-family="Arial" font-size="8.00">&#45; CreateTiles (IEnumerable&lt;Color&gt; _colors) : IEnumerable&lt;Vector2&gt; static</text>
<text text-anchor="start" x="143" y="-67.8" font-family="Arial" font-size="8.00">+ ColorPicker (GameScreen screen, WidgetInfo info, DisplayLayer drawOrder)</text>
<text text-anchor="start" x="143" y="-57.8" font-family="Arial" font-size="8.00">+ Draw (GameTime gameTime)</text>
<text text-anchor="start" x="143" y="-47.8" font-family="Arial" font-size="8.00">+ OnRightClick (Vector2 position, ClickState click, GameTime gameTime)</text>
<text text-anchor="start" x="143" y="-37.8" font-family="Arial" font-size="8.00">+ SetHovered (bool hovered)</text>
<text text-anchor="start" x="143" y="-27.8" font-family="Arial" font-size="8.00">&#45; CreateColors (int num) : IEnumerable&lt;Color&gt; static</text>
<text text-anchor="start" x="143" y="-17.8" font-family="Arial" font-size="8.00">&#45; SelectColor (Color color)</text>
<text text-anchor="start" x="143" y="-7.8" font-family="Arial" font-size="8.00">+ OnLeftClick (Vector2 position, ClickState click, GameTime gameTime)</text>
</g>
<!-- Box_IMouseEventListener -->
<g id="node2" class="node"><title>Box_IMouseEventListener</title>
<polygon fill="#dafcda" stroke="black" points="0,-223 0,-317 274,-317 274,-223 0,-223"/>
<text text-anchor="middle" x="137" y="-305.8" font-family="Arial" font-size="8.00">IMouseEventListener</text>
<polyline fill="none" stroke="black" points="0,-299 274,-299 "/>
<text text-anchor="start" x="8" y="-287.8" font-family="Arial" font-size="8.00">+ Index : DisplayLayer</text>
<text text-anchor="start" x="8" y="-277.8" font-family="Arial" font-size="8.00">+ IsMouseEventEnabled : bool</text>
<polyline fill="none" stroke="black" points="0,-271 274,-271 "/>
<text text-anchor="start" x="8" y="-259.8" font-family="Arial" font-size="8.00">+ OnLeftClick (Vector2 position, ClickState click, GameTime gameTime)</text>
<text text-anchor="start" x="8" y="-249.8" font-family="Arial" font-size="8.00">+ OnRightClick (Vector2 position, ClickState click, GameTime gameTime)</text>
<text text-anchor="start" x="8" y="-239.8" font-family="Arial" font-size="8.00">+ SetHovered (bool hovered)</text>
<text text-anchor="start" x="8" y="-229.8" font-family="Arial" font-size="8.00">+ bounds () : Rectangle</text>
</g>
<!-- Box_IMouseEventListener&#45;&gt;Box_ColorPicker -->
<g id="edge4" class="edge"><title>Box_IMouseEventListener&#45;&gt;Box_ColorPicker</title>
<path fill="none" stroke="midnightblue" d="M183.146,-214.812C191.014,-205.402 199.375,-195.403 207.791,-185.337"/>
<polygon fill="none" stroke="midnightblue" points="180.391,-212.651 176.661,-222.567 185.761,-217.141 180.391,-212.651"/>
</g>
<!-- Box_Widget -->
<g id="node3" class="node"><title>Box_Widget</title>
<polygon fill="#fcfcda" stroke="black" points="292,-233 292,-307 576,-307 576,-233 292,-233"/>
<text text-anchor="middle" x="434" y="-295.8" font-family="Arial" font-size="8.00">Widget</text>
<polyline fill="none" stroke="black" points="292,-289 576,-289 "/>
<text text-anchor="start" x="300" y="-277.8" font-family="Arial" font-size="8.00">+ Info : WidgetInfo</text>
<text text-anchor="start" x="300" y="-267.8" font-family="Arial" font-size="8.00">+ IsVisible : bool virtual</text>
<polyline fill="none" stroke="black" points="292,-261 576,-261 "/>
<text text-anchor="start" x="300" y="-249.8" font-family="Arial" font-size="8.00">+ bounds () : Rectangle</text>
<text text-anchor="start" x="300" y="-239.8" font-family="Arial" font-size="8.00">+ Widget (GameScreen screen, WidgetInfo info, DisplayLayer drawOrder)</text>
</g>
<!-- Box_Widget&#45;&gt;Box_ColorPicker -->
<g id="edge2" class="edge"><title>Box_Widget&#45;&gt;Box_ColorPicker</title>
<path fill="none" stroke="midnightblue" d="M396.166,-225.056C385.831,-212.779 374.242,-199.012 362.552,-185.126"/>
<polygon fill="none" stroke="midnightblue" points="393.647,-227.499 402.765,-232.895 399.002,-222.991 393.647,-227.499"/>
</g>
<!-- Box_DrawableGameScreenComponent -->
<g id="node4" class="node"><title>Box_DrawableGameScreenComponent</title>
<polygon fill="#fcfcda" stroke="black" points="264.5,-355 264.5,-439 603.5,-439 603.5,-355 264.5,-355"/>
<text text-anchor="middle" x="434" y="-427.8" font-family="Arial" font-size="8.00">DrawableGameScreenComponent</text>
<polyline fill="none" stroke="black" points="264.5,-421 603.5,-421 "/>
<text text-anchor="start" x="272.5" y="-409.8" font-family="Arial" font-size="8.00">+ Index : DisplayLayer</text>
<text text-anchor="start" x="272.5" y="-399.8" font-family="Arial" font-size="8.00">&#45; _index : DisplayLayer</text>
<text text-anchor="start" x="272.5" y="-389.8" font-family="Arial" font-size="8.00">+ screen : GameScreen</text>
<polyline fill="none" stroke="black" points="264.5,-383 603.5,-383 "/>
<text text-anchor="start" x="272.5" y="-371.8" font-family="Arial" font-size="8.00">+ DrawableGameScreenComponent (GameScreen screen, DisplayLayer index)</text>
<text text-anchor="start" x="272.5" y="-361.8" font-family="Arial" font-size="8.00">+ SubComponents (GameTime gameTime) : IEnumerable&lt;IGameScreenComponent&gt; virtual</text>
</g>
<!-- Box_DrawableGameScreenComponent&#45;&gt;Box_Widget -->
<g id="edge6" class="edge"><title>Box_DrawableGameScreenComponent&#45;&gt;Box_Widget</title>
<path fill="none" stroke="midnightblue" d="M434,-344.449C434,-332.019 434,-319.013 434,-307.412"/>
<polygon fill="none" stroke="midnightblue" points="430.5,-344.711 434,-354.711 437.5,-344.711 430.5,-344.711"/>
</g>
<!-- Box_IGameScreenComponent -->
<g id="node5" class="node"><title>Box_IGameScreenComponent</title>
<polygon fill="#dafcda" stroke="black" points="156.5,-477 156.5,-531 471.5,-531 471.5,-477 156.5,-477"/>
<text text-anchor="middle" x="314" y="-519.8" font-family="Arial" font-size="8.00">IGameScreenComponent</text>
<polyline fill="none" stroke="black" points="156.5,-513 471.5,-513 "/>
<text text-anchor="start" x="164.5" y="-501.8" font-family="Arial" font-size="8.00">+ Index : DisplayLayer</text>
<polyline fill="none" stroke="black" points="156.5,-495 471.5,-495 "/>
<text text-anchor="start" x="164.5" y="-483.8" font-family="Arial" font-size="8.00">+ SubComponents (GameTime gameTime) : IEnumerable&lt;IGameScreenComponent&gt;</text>
</g>
<!-- Box_IGameScreenComponent&#45;&gt;Box_DrawableGameScreenComponent -->
<g id="edge10" class="edge"><title>Box_IGameScreenComponent&#45;&gt;Box_DrawableGameScreenComponent</title>
<path fill="none" stroke="midnightblue" d="M352.017,-470.102C362.949,-460.354 375.012,-449.598 386.444,-439.404"/>
<polygon fill="none" stroke="midnightblue" points="349.416,-467.732 344.281,-476.999 354.074,-472.956 349.416,-467.732"/>
</g>
<!-- Box_XnaDrawableGameComponent -->
<g id="node6" class="node"><title>Box_XnaDrawableGameComponent</title>
<polygon fill="#ffffff" stroke="black" points="489,-495 489,-513 619,-513 619,-495 489,-495"/>
<text text-anchor="middle" x="554" y="-501.8" font-family="Arial" font-size="8.00">Xna.DrawableGameComponent</text>
</g>
<!-- Box_XnaDrawableGameComponent&#45;&gt;Box_DrawableGameScreenComponent -->
<g id="edge8" class="edge"><title>Box_XnaDrawableGameComponent&#45;&gt;Box_DrawableGameScreenComponent</title>
<path fill="none" stroke="midnightblue" d="M536.077,-488.018C521.616,-475.124 500.59,-456.376 481.373,-439.241"/>
<polygon fill="none" stroke="midnightblue" points="533.976,-490.834 543.769,-494.877 538.634,-485.61 533.976,-490.834"/>
</g>
<!-- Box_XnaIGameComponent -->
<g id="node7" class="node"><title>Box_XnaIGameComponent</title>
<polygon fill="#ffffff" stroke="black" points="266,-569 266,-587 362,-587 362,-569 266,-569"/>
<text text-anchor="middle" x="314" y="-575.8" font-family="Arial" font-size="8.00">Xna.IGameComponent</text>
</g>
<!-- Box_XnaIGameComponent&#45;&gt;Box_IGameScreenComponent -->
<g id="edge12" class="edge"><title>Box_XnaIGameComponent&#45;&gt;Box_IGameScreenComponent</title>
<path fill="none" stroke="midnightblue" d="M314,-558.64C314,-550.2 314,-540.16 314,-531.004"/>
<polygon fill="none" stroke="midnightblue" points="310.5,-558.926 314,-568.926 317.5,-558.926 310.5,-558.926"/>
</g>
</g>
</svg>
