<?xml version="1.0" encoding="UTF-8" standalone="no"?>
<!DOCTYPE svg PUBLIC "-//W3C//DTD SVG 1.1//EN"
 "http://www.w3.org/Graphics/SVG/1.1/DTD/svg11.dtd">
<!-- Generated by graphviz version 2.26.3 (20100126.1600)
 -->
<!-- Title: MenuItem Pages: 1 -->
<svg width="1358pt" height="1975pt"
 viewBox="0.00 0.00 326.00 474.00" xmlns="http://www.w3.org/2000/svg" xmlns:xlink="http://www.w3.org/1999/xlink">
<g id="graph1" class="graph" transform="scale(4.16667 4.16667) rotate(0) translate(4 470)">
<title>MenuItem</title>
<polygon fill="white" stroke="white" points="-4,5 -4,-470 323,-470 323,5 -4,5"/>
<!-- Box_PipeModelInfo -->
<g id="node1" class="node"><title>Box_PipeModelInfo</title>
<polygon fill="#fcfcda" stroke="black" points="-0.5,-1 -0.5,-115 318.5,-115 318.5,-1 -0.5,-1"/>
<text text-anchor="middle" x="159" y="-103.8" font-family="Arial" font-size="8.00">PipeModelInfo</text>
<polyline fill="none" stroke="black" points="-0.5,-97 318.5,-97 "/>
<text text-anchor="start" x="7.5" y="-85.8" font-family="Arial" font-size="8.00">+ Edge : Edge</text>
<text text-anchor="start" x="7.5" y="-75.8" font-family="Arial" font-size="8.00">+ NodeMap : NodeMap</text>
<text text-anchor="start" x="7.5" y="-65.8" font-family="Arial" font-size="8.00">+ Direction : Vector3</text>
<text text-anchor="start" x="7.5" y="-55.8" font-family="Arial" font-size="8.00">+ PositionFrom : Vector3</text>
<text text-anchor="start" x="7.5" y="-45.8" font-family="Arial" font-size="8.00">+ PositionTo : Vector3</text>
<text text-anchor="start" x="7.5" y="-35.8" font-family="Arial" font-size="8.00">+ EdgeList : EdgeList</text>
<polyline fill="none" stroke="black" points="-0.5,-29 318.5,-29 "/>
<text text-anchor="start" x="7.5" y="-17.8" font-family="Arial" font-size="8.00">+ PipeModelInfo (EdgeList edgeList, NodeMap nodeMap, Edge edge, Vector3 offset)</text>
<text text-anchor="start" x="7.5" y="-7.8" font-family="Arial" font-size="8.00">+ Equals (GameObjectInfo other) : bool</text>
</g>
<!-- Box_GameModelInfo -->
<g id="node2" class="node"><title>Box_GameModelInfo</title>
<polygon fill="#fcfcda" stroke="black" points="81,-153 81,-237 237,-237 237,-153 81,-153"/>
<text text-anchor="middle" x="159" y="-225.8" font-family="Arial" font-size="8.00">GameModelInfo</text>
<polyline fill="none" stroke="black" points="81,-219 237,-219 "/>
<text text-anchor="start" x="89" y="-207.8" font-family="Arial" font-size="8.00">+ Rotation : Angles3</text>
<text text-anchor="start" x="89" y="-197.8" font-family="Arial" font-size="8.00">+ Scale : Vector3</text>
<text text-anchor="start" x="89" y="-187.8" font-family="Arial" font-size="8.00">+ Modelname : string</text>
<polyline fill="none" stroke="black" points="81,-181 237,-181 "/>
<text text-anchor="start" x="89" y="-169.8" font-family="Arial" font-size="8.00">+ GameModelInfo (string modelname)</text>
<text text-anchor="start" x="89" y="-159.8" font-family="Arial" font-size="8.00">+ Equals (GameObjectInfo other) : bool</text>
</g>
<!-- Box_GameModelInfo&#45;&gt;Box_PipeModelInfo -->
<g id="edge2" class="edge"><title>Box_GameModelInfo&#45;&gt;Box_PipeModelInfo</title>
<path fill="none" stroke="midnightblue" d="M159,-142.506C159,-133.571 159,-124.252 159,-115.204"/>
<polygon fill="none" stroke="midnightblue" points="155.5,-142.778 159,-152.778 162.5,-142.778 155.5,-142.778"/>
</g>
<!-- Box_GameObjectInfo -->
<g id="node3" class="node"><title>Box_GameObjectInfo</title>
<polygon fill="#fcfcda" stroke="black" points="33,-275 33,-409 285,-409 285,-275 33,-275"/>
<text text-anchor="middle" x="159" y="-397.8" font-family="Arial" font-size="8.00">GameObjectInfo</text>
<polyline fill="none" stroke="black" points="33,-391 285,-391 "/>
<text text-anchor="start" x="41" y="-379.8" font-family="Arial" font-size="8.00">+ IsMovable : bool</text>
<text text-anchor="start" x="41" y="-369.8" font-family="Arial" font-size="8.00">+ IsSelectable : bool</text>
<text text-anchor="start" x="41" y="-359.8" font-family="Arial" font-size="8.00">+ IsVisible : bool</text>
<text text-anchor="start" x="41" y="-349.8" font-family="Arial" font-size="8.00">+ Position : Vector3</text>
<polyline fill="none" stroke="black" points="33,-343 285,-343 "/>
<text text-anchor="start" x="41" y="-331.8" font-family="Arial" font-size="8.00">+ GameObjectInfo ()</text>
<text text-anchor="start" x="41" y="-321.8" font-family="Arial" font-size="8.00">+ operator (GameObjectInfo o1, GameObjectInfo o2) : bool static</text>
<text text-anchor="start" x="41" y="-311.8" font-family="Arial" font-size="8.00">+ Equals (Object obj) : bool</text>
<text text-anchor="start" x="41" y="-301.8" font-family="Arial" font-size="8.00">+ GetHashCode () : int</text>
<text text-anchor="start" x="41" y="-291.8" font-family="Arial" font-size="8.00">+ operator ! (GameObjectInfo o1, GameObjectInfo o2) : bool static</text>
<text text-anchor="start" x="41" y="-281.8" font-family="Arial" font-size="8.00">+ Equals (GameObjectInfo other) : bool virtual</text>
</g>
<!-- Box_GameObjectInfo&#45;&gt;Box_GameModelInfo -->
<g id="edge4" class="edge"><title>Box_GameObjectInfo&#45;&gt;Box_GameModelInfo</title>
<path fill="none" stroke="midnightblue" d="M159,-264.668C159,-255.194 159,-245.804 159,-237.132"/>
<polygon fill="none" stroke="midnightblue" points="155.5,-264.953 159,-274.953 162.5,-264.953 155.5,-264.953"/>
</g>
<!-- Box_IEquatable -->
<g id="node4" class="node"><title>Box_IEquatable</title>
<polygon fill="#ffffff" stroke="black" points="99,-447 99,-465 219,-465 219,-447 99,-447"/>
<text text-anchor="middle" x="159" y="-453.8" font-family="Arial" font-size="8.00">IEquatable&lt;GameObjectInfo&gt;</text>
</g>
<!-- Box_IEquatable&#45;&gt;Box_GameObjectInfo -->
<g id="edge6" class="edge"><title>Box_IEquatable&#45;&gt;Box_GameObjectInfo</title>
<path fill="none" stroke="midnightblue" d="M159,-436.57C159,-428.742 159,-419.21 159,-409.246"/>
<polygon fill="none" stroke="midnightblue" points="155.5,-436.671 159,-446.671 162.5,-436.671 155.5,-436.671"/>
</g>
</g>
</svg>
