<?xml version="1.0" encoding="UTF-8" standalone="no"?>
<!DOCTYPE svg PUBLIC "-//W3C//DTD SVG 1.1//EN"
 "http://www.w3.org/Graphics/SVG/1.1/DTD/svg11.dtd">
<!-- Generated by graphviz version 2.26.3 (20100126.1600)
 -->
<!-- Title: MenuItem Pages: 1 -->
<svg width="2625pt" height="2150pt"
 viewBox="0.00 0.00 630.00 516.00" xmlns="http://www.w3.org/2000/svg" xmlns:xlink="http://www.w3.org/1999/xlink">
<g id="graph1" class="graph" transform="scale(4.16667 4.16667) rotate(0) translate(4 512)">
<title>MenuItem</title>
<polygon fill="white" stroke="white" points="-4,5 -4,-512 627,-512 627,5 -4,5"/>
<!-- Box_TextInput -->
<g id="node1" class="node"><title>Box_TextInput</title>
<polygon fill="#fcfcda" stroke="black" points="146.5,-1 146.5,-125 433.5,-125 433.5,-1 146.5,-1"/>
<text text-anchor="middle" x="290" y="-113.8" font-family="Arial" font-size="8.00">TextInput</text>
<polyline fill="none" stroke="black" points="146.5,-107 433.5,-107 "/>
<text text-anchor="start" x="154.5" y="-95.8" font-family="Arial" font-size="8.00">&#45; font : SpriteFont</text>
<text text-anchor="start" x="154.5" y="-85.8" font-family="Arial" font-size="8.00"># spriteBatch : SpriteBatch</text>
<text text-anchor="start" x="154.5" y="-75.8" font-family="Arial" font-size="8.00">+ IsKeyEventEnabled : bool</text>
<text text-anchor="start" x="154.5" y="-65.8" font-family="Arial" font-size="8.00">+ ValidKeys : List&lt;Keys&gt;</text>
<text text-anchor="start" x="154.5" y="-55.8" font-family="Arial" font-size="8.00">+ InputText : string</text>
<polyline fill="none" stroke="black" points="146.5,-49 433.5,-49 "/>
<text text-anchor="start" x="154.5" y="-37.8" font-family="Arial" font-size="8.00">+ TextInput (GameState state, WidgetInfo info, DisplayLayer drawOrder)</text>
<text text-anchor="start" x="154.5" y="-27.8" font-family="Arial" font-size="8.00">+ Draw (GameTime gameTime)</text>
<text text-anchor="start" x="154.5" y="-17.8" font-family="Arial" font-size="8.00">+ OnKeyEvent (List&lt;Keys&gt; key, KeyEvent keyEvent, GameTime gameTime)</text>
<text text-anchor="start" x="154.5" y="-7.8" font-family="Arial" font-size="8.00">+ Update (GameTime gameTime)</text>
</g>
<!-- Box_IKeyEventListener -->
<g id="node2" class="node"><title>Box_IKeyEventListener</title>
<polygon fill="#dafcda" stroke="black" points="-0.5,-163 -0.5,-237 286.5,-237 286.5,-163 -0.5,-163"/>
<text text-anchor="middle" x="143" y="-225.8" font-family="Arial" font-size="8.00">IKeyEventListener</text>
<polyline fill="none" stroke="black" points="-0.5,-219 286.5,-219 "/>
<text text-anchor="start" x="7.5" y="-207.8" font-family="Arial" font-size="8.00">+ ValidKeys : List&lt;Keys&gt;</text>
<text text-anchor="start" x="7.5" y="-197.8" font-family="Arial" font-size="8.00">+ Index : DisplayLayer</text>
<text text-anchor="start" x="7.5" y="-187.8" font-family="Arial" font-size="8.00">+ IsKeyEventEnabled : bool</text>
<polyline fill="none" stroke="black" points="-0.5,-181 286.5,-181 "/>
<text text-anchor="start" x="7.5" y="-169.8" font-family="Arial" font-size="8.00">+ OnKeyEvent (List&lt;Keys&gt; key, KeyEvent keyEvent, GameTime gameTime)</text>
</g>
<!-- Box_IKeyEventListener&#45;&gt;Box_TextInput -->
<g id="edge4" class="edge"><title>Box_IKeyEventListener&#45;&gt;Box_TextInput</title>
<path fill="none" stroke="midnightblue" d="M190.279,-155.937C200.799,-146.133 212.142,-135.561 223.277,-125.184"/>
<polygon fill="none" stroke="midnightblue" points="187.71,-153.547 182.78,-162.926 192.482,-158.668 187.71,-153.547"/>
</g>
<!-- Box_Widget -->
<g id="node3" class="node"><title>Box_Widget</title>
<polygon fill="#fcfcda" stroke="black" points="303.5,-163 303.5,-237 572.5,-237 572.5,-163 303.5,-163"/>
<text text-anchor="middle" x="438" y="-225.8" font-family="Arial" font-size="8.00">Widget</text>
<polyline fill="none" stroke="black" points="303.5,-219 572.5,-219 "/>
<text text-anchor="start" x="311.5" y="-207.8" font-family="Arial" font-size="8.00">+ Info : WidgetInfo</text>
<text text-anchor="start" x="311.5" y="-197.8" font-family="Arial" font-size="8.00">+ IsVisible : bool virtual</text>
<polyline fill="none" stroke="black" points="303.5,-191 572.5,-191 "/>
<text text-anchor="start" x="311.5" y="-179.8" font-family="Arial" font-size="8.00">+ bounds () : Rectangle</text>
<text text-anchor="start" x="311.5" y="-169.8" font-family="Arial" font-size="8.00">+ Widget (GameState state, WidgetInfo info, DisplayLayer drawOrder)</text>
</g>
<!-- Box_Widget&#45;&gt;Box_TextInput -->
<g id="edge2" class="edge"><title>Box_Widget&#45;&gt;Box_TextInput</title>
<path fill="none" stroke="midnightblue" d="M390.399,-155.937C379.808,-146.133 368.387,-135.561 357.177,-125.184"/>
<polygon fill="none" stroke="midnightblue" points="388.233,-158.701 397.949,-162.926 392.988,-153.564 388.233,-158.701"/>
</g>
<!-- Box_DrawableGameStateComponent -->
<g id="node4" class="node"><title>Box_DrawableGameStateComponent</title>
<polygon fill="#fcfcda" stroke="black" points="272,-275 272,-359 604,-359 604,-275 272,-275"/>
<text text-anchor="middle" x="438" y="-347.8" font-family="Arial" font-size="8.00">DrawableGameStateComponent</text>
<polyline fill="none" stroke="black" points="272,-341 604,-341 "/>
<text text-anchor="start" x="280" y="-329.8" font-family="Arial" font-size="8.00">+ Index : DisplayLayer</text>
<text text-anchor="start" x="280" y="-319.8" font-family="Arial" font-size="8.00">&#45; _index : DisplayLayer</text>
<text text-anchor="start" x="280" y="-309.8" font-family="Arial" font-size="8.00">+ state : GameState</text>
<polyline fill="none" stroke="black" points="272,-303 604,-303 "/>
<text text-anchor="start" x="280" y="-291.8" font-family="Arial" font-size="8.00">+ DrawableGameStateComponent (GameState state, DisplayLayer index)</text>
<text text-anchor="start" x="280" y="-281.8" font-family="Arial" font-size="8.00">+ SubComponents (GameTime gameTime) : IEnumerable&lt;IGameStateComponent&gt; virtual</text>
</g>
<!-- Box_DrawableGameStateComponent&#45;&gt;Box_Widget -->
<g id="edge6" class="edge"><title>Box_DrawableGameStateComponent&#45;&gt;Box_Widget</title>
<path fill="none" stroke="midnightblue" d="M438,-264.482C438,-255.258 438,-245.834 438,-237.14"/>
<polygon fill="none" stroke="midnightblue" points="434.5,-264.76 438,-274.76 441.5,-264.76 434.5,-264.76"/>
</g>
<!-- Box_IGameStateComponent -->
<g id="node5" class="node"><title>Box_IGameStateComponent</title>
<polygon fill="#dafcda" stroke="black" points="166,-397 166,-451 474,-451 474,-397 166,-397"/>
<text text-anchor="middle" x="320" y="-439.8" font-family="Arial" font-size="8.00">IGameStateComponent</text>
<polyline fill="none" stroke="black" points="166,-433 474,-433 "/>
<text text-anchor="start" x="174" y="-421.8" font-family="Arial" font-size="8.00">+ Index : DisplayLayer</text>
<polyline fill="none" stroke="black" points="166,-415 474,-415 "/>
<text text-anchor="start" x="174" y="-403.8" font-family="Arial" font-size="8.00">+ SubComponents (GameTime gameTime) : IEnumerable&lt;IGameStateComponent&gt;</text>
</g>
<!-- Box_IGameStateComponent&#45;&gt;Box_DrawableGameStateComponent -->
<g id="edge10" class="edge"><title>Box_IGameStateComponent&#45;&gt;Box_DrawableGameStateComponent</title>
<path fill="none" stroke="midnightblue" d="M357.383,-390.102C368.133,-380.354 379.995,-369.598 391.236,-359.404"/>
<polygon fill="none" stroke="midnightblue" points="354.833,-387.689 349.776,-396.999 359.535,-392.875 354.833,-387.689"/>
</g>
<!-- Box_XnaDrawableGameComponent -->
<g id="node6" class="node"><title>Box_XnaDrawableGameComponent</title>
<polygon fill="#ffffff" stroke="black" points="492,-415 492,-433 622,-433 622,-415 492,-415"/>
<text text-anchor="middle" x="557" y="-421.8" font-family="Arial" font-size="8.00">Xna.DrawableGameComponent</text>
</g>
<!-- Box_XnaDrawableGameComponent&#45;&gt;Box_DrawableGameStateComponent -->
<g id="edge8" class="edge"><title>Box_XnaDrawableGameComponent&#45;&gt;Box_DrawableGameStateComponent</title>
<path fill="none" stroke="midnightblue" d="M539.226,-408.018C524.886,-395.124 504.035,-376.376 484.979,-359.241"/>
<polygon fill="none" stroke="midnightblue" points="537.078,-410.794 546.854,-414.877 541.758,-405.588 537.078,-410.794"/>
</g>
<!-- Box_XnaIGameComponent -->
<g id="node7" class="node"><title>Box_XnaIGameComponent</title>
<polygon fill="#ffffff" stroke="black" points="272,-489 272,-507 368,-507 368,-489 272,-489"/>
<text text-anchor="middle" x="320" y="-495.8" font-family="Arial" font-size="8.00">Xna.IGameComponent</text>
</g>
<!-- Box_XnaIGameComponent&#45;&gt;Box_IGameStateComponent -->
<g id="edge12" class="edge"><title>Box_XnaIGameComponent&#45;&gt;Box_IGameStateComponent</title>
<path fill="none" stroke="midnightblue" d="M320,-478.64C320,-470.2 320,-460.16 320,-451.004"/>
<polygon fill="none" stroke="midnightblue" points="316.5,-478.926 320,-488.926 323.5,-478.926 316.5,-478.926"/>
</g>
</g>
</svg>
