<?xml version="1.0" encoding="UTF-8" standalone="no"?>
<!DOCTYPE svg PUBLIC "-//W3C//DTD SVG 1.1//EN"
 "http://www.w3.org/Graphics/SVG/1.1/DTD/svg11.dtd">
<!-- Generated by graphviz version 2.26.3 (20100126.1600)
 -->
<!-- Title: MenuItem Pages: 1 -->
<svg width="8808pt" height="5467pt"
 viewBox="0.00 0.00 2114.00 1312.00" xmlns="http://www.w3.org/2000/svg" xmlns:xlink="http://www.w3.org/1999/xlink">
<g id="graph1" class="graph" transform="scale(4.16667 4.16667) rotate(0) translate(4 1308)">
<title>MenuItem</title>
<polygon fill="white" stroke="white" points="-4,5 -4,-1308 2111,-1308 2111,5 -4,5"/>
<!-- Box_DrawableGameScreenComponent -->
<g id="node1" class="node"><title>Box_DrawableGameScreenComponent</title>
<polygon fill="#fcfcda" stroke="black" points="447.5,-1071 447.5,-1155 764.5,-1155 764.5,-1071 447.5,-1071"/>
<text text-anchor="middle" x="606" y="-1143.8" font-family="Arial" font-size="8.00">DrawableGameScreenComponent</text>
<polyline fill="none" stroke="black" points="447.5,-1137 764.5,-1137 "/>
<text text-anchor="start" x="455.5" y="-1125.8" font-family="Arial" font-size="8.00">+ Index : DisplayLayer</text>
<text text-anchor="start" x="455.5" y="-1115.8" font-family="Arial" font-size="8.00">&#45; _index : DisplayLayer</text>
<text text-anchor="start" x="455.5" y="-1105.8" font-family="Arial" font-size="8.00">+ screen : GameScreen</text>
<polyline fill="none" stroke="black" points="447.5,-1099 764.5,-1099 "/>
<text text-anchor="start" x="455.5" y="-1087.8" font-family="Arial" font-size="8.00">+ DrawableGameScreenComponent (GameScreen screen, DisplayLayer index)</text>
<text text-anchor="start" x="455.5" y="-1077.8" font-family="Arial" font-size="8.00">+ SubComponents (GameTime time) : IEnumerable&lt;IGameScreenComponent&gt; virtual</text>
</g>
<!-- Box_MousePointer -->
<g id="node3" class="node"><title>Box_MousePointer</title>
<polygon fill="#fcfcda" stroke="black" points="-0.5,-869 -0.5,-943 154.5,-943 154.5,-869 -0.5,-869"/>
<text text-anchor="middle" x="77" y="-931.8" font-family="Arial" font-size="8.00">MousePointer</text>
<polyline fill="none" stroke="black" points="-0.5,-925 154.5,-925 "/>
<text text-anchor="start" x="7.5" y="-913.8" font-family="Arial" font-size="8.00">&#45; spriteBatch : SpriteBatch</text>
<polyline fill="none" stroke="black" points="-0.5,-907 154.5,-907 "/>
<text text-anchor="start" x="7.5" y="-895.8" font-family="Arial" font-size="8.00">+ MousePointer (GameScreen screen)</text>
<text text-anchor="start" x="7.5" y="-885.8" font-family="Arial" font-size="8.00">&#45; DrawCursor (GameTime time)</text>
<text text-anchor="start" x="7.5" y="-875.8" font-family="Arial" font-size="8.00">+ Draw (GameTime time)</text>
</g>
<!-- Box_DrawableGameScreenComponent&#45;&gt;Box_MousePointer -->
<g id="edge8" class="edge"><title>Box_DrawableGameScreenComponent&#45;&gt;Box_MousePointer</title>
<path fill="none" stroke="midnightblue" d="M437.34,-1096.66C331.906,-1083.86 207.891,-1063.27 163,-1034 129.698,-1012.28 106.093,-972.692 92.1414,-943.269"/>
<polygon fill="none" stroke="midnightblue" points="437.137,-1100.16 447.482,-1097.88 437.97,-1093.21 437.137,-1100.16"/>
</g>
<!-- Box_Overlay -->
<g id="node4" class="node"><title>Box_Overlay</title>
<polygon fill="#fcfcda" stroke="black" points="171.5,-779 171.5,-1033 500.5,-1033 500.5,-779 171.5,-779"/>
<text text-anchor="middle" x="336" y="-1021.8" font-family="Arial" font-size="8.00">Overlay</text>
<polyline fill="none" stroke="black" points="171.5,-1015 500.5,-1015 "/>
<text text-anchor="start" x="179.5" y="-1003.8" font-family="Arial" font-size="8.00">&#45; effect : BasicEffect</text>
<text text-anchor="start" x="179.5" y="-993.8" font-family="Arial" font-size="8.00">&#45; _elapsed_time : float</text>
<text text-anchor="start" x="179.5" y="-983.8" font-family="Arial" font-size="8.00">&#45; _fps : int</text>
<text text-anchor="start" x="179.5" y="-973.8" font-family="Arial" font-size="8.00">&#45; World : World</text>
<text text-anchor="start" x="179.5" y="-963.8" font-family="Arial" font-size="8.00">+ HashtableWrapper : class</text>
<text text-anchor="start" x="179.5" y="-953.8" font-family="Arial" font-size="8.00">&#45; _total_frames : int</text>
<text text-anchor="start" x="179.5" y="-943.8" font-family="Arial" font-size="8.00">&#45; spriteBatch : SpriteBatch</text>
<text text-anchor="start" x="179.5" y="-933.8" font-family="Arial" font-size="8.00">&#45; font : SpriteFont</text>
<polyline fill="none" stroke="black" points="171.5,-927 500.5,-927 "/>
<text text-anchor="start" x="179.5" y="-915.8" font-family="Arial" font-size="8.00">&#45; profiler () : Hashtable static</text>
<text text-anchor="start" x="179.5" y="-905.8" font-family="Arial" font-size="8.00">+ Profiler () : HashtableWrapper static</text>
<text text-anchor="start" x="179.5" y="-895.8" font-family="Arial" font-size="8.00">&#45; DrawFPS (GameTime time)</text>
<text text-anchor="start" x="179.5" y="-885.8" font-family="Arial" font-size="8.00">&#45; DrawString (float n, int width, int height, Color color)</text>
<text text-anchor="start" x="179.5" y="-875.8" font-family="Arial" font-size="8.00">&#45; DrawVectorCoordinates (Vector3 vector, int width2, int width3, int width4, int height)</text>
<text text-anchor="start" x="179.5" y="-865.8" font-family="Arial" font-size="8.00">&#45; UpdateFPS (GameTime time)</text>
<text text-anchor="start" x="179.5" y="-855.8" font-family="Arial" font-size="8.00">+ Overlay (GameScreen screen, World world)</text>
<text text-anchor="start" x="179.5" y="-845.8" font-family="Arial" font-size="8.00">+ Draw (GameTime time)</text>
<text text-anchor="start" x="179.5" y="-835.8" font-family="Arial" font-size="8.00">&#45; DrawCoordinates (GameTime time)</text>
<text text-anchor="start" x="179.5" y="-825.8" font-family="Arial" font-size="8.00">&#45; DrawOverlay (GameTime time)</text>
<text text-anchor="start" x="179.5" y="-815.8" font-family="Arial" font-size="8.00">&#45; DrawProfiler (GameTime time)</text>
<text text-anchor="start" x="179.5" y="-805.8" font-family="Arial" font-size="8.00">&#45; DrawString (string str, int width, int height, Color color)</text>
<text text-anchor="start" x="179.5" y="-795.8" font-family="Arial" font-size="8.00"># LoadContent ()</text>
<text text-anchor="start" x="179.5" y="-785.8" font-family="Arial" font-size="8.00">+ Update (GameTime time)</text>
</g>
<!-- Box_DrawableGameScreenComponent&#45;&gt;Box_Overlay -->
<g id="edge10" class="edge"><title>Box_DrawableGameScreenComponent&#45;&gt;Box_Overlay</title>
<path fill="none" stroke="midnightblue" d="M543.025,-1064.72C529.879,-1054.64 515.445,-1043.57 500.504,-1032.12"/>
<polygon fill="none" stroke="midnightblue" points="540.97,-1067.55 551.036,-1070.86 545.229,-1062 540.97,-1067.55"/>
</g>
<!-- Box_World -->
<g id="node5" class="node"><title>Box_World</title>
<polygon fill="#fcfcda" stroke="black" points="1035.5,-789 1035.5,-1023 1328.5,-1023 1328.5,-789 1035.5,-789"/>
<text text-anchor="middle" x="1182" y="-1011.8" font-family="Arial" font-size="8.00">World</text>
<polyline fill="none" stroke="black" points="1035.5,-1005 1328.5,-1005 "/>
<text text-anchor="start" x="1043.5" y="-993.8" font-family="Arial" font-size="8.00">&#45; currentEffect : IRenderEffect</text>
<text text-anchor="start" x="1043.5" y="-983.8" font-family="Arial" font-size="8.00">&#45; _redraw : bool</text>
<text text-anchor="start" x="1043.5" y="-973.8" font-family="Arial" font-size="8.00">+ SelectedObject : IGameObject</text>
<text text-anchor="start" x="1043.5" y="-963.8" font-family="Arial" font-size="8.00">+ Objects : List&lt;IGameObject&gt;</text>
<text text-anchor="start" x="1043.5" y="-953.8" font-family="Arial" font-size="8.00">+ Redraw : bool</text>
<text text-anchor="start" x="1043.5" y="-943.8" font-family="Arial" font-size="8.00">&#45; _selectedObject : IGameObject</text>
<text text-anchor="start" x="1043.5" y="-933.8" font-family="Arial" font-size="8.00">&#45; effects : List&lt;IRenderEffect&gt;</text>
<text text-anchor="start" x="1043.5" y="-923.8" font-family="Arial" font-size="8.00">&#45; floor : TexturedRectangle</text>
<text text-anchor="start" x="1043.5" y="-913.8" font-family="Arial" font-size="8.00">+ Camera : Camera</text>
<polyline fill="none" stroke="black" points="1035.5,-907 1328.5,-907 "/>
<text text-anchor="start" x="1043.5" y="-895.8" font-family="Arial" font-size="8.00">+ SelectionChanged (o) : Action&lt;IGameObject&gt;</text>
<text text-anchor="start" x="1043.5" y="-885.8" font-family="Arial" font-size="8.00">&#45; IEnumerable.GetEnumerator () : IEnumerator</text>
<text text-anchor="start" x="1043.5" y="-875.8" font-family="Arial" font-size="8.00">+ World (GameScreen screen)</text>
<text text-anchor="start" x="1043.5" y="-865.8" font-family="Arial" font-size="8.00">+ SelectedObjectDistance () : float</text>
<text text-anchor="start" x="1043.5" y="-855.8" font-family="Arial" font-size="8.00">+ SubComponents (GameTime time) : IEnumerable&lt;IGameScreenComponent&gt;</text>
<text text-anchor="start" x="1043.5" y="-845.8" font-family="Arial" font-size="8.00">+ Draw (GameTime time)</text>
<text text-anchor="start" x="1043.5" y="-835.8" font-family="Arial" font-size="8.00">+ Update (GameTime time)</text>
<text text-anchor="start" x="1043.5" y="-825.8" font-family="Arial" font-size="8.00">+ Add (IGameObject obj)</text>
<text text-anchor="start" x="1043.5" y="-815.8" font-family="Arial" font-size="8.00">+ GetEnumerator () : IEnumerator&lt;IGameObject&gt;</text>
<text text-anchor="start" x="1043.5" y="-805.8" font-family="Arial" font-size="8.00">+ Initialize ()</text>
<text text-anchor="start" x="1043.5" y="-795.8" font-family="Arial" font-size="8.00">+ SelectObject (IGameObject obj, GameTime time)</text>
</g>
<!-- Box_DrawableGameScreenComponent&#45;&gt;Box_World -->
<g id="edge12" class="edge"><title>Box_DrawableGameScreenComponent&#45;&gt;Box_World</title>
<path fill="none" stroke="midnightblue" d="M774.624,-1090.11C871.454,-1075.27 982.438,-1054.86 1027,-1034 1033.95,-1030.74 1040.86,-1027.1 1047.67,-1023.17"/>
<polygon fill="none" stroke="midnightblue" points="774.06,-1086.66 764.701,-1091.62 775.113,-1093.58 774.06,-1086.66"/>
</g>
<!-- Box_Widget -->
<g id="node6" class="node"><title>Box_Widget</title>
<polygon fill="#fcfcda" stroke="black" points="734,-869 734,-943 1018,-943 1018,-869 734,-869"/>
<text text-anchor="middle" x="876" y="-931.8" font-family="Arial" font-size="8.00">Widget</text>
<polyline fill="none" stroke="black" points="734,-925 1018,-925 "/>
<text text-anchor="start" x="742" y="-913.8" font-family="Arial" font-size="8.00">+ Info : WidgetInfo</text>
<text text-anchor="start" x="742" y="-903.8" font-family="Arial" font-size="8.00">+ IsVisible : bool virtual</text>
<polyline fill="none" stroke="black" points="734,-897 1018,-897 "/>
<text text-anchor="start" x="742" y="-885.8" font-family="Arial" font-size="8.00">+ bounds () : Rectangle</text>
<text text-anchor="start" x="742" y="-875.8" font-family="Arial" font-size="8.00">+ Widget (GameScreen screen, WidgetInfo info, DisplayLayer drawOrder)</text>
</g>
<!-- Box_DrawableGameScreenComponent&#45;&gt;Box_Widget -->
<g id="edge16" class="edge"><title>Box_DrawableGameScreenComponent&#45;&gt;Box_Widget</title>
<path fill="none" stroke="midnightblue" d="M679.437,-1065.1C694.062,-1055.09 709.168,-1044.41 723,-1034 761.736,-1004.84 803.863,-969.292 834.087,-943.065"/>
<polygon fill="none" stroke="midnightblue" points="677.197,-1062.39 670.896,-1070.91 681.133,-1068.18 677.197,-1062.39"/>
</g>
<!-- Box_IGameScreenComponent -->
<g id="node2" class="node"><title>Box_IGameScreenComponent</title>
<polygon fill="#dafcda" stroke="black" points="345.5,-1193 345.5,-1247 638.5,-1247 638.5,-1193 345.5,-1193"/>
<text text-anchor="middle" x="492" y="-1235.8" font-family="Arial" font-size="8.00">IGameScreenComponent</text>
<polyline fill="none" stroke="black" points="345.5,-1229 638.5,-1229 "/>
<text text-anchor="start" x="353.5" y="-1217.8" font-family="Arial" font-size="8.00">+ Index : DisplayLayer</text>
<polyline fill="none" stroke="black" points="345.5,-1211 638.5,-1211 "/>
<text text-anchor="start" x="353.5" y="-1199.8" font-family="Arial" font-size="8.00">+ SubComponents (GameTime time) : IEnumerable&lt;IGameScreenComponent&gt;</text>
</g>
<!-- Box_IGameScreenComponent&#45;&gt;Box_DrawableGameScreenComponent -->
<g id="edge4" class="edge"><title>Box_IGameScreenComponent&#45;&gt;Box_DrawableGameScreenComponent</title>
<path fill="none" stroke="midnightblue" d="M528.116,-1186.1C538.502,-1176.35 549.961,-1165.6 560.821,-1155.4"/>
<polygon fill="none" stroke="midnightblue" points="525.663,-1183.6 520.767,-1193 530.454,-1188.71 525.663,-1183.6"/>
</g>
<!-- Box_ColorPicker -->
<g id="node7" class="node"><title>Box_ColorPicker</title>
<polygon fill="#fcfcda" stroke="black" points="412,-532 412,-716 712,-716 712,-532 412,-532"/>
<text text-anchor="middle" x="562" y="-704.8" font-family="Arial" font-size="8.00">ColorPicker</text>
<polyline fill="none" stroke="black" points="412,-698 712,-698 "/>
<text text-anchor="start" x="420" y="-686.8" font-family="Arial" font-size="8.00">&#45; tiles : List&lt;Vector2&gt;</text>
<text text-anchor="start" x="420" y="-676.8" font-family="Arial" font-size="8.00">+ SelectedColor : Color</text>
<text text-anchor="start" x="420" y="-666.8" font-family="Arial" font-size="8.00">+ IsMouseEventEnabled : bool</text>
<text text-anchor="start" x="420" y="-656.8" font-family="Arial" font-size="8.00">&#45; colors : List&lt;Color&gt;</text>
<text text-anchor="start" x="420" y="-646.8" font-family="Arial" font-size="8.00"># spriteBatch : SpriteBatch</text>
<text text-anchor="start" x="420" y="-636.8" font-family="Arial" font-size="8.00">+ OnSelectColor : Action&lt;Color&gt;</text>
<polyline fill="none" stroke="black" points="412,-630 712,-630 "/>
<text text-anchor="start" x="420" y="-618.8" font-family="Arial" font-size="8.00">&#45; Vector2 tileSize (0.032f, 0.032f) : readonly static</text>
<text text-anchor="start" x="420" y="-608.8" font-family="Arial" font-size="8.00">&#45; CreateTiles (IEnumerable&lt;Color&gt; _colors) : IEnumerable&lt;Vector2&gt; static</text>
<text text-anchor="start" x="420" y="-598.8" font-family="Arial" font-size="8.00">+ ColorPicker (GameScreen screen, WidgetInfo info, DisplayLayer drawOrder)</text>
<text text-anchor="start" x="420" y="-588.8" font-family="Arial" font-size="8.00">+ Draw (GameTime time)</text>
<text text-anchor="start" x="420" y="-578.8" font-family="Arial" font-size="8.00">+ OnRightClick (Vector2 position, ClickState click, GameTime time)</text>
<text text-anchor="start" x="420" y="-568.8" font-family="Arial" font-size="8.00">+ SetHovered (bool hovered)</text>
<text text-anchor="start" x="420" y="-558.8" font-family="Arial" font-size="8.00">&#45; CreateColors (int num) : IEnumerable&lt;Color&gt; static</text>
<text text-anchor="start" x="420" y="-548.8" font-family="Arial" font-size="8.00">&#45; SelectColor (Color color)</text>
<text text-anchor="start" x="420" y="-538.8" font-family="Arial" font-size="8.00">+ OnLeftClick (Vector2 position, ClickState click, GameTime time)</text>
</g>
<!-- Box_Widget&#45;&gt;Box_ColorPicker -->
<g id="edge18" class="edge"><title>Box_Widget&#45;&gt;Box_ColorPicker</title>
<path fill="none" stroke="midnightblue" d="M827.068,-862.055C783.79,-823.187 719.228,-765.205 664.658,-716.196"/>
<polygon fill="none" stroke="midnightblue" points="824.848,-864.766 834.627,-868.843 829.526,-859.558 824.848,-864.766"/>
</g>
<!-- Box_Dialog -->
<g id="node8" class="node"><title>Box_Dialog</title>
<polygon fill="#fcfcda" stroke="black" points="1401.5,-552 1401.5,-696 1694.5,-696 1694.5,-552 1401.5,-552"/>
<text text-anchor="middle" x="1548" y="-684.8" font-family="Arial" font-size="8.00">Dialog</text>
<polyline fill="none" stroke="black" points="1401.5,-678 1694.5,-678 "/>
<text text-anchor="start" x="1409.5" y="-666.8" font-family="Arial" font-size="8.00"># spriteBatch : SpriteBatch</text>
<text text-anchor="start" x="1409.5" y="-656.8" font-family="Arial" font-size="8.00">+ Done : Action</text>
<text text-anchor="start" x="1409.5" y="-646.8" font-family="Arial" font-size="8.00">+ buttons : Menu</text>
<polyline fill="none" stroke="black" points="1401.5,-640 1694.5,-640 "/>
<text text-anchor="start" x="1409.5" y="-628.8" font-family="Arial" font-size="8.00">&#45; ButtonBackgroundColor (ItemState itemState) : Color</text>
<text text-anchor="start" x="1409.5" y="-618.8" font-family="Arial" font-size="8.00"># RelativeButtonSize (int n) : Vector2</text>
<text text-anchor="start" x="1409.5" y="-608.8" font-family="Arial" font-size="8.00">+ Dialog (GameScreen screen, WidgetInfo info, DisplayLayer drawOrder)</text>
<text text-anchor="start" x="1409.5" y="-598.8" font-family="Arial" font-size="8.00">&#45; ButtonForegroundColor (ItemState itemState) : Color</text>
<text text-anchor="start" x="1409.5" y="-588.8" font-family="Arial" font-size="8.00"># RelativeButtonPosition (int n) : Vector2</text>
<text text-anchor="start" x="1409.5" y="-578.8" font-family="Arial" font-size="8.00"># DrawDialog (GameTime time) abstract</text>
<text text-anchor="start" x="1409.5" y="-568.8" font-family="Arial" font-size="8.00">+ SubComponents (GameTime time) : IEnumerable&lt;IGameScreenComponent&gt;</text>
<text text-anchor="start" x="1409.5" y="-558.8" font-family="Arial" font-size="8.00">+ Draw (GameTime time)</text>
</g>
<!-- Box_Widget&#45;&gt;Box_Dialog -->
<g id="edge22" class="edge"><title>Box_Widget&#45;&gt;Box_Dialog</title>
<path fill="none" stroke="midnightblue" d="M914.741,-861.37C942.771,-832.325 983.28,-796.515 1027,-778 1177.51,-714.259 1240.87,-801.771 1393,-742 1420.54,-731.178 1447.37,-713.969 1470.74,-696.003"/>
<polygon fill="none" stroke="midnightblue" points="911.87,-859.312 907.532,-868.978 916.951,-864.127 911.87,-859.312"/>
</g>
<!-- Box_Menu -->
<g id="node12" class="node"><title>Box_Menu</title>
<polygon fill="#fcfcda" stroke="black" points="1712,-507 1712,-741 2106,-741 2106,-507 1712,-507"/>
<text text-anchor="middle" x="1909" y="-729.8" font-family="Arial" font-size="8.00">Menu</text>
<polyline fill="none" stroke="black" points="1712,-723 2106,-723 "/>
<text text-anchor="start" x="1720" y="-711.8" font-family="Arial" font-size="8.00">&#45; isVisible : bool</text>
<text text-anchor="start" x="1720" y="-701.8" font-family="Arial" font-size="8.00"># Items : List&lt;MenuItem&gt;</text>
<text text-anchor="start" x="1720" y="-691.8" font-family="Arial" font-size="8.00">+ Color&gt; ItemBackgroundColor : Func&lt;ItemState,</text>
<text text-anchor="start" x="1720" y="-681.8" font-family="Arial" font-size="8.00">+ Color&gt; ItemForegroundColor : Func&lt;ItemState,</text>
<text text-anchor="start" x="1720" y="-671.8" font-family="Arial" font-size="8.00">+ Vector2&gt; RelativeItemPosition : Func&lt;int,</text>
<text text-anchor="start" x="1720" y="-661.8" font-family="Arial" font-size="8.00">+ ItemAlignX : HAlign?</text>
<text text-anchor="start" x="1720" y="-651.8" font-family="Arial" font-size="8.00">+ ItemAlignY : VAlign?</text>
<text text-anchor="start" x="1720" y="-641.8" font-family="Arial" font-size="8.00">+ Count : int</text>
<text text-anchor="start" x="1720" y="-631.8" font-family="Arial" font-size="8.00">+ IsVisible : bool</text>
<text text-anchor="start" x="1720" y="-621.8" font-family="Arial" font-size="8.00">&#45; ItemDisplayLayer : DisplayLayer</text>
<text text-anchor="start" x="1720" y="-611.8" font-family="Arial" font-size="8.00">+ Vector2&gt; RelativeItemSize : Func&lt;int,</text>
<polyline fill="none" stroke="black" points="1712,-605 2106,-605 "/>
<text text-anchor="start" x="1720" y="-593.8" font-family="Arial" font-size="8.00">&#45; assignMenuItemInfo (ref MenuItemInfo info, int num, MenuItem item)</text>
<text text-anchor="start" x="1720" y="-583.8" font-family="Arial" font-size="8.00">+ Menu (GameScreen screen, WidgetInfo info, DisplayLayer drawOrder)</text>
<text text-anchor="start" x="1720" y="-573.8" font-family="Arial" font-size="8.00">+ this (int i) : MenuItem</text>
<text text-anchor="start" x="1720" y="-563.8" font-family="Arial" font-size="8.00">+ SubComponents (GameTime time) : IEnumerable&lt;IGameScreenComponent&gt;</text>
<text text-anchor="start" x="1720" y="-553.8" font-family="Arial" font-size="8.00">+ CollapseMenus (MenuItem menu)</text>
<text text-anchor="start" x="1720" y="-543.8" font-family="Arial" font-size="8.00">+ AddButton (MenuItemInfo info) : MenuButton virtual</text>
<text text-anchor="start" x="1720" y="-533.8" font-family="Arial" font-size="8.00">+ AddDropDown (MenuItemInfo info, DistinctOptionInfo option) virtual</text>
<text text-anchor="start" x="1720" y="-523.8" font-family="Arial" font-size="8.00">+ AddDropDown (MenuItemInfo info, DropDownMenuItem[] items, DropDownMenuItem defaultItem) virtual</text>
<text text-anchor="start" x="1720" y="-513.8" font-family="Arial" font-size="8.00">+ Clear ()</text>
</g>
<!-- Box_Widget&#45;&gt;Box_Menu -->
<g id="edge30" class="edge"><title>Box_Widget&#45;&gt;Box_Menu</title>
<path fill="none" stroke="midnightblue" d="M913.85,-861.411C941.785,-831.964 982.541,-795.664 1027,-778 1166.81,-722.456 1558.71,-784.541 1703,-742 1705.97,-741.126 1708.93,-740.202 1711.9,-739.231"/>
<polygon fill="none" stroke="midnightblue" points="911.284,-859.031 907.03,-868.734 916.407,-863.802 911.284,-859.031"/>
</g>
<!-- Box_TextInput -->
<g id="node14" class="node"><title>Box_TextInput</title>
<polygon fill="#fcfcda" stroke="black" points="730,-562 730,-686 1022,-686 1022,-562 730,-562"/>
<text text-anchor="middle" x="876" y="-674.8" font-family="Arial" font-size="8.00">TextInput</text>
<polyline fill="none" stroke="black" points="730,-668 1022,-668 "/>
<text text-anchor="start" x="738" y="-656.8" font-family="Arial" font-size="8.00">&#45; font : SpriteFont</text>
<text text-anchor="start" x="738" y="-646.8" font-family="Arial" font-size="8.00"># spriteBatch : SpriteBatch</text>
<text text-anchor="start" x="738" y="-636.8" font-family="Arial" font-size="8.00">+ IsKeyEventEnabled : bool</text>
<text text-anchor="start" x="738" y="-626.8" font-family="Arial" font-size="8.00">+ ValidKeys : List&lt;Keys&gt;</text>
<text text-anchor="start" x="738" y="-616.8" font-family="Arial" font-size="8.00">+ InputText : string</text>
<polyline fill="none" stroke="black" points="730,-610 1022,-610 "/>
<text text-anchor="start" x="738" y="-598.8" font-family="Arial" font-size="8.00">+ TextInput (GameScreen screen, WidgetInfo info, DisplayLayer drawOrder)</text>
<text text-anchor="start" x="738" y="-588.8" font-family="Arial" font-size="8.00">+ Draw (GameTime time)</text>
<text text-anchor="start" x="738" y="-578.8" font-family="Arial" font-size="8.00">+ OnKeyEvent (List&lt;Keys&gt; key, KeyEvent keyEvent, GameTime time)</text>
<text text-anchor="start" x="738" y="-568.8" font-family="Arial" font-size="8.00">+ Update (GameTime time)</text>
</g>
<!-- Box_Widget&#45;&gt;Box_TextInput -->
<g id="edge34" class="edge"><title>Box_Widget&#45;&gt;Box_TextInput</title>
<path fill="none" stroke="midnightblue" d="M876,-858.55C876,-811.152 876,-738.054 876,-686.071"/>
<polygon fill="none" stroke="midnightblue" points="872.5,-858.843 876,-868.843 879.5,-858.843 872.5,-858.843"/>
</g>
<!-- Box_ItemWidget -->
<g id="node15" class="node"><title>Box_ItemWidget</title>
<polygon fill="#fcfcda" stroke="black" points="1040,-592 1040,-656 1384,-656 1384,-592 1040,-592"/>
<text text-anchor="middle" x="1212" y="-644.8" font-family="Arial" font-size="8.00">ItemWidget</text>
<polyline fill="none" stroke="black" points="1040,-638 1384,-638 "/>
<text text-anchor="start" x="1048" y="-626.8" font-family="Arial" font-size="8.00">+ ItemState : ItemState</text>
<text text-anchor="start" x="1048" y="-616.8" font-family="Arial" font-size="8.00"># ItemNum : int</text>
<polyline fill="none" stroke="black" points="1040,-610 1384,-610 "/>
<text text-anchor="start" x="1048" y="-598.8" font-family="Arial" font-size="8.00">+ ItemWidget (GameScreen screen, WidgetInfo info, DisplayLayer drawOrder, int itemNum)</text>
</g>
<!-- Box_Widget&#45;&gt;Box_ItemWidget -->
<g id="edge38" class="edge"><title>Box_Widget&#45;&gt;Box_ItemWidget</title>
<path fill="none" stroke="midnightblue" d="M927.148,-862.447C956.346,-837.634 993.665,-806.002 1027,-778 1077.4,-735.665 1135.81,-687.131 1173.29,-656.05"/>
<polygon fill="none" stroke="midnightblue" points="924.877,-859.785 919.524,-868.928 929.41,-865.118 924.877,-859.785"/>
</g>
<!-- Box_ConfirmDialog -->
<g id="node9" class="node"><title>Box_ConfirmDialog</title>
<polygon fill="#fcfcda" stroke="black" points="1393.5,-325 1393.5,-429 1702.5,-429 1702.5,-325 1393.5,-325"/>
<text text-anchor="middle" x="1548" y="-417.8" font-family="Arial" font-size="8.00">ConfirmDialog</text>
<polyline fill="none" stroke="black" points="1393.5,-411 1702.5,-411 "/>
<text text-anchor="start" x="1401.5" y="-399.8" font-family="Arial" font-size="8.00"># CanClose : bool</text>
<text text-anchor="start" x="1401.5" y="-389.8" font-family="Arial" font-size="8.00"># Text : string[]</text>
<polyline fill="none" stroke="black" points="1393.5,-383 1702.5,-383 "/>
<text text-anchor="start" x="1401.5" y="-371.8" font-family="Arial" font-size="8.00"># OnYesClick () : Action</text>
<text text-anchor="start" x="1401.5" y="-361.8" font-family="Arial" font-size="8.00"># OnCancelClick () : Action</text>
<text text-anchor="start" x="1401.5" y="-351.8" font-family="Arial" font-size="8.00"># OnNoClick () : Action</text>
<text text-anchor="start" x="1401.5" y="-341.8" font-family="Arial" font-size="8.00"># DrawDialog (GameTime time)</text>
<text text-anchor="start" x="1401.5" y="-331.8" font-family="Arial" font-size="8.00">+ ConfirmDialog (GameScreen screen, WidgetInfo info, DisplayLayer drawOrder)</text>
</g>
<!-- Box_Dialog&#45;&gt;Box_ConfirmDialog -->
<g id="edge24" class="edge"><title>Box_Dialog&#45;&gt;Box_ConfirmDialog</title>
<path fill="none" stroke="midnightblue" d="M1548,-541.587C1548,-504.475 1548,-461.776 1548,-429.17"/>
<polygon fill="none" stroke="midnightblue" points="1544.5,-541.893 1548,-551.893 1551.5,-541.893 1544.5,-541.893"/>
</g>
<!-- Box_TextInputDialog -->
<g id="node10" class="node"><title>Box_TextInputDialog</title>
<polygon fill="#fcfcda" stroke="black" points="1391,-128 1391,-212 1705,-212 1705,-128 1391,-128"/>
<text text-anchor="middle" x="1548" y="-200.8" font-family="Arial" font-size="8.00">TextInputDialog</text>
<polyline fill="none" stroke="black" points="1391,-194 1705,-194 "/>
<text text-anchor="start" x="1399" y="-182.8" font-family="Arial" font-size="8.00"># TextInput : TextInput</text>
<polyline fill="none" stroke="black" points="1391,-176 1705,-176 "/>
<text text-anchor="start" x="1399" y="-164.8" font-family="Arial" font-size="8.00"># TextInputSize () : Vector2</text>
<text text-anchor="start" x="1399" y="-154.8" font-family="Arial" font-size="8.00">+ TextInputDialog (GameScreen screen, WidgetInfo info, DisplayLayer drawOrder)</text>
<text text-anchor="start" x="1399" y="-144.8" font-family="Arial" font-size="8.00"># TextInputPosition () : Vector2</text>
<text text-anchor="start" x="1399" y="-134.8" font-family="Arial" font-size="8.00">+ SubComponents (GameTime time) : IEnumerable&lt;IGameScreenComponent&gt;</text>
</g>
<!-- Box_ConfirmDialog&#45;&gt;Box_TextInputDialog -->
<g id="edge26" class="edge"><title>Box_ConfirmDialog&#45;&gt;Box_TextInputDialog</title>
<path fill="none" stroke="midnightblue" d="M1548,-314.708C1548,-281.543 1548,-241.631 1548,-212.131"/>
<polygon fill="none" stroke="midnightblue" points="1544.5,-314.765 1548,-324.765 1551.5,-314.765 1544.5,-314.765"/>
</g>
<!-- Box_KnotSaveConfirmDialog -->
<g id="node11" class="node"><title>Box_KnotSaveConfirmDialog</title>
<polygon fill="#fcfcda" stroke="black" points="1356.5,-1 1356.5,-55 1739.5,-55 1739.5,-1 1356.5,-1"/>
<text text-anchor="middle" x="1548" y="-43.8" font-family="Arial" font-size="8.00">KnotSaveConfirmDialog</text>
<polyline fill="none" stroke="black" points="1356.5,-37 1739.5,-37 "/>
<text text-anchor="middle" x="1548" y="-25.8" font-family="Arial" font-size="8.00"> </text>
<polyline fill="none" stroke="black" points="1356.5,-19 1739.5,-19 "/>
<text text-anchor="start" x="1364.5" y="-7.8" font-family="Arial" font-size="8.00">+ KnotSaveConfirmDialog (GameScreen screen, WidgetInfo info, DisplayLayer drawOrder, Knot knot)</text>
</g>
<!-- Box_TextInputDialog&#45;&gt;Box_KnotSaveConfirmDialog -->
<g id="edge28" class="edge"><title>Box_TextInputDialog&#45;&gt;Box_KnotSaveConfirmDialog</title>
<path fill="none" stroke="midnightblue" d="M1548,-117.582C1548,-96.3431 1548,-72.7182 1548,-55.0643"/>
<polygon fill="none" stroke="midnightblue" points="1544.5,-117.78 1548,-127.78 1551.5,-117.78 1544.5,-117.78"/>
</g>
<!-- Box_VerticalMenu -->
<g id="node13" class="node"><title>Box_VerticalMenu</title>
<polygon fill="#fcfcda" stroke="black" points="1724,-315 1724,-439 2094,-439 2094,-315 1724,-315"/>
<text text-anchor="middle" x="1909" y="-427.8" font-family="Arial" font-size="8.00">VerticalMenu</text>
<polyline fill="none" stroke="black" points="1724,-421 2094,-421 "/>
<text text-anchor="start" x="1732" y="-409.8" font-family="Arial" font-size="8.00"># spriteBatch : SpriteBatch</text>
<text text-anchor="start" x="1732" y="-399.8" font-family="Arial" font-size="8.00">+ Border : Border</text>
<polyline fill="none" stroke="black" points="1724,-393 2094,-393 "/>
<text text-anchor="start" x="1732" y="-381.8" font-family="Arial" font-size="8.00">+ VerticalMenu (GameScreen screen, WidgetInfo info, DisplayLayer drawOrder)</text>
<text text-anchor="start" x="1732" y="-371.8" font-family="Arial" font-size="8.00">+ Align (Viewport viewport, float scale, int posX, int posY, int? sizeX)</text>
<text text-anchor="start" x="1732" y="-361.8" font-family="Arial" font-size="8.00">+ AddButton (MenuItemInfo info) : MenuButton</text>
<text text-anchor="start" x="1732" y="-351.8" font-family="Arial" font-size="8.00">+ AddDropDown (MenuItemInfo info, DistinctOptionInfo option)</text>
<text text-anchor="start" x="1732" y="-341.8" font-family="Arial" font-size="8.00">+ AddDropDown (MenuItemInfo info, DropDownMenuItem[] items, DropDownMenuItem defaultItem)</text>
<text text-anchor="start" x="1732" y="-331.8" font-family="Arial" font-size="8.00">+ Draw (GameTime time)</text>
<text text-anchor="start" x="1732" y="-321.8" font-family="Arial" font-size="8.00">+ Align (Viewport viewport, float scale, Vector2? givenPosition)</text>
</g>
<!-- Box_Menu&#45;&gt;Box_VerticalMenu -->
<g id="edge32" class="edge"><title>Box_Menu&#45;&gt;Box_VerticalMenu</title>
<path fill="none" stroke="midnightblue" d="M1909,-496.548C1909,-476.623 1909,-456.835 1909,-439.262"/>
<polygon fill="none" stroke="midnightblue" points="1905.5,-496.649 1909,-506.649 1912.5,-496.649 1905.5,-496.649"/>
</g>
<!-- Box_MenuItem -->
<g id="node16" class="node"><title>Box_MenuItem</title>
<polygon fill="#fcfcda" stroke="black" points="210.5,-285 210.5,-469 557.5,-469 557.5,-285 210.5,-285"/>
<text text-anchor="middle" x="384" y="-457.8" font-family="Arial" font-size="8.00">MenuItem</text>
<polyline fill="none" stroke="black" points="210.5,-451 557.5,-451 "/>
<text text-anchor="start" x="218.5" y="-439.8" font-family="Arial" font-size="8.00"># spriteBatch : SpriteBatch</text>
<text text-anchor="start" x="218.5" y="-429.8" font-family="Arial" font-size="8.00">+ IsMouseEventEnabled : bool</text>
<text text-anchor="start" x="218.5" y="-419.8" font-family="Arial" font-size="8.00">+ ValidKeys : List&lt;Keys&gt;</text>
<text text-anchor="start" x="218.5" y="-409.8" font-family="Arial" font-size="8.00">+ IsKeyEventEnabled : bool</text>
<text text-anchor="start" x="218.5" y="-399.8" font-family="Arial" font-size="8.00">+ Info : MenuItemInfo</text>
<polyline fill="none" stroke="black" points="210.5,-393 557.5,-393 "/>
<text text-anchor="start" x="218.5" y="-381.8" font-family="Arial" font-size="8.00">+ MenuItem (GameScreen screen, DisplayLayer drawOrder, int itemNum, MenuItemInfo info)</text>
<text text-anchor="start" x="218.5" y="-371.8" font-family="Arial" font-size="8.00">+ Collapse () virtual</text>
<text text-anchor="start" x="218.5" y="-361.8" font-family="Arial" font-size="8.00">+ OnKeyEvent (List&lt;Keys&gt; key, KeyEvent keyEvent, GameTime time)</text>
<text text-anchor="start" x="218.5" y="-351.8" font-family="Arial" font-size="8.00">+ OnLeftClick (Vector2 position, ClickState click, GameTime time)</text>
<text text-anchor="start" x="218.5" y="-341.8" font-family="Arial" font-size="8.00">+ OnRightClick (Vector2 position, ClickState click, GameTime time)</text>
<text text-anchor="start" x="218.5" y="-331.8" font-family="Arial" font-size="8.00">+ MinimumSize (SpriteFont font) : Vector2</text>
<text text-anchor="start" x="218.5" y="-321.8" font-family="Arial" font-size="8.00">+ TextPosition (SpriteFont font) : Vector2</text>
<text text-anchor="start" x="218.5" y="-311.8" font-family="Arial" font-size="8.00">+ TextPosition (SpriteFont font, Vector2 scale) : Vector2</text>
<text text-anchor="start" x="218.5" y="-301.8" font-family="Arial" font-size="8.00">+ Draw (GameTime time)</text>
<text text-anchor="start" x="218.5" y="-291.8" font-family="Arial" font-size="8.00">+ SetHovered (bool hovered)</text>
</g>
<!-- Box_ItemWidget&#45;&gt;Box_MenuItem -->
<g id="edge40" class="edge"><title>Box_ItemWidget&#45;&gt;Box_MenuItem</title>
<path fill="none" stroke="midnightblue" d="M1164.33,-585.633C1129.38,-559.387 1079.72,-525.87 1031,-506 877.618,-443.441 691.044,-410.395 557.734,-393.482"/>
<polygon fill="none" stroke="midnightblue" points="1162.37,-588.534 1172.45,-591.794 1166.6,-582.959 1162.37,-588.534"/>
</g>
<!-- Box_DropDownMenu -->
<g id="node17" class="node"><title>Box_DropDownMenu</title>
<polygon fill="#fcfcda" stroke="black" points="7,-93 7,-247 379,-247 379,-93 7,-93"/>
<text text-anchor="middle" x="193" y="-235.8" font-family="Arial" font-size="8.00">DropDownMenu</text>
<polyline fill="none" stroke="black" points="7,-229 379,-229 "/>
<text text-anchor="start" x="15" y="-217.8" font-family="Arial" font-size="8.00">&#45; selected : MenuButton</text>
<text text-anchor="start" x="15" y="-207.8" font-family="Arial" font-size="8.00">&#45; dropdown : VerticalMenu</text>
<polyline fill="none" stroke="black" points="7,-201 379,-201 "/>
<text text-anchor="start" x="15" y="-189.8" font-family="Arial" font-size="8.00">&#45; ValuePosition (int dummy) : Vector2</text>
<text text-anchor="start" x="15" y="-179.8" font-family="Arial" font-size="8.00">+ DropDownMenu (GameScreen screen, DisplayLayer drawOrder, int itemNum, MenuItemInfo info)</text>
<text text-anchor="start" x="15" y="-169.8" font-family="Arial" font-size="8.00">&#45; DropDownBackgroundColor (ItemState itemState) : Color</text>
<text text-anchor="start" x="15" y="-159.8" font-family="Arial" font-size="8.00">&#45; DropDownForegroundColor (ItemState itemState) : Color</text>
<text text-anchor="start" x="15" y="-149.8" font-family="Arial" font-size="8.00">&#45; ValueSize (int dummy) : Vector2</text>
<text text-anchor="start" x="15" y="-139.8" font-family="Arial" font-size="8.00">+ SubComponents (GameTime time) : IEnumerable&lt;IGameScreenComponent&gt;</text>
<text text-anchor="start" x="15" y="-129.8" font-family="Arial" font-size="8.00">+ Collapse ()</text>
<text text-anchor="start" x="15" y="-119.8" font-family="Arial" font-size="8.00">+ Draw (GameTime time)</text>
<text text-anchor="start" x="15" y="-109.8" font-family="Arial" font-size="8.00">+ AddEntries (DistinctOptionInfo option)</text>
<text text-anchor="start" x="15" y="-99.8" font-family="Arial" font-size="8.00">+ AddEntries (DropDownMenuItem[] entries, DropDownMenuItem defaultEntry)</text>
</g>
<!-- Box_MenuItem&#45;&gt;Box_DropDownMenu -->
<g id="edge46" class="edge"><title>Box_MenuItem&#45;&gt;Box_DropDownMenu</title>
<path fill="none" stroke="midnightblue" d="M291.783,-277.058C282.544,-267.045 273.264,-256.987 264.289,-247.261"/>
<polygon fill="none" stroke="midnightblue" points="289.48,-279.724 298.834,-284.7 294.625,-274.977 289.48,-279.724"/>
</g>
<!-- Box_MenuButton -->
<g id="node18" class="node"><title>Box_MenuButton</title>
<polygon fill="#fcfcda" stroke="black" points="397,-143 397,-197 753,-197 753,-143 397,-143"/>
<text text-anchor="middle" x="575" y="-185.8" font-family="Arial" font-size="8.00">MenuButton</text>
<polyline fill="none" stroke="black" points="397,-179 753,-179 "/>
<text text-anchor="middle" x="575" y="-167.8" font-family="Arial" font-size="8.00"> </text>
<polyline fill="none" stroke="black" points="397,-161 753,-161 "/>
<text text-anchor="start" x="405" y="-149.8" font-family="Arial" font-size="8.00">+ MenuButton (GameScreen screen, DisplayLayer drawOrder, int itemNum, MenuItemInfo info)</text>
</g>
<!-- Box_MenuItem&#45;&gt;Box_MenuButton -->
<g id="edge48" class="edge"><title>Box_MenuItem&#45;&gt;Box_MenuButton</title>
<path fill="none" stroke="midnightblue" d="M476.039,-277.251C503.127,-247.894 530.586,-218.134 549.685,-197.435"/>
<polygon fill="none" stroke="midnightblue" points="473.375,-274.977 469.166,-284.7 478.52,-279.724 473.375,-274.977"/>
</g>
<!-- Box_XnaDrawableGameComponent -->
<g id="node19" class="node"><title>Box_XnaDrawableGameComponent</title>
<polygon fill="#ffffff" stroke="black" points="656,-1211 656,-1229 786,-1229 786,-1211 656,-1211"/>
<text text-anchor="middle" x="721" y="-1217.8" font-family="Arial" font-size="8.00">Xna.DrawableGameComponent</text>
</g>
<!-- Box_XnaDrawableGameComponent&#45;&gt;Box_DrawableGameScreenComponent -->
<g id="edge2" class="edge"><title>Box_XnaDrawableGameComponent&#45;&gt;Box_DrawableGameScreenComponent</title>
<path fill="none" stroke="midnightblue" d="M703.824,-1204.02C689.966,-1191.12 669.815,-1172.38 651.399,-1155.24"/>
<polygon fill="none" stroke="midnightblue" points="701.49,-1206.63 711.195,-1210.88 706.258,-1201.5 701.49,-1206.63"/>
</g>
<!-- Box_XnaIGameComponent -->
<g id="node20" class="node"><title>Box_XnaIGameComponent</title>
<polygon fill="#ffffff" stroke="black" points="444,-1285 444,-1303 540,-1303 540,-1285 444,-1285"/>
<text text-anchor="middle" x="492" y="-1291.8" font-family="Arial" font-size="8.00">Xna.IGameComponent</text>
</g>
<!-- Box_XnaIGameComponent&#45;&gt;Box_IGameScreenComponent -->
<g id="edge6" class="edge"><title>Box_XnaIGameComponent&#45;&gt;Box_IGameScreenComponent</title>
<path fill="none" stroke="midnightblue" d="M492,-1274.64C492,-1266.2 492,-1256.16 492,-1247"/>
<polygon fill="none" stroke="midnightblue" points="488.5,-1274.93 492,-1284.93 495.5,-1274.93 488.5,-1274.93"/>
</g>
<!-- Box_IEnumerable -->
<g id="node21" class="node"><title>Box_IEnumerable</title>
<polygon fill="#ffffff" stroke="black" points="1124.5,-1104 1124.5,-1122 1239.5,-1122 1239.5,-1104 1124.5,-1104"/>
<text text-anchor="middle" x="1182" y="-1110.8" font-family="Arial" font-size="8.00">IEnumerable&lt;IGameObject&gt;</text>
</g>
<!-- Box_IEnumerable&#45;&gt;Box_World -->
<g id="edge14" class="edge"><title>Box_IEnumerable&#45;&gt;Box_World</title>
<path fill="none" stroke="midnightblue" d="M1182,-1093.68C1182,-1076.73 1182,-1050.57 1182,-1023.11"/>
<polygon fill="none" stroke="midnightblue" points="1178.5,-1093.84 1182,-1103.84 1185.5,-1093.84 1178.5,-1093.84"/>
</g>
<!-- Box_IMouseEventListener -->
<g id="node22" class="node"><title>Box_IMouseEventListener</title>
<polygon fill="#ffffff" stroke="black" points="518,-897 518,-915 610,-915 610,-897 518,-897"/>
<text text-anchor="middle" x="564" y="-903.8" font-family="Arial" font-size="8.00">IMouseEventListener</text>
</g>
<!-- Box_IMouseEventListener&#45;&gt;Box_ColorPicker -->
<g id="edge20" class="edge"><title>Box_IMouseEventListener&#45;&gt;Box_ColorPicker</title>
<path fill="none" stroke="midnightblue" d="M563.864,-886.832C563.619,-852.243 563.087,-777.314 562.654,-716.276"/>
<polygon fill="none" stroke="midnightblue" points="560.365,-886.962 563.936,-896.937 567.365,-886.912 560.365,-886.962"/>
</g>
<!-- Box_IMouseEventListener&#45;&gt;Box_MenuItem -->
<g id="edge42" class="edge"><title>Box_IMouseEventListener&#45;&gt;Box_MenuItem</title>
<path fill="none" stroke="midnightblue" d="M561.163,-886.845C555.969,-858.723 542.233,-806.518 509,-778 460.571,-736.442 409.06,-792.466 370,-742 310.516,-665.148 327.268,-549.506 350.297,-469.057"/>
<polygon fill="none" stroke="midnightblue" points="557.755,-887.684 562.852,-896.972 564.659,-886.533 557.755,-887.684"/>
</g>
<!-- Box_IKeyEventListener -->
<g id="node23" class="node"><title>Box_IKeyEventListener</title>
<polygon fill="#ffffff" stroke="black" points="632,-897 632,-915 714,-915 714,-897 632,-897"/>
<text text-anchor="middle" x="673" y="-903.8" font-family="Arial" font-size="8.00">IKeyEventListener</text>
</g>
<!-- Box_IKeyEventListener&#45;&gt;Box_TextInput -->
<g id="edge36" class="edge"><title>Box_IKeyEventListener&#45;&gt;Box_TextInput</title>
<path fill="none" stroke="midnightblue" d="M678.178,-886.985C685.811,-860.962 701.741,-813.445 725,-778 746.878,-744.659 776.686,-712.407 804.04,-686.107"/>
<polygon fill="none" stroke="midnightblue" points="674.777,-886.149 675.417,-896.724 681.512,-888.058 674.777,-886.149"/>
</g>
<!-- Box_IKeyEventListener&#45;&gt;Box_MenuItem -->
<g id="edge44" class="edge"><title>Box_IKeyEventListener&#45;&gt;Box_MenuItem</title>
<path fill="none" stroke="midnightblue" d="M670.698,-886.85C666.191,-858.34 653.425,-805.182 619,-778 542.616,-717.688 467.817,-814.6 403,-742 368.294,-703.127 370.301,-563.883 376.198,-469.066"/>
<polygon fill="none" stroke="midnightblue" points="667.236,-887.364 672.087,-896.783 674.168,-886.394 667.236,-887.364"/>
</g>
</g>
</svg>
