<?xml version="1.0" encoding="UTF-8" standalone="no"?>
<!DOCTYPE svg PUBLIC "-//W3C//DTD SVG 1.1//EN"
 "http://www.w3.org/Graphics/SVG/1.1/DTD/svg11.dtd">
<!-- Generated by graphviz version 2.26.3 (20100126.1600)
 -->
<!-- Title: MenuItem Pages: 1 -->
<svg width="565pt" height="1048pt"
 viewBox="0.00 0.00 565.00 1048.00" xmlns="http://www.w3.org/2000/svg" xmlns:xlink="http://www.w3.org/1999/xlink">
<g id="graph1" class="graph" transform="scale(1 1) rotate(0) translate(4 1044)">
<title>MenuItem</title>
<polygon fill="white" stroke="white" points="-4,5 -4,-1044 562,-1044 562,5 -4,5"/>
<!-- Box_GameState -->
<g id="node1" class="node"><title>Box_GameState</title>
<polygon fill="#fcfcda" stroke="black" points="0,-763 0,-1039 378,-1039 378,-763 0,-763"/>
<text text-anchor="middle" x="189" y="-1027.8" font-family="Helvetica,sans-Serif" font-size="8.00">GameState</text>
<polyline fill="none" stroke="black" points="0,-1019 378,-1019 "/>
<text text-anchor="start" x="8" y="-1007.8" font-family="Helvetica,sans-Serif" font-size="8.00">Attributes:</text>
<text text-anchor="start" x="8" y="-995.8" font-family="Helvetica,sans-Serif" font-size="8.00">+ content : ContentManager</text>
<text text-anchor="start" x="8" y="-983.8" font-family="Helvetica,sans-Serif" font-size="8.00">+ NextState : GameState</text>
<text text-anchor="start" x="8" y="-971.8" font-family="Helvetica,sans-Serif" font-size="8.00">+ device : GraphicsDevice</text>
<text text-anchor="start" x="8" y="-959.8" font-family="Helvetica,sans-Serif" font-size="8.00">+ RenderEffects : RenderEffectStack</text>
<text text-anchor="start" x="8" y="-947.8" font-family="Helvetica,sans-Serif" font-size="8.00">+ viewport : Viewport</text>
<text text-anchor="start" x="8" y="-935.8" font-family="Helvetica,sans-Serif" font-size="8.00">+ game : Game</text>
<text text-anchor="start" x="8" y="-923.8" font-family="Helvetica,sans-Serif" font-size="8.00">+ graphics : GraphicsDeviceManager</text>
<text text-anchor="start" x="8" y="-911.8" font-family="Helvetica,sans-Serif" font-size="8.00">+ input : Input</text>
<text text-anchor="start" x="8" y="-899.8" font-family="Helvetica,sans-Serif" font-size="8.00">+ PostProcessing : RenderEffect</text>
<text text-anchor="start" x="8" y="-887.8" font-family="Helvetica,sans-Serif" font-size="8.00">Methods:</text>
<polyline fill="none" stroke="black" points="0,-879 378,-879 "/>
<text text-anchor="start" x="8" y="-867.8" font-family="Helvetica,sans-Serif" font-size="8.00">+ Draw (GameTime gameTime) abstract</text>
<text text-anchor="start" x="8" y="-855.8" font-family="Helvetica,sans-Serif" font-size="8.00">+ Initialize () abstract</text>
<text text-anchor="start" x="8" y="-843.8" font-family="Helvetica,sans-Serif" font-size="8.00">+ Unload () abstract</text>
<text text-anchor="start" x="8" y="-831.8" font-family="Helvetica,sans-Serif" font-size="8.00">+ Activate (GameTime gameTime) virtual</text>
<text text-anchor="start" x="8" y="-819.8" font-family="Helvetica,sans-Serif" font-size="8.00">+ GameState (Game game)</text>
<text text-anchor="start" x="8" y="-807.8" font-family="Helvetica,sans-Serif" font-size="8.00">+ Update (GameTime gameTime) abstract</text>
<text text-anchor="start" x="8" y="-795.8" font-family="Helvetica,sans-Serif" font-size="8.00">+ Deactivate (GameTime gameTime) virtual</text>
<text text-anchor="start" x="8" y="-783.8" font-family="Helvetica,sans-Serif" font-size="8.00">+ AddGameComponents (GameTime gameTime, params IGameStateComponent[] components)</text>
<text text-anchor="start" x="8" y="-771.8" font-family="Helvetica,sans-Serif" font-size="8.00">+ RemoveGameComponents (GameTime gameTime, params IGameStateComponent[] components)</text>
</g>
<!-- Box_CreativeModeScreen -->
<g id="node2" class="node"><title>Box_CreativeModeScreen</title>
<polygon fill="#fcfcda" stroke="black" points="4,-425 4,-725 176,-725 176,-425 4,-425"/>
<text text-anchor="middle" x="90" y="-713.8" font-family="Helvetica,sans-Serif" font-size="8.00">CreativeModeScreen</text>
<polyline fill="none" stroke="black" points="4,-705 176,-705 "/>
<text text-anchor="start" x="12" y="-693.8" font-family="Helvetica,sans-Serif" font-size="8.00">Attributes:</text>
<text text-anchor="start" x="12" y="-681.8" font-family="Helvetica,sans-Serif" font-size="8.00">&#45; dialog : Dialog</text>
<text text-anchor="start" x="12" y="-669.8" font-family="Helvetica,sans-Serif" font-size="8.00">&#45; lineRenderer : LineRenderer</text>
<text text-anchor="start" x="12" y="-657.8" font-family="Helvetica,sans-Serif" font-size="8.00">&#45; picker : MousePicker</text>
<text text-anchor="start" x="12" y="-645.8" font-family="Helvetica,sans-Serif" font-size="8.00">&#45; pointer : MousePointer</text>
<text text-anchor="start" x="12" y="-633.8" font-family="Helvetica,sans-Serif" font-size="8.00">&#45; overlay : Overlay</text>
<text text-anchor="start" x="12" y="-621.8" font-family="Helvetica,sans-Serif" font-size="8.00">&#45; coloring : PipeColoring</text>
<text text-anchor="start" x="12" y="-609.8" font-family="Helvetica,sans-Serif" font-size="8.00">&#45; movement : PipeMovement</text>
<text text-anchor="start" x="12" y="-597.8" font-family="Helvetica,sans-Serif" font-size="8.00">&#45; pipeRenderer : PipeRenderer</text>
<text text-anchor="start" x="12" y="-585.8" font-family="Helvetica,sans-Serif" font-size="8.00">&#45; world : World</text>
<text text-anchor="start" x="12" y="-573.8" font-family="Helvetica,sans-Serif" font-size="8.00">&#45; knotModified : bool</text>
<text text-anchor="start" x="12" y="-561.8" font-family="Helvetica,sans-Serif" font-size="8.00">+ Knot : Knot</text>
<text text-anchor="start" x="12" y="-549.8" font-family="Helvetica,sans-Serif" font-size="8.00">&#45; knot : Knot</text>
<text text-anchor="start" x="12" y="-537.8" font-family="Helvetica,sans-Serif" font-size="8.00">Methods:</text>
<polyline fill="none" stroke="black" points="4,-529 176,-529 "/>
<text text-anchor="start" x="12" y="-517.8" font-family="Helvetica,sans-Serif" font-size="8.00">&#45; UpdateInput (GameTime gameTime)</text>
<text text-anchor="start" x="12" y="-505.8" font-family="Helvetica,sans-Serif" font-size="8.00">+ CreativeModeScreen (Core.Game game)</text>
<text text-anchor="start" x="12" y="-493.8" font-family="Helvetica,sans-Serif" font-size="8.00">+ Activate (GameTime gameTime)</text>
<text text-anchor="start" x="12" y="-481.8" font-family="Helvetica,sans-Serif" font-size="8.00">+ Draw (GameTime gameTime)</text>
<text text-anchor="start" x="12" y="-469.8" font-family="Helvetica,sans-Serif" font-size="8.00">+ Initialize ()</text>
<text text-anchor="start" x="12" y="-457.8" font-family="Helvetica,sans-Serif" font-size="8.00">+ LoadFile (string file)</text>
<text text-anchor="start" x="12" y="-445.8" font-family="Helvetica,sans-Serif" font-size="8.00">+ Unload ()</text>
<text text-anchor="start" x="12" y="-433.8" font-family="Helvetica,sans-Serif" font-size="8.00">+ Update (GameTime gameTime)</text>
</g>
<!-- Box_GameState&#45;&gt;Box_CreativeModeScreen -->
<g id="edge2" class="edge"><title>Box_GameState&#45;&gt;Box_CreativeModeScreen</title>
<path fill="none" stroke="midnightblue" d="M137.366,-753.116C134.52,-743.847 131.682,-734.511 128.891,-725.232"/>
<polygon fill="none" stroke="midnightblue" points="134.044,-754.221 140.335,-762.747 140.734,-752.159 134.044,-754.221"/>
</g>
<!-- Box_GameState&#45;&gt;Box_CreativeModeScreen -->
<g id="edge26" class="edge"><title>Box_GameState&#45;&gt;Box_CreativeModeScreen</title>
<path fill="none" stroke="midnightblue" d="M150.815,-753.116C148.031,-743.847 145.199,-734.511 142.354,-725.232"/>
<polygon fill="none" stroke="midnightblue" points="147.476,-754.169 153.695,-762.747 154.183,-752.163 147.476,-754.169"/>
</g>
<!-- Box_MenuScreen -->
<g id="node3" class="node"><title>Box_MenuScreen</title>
<polygon fill="#fcfcda" stroke="black" points="193.5,-455 193.5,-695 384.5,-695 384.5,-455 193.5,-455"/>
<text text-anchor="middle" x="289" y="-683.8" font-family="Helvetica,sans-Serif" font-size="8.00">MenuScreen</text>
<polyline fill="none" stroke="black" points="193.5,-675 384.5,-675 "/>
<text text-anchor="start" x="201.5" y="-663.8" font-family="Helvetica,sans-Serif" font-size="8.00">Attributes:</text>
<text text-anchor="start" x="201.5" y="-651.8" font-family="Helvetica,sans-Serif" font-size="8.00">&#45; backColor : Color</text>
<text text-anchor="start" x="201.5" y="-639.8" font-family="Helvetica,sans-Serif" font-size="8.00">&#45; pointer : MousePointer</text>
<text text-anchor="start" x="201.5" y="-627.8" font-family="Helvetica,sans-Serif" font-size="8.00"># LinePoints : List&lt;Vector2&gt;</text>
<text text-anchor="start" x="201.5" y="-615.8" font-family="Helvetica,sans-Serif" font-size="8.00"># LineWidth : int</text>
<text text-anchor="start" x="201.5" y="-603.8" font-family="Helvetica,sans-Serif" font-size="8.00">&#45; spriteBatch : SpriteBatch</text>
<text text-anchor="start" x="201.5" y="-591.8" font-family="Helvetica,sans-Serif" font-size="8.00">Methods:</text>
<polyline fill="none" stroke="black" points="193.5,-583 384.5,-583 "/>
<text text-anchor="start" x="201.5" y="-571.8" font-family="Helvetica,sans-Serif" font-size="8.00">+ MenuScreen (Core.Game game)</text>
<text text-anchor="start" x="201.5" y="-559.8" font-family="Helvetica,sans-Serif" font-size="8.00">+ Activate (GameTime gameTime)</text>
<text text-anchor="start" x="201.5" y="-547.8" font-family="Helvetica,sans-Serif" font-size="8.00">+ Draw (GameTime gameTime)</text>
<text text-anchor="start" x="201.5" y="-535.8" font-family="Helvetica,sans-Serif" font-size="8.00"># BackgroundColor (ItemState itemState) : Color</text>
<text text-anchor="start" x="201.5" y="-523.8" font-family="Helvetica,sans-Serif" font-size="8.00"># ForegroundColor (ItemState itemState) : Color</text>
<text text-anchor="start" x="201.5" y="-511.8" font-family="Helvetica,sans-Serif" font-size="8.00">+ DrawMenu (GameTime gameTime) abstract</text>
<text text-anchor="start" x="201.5" y="-499.8" font-family="Helvetica,sans-Serif" font-size="8.00">+ UpdateMenu (GameTime gameTime) abstract</text>
<text text-anchor="start" x="201.5" y="-487.8" font-family="Helvetica,sans-Serif" font-size="8.00">+ Initialize ()</text>
<text text-anchor="start" x="201.5" y="-475.8" font-family="Helvetica,sans-Serif" font-size="8.00">+ Unload ()</text>
<text text-anchor="start" x="201.5" y="-463.8" font-family="Helvetica,sans-Serif" font-size="8.00">+ Update (GameTime gameTime)</text>
</g>
<!-- Box_GameState&#45;&gt;Box_MenuScreen -->
<g id="edge4" class="edge"><title>Box_GameState&#45;&gt;Box_MenuScreen</title>
<path fill="none" stroke="midnightblue" d="M227.684,-752.967C233.555,-733.615 239.64,-713.979 245.602,-695.162"/>
<polygon fill="none" stroke="midnightblue" points="224.271,-752.162 224.729,-762.747 230.972,-754.187 224.271,-752.162"/>
</g>
<!-- Box_GameState&#45;&gt;Box_MenuScreen -->
<g id="edge28" class="edge"><title>Box_GameState&#45;&gt;Box_MenuScreen</title>
<path fill="none" stroke="midnightblue" d="M241.133,-752.967C247.135,-733.615 253.097,-713.979 258.679,-695.162"/>
<polygon fill="none" stroke="midnightblue" points="237.72,-752.158 238.089,-762.747 244.403,-754.239 237.72,-752.158"/>
</g>
<!-- Box_StartScreen -->
<g id="node4" class="node"><title>Box_StartScreen</title>
<polygon fill="#fcfcda" stroke="black" points="24,-213 24,-369 182,-369 182,-213 24,-213"/>
<text text-anchor="middle" x="103" y="-357.8" font-family="Helvetica,sans-Serif" font-size="8.00">StartScreen</text>
<polyline fill="none" stroke="black" points="24,-349 182,-349 "/>
<text text-anchor="start" x="32" y="-337.8" font-family="Helvetica,sans-Serif" font-size="8.00">Attributes:</text>
<text text-anchor="start" x="32" y="-325.8" font-family="Helvetica,sans-Serif" font-size="8.00">&#45; spriteBatch : SpriteBatch</text>
<text text-anchor="start" x="32" y="-313.8" font-family="Helvetica,sans-Serif" font-size="8.00">&#45; logo : Texture2D</text>
<text text-anchor="start" x="32" y="-301.8" font-family="Helvetica,sans-Serif" font-size="8.00"># menu : Menu</text>
<text text-anchor="start" x="32" y="-289.8" font-family="Helvetica,sans-Serif" font-size="8.00">Methods:</text>
<polyline fill="none" stroke="black" points="24,-281 182,-281 "/>
<text text-anchor="start" x="32" y="-269.8" font-family="Helvetica,sans-Serif" font-size="8.00">+ StartScreen (Game game)</text>
<text text-anchor="start" x="32" y="-257.8" font-family="Helvetica,sans-Serif" font-size="8.00">+ Activate (GameTime gameTime)</text>
<text text-anchor="start" x="32" y="-245.8" font-family="Helvetica,sans-Serif" font-size="8.00">+ UpdateMenu (GameTime gameTime)</text>
<text text-anchor="start" x="32" y="-233.8" font-family="Helvetica,sans-Serif" font-size="8.00">+ DrawMenu (GameTime gameTime)</text>
<text text-anchor="start" x="32" y="-221.8" font-family="Helvetica,sans-Serif" font-size="8.00">+ Initialize ()</text>
</g>
<!-- Box_MenuScreen&#45;&gt;Box_StartScreen -->
<g id="edge30" class="edge"><title>Box_MenuScreen&#45;&gt;Box_StartScreen</title>
<path fill="none" stroke="midnightblue" d="M187.614,-450.895C168.962,-423.1 150.75,-394.376 135.83,-369.074"/>
<polygon fill="none" stroke="midnightblue" points="184.917,-453.156 193.413,-459.486 190.719,-449.24 184.917,-453.156"/>
</g>
<!-- Box_MenuScreen&#45;&gt;Box_StartScreen -->
<g id="edge40" class="edge"><title>Box_MenuScreen&#45;&gt;Box_StartScreen</title>
<path fill="none" stroke="midnightblue" d="M224.961,-446.423C207.984,-420.017 189.658,-392.986 172.402,-369.027"/>
<polygon fill="none" stroke="midnightblue" points="222.088,-448.428 230.422,-454.97 227.987,-444.659 222.088,-448.428"/>
</g>
<!-- Box_MenuScreen&#45;&gt;Box_StartScreen -->
<g id="edge6" class="edge"><title>Box_MenuScreen&#45;&gt;Box_StartScreen</title>
<path fill="none" stroke="midnightblue" d="M198.068,-446.423C180.668,-420.017 163.172,-392.986 148.002,-369.027"/>
<polygon fill="none" stroke="midnightblue" points="195.28,-448.553 203.711,-454.97 201.122,-444.696 195.28,-448.553"/>
</g>
<!-- Box_MenuScreen&#45;&gt;Box_StartScreen -->
<g id="edge16" class="edge"><title>Box_MenuScreen&#45;&gt;Box_StartScreen</title>
<path fill="none" stroke="midnightblue" d="M211.514,-446.423C194.326,-420.017 176.415,-392.986 160.202,-369.027"/>
<polygon fill="none" stroke="midnightblue" points="208.684,-448.491 217.067,-454.97 214.554,-444.677 208.684,-448.491"/>
</g>
<!-- Box_LoadSavegameScreen -->
<g id="node5" class="node"><title>Box_LoadSavegameScreen</title>
<polygon fill="#fcfcda" stroke="black" points="200,-195 200,-387 378,-387 378,-195 200,-195"/>
<text text-anchor="middle" x="289" y="-375.8" font-family="Helvetica,sans-Serif" font-size="8.00">LoadSavegameScreen</text>
<polyline fill="none" stroke="black" points="200,-367 378,-367 "/>
<text text-anchor="start" x="208" y="-355.8" font-family="Helvetica,sans-Serif" font-size="8.00">Attributes:</text>
<text text-anchor="start" x="208" y="-343.8" font-family="Helvetica,sans-Serif" font-size="8.00">&#45; spriteBatch : SpriteBatch</text>
<text text-anchor="start" x="208" y="-331.8" font-family="Helvetica,sans-Serif" font-size="8.00">&#45; menu : VerticalMenu</text>
<text text-anchor="start" x="208" y="-319.8" font-family="Helvetica,sans-Serif" font-size="8.00">&#45; format : IKnotFormat</text>
<text text-anchor="start" x="208" y="-307.8" font-family="Helvetica,sans-Serif" font-size="8.00">Methods:</text>
<polyline fill="none" stroke="black" points="200,-299 378,-299 "/>
<text text-anchor="start" x="208" y="-287.8" font-family="Helvetica,sans-Serif" font-size="8.00">+ LoadSavegameScreen (Core.Game game)</text>
<text text-anchor="start" x="208" y="-275.8" font-family="Helvetica,sans-Serif" font-size="8.00">+ Activate (GameTime gameTime)</text>
<text text-anchor="start" x="208" y="-263.8" font-family="Helvetica,sans-Serif" font-size="8.00">+ DrawMenu (GameTime gameTime)</text>
<text text-anchor="start" x="208" y="-251.8" font-family="Helvetica,sans-Serif" font-size="8.00">&#45; AddDefaultKnots ()</text>
<text text-anchor="start" x="208" y="-239.8" font-family="Helvetica,sans-Serif" font-size="8.00">&#45; AddFileToList (string filename)</text>
<text text-anchor="start" x="208" y="-227.8" font-family="Helvetica,sans-Serif" font-size="8.00">&#45; UpdateFiles ()</text>
<text text-anchor="start" x="208" y="-215.8" font-family="Helvetica,sans-Serif" font-size="8.00">+ Initialize ()</text>
<text text-anchor="start" x="208" y="-203.8" font-family="Helvetica,sans-Serif" font-size="8.00">+ UpdateMenu (GameTime gameTime)</text>
</g>
<!-- Box_MenuScreen&#45;&gt;Box_LoadSavegameScreen -->
<g id="edge32" class="edge"><title>Box_MenuScreen&#45;&gt;Box_LoadSavegameScreen</title>
<path fill="none" stroke="midnightblue" d="M268.813,-444.883C268.607,-425.527 268.906,-405.875 269.709,-387.378"/>
<polygon fill="none" stroke="midnightblue" points="265.315,-445.025 268.967,-454.97 272.314,-444.918 265.315,-445.025"/>
</g>
<!-- Box_MenuScreen&#45;&gt;Box_LoadSavegameScreen -->
<g id="edge42" class="edge"><title>Box_MenuScreen&#45;&gt;Box_LoadSavegameScreen</title>
<path fill="none" stroke="midnightblue" d="M309.187,-444.883C309.393,-425.527 309.094,-405.875 308.291,-387.378"/>
<polygon fill="none" stroke="midnightblue" points="305.686,-444.918 309.033,-454.97 312.685,-445.025 305.686,-444.918"/>
</g>
<!-- Box_MenuScreen&#45;&gt;Box_LoadSavegameScreen -->
<g id="edge8" class="edge"><title>Box_MenuScreen&#45;&gt;Box_LoadSavegameScreen</title>
<path fill="none" stroke="midnightblue" d="M282.271,-444.883C282.202,-425.527 282.302,-405.875 282.57,-387.378"/>
<polygon fill="none" stroke="midnightblue" points="278.771,-444.988 282.322,-454.97 285.771,-444.952 278.771,-444.988"/>
</g>
<!-- Box_MenuScreen&#45;&gt;Box_LoadSavegameScreen -->
<g id="edge18" class="edge"><title>Box_MenuScreen&#45;&gt;Box_LoadSavegameScreen</title>
<path fill="none" stroke="midnightblue" d="M295.729,-444.883C295.798,-425.527 295.698,-405.875 295.43,-387.378"/>
<polygon fill="none" stroke="midnightblue" points="292.229,-444.952 295.678,-454.97 299.229,-444.988 292.229,-444.952"/>
</g>
<!-- Box_OptionScreen -->
<g id="node6" class="node"><title>Box_OptionScreen</title>
<polygon fill="#fcfcda" stroke="black" points="396,-219 396,-363 554,-363 554,-219 396,-219"/>
<text text-anchor="middle" x="475" y="-351.8" font-family="Helvetica,sans-Serif" font-size="8.00">OptionScreen</text>
<polyline fill="none" stroke="black" points="396,-343 554,-343 "/>
<text text-anchor="start" x="404" y="-331.8" font-family="Helvetica,sans-Serif" font-size="8.00">Attributes:</text>
<text text-anchor="start" x="404" y="-319.8" font-family="Helvetica,sans-Serif" font-size="8.00">&#45; spriteBatch : SpriteBatch</text>
<text text-anchor="start" x="404" y="-307.8" font-family="Helvetica,sans-Serif" font-size="8.00">&#45; menu : VerticalMenu</text>
<text text-anchor="start" x="404" y="-295.8" font-family="Helvetica,sans-Serif" font-size="8.00">Methods:</text>
<polyline fill="none" stroke="black" points="396,-287 554,-287 "/>
<text text-anchor="start" x="404" y="-275.8" font-family="Helvetica,sans-Serif" font-size="8.00">+ OptionScreen (Core.Game game)</text>
<text text-anchor="start" x="404" y="-263.8" font-family="Helvetica,sans-Serif" font-size="8.00">+ Activate (GameTime gameTime)</text>
<text text-anchor="start" x="404" y="-251.8" font-family="Helvetica,sans-Serif" font-size="8.00">+ DrawMenu (GameTime gameTime)</text>
<text text-anchor="start" x="404" y="-239.8" font-family="Helvetica,sans-Serif" font-size="8.00">+ UpdateMenu (GameTime gameTime)</text>
<text text-anchor="start" x="404" y="-227.8" font-family="Helvetica,sans-Serif" font-size="8.00">+ Initialize ()</text>
</g>
<!-- Box_MenuScreen&#45;&gt;Box_OptionScreen -->
<g id="edge34" class="edge"><title>Box_MenuScreen&#45;&gt;Box_OptionScreen</title>
<path fill="none" stroke="midnightblue" d="M352.968,-446.534C371.336,-417.959 391.289,-388.646 409.759,-363.281"/>
<polygon fill="none" stroke="midnightblue" points="350.013,-444.659 347.578,-454.97 355.912,-448.428 350.013,-444.659"/>
</g>
<!-- Box_MenuScreen&#45;&gt;Box_OptionScreen -->
<g id="edge44" class="edge"><title>Box_MenuScreen&#45;&gt;Box_OptionScreen</title>
<path fill="none" stroke="midnightblue" d="M390.279,-451.055C410.424,-421.042 430.061,-389.936 445.601,-363.216"/>
<polygon fill="none" stroke="midnightblue" points="387.282,-449.24 384.587,-459.486 393.083,-453.157 387.282,-449.24"/>
</g>
<!-- Box_MenuScreen&#45;&gt;Box_OptionScreen -->
<g id="edge10" class="edge"><title>Box_MenuScreen&#45;&gt;Box_OptionScreen</title>
<path fill="none" stroke="midnightblue" d="M366.414,-446.534C385.013,-417.959 404.462,-388.646 421.694,-363.281"/>
<polygon fill="none" stroke="midnightblue" points="363.446,-444.677 360.933,-454.97 369.316,-448.491 363.446,-444.677"/>
</g>
<!-- Box_MenuScreen&#45;&gt;Box_OptionScreen -->
<g id="edge20" class="edge"><title>Box_MenuScreen&#45;&gt;Box_OptionScreen</title>
<path fill="none" stroke="midnightblue" d="M379.859,-446.534C398.689,-417.959 417.635,-388.646 433.629,-363.281"/>
<polygon fill="none" stroke="midnightblue" points="376.878,-444.696 374.289,-454.97 382.72,-448.553 376.878,-444.696"/>
</g>
<!-- Box_VideoOptionScreen -->
<g id="node7" class="node"><title>Box_VideoOptionScreen</title>
<polygon fill="#fcfcda" stroke="black" points="392.5,-1 392.5,-157 557.5,-157 557.5,-1 392.5,-1"/>
<text text-anchor="middle" x="475" y="-145.8" font-family="Helvetica,sans-Serif" font-size="8.00">VideoOptionScreen</text>
<polyline fill="none" stroke="black" points="392.5,-137 557.5,-137 "/>
<text text-anchor="start" x="400.5" y="-125.8" font-family="Helvetica,sans-Serif" font-size="8.00">Attributes:</text>
<text text-anchor="start" x="400.5" y="-113.8" font-family="Helvetica,sans-Serif" font-size="8.00">&#45; spriteBatch : SpriteBatch</text>
<text text-anchor="start" x="400.5" y="-101.8" font-family="Helvetica,sans-Serif" font-size="8.00">&#45; menu : VerticalMenu</text>
<text text-anchor="start" x="400.5" y="-89.8" font-family="Helvetica,sans-Serif" font-size="8.00">Methods:</text>
<polyline fill="none" stroke="black" points="392.5,-81 557.5,-81 "/>
<text text-anchor="start" x="400.5" y="-69.8" font-family="Helvetica,sans-Serif" font-size="8.00">+ VideoOptionScreen (Core.Game game)</text>
<text text-anchor="start" x="400.5" y="-57.8" font-family="Helvetica,sans-Serif" font-size="8.00">+ Activate (GameTime gameTime)</text>
<text text-anchor="start" x="400.5" y="-45.8" font-family="Helvetica,sans-Serif" font-size="8.00">+ DrawMenu (GameTime gameTime)</text>
<text text-anchor="start" x="400.5" y="-33.8" font-family="Helvetica,sans-Serif" font-size="8.00">+ Initialize ()</text>
<text text-anchor="start" x="400.5" y="-21.8" font-family="Helvetica,sans-Serif" font-size="8.00">+ UpdateMenu (GameTime gameTime)</text>
<text text-anchor="start" x="400.5" y="-9.8" font-family="Helvetica,sans-Serif" font-size="8.00">+ Collapse (MenuItem item)</text>
</g>
<!-- Box_OptionScreen&#45;&gt;Box_VideoOptionScreen -->
<g id="edge22" class="edge"><title>Box_OptionScreen&#45;&gt;Box_VideoOptionScreen</title>
<path fill="none" stroke="midnightblue" d="M428.843,-208.993C427.263,-191.919 427.396,-173.968 429.242,-157.041"/>
<polygon fill="none" stroke="midnightblue" points="425.365,-209.389 429.971,-218.931 432.32,-208.6 425.365,-209.389"/>
</g>
<!-- Box_OptionScreen&#45;&gt;Box_VideoOptionScreen -->
<g id="edge24" class="edge"><title>Box_OptionScreen&#45;&gt;Box_VideoOptionScreen</title>
<path fill="none" stroke="midnightblue" d="M468.4,-208.514C468.181,-191.583 468.202,-173.81 468.463,-157.041"/>
<polygon fill="none" stroke="midnightblue" points="464.907,-208.988 468.567,-218.931 471.906,-208.876 464.907,-208.988"/>
</g>
<!-- Box_OptionScreen&#45;&gt;Box_VideoOptionScreen -->
<g id="edge36" class="edge"><title>Box_OptionScreen&#45;&gt;Box_VideoOptionScreen</title>
<path fill="none" stroke="midnightblue" d="M481.6,-208.514C481.819,-191.583 481.798,-173.81 481.537,-157.041"/>
<polygon fill="none" stroke="midnightblue" points="478.094,-208.876 481.433,-218.931 485.093,-208.988 478.094,-208.876"/>
</g>
<!-- Box_OptionScreen&#45;&gt;Box_VideoOptionScreen -->
<g id="edge38" class="edge"><title>Box_OptionScreen&#45;&gt;Box_VideoOptionScreen</title>
<path fill="none" stroke="midnightblue" d="M494.8,-208.514C495.458,-191.583 495.394,-173.81 494.61,-157.041"/>
<polygon fill="none" stroke="midnightblue" points="491.284,-208.774 494.298,-218.931 498.276,-209.111 491.284,-208.774"/>
</g>
<!-- Box_OptionScreen&#45;&gt;Box_VideoOptionScreen -->
<g id="edge46" class="edge"><title>Box_OptionScreen&#45;&gt;Box_VideoOptionScreen</title>
<path fill="none" stroke="midnightblue" d="M508.001,-208.514C509.096,-191.583 508.99,-173.81 507.684,-157.041"/>
<polygon fill="none" stroke="midnightblue" points="504.476,-208.682 507.164,-218.931 511.454,-209.243 504.476,-208.682"/>
</g>
<!-- Box_OptionScreen&#45;&gt;Box_VideoOptionScreen -->
<g id="edge48" class="edge"><title>Box_OptionScreen&#45;&gt;Box_VideoOptionScreen</title>
<path fill="none" stroke="midnightblue" d="M521.157,-208.993C522.737,-191.919 522.604,-173.968 520.758,-157.041"/>
<polygon fill="none" stroke="midnightblue" points="517.68,-208.6 520.029,-218.931 524.635,-209.389 517.68,-208.6"/>
</g>
<!-- Box_OptionScreen&#45;&gt;Box_VideoOptionScreen -->
<g id="edge12" class="edge"><title>Box_OptionScreen&#45;&gt;Box_VideoOptionScreen</title>
<path fill="none" stroke="midnightblue" d="M441.999,-208.514C440.904,-191.583 441.01,-173.81 442.316,-157.041"/>
<polygon fill="none" stroke="midnightblue" points="438.546,-209.243 442.836,-218.931 445.524,-208.682 438.546,-209.243"/>
</g>
<!-- Box_OptionScreen&#45;&gt;Box_VideoOptionScreen -->
<g id="edge14" class="edge"><title>Box_OptionScreen&#45;&gt;Box_VideoOptionScreen</title>
<path fill="none" stroke="midnightblue" d="M455.2,-208.514C454.542,-191.583 454.606,-173.81 455.39,-157.041"/>
<polygon fill="none" stroke="midnightblue" points="451.724,-209.111 455.702,-218.931 458.716,-208.774 451.724,-209.111"/>
</g>
</g>
</svg>
