<?xml version="1.0" encoding="UTF-8" standalone="no"?>
<!DOCTYPE svg PUBLIC "-//W3C//DTD SVG 1.1//EN"
 "http://www.w3.org/Graphics/SVG/1.1/DTD/svg11.dtd">
<!-- Generated by graphviz version 2.26.3 (20100126.1600)
 -->
<!-- Title: MenuItem Pages: 1 -->
<svg width="449pt" height="684pt"
 viewBox="0.00 0.00 449.00 684.00" xmlns="http://www.w3.org/2000/svg" xmlns:xlink="http://www.w3.org/1999/xlink">
<g id="graph1" class="graph" transform="scale(1 1) rotate(0) translate(4 680)">
<title>MenuItem</title>
<polygon fill="white" stroke="white" points="-4,5 -4,-680 446,-680 446,5 -4,5"/>
<!-- Box_Camera -->
<g id="node1" class="node"><title>Box_Camera</title>
<polygon fill="#fcfcda" stroke="black" points="186,-1 186,-337 356,-337 356,-1 186,-1"/>
<text text-anchor="middle" x="271" y="-325.8" font-family="Helvetica,sans-Serif" font-size="8.00">Camera</text>
<polyline fill="none" stroke="black" points="186,-317 356,-317 "/>
<text text-anchor="start" x="194" y="-305.8" font-family="Helvetica,sans-Serif" font-size="8.00">Attributes:</text>
<text text-anchor="start" x="194" y="-293.8" font-family="Helvetica,sans-Serif" font-size="8.00">&#45; World : World</text>
<text text-anchor="start" x="194" y="-281.8" font-family="Helvetica,sans-Serif" font-size="8.00">+ WorldMatrix : Matrix</text>
<text text-anchor="start" x="194" y="-269.8" font-family="Helvetica,sans-Serif" font-size="8.00">+ ViewMatrix : Matrix</text>
<text text-anchor="start" x="194" y="-257.8" font-family="Helvetica,sans-Serif" font-size="8.00">+ ProjectionMatrix : Matrix</text>
<text text-anchor="start" x="194" y="-245.8" font-family="Helvetica,sans-Serif" font-size="8.00">+ DefaultPosition : Vector3</text>
<text text-anchor="start" x="194" y="-233.8" font-family="Helvetica,sans-Serif" font-size="8.00">+ Position : Vector3</text>
<text text-anchor="start" x="194" y="-221.8" font-family="Helvetica,sans-Serif" font-size="8.00">+ Target : Vector3</text>
<text text-anchor="start" x="194" y="-209.8" font-family="Helvetica,sans-Serif" font-size="8.00">+ UpVector : Vector3</text>
<text text-anchor="start" x="194" y="-197.8" font-family="Helvetica,sans-Serif" font-size="8.00">&#45; foV : float</text>
<text text-anchor="start" x="194" y="-185.8" font-family="Helvetica,sans-Serif" font-size="8.00">+ FoV : float</text>
<text text-anchor="start" x="194" y="-173.8" font-family="Helvetica,sans-Serif" font-size="8.00">+ RotationAngle : Angles3</text>
<text text-anchor="start" x="194" y="-161.8" font-family="Helvetica,sans-Serif" font-size="8.00">&#45; AutoRotation : Angles3</text>
<text text-anchor="start" x="194" y="-149.8" font-family="Helvetica,sans-Serif" font-size="8.00">&#45; aspectRatio : float</text>
<text text-anchor="start" x="194" y="-137.8" font-family="Helvetica,sans-Serif" font-size="8.00">&#45; nearPlane : float</text>
<text text-anchor="start" x="194" y="-125.8" font-family="Helvetica,sans-Serif" font-size="8.00">&#45; farPlane : float</text>
<text text-anchor="start" x="194" y="-113.8" font-family="Helvetica,sans-Serif" font-size="8.00">+ TargetDistance : float</text>
<text text-anchor="start" x="194" y="-101.8" font-family="Helvetica,sans-Serif" font-size="8.00">+ TargetDirection : Vector3</text>
<text text-anchor="start" x="194" y="-89.8" font-family="Helvetica,sans-Serif" font-size="8.00">+ ArcballTarget : Vector3</text>
<text text-anchor="start" x="194" y="-77.8" font-family="Helvetica,sans-Serif" font-size="8.00">Methods:</text>
<polyline fill="none" stroke="black" points="186,-69 356,-69 "/>
<text text-anchor="start" x="194" y="-57.8" font-family="Helvetica,sans-Serif" font-size="8.00">+ Camera (GameState state, World world)</text>
<text text-anchor="start" x="194" y="-45.8" font-family="Helvetica,sans-Serif" font-size="8.00">+ Update (GameTime gameTime) override</text>
<text text-anchor="start" x="194" y="-33.8" font-family="Helvetica,sans-Serif" font-size="8.00">&#45; UpdateRotation (GameTime gameTime)</text>
<text text-anchor="start" x="194" y="-21.8" font-family="Helvetica,sans-Serif" font-size="8.00">&#45; UpdateMatrices (GameTime gameTime)</text>
<text text-anchor="start" x="194" y="-9.8" font-family="Helvetica,sans-Serif" font-size="8.00">+ GetMouseRay (Vector2 mouse) : Ray</text>
</g>
<!-- Box_GameStateComponent -->
<g id="node2" class="node"><title>Box_GameStateComponent</title>
<polygon fill="#fcfcda" stroke="black" points="100.5,-375 100.5,-495 441.5,-495 441.5,-375 100.5,-375"/>
<text text-anchor="middle" x="271" y="-483.8" font-family="Helvetica,sans-Serif" font-size="8.00">GameStateComponent</text>
<polyline fill="none" stroke="black" points="100.5,-475 441.5,-475 "/>
<text text-anchor="start" x="108.5" y="-463.8" font-family="Helvetica,sans-Serif" font-size="8.00">Attributes:</text>
<text text-anchor="start" x="108.5" y="-451.8" font-family="Helvetica,sans-Serif" font-size="8.00"># InputOrder : DisplayLayer</text>
<text text-anchor="start" x="108.5" y="-439.8" font-family="Helvetica,sans-Serif" font-size="8.00">+ state : GameState</text>
<text text-anchor="start" x="108.5" y="-427.8" font-family="Helvetica,sans-Serif" font-size="8.00">+ Index : int</text>
<text text-anchor="start" x="108.5" y="-415.8" font-family="Helvetica,sans-Serif" font-size="8.00">Methods:</text>
<polyline fill="none" stroke="black" points="100.5,-407 441.5,-407 "/>
<text text-anchor="start" x="108.5" y="-395.8" font-family="Helvetica,sans-Serif" font-size="8.00">+ GameStateComponent (GameState state, DisplayLayer inputOrder)</text>
<text text-anchor="start" x="108.5" y="-383.8" font-family="Helvetica,sans-Serif" font-size="8.00">+ SubComponents (GameTime gameTime) : IEnumerable&lt;IGameStateComponent&gt; virtual</text>
</g>
<!-- Box_GameStateComponent&#45;&gt;Box_Camera -->
<g id="edge2" class="edge"><title>Box_GameStateComponent&#45;&gt;Box_Camera</title>
<path fill="none" stroke="midnightblue" d="M271,-364.835C271,-356.001 271,-346.686 271,-337.109"/>
<polygon fill="none" stroke="midnightblue" points="267.5,-364.973 271,-374.973 274.5,-364.973 267.5,-364.973"/>
</g>
<!-- Box_IGameStateComponent -->
<g id="node3" class="node"><title>Box_IGameStateComponent</title>
<polygon fill="#dafcda" stroke="black" points="0,-533 0,-617 318,-617 318,-533 0,-533"/>
<text text-anchor="middle" x="159" y="-605.8" font-family="Helvetica,sans-Serif" font-size="8.00">IGameStateComponent</text>
<polyline fill="none" stroke="black" points="0,-597 318,-597 "/>
<text text-anchor="start" x="8" y="-585.8" font-family="Helvetica,sans-Serif" font-size="8.00">Attributes:</text>
<text text-anchor="start" x="8" y="-573.8" font-family="Helvetica,sans-Serif" font-size="8.00">+ Index : int</text>
<text text-anchor="start" x="8" y="-561.8" font-family="Helvetica,sans-Serif" font-size="8.00">Methods:</text>
<polyline fill="none" stroke="black" points="0,-553 318,-553 "/>
<text text-anchor="start" x="8" y="-541.8" font-family="Helvetica,sans-Serif" font-size="8.00">+ SubComponents (GameTime gameTime) : IEnumerable&lt;IGameStateComponent&gt;</text>
</g>
<!-- Box_IGameStateComponent&#45;&gt;Box_GameStateComponent -->
<g id="edge6" class="edge"><title>Box_IGameStateComponent&#45;&gt;Box_GameStateComponent</title>
<path fill="none" stroke="midnightblue" d="M198.996,-525.005C206.749,-515.314 214.948,-505.065 222.928,-495.09"/>
<polygon fill="none" stroke="midnightblue" points="196.118,-523 192.604,-532.995 201.584,-527.373 196.118,-523"/>
</g>
<!-- Box_XnaGameComponent -->
<g id="node4" class="node"><title>Box_XnaGameComponent</title>
<polygon fill="#ffffff" stroke="black" points="335.5,-565 335.5,-585 432.5,-585 432.5,-565 335.5,-565"/>
<text text-anchor="middle" x="384" y="-573.8" font-family="Helvetica,sans-Serif" font-size="8.00">Xna.GameComponent</text>
</g>
<!-- Box_XnaGameComponent&#45;&gt;Box_GameStateComponent -->
<g id="edge4" class="edge"><title>Box_XnaGameComponent&#45;&gt;Box_GameStateComponent</title>
<path fill="none" stroke="midnightblue" d="M369.529,-557.071C356.811,-541.314 337.556,-517.459 319.432,-495.004"/>
<polygon fill="none" stroke="midnightblue" points="366.869,-559.348 375.873,-564.932 372.316,-554.952 366.869,-559.348"/>
</g>
<!-- Box_XnaIGameComponent -->
<g id="node5" class="node"><title>Box_XnaIGameComponent</title>
<polygon fill="#ffffff" stroke="black" points="109.5,-655 109.5,-675 208.5,-675 208.5,-655 109.5,-655"/>
<text text-anchor="middle" x="159" y="-663.8" font-family="Helvetica,sans-Serif" font-size="8.00">Xna.IGameComponent</text>
</g>
<!-- Box_XnaIGameComponent&#45;&gt;Box_IGameStateComponent -->
<g id="edge8" class="edge"><title>Box_XnaIGameComponent&#45;&gt;Box_IGameStateComponent</title>
<path fill="none" stroke="midnightblue" d="M159,-644.454C159,-636.393 159,-626.828 159,-617.414"/>
<polygon fill="none" stroke="midnightblue" points="155.5,-644.676 159,-654.676 162.5,-644.676 155.5,-644.676"/>
</g>
</g>
</svg>
