<?xml version="1.0" encoding="UTF-8" standalone="no"?>
<!DOCTYPE svg PUBLIC "-//W3C//DTD SVG 1.1//EN"
 "http://www.w3.org/Graphics/SVG/1.1/DTD/svg11.dtd">
<!-- Generated by graphviz version 2.26.3 (20100126.1600)
 -->
<!-- Title: MenuItem Pages: 1 -->
<svg width="1717pt" height="2033pt"
 viewBox="0.00 0.00 412.00 488.00" xmlns="http://www.w3.org/2000/svg" xmlns:xlink="http://www.w3.org/1999/xlink">
<g id="graph1" class="graph" transform="scale(4.16667 4.16667) rotate(0) translate(4 484)">
<title>MenuItem</title>
<polygon fill="white" stroke="white" points="-4,5 -4,-484 409,-484 409,5 -4,5"/>
<!-- Box_PipeRenderer -->
<g id="node1" class="node"><title>Box_PipeRenderer</title>
<polygon fill="#fcfcda" stroke="black" points="148,-1 148,-175 366,-175 366,-1 148,-1"/>
<text text-anchor="middle" x="257" y="-163.8" font-family="Arial" font-size="8.00">PipeRenderer</text>
<polyline fill="none" stroke="black" points="148,-157 366,-157 "/>
<text text-anchor="start" x="156" y="-145.8" font-family="Arial" font-size="8.00">&#45; nodes : List&lt;NodeModel&gt;</text>
<text text-anchor="start" x="156" y="-135.8" font-family="Arial" font-size="8.00">&#45; nodeFactory : ModelFactory</text>
<text text-anchor="start" x="156" y="-125.8" font-family="Arial" font-size="8.00">&#45; pipeFactory : ModelFactory</text>
<text text-anchor="start" x="156" y="-115.8" font-family="Arial" font-size="8.00">&#45; pipes : List&lt;PipeModel&gt;</text>
<text text-anchor="start" x="156" y="-105.8" font-family="Arial" font-size="8.00">+ Info : GameObjectInfo</text>
<text text-anchor="start" x="156" y="-95.8" font-family="Arial" font-size="8.00">+ World : World</text>
<polyline fill="none" stroke="black" points="148,-89 366,-89 "/>
<text text-anchor="start" x="156" y="-77.8" font-family="Arial" font-size="8.00">&#45; IEnumerable.GetEnumerator () : IEnumerator</text>
<text text-anchor="start" x="156" y="-67.8" font-family="Arial" font-size="8.00">+ PipeRenderer (GameState state, GameObjectInfo info)</text>
<text text-anchor="start" x="156" y="-57.8" font-family="Arial" font-size="8.00">+ Draw (GameTime gameTime)</text>
<text text-anchor="start" x="156" y="-47.8" font-family="Arial" font-size="8.00">+ OnEdgesChanged (EdgeList edges)</text>
<text text-anchor="start" x="156" y="-37.8" font-family="Arial" font-size="8.00">+ GetEnumerator () : IEnumerator&lt;IGameObject&gt;</text>
<text text-anchor="start" x="156" y="-27.8" font-family="Arial" font-size="8.00">+ Intersects (Ray ray) : GameObjectDistance</text>
<text text-anchor="start" x="156" y="-17.8" font-family="Arial" font-size="8.00">+ Center () : Vector3</text>
<text text-anchor="start" x="156" y="-7.8" font-family="Arial" font-size="8.00">+ Update (GameTime gameTime)</text>
</g>
<!-- Box_KnotRenderer -->
<g id="node2" class="node"><title>Box_KnotRenderer</title>
<polygon fill="#fcfcda" stroke="black" points="61.5,-213 61.5,-347 272.5,-347 272.5,-213 61.5,-213"/>
<text text-anchor="middle" x="167" y="-335.8" font-family="Arial" font-size="8.00">KnotRenderer</text>
<polyline fill="none" stroke="black" points="61.5,-329 272.5,-329 "/>
<text text-anchor="start" x="69.5" y="-317.8" font-family="Arial" font-size="8.00">+ World : World abstract</text>
<text text-anchor="start" x="69.5" y="-307.8" font-family="Arial" font-size="8.00"># screen : GameScreen</text>
<text text-anchor="start" x="69.5" y="-297.8" font-family="Arial" font-size="8.00">+ Info : GameObjectInfo abstract</text>
<polyline fill="none" stroke="black" points="61.5,-291 272.5,-291 "/>
<text text-anchor="start" x="69.5" y="-279.8" font-family="Arial" font-size="8.00"># nodeMap () : NodeMap</text>
<text text-anchor="start" x="69.5" y="-269.8" font-family="Arial" font-size="8.00">+ Intersects (Ray ray) : GameObjectDistance abstract</text>
<text text-anchor="start" x="69.5" y="-259.8" font-family="Arial" font-size="8.00">+ Center () : Vector3 abstract</text>
<text text-anchor="start" x="69.5" y="-249.8" font-family="Arial" font-size="8.00">+ Draw (GameTime gameTime) abstract</text>
<text text-anchor="start" x="69.5" y="-239.8" font-family="Arial" font-size="8.00">+ KnotRenderer (GameScreen screen)</text>
<text text-anchor="start" x="69.5" y="-229.8" font-family="Arial" font-size="8.00">+ Update (GameTime gameTime) abstract</text>
<text text-anchor="start" x="69.5" y="-219.8" font-family="Arial" font-size="8.00">+ OnEdgesChanged (EdgeList edges) virtual</text>
</g>
<!-- Box_KnotRenderer&#45;&gt;Box_PipeRenderer -->
<g id="edge2" class="edge"><title>Box_KnotRenderer&#45;&gt;Box_PipeRenderer</title>
<path fill="none" stroke="midnightblue" d="M202.827,-203.568C207.225,-194.188 211.744,-184.547 216.207,-175.025"/>
<polygon fill="none" stroke="midnightblue" points="199.553,-202.308 198.478,-212.848 205.891,-205.279 199.553,-202.308"/>
</g>
<!-- Box_IEdgeChangeListener -->
<g id="node3" class="node"><title>Box_IEdgeChangeListener</title>
<polygon fill="#dafcda" stroke="black" points="0,-405 0,-459 152,-459 152,-405 0,-405"/>
<text text-anchor="middle" x="76" y="-447.8" font-family="Arial" font-size="8.00">IEdgeChangeListener</text>
<polyline fill="none" stroke="black" points="0,-441 152,-441 "/>
<text text-anchor="middle" x="76" y="-429.8" font-family="Arial" font-size="8.00"> </text>
<polyline fill="none" stroke="black" points="0,-423 152,-423 "/>
<text text-anchor="start" x="8" y="-411.8" font-family="Arial" font-size="8.00">+ OnEdgesChanged (EdgeList edges)</text>
</g>
<!-- Box_IEdgeChangeListener&#45;&gt;Box_KnotRenderer -->
<g id="edge6" class="edge"><title>Box_IEdgeChangeListener&#45;&gt;Box_KnotRenderer</title>
<path fill="none" stroke="midnightblue" d="M97.5032,-396.083C106.286,-381.413 116.739,-363.953 126.837,-347.086"/>
<polygon fill="none" stroke="midnightblue" points="94.4027,-394.448 92.269,-404.825 100.409,-398.043 94.4027,-394.448"/>
</g>
<!-- Box_IGameObject -->
<g id="node4" class="node"><title>Box_IGameObject</title>
<polygon fill="#dafcda" stroke="black" points="169.5,-385 169.5,-479 348.5,-479 348.5,-385 169.5,-385"/>
<text text-anchor="middle" x="259" y="-467.8" font-family="Arial" font-size="8.00">IGameObject</text>
<polyline fill="none" stroke="black" points="169.5,-461 348.5,-461 "/>
<text text-anchor="start" x="177.5" y="-449.8" font-family="Arial" font-size="8.00">+ Info : GameObjectInfo</text>
<text text-anchor="start" x="177.5" y="-439.8" font-family="Arial" font-size="8.00">+ World : World</text>
<polyline fill="none" stroke="black" points="169.5,-433 348.5,-433 "/>
<text text-anchor="start" x="177.5" y="-421.8" font-family="Arial" font-size="8.00">+ Draw (GameTime time)</text>
<text text-anchor="start" x="177.5" y="-411.8" font-family="Arial" font-size="8.00">+ Update (GameTime time)</text>
<text text-anchor="start" x="177.5" y="-401.8" font-family="Arial" font-size="8.00">+ Intersects (Ray ray) : GameObjectDistance</text>
<text text-anchor="start" x="177.5" y="-391.8" font-family="Arial" font-size="8.00">+ Center () : Vector3</text>
</g>
<!-- Box_IGameObject&#45;&gt;Box_KnotRenderer -->
<g id="edge8" class="edge"><title>Box_IGameObject&#45;&gt;Box_KnotRenderer</title>
<path fill="none" stroke="midnightblue" d="M225.214,-376.18C219.478,-366.702 213.467,-356.772 207.577,-347.041"/>
<polygon fill="none" stroke="midnightblue" points="222.223,-377.997 230.395,-384.739 228.211,-374.372 222.223,-377.997"/>
</g>
<!-- Box_IEnumerable -->
<g id="node5" class="node"><title>Box_IEnumerable</title>
<polygon fill="#ffffff" stroke="black" points="289.5,-271 289.5,-289 404.5,-289 404.5,-271 289.5,-271"/>
<text text-anchor="middle" x="347" y="-277.8" font-family="Arial" font-size="8.00">IEnumerable&lt;IGameObject&gt;</text>
</g>
<!-- Box_IEnumerable&#45;&gt;Box_PipeRenderer -->
<g id="edge4" class="edge"><title>Box_IEnumerable&#45;&gt;Box_PipeRenderer</title>
<path fill="none" stroke="midnightblue" d="M338.481,-261.827C329.068,-241.745 313.217,-207.929 297.984,-175.433"/>
<polygon fill="none" stroke="midnightblue" points="335.366,-263.428 342.78,-270.997 341.705,-260.457 335.366,-263.428"/>
</g>
</g>
</svg>
