<?xml version="1.0" encoding="UTF-8" standalone="no"?>
<!DOCTYPE svg PUBLIC "-//W3C//DTD SVG 1.1//EN"
 "http://www.w3.org/Graphics/SVG/1.1/DTD/svg11.dtd">
<!-- Generated by graphviz version 2.26.3 (20100126.1600)
 -->
<!-- Title: MenuItem Pages: 1 -->
<svg width="2933pt" height="2033pt"
 viewBox="0.00 0.00 704.00 488.00" xmlns="http://www.w3.org/2000/svg" xmlns:xlink="http://www.w3.org/1999/xlink">
<g id="graph1" class="graph" transform="scale(4.16667 4.16667) rotate(0) translate(4 484)">
<title>MenuItem</title>
<polygon fill="white" stroke="white" points="-4,5 -4,-484 701,-484 701,5 -4,5"/>
<!-- Box_IEdgeChangeListener -->
<g id="node1" class="node"><title>Box_IEdgeChangeListener</title>
<polygon fill="#dafcda" stroke="black" points="207,-425 207,-479 359,-479 359,-425 207,-425"/>
<text text-anchor="middle" x="283" y="-467.8" font-family="Arial" font-size="8.00">IEdgeChangeListener</text>
<polyline fill="none" stroke="black" points="207,-461 359,-461 "/>
<text text-anchor="middle" x="283" y="-449.8" font-family="Arial" font-size="8.00"> </text>
<polyline fill="none" stroke="black" points="207,-443 359,-443 "/>
<text text-anchor="start" x="215" y="-431.8" font-family="Arial" font-size="8.00">+ OnEdgesChanged (EdgeList edges)</text>
</g>
<!-- Box_KnotRenderer -->
<g id="node2" class="node"><title>Box_KnotRenderer</title>
<polygon fill="#fcfcda" stroke="black" points="239.5,-253 239.5,-387 450.5,-387 450.5,-253 239.5,-253"/>
<text text-anchor="middle" x="345" y="-375.8" font-family="Arial" font-size="8.00">KnotRenderer</text>
<polyline fill="none" stroke="black" points="239.5,-369 450.5,-369 "/>
<text text-anchor="start" x="247.5" y="-357.8" font-family="Arial" font-size="8.00">+ World : World abstract</text>
<text text-anchor="start" x="247.5" y="-347.8" font-family="Arial" font-size="8.00"># state : GameState</text>
<text text-anchor="start" x="247.5" y="-337.8" font-family="Arial" font-size="8.00">+ Info : GameObjectInfo abstract</text>
<polyline fill="none" stroke="black" points="239.5,-331 450.5,-331 "/>
<text text-anchor="start" x="247.5" y="-319.8" font-family="Arial" font-size="8.00"># nodeMap () : NodeMap</text>
<text text-anchor="start" x="247.5" y="-309.8" font-family="Arial" font-size="8.00">+ Intersects (Ray ray) : GameObjectDistance abstract</text>
<text text-anchor="start" x="247.5" y="-299.8" font-family="Arial" font-size="8.00">+ Center () : Vector3 abstract</text>
<text text-anchor="start" x="247.5" y="-289.8" font-family="Arial" font-size="8.00">+ Draw (GameTime gameTime) abstract</text>
<text text-anchor="start" x="247.5" y="-279.8" font-family="Arial" font-size="8.00">+ KnotRenderer (GameState state)</text>
<text text-anchor="start" x="247.5" y="-269.8" font-family="Arial" font-size="8.00">+ Update (GameTime gameTime) abstract</text>
<text text-anchor="start" x="247.5" y="-259.8" font-family="Arial" font-size="8.00">+ OnEdgesChanged (EdgeList edges) virtual</text>
</g>
<!-- Box_IEdgeChangeListener&#45;&gt;Box_KnotRenderer -->
<g id="edge2" class="edge"><title>Box_IEdgeChangeListener&#45;&gt;Box_KnotRenderer</title>
<path fill="none" stroke="midnightblue" d="M300.054,-415.692C304.243,-406.773 308.862,-396.94 313.495,-387.075"/>
<polygon fill="none" stroke="midnightblue" points="296.78,-414.43 295.696,-424.969 303.116,-417.406 296.78,-414.43"/>
</g>
<!-- Box_LineRenderer -->
<g id="node3" class="node"><title>Box_LineRenderer</title>
<polygon fill="#fcfcda" stroke="black" points="0,-36 0,-180 218,-180 218,-36 0,-36"/>
<text text-anchor="middle" x="109" y="-168.8" font-family="Arial" font-size="8.00">LineRenderer</text>
<polyline fill="none" stroke="black" points="0,-162 218,-162 "/>
<text text-anchor="start" x="8" y="-150.8" font-family="Arial" font-size="8.00">&#45; edges : EdgeList</text>
<text text-anchor="start" x="8" y="-140.8" font-family="Arial" font-size="8.00">&#45; basicEffect : BasicEffect</text>
<text text-anchor="start" x="8" y="-130.8" font-family="Arial" font-size="8.00">+ Info : GameObjectInfo</text>
<text text-anchor="start" x="8" y="-120.8" font-family="Arial" font-size="8.00">+ World : World</text>
<polyline fill="none" stroke="black" points="0,-114 218,-114 "/>
<text text-anchor="start" x="8" y="-102.8" font-family="Arial" font-size="8.00">+ LineRenderer (GameState state, GameObjectInfo info)</text>
<text text-anchor="start" x="8" y="-92.8" font-family="Arial" font-size="8.00">+ OnEdgesChanged (EdgeList edges)</text>
<text text-anchor="start" x="8" y="-82.8" font-family="Arial" font-size="8.00">&#45; DrawRoundedLines ()</text>
<text text-anchor="start" x="8" y="-72.8" font-family="Arial" font-size="8.00">+ Intersects (Ray ray) : GameObjectDistance</text>
<text text-anchor="start" x="8" y="-62.8" font-family="Arial" font-size="8.00">+ Center () : Vector3</text>
<text text-anchor="start" x="8" y="-52.8" font-family="Arial" font-size="8.00">+ Draw (GameTime gameTime)</text>
<text text-anchor="start" x="8" y="-42.8" font-family="Arial" font-size="8.00">+ Update (GameTime gameTime)</text>
</g>
<!-- Box_KnotRenderer&#45;&gt;Box_LineRenderer -->
<g id="edge6" class="edge"><title>Box_KnotRenderer&#45;&gt;Box_LineRenderer</title>
<path fill="none" stroke="midnightblue" d="M260.53,-245.894C249.228,-235.879 237.812,-225.711 227,-216 214.19,-204.495 200.664,-192.227 187.519,-180.242"/>
<polygon fill="none" stroke="midnightblue" points="258.519,-248.788 268.327,-252.796 263.159,-243.547 258.519,-248.788"/>
</g>
<!-- Box_ModelRenderer -->
<g id="node4" class="node"><title>Box_ModelRenderer</title>
<polygon fill="#fcfcda" stroke="black" points="472,-1 472,-215 696,-215 696,-1 472,-1"/>
<text text-anchor="middle" x="584" y="-203.8" font-family="Arial" font-size="8.00">ModelRenderer</text>
<polyline fill="none" stroke="black" points="472,-197 696,-197 "/>
<text text-anchor="start" x="480" y="-185.8" font-family="Arial" font-size="8.00">&#45; arrows : List&lt;ArrowModel&gt;</text>
<text text-anchor="start" x="480" y="-175.8" font-family="Arial" font-size="8.00">&#45; nodes : List&lt;NodeModel&gt;</text>
<text text-anchor="start" x="480" y="-165.8" font-family="Arial" font-size="8.00">&#45; arrowFactory : ModelFactory</text>
<text text-anchor="start" x="480" y="-155.8" font-family="Arial" font-size="8.00">&#45; nodeFactory : ModelFactory</text>
<text text-anchor="start" x="480" y="-145.8" font-family="Arial" font-size="8.00">&#45; pipeFactory : ModelFactory</text>
<text text-anchor="start" x="480" y="-135.8" font-family="Arial" font-size="8.00">&#45; pipes : List&lt;PipeModel&gt;</text>
<text text-anchor="start" x="480" y="-125.8" font-family="Arial" font-size="8.00">+ Info : GameObjectInfo</text>
<text text-anchor="start" x="480" y="-115.8" font-family="Arial" font-size="8.00">+ World : World</text>
<polyline fill="none" stroke="black" points="472,-109 696,-109 "/>
<text text-anchor="start" x="480" y="-97.8" font-family="Arial" font-size="8.00">&#45; IEnumerable.GetEnumerator () : IEnumerator</text>
<text text-anchor="start" x="480" y="-87.8" font-family="Arial" font-size="8.00">&#45; CreateArrow (Edge edge)</text>
<text text-anchor="start" x="480" y="-77.8" font-family="Arial" font-size="8.00">+ ModelRenderer (GameState state, GameObjectInfo info)</text>
<text text-anchor="start" x="480" y="-67.8" font-family="Arial" font-size="8.00">+ Draw (GameTime gameTime)</text>
<text text-anchor="start" x="480" y="-57.8" font-family="Arial" font-size="8.00">+ OnEdgesChanged (EdgeList edgeList)</text>
<text text-anchor="start" x="480" y="-47.8" font-family="Arial" font-size="8.00">+ GetEnumerator () : IEnumerator&lt;IGameObject&gt;</text>
<text text-anchor="start" x="480" y="-37.8" font-family="Arial" font-size="8.00">+ Intersects (Ray ray) : GameObjectDistance</text>
<text text-anchor="start" x="480" y="-27.8" font-family="Arial" font-size="8.00">+ Center () : Vector3</text>
<text text-anchor="start" x="480" y="-17.8" font-family="Arial" font-size="8.00">+ Update (GameTime gameTime)</text>
<text text-anchor="start" x="480" y="-7.8" font-family="Arial" font-size="8.00">+ CreateArrows (WrapList&lt;Edge&gt; selectedEdges)</text>
</g>
<!-- Box_KnotRenderer&#45;&gt;Box_ModelRenderer -->
<g id="edge8" class="edge"><title>Box_KnotRenderer&#45;&gt;Box_ModelRenderer</title>
<path fill="none" stroke="midnightblue" d="M428.768,-246.286C440.279,-236.122 451.939,-225.81 463,-216 465.949,-213.384 468.938,-210.732 471.952,-208.054"/>
<polygon fill="none" stroke="midnightblue" points="426.415,-243.695 421.233,-252.936 431.047,-248.943 426.415,-243.695"/>
</g>
<!-- Box_PipeRenderer -->
<g id="node5" class="node"><title>Box_PipeRenderer</title>
<polygon fill="#fcfcda" stroke="black" points="236,-21 236,-195 454,-195 454,-21 236,-21"/>
<text text-anchor="middle" x="345" y="-183.8" font-family="Arial" font-size="8.00">PipeRenderer</text>
<polyline fill="none" stroke="black" points="236,-177 454,-177 "/>
<text text-anchor="start" x="244" y="-165.8" font-family="Arial" font-size="8.00">&#45; nodes : List&lt;NodeModel&gt;</text>
<text text-anchor="start" x="244" y="-155.8" font-family="Arial" font-size="8.00">&#45; nodeFactory : ModelFactory</text>
<text text-anchor="start" x="244" y="-145.8" font-family="Arial" font-size="8.00">&#45; pipeFactory : ModelFactory</text>
<text text-anchor="start" x="244" y="-135.8" font-family="Arial" font-size="8.00">&#45; pipes : List&lt;PipeModel&gt;</text>
<text text-anchor="start" x="244" y="-125.8" font-family="Arial" font-size="8.00">+ Info : GameObjectInfo</text>
<text text-anchor="start" x="244" y="-115.8" font-family="Arial" font-size="8.00">+ World : World</text>
<polyline fill="none" stroke="black" points="236,-109 454,-109 "/>
<text text-anchor="start" x="244" y="-97.8" font-family="Arial" font-size="8.00">&#45; IEnumerable.GetEnumerator () : IEnumerator</text>
<text text-anchor="start" x="244" y="-87.8" font-family="Arial" font-size="8.00">+ PipeRenderer (GameState state, GameObjectInfo info)</text>
<text text-anchor="start" x="244" y="-77.8" font-family="Arial" font-size="8.00">+ Draw (GameTime gameTime)</text>
<text text-anchor="start" x="244" y="-67.8" font-family="Arial" font-size="8.00">+ OnEdgesChanged (EdgeList edges)</text>
<text text-anchor="start" x="244" y="-57.8" font-family="Arial" font-size="8.00">+ GetEnumerator () : IEnumerator&lt;IGameObject&gt;</text>
<text text-anchor="start" x="244" y="-47.8" font-family="Arial" font-size="8.00">+ Intersects (Ray ray) : GameObjectDistance</text>
<text text-anchor="start" x="244" y="-37.8" font-family="Arial" font-size="8.00">+ Center () : Vector3</text>
<text text-anchor="start" x="244" y="-27.8" font-family="Arial" font-size="8.00">+ Update (GameTime gameTime)</text>
</g>
<!-- Box_KnotRenderer&#45;&gt;Box_PipeRenderer -->
<g id="edge12" class="edge"><title>Box_KnotRenderer&#45;&gt;Box_PipeRenderer</title>
<path fill="none" stroke="midnightblue" d="M345,-242.889C345,-227.402 345,-211.025 345,-195.223"/>
<polygon fill="none" stroke="midnightblue" points="341.5,-242.922 345,-252.922 348.5,-242.922 341.5,-242.922"/>
</g>
<!-- Box_IGameObject -->
<g id="node6" class="node"><title>Box_IGameObject</title>
<polygon fill="#ffffff" stroke="black" points="377,-443 377,-461 439,-461 439,-443 377,-443"/>
<text text-anchor="middle" x="408" y="-449.8" font-family="Arial" font-size="8.00">IGameObject</text>
</g>
<!-- Box_IGameObject&#45;&gt;Box_KnotRenderer -->
<g id="edge4" class="edge"><title>Box_IGameObject&#45;&gt;Box_KnotRenderer</title>
<path fill="none" stroke="midnightblue" d="M399.309,-433.791C393.416,-421.444 385.227,-404.285 376.993,-387.033"/>
<polygon fill="none" stroke="midnightblue" points="396.204,-435.41 403.67,-442.927 402.521,-432.395 396.204,-435.41"/>
</g>
<!-- Box_IEnumerable -->
<g id="node7" class="node"><title>Box_IEnumerable</title>
<polygon fill="#ffffff" stroke="black" points="496.5,-311 496.5,-329 611.5,-329 611.5,-311 496.5,-311"/>
<text text-anchor="middle" x="554" y="-317.8" font-family="Arial" font-size="8.00">IEnumerable&lt;IGameObject&gt;</text>
</g>
<!-- Box_IEnumerable&#45;&gt;Box_ModelRenderer -->
<g id="edge10" class="edge"><title>Box_IEnumerable&#45;&gt;Box_ModelRenderer</title>
<path fill="none" stroke="midnightblue" d="M556.727,-300.729C559.55,-280.783 564.191,-247.983 568.852,-215.048"/>
<polygon fill="none" stroke="midnightblue" points="553.225,-300.499 555.289,-310.891 560.156,-301.48 553.225,-300.499"/>
</g>
<!-- Box_IEnumerable&#45;&gt;Box_PipeRenderer -->
<g id="edge14" class="edge"><title>Box_IEnumerable&#45;&gt;Box_PipeRenderer</title>
<path fill="none" stroke="midnightblue" d="M537.779,-303.546C514.738,-280.175 470.873,-235.68 430.8,-195.031"/>
<polygon fill="none" stroke="midnightblue" points="535.507,-306.227 545.02,-310.891 540.491,-301.312 535.507,-306.227"/>
</g>
</g>
</svg>
