<?xml version="1.0" encoding="UTF-8" standalone="no"?>
<!DOCTYPE svg PUBLIC "-//W3C//DTD SVG 1.1//EN"
 "http://www.w3.org/Graphics/SVG/1.1/DTD/svg11.dtd">
<!-- Generated by graphviz version 2.26.3 (20100126.1600)
 -->
<!-- Title: MenuItem Pages: 1 -->
<svg width="258pt" height="530pt"
 viewBox="0.00 0.00 258.00 530.00" xmlns="http://www.w3.org/2000/svg" xmlns:xlink="http://www.w3.org/1999/xlink">
<g id="graph1" class="graph" transform="scale(1 1) rotate(0) translate(4 526)">
<title>MenuItem</title>
<polygon fill="white" stroke="white" points="-4,5 -4,-526 255,-526 255,5 -4,5"/>
<!-- Box_NoEffect -->
<g id="node1" class="node"><title>Box_NoEffect</title>
<polygon fill="#fcfcda" stroke="black" points="15.5,-1 15.5,-85 234.5,-85 234.5,-1 15.5,-1"/>
<text text-anchor="middle" x="125" y="-73.8" font-family="Helvetica,sans-Serif" font-size="8.00">NoEffect</text>
<polyline fill="none" stroke="black" points="15.5,-65 234.5,-65 "/>
<text text-anchor="start" x="23.5" y="-53.8" font-family="Helvetica,sans-Serif" font-size="8.00">Attributes:</text>
<text text-anchor="start" x="23.5" y="-41.8" font-family="Helvetica,sans-Serif" font-size="8.00">Methods:</text>
<polyline fill="none" stroke="black" points="15.5,-33 234.5,-33 "/>
<text text-anchor="start" x="23.5" y="-21.8" font-family="Helvetica,sans-Serif" font-size="8.00"># Draw (SpriteBatch spriteBatch, GameTime gameTime)</text>
<text text-anchor="start" x="23.5" y="-9.8" font-family="Helvetica,sans-Serif" font-size="8.00">+ NoEffect (GameState state)</text>
</g>
<!-- Box_RenderEffect -->
<g id="node2" class="node"><title>Box_RenderEffect</title>
<polygon fill="#fcfcda" stroke="black" points="0,-123 0,-351 250,-351 250,-123 0,-123"/>
<text text-anchor="middle" x="125" y="-339.8" font-family="Helvetica,sans-Serif" font-size="8.00">RenderEffect</text>
<polyline fill="none" stroke="black" points="0,-331 250,-331 "/>
<text text-anchor="start" x="8" y="-319.8" font-family="Helvetica,sans-Serif" font-size="8.00">Attributes:</text>
<text text-anchor="start" x="8" y="-307.8" font-family="Helvetica,sans-Serif" font-size="8.00">&#45; background : Color</text>
<text text-anchor="start" x="8" y="-295.8" font-family="Helvetica,sans-Serif" font-size="8.00">&#45; renderTarget : RenderTargetCache</text>
<text text-anchor="start" x="8" y="-283.8" font-family="Helvetica,sans-Serif" font-size="8.00">&#45; spriteBatch : SpriteBatch</text>
<text text-anchor="start" x="8" y="-271.8" font-family="Helvetica,sans-Serif" font-size="8.00"># state : GameState</text>
<text text-anchor="start" x="8" y="-259.8" font-family="Helvetica,sans-Serif" font-size="8.00">+ RenderTarget : RenderTarget2D</text>
<text text-anchor="start" x="8" y="-247.8" font-family="Helvetica,sans-Serif" font-size="8.00">Methods:</text>
<polyline fill="none" stroke="black" points="0,-239 250,-239 "/>
<text text-anchor="start" x="8" y="-227.8" font-family="Helvetica,sans-Serif" font-size="8.00"># Draw (SpriteBatch spriteBatch, GameTime gameTime) abstract</text>
<text text-anchor="start" x="8" y="-215.8" font-family="Helvetica,sans-Serif" font-size="8.00">+ RenderEffect (GameState state)</text>
<text text-anchor="start" x="8" y="-203.8" font-family="Helvetica,sans-Serif" font-size="8.00">+ DrawModel (GameModel model, GameTime gameTime) virtual</text>
<text text-anchor="start" x="8" y="-191.8" font-family="Helvetica,sans-Serif" font-size="8.00">+ RemapModel (Model model) virtual</text>
<text text-anchor="start" x="8" y="-179.8" font-family="Helvetica,sans-Serif" font-size="8.00">+ Begin (GameTime gameTime)</text>
<text text-anchor="start" x="8" y="-167.8" font-family="Helvetica,sans-Serif" font-size="8.00"># ModifyBasicEffect (BasicEffect effect, GameModel model)</text>
<text text-anchor="start" x="8" y="-155.8" font-family="Helvetica,sans-Serif" font-size="8.00">+ Begin (Color background, GameTime gameTime) virtual</text>
<text text-anchor="start" x="8" y="-143.8" font-family="Helvetica,sans-Serif" font-size="8.00">+ End (GameTime gameTime) virtual</text>
<text text-anchor="start" x="8" y="-131.8" font-family="Helvetica,sans-Serif" font-size="8.00">+ DrawLastFrame (GameTime gameTime)</text>
</g>
<!-- Box_RenderEffect&#45;&gt;Box_NoEffect -->
<g id="edge2" class="edge"><title>Box_RenderEffect&#45;&gt;Box_NoEffect</title>
<path fill="none" stroke="midnightblue" d="M125,-112.548C125,-102.882 125,-93.6115 125,-85.167"/>
<polygon fill="none" stroke="midnightblue" points="121.5,-112.747 125,-122.747 128.5,-112.747 121.5,-112.747"/>
</g>
<!-- Box_IRenderEffect -->
<g id="node3" class="node"><title>Box_IRenderEffect</title>
<polygon fill="#dafcda" stroke="black" points="12.5,-389 12.5,-521 237.5,-521 237.5,-389 12.5,-389"/>
<text text-anchor="middle" x="125" y="-509.8" font-family="Helvetica,sans-Serif" font-size="8.00">IRenderEffect</text>
<polyline fill="none" stroke="black" points="12.5,-501 237.5,-501 "/>
<text text-anchor="start" x="20.5" y="-489.8" font-family="Helvetica,sans-Serif" font-size="8.00">Attributes:</text>
<text text-anchor="start" x="20.5" y="-477.8" font-family="Helvetica,sans-Serif" font-size="8.00">+ RenderTarget : RenderTarget2D</text>
<text text-anchor="start" x="20.5" y="-465.8" font-family="Helvetica,sans-Serif" font-size="8.00">Methods:</text>
<polyline fill="none" stroke="black" points="12.5,-457 237.5,-457 "/>
<text text-anchor="start" x="20.5" y="-445.8" font-family="Helvetica,sans-Serif" font-size="8.00">+ Begin (GameTime gameTime)</text>
<text text-anchor="start" x="20.5" y="-433.8" font-family="Helvetica,sans-Serif" font-size="8.00">+ End (GameTime gameTime)</text>
<text text-anchor="start" x="20.5" y="-421.8" font-family="Helvetica,sans-Serif" font-size="8.00">+ RemapModel (Model model)</text>
<text text-anchor="start" x="20.5" y="-409.8" font-family="Helvetica,sans-Serif" font-size="8.00">+ DrawModel (GameModel model, GameTime gameTime)</text>
<text text-anchor="start" x="20.5" y="-397.8" font-family="Helvetica,sans-Serif" font-size="8.00">+ DrawLastFrame (GameTime gameTime)</text>
</g>
<!-- Box_IRenderEffect&#45;&gt;Box_RenderEffect -->
<g id="edge4" class="edge"><title>Box_IRenderEffect&#45;&gt;Box_RenderEffect</title>
<path fill="none" stroke="midnightblue" d="M125,-378.488C125,-369.649 125,-360.496 125,-351.293"/>
<polygon fill="none" stroke="midnightblue" points="121.5,-378.705 125,-388.705 128.5,-378.705 121.5,-378.705"/>
</g>
</g>
</svg>
