<?xml version="1.0" encoding="UTF-8" standalone="no"?>
<!DOCTYPE svg PUBLIC "-//W3C//DTD SVG 1.1//EN"
 "http://www.w3.org/Graphics/SVG/1.1/DTD/svg11.dtd">
<!-- Generated by graphviz version 2.26.3 (20100126.1600)
 -->
<!-- Title: MenuItem Pages: 1 -->
<svg width="392pt" height="290pt"
 viewBox="0.00 0.00 392.00 290.00" xmlns="http://www.w3.org/2000/svg" xmlns:xlink="http://www.w3.org/1999/xlink">
<g id="graph1" class="graph" transform="scale(1 1) rotate(0) translate(4 286)">
<title>MenuItem</title>
<polygon fill="white" stroke="white" points="-4,5 -4,-286 389,-286 389,5 -4,5"/>
<!-- Box_MousePicker -->
<g id="node1" class="node"><title>Box_MousePicker</title>
<polygon fill="#fcfcda" stroke="black" points="73,-1 73,-95 259,-95 259,-1 73,-1"/>
<text text-anchor="middle" x="166" y="-83.8" font-family="Arial" font-size="8.00">MousePicker</text>
<polyline fill="none" stroke="black" points="73,-77 259,-77 "/>
<text text-anchor="start" x="81" y="-65.8" font-family="Arial" font-size="8.00">&#45; lastMousePosition : Vector2</text>
<text text-anchor="start" x="81" y="-55.8" font-family="Arial" font-size="8.00">&#45; World : World</text>
<text text-anchor="start" x="81" y="-45.8" font-family="Arial" font-size="8.00">&#45; lastRayCheck : double</text>
<polyline fill="none" stroke="black" points="73,-39 259,-39 "/>
<text text-anchor="start" x="81" y="-27.8" font-family="Arial" font-size="8.00">+ MousePicker (GameState state, World world)</text>
<text text-anchor="start" x="81" y="-17.8" font-family="Arial" font-size="8.00">+ Update (GameTime gameTime)</text>
<text text-anchor="start" x="81" y="-7.8" font-family="Arial" font-size="8.00">+ UpdateMouseRay (GameTime gameTime)</text>
</g>
<!-- Box_GameStateComponent -->
<g id="node2" class="node"><title>Box_GameStateComponent</title>
<polygon fill="#fcfcda" stroke="black" points="0,-133 0,-207 332,-207 332,-133 0,-133"/>
<text text-anchor="middle" x="166" y="-195.8" font-family="Arial" font-size="8.00">GameStateComponent</text>
<polyline fill="none" stroke="black" points="0,-189 332,-189 "/>
<text text-anchor="start" x="8" y="-177.8" font-family="Arial" font-size="8.00">+ Index : DisplayLayer</text>
<text text-anchor="start" x="8" y="-167.8" font-family="Arial" font-size="8.00">+ state : GameState</text>
<polyline fill="none" stroke="black" points="0,-161 332,-161 "/>
<text text-anchor="start" x="8" y="-149.8" font-family="Arial" font-size="8.00">+ GameStateComponent (GameState state, DisplayLayer index)</text>
<text text-anchor="start" x="8" y="-139.8" font-family="Arial" font-size="8.00">+ SubComponents (GameTime gameTime) : IEnumerable&lt;IGameStateComponent&gt; virtual</text>
</g>
<!-- Box_GameStateComponent&#45;&gt;Box_MousePicker -->
<g id="edge2" class="edge"><title>Box_GameStateComponent&#45;&gt;Box_MousePicker</title>
<path fill="none" stroke="midnightblue" d="M166,-122.517C166,-113.615 166,-104.308 166,-95.4085"/>
<polygon fill="none" stroke="midnightblue" points="162.5,-122.733 166,-132.733 169.5,-122.733 162.5,-122.733"/>
</g>
<!-- Box_XnaGameComponent -->
<g id="node3" class="node"><title>Box_XnaGameComponent</title>
<polygon fill="#ffffff" stroke="black" points="289.5,-254 289.5,-272 384.5,-272 384.5,-254 289.5,-254"/>
<text text-anchor="middle" x="337" y="-260.8" font-family="Arial" font-size="8.00">Xna.GameComponent</text>
</g>
<!-- Box_IGameStateComponent -->
<g id="node4" class="node"><title>Box_IGameStateComponent</title>
<polygon fill="#ffffff" stroke="black" points="60,-254 60,-272 158,-272 158,-254 60,-254"/>
<text text-anchor="middle" x="109" y="-260.8" font-family="Arial" font-size="8.00">IGameStateComponent</text>
</g>
<!-- Box_IGameStateComponent&#45;&gt;Box_GameStateComponent -->
<g id="edge6" class="edge"><title>Box_IGameStateComponent&#45;&gt;Box_GameStateComponent</title>
<path fill="none" stroke="midnightblue" d="M120.059,-244.956C126.617,-234.256 135.178,-220.289 143.129,-207.316"/>
<polygon fill="none" stroke="midnightblue" points="116.915,-243.388 114.674,-253.743 122.884,-247.046 116.915,-243.388"/>
</g>
<!-- Box_GameComponent -->
<g id="node6" class="node"><title>Box_GameComponent</title>
<polygon fill="none" stroke="black" points="175.5,-245 175.5,-281 272.5,-281 272.5,-245 175.5,-245"/>
<text text-anchor="middle" x="224" y="-260.8" font-family="Arial" font-size="8.00">Box_GameComponent</text>
</g>
<!-- Box_GameComponent&#45;&gt;Box_GameStateComponent -->
<g id="edge4" class="edge"><title>Box_GameComponent&#45;&gt;Box_GameStateComponent</title>
<path fill="none" stroke="midnightblue" d="M207.208,-236.076C201.586,-227.06 195.213,-216.842 189.19,-207.184"/>
<polygon fill="none" stroke="midnightblue" points="204.279,-237.993 212.541,-244.626 210.219,-234.289 204.279,-237.993"/>
</g>
</g>
</svg>
