<?xml version="1.0" encoding="UTF-8" standalone="no"?>
<!DOCTYPE svg PUBLIC "-//W3C//DTD SVG 1.1//EN"
 "http://www.w3.org/Graphics/SVG/1.1/DTD/svg11.dtd">
<!-- Generated by graphviz version 2.26.3 (20100126.1600)
 -->
<!-- Title: MenuItem Pages: 1 -->
<svg width="3800pt" height="3750pt"
 viewBox="0.00 0.00 912.00 900.00" xmlns="http://www.w3.org/2000/svg" xmlns:xlink="http://www.w3.org/1999/xlink">
<g id="graph1" class="graph" transform="scale(4.16667 4.16667) rotate(0) translate(4 896)">
<title>MenuItem</title>
<polygon fill="white" stroke="white" points="-4,5 -4,-896 909,-896 909,5 -4,5"/>
<!-- Box_DropDownMenu -->
<g id="node1" class="node"><title>Box_DropDownMenu</title>
<polygon fill="#fcfcda" stroke="black" points="222,-1 222,-155 594,-155 594,-1 222,-1"/>
<text text-anchor="middle" x="408" y="-143.8" font-family="Arial" font-size="8.00">DropDownMenu</text>
<polyline fill="none" stroke="black" points="222,-137 594,-137 "/>
<text text-anchor="start" x="230" y="-125.8" font-family="Arial" font-size="8.00">&#45; selected : MenuButton</text>
<text text-anchor="start" x="230" y="-115.8" font-family="Arial" font-size="8.00">&#45; dropdown : VerticalMenu</text>
<polyline fill="none" stroke="black" points="222,-109 594,-109 "/>
<text text-anchor="start" x="230" y="-97.8" font-family="Arial" font-size="8.00">&#45; ValuePosition (int dummy) : Vector2</text>
<text text-anchor="start" x="230" y="-87.8" font-family="Arial" font-size="8.00">+ DropDownMenu (GameScreen screen, DisplayLayer drawOrder, int itemNum, MenuItemInfo info)</text>
<text text-anchor="start" x="230" y="-77.8" font-family="Arial" font-size="8.00">&#45; DropDownBackgroundColor (ItemState itemState) : Color</text>
<text text-anchor="start" x="230" y="-67.8" font-family="Arial" font-size="8.00">&#45; DropDownForegroundColor (ItemState itemState) : Color</text>
<text text-anchor="start" x="230" y="-57.8" font-family="Arial" font-size="8.00">&#45; ValueSize (int dummy) : Vector2</text>
<text text-anchor="start" x="230" y="-47.8" font-family="Arial" font-size="8.00">+ SubComponents (GameTime time) : IEnumerable&lt;IGameScreenComponent&gt;</text>
<text text-anchor="start" x="230" y="-37.8" font-family="Arial" font-size="8.00">+ Collapse ()</text>
<text text-anchor="start" x="230" y="-27.8" font-family="Arial" font-size="8.00">+ Draw (GameTime time)</text>
<text text-anchor="start" x="230" y="-17.8" font-family="Arial" font-size="8.00">+ AddEntries (DistinctOptionInfo option)</text>
<text text-anchor="start" x="230" y="-7.8" font-family="Arial" font-size="8.00">+ AddEntries (DropDownMenuItem[] entries, DropDownMenuItem defaultEntry)</text>
</g>
<!-- Box_MenuItem -->
<g id="node2" class="node"><title>Box_MenuItem</title>
<polygon fill="#fcfcda" stroke="black" points="234.5,-193 234.5,-377 581.5,-377 581.5,-193 234.5,-193"/>
<text text-anchor="middle" x="408" y="-365.8" font-family="Arial" font-size="8.00">MenuItem</text>
<polyline fill="none" stroke="black" points="234.5,-359 581.5,-359 "/>
<text text-anchor="start" x="242.5" y="-347.8" font-family="Arial" font-size="8.00"># spriteBatch : SpriteBatch</text>
<text text-anchor="start" x="242.5" y="-337.8" font-family="Arial" font-size="8.00">+ IsMouseEventEnabled : bool</text>
<text text-anchor="start" x="242.5" y="-327.8" font-family="Arial" font-size="8.00">+ ValidKeys : List&lt;Keys&gt;</text>
<text text-anchor="start" x="242.5" y="-317.8" font-family="Arial" font-size="8.00">+ IsKeyEventEnabled : bool</text>
<text text-anchor="start" x="242.5" y="-307.8" font-family="Arial" font-size="8.00">+ Info : MenuItemInfo</text>
<polyline fill="none" stroke="black" points="234.5,-301 581.5,-301 "/>
<text text-anchor="start" x="242.5" y="-289.8" font-family="Arial" font-size="8.00">+ MenuItem (GameScreen screen, DisplayLayer drawOrder, int itemNum, MenuItemInfo info)</text>
<text text-anchor="start" x="242.5" y="-279.8" font-family="Arial" font-size="8.00">+ Collapse () virtual</text>
<text text-anchor="start" x="242.5" y="-269.8" font-family="Arial" font-size="8.00">+ OnKeyEvent (List&lt;Keys&gt; key, KeyEvent keyEvent, GameTime time)</text>
<text text-anchor="start" x="242.5" y="-259.8" font-family="Arial" font-size="8.00">+ OnLeftClick (Vector2 position, ClickState click, GameTime time)</text>
<text text-anchor="start" x="242.5" y="-249.8" font-family="Arial" font-size="8.00">+ OnRightClick (Vector2 position, ClickState click, GameTime time)</text>
<text text-anchor="start" x="242.5" y="-239.8" font-family="Arial" font-size="8.00">+ MinimumSize (SpriteFont font) : Vector2</text>
<text text-anchor="start" x="242.5" y="-229.8" font-family="Arial" font-size="8.00">+ TextPosition (SpriteFont font) : Vector2</text>
<text text-anchor="start" x="242.5" y="-219.8" font-family="Arial" font-size="8.00">+ TextPosition (SpriteFont font, Vector2 scale) : Vector2</text>
<text text-anchor="start" x="242.5" y="-209.8" font-family="Arial" font-size="8.00">+ Draw (GameTime time)</text>
<text text-anchor="start" x="242.5" y="-199.8" font-family="Arial" font-size="8.00">+ SetHovered (bool hovered)</text>
</g>
<!-- Box_MenuItem&#45;&gt;Box_DropDownMenu -->
<g id="edge2" class="edge"><title>Box_MenuItem&#45;&gt;Box_DropDownMenu</title>
<path fill="none" stroke="midnightblue" d="M408,-182.406C408,-173.272 408,-164.129 408,-155.261"/>
<polygon fill="none" stroke="midnightblue" points="404.5,-182.7 408,-192.7 411.5,-182.7 404.5,-182.7"/>
</g>
<!-- Box_IKeyEventListener -->
<g id="node3" class="node"><title>Box_IKeyEventListener</title>
<polygon fill="#dafcda" stroke="black" points="-0.5,-425 -0.5,-499 264.5,-499 264.5,-425 -0.5,-425"/>
<text text-anchor="middle" x="132" y="-487.8" font-family="Arial" font-size="8.00">IKeyEventListener</text>
<polyline fill="none" stroke="black" points="-0.5,-481 264.5,-481 "/>
<text text-anchor="start" x="7.5" y="-469.8" font-family="Arial" font-size="8.00">+ ValidKeys : List&lt;Keys&gt;</text>
<text text-anchor="start" x="7.5" y="-459.8" font-family="Arial" font-size="8.00">+ Index : DisplayLayer</text>
<text text-anchor="start" x="7.5" y="-449.8" font-family="Arial" font-size="8.00">+ IsKeyEventEnabled : bool</text>
<polyline fill="none" stroke="black" points="-0.5,-443 264.5,-443 "/>
<text text-anchor="start" x="7.5" y="-431.8" font-family="Arial" font-size="8.00">+ OnKeyEvent (List&lt;Keys&gt; key, KeyEvent keyEvent, GameTime time)</text>
</g>
<!-- Box_IKeyEventListener&#45;&gt;Box_MenuItem -->
<g id="edge8" class="edge"><title>Box_IKeyEventListener&#45;&gt;Box_MenuItem</title>
<path fill="none" stroke="midnightblue" d="M198.285,-419.491C218.365,-406.614 241.25,-391.938 264.346,-377.126"/>
<polygon fill="none" stroke="midnightblue" points="196.387,-416.55 189.859,-424.895 200.166,-422.443 196.387,-416.55"/>
</g>
<!-- Box_IMouseEventListener -->
<g id="node4" class="node"><title>Box_IMouseEventListener</title>
<polygon fill="#dafcda" stroke="black" points="282,-415 282,-509 534,-509 534,-415 282,-415"/>
<text text-anchor="middle" x="408" y="-497.8" font-family="Arial" font-size="8.00">IMouseEventListener</text>
<polyline fill="none" stroke="black" points="282,-491 534,-491 "/>
<text text-anchor="start" x="290" y="-479.8" font-family="Arial" font-size="8.00">+ Index : DisplayLayer</text>
<text text-anchor="start" x="290" y="-469.8" font-family="Arial" font-size="8.00">+ IsMouseEventEnabled : bool</text>
<polyline fill="none" stroke="black" points="282,-463 534,-463 "/>
<text text-anchor="start" x="290" y="-451.8" font-family="Arial" font-size="8.00">+ OnLeftClick (Vector2 position, ClickState click, GameTime time)</text>
<text text-anchor="start" x="290" y="-441.8" font-family="Arial" font-size="8.00">+ OnRightClick (Vector2 position, ClickState click, GameTime time)</text>
<text text-anchor="start" x="290" y="-431.8" font-family="Arial" font-size="8.00">+ SetHovered (bool hovered)</text>
<text text-anchor="start" x="290" y="-421.8" font-family="Arial" font-size="8.00">+ bounds () : Rectangle</text>
</g>
<!-- Box_IMouseEventListener&#45;&gt;Box_MenuItem -->
<g id="edge6" class="edge"><title>Box_IMouseEventListener&#45;&gt;Box_MenuItem</title>
<path fill="none" stroke="midnightblue" d="M408,-404.543C408,-395.801 408,-386.597 408,-377.337"/>
<polygon fill="none" stroke="midnightblue" points="404.5,-404.567 408,-414.567 411.5,-404.567 404.5,-404.567"/>
</g>
<!-- Box_ItemWidget -->
<g id="node5" class="node"><title>Box_ItemWidget</title>
<polygon fill="#fcfcda" stroke="black" points="552,-430 552,-494 896,-494 896,-430 552,-430"/>
<text text-anchor="middle" x="724" y="-482.8" font-family="Arial" font-size="8.00">ItemWidget</text>
<polyline fill="none" stroke="black" points="552,-476 896,-476 "/>
<text text-anchor="start" x="560" y="-464.8" font-family="Arial" font-size="8.00">+ ItemState : ItemState</text>
<text text-anchor="start" x="560" y="-454.8" font-family="Arial" font-size="8.00"># ItemNum : int</text>
<polyline fill="none" stroke="black" points="552,-448 896,-448 "/>
<text text-anchor="start" x="560" y="-436.8" font-family="Arial" font-size="8.00">+ ItemWidget (GameScreen screen, WidgetInfo info, DisplayLayer drawOrder, int itemNum)</text>
</g>
<!-- Box_ItemWidget&#45;&gt;Box_MenuItem -->
<g id="edge4" class="edge"><title>Box_ItemWidget&#45;&gt;Box_MenuItem</title>
<path fill="none" stroke="midnightblue" d="M657.731,-424.881C632.58,-410.793 602.685,-394.048 572.473,-377.126"/>
<polygon fill="none" stroke="midnightblue" points="656.34,-428.113 666.775,-429.947 659.761,-422.006 656.34,-428.113"/>
</g>
<!-- Box_Widget -->
<g id="node6" class="node"><title>Box_Widget</title>
<polygon fill="#fcfcda" stroke="black" points="582,-547 582,-621 866,-621 866,-547 582,-547"/>
<text text-anchor="middle" x="724" y="-609.8" font-family="Arial" font-size="8.00">Widget</text>
<polyline fill="none" stroke="black" points="582,-603 866,-603 "/>
<text text-anchor="start" x="590" y="-591.8" font-family="Arial" font-size="8.00">+ Info : WidgetInfo</text>
<text text-anchor="start" x="590" y="-581.8" font-family="Arial" font-size="8.00">+ IsVisible : bool virtual</text>
<polyline fill="none" stroke="black" points="582,-575 866,-575 "/>
<text text-anchor="start" x="590" y="-563.8" font-family="Arial" font-size="8.00">+ bounds () : Rectangle</text>
<text text-anchor="start" x="590" y="-553.8" font-family="Arial" font-size="8.00">+ Widget (GameScreen screen, WidgetInfo info, DisplayLayer drawOrder)</text>
</g>
<!-- Box_Widget&#45;&gt;Box_ItemWidget -->
<g id="edge10" class="edge"><title>Box_Widget&#45;&gt;Box_ItemWidget</title>
<path fill="none" stroke="midnightblue" d="M724,-536.6C724,-522.366 724,-507.091 724,-494.094"/>
<polygon fill="none" stroke="midnightblue" points="720.5,-536.733 724,-546.733 727.5,-536.733 720.5,-536.733"/>
</g>
<!-- Box_DrawableGameScreenComponent -->
<g id="node7" class="node"><title>Box_DrawableGameScreenComponent</title>
<polygon fill="#fcfcda" stroke="black" points="565.5,-659 565.5,-743 882.5,-743 882.5,-659 565.5,-659"/>
<text text-anchor="middle" x="724" y="-731.8" font-family="Arial" font-size="8.00">DrawableGameScreenComponent</text>
<polyline fill="none" stroke="black" points="565.5,-725 882.5,-725 "/>
<text text-anchor="start" x="573.5" y="-713.8" font-family="Arial" font-size="8.00">+ Index : DisplayLayer</text>
<text text-anchor="start" x="573.5" y="-703.8" font-family="Arial" font-size="8.00">&#45; _index : DisplayLayer</text>
<text text-anchor="start" x="573.5" y="-693.8" font-family="Arial" font-size="8.00">+ screen : GameScreen</text>
<polyline fill="none" stroke="black" points="565.5,-687 882.5,-687 "/>
<text text-anchor="start" x="573.5" y="-675.8" font-family="Arial" font-size="8.00">+ DrawableGameScreenComponent (GameScreen screen, DisplayLayer index)</text>
<text text-anchor="start" x="573.5" y="-665.8" font-family="Arial" font-size="8.00">+ SubComponents (GameTime time) : IEnumerable&lt;IGameScreenComponent&gt; virtual</text>
</g>
<!-- Box_DrawableGameScreenComponent&#45;&gt;Box_Widget -->
<g id="edge12" class="edge"><title>Box_DrawableGameScreenComponent&#45;&gt;Box_Widget</title>
<path fill="none" stroke="midnightblue" d="M724,-648.482C724,-639.258 724,-629.834 724,-621.14"/>
<polygon fill="none" stroke="midnightblue" points="720.5,-648.76 724,-658.76 727.5,-648.76 720.5,-648.76"/>
</g>
<!-- Box_IGameScreenComponent -->
<g id="node8" class="node"><title>Box_IGameScreenComponent</title>
<polygon fill="#dafcda" stroke="black" points="463.5,-781 463.5,-835 756.5,-835 756.5,-781 463.5,-781"/>
<text text-anchor="middle" x="610" y="-823.8" font-family="Arial" font-size="8.00">IGameScreenComponent</text>
<polyline fill="none" stroke="black" points="463.5,-817 756.5,-817 "/>
<text text-anchor="start" x="471.5" y="-805.8" font-family="Arial" font-size="8.00">+ Index : DisplayLayer</text>
<polyline fill="none" stroke="black" points="463.5,-799 756.5,-799 "/>
<text text-anchor="start" x="471.5" y="-787.8" font-family="Arial" font-size="8.00">+ SubComponents (GameTime time) : IEnumerable&lt;IGameScreenComponent&gt;</text>
</g>
<!-- Box_IGameScreenComponent&#45;&gt;Box_DrawableGameScreenComponent -->
<g id="edge16" class="edge"><title>Box_IGameScreenComponent&#45;&gt;Box_DrawableGameScreenComponent</title>
<path fill="none" stroke="midnightblue" d="M646.116,-774.102C656.502,-764.354 667.961,-753.598 678.821,-743.404"/>
<polygon fill="none" stroke="midnightblue" points="643.663,-771.604 638.767,-780.999 648.454,-776.708 643.663,-771.604"/>
</g>
<!-- Box_XnaDrawableGameComponent -->
<g id="node9" class="node"><title>Box_XnaDrawableGameComponent</title>
<polygon fill="#ffffff" stroke="black" points="774,-799 774,-817 904,-817 904,-799 774,-799"/>
<text text-anchor="middle" x="839" y="-805.8" font-family="Arial" font-size="8.00">Xna.DrawableGameComponent</text>
</g>
<!-- Box_XnaDrawableGameComponent&#45;&gt;Box_DrawableGameScreenComponent -->
<g id="edge14" class="edge"><title>Box_XnaDrawableGameComponent&#45;&gt;Box_DrawableGameScreenComponent</title>
<path fill="none" stroke="midnightblue" d="M821.824,-792.018C807.966,-779.124 787.815,-760.376 769.399,-743.241"/>
<polygon fill="none" stroke="midnightblue" points="819.49,-794.628 829.195,-798.877 824.258,-789.503 819.49,-794.628"/>
</g>
<!-- Box_XnaIGameComponent -->
<g id="node10" class="node"><title>Box_XnaIGameComponent</title>
<polygon fill="#ffffff" stroke="black" points="562,-873 562,-891 658,-891 658,-873 562,-873"/>
<text text-anchor="middle" x="610" y="-879.8" font-family="Arial" font-size="8.00">Xna.IGameComponent</text>
</g>
<!-- Box_XnaIGameComponent&#45;&gt;Box_IGameScreenComponent -->
<g id="edge18" class="edge"><title>Box_XnaIGameComponent&#45;&gt;Box_IGameScreenComponent</title>
<path fill="none" stroke="midnightblue" d="M610,-862.64C610,-854.2 610,-844.16 610,-835.004"/>
<polygon fill="none" stroke="midnightblue" points="606.5,-862.926 610,-872.926 613.5,-862.926 606.5,-862.926"/>
</g>
</g>
</svg>
