<?xml version="1.0" encoding="UTF-8" standalone="no"?>
<!DOCTYPE svg PUBLIC "-//W3C//DTD SVG 1.1//EN"
 "http://www.w3.org/Graphics/SVG/1.1/DTD/svg11.dtd">
<!-- Generated by graphviz version 2.26.3 (20100126.1600)
 -->
<!-- Title: MenuItem Pages: 1 -->
<svg width="242pt" height="516pt"
 viewBox="0.00 0.00 242.00 516.00" xmlns="http://www.w3.org/2000/svg" xmlns:xlink="http://www.w3.org/1999/xlink">
<g id="graph1" class="graph" transform="scale(1 1) rotate(0) translate(4 512)">
<title>MenuItem</title>
<polygon fill="white" stroke="white" points="-4,5 -4,-512 239,-512 239,5 -4,5"/>
<!-- Box_GameModelInfo -->
<g id="node1" class="node"><title>Box_GameModelInfo</title>
<polygon fill="#fcfcda" stroke="black" points="23,-159 23,-255 211,-255 211,-159 23,-159"/>
<text text-anchor="middle" x="117" y="-243.8" font-family="Helvetica,sans-Serif" font-size="8.00">GameModelInfo</text>
<polyline fill="none" stroke="black" points="23,-235 211,-235 "/>
<text text-anchor="start" x="31" y="-223.8" font-family="Helvetica,sans-Serif" font-size="8.00">+ Modelname : string</text>
<text text-anchor="start" x="31" y="-211.8" font-family="Helvetica,sans-Serif" font-size="8.00">+ Rotation : Angles3</text>
<text text-anchor="start" x="31" y="-199.8" font-family="Helvetica,sans-Serif" font-size="8.00">+ Scale : float</text>
<polyline fill="none" stroke="black" points="23,-191 211,-191 "/>
<text text-anchor="start" x="31" y="-179.8" font-family="Helvetica,sans-Serif" font-size="8.00">+ GameModelInfo (string modelname)</text>
<text text-anchor="start" x="31" y="-167.8" font-family="Helvetica,sans-Serif" font-size="8.00">+ Equals (GameObjectInfo other) : bool override</text>
</g>
<!-- Box_PipeModelInfo -->
<g id="node3" class="node"><title>Box_PipeModelInfo</title>
<polygon fill="#fcfcda" stroke="black" points="-0.5,-1 -0.5,-121 234.5,-121 234.5,-1 -0.5,-1"/>
<text text-anchor="middle" x="117" y="-109.8" font-family="Helvetica,sans-Serif" font-size="8.00">PipeModelInfo</text>
<polyline fill="none" stroke="black" points="-0.5,-101 234.5,-101 "/>
<text text-anchor="start" x="7.5" y="-89.8" font-family="Helvetica,sans-Serif" font-size="8.00">+ Edges : EdgeList</text>
<text text-anchor="start" x="7.5" y="-77.8" font-family="Helvetica,sans-Serif" font-size="8.00">+ Edge : Edge</text>
<text text-anchor="start" x="7.5" y="-65.8" font-family="Helvetica,sans-Serif" font-size="8.00">+ Direction : Vector3</text>
<text text-anchor="start" x="7.5" y="-53.8" font-family="Helvetica,sans-Serif" font-size="8.00">+ PositionFrom : Vector3</text>
<text text-anchor="start" x="7.5" y="-41.8" font-family="Helvetica,sans-Serif" font-size="8.00">+ PositionTo : Vector3</text>
<polyline fill="none" stroke="black" points="-0.5,-33 234.5,-33 "/>
<text text-anchor="start" x="7.5" y="-21.8" font-family="Helvetica,sans-Serif" font-size="8.00">+ PipeModelInfo (EdgeList edges, Edge edge, Vector3 offset)</text>
<text text-anchor="start" x="7.5" y="-9.8" font-family="Helvetica,sans-Serif" font-size="8.00">+ Equals (GameObjectInfo other) : bool override</text>
</g>
<!-- Box_GameModelInfo&#45;&gt;Box_PipeModelInfo -->
<g id="edge6" class="edge"><title>Box_GameModelInfo&#45;&gt;Box_PipeModelInfo</title>
<path fill="none" stroke="midnightblue" d="M117,-148.712C117,-139.64 117,-130.251 117,-121.139"/>
<polygon fill="none" stroke="midnightblue" points="113.5,-148.789 117,-158.79 120.5,-148.79 113.5,-148.789"/>
</g>
<!-- Box_GameObjectInfo -->
<g id="node2" class="node"><title>Box_GameObjectInfo</title>
<polygon fill="#fcfcda" stroke="black" points="27.5,-293 27.5,-449 206.5,-449 206.5,-293 27.5,-293"/>
<text text-anchor="middle" x="117" y="-437.8" font-family="Helvetica,sans-Serif" font-size="8.00">GameObjectInfo</text>
<polyline fill="none" stroke="black" points="27.5,-429 206.5,-429 "/>
<text text-anchor="start" x="35.5" y="-417.8" font-family="Helvetica,sans-Serif" font-size="8.00">+ Position : Vector3</text>
<text text-anchor="start" x="35.5" y="-405.8" font-family="Helvetica,sans-Serif" font-size="8.00">+ IsVisible : bool</text>
<text text-anchor="start" x="35.5" y="-393.8" font-family="Helvetica,sans-Serif" font-size="8.00">+ IsSelectable : bool</text>
<text text-anchor="start" x="35.5" y="-381.8" font-family="Helvetica,sans-Serif" font-size="8.00">+ IsMovable : bool</text>
<text text-anchor="start" x="35.5" y="-369.8" font-family="Helvetica,sans-Serif" font-size="8.00">+ operator : bool static</text>
<text text-anchor="start" x="35.5" y="-357.8" font-family="Helvetica,sans-Serif" font-size="8.00">+ operator ! : bool static</text>
<polyline fill="none" stroke="black" points="27.5,-349 206.5,-349 "/>
<text text-anchor="start" x="35.5" y="-337.8" font-family="Helvetica,sans-Serif" font-size="8.00">+ GameObjectInfo ()</text>
<text text-anchor="start" x="35.5" y="-325.8" font-family="Helvetica,sans-Serif" font-size="8.00">+ Equals (GameObjectInfo other) : bool virtual</text>
<text text-anchor="start" x="35.5" y="-313.8" font-family="Helvetica,sans-Serif" font-size="8.00">+ Equals (Object obj) : bool override</text>
<text text-anchor="start" x="35.5" y="-301.8" font-family="Helvetica,sans-Serif" font-size="8.00">+ GetHashCode () : int override</text>
</g>
<!-- Box_GameObjectInfo&#45;&gt;Box_GameModelInfo -->
<g id="edge2" class="edge"><title>Box_GameObjectInfo&#45;&gt;Box_GameModelInfo</title>
<path fill="none" stroke="midnightblue" d="M117,-282.584C117,-273.149 117,-263.828 117,-255.125"/>
<polygon fill="none" stroke="midnightblue" points="113.5,-282.842 117,-292.842 120.5,-282.843 113.5,-282.842"/>
</g>
<!-- Box_IEquatable -->
<g id="node4" class="node"><title>Box_IEquatable</title>
<polygon fill="#ffffff" stroke="black" points="56,-487 56,-507 178,-507 178,-487 56,-487"/>
<text text-anchor="middle" x="117" y="-495.8" font-family="Helvetica,sans-Serif" font-size="8.00">IEquatable&lt;GameObjectInfo&gt;</text>
</g>
<!-- Box_IEquatable&#45;&gt;Box_GameObjectInfo -->
<g id="edge4" class="edge"><title>Box_IEquatable&#45;&gt;Box_GameObjectInfo</title>
<path fill="none" stroke="midnightblue" d="M117,-476.521C117,-468.692 117,-459.219 117,-449.201"/>
<polygon fill="none" stroke="midnightblue" points="113.5,-476.689 117,-486.689 120.5,-476.689 113.5,-476.689"/>
</g>
</g>
</svg>
