<?xml version="1.0" encoding="UTF-8" standalone="no"?>
<!DOCTYPE svg PUBLIC "-//W3C//DTD SVG 1.1//EN"
 "http://www.w3.org/Graphics/SVG/1.1/DTD/svg11.dtd">
<!-- Generated by graphviz version 2.26.3 (20100126.1600)
 -->
<!-- Title: MenuItem Pages: 1 -->
<svg width="725pt" height="1042pt"
 viewBox="0.00 0.00 174.00 250.00" xmlns="http://www.w3.org/2000/svg" xmlns:xlink="http://www.w3.org/1999/xlink">
<g id="graph1" class="graph" transform="scale(4.16667 4.16667) rotate(0) translate(4 246)">
<title>MenuItem</title>
<polygon fill="white" stroke="white" points="-4,5 -4,-246 171,-246 171,5 -4,5"/>
<!-- Box_Game -->
<g id="node1" class="node"><title>Box_Game</title>
<polygon fill="#fcfcda" stroke="black" points="-0.5,-1 -0.5,-185 166.5,-185 166.5,-1 -0.5,-1"/>
<text text-anchor="middle" x="83" y="-173.8" font-family="Arial" font-size="8.00">Game</text>
<polyline fill="none" stroke="black" points="-0.5,-167 166.5,-167 "/>
<text text-anchor="start" x="7.5" y="-155.8" font-family="Arial" font-size="8.00">+ IsFullscreen : bool</text>
<text text-anchor="start" x="7.5" y="-145.8" font-family="Arial" font-size="8.00">+ Debug : bool static</text>
<text text-anchor="start" x="7.5" y="-135.8" font-family="Arial" font-size="8.00">&#45; isFullscreen : bool</text>
<text text-anchor="start" x="7.5" y="-125.8" font-family="Arial" font-size="8.00">+ State : GameScreen</text>
<text text-anchor="start" x="7.5" y="-115.8" font-family="Arial" font-size="8.00">+ graphics : GraphicsDeviceManager</text>
<text text-anchor="start" x="7.5" y="-105.8" font-family="Arial" font-size="8.00">+ VSync : bool</text>
<polyline fill="none" stroke="black" points="-0.5,-99 166.5,-99 "/>
<text text-anchor="start" x="7.5" y="-87.8" font-family="Arial" font-size="8.00">+ DefaultSize (1280, 720) : Vector2 static</text>
<text text-anchor="start" x="7.5" y="-77.8" font-family="Arial" font-size="8.00"># Draw (GameTime time)</text>
<text text-anchor="start" x="7.5" y="-67.8" font-family="Arial" font-size="8.00"># LoadContent ()</text>
<text text-anchor="start" x="7.5" y="-57.8" font-family="Arial" font-size="8.00">+ Game ()</text>
<text text-anchor="start" x="7.5" y="-47.8" font-family="Arial" font-size="8.00">&#45; UpdateInput (GameTime time)</text>
<text text-anchor="start" x="7.5" y="-37.8" font-family="Arial" font-size="8.00"># Initialize ()</text>
<text text-anchor="start" x="7.5" y="-27.8" font-family="Arial" font-size="8.00"># UnloadContent ()</text>
<text text-anchor="start" x="7.5" y="-17.8" font-family="Arial" font-size="8.00"># Update (GameTime time)</text>
<text text-anchor="start" x="7.5" y="-7.8" font-family="Arial" font-size="8.00">+ Time (Action action) : TimeSpan static</text>
</g>
<!-- Box_MicrosoftXnaFrameworkGame -->
<g id="node2" class="node"><title>Box_MicrosoftXnaFrameworkGame</title>
<polygon fill="#ffffff" stroke="black" points="16,-223 16,-241 150,-241 150,-223 16,-223"/>
<text text-anchor="middle" x="83" y="-229.8" font-family="Arial" font-size="8.00">Microsoft.Xna.Framework.Game</text>
</g>
<!-- Box_MicrosoftXnaFrameworkGame&#45;&gt;Box_Game -->
<g id="edge2" class="edge"><title>Box_MicrosoftXnaFrameworkGame&#45;&gt;Box_Game</title>
<path fill="none" stroke="midnightblue" d="M83,-212.873C83,-205.061 83,-195.414 83,-185.014"/>
<polygon fill="none" stroke="midnightblue" points="79.5001,-212.88 83,-222.88 86.5001,-212.88 79.5001,-212.88"/>
</g>
</g>
</svg>
