<?xml version="1.0" encoding="UTF-8" standalone="no"?>
<!DOCTYPE svg PUBLIC "-//W3C//DTD SVG 1.1//EN"
 "http://www.w3.org/Graphics/SVG/1.1/DTD/svg11.dtd">
<!-- Generated by graphviz version 2.26.3 (20100126.1600)
 -->
<!-- Title: MenuItem Pages: 1 -->
<svg width="8733pt" height="5467pt"
 viewBox="0.00 0.00 2096.00 1312.00" xmlns="http://www.w3.org/2000/svg" xmlns:xlink="http://www.w3.org/1999/xlink">
<g id="graph1" class="graph" transform="scale(4.16667 4.16667) rotate(0) translate(4 1308)">
<title>MenuItem</title>
<polygon fill="white" stroke="white" points="-4,5 -4,-1308 2093,-1308 2093,5 -4,5"/>
<!-- Box_DrawableGameStateComponent -->
<g id="node1" class="node"><title>Box_DrawableGameStateComponent</title>
<polygon fill="#fcfcda" stroke="black" points="430,-1071 430,-1155 762,-1155 762,-1071 430,-1071"/>
<text text-anchor="middle" x="596" y="-1143.8" font-family="Arial" font-size="8.00">DrawableGameStateComponent</text>
<polyline fill="none" stroke="black" points="430,-1137 762,-1137 "/>
<text text-anchor="start" x="438" y="-1125.8" font-family="Arial" font-size="8.00">+ Index : DisplayLayer</text>
<text text-anchor="start" x="438" y="-1115.8" font-family="Arial" font-size="8.00">&#45; _index : DisplayLayer</text>
<text text-anchor="start" x="438" y="-1105.8" font-family="Arial" font-size="8.00">+ state : GameState</text>
<polyline fill="none" stroke="black" points="430,-1099 762,-1099 "/>
<text text-anchor="start" x="438" y="-1087.8" font-family="Arial" font-size="8.00">+ DrawableGameStateComponent (GameState state, DisplayLayer index)</text>
<text text-anchor="start" x="438" y="-1077.8" font-family="Arial" font-size="8.00">+ SubComponents (GameTime gameTime) : IEnumerable&lt;IGameStateComponent&gt; virtual</text>
</g>
<!-- Box_MousePointer -->
<g id="node3" class="node"><title>Box_MousePointer</title>
<polygon fill="#fcfcda" stroke="black" points="-0.5,-869 -0.5,-943 150.5,-943 150.5,-869 -0.5,-869"/>
<text text-anchor="middle" x="75" y="-931.8" font-family="Arial" font-size="8.00">MousePointer</text>
<polyline fill="none" stroke="black" points="-0.5,-925 150.5,-925 "/>
<text text-anchor="start" x="7.5" y="-913.8" font-family="Arial" font-size="8.00">&#45; spriteBatch : SpriteBatch</text>
<polyline fill="none" stroke="black" points="-0.5,-907 150.5,-907 "/>
<text text-anchor="start" x="7.5" y="-895.8" font-family="Arial" font-size="8.00">+ MousePointer (GameState state)</text>
<text text-anchor="start" x="7.5" y="-885.8" font-family="Arial" font-size="8.00">&#45; DrawCursor (GameTime gameTime)</text>
<text text-anchor="start" x="7.5" y="-875.8" font-family="Arial" font-size="8.00">+ Draw (GameTime gameTime)</text>
</g>
<!-- Box_DrawableGameStateComponent&#45;&gt;Box_MousePointer -->
<g id="edge8" class="edge"><title>Box_DrawableGameStateComponent&#45;&gt;Box_MousePointer</title>
<path fill="none" stroke="midnightblue" d="M419.79,-1095.39C317.951,-1082.49 201.743,-1062.28 159,-1034 126.08,-1012.22 103.087,-972.639 89.5817,-943.236"/>
<polygon fill="none" stroke="midnightblue" points="419.556,-1098.89 429.913,-1096.65 420.424,-1091.94 419.556,-1098.89"/>
</g>
<!-- Box_Overlay -->
<g id="node4" class="node"><title>Box_Overlay</title>
<polygon fill="#fcfcda" stroke="black" points="167.5,-779 167.5,-1033 496.5,-1033 496.5,-779 167.5,-779"/>
<text text-anchor="middle" x="332" y="-1021.8" font-family="Arial" font-size="8.00">Overlay</text>
<polyline fill="none" stroke="black" points="167.5,-1015 496.5,-1015 "/>
<text text-anchor="start" x="175.5" y="-1003.8" font-family="Arial" font-size="8.00">&#45; effect : BasicEffect</text>
<text text-anchor="start" x="175.5" y="-993.8" font-family="Arial" font-size="8.00">&#45; _elapsed_time : float</text>
<text text-anchor="start" x="175.5" y="-983.8" font-family="Arial" font-size="8.00">&#45; _fps : int</text>
<text text-anchor="start" x="175.5" y="-973.8" font-family="Arial" font-size="8.00">&#45; World : World</text>
<text text-anchor="start" x="175.5" y="-963.8" font-family="Arial" font-size="8.00">+ HashtableWrapper : class</text>
<text text-anchor="start" x="175.5" y="-953.8" font-family="Arial" font-size="8.00">&#45; _total_frames : int</text>
<text text-anchor="start" x="175.5" y="-943.8" font-family="Arial" font-size="8.00">&#45; spriteBatch : SpriteBatch</text>
<text text-anchor="start" x="175.5" y="-933.8" font-family="Arial" font-size="8.00">&#45; font : SpriteFont</text>
<polyline fill="none" stroke="black" points="167.5,-927 496.5,-927 "/>
<text text-anchor="start" x="175.5" y="-915.8" font-family="Arial" font-size="8.00">&#45; profiler () : Hashtable static</text>
<text text-anchor="start" x="175.5" y="-905.8" font-family="Arial" font-size="8.00">+ Profiler () : HashtableWrapper static</text>
<text text-anchor="start" x="175.5" y="-895.8" font-family="Arial" font-size="8.00">&#45; DrawFPS (GameTime gameTime)</text>
<text text-anchor="start" x="175.5" y="-885.8" font-family="Arial" font-size="8.00">&#45; DrawString (float n, int width, int height, Color color)</text>
<text text-anchor="start" x="175.5" y="-875.8" font-family="Arial" font-size="8.00">&#45; DrawVectorCoordinates (Vector3 vector, int width2, int width3, int width4, int height)</text>
<text text-anchor="start" x="175.5" y="-865.8" font-family="Arial" font-size="8.00">&#45; UpdateFPS (GameTime gameTime)</text>
<text text-anchor="start" x="175.5" y="-855.8" font-family="Arial" font-size="8.00">+ Overlay (GameState state, World world)</text>
<text text-anchor="start" x="175.5" y="-845.8" font-family="Arial" font-size="8.00">+ Draw (GameTime gameTime)</text>
<text text-anchor="start" x="175.5" y="-835.8" font-family="Arial" font-size="8.00">&#45; DrawCoordinates (GameTime gameTime)</text>
<text text-anchor="start" x="175.5" y="-825.8" font-family="Arial" font-size="8.00">&#45; DrawOverlay (GameTime gameTime)</text>
<text text-anchor="start" x="175.5" y="-815.8" font-family="Arial" font-size="8.00">&#45; DrawProfiler (GameTime gameTime)</text>
<text text-anchor="start" x="175.5" y="-805.8" font-family="Arial" font-size="8.00">&#45; DrawString (string str, int width, int height, Color color)</text>
<text text-anchor="start" x="175.5" y="-795.8" font-family="Arial" font-size="8.00"># LoadContent ()</text>
<text text-anchor="start" x="175.5" y="-785.8" font-family="Arial" font-size="8.00">+ Update (GameTime gameTime)</text>
</g>
<!-- Box_DrawableGameStateComponent&#45;&gt;Box_Overlay -->
<g id="edge10" class="edge"><title>Box_DrawableGameStateComponent&#45;&gt;Box_Overlay</title>
<path fill="none" stroke="midnightblue" d="M534.273,-1064.6C521.854,-1054.86 508.264,-1044.21 494.19,-1033.17"/>
<polygon fill="none" stroke="midnightblue" points="532.228,-1067.44 542.257,-1070.86 536.548,-1061.94 532.228,-1067.44"/>
</g>
<!-- Box_World -->
<g id="node5" class="node"><title>Box_World</title>
<polygon fill="#fcfcda" stroke="black" points="1013,-789 1013,-1023 1321,-1023 1321,-789 1013,-789"/>
<text text-anchor="middle" x="1167" y="-1011.8" font-family="Arial" font-size="8.00">World</text>
<polyline fill="none" stroke="black" points="1013,-1005 1321,-1005 "/>
<text text-anchor="start" x="1021" y="-993.8" font-family="Arial" font-size="8.00">&#45; knotRenderEffect : RenderEffect</text>
<text text-anchor="start" x="1021" y="-983.8" font-family="Arial" font-size="8.00">&#45; _redraw : bool</text>
<text text-anchor="start" x="1021" y="-973.8" font-family="Arial" font-size="8.00">+ SelectedObject : IGameObject</text>
<text text-anchor="start" x="1021" y="-963.8" font-family="Arial" font-size="8.00">+ Objects : List&lt;IGameObject&gt;</text>
<text text-anchor="start" x="1021" y="-953.8" font-family="Arial" font-size="8.00">+ Redraw : bool</text>
<text text-anchor="start" x="1021" y="-943.8" font-family="Arial" font-size="8.00">&#45; _selectedObject : IGameObject</text>
<text text-anchor="start" x="1021" y="-933.8" font-family="Arial" font-size="8.00">&#45; knotRenderEffects : List&lt;RenderEffect&gt;</text>
<text text-anchor="start" x="1021" y="-923.8" font-family="Arial" font-size="8.00">&#45; floor : TexturedRectangle</text>
<text text-anchor="start" x="1021" y="-913.8" font-family="Arial" font-size="8.00">+ Camera : Camera</text>
<polyline fill="none" stroke="black" points="1013,-907 1321,-907 "/>
<text text-anchor="start" x="1021" y="-895.8" font-family="Arial" font-size="8.00">+ SelectionChanged (o) : Action&lt;IGameObject&gt;</text>
<text text-anchor="start" x="1021" y="-885.8" font-family="Arial" font-size="8.00">&#45; IEnumerable.GetEnumerator () : IEnumerator</text>
<text text-anchor="start" x="1021" y="-875.8" font-family="Arial" font-size="8.00">+ World (GameState state)</text>
<text text-anchor="start" x="1021" y="-865.8" font-family="Arial" font-size="8.00">+ SelectedObjectDistance () : float</text>
<text text-anchor="start" x="1021" y="-855.8" font-family="Arial" font-size="8.00">+ SubComponents (GameTime gameTime) : IEnumerable&lt;IGameStateComponent&gt;</text>
<text text-anchor="start" x="1021" y="-845.8" font-family="Arial" font-size="8.00">+ Draw (GameTime gameTime)</text>
<text text-anchor="start" x="1021" y="-835.8" font-family="Arial" font-size="8.00">+ Update (GameTime gameTime)</text>
<text text-anchor="start" x="1021" y="-825.8" font-family="Arial" font-size="8.00">+ Add (IGameObject obj)</text>
<text text-anchor="start" x="1021" y="-815.8" font-family="Arial" font-size="8.00">+ GetEnumerator () : IEnumerator&lt;IGameObject&gt;</text>
<text text-anchor="start" x="1021" y="-805.8" font-family="Arial" font-size="8.00">+ Initialize ()</text>
<text text-anchor="start" x="1021" y="-795.8" font-family="Arial" font-size="8.00">+ SelectObject (IGameObject obj, GameTime gameTime)</text>
</g>
<!-- Box_DrawableGameStateComponent&#45;&gt;Box_World -->
<g id="edge12" class="edge"><title>Box_DrawableGameStateComponent&#45;&gt;Box_World</title>
<path fill="none" stroke="midnightblue" d="M772.189,-1097.42C846.238,-1086.22 931.772,-1066.99 1004,-1034 1011.2,-1030.71 1018.37,-1027.04 1025.45,-1023.08"/>
<polygon fill="none" stroke="midnightblue" points="771.669,-1093.96 762.287,-1098.88 772.691,-1100.88 771.669,-1093.96"/>
</g>
<!-- Box_Widget -->
<g id="node6" class="node"><title>Box_Widget</title>
<polygon fill="#fcfcda" stroke="black" points="726.5,-869 726.5,-943 995.5,-943 995.5,-869 726.5,-869"/>
<text text-anchor="middle" x="861" y="-931.8" font-family="Arial" font-size="8.00">Widget</text>
<polyline fill="none" stroke="black" points="726.5,-925 995.5,-925 "/>
<text text-anchor="start" x="734.5" y="-913.8" font-family="Arial" font-size="8.00">+ Info : WidgetInfo</text>
<text text-anchor="start" x="734.5" y="-903.8" font-family="Arial" font-size="8.00">+ IsVisible : bool virtual</text>
<polyline fill="none" stroke="black" points="726.5,-897 995.5,-897 "/>
<text text-anchor="start" x="734.5" y="-885.8" font-family="Arial" font-size="8.00">+ bounds () : Rectangle</text>
<text text-anchor="start" x="734.5" y="-875.8" font-family="Arial" font-size="8.00">+ Widget (GameState state, WidgetInfo info, DisplayLayer drawOrder)</text>
</g>
<!-- Box_DrawableGameStateComponent&#45;&gt;Box_Widget -->
<g id="edge16" class="edge"><title>Box_DrawableGameStateComponent&#45;&gt;Box_Widget</title>
<path fill="none" stroke="midnightblue" d="M673.105,-1065.11C687.948,-1055.21 703.169,-1044.57 717,-1034 754.341,-1005.46 794.069,-969.696 822.316,-943.229"/>
<polygon fill="none" stroke="midnightblue" points="670.836,-1062.42 664.423,-1070.85 674.695,-1068.26 670.836,-1062.42"/>
</g>
<!-- Box_IGameStateComponent -->
<g id="node2" class="node"><title>Box_IGameStateComponent</title>
<polygon fill="#dafcda" stroke="black" points="324,-1193 324,-1247 632,-1247 632,-1193 324,-1193"/>
<text text-anchor="middle" x="478" y="-1235.8" font-family="Arial" font-size="8.00">IGameStateComponent</text>
<polyline fill="none" stroke="black" points="324,-1229 632,-1229 "/>
<text text-anchor="start" x="332" y="-1217.8" font-family="Arial" font-size="8.00">+ Index : DisplayLayer</text>
<polyline fill="none" stroke="black" points="324,-1211 632,-1211 "/>
<text text-anchor="start" x="332" y="-1199.8" font-family="Arial" font-size="8.00">+ SubComponents (GameTime gameTime) : IEnumerable&lt;IGameStateComponent&gt;</text>
</g>
<!-- Box_IGameStateComponent&#45;&gt;Box_DrawableGameStateComponent -->
<g id="edge4" class="edge"><title>Box_IGameStateComponent&#45;&gt;Box_DrawableGameStateComponent</title>
<path fill="none" stroke="midnightblue" d="M515.383,-1186.1C526.133,-1176.35 537.995,-1165.6 549.236,-1155.4"/>
<polygon fill="none" stroke="midnightblue" points="512.833,-1183.69 507.776,-1193 517.535,-1188.87 512.833,-1183.69"/>
</g>
<!-- Box_ColorPicker -->
<g id="node7" class="node"><title>Box_ColorPicker</title>
<polygon fill="#fcfcda" stroke="black" points="415.5,-532 415.5,-716 700.5,-716 700.5,-532 415.5,-532"/>
<text text-anchor="middle" x="558" y="-704.8" font-family="Arial" font-size="8.00">ColorPicker</text>
<polyline fill="none" stroke="black" points="415.5,-698 700.5,-698 "/>
<text text-anchor="start" x="423.5" y="-686.8" font-family="Arial" font-size="8.00">&#45; tiles : List&lt;Vector2&gt;</text>
<text text-anchor="start" x="423.5" y="-676.8" font-family="Arial" font-size="8.00">+ SelectedColor : Color</text>
<text text-anchor="start" x="423.5" y="-666.8" font-family="Arial" font-size="8.00">+ IsMouseEventEnabled : bool</text>
<text text-anchor="start" x="423.5" y="-656.8" font-family="Arial" font-size="8.00">&#45; colors : List&lt;Color&gt;</text>
<text text-anchor="start" x="423.5" y="-646.8" font-family="Arial" font-size="8.00"># spriteBatch : SpriteBatch</text>
<text text-anchor="start" x="423.5" y="-636.8" font-family="Arial" font-size="8.00">+ OnSelectColor : Action&lt;Color&gt;</text>
<polyline fill="none" stroke="black" points="415.5,-630 700.5,-630 "/>
<text text-anchor="start" x="423.5" y="-618.8" font-family="Arial" font-size="8.00">&#45; Vector2 tileSize (0.032f, 0.032f) : readonly static</text>
<text text-anchor="start" x="423.5" y="-608.8" font-family="Arial" font-size="8.00">&#45; CreateTiles (IEnumerable&lt;Color&gt; _colors) : IEnumerable&lt;Vector2&gt; static</text>
<text text-anchor="start" x="423.5" y="-598.8" font-family="Arial" font-size="8.00">+ ColorPicker (GameState state, WidgetInfo info, DisplayLayer drawOrder)</text>
<text text-anchor="start" x="423.5" y="-588.8" font-family="Arial" font-size="8.00">+ Draw (GameTime gameTime)</text>
<text text-anchor="start" x="423.5" y="-578.8" font-family="Arial" font-size="8.00">+ OnRightClick (Vector2 position, ClickState click, GameTime gameTime)</text>
<text text-anchor="start" x="423.5" y="-568.8" font-family="Arial" font-size="8.00">+ SetHovered (bool hovered)</text>
<text text-anchor="start" x="423.5" y="-558.8" font-family="Arial" font-size="8.00">&#45; CreateColors (int num) : IEnumerable&lt;Color&gt; static</text>
<text text-anchor="start" x="423.5" y="-548.8" font-family="Arial" font-size="8.00">&#45; SelectColor (Color color)</text>
<text text-anchor="start" x="423.5" y="-538.8" font-family="Arial" font-size="8.00">+ OnLeftClick (Vector2 position, ClickState click, GameTime gameTime)</text>
</g>
<!-- Box_Widget&#45;&gt;Box_ColorPicker -->
<g id="edge18" class="edge"><title>Box_Widget&#45;&gt;Box_ColorPicker</title>
<path fill="none" stroke="midnightblue" d="M813.523,-861.813C771.762,-822.947 709.611,-765.103 657.062,-716.196"/>
<polygon fill="none" stroke="midnightblue" points="811.372,-864.593 821.076,-868.843 816.141,-859.468 811.372,-864.593"/>
</g>
<!-- Box_Dialog -->
<g id="node8" class="node"><title>Box_Dialog</title>
<polygon fill="#fcfcda" stroke="black" points="1368,-552 1368,-696 1676,-696 1676,-552 1368,-552"/>
<text text-anchor="middle" x="1522" y="-684.8" font-family="Arial" font-size="8.00">Dialog</text>
<polyline fill="none" stroke="black" points="1368,-678 1676,-678 "/>
<text text-anchor="start" x="1376" y="-666.8" font-family="Arial" font-size="8.00"># spriteBatch : SpriteBatch</text>
<text text-anchor="start" x="1376" y="-656.8" font-family="Arial" font-size="8.00">+ Done : Action</text>
<text text-anchor="start" x="1376" y="-646.8" font-family="Arial" font-size="8.00">+ buttons : Menu</text>
<polyline fill="none" stroke="black" points="1368,-640 1676,-640 "/>
<text text-anchor="start" x="1376" y="-628.8" font-family="Arial" font-size="8.00">&#45; ButtonBackgroundColor (ItemState itemState) : Color</text>
<text text-anchor="start" x="1376" y="-618.8" font-family="Arial" font-size="8.00"># RelativeButtonSize (int n) : Vector2</text>
<text text-anchor="start" x="1376" y="-608.8" font-family="Arial" font-size="8.00">+ Dialog (GameState state, WidgetInfo info, DisplayLayer drawOrder)</text>
<text text-anchor="start" x="1376" y="-598.8" font-family="Arial" font-size="8.00">&#45; ButtonForegroundColor (ItemState itemState) : Color</text>
<text text-anchor="start" x="1376" y="-588.8" font-family="Arial" font-size="8.00"># RelativeButtonPosition (int n) : Vector2</text>
<text text-anchor="start" x="1376" y="-578.8" font-family="Arial" font-size="8.00"># DrawDialog (GameTime gameTime) abstract</text>
<text text-anchor="start" x="1376" y="-568.8" font-family="Arial" font-size="8.00">+ SubComponents (GameTime gameTime) : IEnumerable&lt;IGameStateComponent&gt;</text>
<text text-anchor="start" x="1376" y="-558.8" font-family="Arial" font-size="8.00">+ Draw (GameTime gameTime)</text>
</g>
<!-- Box_Widget&#45;&gt;Box_Dialog -->
<g id="edge22" class="edge"><title>Box_Widget&#45;&gt;Box_Dialog</title>
<path fill="none" stroke="midnightblue" d="M897.5,-861.125C923.835,-832.151 962.026,-796.522 1004,-778 1149.09,-713.975 1210.79,-798.435 1359,-742 1387.4,-731.184 1415.33,-714.091 1439.82,-696.237"/>
<polygon fill="none" stroke="midnightblue" points="894.774,-858.923 890.73,-868.716 899.998,-863.582 894.774,-858.923"/>
</g>
<!-- Box_Menu -->
<g id="node12" class="node"><title>Box_Menu</title>
<polygon fill="#fcfcda" stroke="black" points="1694,-507 1694,-741 2088,-741 2088,-507 1694,-507"/>
<text text-anchor="middle" x="1891" y="-729.8" font-family="Arial" font-size="8.00">Menu</text>
<polyline fill="none" stroke="black" points="1694,-723 2088,-723 "/>
<text text-anchor="start" x="1702" y="-711.8" font-family="Arial" font-size="8.00">&#45; isVisible : bool</text>
<text text-anchor="start" x="1702" y="-701.8" font-family="Arial" font-size="8.00"># Items : List&lt;MenuItem&gt;</text>
<text text-anchor="start" x="1702" y="-691.8" font-family="Arial" font-size="8.00">+ Color&gt; ItemBackgroundColor : Func&lt;ItemState,</text>
<text text-anchor="start" x="1702" y="-681.8" font-family="Arial" font-size="8.00">+ Color&gt; ItemForegroundColor : Func&lt;ItemState,</text>
<text text-anchor="start" x="1702" y="-671.8" font-family="Arial" font-size="8.00">+ Vector2&gt; RelativeItemPosition : Func&lt;int,</text>
<text text-anchor="start" x="1702" y="-661.8" font-family="Arial" font-size="8.00">+ ItemAlignX : HAlign?</text>
<text text-anchor="start" x="1702" y="-651.8" font-family="Arial" font-size="8.00">+ ItemAlignY : VAlign?</text>
<text text-anchor="start" x="1702" y="-641.8" font-family="Arial" font-size="8.00">+ Count : int</text>
<text text-anchor="start" x="1702" y="-631.8" font-family="Arial" font-size="8.00">+ IsVisible : bool</text>
<text text-anchor="start" x="1702" y="-621.8" font-family="Arial" font-size="8.00">&#45; ItemDisplayLayer : DisplayLayer</text>
<text text-anchor="start" x="1702" y="-611.8" font-family="Arial" font-size="8.00">+ Vector2&gt; RelativeItemSize : Func&lt;int,</text>
<polyline fill="none" stroke="black" points="1694,-605 2088,-605 "/>
<text text-anchor="start" x="1702" y="-593.8" font-family="Arial" font-size="8.00">&#45; assignMenuItemInfo (ref MenuItemInfo info, int num, MenuItem item)</text>
<text text-anchor="start" x="1702" y="-583.8" font-family="Arial" font-size="8.00">+ Menu (GameState state, WidgetInfo info, DisplayLayer drawOrder)</text>
<text text-anchor="start" x="1702" y="-573.8" font-family="Arial" font-size="8.00">+ this (int i) : MenuItem</text>
<text text-anchor="start" x="1702" y="-563.8" font-family="Arial" font-size="8.00">+ SubComponents (GameTime gameTime) : IEnumerable&lt;IGameStateComponent&gt;</text>
<text text-anchor="start" x="1702" y="-553.8" font-family="Arial" font-size="8.00">+ CollapseMenus (MenuItem menu)</text>
<text text-anchor="start" x="1702" y="-543.8" font-family="Arial" font-size="8.00">+ AddButton (MenuItemInfo info) : MenuButton virtual</text>
<text text-anchor="start" x="1702" y="-533.8" font-family="Arial" font-size="8.00">+ AddDropDown (MenuItemInfo info, DistinctOptionInfo option) virtual</text>
<text text-anchor="start" x="1702" y="-523.8" font-family="Arial" font-size="8.00">+ AddDropDown (MenuItemInfo info, DropDownMenuItem[] items, DropDownMenuItem defaultItem) virtual</text>
<text text-anchor="start" x="1702" y="-513.8" font-family="Arial" font-size="8.00">+ Clear ()</text>
</g>
<!-- Box_Widget&#45;&gt;Box_Menu -->
<g id="edge30" class="edge"><title>Box_Widget&#45;&gt;Box_Menu</title>
<path fill="none" stroke="midnightblue" d="M896.699,-861.057C922.924,-831.687 961.309,-795.621 1004,-778 1144.08,-720.18 1539.63,-784.826 1685,-742 1687.97,-741.126 1690.93,-740.203 1693.9,-739.233"/>
<polygon fill="none" stroke="midnightblue" points="893.916,-858.922 889.965,-868.752 899.184,-863.531 893.916,-858.922"/>
</g>
<!-- Box_TextInput -->
<g id="node14" class="node"><title>Box_TextInput</title>
<polygon fill="#fcfcda" stroke="black" points="717.5,-562 717.5,-686 1004.5,-686 1004.5,-562 717.5,-562"/>
<text text-anchor="middle" x="861" y="-674.8" font-family="Arial" font-size="8.00">TextInput</text>
<polyline fill="none" stroke="black" points="717.5,-668 1004.5,-668 "/>
<text text-anchor="start" x="725.5" y="-656.8" font-family="Arial" font-size="8.00">&#45; font : SpriteFont</text>
<text text-anchor="start" x="725.5" y="-646.8" font-family="Arial" font-size="8.00"># spriteBatch : SpriteBatch</text>
<text text-anchor="start" x="725.5" y="-636.8" font-family="Arial" font-size="8.00">+ IsKeyEventEnabled : bool</text>
<text text-anchor="start" x="725.5" y="-626.8" font-family="Arial" font-size="8.00">+ ValidKeys : List&lt;Keys&gt;</text>
<text text-anchor="start" x="725.5" y="-616.8" font-family="Arial" font-size="8.00">+ InputText : string</text>
<polyline fill="none" stroke="black" points="717.5,-610 1004.5,-610 "/>
<text text-anchor="start" x="725.5" y="-598.8" font-family="Arial" font-size="8.00">+ TextInput (GameState state, WidgetInfo info, DisplayLayer drawOrder)</text>
<text text-anchor="start" x="725.5" y="-588.8" font-family="Arial" font-size="8.00">+ Draw (GameTime gameTime)</text>
<text text-anchor="start" x="725.5" y="-578.8" font-family="Arial" font-size="8.00">+ OnKeyEvent (List&lt;Keys&gt; key, KeyEvent keyEvent, GameTime gameTime)</text>
<text text-anchor="start" x="725.5" y="-568.8" font-family="Arial" font-size="8.00">+ Update (GameTime gameTime)</text>
</g>
<!-- Box_Widget&#45;&gt;Box_TextInput -->
<g id="edge34" class="edge"><title>Box_Widget&#45;&gt;Box_TextInput</title>
<path fill="none" stroke="midnightblue" d="M861,-858.55C861,-811.152 861,-738.054 861,-686.071"/>
<polygon fill="none" stroke="midnightblue" points="857.5,-858.843 861,-868.843 864.5,-858.843 857.5,-858.843"/>
</g>
<!-- Box_ItemWidget -->
<g id="node15" class="node"><title>Box_ItemWidget</title>
<polygon fill="#fcfcda" stroke="black" points="1021.5,-592 1021.5,-656 1350.5,-656 1350.5,-592 1021.5,-592"/>
<text text-anchor="middle" x="1186" y="-644.8" font-family="Arial" font-size="8.00">ItemWidget</text>
<polyline fill="none" stroke="black" points="1021.5,-638 1350.5,-638 "/>
<text text-anchor="start" x="1029.5" y="-626.8" font-family="Arial" font-size="8.00">+ ItemState : ItemState</text>
<text text-anchor="start" x="1029.5" y="-616.8" font-family="Arial" font-size="8.00"># ItemNum : int</text>
<polyline fill="none" stroke="black" points="1021.5,-610 1350.5,-610 "/>
<text text-anchor="start" x="1029.5" y="-598.8" font-family="Arial" font-size="8.00">+ ItemWidget (GameState state, WidgetInfo info, DisplayLayer drawOrder, int itemNum)</text>
</g>
<!-- Box_Widget&#45;&gt;Box_ItemWidget -->
<g id="edge38" class="edge"><title>Box_Widget&#45;&gt;Box_ItemWidget</title>
<path fill="none" stroke="midnightblue" d="M909.584,-861.906C937.117,-837.07 972.297,-805.593 1004,-778 1053.02,-735.338 1110.37,-687.082 1147.39,-656.139"/>
<polygon fill="none" stroke="midnightblue" points="907.108,-859.426 902.031,-868.725 911.799,-864.622 907.108,-859.426"/>
</g>
<!-- Box_ConfirmDialog -->
<g id="node9" class="node"><title>Box_ConfirmDialog</title>
<polygon fill="#fcfcda" stroke="black" points="1375,-330 1375,-424 1669,-424 1669,-330 1375,-330"/>
<text text-anchor="middle" x="1522" y="-412.8" font-family="Arial" font-size="8.00">ConfirmDialog</text>
<polyline fill="none" stroke="black" points="1375,-406 1669,-406 "/>
<text text-anchor="start" x="1383" y="-394.8" font-family="Arial" font-size="8.00"># Text : string[]</text>
<polyline fill="none" stroke="black" points="1375,-388 1669,-388 "/>
<text text-anchor="start" x="1383" y="-376.8" font-family="Arial" font-size="8.00"># OnYesClick () : Action</text>
<text text-anchor="start" x="1383" y="-366.8" font-family="Arial" font-size="8.00"># OnCancelClick () : Action</text>
<text text-anchor="start" x="1383" y="-356.8" font-family="Arial" font-size="8.00"># OnNoClick () : Action</text>
<text text-anchor="start" x="1383" y="-346.8" font-family="Arial" font-size="8.00"># DrawDialog (GameTime gameTime)</text>
<text text-anchor="start" x="1383" y="-336.8" font-family="Arial" font-size="8.00">+ ConfirmDialog (GameState state, WidgetInfo info, DisplayLayer drawOrder)</text>
</g>
<!-- Box_Dialog&#45;&gt;Box_ConfirmDialog -->
<g id="edge24" class="edge"><title>Box_Dialog&#45;&gt;Box_ConfirmDialog</title>
<path fill="none" stroke="midnightblue" d="M1522,-541.592C1522,-502.566 1522,-457.362 1522,-424.212"/>
<polygon fill="none" stroke="midnightblue" points="1518.5,-541.893 1522,-551.893 1525.5,-541.893 1518.5,-541.893"/>
</g>
<!-- Box_TextInputDialog -->
<g id="node10" class="node"><title>Box_TextInputDialog</title>
<polygon fill="#fcfcda" stroke="black" points="1368,-128 1368,-212 1676,-212 1676,-128 1368,-128"/>
<text text-anchor="middle" x="1522" y="-200.8" font-family="Arial" font-size="8.00">TextInputDialog</text>
<polyline fill="none" stroke="black" points="1368,-194 1676,-194 "/>
<text text-anchor="start" x="1376" y="-182.8" font-family="Arial" font-size="8.00"># TextInput : TextInput</text>
<polyline fill="none" stroke="black" points="1368,-176 1676,-176 "/>
<text text-anchor="start" x="1376" y="-164.8" font-family="Arial" font-size="8.00"># TextInputSize () : Vector2</text>
<text text-anchor="start" x="1376" y="-154.8" font-family="Arial" font-size="8.00">+ TextInputDialog (GameState state, WidgetInfo info, DisplayLayer drawOrder)</text>
<text text-anchor="start" x="1376" y="-144.8" font-family="Arial" font-size="8.00"># TextInputPosition () : Vector2</text>
<text text-anchor="start" x="1376" y="-134.8" font-family="Arial" font-size="8.00">+ SubComponents (GameTime gameTime) : IEnumerable&lt;IGameStateComponent&gt;</text>
</g>
<!-- Box_ConfirmDialog&#45;&gt;Box_TextInputDialog -->
<g id="edge26" class="edge"><title>Box_ConfirmDialog&#45;&gt;Box_TextInputDialog</title>
<path fill="none" stroke="midnightblue" d="M1522,-319.491C1522,-285.437 1522,-243.045 1522,-212.11"/>
<polygon fill="none" stroke="midnightblue" points="1518.5,-319.769 1522,-329.769 1525.5,-319.77 1518.5,-319.769"/>
</g>
<!-- Box_KnotSaveConfirmDialog -->
<g id="node11" class="node"><title>Box_KnotSaveConfirmDialog</title>
<polygon fill="#fcfcda" stroke="black" points="1338,-1 1338,-55 1706,-55 1706,-1 1338,-1"/>
<text text-anchor="middle" x="1522" y="-43.8" font-family="Arial" font-size="8.00">KnotSaveConfirmDialog</text>
<polyline fill="none" stroke="black" points="1338,-37 1706,-37 "/>
<text text-anchor="middle" x="1522" y="-25.8" font-family="Arial" font-size="8.00"> </text>
<polyline fill="none" stroke="black" points="1338,-19 1706,-19 "/>
<text text-anchor="start" x="1346" y="-7.8" font-family="Arial" font-size="8.00">+ KnotSaveConfirmDialog (GameState state, WidgetInfo info, DisplayLayer drawOrder, Knot knot)</text>
</g>
<!-- Box_TextInputDialog&#45;&gt;Box_KnotSaveConfirmDialog -->
<g id="edge28" class="edge"><title>Box_TextInputDialog&#45;&gt;Box_KnotSaveConfirmDialog</title>
<path fill="none" stroke="midnightblue" d="M1522,-117.582C1522,-96.3431 1522,-72.7182 1522,-55.0643"/>
<polygon fill="none" stroke="midnightblue" points="1518.5,-117.78 1522,-127.78 1525.5,-117.78 1518.5,-117.78"/>
</g>
<!-- Box_VerticalMenu -->
<g id="node13" class="node"><title>Box_VerticalMenu</title>
<polygon fill="#fcfcda" stroke="black" points="1706,-315 1706,-439 2076,-439 2076,-315 1706,-315"/>
<text text-anchor="middle" x="1891" y="-427.8" font-family="Arial" font-size="8.00">VerticalMenu</text>
<polyline fill="none" stroke="black" points="1706,-421 2076,-421 "/>
<text text-anchor="start" x="1714" y="-409.8" font-family="Arial" font-size="8.00"># spriteBatch : SpriteBatch</text>
<text text-anchor="start" x="1714" y="-399.8" font-family="Arial" font-size="8.00">+ Border : Border</text>
<polyline fill="none" stroke="black" points="1706,-393 2076,-393 "/>
<text text-anchor="start" x="1714" y="-381.8" font-family="Arial" font-size="8.00">+ VerticalMenu (GameState state, WidgetInfo info, DisplayLayer drawOrder)</text>
<text text-anchor="start" x="1714" y="-371.8" font-family="Arial" font-size="8.00">+ Align (Viewport viewport, float scale, int posX, int posY, int? sizeX)</text>
<text text-anchor="start" x="1714" y="-361.8" font-family="Arial" font-size="8.00">+ AddButton (MenuItemInfo info) : MenuButton</text>
<text text-anchor="start" x="1714" y="-351.8" font-family="Arial" font-size="8.00">+ AddDropDown (MenuItemInfo info, DistinctOptionInfo option)</text>
<text text-anchor="start" x="1714" y="-341.8" font-family="Arial" font-size="8.00">+ AddDropDown (MenuItemInfo info, DropDownMenuItem[] items, DropDownMenuItem defaultItem)</text>
<text text-anchor="start" x="1714" y="-331.8" font-family="Arial" font-size="8.00">+ Draw (GameTime gameTime)</text>
<text text-anchor="start" x="1714" y="-321.8" font-family="Arial" font-size="8.00">+ Align (Viewport viewport, float scale, Vector2? givenPosition)</text>
</g>
<!-- Box_Menu&#45;&gt;Box_VerticalMenu -->
<g id="edge32" class="edge"><title>Box_Menu&#45;&gt;Box_VerticalMenu</title>
<path fill="none" stroke="midnightblue" d="M1891,-496.548C1891,-476.623 1891,-456.835 1891,-439.262"/>
<polygon fill="none" stroke="midnightblue" points="1887.5,-496.649 1891,-506.649 1894.5,-496.649 1887.5,-496.649"/>
</g>
<!-- Box_MenuItem -->
<g id="node16" class="node"><title>Box_MenuItem</title>
<polygon fill="#fcfcda" stroke="black" points="222,-285 222,-469 554,-469 554,-285 222,-285"/>
<text text-anchor="middle" x="388" y="-457.8" font-family="Arial" font-size="8.00">MenuItem</text>
<polyline fill="none" stroke="black" points="222,-451 554,-451 "/>
<text text-anchor="start" x="230" y="-439.8" font-family="Arial" font-size="8.00"># spriteBatch : SpriteBatch</text>
<text text-anchor="start" x="230" y="-429.8" font-family="Arial" font-size="8.00">+ IsMouseEventEnabled : bool</text>
<text text-anchor="start" x="230" y="-419.8" font-family="Arial" font-size="8.00">+ ValidKeys : List&lt;Keys&gt;</text>
<text text-anchor="start" x="230" y="-409.8" font-family="Arial" font-size="8.00">+ IsKeyEventEnabled : bool</text>
<text text-anchor="start" x="230" y="-399.8" font-family="Arial" font-size="8.00">+ Info : MenuItemInfo</text>
<polyline fill="none" stroke="black" points="222,-393 554,-393 "/>
<text text-anchor="start" x="230" y="-381.8" font-family="Arial" font-size="8.00">+ MenuItem (GameState state, DisplayLayer drawOrder, int itemNum, MenuItemInfo info)</text>
<text text-anchor="start" x="230" y="-371.8" font-family="Arial" font-size="8.00">+ Collapse () virtual</text>
<text text-anchor="start" x="230" y="-361.8" font-family="Arial" font-size="8.00">+ OnKeyEvent (List&lt;Keys&gt; key, KeyEvent keyEvent, GameTime gameTime)</text>
<text text-anchor="start" x="230" y="-351.8" font-family="Arial" font-size="8.00">+ OnLeftClick (Vector2 position, ClickState click, GameTime gameTime)</text>
<text text-anchor="start" x="230" y="-341.8" font-family="Arial" font-size="8.00">+ OnRightClick (Vector2 position, ClickState click, GameTime gameTime)</text>
<text text-anchor="start" x="230" y="-331.8" font-family="Arial" font-size="8.00">+ MinimumSize (SpriteFont font) : Vector2</text>
<text text-anchor="start" x="230" y="-321.8" font-family="Arial" font-size="8.00">+ TextPosition (SpriteFont font) : Vector2</text>
<text text-anchor="start" x="230" y="-311.8" font-family="Arial" font-size="8.00">+ TextPosition (SpriteFont font, Vector2 scale) : Vector2</text>
<text text-anchor="start" x="230" y="-301.8" font-family="Arial" font-size="8.00">+ Draw (GameTime gameTime)</text>
<text text-anchor="start" x="230" y="-291.8" font-family="Arial" font-size="8.00">+ SetHovered (bool hovered)</text>
</g>
<!-- Box_ItemWidget&#45;&gt;Box_MenuItem -->
<g id="edge40" class="edge"><title>Box_ItemWidget&#45;&gt;Box_MenuItem</title>
<path fill="none" stroke="midnightblue" d="M1140.25,-585.324C1106.98,-559.138 1059.75,-525.823 1013,-506 864.715,-443.119 683.295,-410.055 554.191,-393.221"/>
<polygon fill="none" stroke="midnightblue" points="1138.4,-588.322 1148.4,-591.815 1142.76,-582.847 1138.4,-588.322"/>
</g>
<!-- Box_DropDownMenu -->
<g id="node17" class="node"><title>Box_DropDownMenu</title>
<polygon fill="#fcfcda" stroke="black" points="26.5,-93 26.5,-247 383.5,-247 383.5,-93 26.5,-93"/>
<text text-anchor="middle" x="205" y="-235.8" font-family="Arial" font-size="8.00">DropDownMenu</text>
<polyline fill="none" stroke="black" points="26.5,-229 383.5,-229 "/>
<text text-anchor="start" x="34.5" y="-217.8" font-family="Arial" font-size="8.00">&#45; selected : MenuButton</text>
<text text-anchor="start" x="34.5" y="-207.8" font-family="Arial" font-size="8.00">&#45; dropdown : VerticalMenu</text>
<polyline fill="none" stroke="black" points="26.5,-201 383.5,-201 "/>
<text text-anchor="start" x="34.5" y="-189.8" font-family="Arial" font-size="8.00">&#45; ValuePosition (int dummy) : Vector2</text>
<text text-anchor="start" x="34.5" y="-179.8" font-family="Arial" font-size="8.00">+ DropDownMenu (GameState state, DisplayLayer drawOrder, int itemNum, MenuItemInfo info)</text>
<text text-anchor="start" x="34.5" y="-169.8" font-family="Arial" font-size="8.00">&#45; DropDownBackgroundColor (ItemState itemState) : Color</text>
<text text-anchor="start" x="34.5" y="-159.8" font-family="Arial" font-size="8.00">&#45; DropDownForegroundColor (ItemState itemState) : Color</text>
<text text-anchor="start" x="34.5" y="-149.8" font-family="Arial" font-size="8.00">&#45; ValueSize (int dummy) : Vector2</text>
<text text-anchor="start" x="34.5" y="-139.8" font-family="Arial" font-size="8.00">+ SubComponents (GameTime gameTime) : IEnumerable&lt;IGameStateComponent&gt;</text>
<text text-anchor="start" x="34.5" y="-129.8" font-family="Arial" font-size="8.00">+ Collapse ()</text>
<text text-anchor="start" x="34.5" y="-119.8" font-family="Arial" font-size="8.00">+ Draw (GameTime gameTime)</text>
<text text-anchor="start" x="34.5" y="-109.8" font-family="Arial" font-size="8.00">+ AddEntries (DistinctOptionInfo option)</text>
<text text-anchor="start" x="34.5" y="-99.8" font-family="Arial" font-size="8.00">+ AddEntries (DropDownMenuItem[] entries, DropDownMenuItem defaultEntry)</text>
</g>
<!-- Box_MenuItem&#45;&gt;Box_DropDownMenu -->
<g id="edge46" class="edge"><title>Box_MenuItem&#45;&gt;Box_DropDownMenu</title>
<path fill="none" stroke="midnightblue" d="M299.645,-277.058C290.793,-267.045 281.902,-256.987 273.303,-247.261"/>
<polygon fill="none" stroke="midnightblue" points="297.156,-279.526 306.401,-284.7 302.4,-274.889 297.156,-279.526"/>
</g>
<!-- Box_MenuButton -->
<g id="node18" class="node"><title>Box_MenuButton</title>
<polygon fill="#fcfcda" stroke="black" points="400.5,-143 400.5,-197 741.5,-197 741.5,-143 400.5,-143"/>
<text text-anchor="middle" x="571" y="-185.8" font-family="Arial" font-size="8.00">MenuButton</text>
<polyline fill="none" stroke="black" points="400.5,-179 741.5,-179 "/>
<text text-anchor="middle" x="571" y="-167.8" font-family="Arial" font-size="8.00"> </text>
<polyline fill="none" stroke="black" points="400.5,-161 741.5,-161 "/>
<text text-anchor="start" x="408.5" y="-149.8" font-family="Arial" font-size="8.00">+ MenuButton (GameState state, DisplayLayer drawOrder, int itemNum, MenuItemInfo info)</text>
</g>
<!-- Box_MenuItem&#45;&gt;Box_MenuButton -->
<g id="edge48" class="edge"><title>Box_MenuItem&#45;&gt;Box_MenuButton</title>
<path fill="none" stroke="midnightblue" d="M476.514,-276.877C502.36,-247.642 528.524,-218.046 546.746,-197.435"/>
<polygon fill="none" stroke="midnightblue" points="473.6,-274.889 469.599,-284.7 478.844,-279.526 473.6,-274.889"/>
</g>
<!-- Box_XnaDrawableGameComponent -->
<g id="node19" class="node"><title>Box_XnaDrawableGameComponent</title>
<polygon fill="#ffffff" stroke="black" points="650,-1211 650,-1229 780,-1229 780,-1211 650,-1211"/>
<text text-anchor="middle" x="715" y="-1217.8" font-family="Arial" font-size="8.00">Xna.DrawableGameComponent</text>
</g>
<!-- Box_XnaDrawableGameComponent&#45;&gt;Box_DrawableGameStateComponent -->
<g id="edge2" class="edge"><title>Box_XnaDrawableGameComponent&#45;&gt;Box_DrawableGameStateComponent</title>
<path fill="none" stroke="midnightblue" d="M697.226,-1204.02C682.886,-1191.12 662.035,-1172.38 642.979,-1155.24"/>
<polygon fill="none" stroke="midnightblue" points="695.078,-1206.79 704.854,-1210.88 699.758,-1201.59 695.078,-1206.79"/>
</g>
<!-- Box_XnaIGameComponent -->
<g id="node20" class="node"><title>Box_XnaIGameComponent</title>
<polygon fill="#ffffff" stroke="black" points="430,-1285 430,-1303 526,-1303 526,-1285 430,-1285"/>
<text text-anchor="middle" x="478" y="-1291.8" font-family="Arial" font-size="8.00">Xna.IGameComponent</text>
</g>
<!-- Box_XnaIGameComponent&#45;&gt;Box_IGameStateComponent -->
<g id="edge6" class="edge"><title>Box_XnaIGameComponent&#45;&gt;Box_IGameStateComponent</title>
<path fill="none" stroke="midnightblue" d="M478,-1274.64C478,-1266.2 478,-1256.16 478,-1247"/>
<polygon fill="none" stroke="midnightblue" points="474.5,-1274.93 478,-1284.93 481.5,-1274.93 474.5,-1274.93"/>
</g>
<!-- Box_IEnumerable -->
<g id="node21" class="node"><title>Box_IEnumerable</title>
<polygon fill="#ffffff" stroke="black" points="1109.5,-1104 1109.5,-1122 1224.5,-1122 1224.5,-1104 1109.5,-1104"/>
<text text-anchor="middle" x="1167" y="-1110.8" font-family="Arial" font-size="8.00">IEnumerable&lt;IGameObject&gt;</text>
</g>
<!-- Box_IEnumerable&#45;&gt;Box_World -->
<g id="edge14" class="edge"><title>Box_IEnumerable&#45;&gt;Box_World</title>
<path fill="none" stroke="midnightblue" d="M1167,-1093.68C1167,-1076.73 1167,-1050.57 1167,-1023.11"/>
<polygon fill="none" stroke="midnightblue" points="1163.5,-1093.84 1167,-1103.84 1170.5,-1093.84 1163.5,-1093.84"/>
</g>
<!-- Box_IMouseEventListener -->
<g id="node22" class="node"><title>Box_IMouseEventListener</title>
<polygon fill="#ffffff" stroke="black" points="514,-897 514,-915 606,-915 606,-897 514,-897"/>
<text text-anchor="middle" x="560" y="-903.8" font-family="Arial" font-size="8.00">IMouseEventListener</text>
</g>
<!-- Box_IMouseEventListener&#45;&gt;Box_ColorPicker -->
<g id="edge20" class="edge"><title>Box_IMouseEventListener&#45;&gt;Box_ColorPicker</title>
<path fill="none" stroke="midnightblue" d="M559.864,-886.832C559.619,-852.243 559.087,-777.314 558.654,-716.276"/>
<polygon fill="none" stroke="midnightblue" points="556.365,-886.962 559.936,-896.937 563.365,-886.912 556.365,-886.962"/>
</g>
<!-- Box_IMouseEventListener&#45;&gt;Box_MenuItem -->
<g id="edge42" class="edge"><title>Box_IMouseEventListener&#45;&gt;Box_MenuItem</title>
<path fill="none" stroke="midnightblue" d="M557.032,-886.498C551.71,-858.36 537.861,-806.623 505,-778 459.469,-738.342 410.604,-790.02 374,-742 315.181,-664.837 331.67,-549.532 354.46,-469.24"/>
<polygon fill="none" stroke="midnightblue" points="553.634,-887.396 558.773,-896.661 560.534,-886.214 553.634,-887.396"/>
</g>
<!-- Box_IKeyEventListener -->
<g id="node23" class="node"><title>Box_IKeyEventListener</title>
<polygon fill="#ffffff" stroke="black" points="626,-897 626,-915 708,-915 708,-897 626,-897"/>
<text text-anchor="middle" x="667" y="-903.8" font-family="Arial" font-size="8.00">IKeyEventListener</text>
</g>
<!-- Box_IKeyEventListener&#45;&gt;Box_TextInput -->
<g id="edge36" class="edge"><title>Box_IKeyEventListener&#45;&gt;Box_TextInput</title>
<path fill="none" stroke="midnightblue" d="M672.141,-887.069C679.7,-861.143 695.406,-813.738 718,-778 738.862,-745.002 767.266,-712.685 793.263,-686.244"/>
<polygon fill="none" stroke="midnightblue" points="668.751,-886.194 669.404,-896.769 675.488,-888.095 668.751,-886.194"/>
</g>
<!-- Box_IKeyEventListener&#45;&gt;Box_MenuItem -->
<g id="edge44" class="edge"><title>Box_IKeyEventListener&#45;&gt;Box_MenuItem</title>
<path fill="none" stroke="midnightblue" d="M664.935,-886.517C660.811,-857.977 648.819,-805.244 615,-778 541.94,-719.143 469.265,-812.179 407,-742 372.415,-703.019 374.388,-563.806 380.245,-469.025"/>
<polygon fill="none" stroke="midnightblue" points="661.508,-887.321 666.227,-896.806 668.453,-886.448 661.508,-887.321"/>
</g>
</g>
</svg>
