<?xml version="1.0" encoding="UTF-8" standalone="no"?>
<!DOCTYPE svg PUBLIC "-//W3C//DTD SVG 1.1//EN"
 "http://www.w3.org/Graphics/SVG/1.1/DTD/svg11.dtd">
<!-- Generated by graphviz version 2.26.3 (20100126.1600)
 -->
<!-- Title: MenuItem Pages: 1 -->
<svg width="304pt" height="180pt"
 viewBox="0.00 0.00 304.00 180.00" xmlns="http://www.w3.org/2000/svg" xmlns:xlink="http://www.w3.org/1999/xlink">
<g id="graph1" class="graph" transform="scale(1 1) rotate(0) translate(4 176)">
<title>MenuItem</title>
<polygon fill="white" stroke="white" points="-4,5 -4,-176 301,-176 301,5 -4,5"/>
<!-- Box_ModelFactory -->
<g id="node1" class="node"><title>Box_ModelFactory</title>
<polygon fill="#fcfcda" stroke="black" points="0,-99 0,-171 296,-171 296,-99 0,-99"/>
<text text-anchor="middle" x="148" y="-159.8" font-family="Helvetica,sans-Serif" font-size="8.00">ModelFactory</text>
<polyline fill="none" stroke="black" points="0,-151 296,-151 "/>
<text text-anchor="start" x="8" y="-139.8" font-family="Helvetica,sans-Serif" font-size="8.00">&#45; GameModel&gt; cache : Dictionary&lt;GameModelInfo, new</text>
<text text-anchor="start" x="8" y="-127.8" font-family="Helvetica,sans-Serif" font-size="8.00">+ this [GameState state, GameModelInfo info] : GameModel</text>
<polyline fill="none" stroke="black" points="0,-119 296,-119 "/>
<text text-anchor="start" x="8" y="-107.8" font-family="Helvetica,sans-Serif" font-size="8.00"># CreateModel (GameState state, GameModelInfo info) : GameModel abstract</text>
</g>
<!-- Box_PipeModelFactory -->
<g id="node2" class="node"><title>Box_PipeModelFactory</title>
<polygon fill="#fcfcda" stroke="black" points="0,-1 0,-61 296,-61 296,-1 0,-1"/>
<text text-anchor="middle" x="148" y="-49.8" font-family="Helvetica,sans-Serif" font-size="8.00">PipeModelFactory</text>
<polyline fill="none" stroke="black" points="0,-41 296,-41 "/>
<text text-anchor="middle" x="148" y="-29.8" font-family="Helvetica,sans-Serif" font-size="8.00"> </text>
<polyline fill="none" stroke="black" points="0,-21 296,-21 "/>
<text text-anchor="start" x="8" y="-9.8" font-family="Helvetica,sans-Serif" font-size="8.00"># CreateModel (GameState state, GameModelInfo info) : GameModel override</text>
</g>
<!-- Box_ModelFactory&#45;&gt;Box_PipeModelFactory -->
<g id="edge2" class="edge"><title>Box_ModelFactory&#45;&gt;Box_PipeModelFactory</title>
<path fill="none" stroke="midnightblue" d="M148,-88.88C148,-79.4811 148,-69.8227 148,-61.1542"/>
<polygon fill="none" stroke="midnightblue" points="144.5,-88.9177 148,-98.9177 151.5,-88.9178 144.5,-88.9177"/>
</g>
</g>
</svg>
