<?xml version="1.0" encoding="UTF-8" standalone="no"?>
<!DOCTYPE svg PUBLIC "-//W3C//DTD SVG 1.1//EN"
 "http://www.w3.org/Graphics/SVG/1.1/DTD/svg11.dtd">
<!-- Generated by graphviz version 2.26.3 (20100126.1600)
 -->
<!-- Title: MenuItem Pages: 1 -->
<svg width="465pt" height="372pt"
 viewBox="0.00 0.00 465.00 372.00" xmlns="http://www.w3.org/2000/svg" xmlns:xlink="http://www.w3.org/1999/xlink">
<g id="graph1" class="graph" transform="scale(1 1) rotate(0) translate(4 368)">
<title>MenuItem</title>
<polygon fill="white" stroke="white" points="-4,5 -4,-368 462,-368 462,5 -4,5"/>
<!-- Box_MousePointer -->
<g id="node1" class="node"><title>Box_MousePointer</title>
<polygon fill="#fcfcda" stroke="black" points="183.5,-1 183.5,-75 338.5,-75 338.5,-1 183.5,-1"/>
<text text-anchor="middle" x="261" y="-63.8" font-family="Arial" font-size="8.00">MousePointer</text>
<polyline fill="none" stroke="black" points="183.5,-57 338.5,-57 "/>
<text text-anchor="start" x="191.5" y="-45.8" font-family="Arial" font-size="8.00">&#45; spriteBatch : SpriteBatch</text>
<polyline fill="none" stroke="black" points="183.5,-39 338.5,-39 "/>
<text text-anchor="start" x="191.5" y="-27.8" font-family="Arial" font-size="8.00">+ MousePointer (GameScreen screen)</text>
<text text-anchor="start" x="191.5" y="-17.8" font-family="Arial" font-size="8.00">&#45; DrawCursor (GameTime time)</text>
<text text-anchor="start" x="191.5" y="-7.8" font-family="Arial" font-size="8.00">+ Draw (GameTime time)</text>
</g>
<!-- Box_DrawableGameScreenComponent -->
<g id="node2" class="node"><title>Box_DrawableGameScreenComponent</title>
<polygon fill="#fcfcda" stroke="black" points="102.5,-113 102.5,-197 419.5,-197 419.5,-113 102.5,-113"/>
<text text-anchor="middle" x="261" y="-185.8" font-family="Arial" font-size="8.00">DrawableGameScreenComponent</text>
<polyline fill="none" stroke="black" points="102.5,-179 419.5,-179 "/>
<text text-anchor="start" x="110.5" y="-167.8" font-family="Arial" font-size="8.00">+ Index : DisplayLayer</text>
<text text-anchor="start" x="110.5" y="-157.8" font-family="Arial" font-size="8.00">&#45; _index : DisplayLayer</text>
<text text-anchor="start" x="110.5" y="-147.8" font-family="Arial" font-size="8.00">+ screen : GameScreen</text>
<polyline fill="none" stroke="black" points="102.5,-141 419.5,-141 "/>
<text text-anchor="start" x="110.5" y="-129.8" font-family="Arial" font-size="8.00">+ DrawableGameScreenComponent (GameScreen screen, DisplayLayer index)</text>
<text text-anchor="start" x="110.5" y="-119.8" font-family="Arial" font-size="8.00">+ SubComponents (GameTime time) : IEnumerable&lt;IGameScreenComponent&gt; virtual</text>
</g>
<!-- Box_DrawableGameScreenComponent&#45;&gt;Box_MousePointer -->
<g id="edge2" class="edge"><title>Box_DrawableGameScreenComponent&#45;&gt;Box_MousePointer</title>
<path fill="none" stroke="midnightblue" d="M261,-102.482C261,-93.2581 261,-83.8343 261,-75.1401"/>
<polygon fill="none" stroke="midnightblue" points="257.5,-102.76 261,-112.76 264.5,-102.76 257.5,-102.76"/>
</g>
<!-- Box_IGameScreenComponent -->
<g id="node3" class="node"><title>Box_IGameScreenComponent</title>
<polygon fill="#dafcda" stroke="black" points="-0.5,-235 -0.5,-289 292.5,-289 292.5,-235 -0.5,-235"/>
<text text-anchor="middle" x="146" y="-277.8" font-family="Arial" font-size="8.00">IGameScreenComponent</text>
<polyline fill="none" stroke="black" points="-0.5,-271 292.5,-271 "/>
<text text-anchor="start" x="7.5" y="-259.8" font-family="Arial" font-size="8.00">+ Index : DisplayLayer</text>
<polyline fill="none" stroke="black" points="-0.5,-253 292.5,-253 "/>
<text text-anchor="start" x="7.5" y="-241.8" font-family="Arial" font-size="8.00">+ SubComponents (GameTime time) : IEnumerable&lt;IGameScreenComponent&gt;</text>
</g>
<!-- Box_IGameScreenComponent&#45;&gt;Box_DrawableGameScreenComponent -->
<g id="edge6" class="edge"><title>Box_IGameScreenComponent&#45;&gt;Box_DrawableGameScreenComponent</title>
<path fill="none" stroke="midnightblue" d="M182.433,-228.102C192.91,-218.354 204.469,-207.598 215.425,-197.404"/>
<polygon fill="none" stroke="midnightblue" points="179.956,-225.625 175.019,-234.999 184.725,-230.75 179.956,-225.625"/>
</g>
<!-- Box_XnaDrawableGameComponent -->
<g id="node4" class="node"><title>Box_XnaDrawableGameComponent</title>
<polygon fill="#ffffff" stroke="black" points="213,-336 213,-354 343,-354 343,-336 213,-336"/>
<text text-anchor="middle" x="278" y="-342.8" font-family="Arial" font-size="8.00">Xna.DrawableGameComponent</text>
</g>
<!-- Box_XnaIGameComponent -->
<g id="node5" class="node"><title>Box_XnaIGameComponent</title>
<polygon fill="#ffffff" stroke="black" points="361,-336 361,-354 457,-354 457,-336 361,-336"/>
<text text-anchor="middle" x="409" y="-342.8" font-family="Arial" font-size="8.00">Xna.IGameComponent</text>
</g>
<!-- Box_DrawableGameComponent -->
<g id="node7" class="node"><title>Box_DrawableGameComponent</title>
<polygon fill="none" stroke="black" points="310,-244 310,-280 442,-280 442,-244 310,-244"/>
<text text-anchor="middle" x="376" y="-259.8" font-family="Arial" font-size="8.00">Box_DrawableGameComponent</text>
</g>
<!-- Box_DrawableGameComponent&#45;&gt;Box_DrawableGameScreenComponent -->
<g id="edge4" class="edge"><title>Box_DrawableGameComponent&#45;&gt;Box_DrawableGameScreenComponent</title>
<path fill="none" stroke="midnightblue" d="M348.993,-236.871C336.316,-225.076 320.857,-210.693 306.454,-197.292"/>
<polygon fill="none" stroke="midnightblue" points="346.787,-239.599 356.492,-243.849 351.555,-234.475 346.787,-239.599"/>
</g>
<!-- Box_IGameComponent -->
<g id="node10" class="node"><title>Box_IGameComponent</title>
<polygon fill="none" stroke="black" points="97,-327 97,-363 195,-363 195,-327 97,-327"/>
<text text-anchor="middle" x="146" y="-342.8" font-family="Arial" font-size="8.00">Box_IGameComponent</text>
</g>
<!-- Box_IGameComponent&#45;&gt;Box_IGameScreenComponent -->
<g id="edge8" class="edge"><title>Box_IGameComponent&#45;&gt;Box_IGameScreenComponent</title>
<path fill="none" stroke="midnightblue" d="M146,-316.987C146,-307.995 146,-298.055 146,-289.127"/>
<polygon fill="none" stroke="midnightblue" points="142.5,-316.99 146,-326.99 149.5,-316.99 142.5,-316.99"/>
</g>
</g>
</svg>
