<?xml version="1.0" encoding="UTF-8" standalone="no"?>
<!DOCTYPE svg PUBLIC "-//W3C//DTD SVG 1.1//EN"
 "http://www.w3.org/Graphics/SVG/1.1/DTD/svg11.dtd">
<!-- Generated by graphviz version 2.26.3 (20100126.1600)
 -->
<!-- Title: MenuItem Pages: 1 -->
<svg width="258pt" height="566pt"
 viewBox="0.00 0.00 258.00 566.00" xmlns="http://www.w3.org/2000/svg" xmlns:xlink="http://www.w3.org/1999/xlink">
<g id="graph1" class="graph" transform="scale(1 1) rotate(0) translate(4 562)">
<title>MenuItem</title>
<polygon fill="white" stroke="white" points="-4,5 -4,-562 255,-562 255,5 -4,5"/>
<!-- Box_BlurEffect -->
<g id="node1" class="node"><title>Box_BlurEffect</title>
<polygon fill="#fcfcda" stroke="black" points="15.5,-1 15.5,-121 234.5,-121 234.5,-1 15.5,-1"/>
<text text-anchor="middle" x="125" y="-109.8" font-family="Helvetica,sans-Serif" font-size="8.00">BlurEffect</text>
<polyline fill="none" stroke="black" points="15.5,-101 234.5,-101 "/>
<text text-anchor="start" x="23.5" y="-89.8" font-family="Helvetica,sans-Serif" font-size="8.00">Attributes:</text>
<text text-anchor="start" x="23.5" y="-77.8" font-family="Helvetica,sans-Serif" font-size="8.00">&#45; testEffect : Effect static</text>
<text text-anchor="start" x="23.5" y="-65.8" font-family="Helvetica,sans-Serif" font-size="8.00">Methods:</text>
<polyline fill="none" stroke="black" points="15.5,-57 234.5,-57 "/>
<text text-anchor="start" x="23.5" y="-45.8" font-family="Helvetica,sans-Serif" font-size="8.00">+ BlurEffect (GameState state)</text>
<text text-anchor="start" x="23.5" y="-33.8" font-family="Helvetica,sans-Serif" font-size="8.00"># Draw (SpriteBatch spriteBatch, GameTime gameTime)</text>
<text text-anchor="start" x="23.5" y="-21.8" font-family="Helvetica,sans-Serif" font-size="8.00">+ Begin (Color background, GameTime gameTime)</text>
<text text-anchor="start" x="23.5" y="-9.8" font-family="Helvetica,sans-Serif" font-size="8.00">+ End (GameTime gameTime)</text>
</g>
<!-- Box_RenderEffect -->
<g id="node2" class="node"><title>Box_RenderEffect</title>
<polygon fill="#fcfcda" stroke="black" points="0,-159 0,-387 250,-387 250,-159 0,-159"/>
<text text-anchor="middle" x="125" y="-375.8" font-family="Helvetica,sans-Serif" font-size="8.00">RenderEffect</text>
<polyline fill="none" stroke="black" points="0,-367 250,-367 "/>
<text text-anchor="start" x="8" y="-355.8" font-family="Helvetica,sans-Serif" font-size="8.00">Attributes:</text>
<text text-anchor="start" x="8" y="-343.8" font-family="Helvetica,sans-Serif" font-size="8.00">&#45; background : Color</text>
<text text-anchor="start" x="8" y="-331.8" font-family="Helvetica,sans-Serif" font-size="8.00">&#45; renderTarget : RenderTargetCache</text>
<text text-anchor="start" x="8" y="-319.8" font-family="Helvetica,sans-Serif" font-size="8.00">&#45; spriteBatch : SpriteBatch</text>
<text text-anchor="start" x="8" y="-307.8" font-family="Helvetica,sans-Serif" font-size="8.00"># state : GameState</text>
<text text-anchor="start" x="8" y="-295.8" font-family="Helvetica,sans-Serif" font-size="8.00">+ RenderTarget : RenderTarget2D</text>
<text text-anchor="start" x="8" y="-283.8" font-family="Helvetica,sans-Serif" font-size="8.00">Methods:</text>
<polyline fill="none" stroke="black" points="0,-275 250,-275 "/>
<text text-anchor="start" x="8" y="-263.8" font-family="Helvetica,sans-Serif" font-size="8.00"># Draw (SpriteBatch spriteBatch, GameTime gameTime) abstract</text>
<text text-anchor="start" x="8" y="-251.8" font-family="Helvetica,sans-Serif" font-size="8.00">+ RenderEffect (GameState state)</text>
<text text-anchor="start" x="8" y="-239.8" font-family="Helvetica,sans-Serif" font-size="8.00">+ DrawModel (GameModel model, GameTime gameTime) virtual</text>
<text text-anchor="start" x="8" y="-227.8" font-family="Helvetica,sans-Serif" font-size="8.00">+ RemapModel (Model model) virtual</text>
<text text-anchor="start" x="8" y="-215.8" font-family="Helvetica,sans-Serif" font-size="8.00">+ Begin (GameTime gameTime)</text>
<text text-anchor="start" x="8" y="-203.8" font-family="Helvetica,sans-Serif" font-size="8.00"># ModifyBasicEffect (BasicEffect effect, GameModel model)</text>
<text text-anchor="start" x="8" y="-191.8" font-family="Helvetica,sans-Serif" font-size="8.00">+ Begin (Color background, GameTime gameTime) virtual</text>
<text text-anchor="start" x="8" y="-179.8" font-family="Helvetica,sans-Serif" font-size="8.00">+ End (GameTime gameTime) virtual</text>
<text text-anchor="start" x="8" y="-167.8" font-family="Helvetica,sans-Serif" font-size="8.00">+ DrawLastFrame (GameTime gameTime)</text>
</g>
<!-- Box_RenderEffect&#45;&gt;Box_BlurEffect -->
<g id="edge2" class="edge"><title>Box_RenderEffect&#45;&gt;Box_BlurEffect</title>
<path fill="none" stroke="midnightblue" d="M125,-148.897C125,-139.325 125,-129.956 125,-121.114"/>
<polygon fill="none" stroke="midnightblue" points="121.5,-148.933 125,-158.933 128.5,-148.933 121.5,-148.933"/>
</g>
<!-- Box_IRenderEffect -->
<g id="node3" class="node"><title>Box_IRenderEffect</title>
<polygon fill="#dafcda" stroke="black" points="12.5,-425 12.5,-557 237.5,-557 237.5,-425 12.5,-425"/>
<text text-anchor="middle" x="125" y="-545.8" font-family="Helvetica,sans-Serif" font-size="8.00">IRenderEffect</text>
<polyline fill="none" stroke="black" points="12.5,-537 237.5,-537 "/>
<text text-anchor="start" x="20.5" y="-525.8" font-family="Helvetica,sans-Serif" font-size="8.00">Attributes:</text>
<text text-anchor="start" x="20.5" y="-513.8" font-family="Helvetica,sans-Serif" font-size="8.00">+ RenderTarget : RenderTarget2D</text>
<text text-anchor="start" x="20.5" y="-501.8" font-family="Helvetica,sans-Serif" font-size="8.00">Methods:</text>
<polyline fill="none" stroke="black" points="12.5,-493 237.5,-493 "/>
<text text-anchor="start" x="20.5" y="-481.8" font-family="Helvetica,sans-Serif" font-size="8.00">+ Begin (GameTime gameTime)</text>
<text text-anchor="start" x="20.5" y="-469.8" font-family="Helvetica,sans-Serif" font-size="8.00">+ End (GameTime gameTime)</text>
<text text-anchor="start" x="20.5" y="-457.8" font-family="Helvetica,sans-Serif" font-size="8.00">+ RemapModel (Model model)</text>
<text text-anchor="start" x="20.5" y="-445.8" font-family="Helvetica,sans-Serif" font-size="8.00">+ DrawModel (GameModel model, GameTime gameTime)</text>
<text text-anchor="start" x="20.5" y="-433.8" font-family="Helvetica,sans-Serif" font-size="8.00">+ DrawLastFrame (GameTime gameTime)</text>
</g>
<!-- Box_IRenderEffect&#45;&gt;Box_RenderEffect -->
<g id="edge4" class="edge"><title>Box_IRenderEffect&#45;&gt;Box_RenderEffect</title>
<path fill="none" stroke="midnightblue" d="M125,-414.488C125,-405.649 125,-396.496 125,-387.293"/>
<polygon fill="none" stroke="midnightblue" points="121.5,-414.705 125,-424.705 128.5,-414.705 121.5,-414.705"/>
</g>
</g>
</svg>
