<?xml version="1.0" encoding="UTF-8" standalone="no"?>
<!DOCTYPE svg PUBLIC "-//W3C//DTD SVG 1.1//EN"
 "http://www.w3.org/Graphics/SVG/1.1/DTD/svg11.dtd">
<!-- Generated by graphviz version 2.26.3 (20100126.1600)
 -->
<!-- Title: MenuItem Pages: 1 -->
<svg width="5875pt" height="2075pt"
 viewBox="0.00 0.00 1410.00 498.00" xmlns="http://www.w3.org/2000/svg" xmlns:xlink="http://www.w3.org/1999/xlink">
<g id="graph1" class="graph" transform="scale(4.16667 4.16667) rotate(0) translate(4 494)">
<title>MenuItem</title>
<polygon fill="white" stroke="white" points="-4,5 -4,-494 1407,-494 1407,5 -4,5"/>
<!-- Box_IRenderEffect -->
<g id="node1" class="node"><title>Box_IRenderEffect</title>
<polygon fill="#dafcda" stroke="black" points="592,-395 592,-489 810,-489 810,-395 592,-395"/>
<text text-anchor="middle" x="701" y="-477.8" font-family="Arial" font-size="8.00">IRenderEffect</text>
<polyline fill="none" stroke="black" points="592,-471 810,-471 "/>
<text text-anchor="start" x="600" y="-459.8" font-family="Arial" font-size="8.00">+ RenderTarget : RenderTarget2D</text>
<polyline fill="none" stroke="black" points="592,-453 810,-453 "/>
<text text-anchor="start" x="600" y="-441.8" font-family="Arial" font-size="8.00">+ Begin (GameTime gameTime)</text>
<text text-anchor="start" x="600" y="-431.8" font-family="Arial" font-size="8.00">+ End (GameTime gameTime)</text>
<text text-anchor="start" x="600" y="-421.8" font-family="Arial" font-size="8.00">+ RemapModel (Model model)</text>
<text text-anchor="start" x="600" y="-411.8" font-family="Arial" font-size="8.00">+ DrawModel (GameModel model, GameTime gameTime)</text>
<text text-anchor="start" x="600" y="-401.8" font-family="Arial" font-size="8.00">+ DrawLastFrame (GameTime gameTime)</text>
</g>
<!-- Box_RenderEffect -->
<g id="node2" class="node"><title>Box_RenderEffect</title>
<polygon fill="#fcfcda" stroke="black" points="551.5,-183 551.5,-357 850.5,-357 850.5,-183 551.5,-183"/>
<text text-anchor="middle" x="701" y="-345.8" font-family="Arial" font-size="8.00">RenderEffect</text>
<polyline fill="none" stroke="black" points="551.5,-339 850.5,-339 "/>
<text text-anchor="start" x="559.5" y="-327.8" font-family="Arial" font-size="8.00">&#45; background : Color</text>
<text text-anchor="start" x="559.5" y="-317.8" font-family="Arial" font-size="8.00">&#45; renderTarget : RenderTargetCache</text>
<text text-anchor="start" x="559.5" y="-307.8" font-family="Arial" font-size="8.00">&#45; spriteBatch : SpriteBatch</text>
<text text-anchor="start" x="559.5" y="-297.8" font-family="Arial" font-size="8.00"># screen : GameScreen</text>
<text text-anchor="start" x="559.5" y="-287.8" font-family="Arial" font-size="8.00">+ RenderTarget : RenderTarget2D</text>
<polyline fill="none" stroke="black" points="551.5,-281 850.5,-281 "/>
<text text-anchor="start" x="559.5" y="-269.8" font-family="Arial" font-size="8.00"># DrawRenderTarget (SpriteBatch spriteBatch, GameTime gameTime) abstract</text>
<text text-anchor="start" x="559.5" y="-259.8" font-family="Arial" font-size="8.00">+ RenderEffect (GameScreen screen)</text>
<text text-anchor="start" x="559.5" y="-249.8" font-family="Arial" font-size="8.00">+ DrawModel (GameModel model, GameTime gameTime) virtual</text>
<text text-anchor="start" x="559.5" y="-239.8" font-family="Arial" font-size="8.00">+ RemapModel (Model model) virtual</text>
<text text-anchor="start" x="559.5" y="-229.8" font-family="Arial" font-size="8.00">+ Begin (GameTime gameTime)</text>
<text text-anchor="start" x="559.5" y="-219.8" font-family="Arial" font-size="8.00"># ModifyBasicEffect (BasicEffect effect, GameModel model)</text>
<text text-anchor="start" x="559.5" y="-209.8" font-family="Arial" font-size="8.00">+ Begin (Color background, GameTime gameTime) virtual</text>
<text text-anchor="start" x="559.5" y="-199.8" font-family="Arial" font-size="8.00">+ End (GameTime gameTime) virtual</text>
<text text-anchor="start" x="559.5" y="-189.8" font-family="Arial" font-size="8.00">+ DrawLastFrame (GameTime gameTime)</text>
</g>
<!-- Box_IRenderEffect&#45;&gt;Box_RenderEffect -->
<g id="edge2" class="edge"><title>Box_IRenderEffect&#45;&gt;Box_RenderEffect</title>
<path fill="none" stroke="midnightblue" d="M701,-384.473C701,-375.697 701,-366.474 701,-357.233"/>
<polygon fill="none" stroke="midnightblue" points="697.5,-384.545 701,-394.545 704.5,-384.545 697.5,-384.545"/>
</g>
<!-- Box_BlurEffect -->
<g id="node3" class="node"><title>Box_BlurEffect</title>
<polygon fill="#fcfcda" stroke="black" points="0,-31 0,-115 266,-115 266,-31 0,-31"/>
<text text-anchor="middle" x="133" y="-103.8" font-family="Arial" font-size="8.00">BlurEffect</text>
<polyline fill="none" stroke="black" points="0,-97 266,-97 "/>
<text text-anchor="start" x="8" y="-85.8" font-family="Arial" font-size="8.00">&#45; testEffect : Effect static</text>
<polyline fill="none" stroke="black" points="0,-79 266,-79 "/>
<text text-anchor="start" x="8" y="-67.8" font-family="Arial" font-size="8.00">+ BlurEffect (GameScreen screen)</text>
<text text-anchor="start" x="8" y="-57.8" font-family="Arial" font-size="8.00"># DrawRenderTarget (SpriteBatch spriteBatch, GameTime gameTime)</text>
<text text-anchor="start" x="8" y="-47.8" font-family="Arial" font-size="8.00">+ Begin (Color background, GameTime gameTime)</text>
<text text-anchor="start" x="8" y="-37.8" font-family="Arial" font-size="8.00">+ End (GameTime gameTime)</text>
</g>
<!-- Box_RenderEffect&#45;&gt;Box_BlurEffect -->
<g id="edge4" class="edge"><title>Box_RenderEffect&#45;&gt;Box_BlurEffect</title>
<path fill="none" stroke="midnightblue" d="M541.486,-231.347C460.432,-209.763 361.128,-180.306 275,-146 252.853,-137.179 229.561,-126.046 208.392,-115.15"/>
<polygon fill="none" stroke="midnightblue" points="540.715,-234.764 551.278,-233.94 542.507,-227.997 540.715,-234.764"/>
</g>
<!-- Box_CelShadingEffect -->
<g id="node4" class="node"><title>Box_CelShadingEffect</title>
<polygon fill="#fcfcda" stroke="black" points="284,-1 284,-145 550,-145 550,-1 284,-1"/>
<text text-anchor="middle" x="417" y="-133.8" font-family="Arial" font-size="8.00">CelShadingEffect</text>
<polyline fill="none" stroke="black" points="284,-127 550,-127 "/>
<text text-anchor="start" x="292" y="-115.8" font-family="Arial" font-size="8.00">&#45; outlineShader : Effect</text>
<text text-anchor="start" x="292" y="-105.8" font-family="Arial" font-size="8.00">&#45; celMap : Texture2D</text>
<text text-anchor="start" x="292" y="-95.8" font-family="Arial" font-size="8.00">&#45; lightDirection : Vector4</text>
<text text-anchor="start" x="292" y="-85.8" font-family="Arial" font-size="8.00">&#45; outlineThickness : float</text>
<text text-anchor="start" x="292" y="-75.8" font-family="Arial" font-size="8.00">&#45; outlineThreshold : float</text>
<text text-anchor="start" x="292" y="-65.8" font-family="Arial" font-size="8.00">&#45; celShader : Effect</text>
<text text-anchor="start" x="292" y="-55.8" font-family="Arial" font-size="8.00">+ Color : Color</text>
<polyline fill="none" stroke="black" points="284,-49 550,-49 "/>
<text text-anchor="start" x="292" y="-37.8" font-family="Arial" font-size="8.00">+ CelShadingEffect (GameScreen screen)</text>
<text text-anchor="start" x="292" y="-27.8" font-family="Arial" font-size="8.00"># DrawRenderTarget (SpriteBatch spriteBatch, GameTime gameTime)</text>
<text text-anchor="start" x="292" y="-17.8" font-family="Arial" font-size="8.00">+ DrawModel (GameModel model, GameTime gameTime)</text>
<text text-anchor="start" x="292" y="-7.8" font-family="Arial" font-size="8.00">+ RemapModel (Model model)</text>
</g>
<!-- Box_RenderEffect&#45;&gt;Box_CelShadingEffect -->
<g id="edge6" class="edge"><title>Box_RenderEffect&#45;&gt;Box_CelShadingEffect</title>
<path fill="none" stroke="midnightblue" d="M566.687,-176.832C551.345,-166.19 535.883,-155.465 521.021,-145.155"/>
<polygon fill="none" stroke="midnightblue" points="564.982,-179.909 575.193,-182.733 568.971,-174.157 564.982,-179.909"/>
</g>
<!-- Box_FadeEffect -->
<g id="node5" class="node"><title>Box_FadeEffect</title>
<polygon fill="#fcfcda" stroke="black" points="568,-31 568,-115 834,-115 834,-31 568,-31"/>
<text text-anchor="middle" x="701" y="-103.8" font-family="Arial" font-size="8.00">FadeEffect</text>
<polyline fill="none" stroke="black" points="568,-97 834,-97 "/>
<text text-anchor="start" x="576" y="-85.8" font-family="Arial" font-size="8.00">&#45; alpha : float</text>
<text text-anchor="start" x="576" y="-75.8" font-family="Arial" font-size="8.00">&#45; lastFrame : RenderTarget2D</text>
<text text-anchor="start" x="576" y="-65.8" font-family="Arial" font-size="8.00">+ IsFinished : bool</text>
<polyline fill="none" stroke="black" points="568,-59 834,-59 "/>
<text text-anchor="start" x="576" y="-47.8" font-family="Arial" font-size="8.00"># DrawRenderTarget (SpriteBatch spriteBatch, GameTime gameTime)</text>
<text text-anchor="start" x="576" y="-37.8" font-family="Arial" font-size="8.00">+ FadeEffect (GameScreen screen, GameScreen oldState)</text>
</g>
<!-- Box_RenderEffect&#45;&gt;Box_FadeEffect -->
<g id="edge8" class="edge"><title>Box_RenderEffect&#45;&gt;Box_FadeEffect</title>
<path fill="none" stroke="midnightblue" d="M701,-172.521C701,-152.331 701,-132.083 701,-115.173"/>
<polygon fill="none" stroke="midnightblue" points="697.5,-172.733 701,-182.733 704.5,-172.733 697.5,-172.733"/>
</g>
<!-- Box_InstancingTest -->
<g id="node6" class="node"><title>Box_InstancingTest</title>
<polygon fill="#fcfcda" stroke="black" points="852,-21 852,-125 1118,-125 1118,-21 852,-21"/>
<text text-anchor="middle" x="985" y="-113.8" font-family="Arial" font-size="8.00">InstancingTest</text>
<polyline fill="none" stroke="black" points="852,-107 1118,-107 "/>
<text text-anchor="start" x="860" y="-95.8" font-family="Arial" font-size="8.00">&#45; ModelInstances : class</text>
<polyline fill="none" stroke="black" points="852,-89 1118,-89 "/>
<text text-anchor="start" x="860" y="-77.8" font-family="Arial" font-size="8.00">&#45; instanceHash () : Hashtable</text>
<text text-anchor="start" x="860" y="-67.8" font-family="Arial" font-size="8.00">+ Begin (Color background, GameTime gameTime)</text>
<text text-anchor="start" x="860" y="-57.8" font-family="Arial" font-size="8.00"># DrawRenderTarget (SpriteBatch spriteBatch, GameTime gameTime)</text>
<text text-anchor="start" x="860" y="-47.8" font-family="Arial" font-size="8.00">+ InstancingTest (GameScreen screen)</text>
<text text-anchor="start" x="860" y="-37.8" font-family="Arial" font-size="8.00">+ DrawModel (GameModel model, GameTime gameTime)</text>
<text text-anchor="start" x="860" y="-27.8" font-family="Arial" font-size="8.00">+ End (GameTime gameTime)</text>
</g>
<!-- Box_RenderEffect&#45;&gt;Box_InstancingTest -->
<g id="edge10" class="edge"><title>Box_RenderEffect&#45;&gt;Box_InstancingTest</title>
<path fill="none" stroke="midnightblue" d="M835.13,-176.959C860.815,-159.143 886.844,-141.087 909.843,-125.134"/>
<polygon fill="none" stroke="midnightblue" points="833.029,-174.157 826.807,-182.733 837.018,-179.909 833.029,-174.157"/>
</g>
<!-- Box_NoEffect -->
<g id="node7" class="node"><title>Box_NoEffect</title>
<polygon fill="#fcfcda" stroke="black" points="1136,-41 1136,-105 1402,-105 1402,-41 1136,-41"/>
<text text-anchor="middle" x="1269" y="-93.8" font-family="Arial" font-size="8.00">NoEffect</text>
<polyline fill="none" stroke="black" points="1136,-87 1402,-87 "/>
<text text-anchor="middle" x="1269" y="-75.8" font-family="Arial" font-size="8.00"> </text>
<polyline fill="none" stroke="black" points="1136,-69 1402,-69 "/>
<text text-anchor="start" x="1144" y="-57.8" font-family="Arial" font-size="8.00"># DrawRenderTarget (SpriteBatch spriteBatch, GameTime gameTime)</text>
<text text-anchor="start" x="1144" y="-47.8" font-family="Arial" font-size="8.00">+ NoEffect (GameScreen screen)</text>
</g>
<!-- Box_RenderEffect&#45;&gt;Box_NoEffect -->
<g id="edge12" class="edge"><title>Box_RenderEffect&#45;&gt;Box_NoEffect</title>
<path fill="none" stroke="midnightblue" d="M860.514,-231.347C941.568,-209.763 1040.87,-180.306 1127,-146 1156.1,-134.409 1187.18,-118.828 1212.82,-105.037"/>
<polygon fill="none" stroke="midnightblue" points="859.493,-227.997 850.722,-233.94 861.285,-234.764 859.493,-227.997"/>
</g>
</g>
</svg>
