<?xml version="1.0" encoding="UTF-8" standalone="no"?>
<!DOCTYPE svg PUBLIC "-//W3C//DTD SVG 1.1//EN"
 "http://www.w3.org/Graphics/SVG/1.1/DTD/svg11.dtd">
<!-- Generated by graphviz version 2.26.3 (20100126.1600)
 -->
<!-- Title: MenuItem Pages: 1 -->
<svg width="1275pt" height="1742pt"
 viewBox="0.00 0.00 306.00 418.00" xmlns="http://www.w3.org/2000/svg" xmlns:xlink="http://www.w3.org/1999/xlink">
<g id="graph1" class="graph" transform="scale(4.16667 4.16667) rotate(0) translate(4 414)">
<title>MenuItem</title>
<polygon fill="white" stroke="white" points="-4,5 -4,-414 303,-414 303,5 -4,5"/>
<!-- Box_NoEffect -->
<g id="node1" class="node"><title>Box_NoEffect</title>
<polygon fill="#fcfcda" stroke="black" points="16,-1 16,-65 282,-65 282,-1 16,-1"/>
<text text-anchor="middle" x="149" y="-53.8" font-family="Arial" font-size="8.00">NoEffect</text>
<polyline fill="none" stroke="black" points="16,-47 282,-47 "/>
<text text-anchor="middle" x="149" y="-35.8" font-family="Arial" font-size="8.00"> </text>
<polyline fill="none" stroke="black" points="16,-29 282,-29 "/>
<text text-anchor="start" x="24" y="-17.8" font-family="Arial" font-size="8.00"># DrawRenderTarget (SpriteBatch spriteBatch, GameTime gameTime)</text>
<text text-anchor="start" x="24" y="-7.8" font-family="Arial" font-size="8.00">+ NoEffect (GameScreen screen)</text>
</g>
<!-- Box_RenderEffect -->
<g id="node2" class="node"><title>Box_RenderEffect</title>
<polygon fill="#fcfcda" stroke="black" points="-0.5,-103 -0.5,-277 298.5,-277 298.5,-103 -0.5,-103"/>
<text text-anchor="middle" x="149" y="-265.8" font-family="Arial" font-size="8.00">RenderEffect</text>
<polyline fill="none" stroke="black" points="-0.5,-259 298.5,-259 "/>
<text text-anchor="start" x="7.5" y="-247.8" font-family="Arial" font-size="8.00">&#45; background : Color</text>
<text text-anchor="start" x="7.5" y="-237.8" font-family="Arial" font-size="8.00">&#45; renderTarget : RenderTargetCache</text>
<text text-anchor="start" x="7.5" y="-227.8" font-family="Arial" font-size="8.00">&#45; spriteBatch : SpriteBatch</text>
<text text-anchor="start" x="7.5" y="-217.8" font-family="Arial" font-size="8.00"># screen : GameScreen</text>
<text text-anchor="start" x="7.5" y="-207.8" font-family="Arial" font-size="8.00">+ RenderTarget : RenderTarget2D</text>
<polyline fill="none" stroke="black" points="-0.5,-201 298.5,-201 "/>
<text text-anchor="start" x="7.5" y="-189.8" font-family="Arial" font-size="8.00"># DrawRenderTarget (SpriteBatch spriteBatch, GameTime gameTime) abstract</text>
<text text-anchor="start" x="7.5" y="-179.8" font-family="Arial" font-size="8.00">+ RenderEffect (GameScreen screen)</text>
<text text-anchor="start" x="7.5" y="-169.8" font-family="Arial" font-size="8.00">+ DrawModel (GameModel model, GameTime gameTime) virtual</text>
<text text-anchor="start" x="7.5" y="-159.8" font-family="Arial" font-size="8.00">+ RemapModel (Model model) virtual</text>
<text text-anchor="start" x="7.5" y="-149.8" font-family="Arial" font-size="8.00">+ Begin (GameTime gameTime)</text>
<text text-anchor="start" x="7.5" y="-139.8" font-family="Arial" font-size="8.00"># ModifyBasicEffect (BasicEffect effect, GameModel model)</text>
<text text-anchor="start" x="7.5" y="-129.8" font-family="Arial" font-size="8.00">+ Begin (Color background, GameTime gameTime) virtual</text>
<text text-anchor="start" x="7.5" y="-119.8" font-family="Arial" font-size="8.00">+ End (GameTime gameTime) virtual</text>
<text text-anchor="start" x="7.5" y="-109.8" font-family="Arial" font-size="8.00">+ DrawLastFrame (GameTime gameTime)</text>
</g>
<!-- Box_RenderEffect&#45;&gt;Box_NoEffect -->
<g id="edge2" class="edge"><title>Box_RenderEffect&#45;&gt;Box_NoEffect</title>
<path fill="none" stroke="midnightblue" d="M149,-92.5007C149,-82.758 149,-73.4307 149,-65.1694"/>
<polygon fill="none" stroke="midnightblue" points="145.5,-92.7768 149,-102.777 152.5,-92.7768 145.5,-92.7768"/>
</g>
<!-- Box_IRenderEffect -->
<g id="node3" class="node"><title>Box_IRenderEffect</title>
<polygon fill="#dafcda" stroke="black" points="40,-315 40,-409 258,-409 258,-315 40,-315"/>
<text text-anchor="middle" x="149" y="-397.8" font-family="Arial" font-size="8.00">IRenderEffect</text>
<polyline fill="none" stroke="black" points="40,-391 258,-391 "/>
<text text-anchor="start" x="48" y="-379.8" font-family="Arial" font-size="8.00">+ RenderTarget : RenderTarget2D</text>
<polyline fill="none" stroke="black" points="40,-373 258,-373 "/>
<text text-anchor="start" x="48" y="-361.8" font-family="Arial" font-size="8.00">+ Begin (GameTime gameTime)</text>
<text text-anchor="start" x="48" y="-351.8" font-family="Arial" font-size="8.00">+ End (GameTime gameTime)</text>
<text text-anchor="start" x="48" y="-341.8" font-family="Arial" font-size="8.00">+ RemapModel (Model model)</text>
<text text-anchor="start" x="48" y="-331.8" font-family="Arial" font-size="8.00">+ DrawModel (GameModel model, GameTime gameTime)</text>
<text text-anchor="start" x="48" y="-321.8" font-family="Arial" font-size="8.00">+ DrawLastFrame (GameTime gameTime)</text>
</g>
<!-- Box_IRenderEffect&#45;&gt;Box_RenderEffect -->
<g id="edge4" class="edge"><title>Box_IRenderEffect&#45;&gt;Box_RenderEffect</title>
<path fill="none" stroke="midnightblue" d="M149,-304.473C149,-295.697 149,-286.474 149,-277.233"/>
<polygon fill="none" stroke="midnightblue" points="145.5,-304.545 149,-314.545 152.5,-304.545 145.5,-304.545"/>
</g>
</g>
</svg>
