<?xml version="1.0" encoding="UTF-8" standalone="no"?>
<!DOCTYPE svg PUBLIC "-//W3C//DTD SVG 1.1//EN"
 "http://www.w3.org/Graphics/SVG/1.1/DTD/svg11.dtd">
<!-- Generated by graphviz version 2.26.3 (20100126.1600)
 -->
<!-- Title: MenuItem Pages: 1 -->
<svg width="2521pt" height="648pt"
 viewBox="0.00 0.00 2520.85 648.00" xmlns="http://www.w3.org/2000/svg" xmlns:xlink="http://www.w3.org/1999/xlink">
<g id="graph1" class="graph" transform="scale(1 1) rotate(0) translate(4 644)">
<title>MenuItem</title>
<polygon fill="white" stroke="white" points="-4,5 -4,-644 2517.85,-644 2517.85,5 -4,5"/>
<!-- Box_IGameObject -->
<g id="node1" class="node"><title>Box_IGameObject</title>
<polygon fill="#dafcda" stroke="black" points="1264.35,-545 1264.35,-639 1443.35,-639 1443.35,-545 1264.35,-545"/>
<text text-anchor="middle" x="1353.85" y="-627.8" font-family="Arial" font-size="8.00">IGameObject</text>
<polyline fill="none" stroke="black" points="1264.35,-621 1443.35,-621 "/>
<text text-anchor="start" x="1272.35" y="-609.8" font-family="Arial" font-size="8.00">+ Info : GameObjectInfo</text>
<text text-anchor="start" x="1272.35" y="-599.8" font-family="Arial" font-size="8.00">+ World : World</text>
<polyline fill="none" stroke="black" points="1264.35,-593 1443.35,-593 "/>
<text text-anchor="start" x="1272.35" y="-581.8" font-family="Arial" font-size="8.00">+ Draw (GameTime time)</text>
<text text-anchor="start" x="1272.35" y="-571.8" font-family="Arial" font-size="8.00">+ Update (GameTime time)</text>
<text text-anchor="start" x="1272.35" y="-561.8" font-family="Arial" font-size="8.00">+ Intersects (Ray ray) : GameObjectDistance</text>
<text text-anchor="start" x="1272.35" y="-551.8" font-family="Arial" font-size="8.00">+ Center () : Vector3</text>
</g>
<!-- Box_EdgeMovement -->
<g id="node2" class="node"><title>Box_EdgeMovement</title>
<polygon fill="#fcfcda" stroke="black" points="68.8512,-238 68.8512,-482 410.851,-482 410.851,-238 68.8512,-238"/>
<text text-anchor="middle" x="239.851" y="-470.8" font-family="Arial" font-size="8.00">EdgeMovement</text>
<polyline fill="none" stroke="black" points="68.8512,-464 410.851,-464 "/>
<text text-anchor="start" x="76.8512" y="-452.8" font-family="Arial" font-size="8.00">&#45; shadowObjects : List&lt;ShadowGameObject&gt;</text>
<text text-anchor="start" x="76.8512" y="-442.8" font-family="Arial" font-size="8.00">+ World : World</text>
<text text-anchor="start" x="76.8512" y="-432.8" font-family="Arial" font-size="8.00">&#45; screen : GameScreen</text>
<text text-anchor="start" x="76.8512" y="-422.8" font-family="Arial" font-size="8.00">&#45; previousMousePosition : Vector3</text>
<text text-anchor="start" x="76.8512" y="-412.8" font-family="Arial" font-size="8.00">+ Info : GameObjectInfo</text>
<text text-anchor="start" x="76.8512" y="-402.8" font-family="Arial" font-size="8.00">+ Knot : Knot</text>
<polyline fill="none" stroke="black" points="68.8512,-396 410.851,-396 "/>
<text text-anchor="start" x="76.8512" y="-384.8" font-family="Arial" font-size="8.00">&#45; IEnumerable.GetEnumerator () : IEnumerator</text>
<text text-anchor="start" x="76.8512" y="-374.8" font-family="Arial" font-size="8.00">&#45; MovePipes (Vector3 currentMousePosition)</text>
<text text-anchor="start" x="76.8512" y="-364.8" font-family="Arial" font-size="8.00">&#45; MoveShadowPipes (Vector3 currentMousePosition)</text>
<text text-anchor="start" x="76.8512" y="-354.8" font-family="Arial" font-size="8.00">+ EdgeMovement (GameScreen screen, World world, GameObjectInfo info)</text>
<text text-anchor="start" x="76.8512" y="-344.8" font-family="Arial" font-size="8.00">+ Intersects (Ray ray) : GameObjectDistance</text>
<text text-anchor="start" x="76.8512" y="-334.8" font-family="Arial" font-size="8.00">+ GetEnumerator () : IEnumerator&lt;IGameObject&gt;</text>
<text text-anchor="start" x="76.8512" y="-324.8" font-family="Arial" font-size="8.00">+ Draw (GameTime time)</text>
<text text-anchor="start" x="76.8512" y="-314.8" font-family="Arial" font-size="8.00">+ Update (GameTime time)</text>
<text text-anchor="start" x="76.8512" y="-304.8" font-family="Arial" font-size="8.00">&#45; ComputeDirection (Vector3 currentMousePosition, out Direction direction, out float count)</text>
<text text-anchor="start" x="76.8512" y="-294.8" font-family="Arial" font-size="8.00">&#45; ComputeDirection (Vector3 currentMousePosition, out Direction direction, out int countInt)</text>
<text text-anchor="start" x="76.8512" y="-284.8" font-family="Arial" font-size="8.00">&#45; CreateShadowPipes ()</text>
<text text-anchor="start" x="76.8512" y="-274.8" font-family="Arial" font-size="8.00">&#45; MoveShadowPipes (Vector3 currentMousePosition, Vector3 direction3D)</text>
<text text-anchor="start" x="76.8512" y="-264.8" font-family="Arial" font-size="8.00">&#45; TryMovePipes (GameTime time)</text>
<text text-anchor="start" x="76.8512" y="-254.8" font-family="Arial" font-size="8.00">&#45; TrySelectObject (GameTime time)</text>
<text text-anchor="start" x="76.8512" y="-244.8" font-family="Arial" font-size="8.00">+ Center () : Vector3</text>
</g>
<!-- Box_IGameObject&#45;&gt;Box_EdgeMovement -->
<g id="edge2" class="edge"><title>Box_IGameObject&#45;&gt;Box_EdgeMovement</title>
<path fill="none" stroke="midnightblue" d="M1254.28,-556.318C1237.31,-551.402 1219.72,-547.014 1202.85,-544 1031.38,-513.354 582.433,-570.507 419.851,-508 402.575,-501.358 385.725,-492.363 369.7,-482.068"/>
<polygon fill="none" stroke="midnightblue" points="1253.61,-559.77 1264.19,-559.267 1255.61,-553.06 1253.61,-559.77"/>
</g>
<!-- Box_ShadowGameObject -->
<g id="node3" class="node"><title>Box_ShadowGameObject</title>
<polygon fill="#fcfcda" stroke="black" points="1562.35,-288 1562.35,-432 1807.35,-432 1807.35,-288 1562.35,-288"/>
<text text-anchor="middle" x="1684.85" y="-420.8" font-family="Arial" font-size="8.00">ShadowGameObject</text>
<polyline fill="none" stroke="black" points="1562.35,-414 1807.35,-414 "/>
<text text-anchor="start" x="1570.35" y="-402.8" font-family="Arial" font-size="8.00">&#45; Obj : IGameObject</text>
<text text-anchor="start" x="1570.35" y="-392.8" font-family="Arial" font-size="8.00">+ Info : GameObjectInfo</text>
<text text-anchor="start" x="1570.35" y="-382.8" font-family="Arial" font-size="8.00">+ OriginalPosition : Vector3</text>
<text text-anchor="start" x="1570.35" y="-372.8" font-family="Arial" font-size="8.00">+ World : World</text>
<text text-anchor="start" x="1570.35" y="-362.8" font-family="Arial" font-size="8.00"># screen : GameScreen</text>
<text text-anchor="start" x="1570.35" y="-352.8" font-family="Arial" font-size="8.00">+ ShadowPosition : Vector3</text>
<polyline fill="none" stroke="black" points="1562.35,-346 1807.35,-346 "/>
<text text-anchor="start" x="1570.35" y="-334.8" font-family="Arial" font-size="8.00">+ Update (GameTime gameTime) virtual</text>
<text text-anchor="start" x="1570.35" y="-324.8" font-family="Arial" font-size="8.00">+ Intersects (Ray ray) : GameObjectDistance</text>
<text text-anchor="start" x="1570.35" y="-314.8" font-family="Arial" font-size="8.00">+ ShadowGameObject (GameScreen screen, IGameObject obj)</text>
<text text-anchor="start" x="1570.35" y="-304.8" font-family="Arial" font-size="8.00">+ Center () : Vector3</text>
<text text-anchor="start" x="1570.35" y="-294.8" font-family="Arial" font-size="8.00">+ Draw (GameTime gameTime) virtual</text>
</g>
<!-- Box_IGameObject&#45;&gt;Box_ShadowGameObject -->
<g id="edge6" class="edge"><title>Box_IGameObject&#45;&gt;Box_ShadowGameObject</title>
<path fill="none" stroke="midnightblue" d="M1452.88,-560.551C1486.64,-547.268 1523.5,-529.761 1553.85,-508 1582.99,-487.109 1610.17,-458.612 1632.14,-432.2"/>
<polygon fill="none" stroke="midnightblue" points="1451.52,-557.324 1443.45,-564.186 1454.04,-563.856 1451.52,-557.324"/>
</g>
<!-- Box_GameModel -->
<g id="node5" class="node"><title>Box_GameModel</title>
<polygon fill="#fcfcda" stroke="black" points="1824.85,-213 1824.85,-507 2048.85,-507 2048.85,-213 1824.85,-213"/>
<text text-anchor="middle" x="1936.85" y="-495.8" font-family="Arial" font-size="8.00">GameModel</text>
<polyline fill="none" stroke="black" points="1824.85,-489 2048.85,-489 "/>
<text text-anchor="start" x="1832.85" y="-477.8" font-family="Arial" font-size="8.00">&#45; IGameObject.Info : GameObjectInfo</text>
<text text-anchor="start" x="1832.85" y="-467.8" font-family="Arial" font-size="8.00">&#45; _rotation : Angles3</text>
<text text-anchor="start" x="1832.85" y="-457.8" font-family="Arial" font-size="8.00">&#45; Bounds : BoundingSphere[]</text>
<text text-anchor="start" x="1832.85" y="-447.8" font-family="Arial" font-size="8.00">&#45; _bounds : BoundingSphere[]</text>
<text text-anchor="start" x="1832.85" y="-437.8" font-family="Arial" font-size="8.00">&#45; _worldMatrix : Matrix</text>
<text text-anchor="start" x="1832.85" y="-427.8" font-family="Arial" font-size="8.00">&#45; _position : Vector3</text>
<text text-anchor="start" x="1832.85" y="-417.8" font-family="Arial" font-size="8.00">&#45; _inFrustum : bool</text>
<text text-anchor="start" x="1832.85" y="-407.8" font-family="Arial" font-size="8.00"># InCameraFrustum : bool</text>
<text text-anchor="start" x="1832.85" y="-397.8" font-family="Arial" font-size="8.00">+ BaseColor : Color</text>
<text text-anchor="start" x="1832.85" y="-387.8" font-family="Arial" font-size="8.00">+ HighlightColor : Color</text>
<text text-anchor="start" x="1832.85" y="-377.8" font-family="Arial" font-size="8.00">+ Info : GameModelInfo</text>
<text text-anchor="start" x="1832.85" y="-367.8" font-family="Arial" font-size="8.00">+ WorldMatrix : Matrix</text>
<text text-anchor="start" x="1832.85" y="-357.8" font-family="Arial" font-size="8.00">+ World : World</text>
<text text-anchor="start" x="1832.85" y="-347.8" font-family="Arial" font-size="8.00">+ Alpha : float</text>
<text text-anchor="start" x="1832.85" y="-337.8" font-family="Arial" font-size="8.00">+ HighlightIntensity : float</text>
<text text-anchor="start" x="1832.85" y="-327.8" font-family="Arial" font-size="8.00">&#45; _scale : Vector3</text>
<text text-anchor="start" x="1832.85" y="-317.8" font-family="Arial" font-size="8.00">&#45; _world : World</text>
<text text-anchor="start" x="1832.85" y="-307.8" font-family="Arial" font-size="8.00"># screen : GameScreen</text>
<text text-anchor="start" x="1832.85" y="-297.8" font-family="Arial" font-size="8.00">+ Model : Model virtual</text>
<polyline fill="none" stroke="black" points="1824.85,-291 2048.85,-291 "/>
<text text-anchor="start" x="1832.85" y="-279.8" font-family="Arial" font-size="8.00">&#45; OnViewChanged ()</text>
<text text-anchor="start" x="1832.85" y="-269.8" font-family="Arial" font-size="8.00">&#45; UpdatePrecomputed ()</text>
<text text-anchor="start" x="1832.85" y="-259.8" font-family="Arial" font-size="8.00">+ GameModel (GameScreen screen, GameModelInfo info)</text>
<text text-anchor="start" x="1832.85" y="-249.8" font-family="Arial" font-size="8.00">+ Draw (GameTime time) virtual</text>
<text text-anchor="start" x="1832.85" y="-239.8" font-family="Arial" font-size="8.00">+ Center () : Vector3</text>
<text text-anchor="start" x="1832.85" y="-229.8" font-family="Arial" font-size="8.00">+ Intersects (Ray ray) : GameObjectDistance virtual</text>
<text text-anchor="start" x="1832.85" y="-219.8" font-family="Arial" font-size="8.00">+ Update (GameTime time) virtual</text>
</g>
<!-- Box_IGameObject&#45;&gt;Box_GameModel -->
<g id="edge10" class="edge"><title>Box_IGameObject&#45;&gt;Box_GameModel</title>
<path fill="none" stroke="midnightblue" d="M1453.43,-582.022C1570.33,-568.916 1755.88,-543.349 1815.85,-508 1818.85,-506.23 1821.81,-504.357 1824.73,-502.391"/>
<polygon fill="none" stroke="midnightblue" points="1452.95,-578.555 1443.39,-583.136 1453.72,-585.512 1452.95,-578.555"/>
</g>
<!-- Box_ModelRenderer -->
<g id="node10" class="node"><title>Box_ModelRenderer</title>
<polygon fill="#fcfcda" stroke="black" points="428.351,-228 428.351,-492 667.351,-492 667.351,-228 428.351,-228"/>
<text text-anchor="middle" x="547.851" y="-480.8" font-family="Arial" font-size="8.00">ModelRenderer</text>
<polyline fill="none" stroke="black" points="428.351,-474 667.351,-474 "/>
<text text-anchor="start" x="436.351" y="-462.8" font-family="Arial" font-size="8.00">&#45; arrows : List&lt;ArrowModel&gt;</text>
<text text-anchor="start" x="436.351" y="-452.8" font-family="Arial" font-size="8.00">&#45; nodes : List&lt;NodeModel&gt;</text>
<text text-anchor="start" x="436.351" y="-442.8" font-family="Arial" font-size="8.00">&#45; pipes : List&lt;PipeModel&gt;</text>
<text text-anchor="start" x="436.351" y="-432.8" font-family="Arial" font-size="8.00">&#45; arrowFactory : ModelFactory</text>
<text text-anchor="start" x="436.351" y="-422.8" font-family="Arial" font-size="8.00">&#45; nodeFactory : ModelFactory</text>
<text text-anchor="start" x="436.351" y="-412.8" font-family="Arial" font-size="8.00">&#45; pipeFactory : ModelFactory</text>
<text text-anchor="start" x="436.351" y="-402.8" font-family="Arial" font-size="8.00">+ Info : GameObjectInfo</text>
<text text-anchor="start" x="436.351" y="-392.8" font-family="Arial" font-size="8.00">&#45; screen : GameScreen</text>
<text text-anchor="start" x="436.351" y="-382.8" font-family="Arial" font-size="8.00">&#45; knot : Knot</text>
<text text-anchor="start" x="436.351" y="-372.8" font-family="Arial" font-size="8.00">+ Knot : Knot</text>
<text text-anchor="start" x="436.351" y="-362.8" font-family="Arial" font-size="8.00">+ World : World</text>
<polyline fill="none" stroke="black" points="428.351,-356 667.351,-356 "/>
<text text-anchor="start" x="436.351" y="-344.8" font-family="Arial" font-size="8.00">&#45; nodeMap () : NodeMap</text>
<text text-anchor="start" x="436.351" y="-334.8" font-family="Arial" font-size="8.00">&#45; IEnumerable.GetEnumerator () : IEnumerator</text>
<text text-anchor="start" x="436.351" y="-324.8" font-family="Arial" font-size="8.00">&#45; CreateArrow (Edge edge)</text>
<text text-anchor="start" x="436.351" y="-314.8" font-family="Arial" font-size="8.00">+ Draw (GameTime time)</text>
<text text-anchor="start" x="436.351" y="-304.8" font-family="Arial" font-size="8.00">+ OnEdgesChanged ()</text>
<text text-anchor="start" x="436.351" y="-294.8" font-family="Arial" font-size="8.00">+ Update (GameTime time)</text>
<text text-anchor="start" x="436.351" y="-284.8" font-family="Arial" font-size="8.00">&#45; CreateArrows (IList&lt;Edge&gt; selectedEdges)</text>
<text text-anchor="start" x="436.351" y="-274.8" font-family="Arial" font-size="8.00">+ Intersects (Ray ray) : GameObjectDistance</text>
<text text-anchor="start" x="436.351" y="-264.8" font-family="Arial" font-size="8.00">+ GetEnumerator () : IEnumerator&lt;IGameObject&gt;</text>
<text text-anchor="start" x="436.351" y="-254.8" font-family="Arial" font-size="8.00">+ ModelRenderer (GameScreen screen, GameObjectInfo info)</text>
<text text-anchor="start" x="436.351" y="-244.8" font-family="Arial" font-size="8.00">+ Center () : Vector3</text>
<text text-anchor="start" x="436.351" y="-234.8" font-family="Arial" font-size="8.00">+ CreateArrows (IEnumerable&lt;Edge&gt; selectedEdges)</text>
</g>
<!-- Box_IGameObject&#45;&gt;Box_ModelRenderer -->
<g id="edge20" class="edge"><title>Box_IGameObject&#45;&gt;Box_ModelRenderer</title>
<path fill="none" stroke="midnightblue" d="M1254.22,-556.64C1237.26,-551.686 1219.68,-547.202 1202.85,-544 1087.54,-522.062 780.878,-560.425 675.851,-508 666.885,-503.524 658.285,-498.115 650.087,-492.046"/>
<polygon fill="none" stroke="midnightblue" points="1253.55,-560.091 1264.13,-559.605 1255.55,-553.385 1253.55,-560.091"/>
</g>
<!-- Box_MovableGameObject -->
<g id="node11" class="node"><title>Box_MovableGameObject</title>
<polygon fill="#fcfcda" stroke="black" points="2066.35,-283 2066.35,-437 2317.35,-437 2317.35,-283 2066.35,-283"/>
<text text-anchor="middle" x="2191.85" y="-425.8" font-family="Arial" font-size="8.00">MovableGameObject</text>
<polyline fill="none" stroke="black" points="2066.35,-419 2317.35,-419 "/>
<text text-anchor="start" x="2074.35" y="-407.8" font-family="Arial" font-size="8.00">&#45; Obj : IGameObject</text>
<text text-anchor="start" x="2074.35" y="-397.8" font-family="Arial" font-size="8.00">+ World : World</text>
<text text-anchor="start" x="2074.35" y="-387.8" font-family="Arial" font-size="8.00">&#45; screen : GameScreen</text>
<text text-anchor="start" x="2074.35" y="-377.8" font-family="Arial" font-size="8.00">+ Info : GameObjectInfo</text>
<polyline fill="none" stroke="black" points="2066.35,-371 2317.35,-371 "/>
<text text-anchor="start" x="2074.35" y="-359.8" font-family="Arial" font-size="8.00"># CurrentGroundPlane () : Plane</text>
<text text-anchor="start" x="2074.35" y="-349.8" font-family="Arial" font-size="8.00">+ MovableGameObject (GameScreen screen, IGameObject obj)</text>
<text text-anchor="start" x="2074.35" y="-339.8" font-family="Arial" font-size="8.00">+ Update (GameTime time) virtual</text>
<text text-anchor="start" x="2074.35" y="-329.8" font-family="Arial" font-size="8.00"># CurrentMouseRay () : Ray</text>
<text text-anchor="start" x="2074.35" y="-319.8" font-family="Arial" font-size="8.00"># CurrentMousePosition (Ray ray, Plane groundPlane) : Vector3?</text>
<text text-anchor="start" x="2074.35" y="-309.8" font-family="Arial" font-size="8.00">+ Intersects (Ray ray) : GameObjectDistance</text>
<text text-anchor="start" x="2074.35" y="-299.8" font-family="Arial" font-size="8.00">+ Center () : Vector3</text>
<text text-anchor="start" x="2074.35" y="-289.8" font-family="Arial" font-size="8.00">+ Draw (GameTime time)</text>
</g>
<!-- Box_IGameObject&#45;&gt;Box_MovableGameObject -->
<g id="edge24" class="edge"><title>Box_IGameObject&#45;&gt;Box_MovableGameObject</title>
<path fill="none" stroke="midnightblue" d="M1453.64,-588.655C1622.15,-581.603 1954.84,-561.222 2057.85,-508 2089.88,-491.454 2118,-463.925 2140.1,-437.069"/>
<polygon fill="none" stroke="midnightblue" points="1453.37,-585.163 1443.52,-589.071 1453.66,-592.157 1453.37,-585.163"/>
</g>
<!-- Box_TexturedRectangle -->
<g id="node12" class="node"><title>Box_TexturedRectangle</title>
<polygon fill="#fcfcda" stroke="black" points="1270.35,-233 1270.35,-487 1545.35,-487 1545.35,-233 1270.35,-233"/>
<text text-anchor="middle" x="1407.85" y="-475.8" font-family="Arial" font-size="8.00">TexturedRectangle</text>
<polyline fill="none" stroke="black" points="1270.35,-469 1545.35,-469 "/>
<text text-anchor="start" x="1278.35" y="-457.8" font-family="Arial" font-size="8.00">&#45; IGameObject.Info : GameObjectInfo</text>
<text text-anchor="start" x="1278.35" y="-447.8" font-family="Arial" font-size="8.00">&#45; basicEffect : BasicEffect</text>
<text text-anchor="start" x="1278.35" y="-437.8" font-family="Arial" font-size="8.00">&#45; texture : Texture2D</text>
<text text-anchor="start" x="1278.35" y="-427.8" font-family="Arial" font-size="8.00">&#45; LowerLeft : Vector3</text>
<text text-anchor="start" x="1278.35" y="-417.8" font-family="Arial" font-size="8.00">&#45; LowerRight : Vector3</text>
<text text-anchor="start" x="1278.35" y="-407.8" font-family="Arial" font-size="8.00">&#45; Normal : Vector3</text>
<text text-anchor="start" x="1278.35" y="-397.8" font-family="Arial" font-size="8.00">&#45; UpperRight : Vector3</text>
<text text-anchor="start" x="1278.35" y="-387.8" font-family="Arial" font-size="8.00">&#45; Vertices : VertexPositionNormalTexture[]</text>
<text text-anchor="start" x="1278.35" y="-377.8" font-family="Arial" font-size="8.00">&#45; Indexes : short[]</text>
<text text-anchor="start" x="1278.35" y="-367.8" font-family="Arial" font-size="8.00">+ Info : TexturedRectangleInfo</text>
<text text-anchor="start" x="1278.35" y="-357.8" font-family="Arial" font-size="8.00">&#45; UpperLeft : Vector3</text>
<text text-anchor="start" x="1278.35" y="-347.8" font-family="Arial" font-size="8.00"># screen : GameScreen</text>
<text text-anchor="start" x="1278.35" y="-337.8" font-family="Arial" font-size="8.00">+ World : World</text>
<polyline fill="none" stroke="black" points="1270.35,-331 1545.35,-331 "/>
<text text-anchor="start" x="1278.35" y="-319.8" font-family="Arial" font-size="8.00">&#45; Length () : Vector3</text>
<text text-anchor="start" x="1278.35" y="-309.8" font-family="Arial" font-size="8.00">&#45; FillVertices ()</text>
<text text-anchor="start" x="1278.35" y="-299.8" font-family="Arial" font-size="8.00">+ Intersects (Ray ray) : GameObjectDistance</text>
<text text-anchor="start" x="1278.35" y="-289.8" font-family="Arial" font-size="8.00">+ TexturedRectangle (GameScreen screen, TexturedRectangleInfo info)</text>
<text text-anchor="start" x="1278.35" y="-279.8" font-family="Arial" font-size="8.00">+ Draw (GameTime time)</text>
<text text-anchor="start" x="1278.35" y="-269.8" font-family="Arial" font-size="8.00"># SetPosition (Vector3 position)</text>
<text text-anchor="start" x="1278.35" y="-259.8" font-family="Arial" font-size="8.00">+ Bounds () : BoundingBox[]</text>
<text text-anchor="start" x="1278.35" y="-249.8" font-family="Arial" font-size="8.00">+ Center () : Vector3</text>
<text text-anchor="start" x="1278.35" y="-239.8" font-family="Arial" font-size="8.00">+ Update (GameTime time)</text>
</g>
<!-- Box_IGameObject&#45;&gt;Box_TexturedRectangle -->
<g id="edge26" class="edge"><title>Box_IGameObject&#45;&gt;Box_TexturedRectangle</title>
<path fill="none" stroke="midnightblue" d="M1367.14,-534.926C1370.54,-520.286 1374.35,-503.942 1378.22,-487.284"/>
<polygon fill="none" stroke="midnightblue" points="1363.7,-534.239 1364.84,-544.772 1370.52,-535.826 1363.7,-534.239"/>
</g>
<!-- Box_KnotRenderer -->
<g id="node13" class="node"><title>Box_KnotRenderer</title>
<polygon fill="#fcfcda" stroke="black" points="1042.35,-293 1042.35,-427 1253.35,-427 1253.35,-293 1042.35,-293"/>
<text text-anchor="middle" x="1147.85" y="-415.8" font-family="Arial" font-size="8.00">KnotRenderer</text>
<polyline fill="none" stroke="black" points="1042.35,-409 1253.35,-409 "/>
<text text-anchor="start" x="1050.35" y="-397.8" font-family="Arial" font-size="8.00">+ World : World abstract</text>
<text text-anchor="start" x="1050.35" y="-387.8" font-family="Arial" font-size="8.00"># screen : GameScreen</text>
<text text-anchor="start" x="1050.35" y="-377.8" font-family="Arial" font-size="8.00">+ Info : GameObjectInfo abstract</text>
<polyline fill="none" stroke="black" points="1042.35,-371 1253.35,-371 "/>
<text text-anchor="start" x="1050.35" y="-359.8" font-family="Arial" font-size="8.00"># nodeMap () : NodeMap</text>
<text text-anchor="start" x="1050.35" y="-349.8" font-family="Arial" font-size="8.00">+ Intersects (Ray ray) : GameObjectDistance abstract</text>
<text text-anchor="start" x="1050.35" y="-339.8" font-family="Arial" font-size="8.00">+ Center () : Vector3 abstract</text>
<text text-anchor="start" x="1050.35" y="-329.8" font-family="Arial" font-size="8.00">+ Draw (GameTime gameTime) abstract</text>
<text text-anchor="start" x="1050.35" y="-319.8" font-family="Arial" font-size="8.00">+ KnotRenderer (GameScreen screen)</text>
<text text-anchor="start" x="1050.35" y="-309.8" font-family="Arial" font-size="8.00">+ Update (GameTime gameTime) abstract</text>
<text text-anchor="start" x="1050.35" y="-299.8" font-family="Arial" font-size="8.00">+ OnEdgesChanged (EdgeList edges) virtual</text>
</g>
<!-- Box_IGameObject&#45;&gt;Box_KnotRenderer -->
<g id="edge30" class="edge"><title>Box_IGameObject&#45;&gt;Box_KnotRenderer</title>
<path fill="none" stroke="midnightblue" d="M1291.44,-537.751C1281.25,-528.134 1271.04,-517.992 1261.85,-508 1238.69,-482.815 1215.26,-453.252 1195.71,-427.197"/>
<polygon fill="none" stroke="midnightblue" points="1289.13,-540.388 1298.83,-544.652 1293.91,-535.27 1289.13,-540.388"/>
</g>
<!-- Box_PipeMovement -->
<g id="node16" class="node"><title>Box_PipeMovement</title>
<polygon fill="#fcfcda" stroke="black" points="684.851,-233 684.851,-487 1024.85,-487 1024.85,-233 684.851,-233"/>
<text text-anchor="middle" x="854.851" y="-475.8" font-family="Arial" font-size="8.00">PipeMovement</text>
<polyline fill="none" stroke="black" points="684.851,-469 1024.85,-469 "/>
<text text-anchor="start" x="692.851" y="-457.8" font-family="Arial" font-size="8.00">&#45; shadowObjects : List&lt;ShadowGameObject&gt;</text>
<text text-anchor="start" x="692.851" y="-447.8" font-family="Arial" font-size="8.00">+ World : World</text>
<text text-anchor="start" x="692.851" y="-437.8" font-family="Arial" font-size="8.00">&#45; screen : GameScreen</text>
<text text-anchor="start" x="692.851" y="-427.8" font-family="Arial" font-size="8.00">&#45; previousMousePosition : Vector3</text>
<text text-anchor="start" x="692.851" y="-417.8" font-family="Arial" font-size="8.00">+ Info : GameObjectInfo</text>
<text text-anchor="start" x="692.851" y="-407.8" font-family="Arial" font-size="8.00">+ Knot : Knot</text>
<polyline fill="none" stroke="black" points="684.851,-401 1024.85,-401 "/>
<text text-anchor="start" x="692.851" y="-389.8" font-family="Arial" font-size="8.00">&#45; knownEdgeLists () : HashSet&lt;EdgeList&gt;</text>
<text text-anchor="start" x="692.851" y="-379.8" font-family="Arial" font-size="8.00">&#45; IEnumerable.GetEnumerator () : IEnumerator</text>
<text text-anchor="start" x="692.851" y="-369.8" font-family="Arial" font-size="8.00">&#45; MovePipes (Vector3 currentMousePosition)</text>
<text text-anchor="start" x="692.851" y="-359.8" font-family="Arial" font-size="8.00">&#45; MoveShadowPipes (Vector3 currentMousePosition)</text>
<text text-anchor="start" x="692.851" y="-349.8" font-family="Arial" font-size="8.00">+ Intersects (Ray ray) : GameObjectDistance</text>
<text text-anchor="start" x="692.851" y="-339.8" font-family="Arial" font-size="8.00">+ GetEnumerator () : IEnumerator&lt;IGameObject&gt;</text>
<text text-anchor="start" x="692.851" y="-329.8" font-family="Arial" font-size="8.00">+ PipeMovement (GameScreen screen, World world, GameObjectInfo info)</text>
<text text-anchor="start" x="692.851" y="-319.8" font-family="Arial" font-size="8.00">+ Draw (GameTime gameTime)</text>
<text text-anchor="start" x="692.851" y="-309.8" font-family="Arial" font-size="8.00">&#45; ComputeDirection (Vector3 currentMousePosition, out Vector3 direction, out float count)</text>
<text text-anchor="start" x="692.851" y="-299.8" font-family="Arial" font-size="8.00">&#45; ComputeDirection (Vector3 currentMousePosition, out Vector3 direction, out int countInt)</text>
<text text-anchor="start" x="692.851" y="-289.8" font-family="Arial" font-size="8.00">&#45; CreateShadowPipes ()</text>
<text text-anchor="start" x="692.851" y="-279.8" font-family="Arial" font-size="8.00">&#45; MoveShadowPipes (Vector3 currentMousePosition, Vector3 direction3D)</text>
<text text-anchor="start" x="692.851" y="-269.8" font-family="Arial" font-size="8.00">&#45; TryMovePipes (GameTime gameTime)</text>
<text text-anchor="start" x="692.851" y="-259.8" font-family="Arial" font-size="8.00">&#45; TrySelectObject (GameTime gameTime)</text>
<text text-anchor="start" x="692.851" y="-249.8" font-family="Arial" font-size="8.00">+ Center () : Vector3</text>
<text text-anchor="start" x="692.851" y="-239.8" font-family="Arial" font-size="8.00">+ Update (GameTime gameTime)</text>
</g>
<!-- Box_IGameObject&#45;&gt;Box_PipeMovement -->
<g id="edge38" class="edge"><title>Box_IGameObject&#45;&gt;Box_PipeMovement</title>
<path fill="none" stroke="midnightblue" d="M1254.1,-558.777C1237.09,-553.545 1219.52,-548.414 1202.85,-544 1128.61,-524.344 1102.99,-541.43 1033.85,-508 1021.33,-501.944 1008.93,-494.833 996.847,-487.06"/>
<polygon fill="none" stroke="midnightblue" points="1253.46,-562.242 1264.05,-561.865 1255.54,-555.557 1253.46,-562.242"/>
</g>
<!-- Box_ShadowGameModel -->
<g id="node4" class="node"><title>Box_ShadowGameModel</title>
<polygon fill="#fcfcda" stroke="black" points="1312.35,-46 1312.35,-130 1561.35,-130 1561.35,-46 1312.35,-46"/>
<text text-anchor="middle" x="1436.85" y="-118.8" font-family="Arial" font-size="8.00">ShadowGameModel</text>
<polyline fill="none" stroke="black" points="1312.35,-112 1561.35,-112 "/>
<text text-anchor="start" x="1320.35" y="-100.8" font-family="Arial" font-size="8.00">+ ShadowColor : Color</text>
<text text-anchor="start" x="1320.35" y="-90.8" font-family="Arial" font-size="8.00">&#45; Model : GameModel</text>
<text text-anchor="start" x="1320.35" y="-80.8" font-family="Arial" font-size="8.00">+ ShadowAlpha : float</text>
<polyline fill="none" stroke="black" points="1312.35,-74 1561.35,-74 "/>
<text text-anchor="start" x="1320.35" y="-62.8" font-family="Arial" font-size="8.00">+ ShadowGameModel (GameScreen screen, GameModel model)</text>
<text text-anchor="start" x="1320.35" y="-52.8" font-family="Arial" font-size="8.00">+ Draw (GameTime gameTime)</text>
</g>
<!-- Box_ShadowGameObject&#45;&gt;Box_ShadowGameModel -->
<g id="edge8" class="edge"><title>Box_ShadowGameObject&#45;&gt;Box_ShadowGameModel</title>
<path fill="none" stroke="midnightblue" d="M1614.83,-279.951C1595.24,-257.812 1573.83,-233.865 1553.85,-212 1528.69,-184.471 1499.96,-154.002 1477.26,-130.156"/>
<polygon fill="none" stroke="midnightblue" points="1612.43,-282.525 1621.68,-287.7 1617.68,-277.889 1612.43,-282.525"/>
</g>
<!-- Box_ArrowModel -->
<g id="node6" class="node"><title>Box_ArrowModel</title>
<polygon fill="#fcfcda" stroke="black" points="1578.85,-46 1578.85,-130 1808.85,-130 1808.85,-46 1578.85,-46"/>
<text text-anchor="middle" x="1693.85" y="-118.8" font-family="Arial" font-size="8.00">ArrowModel</text>
<polyline fill="none" stroke="black" points="1578.85,-112 1808.85,-112 "/>
<text text-anchor="start" x="1586.85" y="-100.8" font-family="Arial" font-size="8.00">&#45; Bounds : BoundingSphere[]</text>
<text text-anchor="start" x="1586.85" y="-90.8" font-family="Arial" font-size="8.00">+ Info : ArrowModelInfo</text>
<polyline fill="none" stroke="black" points="1578.85,-84 1808.85,-84 "/>
<text text-anchor="start" x="1586.85" y="-72.8" font-family="Arial" font-size="8.00">+ ArrowModel (GameScreen screen, ArrowModelInfo info)</text>
<text text-anchor="start" x="1586.85" y="-62.8" font-family="Arial" font-size="8.00">+ Intersects (Ray ray) : GameObjectDistance</text>
<text text-anchor="start" x="1586.85" y="-52.8" font-family="Arial" font-size="8.00">+ Draw (GameTime time)</text>
</g>
<!-- Box_GameModel&#45;&gt;Box_ArrowModel -->
<g id="edge12" class="edge"><title>Box_GameModel&#45;&gt;Box_ArrowModel</title>
<path fill="none" stroke="midnightblue" d="M1817.74,-214.115C1817.11,-213.408 1816.48,-212.702 1815.85,-212 1790.64,-183.902 1760.96,-153.68 1737.19,-130.107"/>
<polygon fill="none" stroke="midnightblue" points="1815.29,-216.625 1824.54,-221.787 1820.53,-211.981 1815.29,-216.625"/>
</g>
<!-- Box_NodeModel -->
<g id="node7" class="node"><title>Box_NodeModel</title>
<polygon fill="#fcfcda" stroke="black" points="1826.85,-56 1826.85,-120 2046.85,-120 2046.85,-56 1826.85,-56"/>
<text text-anchor="middle" x="1936.85" y="-108.8" font-family="Arial" font-size="8.00">NodeModel</text>
<polyline fill="none" stroke="black" points="1826.85,-102 2046.85,-102 "/>
<text text-anchor="start" x="1834.85" y="-90.8" font-family="Arial" font-size="8.00">+ Info : NodeModelInfo</text>
<polyline fill="none" stroke="black" points="1826.85,-84 2046.85,-84 "/>
<text text-anchor="start" x="1834.85" y="-72.8" font-family="Arial" font-size="8.00">+ NodeModel (GameScreen screen, NodeModelInfo info)</text>
<text text-anchor="start" x="1834.85" y="-62.8" font-family="Arial" font-size="8.00">+ Draw (GameTime time)</text>
</g>
<!-- Box_GameModel&#45;&gt;Box_NodeModel -->
<g id="edge14" class="edge"><title>Box_GameModel&#45;&gt;Box_NodeModel</title>
<path fill="none" stroke="midnightblue" d="M1936.85,-202.624C1936.85,-171.254 1936.85,-141.44 1936.85,-120.085"/>
<polygon fill="none" stroke="midnightblue" points="1933.35,-202.855 1936.85,-212.855 1940.35,-202.855 1933.35,-202.855"/>
</g>
<!-- Box_PipeModel -->
<g id="node8" class="node"><title>Box_PipeModel</title>
<polygon fill="#fcfcda" stroke="black" points="2064.85,-41 2064.85,-135 2276.85,-135 2276.85,-41 2064.85,-41"/>
<text text-anchor="middle" x="2170.85" y="-123.8" font-family="Arial" font-size="8.00">PipeModel</text>
<polyline fill="none" stroke="black" points="2064.85,-117 2276.85,-117 "/>
<text text-anchor="start" x="2072.85" y="-105.8" font-family="Arial" font-size="8.00">&#45; Bounds : BoundingSphere[]</text>
<text text-anchor="start" x="2072.85" y="-95.8" font-family="Arial" font-size="8.00">+ Info : PipeModelInfo</text>
<polyline fill="none" stroke="black" points="2064.85,-89 2276.85,-89 "/>
<text text-anchor="start" x="2072.85" y="-77.8" font-family="Arial" font-size="8.00">+ OnDataChange () : Action</text>
<text text-anchor="start" x="2072.85" y="-67.8" font-family="Arial" font-size="8.00">+ PipeModel (GameScreen screen, PipeModelInfo info)</text>
<text text-anchor="start" x="2072.85" y="-57.8" font-family="Arial" font-size="8.00">+ Intersects (Ray ray) : GameObjectDistance</text>
<text text-anchor="start" x="2072.85" y="-47.8" font-family="Arial" font-size="8.00">+ Draw (GameTime time)</text>
</g>
<!-- Box_GameModel&#45;&gt;Box_PipeModel -->
<g id="edge16" class="edge"><title>Box_GameModel&#45;&gt;Box_PipeModel</title>
<path fill="none" stroke="midnightblue" d="M2055.65,-214.553C2056.39,-213.699 2057.12,-212.848 2057.85,-212 2080.12,-186.206 2105.64,-158.088 2126.78,-135.159"/>
<polygon fill="none" stroke="midnightblue" points="2052.84,-212.45 2049,-222.321 2058.16,-217.004 2052.84,-212.45"/>
</g>
<!-- Box_TestModel -->
<g id="node9" class="node"><title>Box_TestModel</title>
<polygon fill="#fcfcda" stroke="black" points="2294.85,-56 2294.85,-120 2512.85,-120 2512.85,-56 2294.85,-56"/>
<text text-anchor="middle" x="2403.85" y="-108.8" font-family="Arial" font-size="8.00">TestModel</text>
<polyline fill="none" stroke="black" points="2294.85,-102 2512.85,-102 "/>
<text text-anchor="middle" x="2403.85" y="-90.8" font-family="Arial" font-size="8.00"> </text>
<polyline fill="none" stroke="black" points="2294.85,-84 2512.85,-84 "/>
<text text-anchor="start" x="2302.85" y="-72.8" font-family="Arial" font-size="8.00">+ Update (GameTime time)</text>
<text text-anchor="start" x="2302.85" y="-62.8" font-family="Arial" font-size="8.00">+ TestModel (GameScreen screen, GameModelInfo info)</text>
</g>
<!-- Box_GameModel&#45;&gt;Box_TestModel -->
<g id="edge18" class="edge"><title>Box_GameModel&#45;&gt;Box_TestModel</title>
<path fill="none" stroke="midnightblue" d="M2057.57,-212.163C2057.66,-212.109 2057.76,-212.054 2057.85,-212 2146.83,-160.935 2191.31,-215.826 2285.85,-176 2317.17,-162.805 2347.8,-139.568 2370,-120.285"/>
<polygon fill="none" stroke="midnightblue" points="2055.58,-209.276 2048.92,-217.512 2059.26,-215.229 2055.58,-209.276"/>
</g>
<!-- Box_LineRenderer -->
<g id="node14" class="node"><title>Box_LineRenderer</title>
<polygon fill="#fcfcda" stroke="black" points="1031.35,-16 1031.35,-160 1264.35,-160 1264.35,-16 1031.35,-16"/>
<text text-anchor="middle" x="1147.85" y="-148.8" font-family="Arial" font-size="8.00">LineRenderer</text>
<polyline fill="none" stroke="black" points="1031.35,-142 1264.35,-142 "/>
<text text-anchor="start" x="1039.35" y="-130.8" font-family="Arial" font-size="8.00">&#45; edges : EdgeList</text>
<text text-anchor="start" x="1039.35" y="-120.8" font-family="Arial" font-size="8.00">&#45; basicEffect : BasicEffect</text>
<text text-anchor="start" x="1039.35" y="-110.8" font-family="Arial" font-size="8.00">+ Info : GameObjectInfo</text>
<text text-anchor="start" x="1039.35" y="-100.8" font-family="Arial" font-size="8.00">+ World : World</text>
<polyline fill="none" stroke="black" points="1031.35,-94 1264.35,-94 "/>
<text text-anchor="start" x="1039.35" y="-82.8" font-family="Arial" font-size="8.00">+ LineRenderer (GameScreen screen, GameObjectInfo info)</text>
<text text-anchor="start" x="1039.35" y="-72.8" font-family="Arial" font-size="8.00">+ OnEdgesChanged (EdgeList edges)</text>
<text text-anchor="start" x="1039.35" y="-62.8" font-family="Arial" font-size="8.00">&#45; DrawRoundedLines ()</text>
<text text-anchor="start" x="1039.35" y="-52.8" font-family="Arial" font-size="8.00">+ Intersects (Ray ray) : GameObjectDistance</text>
<text text-anchor="start" x="1039.35" y="-42.8" font-family="Arial" font-size="8.00">+ Center () : Vector3</text>
<text text-anchor="start" x="1039.35" y="-32.8" font-family="Arial" font-size="8.00">+ Draw (GameTime gameTime)</text>
<text text-anchor="start" x="1039.35" y="-22.8" font-family="Arial" font-size="8.00">+ Update (GameTime gameTime)</text>
</g>
<!-- Box_KnotRenderer&#45;&gt;Box_LineRenderer -->
<g id="edge32" class="edge"><title>Box_KnotRenderer&#45;&gt;Box_LineRenderer</title>
<path fill="none" stroke="midnightblue" d="M1147.85,-282.644C1147.85,-244.16 1147.85,-197.926 1147.85,-160.177"/>
<polygon fill="none" stroke="midnightblue" points="1144.35,-282.764 1147.85,-292.764 1151.35,-282.764 1144.35,-282.764"/>
</g>
<!-- Box_PipeRenderer -->
<g id="node15" class="node"><title>Box_PipeRenderer</title>
<polygon fill="#fcfcda" stroke="black" points="363.851,-1 363.851,-175 581.851,-175 581.851,-1 363.851,-1"/>
<text text-anchor="middle" x="472.851" y="-163.8" font-family="Arial" font-size="8.00">PipeRenderer</text>
<polyline fill="none" stroke="black" points="363.851,-157 581.851,-157 "/>
<text text-anchor="start" x="371.851" y="-145.8" font-family="Arial" font-size="8.00">&#45; nodes : List&lt;NodeModel&gt;</text>
<text text-anchor="start" x="371.851" y="-135.8" font-family="Arial" font-size="8.00">&#45; nodeFactory : ModelFactory</text>
<text text-anchor="start" x="371.851" y="-125.8" font-family="Arial" font-size="8.00">&#45; pipeFactory : ModelFactory</text>
<text text-anchor="start" x="371.851" y="-115.8" font-family="Arial" font-size="8.00">&#45; pipes : List&lt;PipeModel&gt;</text>
<text text-anchor="start" x="371.851" y="-105.8" font-family="Arial" font-size="8.00">+ Info : GameObjectInfo</text>
<text text-anchor="start" x="371.851" y="-95.8" font-family="Arial" font-size="8.00">+ World : World</text>
<polyline fill="none" stroke="black" points="363.851,-89 581.851,-89 "/>
<text text-anchor="start" x="371.851" y="-77.8" font-family="Arial" font-size="8.00">&#45; IEnumerable.GetEnumerator () : IEnumerator</text>
<text text-anchor="start" x="371.851" y="-67.8" font-family="Arial" font-size="8.00">+ PipeRenderer (GameState state, GameObjectInfo info)</text>
<text text-anchor="start" x="371.851" y="-57.8" font-family="Arial" font-size="8.00">+ Draw (GameTime gameTime)</text>
<text text-anchor="start" x="371.851" y="-47.8" font-family="Arial" font-size="8.00">+ OnEdgesChanged (EdgeList edges)</text>
<text text-anchor="start" x="371.851" y="-37.8" font-family="Arial" font-size="8.00">+ GetEnumerator () : IEnumerator&lt;IGameObject&gt;</text>
<text text-anchor="start" x="371.851" y="-27.8" font-family="Arial" font-size="8.00">+ Intersects (Ray ray) : GameObjectDistance</text>
<text text-anchor="start" x="371.851" y="-17.8" font-family="Arial" font-size="8.00">+ Center () : Vector3</text>
<text text-anchor="start" x="371.851" y="-7.8" font-family="Arial" font-size="8.00">+ Update (GameTime gameTime)</text>
</g>
<!-- Box_KnotRenderer&#45;&gt;Box_PipeRenderer -->
<g id="edge34" class="edge"><title>Box_KnotRenderer&#45;&gt;Box_PipeRenderer</title>
<path fill="none" stroke="midnightblue" d="M1104.99,-284.384C1086.37,-257.782 1062.26,-230.048 1033.85,-212 959.868,-164.996 723.06,-124.088 581.862,-103.059"/>
<polygon fill="none" stroke="midnightblue" points="1102.32,-286.678 1110.85,-292.968 1108.11,-282.734 1102.32,-286.678"/>
</g>
<!-- Box_IEnumerable -->
<g id="node17" class="node"><title>Box_IEnumerable</title>
<polygon fill="#ffffff" stroke="black" points="336.351,-583 336.351,-601 451.351,-601 451.351,-583 336.351,-583"/>
<text text-anchor="middle" x="393.851" y="-589.8" font-family="Arial" font-size="8.00">IEnumerable&lt;IGameObject&gt;</text>
</g>
<!-- Box_IEnumerable&#45;&gt;Box_EdgeMovement -->
<g id="edge4" class="edge"><title>Box_IEnumerable&#45;&gt;Box_EdgeMovement</title>
<path fill="none" stroke="midnightblue" d="M382.172,-574.406C368.632,-554.007 345.072,-518.515 320.973,-482.209"/>
<polygon fill="none" stroke="midnightblue" points="379.368,-576.509 387.814,-582.905 385.2,-572.638 379.368,-576.509"/>
</g>
<!-- Box_IEnumerable&#45;&gt;Box_ModelRenderer -->
<g id="edge22" class="edge"><title>Box_IEnumerable&#45;&gt;Box_ModelRenderer</title>
<path fill="none" stroke="midnightblue" d="M405.535,-574.398C417.85,-555.846 438.447,-524.816 460.201,-492.044"/>
<polygon fill="none" stroke="midnightblue" points="402.503,-572.638 399.888,-582.905 408.335,-576.509 402.503,-572.638"/>
</g>
<!-- Box_IEnumerable&#45;&gt;Box_PipeRenderer -->
<g id="edge36" class="edge"><title>Box_IEnumerable&#45;&gt;Box_PipeRenderer</title>
<path fill="none" stroke="midnightblue" d="M325.909,-584.68C237.988,-573.646 92.2086,-549.503 59.8512,-508 -21.0367,-404.25 -18.6666,-317.555 59.8512,-212 96.2946,-163.008 253.986,-126.104 363.607,-105.775"/>
<polygon fill="none" stroke="midnightblue" points="325.717,-588.183 336.069,-585.929 326.571,-581.235 325.717,-588.183"/>
</g>
<!-- Box_IEnumerable&#45;&gt;Box_PipeMovement -->
<g id="edge40" class="edge"><title>Box_IEnumerable&#45;&gt;Box_PipeMovement</title>
<path fill="none" stroke="midnightblue" d="M456.096,-580.952C515.15,-568.775 605.129,-545.74 675.851,-508 687.502,-501.783 699.101,-494.734 710.472,-487.169"/>
<polygon fill="none" stroke="midnightblue" points="455.276,-577.546 446.167,-582.957 456.662,-584.408 455.276,-577.546"/>
</g>
<!-- Box_IEdgeChangeListener -->
<g id="node18" class="node"><title>Box_IEdgeChangeListener</title>
<polygon fill="#ffffff" stroke="black" points="1101.35,-583 1101.35,-601 1194.35,-601 1194.35,-583 1101.35,-583"/>
<text text-anchor="middle" x="1147.85" y="-589.8" font-family="Arial" font-size="8.00">IEdgeChangeListener</text>
</g>
<!-- Box_IEdgeChangeListener&#45;&gt;Box_KnotRenderer -->
<g id="edge28" class="edge"><title>Box_IEdgeChangeListener&#45;&gt;Box_KnotRenderer</title>
<path fill="none" stroke="midnightblue" d="M1147.85,-572.844C1147.85,-541.256 1147.85,-476.791 1147.85,-427.04"/>
<polygon fill="none" stroke="midnightblue" points="1144.35,-572.905 1147.85,-582.905 1151.35,-572.905 1144.35,-572.905"/>
</g>
</g>
</svg>
