<?xml version="1.0" encoding="UTF-8" standalone="no"?>
<!DOCTYPE svg PUBLIC "-//W3C//DTD SVG 1.1//EN"
 "http://www.w3.org/Graphics/SVG/1.1/DTD/svg11.dtd">
<!-- Generated by graphviz version 2.26.3 (20100126.1600)
 -->
<!-- Title: MenuItem Pages: 1 -->
<svg width="220pt" height="650pt"
 viewBox="0.00 0.00 220.00 650.00" xmlns="http://www.w3.org/2000/svg" xmlns:xlink="http://www.w3.org/1999/xlink">
<g id="graph1" class="graph" transform="scale(1 1) rotate(0) translate(4 646)">
<title>MenuItem</title>
<polygon fill="white" stroke="white" points="-4,5 -4,-646 217,-646 217,5 -4,5"/>
<!-- Box_PipeModel -->
<g id="node1" class="node"><title>Box_PipeModel</title>
<polygon fill="#fcfcda" stroke="black" points="6,-1 6,-145 206,-145 206,-1 6,-1"/>
<text text-anchor="middle" x="106" y="-133.8" font-family="Helvetica,sans-Serif" font-size="8.00">PipeModel</text>
<polyline fill="none" stroke="black" points="6,-125 206,-125 "/>
<text text-anchor="start" x="14" y="-113.8" font-family="Helvetica,sans-Serif" font-size="8.00">Attributes:</text>
<text text-anchor="start" x="14" y="-101.8" font-family="Helvetica,sans-Serif" font-size="8.00">&#45; Bounds : BoundingSphere[]</text>
<text text-anchor="start" x="14" y="-89.8" font-family="Helvetica,sans-Serif" font-size="8.00">+ Info : PipeModelInfo</text>
<text text-anchor="start" x="14" y="-77.8" font-family="Helvetica,sans-Serif" font-size="8.00">Methods:</text>
<polyline fill="none" stroke="black" points="6,-69 206,-69 "/>
<text text-anchor="start" x="14" y="-57.8" font-family="Helvetica,sans-Serif" font-size="8.00">+ OnDataChange () : Action</text>
<text text-anchor="start" x="14" y="-45.8" font-family="Helvetica,sans-Serif" font-size="8.00">+ Draw (GameTime gameTime)</text>
<text text-anchor="start" x="14" y="-33.8" font-family="Helvetica,sans-Serif" font-size="8.00">+ PipeModel (GameState state, PipeModelInfo info)</text>
<text text-anchor="start" x="14" y="-21.8" font-family="Helvetica,sans-Serif" font-size="8.00">+ Intersects (Ray ray) : GameObjectDistance</text>
<text text-anchor="start" x="14" y="-9.8" font-family="Helvetica,sans-Serif" font-size="8.00">+ Update (GameTime gameTime)</text>
</g>
<!-- Box_GameModel -->
<g id="node2" class="node"><title>Box_GameModel</title>
<polygon fill="#fcfcda" stroke="black" points="0,-183 0,-471 212,-471 212,-183 0,-183"/>
<text text-anchor="middle" x="106" y="-459.8" font-family="Helvetica,sans-Serif" font-size="8.00">GameModel</text>
<polyline fill="none" stroke="black" points="0,-451 212,-451 "/>
<text text-anchor="start" x="8" y="-439.8" font-family="Helvetica,sans-Serif" font-size="8.00">Attributes:</text>
<text text-anchor="start" x="8" y="-427.8" font-family="Helvetica,sans-Serif" font-size="8.00">&#45; _rotation : Angles3</text>
<text text-anchor="start" x="8" y="-415.8" font-family="Helvetica,sans-Serif" font-size="8.00">&#45; _worldMatrix : Matrix</text>
<text text-anchor="start" x="8" y="-403.8" font-family="Helvetica,sans-Serif" font-size="8.00">&#45; _position : Vector3</text>
<text text-anchor="start" x="8" y="-391.8" font-family="Helvetica,sans-Serif" font-size="8.00">+ BaseColor : Color</text>
<text text-anchor="start" x="8" y="-379.8" font-family="Helvetica,sans-Serif" font-size="8.00">+ HighlightColor : Color</text>
<text text-anchor="start" x="8" y="-367.8" font-family="Helvetica,sans-Serif" font-size="8.00">+ WorldMatrix : Matrix</text>
<text text-anchor="start" x="8" y="-355.8" font-family="Helvetica,sans-Serif" font-size="8.00">+ Info : dynamic</text>
<text text-anchor="start" x="8" y="-343.8" font-family="Helvetica,sans-Serif" font-size="8.00">+ Alpha : float</text>
<text text-anchor="start" x="8" y="-331.8" font-family="Helvetica,sans-Serif" font-size="8.00">+ HighlightIntensity : float</text>
<text text-anchor="start" x="8" y="-319.8" font-family="Helvetica,sans-Serif" font-size="8.00">&#45; _scale : float</text>
<text text-anchor="start" x="8" y="-307.8" font-family="Helvetica,sans-Serif" font-size="8.00"># state : GameState</text>
<text text-anchor="start" x="8" y="-295.8" font-family="Helvetica,sans-Serif" font-size="8.00">+ World : World</text>
<text text-anchor="start" x="8" y="-283.8" font-family="Helvetica,sans-Serif" font-size="8.00">+ Model : Model virtual</text>
<text text-anchor="start" x="8" y="-271.8" font-family="Helvetica,sans-Serif" font-size="8.00">Methods:</text>
<polyline fill="none" stroke="black" points="0,-263 212,-263 "/>
<text text-anchor="start" x="8" y="-251.8" font-family="Helvetica,sans-Serif" font-size="8.00">&#45; UpdateWorldMatrix ()</text>
<text text-anchor="start" x="8" y="-239.8" font-family="Helvetica,sans-Serif" font-size="8.00">+ GameModel (GameState state, GameModelInfo info)</text>
<text text-anchor="start" x="8" y="-227.8" font-family="Helvetica,sans-Serif" font-size="8.00">+ Intersects (Ray ray) : GameObjectDistance virtual</text>
<text text-anchor="start" x="8" y="-215.8" font-family="Helvetica,sans-Serif" font-size="8.00">+ Draw (GameTime gameTime) virtual</text>
<text text-anchor="start" x="8" y="-203.8" font-family="Helvetica,sans-Serif" font-size="8.00">+ Center () : Vector3</text>
<text text-anchor="start" x="8" y="-191.8" font-family="Helvetica,sans-Serif" font-size="8.00">+ Update (GameTime gameTime) virtual</text>
</g>
<!-- Box_GameModel&#45;&gt;Box_PipeModel -->
<g id="edge2" class="edge"><title>Box_GameModel&#45;&gt;Box_PipeModel</title>
<path fill="none" stroke="midnightblue" d="M106,-172.642C106,-163.228 106,-154.023 106,-145.25"/>
<polygon fill="none" stroke="midnightblue" points="102.5,-172.931 106,-182.931 109.5,-172.931 102.5,-172.931"/>
</g>
<!-- Box_IGameObject -->
<g id="node3" class="node"><title>Box_IGameObject</title>
<polygon fill="#dafcda" stroke="black" points="18,-509 18,-641 194,-641 194,-509 18,-509"/>
<text text-anchor="middle" x="106" y="-629.8" font-family="Helvetica,sans-Serif" font-size="8.00">IGameObject</text>
<polyline fill="none" stroke="black" points="18,-621 194,-621 "/>
<text text-anchor="start" x="26" y="-609.8" font-family="Helvetica,sans-Serif" font-size="8.00">Attributes:</text>
<text text-anchor="start" x="26" y="-597.8" font-family="Helvetica,sans-Serif" font-size="8.00">+ Info : dynamic</text>
<text text-anchor="start" x="26" y="-585.8" font-family="Helvetica,sans-Serif" font-size="8.00">+ World : World</text>
<text text-anchor="start" x="26" y="-573.8" font-family="Helvetica,sans-Serif" font-size="8.00">Methods:</text>
<polyline fill="none" stroke="black" points="18,-565 194,-565 "/>
<text text-anchor="start" x="26" y="-553.8" font-family="Helvetica,sans-Serif" font-size="8.00">+ Draw (GameTime gameTime)</text>
<text text-anchor="start" x="26" y="-541.8" font-family="Helvetica,sans-Serif" font-size="8.00">+ Update (GameTime gameTime)</text>
<text text-anchor="start" x="26" y="-529.8" font-family="Helvetica,sans-Serif" font-size="8.00">+ Intersects (Ray ray) : GameObjectDistance</text>
<text text-anchor="start" x="26" y="-517.8" font-family="Helvetica,sans-Serif" font-size="8.00">+ Center () : Vector3</text>
</g>
<!-- Box_IGameObject&#45;&gt;Box_GameModel -->
<g id="edge4" class="edge"><title>Box_IGameObject&#45;&gt;Box_GameModel</title>
<path fill="none" stroke="midnightblue" d="M106,-498.739C106,-489.953 106,-480.79 106,-471.469"/>
<polygon fill="none" stroke="midnightblue" points="102.5,-498.866 106,-508.866 109.5,-498.866 102.5,-498.866"/>
</g>
</g>
</svg>
