<?xml version="1.0" encoding="UTF-8" standalone="no"?>
<!DOCTYPE svg PUBLIC "-//W3C//DTD SVG 1.1//EN"
 "http://www.w3.org/Graphics/SVG/1.1/DTD/svg11.dtd">
<!-- Generated by graphviz version 2.26.3 (20100126.1600)
 -->
<!-- Title: MenuItem Pages: 1 -->
<svg width="2500pt" height="2483pt"
 viewBox="0.00 0.00 600.00 596.00" xmlns="http://www.w3.org/2000/svg" xmlns:xlink="http://www.w3.org/1999/xlink">
<g id="graph1" class="graph" transform="scale(4.16667 4.16667) rotate(0) translate(4 592)">
<title>MenuItem</title>
<polygon fill="white" stroke="white" points="-4,5 -4,-592 597,-592 597,5 -4,5"/>
<!-- Box_ColorPicker -->
<g id="node1" class="node"><title>Box_ColorPicker</title>
<polygon fill="#fcfcda" stroke="black" points="119,-1 119,-185 419,-185 419,-1 119,-1"/>
<text text-anchor="middle" x="269" y="-173.8" font-family="Arial" font-size="8.00">ColorPicker</text>
<polyline fill="none" stroke="black" points="119,-167 419,-167 "/>
<text text-anchor="start" x="127" y="-155.8" font-family="Arial" font-size="8.00">&#45; tiles : List&lt;Vector2&gt;</text>
<text text-anchor="start" x="127" y="-145.8" font-family="Arial" font-size="8.00">+ SelectedColor : Color</text>
<text text-anchor="start" x="127" y="-135.8" font-family="Arial" font-size="8.00">+ IsMouseEventEnabled : bool</text>
<text text-anchor="start" x="127" y="-125.8" font-family="Arial" font-size="8.00">&#45; colors : List&lt;Color&gt;</text>
<text text-anchor="start" x="127" y="-115.8" font-family="Arial" font-size="8.00"># spriteBatch : SpriteBatch</text>
<text text-anchor="start" x="127" y="-105.8" font-family="Arial" font-size="8.00">+ OnSelectColor : Action&lt;Color&gt;</text>
<polyline fill="none" stroke="black" points="119,-99 419,-99 "/>
<text text-anchor="start" x="127" y="-87.8" font-family="Arial" font-size="8.00">&#45; Vector2 tileSize (0.032f, 0.032f) : readonly static</text>
<text text-anchor="start" x="127" y="-77.8" font-family="Arial" font-size="8.00">&#45; CreateTiles (IEnumerable&lt;Color&gt; _colors) : IEnumerable&lt;Vector2&gt; static</text>
<text text-anchor="start" x="127" y="-67.8" font-family="Arial" font-size="8.00">+ ColorPicker (GameScreen screen, WidgetInfo info, DisplayLayer drawOrder)</text>
<text text-anchor="start" x="127" y="-57.8" font-family="Arial" font-size="8.00">+ Draw (GameTime time)</text>
<text text-anchor="start" x="127" y="-47.8" font-family="Arial" font-size="8.00">+ OnRightClick (Vector2 position, ClickState click, GameTime time)</text>
<text text-anchor="start" x="127" y="-37.8" font-family="Arial" font-size="8.00">+ SetHovered (bool hovered)</text>
<text text-anchor="start" x="127" y="-27.8" font-family="Arial" font-size="8.00">&#45; CreateColors (int num) : IEnumerable&lt;Color&gt; static</text>
<text text-anchor="start" x="127" y="-17.8" font-family="Arial" font-size="8.00">&#45; SelectColor (Color color)</text>
<text text-anchor="start" x="127" y="-7.8" font-family="Arial" font-size="8.00">+ OnLeftClick (Vector2 position, ClickState click, GameTime time)</text>
</g>
<!-- Box_IMouseEventListener -->
<g id="node2" class="node"><title>Box_IMouseEventListener</title>
<polygon fill="#dafcda" stroke="black" points="0,-223 0,-317 252,-317 252,-223 0,-223"/>
<text text-anchor="middle" x="126" y="-305.8" font-family="Arial" font-size="8.00">IMouseEventListener</text>
<polyline fill="none" stroke="black" points="0,-299 252,-299 "/>
<text text-anchor="start" x="8" y="-287.8" font-family="Arial" font-size="8.00">+ Index : DisplayLayer</text>
<text text-anchor="start" x="8" y="-277.8" font-family="Arial" font-size="8.00">+ IsMouseEventEnabled : bool</text>
<polyline fill="none" stroke="black" points="0,-271 252,-271 "/>
<text text-anchor="start" x="8" y="-259.8" font-family="Arial" font-size="8.00">+ OnLeftClick (Vector2 position, ClickState click, GameTime time)</text>
<text text-anchor="start" x="8" y="-249.8" font-family="Arial" font-size="8.00">+ OnRightClick (Vector2 position, ClickState click, GameTime time)</text>
<text text-anchor="start" x="8" y="-239.8" font-family="Arial" font-size="8.00">+ SetHovered (bool hovered)</text>
<text text-anchor="start" x="8" y="-229.8" font-family="Arial" font-size="8.00">+ bounds () : Rectangle</text>
</g>
<!-- Box_IMouseEventListener&#45;&gt;Box_ColorPicker -->
<g id="edge4" class="edge"><title>Box_IMouseEventListener&#45;&gt;Box_ColorPicker</title>
<path fill="none" stroke="midnightblue" d="M170.815,-214.53C178.351,-205.202 186.349,-195.302 194.4,-185.337"/>
<polygon fill="none" stroke="midnightblue" points="167.883,-212.589 164.321,-222.567 173.328,-216.988 167.883,-212.589"/>
</g>
<!-- Box_Widget -->
<g id="node3" class="node"><title>Box_Widget</title>
<polygon fill="#fcfcda" stroke="black" points="270,-233 270,-307 554,-307 554,-233 270,-233"/>
<text text-anchor="middle" x="412" y="-295.8" font-family="Arial" font-size="8.00">Widget</text>
<polyline fill="none" stroke="black" points="270,-289 554,-289 "/>
<text text-anchor="start" x="278" y="-277.8" font-family="Arial" font-size="8.00">+ Info : WidgetInfo</text>
<text text-anchor="start" x="278" y="-267.8" font-family="Arial" font-size="8.00">+ IsVisible : bool virtual</text>
<polyline fill="none" stroke="black" points="270,-261 554,-261 "/>
<text text-anchor="start" x="278" y="-249.8" font-family="Arial" font-size="8.00">+ bounds () : Rectangle</text>
<text text-anchor="start" x="278" y="-239.8" font-family="Arial" font-size="8.00">+ Widget (GameScreen screen, WidgetInfo info, DisplayLayer drawOrder)</text>
</g>
<!-- Box_Widget&#45;&gt;Box_ColorPicker -->
<g id="edge2" class="edge"><title>Box_Widget&#45;&gt;Box_ColorPicker</title>
<path fill="none" stroke="midnightblue" d="M375.689,-225.056C365.771,-212.779 354.648,-199.012 343.429,-185.126"/>
<polygon fill="none" stroke="midnightblue" points="373.016,-227.316 382.023,-232.895 378.461,-222.917 373.016,-227.316"/>
</g>
<!-- Box_DrawableGameScreenComponent -->
<g id="node4" class="node"><title>Box_DrawableGameScreenComponent</title>
<polygon fill="#fcfcda" stroke="black" points="253.5,-355 253.5,-439 570.5,-439 570.5,-355 253.5,-355"/>
<text text-anchor="middle" x="412" y="-427.8" font-family="Arial" font-size="8.00">DrawableGameScreenComponent</text>
<polyline fill="none" stroke="black" points="253.5,-421 570.5,-421 "/>
<text text-anchor="start" x="261.5" y="-409.8" font-family="Arial" font-size="8.00">+ Index : DisplayLayer</text>
<text text-anchor="start" x="261.5" y="-399.8" font-family="Arial" font-size="8.00">&#45; _index : DisplayLayer</text>
<text text-anchor="start" x="261.5" y="-389.8" font-family="Arial" font-size="8.00">+ screen : GameScreen</text>
<polyline fill="none" stroke="black" points="253.5,-383 570.5,-383 "/>
<text text-anchor="start" x="261.5" y="-371.8" font-family="Arial" font-size="8.00">+ DrawableGameScreenComponent (GameScreen screen, DisplayLayer index)</text>
<text text-anchor="start" x="261.5" y="-361.8" font-family="Arial" font-size="8.00">+ SubComponents (GameTime time) : IEnumerable&lt;IGameScreenComponent&gt; virtual</text>
</g>
<!-- Box_DrawableGameScreenComponent&#45;&gt;Box_Widget -->
<g id="edge6" class="edge"><title>Box_DrawableGameScreenComponent&#45;&gt;Box_Widget</title>
<path fill="none" stroke="midnightblue" d="M412,-344.449C412,-332.019 412,-319.013 412,-307.412"/>
<polygon fill="none" stroke="midnightblue" points="408.5,-344.711 412,-354.711 415.5,-344.711 408.5,-344.711"/>
</g>
<!-- Box_IGameScreenComponent -->
<g id="node5" class="node"><title>Box_IGameScreenComponent</title>
<polygon fill="#dafcda" stroke="black" points="151.5,-477 151.5,-531 444.5,-531 444.5,-477 151.5,-477"/>
<text text-anchor="middle" x="298" y="-519.8" font-family="Arial" font-size="8.00">IGameScreenComponent</text>
<polyline fill="none" stroke="black" points="151.5,-513 444.5,-513 "/>
<text text-anchor="start" x="159.5" y="-501.8" font-family="Arial" font-size="8.00">+ Index : DisplayLayer</text>
<polyline fill="none" stroke="black" points="151.5,-495 444.5,-495 "/>
<text text-anchor="start" x="159.5" y="-483.8" font-family="Arial" font-size="8.00">+ SubComponents (GameTime time) : IEnumerable&lt;IGameScreenComponent&gt;</text>
</g>
<!-- Box_IGameScreenComponent&#45;&gt;Box_DrawableGameScreenComponent -->
<g id="edge10" class="edge"><title>Box_IGameScreenComponent&#45;&gt;Box_DrawableGameScreenComponent</title>
<path fill="none" stroke="midnightblue" d="M334.116,-470.102C344.502,-460.354 355.961,-449.598 366.821,-439.404"/>
<polygon fill="none" stroke="midnightblue" points="331.663,-467.604 326.767,-476.999 336.454,-472.708 331.663,-467.604"/>
</g>
<!-- Box_XnaDrawableGameComponent -->
<g id="node6" class="node"><title>Box_XnaDrawableGameComponent</title>
<polygon fill="#ffffff" stroke="black" points="462,-495 462,-513 592,-513 592,-495 462,-495"/>
<text text-anchor="middle" x="527" y="-501.8" font-family="Arial" font-size="8.00">Xna.DrawableGameComponent</text>
</g>
<!-- Box_XnaDrawableGameComponent&#45;&gt;Box_DrawableGameScreenComponent -->
<g id="edge8" class="edge"><title>Box_XnaDrawableGameComponent&#45;&gt;Box_DrawableGameScreenComponent</title>
<path fill="none" stroke="midnightblue" d="M509.824,-488.018C495.966,-475.124 475.815,-456.376 457.399,-439.241"/>
<polygon fill="none" stroke="midnightblue" points="507.49,-490.628 517.195,-494.877 512.258,-485.503 507.49,-490.628"/>
</g>
<!-- Box_XnaIGameComponent -->
<g id="node7" class="node"><title>Box_XnaIGameComponent</title>
<polygon fill="#ffffff" stroke="black" points="250,-569 250,-587 346,-587 346,-569 250,-569"/>
<text text-anchor="middle" x="298" y="-575.8" font-family="Arial" font-size="8.00">Xna.IGameComponent</text>
</g>
<!-- Box_XnaIGameComponent&#45;&gt;Box_IGameScreenComponent -->
<g id="edge12" class="edge"><title>Box_XnaIGameComponent&#45;&gt;Box_IGameScreenComponent</title>
<path fill="none" stroke="midnightblue" d="M298,-558.64C298,-550.2 298,-540.16 298,-531.004"/>
<polygon fill="none" stroke="midnightblue" points="294.5,-558.926 298,-568.926 301.5,-558.926 294.5,-558.926"/>
</g>
</g>
</svg>
