<?xml version="1.0" encoding="UTF-8" standalone="no"?>
<!DOCTYPE svg PUBLIC "-//W3C//DTD SVG 1.1//EN"
 "http://www.w3.org/Graphics/SVG/1.1/DTD/svg11.dtd">
<!-- Generated by graphviz version 2.26.3 (20100126.1600)
 -->
<!-- Title: MenuItem Pages: 1 -->
<svg width="2662pt" height="2150pt"
 viewBox="0.00 0.00 639.00 516.00" xmlns="http://www.w3.org/2000/svg" xmlns:xlink="http://www.w3.org/1999/xlink">
<g id="graph1" class="graph" transform="scale(4.16667 4.16667) rotate(0) translate(4 512)">
<title>MenuItem</title>
<polygon fill="white" stroke="white" points="-4,5 -4,-512 636,-512 636,5 -4,5"/>
<!-- Box_TextInput -->
<g id="node1" class="node"><title>Box_TextInput</title>
<polygon fill="#fcfcda" stroke="black" points="148,-1 148,-125 440,-125 440,-1 148,-1"/>
<text text-anchor="middle" x="294" y="-113.8" font-family="Arial" font-size="8.00">TextInput</text>
<polyline fill="none" stroke="black" points="148,-107 440,-107 "/>
<text text-anchor="start" x="156" y="-95.8" font-family="Arial" font-size="8.00">&#45; font : SpriteFont</text>
<text text-anchor="start" x="156" y="-85.8" font-family="Arial" font-size="8.00"># spriteBatch : SpriteBatch</text>
<text text-anchor="start" x="156" y="-75.8" font-family="Arial" font-size="8.00">+ IsKeyEventEnabled : bool</text>
<text text-anchor="start" x="156" y="-65.8" font-family="Arial" font-size="8.00">+ ValidKeys : List&lt;Keys&gt;</text>
<text text-anchor="start" x="156" y="-55.8" font-family="Arial" font-size="8.00">+ InputText : string</text>
<polyline fill="none" stroke="black" points="148,-49 440,-49 "/>
<text text-anchor="start" x="156" y="-37.8" font-family="Arial" font-size="8.00">+ TextInput (GameScreen screen, WidgetInfo info, DisplayLayer drawOrder)</text>
<text text-anchor="start" x="156" y="-27.8" font-family="Arial" font-size="8.00">+ Draw (GameTime gameTime)</text>
<text text-anchor="start" x="156" y="-17.8" font-family="Arial" font-size="8.00">+ OnKeyEvent (List&lt;Keys&gt; key, KeyEvent keyEvent, GameTime gameTime)</text>
<text text-anchor="start" x="156" y="-7.8" font-family="Arial" font-size="8.00">+ Update (GameTime gameTime)</text>
</g>
<!-- Box_IKeyEventListener -->
<g id="node2" class="node"><title>Box_IKeyEventListener</title>
<polygon fill="#dafcda" stroke="black" points="-0.5,-163 -0.5,-237 286.5,-237 286.5,-163 -0.5,-163"/>
<text text-anchor="middle" x="143" y="-225.8" font-family="Arial" font-size="8.00">IKeyEventListener</text>
<polyline fill="none" stroke="black" points="-0.5,-219 286.5,-219 "/>
<text text-anchor="start" x="7.5" y="-207.8" font-family="Arial" font-size="8.00">+ ValidKeys : List&lt;Keys&gt;</text>
<text text-anchor="start" x="7.5" y="-197.8" font-family="Arial" font-size="8.00">+ Index : DisplayLayer</text>
<text text-anchor="start" x="7.5" y="-187.8" font-family="Arial" font-size="8.00">+ IsKeyEventEnabled : bool</text>
<polyline fill="none" stroke="black" points="-0.5,-181 286.5,-181 "/>
<text text-anchor="start" x="7.5" y="-169.8" font-family="Arial" font-size="8.00">+ OnKeyEvent (List&lt;Keys&gt; key, KeyEvent keyEvent, GameTime gameTime)</text>
</g>
<!-- Box_IKeyEventListener&#45;&gt;Box_TextInput -->
<g id="edge4" class="edge"><title>Box_IKeyEventListener&#45;&gt;Box_TextInput</title>
<path fill="none" stroke="midnightblue" d="M191.566,-155.937C202.371,-146.133 214.024,-135.561 225.461,-125.184"/>
<polygon fill="none" stroke="midnightblue" points="188.917,-153.614 183.863,-162.926 193.621,-158.799 188.917,-153.614"/>
</g>
<!-- Box_Widget -->
<g id="node3" class="node"><title>Box_Widget</title>
<polygon fill="#fcfcda" stroke="black" points="304,-163 304,-237 588,-237 588,-163 304,-163"/>
<text text-anchor="middle" x="446" y="-225.8" font-family="Arial" font-size="8.00">Widget</text>
<polyline fill="none" stroke="black" points="304,-219 588,-219 "/>
<text text-anchor="start" x="312" y="-207.8" font-family="Arial" font-size="8.00">+ Info : WidgetInfo</text>
<text text-anchor="start" x="312" y="-197.8" font-family="Arial" font-size="8.00">+ IsVisible : bool virtual</text>
<polyline fill="none" stroke="black" points="304,-191 588,-191 "/>
<text text-anchor="start" x="312" y="-179.8" font-family="Arial" font-size="8.00">+ bounds () : Rectangle</text>
<text text-anchor="start" x="312" y="-169.8" font-family="Arial" font-size="8.00">+ Widget (GameScreen screen, WidgetInfo info, DisplayLayer drawOrder)</text>
</g>
<!-- Box_Widget&#45;&gt;Box_TextInput -->
<g id="edge2" class="edge"><title>Box_Widget&#45;&gt;Box_TextInput</title>
<path fill="none" stroke="midnightblue" d="M397.429,-156.222C386.463,-146.339 374.618,-135.662 362.993,-125.184"/>
<polygon fill="none" stroke="midnightblue" points="395.095,-158.831 404.867,-162.926 399.782,-153.631 395.095,-158.831"/>
</g>
<!-- Box_DrawableGameScreenComponent -->
<g id="node4" class="node"><title>Box_DrawableGameScreenComponent</title>
<polygon fill="#fcfcda" stroke="black" points="276.5,-275 276.5,-359 615.5,-359 615.5,-275 276.5,-275"/>
<text text-anchor="middle" x="446" y="-347.8" font-family="Arial" font-size="8.00">DrawableGameScreenComponent</text>
<polyline fill="none" stroke="black" points="276.5,-341 615.5,-341 "/>
<text text-anchor="start" x="284.5" y="-329.8" font-family="Arial" font-size="8.00">+ Index : DisplayLayer</text>
<text text-anchor="start" x="284.5" y="-319.8" font-family="Arial" font-size="8.00">&#45; _index : DisplayLayer</text>
<text text-anchor="start" x="284.5" y="-309.8" font-family="Arial" font-size="8.00">+ screen : GameScreen</text>
<polyline fill="none" stroke="black" points="276.5,-303 615.5,-303 "/>
<text text-anchor="start" x="284.5" y="-291.8" font-family="Arial" font-size="8.00">+ DrawableGameScreenComponent (GameScreen screen, DisplayLayer index)</text>
<text text-anchor="start" x="284.5" y="-281.8" font-family="Arial" font-size="8.00">+ SubComponents (GameTime gameTime) : IEnumerable&lt;IGameScreenComponent&gt; virtual</text>
</g>
<!-- Box_DrawableGameScreenComponent&#45;&gt;Box_Widget -->
<g id="edge6" class="edge"><title>Box_DrawableGameScreenComponent&#45;&gt;Box_Widget</title>
<path fill="none" stroke="midnightblue" d="M446,-264.482C446,-255.258 446,-245.834 446,-237.14"/>
<polygon fill="none" stroke="midnightblue" points="442.5,-264.76 446,-274.76 449.5,-264.76 442.5,-264.76"/>
</g>
<!-- Box_IGameScreenComponent -->
<g id="node5" class="node"><title>Box_IGameScreenComponent</title>
<polygon fill="#dafcda" stroke="black" points="168.5,-397 168.5,-451 483.5,-451 483.5,-397 168.5,-397"/>
<text text-anchor="middle" x="326" y="-439.8" font-family="Arial" font-size="8.00">IGameScreenComponent</text>
<polyline fill="none" stroke="black" points="168.5,-433 483.5,-433 "/>
<text text-anchor="start" x="176.5" y="-421.8" font-family="Arial" font-size="8.00">+ Index : DisplayLayer</text>
<polyline fill="none" stroke="black" points="168.5,-415 483.5,-415 "/>
<text text-anchor="start" x="176.5" y="-403.8" font-family="Arial" font-size="8.00">+ SubComponents (GameTime gameTime) : IEnumerable&lt;IGameScreenComponent&gt;</text>
</g>
<!-- Box_IGameScreenComponent&#45;&gt;Box_DrawableGameScreenComponent -->
<g id="edge10" class="edge"><title>Box_IGameScreenComponent&#45;&gt;Box_DrawableGameScreenComponent</title>
<path fill="none" stroke="midnightblue" d="M364.017,-390.102C374.949,-380.354 387.012,-369.598 398.444,-359.404"/>
<polygon fill="none" stroke="midnightblue" points="361.416,-387.732 356.281,-396.999 366.074,-392.956 361.416,-387.732"/>
</g>
<!-- Box_XnaDrawableGameComponent -->
<g id="node6" class="node"><title>Box_XnaDrawableGameComponent</title>
<polygon fill="#ffffff" stroke="black" points="501,-415 501,-433 631,-433 631,-415 501,-415"/>
<text text-anchor="middle" x="566" y="-421.8" font-family="Arial" font-size="8.00">Xna.DrawableGameComponent</text>
</g>
<!-- Box_XnaDrawableGameComponent&#45;&gt;Box_DrawableGameScreenComponent -->
<g id="edge8" class="edge"><title>Box_XnaDrawableGameComponent&#45;&gt;Box_DrawableGameScreenComponent</title>
<path fill="none" stroke="midnightblue" d="M548.077,-408.018C533.616,-395.124 512.59,-376.376 493.373,-359.241"/>
<polygon fill="none" stroke="midnightblue" points="545.976,-410.834 555.769,-414.877 550.634,-405.61 545.976,-410.834"/>
</g>
<!-- Box_XnaIGameComponent -->
<g id="node7" class="node"><title>Box_XnaIGameComponent</title>
<polygon fill="#ffffff" stroke="black" points="278,-489 278,-507 374,-507 374,-489 278,-489"/>
<text text-anchor="middle" x="326" y="-495.8" font-family="Arial" font-size="8.00">Xna.IGameComponent</text>
</g>
<!-- Box_XnaIGameComponent&#45;&gt;Box_IGameScreenComponent -->
<g id="edge12" class="edge"><title>Box_XnaIGameComponent&#45;&gt;Box_IGameScreenComponent</title>
<path fill="none" stroke="midnightblue" d="M326,-478.64C326,-470.2 326,-460.16 326,-451.004"/>
<polygon fill="none" stroke="midnightblue" points="322.5,-478.926 326,-488.926 329.5,-478.926 322.5,-478.926"/>
</g>
</g>
</svg>
