<?xml version="1.0" encoding="UTF-8" standalone="no"?>
<!DOCTYPE svg PUBLIC "-//W3C//DTD SVG 1.1//EN"
 "http://www.w3.org/Graphics/SVG/1.1/DTD/svg11.dtd">
<!-- Generated by graphviz version 2.26.3 (20100126.1600)
 -->
<!-- Title: MenuItem Pages: 1 -->
<svg width="812pt" height="612pt"
 viewBox="0.00 0.00 812.00 612.00" xmlns="http://www.w3.org/2000/svg" xmlns:xlink="http://www.w3.org/1999/xlink">
<g id="graph1" class="graph" transform="scale(1 1) rotate(0) translate(4 608)">
<title>MenuItem</title>
<polygon fill="white" stroke="white" points="-4,5 -4,-608 809,-608 809,5 -4,5"/>
<!-- Box_GameObjectInfo -->
<g id="node1" class="node"><title>Box_GameObjectInfo</title>
<polygon fill="#fcfcda" stroke="black" points="353.5,-365 353.5,-545 532.5,-545 532.5,-365 353.5,-365"/>
<text text-anchor="middle" x="443" y="-533.8" font-family="Helvetica,sans-Serif" font-size="8.00">GameObjectInfo</text>
<polyline fill="none" stroke="black" points="353.5,-525 532.5,-525 "/>
<text text-anchor="start" x="361.5" y="-513.8" font-family="Helvetica,sans-Serif" font-size="8.00">Attributes:</text>
<text text-anchor="start" x="361.5" y="-501.8" font-family="Helvetica,sans-Serif" font-size="8.00">+ Position : Vector3</text>
<text text-anchor="start" x="361.5" y="-489.8" font-family="Helvetica,sans-Serif" font-size="8.00">+ IsVisible : bool</text>
<text text-anchor="start" x="361.5" y="-477.8" font-family="Helvetica,sans-Serif" font-size="8.00">+ IsSelectable : bool</text>
<text text-anchor="start" x="361.5" y="-465.8" font-family="Helvetica,sans-Serif" font-size="8.00">+ IsMovable : bool</text>
<text text-anchor="start" x="361.5" y="-453.8" font-family="Helvetica,sans-Serif" font-size="8.00">+ operator : bool static</text>
<text text-anchor="start" x="361.5" y="-441.8" font-family="Helvetica,sans-Serif" font-size="8.00">+ operator ! : bool static</text>
<text text-anchor="start" x="361.5" y="-429.8" font-family="Helvetica,sans-Serif" font-size="8.00">Methods:</text>
<polyline fill="none" stroke="black" points="353.5,-421 532.5,-421 "/>
<text text-anchor="start" x="361.5" y="-409.8" font-family="Helvetica,sans-Serif" font-size="8.00">+ GameObjectInfo ()</text>
<text text-anchor="start" x="361.5" y="-397.8" font-family="Helvetica,sans-Serif" font-size="8.00">+ Equals (GameObjectInfo other) : bool virtual</text>
<text text-anchor="start" x="361.5" y="-385.8" font-family="Helvetica,sans-Serif" font-size="8.00">+ Equals (Object obj) : bool override</text>
<text text-anchor="start" x="361.5" y="-373.8" font-family="Helvetica,sans-Serif" font-size="8.00">+ GetHashCode () : int override</text>
</g>
<!-- Box_GameModelInfo -->
<g id="node2" class="node"><title>Box_GameModelInfo</title>
<polygon fill="#fcfcda" stroke="black" points="192,-195 192,-315 380,-315 380,-195 192,-195"/>
<text text-anchor="middle" x="286" y="-303.8" font-family="Helvetica,sans-Serif" font-size="8.00">GameModelInfo</text>
<polyline fill="none" stroke="black" points="192,-295 380,-295 "/>
<text text-anchor="start" x="200" y="-283.8" font-family="Helvetica,sans-Serif" font-size="8.00">Attributes:</text>
<text text-anchor="start" x="200" y="-271.8" font-family="Helvetica,sans-Serif" font-size="8.00">+ Modelname : string</text>
<text text-anchor="start" x="200" y="-259.8" font-family="Helvetica,sans-Serif" font-size="8.00">+ Rotation : Angles3</text>
<text text-anchor="start" x="200" y="-247.8" font-family="Helvetica,sans-Serif" font-size="8.00">+ Scale : float</text>
<text text-anchor="start" x="200" y="-235.8" font-family="Helvetica,sans-Serif" font-size="8.00">Methods:</text>
<polyline fill="none" stroke="black" points="192,-227 380,-227 "/>
<text text-anchor="start" x="200" y="-215.8" font-family="Helvetica,sans-Serif" font-size="8.00">+ GameModelInfo (string modelname)</text>
<text text-anchor="start" x="200" y="-203.8" font-family="Helvetica,sans-Serif" font-size="8.00">+ Equals (GameObjectInfo other) : bool override</text>
</g>
<!-- Box_GameObjectInfo&#45;&gt;Box_GameModelInfo -->
<g id="edge4" class="edge"><title>Box_GameObjectInfo&#45;&gt;Box_GameModelInfo</title>
<path fill="none" stroke="midnightblue" d="M366.073,-357.004C354.832,-342.684 343.547,-328.309 333.143,-315.054"/>
<polygon fill="none" stroke="midnightblue" points="363.38,-359.242 372.308,-364.946 368.886,-354.919 363.38,-359.242"/>
</g>
<!-- Box_TexturedRectangleInfo -->
<g id="node5" class="node"><title>Box_TexturedRectangleInfo</title>
<polygon fill="#fcfcda" stroke="black" points="397.5,-183 397.5,-327 804.5,-327 804.5,-183 397.5,-183"/>
<text text-anchor="middle" x="601" y="-315.8" font-family="Helvetica,sans-Serif" font-size="8.00">TexturedRectangleInfo</text>
<polyline fill="none" stroke="black" points="397.5,-307 804.5,-307 "/>
<text text-anchor="start" x="405.5" y="-295.8" font-family="Helvetica,sans-Serif" font-size="8.00">Attributes:</text>
<text text-anchor="start" x="405.5" y="-283.8" font-family="Helvetica,sans-Serif" font-size="8.00">+ Texturename : string</text>
<text text-anchor="start" x="405.5" y="-271.8" font-family="Helvetica,sans-Serif" font-size="8.00">+ Up : Vector3</text>
<text text-anchor="start" x="405.5" y="-259.8" font-family="Helvetica,sans-Serif" font-size="8.00">+ Left : Vector3</text>
<text text-anchor="start" x="405.5" y="-247.8" font-family="Helvetica,sans-Serif" font-size="8.00">+ Width : float</text>
<text text-anchor="start" x="405.5" y="-235.8" font-family="Helvetica,sans-Serif" font-size="8.00">+ Height : float</text>
<text text-anchor="start" x="405.5" y="-223.8" font-family="Helvetica,sans-Serif" font-size="8.00">Methods:</text>
<polyline fill="none" stroke="black" points="397.5,-215 804.5,-215 "/>
<text text-anchor="start" x="405.5" y="-203.8" font-family="Helvetica,sans-Serif" font-size="8.00">+ TexturedRectangleInfo (string texturename, Vector3 origin, Vector3 left, float width, Vector3 up, float height)</text>
<text text-anchor="start" x="405.5" y="-191.8" font-family="Helvetica,sans-Serif" font-size="8.00">+ Equals (GameObjectInfo other) : bool override</text>
</g>
<!-- Box_GameObjectInfo&#45;&gt;Box_TexturedRectangleInfo -->
<g id="edge10" class="edge"><title>Box_GameObjectInfo&#45;&gt;Box_TexturedRectangleInfo</title>
<path fill="none" stroke="midnightblue" d="M520.483,-356.921C528.401,-346.897 536.34,-336.848 543.981,-327.176"/>
<polygon fill="none" stroke="midnightblue" points="517.595,-354.93 514.142,-364.946 523.088,-359.269 517.595,-354.93"/>
</g>
<!-- Box_NodeModelInfo -->
<g id="node3" class="node"><title>Box_NodeModelInfo</title>
<polygon fill="#fcfcda" stroke="black" points="-0.5,-13 -0.5,-133 292.5,-133 292.5,-13 -0.5,-13"/>
<text text-anchor="middle" x="146" y="-121.8" font-family="Helvetica,sans-Serif" font-size="8.00">NodeModelInfo</text>
<polyline fill="none" stroke="black" points="-0.5,-113 292.5,-113 "/>
<text text-anchor="start" x="7.5" y="-101.8" font-family="Helvetica,sans-Serif" font-size="8.00">Attributes:</text>
<text text-anchor="start" x="7.5" y="-89.8" font-family="Helvetica,sans-Serif" font-size="8.00">+ Edges : EdgeList</text>
<text text-anchor="start" x="7.5" y="-77.8" font-family="Helvetica,sans-Serif" font-size="8.00">+ EdgeA : Edge</text>
<text text-anchor="start" x="7.5" y="-65.8" font-family="Helvetica,sans-Serif" font-size="8.00">+ EdgeB : Edge</text>
<text text-anchor="start" x="7.5" y="-53.8" font-family="Helvetica,sans-Serif" font-size="8.00">Methods:</text>
<polyline fill="none" stroke="black" points="-0.5,-45 292.5,-45 "/>
<text text-anchor="start" x="7.5" y="-33.8" font-family="Helvetica,sans-Serif" font-size="8.00">+ NodeModelInfo (EdgeList edges, Edge edgeA, Edge edgeB, Vector3 offset)</text>
<text text-anchor="start" x="7.5" y="-21.8" font-family="Helvetica,sans-Serif" font-size="8.00">+ Equals (GameObjectInfo other) : bool override</text>
</g>
<!-- Box_GameModelInfo&#45;&gt;Box_NodeModelInfo -->
<g id="edge6" class="edge"><title>Box_GameModelInfo&#45;&gt;Box_NodeModelInfo</title>
<path fill="none" stroke="midnightblue" d="M233.595,-186.873C219.991,-169.188 205.439,-150.27 192.181,-133.035"/>
<polygon fill="none" stroke="midnightblue" points="230.899,-189.11 239.771,-194.902 236.448,-184.842 230.899,-189.11"/>
</g>
<!-- Box_PipeModelInfo -->
<g id="node4" class="node"><title>Box_PipeModelInfo</title>
<polygon fill="#fcfcda" stroke="black" points="309.5,-1 309.5,-145 544.5,-145 544.5,-1 309.5,-1"/>
<text text-anchor="middle" x="427" y="-133.8" font-family="Helvetica,sans-Serif" font-size="8.00">PipeModelInfo</text>
<polyline fill="none" stroke="black" points="309.5,-125 544.5,-125 "/>
<text text-anchor="start" x="317.5" y="-113.8" font-family="Helvetica,sans-Serif" font-size="8.00">Attributes:</text>
<text text-anchor="start" x="317.5" y="-101.8" font-family="Helvetica,sans-Serif" font-size="8.00">+ Edges : EdgeList</text>
<text text-anchor="start" x="317.5" y="-89.8" font-family="Helvetica,sans-Serif" font-size="8.00">+ Edge : Edge</text>
<text text-anchor="start" x="317.5" y="-77.8" font-family="Helvetica,sans-Serif" font-size="8.00">+ Direction : Vector3</text>
<text text-anchor="start" x="317.5" y="-65.8" font-family="Helvetica,sans-Serif" font-size="8.00">+ PositionFrom : Vector3</text>
<text text-anchor="start" x="317.5" y="-53.8" font-family="Helvetica,sans-Serif" font-size="8.00">+ PositionTo : Vector3</text>
<text text-anchor="start" x="317.5" y="-41.8" font-family="Helvetica,sans-Serif" font-size="8.00">Methods:</text>
<polyline fill="none" stroke="black" points="309.5,-33 544.5,-33 "/>
<text text-anchor="start" x="317.5" y="-21.8" font-family="Helvetica,sans-Serif" font-size="8.00">+ PipeModelInfo (EdgeList edges, Edge edge, Vector3 offset)</text>
<text text-anchor="start" x="317.5" y="-9.8" font-family="Helvetica,sans-Serif" font-size="8.00">+ Equals (GameObjectInfo other) : bool override</text>
</g>
<!-- Box_GameModelInfo&#45;&gt;Box_PipeModelInfo -->
<g id="edge8" class="edge"><title>Box_GameModelInfo&#45;&gt;Box_PipeModelInfo</title>
<path fill="none" stroke="midnightblue" d="M338.721,-186.948C349.313,-173.277 360.477,-158.866 371.17,-145.064"/>
<polygon fill="none" stroke="midnightblue" points="335.917,-184.853 332.559,-194.902 341.451,-189.14 335.917,-184.853"/>
</g>
<!-- Box_IEquatable -->
<g id="node6" class="node"><title>Box_IEquatable</title>
<polygon fill="#ffffff" stroke="black" points="382,-583 382,-603 504,-603 504,-583 382,-583"/>
<text text-anchor="middle" x="443" y="-591.8" font-family="Helvetica,sans-Serif" font-size="8.00">IEquatable&lt;GameObjectInfo&gt;</text>
</g>
<!-- Box_IEquatable&#45;&gt;Box_GameObjectInfo -->
<g id="edge2" class="edge"><title>Box_IEquatable&#45;&gt;Box_GameObjectInfo</title>
<path fill="none" stroke="midnightblue" d="M443,-572.572C443,-564.819 443,-555.407 443,-545.321"/>
<polygon fill="none" stroke="midnightblue" points="439.5,-572.628 443,-582.628 446.5,-572.628 439.5,-572.628"/>
</g>
</g>
</svg>
