<?xml version="1.0" encoding="UTF-8" standalone="no"?>
<!DOCTYPE svg PUBLIC "-//W3C//DTD SVG 1.1//EN"
 "http://www.w3.org/Graphics/SVG/1.1/DTD/svg11.dtd">
<!-- Generated by graphviz version 2.26.3 (20100126.1600)
 -->
<!-- Title: MenuItem Pages: 1 -->
<svg width="362pt" height="598pt"
 viewBox="0.00 0.00 362.00 598.00" xmlns="http://www.w3.org/2000/svg" xmlns:xlink="http://www.w3.org/1999/xlink">
<g id="graph1" class="graph" transform="scale(1 1) rotate(0) translate(4 594)">
<title>MenuItem</title>
<polygon fill="white" stroke="white" points="-4,5 -4,-594 359,-594 359,5 -4,5"/>
<!-- Box_StartScreen -->
<g id="node1" class="node"><title>Box_StartScreen</title>
<polygon fill="#fcfcda" stroke="black" points="111.5,-1 111.5,-115 242.5,-115 242.5,-1 111.5,-1"/>
<text text-anchor="middle" x="177" y="-103.8" font-family="Arial" font-size="8.00">StartScreen</text>
<polyline fill="none" stroke="black" points="111.5,-97 242.5,-97 "/>
<text text-anchor="start" x="119.5" y="-85.8" font-family="Arial" font-size="8.00">&#45; spriteBatch : SpriteBatch</text>
<text text-anchor="start" x="119.5" y="-75.8" font-family="Arial" font-size="8.00">&#45; logo : Texture2D</text>
<text text-anchor="start" x="119.5" y="-65.8" font-family="Arial" font-size="8.00"># menu : Menu</text>
<polyline fill="none" stroke="black" points="111.5,-59 242.5,-59 "/>
<text text-anchor="start" x="119.5" y="-47.8" font-family="Arial" font-size="8.00">+ StartScreen (Game game)</text>
<text text-anchor="start" x="119.5" y="-37.8" font-family="Arial" font-size="8.00">+ Activate (GameTime time)</text>
<text text-anchor="start" x="119.5" y="-27.8" font-family="Arial" font-size="8.00">+ UpdateMenu (GameTime time)</text>
<text text-anchor="start" x="119.5" y="-17.8" font-family="Arial" font-size="8.00">+ DrawMenu (GameTime time)</text>
<text text-anchor="start" x="119.5" y="-7.8" font-family="Arial" font-size="8.00">+ Initialize ()</text>
</g>
<!-- Box_MenuScreen -->
<g id="node2" class="node"><title>Box_MenuScreen</title>
<polygon fill="#fcfcda" stroke="black" points="83,-153 83,-337 271,-337 271,-153 83,-153"/>
<text text-anchor="middle" x="177" y="-325.8" font-family="Arial" font-size="8.00">MenuScreen</text>
<polyline fill="none" stroke="black" points="83,-319 271,-319 "/>
<text text-anchor="start" x="91" y="-307.8" font-family="Arial" font-size="8.00">&#45; backColor : Color</text>
<text text-anchor="start" x="91" y="-297.8" font-family="Arial" font-size="8.00">&#45; pointer : MousePointer</text>
<text text-anchor="start" x="91" y="-287.8" font-family="Arial" font-size="8.00"># LinePoints : List&lt;Vector2&gt;</text>
<text text-anchor="start" x="91" y="-277.8" font-family="Arial" font-size="8.00"># LineWidth : int</text>
<text text-anchor="start" x="91" y="-267.8" font-family="Arial" font-size="8.00">&#45; spriteBatch : SpriteBatch</text>
<polyline fill="none" stroke="black" points="83,-261 271,-261 "/>
<text text-anchor="start" x="91" y="-249.8" font-family="Arial" font-size="8.00">+ MenuScreen (Core.Game game)</text>
<text text-anchor="start" x="91" y="-239.8" font-family="Arial" font-size="8.00">+ Activate (GameTime time)</text>
<text text-anchor="start" x="91" y="-229.8" font-family="Arial" font-size="8.00">+ Draw (GameTime time)</text>
<text text-anchor="start" x="91" y="-219.8" font-family="Arial" font-size="8.00"># BackgroundColor (ItemState itemState) : Color</text>
<text text-anchor="start" x="91" y="-209.8" font-family="Arial" font-size="8.00"># ForegroundColor (ItemState itemState) : Color</text>
<text text-anchor="start" x="91" y="-199.8" font-family="Arial" font-size="8.00">+ DrawMenu (GameTime time) abstract</text>
<text text-anchor="start" x="91" y="-189.8" font-family="Arial" font-size="8.00">+ UpdateMenu (GameTime time) abstract</text>
<text text-anchor="start" x="91" y="-179.8" font-family="Arial" font-size="8.00">+ Initialize ()</text>
<text text-anchor="start" x="91" y="-169.8" font-family="Arial" font-size="8.00">+ Unload ()</text>
<text text-anchor="start" x="91" y="-159.8" font-family="Arial" font-size="8.00">+ Update (GameTime time)</text>
</g>
<!-- Box_MenuScreen&#45;&gt;Box_StartScreen -->
<g id="edge2" class="edge"><title>Box_MenuScreen&#45;&gt;Box_StartScreen</title>
<path fill="none" stroke="midnightblue" d="M177,-142.596C177,-133.155 177,-123.836 177,-115.029"/>
<polygon fill="none" stroke="midnightblue" points="173.5,-142.87 177,-152.87 180.5,-142.87 173.5,-142.87"/>
</g>
<!-- Box_GameScreen -->
<g id="node3" class="node"><title>Box_GameScreen</title>
<polygon fill="#fcfcda" stroke="black" points="-0.5,-375 -0.5,-589 354.5,-589 354.5,-375 -0.5,-375"/>
<text text-anchor="middle" x="177" y="-577.8" font-family="Arial" font-size="8.00">GameScreen</text>
<polyline fill="none" stroke="black" points="-0.5,-571 354.5,-571 "/>
<text text-anchor="start" x="7.5" y="-559.8" font-family="Arial" font-size="8.00">+ content : ContentManager</text>
<text text-anchor="start" x="7.5" y="-549.8" font-family="Arial" font-size="8.00">+ NextState : GameScreen</text>
<text text-anchor="start" x="7.5" y="-539.8" font-family="Arial" font-size="8.00">+ device : GraphicsDevice</text>
<text text-anchor="start" x="7.5" y="-529.8" font-family="Arial" font-size="8.00">+ RenderEffects : RenderEffectStack</text>
<text text-anchor="start" x="7.5" y="-519.8" font-family="Arial" font-size="8.00">+ viewport : Viewport</text>
<text text-anchor="start" x="7.5" y="-509.8" font-family="Arial" font-size="8.00">+ game : Game</text>
<text text-anchor="start" x="7.5" y="-499.8" font-family="Arial" font-size="8.00">+ graphics : GraphicsDeviceManager</text>
<text text-anchor="start" x="7.5" y="-489.8" font-family="Arial" font-size="8.00">+ input : InputManager</text>
<text text-anchor="start" x="7.5" y="-479.8" font-family="Arial" font-size="8.00">+ PostProcessing : RenderEffect</text>
<polyline fill="none" stroke="black" points="-0.5,-473 354.5,-473 "/>
<text text-anchor="start" x="7.5" y="-461.8" font-family="Arial" font-size="8.00">+ Draw (GameTime time) abstract</text>
<text text-anchor="start" x="7.5" y="-451.8" font-family="Arial" font-size="8.00">+ Initialize () abstract</text>
<text text-anchor="start" x="7.5" y="-441.8" font-family="Arial" font-size="8.00">+ Unload () abstract</text>
<text text-anchor="start" x="7.5" y="-431.8" font-family="Arial" font-size="8.00">+ Activate (GameTime time) virtual</text>
<text text-anchor="start" x="7.5" y="-421.8" font-family="Arial" font-size="8.00">+ GameScreen (Game game)</text>
<text text-anchor="start" x="7.5" y="-411.8" font-family="Arial" font-size="8.00">+ Update (GameTime time) abstract</text>
<text text-anchor="start" x="7.5" y="-401.8" font-family="Arial" font-size="8.00">+ Deactivate (GameTime time) virtual</text>
<text text-anchor="start" x="7.5" y="-391.8" font-family="Arial" font-size="8.00">+ AddGameComponents (GameTime time, params IGameScreenComponent[] components)</text>
<text text-anchor="start" x="7.5" y="-381.8" font-family="Arial" font-size="8.00">+ RemoveGameComponents (GameTime time, params IGameScreenComponent[] components)</text>
</g>
<!-- Box_GameScreen&#45;&gt;Box_MenuScreen -->
<g id="edge4" class="edge"><title>Box_GameScreen&#45;&gt;Box_MenuScreen</title>
<path fill="none" stroke="midnightblue" d="M177,-364.846C177,-355.529 177,-346.201 177,-337.092"/>
<polygon fill="none" stroke="midnightblue" points="173.5,-364.941 177,-374.941 180.5,-364.941 173.5,-364.941"/>
</g>
</g>
</svg>
