<?xml version="1.0" encoding="UTF-8" standalone="no"?>
<!DOCTYPE svg PUBLIC "-//W3C//DTD SVG 1.1//EN"
 "http://www.w3.org/Graphics/SVG/1.1/DTD/svg11.dtd">
<!-- Generated by graphviz version 2.26.3 (20100126.1600)
 -->
<!-- Title: MenuItem Pages: 1 -->
<svg width="252pt" height="276pt"
 viewBox="0.00 0.00 252.00 276.00" xmlns="http://www.w3.org/2000/svg" xmlns:xlink="http://www.w3.org/1999/xlink">
<g id="graph1" class="graph" transform="scale(1 1) rotate(0) translate(4 272)">
<title>MenuItem</title>
<polygon fill="white" stroke="white" points="-4,5 -4,-272 249,-272 249,5 -4,5"/>
<!-- Box_IKnotFormat -->
<g id="node1" class="node"><title>Box_IKnotFormat</title>
<polygon fill="#dafcda" stroke="black" points="39.5,-171 39.5,-267 204.5,-267 204.5,-171 39.5,-171"/>
<text text-anchor="middle" x="122" y="-255.8" font-family="Helvetica,sans-Serif" font-size="8.00">IKnotFormat</text>
<polyline fill="none" stroke="black" points="39.5,-247 204.5,-247 "/>
<text text-anchor="start" x="47.5" y="-235.8" font-family="Helvetica,sans-Serif" font-size="8.00">+ FileExtensions : string[]</text>
<polyline fill="none" stroke="black" points="39.5,-227 204.5,-227 "/>
<text text-anchor="start" x="47.5" y="-215.8" font-family="Helvetica,sans-Serif" font-size="8.00">+ LoadInfo (string filename) : KnotInfo</text>
<text text-anchor="start" x="47.5" y="-203.8" font-family="Helvetica,sans-Serif" font-size="8.00">+ LoadKnot (string filename) : Knot</text>
<text text-anchor="start" x="47.5" y="-191.8" font-family="Helvetica,sans-Serif" font-size="8.00">+ SaveKnot (Knot knot)</text>
<text text-anchor="start" x="47.5" y="-179.8" font-family="Helvetica,sans-Serif" font-size="8.00">+ FindFilename (string knotName) : string</text>
</g>
<!-- Box_KnotListFormat -->
<g id="node2" class="node"><title>Box_KnotListFormat</title>
<polygon fill="#fcfcda" stroke="black" points="0,-1 0,-133 244,-133 244,-1 0,-1"/>
<text text-anchor="middle" x="122" y="-121.8" font-family="Helvetica,sans-Serif" font-size="8.00">KnotListFormat</text>
<polyline fill="none" stroke="black" points="0,-113 244,-113 "/>
<text text-anchor="start" x="8" y="-101.8" font-family="Helvetica,sans-Serif" font-size="8.00">+ FileExtensions : string[]</text>
<polyline fill="none" stroke="black" points="0,-93 244,-93 "/>
<text text-anchor="start" x="8" y="-81.8" font-family="Helvetica,sans-Serif" font-size="8.00">+ KnotListFormat ()</text>
<text text-anchor="start" x="8" y="-69.8" font-family="Helvetica,sans-Serif" font-size="8.00">+ LoadInfo (string filename) : KnotInfo</text>
<text text-anchor="start" x="8" y="-57.8" font-family="Helvetica,sans-Serif" font-size="8.00">+ LoadKnot (string filename) : Knot</text>
<text text-anchor="start" x="8" y="-45.8" font-family="Helvetica,sans-Serif" font-size="8.00">+ SaveKnot (Knot knot)</text>
<text text-anchor="start" x="8" y="-33.8" font-family="Helvetica,sans-Serif" font-size="8.00">+ FindFilename (string knotName) : string</text>
<text text-anchor="start" x="8" y="-21.8" font-family="Helvetica,sans-Serif" font-size="8.00">&#45; ParseLines (WrapList&lt;string&gt; lines, EdgeList edges) static</text>
<text text-anchor="start" x="8" y="-9.8" font-family="Helvetica,sans-Serif" font-size="8.00">&#45; ParseLine (string line, out Node? node, out Color? color) static</text>
</g>
<!-- Box_IKnotFormat&#45;&gt;Box_KnotListFormat -->
<g id="edge2" class="edge"><title>Box_IKnotFormat&#45;&gt;Box_KnotListFormat</title>
<path fill="none" stroke="midnightblue" d="M122,-160.848C122,-151.778 122,-142.348 122,-133.117"/>
<polygon fill="none" stroke="midnightblue" points="118.5,-160.906 122,-170.906 125.5,-160.906 118.5,-160.906"/>
</g>
</g>
</svg>
