<?xml version="1.0" encoding="UTF-8" standalone="no"?>
<!DOCTYPE svg PUBLIC "-//W3C//DTD SVG 1.1//EN"
 "http://www.w3.org/Graphics/SVG/1.1/DTD/svg11.dtd">
<!-- Generated by graphviz version 2.26.3 (20100126.1600)
 -->
<!-- Title: MenuItem Pages: 1 -->
<svg width="779pt" height="954pt"
 viewBox="0.00 0.00 779.00 954.00" xmlns="http://www.w3.org/2000/svg" xmlns:xlink="http://www.w3.org/1999/xlink">
<g id="graph1" class="graph" transform="scale(1 1) rotate(0) translate(4 950)">
<title>MenuItem</title>
<polygon fill="white" stroke="white" points="-4,5 -4,-950 776,-950 776,5 -4,5"/>
<!-- Box_Widget -->
<g id="node1" class="node"><title>Box_Widget</title>
<polygon fill="#fcfcda" stroke="black" points="452,-583 452,-667 718,-667 718,-583 452,-583"/>
<text text-anchor="middle" x="585" y="-655.8" font-family="Helvetica,sans-Serif" font-size="8.00">Widget</text>
<polyline fill="none" stroke="black" points="452,-647 718,-647 "/>
<text text-anchor="start" x="460" y="-635.8" font-family="Helvetica,sans-Serif" font-size="8.00">+ Info : WidgetInfo</text>
<text text-anchor="start" x="460" y="-623.8" font-family="Helvetica,sans-Serif" font-size="8.00">+ IsVisible : bool virtual</text>
<polyline fill="none" stroke="black" points="452,-615 718,-615 "/>
<text text-anchor="start" x="460" y="-603.8" font-family="Helvetica,sans-Serif" font-size="8.00">+ Widget (GameState state, WidgetInfo info, DisplayLayer drawOrder)</text>
<text text-anchor="start" x="460" y="-591.8" font-family="Helvetica,sans-Serif" font-size="8.00">+ bounds () : Rectangle</text>
</g>
<!-- Box_ItemWidget -->
<g id="node7" class="node"><title>Box_ItemWidget</title>
<polygon fill="#fcfcda" stroke="black" points="420.5,-473 420.5,-545 749.5,-545 749.5,-473 420.5,-473"/>
<text text-anchor="middle" x="585" y="-533.8" font-family="Helvetica,sans-Serif" font-size="8.00">ItemWidget</text>
<polyline fill="none" stroke="black" points="420.5,-525 749.5,-525 "/>
<text text-anchor="start" x="428.5" y="-513.8" font-family="Helvetica,sans-Serif" font-size="8.00"># ItemNum : int</text>
<text text-anchor="start" x="428.5" y="-501.8" font-family="Helvetica,sans-Serif" font-size="8.00">+ ItemState : ItemState</text>
<polyline fill="none" stroke="black" points="420.5,-493 749.5,-493 "/>
<text text-anchor="start" x="428.5" y="-481.8" font-family="Helvetica,sans-Serif" font-size="8.00">+ ItemWidget (GameState state, WidgetInfo info, DisplayLayer drawOrder, int itemNum)</text>
</g>
<!-- Box_Widget&#45;&gt;Box_ItemWidget -->
<g id="edge20" class="edge"><title>Box_Widget&#45;&gt;Box_ItemWidget</title>
<path fill="none" stroke="midnightblue" d="M585,-572.517C585,-563.299 585,-553.894 585,-545.245"/>
<polygon fill="none" stroke="midnightblue" points="581.5,-572.793 585,-582.793 588.5,-572.793 581.5,-572.793"/>
</g>
<!-- Box_DrawableGameStateComponent -->
<g id="node2" class="node"><title>Box_DrawableGameStateComponent</title>
<polygon fill="#fcfcda" stroke="black" points="414.5,-705 414.5,-789 755.5,-789 755.5,-705 414.5,-705"/>
<text text-anchor="middle" x="585" y="-777.8" font-family="Helvetica,sans-Serif" font-size="8.00">DrawableGameStateComponent</text>
<polyline fill="none" stroke="black" points="414.5,-769 755.5,-769 "/>
<text text-anchor="start" x="422.5" y="-757.8" font-family="Helvetica,sans-Serif" font-size="8.00">+ state : GameState</text>
<text text-anchor="start" x="422.5" y="-745.8" font-family="Helvetica,sans-Serif" font-size="8.00">+ Index : int</text>
<polyline fill="none" stroke="black" points="414.5,-737 755.5,-737 "/>
<text text-anchor="start" x="422.5" y="-725.8" font-family="Helvetica,sans-Serif" font-size="8.00">+ DrawableGameStateComponent (GameState state, DisplayLayer drawOrder)</text>
<text text-anchor="start" x="422.5" y="-713.8" font-family="Helvetica,sans-Serif" font-size="8.00">+ SubComponents (GameTime gameTime) : IEnumerable&lt;IGameStateComponent&gt; virtual</text>
</g>
<!-- Box_DrawableGameStateComponent&#45;&gt;Box_Widget -->
<g id="edge2" class="edge"><title>Box_DrawableGameStateComponent&#45;&gt;Box_Widget</title>
<path fill="none" stroke="midnightblue" d="M585,-694.537C585,-685.423 585,-676.05 585,-667.252"/>
<polygon fill="none" stroke="midnightblue" points="581.5,-694.673 585,-704.673 588.5,-694.673 581.5,-694.673"/>
</g>
<!-- Box_IGameStateComponent -->
<g id="node3" class="node"><title>Box_IGameStateComponent</title>
<polygon fill="#dafcda" stroke="black" points="305,-827 305,-887 623,-887 623,-827 305,-827"/>
<text text-anchor="middle" x="464" y="-875.8" font-family="Helvetica,sans-Serif" font-size="8.00">IGameStateComponent</text>
<polyline fill="none" stroke="black" points="305,-867 623,-867 "/>
<text text-anchor="start" x="313" y="-855.8" font-family="Helvetica,sans-Serif" font-size="8.00">+ Index : int</text>
<polyline fill="none" stroke="black" points="305,-847 623,-847 "/>
<text text-anchor="start" x="313" y="-835.8" font-family="Helvetica,sans-Serif" font-size="8.00">+ SubComponents (GameTime gameTime) : IEnumerable&lt;IGameStateComponent&gt;</text>
</g>
<!-- Box_IGameStateComponent&#45;&gt;Box_DrawableGameStateComponent -->
<g id="edge6" class="edge"><title>Box_IGameStateComponent&#45;&gt;Box_DrawableGameStateComponent</title>
<path fill="none" stroke="midnightblue" d="M504.738,-819.965C515.538,-810.147 527.282,-799.47 538.37,-789.391"/>
<polygon fill="none" stroke="midnightblue" points="502.109,-817.625 497.064,-826.942 506.818,-822.805 502.109,-817.625"/>
</g>
<!-- Box_MenuItem -->
<g id="node4" class="node"><title>Box_MenuItem</title>
<polygon fill="#fcfcda" stroke="black" points="195.5,-219 195.5,-435 530.5,-435 530.5,-219 195.5,-219"/>
<text text-anchor="middle" x="363" y="-423.8" font-family="Helvetica,sans-Serif" font-size="8.00">MenuItem</text>
<polyline fill="none" stroke="black" points="195.5,-415 530.5,-415 "/>
<text text-anchor="start" x="203.5" y="-403.8" font-family="Helvetica,sans-Serif" font-size="8.00">+ Info : MenuItemInfo new</text>
<text text-anchor="start" x="203.5" y="-391.8" font-family="Helvetica,sans-Serif" font-size="8.00"># spriteBatch : SpriteBatch</text>
<text text-anchor="start" x="203.5" y="-379.8" font-family="Helvetica,sans-Serif" font-size="8.00">+ ValidKeys : List&lt;Keys&gt;</text>
<text text-anchor="start" x="203.5" y="-367.8" font-family="Helvetica,sans-Serif" font-size="8.00">+ IsKeyEventEnabled : bool</text>
<text text-anchor="start" x="203.5" y="-355.8" font-family="Helvetica,sans-Serif" font-size="8.00">+ IsMouseEventEnabled : bool</text>
<polyline fill="none" stroke="black" points="195.5,-347 530.5,-347 "/>
<text text-anchor="start" x="203.5" y="-335.8" font-family="Helvetica,sans-Serif" font-size="8.00">+ MenuItem (GameState state, DisplayLayer drawOrder, int itemNum, MenuItemInfo info)</text>
<text text-anchor="start" x="203.5" y="-323.8" font-family="Helvetica,sans-Serif" font-size="8.00">+ Draw (GameTime gameTime) override</text>
<text text-anchor="start" x="203.5" y="-311.8" font-family="Helvetica,sans-Serif" font-size="8.00">+ TextPosition (SpriteFont font) : Vector2</text>
<text text-anchor="start" x="203.5" y="-299.8" font-family="Helvetica,sans-Serif" font-size="8.00">+ TextPosition (SpriteFont font, Vector2 scale) : Vector2</text>
<text text-anchor="start" x="203.5" y="-287.8" font-family="Helvetica,sans-Serif" font-size="8.00">+ MinimumSize (SpriteFont font) : Vector2</text>
<text text-anchor="start" x="203.5" y="-275.8" font-family="Helvetica,sans-Serif" font-size="8.00">+ OnLeftClick (Vector2 position, ClickState click, GameTime gameTime)</text>
<text text-anchor="start" x="203.5" y="-263.8" font-family="Helvetica,sans-Serif" font-size="8.00">+ OnRightClick (Vector2 position, ClickState click, GameTime gameTime)</text>
<text text-anchor="start" x="203.5" y="-251.8" font-family="Helvetica,sans-Serif" font-size="8.00">+ OnKeyEvent (List&lt;Keys&gt; key, KeyEvent keyEvent, GameTime gameTime)</text>
<text text-anchor="start" x="203.5" y="-239.8" font-family="Helvetica,sans-Serif" font-size="8.00">+ SetHovered (bool hovered)</text>
<text text-anchor="start" x="203.5" y="-227.8" font-family="Helvetica,sans-Serif" font-size="8.00">+ Collapse () virtual</text>
</g>
<!-- Box_DropDownMenu -->
<g id="node5" class="node"><title>Box_DropDownMenu</title>
<polygon fill="#fcfcda" stroke="black" points="-0.5,-1 -0.5,-181 358.5,-181 358.5,-1 -0.5,-1"/>
<text text-anchor="middle" x="179" y="-169.8" font-family="Helvetica,sans-Serif" font-size="8.00">DropDownMenu</text>
<polyline fill="none" stroke="black" points="-0.5,-161 358.5,-161 "/>
<text text-anchor="start" x="7.5" y="-149.8" font-family="Helvetica,sans-Serif" font-size="8.00">&#45; dropdown : VerticalMenu</text>
<text text-anchor="start" x="7.5" y="-137.8" font-family="Helvetica,sans-Serif" font-size="8.00">&#45; selected : MenuButton</text>
<polyline fill="none" stroke="black" points="-0.5,-129 358.5,-129 "/>
<text text-anchor="start" x="7.5" y="-117.8" font-family="Helvetica,sans-Serif" font-size="8.00">+ DropDownMenu (GameState state, DisplayLayer drawOrder, int itemNum, MenuItemInfo info)</text>
<text text-anchor="start" x="7.5" y="-105.8" font-family="Helvetica,sans-Serif" font-size="8.00">+ AddEntries (DropDownMenuItem[] entries, DropDownMenuItem defaultEntry)</text>
<text text-anchor="start" x="7.5" y="-93.8" font-family="Helvetica,sans-Serif" font-size="8.00">+ AddEntries (DistinctOptionInfo option)</text>
<text text-anchor="start" x="7.5" y="-81.8" font-family="Helvetica,sans-Serif" font-size="8.00">+ SubComponents (GameTime gameTime) : IEnumerable&lt;IGameStateComponent&gt; override</text>
<text text-anchor="start" x="7.5" y="-69.8" font-family="Helvetica,sans-Serif" font-size="8.00">+ Collapse () override</text>
<text text-anchor="start" x="7.5" y="-57.8" font-family="Helvetica,sans-Serif" font-size="8.00">+ Draw (GameTime gameTime) override</text>
<text text-anchor="start" x="7.5" y="-45.8" font-family="Helvetica,sans-Serif" font-size="8.00">&#45; ValuePosition (int dummy = 0) : Vector2</text>
<text text-anchor="start" x="7.5" y="-33.8" font-family="Helvetica,sans-Serif" font-size="8.00">&#45; ValueSize (int dummy = 0) : Vector2</text>
<text text-anchor="start" x="7.5" y="-21.8" font-family="Helvetica,sans-Serif" font-size="8.00">&#45; DropDownBackgroundColor (ItemState itemState) : Color</text>
<text text-anchor="start" x="7.5" y="-9.8" font-family="Helvetica,sans-Serif" font-size="8.00">&#45; DropDownForegroundColor (ItemState itemState) : Color</text>
</g>
<!-- Box_MenuItem&#45;&gt;Box_DropDownMenu -->
<g id="edge16" class="edge"><title>Box_MenuItem&#45;&gt;Box_DropDownMenu</title>
<path fill="none" stroke="midnightblue" d="M272.371,-210.758C264.67,-200.881 256.957,-190.988 249.447,-181.355"/>
<polygon fill="none" stroke="midnightblue" points="269.63,-212.936 278.539,-218.67 275.151,-208.632 269.63,-212.936"/>
</g>
<!-- Box_MenuButton -->
<g id="node6" class="node"><title>Box_MenuButton</title>
<polygon fill="#fcfcda" stroke="black" points="375.5,-61 375.5,-121 718.5,-121 718.5,-61 375.5,-61"/>
<text text-anchor="middle" x="547" y="-109.8" font-family="Helvetica,sans-Serif" font-size="8.00">MenuButton</text>
<polyline fill="none" stroke="black" points="375.5,-101 718.5,-101 "/>
<text text-anchor="middle" x="547" y="-89.8" font-family="Helvetica,sans-Serif" font-size="8.00"> </text>
<polyline fill="none" stroke="black" points="375.5,-81 718.5,-81 "/>
<text text-anchor="start" x="383.5" y="-69.8" font-family="Helvetica,sans-Serif" font-size="8.00">+ MenuButton (GameState state, DisplayLayer drawOrder, int itemNum, MenuItemInfo info)</text>
</g>
<!-- Box_MenuItem&#45;&gt;Box_MenuButton -->
<g id="edge18" class="edge"><title>Box_MenuItem&#45;&gt;Box_MenuButton</title>
<path fill="none" stroke="midnightblue" d="M453.677,-210.697C479.553,-177.508 505.569,-144.139 523.534,-121.097"/>
<polygon fill="none" stroke="midnightblue" points="450.849,-208.632 447.461,-218.67 456.37,-212.936 450.849,-208.632"/>
</g>
<!-- Box_ItemWidget&#45;&gt;Box_MenuItem -->
<g id="edge10" class="edge"><title>Box_ItemWidget&#45;&gt;Box_MenuItem</title>
<path fill="none" stroke="midnightblue" d="M532.976,-466.349C521.267,-456.75 508.325,-446.14 494.962,-435.185"/>
<polygon fill="none" stroke="midnightblue" points="530.922,-469.192 540.875,-472.825 535.36,-463.778 530.922,-469.192"/>
</g>
<!-- Box_XnaDrawableGameComponent -->
<g id="node8" class="node"><title>Box_XnaDrawableGameComponent</title>
<polygon fill="#ffffff" stroke="black" points="640.5,-847 640.5,-867 771.5,-867 771.5,-847 640.5,-847"/>
<text text-anchor="middle" x="706" y="-855.8" font-family="Helvetica,sans-Serif" font-size="8.00">Xna.DrawableGameComponent</text>
</g>
<!-- Box_XnaDrawableGameComponent&#45;&gt;Box_DrawableGameStateComponent -->
<g id="edge4" class="edge"><title>Box_XnaDrawableGameComponent&#45;&gt;Box_DrawableGameStateComponent</title>
<path fill="none" stroke="midnightblue" d="M687.298,-839.998C672.412,-826.466 650.923,-806.93 631.479,-789.254"/>
<polygon fill="none" stroke="midnightblue" points="685.08,-842.712 694.833,-846.849 689.788,-837.532 685.08,-842.712"/>
</g>
<!-- Box_XnaIGameComponent -->
<g id="node9" class="node"><title>Box_XnaIGameComponent</title>
<polygon fill="#ffffff" stroke="black" points="414.5,-925 414.5,-945 513.5,-945 513.5,-925 414.5,-925"/>
<text text-anchor="middle" x="464" y="-933.8" font-family="Helvetica,sans-Serif" font-size="8.00">Xna.IGameComponent</text>
</g>
<!-- Box_XnaIGameComponent&#45;&gt;Box_IGameStateComponent -->
<g id="edge8" class="edge"><title>Box_XnaIGameComponent&#45;&gt;Box_IGameStateComponent</title>
<path fill="none" stroke="midnightblue" d="M464,-914.777C464,-906.329 464,-896.337 464,-887.059"/>
<polygon fill="none" stroke="midnightblue" points="460.5,-914.803 464,-924.803 467.5,-914.803 460.5,-914.803"/>
</g>
<!-- Box_IMouseEventListener -->
<g id="node10" class="node"><title>Box_IMouseEventListener</title>
<polygon fill="#ffffff" stroke="black" points="213,-499 213,-519 305,-519 305,-499 213,-499"/>
<text text-anchor="middle" x="259" y="-507.8" font-family="Helvetica,sans-Serif" font-size="8.00">IMouseEventListener</text>
</g>
<!-- Box_IMouseEventListener&#45;&gt;Box_MenuItem -->
<g id="edge12" class="edge"><title>Box_IMouseEventListener&#45;&gt;Box_MenuItem</title>
<path fill="none" stroke="midnightblue" d="M269.83,-490.047C277.728,-476.226 289.134,-456.266 301.273,-435.023"/>
<polygon fill="none" stroke="midnightblue" points="266.662,-488.537 264.74,-498.956 272.74,-492.01 266.662,-488.537"/>
</g>
<!-- Box_IKeyEventListener -->
<g id="node11" class="node"><title>Box_IKeyEventListener</title>
<polygon fill="#ffffff" stroke="black" points="322.5,-499 322.5,-519 403.5,-519 403.5,-499 322.5,-499"/>
<text text-anchor="middle" x="363" y="-507.8" font-family="Helvetica,sans-Serif" font-size="8.00">IKeyEventListener</text>
</g>
<!-- Box_IKeyEventListener&#45;&gt;Box_MenuItem -->
<g id="edge14" class="edge"><title>Box_IKeyEventListener&#45;&gt;Box_MenuItem</title>
<path fill="none" stroke="midnightblue" d="M363,-488.824C363,-475.063 363,-455.648 363,-435.023"/>
<polygon fill="none" stroke="midnightblue" points="359.5,-488.956 363,-498.956 366.5,-488.956 359.5,-488.956"/>
</g>
</g>
</svg>
