<?xml version="1.0" encoding="UTF-8" standalone="no"?>
<!DOCTYPE svg PUBLIC "-//W3C//DTD SVG 1.1//EN"
 "http://www.w3.org/Graphics/SVG/1.1/DTD/svg11.dtd">
<!-- Generated by graphviz version 2.26.3 (20100126.1600)
 -->
<!-- Title: MenuItem Pages: 1 -->
<svg width="182pt" height="320pt"
 viewBox="0.00 0.00 182.00 320.00" xmlns="http://www.w3.org/2000/svg" xmlns:xlink="http://www.w3.org/1999/xlink">
<g id="graph1" class="graph" transform="scale(1 1) rotate(0) translate(4 316)">
<title>MenuItem</title>
<polygon fill="white" stroke="white" points="-4,5 -4,-316 179,-316 179,5 -4,5"/>
<!-- Box_Node -->
<g id="node1" class="node"><title>Box_Node</title>
<polygon fill="#fcfcda" stroke="black" points="0,-1 0,-253 174,-253 174,-1 0,-1"/>
<text text-anchor="middle" x="87" y="-241.8" font-family="Helvetica,sans-Serif" font-size="8.00">Node</text>
<polyline fill="none" stroke="black" points="0,-233 174,-233 "/>
<text text-anchor="start" x="8" y="-221.8" font-family="Helvetica,sans-Serif" font-size="8.00">Attributes:</text>
<text text-anchor="start" x="8" y="-209.8" font-family="Helvetica,sans-Serif" font-size="8.00">+ X : int</text>
<text text-anchor="start" x="8" y="-197.8" font-family="Helvetica,sans-Serif" font-size="8.00">+ Y : int</text>
<text text-anchor="start" x="8" y="-185.8" font-family="Helvetica,sans-Serif" font-size="8.00">+ Z : int</text>
<text text-anchor="start" x="8" y="-173.8" font-family="Helvetica,sans-Serif" font-size="8.00">+ Scale : int static</text>
<text text-anchor="start" x="8" y="-161.8" font-family="Helvetica,sans-Serif" font-size="8.00">Methods:</text>
<polyline fill="none" stroke="black" points="0,-153 174,-153 "/>
<text text-anchor="start" x="8" y="-141.8" font-family="Helvetica,sans-Serif" font-size="8.00">+ GetHashCode () : int</text>
<text text-anchor="start" x="8" y="-129.8" font-family="Helvetica,sans-Serif" font-size="8.00">+ Node (int x, int y, int z) : this()</text>
<text text-anchor="start" x="8" y="-117.8" font-family="Helvetica,sans-Serif" font-size="8.00">+ CenterBetween (Node other) : Vector3</text>
<text text-anchor="start" x="8" y="-105.8" font-family="Helvetica,sans-Serif" font-size="8.00">+ Vector () : Vector3</text>
<text text-anchor="start" x="8" y="-93.8" font-family="Helvetica,sans-Serif" font-size="8.00">+ Equals (Node other) : bool</text>
<text text-anchor="start" x="8" y="-81.8" font-family="Helvetica,sans-Serif" font-size="8.00">+ Clone () : object</text>
<text text-anchor="start" x="8" y="-69.8" font-family="Helvetica,sans-Serif" font-size="8.00">+ Equals (object obj) : bool</text>
<text text-anchor="start" x="8" y="-57.8" font-family="Helvetica,sans-Serif" font-size="8.00">+ ToString () : string</text>
<text text-anchor="start" x="8" y="-45.8" font-family="Helvetica,sans-Serif" font-size="8.00">+ operator (Node a, Vector3 b) : Node static</text>
<text text-anchor="start" x="8" y="-33.8" font-family="Helvetica,sans-Serif" font-size="8.00">&#45; operator (Node a, Node b) : Vector3 static</text>
<text text-anchor="start" x="8" y="-21.8" font-family="Helvetica,sans-Serif" font-size="8.00">+ operator ! (Node a, Node b) : bool static</text>
<text text-anchor="start" x="8" y="-9.8" font-family="Helvetica,sans-Serif" font-size="8.00">+ operator (Node a, Node b) : bool static</text>
</g>
<!-- Box_IEquatable -->
<g id="node2" class="node"><title>Box_IEquatable</title>
<polygon fill="#ffffff" stroke="black" points="2.5,-291 2.5,-311 85.5,-311 85.5,-291 2.5,-291"/>
<text text-anchor="middle" x="44" y="-299.8" font-family="Helvetica,sans-Serif" font-size="8.00">IEquatable&lt;Node&gt;</text>
</g>
<!-- Box_IEquatable&#45;&gt;Box_Node -->
<g id="edge2" class="edge"><title>Box_IEquatable&#45;&gt;Box_Node</title>
<path fill="none" stroke="midnightblue" d="M48.9601,-280.929C50.8722,-273.192 53.2249,-263.671 55.8146,-253.192"/>
<polygon fill="none" stroke="midnightblue" points="45.4991,-280.345 46.4977,-290.893 52.2947,-282.025 45.4991,-280.345"/>
</g>
<!-- Box_ICloneable -->
<g id="node3" class="node"><title>Box_ICloneable</title>
<polygon fill="#ffffff" stroke="black" points="102.5,-291 102.5,-311 157.5,-311 157.5,-291 102.5,-291"/>
<text text-anchor="middle" x="130" y="-299.8" font-family="Helvetica,sans-Serif" font-size="8.00">ICloneable</text>
</g>
<!-- Box_ICloneable&#45;&gt;Box_Node -->
<g id="edge4" class="edge"><title>Box_ICloneable&#45;&gt;Box_Node</title>
<path fill="none" stroke="midnightblue" d="M125.04,-280.929C123.128,-273.192 120.775,-263.671 118.185,-253.192"/>
<polygon fill="none" stroke="midnightblue" points="121.705,-282.025 127.502,-290.893 128.501,-280.345 121.705,-282.025"/>
</g>
</g>
</svg>
