<?xml version="1.0" encoding="UTF-8" standalone="no"?>
<!DOCTYPE svg PUBLIC "-//W3C//DTD SVG 1.1//EN"
 "http://www.w3.org/Graphics/SVG/1.1/DTD/svg11.dtd">
<!-- Generated by graphviz version 2.26.3 (20100126.1600)
 -->
<!-- Title: MenuItem Pages: 1 -->
<svg width="2550pt" height="2150pt"
 viewBox="0.00 0.00 612.00 516.00" xmlns="http://www.w3.org/2000/svg" xmlns:xlink="http://www.w3.org/1999/xlink">
<g id="graph1" class="graph" transform="scale(4.16667 4.16667) rotate(0) translate(4 512)">
<title>MenuItem</title>
<polygon fill="white" stroke="white" points="-4,5 -4,-512 609,-512 609,5 -4,5"/>
<!-- Box_TextInput -->
<g id="node1" class="node"><title>Box_TextInput</title>
<polygon fill="#fcfcda" stroke="black" points="132,-1 132,-125 424,-125 424,-1 132,-1"/>
<text text-anchor="middle" x="278" y="-113.8" font-family="Arial" font-size="8.00">TextInput</text>
<polyline fill="none" stroke="black" points="132,-107 424,-107 "/>
<text text-anchor="start" x="140" y="-95.8" font-family="Arial" font-size="8.00">&#45; font : SpriteFont</text>
<text text-anchor="start" x="140" y="-85.8" font-family="Arial" font-size="8.00"># spriteBatch : SpriteBatch</text>
<text text-anchor="start" x="140" y="-75.8" font-family="Arial" font-size="8.00">+ IsKeyEventEnabled : bool</text>
<text text-anchor="start" x="140" y="-65.8" font-family="Arial" font-size="8.00">+ ValidKeys : List&lt;Keys&gt;</text>
<text text-anchor="start" x="140" y="-55.8" font-family="Arial" font-size="8.00">+ InputText : string</text>
<polyline fill="none" stroke="black" points="132,-49 424,-49 "/>
<text text-anchor="start" x="140" y="-37.8" font-family="Arial" font-size="8.00">+ TextInput (GameScreen screen, WidgetInfo info, DisplayLayer drawOrder)</text>
<text text-anchor="start" x="140" y="-27.8" font-family="Arial" font-size="8.00">+ Draw (GameTime time)</text>
<text text-anchor="start" x="140" y="-17.8" font-family="Arial" font-size="8.00">+ OnKeyEvent (List&lt;Keys&gt; key, KeyEvent keyEvent, GameTime time)</text>
<text text-anchor="start" x="140" y="-7.8" font-family="Arial" font-size="8.00">+ Update (GameTime time)</text>
</g>
<!-- Box_IKeyEventListener -->
<g id="node2" class="node"><title>Box_IKeyEventListener</title>
<polygon fill="#dafcda" stroke="black" points="-0.5,-163 -0.5,-237 264.5,-237 264.5,-163 -0.5,-163"/>
<text text-anchor="middle" x="132" y="-225.8" font-family="Arial" font-size="8.00">IKeyEventListener</text>
<polyline fill="none" stroke="black" points="-0.5,-219 264.5,-219 "/>
<text text-anchor="start" x="7.5" y="-207.8" font-family="Arial" font-size="8.00">+ ValidKeys : List&lt;Keys&gt;</text>
<text text-anchor="start" x="7.5" y="-197.8" font-family="Arial" font-size="8.00">+ Index : DisplayLayer</text>
<text text-anchor="start" x="7.5" y="-187.8" font-family="Arial" font-size="8.00">+ IsKeyEventEnabled : bool</text>
<polyline fill="none" stroke="black" points="-0.5,-181 264.5,-181 "/>
<text text-anchor="start" x="7.5" y="-169.8" font-family="Arial" font-size="8.00">+ OnKeyEvent (List&lt;Keys&gt; key, KeyEvent keyEvent, GameTime time)</text>
</g>
<!-- Box_IKeyEventListener&#45;&gt;Box_TextInput -->
<g id="edge4" class="edge"><title>Box_IKeyEventListener&#45;&gt;Box_TextInput</title>
<path fill="none" stroke="midnightblue" d="M178.958,-155.937C189.405,-146.133 200.672,-135.561 211.731,-125.184"/>
<polygon fill="none" stroke="midnightblue" points="176.407,-153.531 171.51,-162.926 181.197,-158.635 176.407,-153.531"/>
</g>
<!-- Box_Widget -->
<g id="node3" class="node"><title>Box_Widget</title>
<polygon fill="#fcfcda" stroke="black" points="282,-163 282,-237 566,-237 566,-163 282,-163"/>
<text text-anchor="middle" x="424" y="-225.8" font-family="Arial" font-size="8.00">Widget</text>
<polyline fill="none" stroke="black" points="282,-219 566,-219 "/>
<text text-anchor="start" x="290" y="-207.8" font-family="Arial" font-size="8.00">+ Info : WidgetInfo</text>
<text text-anchor="start" x="290" y="-197.8" font-family="Arial" font-size="8.00">+ IsVisible : bool virtual</text>
<polyline fill="none" stroke="black" points="282,-191 566,-191 "/>
<text text-anchor="start" x="290" y="-179.8" font-family="Arial" font-size="8.00">+ bounds () : Rectangle</text>
<text text-anchor="start" x="290" y="-169.8" font-family="Arial" font-size="8.00">+ Widget (GameScreen screen, WidgetInfo info, DisplayLayer drawOrder)</text>
</g>
<!-- Box_Widget&#45;&gt;Box_TextInput -->
<g id="edge2" class="edge"><title>Box_Widget&#45;&gt;Box_TextInput</title>
<path fill="none" stroke="midnightblue" d="M377.042,-155.937C366.595,-146.133 355.328,-135.561 344.269,-125.184"/>
<polygon fill="none" stroke="midnightblue" points="374.803,-158.635 384.49,-162.926 379.593,-153.531 374.803,-158.635"/>
</g>
<!-- Box_DrawableGameScreenComponent -->
<g id="node4" class="node"><title>Box_DrawableGameScreenComponent</title>
<polygon fill="#fcfcda" stroke="black" points="265.5,-275 265.5,-359 582.5,-359 582.5,-275 265.5,-275"/>
<text text-anchor="middle" x="424" y="-347.8" font-family="Arial" font-size="8.00">DrawableGameScreenComponent</text>
<polyline fill="none" stroke="black" points="265.5,-341 582.5,-341 "/>
<text text-anchor="start" x="273.5" y="-329.8" font-family="Arial" font-size="8.00">+ Index : DisplayLayer</text>
<text text-anchor="start" x="273.5" y="-319.8" font-family="Arial" font-size="8.00">&#45; _index : DisplayLayer</text>
<text text-anchor="start" x="273.5" y="-309.8" font-family="Arial" font-size="8.00">+ screen : GameScreen</text>
<polyline fill="none" stroke="black" points="265.5,-303 582.5,-303 "/>
<text text-anchor="start" x="273.5" y="-291.8" font-family="Arial" font-size="8.00">+ DrawableGameScreenComponent (GameScreen screen, DisplayLayer index)</text>
<text text-anchor="start" x="273.5" y="-281.8" font-family="Arial" font-size="8.00">+ SubComponents (GameTime time) : IEnumerable&lt;IGameScreenComponent&gt; virtual</text>
</g>
<!-- Box_DrawableGameScreenComponent&#45;&gt;Box_Widget -->
<g id="edge6" class="edge"><title>Box_DrawableGameScreenComponent&#45;&gt;Box_Widget</title>
<path fill="none" stroke="midnightblue" d="M424,-264.482C424,-255.258 424,-245.834 424,-237.14"/>
<polygon fill="none" stroke="midnightblue" points="420.5,-264.76 424,-274.76 427.5,-264.76 420.5,-264.76"/>
</g>
<!-- Box_IGameScreenComponent -->
<g id="node5" class="node"><title>Box_IGameScreenComponent</title>
<polygon fill="#dafcda" stroke="black" points="163.5,-397 163.5,-451 456.5,-451 456.5,-397 163.5,-397"/>
<text text-anchor="middle" x="310" y="-439.8" font-family="Arial" font-size="8.00">IGameScreenComponent</text>
<polyline fill="none" stroke="black" points="163.5,-433 456.5,-433 "/>
<text text-anchor="start" x="171.5" y="-421.8" font-family="Arial" font-size="8.00">+ Index : DisplayLayer</text>
<polyline fill="none" stroke="black" points="163.5,-415 456.5,-415 "/>
<text text-anchor="start" x="171.5" y="-403.8" font-family="Arial" font-size="8.00">+ SubComponents (GameTime time) : IEnumerable&lt;IGameScreenComponent&gt;</text>
</g>
<!-- Box_IGameScreenComponent&#45;&gt;Box_DrawableGameScreenComponent -->
<g id="edge10" class="edge"><title>Box_IGameScreenComponent&#45;&gt;Box_DrawableGameScreenComponent</title>
<path fill="none" stroke="midnightblue" d="M346.116,-390.102C356.502,-380.354 367.961,-369.598 378.821,-359.404"/>
<polygon fill="none" stroke="midnightblue" points="343.663,-387.604 338.767,-396.999 348.454,-392.708 343.663,-387.604"/>
</g>
<!-- Box_XnaDrawableGameComponent -->
<g id="node6" class="node"><title>Box_XnaDrawableGameComponent</title>
<polygon fill="#ffffff" stroke="black" points="474,-415 474,-433 604,-433 604,-415 474,-415"/>
<text text-anchor="middle" x="539" y="-421.8" font-family="Arial" font-size="8.00">Xna.DrawableGameComponent</text>
</g>
<!-- Box_XnaDrawableGameComponent&#45;&gt;Box_DrawableGameScreenComponent -->
<g id="edge8" class="edge"><title>Box_XnaDrawableGameComponent&#45;&gt;Box_DrawableGameScreenComponent</title>
<path fill="none" stroke="midnightblue" d="M521.824,-408.018C507.966,-395.124 487.815,-376.376 469.399,-359.241"/>
<polygon fill="none" stroke="midnightblue" points="519.49,-410.628 529.195,-414.877 524.258,-405.503 519.49,-410.628"/>
</g>
<!-- Box_XnaIGameComponent -->
<g id="node7" class="node"><title>Box_XnaIGameComponent</title>
<polygon fill="#ffffff" stroke="black" points="262,-489 262,-507 358,-507 358,-489 262,-489"/>
<text text-anchor="middle" x="310" y="-495.8" font-family="Arial" font-size="8.00">Xna.IGameComponent</text>
</g>
<!-- Box_XnaIGameComponent&#45;&gt;Box_IGameScreenComponent -->
<g id="edge12" class="edge"><title>Box_XnaIGameComponent&#45;&gt;Box_IGameScreenComponent</title>
<path fill="none" stroke="midnightblue" d="M310,-478.64C310,-470.2 310,-460.16 310,-451.004"/>
<polygon fill="none" stroke="midnightblue" points="306.5,-478.926 310,-488.926 313.5,-478.926 306.5,-478.926"/>
</g>
</g>
</svg>
