<?xml version="1.0" encoding="UTF-8" standalone="no"?>
<!DOCTYPE svg PUBLIC "-//W3C//DTD SVG 1.1//EN"
 "http://www.w3.org/Graphics/SVG/1.1/DTD/svg11.dtd">
<!-- Generated by graphviz version 2.26.3 (20100126.1600)
 -->
<!-- Title: MenuItem Pages: 1 -->
<svg width="662pt" height="578pt"
 viewBox="0.00 0.00 662.00 578.00" xmlns="http://www.w3.org/2000/svg" xmlns:xlink="http://www.w3.org/1999/xlink">
<g id="graph1" class="graph" transform="scale(1 1) rotate(0) translate(4 574)">
<title>MenuItem</title>
<polygon fill="white" stroke="white" points="-4,5 -4,-574 659,-574 659,5 -4,5"/>
<!-- Box_IGameObject -->
<g id="node1" class="node"><title>Box_IGameObject</title>
<polygon fill="#dafcda" stroke="black" points="239,-461 239,-569 415,-569 415,-461 239,-461"/>
<text text-anchor="middle" x="327" y="-557.8" font-family="Helvetica,sans-Serif" font-size="8.00">IGameObject</text>
<polyline fill="none" stroke="black" points="239,-549 415,-549 "/>
<text text-anchor="start" x="247" y="-537.8" font-family="Helvetica,sans-Serif" font-size="8.00">+ Info : dynamic</text>
<text text-anchor="start" x="247" y="-525.8" font-family="Helvetica,sans-Serif" font-size="8.00">+ World : World</text>
<polyline fill="none" stroke="black" points="239,-517 415,-517 "/>
<text text-anchor="start" x="247" y="-505.8" font-family="Helvetica,sans-Serif" font-size="8.00">+ Draw (GameTime gameTime)</text>
<text text-anchor="start" x="247" y="-493.8" font-family="Helvetica,sans-Serif" font-size="8.00">+ Update (GameTime gameTime)</text>
<text text-anchor="start" x="247" y="-481.8" font-family="Helvetica,sans-Serif" font-size="8.00">+ Intersects (Ray ray) : GameObjectDistance</text>
<text text-anchor="start" x="247" y="-469.8" font-family="Helvetica,sans-Serif" font-size="8.00">+ Center () : Vector3</text>
</g>
<!-- Box_GameModel -->
<g id="node5" class="node"><title>Box_GameModel</title>
<polygon fill="#fcfcda" stroke="black" points="221,-159 221,-423 433,-423 433,-159 221,-159"/>
<text text-anchor="middle" x="327" y="-411.8" font-family="Helvetica,sans-Serif" font-size="8.00">GameModel</text>
<polyline fill="none" stroke="black" points="221,-403 433,-403 "/>
<text text-anchor="start" x="229" y="-391.8" font-family="Helvetica,sans-Serif" font-size="8.00"># state : GameState</text>
<text text-anchor="start" x="229" y="-379.8" font-family="Helvetica,sans-Serif" font-size="8.00">+ Info : dynamic</text>
<text text-anchor="start" x="229" y="-367.8" font-family="Helvetica,sans-Serif" font-size="8.00">+ World : World</text>
<text text-anchor="start" x="229" y="-355.8" font-family="Helvetica,sans-Serif" font-size="8.00">+ Model : Model virtual</text>
<text text-anchor="start" x="229" y="-343.8" font-family="Helvetica,sans-Serif" font-size="8.00">+ BaseColor : Color</text>
<text text-anchor="start" x="229" y="-331.8" font-family="Helvetica,sans-Serif" font-size="8.00">+ HighlightColor : Color</text>
<text text-anchor="start" x="229" y="-319.8" font-family="Helvetica,sans-Serif" font-size="8.00">+ HighlightIntensity : float</text>
<text text-anchor="start" x="229" y="-307.8" font-family="Helvetica,sans-Serif" font-size="8.00">+ Alpha : float</text>
<text text-anchor="start" x="229" y="-295.8" font-family="Helvetica,sans-Serif" font-size="8.00">&#45; _scale : float</text>
<text text-anchor="start" x="229" y="-283.8" font-family="Helvetica,sans-Serif" font-size="8.00">&#45; _rotation : Angles3</text>
<text text-anchor="start" x="229" y="-271.8" font-family="Helvetica,sans-Serif" font-size="8.00">&#45; _position : Vector3</text>
<text text-anchor="start" x="229" y="-259.8" font-family="Helvetica,sans-Serif" font-size="8.00">&#45; _worldMatrix : Matrix</text>
<text text-anchor="start" x="229" y="-247.8" font-family="Helvetica,sans-Serif" font-size="8.00">+ WorldMatrix : Matrix</text>
<polyline fill="none" stroke="black" points="221,-239 433,-239 "/>
<text text-anchor="start" x="229" y="-227.8" font-family="Helvetica,sans-Serif" font-size="8.00">+ GameModel (GameState state, GameModelInfo info)</text>
<text text-anchor="start" x="229" y="-215.8" font-family="Helvetica,sans-Serif" font-size="8.00">+ Update (GameTime gameTime) virtual</text>
<text text-anchor="start" x="229" y="-203.8" font-family="Helvetica,sans-Serif" font-size="8.00">+ Draw (GameTime gameTime) virtual</text>
<text text-anchor="start" x="229" y="-191.8" font-family="Helvetica,sans-Serif" font-size="8.00">+ Intersects (Ray ray) : GameObjectDistance virtual</text>
<text text-anchor="start" x="229" y="-179.8" font-family="Helvetica,sans-Serif" font-size="8.00">+ Center () : Vector3</text>
<text text-anchor="start" x="229" y="-167.8" font-family="Helvetica,sans-Serif" font-size="8.00">&#45; UpdateWorldMatrix ()</text>
</g>
<!-- Box_IGameObject&#45;&gt;Box_GameModel -->
<g id="edge8" class="edge"><title>Box_IGameObject&#45;&gt;Box_GameModel</title>
<path fill="none" stroke="midnightblue" d="M327,-450.688C327,-441.891 327,-432.612 327,-423.133"/>
<polygon fill="none" stroke="midnightblue" points="323.5,-450.776 327,-460.776 330.5,-450.776 323.5,-450.776"/>
</g>
<!-- Box_NodeModel -->
<g id="node2" class="node"><title>Box_NodeModel</title>
<polygon fill="#fcfcda" stroke="black" points="-0.5,-25 -0.5,-97 206.5,-97 206.5,-25 -0.5,-25"/>
<text text-anchor="middle" x="103" y="-85.8" font-family="Helvetica,sans-Serif" font-size="8.00">NodeModel</text>
<polyline fill="none" stroke="black" points="-0.5,-77 206.5,-77 "/>
<text text-anchor="start" x="7.5" y="-65.8" font-family="Helvetica,sans-Serif" font-size="8.00">+ Info : NodeModelInfo new</text>
<polyline fill="none" stroke="black" points="-0.5,-57 206.5,-57 "/>
<text text-anchor="start" x="7.5" y="-45.8" font-family="Helvetica,sans-Serif" font-size="8.00">+ NodeModel (GameState state, NodeModelInfo info)</text>
<text text-anchor="start" x="7.5" y="-33.8" font-family="Helvetica,sans-Serif" font-size="8.00">+ Draw (GameTime gameTime) override</text>
</g>
<!-- Box_PipeModel -->
<g id="node3" class="node"><title>Box_PipeModel</title>
<polygon fill="#fcfcda" stroke="black" points="223.5,-1 223.5,-121 430.5,-121 430.5,-1 223.5,-1"/>
<text text-anchor="middle" x="327" y="-109.8" font-family="Helvetica,sans-Serif" font-size="8.00">PipeModel</text>
<polyline fill="none" stroke="black" points="223.5,-101 430.5,-101 "/>
<text text-anchor="start" x="231.5" y="-89.8" font-family="Helvetica,sans-Serif" font-size="8.00">+ Info : PipeModelInfo new</text>
<text text-anchor="start" x="231.5" y="-77.8" font-family="Helvetica,sans-Serif" font-size="8.00">&#45; Bounds : BoundingSphere[]</text>
<text text-anchor="start" x="231.5" y="-65.8" font-family="Helvetica,sans-Serif" font-size="8.00">+ OnDataChange : Action</text>
<polyline fill="none" stroke="black" points="223.5,-57 430.5,-57 "/>
<text text-anchor="start" x="231.5" y="-45.8" font-family="Helvetica,sans-Serif" font-size="8.00">+ PipeModel (GameState state, PipeModelInfo info)</text>
<text text-anchor="start" x="231.5" y="-33.8" font-family="Helvetica,sans-Serif" font-size="8.00">+ Draw (GameTime gameTime) override</text>
<text text-anchor="start" x="231.5" y="-21.8" font-family="Helvetica,sans-Serif" font-size="8.00">+ Update (GameTime gameTime) override</text>
<text text-anchor="start" x="231.5" y="-9.8" font-family="Helvetica,sans-Serif" font-size="8.00">+ Intersects (Ray ray) : GameObjectDistance override</text>
</g>
<!-- Box_TestModel -->
<g id="node4" class="node"><title>Box_TestModel</title>
<polygon fill="#fcfcda" stroke="black" points="448,-25 448,-97 654,-97 654,-25 448,-25"/>
<text text-anchor="middle" x="551" y="-85.8" font-family="Helvetica,sans-Serif" font-size="8.00">TestModel</text>
<polyline fill="none" stroke="black" points="448,-77 654,-77 "/>
<text text-anchor="middle" x="551" y="-65.8" font-family="Helvetica,sans-Serif" font-size="8.00"> </text>
<polyline fill="none" stroke="black" points="448,-57 654,-57 "/>
<text text-anchor="start" x="456" y="-45.8" font-family="Helvetica,sans-Serif" font-size="8.00">+ TestModel (GameState state, GameModelInfo info)</text>
<text text-anchor="start" x="456" y="-33.8" font-family="Helvetica,sans-Serif" font-size="8.00">+ Update (GameTime gameTime) override</text>
</g>
<!-- Box_GameModel&#45;&gt;Box_NodeModel -->
<g id="edge2" class="edge"><title>Box_GameModel&#45;&gt;Box_NodeModel</title>
<path fill="none" stroke="midnightblue" d="M213.901,-174.871C186.347,-146.579 158.882,-118.379 138.177,-97.1193"/>
<polygon fill="none" stroke="midnightblue" points="211.419,-177.34 220.904,-182.062 216.434,-172.456 211.419,-177.34"/>
</g>
<!-- Box_GameModel&#45;&gt;Box_PipeModel -->
<g id="edge4" class="edge"><title>Box_GameModel&#45;&gt;Box_PipeModel</title>
<path fill="none" stroke="midnightblue" d="M327,-148.803C327,-139.22 327,-129.905 327,-121.144"/>
<polygon fill="none" stroke="midnightblue" points="323.5,-148.874 327,-158.874 330.5,-148.874 323.5,-148.874"/>
</g>
<!-- Box_GameModel&#45;&gt;Box_TestModel -->
<g id="edge6" class="edge"><title>Box_GameModel&#45;&gt;Box_TestModel</title>
<path fill="none" stroke="midnightblue" d="M440.099,-174.871C467.653,-146.579 495.118,-118.379 515.823,-97.1193"/>
<polygon fill="none" stroke="midnightblue" points="437.566,-172.456 433.096,-182.062 442.581,-177.34 437.566,-172.456"/>
</g>
</g>
</svg>
