<?xml version="1.0" encoding="UTF-8" standalone="no"?>
<!DOCTYPE svg PUBLIC "-//W3C//DTD SVG 1.1//EN"
 "http://www.w3.org/Graphics/SVG/1.1/DTD/svg11.dtd">
<!-- Generated by graphviz version 2.26.3 (20100126.1600)
 -->
<!-- Title: MenuItem Pages: 1 -->
<svg width="940pt" height="614pt"
 viewBox="0.00 0.00 940.00 614.00" xmlns="http://www.w3.org/2000/svg" xmlns:xlink="http://www.w3.org/1999/xlink">
<g id="graph1" class="graph" transform="scale(1 1) rotate(0) translate(4 610)">
<title>MenuItem</title>
<polygon fill="white" stroke="white" points="-4,5 -4,-610 937,-610 937,5 -4,5"/>
<!-- Box_IRenderEffect -->
<g id="node1" class="node"><title>Box_IRenderEffect</title>
<polygon fill="#dafcda" stroke="black" points="354.5,-473 354.5,-605 579.5,-605 579.5,-473 354.5,-473"/>
<text text-anchor="middle" x="467" y="-593.8" font-family="Helvetica,sans-Serif" font-size="8.00">IRenderEffect</text>
<polyline fill="none" stroke="black" points="354.5,-585 579.5,-585 "/>
<text text-anchor="start" x="362.5" y="-573.8" font-family="Helvetica,sans-Serif" font-size="8.00">Attributes:</text>
<text text-anchor="start" x="362.5" y="-561.8" font-family="Helvetica,sans-Serif" font-size="8.00">+ RenderTarget : RenderTarget2D</text>
<text text-anchor="start" x="362.5" y="-549.8" font-family="Helvetica,sans-Serif" font-size="8.00">Methods:</text>
<polyline fill="none" stroke="black" points="354.5,-541 579.5,-541 "/>
<text text-anchor="start" x="362.5" y="-529.8" font-family="Helvetica,sans-Serif" font-size="8.00">+ Begin (GameTime gameTime)</text>
<text text-anchor="start" x="362.5" y="-517.8" font-family="Helvetica,sans-Serif" font-size="8.00">+ End (GameTime gameTime)</text>
<text text-anchor="start" x="362.5" y="-505.8" font-family="Helvetica,sans-Serif" font-size="8.00">+ Draw (SpriteBatch spriteBatch, GameTime gameTime)</text>
<text text-anchor="start" x="362.5" y="-493.8" font-family="Helvetica,sans-Serif" font-size="8.00">+ RemapModel (Model model)</text>
<text text-anchor="start" x="362.5" y="-481.8" font-family="Helvetica,sans-Serif" font-size="8.00">+ DrawModel (GameModel model, GameTime gameTime)</text>
</g>
<!-- Box_RenderEffect -->
<g id="node2" class="node"><title>Box_RenderEffect</title>
<polygon fill="#fcfcda" stroke="black" points="342,-231 342,-435 592,-435 592,-231 342,-231"/>
<text text-anchor="middle" x="467" y="-423.8" font-family="Helvetica,sans-Serif" font-size="8.00">RenderEffect</text>
<polyline fill="none" stroke="black" points="342,-415 592,-415 "/>
<text text-anchor="start" x="350" y="-403.8" font-family="Helvetica,sans-Serif" font-size="8.00">Attributes:</text>
<text text-anchor="start" x="350" y="-391.8" font-family="Helvetica,sans-Serif" font-size="8.00">&#45; background : Color</text>
<text text-anchor="start" x="350" y="-379.8" font-family="Helvetica,sans-Serif" font-size="8.00">&#45; renderTarget : RenderTargetCache</text>
<text text-anchor="start" x="350" y="-367.8" font-family="Helvetica,sans-Serif" font-size="8.00">&#45; spriteBatch : SpriteBatch</text>
<text text-anchor="start" x="350" y="-355.8" font-family="Helvetica,sans-Serif" font-size="8.00"># state : GameState</text>
<text text-anchor="start" x="350" y="-343.8" font-family="Helvetica,sans-Serif" font-size="8.00">+ RenderTarget : RenderTarget2D</text>
<text text-anchor="start" x="350" y="-331.8" font-family="Helvetica,sans-Serif" font-size="8.00">Methods:</text>
<polyline fill="none" stroke="black" points="342,-323 592,-323 "/>
<text text-anchor="start" x="350" y="-311.8" font-family="Helvetica,sans-Serif" font-size="8.00">+ RenderEffect (GameState state)</text>
<text text-anchor="start" x="350" y="-299.8" font-family="Helvetica,sans-Serif" font-size="8.00">+ Draw (SpriteBatch spriteBatch, GameTime gameTime) abstract</text>
<text text-anchor="start" x="350" y="-287.8" font-family="Helvetica,sans-Serif" font-size="8.00">+ DrawModel (GameModel model, GameTime gameTime) virtual</text>
<text text-anchor="start" x="350" y="-275.8" font-family="Helvetica,sans-Serif" font-size="8.00">+ RemapModel (Model model) virtual</text>
<text text-anchor="start" x="350" y="-263.8" font-family="Helvetica,sans-Serif" font-size="8.00">+ Begin (GameTime gameTime)</text>
<text text-anchor="start" x="350" y="-251.8" font-family="Helvetica,sans-Serif" font-size="8.00">+ Begin (Color background, GameTime gameTime) virtual</text>
<text text-anchor="start" x="350" y="-239.8" font-family="Helvetica,sans-Serif" font-size="8.00">+ End (GameTime gameTime) virtual</text>
</g>
<!-- Box_IRenderEffect&#45;&gt;Box_RenderEffect -->
<g id="edge2" class="edge"><title>Box_IRenderEffect&#45;&gt;Box_RenderEffect</title>
<path fill="none" stroke="midnightblue" d="M467,-462.867C467,-453.791 467,-444.415 467,-435.051"/>
<polygon fill="none" stroke="midnightblue" points="463.5,-462.97 467,-472.97 470.5,-462.97 463.5,-462.97"/>
</g>
<!-- Box_BlurEffect -->
<g id="node3" class="node"><title>Box_BlurEffect</title>
<polygon fill="#fcfcda" stroke="black" points="-0.5,-37 -0.5,-157 218.5,-157 218.5,-37 -0.5,-37"/>
<text text-anchor="middle" x="109" y="-145.8" font-family="Helvetica,sans-Serif" font-size="8.00">BlurEffect</text>
<polyline fill="none" stroke="black" points="-0.5,-137 218.5,-137 "/>
<text text-anchor="start" x="7.5" y="-125.8" font-family="Helvetica,sans-Serif" font-size="8.00">Attributes:</text>
<text text-anchor="start" x="7.5" y="-113.8" font-family="Helvetica,sans-Serif" font-size="8.00">&#45; testEffect : Effect static</text>
<text text-anchor="start" x="7.5" y="-101.8" font-family="Helvetica,sans-Serif" font-size="8.00">Methods:</text>
<polyline fill="none" stroke="black" points="-0.5,-93 218.5,-93 "/>
<text text-anchor="start" x="7.5" y="-81.8" font-family="Helvetica,sans-Serif" font-size="8.00">+ BlurEffect (GameState state)</text>
<text text-anchor="start" x="7.5" y="-69.8" font-family="Helvetica,sans-Serif" font-size="8.00">+ Begin (Color background, GameTime gameTime)</text>
<text text-anchor="start" x="7.5" y="-57.8" font-family="Helvetica,sans-Serif" font-size="8.00">+ Draw (SpriteBatch spriteBatch, GameTime gameTime)</text>
<text text-anchor="start" x="7.5" y="-45.8" font-family="Helvetica,sans-Serif" font-size="8.00">+ End (GameTime gameTime)</text>
</g>
<!-- Box_RenderEffect&#45;&gt;Box_BlurEffect -->
<g id="edge4" class="edge"><title>Box_RenderEffect&#45;&gt;Box_BlurEffect</title>
<path fill="none" stroke="midnightblue" d="M333.008,-260.552C297.808,-240.136 260.372,-217.151 227,-194 210.767,-182.739 193.988,-169.817 178.357,-157.155"/>
<polygon fill="none" stroke="midnightblue" points="331.494,-263.719 341.905,-265.686 334.992,-257.656 331.494,-263.719"/>
</g>
<!-- Box_CelShadingEffect -->
<g id="node4" class="node"><title>Box_CelShadingEffect</title>
<polygon fill="#fcfcda" stroke="black" points="235.5,-1 235.5,-193 460.5,-193 460.5,-1 235.5,-1"/>
<text text-anchor="middle" x="348" y="-181.8" font-family="Helvetica,sans-Serif" font-size="8.00">CelShadingEffect</text>
<polyline fill="none" stroke="black" points="235.5,-173 460.5,-173 "/>
<text text-anchor="start" x="243.5" y="-161.8" font-family="Helvetica,sans-Serif" font-size="8.00">Attributes:</text>
<text text-anchor="start" x="243.5" y="-149.8" font-family="Helvetica,sans-Serif" font-size="8.00">&#45; outlineShader : Effect</text>
<text text-anchor="start" x="243.5" y="-137.8" font-family="Helvetica,sans-Serif" font-size="8.00">&#45; celMap : Texture2D</text>
<text text-anchor="start" x="243.5" y="-125.8" font-family="Helvetica,sans-Serif" font-size="8.00">&#45; lightDirection : Vector4</text>
<text text-anchor="start" x="243.5" y="-113.8" font-family="Helvetica,sans-Serif" font-size="8.00">&#45; outlineThickness : float</text>
<text text-anchor="start" x="243.5" y="-101.8" font-family="Helvetica,sans-Serif" font-size="8.00">&#45; outlineThreshold : float</text>
<text text-anchor="start" x="243.5" y="-89.8" font-family="Helvetica,sans-Serif" font-size="8.00">&#45; celShader : Effect</text>
<text text-anchor="start" x="243.5" y="-77.8" font-family="Helvetica,sans-Serif" font-size="8.00">+ Color : Color</text>
<text text-anchor="start" x="243.5" y="-65.8" font-family="Helvetica,sans-Serif" font-size="8.00">Methods:</text>
<polyline fill="none" stroke="black" points="235.5,-57 460.5,-57 "/>
<text text-anchor="start" x="243.5" y="-45.8" font-family="Helvetica,sans-Serif" font-size="8.00">+ CelShadingEffect (GameState state)</text>
<text text-anchor="start" x="243.5" y="-33.8" font-family="Helvetica,sans-Serif" font-size="8.00">+ Draw (SpriteBatch spriteBatch, GameTime gameTime)</text>
<text text-anchor="start" x="243.5" y="-21.8" font-family="Helvetica,sans-Serif" font-size="8.00">+ DrawModel (GameModel model, GameTime gameTime)</text>
<text text-anchor="start" x="243.5" y="-9.8" font-family="Helvetica,sans-Serif" font-size="8.00">+ RemapModel (Model model)</text>
</g>
<!-- Box_RenderEffect&#45;&gt;Box_CelShadingEffect -->
<g id="edge6" class="edge"><title>Box_RenderEffect&#45;&gt;Box_CelShadingEffect</title>
<path fill="none" stroke="midnightblue" d="M410.916,-221.774C406.124,-212.271 401.302,-202.709 396.576,-193.336"/>
<polygon fill="none" stroke="midnightblue" points="407.869,-223.506 415.497,-230.86 414.12,-220.355 407.869,-223.506"/>
</g>
<!-- Box_FadeEffect -->
<g id="node5" class="node"><title>Box_FadeEffect</title>
<polygon fill="#fcfcda" stroke="black" points="477.5,-37 477.5,-157 696.5,-157 696.5,-37 477.5,-37"/>
<text text-anchor="middle" x="587" y="-145.8" font-family="Helvetica,sans-Serif" font-size="8.00">FadeEffect</text>
<polyline fill="none" stroke="black" points="477.5,-137 696.5,-137 "/>
<text text-anchor="start" x="485.5" y="-125.8" font-family="Helvetica,sans-Serif" font-size="8.00">Attributes:</text>
<text text-anchor="start" x="485.5" y="-113.8" font-family="Helvetica,sans-Serif" font-size="8.00">&#45; alpha : float</text>
<text text-anchor="start" x="485.5" y="-101.8" font-family="Helvetica,sans-Serif" font-size="8.00">&#45; lastFrame : RenderTarget2D</text>
<text text-anchor="start" x="485.5" y="-89.8" font-family="Helvetica,sans-Serif" font-size="8.00">+ IsFinished : bool</text>
<text text-anchor="start" x="485.5" y="-77.8" font-family="Helvetica,sans-Serif" font-size="8.00">Methods:</text>
<polyline fill="none" stroke="black" points="477.5,-69 696.5,-69 "/>
<text text-anchor="start" x="485.5" y="-57.8" font-family="Helvetica,sans-Serif" font-size="8.00">+ FadeEffect (GameState state, GameState oldState)</text>
<text text-anchor="start" x="485.5" y="-45.8" font-family="Helvetica,sans-Serif" font-size="8.00">+ Draw (SpriteBatch spriteBatch, GameTime gameTime)</text>
</g>
<!-- Box_RenderEffect&#45;&gt;Box_FadeEffect -->
<g id="edge8" class="edge"><title>Box_RenderEffect&#45;&gt;Box_FadeEffect</title>
<path fill="none" stroke="midnightblue" d="M523.602,-221.683C534.923,-199.418 546.406,-176.835 556.432,-157.118"/>
<polygon fill="none" stroke="midnightblue" points="520.348,-220.359 518.936,-230.86 526.588,-223.532 520.348,-220.359"/>
</g>
<!-- Box_NoEffect -->
<g id="node6" class="node"><title>Box_NoEffect</title>
<polygon fill="#fcfcda" stroke="black" points="713.5,-55 713.5,-139 932.5,-139 932.5,-55 713.5,-55"/>
<text text-anchor="middle" x="823" y="-127.8" font-family="Helvetica,sans-Serif" font-size="8.00">NoEffect</text>
<polyline fill="none" stroke="black" points="713.5,-119 932.5,-119 "/>
<text text-anchor="start" x="721.5" y="-107.8" font-family="Helvetica,sans-Serif" font-size="8.00">Attributes:</text>
<text text-anchor="start" x="721.5" y="-95.8" font-family="Helvetica,sans-Serif" font-size="8.00">Methods:</text>
<polyline fill="none" stroke="black" points="713.5,-87 932.5,-87 "/>
<text text-anchor="start" x="721.5" y="-75.8" font-family="Helvetica,sans-Serif" font-size="8.00">+ Draw (SpriteBatch spriteBatch, GameTime gameTime)</text>
<text text-anchor="start" x="721.5" y="-63.8" font-family="Helvetica,sans-Serif" font-size="8.00">+ NoEffect (GameState state)</text>
</g>
<!-- Box_RenderEffect&#45;&gt;Box_NoEffect -->
<g id="edge10" class="edge"><title>Box_RenderEffect&#45;&gt;Box_NoEffect</title>
<path fill="none" stroke="midnightblue" d="M600.983,-259.768C635.555,-239.522 672.24,-216.814 705,-194 729.047,-177.253 754.32,-156.891 775.28,-139.155"/>
<polygon fill="none" stroke="midnightblue" points="599.121,-256.803 592.243,-264.861 602.645,-262.851 599.121,-256.803"/>
</g>
</g>
</svg>
