<?xml version="1.0" encoding="UTF-8" standalone="no"?>
<!DOCTYPE svg PUBLIC "-//W3C//DTD SVG 1.1//EN"
 "http://www.w3.org/Graphics/SVG/1.1/DTD/svg11.dtd">
<!-- Generated by graphviz version 2.26.3 (20100126.1600)
 -->
<!-- Title: MenuItem Pages: 1 -->
<svg width="983pt" height="750pt"
 viewBox="0.00 0.00 236.00 180.00" xmlns="http://www.w3.org/2000/svg" xmlns:xlink="http://www.w3.org/1999/xlink">
<g id="graph1" class="graph" transform="scale(4.16667 4.16667) rotate(0) translate(4 176)">
<title>MenuItem</title>
<polygon fill="white" stroke="white" points="-4,5 -4,-176 233,-176 233,5 -4,5"/>
<!-- Box_IniFile -->
<g id="node1" class="node"><title>Box_IniFile</title>
<polygon fill="#fcfcda" stroke="black" points="-0.5,-1 -0.5,-115 228.5,-115 228.5,-1 -0.5,-1"/>
<text text-anchor="middle" x="114" y="-103.8" font-family="Arial" font-size="8.00">IniFile</text>
<polyline fill="none" stroke="black" points="-0.5,-97 228.5,-97 "/>
<text text-anchor="start" x="7.5" y="-85.8" font-family="Arial" font-size="8.00">+ Dictionary&lt;string, string&gt;&gt; Data : Dictionary&lt;string,</text>
<text text-anchor="start" x="7.5" y="-75.8" font-family="Arial" font-size="8.00">&#45; Filename : string</text>
<text text-anchor="start" x="7.5" y="-65.8" font-family="Arial" font-size="8.00">+ this [string section, string key, string defaultValue : string</text>
<polyline fill="none" stroke="black" points="-0.5,-59 228.5,-59 "/>
<text text-anchor="start" x="7.5" y="-47.8" font-family="Arial" font-size="8.00">&#45; StripComments (string line) : string static</text>
<text text-anchor="start" x="7.5" y="-37.8" font-family="Arial" font-size="8.00">+ IniFile (string filename)</text>
<text text-anchor="start" x="7.5" y="-27.8" font-family="Arial" font-size="8.00"># Dispose (bool disposing) virtual</text>
<text text-anchor="start" x="7.5" y="-17.8" font-family="Arial" font-size="8.00">+ Dispose ()</text>
<text text-anchor="start" x="7.5" y="-7.8" font-family="Arial" font-size="8.00">+ Save ()</text>
</g>
<!-- Box_IDisposable -->
<g id="node2" class="node"><title>Box_IDisposable</title>
<polygon fill="#ffffff" stroke="black" points="85,-153 85,-171 143,-171 143,-153 85,-153"/>
<text text-anchor="middle" x="114" y="-159.8" font-family="Arial" font-size="8.00">IDisposable</text>
</g>
<!-- Box_IDisposable&#45;&gt;Box_IniFile -->
<g id="edge2" class="edge"><title>Box_IDisposable&#45;&gt;Box_IniFile</title>
<path fill="none" stroke="midnightblue" d="M114,-142.516C114,-134.577 114,-124.949 114,-115.075"/>
<polygon fill="none" stroke="midnightblue" points="110.5,-142.771 114,-152.771 117.5,-142.771 110.5,-142.771"/>
</g>
</g>
</svg>
