<?xml version="1.0" encoding="UTF-8" standalone="no"?>
<!DOCTYPE svg PUBLIC "-//W3C//DTD SVG 1.1//EN"
 "http://www.w3.org/Graphics/SVG/1.1/DTD/svg11.dtd">
<!-- Generated by graphviz version 2.26.3 (20100126.1600)
 -->
<!-- Title: MenuItem Pages: 1 -->
<svg width="3337pt" height="3625pt"
 viewBox="0.00 0.00 801.00 870.00" xmlns="http://www.w3.org/2000/svg" xmlns:xlink="http://www.w3.org/1999/xlink">
<g id="graph1" class="graph" transform="scale(4.16667 4.16667) rotate(0) translate(4 866)">
<title>MenuItem</title>
<polygon fill="white" stroke="white" points="-4,5 -4,-866 798,-866 798,5 -4,5"/>
<!-- Box_ItemWidget -->
<g id="node1" class="node"><title>Box_ItemWidget</title>
<polygon fill="#fcfcda" stroke="black" points="436,-415 436,-479 780,-479 780,-415 436,-415"/>
<text text-anchor="middle" x="608" y="-467.8" font-family="Arial" font-size="8.00">ItemWidget</text>
<polyline fill="none" stroke="black" points="436,-461 780,-461 "/>
<text text-anchor="start" x="444" y="-449.8" font-family="Arial" font-size="8.00">+ ItemState : ItemState</text>
<text text-anchor="start" x="444" y="-439.8" font-family="Arial" font-size="8.00"># ItemNum : int</text>
<polyline fill="none" stroke="black" points="436,-433 780,-433 "/>
<text text-anchor="start" x="444" y="-421.8" font-family="Arial" font-size="8.00">+ ItemWidget (GameScreen screen, WidgetInfo info, DisplayLayer drawOrder, int itemNum)</text>
</g>
<!-- Box_MenuItem -->
<g id="node5" class="node"><title>Box_MenuItem</title>
<polygon fill="#fcfcda" stroke="black" points="203.5,-193 203.5,-377 550.5,-377 550.5,-193 203.5,-193"/>
<text text-anchor="middle" x="377" y="-365.8" font-family="Arial" font-size="8.00">MenuItem</text>
<polyline fill="none" stroke="black" points="203.5,-359 550.5,-359 "/>
<text text-anchor="start" x="211.5" y="-347.8" font-family="Arial" font-size="8.00"># spriteBatch : SpriteBatch</text>
<text text-anchor="start" x="211.5" y="-337.8" font-family="Arial" font-size="8.00">+ IsMouseEventEnabled : bool</text>
<text text-anchor="start" x="211.5" y="-327.8" font-family="Arial" font-size="8.00">+ ValidKeys : List&lt;Keys&gt;</text>
<text text-anchor="start" x="211.5" y="-317.8" font-family="Arial" font-size="8.00">+ IsKeyEventEnabled : bool</text>
<text text-anchor="start" x="211.5" y="-307.8" font-family="Arial" font-size="8.00">+ Info : MenuItemInfo</text>
<polyline fill="none" stroke="black" points="203.5,-301 550.5,-301 "/>
<text text-anchor="start" x="211.5" y="-289.8" font-family="Arial" font-size="8.00">+ MenuItem (GameScreen screen, DisplayLayer drawOrder, int itemNum, MenuItemInfo info)</text>
<text text-anchor="start" x="211.5" y="-279.8" font-family="Arial" font-size="8.00">+ Collapse () virtual</text>
<text text-anchor="start" x="211.5" y="-269.8" font-family="Arial" font-size="8.00">+ OnKeyEvent (List&lt;Keys&gt; key, KeyEvent keyEvent, GameTime gameTime)</text>
<text text-anchor="start" x="211.5" y="-259.8" font-family="Arial" font-size="8.00">+ OnLeftClick (Vector2 position, ClickState click, GameTime gameTime)</text>
<text text-anchor="start" x="211.5" y="-249.8" font-family="Arial" font-size="8.00">+ OnRightClick (Vector2 position, ClickState click, GameTime gameTime)</text>
<text text-anchor="start" x="211.5" y="-239.8" font-family="Arial" font-size="8.00">+ MinimumSize (SpriteFont font) : Vector2</text>
<text text-anchor="start" x="211.5" y="-229.8" font-family="Arial" font-size="8.00">+ TextPosition (SpriteFont font) : Vector2</text>
<text text-anchor="start" x="211.5" y="-219.8" font-family="Arial" font-size="8.00">+ TextPosition (SpriteFont font, Vector2 scale) : Vector2</text>
<text text-anchor="start" x="211.5" y="-209.8" font-family="Arial" font-size="8.00">+ Draw (GameTime gameTime)</text>
<text text-anchor="start" x="211.5" y="-199.8" font-family="Arial" font-size="8.00">+ SetHovered (bool hovered)</text>
</g>
<!-- Box_ItemWidget&#45;&gt;Box_MenuItem -->
<g id="edge12" class="edge"><title>Box_ItemWidget&#45;&gt;Box_MenuItem</title>
<path fill="none" stroke="midnightblue" d="M553.919,-409.073C539.991,-399.306 524.384,-388.36 508.362,-377.124"/>
<polygon fill="none" stroke="midnightblue" points="552.165,-412.118 562.362,-414.994 556.184,-406.387 552.165,-412.118"/>
</g>
<!-- Box_Widget -->
<g id="node2" class="node"><title>Box_Widget</title>
<polygon fill="#fcfcda" stroke="black" points="466,-517 466,-591 750,-591 750,-517 466,-517"/>
<text text-anchor="middle" x="608" y="-579.8" font-family="Arial" font-size="8.00">Widget</text>
<polyline fill="none" stroke="black" points="466,-573 750,-573 "/>
<text text-anchor="start" x="474" y="-561.8" font-family="Arial" font-size="8.00">+ Info : WidgetInfo</text>
<text text-anchor="start" x="474" y="-551.8" font-family="Arial" font-size="8.00">+ IsVisible : bool virtual</text>
<polyline fill="none" stroke="black" points="466,-545 750,-545 "/>
<text text-anchor="start" x="474" y="-533.8" font-family="Arial" font-size="8.00">+ bounds () : Rectangle</text>
<text text-anchor="start" x="474" y="-523.8" font-family="Arial" font-size="8.00">+ Widget (GameScreen screen, WidgetInfo info, DisplayLayer drawOrder)</text>
</g>
<!-- Box_Widget&#45;&gt;Box_ItemWidget -->
<g id="edge2" class="edge"><title>Box_Widget&#45;&gt;Box_ItemWidget</title>
<path fill="none" stroke="midnightblue" d="M608,-506.849C608,-497.461 608,-487.808 608,-479.07"/>
<polygon fill="none" stroke="midnightblue" points="604.5,-506.877 608,-516.877 611.5,-506.877 604.5,-506.877"/>
</g>
<!-- Box_DrawableGameScreenComponent -->
<g id="node3" class="node"><title>Box_DrawableGameScreenComponent</title>
<polygon fill="#fcfcda" stroke="black" points="438.5,-629 438.5,-713 777.5,-713 777.5,-629 438.5,-629"/>
<text text-anchor="middle" x="608" y="-701.8" font-family="Arial" font-size="8.00">DrawableGameScreenComponent</text>
<polyline fill="none" stroke="black" points="438.5,-695 777.5,-695 "/>
<text text-anchor="start" x="446.5" y="-683.8" font-family="Arial" font-size="8.00">+ Index : DisplayLayer</text>
<text text-anchor="start" x="446.5" y="-673.8" font-family="Arial" font-size="8.00">&#45; _index : DisplayLayer</text>
<text text-anchor="start" x="446.5" y="-663.8" font-family="Arial" font-size="8.00">+ screen : GameScreen</text>
<polyline fill="none" stroke="black" points="438.5,-657 777.5,-657 "/>
<text text-anchor="start" x="446.5" y="-645.8" font-family="Arial" font-size="8.00">+ DrawableGameScreenComponent (GameScreen screen, DisplayLayer index)</text>
<text text-anchor="start" x="446.5" y="-635.8" font-family="Arial" font-size="8.00">+ SubComponents (GameTime gameTime) : IEnumerable&lt;IGameScreenComponent&gt; virtual</text>
</g>
<!-- Box_DrawableGameScreenComponent&#45;&gt;Box_Widget -->
<g id="edge4" class="edge"><title>Box_DrawableGameScreenComponent&#45;&gt;Box_Widget</title>
<path fill="none" stroke="midnightblue" d="M608,-618.482C608,-609.258 608,-599.834 608,-591.14"/>
<polygon fill="none" stroke="midnightblue" points="604.5,-618.76 608,-628.76 611.5,-618.76 604.5,-618.76"/>
</g>
<!-- Box_IGameScreenComponent -->
<g id="node4" class="node"><title>Box_IGameScreenComponent</title>
<polygon fill="#dafcda" stroke="black" points="330.5,-751 330.5,-805 645.5,-805 645.5,-751 330.5,-751"/>
<text text-anchor="middle" x="488" y="-793.8" font-family="Arial" font-size="8.00">IGameScreenComponent</text>
<polyline fill="none" stroke="black" points="330.5,-787 645.5,-787 "/>
<text text-anchor="start" x="338.5" y="-775.8" font-family="Arial" font-size="8.00">+ Index : DisplayLayer</text>
<polyline fill="none" stroke="black" points="330.5,-769 645.5,-769 "/>
<text text-anchor="start" x="338.5" y="-757.8" font-family="Arial" font-size="8.00">+ SubComponents (GameTime gameTime) : IEnumerable&lt;IGameScreenComponent&gt;</text>
</g>
<!-- Box_IGameScreenComponent&#45;&gt;Box_DrawableGameScreenComponent -->
<g id="edge8" class="edge"><title>Box_IGameScreenComponent&#45;&gt;Box_DrawableGameScreenComponent</title>
<path fill="none" stroke="midnightblue" d="M526.017,-744.102C536.949,-734.354 549.012,-723.598 560.444,-713.404"/>
<polygon fill="none" stroke="midnightblue" points="523.416,-741.732 518.281,-750.999 528.074,-746.956 523.416,-741.732"/>
</g>
<!-- Box_DropDownMenu -->
<g id="node6" class="node"><title>Box_DropDownMenu</title>
<polygon fill="#fcfcda" stroke="black" points="0,-1 0,-155 372,-155 372,-1 0,-1"/>
<text text-anchor="middle" x="186" y="-143.8" font-family="Arial" font-size="8.00">DropDownMenu</text>
<polyline fill="none" stroke="black" points="0,-137 372,-137 "/>
<text text-anchor="start" x="8" y="-125.8" font-family="Arial" font-size="8.00">&#45; selected : MenuButton</text>
<text text-anchor="start" x="8" y="-115.8" font-family="Arial" font-size="8.00">&#45; dropdown : VerticalMenu</text>
<polyline fill="none" stroke="black" points="0,-109 372,-109 "/>
<text text-anchor="start" x="8" y="-97.8" font-family="Arial" font-size="8.00">&#45; ValuePosition (int dummy) : Vector2</text>
<text text-anchor="start" x="8" y="-87.8" font-family="Arial" font-size="8.00">+ DropDownMenu (GameScreen screen, DisplayLayer drawOrder, int itemNum, MenuItemInfo info)</text>
<text text-anchor="start" x="8" y="-77.8" font-family="Arial" font-size="8.00">&#45; DropDownBackgroundColor (ItemState itemState) : Color</text>
<text text-anchor="start" x="8" y="-67.8" font-family="Arial" font-size="8.00">&#45; DropDownForegroundColor (ItemState itemState) : Color</text>
<text text-anchor="start" x="8" y="-57.8" font-family="Arial" font-size="8.00">&#45; ValueSize (int dummy) : Vector2</text>
<text text-anchor="start" x="8" y="-47.8" font-family="Arial" font-size="8.00">+ SubComponents (GameTime gameTime) : IEnumerable&lt;IGameScreenComponent&gt;</text>
<text text-anchor="start" x="8" y="-37.8" font-family="Arial" font-size="8.00">+ Collapse ()</text>
<text text-anchor="start" x="8" y="-27.8" font-family="Arial" font-size="8.00">+ Draw (GameTime gameTime)</text>
<text text-anchor="start" x="8" y="-17.8" font-family="Arial" font-size="8.00">+ AddEntries (DistinctOptionInfo option)</text>
<text text-anchor="start" x="8" y="-7.8" font-family="Arial" font-size="8.00">+ AddEntries (DropDownMenuItem[] entries, DropDownMenuItem defaultEntry)</text>
</g>
<!-- Box_MenuItem&#45;&gt;Box_DropDownMenu -->
<g id="edge18" class="edge"><title>Box_MenuItem&#45;&gt;Box_DropDownMenu</title>
<path fill="none" stroke="midnightblue" d="M284.783,-185.058C275.544,-175.045 266.264,-164.987 257.289,-155.261"/>
<polygon fill="none" stroke="midnightblue" points="282.48,-187.724 291.834,-192.7 287.625,-182.977 282.48,-187.724"/>
</g>
<!-- Box_MenuButton -->
<g id="node7" class="node"><title>Box_MenuButton</title>
<polygon fill="#fcfcda" stroke="black" points="390,-51 390,-105 746,-105 746,-51 390,-51"/>
<text text-anchor="middle" x="568" y="-93.8" font-family="Arial" font-size="8.00">MenuButton</text>
<polyline fill="none" stroke="black" points="390,-87 746,-87 "/>
<text text-anchor="middle" x="568" y="-75.8" font-family="Arial" font-size="8.00"> </text>
<polyline fill="none" stroke="black" points="390,-69 746,-69 "/>
<text text-anchor="start" x="398" y="-57.8" font-family="Arial" font-size="8.00">+ MenuButton (GameScreen screen, DisplayLayer drawOrder, int itemNum, MenuItemInfo info)</text>
</g>
<!-- Box_MenuItem&#45;&gt;Box_MenuButton -->
<g id="edge20" class="edge"><title>Box_MenuItem&#45;&gt;Box_MenuButton</title>
<path fill="none" stroke="midnightblue" d="M469.039,-185.251C496.127,-155.894 523.586,-126.134 542.685,-105.435"/>
<polygon fill="none" stroke="midnightblue" points="466.375,-182.977 462.166,-192.7 471.52,-187.724 466.375,-182.977"/>
</g>
<!-- Box_XnaDrawableGameComponent -->
<g id="node8" class="node"><title>Box_XnaDrawableGameComponent</title>
<polygon fill="#ffffff" stroke="black" points="663,-769 663,-787 793,-787 793,-769 663,-769"/>
<text text-anchor="middle" x="728" y="-775.8" font-family="Arial" font-size="8.00">Xna.DrawableGameComponent</text>
</g>
<!-- Box_XnaDrawableGameComponent&#45;&gt;Box_DrawableGameScreenComponent -->
<g id="edge6" class="edge"><title>Box_XnaDrawableGameComponent&#45;&gt;Box_DrawableGameScreenComponent</title>
<path fill="none" stroke="midnightblue" d="M710.077,-762.018C695.616,-749.124 674.59,-730.376 655.373,-713.241"/>
<polygon fill="none" stroke="midnightblue" points="707.976,-764.834 717.769,-768.877 712.634,-759.61 707.976,-764.834"/>
</g>
<!-- Box_XnaIGameComponent -->
<g id="node9" class="node"><title>Box_XnaIGameComponent</title>
<polygon fill="#ffffff" stroke="black" points="440,-843 440,-861 536,-861 536,-843 440,-843"/>
<text text-anchor="middle" x="488" y="-849.8" font-family="Arial" font-size="8.00">Xna.IGameComponent</text>
</g>
<!-- Box_XnaIGameComponent&#45;&gt;Box_IGameScreenComponent -->
<g id="edge10" class="edge"><title>Box_XnaIGameComponent&#45;&gt;Box_IGameScreenComponent</title>
<path fill="none" stroke="midnightblue" d="M488,-832.64C488,-824.2 488,-814.16 488,-805.004"/>
<polygon fill="none" stroke="midnightblue" points="484.5,-832.926 488,-842.926 491.5,-832.926 484.5,-832.926"/>
</g>
<!-- Box_IMouseEventListener -->
<g id="node10" class="node"><title>Box_IMouseEventListener</title>
<polygon fill="#ffffff" stroke="black" points="226,-438 226,-456 318,-456 318,-438 226,-438"/>
<text text-anchor="middle" x="272" y="-444.8" font-family="Arial" font-size="8.00">IMouseEventListener</text>
</g>
<!-- Box_IMouseEventListener&#45;&gt;Box_MenuItem -->
<g id="edge14" class="edge"><title>Box_IMouseEventListener&#45;&gt;Box_MenuItem</title>
<path fill="none" stroke="midnightblue" d="M283.419,-429.382C291.929,-416.253 304.272,-397.208 317.219,-377.234"/>
<polygon fill="none" stroke="midnightblue" points="280.448,-427.531 277.946,-437.826 286.322,-431.338 280.448,-427.531"/>
</g>
<!-- Box_IKeyEventListener -->
<g id="node11" class="node"><title>Box_IKeyEventListener</title>
<polygon fill="#ffffff" stroke="black" points="336,-438 336,-456 418,-456 418,-438 336,-438"/>
<text text-anchor="middle" x="377" y="-444.8" font-family="Arial" font-size="8.00">IKeyEventListener</text>
</g>
<!-- Box_IKeyEventListener&#45;&gt;Box_MenuItem -->
<g id="edge16" class="edge"><title>Box_IKeyEventListener&#45;&gt;Box_MenuItem</title>
<path fill="none" stroke="midnightblue" d="M377,-427.429C377,-414.402 377,-396.239 377,-377.234"/>
<polygon fill="none" stroke="midnightblue" points="373.5,-427.826 377,-437.826 380.5,-427.826 373.5,-427.826"/>
</g>
</g>
</svg>
