<?xml version="1.0" encoding="UTF-8" standalone="no"?>
<!DOCTYPE svg PUBLIC "-//W3C//DTD SVG 1.1//EN"
 "http://www.w3.org/Graphics/SVG/1.1/DTD/svg11.dtd">
<!-- Generated by graphviz version 2.26.3 (20100126.1600)
 -->
<!-- Title: MenuItem Pages: 1 -->
<svg width="652pt" height="408pt"
 viewBox="0.00 0.00 652.00 408.00" xmlns="http://www.w3.org/2000/svg" xmlns:xlink="http://www.w3.org/1999/xlink">
<g id="graph1" class="graph" transform="scale(1 1) rotate(0) translate(4 404)">
<title>MenuItem</title>
<polygon fill="white" stroke="white" points="-4,5 -4,-404 649,-404 649,5 -4,5"/>
<!-- Box_GameStateComponent -->
<g id="node1" class="node"><title>Box_GameStateComponent</title>
<polygon fill="#fcfcda" stroke="black" points="303.5,-147 303.5,-243 644.5,-243 644.5,-147 303.5,-147"/>
<text text-anchor="middle" x="474" y="-231.8" font-family="Helvetica,sans-Serif" font-size="8.00">GameStateComponent</text>
<polyline fill="none" stroke="black" points="303.5,-223 644.5,-223 "/>
<text text-anchor="start" x="311.5" y="-211.8" font-family="Helvetica,sans-Serif" font-size="8.00"># InputOrder : DisplayLayer</text>
<text text-anchor="start" x="311.5" y="-199.8" font-family="Helvetica,sans-Serif" font-size="8.00">+ state : GameState</text>
<text text-anchor="start" x="311.5" y="-187.8" font-family="Helvetica,sans-Serif" font-size="8.00">+ Index : int</text>
<polyline fill="none" stroke="black" points="303.5,-179 644.5,-179 "/>
<text text-anchor="start" x="311.5" y="-167.8" font-family="Helvetica,sans-Serif" font-size="8.00">+ GameStateComponent (GameState state, DisplayLayer inputOrder)</text>
<text text-anchor="start" x="311.5" y="-155.8" font-family="Helvetica,sans-Serif" font-size="8.00">+ SubComponents (GameTime gameTime) : IEnumerable&lt;IGameStateComponent&gt; virtual</text>
</g>
<!-- Box_PipeColoring -->
<g id="node4" class="node"><title>Box_PipeColoring</title>
<polygon fill="#fcfcda" stroke="black" points="165,-1 165,-109 451,-109 451,-1 165,-1"/>
<text text-anchor="middle" x="308" y="-97.8" font-family="Helvetica,sans-Serif" font-size="8.00">PipeColoring</text>
<polyline fill="none" stroke="black" points="165,-89 451,-89 "/>
<text text-anchor="start" x="173" y="-77.8" font-family="Helvetica,sans-Serif" font-size="8.00">+ Knot : Knot</text>
<text text-anchor="start" x="173" y="-65.8" font-family="Helvetica,sans-Serif" font-size="8.00">+ ValidKeys : List&lt;Keys&gt;</text>
<text text-anchor="start" x="173" y="-53.8" font-family="Helvetica,sans-Serif" font-size="8.00">+ IsKeyEventEnabled : bool</text>
<polyline fill="none" stroke="black" points="165,-45 451,-45 "/>
<text text-anchor="start" x="173" y="-33.8" font-family="Helvetica,sans-Serif" font-size="8.00">+ PipeColoring (GameState state)</text>
<text text-anchor="start" x="173" y="-21.8" font-family="Helvetica,sans-Serif" font-size="8.00">+ Update (GameTime gameTime) override</text>
<text text-anchor="start" x="173" y="-9.8" font-family="Helvetica,sans-Serif" font-size="8.00">+ OnKeyEvent (List&lt;Keys&gt; key, KeyEvent keyEvent, GameTime gameTime)</text>
</g>
<!-- Box_GameStateComponent&#45;&gt;Box_PipeColoring -->
<g id="edge8" class="edge"><title>Box_GameStateComponent&#45;&gt;Box_PipeColoring</title>
<path fill="none" stroke="midnightblue" d="M408.986,-140.169C396.849,-129.933 384.173,-119.242 372.065,-109.031"/>
<polygon fill="none" stroke="midnightblue" points="406.971,-143.048 416.872,-146.82 411.484,-137.697 406.971,-143.048"/>
</g>
<!-- Box_IGameStateComponent -->
<g id="node2" class="node"><title>Box_IGameStateComponent</title>
<polygon fill="#dafcda" stroke="black" points="202,-281 202,-341 520,-341 520,-281 202,-281"/>
<text text-anchor="middle" x="361" y="-329.8" font-family="Helvetica,sans-Serif" font-size="8.00">IGameStateComponent</text>
<polyline fill="none" stroke="black" points="202,-321 520,-321 "/>
<text text-anchor="start" x="210" y="-309.8" font-family="Helvetica,sans-Serif" font-size="8.00">+ Index : int</text>
<polyline fill="none" stroke="black" points="202,-301 520,-301 "/>
<text text-anchor="start" x="210" y="-289.8" font-family="Helvetica,sans-Serif" font-size="8.00">+ SubComponents (GameTime gameTime) : IEnumerable&lt;IGameStateComponent&gt;</text>
</g>
<!-- Box_IGameStateComponent&#45;&gt;Box_GameStateComponent -->
<g id="edge4" class="edge"><title>Box_IGameStateComponent&#45;&gt;Box_GameStateComponent</title>
<path fill="none" stroke="midnightblue" d="M397.46,-273.572C406.948,-263.833 417.301,-253.204 427.241,-243.001"/>
<polygon fill="none" stroke="midnightblue" points="394.865,-271.22 390.394,-280.825 399.879,-276.104 394.865,-271.22"/>
</g>
<!-- Box_IKeyEventListener -->
<g id="node3" class="node"><title>Box_IKeyEventListener</title>
<polygon fill="#dafcda" stroke="black" points="0,-153 0,-237 286,-237 286,-153 0,-153"/>
<text text-anchor="middle" x="143" y="-225.8" font-family="Helvetica,sans-Serif" font-size="8.00">IKeyEventListener</text>
<polyline fill="none" stroke="black" points="0,-217 286,-217 "/>
<text text-anchor="start" x="8" y="-205.8" font-family="Helvetica,sans-Serif" font-size="8.00">+ ValidKeys : List&lt;Keys&gt;</text>
<text text-anchor="start" x="8" y="-193.8" font-family="Helvetica,sans-Serif" font-size="8.00">+ Index : int</text>
<text text-anchor="start" x="8" y="-181.8" font-family="Helvetica,sans-Serif" font-size="8.00">+ IsKeyEventEnabled : bool</text>
<polyline fill="none" stroke="black" points="0,-173 286,-173 "/>
<text text-anchor="start" x="8" y="-161.8" font-family="Helvetica,sans-Serif" font-size="8.00">+ OnKeyEvent (List&lt;Keys&gt; key, KeyEvent keyEvent, GameTime gameTime)</text>
</g>
<!-- Box_IKeyEventListener&#45;&gt;Box_PipeColoring -->
<g id="edge10" class="edge"><title>Box_IKeyEventListener&#45;&gt;Box_PipeColoring</title>
<path fill="none" stroke="midnightblue" d="M200.252,-146.423C214.42,-134.401 229.688,-121.446 244.15,-109.176"/>
<polygon fill="none" stroke="midnightblue" points="197.866,-143.857 192.505,-152.995 202.395,-149.194 197.866,-143.857"/>
</g>
<!-- Box_XnaGameComponent -->
<g id="node5" class="node"><title>Box_XnaGameComponent</title>
<polygon fill="#ffffff" stroke="black" points="537.5,-301 537.5,-321 634.5,-321 634.5,-301 537.5,-301"/>
<text text-anchor="middle" x="586" y="-309.8" font-family="Helvetica,sans-Serif" font-size="8.00">Xna.GameComponent</text>
</g>
<!-- Box_XnaGameComponent&#45;&gt;Box_GameStateComponent -->
<g id="edge2" class="edge"><title>Box_XnaGameComponent&#45;&gt;Box_GameStateComponent</title>
<path fill="none" stroke="midnightblue" d="M568.786,-293.171C555.887,-279.812 537.593,-260.865 520.512,-243.174"/>
<polygon fill="none" stroke="midnightblue" points="566.597,-295.943 576.061,-300.706 571.633,-291.081 566.597,-295.943"/>
</g>
<!-- Box_XnaIGameComponent -->
<g id="node6" class="node"><title>Box_XnaIGameComponent</title>
<polygon fill="#ffffff" stroke="black" points="311.5,-379 311.5,-399 410.5,-399 410.5,-379 311.5,-379"/>
<text text-anchor="middle" x="361" y="-387.8" font-family="Helvetica,sans-Serif" font-size="8.00">Xna.IGameComponent</text>
</g>
<!-- Box_XnaIGameComponent&#45;&gt;Box_IGameStateComponent -->
<g id="edge6" class="edge"><title>Box_XnaIGameComponent&#45;&gt;Box_IGameStateComponent</title>
<path fill="none" stroke="midnightblue" d="M361,-368.777C361,-360.329 361,-350.337 361,-341.059"/>
<polygon fill="none" stroke="midnightblue" points="357.5,-368.803 361,-378.803 364.5,-368.803 357.5,-368.803"/>
</g>
</g>
</svg>
