<?xml version="1.0" encoding="UTF-8" standalone="no"?>
<!DOCTYPE svg PUBLIC "-//W3C//DTD SVG 1.1//EN"
 "http://www.w3.org/Graphics/SVG/1.1/DTD/svg11.dtd">
<!-- Generated by graphviz version 2.26.3 (20100126.1600)
 -->
<!-- Title: MenuItem Pages: 1 -->
<svg width="1417pt" height="625pt"
 viewBox="0.00 0.00 340.00 150.00" xmlns="http://www.w3.org/2000/svg" xmlns:xlink="http://www.w3.org/1999/xlink">
<g id="graph1" class="graph" transform="scale(4.16667 4.16667) rotate(0) translate(4 146)">
<title>MenuItem</title>
<polygon fill="white" stroke="white" points="-4,5 -4,-146 337,-146 337,5 -4,5"/>
<!-- Box_DrawableGameStateComponent -->
<g id="node1" class="node"><title>Box_DrawableGameStateComponent</title>
<polygon fill="#fcfcda" stroke="black" points="0,-1 0,-85 332,-85 332,-1 0,-1"/>
<text text-anchor="middle" x="166" y="-73.8" font-family="Arial" font-size="8.00">DrawableGameStateComponent</text>
<polyline fill="none" stroke="black" points="0,-67 332,-67 "/>
<text text-anchor="start" x="8" y="-55.8" font-family="Arial" font-size="8.00">+ Index : DisplayLayer</text>
<text text-anchor="start" x="8" y="-45.8" font-family="Arial" font-size="8.00">&#45; _index : DisplayLayer</text>
<text text-anchor="start" x="8" y="-35.8" font-family="Arial" font-size="8.00">+ state : GameState</text>
<polyline fill="none" stroke="black" points="0,-29 332,-29 "/>
<text text-anchor="start" x="8" y="-17.8" font-family="Arial" font-size="8.00">+ DrawableGameStateComponent (GameState state, DisplayLayer index)</text>
<text text-anchor="start" x="8" y="-7.8" font-family="Arial" font-size="8.00">+ SubComponents (GameTime gameTime) : IEnumerable&lt;IGameStateComponent&gt; virtual</text>
</g>
<!-- Box_XnaDrawableGameComponent -->
<g id="node2" class="node"><title>Box_XnaDrawableGameComponent</title>
<polygon fill="#ffffff" stroke="black" points="35,-123 35,-141 165,-141 165,-123 35,-123"/>
<text text-anchor="middle" x="100" y="-129.8" font-family="Arial" font-size="8.00">Xna.DrawableGameComponent</text>
</g>
<!-- Box_XnaDrawableGameComponent&#45;&gt;Box_DrawableGameStateComponent -->
<g id="edge2" class="edge"><title>Box_XnaDrawableGameComponent&#45;&gt;Box_DrawableGameStateComponent</title>
<path fill="none" stroke="midnightblue" d="M112.944,-114.545C119.233,-106.065 127.087,-95.4736 134.809,-85.0607"/>
<polygon fill="none" stroke="midnightblue" points="109.96,-112.693 106.815,-122.811 115.583,-116.863 109.96,-112.693"/>
</g>
<!-- Box_IGameStateComponent -->
<g id="node3" class="node"><title>Box_IGameStateComponent</title>
<polygon fill="#ffffff" stroke="black" points="183,-123 183,-141 281,-141 281,-123 183,-123"/>
<text text-anchor="middle" x="232" y="-129.8" font-family="Arial" font-size="8.00">IGameStateComponent</text>
</g>
<!-- Box_IGameStateComponent&#45;&gt;Box_DrawableGameStateComponent -->
<g id="edge4" class="edge"><title>Box_IGameStateComponent&#45;&gt;Box_DrawableGameStateComponent</title>
<path fill="none" stroke="midnightblue" d="M219.056,-114.545C212.767,-106.065 204.913,-95.4736 197.191,-85.0607"/>
<polygon fill="none" stroke="midnightblue" points="216.417,-116.863 225.185,-122.811 222.04,-112.693 216.417,-116.863"/>
</g>
</g>
</svg>
