<?xml version="1.0" encoding="UTF-8" standalone="no"?>
<!DOCTYPE svg PUBLIC "-//W3C//DTD SVG 1.1//EN"
 "http://www.w3.org/Graphics/SVG/1.1/DTD/svg11.dtd">
<!-- Generated by graphviz version 2.26.3 (20100126.1600)
 -->
<!-- Title: MenuItem Pages: 1 -->
<svg width="474pt" height="956pt"
 viewBox="0.00 0.00 474.00 956.00" xmlns="http://www.w3.org/2000/svg" xmlns:xlink="http://www.w3.org/1999/xlink">
<g id="graph1" class="graph" transform="scale(1 1) rotate(0) translate(4 952)">
<title>MenuItem</title>
<polygon fill="white" stroke="white" points="-4,5 -4,-952 471,-952 471,5 -4,5"/>
<!-- Box_Dialog -->
<g id="node1" class="node"><title>Box_Dialog</title>
<polygon fill="#fcfcda" stroke="black" points="105,-379 105,-547 455,-547 455,-379 105,-379"/>
<text text-anchor="middle" x="280" y="-535.8" font-family="Helvetica,sans-Serif" font-size="8.00">Dialog</text>
<polyline fill="none" stroke="black" points="105,-527 455,-527 "/>
<text text-anchor="start" x="113" y="-515.8" font-family="Helvetica,sans-Serif" font-size="8.00">+ buttons : Menu</text>
<text text-anchor="start" x="113" y="-503.8" font-family="Helvetica,sans-Serif" font-size="8.00">+ Done : Action</text>
<text text-anchor="start" x="113" y="-491.8" font-family="Helvetica,sans-Serif" font-size="8.00"># spriteBatch : SpriteBatch</text>
<polyline fill="none" stroke="black" points="105,-483 455,-483 "/>
<text text-anchor="start" x="113" y="-471.8" font-family="Helvetica,sans-Serif" font-size="8.00">+ Dialog (GameState state, WidgetInfo info, DisplayLayer drawOrder)</text>
<text text-anchor="start" x="113" y="-459.8" font-family="Helvetica,sans-Serif" font-size="8.00"># RelativeButtonPosition (int n) : Vector2</text>
<text text-anchor="start" x="113" y="-447.8" font-family="Helvetica,sans-Serif" font-size="8.00"># RelativeButtonSize (int n) : Vector2</text>
<text text-anchor="start" x="113" y="-435.8" font-family="Helvetica,sans-Serif" font-size="8.00">+ SubComponents (GameTime gameTime) : IEnumerable&lt;IGameStateComponent&gt; override</text>
<text text-anchor="start" x="113" y="-423.8" font-family="Helvetica,sans-Serif" font-size="8.00">+ Draw (GameTime gameTime) override</text>
<text text-anchor="start" x="113" y="-411.8" font-family="Helvetica,sans-Serif" font-size="8.00"># DrawDialog (GameTime gameTime) abstract</text>
<text text-anchor="start" x="113" y="-399.8" font-family="Helvetica,sans-Serif" font-size="8.00">&#45; ButtonBackgroundColor (ItemState itemState) : Color</text>
<text text-anchor="start" x="113" y="-387.8" font-family="Helvetica,sans-Serif" font-size="8.00">&#45; ButtonForegroundColor (ItemState itemState) : Color</text>
</g>
<!-- Box_ConfirmDialog -->
<g id="node7" class="node"><title>Box_ConfirmDialog</title>
<polygon fill="#fcfcda" stroke="black" points="134,-233 134,-341 426,-341 426,-233 134,-233"/>
<text text-anchor="middle" x="280" y="-329.8" font-family="Helvetica,sans-Serif" font-size="8.00">ConfirmDialog</text>
<polyline fill="none" stroke="black" points="134,-321 426,-321 "/>
<text text-anchor="start" x="142" y="-309.8" font-family="Helvetica,sans-Serif" font-size="8.00"># Text : string[]</text>
<text text-anchor="start" x="142" y="-297.8" font-family="Helvetica,sans-Serif" font-size="8.00"># OnYesClick : Action</text>
<text text-anchor="start" x="142" y="-285.8" font-family="Helvetica,sans-Serif" font-size="8.00"># OnNoClick : Action</text>
<text text-anchor="start" x="142" y="-273.8" font-family="Helvetica,sans-Serif" font-size="8.00"># OnCancelClick : Action</text>
<polyline fill="none" stroke="black" points="134,-265 426,-265 "/>
<text text-anchor="start" x="142" y="-253.8" font-family="Helvetica,sans-Serif" font-size="8.00">+ ConfirmDialog (GameState state, WidgetInfo info, DisplayLayer drawOrder)</text>
<text text-anchor="start" x="142" y="-241.8" font-family="Helvetica,sans-Serif" font-size="8.00"># DrawDialog (GameTime gameTime) override</text>
</g>
<!-- Box_Dialog&#45;&gt;Box_ConfirmDialog -->
<g id="edge16" class="edge"><title>Box_Dialog&#45;&gt;Box_ConfirmDialog</title>
<path fill="none" stroke="midnightblue" d="M280,-368.722C280,-359.389 280,-350.15 280,-341.43"/>
<polygon fill="none" stroke="midnightblue" points="276.5,-368.866 280,-378.866 283.5,-368.866 276.5,-368.866"/>
</g>
<!-- Box_Widget -->
<g id="node2" class="node"><title>Box_Widget</title>
<polygon fill="#fcfcda" stroke="black" points="147,-585 147,-669 413,-669 413,-585 147,-585"/>
<text text-anchor="middle" x="280" y="-657.8" font-family="Helvetica,sans-Serif" font-size="8.00">Widget</text>
<polyline fill="none" stroke="black" points="147,-649 413,-649 "/>
<text text-anchor="start" x="155" y="-637.8" font-family="Helvetica,sans-Serif" font-size="8.00">+ Info : WidgetInfo</text>
<text text-anchor="start" x="155" y="-625.8" font-family="Helvetica,sans-Serif" font-size="8.00">+ IsVisible : bool virtual</text>
<polyline fill="none" stroke="black" points="147,-617 413,-617 "/>
<text text-anchor="start" x="155" y="-605.8" font-family="Helvetica,sans-Serif" font-size="8.00">+ Widget (GameState state, WidgetInfo info, DisplayLayer drawOrder)</text>
<text text-anchor="start" x="155" y="-593.8" font-family="Helvetica,sans-Serif" font-size="8.00">+ bounds () : Rectangle</text>
</g>
<!-- Box_Widget&#45;&gt;Box_Dialog -->
<g id="edge2" class="edge"><title>Box_Widget&#45;&gt;Box_Dialog</title>
<path fill="none" stroke="midnightblue" d="M280,-574.695C280,-565.884 280,-556.543 280,-547.166"/>
<polygon fill="none" stroke="midnightblue" points="276.5,-574.766 280,-584.766 283.5,-574.766 276.5,-574.766"/>
</g>
<!-- Box_DrawableGameStateComponent -->
<g id="node3" class="node"><title>Box_DrawableGameStateComponent</title>
<polygon fill="#fcfcda" stroke="black" points="109.5,-707 109.5,-791 450.5,-791 450.5,-707 109.5,-707"/>
<text text-anchor="middle" x="280" y="-779.8" font-family="Helvetica,sans-Serif" font-size="8.00">DrawableGameStateComponent</text>
<polyline fill="none" stroke="black" points="109.5,-771 450.5,-771 "/>
<text text-anchor="start" x="117.5" y="-759.8" font-family="Helvetica,sans-Serif" font-size="8.00">+ state : GameState</text>
<text text-anchor="start" x="117.5" y="-747.8" font-family="Helvetica,sans-Serif" font-size="8.00">+ Index : int</text>
<polyline fill="none" stroke="black" points="109.5,-739 450.5,-739 "/>
<text text-anchor="start" x="117.5" y="-727.8" font-family="Helvetica,sans-Serif" font-size="8.00">+ DrawableGameStateComponent (GameState state, DisplayLayer drawOrder)</text>
<text text-anchor="start" x="117.5" y="-715.8" font-family="Helvetica,sans-Serif" font-size="8.00">+ SubComponents (GameTime gameTime) : IEnumerable&lt;IGameStateComponent&gt; virtual</text>
</g>
<!-- Box_DrawableGameStateComponent&#45;&gt;Box_Widget -->
<g id="edge4" class="edge"><title>Box_DrawableGameStateComponent&#45;&gt;Box_Widget</title>
<path fill="none" stroke="midnightblue" d="M280,-696.537C280,-687.423 280,-678.05 280,-669.252"/>
<polygon fill="none" stroke="midnightblue" points="276.5,-696.673 280,-706.673 283.5,-696.673 276.5,-696.673"/>
</g>
<!-- Box_IGameStateComponent -->
<g id="node4" class="node"><title>Box_IGameStateComponent</title>
<polygon fill="#dafcda" stroke="black" points="0,-829 0,-889 318,-889 318,-829 0,-829"/>
<text text-anchor="middle" x="159" y="-877.8" font-family="Helvetica,sans-Serif" font-size="8.00">IGameStateComponent</text>
<polyline fill="none" stroke="black" points="0,-869 318,-869 "/>
<text text-anchor="start" x="8" y="-857.8" font-family="Helvetica,sans-Serif" font-size="8.00">+ Index : int</text>
<polyline fill="none" stroke="black" points="0,-849 318,-849 "/>
<text text-anchor="start" x="8" y="-837.8" font-family="Helvetica,sans-Serif" font-size="8.00">+ SubComponents (GameTime gameTime) : IEnumerable&lt;IGameStateComponent&gt;</text>
</g>
<!-- Box_IGameStateComponent&#45;&gt;Box_DrawableGameStateComponent -->
<g id="edge8" class="edge"><title>Box_IGameStateComponent&#45;&gt;Box_DrawableGameStateComponent</title>
<path fill="none" stroke="midnightblue" d="M199.738,-821.965C210.538,-812.147 222.282,-801.47 233.37,-791.391"/>
<polygon fill="none" stroke="midnightblue" points="197.109,-819.625 192.064,-828.942 201.818,-824.805 197.109,-819.625"/>
</g>
<!-- Box_TextInputDialog -->
<g id="node5" class="node"><title>Box_TextInputDialog</title>
<polygon fill="#fcfcda" stroke="black" points="105,-99 105,-195 455,-195 455,-99 105,-99"/>
<text text-anchor="middle" x="280" y="-183.8" font-family="Helvetica,sans-Serif" font-size="8.00">TextInputDialog</text>
<polyline fill="none" stroke="black" points="105,-175 455,-175 "/>
<text text-anchor="start" x="113" y="-163.8" font-family="Helvetica,sans-Serif" font-size="8.00"># TextInput : TextInput</text>
<polyline fill="none" stroke="black" points="105,-155 455,-155 "/>
<text text-anchor="start" x="113" y="-143.8" font-family="Helvetica,sans-Serif" font-size="8.00">+ TextInputDialog (GameState state, WidgetInfo info, DisplayLayer drawOrder)</text>
<text text-anchor="start" x="113" y="-131.8" font-family="Helvetica,sans-Serif" font-size="8.00">+ SubComponents (GameTime gameTime) : IEnumerable&lt;IGameStateComponent&gt; override</text>
<text text-anchor="start" x="113" y="-119.8" font-family="Helvetica,sans-Serif" font-size="8.00"># TextInputPosition () : Vector2</text>
<text text-anchor="start" x="113" y="-107.8" font-family="Helvetica,sans-Serif" font-size="8.00"># TextInputSize () : Vector2</text>
</g>
<!-- Box_KnotSaveConfirmDialog -->
<g id="node6" class="node"><title>Box_KnotSaveConfirmDialog</title>
<polygon fill="#fcfcda" stroke="black" points="97.5,-1 97.5,-61 462.5,-61 462.5,-1 97.5,-1"/>
<text text-anchor="middle" x="280" y="-49.8" font-family="Helvetica,sans-Serif" font-size="8.00">KnotSaveConfirmDialog</text>
<polyline fill="none" stroke="black" points="97.5,-41 462.5,-41 "/>
<text text-anchor="middle" x="280" y="-29.8" font-family="Helvetica,sans-Serif" font-size="8.00"> </text>
<polyline fill="none" stroke="black" points="97.5,-21 462.5,-21 "/>
<text text-anchor="start" x="105.5" y="-9.8" font-family="Helvetica,sans-Serif" font-size="8.00">+ KnotSaveConfirmDialog (GameState state, WidgetInfo info, DisplayLayer drawOrder, Knot knot)</text>
</g>
<!-- Box_TextInputDialog&#45;&gt;Box_KnotSaveConfirmDialog -->
<g id="edge14" class="edge"><title>Box_TextInputDialog&#45;&gt;Box_KnotSaveConfirmDialog</title>
<path fill="none" stroke="midnightblue" d="M280,-88.6048C280,-79.1583 280,-69.7257 280,-61.3096"/>
<polygon fill="none" stroke="midnightblue" points="276.5,-88.8133 280,-98.8133 283.5,-88.8133 276.5,-88.8133"/>
</g>
<!-- Box_ConfirmDialog&#45;&gt;Box_TextInputDialog -->
<g id="edge12" class="edge"><title>Box_ConfirmDialog&#45;&gt;Box_TextInputDialog</title>
<path fill="none" stroke="midnightblue" d="M280,-222.821C280,-213.478 280,-203.996 280,-195.047"/>
<polygon fill="none" stroke="midnightblue" points="276.5,-222.872 280,-232.872 283.5,-222.872 276.5,-222.872"/>
</g>
<!-- Box_XnaDrawableGameComponent -->
<g id="node8" class="node"><title>Box_XnaDrawableGameComponent</title>
<polygon fill="#ffffff" stroke="black" points="335.5,-849 335.5,-869 466.5,-869 466.5,-849 335.5,-849"/>
<text text-anchor="middle" x="401" y="-857.8" font-family="Helvetica,sans-Serif" font-size="8.00">Xna.DrawableGameComponent</text>
</g>
<!-- Box_XnaDrawableGameComponent&#45;&gt;Box_DrawableGameStateComponent -->
<g id="edge6" class="edge"><title>Box_XnaDrawableGameComponent&#45;&gt;Box_DrawableGameStateComponent</title>
<path fill="none" stroke="midnightblue" d="M382.298,-841.998C367.412,-828.466 345.923,-808.93 326.479,-791.254"/>
<polygon fill="none" stroke="midnightblue" points="380.08,-844.712 389.833,-848.849 384.788,-839.532 380.08,-844.712"/>
</g>
<!-- Box_XnaIGameComponent -->
<g id="node9" class="node"><title>Box_XnaIGameComponent</title>
<polygon fill="#ffffff" stroke="black" points="109.5,-927 109.5,-947 208.5,-947 208.5,-927 109.5,-927"/>
<text text-anchor="middle" x="159" y="-935.8" font-family="Helvetica,sans-Serif" font-size="8.00">Xna.IGameComponent</text>
</g>
<!-- Box_XnaIGameComponent&#45;&gt;Box_IGameStateComponent -->
<g id="edge10" class="edge"><title>Box_XnaIGameComponent&#45;&gt;Box_IGameStateComponent</title>
<path fill="none" stroke="midnightblue" d="M159,-916.777C159,-908.329 159,-898.337 159,-889.059"/>
<polygon fill="none" stroke="midnightblue" points="155.5,-916.803 159,-926.803 162.5,-916.803 155.5,-916.803"/>
</g>
</g>
</svg>
