<?xml version="1.0" encoding="UTF-8" standalone="no"?>
<!DOCTYPE svg PUBLIC "-//W3C//DTD SVG 1.1//EN"
 "http://www.w3.org/Graphics/SVG/1.1/DTD/svg11.dtd">
<!-- Generated by graphviz version 2.26.3 (20100126.1600)
 -->
<!-- Title: MenuItem Pages: 1 -->
<svg width="1364pt" height="710pt"
 viewBox="0.00 0.00 1364.00 710.00" xmlns="http://www.w3.org/2000/svg" xmlns:xlink="http://www.w3.org/1999/xlink">
<g id="graph1" class="graph" transform="scale(1 1) rotate(0) translate(4 706)">
<title>MenuItem</title>
<polygon fill="white" stroke="white" points="-4,5 -4,-706 1361,-706 1361,5 -4,5"/>
<!-- Box_IGameStateComponent -->
<g id="node1" class="node"><title>Box_IGameStateComponent</title>
<polygon fill="#dafcda" stroke="black" points="298,-583 298,-643 616,-643 616,-583 298,-583"/>
<text text-anchor="middle" x="457" y="-631.8" font-family="Helvetica,sans-Serif" font-size="8.00">IGameStateComponent</text>
<polyline fill="none" stroke="black" points="298,-623 616,-623 "/>
<text text-anchor="start" x="306" y="-611.8" font-family="Helvetica,sans-Serif" font-size="8.00">+ Index : int</text>
<polyline fill="none" stroke="black" points="298,-603 616,-603 "/>
<text text-anchor="start" x="306" y="-591.8" font-family="Helvetica,sans-Serif" font-size="8.00">+ SubComponents (GameTime gameTime) : IEnumerable&lt;IGameStateComponent&gt;</text>
</g>
<!-- Box_GameStateComponent -->
<g id="node9" class="node"><title>Box_GameStateComponent</title>
<polygon fill="#fcfcda" stroke="black" points="398.5,-449 398.5,-545 739.5,-545 739.5,-449 398.5,-449"/>
<text text-anchor="middle" x="569" y="-533.8" font-family="Helvetica,sans-Serif" font-size="8.00">GameStateComponent</text>
<polyline fill="none" stroke="black" points="398.5,-525 739.5,-525 "/>
<text text-anchor="start" x="406.5" y="-513.8" font-family="Helvetica,sans-Serif" font-size="8.00"># InputOrder : DisplayLayer</text>
<text text-anchor="start" x="406.5" y="-501.8" font-family="Helvetica,sans-Serif" font-size="8.00">+ state : GameState</text>
<text text-anchor="start" x="406.5" y="-489.8" font-family="Helvetica,sans-Serif" font-size="8.00">+ Index : int</text>
<polyline fill="none" stroke="black" points="398.5,-481 739.5,-481 "/>
<text text-anchor="start" x="406.5" y="-469.8" font-family="Helvetica,sans-Serif" font-size="8.00">+ GameStateComponent (GameState state, DisplayLayer inputOrder)</text>
<text text-anchor="start" x="406.5" y="-457.8" font-family="Helvetica,sans-Serif" font-size="8.00">+ SubComponents (GameTime gameTime) : IEnumerable&lt;IGameStateComponent&gt; virtual</text>
</g>
<!-- Box_IGameStateComponent&#45;&gt;Box_GameStateComponent -->
<g id="edge24" class="edge"><title>Box_IGameStateComponent&#45;&gt;Box_GameStateComponent</title>
<path fill="none" stroke="midnightblue" d="M493.137,-575.572C502.541,-565.833 512.803,-555.204 522.655,-545.001"/>
<polygon fill="none" stroke="midnightblue" points="490.562,-573.2 486.134,-582.825 495.598,-578.062 490.562,-573.2"/>
</g>
<!-- Box_Camera -->
<g id="node2" class="node"><title>Box_Camera</title>
<polygon fill="#fcfcda" stroke="black" points="390,-99 390,-411 560,-411 560,-99 390,-99"/>
<text text-anchor="middle" x="475" y="-399.8" font-family="Helvetica,sans-Serif" font-size="8.00">Camera</text>
<polyline fill="none" stroke="black" points="390,-391 560,-391 "/>
<text text-anchor="start" x="398" y="-379.8" font-family="Helvetica,sans-Serif" font-size="8.00">&#45; World : World</text>
<text text-anchor="start" x="398" y="-367.8" font-family="Helvetica,sans-Serif" font-size="8.00">+ WorldMatrix : Matrix</text>
<text text-anchor="start" x="398" y="-355.8" font-family="Helvetica,sans-Serif" font-size="8.00">+ ViewMatrix : Matrix</text>
<text text-anchor="start" x="398" y="-343.8" font-family="Helvetica,sans-Serif" font-size="8.00">+ ProjectionMatrix : Matrix</text>
<text text-anchor="start" x="398" y="-331.8" font-family="Helvetica,sans-Serif" font-size="8.00">+ DefaultPosition : Vector3</text>
<text text-anchor="start" x="398" y="-319.8" font-family="Helvetica,sans-Serif" font-size="8.00">+ Position : Vector3</text>
<text text-anchor="start" x="398" y="-307.8" font-family="Helvetica,sans-Serif" font-size="8.00">+ Target : Vector3</text>
<text text-anchor="start" x="398" y="-295.8" font-family="Helvetica,sans-Serif" font-size="8.00">+ UpVector : Vector3</text>
<text text-anchor="start" x="398" y="-283.8" font-family="Helvetica,sans-Serif" font-size="8.00">&#45; foV : float</text>
<text text-anchor="start" x="398" y="-271.8" font-family="Helvetica,sans-Serif" font-size="8.00">+ FoV : float</text>
<text text-anchor="start" x="398" y="-259.8" font-family="Helvetica,sans-Serif" font-size="8.00">+ RotationAngle : Angles3</text>
<text text-anchor="start" x="398" y="-247.8" font-family="Helvetica,sans-Serif" font-size="8.00">&#45; AutoRotation : Angles3</text>
<text text-anchor="start" x="398" y="-235.8" font-family="Helvetica,sans-Serif" font-size="8.00">&#45; aspectRatio : float</text>
<text text-anchor="start" x="398" y="-223.8" font-family="Helvetica,sans-Serif" font-size="8.00">&#45; nearPlane : float</text>
<text text-anchor="start" x="398" y="-211.8" font-family="Helvetica,sans-Serif" font-size="8.00">&#45; farPlane : float</text>
<text text-anchor="start" x="398" y="-199.8" font-family="Helvetica,sans-Serif" font-size="8.00">+ TargetDistance : float</text>
<text text-anchor="start" x="398" y="-187.8" font-family="Helvetica,sans-Serif" font-size="8.00">+ TargetDirection : Vector3</text>
<text text-anchor="start" x="398" y="-175.8" font-family="Helvetica,sans-Serif" font-size="8.00">+ ArcballTarget : Vector3</text>
<polyline fill="none" stroke="black" points="390,-167 560,-167 "/>
<text text-anchor="start" x="398" y="-155.8" font-family="Helvetica,sans-Serif" font-size="8.00">+ Camera (GameState state, World world)</text>
<text text-anchor="start" x="398" y="-143.8" font-family="Helvetica,sans-Serif" font-size="8.00">+ Update (GameTime gameTime) override</text>
<text text-anchor="start" x="398" y="-131.8" font-family="Helvetica,sans-Serif" font-size="8.00">&#45; UpdateRotation (GameTime gameTime)</text>
<text text-anchor="start" x="398" y="-119.8" font-family="Helvetica,sans-Serif" font-size="8.00">&#45; UpdateMatrices (GameTime gameTime)</text>
<text text-anchor="start" x="398" y="-107.8" font-family="Helvetica,sans-Serif" font-size="8.00">+ GetMouseRay (Vector2 mouse) : Ray</text>
</g>
<!-- Box_ClickHandler -->
<g id="node3" class="node"><title>Box_ClickHandler</title>
<polygon fill="#fcfcda" stroke="black" points="578,-201 578,-309 748,-309 748,-201 578,-201"/>
<text text-anchor="middle" x="663" y="-297.8" font-family="Helvetica,sans-Serif" font-size="8.00">ClickHandler</text>
<polyline fill="none" stroke="black" points="578,-289 748,-289 "/>
<text text-anchor="start" x="586" y="-277.8" font-family="Helvetica,sans-Serif" font-size="8.00">private class ClickEventComponent :</text>
<text text-anchor="start" x="586" y="-265.8" font-family="Helvetica,sans-Serif" font-size="8.00">+ receiver : IMouseEventListener</text>
<text text-anchor="start" x="586" y="-253.8" font-family="Helvetica,sans-Serif" font-size="8.00">+ layer : int</text>
<text text-anchor="start" x="586" y="-241.8" font-family="Helvetica,sans-Serif" font-size="8.00">+ relativePosition : Vector2</text>
<polyline fill="none" stroke="black" points="578,-233 748,-233 "/>
<text text-anchor="start" x="586" y="-221.8" font-family="Helvetica,sans-Serif" font-size="8.00">+ ClickHandler (GameState state)</text>
<text text-anchor="start" x="586" y="-209.8" font-family="Helvetica,sans-Serif" font-size="8.00">+ Update (GameTime gameTime) override</text>
</g>
<!-- Box_Input -->
<g id="node4" class="node"><title>Box_Input</title>
<polygon fill="#fcfcda" stroke="black" points="766,-117 766,-393 1052,-393 1052,-117 766,-117"/>
<text text-anchor="middle" x="909" y="-381.8" font-family="Helvetica,sans-Serif" font-size="8.00">Input</text>
<polyline fill="none" stroke="black" points="766,-373 1052,-373 "/>
<text text-anchor="start" x="774" y="-361.8" font-family="Helvetica,sans-Serif" font-size="8.00"># FullscreenToggled : bool static</text>
<text text-anchor="start" x="774" y="-349.8" font-family="Helvetica,sans-Serif" font-size="8.00">+ PreviousKeyboardState : KeyboardState static</text>
<text text-anchor="start" x="774" y="-337.8" font-family="Helvetica,sans-Serif" font-size="8.00">+ PreviousMouseState : MouseState static</text>
<text text-anchor="start" x="774" y="-325.8" font-family="Helvetica,sans-Serif" font-size="8.00">&#45; LeftButtonClickTimer : double static</text>
<text text-anchor="start" x="774" y="-313.8" font-family="Helvetica,sans-Serif" font-size="8.00">&#45; RightButtonClickTimer : double static</text>
<text text-anchor="start" x="774" y="-301.8" font-family="Helvetica,sans-Serif" font-size="8.00">&#45; PreviousClickMouseState : MouseState static</text>
<text text-anchor="start" x="774" y="-289.8" font-family="Helvetica,sans-Serif" font-size="8.00">+ LeftButton : ClickState static</text>
<text text-anchor="start" x="774" y="-277.8" font-family="Helvetica,sans-Serif" font-size="8.00">+ RightButton : ClickState static</text>
<text text-anchor="start" x="774" y="-265.8" font-family="Helvetica,sans-Serif" font-size="8.00">+ GrabMouseMovement : bool</text>
<text text-anchor="start" x="774" y="-253.8" font-family="Helvetica,sans-Serif" font-size="8.00">+ CurrentInputAction : InputAction</text>
<text text-anchor="start" x="774" y="-241.8" font-family="Helvetica,sans-Serif" font-size="8.00">+ WASDMode : WASDMode</text>
<text text-anchor="start" x="774" y="-229.8" font-family="Helvetica,sans-Serif" font-size="8.00">+ ValidKeys : List&lt;Keys&gt;</text>
<text text-anchor="start" x="774" y="-217.8" font-family="Helvetica,sans-Serif" font-size="8.00">+ IsKeyEventEnabled : bool</text>
<text text-anchor="start" x="774" y="-205.8" font-family="Helvetica,sans-Serif" font-size="8.00">+ MouseState : MouseState static</text>
<text text-anchor="start" x="774" y="-193.8" font-family="Helvetica,sans-Serif" font-size="8.00">+ KeyboardState : KeyboardState static</text>
<polyline fill="none" stroke="black" points="766,-185 1052,-185 "/>
<text text-anchor="start" x="774" y="-173.8" font-family="Helvetica,sans-Serif" font-size="8.00">+ Input (GameState state)</text>
<text text-anchor="start" x="774" y="-161.8" font-family="Helvetica,sans-Serif" font-size="8.00">+ Update (GameTime gameTime) override</text>
<text text-anchor="start" x="774" y="-149.8" font-family="Helvetica,sans-Serif" font-size="8.00"># UpdateKeys (GameTime gameTime) virtual</text>
<text text-anchor="start" x="774" y="-137.8" font-family="Helvetica,sans-Serif" font-size="8.00"># UpdateMouse (GameTime gameTime) virtual</text>
<text text-anchor="start" x="774" y="-125.8" font-family="Helvetica,sans-Serif" font-size="8.00">+ OnKeyEvent (List&lt;Keys&gt; key, KeyEvent keyEvent, GameTime gameTime)</text>
</g>
<!-- Box_MenuScreenInput -->
<g id="node5" class="node"><title>Box_MenuScreenInput</title>
<polygon fill="#fcfcda" stroke="black" points="831.5,-1 831.5,-61 986.5,-61 986.5,-1 831.5,-1"/>
<text text-anchor="middle" x="909" y="-49.8" font-family="Helvetica,sans-Serif" font-size="8.00">MenuScreenInput</text>
<polyline fill="none" stroke="black" points="831.5,-41 986.5,-41 "/>
<text text-anchor="middle" x="909" y="-29.8" font-family="Helvetica,sans-Serif" font-size="8.00"> </text>
<polyline fill="none" stroke="black" points="831.5,-21 986.5,-21 "/>
<text text-anchor="start" x="839.5" y="-9.8" font-family="Helvetica,sans-Serif" font-size="8.00">+ MenuScreenInput (GameState state)</text>
</g>
<!-- Box_Input&#45;&gt;Box_MenuScreenInput -->
<g id="edge12" class="edge"><title>Box_Input&#45;&gt;Box_MenuScreenInput</title>
<path fill="none" stroke="midnightblue" d="M909,-106.8C909,-89.7608 909,-73.974 909,-61.2679"/>
<polygon fill="none" stroke="midnightblue" points="905.5,-106.964 909,-116.964 912.5,-106.964 905.5,-106.964"/>
</g>
<!-- Box_KeyHandler -->
<g id="node6" class="node"><title>Box_KeyHandler</title>
<polygon fill="#fcfcda" stroke="black" points="0,-195 0,-315 170,-315 170,-195 0,-195"/>
<text text-anchor="middle" x="85" y="-303.8" font-family="Helvetica,sans-Serif" font-size="8.00">KeyHandler</text>
<polyline fill="none" stroke="black" points="0,-295 170,-295 "/>
<text text-anchor="start" x="8" y="-283.8" font-family="Helvetica,sans-Serif" font-size="8.00">private class KeyEventComponent :</text>
<text text-anchor="start" x="8" y="-271.8" font-family="Helvetica,sans-Serif" font-size="8.00">+ receiver : IKeyEventListener</text>
<text text-anchor="start" x="8" y="-259.8" font-family="Helvetica,sans-Serif" font-size="8.00">+ layer : int</text>
<text text-anchor="start" x="8" y="-247.8" font-family="Helvetica,sans-Serif" font-size="8.00">+ keyEvent : KeyEvent</text>
<text text-anchor="start" x="8" y="-235.8" font-family="Helvetica,sans-Serif" font-size="8.00">+ keys : List&lt;Keys&gt;</text>
<polyline fill="none" stroke="black" points="0,-227 170,-227 "/>
<text text-anchor="start" x="8" y="-215.8" font-family="Helvetica,sans-Serif" font-size="8.00">+ KeyHandler (GameState state)</text>
<text text-anchor="start" x="8" y="-203.8" font-family="Helvetica,sans-Serif" font-size="8.00">+ Update (GameTime gameTime) override</text>
</g>
<!-- Box_MousePicker -->
<g id="node7" class="node"><title>Box_MousePicker</title>
<polygon fill="#fcfcda" stroke="black" points="187.5,-207 187.5,-303 372.5,-303 372.5,-207 187.5,-207"/>
<text text-anchor="middle" x="280" y="-291.8" font-family="Helvetica,sans-Serif" font-size="8.00">MousePicker</text>
<polyline fill="none" stroke="black" points="187.5,-283 372.5,-283 "/>
<text text-anchor="start" x="195.5" y="-271.8" font-family="Helvetica,sans-Serif" font-size="8.00">&#45; World : World</text>
<text text-anchor="start" x="195.5" y="-259.8" font-family="Helvetica,sans-Serif" font-size="8.00">&#45; lastRayCheck : double</text>
<polyline fill="none" stroke="black" points="187.5,-251 372.5,-251 "/>
<text text-anchor="start" x="195.5" y="-239.8" font-family="Helvetica,sans-Serif" font-size="8.00">+ MousePicker (GameState state, World world)</text>
<text text-anchor="start" x="195.5" y="-227.8" font-family="Helvetica,sans-Serif" font-size="8.00">+ Update (GameTime gameTime) override</text>
<text text-anchor="start" x="195.5" y="-215.8" font-family="Helvetica,sans-Serif" font-size="8.00">+ UpdateMouseRay (GameTime gameTime)</text>
</g>
<!-- Box_PipeColoring -->
<g id="node8" class="node"><title>Box_PipeColoring</title>
<polygon fill="#fcfcda" stroke="black" points="1070,-201 1070,-309 1356,-309 1356,-201 1070,-201"/>
<text text-anchor="middle" x="1213" y="-297.8" font-family="Helvetica,sans-Serif" font-size="8.00">PipeColoring</text>
<polyline fill="none" stroke="black" points="1070,-289 1356,-289 "/>
<text text-anchor="start" x="1078" y="-277.8" font-family="Helvetica,sans-Serif" font-size="8.00">+ Knot : Knot</text>
<text text-anchor="start" x="1078" y="-265.8" font-family="Helvetica,sans-Serif" font-size="8.00">+ ValidKeys : List&lt;Keys&gt;</text>
<text text-anchor="start" x="1078" y="-253.8" font-family="Helvetica,sans-Serif" font-size="8.00">+ IsKeyEventEnabled : bool</text>
<polyline fill="none" stroke="black" points="1070,-245 1356,-245 "/>
<text text-anchor="start" x="1078" y="-233.8" font-family="Helvetica,sans-Serif" font-size="8.00">+ PipeColoring (GameState state)</text>
<text text-anchor="start" x="1078" y="-221.8" font-family="Helvetica,sans-Serif" font-size="8.00">+ Update (GameTime gameTime) override</text>
<text text-anchor="start" x="1078" y="-209.8" font-family="Helvetica,sans-Serif" font-size="8.00">+ OnKeyEvent (List&lt;Keys&gt; key, KeyEvent keyEvent, GameTime gameTime)</text>
</g>
<!-- Box_GameStateComponent&#45;&gt;Box_Camera -->
<g id="edge4" class="edge"><title>Box_GameStateComponent&#45;&gt;Box_Camera</title>
<path fill="none" stroke="midnightblue" d="M546.666,-439.503C543.208,-430.599 539.501,-421.055 535.66,-411.168"/>
<polygon fill="none" stroke="midnightblue" points="543.433,-440.845 550.316,-448.899 549.958,-438.31 543.433,-440.845"/>
</g>
<!-- Box_GameStateComponent&#45;&gt;Box_ClickHandler -->
<g id="edge6" class="edge"><title>Box_GameStateComponent&#45;&gt;Box_ClickHandler</title>
<path fill="none" stroke="midnightblue" d="M591.464,-439.167C606.765,-399.775 626.888,-347.969 641.893,-309.34"/>
<polygon fill="none" stroke="midnightblue" points="588.042,-438.31 587.684,-448.899 594.567,-440.845 588.042,-438.31"/>
</g>
<!-- Box_GameStateComponent&#45;&gt;Box_Input -->
<g id="edge8" class="edge"><title>Box_GameStateComponent&#45;&gt;Box_Input</title>
<path fill="none" stroke="midnightblue" d="M702.087,-444.485C721.17,-434.795 740.055,-423.921 757,-412 765.223,-406.215 773.372,-399.945 781.374,-393.354"/>
<polygon fill="none" stroke="midnightblue" points="700.407,-441.412 693.013,-449 703.525,-447.679 700.407,-441.412"/>
</g>
<!-- Box_GameStateComponent&#45;&gt;Box_KeyHandler -->
<g id="edge14" class="edge"><title>Box_GameStateComponent&#45;&gt;Box_KeyHandler</title>
<path fill="none" stroke="midnightblue" d="M388.356,-471.758C303.4,-457.097 213.31,-436.647 179,-412 145.845,-388.182 122.291,-348.718 107.052,-315.316"/>
<polygon fill="none" stroke="midnightblue" points="387.974,-475.243 398.42,-473.472 389.149,-468.342 387.974,-475.243"/>
</g>
<!-- Box_GameStateComponent&#45;&gt;Box_MousePicker -->
<g id="edge16" class="edge"><title>Box_GameStateComponent&#45;&gt;Box_MousePicker</title>
<path fill="none" stroke="midnightblue" d="M427.065,-443.76C410.642,-434.506 394.844,-423.945 381,-412 346.278,-382.042 319.083,-337.235 301.702,-303.148"/>
<polygon fill="none" stroke="midnightblue" points="425.789,-447.051 436.244,-448.767 429.141,-440.905 425.789,-447.051"/>
</g>
<!-- Box_GameStateComponent&#45;&gt;Box_PipeColoring -->
<g id="edge18" class="edge"><title>Box_GameStateComponent&#45;&gt;Box_PipeColoring</title>
<path fill="none" stroke="midnightblue" d="M749.812,-477.632C867.124,-462.82 1007.71,-440.171 1061,-412 1107.12,-387.619 1147.54,-344.136 1175.09,-309.105"/>
<polygon fill="none" stroke="midnightblue" points="749.105,-474.193 739.617,-478.907 749.974,-481.139 749.105,-474.193"/>
</g>
<!-- Box_XnaIGameComponent -->
<g id="node10" class="node"><title>Box_XnaIGameComponent</title>
<polygon fill="#ffffff" stroke="black" points="407.5,-681 407.5,-701 506.5,-701 506.5,-681 407.5,-681"/>
<text text-anchor="middle" x="457" y="-689.8" font-family="Helvetica,sans-Serif" font-size="8.00">Xna.IGameComponent</text>
</g>
<!-- Box_XnaIGameComponent&#45;&gt;Box_IGameStateComponent -->
<g id="edge2" class="edge"><title>Box_XnaIGameComponent&#45;&gt;Box_IGameStateComponent</title>
<path fill="none" stroke="midnightblue" d="M457,-670.777C457,-662.329 457,-652.337 457,-643.059"/>
<polygon fill="none" stroke="midnightblue" points="453.5,-670.803 457,-680.803 460.5,-670.803 453.5,-670.803"/>
</g>
<!-- Box_IKeyEventListener -->
<g id="node11" class="node"><title>Box_IKeyEventListener</title>
<polygon fill="#ffffff" stroke="black" points="1020.5,-487 1020.5,-507 1101.5,-507 1101.5,-487 1020.5,-487"/>
<text text-anchor="middle" x="1061" y="-495.8" font-family="Helvetica,sans-Serif" font-size="8.00">IKeyEventListener</text>
</g>
<!-- Box_IKeyEventListener&#45;&gt;Box_Input -->
<g id="edge10" class="edge"><title>Box_IKeyEventListener&#45;&gt;Box_Input</title>
<path fill="none" stroke="midnightblue" d="M1049.22,-478.253C1037.09,-458.927 1016.98,-426.921 995.739,-393.097"/>
<polygon fill="none" stroke="midnightblue" points="1046.38,-480.303 1054.66,-486.91 1052.31,-476.58 1046.38,-480.303"/>
</g>
<!-- Box_IKeyEventListener&#45;&gt;Box_PipeColoring -->
<g id="edge20" class="edge"><title>Box_IKeyEventListener&#45;&gt;Box_PipeColoring</title>
<path fill="none" stroke="midnightblue" d="M1072.67,-478.416C1095.15,-442.622 1145.23,-362.9 1179.06,-309.03"/>
<polygon fill="none" stroke="midnightblue" points="1069.69,-476.58 1067.34,-486.91 1075.62,-480.303 1069.69,-476.58"/>
</g>
<!-- Box_XnaGameComponent -->
<g id="node12" class="node"><title>Box_XnaGameComponent</title>
<polygon fill="#ffffff" stroke="black" points="633.5,-603 633.5,-623 730.5,-623 730.5,-603 633.5,-603"/>
<text text-anchor="middle" x="682" y="-611.8" font-family="Helvetica,sans-Serif" font-size="8.00">Xna.GameComponent</text>
</g>
<!-- Box_XnaGameComponent&#45;&gt;Box_GameStateComponent -->
<g id="edge22" class="edge"><title>Box_XnaGameComponent&#45;&gt;Box_GameStateComponent</title>
<path fill="none" stroke="midnightblue" d="M664.632,-595.171C651.618,-581.812 633.161,-562.865 615.928,-545.174"/>
<polygon fill="none" stroke="midnightblue" points="662.487,-597.985 671.972,-602.706 667.501,-593.1 662.487,-597.985"/>
</g>
</g>
</svg>
