<?xml version="1.0" encoding="UTF-8" standalone="no"?>
<!DOCTYPE svg PUBLIC "-//W3C//DTD SVG 1.1//EN"
 "http://www.w3.org/Graphics/SVG/1.1/DTD/svg11.dtd">
<!-- Generated by graphviz version 2.26.3 (20100126.1600)
 -->
<!-- Title: MenuItem Pages: 1 -->
<svg width="1298pt" height="794pt"
 viewBox="0.00 0.00 1298.00 794.00" xmlns="http://www.w3.org/2000/svg" xmlns:xlink="http://www.w3.org/1999/xlink">
<g id="graph1" class="graph" transform="scale(1 1) rotate(0) translate(4 790)">
<title>MenuItem</title>
<polygon fill="white" stroke="white" points="-4,5 -4,-790 1295,-790 1295,5 -4,5"/>
<!-- Box_GameStateComponent -->
<g id="node1" class="node"><title>Box_GameStateComponent</title>
<polygon fill="#fcfcda" stroke="black" points="356.5,-485 356.5,-605 697.5,-605 697.5,-485 356.5,-485"/>
<text text-anchor="middle" x="527" y="-593.8" font-family="Helvetica,sans-Serif" font-size="8.00">GameStateComponent</text>
<polyline fill="none" stroke="black" points="356.5,-585 697.5,-585 "/>
<text text-anchor="start" x="364.5" y="-573.8" font-family="Helvetica,sans-Serif" font-size="8.00">Attributes:</text>
<text text-anchor="start" x="364.5" y="-561.8" font-family="Helvetica,sans-Serif" font-size="8.00"># InputOrder : DisplayLayer</text>
<text text-anchor="start" x="364.5" y="-549.8" font-family="Helvetica,sans-Serif" font-size="8.00">+ state : GameState</text>
<text text-anchor="start" x="364.5" y="-537.8" font-family="Helvetica,sans-Serif" font-size="8.00">+ Index : int</text>
<text text-anchor="start" x="364.5" y="-525.8" font-family="Helvetica,sans-Serif" font-size="8.00">Methods:</text>
<polyline fill="none" stroke="black" points="356.5,-517 697.5,-517 "/>
<text text-anchor="start" x="364.5" y="-505.8" font-family="Helvetica,sans-Serif" font-size="8.00">+ GameStateComponent (GameState state, DisplayLayer inputOrder)</text>
<text text-anchor="start" x="364.5" y="-493.8" font-family="Helvetica,sans-Serif" font-size="8.00">+ SubComponents (GameTime gameTime) : IEnumerable&lt;IGameStateComponent&gt; virtual</text>
</g>
<!-- Box_Camera -->
<g id="node3" class="node"><title>Box_Camera</title>
<polygon fill="#fcfcda" stroke="black" points="358,-111 358,-447 526,-447 526,-111 358,-111"/>
<text text-anchor="middle" x="442" y="-435.8" font-family="Helvetica,sans-Serif" font-size="8.00">Camera</text>
<polyline fill="none" stroke="black" points="358,-427 526,-427 "/>
<text text-anchor="start" x="366" y="-415.8" font-family="Helvetica,sans-Serif" font-size="8.00">Attributes:</text>
<text text-anchor="start" x="366" y="-403.8" font-family="Helvetica,sans-Serif" font-size="8.00">&#45; AutoRotation : Angles3</text>
<text text-anchor="start" x="366" y="-391.8" font-family="Helvetica,sans-Serif" font-size="8.00">&#45; aspectRatio : float</text>
<text text-anchor="start" x="366" y="-379.8" font-family="Helvetica,sans-Serif" font-size="8.00">&#45; farPlane : float</text>
<text text-anchor="start" x="366" y="-367.8" font-family="Helvetica,sans-Serif" font-size="8.00">&#45; nearPlane : float</text>
<text text-anchor="start" x="366" y="-355.8" font-family="Helvetica,sans-Serif" font-size="8.00">+ RotationAngle : Angles3</text>
<text text-anchor="start" x="366" y="-343.8" font-family="Helvetica,sans-Serif" font-size="8.00">+ TargetDirection : Vector3</text>
<text text-anchor="start" x="366" y="-331.8" font-family="Helvetica,sans-Serif" font-size="8.00">+ FoV : float</text>
<text text-anchor="start" x="366" y="-319.8" font-family="Helvetica,sans-Serif" font-size="8.00">&#45; World : World</text>
<text text-anchor="start" x="366" y="-307.8" font-family="Helvetica,sans-Serif" font-size="8.00">&#45; foV : float</text>
<text text-anchor="start" x="366" y="-295.8" font-family="Helvetica,sans-Serif" font-size="8.00">+ ProjectionMatrix : Matrix</text>
<text text-anchor="start" x="366" y="-283.8" font-family="Helvetica,sans-Serif" font-size="8.00">+ ViewMatrix : Matrix</text>
<text text-anchor="start" x="366" y="-271.8" font-family="Helvetica,sans-Serif" font-size="8.00">+ WorldMatrix : Matrix</text>
<text text-anchor="start" x="366" y="-259.8" font-family="Helvetica,sans-Serif" font-size="8.00">+ ArcballTarget : Vector3</text>
<text text-anchor="start" x="366" y="-247.8" font-family="Helvetica,sans-Serif" font-size="8.00">+ DefaultPosition : Vector3</text>
<text text-anchor="start" x="366" y="-235.8" font-family="Helvetica,sans-Serif" font-size="8.00">+ Position : Vector3</text>
<text text-anchor="start" x="366" y="-223.8" font-family="Helvetica,sans-Serif" font-size="8.00">+ Target : Vector3</text>
<text text-anchor="start" x="366" y="-211.8" font-family="Helvetica,sans-Serif" font-size="8.00">+ UpVector : Vector3</text>
<text text-anchor="start" x="366" y="-199.8" font-family="Helvetica,sans-Serif" font-size="8.00">+ TargetDistance : float</text>
<text text-anchor="start" x="366" y="-187.8" font-family="Helvetica,sans-Serif" font-size="8.00">Methods:</text>
<polyline fill="none" stroke="black" points="358,-179 526,-179 "/>
<text text-anchor="start" x="366" y="-167.8" font-family="Helvetica,sans-Serif" font-size="8.00">+ Camera (GameState state, World world)</text>
<text text-anchor="start" x="366" y="-155.8" font-family="Helvetica,sans-Serif" font-size="8.00">+ GetMouseRay (Vector2 mouse) : Ray</text>
<text text-anchor="start" x="366" y="-143.8" font-family="Helvetica,sans-Serif" font-size="8.00">&#45; UpdateMatrices (GameTime gameTime)</text>
<text text-anchor="start" x="366" y="-131.8" font-family="Helvetica,sans-Serif" font-size="8.00">&#45; UpdateRotation (GameTime gameTime)</text>
<text text-anchor="start" x="366" y="-119.8" font-family="Helvetica,sans-Serif" font-size="8.00">+ Update (GameTime gameTime)</text>
</g>
<!-- Box_GameStateComponent&#45;&gt;Box_Camera -->
<g id="edge8" class="edge"><title>Box_GameStateComponent&#45;&gt;Box_Camera</title>
<path fill="none" stroke="midnightblue" d="M504.763,-475.411C501.885,-466.406 498.846,-456.894 495.719,-447.109"/>
<polygon fill="none" stroke="midnightblue" points="501.441,-476.513 507.818,-484.973 508.108,-474.382 501.441,-476.513"/>
</g>
<!-- Box_ClickHandler -->
<g id="node4" class="node"><title>Box_ClickHandler</title>
<polygon fill="#fcfcda" stroke="black" points="544,-231 544,-327 682,-327 682,-231 544,-231"/>
<text text-anchor="middle" x="613" y="-315.8" font-family="Helvetica,sans-Serif" font-size="8.00">ClickHandler</text>
<polyline fill="none" stroke="black" points="544,-307 682,-307 "/>
<text text-anchor="start" x="552" y="-295.8" font-family="Helvetica,sans-Serif" font-size="8.00">Attributes:</text>
<text text-anchor="start" x="552" y="-283.8" font-family="Helvetica,sans-Serif" font-size="8.00">&#45; ClickEventComponent : class</text>
<text text-anchor="start" x="552" y="-271.8" font-family="Helvetica,sans-Serif" font-size="8.00">Methods:</text>
<polyline fill="none" stroke="black" points="544,-263 682,-263 "/>
<text text-anchor="start" x="552" y="-251.8" font-family="Helvetica,sans-Serif" font-size="8.00">+ ClickHandler (GameState state)</text>
<text text-anchor="start" x="552" y="-239.8" font-family="Helvetica,sans-Serif" font-size="8.00">+ Update (GameTime gameTime)</text>
</g>
<!-- Box_GameStateComponent&#45;&gt;Box_ClickHandler -->
<g id="edge10" class="edge"><title>Box_GameStateComponent&#45;&gt;Box_ClickHandler</title>
<path fill="none" stroke="midnightblue" d="M549.55,-475.251C564.607,-428.679 584.025,-368.62 597.392,-327.275"/>
<polygon fill="none" stroke="midnightblue" points="546.153,-474.381 546.407,-484.973 552.814,-476.534 546.153,-474.381"/>
</g>
<!-- Box_Input -->
<g id="node5" class="node"><title>Box_Input</title>
<polygon fill="#fcfcda" stroke="black" points="700,-129 700,-429 986,-429 986,-129 700,-129"/>
<text text-anchor="middle" x="843" y="-417.8" font-family="Helvetica,sans-Serif" font-size="8.00">Input</text>
<polyline fill="none" stroke="black" points="700,-409 986,-409 "/>
<text text-anchor="start" x="708" y="-397.8" font-family="Helvetica,sans-Serif" font-size="8.00">Attributes:</text>
<text text-anchor="start" x="708" y="-385.8" font-family="Helvetica,sans-Serif" font-size="8.00">&#45; PreviousClickMouseState : MouseState static</text>
<text text-anchor="start" x="708" y="-373.8" font-family="Helvetica,sans-Serif" font-size="8.00">&#45; LeftButtonClickTimer : double static</text>
<text text-anchor="start" x="708" y="-361.8" font-family="Helvetica,sans-Serif" font-size="8.00">&#45; RightButtonClickTimer : double static</text>
<text text-anchor="start" x="708" y="-349.8" font-family="Helvetica,sans-Serif" font-size="8.00">+ GrabMouseMovement : bool</text>
<text text-anchor="start" x="708" y="-337.8" font-family="Helvetica,sans-Serif" font-size="8.00">+ LeftButton : ClickState static</text>
<text text-anchor="start" x="708" y="-325.8" font-family="Helvetica,sans-Serif" font-size="8.00">+ RightButton : ClickState static</text>
<text text-anchor="start" x="708" y="-313.8" font-family="Helvetica,sans-Serif" font-size="8.00">+ PreviousKeyboardState : KeyboardState static</text>
<text text-anchor="start" x="708" y="-301.8" font-family="Helvetica,sans-Serif" font-size="8.00">+ MouseState : MouseState static</text>
<text text-anchor="start" x="708" y="-289.8" font-family="Helvetica,sans-Serif" font-size="8.00">+ PreviousMouseState : MouseState static</text>
<text text-anchor="start" x="708" y="-277.8" font-family="Helvetica,sans-Serif" font-size="8.00"># FullscreenToggled : bool static</text>
<text text-anchor="start" x="708" y="-265.8" font-family="Helvetica,sans-Serif" font-size="8.00">+ CurrentInputAction : InputAction</text>
<text text-anchor="start" x="708" y="-253.8" font-family="Helvetica,sans-Serif" font-size="8.00">+ ValidKeys : List&lt;Keys&gt;</text>
<text text-anchor="start" x="708" y="-241.8" font-family="Helvetica,sans-Serif" font-size="8.00">+ WASDMode : WASDMode</text>
<text text-anchor="start" x="708" y="-229.8" font-family="Helvetica,sans-Serif" font-size="8.00">+ IsKeyEventEnabled : bool</text>
<text text-anchor="start" x="708" y="-217.8" font-family="Helvetica,sans-Serif" font-size="8.00">+ KeyboardState : KeyboardState static</text>
<text text-anchor="start" x="708" y="-205.8" font-family="Helvetica,sans-Serif" font-size="8.00">Methods:</text>
<polyline fill="none" stroke="black" points="700,-197 986,-197 "/>
<text text-anchor="start" x="708" y="-185.8" font-family="Helvetica,sans-Serif" font-size="8.00"># UpdateMouse (GameTime gameTime) virtual</text>
<text text-anchor="start" x="708" y="-173.8" font-family="Helvetica,sans-Serif" font-size="8.00">+ Update (GameTime gameTime)</text>
<text text-anchor="start" x="708" y="-161.8" font-family="Helvetica,sans-Serif" font-size="8.00">+ OnKeyEvent (List&lt;Keys&gt; key, KeyEvent keyEvent, GameTime gameTime)</text>
<text text-anchor="start" x="708" y="-149.8" font-family="Helvetica,sans-Serif" font-size="8.00"># UpdateKeys (GameTime gameTime) virtual</text>
<text text-anchor="start" x="708" y="-137.8" font-family="Helvetica,sans-Serif" font-size="8.00">+ Input (GameState state)</text>
</g>
<!-- Box_GameStateComponent&#45;&gt;Box_Input -->
<g id="edge12" class="edge"><title>Box_GameStateComponent&#45;&gt;Box_Input</title>
<path fill="none" stroke="midnightblue" d="M647.465,-479.557C662.609,-469.668 677.504,-459.053 691,-448 698.327,-441.999 705.616,-435.638 712.81,-429.037"/>
<polygon fill="none" stroke="midnightblue" points="645.554,-476.625 639.033,-484.975 649.338,-482.514 645.554,-476.625"/>
</g>
<!-- Box_KeyHandler -->
<g id="node7" class="node"><title>Box_KeyHandler</title>
<polygon fill="#fcfcda" stroke="black" points="0,-231 0,-327 138,-327 138,-231 0,-231"/>
<text text-anchor="middle" x="69" y="-315.8" font-family="Helvetica,sans-Serif" font-size="8.00">KeyHandler</text>
<polyline fill="none" stroke="black" points="0,-307 138,-307 "/>
<text text-anchor="start" x="8" y="-295.8" font-family="Helvetica,sans-Serif" font-size="8.00">Attributes:</text>
<text text-anchor="start" x="8" y="-283.8" font-family="Helvetica,sans-Serif" font-size="8.00">&#45; KeyEventComponent : class</text>
<text text-anchor="start" x="8" y="-271.8" font-family="Helvetica,sans-Serif" font-size="8.00">Methods:</text>
<polyline fill="none" stroke="black" points="0,-263 138,-263 "/>
<text text-anchor="start" x="8" y="-251.8" font-family="Helvetica,sans-Serif" font-size="8.00">+ KeyHandler (GameState state)</text>
<text text-anchor="start" x="8" y="-239.8" font-family="Helvetica,sans-Serif" font-size="8.00">+ Update (GameTime gameTime)</text>
</g>
<!-- Box_GameStateComponent&#45;&gt;Box_KeyHandler -->
<g id="edge18" class="edge"><title>Box_GameStateComponent&#45;&gt;Box_KeyHandler</title>
<path fill="none" stroke="midnightblue" d="M346.282,-514.188C264.196,-497.173 178.461,-474.187 147,-448 110.117,-417.301 89.7782,-365.351 79.2,-327.134"/>
<polygon fill="none" stroke="midnightblue" points="345.771,-517.656 356.27,-516.233 347.176,-510.798 345.771,-517.656"/>
</g>
<!-- Box_MousePicker -->
<g id="node8" class="node"><title>Box_MousePicker</title>
<polygon fill="#fcfcda" stroke="black" points="155.5,-219 155.5,-339 340.5,-339 340.5,-219 155.5,-219"/>
<text text-anchor="middle" x="248" y="-327.8" font-family="Helvetica,sans-Serif" font-size="8.00">MousePicker</text>
<polyline fill="none" stroke="black" points="155.5,-319 340.5,-319 "/>
<text text-anchor="start" x="163.5" y="-307.8" font-family="Helvetica,sans-Serif" font-size="8.00">Attributes:</text>
<text text-anchor="start" x="163.5" y="-295.8" font-family="Helvetica,sans-Serif" font-size="8.00">&#45; World : World</text>
<text text-anchor="start" x="163.5" y="-283.8" font-family="Helvetica,sans-Serif" font-size="8.00">&#45; lastRayCheck : double</text>
<text text-anchor="start" x="163.5" y="-271.8" font-family="Helvetica,sans-Serif" font-size="8.00">Methods:</text>
<polyline fill="none" stroke="black" points="155.5,-263 340.5,-263 "/>
<text text-anchor="start" x="163.5" y="-251.8" font-family="Helvetica,sans-Serif" font-size="8.00">+ MousePicker (GameState state, World world)</text>
<text text-anchor="start" x="163.5" y="-239.8" font-family="Helvetica,sans-Serif" font-size="8.00">+ Update (GameTime gameTime)</text>
<text text-anchor="start" x="163.5" y="-227.8" font-family="Helvetica,sans-Serif" font-size="8.00">+ UpdateMouseRay (GameTime gameTime)</text>
</g>
<!-- Box_GameStateComponent&#45;&gt;Box_MousePicker -->
<g id="edge20" class="edge"><title>Box_GameStateComponent&#45;&gt;Box_MousePicker</title>
<path fill="none" stroke="midnightblue" d="M388.474,-479.412C374.365,-469.9 360.879,-459.416 349,-448 316.962,-417.21 291.417,-374.11 274.033,-339.143"/>
<polygon fill="none" stroke="midnightblue" points="386.563,-482.345 396.845,-484.9 390.401,-476.49 386.563,-482.345"/>
</g>
<!-- Box_PipeColoring -->
<g id="node9" class="node"><title>Box_PipeColoring</title>
<polygon fill="#fcfcda" stroke="black" points="1004,-213 1004,-345 1290,-345 1290,-213 1004,-213"/>
<text text-anchor="middle" x="1147" y="-333.8" font-family="Helvetica,sans-Serif" font-size="8.00">PipeColoring</text>
<polyline fill="none" stroke="black" points="1004,-325 1290,-325 "/>
<text text-anchor="start" x="1012" y="-313.8" font-family="Helvetica,sans-Serif" font-size="8.00">Attributes:</text>
<text text-anchor="start" x="1012" y="-301.8" font-family="Helvetica,sans-Serif" font-size="8.00">+ ValidKeys : List&lt;Keys&gt;</text>
<text text-anchor="start" x="1012" y="-289.8" font-family="Helvetica,sans-Serif" font-size="8.00">+ Knot : Knot</text>
<text text-anchor="start" x="1012" y="-277.8" font-family="Helvetica,sans-Serif" font-size="8.00">+ IsKeyEventEnabled : bool</text>
<text text-anchor="start" x="1012" y="-265.8" font-family="Helvetica,sans-Serif" font-size="8.00">Methods:</text>
<polyline fill="none" stroke="black" points="1004,-257 1290,-257 "/>
<text text-anchor="start" x="1012" y="-245.8" font-family="Helvetica,sans-Serif" font-size="8.00">+ OnKeyEvent (List&lt;Keys&gt; key, KeyEvent keyEvent, GameTime gameTime)</text>
<text text-anchor="start" x="1012" y="-233.8" font-family="Helvetica,sans-Serif" font-size="8.00">+ PipeColoring (GameState state)</text>
<text text-anchor="start" x="1012" y="-221.8" font-family="Helvetica,sans-Serif" font-size="8.00">+ Update (GameTime gameTime)</text>
</g>
<!-- Box_GameStateComponent&#45;&gt;Box_PipeColoring -->
<g id="edge22" class="edge"><title>Box_GameStateComponent&#45;&gt;Box_PipeColoring</title>
<path fill="none" stroke="midnightblue" d="M707.676,-519.429C817.7,-501.592 946.195,-476.031 995,-448 1038.63,-422.942 1076.5,-380.923 1103.53,-345.054"/>
<polygon fill="none" stroke="midnightblue" points="707.084,-515.979 697.767,-521.023 708.196,-522.891 707.084,-515.979"/>
</g>
<!-- Box_IGameStateComponent -->
<g id="node2" class="node"><title>Box_IGameStateComponent</title>
<polygon fill="#dafcda" stroke="black" points="256,-643 256,-727 574,-727 574,-643 256,-643"/>
<text text-anchor="middle" x="415" y="-715.8" font-family="Helvetica,sans-Serif" font-size="8.00">IGameStateComponent</text>
<polyline fill="none" stroke="black" points="256,-707 574,-707 "/>
<text text-anchor="start" x="264" y="-695.8" font-family="Helvetica,sans-Serif" font-size="8.00">Attributes:</text>
<text text-anchor="start" x="264" y="-683.8" font-family="Helvetica,sans-Serif" font-size="8.00">+ Index : int</text>
<text text-anchor="start" x="264" y="-671.8" font-family="Helvetica,sans-Serif" font-size="8.00">Methods:</text>
<polyline fill="none" stroke="black" points="256,-663 574,-663 "/>
<text text-anchor="start" x="264" y="-651.8" font-family="Helvetica,sans-Serif" font-size="8.00">+ SubComponents (GameTime gameTime) : IEnumerable&lt;IGameStateComponent&gt;</text>
</g>
<!-- Box_IGameStateComponent&#45;&gt;Box_GameStateComponent -->
<g id="edge4" class="edge"><title>Box_IGameStateComponent&#45;&gt;Box_GameStateComponent</title>
<path fill="none" stroke="midnightblue" d="M454.996,-635.005C462.749,-625.314 470.948,-615.065 478.928,-605.09"/>
<polygon fill="none" stroke="midnightblue" points="452.118,-633 448.604,-642.995 457.584,-637.373 452.118,-633"/>
</g>
<!-- Box_MenuScreenInput -->
<g id="node6" class="node"><title>Box_MenuScreenInput</title>
<polygon fill="#fcfcda" stroke="black" points="765.5,-1 765.5,-73 920.5,-73 920.5,-1 765.5,-1"/>
<text text-anchor="middle" x="843" y="-61.8" font-family="Helvetica,sans-Serif" font-size="8.00">MenuScreenInput</text>
<polyline fill="none" stroke="black" points="765.5,-53 920.5,-53 "/>
<text text-anchor="start" x="773.5" y="-41.8" font-family="Helvetica,sans-Serif" font-size="8.00">Attributes:</text>
<text text-anchor="start" x="773.5" y="-29.8" font-family="Helvetica,sans-Serif" font-size="8.00">Methods:</text>
<polyline fill="none" stroke="black" points="765.5,-21 920.5,-21 "/>
<text text-anchor="start" x="773.5" y="-9.8" font-family="Helvetica,sans-Serif" font-size="8.00">+ MenuScreenInput (GameState state)</text>
</g>
<!-- Box_Input&#45;&gt;Box_MenuScreenInput -->
<g id="edge16" class="edge"><title>Box_Input&#45;&gt;Box_MenuScreenInput</title>
<path fill="none" stroke="midnightblue" d="M843,-118.789C843,-101.931 843,-86.212 843,-73.1491"/>
<polygon fill="none" stroke="midnightblue" points="839.5,-118.835 843,-128.835 846.5,-118.835 839.5,-118.835"/>
</g>
<!-- Box_XnaGameComponent -->
<g id="node10" class="node"><title>Box_XnaGameComponent</title>
<polygon fill="#ffffff" stroke="black" points="591.5,-675 591.5,-695 688.5,-695 688.5,-675 591.5,-675"/>
<text text-anchor="middle" x="640" y="-683.8" font-family="Helvetica,sans-Serif" font-size="8.00">Xna.GameComponent</text>
</g>
<!-- Box_XnaGameComponent&#45;&gt;Box_GameStateComponent -->
<g id="edge2" class="edge"><title>Box_XnaGameComponent&#45;&gt;Box_GameStateComponent</title>
<path fill="none" stroke="midnightblue" d="M625.529,-667.071C612.811,-651.314 593.556,-627.459 575.432,-605.004"/>
<polygon fill="none" stroke="midnightblue" points="622.869,-669.348 631.873,-674.932 628.316,-664.952 622.869,-669.348"/>
</g>
<!-- Box_XnaIGameComponent -->
<g id="node11" class="node"><title>Box_XnaIGameComponent</title>
<polygon fill="#ffffff" stroke="black" points="365.5,-765 365.5,-785 464.5,-785 464.5,-765 365.5,-765"/>
<text text-anchor="middle" x="415" y="-773.8" font-family="Helvetica,sans-Serif" font-size="8.00">Xna.IGameComponent</text>
</g>
<!-- Box_XnaIGameComponent&#45;&gt;Box_IGameStateComponent -->
<g id="edge6" class="edge"><title>Box_XnaIGameComponent&#45;&gt;Box_IGameStateComponent</title>
<path fill="none" stroke="midnightblue" d="M415,-754.454C415,-746.393 415,-736.828 415,-727.414"/>
<polygon fill="none" stroke="midnightblue" points="411.5,-754.676 415,-764.676 418.5,-754.676 411.5,-754.676"/>
</g>
<!-- Box_IKeyEventListener -->
<g id="node12" class="node"><title>Box_IKeyEventListener</title>
<polygon fill="#ffffff" stroke="black" points="954.5,-535 954.5,-555 1035.5,-555 1035.5,-535 954.5,-535"/>
<text text-anchor="middle" x="995" y="-543.8" font-family="Helvetica,sans-Serif" font-size="8.00">IKeyEventListener</text>
</g>
<!-- Box_IKeyEventListener&#45;&gt;Box_Input -->
<g id="edge14" class="edge"><title>Box_IKeyEventListener&#45;&gt;Box_Input</title>
<path fill="none" stroke="midnightblue" d="M984.123,-525.965C971.923,-504.616 950.931,-467.879 928.811,-429.169"/>
<polygon fill="none" stroke="midnightblue" points="981.227,-527.951 989.227,-534.897 987.304,-524.478 981.227,-527.951"/>
</g>
<!-- Box_IKeyEventListener&#45;&gt;Box_PipeColoring -->
<g id="edge24" class="edge"><title>Box_IKeyEventListener&#45;&gt;Box_PipeColoring</title>
<path fill="none" stroke="midnightblue" d="M1005.79,-526.114C1027.02,-488.96 1075.12,-404.793 1109.27,-345.033"/>
<polygon fill="none" stroke="midnightblue" points="1002.7,-524.478 1000.77,-534.897 1008.77,-527.951 1002.7,-524.478"/>
</g>
</g>
</svg>
