<?xml version="1.0" encoding="UTF-8" standalone="no"?>
<!DOCTYPE svg PUBLIC "-//W3C//DTD SVG 1.1//EN"
 "http://www.w3.org/Graphics/SVG/1.1/DTD/svg11.dtd">
<!-- Generated by graphviz version 2.26.3 (20100126.1600)
 -->
<!-- Title: MenuItem Pages: 1 -->
<svg width="1933pt" height="2225pt"
 viewBox="0.00 0.00 464.00 534.00" xmlns="http://www.w3.org/2000/svg" xmlns:xlink="http://www.w3.org/1999/xlink">
<g id="graph1" class="graph" transform="scale(4.16667 4.16667) rotate(0) translate(4 530)">
<title>MenuItem</title>
<polygon fill="white" stroke="white" points="-4,5 -4,-530 461,-530 461,5 -4,5"/>
<!-- Box_Overlay -->
<g id="node1" class="node"><title>Box_Overlay</title>
<polygon fill="#fcfcda" stroke="black" points="107.5,-1 107.5,-255 436.5,-255 436.5,-1 107.5,-1"/>
<text text-anchor="middle" x="272" y="-243.8" font-family="Arial" font-size="8.00">Overlay</text>
<polyline fill="none" stroke="black" points="107.5,-237 436.5,-237 "/>
<text text-anchor="start" x="115.5" y="-225.8" font-family="Arial" font-size="8.00">&#45; effect : BasicEffect</text>
<text text-anchor="start" x="115.5" y="-215.8" font-family="Arial" font-size="8.00">&#45; _elapsed_time : float</text>
<text text-anchor="start" x="115.5" y="-205.8" font-family="Arial" font-size="8.00">&#45; _fps : int</text>
<text text-anchor="start" x="115.5" y="-195.8" font-family="Arial" font-size="8.00">&#45; World : World</text>
<text text-anchor="start" x="115.5" y="-185.8" font-family="Arial" font-size="8.00">+ HashtableWrapper : class</text>
<text text-anchor="start" x="115.5" y="-175.8" font-family="Arial" font-size="8.00">&#45; _total_frames : int</text>
<text text-anchor="start" x="115.5" y="-165.8" font-family="Arial" font-size="8.00">&#45; spriteBatch : SpriteBatch</text>
<text text-anchor="start" x="115.5" y="-155.8" font-family="Arial" font-size="8.00">&#45; font : SpriteFont</text>
<polyline fill="none" stroke="black" points="107.5,-149 436.5,-149 "/>
<text text-anchor="start" x="115.5" y="-137.8" font-family="Arial" font-size="8.00">&#45; profiler () : Hashtable static</text>
<text text-anchor="start" x="115.5" y="-127.8" font-family="Arial" font-size="8.00">+ Profiler () : HashtableWrapper static</text>
<text text-anchor="start" x="115.5" y="-117.8" font-family="Arial" font-size="8.00">&#45; DrawFPS (GameTime gameTime)</text>
<text text-anchor="start" x="115.5" y="-107.8" font-family="Arial" font-size="8.00">&#45; DrawString (float n, int width, int height, Color color)</text>
<text text-anchor="start" x="115.5" y="-97.8" font-family="Arial" font-size="8.00">&#45; DrawVectorCoordinates (Vector3 vector, int width2, int width3, int width4, int height)</text>
<text text-anchor="start" x="115.5" y="-87.8" font-family="Arial" font-size="8.00">&#45; UpdateFPS (GameTime gameTime)</text>
<text text-anchor="start" x="115.5" y="-77.8" font-family="Arial" font-size="8.00">+ Overlay (GameState state, World world)</text>
<text text-anchor="start" x="115.5" y="-67.8" font-family="Arial" font-size="8.00">+ Draw (GameTime gameTime)</text>
<text text-anchor="start" x="115.5" y="-57.8" font-family="Arial" font-size="8.00">&#45; DrawCoordinates (GameTime gameTime)</text>
<text text-anchor="start" x="115.5" y="-47.8" font-family="Arial" font-size="8.00">&#45; DrawOverlay (GameTime gameTime)</text>
<text text-anchor="start" x="115.5" y="-37.8" font-family="Arial" font-size="8.00">&#45; DrawProfiler (GameTime gameTime)</text>
<text text-anchor="start" x="115.5" y="-27.8" font-family="Arial" font-size="8.00">&#45; DrawString (string str, int width, int height, Color color)</text>
<text text-anchor="start" x="115.5" y="-17.8" font-family="Arial" font-size="8.00"># LoadContent ()</text>
<text text-anchor="start" x="115.5" y="-7.8" font-family="Arial" font-size="8.00">+ Update (GameTime gameTime)</text>
</g>
<!-- Box_DrawableGameStateComponent -->
<g id="node2" class="node"><title>Box_DrawableGameStateComponent</title>
<polygon fill="#fcfcda" stroke="black" points="106,-293 106,-377 438,-377 438,-293 106,-293"/>
<text text-anchor="middle" x="272" y="-365.8" font-family="Arial" font-size="8.00">DrawableGameStateComponent</text>
<polyline fill="none" stroke="black" points="106,-359 438,-359 "/>
<text text-anchor="start" x="114" y="-347.8" font-family="Arial" font-size="8.00">+ Index : DisplayLayer</text>
<text text-anchor="start" x="114" y="-337.8" font-family="Arial" font-size="8.00">&#45; _index : DisplayLayer</text>
<text text-anchor="start" x="114" y="-327.8" font-family="Arial" font-size="8.00">+ state : GameState</text>
<polyline fill="none" stroke="black" points="106,-321 438,-321 "/>
<text text-anchor="start" x="114" y="-309.8" font-family="Arial" font-size="8.00">+ DrawableGameStateComponent (GameState state, DisplayLayer index)</text>
<text text-anchor="start" x="114" y="-299.8" font-family="Arial" font-size="8.00">+ SubComponents (GameTime gameTime) : IEnumerable&lt;IGameStateComponent&gt; virtual</text>
</g>
<!-- Box_DrawableGameStateComponent&#45;&gt;Box_Overlay -->
<g id="edge2" class="edge"><title>Box_DrawableGameStateComponent&#45;&gt;Box_Overlay</title>
<path fill="none" stroke="midnightblue" d="M272,-282.657C272,-274.014 272,-264.736 272,-255.172"/>
<polygon fill="none" stroke="midnightblue" points="268.5,-282.861 272,-292.861 275.5,-282.861 268.5,-282.861"/>
</g>
<!-- Box_IGameStateComponent -->
<g id="node3" class="node"><title>Box_IGameStateComponent</title>
<polygon fill="#dafcda" stroke="black" points="0,-415 0,-469 308,-469 308,-415 0,-415"/>
<text text-anchor="middle" x="154" y="-457.8" font-family="Arial" font-size="8.00">IGameStateComponent</text>
<polyline fill="none" stroke="black" points="0,-451 308,-451 "/>
<text text-anchor="start" x="8" y="-439.8" font-family="Arial" font-size="8.00">+ Index : DisplayLayer</text>
<polyline fill="none" stroke="black" points="0,-433 308,-433 "/>
<text text-anchor="start" x="8" y="-421.8" font-family="Arial" font-size="8.00">+ SubComponents (GameTime gameTime) : IEnumerable&lt;IGameStateComponent&gt;</text>
</g>
<!-- Box_IGameStateComponent&#45;&gt;Box_DrawableGameStateComponent -->
<g id="edge6" class="edge"><title>Box_IGameStateComponent&#45;&gt;Box_DrawableGameStateComponent</title>
<path fill="none" stroke="midnightblue" d="M191.383,-408.102C202.133,-398.354 213.995,-387.598 225.236,-377.404"/>
<polygon fill="none" stroke="midnightblue" points="188.833,-405.689 183.776,-414.999 193.535,-410.875 188.833,-405.689"/>
</g>
<!-- Box_XnaDrawableGameComponent -->
<g id="node4" class="node"><title>Box_XnaDrawableGameComponent</title>
<polygon fill="#ffffff" stroke="black" points="326,-433 326,-451 456,-451 456,-433 326,-433"/>
<text text-anchor="middle" x="391" y="-439.8" font-family="Arial" font-size="8.00">Xna.DrawableGameComponent</text>
</g>
<!-- Box_XnaDrawableGameComponent&#45;&gt;Box_DrawableGameStateComponent -->
<g id="edge4" class="edge"><title>Box_XnaDrawableGameComponent&#45;&gt;Box_DrawableGameStateComponent</title>
<path fill="none" stroke="midnightblue" d="M373.226,-426.018C358.886,-413.124 338.035,-394.376 318.979,-377.241"/>
<polygon fill="none" stroke="midnightblue" points="371.078,-428.794 380.854,-432.877 375.758,-423.588 371.078,-428.794"/>
</g>
<!-- Box_XnaIGameComponent -->
<g id="node5" class="node"><title>Box_XnaIGameComponent</title>
<polygon fill="#ffffff" stroke="black" points="106,-507 106,-525 202,-525 202,-507 106,-507"/>
<text text-anchor="middle" x="154" y="-513.8" font-family="Arial" font-size="8.00">Xna.IGameComponent</text>
</g>
<!-- Box_XnaIGameComponent&#45;&gt;Box_IGameStateComponent -->
<g id="edge8" class="edge"><title>Box_XnaIGameComponent&#45;&gt;Box_IGameStateComponent</title>
<path fill="none" stroke="midnightblue" d="M154,-496.64C154,-488.2 154,-478.16 154,-469.004"/>
<polygon fill="none" stroke="midnightblue" points="150.5,-496.926 154,-506.926 157.5,-496.926 150.5,-496.926"/>
</g>
</g>
</svg>
