<?xml version="1.0" encoding="UTF-8" standalone="no"?>
<!DOCTYPE svg PUBLIC "-//W3C//DTD SVG 1.1//EN"
 "http://www.w3.org/Graphics/SVG/1.1/DTD/svg11.dtd">
<!-- Generated by graphviz version 2.26.3 (20100126.1600)
 -->
<!-- Title: MenuItem Pages: 1 -->
<svg width="779pt" height="1098pt"
 viewBox="0.00 0.00 779.00 1098.00" xmlns="http://www.w3.org/2000/svg" xmlns:xlink="http://www.w3.org/1999/xlink">
<g id="graph1" class="graph" transform="scale(1 1) rotate(0) translate(4 1094)">
<title>MenuItem</title>
<polygon fill="white" stroke="white" points="-4,5 -4,-1094 776,-1094 776,5 -4,5"/>
<!-- Box_ItemWidget -->
<g id="node1" class="node"><title>Box_ItemWidget</title>
<polygon fill="#fcfcda" stroke="black" points="420.5,-521 420.5,-617 749.5,-617 749.5,-521 420.5,-521"/>
<text text-anchor="middle" x="585" y="-605.8" font-family="Helvetica,sans-Serif" font-size="8.00">ItemWidget</text>
<polyline fill="none" stroke="black" points="420.5,-597 749.5,-597 "/>
<text text-anchor="start" x="428.5" y="-585.8" font-family="Helvetica,sans-Serif" font-size="8.00">Attributes:</text>
<text text-anchor="start" x="428.5" y="-573.8" font-family="Helvetica,sans-Serif" font-size="8.00">+ ItemState : ItemState</text>
<text text-anchor="start" x="428.5" y="-561.8" font-family="Helvetica,sans-Serif" font-size="8.00"># ItemNum : int</text>
<text text-anchor="start" x="428.5" y="-549.8" font-family="Helvetica,sans-Serif" font-size="8.00">Methods:</text>
<polyline fill="none" stroke="black" points="420.5,-541 749.5,-541 "/>
<text text-anchor="start" x="428.5" y="-529.8" font-family="Helvetica,sans-Serif" font-size="8.00">+ ItemWidget (GameState state, WidgetInfo info, DisplayLayer drawOrder, int itemNum)</text>
</g>
<!-- Box_MenuItem -->
<g id="node5" class="node"><title>Box_MenuItem</title>
<polygon fill="#fcfcda" stroke="black" points="195.5,-243 195.5,-483 530.5,-483 530.5,-243 195.5,-243"/>
<text text-anchor="middle" x="363" y="-471.8" font-family="Helvetica,sans-Serif" font-size="8.00">MenuItem</text>
<polyline fill="none" stroke="black" points="195.5,-463 530.5,-463 "/>
<text text-anchor="start" x="203.5" y="-451.8" font-family="Helvetica,sans-Serif" font-size="8.00">Attributes:</text>
<text text-anchor="start" x="203.5" y="-439.8" font-family="Helvetica,sans-Serif" font-size="8.00"># spriteBatch : SpriteBatch</text>
<text text-anchor="start" x="203.5" y="-427.8" font-family="Helvetica,sans-Serif" font-size="8.00">+ IsMouseEventEnabled : bool</text>
<text text-anchor="start" x="203.5" y="-415.8" font-family="Helvetica,sans-Serif" font-size="8.00">+ ValidKeys : List&lt;Keys&gt;</text>
<text text-anchor="start" x="203.5" y="-403.8" font-family="Helvetica,sans-Serif" font-size="8.00">+ IsKeyEventEnabled : bool</text>
<text text-anchor="start" x="203.5" y="-391.8" font-family="Helvetica,sans-Serif" font-size="8.00">+ Info : MenuItemInfo</text>
<text text-anchor="start" x="203.5" y="-379.8" font-family="Helvetica,sans-Serif" font-size="8.00">Methods:</text>
<polyline fill="none" stroke="black" points="195.5,-371 530.5,-371 "/>
<text text-anchor="start" x="203.5" y="-359.8" font-family="Helvetica,sans-Serif" font-size="8.00">+ MenuItem (GameState state, DisplayLayer drawOrder, int itemNum, MenuItemInfo info)</text>
<text text-anchor="start" x="203.5" y="-347.8" font-family="Helvetica,sans-Serif" font-size="8.00">+ Collapse () virtual</text>
<text text-anchor="start" x="203.5" y="-335.8" font-family="Helvetica,sans-Serif" font-size="8.00">+ OnKeyEvent (List&lt;Keys&gt; key, KeyEvent keyEvent, GameTime gameTime)</text>
<text text-anchor="start" x="203.5" y="-323.8" font-family="Helvetica,sans-Serif" font-size="8.00">+ OnLeftClick (Vector2 position, ClickState click, GameTime gameTime)</text>
<text text-anchor="start" x="203.5" y="-311.8" font-family="Helvetica,sans-Serif" font-size="8.00">+ OnRightClick (Vector2 position, ClickState click, GameTime gameTime)</text>
<text text-anchor="start" x="203.5" y="-299.8" font-family="Helvetica,sans-Serif" font-size="8.00">+ MinimumSize (SpriteFont font) : Vector2</text>
<text text-anchor="start" x="203.5" y="-287.8" font-family="Helvetica,sans-Serif" font-size="8.00">+ TextPosition (SpriteFont font) : Vector2</text>
<text text-anchor="start" x="203.5" y="-275.8" font-family="Helvetica,sans-Serif" font-size="8.00">+ TextPosition (SpriteFont font, Vector2 scale) : Vector2</text>
<text text-anchor="start" x="203.5" y="-263.8" font-family="Helvetica,sans-Serif" font-size="8.00">+ Draw (GameTime gameTime)</text>
<text text-anchor="start" x="203.5" y="-251.8" font-family="Helvetica,sans-Serif" font-size="8.00">+ SetHovered (bool hovered)</text>
</g>
<!-- Box_ItemWidget&#45;&gt;Box_MenuItem -->
<g id="edge32" class="edge"><title>Box_ItemWidget&#45;&gt;Box_MenuItem</title>
<path fill="none" stroke="midnightblue" d="M519.747,-514.063C509.032,-504.402 497.633,-494.014 486.057,-483.372"/>
<polygon fill="none" stroke="midnightblue" points="517.644,-516.879 527.42,-520.962 522.324,-511.673 517.644,-516.879"/>
</g>
<!-- Box_ItemWidget&#45;&gt;Box_MenuItem -->
<g id="edge46" class="edge"><title>Box_ItemWidget&#45;&gt;Box_MenuItem</title>
<path fill="none" stroke="midnightblue" d="M531.55,-513.781C521.524,-504.201 510.638,-493.911 499.385,-483.372"/>
<polygon fill="none" stroke="midnightblue" points="529.401,-516.569 539.042,-520.962 534.245,-511.516 529.401,-516.569"/>
</g>
<!-- Box_Widget -->
<g id="node2" class="node"><title>Box_Widget</title>
<polygon fill="#fcfcda" stroke="black" points="452,-655 452,-763 718,-763 718,-655 452,-655"/>
<text text-anchor="middle" x="585" y="-751.8" font-family="Helvetica,sans-Serif" font-size="8.00">Widget</text>
<polyline fill="none" stroke="black" points="452,-743 718,-743 "/>
<text text-anchor="start" x="460" y="-731.8" font-family="Helvetica,sans-Serif" font-size="8.00">Attributes:</text>
<text text-anchor="start" x="460" y="-719.8" font-family="Helvetica,sans-Serif" font-size="8.00">+ Info : WidgetInfo</text>
<text text-anchor="start" x="460" y="-707.8" font-family="Helvetica,sans-Serif" font-size="8.00">+ IsVisible : bool virtual</text>
<text text-anchor="start" x="460" y="-695.8" font-family="Helvetica,sans-Serif" font-size="8.00">Methods:</text>
<polyline fill="none" stroke="black" points="452,-687 718,-687 "/>
<text text-anchor="start" x="460" y="-675.8" font-family="Helvetica,sans-Serif" font-size="8.00">+ bounds () : Rectangle</text>
<text text-anchor="start" x="460" y="-663.8" font-family="Helvetica,sans-Serif" font-size="8.00">+ Widget (GameState state, WidgetInfo info, DisplayLayer drawOrder)</text>
</g>
<!-- Box_Widget&#45;&gt;Box_ItemWidget -->
<g id="edge2" class="edge"><title>Box_Widget&#45;&gt;Box_ItemWidget</title>
<path fill="none" stroke="midnightblue" d="M585,-644.821C585,-635.478 585,-625.996 585,-617.047"/>
<polygon fill="none" stroke="midnightblue" points="581.5,-644.872 585,-654.872 588.5,-644.872 581.5,-644.872"/>
</g>
<!-- Box_DrawableGameStateComponent -->
<g id="node3" class="node"><title>Box_DrawableGameStateComponent</title>
<polygon fill="#fcfcda" stroke="black" points="414.5,-801 414.5,-909 755.5,-909 755.5,-801 414.5,-801"/>
<text text-anchor="middle" x="585" y="-897.8" font-family="Helvetica,sans-Serif" font-size="8.00">DrawableGameStateComponent</text>
<polyline fill="none" stroke="black" points="414.5,-889 755.5,-889 "/>
<text text-anchor="start" x="422.5" y="-877.8" font-family="Helvetica,sans-Serif" font-size="8.00">Attributes:</text>
<text text-anchor="start" x="422.5" y="-865.8" font-family="Helvetica,sans-Serif" font-size="8.00">+ state : GameState</text>
<text text-anchor="start" x="422.5" y="-853.8" font-family="Helvetica,sans-Serif" font-size="8.00">+ Index : int</text>
<text text-anchor="start" x="422.5" y="-841.8" font-family="Helvetica,sans-Serif" font-size="8.00">Methods:</text>
<polyline fill="none" stroke="black" points="414.5,-833 755.5,-833 "/>
<text text-anchor="start" x="422.5" y="-821.8" font-family="Helvetica,sans-Serif" font-size="8.00">+ DrawableGameStateComponent (GameState state, DisplayLayer drawOrder)</text>
<text text-anchor="start" x="422.5" y="-809.8" font-family="Helvetica,sans-Serif" font-size="8.00">+ SubComponents (GameTime gameTime) : IEnumerable&lt;IGameStateComponent&gt; virtual</text>
</g>
<!-- Box_DrawableGameStateComponent&#45;&gt;Box_Widget -->
<g id="edge4" class="edge"><title>Box_DrawableGameStateComponent&#45;&gt;Box_Widget</title>
<path fill="none" stroke="midnightblue" d="M578.291,-790.523C578.204,-781.474 578.256,-772.248 578.448,-763.41"/>
<polygon fill="none" stroke="midnightblue" points="574.793,-790.691 578.449,-800.635 581.792,-790.581 574.793,-790.691"/>
</g>
<!-- Box_DrawableGameStateComponent&#45;&gt;Box_Widget -->
<g id="edge18" class="edge"><title>Box_DrawableGameStateComponent&#45;&gt;Box_Widget</title>
<path fill="none" stroke="midnightblue" d="M591.709,-790.523C591.796,-781.474 591.744,-772.248 591.552,-763.41"/>
<polygon fill="none" stroke="midnightblue" points="588.208,-790.581 591.551,-800.635 595.207,-790.691 588.208,-790.581"/>
</g>
<!-- Box_IGameStateComponent -->
<g id="node4" class="node"><title>Box_IGameStateComponent</title>
<polygon fill="#dafcda" stroke="black" points="305,-947 305,-1031 623,-1031 623,-947 305,-947"/>
<text text-anchor="middle" x="464" y="-1019.8" font-family="Helvetica,sans-Serif" font-size="8.00">IGameStateComponent</text>
<polyline fill="none" stroke="black" points="305,-1011 623,-1011 "/>
<text text-anchor="start" x="313" y="-999.8" font-family="Helvetica,sans-Serif" font-size="8.00">Attributes:</text>
<text text-anchor="start" x="313" y="-987.8" font-family="Helvetica,sans-Serif" font-size="8.00">+ Index : int</text>
<text text-anchor="start" x="313" y="-975.8" font-family="Helvetica,sans-Serif" font-size="8.00">Methods:</text>
<polyline fill="none" stroke="black" points="305,-967 623,-967 "/>
<text text-anchor="start" x="313" y="-955.8" font-family="Helvetica,sans-Serif" font-size="8.00">+ SubComponents (GameTime gameTime) : IEnumerable&lt;IGameStateComponent&gt;</text>
</g>
<!-- Box_IGameStateComponent&#45;&gt;Box_DrawableGameStateComponent -->
<g id="edge22" class="edge"><title>Box_IGameStateComponent&#45;&gt;Box_DrawableGameStateComponent</title>
<path fill="none" stroke="midnightblue" d="M489.529,-938.953C497.61,-929.244 506.751,-919.027 516.148,-909.192"/>
<polygon fill="none" stroke="midnightblue" points="486.604,-937.003 483.009,-946.969 492.034,-941.42 486.604,-937.003"/>
</g>
<!-- Box_IGameStateComponent&#45;&gt;Box_DrawableGameStateComponent -->
<g id="edge28" class="edge"><title>Box_IGameStateComponent&#45;&gt;Box_DrawableGameStateComponent</title>
<path fill="none" stroke="midnightblue" d="M528.003,-939.825C537.748,-929.857 547.368,-919.322 555.983,-909.192"/>
<polygon fill="none" stroke="midnightblue" points="525.468,-937.411 520.898,-946.969 530.431,-942.347 525.468,-937.411"/>
</g>
<!-- Box_IGameStateComponent&#45;&gt;Box_DrawableGameStateComponent -->
<g id="edge8" class="edge"><title>Box_IGameStateComponent&#45;&gt;Box_DrawableGameStateComponent</title>
<path fill="none" stroke="midnightblue" d="M502.382,-939.244C510.992,-929.448 520.283,-919.125 529.426,-909.192"/>
<polygon fill="none" stroke="midnightblue" points="499.578,-937.134 495.638,-946.969 504.851,-941.737 499.578,-937.134"/>
</g>
<!-- Box_IGameStateComponent&#45;&gt;Box_DrawableGameStateComponent -->
<g id="edge14" class="edge"><title>Box_IGameStateComponent&#45;&gt;Box_DrawableGameStateComponent</title>
<path fill="none" stroke="midnightblue" d="M515.207,-939.535C524.371,-929.653 533.822,-919.224 542.705,-909.192"/>
<polygon fill="none" stroke="midnightblue" points="512.532,-937.27 508.268,-946.969 517.65,-942.047 512.532,-937.27"/>
</g>
<!-- Box_DropDownMenu -->
<g id="node6" class="node"><title>Box_DropDownMenu</title>
<polygon fill="#fcfcda" stroke="black" points="-0.5,-1 -0.5,-205 358.5,-205 358.5,-1 -0.5,-1"/>
<text text-anchor="middle" x="179" y="-193.8" font-family="Helvetica,sans-Serif" font-size="8.00">DropDownMenu</text>
<polyline fill="none" stroke="black" points="-0.5,-185 358.5,-185 "/>
<text text-anchor="start" x="7.5" y="-173.8" font-family="Helvetica,sans-Serif" font-size="8.00">Attributes:</text>
<text text-anchor="start" x="7.5" y="-161.8" font-family="Helvetica,sans-Serif" font-size="8.00">&#45; selected : MenuButton</text>
<text text-anchor="start" x="7.5" y="-149.8" font-family="Helvetica,sans-Serif" font-size="8.00">&#45; dropdown : VerticalMenu</text>
<text text-anchor="start" x="7.5" y="-137.8" font-family="Helvetica,sans-Serif" font-size="8.00">Methods:</text>
<polyline fill="none" stroke="black" points="-0.5,-129 358.5,-129 "/>
<text text-anchor="start" x="7.5" y="-117.8" font-family="Helvetica,sans-Serif" font-size="8.00">&#45; ValuePosition (int dummy) : Vector2</text>
<text text-anchor="start" x="7.5" y="-105.8" font-family="Helvetica,sans-Serif" font-size="8.00">+ DropDownMenu (GameState state, DisplayLayer drawOrder, int itemNum, MenuItemInfo info)</text>
<text text-anchor="start" x="7.5" y="-93.8" font-family="Helvetica,sans-Serif" font-size="8.00">&#45; DropDownBackgroundColor (ItemState itemState) : Color</text>
<text text-anchor="start" x="7.5" y="-81.8" font-family="Helvetica,sans-Serif" font-size="8.00">&#45; DropDownForegroundColor (ItemState itemState) : Color</text>
<text text-anchor="start" x="7.5" y="-69.8" font-family="Helvetica,sans-Serif" font-size="8.00">&#45; ValueSize (int dummy) : Vector2</text>
<text text-anchor="start" x="7.5" y="-57.8" font-family="Helvetica,sans-Serif" font-size="8.00">+ SubComponents (GameTime gameTime) : IEnumerable&lt;IGameStateComponent&gt;</text>
<text text-anchor="start" x="7.5" y="-45.8" font-family="Helvetica,sans-Serif" font-size="8.00">+ Collapse ()</text>
<text text-anchor="start" x="7.5" y="-33.8" font-family="Helvetica,sans-Serif" font-size="8.00">+ Draw (GameTime gameTime)</text>
<text text-anchor="start" x="7.5" y="-21.8" font-family="Helvetica,sans-Serif" font-size="8.00">+ AddEntries (DistinctOptionInfo option)</text>
<text text-anchor="start" x="7.5" y="-9.8" font-family="Helvetica,sans-Serif" font-size="8.00">+ AddEntries (DropDownMenuItem[] entries, DropDownMenuItem defaultEntry)</text>
</g>
<!-- Box_MenuItem&#45;&gt;Box_DropDownMenu -->
<g id="edge38" class="edge"><title>Box_MenuItem&#45;&gt;Box_DropDownMenu</title>
<path fill="none" stroke="midnightblue" d="M251.873,-234.586C244.851,-224.686 237.975,-214.773 231.411,-205.078"/>
<polygon fill="none" stroke="midnightblue" points="249.145,-236.788 257.804,-242.894 254.843,-232.721 249.145,-236.788"/>
</g>
<!-- Box_MenuItem&#45;&gt;Box_DropDownMenu -->
<g id="edge42" class="edge"><title>Box_MenuItem&#45;&gt;Box_DropDownMenu</title>
<path fill="none" stroke="midnightblue" d="M265.373,-234.586C258.361,-224.686 251.392,-214.773 244.63,-205.078"/>
<polygon fill="none" stroke="midnightblue" points="262.627,-236.765 271.269,-242.894 268.336,-232.713 262.627,-236.765"/>
</g>
<!-- Box_MenuItem&#45;&gt;Box_DropDownMenu -->
<g id="edge52" class="edge"><title>Box_MenuItem&#45;&gt;Box_DropDownMenu</title>
<path fill="none" stroke="midnightblue" d="M278.872,-234.586C271.871,-224.686 264.809,-214.773 257.85,-205.078"/>
<polygon fill="none" stroke="midnightblue" points="276.109,-236.741 284.734,-242.894 281.828,-232.705 276.109,-236.741"/>
</g>
<!-- Box_MenuItem&#45;&gt;Box_DropDownMenu -->
<g id="edge56" class="edge"><title>Box_MenuItem&#45;&gt;Box_DropDownMenu</title>
<path fill="none" stroke="midnightblue" d="M292.371,-234.586C285.381,-224.686 278.226,-214.773 271.069,-205.078"/>
<polygon fill="none" stroke="midnightblue" points="289.591,-236.718 298.2,-242.894 295.321,-232.697 289.591,-236.718"/>
</g>
<!-- Box_MenuButton -->
<g id="node7" class="node"><title>Box_MenuButton</title>
<polygon fill="#fcfcda" stroke="black" points="375.5,-67 375.5,-139 718.5,-139 718.5,-67 375.5,-67"/>
<text text-anchor="middle" x="547" y="-127.8" font-family="Helvetica,sans-Serif" font-size="8.00">MenuButton</text>
<polyline fill="none" stroke="black" points="375.5,-119 718.5,-119 "/>
<text text-anchor="start" x="383.5" y="-107.8" font-family="Helvetica,sans-Serif" font-size="8.00">Attributes:</text>
<text text-anchor="start" x="383.5" y="-95.8" font-family="Helvetica,sans-Serif" font-size="8.00">Methods:</text>
<polyline fill="none" stroke="black" points="375.5,-87 718.5,-87 "/>
<text text-anchor="start" x="383.5" y="-75.8" font-family="Helvetica,sans-Serif" font-size="8.00">+ MenuButton (GameState state, DisplayLayer drawOrder, int itemNum, MenuItemInfo info)</text>
</g>
<!-- Box_MenuItem&#45;&gt;Box_MenuButton -->
<g id="edge40" class="edge"><title>Box_MenuItem&#45;&gt;Box_MenuButton</title>
<path fill="none" stroke="midnightblue" d="M433.713,-234.467C458.478,-199.395 485.31,-164.181 506.98,-139.037"/>
<polygon fill="none" stroke="midnightblue" points="430.679,-232.698 427.8,-242.894 436.409,-236.718 430.679,-232.698"/>
</g>
<!-- Box_MenuItem&#45;&gt;Box_MenuButton -->
<g id="edge44" class="edge"><title>Box_MenuItem&#45;&gt;Box_MenuButton</title>
<path fill="none" stroke="midnightblue" d="M447.212,-234.467C472.014,-199.395 497.572,-164.181 516.658,-139.037"/>
<polygon fill="none" stroke="midnightblue" points="444.172,-232.705 441.266,-242.894 449.891,-236.741 444.172,-232.705"/>
</g>
<!-- Box_MenuItem&#45;&gt;Box_MenuButton -->
<g id="edge54" class="edge"><title>Box_MenuItem&#45;&gt;Box_MenuButton</title>
<path fill="none" stroke="midnightblue" d="M460.712,-234.467C485.55,-199.395 509.834,-164.181 526.336,-139.037"/>
<polygon fill="none" stroke="midnightblue" points="457.664,-232.713 454.731,-242.894 463.373,-236.765 457.664,-232.713"/>
</g>
<!-- Box_MenuItem&#45;&gt;Box_MenuButton -->
<g id="edge58" class="edge"><title>Box_MenuItem&#45;&gt;Box_MenuButton</title>
<path fill="none" stroke="midnightblue" d="M474.211,-234.467C499.086,-199.395 522.096,-164.181 536.014,-139.037"/>
<polygon fill="none" stroke="midnightblue" points="471.157,-232.721 468.196,-242.894 476.854,-236.788 471.157,-232.721"/>
</g>
<!-- Box_XnaDrawableGameComponent -->
<g id="node8" class="node"><title>Box_XnaDrawableGameComponent</title>
<polygon fill="#ffffff" stroke="black" points="640.5,-979 640.5,-999 771.5,-999 771.5,-979 640.5,-979"/>
<text text-anchor="middle" x="706" y="-987.8" font-family="Helvetica,sans-Serif" font-size="8.00">Xna.DrawableGameComponent</text>
</g>
<!-- Box_XnaDrawableGameComponent&#45;&gt;Box_DrawableGameStateComponent -->
<g id="edge26" class="edge"><title>Box_XnaDrawableGameComponent&#45;&gt;Box_DrawableGameStateComponent</title>
<path fill="none" stroke="midnightblue" d="M677.526,-972.736C657.943,-956.909 633.381,-931.97 613.948,-909.111"/>
<polygon fill="none" stroke="midnightblue" points="675.523,-975.61 685.585,-978.928 679.788,-970.06 675.523,-975.61"/>
</g>
<!-- Box_XnaDrawableGameComponent&#45;&gt;Box_DrawableGameStateComponent -->
<g id="edge6" class="edge"><title>Box_XnaDrawableGameComponent&#45;&gt;Box_DrawableGameStateComponent</title>
<path fill="none" stroke="midnightblue" d="M685.851,-971.879C669.835,-956.019 647.101,-931.562 627.223,-909.111"/>
<polygon fill="none" stroke="midnightblue" points="683.513,-974.487 693.132,-978.928 688.382,-969.458 683.513,-974.487"/>
</g>
<!-- Box_XnaDrawableGameComponent&#45;&gt;Box_DrawableGameStateComponent -->
<g id="edge12" class="edge"><title>Box_XnaDrawableGameComponent&#45;&gt;Box_DrawableGameStateComponent</title>
<path fill="none" stroke="midnightblue" d="M694.532,-971.006C681.823,-955.13 660.791,-931.153 640.499,-909.111"/>
<polygon fill="none" stroke="midnightblue" points="691.783,-973.173 700.679,-978.928 697.314,-968.882 691.783,-973.173"/>
</g>
<!-- Box_XnaDrawableGameComponent&#45;&gt;Box_DrawableGameStateComponent -->
<g id="edge20" class="edge"><title>Box_XnaDrawableGameComponent&#45;&gt;Box_DrawableGameStateComponent</title>
<path fill="none" stroke="midnightblue" d="M703.282,-969.664C693.537,-953.8 674.258,-930.541 653.774,-909.111"/>
<polygon fill="none" stroke="midnightblue" points="700.429,-971.754 708.226,-978.928 706.605,-968.458 700.429,-971.754"/>
</g>
<!-- Box_XnaIGameComponent -->
<g id="node9" class="node"><title>Box_XnaIGameComponent</title>
<polygon fill="#ffffff" stroke="black" points="414.5,-1069 414.5,-1089 513.5,-1089 513.5,-1069 414.5,-1069"/>
<text text-anchor="middle" x="464" y="-1077.8" font-family="Helvetica,sans-Serif" font-size="8.00">Xna.IGameComponent</text>
</g>
<!-- Box_XnaIGameComponent&#45;&gt;Box_IGameStateComponent -->
<g id="edge24" class="edge"><title>Box_XnaIGameComponent&#45;&gt;Box_IGameStateComponent</title>
<path fill="none" stroke="midnightblue" d="M446.911,-1059.28C444.599,-1051.05 443.555,-1041.15 443.78,-1031.41"/>
<polygon fill="none" stroke="midnightblue" points="443.666,-1060.59 450.518,-1068.68 450.201,-1058.09 443.666,-1060.59"/>
</g>
<!-- Box_XnaIGameComponent&#45;&gt;Box_IGameStateComponent -->
<g id="edge30" class="edge"><title>Box_XnaIGameComponent&#45;&gt;Box_IGameStateComponent</title>
<path fill="none" stroke="midnightblue" d="M481.089,-1059.28C483.401,-1051.05 484.445,-1041.15 484.22,-1031.41"/>
<polygon fill="none" stroke="midnightblue" points="477.799,-1058.09 477.482,-1068.68 484.334,-1060.59 477.799,-1058.09"/>
</g>
<!-- Box_XnaIGameComponent&#45;&gt;Box_IGameStateComponent -->
<g id="edge10" class="edge"><title>Box_XnaIGameComponent&#45;&gt;Box_IGameStateComponent</title>
<path fill="none" stroke="midnightblue" d="M458.253,-1058.73C457.518,-1050.61 457.187,-1040.94 457.26,-1031.41"/>
<polygon fill="none" stroke="midnightblue" points="454.783,-1059.19 459.506,-1068.68 461.728,-1058.32 454.783,-1059.19"/>
</g>
<!-- Box_XnaIGameComponent&#45;&gt;Box_IGameStateComponent -->
<g id="edge16" class="edge"><title>Box_XnaIGameComponent&#45;&gt;Box_IGameStateComponent</title>
<path fill="none" stroke="midnightblue" d="M469.747,-1058.73C470.482,-1050.61 470.813,-1040.94 470.74,-1031.41"/>
<polygon fill="none" stroke="midnightblue" points="466.272,-1058.32 468.494,-1068.68 473.217,-1059.19 466.272,-1058.32"/>
</g>
<!-- Box_IMouseEventListener -->
<g id="node10" class="node"><title>Box_IMouseEventListener</title>
<polygon fill="#ffffff" stroke="black" points="213,-559 213,-579 305,-579 305,-559 213,-559"/>
<text text-anchor="middle" x="259" y="-567.8" font-family="Helvetica,sans-Serif" font-size="8.00">IMouseEventListener</text>
</g>
<!-- Box_IMouseEventListener&#45;&gt;Box_MenuItem -->
<g id="edge34" class="edge"><title>Box_IMouseEventListener&#45;&gt;Box_MenuItem</title>
<path fill="none" stroke="midnightblue" d="M264.708,-549.452C271.425,-533.345 282.868,-509.028 295.638,-483.226"/>
<polygon fill="none" stroke="midnightblue" points="261.44,-548.198 261.009,-558.784 267.947,-550.778 261.44,-548.198"/>
</g>
<!-- Box_IMouseEventListener&#45;&gt;Box_MenuItem -->
<g id="edge48" class="edge"><title>Box_IMouseEventListener&#45;&gt;Box_MenuItem</title>
<path fill="none" stroke="midnightblue" d="M272.758,-549.91C282.326,-533.808 295.561,-509.273 308.969,-483.226"/>
<polygon fill="none" stroke="midnightblue" points="269.558,-548.432 267.306,-558.784 275.523,-552.096 269.558,-548.432"/>
</g>
<!-- Box_IKeyEventListener -->
<g id="node11" class="node"><title>Box_IKeyEventListener</title>
<polygon fill="#ffffff" stroke="black" points="322.5,-559 322.5,-579 403.5,-579 403.5,-559 322.5,-559"/>
<text text-anchor="middle" x="363" y="-567.8" font-family="Helvetica,sans-Serif" font-size="8.00">IKeyEventListener</text>
</g>
<!-- Box_IKeyEventListener&#45;&gt;Box_MenuItem -->
<g id="edge36" class="edge"><title>Box_IKeyEventListener&#45;&gt;Box_MenuItem</title>
<path fill="none" stroke="midnightblue" d="M358.759,-548.523C357.393,-532.418 356.585,-508.536 356.335,-483.226"/>
<polygon fill="none" stroke="midnightblue" points="355.312,-549.211 359.852,-558.784 362.273,-548.47 355.312,-549.211"/>
</g>
<!-- Box_IKeyEventListener&#45;&gt;Box_MenuItem -->
<g id="edge50" class="edge"><title>Box_IKeyEventListener&#45;&gt;Box_MenuItem</title>
<path fill="none" stroke="midnightblue" d="M367.241,-548.523C368.607,-532.418 369.415,-508.536 369.665,-483.226"/>
<polygon fill="none" stroke="midnightblue" points="363.727,-548.47 366.148,-558.784 370.688,-549.211 363.727,-548.47"/>
</g>
</g>
</svg>
