<?xml version="1.0" encoding="UTF-8" standalone="no"?>
<!DOCTYPE svg PUBLIC "-//W3C//DTD SVG 1.1//EN"
 "http://www.w3.org/Graphics/SVG/1.1/DTD/svg11.dtd">
<!-- Generated by graphviz version 2.26.3 (20100126.1600)
 -->
<!-- Title: MenuItem Pages: 1 -->
<svg width="1567pt" height="3083pt"
 viewBox="0.00 0.00 376.00 740.00" xmlns="http://www.w3.org/2000/svg" xmlns:xlink="http://www.w3.org/1999/xlink">
<g id="graph1" class="graph" transform="scale(4.16667 4.16667) rotate(0) translate(4 736)">
<title>MenuItem</title>
<polygon fill="white" stroke="white" points="-4,5 -4,-736 373,-736 373,5 -4,5"/>
<!-- Box_VideoOptionScreen -->
<g id="node1" class="node"><title>Box_VideoOptionScreen</title>
<polygon fill="#fcfcda" stroke="black" points="102,-1 102,-115 266,-115 266,-1 102,-1"/>
<text text-anchor="middle" x="184" y="-103.8" font-family="Arial" font-size="8.00">VideoOptionScreen</text>
<polyline fill="none" stroke="black" points="102,-97 266,-97 "/>
<text text-anchor="start" x="110" y="-85.8" font-family="Arial" font-size="8.00">&#45; spriteBatch : SpriteBatch</text>
<text text-anchor="start" x="110" y="-75.8" font-family="Arial" font-size="8.00">&#45; menu : VerticalMenu</text>
<polyline fill="none" stroke="black" points="102,-69 266,-69 "/>
<text text-anchor="start" x="110" y="-57.8" font-family="Arial" font-size="8.00">+ VideoOptionScreen (Core.Game game)</text>
<text text-anchor="start" x="110" y="-47.8" font-family="Arial" font-size="8.00">+ Activate (GameTime gameTime)</text>
<text text-anchor="start" x="110" y="-37.8" font-family="Arial" font-size="8.00">+ DrawMenu (GameTime gameTime)</text>
<text text-anchor="start" x="110" y="-27.8" font-family="Arial" font-size="8.00">+ Initialize ()</text>
<text text-anchor="start" x="110" y="-17.8" font-family="Arial" font-size="8.00">+ UpdateMenu (GameTime gameTime)</text>
<text text-anchor="start" x="110" y="-7.8" font-family="Arial" font-size="8.00">+ Collapse (MenuItem item)</text>
</g>
<!-- Box_OptionScreen -->
<g id="node2" class="node"><title>Box_OptionScreen</title>
<polygon fill="#fcfcda" stroke="black" points="108,-153 108,-257 260,-257 260,-153 108,-153"/>
<text text-anchor="middle" x="184" y="-245.8" font-family="Arial" font-size="8.00">OptionScreen</text>
<polyline fill="none" stroke="black" points="108,-239 260,-239 "/>
<text text-anchor="start" x="116" y="-227.8" font-family="Arial" font-size="8.00">&#45; spriteBatch : SpriteBatch</text>
<text text-anchor="start" x="116" y="-217.8" font-family="Arial" font-size="8.00">&#45; menu : VerticalMenu</text>
<polyline fill="none" stroke="black" points="108,-211 260,-211 "/>
<text text-anchor="start" x="116" y="-199.8" font-family="Arial" font-size="8.00">+ OptionScreen (Core.Game game)</text>
<text text-anchor="start" x="116" y="-189.8" font-family="Arial" font-size="8.00">+ Activate (GameTime gameTime)</text>
<text text-anchor="start" x="116" y="-179.8" font-family="Arial" font-size="8.00">+ DrawMenu (GameTime gameTime)</text>
<text text-anchor="start" x="116" y="-169.8" font-family="Arial" font-size="8.00">+ UpdateMenu (GameTime gameTime)</text>
<text text-anchor="start" x="116" y="-159.8" font-family="Arial" font-size="8.00">+ Initialize ()</text>
</g>
<!-- Box_OptionScreen&#45;&gt;Box_VideoOptionScreen -->
<g id="edge2" class="edge"><title>Box_OptionScreen&#45;&gt;Box_VideoOptionScreen</title>
<path fill="none" stroke="midnightblue" d="M184,-142.579C184,-133.447 184,-124.082 184,-115.064"/>
<polygon fill="none" stroke="midnightblue" points="180.5,-142.759 184,-152.759 187.5,-142.759 180.5,-142.759"/>
</g>
<!-- Box_MenuScreen -->
<g id="node3" class="node"><title>Box_MenuScreen</title>
<polygon fill="#fcfcda" stroke="black" points="90,-295 90,-479 278,-479 278,-295 90,-295"/>
<text text-anchor="middle" x="184" y="-467.8" font-family="Arial" font-size="8.00">MenuScreen</text>
<polyline fill="none" stroke="black" points="90,-461 278,-461 "/>
<text text-anchor="start" x="98" y="-449.8" font-family="Arial" font-size="8.00">&#45; backColor : Color</text>
<text text-anchor="start" x="98" y="-439.8" font-family="Arial" font-size="8.00">&#45; pointer : MousePointer</text>
<text text-anchor="start" x="98" y="-429.8" font-family="Arial" font-size="8.00"># LinePoints : List&lt;Vector2&gt;</text>
<text text-anchor="start" x="98" y="-419.8" font-family="Arial" font-size="8.00"># LineWidth : int</text>
<text text-anchor="start" x="98" y="-409.8" font-family="Arial" font-size="8.00">&#45; spriteBatch : SpriteBatch</text>
<polyline fill="none" stroke="black" points="90,-403 278,-403 "/>
<text text-anchor="start" x="98" y="-391.8" font-family="Arial" font-size="8.00">+ MenuScreen (Core.Game game)</text>
<text text-anchor="start" x="98" y="-381.8" font-family="Arial" font-size="8.00">+ Activate (GameTime gameTime)</text>
<text text-anchor="start" x="98" y="-371.8" font-family="Arial" font-size="8.00">+ Draw (GameTime gameTime)</text>
<text text-anchor="start" x="98" y="-361.8" font-family="Arial" font-size="8.00"># BackgroundColor (ItemState itemState) : Color</text>
<text text-anchor="start" x="98" y="-351.8" font-family="Arial" font-size="8.00"># ForegroundColor (ItemState itemState) : Color</text>
<text text-anchor="start" x="98" y="-341.8" font-family="Arial" font-size="8.00">+ DrawMenu (GameTime gameTime) abstract</text>
<text text-anchor="start" x="98" y="-331.8" font-family="Arial" font-size="8.00">+ UpdateMenu (GameTime gameTime) abstract</text>
<text text-anchor="start" x="98" y="-321.8" font-family="Arial" font-size="8.00">+ Initialize ()</text>
<text text-anchor="start" x="98" y="-311.8" font-family="Arial" font-size="8.00">+ Unload ()</text>
<text text-anchor="start" x="98" y="-301.8" font-family="Arial" font-size="8.00">+ Update (GameTime gameTime)</text>
</g>
<!-- Box_MenuScreen&#45;&gt;Box_OptionScreen -->
<g id="edge4" class="edge"><title>Box_MenuScreen&#45;&gt;Box_OptionScreen</title>
<path fill="none" stroke="midnightblue" d="M184,-284.701C184,-275.312 184,-266.087 184,-257.432"/>
<polygon fill="none" stroke="midnightblue" points="180.5,-284.934 184,-294.934 187.5,-284.934 180.5,-284.934"/>
</g>
<!-- Box_GameState -->
<g id="node4" class="node"><title>Box_GameState</title>
<polygon fill="#fcfcda" stroke="black" points="-0.5,-517 -0.5,-731 368.5,-731 368.5,-517 -0.5,-517"/>
<text text-anchor="middle" x="184" y="-719.8" font-family="Arial" font-size="8.00">GameState</text>
<polyline fill="none" stroke="black" points="-0.5,-713 368.5,-713 "/>
<text text-anchor="start" x="7.5" y="-701.8" font-family="Arial" font-size="8.00">+ content : ContentManager</text>
<text text-anchor="start" x="7.5" y="-691.8" font-family="Arial" font-size="8.00">+ NextState : GameState</text>
<text text-anchor="start" x="7.5" y="-681.8" font-family="Arial" font-size="8.00">+ device : GraphicsDevice</text>
<text text-anchor="start" x="7.5" y="-671.8" font-family="Arial" font-size="8.00">+ RenderEffects : RenderEffectStack</text>
<text text-anchor="start" x="7.5" y="-661.8" font-family="Arial" font-size="8.00">+ viewport : Viewport</text>
<text text-anchor="start" x="7.5" y="-651.8" font-family="Arial" font-size="8.00">+ game : Game</text>
<text text-anchor="start" x="7.5" y="-641.8" font-family="Arial" font-size="8.00">+ graphics : GraphicsDeviceManager</text>
<text text-anchor="start" x="7.5" y="-631.8" font-family="Arial" font-size="8.00">+ input : Input</text>
<text text-anchor="start" x="7.5" y="-621.8" font-family="Arial" font-size="8.00">+ PostProcessing : RenderEffect</text>
<polyline fill="none" stroke="black" points="-0.5,-615 368.5,-615 "/>
<text text-anchor="start" x="7.5" y="-603.8" font-family="Arial" font-size="8.00">+ Draw (GameTime gameTime) abstract</text>
<text text-anchor="start" x="7.5" y="-593.8" font-family="Arial" font-size="8.00">+ Initialize () abstract</text>
<text text-anchor="start" x="7.5" y="-583.8" font-family="Arial" font-size="8.00">+ Unload () abstract</text>
<text text-anchor="start" x="7.5" y="-573.8" font-family="Arial" font-size="8.00">+ Activate (GameTime gameTime) virtual</text>
<text text-anchor="start" x="7.5" y="-563.8" font-family="Arial" font-size="8.00">+ GameState (Game game)</text>
<text text-anchor="start" x="7.5" y="-553.8" font-family="Arial" font-size="8.00">+ Update (GameTime gameTime) abstract</text>
<text text-anchor="start" x="7.5" y="-543.8" font-family="Arial" font-size="8.00">+ Deactivate (GameTime gameTime) virtual</text>
<text text-anchor="start" x="7.5" y="-533.8" font-family="Arial" font-size="8.00">+ AddGameComponents (GameTime gameTime, params IGameStateComponent[] components)</text>
<text text-anchor="start" x="7.5" y="-523.8" font-family="Arial" font-size="8.00">+ RemoveGameComponents (GameTime gameTime, params IGameStateComponent[] components)</text>
</g>
<!-- Box_GameState&#45;&gt;Box_MenuScreen -->
<g id="edge6" class="edge"><title>Box_GameState&#45;&gt;Box_MenuScreen</title>
<path fill="none" stroke="midnightblue" d="M184,-506.846C184,-497.529 184,-488.201 184,-479.092"/>
<polygon fill="none" stroke="midnightblue" points="180.5,-506.941 184,-516.941 187.5,-506.941 180.5,-506.941"/>
</g>
</g>
</svg>
