<?xml version="1.0" encoding="UTF-8" standalone="no"?>
<!DOCTYPE svg PUBLIC "-//W3C//DTD SVG 1.1//EN"
 "http://www.w3.org/Graphics/SVG/1.1/DTD/svg11.dtd">
<!-- Generated by graphviz version 2.26.3 (20100126.1600)
 -->
<!-- Title: MenuItem Pages: 1 -->
<svg width="954pt" height="1134pt"
 viewBox="0.00 0.00 954.00 1134.00" xmlns="http://www.w3.org/2000/svg" xmlns:xlink="http://www.w3.org/1999/xlink">
<g id="graph1" class="graph" transform="scale(1 1) rotate(0) translate(4 1130)">
<title>MenuItem</title>
<polygon fill="white" stroke="white" points="-4,5 -4,-1130 951,-1130 951,5 -4,5"/>
<!-- Box_DropDownMenu -->
<g id="node1" class="node"><title>Box_DropDownMenu</title>
<polygon fill="#fcfcda" stroke="black" points="261.5,-1 261.5,-205 620.5,-205 620.5,-1 261.5,-1"/>
<text text-anchor="middle" x="441" y="-193.8" font-family="Helvetica,sans-Serif" font-size="8.00">DropDownMenu</text>
<polyline fill="none" stroke="black" points="261.5,-185 620.5,-185 "/>
<text text-anchor="start" x="269.5" y="-173.8" font-family="Helvetica,sans-Serif" font-size="8.00">Attributes:</text>
<text text-anchor="start" x="269.5" y="-161.8" font-family="Helvetica,sans-Serif" font-size="8.00">&#45; selected : MenuButton</text>
<text text-anchor="start" x="269.5" y="-149.8" font-family="Helvetica,sans-Serif" font-size="8.00">&#45; dropdown : VerticalMenu</text>
<text text-anchor="start" x="269.5" y="-137.8" font-family="Helvetica,sans-Serif" font-size="8.00">Methods:</text>
<polyline fill="none" stroke="black" points="261.5,-129 620.5,-129 "/>
<text text-anchor="start" x="269.5" y="-117.8" font-family="Helvetica,sans-Serif" font-size="8.00">&#45; ValuePosition (int dummy) : Vector2</text>
<text text-anchor="start" x="269.5" y="-105.8" font-family="Helvetica,sans-Serif" font-size="8.00">+ DropDownMenu (GameState state, DisplayLayer drawOrder, int itemNum, MenuItemInfo info)</text>
<text text-anchor="start" x="269.5" y="-93.8" font-family="Helvetica,sans-Serif" font-size="8.00">&#45; DropDownBackgroundColor (ItemState itemState) : Color</text>
<text text-anchor="start" x="269.5" y="-81.8" font-family="Helvetica,sans-Serif" font-size="8.00">&#45; DropDownForegroundColor (ItemState itemState) : Color</text>
<text text-anchor="start" x="269.5" y="-69.8" font-family="Helvetica,sans-Serif" font-size="8.00">&#45; ValueSize (int dummy) : Vector2</text>
<text text-anchor="start" x="269.5" y="-57.8" font-family="Helvetica,sans-Serif" font-size="8.00">+ SubComponents (GameTime gameTime) : IEnumerable&lt;IGameStateComponent&gt;</text>
<text text-anchor="start" x="269.5" y="-45.8" font-family="Helvetica,sans-Serif" font-size="8.00">+ Collapse ()</text>
<text text-anchor="start" x="269.5" y="-33.8" font-family="Helvetica,sans-Serif" font-size="8.00">+ Draw (GameTime gameTime)</text>
<text text-anchor="start" x="269.5" y="-21.8" font-family="Helvetica,sans-Serif" font-size="8.00">+ AddEntries (DistinctOptionInfo option)</text>
<text text-anchor="start" x="269.5" y="-9.8" font-family="Helvetica,sans-Serif" font-size="8.00">+ AddEntries (DropDownMenuItem[] entries, DropDownMenuItem defaultEntry)</text>
</g>
<!-- Box_MenuItem -->
<g id="node2" class="node"><title>Box_MenuItem</title>
<polygon fill="#fcfcda" stroke="black" points="273.5,-243 273.5,-483 608.5,-483 608.5,-243 273.5,-243"/>
<text text-anchor="middle" x="441" y="-471.8" font-family="Helvetica,sans-Serif" font-size="8.00">MenuItem</text>
<polyline fill="none" stroke="black" points="273.5,-463 608.5,-463 "/>
<text text-anchor="start" x="281.5" y="-451.8" font-family="Helvetica,sans-Serif" font-size="8.00">Attributes:</text>
<text text-anchor="start" x="281.5" y="-439.8" font-family="Helvetica,sans-Serif" font-size="8.00"># spriteBatch : SpriteBatch</text>
<text text-anchor="start" x="281.5" y="-427.8" font-family="Helvetica,sans-Serif" font-size="8.00">+ IsMouseEventEnabled : bool</text>
<text text-anchor="start" x="281.5" y="-415.8" font-family="Helvetica,sans-Serif" font-size="8.00">+ ValidKeys : List&lt;Keys&gt;</text>
<text text-anchor="start" x="281.5" y="-403.8" font-family="Helvetica,sans-Serif" font-size="8.00">+ IsKeyEventEnabled : bool</text>
<text text-anchor="start" x="281.5" y="-391.8" font-family="Helvetica,sans-Serif" font-size="8.00">+ Info : MenuItemInfo</text>
<text text-anchor="start" x="281.5" y="-379.8" font-family="Helvetica,sans-Serif" font-size="8.00">Methods:</text>
<polyline fill="none" stroke="black" points="273.5,-371 608.5,-371 "/>
<text text-anchor="start" x="281.5" y="-359.8" font-family="Helvetica,sans-Serif" font-size="8.00">+ MenuItem (GameState state, DisplayLayer drawOrder, int itemNum, MenuItemInfo info)</text>
<text text-anchor="start" x="281.5" y="-347.8" font-family="Helvetica,sans-Serif" font-size="8.00">+ Collapse () virtual</text>
<text text-anchor="start" x="281.5" y="-335.8" font-family="Helvetica,sans-Serif" font-size="8.00">+ OnKeyEvent (List&lt;Keys&gt; key, KeyEvent keyEvent, GameTime gameTime)</text>
<text text-anchor="start" x="281.5" y="-323.8" font-family="Helvetica,sans-Serif" font-size="8.00">+ OnLeftClick (Vector2 position, ClickState click, GameTime gameTime)</text>
<text text-anchor="start" x="281.5" y="-311.8" font-family="Helvetica,sans-Serif" font-size="8.00">+ OnRightClick (Vector2 position, ClickState click, GameTime gameTime)</text>
<text text-anchor="start" x="281.5" y="-299.8" font-family="Helvetica,sans-Serif" font-size="8.00">+ MinimumSize (SpriteFont font) : Vector2</text>
<text text-anchor="start" x="281.5" y="-287.8" font-family="Helvetica,sans-Serif" font-size="8.00">+ TextPosition (SpriteFont font) : Vector2</text>
<text text-anchor="start" x="281.5" y="-275.8" font-family="Helvetica,sans-Serif" font-size="8.00">+ TextPosition (SpriteFont font, Vector2 scale) : Vector2</text>
<text text-anchor="start" x="281.5" y="-263.8" font-family="Helvetica,sans-Serif" font-size="8.00">+ Draw (GameTime gameTime)</text>
<text text-anchor="start" x="281.5" y="-251.8" font-family="Helvetica,sans-Serif" font-size="8.00">+ SetHovered (bool hovered)</text>
</g>
<!-- Box_MenuItem&#45;&gt;Box_DropDownMenu -->
<g id="edge2" class="edge"><title>Box_MenuItem&#45;&gt;Box_DropDownMenu</title>
<path fill="none" stroke="midnightblue" d="M441,-232.804C441,-223.497 441,-214.191 441,-205.078"/>
<polygon fill="none" stroke="midnightblue" points="437.5,-232.894 441,-242.894 444.5,-232.894 437.5,-232.894"/>
</g>
<!-- Box_IKeyEventListener -->
<g id="node3" class="node"><title>Box_IKeyEventListener</title>
<polygon fill="#dafcda" stroke="black" points="0,-533 0,-641 286,-641 286,-533 0,-533"/>
<text text-anchor="middle" x="143" y="-629.8" font-family="Helvetica,sans-Serif" font-size="8.00">IKeyEventListener</text>
<polyline fill="none" stroke="black" points="0,-621 286,-621 "/>
<text text-anchor="start" x="8" y="-609.8" font-family="Helvetica,sans-Serif" font-size="8.00">Attributes:</text>
<text text-anchor="start" x="8" y="-597.8" font-family="Helvetica,sans-Serif" font-size="8.00">+ ValidKeys : List&lt;Keys&gt;</text>
<text text-anchor="start" x="8" y="-585.8" font-family="Helvetica,sans-Serif" font-size="8.00">+ Index : int</text>
<text text-anchor="start" x="8" y="-573.8" font-family="Helvetica,sans-Serif" font-size="8.00">+ IsKeyEventEnabled : bool</text>
<text text-anchor="start" x="8" y="-561.8" font-family="Helvetica,sans-Serif" font-size="8.00">Methods:</text>
<polyline fill="none" stroke="black" points="0,-553 286,-553 "/>
<text text-anchor="start" x="8" y="-541.8" font-family="Helvetica,sans-Serif" font-size="8.00">+ OnKeyEvent (List&lt;Keys&gt; key, KeyEvent keyEvent, GameTime gameTime)</text>
</g>
<!-- Box_IKeyEventListener&#45;&gt;Box_MenuItem -->
<g id="edge8" class="edge"><title>Box_IKeyEventListener&#45;&gt;Box_MenuItem</title>
<path fill="none" stroke="midnightblue" d="M217.232,-526.641C234.884,-513.082 254.42,-498.231 274.382,-483.181"/>
<polygon fill="none" stroke="midnightblue" points="215.05,-523.904 209.259,-532.776 219.319,-529.451 215.05,-523.904"/>
</g>
<!-- Box_IKeyEventListener&#45;&gt;Box_MenuItem -->
<g id="edge74" class="edge"><title>Box_IKeyEventListener&#45;&gt;Box_MenuItem</title>
<path fill="none" stroke="midnightblue" d="M229.366,-526.641C247.789,-513.082 267.77,-498.231 287.85,-483.181"/>
<polygon fill="none" stroke="midnightblue" points="227.002,-524.034 221.016,-532.776 231.147,-529.676 227.002,-524.034"/>
</g>
<!-- Box_IMouseEventListener -->
<g id="node4" class="node"><title>Box_IMouseEventListener</title>
<polygon fill="#dafcda" stroke="black" points="303.5,-521 303.5,-653 578.5,-653 578.5,-521 303.5,-521"/>
<text text-anchor="middle" x="441" y="-641.8" font-family="Helvetica,sans-Serif" font-size="8.00">IMouseEventListener</text>
<polyline fill="none" stroke="black" points="303.5,-633 578.5,-633 "/>
<text text-anchor="start" x="311.5" y="-621.8" font-family="Helvetica,sans-Serif" font-size="8.00">Attributes:</text>
<text text-anchor="start" x="311.5" y="-609.8" font-family="Helvetica,sans-Serif" font-size="8.00">+ Index : int</text>
<text text-anchor="start" x="311.5" y="-597.8" font-family="Helvetica,sans-Serif" font-size="8.00">+ IsMouseEventEnabled : bool</text>
<text text-anchor="start" x="311.5" y="-585.8" font-family="Helvetica,sans-Serif" font-size="8.00">Methods:</text>
<polyline fill="none" stroke="black" points="303.5,-577 578.5,-577 "/>
<text text-anchor="start" x="311.5" y="-565.8" font-family="Helvetica,sans-Serif" font-size="8.00">+ OnLeftClick (Vector2 position, ClickState click, GameTime gameTime)</text>
<text text-anchor="start" x="311.5" y="-553.8" font-family="Helvetica,sans-Serif" font-size="8.00">+ OnRightClick (Vector2 position, ClickState click, GameTime gameTime)</text>
<text text-anchor="start" x="311.5" y="-541.8" font-family="Helvetica,sans-Serif" font-size="8.00">+ SetHovered (bool hovered)</text>
<text text-anchor="start" x="311.5" y="-529.8" font-family="Helvetica,sans-Serif" font-size="8.00">+ bounds () : Rectangle</text>
</g>
<!-- Box_IMouseEventListener&#45;&gt;Box_MenuItem -->
<g id="edge6" class="edge"><title>Box_IMouseEventListener&#45;&gt;Box_MenuItem</title>
<path fill="none" stroke="midnightblue" d="M434.561,-510.507C434.401,-501.68 434.303,-492.526 434.266,-483.296"/>
<polygon fill="none" stroke="midnightblue" points="431.066,-510.778 434.777,-520.702 438.064,-510.63 431.066,-510.778"/>
</g>
<!-- Box_IMouseEventListener&#45;&gt;Box_MenuItem -->
<g id="edge72" class="edge"><title>Box_IMouseEventListener&#45;&gt;Box_MenuItem</title>
<path fill="none" stroke="midnightblue" d="M447.439,-510.507C447.599,-501.68 447.697,-492.526 447.734,-483.296"/>
<polygon fill="none" stroke="midnightblue" points="443.936,-510.63 447.223,-520.702 450.934,-510.778 443.936,-510.63"/>
</g>
<!-- Box_ItemWidget -->
<g id="node5" class="node"><title>Box_ItemWidget</title>
<polygon fill="#fcfcda" stroke="black" points="595.5,-539 595.5,-635 924.5,-635 924.5,-539 595.5,-539"/>
<text text-anchor="middle" x="760" y="-623.8" font-family="Helvetica,sans-Serif" font-size="8.00">ItemWidget</text>
<polyline fill="none" stroke="black" points="595.5,-615 924.5,-615 "/>
<text text-anchor="start" x="603.5" y="-603.8" font-family="Helvetica,sans-Serif" font-size="8.00">Attributes:</text>
<text text-anchor="start" x="603.5" y="-591.8" font-family="Helvetica,sans-Serif" font-size="8.00">+ ItemState : ItemState</text>
<text text-anchor="start" x="603.5" y="-579.8" font-family="Helvetica,sans-Serif" font-size="8.00"># ItemNum : int</text>
<text text-anchor="start" x="603.5" y="-567.8" font-family="Helvetica,sans-Serif" font-size="8.00">Methods:</text>
<polyline fill="none" stroke="black" points="595.5,-559 924.5,-559 "/>
<text text-anchor="start" x="603.5" y="-547.8" font-family="Helvetica,sans-Serif" font-size="8.00">+ ItemWidget (GameState state, WidgetInfo info, DisplayLayer drawOrder, int itemNum)</text>
</g>
<!-- Box_ItemWidget&#45;&gt;Box_MenuItem -->
<g id="edge4" class="edge"><title>Box_ItemWidget&#45;&gt;Box_MenuItem</title>
<path fill="none" stroke="midnightblue" d="M677.528,-533.206C655.311,-517.964 630.479,-500.731 605.485,-483.229"/>
<polygon fill="none" stroke="midnightblue" points="675.681,-536.183 685.909,-538.946 679.636,-530.408 675.681,-536.183"/>
</g>
<!-- Box_ItemWidget&#45;&gt;Box_MenuItem -->
<g id="edge70" class="edge"><title>Box_ItemWidget&#45;&gt;Box_MenuItem</title>
<path fill="none" stroke="midnightblue" d="M688.907,-532.955C664.918,-515.707 637.043,-495.928 608.82,-476.103"/>
<polygon fill="none" stroke="midnightblue" points="687.064,-535.941 697.224,-538.946 691.155,-530.262 687.064,-535.941"/>
</g>
<!-- Box_Widget -->
<g id="node6" class="node"><title>Box_Widget</title>
<polygon fill="#fcfcda" stroke="black" points="627,-691 627,-799 893,-799 893,-691 627,-691"/>
<text text-anchor="middle" x="760" y="-787.8" font-family="Helvetica,sans-Serif" font-size="8.00">Widget</text>
<polyline fill="none" stroke="black" points="627,-779 893,-779 "/>
<text text-anchor="start" x="635" y="-767.8" font-family="Helvetica,sans-Serif" font-size="8.00">Attributes:</text>
<text text-anchor="start" x="635" y="-755.8" font-family="Helvetica,sans-Serif" font-size="8.00">+ Info : WidgetInfo</text>
<text text-anchor="start" x="635" y="-743.8" font-family="Helvetica,sans-Serif" font-size="8.00">+ IsVisible : bool virtual</text>
<text text-anchor="start" x="635" y="-731.8" font-family="Helvetica,sans-Serif" font-size="8.00">Methods:</text>
<polyline fill="none" stroke="black" points="627,-723 893,-723 "/>
<text text-anchor="start" x="635" y="-711.8" font-family="Helvetica,sans-Serif" font-size="8.00">+ bounds () : Rectangle</text>
<text text-anchor="start" x="635" y="-699.8" font-family="Helvetica,sans-Serif" font-size="8.00">+ Widget (GameState state, WidgetInfo info, DisplayLayer drawOrder)</text>
</g>
<!-- Box_Widget&#45;&gt;Box_ItemWidget -->
<g id="edge40" class="edge"><title>Box_Widget&#45;&gt;Box_ItemWidget</title>
<path fill="none" stroke="midnightblue" d="M740.048,-680.31C739.412,-665.203 739.793,-649.374 741.192,-635.133"/>
<polygon fill="none" stroke="midnightblue" points="736.574,-680.847 740.651,-690.625 743.562,-680.438 736.574,-680.847"/>
</g>
<!-- Box_Widget&#45;&gt;Box_ItemWidget -->
<g id="edge76" class="edge"><title>Box_Widget&#45;&gt;Box_ItemWidget</title>
<path fill="none" stroke="midnightblue" d="M766.651,-680.31C766.863,-665.203 766.736,-649.374 766.269,-635.133"/>
<polygon fill="none" stroke="midnightblue" points="763.145,-680.559 766.45,-690.625 770.144,-680.695 763.145,-680.559"/>
</g>
<!-- Box_Widget&#45;&gt;Box_ItemWidget -->
<g id="edge10" class="edge"><title>Box_Widget&#45;&gt;Box_ItemWidget</title>
<path fill="none" stroke="midnightblue" d="M753.349,-680.31C753.137,-665.203 753.264,-649.374 753.731,-635.133"/>
<polygon fill="none" stroke="midnightblue" points="749.856,-680.695 753.55,-690.625 756.855,-680.559 749.856,-680.695"/>
</g>
<!-- Box_Widget&#45;&gt;Box_ItemWidget -->
<g id="edge106" class="edge"><title>Box_Widget&#45;&gt;Box_ItemWidget</title>
<path fill="none" stroke="midnightblue" d="M779.952,-680.31C780.588,-665.203 780.207,-649.374 778.808,-635.133"/>
<polygon fill="none" stroke="midnightblue" points="776.438,-680.438 779.349,-690.625 783.426,-680.847 776.438,-680.438"/>
</g>
<!-- Box_DrawableGameStateComponent -->
<g id="node7" class="node"><title>Box_DrawableGameStateComponent</title>
<polygon fill="#fcfcda" stroke="black" points="589.5,-837 589.5,-945 930.5,-945 930.5,-837 589.5,-837"/>
<text text-anchor="middle" x="760" y="-933.8" font-family="Helvetica,sans-Serif" font-size="8.00">DrawableGameStateComponent</text>
<polyline fill="none" stroke="black" points="589.5,-925 930.5,-925 "/>
<text text-anchor="start" x="597.5" y="-913.8" font-family="Helvetica,sans-Serif" font-size="8.00">Attributes:</text>
<text text-anchor="start" x="597.5" y="-901.8" font-family="Helvetica,sans-Serif" font-size="8.00">+ state : GameState</text>
<text text-anchor="start" x="597.5" y="-889.8" font-family="Helvetica,sans-Serif" font-size="8.00">+ Index : int</text>
<text text-anchor="start" x="597.5" y="-877.8" font-family="Helvetica,sans-Serif" font-size="8.00">Methods:</text>
<polyline fill="none" stroke="black" points="589.5,-869 930.5,-869 "/>
<text text-anchor="start" x="597.5" y="-857.8" font-family="Helvetica,sans-Serif" font-size="8.00">+ DrawableGameStateComponent (GameState state, DisplayLayer drawOrder)</text>
<text text-anchor="start" x="597.5" y="-845.8" font-family="Helvetica,sans-Serif" font-size="8.00">+ SubComponents (GameTime gameTime) : IEnumerable&lt;IGameStateComponent&gt; virtual</text>
</g>
<!-- Box_DrawableGameStateComponent&#45;&gt;Box_Widget -->
<g id="edge26" class="edge"><title>Box_DrawableGameStateComponent&#45;&gt;Box_Widget</title>
<path fill="none" stroke="midnightblue" d="M713.037,-826.523C712.425,-817.474 712.792,-808.248 714.139,-799.41"/>
<polygon fill="none" stroke="midnightblue" points="709.577,-827.076 714.146,-836.635 716.535,-826.313 709.577,-827.076"/>
</g>
<!-- Box_DrawableGameStateComponent&#45;&gt;Box_Widget -->
<g id="edge42" class="edge"><title>Box_DrawableGameStateComponent&#45;&gt;Box_Widget</title>
<path fill="none" stroke="midnightblue" d="M739.873,-826.523C739.611,-817.474 739.768,-808.248 740.345,-799.41"/>
<polygon fill="none" stroke="midnightblue" points="736.383,-826.81 740.348,-836.635 743.375,-826.482 736.383,-826.81"/>
</g>
<!-- Box_DrawableGameStateComponent&#45;&gt;Box_Widget -->
<g id="edge56" class="edge"><title>Box_DrawableGameStateComponent&#45;&gt;Box_Widget</title>
<path fill="none" stroke="midnightblue" d="M753.291,-826.523C753.204,-817.474 753.256,-808.248 753.448,-799.41"/>
<polygon fill="none" stroke="midnightblue" points="749.793,-826.691 753.449,-836.635 756.792,-826.581 749.793,-826.691"/>
</g>
<!-- Box_DrawableGameStateComponent&#45;&gt;Box_Widget -->
<g id="edge78" class="edge"><title>Box_DrawableGameStateComponent&#45;&gt;Box_Widget</title>
<path fill="none" stroke="midnightblue" d="M766.709,-826.523C766.796,-817.474 766.744,-808.248 766.552,-799.41"/>
<polygon fill="none" stroke="midnightblue" points="763.208,-826.581 766.551,-836.635 770.207,-826.691 763.208,-826.581"/>
</g>
<!-- Box_DrawableGameStateComponent&#45;&gt;Box_Widget -->
<g id="edge92" class="edge"><title>Box_DrawableGameStateComponent&#45;&gt;Box_Widget</title>
<path fill="none" stroke="midnightblue" d="M780.127,-826.523C780.389,-817.474 780.232,-808.248 779.655,-799.41"/>
<polygon fill="none" stroke="midnightblue" points="776.625,-826.482 779.652,-836.635 783.617,-826.81 776.625,-826.482"/>
</g>
<!-- Box_DrawableGameStateComponent&#45;&gt;Box_Widget -->
<g id="edge12" class="edge"><title>Box_DrawableGameStateComponent&#45;&gt;Box_Widget</title>
<path fill="none" stroke="midnightblue" d="M726.455,-826.523C726.018,-817.474 726.28,-808.248 727.242,-799.41"/>
<polygon fill="none" stroke="midnightblue" points="722.977,-826.939 727.247,-836.635 729.956,-826.392 722.977,-826.939"/>
</g>
<!-- Box_DrawableGameStateComponent&#45;&gt;Box_Widget -->
<g id="edge108" class="edge"><title>Box_DrawableGameStateComponent&#45;&gt;Box_Widget</title>
<path fill="none" stroke="midnightblue" d="M793.545,-826.523C793.982,-817.474 793.72,-808.248 792.758,-799.41"/>
<polygon fill="none" stroke="midnightblue" points="790.044,-826.392 792.753,-836.635 797.023,-826.939 790.044,-826.392"/>
</g>
<!-- Box_DrawableGameStateComponent&#45;&gt;Box_Widget -->
<g id="edge122" class="edge"><title>Box_DrawableGameStateComponent&#45;&gt;Box_Widget</title>
<path fill="none" stroke="midnightblue" d="M806.963,-826.523C807.575,-817.474 807.208,-808.248 805.861,-799.41"/>
<polygon fill="none" stroke="midnightblue" points="803.465,-826.313 805.854,-836.635 810.423,-827.076 803.465,-826.313"/>
</g>
<!-- Box_IGameStateComponent -->
<g id="node8" class="node"><title>Box_IGameStateComponent</title>
<polygon fill="#dafcda" stroke="black" points="480,-983 480,-1067 798,-1067 798,-983 480,-983"/>
<text text-anchor="middle" x="639" y="-1055.8" font-family="Helvetica,sans-Serif" font-size="8.00">IGameStateComponent</text>
<polyline fill="none" stroke="black" points="480,-1047 798,-1047 "/>
<text text-anchor="start" x="488" y="-1035.8" font-family="Helvetica,sans-Serif" font-size="8.00">Attributes:</text>
<text text-anchor="start" x="488" y="-1023.8" font-family="Helvetica,sans-Serif" font-size="8.00">+ Index : int</text>
<text text-anchor="start" x="488" y="-1011.8" font-family="Helvetica,sans-Serif" font-size="8.00">Methods:</text>
<polyline fill="none" stroke="black" points="480,-1003 798,-1003 "/>
<text text-anchor="start" x="488" y="-991.8" font-family="Helvetica,sans-Serif" font-size="8.00">+ SubComponents (GameTime gameTime) : IEnumerable&lt;IGameStateComponent&gt;</text>
</g>
<!-- Box_IGameStateComponent&#45;&gt;Box_DrawableGameStateComponent -->
<g id="edge22" class="edge"><title>Box_IGameStateComponent&#45;&gt;Box_DrawableGameStateComponent</title>
<path fill="none" stroke="midnightblue" d="M586.536,-973.785C591.923,-964.427 600.474,-954.633 611.478,-945.192"/>
<polygon fill="none" stroke="midnightblue" points="583.307,-972.429 582.231,-982.969 589.645,-975.401 583.307,-972.429"/>
</g>
<!-- Box_IGameStateComponent&#45;&gt;Box_DrawableGameStateComponent -->
<g id="edge30" class="edge"><title>Box_IGameStateComponent&#45;&gt;Box_DrawableGameStateComponent</title>
<path fill="none" stroke="midnightblue" d="M612.666,-974.078C618.883,-964.631 627.584,-954.732 638.035,-945.192"/>
<polygon fill="none" stroke="midnightblue" points="609.496,-972.566 607.49,-982.969 615.546,-976.088 609.496,-972.566"/>
</g>
<!-- Box_IGameStateComponent&#45;&gt;Box_DrawableGameStateComponent -->
<g id="edge36" class="edge"><title>Box_IGameStateComponent&#45;&gt;Box_DrawableGameStateComponent</title>
<path fill="none" stroke="midnightblue" d="M625.61,-974.37C632.272,-964.836 641.092,-954.83 651.313,-945.192"/>
<polygon fill="none" stroke="midnightblue" points="622.551,-972.657 620.12,-982.969 628.451,-976.424 622.551,-972.657"/>
</g>
<!-- Box_IGameStateComponent&#45;&gt;Box_DrawableGameStateComponent -->
<g id="edge46" class="edge"><title>Box_IGameStateComponent&#45;&gt;Box_DrawableGameStateComponent</title>
<path fill="none" stroke="midnightblue" d="M638.528,-974.661C645.659,-965.04 654.607,-954.929 664.591,-945.192"/>
<polygon fill="none" stroke="midnightblue" points="635.586,-972.761 632.749,-982.969 641.333,-976.759 635.586,-972.761"/>
</g>
<!-- Box_IGameStateComponent&#45;&gt;Box_DrawableGameStateComponent -->
<g id="edge52" class="edge"><title>Box_IGameStateComponent&#45;&gt;Box_DrawableGameStateComponent</title>
<path fill="none" stroke="midnightblue" d="M651.421,-974.953C659.044,-965.244 668.128,-955.027 677.87,-945.192"/>
<polygon fill="none" stroke="midnightblue" points="648.603,-972.877 645.379,-982.969 654.193,-977.09 648.603,-972.877"/>
</g>
<!-- Box_IGameStateComponent&#45;&gt;Box_DrawableGameStateComponent -->
<g id="edge60" class="edge"><title>Box_IGameStateComponent&#45;&gt;Box_DrawableGameStateComponent</title>
<path fill="none" stroke="midnightblue" d="M664.529,-974.953C672.61,-965.244 681.751,-955.027 691.148,-945.192"/>
<polygon fill="none" stroke="midnightblue" points="661.604,-973.003 658.009,-982.969 667.034,-977.42 661.604,-973.003"/>
</g>
<!-- Box_IGameStateComponent&#45;&gt;Box_DrawableGameStateComponent -->
<g id="edge66" class="edge"><title>Box_IGameStateComponent&#45;&gt;Box_DrawableGameStateComponent</title>
<path fill="none" stroke="midnightblue" d="M677.382,-975.244C685.992,-965.448 695.283,-955.125 704.426,-945.192"/>
<polygon fill="none" stroke="midnightblue" points="674.578,-973.134 670.638,-982.969 679.851,-977.737 674.578,-973.134"/>
</g>
<!-- Box_IGameStateComponent&#45;&gt;Box_DrawableGameStateComponent -->
<g id="edge82" class="edge"><title>Box_IGameStateComponent&#45;&gt;Box_DrawableGameStateComponent</title>
<path fill="none" stroke="midnightblue" d="M690.207,-975.535C699.371,-965.653 708.822,-955.224 717.705,-945.192"/>
<polygon fill="none" stroke="midnightblue" points="687.532,-973.27 683.268,-982.969 692.65,-978.047 687.532,-973.27"/>
</g>
<!-- Box_IGameStateComponent&#45;&gt;Box_DrawableGameStateComponent -->
<g id="edge88" class="edge"><title>Box_IGameStateComponent&#45;&gt;Box_DrawableGameStateComponent</title>
<path fill="none" stroke="midnightblue" d="M703.003,-975.825C712.748,-965.857 722.368,-955.322 730.983,-945.192"/>
<polygon fill="none" stroke="midnightblue" points="700.468,-973.411 695.898,-982.969 705.431,-978.347 700.468,-973.411"/>
</g>
<!-- Box_IGameStateComponent&#45;&gt;Box_DrawableGameStateComponent -->
<g id="edge96" class="edge"><title>Box_IGameStateComponent&#45;&gt;Box_DrawableGameStateComponent</title>
<path fill="none" stroke="midnightblue" d="M716.069,-975.825C726.31,-965.857 736,-955.322 744.261,-945.192"/>
<polygon fill="none" stroke="midnightblue" points="713.38,-973.551 708.527,-982.969 718.194,-978.633 713.38,-973.551"/>
</g>
<!-- Box_IGameStateComponent&#45;&gt;Box_DrawableGameStateComponent -->
<g id="edge102" class="edge"><title>Box_IGameStateComponent&#45;&gt;Box_DrawableGameStateComponent</title>
<path fill="none" stroke="midnightblue" d="M728.822,-976.115C739.683,-966.062 749.557,-955.42 757.539,-945.192"/>
<polygon fill="none" stroke="midnightblue" points="726.279,-973.695 721.157,-982.969 730.945,-978.913 726.279,-973.695"/>
</g>
<!-- Box_IGameStateComponent&#45;&gt;Box_DrawableGameStateComponent -->
<g id="edge112" class="edge"><title>Box_IGameStateComponent&#45;&gt;Box_DrawableGameStateComponent</title>
<path fill="none" stroke="midnightblue" d="M741.545,-976.405C753.052,-966.267 763.12,-955.519 770.818,-945.192"/>
<polygon fill="none" stroke="midnightblue" points="739.161,-973.838 733.787,-982.969 743.682,-979.182 739.161,-973.838"/>
</g>
<!-- Box_IGameStateComponent&#45;&gt;Box_DrawableGameStateComponent -->
<g id="edge118" class="edge"><title>Box_IGameStateComponent&#45;&gt;Box_DrawableGameStateComponent</title>
<path fill="none" stroke="midnightblue" d="M754.238,-976.695C766.417,-966.471 776.689,-955.617 784.096,-945.192"/>
<polygon fill="none" stroke="midnightblue" points="752.027,-973.982 746.416,-982.969 756.407,-979.442 752.027,-973.982"/>
</g>
<!-- Box_IGameStateComponent&#45;&gt;Box_DrawableGameStateComponent -->
<g id="edge126" class="edge"><title>Box_IGameStateComponent&#45;&gt;Box_DrawableGameStateComponent</title>
<path fill="none" stroke="midnightblue" d="M767.259,-976.695C779.975,-966.471 790.333,-955.617 797.374,-945.192"/>
<polygon fill="none" stroke="midnightblue" points="764.868,-974.117 759.046,-982.969 769.117,-979.68 764.868,-974.117"/>
</g>
<!-- Box_IGameStateComponent&#45;&gt;Box_DrawableGameStateComponent -->
<g id="edge132" class="edge"><title>Box_IGameStateComponent&#45;&gt;Box_DrawableGameStateComponent</title>
<path fill="none" stroke="midnightblue" d="M779.905,-976.984C793.335,-966.676 803.913,-955.715 810.653,-945.192"/>
<polygon fill="none" stroke="midnightblue" points="777.704,-974.257 771.676,-982.969 781.822,-979.918 777.704,-974.257"/>
</g>
<!-- Box_IGameStateComponent&#45;&gt;Box_DrawableGameStateComponent -->
<g id="edge16" class="edge"><title>Box_IGameStateComponent&#45;&gt;Box_DrawableGameStateComponent</title>
<path fill="none" stroke="midnightblue" d="M599.517,-974.078C605.314,-964.631 613.972,-954.732 624.756,-945.192"/>
<polygon fill="none" stroke="midnightblue" points="596.4,-972.487 594.86,-982.969 602.601,-975.735 596.4,-972.487"/>
</g>
<!-- Box_XnaDrawableGameComponent -->
<g id="node9" class="node"><title>Box_XnaDrawableGameComponent</title>
<polygon fill="#ffffff" stroke="black" points="815.5,-1015 815.5,-1035 946.5,-1035 946.5,-1015 815.5,-1015"/>
<text text-anchor="middle" x="881" y="-1023.8" font-family="Helvetica,sans-Serif" font-size="8.00">Xna.DrawableGameComponent</text>
</g>
<!-- Box_XnaDrawableGameComponent&#45;&gt;Box_DrawableGameStateComponent -->
<g id="edge28" class="edge"><title>Box_XnaDrawableGameComponent&#45;&gt;Box_DrawableGameStateComponent</title>
<path fill="none" stroke="midnightblue" d="M805.669,-1011.79C761.09,-996.258 724.874,-969.5 709.295,-945.111"/>
<polygon fill="none" stroke="midnightblue" points="804.712,-1015.16 815.304,-1014.93 806.88,-1008.5 804.712,-1015.16"/>
</g>
<!-- Box_XnaDrawableGameComponent&#45;&gt;Box_DrawableGameStateComponent -->
<g id="edge34" class="edge"><title>Box_XnaDrawableGameComponent&#45;&gt;Box_DrawableGameStateComponent</title>
<path fill="none" stroke="midnightblue" d="M828.595,-1010.6C797.105,-994.916 766.822,-968.888 749.122,-945.111"/>
<polygon fill="none" stroke="midnightblue" points="827.4,-1013.9 837.945,-1014.93 830.341,-1007.55 827.4,-1013.9"/>
</g>
<!-- Box_XnaDrawableGameComponent&#45;&gt;Box_DrawableGameStateComponent -->
<g id="edge44" class="edge"><title>Box_XnaDrawableGameComponent&#45;&gt;Box_DrawableGameStateComponent</title>
<path fill="none" stroke="midnightblue" d="M836.639,-1010.19C809.218,-994.47 780.776,-968.684 762.397,-945.111"/>
<polygon fill="none" stroke="midnightblue" points="835.023,-1013.3 845.492,-1014.93 838.325,-1007.13 835.023,-1013.3"/>
</g>
<!-- Box_XnaDrawableGameComponent&#45;&gt;Box_DrawableGameStateComponent -->
<g id="edge50" class="edge"><title>Box_XnaDrawableGameComponent&#45;&gt;Box_DrawableGameStateComponent</title>
<path fill="none" stroke="midnightblue" d="M844.57,-1009.57C821.152,-993.8 794.633,-968.378 775.672,-945.111"/>
<polygon fill="none" stroke="midnightblue" points="842.716,-1012.54 853.038,-1014.93 846.456,-1006.63 842.716,-1012.54"/>
</g>
<!-- Box_XnaDrawableGameComponent&#45;&gt;Box_DrawableGameStateComponent -->
<g id="edge58" class="edge"><title>Box_XnaDrawableGameComponent&#45;&gt;Box_DrawableGameStateComponent</title>
<path fill="none" stroke="midnightblue" d="M852.526,-1008.74C832.943,-992.909 808.381,-967.97 788.948,-945.111"/>
<polygon fill="none" stroke="midnightblue" points="850.523,-1011.61 860.585,-1014.93 854.788,-1006.06 850.523,-1011.61"/>
</g>
<!-- Box_XnaDrawableGameComponent&#45;&gt;Box_DrawableGameStateComponent -->
<g id="edge64" class="edge"><title>Box_XnaDrawableGameComponent&#45;&gt;Box_DrawableGameStateComponent</title>
<path fill="none" stroke="midnightblue" d="M860.851,-1007.88C844.835,-992.019 822.101,-967.562 802.223,-945.111"/>
<polygon fill="none" stroke="midnightblue" points="858.513,-1010.49 868.132,-1014.93 863.382,-1005.46 858.513,-1010.49"/>
</g>
<!-- Box_XnaDrawableGameComponent&#45;&gt;Box_DrawableGameStateComponent -->
<g id="edge80" class="edge"><title>Box_XnaDrawableGameComponent&#45;&gt;Box_DrawableGameStateComponent</title>
<path fill="none" stroke="midnightblue" d="M869.532,-1007.01C856.823,-991.13 835.791,-967.153 815.499,-945.111"/>
<polygon fill="none" stroke="midnightblue" points="866.783,-1009.17 875.679,-1014.93 872.314,-1004.88 866.783,-1009.17"/>
</g>
<!-- Box_XnaDrawableGameComponent&#45;&gt;Box_DrawableGameStateComponent -->
<g id="edge86" class="edge"><title>Box_XnaDrawableGameComponent&#45;&gt;Box_DrawableGameStateComponent</title>
<path fill="none" stroke="midnightblue" d="M878.282,-1005.66C868.537,-989.8 849.258,-966.541 828.774,-945.111"/>
<polygon fill="none" stroke="midnightblue" points="875.429,-1007.75 883.226,-1014.93 881.605,-1004.46 875.429,-1007.75"/>
</g>
<!-- Box_XnaDrawableGameComponent&#45;&gt;Box_DrawableGameStateComponent -->
<g id="edge94" class="edge"><title>Box_XnaDrawableGameComponent&#45;&gt;Box_DrawableGameStateComponent</title>
<path fill="none" stroke="midnightblue" d="M887.915,-1005.21C881.072,-989.357 863.086,-966.337 842.05,-945.111"/>
<polygon fill="none" stroke="midnightblue" points="884.594,-1006.32 890.772,-1014.93 891.309,-1004.35 884.594,-1006.32"/>
</g>
<!-- Box_XnaDrawableGameComponent&#45;&gt;Box_DrawableGameStateComponent -->
<g id="edge100" class="edge"><title>Box_XnaDrawableGameComponent&#45;&gt;Box_DrawableGameStateComponent</title>
<path fill="none" stroke="midnightblue" d="M897.714,-1004.75C893.65,-988.914 876.9,-966.133 855.325,-945.111"/>
<polygon fill="none" stroke="midnightblue" points="894.232,-1005.15 898.319,-1014.93 901.22,-1004.74 894.232,-1005.15"/>
</g>
<!-- Box_XnaDrawableGameComponent&#45;&gt;Box_DrawableGameStateComponent -->
<g id="edge110" class="edge"><title>Box_XnaDrawableGameComponent&#45;&gt;Box_DrawableGameStateComponent</title>
<path fill="none" stroke="midnightblue" d="M907.714,-1004.75C906.575,-988.914 890.917,-966.133 868.601,-945.111"/>
<polygon fill="none" stroke="midnightblue" points="904.209,-1004.46 905.866,-1014.93 911.096,-1005.71 904.209,-1004.46"/>
</g>
<!-- Box_XnaDrawableGameComponent&#45;&gt;Box_DrawableGameStateComponent -->
<g id="edge116" class="edge"><title>Box_XnaDrawableGameComponent&#45;&gt;Box_DrawableGameStateComponent</title>
<path fill="none" stroke="midnightblue" d="M917.592,-1005.66C920.062,-989.8 905.38,-966.541 881.876,-945.111"/>
<polygon fill="none" stroke="midnightblue" points="914.335,-1004.37 913.413,-1014.93 920.715,-1007.25 914.335,-1004.37"/>
</g>
<!-- Box_XnaDrawableGameComponent&#45;&gt;Box_DrawableGameStateComponent -->
<g id="edge14" class="edge"><title>Box_XnaDrawableGameComponent&#45;&gt;Box_DrawableGameStateComponent</title>
<path fill="none" stroke="midnightblue" d="M813.361,-1011.5C773.184,-995.923 738.905,-969.347 722.571,-945.111"/>
<polygon fill="none" stroke="midnightblue" points="812.257,-1014.82 822.851,-1014.93 814.638,-1008.24 812.257,-1014.82"/>
</g>
<!-- Box_XnaDrawableGameComponent&#45;&gt;Box_DrawableGameStateComponent -->
<g id="edge124" class="edge"><title>Box_XnaDrawableGameComponent&#45;&gt;Box_DrawableGameStateComponent</title>
<path fill="none" stroke="midnightblue" d="M927.083,-1006.56C933.454,-990.686 919.873,-966.949 895.152,-945.111"/>
<polygon fill="none" stroke="midnightblue" points="924.042,-1004.79 920.959,-1014.93 929.69,-1008.93 924.042,-1004.79"/>
</g>
<!-- Box_XnaDrawableGameComponent&#45;&gt;Box_DrawableGameStateComponent -->
<g id="edge130" class="edge"><title>Box_XnaDrawableGameComponent&#45;&gt;Box_DrawableGameStateComponent</title>
<path fill="none" stroke="midnightblue" d="M935.878,-1007.88C946.975,-992.019 934.633,-967.562 908.427,-945.111"/>
<polygon fill="none" stroke="midnightblue" points="933.315,-1005.49 928.506,-1014.93 938.153,-1010.55 933.315,-1005.49"/>
</g>
<!-- Box_XnaDrawableGameComponent&#45;&gt;Box_DrawableGameStateComponent -->
<g id="edge20" class="edge"><title>Box_XnaDrawableGameComponent&#45;&gt;Box_DrawableGameStateComponent</title>
<path fill="none" stroke="midnightblue" d="M820.75,-1011C785.045,-995.363 752.854,-969.092 735.846,-945.111"/>
<polygon fill="none" stroke="midnightblue" points="819.816,-1014.4 830.398,-1014.93 822.456,-1007.92 819.816,-1014.4"/>
</g>
<!-- Box_XnaIGameComponent -->
<g id="node10" class="node"><title>Box_XnaIGameComponent</title>
<polygon fill="#ffffff" stroke="black" points="589.5,-1105 589.5,-1125 688.5,-1125 688.5,-1105 589.5,-1105"/>
<text text-anchor="middle" x="639" y="-1113.8" font-family="Helvetica,sans-Serif" font-size="8.00">Xna.IGameComponent</text>
</g>
<!-- Box_XnaIGameComponent&#45;&gt;Box_IGameStateComponent -->
<g id="edge24" class="edge"><title>Box_XnaIGameComponent&#45;&gt;Box_IGameStateComponent</title>
<path fill="none" stroke="midnightblue" d="M579.726,-1107.46C549.912,-1098.42 535.98,-1082.57 537.929,-1067.16"/>
<polygon fill="none" stroke="midnightblue" points="578.927,-1110.86 589.489,-1110.03 580.714,-1104.1 578.927,-1110.86"/>
</g>
<!-- Box_XnaIGameComponent&#45;&gt;Box_IGameStateComponent -->
<g id="edge32" class="edge"><title>Box_XnaIGameComponent&#45;&gt;Box_IGameStateComponent</title>
<path fill="none" stroke="midnightblue" d="M581.143,-1099.38C569.235,-1090.41 563.814,-1078.66 564.882,-1067.16"/>
<polygon fill="none" stroke="midnightblue" points="579.567,-1102.52 589.903,-1104.85 583.274,-1096.59 579.567,-1102.52"/>
</g>
<!-- Box_XnaIGameComponent&#45;&gt;Box_IGameStateComponent -->
<g id="edge38" class="edge"><title>Box_XnaIGameComponent&#45;&gt;Box_IGameStateComponent</title>
<path fill="none" stroke="midnightblue" d="M590.841,-1098.61C581.67,-1089.73 577.509,-1078.33 578.358,-1067.16"/>
<polygon fill="none" stroke="midnightblue" points="588.795,-1101.45 598.83,-1104.85 593.106,-1095.93 588.795,-1101.45"/>
</g>
<!-- Box_XnaIGameComponent&#45;&gt;Box_IGameStateComponent -->
<g id="edge48" class="edge"><title>Box_XnaIGameComponent&#45;&gt;Box_IGameStateComponent</title>
<path fill="none" stroke="midnightblue" d="M600.635,-1097.44C594.188,-1088.81 591.25,-1078.02 591.819,-1067.41"/>
<polygon fill="none" stroke="midnightblue" points="598.107,-1099.86 607.542,-1104.68 603.172,-1095.02 598.107,-1099.86"/>
</g>
<!-- Box_XnaIGameComponent&#45;&gt;Box_IGameStateComponent -->
<g id="edge54" class="edge"><title>Box_XnaIGameComponent&#45;&gt;Box_IGameStateComponent</title>
<path fill="none" stroke="midnightblue" d="M610.911,-1096.1C606.784,-1087.71 604.913,-1077.48 605.3,-1067.41"/>
<polygon fill="none" stroke="midnightblue" points="608.122,-1098.23 616.53,-1104.68 613.977,-1094.39 608.122,-1098.23"/>
</g>
<!-- Box_XnaIGameComponent&#45;&gt;Box_IGameStateComponent -->
<g id="edge62" class="edge"><title>Box_XnaIGameComponent&#45;&gt;Box_IGameStateComponent</title>
<path fill="none" stroke="midnightblue" d="M621.911,-1095.28C619.599,-1087.05 618.555,-1077.15 618.78,-1067.41"/>
<polygon fill="none" stroke="midnightblue" points="618.666,-1096.59 625.518,-1104.68 625.201,-1094.09 618.666,-1096.59"/>
</g>
<!-- Box_XnaIGameComponent&#45;&gt;Box_IGameStateComponent -->
<g id="edge68" class="edge"><title>Box_XnaIGameComponent&#45;&gt;Box_IGameStateComponent</title>
<path fill="none" stroke="midnightblue" d="M633.253,-1094.73C632.518,-1086.61 632.187,-1076.94 632.26,-1067.41"/>
<polygon fill="none" stroke="midnightblue" points="629.783,-1095.19 634.506,-1104.68 636.728,-1094.32 629.783,-1095.19"/>
</g>
<!-- Box_XnaIGameComponent&#45;&gt;Box_IGameStateComponent -->
<g id="edge84" class="edge"><title>Box_XnaIGameComponent&#45;&gt;Box_IGameStateComponent</title>
<path fill="none" stroke="midnightblue" d="M644.747,-1094.73C645.482,-1086.61 645.813,-1076.94 645.74,-1067.41"/>
<polygon fill="none" stroke="midnightblue" points="641.272,-1094.32 643.494,-1104.68 648.217,-1095.19 641.272,-1094.32"/>
</g>
<!-- Box_XnaIGameComponent&#45;&gt;Box_IGameStateComponent -->
<g id="edge90" class="edge"><title>Box_XnaIGameComponent&#45;&gt;Box_IGameStateComponent</title>
<path fill="none" stroke="midnightblue" d="M656.089,-1095.28C658.401,-1087.05 659.445,-1077.15 659.22,-1067.41"/>
<polygon fill="none" stroke="midnightblue" points="652.799,-1094.09 652.482,-1104.68 659.334,-1096.59 652.799,-1094.09"/>
</g>
<!-- Box_XnaIGameComponent&#45;&gt;Box_IGameStateComponent -->
<g id="edge98" class="edge"><title>Box_XnaIGameComponent&#45;&gt;Box_IGameStateComponent</title>
<path fill="none" stroke="midnightblue" d="M667.089,-1096.1C671.216,-1087.71 673.087,-1077.48 672.7,-1067.41"/>
<polygon fill="none" stroke="midnightblue" points="664.023,-1094.39 661.47,-1104.68 669.878,-1098.23 664.023,-1094.39"/>
</g>
<!-- Box_XnaIGameComponent&#45;&gt;Box_IGameStateComponent -->
<g id="edge104" class="edge"><title>Box_XnaIGameComponent&#45;&gt;Box_IGameStateComponent</title>
<path fill="none" stroke="midnightblue" d="M677.365,-1097.44C683.812,-1088.81 686.75,-1078.02 686.181,-1067.41"/>
<polygon fill="none" stroke="midnightblue" points="674.828,-1095.02 670.458,-1104.68 679.893,-1099.86 674.828,-1095.02"/>
</g>
<!-- Box_XnaIGameComponent&#45;&gt;Box_IGameStateComponent -->
<g id="edge114" class="edge"><title>Box_XnaIGameComponent&#45;&gt;Box_IGameStateComponent</title>
<path fill="none" stroke="midnightblue" d="M687.159,-1098.61C696.33,-1089.73 700.491,-1078.33 699.642,-1067.16"/>
<polygon fill="none" stroke="midnightblue" points="684.894,-1095.93 679.17,-1104.85 689.205,-1101.45 684.894,-1095.93"/>
</g>
<!-- Box_XnaIGameComponent&#45;&gt;Box_IGameStateComponent -->
<g id="edge120" class="edge"><title>Box_XnaIGameComponent&#45;&gt;Box_IGameStateComponent</title>
<path fill="none" stroke="midnightblue" d="M696.857,-1099.38C708.765,-1090.41 714.186,-1078.66 713.118,-1067.16"/>
<polygon fill="none" stroke="midnightblue" points="694.726,-1096.59 688.097,-1104.85 698.433,-1102.52 694.726,-1096.59"/>
</g>
<!-- Box_XnaIGameComponent&#45;&gt;Box_IGameStateComponent -->
<g id="edge128" class="edge"><title>Box_XnaIGameComponent&#45;&gt;Box_IGameStateComponent</title>
<path fill="none" stroke="midnightblue" d="M697.978,-1104.43C718.507,-1095.16 728.05,-1081.05 726.608,-1067.29"/>
<polygon fill="none" stroke="midnightblue" points="696.574,-1101.22 688.508,-1108.09 699.097,-1107.75 696.574,-1101.22"/>
</g>
<!-- Box_XnaIGameComponent&#45;&gt;Box_IGameStateComponent -->
<g id="edge134" class="edge"><title>Box_XnaIGameComponent&#45;&gt;Box_IGameStateComponent</title>
<path fill="none" stroke="midnightblue" d="M698.274,-1107.46C728.088,-1098.42 742.02,-1082.57 740.071,-1067.16"/>
<polygon fill="none" stroke="midnightblue" points="697.286,-1104.1 688.511,-1110.03 699.073,-1110.86 697.286,-1104.1"/>
</g>
<!-- Box_XnaIGameComponent&#45;&gt;Box_IGameStateComponent -->
<g id="edge18" class="edge"><title>Box_XnaIGameComponent&#45;&gt;Box_IGameStateComponent</title>
<path fill="none" stroke="midnightblue" d="M580.022,-1104.43C559.493,-1095.16 549.95,-1081.05 551.392,-1067.29"/>
<polygon fill="none" stroke="midnightblue" points="578.903,-1107.75 589.492,-1108.09 581.426,-1101.22 578.903,-1107.75"/>
</g>
</g>
</svg>
