<?xml version="1.0" encoding="UTF-8" standalone="no"?>
<!DOCTYPE svg PUBLIC "-//W3C//DTD SVG 1.1//EN"
 "http://www.w3.org/Graphics/SVG/1.1/DTD/svg11.dtd">
<!-- Generated by graphviz version 2.26.3 (20100126.1600)
 -->
<!-- Title: MenuItem Pages: 1 -->
<svg width="1067pt" height="1700pt"
 viewBox="0.00 0.00 256.00 408.00" xmlns="http://www.w3.org/2000/svg" xmlns:xlink="http://www.w3.org/1999/xlink">
<g id="graph1" class="graph" transform="scale(4.16667 4.16667) rotate(0) translate(4 404)">
<title>MenuItem</title>
<polygon fill="white" stroke="white" points="-4,5 -4,-404 253,-404 253,5 -4,5"/>
<!-- Box_ShadowGameObject -->
<g id="node1" class="node"><title>Box_ShadowGameObject</title>
<polygon fill="#fcfcda" stroke="black" points="1.5,-123 1.5,-267 246.5,-267 246.5,-123 1.5,-123"/>
<text text-anchor="middle" x="124" y="-255.8" font-family="Arial" font-size="8.00">ShadowGameObject</text>
<polyline fill="none" stroke="black" points="1.5,-249 246.5,-249 "/>
<text text-anchor="start" x="9.5" y="-237.8" font-family="Arial" font-size="8.00">&#45; Obj : IGameObject</text>
<text text-anchor="start" x="9.5" y="-227.8" font-family="Arial" font-size="8.00">+ Info : GameObjectInfo</text>
<text text-anchor="start" x="9.5" y="-217.8" font-family="Arial" font-size="8.00">+ OriginalPosition : Vector3</text>
<text text-anchor="start" x="9.5" y="-207.8" font-family="Arial" font-size="8.00">+ World : World</text>
<text text-anchor="start" x="9.5" y="-197.8" font-family="Arial" font-size="8.00"># screen : GameScreen</text>
<text text-anchor="start" x="9.5" y="-187.8" font-family="Arial" font-size="8.00">+ ShadowPosition : Vector3</text>
<polyline fill="none" stroke="black" points="1.5,-181 246.5,-181 "/>
<text text-anchor="start" x="9.5" y="-169.8" font-family="Arial" font-size="8.00">+ Update (GameTime gameTime) virtual</text>
<text text-anchor="start" x="9.5" y="-159.8" font-family="Arial" font-size="8.00">+ Intersects (Ray ray) : GameObjectDistance</text>
<text text-anchor="start" x="9.5" y="-149.8" font-family="Arial" font-size="8.00">+ ShadowGameObject (GameScreen screen, IGameObject obj)</text>
<text text-anchor="start" x="9.5" y="-139.8" font-family="Arial" font-size="8.00">+ Center () : Vector3</text>
<text text-anchor="start" x="9.5" y="-129.8" font-family="Arial" font-size="8.00">+ Draw (GameTime gameTime) virtual</text>
</g>
<!-- Box_ShadowGameModel -->
<g id="node3" class="node"><title>Box_ShadowGameModel</title>
<polygon fill="#fcfcda" stroke="black" points="-0.5,-1 -0.5,-85 248.5,-85 248.5,-1 -0.5,-1"/>
<text text-anchor="middle" x="124" y="-73.8" font-family="Arial" font-size="8.00">ShadowGameModel</text>
<polyline fill="none" stroke="black" points="-0.5,-67 248.5,-67 "/>
<text text-anchor="start" x="7.5" y="-55.8" font-family="Arial" font-size="8.00">+ ShadowColor : Color</text>
<text text-anchor="start" x="7.5" y="-45.8" font-family="Arial" font-size="8.00">&#45; Model : GameModel</text>
<text text-anchor="start" x="7.5" y="-35.8" font-family="Arial" font-size="8.00">+ ShadowAlpha : float</text>
<polyline fill="none" stroke="black" points="-0.5,-29 248.5,-29 "/>
<text text-anchor="start" x="7.5" y="-17.8" font-family="Arial" font-size="8.00">+ ShadowGameModel (GameScreen screen, GameModel model)</text>
<text text-anchor="start" x="7.5" y="-7.8" font-family="Arial" font-size="8.00">+ Draw (GameTime gameTime)</text>
</g>
<!-- Box_ShadowGameObject&#45;&gt;Box_ShadowGameModel -->
<g id="edge4" class="edge"><title>Box_ShadowGameObject&#45;&gt;Box_ShadowGameModel</title>
<path fill="none" stroke="midnightblue" d="M124,-112.324C124,-102.913 124,-93.6404 124,-85.0882"/>
<polygon fill="none" stroke="midnightblue" points="120.5,-112.561 124,-122.561 127.5,-112.561 120.5,-112.561"/>
</g>
<!-- Box_IGameObject -->
<g id="node2" class="node"><title>Box_IGameObject</title>
<polygon fill="#dafcda" stroke="black" points="34.5,-305 34.5,-399 213.5,-399 213.5,-305 34.5,-305"/>
<text text-anchor="middle" x="124" y="-387.8" font-family="Arial" font-size="8.00">IGameObject</text>
<polyline fill="none" stroke="black" points="34.5,-381 213.5,-381 "/>
<text text-anchor="start" x="42.5" y="-369.8" font-family="Arial" font-size="8.00">+ Info : GameObjectInfo</text>
<text text-anchor="start" x="42.5" y="-359.8" font-family="Arial" font-size="8.00">+ World : World</text>
<polyline fill="none" stroke="black" points="34.5,-353 213.5,-353 "/>
<text text-anchor="start" x="42.5" y="-341.8" font-family="Arial" font-size="8.00">+ Draw (GameTime gameTime)</text>
<text text-anchor="start" x="42.5" y="-331.8" font-family="Arial" font-size="8.00">+ Update (GameTime gameTime)</text>
<text text-anchor="start" x="42.5" y="-321.8" font-family="Arial" font-size="8.00">+ Intersects (Ray ray) : GameObjectDistance</text>
<text text-anchor="start" x="42.5" y="-311.8" font-family="Arial" font-size="8.00">+ Center () : Vector3</text>
</g>
<!-- Box_IGameObject&#45;&gt;Box_ShadowGameObject -->
<g id="edge2" class="edge"><title>Box_IGameObject&#45;&gt;Box_ShadowGameObject</title>
<path fill="none" stroke="midnightblue" d="M124,-294.883C124,-285.837 124,-276.38 124,-267.045"/>
<polygon fill="none" stroke="midnightblue" points="120.5,-294.895 124,-304.895 127.5,-294.895 120.5,-294.895"/>
</g>
</g>
</svg>
