<?xml version="1.0" encoding="UTF-8" standalone="no"?>
<!DOCTYPE svg PUBLIC "-//W3C//DTD SVG 1.1//EN"
 "http://www.w3.org/Graphics/SVG/1.1/DTD/svg11.dtd">
<!-- Generated by graphviz version 2.26.3 (20100126.1600)
 -->
<!-- Title: MenuItem Pages: 1 -->
<svg width="992pt" height="2325pt"
 viewBox="0.00 0.00 238.00 558.00" xmlns="http://www.w3.org/2000/svg" xmlns:xlink="http://www.w3.org/1999/xlink">
<g id="graph1" class="graph" transform="scale(4.16667 4.16667) rotate(0) translate(4 554)">
<title>MenuItem</title>
<polygon fill="white" stroke="white" points="-4,5 -4,-554 235,-554 235,5 -4,5"/>
<!-- Box_ArrowModel -->
<g id="node1" class="node"><title>Box_ArrowModel</title>
<polygon fill="#fcfcda" stroke="black" points="0,-1 0,-85 230,-85 230,-1 0,-1"/>
<text text-anchor="middle" x="115" y="-73.8" font-family="Arial" font-size="8.00">ArrowModel</text>
<polyline fill="none" stroke="black" points="0,-67 230,-67 "/>
<text text-anchor="start" x="8" y="-55.8" font-family="Arial" font-size="8.00">&#45; Bounds : BoundingSphere[]</text>
<text text-anchor="start" x="8" y="-45.8" font-family="Arial" font-size="8.00">+ Info : ArrowModelInfo</text>
<polyline fill="none" stroke="black" points="0,-39 230,-39 "/>
<text text-anchor="start" x="8" y="-27.8" font-family="Arial" font-size="8.00">+ ArrowModel (GameScreen screen, ArrowModelInfo info)</text>
<text text-anchor="start" x="8" y="-17.8" font-family="Arial" font-size="8.00">+ Intersects (Ray ray) : GameObjectDistance</text>
<text text-anchor="start" x="8" y="-7.8" font-family="Arial" font-size="8.00">+ Draw (GameTime time)</text>
</g>
<!-- Box_GameModel -->
<g id="node2" class="node"><title>Box_GameModel</title>
<polygon fill="#fcfcda" stroke="black" points="3,-123 3,-417 227,-417 227,-123 3,-123"/>
<text text-anchor="middle" x="115" y="-405.8" font-family="Arial" font-size="8.00">GameModel</text>
<polyline fill="none" stroke="black" points="3,-399 227,-399 "/>
<text text-anchor="start" x="11" y="-387.8" font-family="Arial" font-size="8.00">&#45; IGameObject.Info : GameObjectInfo</text>
<text text-anchor="start" x="11" y="-377.8" font-family="Arial" font-size="8.00">&#45; _rotation : Angles3</text>
<text text-anchor="start" x="11" y="-367.8" font-family="Arial" font-size="8.00">&#45; Bounds : BoundingSphere[]</text>
<text text-anchor="start" x="11" y="-357.8" font-family="Arial" font-size="8.00">&#45; _bounds : BoundingSphere[]</text>
<text text-anchor="start" x="11" y="-347.8" font-family="Arial" font-size="8.00">&#45; _worldMatrix : Matrix</text>
<text text-anchor="start" x="11" y="-337.8" font-family="Arial" font-size="8.00">&#45; _position : Vector3</text>
<text text-anchor="start" x="11" y="-327.8" font-family="Arial" font-size="8.00">&#45; _inFrustum : bool</text>
<text text-anchor="start" x="11" y="-317.8" font-family="Arial" font-size="8.00"># InCameraFrustum : bool</text>
<text text-anchor="start" x="11" y="-307.8" font-family="Arial" font-size="8.00">+ BaseColor : Color</text>
<text text-anchor="start" x="11" y="-297.8" font-family="Arial" font-size="8.00">+ HighlightColor : Color</text>
<text text-anchor="start" x="11" y="-287.8" font-family="Arial" font-size="8.00">+ Info : GameModelInfo</text>
<text text-anchor="start" x="11" y="-277.8" font-family="Arial" font-size="8.00">+ WorldMatrix : Matrix</text>
<text text-anchor="start" x="11" y="-267.8" font-family="Arial" font-size="8.00">+ World : World</text>
<text text-anchor="start" x="11" y="-257.8" font-family="Arial" font-size="8.00">+ Alpha : float</text>
<text text-anchor="start" x="11" y="-247.8" font-family="Arial" font-size="8.00">+ HighlightIntensity : float</text>
<text text-anchor="start" x="11" y="-237.8" font-family="Arial" font-size="8.00">&#45; _scale : Vector3</text>
<text text-anchor="start" x="11" y="-227.8" font-family="Arial" font-size="8.00">&#45; _world : World</text>
<text text-anchor="start" x="11" y="-217.8" font-family="Arial" font-size="8.00"># screen : GameScreen</text>
<text text-anchor="start" x="11" y="-207.8" font-family="Arial" font-size="8.00">+ Model : Model virtual</text>
<polyline fill="none" stroke="black" points="3,-201 227,-201 "/>
<text text-anchor="start" x="11" y="-189.8" font-family="Arial" font-size="8.00">&#45; OnViewChanged ()</text>
<text text-anchor="start" x="11" y="-179.8" font-family="Arial" font-size="8.00">&#45; UpdatePrecomputed ()</text>
<text text-anchor="start" x="11" y="-169.8" font-family="Arial" font-size="8.00">+ GameModel (GameScreen screen, GameModelInfo info)</text>
<text text-anchor="start" x="11" y="-159.8" font-family="Arial" font-size="8.00">+ Draw (GameTime time) virtual</text>
<text text-anchor="start" x="11" y="-149.8" font-family="Arial" font-size="8.00">+ Center () : Vector3</text>
<text text-anchor="start" x="11" y="-139.8" font-family="Arial" font-size="8.00">+ Intersects (Ray ray) : GameObjectDistance virtual</text>
<text text-anchor="start" x="11" y="-129.8" font-family="Arial" font-size="8.00">+ Update (GameTime time) virtual</text>
</g>
<!-- Box_GameModel&#45;&gt;Box_ArrowModel -->
<g id="edge2" class="edge"><title>Box_GameModel&#45;&gt;Box_ArrowModel</title>
<path fill="none" stroke="midnightblue" d="M115,-112.483C115,-102.828 115,-93.6755 115,-85.3735"/>
<polygon fill="none" stroke="midnightblue" points="111.5,-112.712 115,-122.713 118.5,-112.713 111.5,-112.712"/>
</g>
<!-- Box_IGameObject -->
<g id="node3" class="node"><title>Box_IGameObject</title>
<polygon fill="#dafcda" stroke="black" points="25.5,-455 25.5,-549 204.5,-549 204.5,-455 25.5,-455"/>
<text text-anchor="middle" x="115" y="-537.8" font-family="Arial" font-size="8.00">IGameObject</text>
<polyline fill="none" stroke="black" points="25.5,-531 204.5,-531 "/>
<text text-anchor="start" x="33.5" y="-519.8" font-family="Arial" font-size="8.00">+ Info : GameObjectInfo</text>
<text text-anchor="start" x="33.5" y="-509.8" font-family="Arial" font-size="8.00">+ World : World</text>
<polyline fill="none" stroke="black" points="25.5,-503 204.5,-503 "/>
<text text-anchor="start" x="33.5" y="-491.8" font-family="Arial" font-size="8.00">+ Draw (GameTime time)</text>
<text text-anchor="start" x="33.5" y="-481.8" font-family="Arial" font-size="8.00">+ Update (GameTime time)</text>
<text text-anchor="start" x="33.5" y="-471.8" font-family="Arial" font-size="8.00">+ Intersects (Ray ray) : GameObjectDistance</text>
<text text-anchor="start" x="33.5" y="-461.8" font-family="Arial" font-size="8.00">+ Center () : Vector3</text>
</g>
<!-- Box_IGameObject&#45;&gt;Box_GameModel -->
<g id="edge4" class="edge"><title>Box_IGameObject&#45;&gt;Box_GameModel</title>
<path fill="none" stroke="midnightblue" d="M115,-444.563C115,-435.94 115,-426.731 115,-417.221"/>
<polygon fill="none" stroke="midnightblue" points="111.5,-444.772 115,-454.772 118.5,-444.772 111.5,-444.772"/>
</g>
</g>
</svg>
