<?xml version="1.0" encoding="UTF-8" standalone="no"?>
<!DOCTYPE svg PUBLIC "-//W3C//DTD SVG 1.1//EN"
 "http://www.w3.org/Graphics/SVG/1.1/DTD/svg11.dtd">
<!-- Generated by graphviz version 2.26.3 (20100126.1600)
 -->
<!-- Title: MenuItem Pages: 1 -->
<svg width="511pt" height="868pt"
 viewBox="0.00 0.00 511.00 868.00" xmlns="http://www.w3.org/2000/svg" xmlns:xlink="http://www.w3.org/1999/xlink">
<g id="graph1" class="graph" transform="scale(1 1) rotate(0) translate(4 864)">
<title>MenuItem</title>
<polygon fill="white" stroke="white" points="-4,5 -4,-864 508,-864 508,5 -4,5"/>
<!-- Box_Widget -->
<g id="node1" class="node"><title>Box_Widget</title>
<polygon fill="#fcfcda" stroke="black" points="147,-497 147,-581 413,-581 413,-497 147,-497"/>
<text text-anchor="middle" x="280" y="-569.8" font-family="Helvetica,sans-Serif" font-size="8.00">Widget</text>
<polyline fill="none" stroke="black" points="147,-561 413,-561 "/>
<text text-anchor="start" x="155" y="-549.8" font-family="Helvetica,sans-Serif" font-size="8.00">+ Info : WidgetInfo</text>
<text text-anchor="start" x="155" y="-537.8" font-family="Helvetica,sans-Serif" font-size="8.00">+ IsVisible : bool virtual</text>
<polyline fill="none" stroke="black" points="147,-529 413,-529 "/>
<text text-anchor="start" x="155" y="-517.8" font-family="Helvetica,sans-Serif" font-size="8.00">+ Widget (GameState state, WidgetInfo info, DisplayLayer drawOrder)</text>
<text text-anchor="start" x="155" y="-505.8" font-family="Helvetica,sans-Serif" font-size="8.00">+ bounds () : Rectangle</text>
</g>
<!-- Box_Menu -->
<g id="node5" class="node"><title>Box_Menu</title>
<polygon fill="#fcfcda" stroke="black" points="80.5,-183 80.5,-459 479.5,-459 479.5,-183 80.5,-183"/>
<text text-anchor="middle" x="280" y="-447.8" font-family="Helvetica,sans-Serif" font-size="8.00">Menu</text>
<polyline fill="none" stroke="black" points="80.5,-439 479.5,-439 "/>
<text text-anchor="start" x="88.5" y="-427.8" font-family="Helvetica,sans-Serif" font-size="8.00">+ Vector2&gt; RelativeItemSize : Func&lt;int,</text>
<text text-anchor="start" x="88.5" y="-415.8" font-family="Helvetica,sans-Serif" font-size="8.00">+ Vector2&gt; RelativeItemPosition : Func&lt;int,</text>
<text text-anchor="start" x="88.5" y="-403.8" font-family="Helvetica,sans-Serif" font-size="8.00">+ Color&gt; ItemForegroundColor : Func&lt;ItemState,</text>
<text text-anchor="start" x="88.5" y="-391.8" font-family="Helvetica,sans-Serif" font-size="8.00">+ Color&gt; ItemBackgroundColor : Func&lt;ItemState,</text>
<text text-anchor="start" x="88.5" y="-379.8" font-family="Helvetica,sans-Serif" font-size="8.00">+ ItemAlignX : HAlign?</text>
<text text-anchor="start" x="88.5" y="-367.8" font-family="Helvetica,sans-Serif" font-size="8.00">+ ItemAlignY : VAlign?</text>
<text text-anchor="start" x="88.5" y="-355.8" font-family="Helvetica,sans-Serif" font-size="8.00"># Items : List&lt;MenuItem&gt;</text>
<text text-anchor="start" x="88.5" y="-343.8" font-family="Helvetica,sans-Serif" font-size="8.00">&#45; ItemDisplayLayer : DisplayLayer</text>
<text text-anchor="start" x="88.5" y="-331.8" font-family="Helvetica,sans-Serif" font-size="8.00">+ this [int i] : MenuItem</text>
<text text-anchor="start" x="88.5" y="-319.8" font-family="Helvetica,sans-Serif" font-size="8.00">+ Count : int</text>
<text text-anchor="start" x="88.5" y="-307.8" font-family="Helvetica,sans-Serif" font-size="8.00">&#45; isVisible : bool</text>
<text text-anchor="start" x="88.5" y="-295.8" font-family="Helvetica,sans-Serif" font-size="8.00">+ IsVisible : bool override</text>
<polyline fill="none" stroke="black" points="80.5,-287 479.5,-287 "/>
<text text-anchor="start" x="88.5" y="-275.8" font-family="Helvetica,sans-Serif" font-size="8.00">+ Menu (GameState state, WidgetInfo info, DisplayLayer drawOrder)</text>
<text text-anchor="start" x="88.5" y="-263.8" font-family="Helvetica,sans-Serif" font-size="8.00">&#45; assignMenuItemInfo (ref MenuItemInfo info, int num, MenuItem item)</text>
<text text-anchor="start" x="88.5" y="-251.8" font-family="Helvetica,sans-Serif" font-size="8.00">+ AddButton (MenuItemInfo info) : MenuButton virtual</text>
<text text-anchor="start" x="88.5" y="-239.8" font-family="Helvetica,sans-Serif" font-size="8.00">+ AddDropDown (MenuItemInfo info, DropDownMenuItem[] items, DropDownMenuItem defaultItem) virtual</text>
<text text-anchor="start" x="88.5" y="-227.8" font-family="Helvetica,sans-Serif" font-size="8.00">+ AddDropDown (MenuItemInfo info, DistinctOptionInfo option) virtual</text>
<text text-anchor="start" x="88.5" y="-215.8" font-family="Helvetica,sans-Serif" font-size="8.00">+ Clear ()</text>
<text text-anchor="start" x="88.5" y="-203.8" font-family="Helvetica,sans-Serif" font-size="8.00">+ SubComponents (GameTime gameTime) : IEnumerable&lt;IGameStateComponent&gt; override</text>
<text text-anchor="start" x="88.5" y="-191.8" font-family="Helvetica,sans-Serif" font-size="8.00">+ CollapseMenus (MenuItem menu)</text>
</g>
<!-- Box_Widget&#45;&gt;Box_Menu -->
<g id="edge12" class="edge"><title>Box_Widget&#45;&gt;Box_Menu</title>
<path fill="none" stroke="midnightblue" d="M280,-486.835C280,-478.245 280,-469.001 280,-459.43"/>
<polygon fill="none" stroke="midnightblue" points="276.5,-486.967 280,-496.967 283.5,-486.967 276.5,-486.967"/>
</g>
<!-- Box_DrawableGameStateComponent -->
<g id="node2" class="node"><title>Box_DrawableGameStateComponent</title>
<polygon fill="#fcfcda" stroke="black" points="109.5,-619 109.5,-703 450.5,-703 450.5,-619 109.5,-619"/>
<text text-anchor="middle" x="280" y="-691.8" font-family="Helvetica,sans-Serif" font-size="8.00">DrawableGameStateComponent</text>
<polyline fill="none" stroke="black" points="109.5,-683 450.5,-683 "/>
<text text-anchor="start" x="117.5" y="-671.8" font-family="Helvetica,sans-Serif" font-size="8.00">+ state : GameState</text>
<text text-anchor="start" x="117.5" y="-659.8" font-family="Helvetica,sans-Serif" font-size="8.00">+ Index : int</text>
<polyline fill="none" stroke="black" points="109.5,-651 450.5,-651 "/>
<text text-anchor="start" x="117.5" y="-639.8" font-family="Helvetica,sans-Serif" font-size="8.00">+ DrawableGameStateComponent (GameState state, DisplayLayer drawOrder)</text>
<text text-anchor="start" x="117.5" y="-627.8" font-family="Helvetica,sans-Serif" font-size="8.00">+ SubComponents (GameTime gameTime) : IEnumerable&lt;IGameStateComponent&gt; virtual</text>
</g>
<!-- Box_DrawableGameStateComponent&#45;&gt;Box_Widget -->
<g id="edge2" class="edge"><title>Box_DrawableGameStateComponent&#45;&gt;Box_Widget</title>
<path fill="none" stroke="midnightblue" d="M280,-608.537C280,-599.423 280,-590.05 280,-581.252"/>
<polygon fill="none" stroke="midnightblue" points="276.5,-608.673 280,-618.673 283.5,-608.673 276.5,-608.673"/>
</g>
<!-- Box_IGameStateComponent -->
<g id="node3" class="node"><title>Box_IGameStateComponent</title>
<polygon fill="#dafcda" stroke="black" points="0,-741 0,-801 318,-801 318,-741 0,-741"/>
<text text-anchor="middle" x="159" y="-789.8" font-family="Helvetica,sans-Serif" font-size="8.00">IGameStateComponent</text>
<polyline fill="none" stroke="black" points="0,-781 318,-781 "/>
<text text-anchor="start" x="8" y="-769.8" font-family="Helvetica,sans-Serif" font-size="8.00">+ Index : int</text>
<polyline fill="none" stroke="black" points="0,-761 318,-761 "/>
<text text-anchor="start" x="8" y="-749.8" font-family="Helvetica,sans-Serif" font-size="8.00">+ SubComponents (GameTime gameTime) : IEnumerable&lt;IGameStateComponent&gt;</text>
</g>
<!-- Box_IGameStateComponent&#45;&gt;Box_DrawableGameStateComponent -->
<g id="edge6" class="edge"><title>Box_IGameStateComponent&#45;&gt;Box_DrawableGameStateComponent</title>
<path fill="none" stroke="midnightblue" d="M199.738,-733.965C210.538,-724.147 222.282,-713.47 233.37,-703.391"/>
<polygon fill="none" stroke="midnightblue" points="197.109,-731.625 192.064,-740.942 201.818,-736.805 197.109,-731.625"/>
</g>
<!-- Box_VerticalMenu -->
<g id="node4" class="node"><title>Box_VerticalMenu</title>
<polygon fill="#fcfcda" stroke="black" points="57,-1 57,-145 503,-145 503,-1 57,-1"/>
<text text-anchor="middle" x="280" y="-133.8" font-family="Helvetica,sans-Serif" font-size="8.00">VerticalMenu</text>
<polyline fill="none" stroke="black" points="57,-125 503,-125 "/>
<text text-anchor="start" x="65" y="-113.8" font-family="Helvetica,sans-Serif" font-size="8.00">+ Border : Border</text>
<text text-anchor="start" x="65" y="-101.8" font-family="Helvetica,sans-Serif" font-size="8.00"># spriteBatch : SpriteBatch</text>
<polyline fill="none" stroke="black" points="57,-93 503,-93 "/>
<text text-anchor="start" x="65" y="-81.8" font-family="Helvetica,sans-Serif" font-size="8.00">+ VerticalMenu (GameState state, WidgetInfo info, DisplayLayer drawOrder)</text>
<text text-anchor="start" x="65" y="-69.8" font-family="Helvetica,sans-Serif" font-size="8.00">+ AddButton (MenuItemInfo info) : MenuButton override</text>
<text text-anchor="start" x="65" y="-57.8" font-family="Helvetica,sans-Serif" font-size="8.00">+ AddDropDown (MenuItemInfo info, DropDownMenuItem[] items, DropDownMenuItem defaultItem) override</text>
<text text-anchor="start" x="65" y="-45.8" font-family="Helvetica,sans-Serif" font-size="8.00">+ AddDropDown (MenuItemInfo info, DistinctOptionInfo option) override</text>
<text text-anchor="start" x="65" y="-33.8" font-family="Helvetica,sans-Serif" font-size="8.00">+ Align (Viewport viewport, float scale, Vector2? givenPosition = null, Vector2? givenItemSize = null, float padding = 0.15f)</text>
<text text-anchor="start" x="65" y="-21.8" font-family="Helvetica,sans-Serif" font-size="8.00">+ Align (Viewport viewport, float scale, int posX, int posY, int? sizeX = null, int? sizeY = null, float padding = 0.15f)</text>
<text text-anchor="start" x="65" y="-9.8" font-family="Helvetica,sans-Serif" font-size="8.00">+ Draw (GameTime gameTime) override</text>
</g>
<!-- Box_Menu&#45;&gt;Box_VerticalMenu -->
<g id="edge10" class="edge"><title>Box_Menu&#45;&gt;Box_VerticalMenu</title>
<path fill="none" stroke="midnightblue" d="M280,-172.847C280,-163.298 280,-153.948 280,-145.036"/>
<polygon fill="none" stroke="midnightblue" points="276.5,-172.859 280,-182.859 283.5,-172.859 276.5,-172.859"/>
</g>
<!-- Box_XnaDrawableGameComponent -->
<g id="node6" class="node"><title>Box_XnaDrawableGameComponent</title>
<polygon fill="#ffffff" stroke="black" points="335.5,-761 335.5,-781 466.5,-781 466.5,-761 335.5,-761"/>
<text text-anchor="middle" x="401" y="-769.8" font-family="Helvetica,sans-Serif" font-size="8.00">Xna.DrawableGameComponent</text>
</g>
<!-- Box_XnaDrawableGameComponent&#45;&gt;Box_DrawableGameStateComponent -->
<g id="edge4" class="edge"><title>Box_XnaDrawableGameComponent&#45;&gt;Box_DrawableGameStateComponent</title>
<path fill="none" stroke="midnightblue" d="M382.298,-753.998C367.412,-740.466 345.923,-720.93 326.479,-703.254"/>
<polygon fill="none" stroke="midnightblue" points="380.08,-756.712 389.833,-760.849 384.788,-751.532 380.08,-756.712"/>
</g>
<!-- Box_XnaIGameComponent -->
<g id="node7" class="node"><title>Box_XnaIGameComponent</title>
<polygon fill="#ffffff" stroke="black" points="109.5,-839 109.5,-859 208.5,-859 208.5,-839 109.5,-839"/>
<text text-anchor="middle" x="159" y="-847.8" font-family="Helvetica,sans-Serif" font-size="8.00">Xna.IGameComponent</text>
</g>
<!-- Box_XnaIGameComponent&#45;&gt;Box_IGameStateComponent -->
<g id="edge8" class="edge"><title>Box_XnaIGameComponent&#45;&gt;Box_IGameStateComponent</title>
<path fill="none" stroke="midnightblue" d="M159,-828.777C159,-820.329 159,-810.337 159,-801.059"/>
<polygon fill="none" stroke="midnightblue" points="155.5,-828.803 159,-838.803 162.5,-828.803 155.5,-828.803"/>
</g>
</g>
</svg>
