<?xml version="1.0" encoding="UTF-8" standalone="no"?>
<!DOCTYPE svg PUBLIC "-//W3C//DTD SVG 1.1//EN"
 "http://www.w3.org/Graphics/SVG/1.1/DTD/svg11.dtd">
<!-- Generated by graphviz version 2.26.3 (20100126.1600)
 -->
<!-- Title: MenuItem Pages: 1 -->
<svg width="258pt" height="588pt"
 viewBox="0.00 0.00 258.00 588.00" xmlns="http://www.w3.org/2000/svg" xmlns:xlink="http://www.w3.org/1999/xlink">
<g id="graph1" class="graph" transform="scale(1 1) rotate(0) translate(4 584)">
<title>MenuItem</title>
<polygon fill="white" stroke="white" points="-4,5 -4,-584 255,-584 255,5 -4,5"/>
<!-- Box_PipeModelInfo -->
<g id="node1" class="node"><title>Box_PipeModelInfo</title>
<polygon fill="#fcfcda" stroke="black" points="7.5,-1 7.5,-145 242.5,-145 242.5,-1 7.5,-1"/>
<text text-anchor="middle" x="125" y="-133.8" font-family="Helvetica,sans-Serif" font-size="8.00">PipeModelInfo</text>
<polyline fill="none" stroke="black" points="7.5,-125 242.5,-125 "/>
<text text-anchor="start" x="15.5" y="-113.8" font-family="Helvetica,sans-Serif" font-size="8.00">Attributes:</text>
<text text-anchor="start" x="15.5" y="-101.8" font-family="Helvetica,sans-Serif" font-size="8.00">+ Edge : Edge</text>
<text text-anchor="start" x="15.5" y="-89.8" font-family="Helvetica,sans-Serif" font-size="8.00">+ Direction : Vector3</text>
<text text-anchor="start" x="15.5" y="-77.8" font-family="Helvetica,sans-Serif" font-size="8.00">+ PositionFrom : Vector3</text>
<text text-anchor="start" x="15.5" y="-65.8" font-family="Helvetica,sans-Serif" font-size="8.00">+ PositionTo : Vector3</text>
<text text-anchor="start" x="15.5" y="-53.8" font-family="Helvetica,sans-Serif" font-size="8.00">+ Edges : EdgeList</text>
<text text-anchor="start" x="15.5" y="-41.8" font-family="Helvetica,sans-Serif" font-size="8.00">Methods:</text>
<polyline fill="none" stroke="black" points="7.5,-33 242.5,-33 "/>
<text text-anchor="start" x="15.5" y="-21.8" font-family="Helvetica,sans-Serif" font-size="8.00">+ PipeModelInfo (EdgeList edges, Edge edge, Vector3 offset)</text>
<text text-anchor="start" x="15.5" y="-9.8" font-family="Helvetica,sans-Serif" font-size="8.00">+ Equals (GameObjectInfo other) : bool</text>
</g>
<!-- Box_GameModelInfo -->
<g id="node2" class="node"><title>Box_GameModelInfo</title>
<polygon fill="#fcfcda" stroke="black" points="47,-183 47,-303 203,-303 203,-183 47,-183"/>
<text text-anchor="middle" x="125" y="-291.8" font-family="Helvetica,sans-Serif" font-size="8.00">GameModelInfo</text>
<polyline fill="none" stroke="black" points="47,-283 203,-283 "/>
<text text-anchor="start" x="55" y="-271.8" font-family="Helvetica,sans-Serif" font-size="8.00">Attributes:</text>
<text text-anchor="start" x="55" y="-259.8" font-family="Helvetica,sans-Serif" font-size="8.00">+ Rotation : Angles3</text>
<text text-anchor="start" x="55" y="-247.8" font-family="Helvetica,sans-Serif" font-size="8.00">+ Scale : float</text>
<text text-anchor="start" x="55" y="-235.8" font-family="Helvetica,sans-Serif" font-size="8.00">+ Modelname : string</text>
<text text-anchor="start" x="55" y="-223.8" font-family="Helvetica,sans-Serif" font-size="8.00">Methods:</text>
<polyline fill="none" stroke="black" points="47,-215 203,-215 "/>
<text text-anchor="start" x="55" y="-203.8" font-family="Helvetica,sans-Serif" font-size="8.00">+ GameModelInfo (string modelname)</text>
<text text-anchor="start" x="55" y="-191.8" font-family="Helvetica,sans-Serif" font-size="8.00">+ Equals (GameObjectInfo other) : bool</text>
</g>
<!-- Box_GameModelInfo&#45;&gt;Box_PipeModelInfo -->
<g id="edge2" class="edge"><title>Box_GameModelInfo&#45;&gt;Box_PipeModelInfo</title>
<path fill="none" stroke="midnightblue" d="M125,-172.502C125,-163.466 125,-154.205 125,-145.143"/>
<polygon fill="none" stroke="midnightblue" points="121.5,-172.586 125,-182.586 128.5,-172.586 121.5,-172.586"/>
</g>
<!-- Box_GameObjectInfo -->
<g id="node3" class="node"><title>Box_GameObjectInfo</title>
<polygon fill="#fcfcda" stroke="black" points="-0.5,-341 -0.5,-521 250.5,-521 250.5,-341 -0.5,-341"/>
<text text-anchor="middle" x="125" y="-509.8" font-family="Helvetica,sans-Serif" font-size="8.00">GameObjectInfo</text>
<polyline fill="none" stroke="black" points="-0.5,-501 250.5,-501 "/>
<text text-anchor="start" x="7.5" y="-489.8" font-family="Helvetica,sans-Serif" font-size="8.00">Attributes:</text>
<text text-anchor="start" x="7.5" y="-477.8" font-family="Helvetica,sans-Serif" font-size="8.00">+ IsMovable : bool</text>
<text text-anchor="start" x="7.5" y="-465.8" font-family="Helvetica,sans-Serif" font-size="8.00">+ IsSelectable : bool</text>
<text text-anchor="start" x="7.5" y="-453.8" font-family="Helvetica,sans-Serif" font-size="8.00">+ IsVisible : bool</text>
<text text-anchor="start" x="7.5" y="-441.8" font-family="Helvetica,sans-Serif" font-size="8.00">+ Position : Vector3</text>
<text text-anchor="start" x="7.5" y="-429.8" font-family="Helvetica,sans-Serif" font-size="8.00">Methods:</text>
<polyline fill="none" stroke="black" points="-0.5,-421 250.5,-421 "/>
<text text-anchor="start" x="7.5" y="-409.8" font-family="Helvetica,sans-Serif" font-size="8.00">+ GameObjectInfo ()</text>
<text text-anchor="start" x="7.5" y="-397.8" font-family="Helvetica,sans-Serif" font-size="8.00">+ operator (GameObjectInfo o1, GameObjectInfo o2) : bool static</text>
<text text-anchor="start" x="7.5" y="-385.8" font-family="Helvetica,sans-Serif" font-size="8.00">+ Equals (Object obj) : bool</text>
<text text-anchor="start" x="7.5" y="-373.8" font-family="Helvetica,sans-Serif" font-size="8.00">+ GetHashCode () : int</text>
<text text-anchor="start" x="7.5" y="-361.8" font-family="Helvetica,sans-Serif" font-size="8.00">+ operator ! (GameObjectInfo o1, GameObjectInfo o2) : bool static</text>
<text text-anchor="start" x="7.5" y="-349.8" font-family="Helvetica,sans-Serif" font-size="8.00">+ Equals (GameObjectInfo other) : bool virtual</text>
</g>
<!-- Box_GameObjectInfo&#45;&gt;Box_GameModelInfo -->
<g id="edge4" class="edge"><title>Box_GameObjectInfo&#45;&gt;Box_GameModelInfo</title>
<path fill="none" stroke="midnightblue" d="M118.264,-330.639C118.304,-321.24 118.436,-311.925 118.657,-303.074"/>
<polygon fill="none" stroke="midnightblue" points="114.764,-330.851 118.255,-340.855 121.764,-330.858 114.764,-330.851"/>
</g>
<!-- Box_GameObjectInfo&#45;&gt;Box_GameModelInfo -->
<g id="edge10" class="edge"><title>Box_GameObjectInfo&#45;&gt;Box_GameModelInfo</title>
<path fill="none" stroke="midnightblue" d="M131.736,-330.639C131.696,-321.24 131.564,-311.925 131.343,-303.074"/>
<polygon fill="none" stroke="midnightblue" points="128.236,-330.858 131.745,-340.855 135.236,-330.851 128.236,-330.858"/>
</g>
<!-- Box_IEquatable -->
<g id="node4" class="node"><title>Box_IEquatable</title>
<polygon fill="#ffffff" stroke="black" points="64,-559 64,-579 186,-579 186,-559 64,-559"/>
<text text-anchor="middle" x="125" y="-567.8" font-family="Helvetica,sans-Serif" font-size="8.00">IEquatable&lt;GameObjectInfo&gt;</text>
</g>
<!-- Box_IEquatable&#45;&gt;Box_GameObjectInfo -->
<g id="edge6" class="edge"><title>Box_IEquatable&#45;&gt;Box_GameObjectInfo</title>
<path fill="none" stroke="midnightblue" d="M110.265,-549.11C108.061,-541.257 106.518,-531.642 105.635,-521.321"/>
<polygon fill="none" stroke="midnightblue" points="107.008,-550.397 113.68,-558.628 113.597,-548.033 107.008,-550.397"/>
</g>
<!-- Box_IEquatable&#45;&gt;Box_GameObjectInfo -->
<g id="edge8" class="edge"><title>Box_IEquatable&#45;&gt;Box_GameObjectInfo</title>
<path fill="none" stroke="midnightblue" d="M120.039,-548.572C119.33,-540.819 118.833,-531.407 118.545,-521.321"/>
<polygon fill="none" stroke="midnightblue" points="116.577,-549.107 121.227,-558.628 123.529,-548.286 116.577,-549.107"/>
</g>
<!-- Box_IEquatable&#45;&gt;Box_GameObjectInfo -->
<g id="edge12" class="edge"><title>Box_IEquatable&#45;&gt;Box_GameObjectInfo</title>
<path fill="none" stroke="midnightblue" d="M129.961,-548.572C130.67,-540.819 131.167,-531.407 131.455,-521.321"/>
<polygon fill="none" stroke="midnightblue" points="126.471,-548.286 128.773,-558.628 133.423,-549.107 126.471,-548.286"/>
</g>
<!-- Box_IEquatable&#45;&gt;Box_GameObjectInfo -->
<g id="edge14" class="edge"><title>Box_IEquatable&#45;&gt;Box_GameObjectInfo</title>
<path fill="none" stroke="midnightblue" d="M139.735,-549.11C141.939,-541.257 143.482,-531.642 144.365,-521.321"/>
<polygon fill="none" stroke="midnightblue" points="136.403,-548.033 136.32,-558.628 142.992,-550.397 136.403,-548.033"/>
</g>
</g>
</svg>
