<?xml version="1.0" encoding="UTF-8" standalone="no"?>
<!DOCTYPE svg PUBLIC "-//W3C//DTD SVG 1.1//EN"
 "http://www.w3.org/Graphics/SVG/1.1/DTD/svg11.dtd">
<!-- Generated by graphviz version 2.26.3 (20100126.1600)
 -->
<!-- Title: MenuItem Pages: 1 -->
<svg width="4217pt" height="1975pt"
 viewBox="0.00 0.00 1012.00 474.00" xmlns="http://www.w3.org/2000/svg" xmlns:xlink="http://www.w3.org/1999/xlink">
<g id="graph1" class="graph" transform="scale(4.16667 4.16667) rotate(0) translate(4 470)">
<title>MenuItem</title>
<polygon fill="white" stroke="white" points="-4,5 -4,-470 1009,-470 1009,5 -4,5"/>
<!-- Box_GameModelInfo -->
<g id="node1" class="node"><title>Box_GameModelInfo</title>
<polygon fill="#fcfcda" stroke="black" points="402,-153 402,-237 558,-237 558,-153 402,-153"/>
<text text-anchor="middle" x="480" y="-225.8" font-family="Arial" font-size="8.00">GameModelInfo</text>
<polyline fill="none" stroke="black" points="402,-219 558,-219 "/>
<text text-anchor="start" x="410" y="-207.8" font-family="Arial" font-size="8.00">+ Rotation : Angles3</text>
<text text-anchor="start" x="410" y="-197.8" font-family="Arial" font-size="8.00">+ Scale : Vector3</text>
<text text-anchor="start" x="410" y="-187.8" font-family="Arial" font-size="8.00">+ Modelname : string</text>
<polyline fill="none" stroke="black" points="402,-181 558,-181 "/>
<text text-anchor="start" x="410" y="-169.8" font-family="Arial" font-size="8.00">+ GameModelInfo (string modelname)</text>
<text text-anchor="start" x="410" y="-159.8" font-family="Arial" font-size="8.00">+ Equals (GameObjectInfo other) : bool</text>
</g>
<!-- Box_ArrowModelInfo -->
<g id="node3" class="node"><title>Box_ArrowModelInfo</title>
<polygon fill="#fcfcda" stroke="black" points="0,-16 0,-100 274,-100 274,-16 0,-16"/>
<text text-anchor="middle" x="137" y="-88.8" font-family="Arial" font-size="8.00">ArrowModelInfo</text>
<polyline fill="none" stroke="black" points="0,-82 274,-82 "/>
<text text-anchor="start" x="8" y="-70.8" font-family="Arial" font-size="8.00">+ Diameter : float</text>
<text text-anchor="start" x="8" y="-60.8" font-family="Arial" font-size="8.00">+ Length : float</text>
<text text-anchor="start" x="8" y="-50.8" font-family="Arial" font-size="8.00">+ Direction : Vector3</text>
<polyline fill="none" stroke="black" points="0,-44 274,-44 "/>
<text text-anchor="start" x="8" y="-32.8" font-family="Arial" font-size="8.00">+ ArrowModelInfo (Vector3 position, Vector3 direction, Vector3 offset)</text>
<text text-anchor="start" x="8" y="-22.8" font-family="Arial" font-size="8.00">+ Equals (GameObjectInfo other) : bool</text>
</g>
<!-- Box_GameModelInfo&#45;&gt;Box_ArrowModelInfo -->
<g id="edge6" class="edge"><title>Box_GameModelInfo&#45;&gt;Box_ArrowModelInfo</title>
<path fill="none" stroke="midnightblue" d="M392.439,-160.026C346.682,-141.751 290.344,-119.248 242.23,-100.031"/>
<polygon fill="none" stroke="midnightblue" points="391.154,-163.282 401.739,-163.741 393.75,-156.782 391.154,-163.282"/>
</g>
<!-- Box_NodeModelInfo -->
<g id="node4" class="node"><title>Box_NodeModelInfo</title>
<polygon fill="#fcfcda" stroke="black" points="291.5,-11 291.5,-105 668.5,-105 668.5,-11 291.5,-11"/>
<text text-anchor="middle" x="480" y="-93.8" font-family="Arial" font-size="8.00">NodeModelInfo</text>
<polyline fill="none" stroke="black" points="291.5,-87 668.5,-87 "/>
<text text-anchor="start" x="299.5" y="-75.8" font-family="Arial" font-size="8.00">+ EdgeA : Edge</text>
<text text-anchor="start" x="299.5" y="-65.8" font-family="Arial" font-size="8.00">+ EdgeB : Edge</text>
<text text-anchor="start" x="299.5" y="-55.8" font-family="Arial" font-size="8.00">+ NodeMap : NodeMap</text>
<text text-anchor="start" x="299.5" y="-45.8" font-family="Arial" font-size="8.00">+ EdgeList : EdgeList</text>
<polyline fill="none" stroke="black" points="291.5,-39 668.5,-39 "/>
<text text-anchor="start" x="299.5" y="-27.8" font-family="Arial" font-size="8.00">+ NodeModelInfo (EdgeList edgeList, NodeMap nodeMap, Edge edgeA, Edge edgeB, Vector3 offset)</text>
<text text-anchor="start" x="299.5" y="-17.8" font-family="Arial" font-size="8.00">+ Equals (GameObjectInfo other) : bool</text>
</g>
<!-- Box_GameModelInfo&#45;&gt;Box_NodeModelInfo -->
<g id="edge8" class="edge"><title>Box_GameModelInfo&#45;&gt;Box_NodeModelInfo</title>
<path fill="none" stroke="midnightblue" d="M480,-142.621C480,-130.278 480,-117.194 480,-105.1"/>
<polygon fill="none" stroke="midnightblue" points="476.5,-142.778 480,-152.778 483.5,-142.778 476.5,-142.778"/>
</g>
<!-- Box_PipeModelInfo -->
<g id="node5" class="node"><title>Box_PipeModelInfo</title>
<polygon fill="#fcfcda" stroke="black" points="685.5,-1 685.5,-115 1004.5,-115 1004.5,-1 685.5,-1"/>
<text text-anchor="middle" x="845" y="-103.8" font-family="Arial" font-size="8.00">PipeModelInfo</text>
<polyline fill="none" stroke="black" points="685.5,-97 1004.5,-97 "/>
<text text-anchor="start" x="693.5" y="-85.8" font-family="Arial" font-size="8.00">+ Edge : Edge</text>
<text text-anchor="start" x="693.5" y="-75.8" font-family="Arial" font-size="8.00">+ NodeMap : NodeMap</text>
<text text-anchor="start" x="693.5" y="-65.8" font-family="Arial" font-size="8.00">+ Direction : Vector3</text>
<text text-anchor="start" x="693.5" y="-55.8" font-family="Arial" font-size="8.00">+ PositionFrom : Vector3</text>
<text text-anchor="start" x="693.5" y="-45.8" font-family="Arial" font-size="8.00">+ PositionTo : Vector3</text>
<text text-anchor="start" x="693.5" y="-35.8" font-family="Arial" font-size="8.00">+ EdgeList : EdgeList</text>
<polyline fill="none" stroke="black" points="685.5,-29 1004.5,-29 "/>
<text text-anchor="start" x="693.5" y="-17.8" font-family="Arial" font-size="8.00">+ PipeModelInfo (EdgeList edgeList, NodeMap nodeMap, Edge edge, Vector3 offset)</text>
<text text-anchor="start" x="693.5" y="-7.8" font-family="Arial" font-size="8.00">+ Equals (GameObjectInfo other) : bool</text>
</g>
<!-- Box_GameModelInfo&#45;&gt;Box_PipeModelInfo -->
<g id="edge10" class="edge"><title>Box_GameModelInfo&#45;&gt;Box_PipeModelInfo</title>
<path fill="none" stroke="midnightblue" d="M567.678,-162.091C605.211,-148.003 650.152,-131.135 692.818,-115.12"/>
<polygon fill="none" stroke="midnightblue" points="566.434,-158.819 558.302,-165.61 568.894,-165.373 566.434,-158.819"/>
</g>
<!-- Box_GameObjectInfo -->
<g id="node2" class="node"><title>Box_GameObjectInfo</title>
<polygon fill="#fcfcda" stroke="black" points="354,-275 354,-409 606,-409 606,-275 354,-275"/>
<text text-anchor="middle" x="480" y="-397.8" font-family="Arial" font-size="8.00">GameObjectInfo</text>
<polyline fill="none" stroke="black" points="354,-391 606,-391 "/>
<text text-anchor="start" x="362" y="-379.8" font-family="Arial" font-size="8.00">+ IsMovable : bool</text>
<text text-anchor="start" x="362" y="-369.8" font-family="Arial" font-size="8.00">+ IsSelectable : bool</text>
<text text-anchor="start" x="362" y="-359.8" font-family="Arial" font-size="8.00">+ IsVisible : bool</text>
<text text-anchor="start" x="362" y="-349.8" font-family="Arial" font-size="8.00">+ Position : Vector3</text>
<polyline fill="none" stroke="black" points="354,-343 606,-343 "/>
<text text-anchor="start" x="362" y="-331.8" font-family="Arial" font-size="8.00">+ GameObjectInfo ()</text>
<text text-anchor="start" x="362" y="-321.8" font-family="Arial" font-size="8.00">+ operator (GameObjectInfo o1, GameObjectInfo o2) : bool static</text>
<text text-anchor="start" x="362" y="-311.8" font-family="Arial" font-size="8.00">+ Equals (Object obj) : bool</text>
<text text-anchor="start" x="362" y="-301.8" font-family="Arial" font-size="8.00">+ GetHashCode () : int</text>
<text text-anchor="start" x="362" y="-291.8" font-family="Arial" font-size="8.00">+ operator ! (GameObjectInfo o1, GameObjectInfo o2) : bool static</text>
<text text-anchor="start" x="362" y="-281.8" font-family="Arial" font-size="8.00">+ Equals (GameObjectInfo other) : bool virtual</text>
</g>
<!-- Box_GameObjectInfo&#45;&gt;Box_GameModelInfo -->
<g id="edge2" class="edge"><title>Box_GameObjectInfo&#45;&gt;Box_GameModelInfo</title>
<path fill="none" stroke="midnightblue" d="M480,-264.668C480,-255.194 480,-245.804 480,-237.132"/>
<polygon fill="none" stroke="midnightblue" points="476.5,-264.953 480,-274.953 483.5,-264.953 476.5,-264.953"/>
</g>
<!-- Box_IEquatable -->
<g id="node6" class="node"><title>Box_IEquatable</title>
<polygon fill="#ffffff" stroke="black" points="420,-447 420,-465 540,-465 540,-447 420,-447"/>
<text text-anchor="middle" x="480" y="-453.8" font-family="Arial" font-size="8.00">IEquatable&lt;GameObjectInfo&gt;</text>
</g>
<!-- Box_IEquatable&#45;&gt;Box_GameObjectInfo -->
<g id="edge4" class="edge"><title>Box_IEquatable&#45;&gt;Box_GameObjectInfo</title>
<path fill="none" stroke="midnightblue" d="M480,-436.57C480,-428.742 480,-419.21 480,-409.246"/>
<polygon fill="none" stroke="midnightblue" points="476.5,-436.671 480,-446.671 483.5,-436.671 476.5,-436.671"/>
</g>
</g>
</svg>
