<?xml version="1.0" encoding="UTF-8" standalone="no"?>
<!DOCTYPE svg PUBLIC "-//W3C//DTD SVG 1.1//EN"
 "http://www.w3.org/Graphics/SVG/1.1/DTD/svg11.dtd">
<!-- Generated by graphviz version 2.26.3 (20100126.1600)
 -->
<!-- Title: MenuItem Pages: 1 -->
<svg width="594pt" height="648pt"
 viewBox="0.00 0.00 594.00 648.00" xmlns="http://www.w3.org/2000/svg" xmlns:xlink="http://www.w3.org/1999/xlink">
<g id="graph1" class="graph" transform="scale(1 1) rotate(0) translate(4 644)">
<title>MenuItem</title>
<polygon fill="white" stroke="white" points="-4,5 -4,-644 591,-644 591,5 -4,5"/>
<!-- Box_World -->
<g id="node1" class="node"><title>Box_World</title>
<polygon fill="#fcfcda" stroke="black" points="244,-1 244,-301 562,-301 562,-1 244,-1"/>
<text text-anchor="middle" x="403" y="-289.8" font-family="Helvetica,sans-Serif" font-size="8.00">World</text>
<polyline fill="none" stroke="black" points="244,-281 562,-281 "/>
<text text-anchor="start" x="252" y="-269.8" font-family="Helvetica,sans-Serif" font-size="8.00">Attributes:</text>
<text text-anchor="start" x="252" y="-257.8" font-family="Helvetica,sans-Serif" font-size="8.00">&#45; knotRenderEffect : RenderEffect</text>
<text text-anchor="start" x="252" y="-245.8" font-family="Helvetica,sans-Serif" font-size="8.00">&#45; _redraw : bool</text>
<text text-anchor="start" x="252" y="-233.8" font-family="Helvetica,sans-Serif" font-size="8.00">+ SelectedObject : IGameObject</text>
<text text-anchor="start" x="252" y="-221.8" font-family="Helvetica,sans-Serif" font-size="8.00">+ Objects : List&lt;IGameObject&gt;</text>
<text text-anchor="start" x="252" y="-209.8" font-family="Helvetica,sans-Serif" font-size="8.00">+ Redraw : bool</text>
<text text-anchor="start" x="252" y="-197.8" font-family="Helvetica,sans-Serif" font-size="8.00">&#45; _selectedObject : IGameObject</text>
<text text-anchor="start" x="252" y="-185.8" font-family="Helvetica,sans-Serif" font-size="8.00">&#45; knotRenderEffects : List&lt;RenderEffect&gt;</text>
<text text-anchor="start" x="252" y="-173.8" font-family="Helvetica,sans-Serif" font-size="8.00">&#45; floor : TexturedRectangle</text>
<text text-anchor="start" x="252" y="-161.8" font-family="Helvetica,sans-Serif" font-size="8.00">+ Camera : Camera</text>
<text text-anchor="start" x="252" y="-149.8" font-family="Helvetica,sans-Serif" font-size="8.00">Methods:</text>
<polyline fill="none" stroke="black" points="244,-141 562,-141 "/>
<text text-anchor="start" x="252" y="-129.8" font-family="Helvetica,sans-Serif" font-size="8.00">+ SelectionChanged (o) : Action&lt;IGameObject&gt;</text>
<text text-anchor="start" x="252" y="-117.8" font-family="Helvetica,sans-Serif" font-size="8.00">&#45; IEnumerable.GetEnumerator () : IEnumerator</text>
<text text-anchor="start" x="252" y="-105.8" font-family="Helvetica,sans-Serif" font-size="8.00">+ World (GameState state)</text>
<text text-anchor="start" x="252" y="-93.8" font-family="Helvetica,sans-Serif" font-size="8.00">+ SelectedObjectDistance () : float</text>
<text text-anchor="start" x="252" y="-81.8" font-family="Helvetica,sans-Serif" font-size="8.00">+ SubComponents (GameTime gameTime) : IEnumerable&lt;IGameStateComponent&gt;</text>
<text text-anchor="start" x="252" y="-69.8" font-family="Helvetica,sans-Serif" font-size="8.00">+ Draw (GameTime gameTime)</text>
<text text-anchor="start" x="252" y="-57.8" font-family="Helvetica,sans-Serif" font-size="8.00">+ Update (GameTime gameTime)</text>
<text text-anchor="start" x="252" y="-45.8" font-family="Helvetica,sans-Serif" font-size="8.00">+ Add (IGameObject obj)</text>
<text text-anchor="start" x="252" y="-33.8" font-family="Helvetica,sans-Serif" font-size="8.00">+ GetEnumerator () : IEnumerator&lt;IGameObject&gt;</text>
<text text-anchor="start" x="252" y="-21.8" font-family="Helvetica,sans-Serif" font-size="8.00">+ Initialize ()</text>
<text text-anchor="start" x="252" y="-9.8" font-family="Helvetica,sans-Serif" font-size="8.00">+ SelectObject (IGameObject obj, GameTime gameTime)</text>
</g>
<!-- Box_DrawableGameStateComponent -->
<g id="node2" class="node"><title>Box_DrawableGameStateComponent</title>
<polygon fill="#fcfcda" stroke="black" points="109.5,-339 109.5,-459 450.5,-459 450.5,-339 109.5,-339"/>
<text text-anchor="middle" x="280" y="-447.8" font-family="Helvetica,sans-Serif" font-size="8.00">DrawableGameStateComponent</text>
<polyline fill="none" stroke="black" points="109.5,-439 450.5,-439 "/>
<text text-anchor="start" x="117.5" y="-427.8" font-family="Helvetica,sans-Serif" font-size="8.00">Attributes:</text>
<text text-anchor="start" x="117.5" y="-415.8" font-family="Helvetica,sans-Serif" font-size="8.00">+ Index : DisplayLayer</text>
<text text-anchor="start" x="117.5" y="-403.8" font-family="Helvetica,sans-Serif" font-size="8.00">&#45; _index : DisplayLayer</text>
<text text-anchor="start" x="117.5" y="-391.8" font-family="Helvetica,sans-Serif" font-size="8.00">+ state : GameState</text>
<text text-anchor="start" x="117.5" y="-379.8" font-family="Helvetica,sans-Serif" font-size="8.00">Methods:</text>
<polyline fill="none" stroke="black" points="109.5,-371 450.5,-371 "/>
<text text-anchor="start" x="117.5" y="-359.8" font-family="Helvetica,sans-Serif" font-size="8.00">+ DrawableGameStateComponent (GameState state, DisplayLayer index)</text>
<text text-anchor="start" x="117.5" y="-347.8" font-family="Helvetica,sans-Serif" font-size="8.00">+ SubComponents (GameTime gameTime) : IEnumerable&lt;IGameStateComponent&gt; virtual</text>
</g>
<!-- Box_DrawableGameStateComponent&#45;&gt;Box_World -->
<g id="edge2" class="edge"><title>Box_DrawableGameStateComponent&#45;&gt;Box_World</title>
<path fill="none" stroke="midnightblue" d="M314.241,-329.962C318.795,-320.78 323.599,-311.093 328.519,-301.173"/>
<polygon fill="none" stroke="midnightblue" points="311.083,-328.452 309.775,-338.966 317.354,-331.563 311.083,-328.452"/>
</g>
<!-- Box_IGameStateComponent -->
<g id="node3" class="node"><title>Box_IGameStateComponent</title>
<polygon fill="#dafcda" stroke="black" points="0,-497 0,-581 318,-581 318,-497 0,-497"/>
<text text-anchor="middle" x="159" y="-569.8" font-family="Helvetica,sans-Serif" font-size="8.00">IGameStateComponent</text>
<polyline fill="none" stroke="black" points="0,-561 318,-561 "/>
<text text-anchor="start" x="8" y="-549.8" font-family="Helvetica,sans-Serif" font-size="8.00">Attributes:</text>
<text text-anchor="start" x="8" y="-537.8" font-family="Helvetica,sans-Serif" font-size="8.00">+ Index : DisplayLayer</text>
<text text-anchor="start" x="8" y="-525.8" font-family="Helvetica,sans-Serif" font-size="8.00">Methods:</text>
<polyline fill="none" stroke="black" points="0,-517 318,-517 "/>
<text text-anchor="start" x="8" y="-505.8" font-family="Helvetica,sans-Serif" font-size="8.00">+ SubComponents (GameTime gameTime) : IEnumerable&lt;IGameStateComponent&gt;</text>
</g>
<!-- Box_IGameStateComponent&#45;&gt;Box_DrawableGameStateComponent -->
<g id="edge8" class="edge"><title>Box_IGameStateComponent&#45;&gt;Box_DrawableGameStateComponent</title>
<path fill="none" stroke="midnightblue" d="M201.959,-489.295C210.409,-479.519 219.358,-469.165 228.065,-459.09"/>
<polygon fill="none" stroke="midnightblue" points="199.195,-487.141 195.304,-496.995 204.491,-491.718 199.195,-487.141"/>
</g>
<!-- Box_IEnumerable -->
<g id="node4" class="node"><title>Box_IEnumerable</title>
<polygon fill="#ffffff" stroke="black" points="468,-389 468,-409 586,-409 586,-389 468,-389"/>
<text text-anchor="middle" x="527" y="-397.8" font-family="Helvetica,sans-Serif" font-size="8.00">IEnumerable&lt;IGameObject&gt;</text>
</g>
<!-- Box_IEnumerable&#45;&gt;Box_World -->
<g id="edge4" class="edge"><title>Box_IEnumerable&#45;&gt;Box_World</title>
<path fill="none" stroke="midnightblue" d="M517.421,-379.842C508.347,-361.694 493.799,-332.598 478.076,-301.152"/>
<polygon fill="none" stroke="midnightblue" points="514.383,-381.592 521.985,-388.971 520.644,-378.461 514.383,-381.592"/>
</g>
<!-- Box_XnaDrawableGameComponent -->
<g id="node5" class="node"><title>Box_XnaDrawableGameComponent</title>
<polygon fill="#ffffff" stroke="black" points="335.5,-529 335.5,-549 466.5,-549 466.5,-529 335.5,-529"/>
<text text-anchor="middle" x="401" y="-537.8" font-family="Helvetica,sans-Serif" font-size="8.00">Xna.DrawableGameComponent</text>
</g>
<!-- Box_XnaDrawableGameComponent&#45;&gt;Box_DrawableGameStateComponent -->
<g id="edge6" class="edge"><title>Box_XnaDrawableGameComponent&#45;&gt;Box_DrawableGameStateComponent</title>
<path fill="none" stroke="midnightblue" d="M385.504,-521.071C371.886,-505.314 351.268,-481.459 331.861,-459.004"/>
<polygon fill="none" stroke="midnightblue" points="383.111,-523.654 392.298,-528.932 388.407,-519.077 383.111,-523.654"/>
</g>
<!-- Box_XnaIGameComponent -->
<g id="node6" class="node"><title>Box_XnaIGameComponent</title>
<polygon fill="#ffffff" stroke="black" points="109.5,-619 109.5,-639 208.5,-639 208.5,-619 109.5,-619"/>
<text text-anchor="middle" x="159" y="-627.8" font-family="Helvetica,sans-Serif" font-size="8.00">Xna.IGameComponent</text>
</g>
<!-- Box_XnaIGameComponent&#45;&gt;Box_IGameStateComponent -->
<g id="edge10" class="edge"><title>Box_XnaIGameComponent&#45;&gt;Box_IGameStateComponent</title>
<path fill="none" stroke="midnightblue" d="M159,-608.454C159,-600.393 159,-590.828 159,-581.414"/>
<polygon fill="none" stroke="midnightblue" points="155.5,-608.676 159,-618.676 162.5,-608.676 155.5,-608.676"/>
</g>
</g>
</svg>
