<?xml version="1.0" encoding="UTF-8" standalone="no"?>
<!DOCTYPE svg PUBLIC "-//W3C//DTD SVG 1.1//EN"
 "http://www.w3.org/Graphics/SVG/1.1/DTD/svg11.dtd">
<!-- Generated by graphviz version 2.26.3 (20100126.1600)
 -->
<!-- Title: MenuItem Pages: 1 -->
<svg width="3087pt" height="2483pt"
 viewBox="0.00 0.00 741.00 596.00" xmlns="http://www.w3.org/2000/svg" xmlns:xlink="http://www.w3.org/1999/xlink">
<g id="graph1" class="graph" transform="scale(4.16667 4.16667) rotate(0) translate(4 592)">
<title>MenuItem</title>
<polygon fill="white" stroke="white" points="-4,5 -4,-592 738,-592 738,5 -4,5"/>
<!-- Box_MenuScreenInput -->
<g id="node1" class="node"><title>Box_MenuScreenInput</title>
<polygon fill="#fcfcda" stroke="black" points="348.5,-1 348.5,-55 503.5,-55 503.5,-1 348.5,-1"/>
<text text-anchor="middle" x="426" y="-43.8" font-family="Arial" font-size="8.00">MenuScreenInput</text>
<polyline fill="none" stroke="black" points="348.5,-37 503.5,-37 "/>
<text text-anchor="middle" x="426" y="-25.8" font-family="Arial" font-size="8.00"> </text>
<polyline fill="none" stroke="black" points="348.5,-19 503.5,-19 "/>
<text text-anchor="start" x="356.5" y="-7.8" font-family="Arial" font-size="8.00">+ MenuScreenInput (GameState state)</text>
</g>
<!-- Box_Input -->
<g id="node2" class="node"><title>Box_Input</title>
<polygon fill="#fcfcda" stroke="black" points="282.5,-93 282.5,-327 569.5,-327 569.5,-93 282.5,-93"/>
<text text-anchor="middle" x="426" y="-315.8" font-family="Arial" font-size="8.00">Input</text>
<polyline fill="none" stroke="black" points="282.5,-309 569.5,-309 "/>
<text text-anchor="start" x="290.5" y="-297.8" font-family="Arial" font-size="8.00">&#45; PreviousClickMouseState : MouseState static</text>
<text text-anchor="start" x="290.5" y="-287.8" font-family="Arial" font-size="8.00">&#45; LeftButtonClickTimer : double static</text>
<text text-anchor="start" x="290.5" y="-277.8" font-family="Arial" font-size="8.00">&#45; RightButtonClickTimer : double static</text>
<text text-anchor="start" x="290.5" y="-267.8" font-family="Arial" font-size="8.00">+ GrabMouseMovement : bool</text>
<text text-anchor="start" x="290.5" y="-257.8" font-family="Arial" font-size="8.00">+ LeftButton : ClickState static</text>
<text text-anchor="start" x="290.5" y="-247.8" font-family="Arial" font-size="8.00">+ RightButton : ClickState static</text>
<text text-anchor="start" x="290.5" y="-237.8" font-family="Arial" font-size="8.00">+ PreviousKeyboardState : KeyboardState static</text>
<text text-anchor="start" x="290.5" y="-227.8" font-family="Arial" font-size="8.00">+ MouseState : MouseState static</text>
<text text-anchor="start" x="290.5" y="-217.8" font-family="Arial" font-size="8.00">+ PreviousMouseState : MouseState static</text>
<text text-anchor="start" x="290.5" y="-207.8" font-family="Arial" font-size="8.00"># FullscreenToggled : bool static</text>
<text text-anchor="start" x="290.5" y="-197.8" font-family="Arial" font-size="8.00">+ CurrentInputAction : InputAction</text>
<text text-anchor="start" x="290.5" y="-187.8" font-family="Arial" font-size="8.00">+ ValidKeys : List&lt;Keys&gt;</text>
<text text-anchor="start" x="290.5" y="-177.8" font-family="Arial" font-size="8.00">+ WASDMode : WASDMode</text>
<text text-anchor="start" x="290.5" y="-167.8" font-family="Arial" font-size="8.00">+ IsKeyEventEnabled : bool</text>
<text text-anchor="start" x="290.5" y="-157.8" font-family="Arial" font-size="8.00">+ KeyboardState : KeyboardState static</text>
<polyline fill="none" stroke="black" points="282.5,-151 569.5,-151 "/>
<text text-anchor="start" x="290.5" y="-139.8" font-family="Arial" font-size="8.00"># UpdateMouse (GameTime gameTime) virtual</text>
<text text-anchor="start" x="290.5" y="-129.8" font-family="Arial" font-size="8.00">+ Update (GameTime gameTime)</text>
<text text-anchor="start" x="290.5" y="-119.8" font-family="Arial" font-size="8.00">+ OnKeyEvent (List&lt;Keys&gt; key, KeyEvent keyEvent, GameTime gameTime)</text>
<text text-anchor="start" x="290.5" y="-109.8" font-family="Arial" font-size="8.00"># UpdateKeys (GameTime gameTime) virtual</text>
<text text-anchor="start" x="290.5" y="-99.8" font-family="Arial" font-size="8.00">+ Input (GameState state)</text>
</g>
<!-- Box_Input&#45;&gt;Box_MenuScreenInput -->
<g id="edge2" class="edge"><title>Box_Input&#45;&gt;Box_MenuScreenInput</title>
<path fill="none" stroke="midnightblue" d="M426,-82.6713C426,-72.6201 426,-63.2764 426,-55.2588"/>
<polygon fill="none" stroke="midnightblue" points="422.5,-82.9353 426,-92.9354 429.5,-82.9354 422.5,-82.9353"/>
</g>
<!-- Box_GameStateComponent -->
<g id="node3" class="node"><title>Box_GameStateComponent</title>
<polygon fill="#fcfcda" stroke="black" points="97,-365 97,-439 429,-439 429,-365 97,-365"/>
<text text-anchor="middle" x="263" y="-427.8" font-family="Arial" font-size="8.00">GameStateComponent</text>
<polyline fill="none" stroke="black" points="97,-421 429,-421 "/>
<text text-anchor="start" x="105" y="-409.8" font-family="Arial" font-size="8.00">+ Index : DisplayLayer</text>
<text text-anchor="start" x="105" y="-399.8" font-family="Arial" font-size="8.00">+ state : GameState</text>
<polyline fill="none" stroke="black" points="97,-393 429,-393 "/>
<text text-anchor="start" x="105" y="-381.8" font-family="Arial" font-size="8.00">+ GameStateComponent (GameState state, DisplayLayer index)</text>
<text text-anchor="start" x="105" y="-371.8" font-family="Arial" font-size="8.00">+ SubComponents (GameTime gameTime) : IEnumerable&lt;IGameStateComponent&gt; virtual</text>
</g>
<!-- Box_GameStateComponent&#45;&gt;Box_Input -->
<g id="edge4" class="edge"><title>Box_GameStateComponent&#45;&gt;Box_Input</title>
<path fill="none" stroke="midnightblue" d="M301.123,-357.095C308.976,-347.844 317.587,-337.701 326.501,-327.201"/>
<polygon fill="none" stroke="midnightblue" points="298.232,-355.092 294.428,-364.98 303.568,-359.622 298.232,-355.092"/>
</g>
<!-- Box_IGameStateComponent -->
<g id="node4" class="node"><title>Box_IGameStateComponent</title>
<polygon fill="#dafcda" stroke="black" points="0,-477 0,-531 308,-531 308,-477 0,-477"/>
<text text-anchor="middle" x="154" y="-519.8" font-family="Arial" font-size="8.00">IGameStateComponent</text>
<polyline fill="none" stroke="black" points="0,-513 308,-513 "/>
<text text-anchor="start" x="8" y="-501.8" font-family="Arial" font-size="8.00">+ Index : DisplayLayer</text>
<polyline fill="none" stroke="black" points="0,-495 308,-495 "/>
<text text-anchor="start" x="8" y="-483.8" font-family="Arial" font-size="8.00">+ SubComponents (GameTime gameTime) : IEnumerable&lt;IGameStateComponent&gt;</text>
</g>
<!-- Box_IGameStateComponent&#45;&gt;Box_GameStateComponent -->
<g id="edge10" class="edge"><title>Box_IGameStateComponent&#45;&gt;Box_GameStateComponent</title>
<path fill="none" stroke="midnightblue" d="M190.4,-469.937C200.952,-460.063 212.526,-449.233 223.27,-439.178"/>
<polygon fill="none" stroke="midnightblue" points="187.834,-467.545 182.924,-476.934 192.617,-472.656 187.834,-467.545"/>
</g>
<!-- Box_IKeyEventListener -->
<g id="node5" class="node"><title>Box_IKeyEventListener</title>
<polygon fill="#dafcda" stroke="black" points="446.5,-365 446.5,-439 733.5,-439 733.5,-365 446.5,-365"/>
<text text-anchor="middle" x="590" y="-427.8" font-family="Arial" font-size="8.00">IKeyEventListener</text>
<polyline fill="none" stroke="black" points="446.5,-421 733.5,-421 "/>
<text text-anchor="start" x="454.5" y="-409.8" font-family="Arial" font-size="8.00">+ ValidKeys : List&lt;Keys&gt;</text>
<text text-anchor="start" x="454.5" y="-399.8" font-family="Arial" font-size="8.00">+ Index : DisplayLayer</text>
<text text-anchor="start" x="454.5" y="-389.8" font-family="Arial" font-size="8.00">+ IsKeyEventEnabled : bool</text>
<polyline fill="none" stroke="black" points="446.5,-383 733.5,-383 "/>
<text text-anchor="start" x="454.5" y="-371.8" font-family="Arial" font-size="8.00">+ OnKeyEvent (List&lt;Keys&gt; key, KeyEvent keyEvent, GameTime gameTime)</text>
</g>
<!-- Box_IKeyEventListener&#45;&gt;Box_Input -->
<g id="edge6" class="edge"><title>Box_IKeyEventListener&#45;&gt;Box_Input</title>
<path fill="none" stroke="midnightblue" d="M551.883,-357.375C543.917,-348.049 535.168,-337.807 526.109,-327.201"/>
<polygon fill="none" stroke="midnightblue" points="549.223,-359.65 558.379,-364.98 554.546,-355.103 549.223,-359.65"/>
</g>
<!-- Box_XnaGameComponent -->
<g id="node6" class="node"><title>Box_XnaGameComponent</title>
<polygon fill="#ffffff" stroke="black" points="325.5,-495 325.5,-513 420.5,-513 420.5,-495 325.5,-495"/>
<text text-anchor="middle" x="373" y="-501.8" font-family="Arial" font-size="8.00">Xna.GameComponent</text>
</g>
<!-- Box_XnaGameComponent&#45;&gt;Box_GameStateComponent -->
<g id="edge8" class="edge"><title>Box_XnaGameComponent&#45;&gt;Box_GameStateComponent</title>
<path fill="none" stroke="midnightblue" d="M355.743,-487.998C341.646,-474.926 321.159,-455.929 303.024,-439.113"/>
<polygon fill="none" stroke="midnightblue" points="353.526,-490.715 363.238,-494.948 358.285,-485.582 353.526,-490.715"/>
</g>
<!-- Box_XnaIGameComponent -->
<g id="node7" class="node"><title>Box_XnaIGameComponent</title>
<polygon fill="#ffffff" stroke="black" points="106,-569 106,-587 202,-587 202,-569 106,-569"/>
<text text-anchor="middle" x="154" y="-575.8" font-family="Arial" font-size="8.00">Xna.IGameComponent</text>
</g>
<!-- Box_XnaIGameComponent&#45;&gt;Box_IGameStateComponent -->
<g id="edge12" class="edge"><title>Box_XnaIGameComponent&#45;&gt;Box_IGameStateComponent</title>
<path fill="none" stroke="midnightblue" d="M154,-558.64C154,-550.2 154,-540.16 154,-531.004"/>
<polygon fill="none" stroke="midnightblue" points="150.5,-558.926 154,-568.926 157.5,-558.926 150.5,-558.926"/>
</g>
</g>
</svg>
