<?xml version="1.0" encoding="UTF-8" standalone="no"?>
<!DOCTYPE svg PUBLIC "-//W3C//DTD SVG 1.1//EN"
 "http://www.w3.org/Graphics/SVG/1.1/DTD/svg11.dtd">
<!-- Generated by graphviz version 2.26.3 (20100126.1600)
 -->
<!-- Title: MenuItem Pages: 1 -->
<svg width="449pt" height="432pt"
 viewBox="0.00 0.00 449.00 432.00" xmlns="http://www.w3.org/2000/svg" xmlns:xlink="http://www.w3.org/1999/xlink">
<g id="graph1" class="graph" transform="scale(1 1) rotate(0) translate(4 428)">
<title>MenuItem</title>
<polygon fill="white" stroke="white" points="-4,5 -4,-428 446,-428 446,5 -4,5"/>
<!-- Box_ClickHandler -->
<g id="node1" class="node"><title>Box_ClickHandler</title>
<polygon fill="#fcfcda" stroke="black" points="202,-1 202,-97 340,-97 340,-1 202,-1"/>
<text text-anchor="middle" x="271" y="-85.8" font-family="Helvetica,sans-Serif" font-size="8.00">ClickHandler</text>
<polyline fill="none" stroke="black" points="202,-77 340,-77 "/>
<text text-anchor="start" x="210" y="-65.8" font-family="Helvetica,sans-Serif" font-size="8.00">Attributes:</text>
<text text-anchor="start" x="210" y="-53.8" font-family="Helvetica,sans-Serif" font-size="8.00">&#45; ClickEventComponent : class</text>
<text text-anchor="start" x="210" y="-41.8" font-family="Helvetica,sans-Serif" font-size="8.00">Methods:</text>
<polyline fill="none" stroke="black" points="202,-33 340,-33 "/>
<text text-anchor="start" x="210" y="-21.8" font-family="Helvetica,sans-Serif" font-size="8.00">+ ClickHandler (GameState state)</text>
<text text-anchor="start" x="210" y="-9.8" font-family="Helvetica,sans-Serif" font-size="8.00">+ Update (GameTime gameTime)</text>
</g>
<!-- Box_GameStateComponent -->
<g id="node2" class="node"><title>Box_GameStateComponent</title>
<polygon fill="#fcfcda" stroke="black" points="100.5,-135 100.5,-243 441.5,-243 441.5,-135 100.5,-135"/>
<text text-anchor="middle" x="271" y="-231.8" font-family="Helvetica,sans-Serif" font-size="8.00">GameStateComponent</text>
<polyline fill="none" stroke="black" points="100.5,-223 441.5,-223 "/>
<text text-anchor="start" x="108.5" y="-211.8" font-family="Helvetica,sans-Serif" font-size="8.00">Attributes:</text>
<text text-anchor="start" x="108.5" y="-199.8" font-family="Helvetica,sans-Serif" font-size="8.00">+ Index : DisplayLayer</text>
<text text-anchor="start" x="108.5" y="-187.8" font-family="Helvetica,sans-Serif" font-size="8.00">+ state : GameState</text>
<text text-anchor="start" x="108.5" y="-175.8" font-family="Helvetica,sans-Serif" font-size="8.00">Methods:</text>
<polyline fill="none" stroke="black" points="100.5,-167 441.5,-167 "/>
<text text-anchor="start" x="108.5" y="-155.8" font-family="Helvetica,sans-Serif" font-size="8.00">+ GameStateComponent (GameState state, DisplayLayer index)</text>
<text text-anchor="start" x="108.5" y="-143.8" font-family="Helvetica,sans-Serif" font-size="8.00">+ SubComponents (GameTime gameTime) : IEnumerable&lt;IGameStateComponent&gt; virtual</text>
</g>
<!-- Box_GameStateComponent&#45;&gt;Box_ClickHandler -->
<g id="edge2" class="edge"><title>Box_GameStateComponent&#45;&gt;Box_ClickHandler</title>
<path fill="none" stroke="midnightblue" d="M271,-124.821C271,-115.478 271,-105.996 271,-97.0469"/>
<polygon fill="none" stroke="midnightblue" points="267.5,-124.872 271,-134.872 274.5,-124.872 267.5,-124.872"/>
</g>
<!-- Box_IGameStateComponent -->
<g id="node3" class="node"><title>Box_IGameStateComponent</title>
<polygon fill="#dafcda" stroke="black" points="0,-281 0,-365 318,-365 318,-281 0,-281"/>
<text text-anchor="middle" x="159" y="-353.8" font-family="Helvetica,sans-Serif" font-size="8.00">IGameStateComponent</text>
<polyline fill="none" stroke="black" points="0,-345 318,-345 "/>
<text text-anchor="start" x="8" y="-333.8" font-family="Helvetica,sans-Serif" font-size="8.00">Attributes:</text>
<text text-anchor="start" x="8" y="-321.8" font-family="Helvetica,sans-Serif" font-size="8.00">+ Index : DisplayLayer</text>
<text text-anchor="start" x="8" y="-309.8" font-family="Helvetica,sans-Serif" font-size="8.00">Methods:</text>
<polyline fill="none" stroke="black" points="0,-301 318,-301 "/>
<text text-anchor="start" x="8" y="-289.8" font-family="Helvetica,sans-Serif" font-size="8.00">+ SubComponents (GameTime gameTime) : IEnumerable&lt;IGameStateComponent&gt;</text>
</g>
<!-- Box_IGameStateComponent&#45;&gt;Box_GameStateComponent -->
<g id="edge6" class="edge"><title>Box_IGameStateComponent&#45;&gt;Box_GameStateComponent</title>
<path fill="none" stroke="midnightblue" d="M200.587,-273.244C208.774,-263.448 217.403,-253.125 225.705,-243.192"/>
<polygon fill="none" stroke="midnightblue" points="197.858,-271.052 194.13,-280.969 203.229,-275.541 197.858,-271.052"/>
</g>
<!-- Box_XnaGameComponent -->
<g id="node4" class="node"><title>Box_XnaGameComponent</title>
<polygon fill="#ffffff" stroke="black" points="335.5,-313 335.5,-333 432.5,-333 432.5,-313 335.5,-313"/>
<text text-anchor="middle" x="384" y="-321.8" font-family="Helvetica,sans-Serif" font-size="8.00">Xna.GameComponent</text>
</g>
<!-- Box_XnaGameComponent&#45;&gt;Box_GameStateComponent -->
<g id="edge4" class="edge"><title>Box_XnaGameComponent&#45;&gt;Box_GameStateComponent</title>
<path fill="none" stroke="midnightblue" d="M368.826,-305.006C355.438,-289.13 335.219,-265.153 316.631,-243.111"/>
<polygon fill="none" stroke="midnightblue" points="366.384,-307.54 375.507,-312.928 371.736,-303.027 366.384,-307.54"/>
</g>
<!-- Box_XnaIGameComponent -->
<g id="node5" class="node"><title>Box_XnaIGameComponent</title>
<polygon fill="#ffffff" stroke="black" points="109.5,-403 109.5,-423 208.5,-423 208.5,-403 109.5,-403"/>
<text text-anchor="middle" x="159" y="-411.8" font-family="Helvetica,sans-Serif" font-size="8.00">Xna.IGameComponent</text>
</g>
<!-- Box_XnaIGameComponent&#45;&gt;Box_IGameStateComponent -->
<g id="edge8" class="edge"><title>Box_XnaIGameComponent&#45;&gt;Box_IGameStateComponent</title>
<path fill="none" stroke="midnightblue" d="M159,-392.454C159,-384.393 159,-374.828 159,-365.414"/>
<polygon fill="none" stroke="midnightblue" points="155.5,-392.676 159,-402.676 162.5,-392.676 155.5,-392.676"/>
</g>
</g>
</svg>
