<?xml version="1.0" encoding="UTF-8" standalone="no"?>
<!DOCTYPE svg PUBLIC "-//W3C//DTD SVG 1.1//EN"
 "http://www.w3.org/Graphics/SVG/1.1/DTD/svg11.dtd">
<!-- Generated by graphviz version 2.26.3 (20100126.1600)
 -->
<!-- Title: MenuItem Pages: 1 -->
<svg width="296pt" height="458pt"
 viewBox="0.00 0.00 296.00 458.00" xmlns="http://www.w3.org/2000/svg" xmlns:xlink="http://www.w3.org/1999/xlink">
<g id="graph1" class="graph" transform="scale(1 1) rotate(0) translate(4 454)">
<title>MenuItem</title>
<polygon fill="white" stroke="white" points="-4,5 -4,-454 293,-454 293,5 -4,5"/>
<!-- Box_LineRenderer -->
<g id="node1" class="node"><title>Box_LineRenderer</title>
<polygon fill="#fcfcda" stroke="black" points="48.5,-1 48.5,-145 281.5,-145 281.5,-1 48.5,-1"/>
<text text-anchor="middle" x="165" y="-133.8" font-family="Arial" font-size="8.00">LineRenderer</text>
<polyline fill="none" stroke="black" points="48.5,-127 281.5,-127 "/>
<text text-anchor="start" x="56.5" y="-115.8" font-family="Arial" font-size="8.00">&#45; edges : EdgeList</text>
<text text-anchor="start" x="56.5" y="-105.8" font-family="Arial" font-size="8.00">&#45; basicEffect : BasicEffect</text>
<text text-anchor="start" x="56.5" y="-95.8" font-family="Arial" font-size="8.00">+ Info : GameObjectInfo</text>
<text text-anchor="start" x="56.5" y="-85.8" font-family="Arial" font-size="8.00">+ World : World</text>
<polyline fill="none" stroke="black" points="48.5,-79 281.5,-79 "/>
<text text-anchor="start" x="56.5" y="-67.8" font-family="Arial" font-size="8.00">+ LineRenderer (GameScreen screen, GameObjectInfo info)</text>
<text text-anchor="start" x="56.5" y="-57.8" font-family="Arial" font-size="8.00">+ OnEdgesChanged (EdgeList edges)</text>
<text text-anchor="start" x="56.5" y="-47.8" font-family="Arial" font-size="8.00">&#45; DrawRoundedLines ()</text>
<text text-anchor="start" x="56.5" y="-37.8" font-family="Arial" font-size="8.00">+ Intersects (Ray ray) : GameObjectDistance</text>
<text text-anchor="start" x="56.5" y="-27.8" font-family="Arial" font-size="8.00">+ Center () : Vector3</text>
<text text-anchor="start" x="56.5" y="-17.8" font-family="Arial" font-size="8.00">+ Draw (GameTime gameTime)</text>
<text text-anchor="start" x="56.5" y="-7.8" font-family="Arial" font-size="8.00">+ Update (GameTime gameTime)</text>
</g>
<!-- Box_KnotRenderer -->
<g id="node2" class="node"><title>Box_KnotRenderer</title>
<polygon fill="#fcfcda" stroke="black" points="59.5,-183 59.5,-317 270.5,-317 270.5,-183 59.5,-183"/>
<text text-anchor="middle" x="165" y="-305.8" font-family="Arial" font-size="8.00">KnotRenderer</text>
<polyline fill="none" stroke="black" points="59.5,-299 270.5,-299 "/>
<text text-anchor="start" x="67.5" y="-287.8" font-family="Arial" font-size="8.00">+ World : World abstract</text>
<text text-anchor="start" x="67.5" y="-277.8" font-family="Arial" font-size="8.00"># screen : GameScreen</text>
<text text-anchor="start" x="67.5" y="-267.8" font-family="Arial" font-size="8.00">+ Info : GameObjectInfo abstract</text>
<polyline fill="none" stroke="black" points="59.5,-261 270.5,-261 "/>
<text text-anchor="start" x="67.5" y="-249.8" font-family="Arial" font-size="8.00"># nodeMap () : NodeMap</text>
<text text-anchor="start" x="67.5" y="-239.8" font-family="Arial" font-size="8.00">+ Intersects (Ray ray) : GameObjectDistance abstract</text>
<text text-anchor="start" x="67.5" y="-229.8" font-family="Arial" font-size="8.00">+ Center () : Vector3 abstract</text>
<text text-anchor="start" x="67.5" y="-219.8" font-family="Arial" font-size="8.00">+ Draw (GameTime gameTime) abstract</text>
<text text-anchor="start" x="67.5" y="-209.8" font-family="Arial" font-size="8.00">+ KnotRenderer (GameScreen screen)</text>
<text text-anchor="start" x="67.5" y="-199.8" font-family="Arial" font-size="8.00">+ Update (GameTime gameTime) abstract</text>
<text text-anchor="start" x="67.5" y="-189.8" font-family="Arial" font-size="8.00">+ OnEdgesChanged (EdgeList edges) virtual</text>
</g>
<!-- Box_KnotRenderer&#45;&gt;Box_LineRenderer -->
<g id="edge2" class="edge"><title>Box_KnotRenderer&#45;&gt;Box_LineRenderer</title>
<path fill="none" stroke="midnightblue" d="M165,-172.613C165,-163.483 165,-154.193 165,-145.139"/>
<polygon fill="none" stroke="midnightblue" points="161.5,-172.831 165,-182.832 168.5,-172.832 161.5,-172.831"/>
</g>
<!-- Box_IGameObject -->
<g id="node3" class="node"><title>Box_IGameObject</title>
<polygon fill="#dafcda" stroke="black" points="-0.5,-355 -0.5,-449 178.5,-449 178.5,-355 -0.5,-355"/>
<text text-anchor="middle" x="89" y="-437.8" font-family="Arial" font-size="8.00">IGameObject</text>
<polyline fill="none" stroke="black" points="-0.5,-431 178.5,-431 "/>
<text text-anchor="start" x="7.5" y="-419.8" font-family="Arial" font-size="8.00">+ Info : GameObjectInfo</text>
<text text-anchor="start" x="7.5" y="-409.8" font-family="Arial" font-size="8.00">+ World : World</text>
<polyline fill="none" stroke="black" points="-0.5,-403 178.5,-403 "/>
<text text-anchor="start" x="7.5" y="-391.8" font-family="Arial" font-size="8.00">+ Draw (GameTime time)</text>
<text text-anchor="start" x="7.5" y="-381.8" font-family="Arial" font-size="8.00">+ Update (GameTime time)</text>
<text text-anchor="start" x="7.5" y="-371.8" font-family="Arial" font-size="8.00">+ Intersects (Ray ray) : GameObjectDistance</text>
<text text-anchor="start" x="7.5" y="-361.8" font-family="Arial" font-size="8.00">+ Center () : Vector3</text>
</g>
<!-- Box_IGameObject&#45;&gt;Box_KnotRenderer -->
<g id="edge6" class="edge"><title>Box_IGameObject&#45;&gt;Box_KnotRenderer</title>
<path fill="none" stroke="midnightblue" d="M117.2,-345.6C121.852,-336.297 126.713,-326.574 131.48,-317.041"/>
<polygon fill="none" stroke="midnightblue" points="113.972,-344.23 112.63,-354.739 120.233,-347.36 113.972,-344.23"/>
</g>
<!-- Box_IEdgeChangeListener -->
<g id="node4" class="node"><title>Box_IEdgeChangeListener</title>
<polygon fill="#ffffff" stroke="black" points="195.5,-393 195.5,-411 288.5,-411 288.5,-393 195.5,-393"/>
<text text-anchor="middle" x="242" y="-399.8" font-family="Arial" font-size="8.00">IEdgeChangeListener</text>
</g>
<!-- Box_IEdgeChangeListener&#45;&gt;Box_KnotRenderer -->
<g id="edge4" class="edge"><title>Box_IEdgeChangeListener&#45;&gt;Box_KnotRenderer</title>
<path fill="none" stroke="midnightblue" d="M232.804,-383.848C224.374,-367.206 211.356,-341.507 198.971,-317.06"/>
<polygon fill="none" stroke="midnightblue" points="229.773,-385.608 237.414,-392.947 236.017,-382.445 229.773,-385.608"/>
</g>
</g>
</svg>
