<?xml version="1.0" encoding="UTF-8" standalone="no"?>
<!DOCTYPE svg PUBLIC "-//W3C//DTD SVG 1.1//EN"
 "http://www.w3.org/Graphics/SVG/1.1/DTD/svg11.dtd">
<!-- Generated by graphviz version 2.26.3 (20100126.1600)
 -->
<!-- Title: MenuItem Pages: 1 -->
<svg width="9617pt" height="3033pt"
 viewBox="0.00 0.00 2308.00 728.00" xmlns="http://www.w3.org/2000/svg" xmlns:xlink="http://www.w3.org/1999/xlink">
<g id="graph1" class="graph" transform="scale(4.16667 4.16667) rotate(0) translate(4 724)">
<title>MenuItem</title>
<polygon fill="white" stroke="white" points="-4,5 -4,-724 2305,-724 2305,5 -4,5"/>
<!-- Box_IGameObject -->
<g id="node1" class="node"><title>Box_IGameObject</title>
<polygon fill="#dafcda" stroke="black" points="911.5,-625 911.5,-719 1090.5,-719 1090.5,-625 911.5,-625"/>
<text text-anchor="middle" x="1001" y="-707.8" font-family="Arial" font-size="8.00">IGameObject</text>
<polyline fill="none" stroke="black" points="911.5,-701 1090.5,-701 "/>
<text text-anchor="start" x="919.5" y="-689.8" font-family="Arial" font-size="8.00">+ Info : GameObjectInfo</text>
<text text-anchor="start" x="919.5" y="-679.8" font-family="Arial" font-size="8.00">+ World : World</text>
<polyline fill="none" stroke="black" points="911.5,-673 1090.5,-673 "/>
<text text-anchor="start" x="919.5" y="-661.8" font-family="Arial" font-size="8.00">+ Draw (GameTime gameTime)</text>
<text text-anchor="start" x="919.5" y="-651.8" font-family="Arial" font-size="8.00">+ Update (GameTime gameTime)</text>
<text text-anchor="start" x="919.5" y="-641.8" font-family="Arial" font-size="8.00">+ Intersects (Ray ray) : GameObjectDistance</text>
<text text-anchor="start" x="919.5" y="-631.8" font-family="Arial" font-size="8.00">+ Center () : Vector3</text>
</g>
<!-- Box_GameModel -->
<g id="node2" class="node"><title>Box_GameModel</title>
<polygon fill="#fcfcda" stroke="black" points="1612,-293 1612,-587 1836,-587 1836,-293 1612,-293"/>
<text text-anchor="middle" x="1724" y="-575.8" font-family="Arial" font-size="8.00">GameModel</text>
<polyline fill="none" stroke="black" points="1612,-569 1836,-569 "/>
<text text-anchor="start" x="1620" y="-557.8" font-family="Arial" font-size="8.00">&#45; IGameObject.Info : GameObjectInfo</text>
<text text-anchor="start" x="1620" y="-547.8" font-family="Arial" font-size="8.00">&#45; _rotation : Angles3</text>
<text text-anchor="start" x="1620" y="-537.8" font-family="Arial" font-size="8.00">&#45; Bounds : BoundingSphere[]</text>
<text text-anchor="start" x="1620" y="-527.8" font-family="Arial" font-size="8.00">&#45; _bounds : BoundingSphere[]</text>
<text text-anchor="start" x="1620" y="-517.8" font-family="Arial" font-size="8.00">&#45; _worldMatrix : Matrix</text>
<text text-anchor="start" x="1620" y="-507.8" font-family="Arial" font-size="8.00">&#45; _position : Vector3</text>
<text text-anchor="start" x="1620" y="-497.8" font-family="Arial" font-size="8.00">&#45; _inFrustum : bool</text>
<text text-anchor="start" x="1620" y="-487.8" font-family="Arial" font-size="8.00"># InCameraFrustum : bool</text>
<text text-anchor="start" x="1620" y="-477.8" font-family="Arial" font-size="8.00">+ BaseColor : Color</text>
<text text-anchor="start" x="1620" y="-467.8" font-family="Arial" font-size="8.00">+ HighlightColor : Color</text>
<text text-anchor="start" x="1620" y="-457.8" font-family="Arial" font-size="8.00">+ Info : GameModelInfo</text>
<text text-anchor="start" x="1620" y="-447.8" font-family="Arial" font-size="8.00">+ WorldMatrix : Matrix</text>
<text text-anchor="start" x="1620" y="-437.8" font-family="Arial" font-size="8.00">+ World : World</text>
<text text-anchor="start" x="1620" y="-427.8" font-family="Arial" font-size="8.00">+ Alpha : float</text>
<text text-anchor="start" x="1620" y="-417.8" font-family="Arial" font-size="8.00">+ HighlightIntensity : float</text>
<text text-anchor="start" x="1620" y="-407.8" font-family="Arial" font-size="8.00">&#45; _scale : Vector3</text>
<text text-anchor="start" x="1620" y="-397.8" font-family="Arial" font-size="8.00">&#45; _world : World</text>
<text text-anchor="start" x="1620" y="-387.8" font-family="Arial" font-size="8.00"># screen : GameScreen</text>
<text text-anchor="start" x="1620" y="-377.8" font-family="Arial" font-size="8.00">+ Model : Model virtual</text>
<polyline fill="none" stroke="black" points="1612,-371 1836,-371 "/>
<text text-anchor="start" x="1620" y="-359.8" font-family="Arial" font-size="8.00">&#45; OnViewChanged ()</text>
<text text-anchor="start" x="1620" y="-349.8" font-family="Arial" font-size="8.00">&#45; UpdatePrecomputed ()</text>
<text text-anchor="start" x="1620" y="-339.8" font-family="Arial" font-size="8.00">+ GameModel (GameScreen screen, GameModelInfo info)</text>
<text text-anchor="start" x="1620" y="-329.8" font-family="Arial" font-size="8.00">+ Draw (GameTime gameTime) virtual</text>
<text text-anchor="start" x="1620" y="-319.8" font-family="Arial" font-size="8.00">+ Center () : Vector3</text>
<text text-anchor="start" x="1620" y="-309.8" font-family="Arial" font-size="8.00">+ Intersects (Ray ray) : GameObjectDistance virtual</text>
<text text-anchor="start" x="1620" y="-299.8" font-family="Arial" font-size="8.00">+ Update (GameTime gameTime) virtual</text>
</g>
<!-- Box_IGameObject&#45;&gt;Box_GameModel -->
<g id="edge2" class="edge"><title>Box_IGameObject&#45;&gt;Box_GameModel</title>
<path fill="none" stroke="midnightblue" d="M1101.06,-664.79C1198.92,-655.323 1350.92,-634.116 1475,-588 1522.14,-570.481 1570.44,-544.065 1611.81,-518.377"/>
<polygon fill="none" stroke="midnightblue" points="1100.5,-661.327 1090.87,-665.752 1101.16,-668.296 1100.5,-661.327"/>
</g>
<!-- Box_KnotRenderer -->
<g id="node7" class="node"><title>Box_KnotRenderer</title>
<polygon fill="#fcfcda" stroke="black" points="263.5,-373 263.5,-507 474.5,-507 474.5,-373 263.5,-373"/>
<text text-anchor="middle" x="369" y="-495.8" font-family="Arial" font-size="8.00">KnotRenderer</text>
<polyline fill="none" stroke="black" points="263.5,-489 474.5,-489 "/>
<text text-anchor="start" x="271.5" y="-477.8" font-family="Arial" font-size="8.00">+ World : World abstract</text>
<text text-anchor="start" x="271.5" y="-467.8" font-family="Arial" font-size="8.00"># screen : GameScreen</text>
<text text-anchor="start" x="271.5" y="-457.8" font-family="Arial" font-size="8.00">+ Info : GameObjectInfo abstract</text>
<polyline fill="none" stroke="black" points="263.5,-451 474.5,-451 "/>
<text text-anchor="start" x="271.5" y="-439.8" font-family="Arial" font-size="8.00"># nodeMap () : NodeMap</text>
<text text-anchor="start" x="271.5" y="-429.8" font-family="Arial" font-size="8.00">+ Intersects (Ray ray) : GameObjectDistance abstract</text>
<text text-anchor="start" x="271.5" y="-419.8" font-family="Arial" font-size="8.00">+ Center () : Vector3 abstract</text>
<text text-anchor="start" x="271.5" y="-409.8" font-family="Arial" font-size="8.00">+ Draw (GameTime gameTime) abstract</text>
<text text-anchor="start" x="271.5" y="-399.8" font-family="Arial" font-size="8.00">+ KnotRenderer (GameScreen screen)</text>
<text text-anchor="start" x="271.5" y="-389.8" font-family="Arial" font-size="8.00">+ Update (GameTime gameTime) abstract</text>
<text text-anchor="start" x="271.5" y="-379.8" font-family="Arial" font-size="8.00">+ OnEdgesChanged (EdgeList edges) virtual</text>
</g>
<!-- Box_IGameObject&#45;&gt;Box_KnotRenderer -->
<g id="edge14" class="edge"><title>Box_IGameObject&#45;&gt;Box_KnotRenderer</title>
<path fill="none" stroke="midnightblue" d="M901.389,-664.576C771.275,-653.407 551.926,-629.092 483,-588 450.685,-568.734 424.248,-536.54 404.998,-507.09"/>
<polygon fill="none" stroke="midnightblue" points="901.113,-668.065 911.373,-665.422 901.704,-661.09 901.113,-668.065"/>
</g>
<!-- Box_MovableGameObject -->
<g id="node11" class="node"><title>Box_MovableGameObject</title>
<polygon fill="#fcfcda" stroke="black" points="1215.5,-363 1215.5,-517 1466.5,-517 1466.5,-363 1215.5,-363"/>
<text text-anchor="middle" x="1341" y="-505.8" font-family="Arial" font-size="8.00">MovableGameObject</text>
<polyline fill="none" stroke="black" points="1215.5,-499 1466.5,-499 "/>
<text text-anchor="start" x="1223.5" y="-487.8" font-family="Arial" font-size="8.00">&#45; Obj : IGameObject</text>
<text text-anchor="start" x="1223.5" y="-477.8" font-family="Arial" font-size="8.00">+ World : World</text>
<text text-anchor="start" x="1223.5" y="-467.8" font-family="Arial" font-size="8.00">&#45; screen : GameScreen</text>
<text text-anchor="start" x="1223.5" y="-457.8" font-family="Arial" font-size="8.00">+ Info : GameObjectInfo</text>
<polyline fill="none" stroke="black" points="1215.5,-451 1466.5,-451 "/>
<text text-anchor="start" x="1223.5" y="-439.8" font-family="Arial" font-size="8.00"># CurrentGroundPlane () : Plane</text>
<text text-anchor="start" x="1223.5" y="-429.8" font-family="Arial" font-size="8.00">+ MovableGameObject (GameScreen screen, IGameObject obj)</text>
<text text-anchor="start" x="1223.5" y="-419.8" font-family="Arial" font-size="8.00">+ Update (GameTime gameTime) virtual</text>
<text text-anchor="start" x="1223.5" y="-409.8" font-family="Arial" font-size="8.00"># CurrentMouseRay () : Ray</text>
<text text-anchor="start" x="1223.5" y="-399.8" font-family="Arial" font-size="8.00"># CurrentMousePosition (Ray ray, Plane groundPlane) : Vector3?</text>
<text text-anchor="start" x="1223.5" y="-389.8" font-family="Arial" font-size="8.00">+ Intersects (Ray ray) : GameObjectDistance</text>
<text text-anchor="start" x="1223.5" y="-379.8" font-family="Arial" font-size="8.00">+ Center () : Vector3</text>
<text text-anchor="start" x="1223.5" y="-369.8" font-family="Arial" font-size="8.00">+ Draw (GameTime gameTime)</text>
</g>
<!-- Box_IGameObject&#45;&gt;Box_MovableGameObject -->
<g id="edge26" class="edge"><title>Box_IGameObject&#45;&gt;Box_MovableGameObject</title>
<path fill="none" stroke="midnightblue" d="M1100.03,-641.877C1135.56,-628.493 1174.77,-610.58 1207,-588 1234.82,-568.51 1260.98,-542.254 1282.67,-517.267"/>
<polygon fill="none" stroke="midnightblue" points="1098.77,-638.61 1090.6,-645.356 1101.2,-645.177 1098.77,-638.61"/>
</g>
<!-- Box_PipeMovement -->
<g id="node12" class="node"><title>Box_PipeMovement</title>
<polygon fill="#fcfcda" stroke="black" points="742,-1 742,-255 1082,-255 1082,-1 742,-1"/>
<text text-anchor="middle" x="912" y="-243.8" font-family="Arial" font-size="8.00">PipeMovement</text>
<polyline fill="none" stroke="black" points="742,-237 1082,-237 "/>
<text text-anchor="start" x="750" y="-225.8" font-family="Arial" font-size="8.00">&#45; shadowObjects : List&lt;ShadowGameObject&gt;</text>
<text text-anchor="start" x="750" y="-215.8" font-family="Arial" font-size="8.00">+ World : World</text>
<text text-anchor="start" x="750" y="-205.8" font-family="Arial" font-size="8.00">&#45; screen : GameScreen</text>
<text text-anchor="start" x="750" y="-195.8" font-family="Arial" font-size="8.00">&#45; previousMousePosition : Vector3</text>
<text text-anchor="start" x="750" y="-185.8" font-family="Arial" font-size="8.00">+ Info : GameObjectInfo</text>
<text text-anchor="start" x="750" y="-175.8" font-family="Arial" font-size="8.00">+ Knot : Knot</text>
<polyline fill="none" stroke="black" points="742,-169 1082,-169 "/>
<text text-anchor="start" x="750" y="-157.8" font-family="Arial" font-size="8.00">&#45; knownEdgeLists () : HashSet&lt;EdgeList&gt;</text>
<text text-anchor="start" x="750" y="-147.8" font-family="Arial" font-size="8.00">&#45; IEnumerable.GetEnumerator () : IEnumerator</text>
<text text-anchor="start" x="750" y="-137.8" font-family="Arial" font-size="8.00">&#45; MovePipes (Vector3 currentMousePosition)</text>
<text text-anchor="start" x="750" y="-127.8" font-family="Arial" font-size="8.00">&#45; MoveShadowPipes (Vector3 currentMousePosition)</text>
<text text-anchor="start" x="750" y="-117.8" font-family="Arial" font-size="8.00">+ Intersects (Ray ray) : GameObjectDistance</text>
<text text-anchor="start" x="750" y="-107.8" font-family="Arial" font-size="8.00">+ GetEnumerator () : IEnumerator&lt;IGameObject&gt;</text>
<text text-anchor="start" x="750" y="-97.8" font-family="Arial" font-size="8.00">+ PipeMovement (GameScreen screen, World world, GameObjectInfo info)</text>
<text text-anchor="start" x="750" y="-87.8" font-family="Arial" font-size="8.00">+ Draw (GameTime gameTime)</text>
<text text-anchor="start" x="750" y="-77.8" font-family="Arial" font-size="8.00">&#45; ComputeDirection (Vector3 currentMousePosition, out Vector3 direction, out float count)</text>
<text text-anchor="start" x="750" y="-67.8" font-family="Arial" font-size="8.00">&#45; ComputeDirection (Vector3 currentMousePosition, out Vector3 direction, out int countInt)</text>
<text text-anchor="start" x="750" y="-57.8" font-family="Arial" font-size="8.00">&#45; CreateShadowPipes ()</text>
<text text-anchor="start" x="750" y="-47.8" font-family="Arial" font-size="8.00">&#45; MoveShadowPipes (Vector3 currentMousePosition, Vector3 direction3D)</text>
<text text-anchor="start" x="750" y="-37.8" font-family="Arial" font-size="8.00">&#45; TryMovePipes (GameTime gameTime)</text>
<text text-anchor="start" x="750" y="-27.8" font-family="Arial" font-size="8.00">&#45; TrySelectObject (GameTime gameTime)</text>
<text text-anchor="start" x="750" y="-17.8" font-family="Arial" font-size="8.00">+ Center () : Vector3</text>
<text text-anchor="start" x="750" y="-7.8" font-family="Arial" font-size="8.00">+ Update (GameTime gameTime)</text>
</g>
<!-- Box_IGameObject&#45;&gt;Box_PipeMovement -->
<g id="edge28" class="edge"><title>Box_IGameObject&#45;&gt;Box_PipeMovement</title>
<path fill="none" stroke="midnightblue" d="M958.325,-616.406C953.024,-607.305 948.312,-597.676 945,-588 924.677,-528.63 916.869,-369.503 913.87,-255.042"/>
<polygon fill="none" stroke="midnightblue" points="955.354,-618.256 963.562,-624.954 961.322,-614.599 955.354,-618.256"/>
</g>
<!-- Box_ShadowGameObject -->
<g id="node13" class="node"><title>Box_ShadowGameObject</title>
<polygon fill="#fcfcda" stroke="black" points="953.5,-368 953.5,-512 1198.5,-512 1198.5,-368 953.5,-368"/>
<text text-anchor="middle" x="1076" y="-500.8" font-family="Arial" font-size="8.00">ShadowGameObject</text>
<polyline fill="none" stroke="black" points="953.5,-494 1198.5,-494 "/>
<text text-anchor="start" x="961.5" y="-482.8" font-family="Arial" font-size="8.00">&#45; Obj : IGameObject</text>
<text text-anchor="start" x="961.5" y="-472.8" font-family="Arial" font-size="8.00">+ Info : GameObjectInfo</text>
<text text-anchor="start" x="961.5" y="-462.8" font-family="Arial" font-size="8.00">+ OriginalPosition : Vector3</text>
<text text-anchor="start" x="961.5" y="-452.8" font-family="Arial" font-size="8.00">+ World : World</text>
<text text-anchor="start" x="961.5" y="-442.8" font-family="Arial" font-size="8.00"># screen : GameScreen</text>
<text text-anchor="start" x="961.5" y="-432.8" font-family="Arial" font-size="8.00">+ ShadowPosition : Vector3</text>
<polyline fill="none" stroke="black" points="953.5,-426 1198.5,-426 "/>
<text text-anchor="start" x="961.5" y="-414.8" font-family="Arial" font-size="8.00">+ Update (GameTime gameTime) virtual</text>
<text text-anchor="start" x="961.5" y="-404.8" font-family="Arial" font-size="8.00">+ Intersects (Ray ray) : GameObjectDistance</text>
<text text-anchor="start" x="961.5" y="-394.8" font-family="Arial" font-size="8.00">+ ShadowGameObject (GameScreen screen, IGameObject obj)</text>
<text text-anchor="start" x="961.5" y="-384.8" font-family="Arial" font-size="8.00">+ Center () : Vector3</text>
<text text-anchor="start" x="961.5" y="-374.8" font-family="Arial" font-size="8.00">+ Draw (GameTime gameTime) virtual</text>
</g>
<!-- Box_IGameObject&#45;&gt;Box_ShadowGameObject -->
<g id="edge32" class="edge"><title>Box_IGameObject&#45;&gt;Box_ShadowGameObject</title>
<path fill="none" stroke="midnightblue" d="M1019.43,-614.999C1029.44,-584.018 1041.93,-545.386 1052.63,-512.306"/>
<polygon fill="none" stroke="midnightblue" points="1016.01,-614.18 1016.27,-624.772 1022.67,-616.333 1016.01,-614.18"/>
</g>
<!-- Box_TexturedRectangle -->
<g id="node15" class="node"><title>Box_TexturedRectangle</title>
<polygon fill="#fcfcda" stroke="black" points="491.5,-313 491.5,-567 766.5,-567 766.5,-313 491.5,-313"/>
<text text-anchor="middle" x="629" y="-555.8" font-family="Arial" font-size="8.00">TexturedRectangle</text>
<polyline fill="none" stroke="black" points="491.5,-549 766.5,-549 "/>
<text text-anchor="start" x="499.5" y="-537.8" font-family="Arial" font-size="8.00">&#45; IGameObject.Info : GameObjectInfo</text>
<text text-anchor="start" x="499.5" y="-527.8" font-family="Arial" font-size="8.00">&#45; basicEffect : BasicEffect</text>
<text text-anchor="start" x="499.5" y="-517.8" font-family="Arial" font-size="8.00">&#45; texture : Texture2D</text>
<text text-anchor="start" x="499.5" y="-507.8" font-family="Arial" font-size="8.00">&#45; LowerLeft : Vector3</text>
<text text-anchor="start" x="499.5" y="-497.8" font-family="Arial" font-size="8.00">&#45; LowerRight : Vector3</text>
<text text-anchor="start" x="499.5" y="-487.8" font-family="Arial" font-size="8.00">&#45; Normal : Vector3</text>
<text text-anchor="start" x="499.5" y="-477.8" font-family="Arial" font-size="8.00">&#45; UpperRight : Vector3</text>
<text text-anchor="start" x="499.5" y="-467.8" font-family="Arial" font-size="8.00">&#45; Vertices : VertexPositionNormalTexture[]</text>
<text text-anchor="start" x="499.5" y="-457.8" font-family="Arial" font-size="8.00">&#45; Indexes : short[]</text>
<text text-anchor="start" x="499.5" y="-447.8" font-family="Arial" font-size="8.00">+ Info : TexturedRectangleInfo</text>
<text text-anchor="start" x="499.5" y="-437.8" font-family="Arial" font-size="8.00">&#45; UpperLeft : Vector3</text>
<text text-anchor="start" x="499.5" y="-427.8" font-family="Arial" font-size="8.00"># screen : GameScreen</text>
<text text-anchor="start" x="499.5" y="-417.8" font-family="Arial" font-size="8.00">+ World : World</text>
<polyline fill="none" stroke="black" points="491.5,-411 766.5,-411 "/>
<text text-anchor="start" x="499.5" y="-399.8" font-family="Arial" font-size="8.00">&#45; Length () : Vector3</text>
<text text-anchor="start" x="499.5" y="-389.8" font-family="Arial" font-size="8.00">&#45; FillVertices ()</text>
<text text-anchor="start" x="499.5" y="-379.8" font-family="Arial" font-size="8.00">+ Intersects (Ray ray) : GameObjectDistance</text>
<text text-anchor="start" x="499.5" y="-369.8" font-family="Arial" font-size="8.00">+ TexturedRectangle (GameScreen screen, TexturedRectangleInfo info)</text>
<text text-anchor="start" x="499.5" y="-359.8" font-family="Arial" font-size="8.00">+ Draw (GameTime gameTime)</text>
<text text-anchor="start" x="499.5" y="-349.8" font-family="Arial" font-size="8.00"># SetPosition (Vector3 position)</text>
<text text-anchor="start" x="499.5" y="-339.8" font-family="Arial" font-size="8.00">+ Bounds () : BoundingBox[]</text>
<text text-anchor="start" x="499.5" y="-329.8" font-family="Arial" font-size="8.00">+ Center () : Vector3</text>
<text text-anchor="start" x="499.5" y="-319.8" font-family="Arial" font-size="8.00">+ Update (GameTime gameTime)</text>
</g>
<!-- Box_IGameObject&#45;&gt;Box_TexturedRectangle -->
<g id="edge36" class="edge"><title>Box_IGameObject&#45;&gt;Box_TexturedRectangle</title>
<path fill="none" stroke="midnightblue" d="M901.717,-645.487C860.576,-631.926 813.561,-612.936 775,-588 765.302,-581.728 755.746,-574.712 746.45,-567.235"/>
<polygon fill="none" stroke="midnightblue" points="900.9,-648.901 911.491,-648.644 903.051,-642.24 900.9,-648.901"/>
</g>
<!-- Box_ArrowModel -->
<g id="node3" class="node"><title>Box_ArrowModel</title>
<polygon fill="#fcfcda" stroke="black" points="1366,-86 1366,-170 1596,-170 1596,-86 1366,-86"/>
<text text-anchor="middle" x="1481" y="-158.8" font-family="Arial" font-size="8.00">ArrowModel</text>
<polyline fill="none" stroke="black" points="1366,-152 1596,-152 "/>
<text text-anchor="start" x="1374" y="-140.8" font-family="Arial" font-size="8.00">&#45; Bounds : BoundingSphere[]</text>
<text text-anchor="start" x="1374" y="-130.8" font-family="Arial" font-size="8.00">+ Info : ArrowModelInfo</text>
<polyline fill="none" stroke="black" points="1366,-124 1596,-124 "/>
<text text-anchor="start" x="1374" y="-112.8" font-family="Arial" font-size="8.00">+ ArrowModel (GameScreen screen, ArrowModelInfo info)</text>
<text text-anchor="start" x="1374" y="-102.8" font-family="Arial" font-size="8.00">+ Intersects (Ray ray) : GameObjectDistance</text>
<text text-anchor="start" x="1374" y="-92.8" font-family="Arial" font-size="8.00">+ Draw (GameTime gameTime)</text>
</g>
<!-- Box_GameModel&#45;&gt;Box_ArrowModel -->
<g id="edge4" class="edge"><title>Box_GameModel&#45;&gt;Box_ArrowModel</title>
<path fill="none" stroke="midnightblue" d="M1605.46,-287.807C1571.79,-244.567 1537.81,-200.937 1513.88,-170.216"/>
<polygon fill="none" stroke="midnightblue" points="1602.84,-290.134 1611.75,-295.873 1608.36,-285.832 1602.84,-290.134"/>
</g>
<!-- Box_NodeModel -->
<g id="node4" class="node"><title>Box_NodeModel</title>
<polygon fill="#fcfcda" stroke="black" points="1614,-96 1614,-160 1834,-160 1834,-96 1614,-96"/>
<text text-anchor="middle" x="1724" y="-148.8" font-family="Arial" font-size="8.00">NodeModel</text>
<polyline fill="none" stroke="black" points="1614,-142 1834,-142 "/>
<text text-anchor="start" x="1622" y="-130.8" font-family="Arial" font-size="8.00">+ Info : NodeModelInfo</text>
<polyline fill="none" stroke="black" points="1614,-124 1834,-124 "/>
<text text-anchor="start" x="1622" y="-112.8" font-family="Arial" font-size="8.00">+ NodeModel (GameScreen screen, NodeModelInfo info)</text>
<text text-anchor="start" x="1622" y="-102.8" font-family="Arial" font-size="8.00">+ Draw (GameTime gameTime)</text>
</g>
<!-- Box_GameModel&#45;&gt;Box_NodeModel -->
<g id="edge6" class="edge"><title>Box_GameModel&#45;&gt;Box_NodeModel</title>
<path fill="none" stroke="midnightblue" d="M1724,-282.445C1724,-235.933 1724,-189.605 1724,-160.003"/>
<polygon fill="none" stroke="midnightblue" points="1720.5,-282.68 1724,-292.68 1727.5,-282.68 1720.5,-282.68"/>
</g>
<!-- Box_PipeModel -->
<g id="node5" class="node"><title>Box_PipeModel</title>
<polygon fill="#fcfcda" stroke="black" points="1852,-81 1852,-175 2064,-175 2064,-81 1852,-81"/>
<text text-anchor="middle" x="1958" y="-163.8" font-family="Arial" font-size="8.00">PipeModel</text>
<polyline fill="none" stroke="black" points="1852,-157 2064,-157 "/>
<text text-anchor="start" x="1860" y="-145.8" font-family="Arial" font-size="8.00">&#45; Bounds : BoundingSphere[]</text>
<text text-anchor="start" x="1860" y="-135.8" font-family="Arial" font-size="8.00">+ Info : PipeModelInfo</text>
<polyline fill="none" stroke="black" points="1852,-129 2064,-129 "/>
<text text-anchor="start" x="1860" y="-117.8" font-family="Arial" font-size="8.00">+ OnDataChange () : Action</text>
<text text-anchor="start" x="1860" y="-107.8" font-family="Arial" font-size="8.00">+ PipeModel (GameScreen screen, PipeModelInfo info)</text>
<text text-anchor="start" x="1860" y="-97.8" font-family="Arial" font-size="8.00">+ Intersects (Ray ray) : GameObjectDistance</text>
<text text-anchor="start" x="1860" y="-87.8" font-family="Arial" font-size="8.00">+ Draw (GameTime gameTime)</text>
</g>
<!-- Box_GameModel&#45;&gt;Box_PipeModel -->
<g id="edge8" class="edge"><title>Box_GameModel&#45;&gt;Box_PipeModel</title>
<path fill="none" stroke="midnightblue" d="M1840.86,-284.185C1870.73,-244.359 1900.61,-204.516 1922.72,-175.041"/>
<polygon fill="none" stroke="midnightblue" points="1837.69,-282.58 1834.49,-292.68 1843.29,-286.78 1837.69,-282.58"/>
</g>
<!-- Box_TestModel -->
<g id="node6" class="node"><title>Box_TestModel</title>
<polygon fill="#fcfcda" stroke="black" points="2082,-96 2082,-160 2300,-160 2300,-96 2082,-96"/>
<text text-anchor="middle" x="2191" y="-148.8" font-family="Arial" font-size="8.00">TestModel</text>
<polyline fill="none" stroke="black" points="2082,-142 2300,-142 "/>
<text text-anchor="middle" x="2191" y="-130.8" font-family="Arial" font-size="8.00"> </text>
<polyline fill="none" stroke="black" points="2082,-124 2300,-124 "/>
<text text-anchor="start" x="2090" y="-112.8" font-family="Arial" font-size="8.00">+ Update (GameTime gameTime)</text>
<text text-anchor="start" x="2090" y="-102.8" font-family="Arial" font-size="8.00">+ TestModel (GameScreen screen, GameModelInfo info)</text>
</g>
<!-- Box_GameModel&#45;&gt;Box_TestModel -->
<g id="edge10" class="edge"><title>Box_GameModel&#45;&gt;Box_TestModel</title>
<path fill="none" stroke="midnightblue" d="M1845.59,-388.455C1915.6,-355.796 2003.24,-309.651 2073,-256 2109.54,-227.9 2144.42,-187.857 2166.65,-160.07"/>
<polygon fill="none" stroke="midnightblue" points="1843.87,-385.393 1836.27,-392.772 1846.81,-391.745 1843.87,-385.393"/>
</g>
<!-- Box_LineRenderer -->
<g id="node8" class="node"><title>Box_LineRenderer</title>
<polygon fill="#fcfcda" stroke="black" points="-0.5,-56 -0.5,-200 232.5,-200 232.5,-56 -0.5,-56"/>
<text text-anchor="middle" x="116" y="-188.8" font-family="Arial" font-size="8.00">LineRenderer</text>
<polyline fill="none" stroke="black" points="-0.5,-182 232.5,-182 "/>
<text text-anchor="start" x="7.5" y="-170.8" font-family="Arial" font-size="8.00">&#45; edges : EdgeList</text>
<text text-anchor="start" x="7.5" y="-160.8" font-family="Arial" font-size="8.00">&#45; basicEffect : BasicEffect</text>
<text text-anchor="start" x="7.5" y="-150.8" font-family="Arial" font-size="8.00">+ Info : GameObjectInfo</text>
<text text-anchor="start" x="7.5" y="-140.8" font-family="Arial" font-size="8.00">+ World : World</text>
<polyline fill="none" stroke="black" points="-0.5,-134 232.5,-134 "/>
<text text-anchor="start" x="7.5" y="-122.8" font-family="Arial" font-size="8.00">+ LineRenderer (GameScreen screen, GameObjectInfo info)</text>
<text text-anchor="start" x="7.5" y="-112.8" font-family="Arial" font-size="8.00">+ OnEdgesChanged (EdgeList edges)</text>
<text text-anchor="start" x="7.5" y="-102.8" font-family="Arial" font-size="8.00">&#45; DrawRoundedLines ()</text>
<text text-anchor="start" x="7.5" y="-92.8" font-family="Arial" font-size="8.00">+ Intersects (Ray ray) : GameObjectDistance</text>
<text text-anchor="start" x="7.5" y="-82.8" font-family="Arial" font-size="8.00">+ Center () : Vector3</text>
<text text-anchor="start" x="7.5" y="-72.8" font-family="Arial" font-size="8.00">+ Draw (GameTime gameTime)</text>
<text text-anchor="start" x="7.5" y="-62.8" font-family="Arial" font-size="8.00">+ Update (GameTime gameTime)</text>
</g>
<!-- Box_KnotRenderer&#45;&gt;Box_LineRenderer -->
<g id="edge16" class="edge"><title>Box_KnotRenderer&#45;&gt;Box_LineRenderer</title>
<path fill="none" stroke="midnightblue" d="M308.015,-364.793C267.454,-314.774 214.482,-249.449 174.453,-200.084"/>
<polygon fill="none" stroke="midnightblue" points="305.397,-367.122 314.414,-372.685 310.834,-362.713 305.397,-367.122"/>
</g>
<!-- Box_ModelRenderer -->
<g id="node9" class="node"><title>Box_ModelRenderer</title>
<polygon fill="#fcfcda" stroke="black" points="249.5,-21 249.5,-235 488.5,-235 488.5,-21 249.5,-21"/>
<text text-anchor="middle" x="369" y="-223.8" font-family="Arial" font-size="8.00">ModelRenderer</text>
<polyline fill="none" stroke="black" points="249.5,-217 488.5,-217 "/>
<text text-anchor="start" x="257.5" y="-205.8" font-family="Arial" font-size="8.00">&#45; arrows : List&lt;ArrowModel&gt;</text>
<text text-anchor="start" x="257.5" y="-195.8" font-family="Arial" font-size="8.00">&#45; nodes : List&lt;NodeModel&gt;</text>
<text text-anchor="start" x="257.5" y="-185.8" font-family="Arial" font-size="8.00">&#45; arrowFactory : ModelFactory</text>
<text text-anchor="start" x="257.5" y="-175.8" font-family="Arial" font-size="8.00">&#45; nodeFactory : ModelFactory</text>
<text text-anchor="start" x="257.5" y="-165.8" font-family="Arial" font-size="8.00">&#45; pipeFactory : ModelFactory</text>
<text text-anchor="start" x="257.5" y="-155.8" font-family="Arial" font-size="8.00">&#45; pipes : List&lt;PipeModel&gt;</text>
<text text-anchor="start" x="257.5" y="-145.8" font-family="Arial" font-size="8.00">+ Info : GameObjectInfo</text>
<text text-anchor="start" x="257.5" y="-135.8" font-family="Arial" font-size="8.00">+ World : World</text>
<polyline fill="none" stroke="black" points="249.5,-129 488.5,-129 "/>
<text text-anchor="start" x="257.5" y="-117.8" font-family="Arial" font-size="8.00">&#45; IEnumerable.GetEnumerator () : IEnumerator</text>
<text text-anchor="start" x="257.5" y="-107.8" font-family="Arial" font-size="8.00">&#45; CreateArrow (Edge edge)</text>
<text text-anchor="start" x="257.5" y="-97.8" font-family="Arial" font-size="8.00">+ ModelRenderer (GameScreen screen, GameObjectInfo info)</text>
<text text-anchor="start" x="257.5" y="-87.8" font-family="Arial" font-size="8.00">+ Draw (GameTime gameTime)</text>
<text text-anchor="start" x="257.5" y="-77.8" font-family="Arial" font-size="8.00">+ OnEdgesChanged (EdgeList edgeList)</text>
<text text-anchor="start" x="257.5" y="-67.8" font-family="Arial" font-size="8.00">+ GetEnumerator () : IEnumerator&lt;IGameObject&gt;</text>
<text text-anchor="start" x="257.5" y="-57.8" font-family="Arial" font-size="8.00">+ Intersects (Ray ray) : GameObjectDistance</text>
<text text-anchor="start" x="257.5" y="-47.8" font-family="Arial" font-size="8.00">+ Center () : Vector3</text>
<text text-anchor="start" x="257.5" y="-37.8" font-family="Arial" font-size="8.00">+ Update (GameTime gameTime)</text>
<text text-anchor="start" x="257.5" y="-27.8" font-family="Arial" font-size="8.00">+ CreateArrows (WrapList&lt;Edge&gt; selectedEdges)</text>
</g>
<!-- Box_KnotRenderer&#45;&gt;Box_ModelRenderer -->
<g id="edge18" class="edge"><title>Box_KnotRenderer&#45;&gt;Box_ModelRenderer</title>
<path fill="none" stroke="midnightblue" d="M369,-362.583C369,-324.093 369,-276.964 369,-235.073"/>
<polygon fill="none" stroke="midnightblue" points="365.5,-362.685 369,-372.685 372.5,-362.685 365.5,-362.685"/>
</g>
<!-- Box_PipeRenderer -->
<g id="node10" class="node"><title>Box_PipeRenderer</title>
<polygon fill="#fcfcda" stroke="black" points="506,-41 506,-215 724,-215 724,-41 506,-41"/>
<text text-anchor="middle" x="615" y="-203.8" font-family="Arial" font-size="8.00">PipeRenderer</text>
<polyline fill="none" stroke="black" points="506,-197 724,-197 "/>
<text text-anchor="start" x="514" y="-185.8" font-family="Arial" font-size="8.00">&#45; nodes : List&lt;NodeModel&gt;</text>
<text text-anchor="start" x="514" y="-175.8" font-family="Arial" font-size="8.00">&#45; nodeFactory : ModelFactory</text>
<text text-anchor="start" x="514" y="-165.8" font-family="Arial" font-size="8.00">&#45; pipeFactory : ModelFactory</text>
<text text-anchor="start" x="514" y="-155.8" font-family="Arial" font-size="8.00">&#45; pipes : List&lt;PipeModel&gt;</text>
<text text-anchor="start" x="514" y="-145.8" font-family="Arial" font-size="8.00">+ Info : GameObjectInfo</text>
<text text-anchor="start" x="514" y="-135.8" font-family="Arial" font-size="8.00">+ World : World</text>
<polyline fill="none" stroke="black" points="506,-129 724,-129 "/>
<text text-anchor="start" x="514" y="-117.8" font-family="Arial" font-size="8.00">&#45; IEnumerable.GetEnumerator () : IEnumerator</text>
<text text-anchor="start" x="514" y="-107.8" font-family="Arial" font-size="8.00">+ PipeRenderer (GameState state, GameObjectInfo info)</text>
<text text-anchor="start" x="514" y="-97.8" font-family="Arial" font-size="8.00">+ Draw (GameTime gameTime)</text>
<text text-anchor="start" x="514" y="-87.8" font-family="Arial" font-size="8.00">+ OnEdgesChanged (EdgeList edges)</text>
<text text-anchor="start" x="514" y="-77.8" font-family="Arial" font-size="8.00">+ GetEnumerator () : IEnumerator&lt;IGameObject&gt;</text>
<text text-anchor="start" x="514" y="-67.8" font-family="Arial" font-size="8.00">+ Intersects (Ray ray) : GameObjectDistance</text>
<text text-anchor="start" x="514" y="-57.8" font-family="Arial" font-size="8.00">+ Center () : Vector3</text>
<text text-anchor="start" x="514" y="-47.8" font-family="Arial" font-size="8.00">+ Update (GameTime gameTime)</text>
</g>
<!-- Box_KnotRenderer&#45;&gt;Box_PipeRenderer -->
<g id="edge22" class="edge"><title>Box_KnotRenderer&#45;&gt;Box_PipeRenderer</title>
<path fill="none" stroke="midnightblue" d="M426.605,-364.571C444.566,-341.227 464.513,-315.478 483,-292 502.672,-267.018 524.218,-240.075 544.093,-215.389"/>
<polygon fill="none" stroke="midnightblue" points="423.66,-362.659 420.341,-372.721 429.21,-366.926 423.66,-362.659"/>
</g>
<!-- Box_ShadowGameModel -->
<g id="node14" class="node"><title>Box_ShadowGameModel</title>
<polygon fill="#fcfcda" stroke="black" points="1099.5,-86 1099.5,-170 1348.5,-170 1348.5,-86 1099.5,-86"/>
<text text-anchor="middle" x="1224" y="-158.8" font-family="Arial" font-size="8.00">ShadowGameModel</text>
<polyline fill="none" stroke="black" points="1099.5,-152 1348.5,-152 "/>
<text text-anchor="start" x="1107.5" y="-140.8" font-family="Arial" font-size="8.00">+ ShadowColor : Color</text>
<text text-anchor="start" x="1107.5" y="-130.8" font-family="Arial" font-size="8.00">&#45; Model : GameModel</text>
<text text-anchor="start" x="1107.5" y="-120.8" font-family="Arial" font-size="8.00">+ ShadowAlpha : float</text>
<polyline fill="none" stroke="black" points="1099.5,-114 1348.5,-114 "/>
<text text-anchor="start" x="1107.5" y="-102.8" font-family="Arial" font-size="8.00">+ ShadowGameModel (GameScreen screen, GameModel model)</text>
<text text-anchor="start" x="1107.5" y="-92.8" font-family="Arial" font-size="8.00">+ Draw (GameTime gameTime)</text>
</g>
<!-- Box_ShadowGameObject&#45;&gt;Box_ShadowGameModel -->
<g id="edge34" class="edge"><title>Box_ShadowGameObject&#45;&gt;Box_ShadowGameModel</title>
<path fill="none" stroke="midnightblue" d="M1114.66,-358.504C1143.28,-298.156 1181.13,-218.369 1203.96,-170.24"/>
<polygon fill="none" stroke="midnightblue" points="1111.45,-357.102 1110.33,-367.637 1117.77,-360.102 1111.45,-357.102"/>
</g>
<!-- Box_IEdgeChangeListener -->
<g id="node16" class="node"><title>Box_IEdgeChangeListener</title>
<polygon fill="#ffffff" stroke="black" points="322.5,-663 322.5,-681 415.5,-681 415.5,-663 322.5,-663"/>
<text text-anchor="middle" x="369" y="-669.8" font-family="Arial" font-size="8.00">IEdgeChangeListener</text>
</g>
<!-- Box_IEdgeChangeListener&#45;&gt;Box_KnotRenderer -->
<g id="edge12" class="edge"><title>Box_IEdgeChangeListener&#45;&gt;Box_KnotRenderer</title>
<path fill="none" stroke="midnightblue" d="M369,-652.844C369,-621.256 369,-556.791 369,-507.04"/>
<polygon fill="none" stroke="midnightblue" points="365.5,-652.905 369,-662.905 372.5,-652.905 365.5,-652.905"/>
</g>
<!-- Box_IEnumerable -->
<g id="node17" class="node"><title>Box_IEnumerable</title>
<polygon fill="#ffffff" stroke="black" points="783.5,-431 783.5,-449 898.5,-449 898.5,-431 783.5,-431"/>
<text text-anchor="middle" x="841" y="-437.8" font-family="Arial" font-size="8.00">IEnumerable&lt;IGameObject&gt;</text>
</g>
<!-- Box_IEnumerable&#45;&gt;Box_ModelRenderer -->
<g id="edge20" class="edge"><title>Box_IEnumerable&#45;&gt;Box_ModelRenderer</title>
<path fill="none" stroke="midnightblue" d="M838.47,-420.83C833.106,-388.496 817.389,-323.563 775,-292 675.073,-217.592 608.797,-310.985 497,-256 485.438,-250.313 474.296,-243.165 463.736,-235.169"/>
<polygon fill="none" stroke="midnightblue" points="835.021,-421.428 839.963,-430.799 841.944,-420.391 835.021,-421.428"/>
</g>
<!-- Box_IEnumerable&#45;&gt;Box_PipeRenderer -->
<g id="edge24" class="edge"><title>Box_IEnumerable&#45;&gt;Box_PipeRenderer</title>
<path fill="none" stroke="midnightblue" d="M835.552,-421.095C826.404,-391.514 805.873,-333.394 775,-292 760.301,-272.292 750.696,-273.068 733,-256 719.621,-243.096 705.86,-229.005 692.673,-215.041"/>
<polygon fill="none" stroke="midnightblue" points="832.278,-422.363 838.498,-430.94 838.984,-420.356 832.278,-422.363"/>
</g>
<!-- Box_IEnumerable&#45;&gt;Box_PipeMovement -->
<g id="edge30" class="edge"><title>Box_IEnumerable&#45;&gt;Box_PipeMovement</title>
<path fill="none" stroke="midnightblue" d="M845.321,-421.012C852.787,-388.204 868.688,-318.331 883.089,-255.046"/>
<polygon fill="none" stroke="midnightblue" points="841.855,-420.472 843.048,-430.999 848.68,-422.025 841.855,-420.472"/>
</g>
</g>
</svg>
