<?xml version="1.0" encoding="UTF-8" standalone="no"?>
<!DOCTYPE svg PUBLIC "-//W3C//DTD SVG 1.1//EN"
 "http://www.w3.org/Graphics/SVG/1.1/DTD/svg11.dtd">
<!-- Generated by graphviz version 2.26.3 (20100126.1600)
 -->
<!-- Title: MenuItem Pages: 1 -->
<svg width="1850pt" height="1275pt"
 viewBox="0.00 0.00 444.00 306.00" xmlns="http://www.w3.org/2000/svg" xmlns:xlink="http://www.w3.org/1999/xlink">
<g id="graph1" class="graph" transform="scale(4.16667 4.16667) rotate(0) translate(4 302)">
<title>MenuItem</title>
<polygon fill="white" stroke="white" points="-4,5 -4,-302 441,-302 441,5 -4,5"/>
<!-- Box_IKnotIO -->
<g id="node1" class="node"><title>Box_IKnotIO</title>
<polygon fill="#dafcda" stroke="black" points="213.5,-223 213.5,-297 336.5,-297 336.5,-223 213.5,-223"/>
<text text-anchor="middle" x="275" y="-285.8" font-family="Arial" font-size="8.00">IKnotIO</text>
<polyline fill="none" stroke="black" points="213.5,-279 336.5,-279 "/>
<text text-anchor="start" x="221.5" y="-267.8" font-family="Arial" font-size="8.00">+ Edges : IEnumerable&lt;Edge&gt;</text>
<text text-anchor="start" x="221.5" y="-257.8" font-family="Arial" font-size="8.00">+ MetaData : KnotMetaData</text>
<text text-anchor="start" x="221.5" y="-247.8" font-family="Arial" font-size="8.00">+ Name : string</text>
<polyline fill="none" stroke="black" points="213.5,-241 336.5,-241 "/>
<text text-anchor="start" x="221.5" y="-229.8" font-family="Arial" font-size="8.00">+ Save (Knot knot)</text>
</g>
<!-- Box_KnotFileIO -->
<g id="node2" class="node"><title>Box_KnotFileIO</title>
<polygon fill="#fcfcda" stroke="black" points="-0.5,-26 -0.5,-160 226.5,-160 226.5,-26 -0.5,-26"/>
<text text-anchor="middle" x="113" y="-148.8" font-family="Arial" font-size="8.00">KnotFileIO</text>
<polyline fill="none" stroke="black" points="-0.5,-142 226.5,-142 "/>
<text text-anchor="start" x="7.5" y="-130.8" font-family="Arial" font-size="8.00">+ MetaData : KnotMetaData</text>
<text text-anchor="start" x="7.5" y="-120.8" font-family="Arial" font-size="8.00">+ Name : string</text>
<text text-anchor="start" x="7.5" y="-110.8" font-family="Arial" font-size="8.00">&#45; parser : KnotStringIO</text>
<text text-anchor="start" x="7.5" y="-100.8" font-family="Arial" font-size="8.00">+ Edges : IEnumerable&lt;Edge&gt;</text>
<text text-anchor="start" x="7.5" y="-90.8" font-family="Arial" font-size="8.00">+ FileExtensions : string[] static</text>
<polyline fill="none" stroke="black" points="-0.5,-84 226.5,-84 "/>
<text text-anchor="start" x="7.5" y="-72.8" font-family="Arial" font-size="8.00">+ KnotFileIO (Knot knot)</text>
<text text-anchor="start" x="7.5" y="-62.8" font-family="Arial" font-size="8.00">+ Save (Knot knot)</text>
<text text-anchor="start" x="7.5" y="-52.8" font-family="Arial" font-size="8.00">+ KnotFileIO (string filename)</text>
<text text-anchor="start" x="7.5" y="-42.8" font-family="Arial" font-size="8.00">+ ConvertToFilename (string humanReadableName) : string</text>
<text text-anchor="start" x="7.5" y="-32.8" font-family="Arial" font-size="8.00">+ ToString () : string</text>
</g>
<!-- Box_IKnotIO&#45;&gt;Box_KnotFileIO -->
<g id="edge4" class="edge"><title>Box_IKnotIO&#45;&gt;Box_KnotFileIO</title>
<path fill="none" stroke="midnightblue" d="M231.702,-215.365C215.278,-198.435 196.193,-178.76 178.191,-160.203"/>
<polygon fill="none" stroke="midnightblue" points="229.572,-218.197 239.047,-222.937 234.596,-213.323 229.572,-218.197"/>
</g>
<!-- Box_KnotStringIO -->
<g id="node3" class="node"><title>Box_KnotStringIO</title>
<polygon fill="#fcfcda" stroke="black" points="243.5,-1 243.5,-185 436.5,-185 436.5,-1 243.5,-1"/>
<text text-anchor="middle" x="340" y="-173.8" font-family="Arial" font-size="8.00">KnotStringIO</text>
<polyline fill="none" stroke="black" points="243.5,-167 436.5,-167 "/>
<text text-anchor="start" x="251.5" y="-155.8" font-family="Arial" font-size="8.00">+ Edges : IEnumerable&lt;Edge&gt;</text>
<text text-anchor="start" x="251.5" y="-145.8" font-family="Arial" font-size="8.00">+ MetaData : KnotMetaData</text>
<text text-anchor="start" x="251.5" y="-135.8" font-family="Arial" font-size="8.00">+ Name : string</text>
<text text-anchor="start" x="251.5" y="-125.8" font-family="Arial" font-size="8.00">&#45; lines : IEnumerable&lt;string&gt;</text>
<text text-anchor="start" x="251.5" y="-115.8" font-family="Arial" font-size="8.00">&#45; parentIO : IKnotIO</text>
<text text-anchor="start" x="251.5" y="-105.8" font-family="Arial" font-size="8.00">+ Content : string</text>
<polyline fill="none" stroke="black" points="243.5,-99 436.5,-99 "/>
<text text-anchor="start" x="251.5" y="-87.8" font-family="Arial" font-size="8.00">&#45; DecodeEdge (char c) : Edge static</text>
<text text-anchor="start" x="251.5" y="-77.8" font-family="Arial" font-size="8.00">&#45; EncodeEdge (Edge edge) : char static</text>
<text text-anchor="start" x="251.5" y="-67.8" font-family="Arial" font-size="8.00">+ KnotStringIO (string content)</text>
<text text-anchor="start" x="251.5" y="-57.8" font-family="Arial" font-size="8.00">+ Save (Knot knot)</text>
<text text-anchor="start" x="251.5" y="-47.8" font-family="Arial" font-size="8.00">&#45; DecodeColor (string hexString) : Color static</text>
<text text-anchor="start" x="251.5" y="-37.8" font-family="Arial" font-size="8.00">&#45; ToLines (Knot knot) : IEnumerable&lt;string&gt; static</text>
<text text-anchor="start" x="251.5" y="-27.8" font-family="Arial" font-size="8.00">&#45; EncodeColor (Color c) : String static</text>
<text text-anchor="start" x="251.5" y="-17.8" font-family="Arial" font-size="8.00">+ KnotStringIO (string content, IKnotIO parentIO)</text>
<text text-anchor="start" x="251.5" y="-7.8" font-family="Arial" font-size="8.00">+ ToString () : string</text>
</g>
<!-- Box_IKnotIO&#45;&gt;Box_KnotStringIO -->
<g id="edge6" class="edge"><title>Box_IKnotIO&#45;&gt;Box_KnotStringIO</title>
<path fill="none" stroke="midnightblue" d="M293.07,-213.573C296.538,-204.663 300.281,-195.047 304.087,-185.269"/>
<polygon fill="none" stroke="midnightblue" points="289.791,-212.349 289.426,-222.937 296.314,-214.888 289.791,-212.349"/>
</g>
<!-- Box_FileIO -->
<g id="node4" class="node"><title>Box_FileIO</title>
<polygon fill="#ffffff" stroke="black" points="95,-251 95,-269 131,-269 131,-251 95,-251"/>
<text text-anchor="middle" x="113" y="-257.8" font-family="Arial" font-size="8.00">FileIO</text>
</g>
<!-- Box_FileIO&#45;&gt;Box_KnotFileIO -->
<g id="edge2" class="edge"><title>Box_FileIO&#45;&gt;Box_KnotFileIO</title>
<path fill="none" stroke="midnightblue" d="M113,-240.395C113,-220.648 113,-189.05 113,-160.166"/>
<polygon fill="none" stroke="midnightblue" points="109.5,-240.543 113,-250.543 116.5,-240.543 109.5,-240.543"/>
</g>
</g>
</svg>
