<?xml version="1.0" encoding="UTF-8" standalone="no"?>
<!DOCTYPE svg PUBLIC "-//W3C//DTD SVG 1.1//EN"
 "http://www.w3.org/Graphics/SVG/1.1/DTD/svg11.dtd">
<!-- Generated by graphviz version 2.26.3 (20100126.1600)
 -->
<!-- Title: MenuItem Pages: 1 -->
<svg width="1275pt" height="1825pt"
 viewBox="0.00 0.00 306.00 438.00" xmlns="http://www.w3.org/2000/svg" xmlns:xlink="http://www.w3.org/1999/xlink">
<g id="graph1" class="graph" transform="scale(4.16667 4.16667) rotate(0) translate(4 434)">
<title>MenuItem</title>
<polygon fill="white" stroke="white" points="-4,5 -4,-434 303,-434 303,5 -4,5"/>
<!-- Box_BlurEffect -->
<g id="node1" class="node"><title>Box_BlurEffect</title>
<polygon fill="#fcfcda" stroke="black" points="16,-1 16,-85 282,-85 282,-1 16,-1"/>
<text text-anchor="middle" x="149" y="-73.8" font-family="Arial" font-size="8.00">BlurEffect</text>
<polyline fill="none" stroke="black" points="16,-67 282,-67 "/>
<text text-anchor="start" x="24" y="-55.8" font-family="Arial" font-size="8.00">&#45; testEffect : Effect static</text>
<polyline fill="none" stroke="black" points="16,-49 282,-49 "/>
<text text-anchor="start" x="24" y="-37.8" font-family="Arial" font-size="8.00">+ BlurEffect (GameState state)</text>
<text text-anchor="start" x="24" y="-27.8" font-family="Arial" font-size="8.00"># DrawRenderTarget (SpriteBatch spriteBatch, GameTime gameTime)</text>
<text text-anchor="start" x="24" y="-17.8" font-family="Arial" font-size="8.00">+ Begin (Color background, GameTime gameTime)</text>
<text text-anchor="start" x="24" y="-7.8" font-family="Arial" font-size="8.00">+ End (GameTime gameTime)</text>
</g>
<!-- Box_RenderEffect -->
<g id="node2" class="node"><title>Box_RenderEffect</title>
<polygon fill="#fcfcda" stroke="black" points="-0.5,-123 -0.5,-297 298.5,-297 298.5,-123 -0.5,-123"/>
<text text-anchor="middle" x="149" y="-285.8" font-family="Arial" font-size="8.00">RenderEffect</text>
<polyline fill="none" stroke="black" points="-0.5,-279 298.5,-279 "/>
<text text-anchor="start" x="7.5" y="-267.8" font-family="Arial" font-size="8.00">&#45; background : Color</text>
<text text-anchor="start" x="7.5" y="-257.8" font-family="Arial" font-size="8.00">&#45; renderTarget : RenderTargetCache</text>
<text text-anchor="start" x="7.5" y="-247.8" font-family="Arial" font-size="8.00">&#45; spriteBatch : SpriteBatch</text>
<text text-anchor="start" x="7.5" y="-237.8" font-family="Arial" font-size="8.00"># state : GameState</text>
<text text-anchor="start" x="7.5" y="-227.8" font-family="Arial" font-size="8.00">+ RenderTarget : RenderTarget2D</text>
<polyline fill="none" stroke="black" points="-0.5,-221 298.5,-221 "/>
<text text-anchor="start" x="7.5" y="-209.8" font-family="Arial" font-size="8.00"># DrawRenderTarget (SpriteBatch spriteBatch, GameTime gameTime) abstract</text>
<text text-anchor="start" x="7.5" y="-199.8" font-family="Arial" font-size="8.00">+ RenderEffect (GameState state)</text>
<text text-anchor="start" x="7.5" y="-189.8" font-family="Arial" font-size="8.00">+ DrawModel (GameModel model, GameTime gameTime) virtual</text>
<text text-anchor="start" x="7.5" y="-179.8" font-family="Arial" font-size="8.00">+ RemapModel (Model model) virtual</text>
<text text-anchor="start" x="7.5" y="-169.8" font-family="Arial" font-size="8.00">+ Begin (GameTime gameTime)</text>
<text text-anchor="start" x="7.5" y="-159.8" font-family="Arial" font-size="8.00"># ModifyBasicEffect (BasicEffect effect, GameModel model)</text>
<text text-anchor="start" x="7.5" y="-149.8" font-family="Arial" font-size="8.00">+ Begin (Color background, GameTime gameTime) virtual</text>
<text text-anchor="start" x="7.5" y="-139.8" font-family="Arial" font-size="8.00">+ End (GameTime gameTime) virtual</text>
<text text-anchor="start" x="7.5" y="-129.8" font-family="Arial" font-size="8.00">+ DrawLastFrame (GameTime gameTime)</text>
</g>
<!-- Box_RenderEffect&#45;&gt;Box_BlurEffect -->
<g id="edge2" class="edge"><title>Box_RenderEffect&#45;&gt;Box_BlurEffect</title>
<path fill="none" stroke="midnightblue" d="M149,-112.324C149,-102.933 149,-93.7881 149,-85.384"/>
<polygon fill="none" stroke="midnightblue" points="145.5,-112.587 149,-122.587 152.5,-112.587 145.5,-112.587"/>
</g>
<!-- Box_IRenderEffect -->
<g id="node3" class="node"><title>Box_IRenderEffect</title>
<polygon fill="#dafcda" stroke="black" points="40,-335 40,-429 258,-429 258,-335 40,-335"/>
<text text-anchor="middle" x="149" y="-417.8" font-family="Arial" font-size="8.00">IRenderEffect</text>
<polyline fill="none" stroke="black" points="40,-411 258,-411 "/>
<text text-anchor="start" x="48" y="-399.8" font-family="Arial" font-size="8.00">+ RenderTarget : RenderTarget2D</text>
<polyline fill="none" stroke="black" points="40,-393 258,-393 "/>
<text text-anchor="start" x="48" y="-381.8" font-family="Arial" font-size="8.00">+ Begin (GameTime gameTime)</text>
<text text-anchor="start" x="48" y="-371.8" font-family="Arial" font-size="8.00">+ End (GameTime gameTime)</text>
<text text-anchor="start" x="48" y="-361.8" font-family="Arial" font-size="8.00">+ RemapModel (Model model)</text>
<text text-anchor="start" x="48" y="-351.8" font-family="Arial" font-size="8.00">+ DrawModel (GameModel model, GameTime gameTime)</text>
<text text-anchor="start" x="48" y="-341.8" font-family="Arial" font-size="8.00">+ DrawLastFrame (GameTime gameTime)</text>
</g>
<!-- Box_IRenderEffect&#45;&gt;Box_RenderEffect -->
<g id="edge4" class="edge"><title>Box_IRenderEffect&#45;&gt;Box_RenderEffect</title>
<path fill="none" stroke="midnightblue" d="M149,-324.473C149,-315.697 149,-306.474 149,-297.233"/>
<polygon fill="none" stroke="midnightblue" points="145.5,-324.545 149,-334.545 152.5,-324.545 145.5,-324.545"/>
</g>
</g>
</svg>
