<?xml version="1.0" encoding="UTF-8" standalone="no"?>
<!DOCTYPE svg PUBLIC "-//W3C//DTD SVG 1.1//EN"
 "http://www.w3.org/Graphics/SVG/1.1/DTD/svg11.dtd">
<!-- Generated by graphviz version 2.26.3 (20100126.1600)
 -->
<!-- Title: MenuItem Pages: 1 -->
<svg width="1075pt" height="1233pt"
 viewBox="0.00 0.00 258.00 296.00" xmlns="http://www.w3.org/2000/svg" xmlns:xlink="http://www.w3.org/1999/xlink">
<g id="graph1" class="graph" transform="scale(4.16667 4.16667) rotate(0) translate(4 292)">
<title>MenuItem</title>
<polygon fill="white" stroke="white" points="-4,5 -4,-292 255,-292 255,5 -4,5"/>
<!-- Box_MovableGameObject -->
<g id="node1" class="node"><title>Box_MovableGameObject</title>
<polygon fill="#fcfcda" stroke="black" points="-0.5,-1 -0.5,-155 250.5,-155 250.5,-1 -0.5,-1"/>
<text text-anchor="middle" x="125" y="-143.8" font-family="Arial" font-size="8.00">MovableGameObject</text>
<polyline fill="none" stroke="black" points="-0.5,-137 250.5,-137 "/>
<text text-anchor="start" x="7.5" y="-125.8" font-family="Arial" font-size="8.00">&#45; Obj : IGameObject</text>
<text text-anchor="start" x="7.5" y="-115.8" font-family="Arial" font-size="8.00">+ World : World</text>
<text text-anchor="start" x="7.5" y="-105.8" font-family="Arial" font-size="8.00">&#45; screen : GameScreen</text>
<text text-anchor="start" x="7.5" y="-95.8" font-family="Arial" font-size="8.00">+ Info : GameObjectInfo</text>
<polyline fill="none" stroke="black" points="-0.5,-89 250.5,-89 "/>
<text text-anchor="start" x="7.5" y="-77.8" font-family="Arial" font-size="8.00"># CurrentGroundPlane () : Plane</text>
<text text-anchor="start" x="7.5" y="-67.8" font-family="Arial" font-size="8.00">+ MovableGameObject (GameScreen screen, IGameObject obj)</text>
<text text-anchor="start" x="7.5" y="-57.8" font-family="Arial" font-size="8.00">+ Update (GameTime time) virtual</text>
<text text-anchor="start" x="7.5" y="-47.8" font-family="Arial" font-size="8.00"># CurrentMouseRay () : Ray</text>
<text text-anchor="start" x="7.5" y="-37.8" font-family="Arial" font-size="8.00"># CurrentMousePosition (Ray ray, Plane groundPlane) : Vector3?</text>
<text text-anchor="start" x="7.5" y="-27.8" font-family="Arial" font-size="8.00">+ Intersects (Ray ray) : GameObjectDistance</text>
<text text-anchor="start" x="7.5" y="-17.8" font-family="Arial" font-size="8.00">+ Center () : Vector3</text>
<text text-anchor="start" x="7.5" y="-7.8" font-family="Arial" font-size="8.00">+ Draw (GameTime time)</text>
</g>
<!-- Box_IGameObject -->
<g id="node2" class="node"><title>Box_IGameObject</title>
<polygon fill="#dafcda" stroke="black" points="35.5,-193 35.5,-287 214.5,-287 214.5,-193 35.5,-193"/>
<text text-anchor="middle" x="125" y="-275.8" font-family="Arial" font-size="8.00">IGameObject</text>
<polyline fill="none" stroke="black" points="35.5,-269 214.5,-269 "/>
<text text-anchor="start" x="43.5" y="-257.8" font-family="Arial" font-size="8.00">+ Info : GameObjectInfo</text>
<text text-anchor="start" x="43.5" y="-247.8" font-family="Arial" font-size="8.00">+ World : World</text>
<polyline fill="none" stroke="black" points="35.5,-241 214.5,-241 "/>
<text text-anchor="start" x="43.5" y="-229.8" font-family="Arial" font-size="8.00">+ Draw (GameTime time)</text>
<text text-anchor="start" x="43.5" y="-219.8" font-family="Arial" font-size="8.00">+ Update (GameTime time)</text>
<text text-anchor="start" x="43.5" y="-209.8" font-family="Arial" font-size="8.00">+ Intersects (Ray ray) : GameObjectDistance</text>
<text text-anchor="start" x="43.5" y="-199.8" font-family="Arial" font-size="8.00">+ Center () : Vector3</text>
</g>
<!-- Box_IGameObject&#45;&gt;Box_MovableGameObject -->
<g id="edge2" class="edge"><title>Box_IGameObject&#45;&gt;Box_MovableGameObject</title>
<path fill="none" stroke="midnightblue" d="M125,-182.533C125,-173.681 125,-164.419 125,-155.221"/>
<polygon fill="none" stroke="midnightblue" points="121.5,-182.707 125,-192.707 128.5,-182.707 121.5,-182.707"/>
</g>
</g>
</svg>
