<?xml version="1.0" encoding="UTF-8" standalone="no"?>
<!DOCTYPE svg PUBLIC "-//W3C//DTD SVG 1.1//EN"
 "http://www.w3.org/Graphics/SVG/1.1/DTD/svg11.dtd">
<!-- Generated by graphviz version 2.26.3 (20100126.1600)
 -->
<!-- Title: MenuItem Pages: 1 -->
<svg width="459pt" height="892pt"
 viewBox="0.00 0.00 459.00 892.00" xmlns="http://www.w3.org/2000/svg" xmlns:xlink="http://www.w3.org/1999/xlink">
<g id="graph1" class="graph" transform="scale(1 1) rotate(0) translate(4 888)">
<title>MenuItem</title>
<polygon fill="white" stroke="white" points="-4,5 -4,-888 456,-888 456,5 -4,5"/>
<!-- Box_KnotSaveConfirmDialog -->
<g id="node1" class="node"><title>Box_KnotSaveConfirmDialog</title>
<polygon fill="#fcfcda" stroke="black" points="68.5,-1 68.5,-55 451.5,-55 451.5,-1 68.5,-1"/>
<text text-anchor="middle" x="260" y="-43.8" font-family="Arial" font-size="8.00">KnotSaveConfirmDialog</text>
<polyline fill="none" stroke="black" points="68.5,-37 451.5,-37 "/>
<text text-anchor="middle" x="260" y="-25.8" font-family="Arial" font-size="8.00"> </text>
<polyline fill="none" stroke="black" points="68.5,-19 451.5,-19 "/>
<text text-anchor="start" x="76.5" y="-7.8" font-family="Arial" font-size="8.00">+ KnotSaveConfirmDialog (GameScreen screen, WidgetInfo info, DisplayLayer drawOrder, Knot knot)</text>
</g>
<!-- Box_TextInputDialog -->
<g id="node2" class="node"><title>Box_TextInputDialog</title>
<polygon fill="#fcfcda" stroke="black" points="103,-93 103,-177 417,-177 417,-93 103,-93"/>
<text text-anchor="middle" x="260" y="-165.8" font-family="Arial" font-size="8.00">TextInputDialog</text>
<polyline fill="none" stroke="black" points="103,-159 417,-159 "/>
<text text-anchor="start" x="111" y="-147.8" font-family="Arial" font-size="8.00"># TextInput : TextInput</text>
<polyline fill="none" stroke="black" points="103,-141 417,-141 "/>
<text text-anchor="start" x="111" y="-129.8" font-family="Arial" font-size="8.00"># TextInputSize () : Vector2</text>
<text text-anchor="start" x="111" y="-119.8" font-family="Arial" font-size="8.00">+ TextInputDialog (GameScreen screen, WidgetInfo info, DisplayLayer drawOrder)</text>
<text text-anchor="start" x="111" y="-109.8" font-family="Arial" font-size="8.00"># TextInputPosition () : Vector2</text>
<text text-anchor="start" x="111" y="-99.8" font-family="Arial" font-size="8.00">+ SubComponents (GameTime time) : IEnumerable&lt;IGameScreenComponent&gt;</text>
</g>
<!-- Box_TextInputDialog&#45;&gt;Box_KnotSaveConfirmDialog -->
<g id="edge2" class="edge"><title>Box_TextInputDialog&#45;&gt;Box_KnotSaveConfirmDialog</title>
<path fill="none" stroke="midnightblue" d="M260,-82.5276C260,-73.0762 260,-63.582 260,-55.2255"/>
<polygon fill="none" stroke="midnightblue" points="256.5,-82.7107 260,-92.7108 263.5,-82.7108 256.5,-82.7107"/>
</g>
<!-- Box_ConfirmDialog -->
<g id="node3" class="node"><title>Box_ConfirmDialog</title>
<polygon fill="#fcfcda" stroke="black" points="105.5,-215 105.5,-319 414.5,-319 414.5,-215 105.5,-215"/>
<text text-anchor="middle" x="260" y="-307.8" font-family="Arial" font-size="8.00">ConfirmDialog</text>
<polyline fill="none" stroke="black" points="105.5,-301 414.5,-301 "/>
<text text-anchor="start" x="113.5" y="-289.8" font-family="Arial" font-size="8.00"># CanClose : bool</text>
<text text-anchor="start" x="113.5" y="-279.8" font-family="Arial" font-size="8.00"># Text : string[]</text>
<polyline fill="none" stroke="black" points="105.5,-273 414.5,-273 "/>
<text text-anchor="start" x="113.5" y="-261.8" font-family="Arial" font-size="8.00"># OnYesClick () : Action</text>
<text text-anchor="start" x="113.5" y="-251.8" font-family="Arial" font-size="8.00"># OnCancelClick () : Action</text>
<text text-anchor="start" x="113.5" y="-241.8" font-family="Arial" font-size="8.00"># OnNoClick () : Action</text>
<text text-anchor="start" x="113.5" y="-231.8" font-family="Arial" font-size="8.00"># DrawDialog (GameTime time)</text>
<text text-anchor="start" x="113.5" y="-221.8" font-family="Arial" font-size="8.00">+ ConfirmDialog (GameScreen screen, WidgetInfo info, DisplayLayer drawOrder)</text>
</g>
<!-- Box_ConfirmDialog&#45;&gt;Box_TextInputDialog -->
<g id="edge4" class="edge"><title>Box_ConfirmDialog&#45;&gt;Box_TextInputDialog</title>
<path fill="none" stroke="midnightblue" d="M260,-204.727C260,-195.346 260,-185.864 260,-177.043"/>
<polygon fill="none" stroke="midnightblue" points="256.5,-204.83 260,-214.83 263.5,-204.83 256.5,-204.83"/>
</g>
<!-- Box_Dialog -->
<g id="node4" class="node"><title>Box_Dialog</title>
<polygon fill="#fcfcda" stroke="black" points="113.5,-357 113.5,-501 406.5,-501 406.5,-357 113.5,-357"/>
<text text-anchor="middle" x="260" y="-489.8" font-family="Arial" font-size="8.00">Dialog</text>
<polyline fill="none" stroke="black" points="113.5,-483 406.5,-483 "/>
<text text-anchor="start" x="121.5" y="-471.8" font-family="Arial" font-size="8.00"># spriteBatch : SpriteBatch</text>
<text text-anchor="start" x="121.5" y="-461.8" font-family="Arial" font-size="8.00">+ Done : Action</text>
<text text-anchor="start" x="121.5" y="-451.8" font-family="Arial" font-size="8.00">+ buttons : Menu</text>
<polyline fill="none" stroke="black" points="113.5,-445 406.5,-445 "/>
<text text-anchor="start" x="121.5" y="-433.8" font-family="Arial" font-size="8.00">&#45; ButtonBackgroundColor (ItemState itemState) : Color</text>
<text text-anchor="start" x="121.5" y="-423.8" font-family="Arial" font-size="8.00"># RelativeButtonSize (int n) : Vector2</text>
<text text-anchor="start" x="121.5" y="-413.8" font-family="Arial" font-size="8.00">+ Dialog (GameScreen screen, WidgetInfo info, DisplayLayer drawOrder)</text>
<text text-anchor="start" x="121.5" y="-403.8" font-family="Arial" font-size="8.00">&#45; ButtonForegroundColor (ItemState itemState) : Color</text>
<text text-anchor="start" x="121.5" y="-393.8" font-family="Arial" font-size="8.00"># RelativeButtonPosition (int n) : Vector2</text>
<text text-anchor="start" x="121.5" y="-383.8" font-family="Arial" font-size="8.00"># DrawDialog (GameTime time) abstract</text>
<text text-anchor="start" x="121.5" y="-373.8" font-family="Arial" font-size="8.00">+ SubComponents (GameTime time) : IEnumerable&lt;IGameScreenComponent&gt;</text>
<text text-anchor="start" x="121.5" y="-363.8" font-family="Arial" font-size="8.00">+ Draw (GameTime time)</text>
</g>
<!-- Box_Dialog&#45;&gt;Box_ConfirmDialog -->
<g id="edge6" class="edge"><title>Box_Dialog&#45;&gt;Box_ConfirmDialog</title>
<path fill="none" stroke="midnightblue" d="M260,-346.423C260,-337.099 260,-327.802 260,-319.027"/>
<polygon fill="none" stroke="midnightblue" points="256.5,-346.529 260,-356.529 263.5,-346.529 256.5,-346.529"/>
</g>
<!-- Box_Widget -->
<g id="node5" class="node"><title>Box_Widget</title>
<polygon fill="#fcfcda" stroke="black" points="118,-539 118,-613 402,-613 402,-539 118,-539"/>
<text text-anchor="middle" x="260" y="-601.8" font-family="Arial" font-size="8.00">Widget</text>
<polyline fill="none" stroke="black" points="118,-595 402,-595 "/>
<text text-anchor="start" x="126" y="-583.8" font-family="Arial" font-size="8.00">+ Info : WidgetInfo</text>
<text text-anchor="start" x="126" y="-573.8" font-family="Arial" font-size="8.00">+ IsVisible : bool virtual</text>
<polyline fill="none" stroke="black" points="118,-567 402,-567 "/>
<text text-anchor="start" x="126" y="-555.8" font-family="Arial" font-size="8.00">+ bounds () : Rectangle</text>
<text text-anchor="start" x="126" y="-545.8" font-family="Arial" font-size="8.00">+ Widget (GameScreen screen, WidgetInfo info, DisplayLayer drawOrder)</text>
</g>
<!-- Box_Widget&#45;&gt;Box_Dialog -->
<g id="edge8" class="edge"><title>Box_Widget&#45;&gt;Box_Dialog</title>
<path fill="none" stroke="midnightblue" d="M260,-528.801C260,-519.931 260,-510.473 260,-501.047"/>
<polygon fill="none" stroke="midnightblue" points="256.5,-528.906 260,-538.906 263.5,-528.906 256.5,-528.906"/>
</g>
<!-- Box_DrawableGameScreenComponent -->
<g id="node6" class="node"><title>Box_DrawableGameScreenComponent</title>
<polygon fill="#fcfcda" stroke="black" points="101.5,-651 101.5,-735 418.5,-735 418.5,-651 101.5,-651"/>
<text text-anchor="middle" x="260" y="-723.8" font-family="Arial" font-size="8.00">DrawableGameScreenComponent</text>
<polyline fill="none" stroke="black" points="101.5,-717 418.5,-717 "/>
<text text-anchor="start" x="109.5" y="-705.8" font-family="Arial" font-size="8.00">+ Index : DisplayLayer</text>
<text text-anchor="start" x="109.5" y="-695.8" font-family="Arial" font-size="8.00">&#45; _index : DisplayLayer</text>
<text text-anchor="start" x="109.5" y="-685.8" font-family="Arial" font-size="8.00">+ screen : GameScreen</text>
<polyline fill="none" stroke="black" points="101.5,-679 418.5,-679 "/>
<text text-anchor="start" x="109.5" y="-667.8" font-family="Arial" font-size="8.00">+ DrawableGameScreenComponent (GameScreen screen, DisplayLayer index)</text>
<text text-anchor="start" x="109.5" y="-657.8" font-family="Arial" font-size="8.00">+ SubComponents (GameTime time) : IEnumerable&lt;IGameScreenComponent&gt; virtual</text>
</g>
<!-- Box_DrawableGameScreenComponent&#45;&gt;Box_Widget -->
<g id="edge10" class="edge"><title>Box_DrawableGameScreenComponent&#45;&gt;Box_Widget</title>
<path fill="none" stroke="midnightblue" d="M260,-640.482C260,-631.258 260,-621.834 260,-613.14"/>
<polygon fill="none" stroke="midnightblue" points="256.5,-640.76 260,-650.76 263.5,-640.76 256.5,-640.76"/>
</g>
<!-- Box_IGameScreenComponent -->
<g id="node7" class="node"><title>Box_IGameScreenComponent</title>
<polygon fill="#dafcda" stroke="black" points="-0.5,-773 -0.5,-827 292.5,-827 292.5,-773 -0.5,-773"/>
<text text-anchor="middle" x="146" y="-815.8" font-family="Arial" font-size="8.00">IGameScreenComponent</text>
<polyline fill="none" stroke="black" points="-0.5,-809 292.5,-809 "/>
<text text-anchor="start" x="7.5" y="-797.8" font-family="Arial" font-size="8.00">+ Index : DisplayLayer</text>
<polyline fill="none" stroke="black" points="-0.5,-791 292.5,-791 "/>
<text text-anchor="start" x="7.5" y="-779.8" font-family="Arial" font-size="8.00">+ SubComponents (GameTime time) : IEnumerable&lt;IGameScreenComponent&gt;</text>
</g>
<!-- Box_IGameScreenComponent&#45;&gt;Box_DrawableGameScreenComponent -->
<g id="edge14" class="edge"><title>Box_IGameScreenComponent&#45;&gt;Box_DrawableGameScreenComponent</title>
<path fill="none" stroke="midnightblue" d="M182.116,-766.102C192.502,-756.354 203.961,-745.598 214.821,-735.404"/>
<polygon fill="none" stroke="midnightblue" points="179.663,-763.604 174.767,-772.999 184.454,-768.708 179.663,-763.604"/>
</g>
<!-- Box_XnaDrawableGameComponent -->
<g id="node8" class="node"><title>Box_XnaDrawableGameComponent</title>
<polygon fill="#ffffff" stroke="black" points="310,-791 310,-809 440,-809 440,-791 310,-791"/>
<text text-anchor="middle" x="375" y="-797.8" font-family="Arial" font-size="8.00">Xna.DrawableGameComponent</text>
</g>
<!-- Box_XnaDrawableGameComponent&#45;&gt;Box_DrawableGameScreenComponent -->
<g id="edge12" class="edge"><title>Box_XnaDrawableGameComponent&#45;&gt;Box_DrawableGameScreenComponent</title>
<path fill="none" stroke="midnightblue" d="M357.824,-784.018C343.966,-771.124 323.815,-752.376 305.399,-735.241"/>
<polygon fill="none" stroke="midnightblue" points="355.49,-786.628 365.195,-790.877 360.258,-781.503 355.49,-786.628"/>
</g>
<!-- Box_XnaIGameComponent -->
<g id="node9" class="node"><title>Box_XnaIGameComponent</title>
<polygon fill="#ffffff" stroke="black" points="98,-865 98,-883 194,-883 194,-865 98,-865"/>
<text text-anchor="middle" x="146" y="-871.8" font-family="Arial" font-size="8.00">Xna.IGameComponent</text>
</g>
<!-- Box_XnaIGameComponent&#45;&gt;Box_IGameScreenComponent -->
<g id="edge16" class="edge"><title>Box_XnaIGameComponent&#45;&gt;Box_IGameScreenComponent</title>
<path fill="none" stroke="midnightblue" d="M146,-854.64C146,-846.2 146,-836.16 146,-827.004"/>
<polygon fill="none" stroke="midnightblue" points="142.5,-854.926 146,-864.926 149.5,-854.926 142.5,-854.926"/>
</g>
</g>
</svg>
