<?xml version="1.0" encoding="UTF-8" standalone="no"?>
<!DOCTYPE svg PUBLIC "-//W3C//DTD SVG 1.1//EN"
 "http://www.w3.org/Graphics/SVG/1.1/DTD/svg11.dtd">
<!-- Generated by graphviz version 2.26.3 (20100126.1600)
 -->
<!-- Title: MenuItem Pages: 1 -->
<svg width="2312pt" height="3458pt"
 viewBox="0.00 0.00 555.00 830.00" xmlns="http://www.w3.org/2000/svg" xmlns:xlink="http://www.w3.org/1999/xlink">
<g id="graph1" class="graph" transform="scale(4.16667 4.16667) rotate(0) translate(4 826)">
<title>MenuItem</title>
<polygon fill="white" stroke="white" points="-4,5 -4,-826 552,-826 552,5 -4,5"/>
<!-- Box_GameState -->
<g id="node1" class="node"><title>Box_GameState</title>
<polygon fill="#fcfcda" stroke="black" points="-0.5,-607 -0.5,-821 368.5,-821 368.5,-607 -0.5,-607"/>
<text text-anchor="middle" x="184" y="-809.8" font-family="Arial" font-size="8.00">GameState</text>
<polyline fill="none" stroke="black" points="-0.5,-803 368.5,-803 "/>
<text text-anchor="start" x="7.5" y="-791.8" font-family="Arial" font-size="8.00">+ content : ContentManager</text>
<text text-anchor="start" x="7.5" y="-781.8" font-family="Arial" font-size="8.00">+ NextState : GameState</text>
<text text-anchor="start" x="7.5" y="-771.8" font-family="Arial" font-size="8.00">+ device : GraphicsDevice</text>
<text text-anchor="start" x="7.5" y="-761.8" font-family="Arial" font-size="8.00">+ RenderEffects : RenderEffectStack</text>
<text text-anchor="start" x="7.5" y="-751.8" font-family="Arial" font-size="8.00">+ viewport : Viewport</text>
<text text-anchor="start" x="7.5" y="-741.8" font-family="Arial" font-size="8.00">+ game : Game</text>
<text text-anchor="start" x="7.5" y="-731.8" font-family="Arial" font-size="8.00">+ graphics : GraphicsDeviceManager</text>
<text text-anchor="start" x="7.5" y="-721.8" font-family="Arial" font-size="8.00">+ input : Input</text>
<text text-anchor="start" x="7.5" y="-711.8" font-family="Arial" font-size="8.00">+ PostProcessing : RenderEffect</text>
<polyline fill="none" stroke="black" points="-0.5,-705 368.5,-705 "/>
<text text-anchor="start" x="7.5" y="-693.8" font-family="Arial" font-size="8.00">+ Draw (GameTime gameTime) abstract</text>
<text text-anchor="start" x="7.5" y="-683.8" font-family="Arial" font-size="8.00">+ Initialize () abstract</text>
<text text-anchor="start" x="7.5" y="-673.8" font-family="Arial" font-size="8.00">+ Unload () abstract</text>
<text text-anchor="start" x="7.5" y="-663.8" font-family="Arial" font-size="8.00">+ Activate (GameTime gameTime) virtual</text>
<text text-anchor="start" x="7.5" y="-653.8" font-family="Arial" font-size="8.00">+ GameState (Game game)</text>
<text text-anchor="start" x="7.5" y="-643.8" font-family="Arial" font-size="8.00">+ Update (GameTime gameTime) abstract</text>
<text text-anchor="start" x="7.5" y="-633.8" font-family="Arial" font-size="8.00">+ Deactivate (GameTime gameTime) virtual</text>
<text text-anchor="start" x="7.5" y="-623.8" font-family="Arial" font-size="8.00">+ AddGameComponents (GameTime gameTime, params IGameStateComponent[] components)</text>
<text text-anchor="start" x="7.5" y="-613.8" font-family="Arial" font-size="8.00">+ RemoveGameComponents (GameTime gameTime, params IGameStateComponent[] components)</text>
</g>
<!-- Box_CreativeModeScreen -->
<g id="node2" class="node"><title>Box_CreativeModeScreen</title>
<polygon fill="#fcfcda" stroke="black" points="1,-335 1,-569 171,-569 171,-335 1,-335"/>
<text text-anchor="middle" x="86" y="-557.8" font-family="Arial" font-size="8.00">CreativeModeScreen</text>
<polyline fill="none" stroke="black" points="1,-551 171,-551 "/>
<text text-anchor="start" x="9" y="-539.8" font-family="Arial" font-size="8.00">&#45; dialog : Dialog</text>
<text text-anchor="start" x="9" y="-529.8" font-family="Arial" font-size="8.00">&#45; lineRenderer : LineRenderer</text>
<text text-anchor="start" x="9" y="-519.8" font-family="Arial" font-size="8.00">&#45; picker : ModelMousePicker</text>
<text text-anchor="start" x="9" y="-509.8" font-family="Arial" font-size="8.00">&#45; pipeRenderer : ModelRenderer</text>
<text text-anchor="start" x="9" y="-499.8" font-family="Arial" font-size="8.00">&#45; pointer : MousePointer</text>
<text text-anchor="start" x="9" y="-489.8" font-family="Arial" font-size="8.00">&#45; overlay : Overlay</text>
<text text-anchor="start" x="9" y="-479.8" font-family="Arial" font-size="8.00">&#45; coloring : PipeColoring</text>
<text text-anchor="start" x="9" y="-469.8" font-family="Arial" font-size="8.00">&#45; movement : PipeMovement</text>
<text text-anchor="start" x="9" y="-459.8" font-family="Arial" font-size="8.00">&#45; world : World</text>
<text text-anchor="start" x="9" y="-449.8" font-family="Arial" font-size="8.00">&#45; knotModified : bool</text>
<text text-anchor="start" x="9" y="-439.8" font-family="Arial" font-size="8.00">+ Knot : Knot</text>
<text text-anchor="start" x="9" y="-429.8" font-family="Arial" font-size="8.00">&#45; knot : Knot</text>
<polyline fill="none" stroke="black" points="1,-423 171,-423 "/>
<text text-anchor="start" x="9" y="-411.8" font-family="Arial" font-size="8.00">&#45; UpdateInput (GameTime gameTime)</text>
<text text-anchor="start" x="9" y="-401.8" font-family="Arial" font-size="8.00">+ CreativeModeScreen (Core.Game game)</text>
<text text-anchor="start" x="9" y="-391.8" font-family="Arial" font-size="8.00">+ Activate (GameTime gameTime)</text>
<text text-anchor="start" x="9" y="-381.8" font-family="Arial" font-size="8.00">+ Draw (GameTime gameTime)</text>
<text text-anchor="start" x="9" y="-371.8" font-family="Arial" font-size="8.00">+ Initialize ()</text>
<text text-anchor="start" x="9" y="-361.8" font-family="Arial" font-size="8.00">+ LoadFile (string file)</text>
<text text-anchor="start" x="9" y="-351.8" font-family="Arial" font-size="8.00">+ Unload ()</text>
<text text-anchor="start" x="9" y="-341.8" font-family="Arial" font-size="8.00">+ Update (GameTime gameTime)</text>
</g>
<!-- Box_GameState&#45;&gt;Box_CreativeModeScreen -->
<g id="edge2" class="edge"><title>Box_GameState&#45;&gt;Box_CreativeModeScreen</title>
<path fill="none" stroke="midnightblue" d="M140.281,-597.12C136.835,-587.907 133.354,-578.6 129.907,-569.384"/>
<polygon fill="none" stroke="midnightblue" points="137.075,-598.539 143.857,-606.679 143.632,-596.086 137.075,-598.539"/>
</g>
<!-- Box_MenuScreen -->
<g id="node3" class="node"><title>Box_MenuScreen</title>
<polygon fill="#fcfcda" stroke="black" points="189,-360 189,-544 377,-544 377,-360 189,-360"/>
<text text-anchor="middle" x="283" y="-532.8" font-family="Arial" font-size="8.00">MenuScreen</text>
<polyline fill="none" stroke="black" points="189,-526 377,-526 "/>
<text text-anchor="start" x="197" y="-514.8" font-family="Arial" font-size="8.00">&#45; backColor : Color</text>
<text text-anchor="start" x="197" y="-504.8" font-family="Arial" font-size="8.00">&#45; pointer : MousePointer</text>
<text text-anchor="start" x="197" y="-494.8" font-family="Arial" font-size="8.00"># LinePoints : List&lt;Vector2&gt;</text>
<text text-anchor="start" x="197" y="-484.8" font-family="Arial" font-size="8.00"># LineWidth : int</text>
<text text-anchor="start" x="197" y="-474.8" font-family="Arial" font-size="8.00">&#45; spriteBatch : SpriteBatch</text>
<polyline fill="none" stroke="black" points="189,-468 377,-468 "/>
<text text-anchor="start" x="197" y="-456.8" font-family="Arial" font-size="8.00">+ MenuScreen (Core.Game game)</text>
<text text-anchor="start" x="197" y="-446.8" font-family="Arial" font-size="8.00">+ Activate (GameTime gameTime)</text>
<text text-anchor="start" x="197" y="-436.8" font-family="Arial" font-size="8.00">+ Draw (GameTime gameTime)</text>
<text text-anchor="start" x="197" y="-426.8" font-family="Arial" font-size="8.00"># BackgroundColor (ItemState itemState) : Color</text>
<text text-anchor="start" x="197" y="-416.8" font-family="Arial" font-size="8.00"># ForegroundColor (ItemState itemState) : Color</text>
<text text-anchor="start" x="197" y="-406.8" font-family="Arial" font-size="8.00">+ DrawMenu (GameTime gameTime) abstract</text>
<text text-anchor="start" x="197" y="-396.8" font-family="Arial" font-size="8.00">+ UpdateMenu (GameTime gameTime) abstract</text>
<text text-anchor="start" x="197" y="-386.8" font-family="Arial" font-size="8.00">+ Initialize ()</text>
<text text-anchor="start" x="197" y="-376.8" font-family="Arial" font-size="8.00">+ Unload ()</text>
<text text-anchor="start" x="197" y="-366.8" font-family="Arial" font-size="8.00">+ Update (GameTime gameTime)</text>
</g>
<!-- Box_GameState&#45;&gt;Box_MenuScreen -->
<g id="edge4" class="edge"><title>Box_GameState&#45;&gt;Box_MenuScreen</title>
<path fill="none" stroke="midnightblue" d="M228.252,-596.889C234.94,-579.19 241.757,-561.148 248.208,-544.076"/>
<polygon fill="none" stroke="midnightblue" points="224.813,-596.087 224.553,-606.679 231.362,-598.561 224.813,-596.087"/>
</g>
<!-- Box_StartScreen -->
<g id="node4" class="node"><title>Box_StartScreen</title>
<polygon fill="#fcfcda" stroke="black" points="25,-168 25,-282 177,-282 177,-168 25,-168"/>
<text text-anchor="middle" x="101" y="-270.8" font-family="Arial" font-size="8.00">StartScreen</text>
<polyline fill="none" stroke="black" points="25,-264 177,-264 "/>
<text text-anchor="start" x="33" y="-252.8" font-family="Arial" font-size="8.00">&#45; spriteBatch : SpriteBatch</text>
<text text-anchor="start" x="33" y="-242.8" font-family="Arial" font-size="8.00">&#45; logo : Texture2D</text>
<text text-anchor="start" x="33" y="-232.8" font-family="Arial" font-size="8.00"># menu : Menu</text>
<polyline fill="none" stroke="black" points="25,-226 177,-226 "/>
<text text-anchor="start" x="33" y="-214.8" font-family="Arial" font-size="8.00">+ StartScreen (Game game)</text>
<text text-anchor="start" x="33" y="-204.8" font-family="Arial" font-size="8.00">+ Activate (GameTime gameTime)</text>
<text text-anchor="start" x="33" y="-194.8" font-family="Arial" font-size="8.00">+ UpdateMenu (GameTime gameTime)</text>
<text text-anchor="start" x="33" y="-184.8" font-family="Arial" font-size="8.00">+ DrawMenu (GameTime gameTime)</text>
<text text-anchor="start" x="33" y="-174.8" font-family="Arial" font-size="8.00">+ Initialize ()</text>
</g>
<!-- Box_MenuScreen&#45;&gt;Box_StartScreen -->
<g id="edge6" class="edge"><title>Box_MenuScreen&#45;&gt;Box_StartScreen</title>
<path fill="none" stroke="midnightblue" d="M202.777,-351.941C183.642,-328.075 163.862,-303.405 146.887,-282.232"/>
<polygon fill="none" stroke="midnightblue" points="200.25,-354.385 209.236,-359.998 205.711,-350.006 200.25,-354.385"/>
</g>
<!-- Box_LoadSavegameScreen -->
<g id="node5" class="node"><title>Box_LoadSavegameScreen</title>
<polygon fill="#fcfcda" stroke="black" points="195,-153 195,-297 371,-297 371,-153 195,-153"/>
<text text-anchor="middle" x="283" y="-285.8" font-family="Arial" font-size="8.00">LoadSavegameScreen</text>
<polyline fill="none" stroke="black" points="195,-279 371,-279 "/>
<text text-anchor="start" x="203" y="-267.8" font-family="Arial" font-size="8.00">&#45; spriteBatch : SpriteBatch</text>
<text text-anchor="start" x="203" y="-257.8" font-family="Arial" font-size="8.00">&#45; menu : VerticalMenu</text>
<text text-anchor="start" x="203" y="-247.8" font-family="Arial" font-size="8.00">&#45; format : IKnotFormat</text>
<polyline fill="none" stroke="black" points="195,-241 371,-241 "/>
<text text-anchor="start" x="203" y="-229.8" font-family="Arial" font-size="8.00">+ LoadSavegameScreen (Core.Game game)</text>
<text text-anchor="start" x="203" y="-219.8" font-family="Arial" font-size="8.00">+ Activate (GameTime gameTime)</text>
<text text-anchor="start" x="203" y="-209.8" font-family="Arial" font-size="8.00">+ DrawMenu (GameTime gameTime)</text>
<text text-anchor="start" x="203" y="-199.8" font-family="Arial" font-size="8.00">&#45; AddDefaultKnots ()</text>
<text text-anchor="start" x="203" y="-189.8" font-family="Arial" font-size="8.00">&#45; AddFileToList (string filename)</text>
<text text-anchor="start" x="203" y="-179.8" font-family="Arial" font-size="8.00">&#45; UpdateFiles ()</text>
<text text-anchor="start" x="203" y="-169.8" font-family="Arial" font-size="8.00">+ Initialize ()</text>
<text text-anchor="start" x="203" y="-159.8" font-family="Arial" font-size="8.00">+ UpdateMenu (GameTime gameTime)</text>
</g>
<!-- Box_MenuScreen&#45;&gt;Box_LoadSavegameScreen -->
<g id="edge8" class="edge"><title>Box_MenuScreen&#45;&gt;Box_LoadSavegameScreen</title>
<path fill="none" stroke="midnightblue" d="M283,-349.646C283,-331.971 283,-313.933 283,-297.267"/>
<polygon fill="none" stroke="midnightblue" points="279.5,-349.998 283,-359.998 286.5,-349.998 279.5,-349.998"/>
</g>
<!-- Box_OptionScreen -->
<g id="node6" class="node"><title>Box_OptionScreen</title>
<polygon fill="#fcfcda" stroke="black" points="389,-173 389,-277 541,-277 541,-173 389,-173"/>
<text text-anchor="middle" x="465" y="-265.8" font-family="Arial" font-size="8.00">OptionScreen</text>
<polyline fill="none" stroke="black" points="389,-259 541,-259 "/>
<text text-anchor="start" x="397" y="-247.8" font-family="Arial" font-size="8.00">&#45; spriteBatch : SpriteBatch</text>
<text text-anchor="start" x="397" y="-237.8" font-family="Arial" font-size="8.00">&#45; menu : VerticalMenu</text>
<polyline fill="none" stroke="black" points="389,-231 541,-231 "/>
<text text-anchor="start" x="397" y="-219.8" font-family="Arial" font-size="8.00">+ OptionScreen (Core.Game game)</text>
<text text-anchor="start" x="397" y="-209.8" font-family="Arial" font-size="8.00">+ Activate (GameTime gameTime)</text>
<text text-anchor="start" x="397" y="-199.8" font-family="Arial" font-size="8.00">+ DrawMenu (GameTime gameTime)</text>
<text text-anchor="start" x="397" y="-189.8" font-family="Arial" font-size="8.00">+ UpdateMenu (GameTime gameTime)</text>
<text text-anchor="start" x="397" y="-179.8" font-family="Arial" font-size="8.00">+ Initialize ()</text>
</g>
<!-- Box_MenuScreen&#45;&gt;Box_OptionScreen -->
<g id="edge10" class="edge"><title>Box_MenuScreen&#45;&gt;Box_OptionScreen</title>
<path fill="none" stroke="midnightblue" d="M363.172,-352.005C383.915,-326.133 405.419,-299.312 423.291,-277.022"/>
<polygon fill="none" stroke="midnightblue" points="360.289,-350.006 356.764,-359.998 365.75,-354.385 360.289,-350.006"/>
</g>
<!-- Box_VideoOptionScreen -->
<g id="node7" class="node"><title>Box_VideoOptionScreen</title>
<polygon fill="#fcfcda" stroke="black" points="383,-1 383,-115 547,-115 547,-1 383,-1"/>
<text text-anchor="middle" x="465" y="-103.8" font-family="Arial" font-size="8.00">VideoOptionScreen</text>
<polyline fill="none" stroke="black" points="383,-97 547,-97 "/>
<text text-anchor="start" x="391" y="-85.8" font-family="Arial" font-size="8.00">&#45; spriteBatch : SpriteBatch</text>
<text text-anchor="start" x="391" y="-75.8" font-family="Arial" font-size="8.00">&#45; menu : VerticalMenu</text>
<polyline fill="none" stroke="black" points="383,-69 547,-69 "/>
<text text-anchor="start" x="391" y="-57.8" font-family="Arial" font-size="8.00">+ VideoOptionScreen (Core.Game game)</text>
<text text-anchor="start" x="391" y="-47.8" font-family="Arial" font-size="8.00">+ Activate (GameTime gameTime)</text>
<text text-anchor="start" x="391" y="-37.8" font-family="Arial" font-size="8.00">+ DrawMenu (GameTime gameTime)</text>
<text text-anchor="start" x="391" y="-27.8" font-family="Arial" font-size="8.00">+ Initialize ()</text>
<text text-anchor="start" x="391" y="-17.8" font-family="Arial" font-size="8.00">+ UpdateMenu (GameTime gameTime)</text>
<text text-anchor="start" x="391" y="-7.8" font-family="Arial" font-size="8.00">+ Collapse (MenuItem item)</text>
</g>
<!-- Box_OptionScreen&#45;&gt;Box_VideoOptionScreen -->
<g id="edge12" class="edge"><title>Box_OptionScreen&#45;&gt;Box_VideoOptionScreen</title>
<path fill="none" stroke="midnightblue" d="M465,-162.57C465,-147.012 465,-130.41 465,-115.122"/>
<polygon fill="none" stroke="midnightblue" points="461.5,-162.618 465,-172.618 468.5,-162.618 461.5,-162.618"/>
</g>
</g>
</svg>
