<?xml version="1.0" encoding="UTF-8" standalone="no"?>
<!DOCTYPE svg PUBLIC "-//W3C//DTD SVG 1.1//EN"
 "http://www.w3.org/Graphics/SVG/1.1/DTD/svg11.dtd">
<!-- Generated by graphviz version 2.26.3 (20100126.1600)
 -->
<!-- Title: MenuItem Pages: 1 -->
<svg width="1522pt" height="830pt"
 viewBox="0.00 0.00 1522.00 830.00" xmlns="http://www.w3.org/2000/svg" xmlns:xlink="http://www.w3.org/1999/xlink">
<g id="graph1" class="graph" transform="scale(1 1) rotate(0) translate(4 826)">
<title>MenuItem</title>
<polygon fill="white" stroke="white" points="-4,5 -4,-826 1519,-826 1519,5 -4,5"/>
<!-- Box_GameStateComponent -->
<g id="node1" class="node"><title>Box_GameStateComponent</title>
<polygon fill="#fcfcda" stroke="black" points="662.5,-533 662.5,-641 1003.5,-641 1003.5,-533 662.5,-533"/>
<text text-anchor="middle" x="833" y="-629.8" font-family="Helvetica,sans-Serif" font-size="8.00">GameStateComponent</text>
<polyline fill="none" stroke="black" points="662.5,-621 1003.5,-621 "/>
<text text-anchor="start" x="670.5" y="-609.8" font-family="Helvetica,sans-Serif" font-size="8.00">Attributes:</text>
<text text-anchor="start" x="670.5" y="-597.8" font-family="Helvetica,sans-Serif" font-size="8.00">+ Index : DisplayLayer</text>
<text text-anchor="start" x="670.5" y="-585.8" font-family="Helvetica,sans-Serif" font-size="8.00">+ state : GameState</text>
<text text-anchor="start" x="670.5" y="-573.8" font-family="Helvetica,sans-Serif" font-size="8.00">Methods:</text>
<polyline fill="none" stroke="black" points="662.5,-565 1003.5,-565 "/>
<text text-anchor="start" x="670.5" y="-553.8" font-family="Helvetica,sans-Serif" font-size="8.00">+ GameStateComponent (GameState state, DisplayLayer index)</text>
<text text-anchor="start" x="670.5" y="-541.8" font-family="Helvetica,sans-Serif" font-size="8.00">+ SubComponents (GameTime gameTime) : IEnumerable&lt;IGameStateComponent&gt; virtual</text>
</g>
<!-- Box_Camera -->
<g id="node3" class="node"><title>Box_Camera</title>
<polygon fill="#fcfcda" stroke="black" points="1346,-111 1346,-495 1514,-495 1514,-111 1346,-111"/>
<text text-anchor="middle" x="1430" y="-483.8" font-family="Helvetica,sans-Serif" font-size="8.00">Camera</text>
<polyline fill="none" stroke="black" points="1346,-475 1514,-475 "/>
<text text-anchor="start" x="1354" y="-463.8" font-family="Helvetica,sans-Serif" font-size="8.00">Attributes:</text>
<text text-anchor="start" x="1354" y="-451.8" font-family="Helvetica,sans-Serif" font-size="8.00">&#45; AutoRotation : Angles3</text>
<text text-anchor="start" x="1354" y="-439.8" font-family="Helvetica,sans-Serif" font-size="8.00">&#45; _target : Vector3</text>
<text text-anchor="start" x="1354" y="-427.8" font-family="Helvetica,sans-Serif" font-size="8.00">&#45; aspectRatio : float</text>
<text text-anchor="start" x="1354" y="-415.8" font-family="Helvetica,sans-Serif" font-size="8.00">&#45; farPlane : float</text>
<text text-anchor="start" x="1354" y="-403.8" font-family="Helvetica,sans-Serif" font-size="8.00">&#45; nearPlane : float</text>
<text text-anchor="start" x="1354" y="-391.8" font-family="Helvetica,sans-Serif" font-size="8.00">+ Position : Vector3</text>
<text text-anchor="start" x="1354" y="-379.8" font-family="Helvetica,sans-Serif" font-size="8.00">+ Target : Vector3</text>
<text text-anchor="start" x="1354" y="-367.8" font-family="Helvetica,sans-Serif" font-size="8.00">+ TargetDirection : Vector3</text>
<text text-anchor="start" x="1354" y="-355.8" font-family="Helvetica,sans-Serif" font-size="8.00">+ UpVector : Vector3</text>
<text text-anchor="start" x="1354" y="-343.8" font-family="Helvetica,sans-Serif" font-size="8.00">+ FoV : float</text>
<text text-anchor="start" x="1354" y="-331.8" font-family="Helvetica,sans-Serif" font-size="8.00">&#45; World : World</text>
<text text-anchor="start" x="1354" y="-319.8" font-family="Helvetica,sans-Serif" font-size="8.00">&#45; _position : Vector3</text>
<text text-anchor="start" x="1354" y="-307.8" font-family="Helvetica,sans-Serif" font-size="8.00">&#45; foV : float</text>
<text text-anchor="start" x="1354" y="-295.8" font-family="Helvetica,sans-Serif" font-size="8.00">+ RotationAngle : Angles3</text>
<text text-anchor="start" x="1354" y="-283.8" font-family="Helvetica,sans-Serif" font-size="8.00">+ ViewFrustum : BoundingFrustum</text>
<text text-anchor="start" x="1354" y="-271.8" font-family="Helvetica,sans-Serif" font-size="8.00">+ ProjectionMatrix : Matrix</text>
<text text-anchor="start" x="1354" y="-259.8" font-family="Helvetica,sans-Serif" font-size="8.00">+ ViewMatrix : Matrix</text>
<text text-anchor="start" x="1354" y="-247.8" font-family="Helvetica,sans-Serif" font-size="8.00">+ WorldMatrix : Matrix</text>
<text text-anchor="start" x="1354" y="-235.8" font-family="Helvetica,sans-Serif" font-size="8.00">+ ArcballTarget : Vector3</text>
<text text-anchor="start" x="1354" y="-223.8" font-family="Helvetica,sans-Serif" font-size="8.00">+ DefaultPosition : Vector3</text>
<text text-anchor="start" x="1354" y="-211.8" font-family="Helvetica,sans-Serif" font-size="8.00">+ TargetDistance : float</text>
<text text-anchor="start" x="1354" y="-199.8" font-family="Helvetica,sans-Serif" font-size="8.00">Methods:</text>
<polyline fill="none" stroke="black" points="1346,-191 1514,-191 "/>
<text text-anchor="start" x="1354" y="-179.8" font-family="Helvetica,sans-Serif" font-size="8.00">+ OnViewChanged () : Action</text>
<text text-anchor="start" x="1354" y="-167.8" font-family="Helvetica,sans-Serif" font-size="8.00">+ Camera (GameState state, World world)</text>
<text text-anchor="start" x="1354" y="-155.8" font-family="Helvetica,sans-Serif" font-size="8.00">+ GetMouseRay (Vector2 mouse) : Ray</text>
<text text-anchor="start" x="1354" y="-143.8" font-family="Helvetica,sans-Serif" font-size="8.00">&#45; UpdateMatrices (GameTime gameTime)</text>
<text text-anchor="start" x="1354" y="-131.8" font-family="Helvetica,sans-Serif" font-size="8.00">&#45; UpdateRotation (GameTime gameTime)</text>
<text text-anchor="start" x="1354" y="-119.8" font-family="Helvetica,sans-Serif" font-size="8.00">+ Update (GameTime gameTime)</text>
</g>
<!-- Box_GameStateComponent&#45;&gt;Box_Camera -->
<g id="edge8" class="edge"><title>Box_GameStateComponent&#45;&gt;Box_Camera</title>
<path fill="none" stroke="midnightblue" d="M1013.54,-571.713C1136.86,-558.084 1286.7,-534.255 1337,-496 1339.96,-493.748 1342.83,-491.378 1345.62,-488.902"/>
<polygon fill="none" stroke="midnightblue" points="1013.14,-568.235 1003.58,-572.798 1013.9,-575.194 1013.14,-568.235"/>
</g>
<!-- Box_ClickHandler -->
<g id="node4" class="node"><title>Box_ClickHandler</title>
<polygon fill="#fcfcda" stroke="black" points="608,-255 608,-351 746,-351 746,-255 608,-255"/>
<text text-anchor="middle" x="677" y="-339.8" font-family="Helvetica,sans-Serif" font-size="8.00">ClickHandler</text>
<polyline fill="none" stroke="black" points="608,-331 746,-331 "/>
<text text-anchor="start" x="616" y="-319.8" font-family="Helvetica,sans-Serif" font-size="8.00">Attributes:</text>
<text text-anchor="start" x="616" y="-307.8" font-family="Helvetica,sans-Serif" font-size="8.00">&#45; ClickEventComponent : class</text>
<text text-anchor="start" x="616" y="-295.8" font-family="Helvetica,sans-Serif" font-size="8.00">Methods:</text>
<polyline fill="none" stroke="black" points="608,-287 746,-287 "/>
<text text-anchor="start" x="616" y="-275.8" font-family="Helvetica,sans-Serif" font-size="8.00">+ ClickHandler (GameState state)</text>
<text text-anchor="start" x="616" y="-263.8" font-family="Helvetica,sans-Serif" font-size="8.00">+ Update (GameTime gameTime)</text>
</g>
<!-- Box_GameStateComponent&#45;&gt;Box_ClickHandler -->
<g id="edge10" class="edge"><title>Box_GameStateComponent&#45;&gt;Box_ClickHandler</title>
<path fill="none" stroke="midnightblue" d="M775.217,-524.837C767.916,-515.525 760.937,-505.763 755,-496 726.834,-449.682 704.896,-391.381 691.557,-351.043"/>
<polygon fill="none" stroke="midnightblue" points="772.702,-527.295 781.697,-532.893 778.156,-522.907 772.702,-527.295"/>
</g>
<!-- Box_Input -->
<g id="node5" class="node"><title>Box_Input</title>
<polygon fill="#fcfcda" stroke="black" points="304,-153 304,-453 590,-453 590,-153 304,-153"/>
<text text-anchor="middle" x="447" y="-441.8" font-family="Helvetica,sans-Serif" font-size="8.00">Input</text>
<polyline fill="none" stroke="black" points="304,-433 590,-433 "/>
<text text-anchor="start" x="312" y="-421.8" font-family="Helvetica,sans-Serif" font-size="8.00">Attributes:</text>
<text text-anchor="start" x="312" y="-409.8" font-family="Helvetica,sans-Serif" font-size="8.00">&#45; PreviousClickMouseState : MouseState static</text>
<text text-anchor="start" x="312" y="-397.8" font-family="Helvetica,sans-Serif" font-size="8.00">&#45; LeftButtonClickTimer : double static</text>
<text text-anchor="start" x="312" y="-385.8" font-family="Helvetica,sans-Serif" font-size="8.00">&#45; RightButtonClickTimer : double static</text>
<text text-anchor="start" x="312" y="-373.8" font-family="Helvetica,sans-Serif" font-size="8.00">+ GrabMouseMovement : bool</text>
<text text-anchor="start" x="312" y="-361.8" font-family="Helvetica,sans-Serif" font-size="8.00">+ LeftButton : ClickState static</text>
<text text-anchor="start" x="312" y="-349.8" font-family="Helvetica,sans-Serif" font-size="8.00">+ RightButton : ClickState static</text>
<text text-anchor="start" x="312" y="-337.8" font-family="Helvetica,sans-Serif" font-size="8.00">+ PreviousKeyboardState : KeyboardState static</text>
<text text-anchor="start" x="312" y="-325.8" font-family="Helvetica,sans-Serif" font-size="8.00">+ MouseState : MouseState static</text>
<text text-anchor="start" x="312" y="-313.8" font-family="Helvetica,sans-Serif" font-size="8.00">+ PreviousMouseState : MouseState static</text>
<text text-anchor="start" x="312" y="-301.8" font-family="Helvetica,sans-Serif" font-size="8.00"># FullscreenToggled : bool static</text>
<text text-anchor="start" x="312" y="-289.8" font-family="Helvetica,sans-Serif" font-size="8.00">+ CurrentInputAction : InputAction</text>
<text text-anchor="start" x="312" y="-277.8" font-family="Helvetica,sans-Serif" font-size="8.00">+ ValidKeys : List&lt;Keys&gt;</text>
<text text-anchor="start" x="312" y="-265.8" font-family="Helvetica,sans-Serif" font-size="8.00">+ WASDMode : WASDMode</text>
<text text-anchor="start" x="312" y="-253.8" font-family="Helvetica,sans-Serif" font-size="8.00">+ IsKeyEventEnabled : bool</text>
<text text-anchor="start" x="312" y="-241.8" font-family="Helvetica,sans-Serif" font-size="8.00">+ KeyboardState : KeyboardState static</text>
<text text-anchor="start" x="312" y="-229.8" font-family="Helvetica,sans-Serif" font-size="8.00">Methods:</text>
<polyline fill="none" stroke="black" points="304,-221 590,-221 "/>
<text text-anchor="start" x="312" y="-209.8" font-family="Helvetica,sans-Serif" font-size="8.00"># UpdateMouse (GameTime gameTime) virtual</text>
<text text-anchor="start" x="312" y="-197.8" font-family="Helvetica,sans-Serif" font-size="8.00">+ Update (GameTime gameTime)</text>
<text text-anchor="start" x="312" y="-185.8" font-family="Helvetica,sans-Serif" font-size="8.00">+ OnKeyEvent (List&lt;Keys&gt; key, KeyEvent keyEvent, GameTime gameTime)</text>
<text text-anchor="start" x="312" y="-173.8" font-family="Helvetica,sans-Serif" font-size="8.00"># UpdateKeys (GameTime gameTime) virtual</text>
<text text-anchor="start" x="312" y="-161.8" font-family="Helvetica,sans-Serif" font-size="8.00">+ Input (GameState state)</text>
</g>
<!-- Box_GameStateComponent&#45;&gt;Box_Input -->
<g id="edge12" class="edge"><title>Box_GameStateComponent&#45;&gt;Box_Input</title>
<path fill="none" stroke="midnightblue" d="M653.27,-528.741C634.147,-519.192 615.634,-508.315 599,-496 582.203,-483.565 566.268,-468.819 551.479,-453.103"/>
<polygon fill="none" stroke="midnightblue" points="651.873,-531.953 662.396,-533.178 654.933,-525.658 651.873,-531.953"/>
</g>
<!-- Box_KeyHandler -->
<g id="node7" class="node"><title>Box_KeyHandler</title>
<polygon fill="#fcfcda" stroke="black" points="764,-255 764,-351 902,-351 902,-255 764,-255"/>
<text text-anchor="middle" x="833" y="-339.8" font-family="Helvetica,sans-Serif" font-size="8.00">KeyHandler</text>
<polyline fill="none" stroke="black" points="764,-331 902,-331 "/>
<text text-anchor="start" x="772" y="-319.8" font-family="Helvetica,sans-Serif" font-size="8.00">Attributes:</text>
<text text-anchor="start" x="772" y="-307.8" font-family="Helvetica,sans-Serif" font-size="8.00">&#45; KeyEventComponent : class</text>
<text text-anchor="start" x="772" y="-295.8" font-family="Helvetica,sans-Serif" font-size="8.00">Methods:</text>
<polyline fill="none" stroke="black" points="764,-287 902,-287 "/>
<text text-anchor="start" x="772" y="-275.8" font-family="Helvetica,sans-Serif" font-size="8.00">+ KeyHandler (GameState state)</text>
<text text-anchor="start" x="772" y="-263.8" font-family="Helvetica,sans-Serif" font-size="8.00">+ Update (GameTime gameTime)</text>
</g>
<!-- Box_GameStateComponent&#45;&gt;Box_KeyHandler -->
<g id="edge18" class="edge"><title>Box_GameStateComponent&#45;&gt;Box_KeyHandler</title>
<path fill="none" stroke="midnightblue" d="M833,-522.78C833,-470.701 833,-398.436 833,-351.209"/>
<polygon fill="none" stroke="midnightblue" points="829.5,-522.913 833,-532.913 836.5,-522.913 829.5,-522.913"/>
</g>
<!-- Box_ModelMousePicker -->
<g id="node8" class="node"><title>Box_ModelMousePicker</title>
<polygon fill="#fcfcda" stroke="black" points="920,-231 920,-375 1126,-375 1126,-231 920,-231"/>
<text text-anchor="middle" x="1023" y="-363.8" font-family="Helvetica,sans-Serif" font-size="8.00">ModelMousePicker</text>
<polyline fill="none" stroke="black" points="920,-355 1126,-355 "/>
<text text-anchor="start" x="928" y="-343.8" font-family="Helvetica,sans-Serif" font-size="8.00">Attributes:</text>
<text text-anchor="start" x="928" y="-331.8" font-family="Helvetica,sans-Serif" font-size="8.00">&#45; lastMousePosition : Vector2</text>
<text text-anchor="start" x="928" y="-319.8" font-family="Helvetica,sans-Serif" font-size="8.00">&#45; World : World</text>
<text text-anchor="start" x="928" y="-307.8" font-family="Helvetica,sans-Serif" font-size="8.00">&#45; lastRayCheck : double</text>
<text text-anchor="start" x="928" y="-295.8" font-family="Helvetica,sans-Serif" font-size="8.00">Methods:</text>
<polyline fill="none" stroke="black" points="920,-287 1126,-287 "/>
<text text-anchor="start" x="928" y="-275.8" font-family="Helvetica,sans-Serif" font-size="8.00">&#45; UpdateMouseRay (GameTime gameTime)</text>
<text text-anchor="start" x="928" y="-263.8" font-family="Helvetica,sans-Serif" font-size="8.00">+ ModelMousePicker (GameState state, World world)</text>
<text text-anchor="start" x="928" y="-251.8" font-family="Helvetica,sans-Serif" font-size="8.00">&#45; CheckMouseRay (GameTime gameTime)</text>
<text text-anchor="start" x="928" y="-239.8" font-family="Helvetica,sans-Serif" font-size="8.00">+ Update (GameTime gameTime)</text>
</g>
<!-- Box_GameStateComponent&#45;&gt;Box_ModelMousePicker -->
<g id="edge20" class="edge"><title>Box_GameStateComponent&#45;&gt;Box_ModelMousePicker</title>
<path fill="none" stroke="midnightblue" d="M888.664,-525.074C896.452,-515.559 904.132,-505.677 911,-496 938.242,-457.615 964.854,-412.192 985.298,-375.058"/>
<polygon fill="none" stroke="midnightblue" points="885.806,-523.038 882.112,-532.968 891.192,-527.509 885.806,-523.038"/>
</g>
<!-- Box_MousePicker -->
<g id="node9" class="node"><title>Box_MousePicker</title>
<polygon fill="#fcfcda" stroke="black" points="1143.5,-237 1143.5,-369 1328.5,-369 1328.5,-237 1143.5,-237"/>
<text text-anchor="middle" x="1236" y="-357.8" font-family="Helvetica,sans-Serif" font-size="8.00">MousePicker</text>
<polyline fill="none" stroke="black" points="1143.5,-349 1328.5,-349 "/>
<text text-anchor="start" x="1151.5" y="-337.8" font-family="Helvetica,sans-Serif" font-size="8.00">Attributes:</text>
<text text-anchor="start" x="1151.5" y="-325.8" font-family="Helvetica,sans-Serif" font-size="8.00">&#45; lastMousePosition : Vector2</text>
<text text-anchor="start" x="1151.5" y="-313.8" font-family="Helvetica,sans-Serif" font-size="8.00">&#45; World : World</text>
<text text-anchor="start" x="1151.5" y="-301.8" font-family="Helvetica,sans-Serif" font-size="8.00">&#45; lastRayCheck : double</text>
<text text-anchor="start" x="1151.5" y="-289.8" font-family="Helvetica,sans-Serif" font-size="8.00">Methods:</text>
<polyline fill="none" stroke="black" points="1143.5,-281 1328.5,-281 "/>
<text text-anchor="start" x="1151.5" y="-269.8" font-family="Helvetica,sans-Serif" font-size="8.00">+ MousePicker (GameState state, World world)</text>
<text text-anchor="start" x="1151.5" y="-257.8" font-family="Helvetica,sans-Serif" font-size="8.00">+ Update (GameTime gameTime)</text>
<text text-anchor="start" x="1151.5" y="-245.8" font-family="Helvetica,sans-Serif" font-size="8.00">+ UpdateMouseRay (GameTime gameTime)</text>
</g>
<!-- Box_GameStateComponent&#45;&gt;Box_MousePicker -->
<g id="edge22" class="edge"><title>Box_GameStateComponent&#45;&gt;Box_MousePicker</title>
<path fill="none" stroke="midnightblue" d="M1013.49,-557.81C1056.67,-544.355 1100.27,-524.702 1135,-496 1174.5,-463.355 1200.48,-411.198 1216.19,-369.33"/>
<polygon fill="none" stroke="midnightblue" points="1012.27,-554.522 1003.7,-560.757 1014.29,-561.225 1012.27,-554.522"/>
</g>
<!-- Box_PipeColoring -->
<g id="node10" class="node"><title>Box_PipeColoring</title>
<polygon fill="#fcfcda" stroke="black" points="0,-237 0,-369 286,-369 286,-237 0,-237"/>
<text text-anchor="middle" x="143" y="-357.8" font-family="Helvetica,sans-Serif" font-size="8.00">PipeColoring</text>
<polyline fill="none" stroke="black" points="0,-349 286,-349 "/>
<text text-anchor="start" x="8" y="-337.8" font-family="Helvetica,sans-Serif" font-size="8.00">Attributes:</text>
<text text-anchor="start" x="8" y="-325.8" font-family="Helvetica,sans-Serif" font-size="8.00">+ ValidKeys : List&lt;Keys&gt;</text>
<text text-anchor="start" x="8" y="-313.8" font-family="Helvetica,sans-Serif" font-size="8.00">+ Knot : Knot</text>
<text text-anchor="start" x="8" y="-301.8" font-family="Helvetica,sans-Serif" font-size="8.00">+ IsKeyEventEnabled : bool</text>
<text text-anchor="start" x="8" y="-289.8" font-family="Helvetica,sans-Serif" font-size="8.00">Methods:</text>
<polyline fill="none" stroke="black" points="0,-281 286,-281 "/>
<text text-anchor="start" x="8" y="-269.8" font-family="Helvetica,sans-Serif" font-size="8.00">+ OnKeyEvent (List&lt;Keys&gt; key, KeyEvent keyEvent, GameTime gameTime)</text>
<text text-anchor="start" x="8" y="-257.8" font-family="Helvetica,sans-Serif" font-size="8.00">+ PipeColoring (GameState state)</text>
<text text-anchor="start" x="8" y="-245.8" font-family="Helvetica,sans-Serif" font-size="8.00">+ Update (GameTime gameTime)</text>
</g>
<!-- Box_GameStateComponent&#45;&gt;Box_PipeColoring -->
<g id="edge24" class="edge"><title>Box_GameStateComponent&#45;&gt;Box_PipeColoring</title>
<path fill="none" stroke="midnightblue" d="M652.171,-570.457C520.14,-555.788 354.298,-531.193 295,-496 244.385,-465.96 204.17,-412.224 177.85,-369.067"/>
<polygon fill="none" stroke="midnightblue" points="652.097,-573.97 662.419,-571.584 652.861,-567.012 652.097,-573.97"/>
</g>
<!-- Box_IGameStateComponent -->
<g id="node2" class="node"><title>Box_IGameStateComponent</title>
<polygon fill="#dafcda" stroke="black" points="561,-679 561,-763 879,-763 879,-679 561,-679"/>
<text text-anchor="middle" x="720" y="-751.8" font-family="Helvetica,sans-Serif" font-size="8.00">IGameStateComponent</text>
<polyline fill="none" stroke="black" points="561,-743 879,-743 "/>
<text text-anchor="start" x="569" y="-731.8" font-family="Helvetica,sans-Serif" font-size="8.00">Attributes:</text>
<text text-anchor="start" x="569" y="-719.8" font-family="Helvetica,sans-Serif" font-size="8.00">+ Index : DisplayLayer</text>
<text text-anchor="start" x="569" y="-707.8" font-family="Helvetica,sans-Serif" font-size="8.00">Methods:</text>
<polyline fill="none" stroke="black" points="561,-699 879,-699 "/>
<text text-anchor="start" x="569" y="-687.8" font-family="Helvetica,sans-Serif" font-size="8.00">+ SubComponents (GameTime gameTime) : IEnumerable&lt;IGameStateComponent&gt;</text>
</g>
<!-- Box_IGameStateComponent&#45;&gt;Box_GameStateComponent -->
<g id="edge4" class="edge"><title>Box_IGameStateComponent&#45;&gt;Box_GameStateComponent</title>
<path fill="none" stroke="midnightblue" d="M761.958,-671.244C770.219,-661.448 778.924,-651.125 787.301,-641.192"/>
<polygon fill="none" stroke="midnightblue" points="759.215,-669.068 755.444,-678.969 764.566,-673.581 759.215,-669.068"/>
</g>
<!-- Box_MenuScreenInput -->
<g id="node6" class="node"><title>Box_MenuScreenInput</title>
<polygon fill="#fcfcda" stroke="black" points="369.5,-1 369.5,-73 524.5,-73 524.5,-1 369.5,-1"/>
<text text-anchor="middle" x="447" y="-61.8" font-family="Helvetica,sans-Serif" font-size="8.00">MenuScreenInput</text>
<polyline fill="none" stroke="black" points="369.5,-53 524.5,-53 "/>
<text text-anchor="start" x="377.5" y="-41.8" font-family="Helvetica,sans-Serif" font-size="8.00">Attributes:</text>
<text text-anchor="start" x="377.5" y="-29.8" font-family="Helvetica,sans-Serif" font-size="8.00">Methods:</text>
<polyline fill="none" stroke="black" points="369.5,-21 524.5,-21 "/>
<text text-anchor="start" x="377.5" y="-9.8" font-family="Helvetica,sans-Serif" font-size="8.00">+ MenuScreenInput (GameState state)</text>
</g>
<!-- Box_Input&#45;&gt;Box_MenuScreenInput -->
<g id="edge16" class="edge"><title>Box_Input&#45;&gt;Box_MenuScreenInput</title>
<path fill="none" stroke="midnightblue" d="M447,-142.819C447,-116.686 447,-92.0153 447,-73.0793"/>
<polygon fill="none" stroke="midnightblue" points="443.5,-142.898 447,-152.898 450.5,-142.898 443.5,-142.898"/>
</g>
<!-- Box_XnaGameComponent -->
<g id="node11" class="node"><title>Box_XnaGameComponent</title>
<polygon fill="#ffffff" stroke="black" points="896.5,-711 896.5,-731 993.5,-731 993.5,-711 896.5,-711"/>
<text text-anchor="middle" x="945" y="-719.8" font-family="Helvetica,sans-Serif" font-size="8.00">Xna.GameComponent</text>
</g>
<!-- Box_XnaGameComponent&#45;&gt;Box_GameStateComponent -->
<g id="edge2" class="edge"><title>Box_XnaGameComponent&#45;&gt;Box_GameStateComponent</title>
<path fill="none" stroke="midnightblue" d="M929.96,-703.006C916.691,-687.13 896.651,-663.153 878.227,-641.111"/>
<polygon fill="none" stroke="midnightblue" points="927.483,-705.5 936.582,-710.928 932.854,-701.011 927.483,-705.5"/>
</g>
<!-- Box_XnaIGameComponent -->
<g id="node12" class="node"><title>Box_XnaIGameComponent</title>
<polygon fill="#ffffff" stroke="black" points="670.5,-801 670.5,-821 769.5,-821 769.5,-801 670.5,-801"/>
<text text-anchor="middle" x="720" y="-809.8" font-family="Helvetica,sans-Serif" font-size="8.00">Xna.IGameComponent</text>
</g>
<!-- Box_XnaIGameComponent&#45;&gt;Box_IGameStateComponent -->
<g id="edge6" class="edge"><title>Box_XnaIGameComponent&#45;&gt;Box_IGameStateComponent</title>
<path fill="none" stroke="midnightblue" d="M720,-790.454C720,-782.393 720,-772.828 720,-763.414"/>
<polygon fill="none" stroke="midnightblue" points="716.5,-790.676 720,-800.676 723.5,-790.676 716.5,-790.676"/>
</g>
<!-- Box_IKeyEventListener -->
<g id="node13" class="node"><title>Box_IKeyEventListener</title>
<polygon fill="#ffffff" stroke="black" points="254.5,-577 254.5,-597 335.5,-597 335.5,-577 254.5,-577"/>
<text text-anchor="middle" x="295" y="-585.8" font-family="Helvetica,sans-Serif" font-size="8.00">IKeyEventListener</text>
</g>
<!-- Box_IKeyEventListener&#45;&gt;Box_Input -->
<g id="edge14" class="edge"><title>Box_IKeyEventListener&#45;&gt;Box_Input</title>
<path fill="none" stroke="midnightblue" d="M305.153,-568.03C318.187,-543.678 342.055,-499.082 366.542,-453.329"/>
<polygon fill="none" stroke="midnightblue" points="302.043,-566.424 300.41,-576.892 308.214,-569.727 302.043,-566.424"/>
</g>
<!-- Box_IKeyEventListener&#45;&gt;Box_PipeColoring -->
<g id="edge26" class="edge"><title>Box_IKeyEventListener&#45;&gt;Box_PipeColoring</title>
<path fill="none" stroke="midnightblue" d="M284.807,-567.956C263.427,-528.009 213.017,-433.822 178.444,-369.224"/>
<polygon fill="none" stroke="midnightblue" points="281.786,-569.727 289.59,-576.892 287.957,-566.424 281.786,-569.727"/>
</g>
</g>
</svg>
