<?xml version="1.0" encoding="UTF-8" standalone="no"?>
<!DOCTYPE svg PUBLIC "-//W3C//DTD SVG 1.1//EN"
 "http://www.w3.org/Graphics/SVG/1.1/DTD/svg11.dtd">
<!-- Generated by graphviz version 2.26.3 (20100126.1600)
 -->
<!-- Title: MenuItem Pages: 1 -->
<svg width="552pt" height="516pt"
 viewBox="0.00 0.00 552.00 516.00" xmlns="http://www.w3.org/2000/svg" xmlns:xlink="http://www.w3.org/1999/xlink">
<g id="graph1" class="graph" transform="scale(1 1) rotate(0) translate(4 512)">
<title>MenuItem</title>
<polygon fill="white" stroke="white" points="-4,5 -4,-512 549,-512 549,5 -4,5"/>
<!-- Box_GameObjectInfo -->
<g id="node1" class="node"><title>Box_GameObjectInfo</title>
<polygon fill="#fcfcda" stroke="black" points="196.5,-293 196.5,-449 375.5,-449 375.5,-293 196.5,-293"/>
<text text-anchor="middle" x="286" y="-437.8" font-family="Helvetica,sans-Serif" font-size="8.00">GameObjectInfo</text>
<polyline fill="none" stroke="black" points="196.5,-429 375.5,-429 "/>
<text text-anchor="start" x="204.5" y="-417.8" font-family="Helvetica,sans-Serif" font-size="8.00">+ Position : Vector3</text>
<text text-anchor="start" x="204.5" y="-405.8" font-family="Helvetica,sans-Serif" font-size="8.00">+ IsVisible : bool</text>
<text text-anchor="start" x="204.5" y="-393.8" font-family="Helvetica,sans-Serif" font-size="8.00">+ IsSelectable : bool</text>
<text text-anchor="start" x="204.5" y="-381.8" font-family="Helvetica,sans-Serif" font-size="8.00">+ IsMovable : bool</text>
<text text-anchor="start" x="204.5" y="-369.8" font-family="Helvetica,sans-Serif" font-size="8.00">+ operator : bool static</text>
<text text-anchor="start" x="204.5" y="-357.8" font-family="Helvetica,sans-Serif" font-size="8.00">+ operator ! : bool static</text>
<polyline fill="none" stroke="black" points="196.5,-349 375.5,-349 "/>
<text text-anchor="start" x="204.5" y="-337.8" font-family="Helvetica,sans-Serif" font-size="8.00">+ GameObjectInfo ()</text>
<text text-anchor="start" x="204.5" y="-325.8" font-family="Helvetica,sans-Serif" font-size="8.00">+ Equals (GameObjectInfo other) : bool virtual</text>
<text text-anchor="start" x="204.5" y="-313.8" font-family="Helvetica,sans-Serif" font-size="8.00">+ Equals (Object obj) : bool override</text>
<text text-anchor="start" x="204.5" y="-301.8" font-family="Helvetica,sans-Serif" font-size="8.00">+ GetHashCode () : int override</text>
</g>
<!-- Box_GameModelInfo -->
<g id="node4" class="node"><title>Box_GameModelInfo</title>
<polygon fill="#fcfcda" stroke="black" points="192,-159 192,-255 380,-255 380,-159 192,-159"/>
<text text-anchor="middle" x="286" y="-243.8" font-family="Helvetica,sans-Serif" font-size="8.00">GameModelInfo</text>
<polyline fill="none" stroke="black" points="192,-235 380,-235 "/>
<text text-anchor="start" x="200" y="-223.8" font-family="Helvetica,sans-Serif" font-size="8.00">+ Modelname : string</text>
<text text-anchor="start" x="200" y="-211.8" font-family="Helvetica,sans-Serif" font-size="8.00">+ Rotation : Angles3</text>
<text text-anchor="start" x="200" y="-199.8" font-family="Helvetica,sans-Serif" font-size="8.00">+ Scale : float</text>
<polyline fill="none" stroke="black" points="192,-191 380,-191 "/>
<text text-anchor="start" x="200" y="-179.8" font-family="Helvetica,sans-Serif" font-size="8.00">+ GameModelInfo (string modelname)</text>
<text text-anchor="start" x="200" y="-167.8" font-family="Helvetica,sans-Serif" font-size="8.00">+ Equals (GameObjectInfo other) : bool override</text>
</g>
<!-- Box_GameObjectInfo&#45;&gt;Box_GameModelInfo -->
<g id="edge8" class="edge"><title>Box_GameObjectInfo&#45;&gt;Box_GameModelInfo</title>
<path fill="none" stroke="midnightblue" d="M286,-282.584C286,-273.149 286,-263.828 286,-255.125"/>
<polygon fill="none" stroke="midnightblue" points="282.5,-282.842 286,-292.842 289.5,-282.843 282.5,-282.842"/>
</g>
<!-- Box_NodeModelInfo -->
<g id="node2" class="node"><title>Box_NodeModelInfo</title>
<polygon fill="#fcfcda" stroke="black" points="-0.5,-13 -0.5,-109 292.5,-109 292.5,-13 -0.5,-13"/>
<text text-anchor="middle" x="146" y="-97.8" font-family="Helvetica,sans-Serif" font-size="8.00">NodeModelInfo</text>
<polyline fill="none" stroke="black" points="-0.5,-89 292.5,-89 "/>
<text text-anchor="start" x="7.5" y="-77.8" font-family="Helvetica,sans-Serif" font-size="8.00">+ Edges : EdgeList</text>
<text text-anchor="start" x="7.5" y="-65.8" font-family="Helvetica,sans-Serif" font-size="8.00">+ EdgeA : Edge</text>
<text text-anchor="start" x="7.5" y="-53.8" font-family="Helvetica,sans-Serif" font-size="8.00">+ EdgeB : Edge</text>
<polyline fill="none" stroke="black" points="-0.5,-45 292.5,-45 "/>
<text text-anchor="start" x="7.5" y="-33.8" font-family="Helvetica,sans-Serif" font-size="8.00">+ NodeModelInfo (EdgeList edges, Edge edgeA, Edge edgeB, Vector3 offset)</text>
<text text-anchor="start" x="7.5" y="-21.8" font-family="Helvetica,sans-Serif" font-size="8.00">+ Equals (GameObjectInfo other) : bool override</text>
</g>
<!-- Box_PipeModelInfo -->
<g id="node3" class="node"><title>Box_PipeModelInfo</title>
<polygon fill="#fcfcda" stroke="black" points="309.5,-1 309.5,-121 544.5,-121 544.5,-1 309.5,-1"/>
<text text-anchor="middle" x="427" y="-109.8" font-family="Helvetica,sans-Serif" font-size="8.00">PipeModelInfo</text>
<polyline fill="none" stroke="black" points="309.5,-101 544.5,-101 "/>
<text text-anchor="start" x="317.5" y="-89.8" font-family="Helvetica,sans-Serif" font-size="8.00">+ Edges : EdgeList</text>
<text text-anchor="start" x="317.5" y="-77.8" font-family="Helvetica,sans-Serif" font-size="8.00">+ Edge : Edge</text>
<text text-anchor="start" x="317.5" y="-65.8" font-family="Helvetica,sans-Serif" font-size="8.00">+ Direction : Vector3</text>
<text text-anchor="start" x="317.5" y="-53.8" font-family="Helvetica,sans-Serif" font-size="8.00">+ PositionFrom : Vector3</text>
<text text-anchor="start" x="317.5" y="-41.8" font-family="Helvetica,sans-Serif" font-size="8.00">+ PositionTo : Vector3</text>
<polyline fill="none" stroke="black" points="309.5,-33 544.5,-33 "/>
<text text-anchor="start" x="317.5" y="-21.8" font-family="Helvetica,sans-Serif" font-size="8.00">+ PipeModelInfo (EdgeList edges, Edge edge, Vector3 offset)</text>
<text text-anchor="start" x="317.5" y="-9.8" font-family="Helvetica,sans-Serif" font-size="8.00">+ Equals (GameObjectInfo other) : bool override</text>
</g>
<!-- Box_GameModelInfo&#45;&gt;Box_NodeModelInfo -->
<g id="edge4" class="edge"><title>Box_GameModelInfo&#45;&gt;Box_NodeModelInfo</title>
<path fill="none" stroke="midnightblue" d="M232.49,-151.197C219.205,-137.343 205.08,-122.612 192.181,-109.16"/>
<polygon fill="none" stroke="midnightblue" points="230.323,-153.994 239.771,-158.79 235.376,-149.149 230.323,-153.994"/>
</g>
<!-- Box_GameModelInfo&#45;&gt;Box_PipeModelInfo -->
<g id="edge6" class="edge"><title>Box_GameModelInfo&#45;&gt;Box_PipeModelInfo</title>
<path fill="none" stroke="midnightblue" d="M339.757,-151.337C349.296,-141.46 359.269,-131.133 368.921,-121.139"/>
<polygon fill="none" stroke="midnightblue" points="336.989,-149.165 332.559,-158.79 342.024,-154.028 336.989,-149.165"/>
</g>
<!-- Box_IEquatable -->
<g id="node5" class="node"><title>Box_IEquatable</title>
<polygon fill="#ffffff" stroke="black" points="225,-487 225,-507 347,-507 347,-487 225,-487"/>
<text text-anchor="middle" x="286" y="-495.8" font-family="Helvetica,sans-Serif" font-size="8.00">IEquatable&lt;GameObjectInfo&gt;</text>
</g>
<!-- Box_IEquatable&#45;&gt;Box_GameObjectInfo -->
<g id="edge2" class="edge"><title>Box_IEquatable&#45;&gt;Box_GameObjectInfo</title>
<path fill="none" stroke="midnightblue" d="M286,-476.521C286,-468.692 286,-459.219 286,-449.201"/>
<polygon fill="none" stroke="midnightblue" points="282.5,-476.689 286,-486.689 289.5,-476.689 282.5,-476.689"/>
</g>
</g>
</svg>
