<?xml version="1.0" encoding="UTF-8" standalone="no"?>
<!DOCTYPE svg PUBLIC "-//W3C//DTD SVG 1.1//EN"
 "http://www.w3.org/Graphics/SVG/1.1/DTD/svg11.dtd">
<!-- Generated by graphviz version 2.26.3 (20100126.1600)
 -->
<!-- Title: MenuItem Pages: 1 -->
<svg width="2169pt" height="1580pt"
 viewBox="0.00 0.00 2169.00 1580.00" xmlns="http://www.w3.org/2000/svg" xmlns:xlink="http://www.w3.org/1999/xlink">
<g id="graph1" class="graph" transform="scale(1 1) rotate(0) translate(4 1576)">
<title>MenuItem</title>
<polygon fill="white" stroke="white" points="-4,5 -4,-1576 2166,-1576 2166,5 -4,5"/>
<!-- Box_DrawableGameStateComponent -->
<g id="node1" class="node"><title>Box_DrawableGameStateComponent</title>
<polygon fill="#fcfcda" stroke="black" points="431.5,-1283 431.5,-1391 772.5,-1391 772.5,-1283 431.5,-1283"/>
<text text-anchor="middle" x="602" y="-1379.8" font-family="Helvetica,sans-Serif" font-size="8.00">DrawableGameStateComponent</text>
<polyline fill="none" stroke="black" points="431.5,-1371 772.5,-1371 "/>
<text text-anchor="start" x="439.5" y="-1359.8" font-family="Helvetica,sans-Serif" font-size="8.00">Attributes:</text>
<text text-anchor="start" x="439.5" y="-1347.8" font-family="Helvetica,sans-Serif" font-size="8.00">+ state : GameState</text>
<text text-anchor="start" x="439.5" y="-1335.8" font-family="Helvetica,sans-Serif" font-size="8.00">+ Index : int</text>
<text text-anchor="start" x="439.5" y="-1323.8" font-family="Helvetica,sans-Serif" font-size="8.00">Methods:</text>
<polyline fill="none" stroke="black" points="431.5,-1315 772.5,-1315 "/>
<text text-anchor="start" x="439.5" y="-1303.8" font-family="Helvetica,sans-Serif" font-size="8.00">+ DrawableGameStateComponent (GameState state, DisplayLayer drawOrder)</text>
<text text-anchor="start" x="439.5" y="-1291.8" font-family="Helvetica,sans-Serif" font-size="8.00">+ SubComponents (GameTime gameTime) : IEnumerable&lt;IGameStateComponent&gt; virtual</text>
</g>
<!-- Box_MousePointer -->
<g id="node3" class="node"><title>Box_MousePointer</title>
<polygon fill="#fcfcda" stroke="black" points="-0.5,-1053 -0.5,-1161 162.5,-1161 162.5,-1053 -0.5,-1053"/>
<text text-anchor="middle" x="81" y="-1149.8" font-family="Helvetica,sans-Serif" font-size="8.00">MousePointer</text>
<polyline fill="none" stroke="black" points="-0.5,-1141 162.5,-1141 "/>
<text text-anchor="start" x="7.5" y="-1129.8" font-family="Helvetica,sans-Serif" font-size="8.00">Attributes:</text>
<text text-anchor="start" x="7.5" y="-1117.8" font-family="Helvetica,sans-Serif" font-size="8.00">&#45; spriteBatch : SpriteBatch</text>
<text text-anchor="start" x="7.5" y="-1105.8" font-family="Helvetica,sans-Serif" font-size="8.00">Methods:</text>
<polyline fill="none" stroke="black" points="-0.5,-1097 162.5,-1097 "/>
<text text-anchor="start" x="7.5" y="-1085.8" font-family="Helvetica,sans-Serif" font-size="8.00">+ MousePointer (GameState state)</text>
<text text-anchor="start" x="7.5" y="-1073.8" font-family="Helvetica,sans-Serif" font-size="8.00">+ Draw (GameTime gameTime) override</text>
<text text-anchor="start" x="7.5" y="-1061.8" font-family="Helvetica,sans-Serif" font-size="8.00">&#45; DrawCursor (GameTime gameTime)</text>
</g>
<!-- Box_DrawableGameStateComponent&#45;&gt;Box_MousePointer -->
<g id="edge8" class="edge"><title>Box_DrawableGameStateComponent&#45;&gt;Box_MousePointer</title>
<path fill="none" stroke="midnightblue" d="M421.125,-1313C322.323,-1297.15 211.94,-1274.14 171,-1246 140.792,-1225.24 118.349,-1190.68 103.43,-1161.21"/>
<polygon fill="none" stroke="midnightblue" points="420.836,-1316.49 431.261,-1314.6 421.932,-1309.58 420.836,-1316.49"/>
</g>
<!-- Box_Overlay -->
<g id="node4" class="node"><title>Box_Overlay</title>
<polygon fill="#fcfcda" stroke="black" points="180,-969 180,-1245 500,-1245 500,-969 180,-969"/>
<text text-anchor="middle" x="340" y="-1233.8" font-family="Helvetica,sans-Serif" font-size="8.00">Overlay</text>
<polyline fill="none" stroke="black" points="180,-1225 500,-1225 "/>
<text text-anchor="start" x="188" y="-1213.8" font-family="Helvetica,sans-Serif" font-size="8.00">Attributes:</text>
<text text-anchor="start" x="188" y="-1201.8" font-family="Helvetica,sans-Serif" font-size="8.00">&#45; spriteBatch : SpriteBatch</text>
<text text-anchor="start" x="188" y="-1189.8" font-family="Helvetica,sans-Serif" font-size="8.00">&#45; effect : BasicEffect</text>
<text text-anchor="start" x="188" y="-1177.8" font-family="Helvetica,sans-Serif" font-size="8.00">&#45; World : World</text>
<text text-anchor="start" x="188" y="-1165.8" font-family="Helvetica,sans-Serif" font-size="8.00">&#45; font : SpriteFont</text>
<text text-anchor="start" x="188" y="-1153.8" font-family="Helvetica,sans-Serif" font-size="8.00">&#45; _total_frames : int</text>
<text text-anchor="start" x="188" y="-1141.8" font-family="Helvetica,sans-Serif" font-size="8.00">&#45; _elapsed_time : float</text>
<text text-anchor="start" x="188" y="-1129.8" font-family="Helvetica,sans-Serif" font-size="8.00">&#45; _fps : int</text>
<text text-anchor="start" x="188" y="-1117.8" font-family="Helvetica,sans-Serif" font-size="8.00">Methods:</text>
<polyline fill="none" stroke="black" points="180,-1109 500,-1109 "/>
<text text-anchor="start" x="188" y="-1097.8" font-family="Helvetica,sans-Serif" font-size="8.00">+ Overlay (GameState state, World world)</text>
<text text-anchor="start" x="188" y="-1085.8" font-family="Helvetica,sans-Serif" font-size="8.00"># LoadContent () override</text>
<text text-anchor="start" x="188" y="-1073.8" font-family="Helvetica,sans-Serif" font-size="8.00">+ Draw (GameTime gameTime) override</text>
<text text-anchor="start" x="188" y="-1061.8" font-family="Helvetica,sans-Serif" font-size="8.00">+ Update (GameTime gameTime) override</text>
<text text-anchor="start" x="188" y="-1049.8" font-family="Helvetica,sans-Serif" font-size="8.00">&#45; DrawCoordinates (GameTime gameTime)</text>
<text text-anchor="start" x="188" y="-1037.8" font-family="Helvetica,sans-Serif" font-size="8.00">&#45; DrawOverlay (GameTime gameTime)</text>
<text text-anchor="start" x="188" y="-1025.8" font-family="Helvetica,sans-Serif" font-size="8.00">&#45; DrawVectorCoordinates (Vector3 vector, int width2, int width3, int width4, int height)</text>
<text text-anchor="start" x="188" y="-1013.8" font-family="Helvetica,sans-Serif" font-size="8.00">&#45; DrawString (string str, int width, int height, Color color)</text>
<text text-anchor="start" x="188" y="-1001.8" font-family="Helvetica,sans-Serif" font-size="8.00">&#45; DrawString (float n, int width, int height, Color color)</text>
<text text-anchor="start" x="188" y="-989.8" font-family="Helvetica,sans-Serif" font-size="8.00">&#45; UpdateFPS (GameTime gameTime)</text>
<text text-anchor="start" x="188" y="-977.8" font-family="Helvetica,sans-Serif" font-size="8.00">&#45; DrawFPS (GameTime gameTime)</text>
</g>
<!-- Box_DrawableGameStateComponent&#45;&gt;Box_Overlay -->
<g id="edge10" class="edge"><title>Box_DrawableGameStateComponent&#45;&gt;Box_Overlay</title>
<path fill="none" stroke="midnightblue" d="M532.661,-1276.13C521.526,-1266.36 509.621,-1255.9 497.397,-1245.17"/>
<polygon fill="none" stroke="midnightblue" points="530.417,-1278.82 540.241,-1282.78 535.035,-1273.56 530.417,-1278.82"/>
</g>
<!-- Box_World -->
<g id="node5" class="node"><title>Box_World</title>
<polygon fill="#fcfcda" stroke="black" points="1015,-981 1015,-1233 1365,-1233 1365,-981 1015,-981"/>
<text text-anchor="middle" x="1190" y="-1221.8" font-family="Helvetica,sans-Serif" font-size="8.00">World</text>
<polyline fill="none" stroke="black" points="1015,-1213 1365,-1213 "/>
<text text-anchor="start" x="1023" y="-1201.8" font-family="Helvetica,sans-Serif" font-size="8.00">Attributes:</text>
<text text-anchor="start" x="1023" y="-1189.8" font-family="Helvetica,sans-Serif" font-size="8.00">&#45; knotRenderEffects : List&lt;RenderEffect&gt;</text>
<text text-anchor="start" x="1023" y="-1177.8" font-family="Helvetica,sans-Serif" font-size="8.00">&#45; knotRenderEffect : RenderEffect</text>
<text text-anchor="start" x="1023" y="-1165.8" font-family="Helvetica,sans-Serif" font-size="8.00">+ Objects : List&lt;IGameObject&gt;</text>
<text text-anchor="start" x="1023" y="-1153.8" font-family="Helvetica,sans-Serif" font-size="8.00">+ SelectedObject : IGameObject</text>
<text text-anchor="start" x="1023" y="-1141.8" font-family="Helvetica,sans-Serif" font-size="8.00">+ Camera : Camera</text>
<text text-anchor="start" x="1023" y="-1129.8" font-family="Helvetica,sans-Serif" font-size="8.00">&#45; floor : TexturedRectangle</text>
<text text-anchor="start" x="1023" y="-1117.8" font-family="Helvetica,sans-Serif" font-size="8.00">Methods:</text>
<polyline fill="none" stroke="black" points="1015,-1109 1365,-1109 "/>
<text text-anchor="start" x="1023" y="-1097.8" font-family="Helvetica,sans-Serif" font-size="8.00">+ World (GameState state)</text>
<text text-anchor="start" x="1023" y="-1085.8" font-family="Helvetica,sans-Serif" font-size="8.00">+ SelectObject (IGameObject obj, GameTime gameTime)</text>
<text text-anchor="start" x="1023" y="-1073.8" font-family="Helvetica,sans-Serif" font-size="8.00">+ SelectedObjectDistance () : float</text>
<text text-anchor="start" x="1023" y="-1061.8" font-family="Helvetica,sans-Serif" font-size="8.00">+ Add (IGameObject obj)</text>
<text text-anchor="start" x="1023" y="-1049.8" font-family="Helvetica,sans-Serif" font-size="8.00">+ Initialize () override</text>
<text text-anchor="start" x="1023" y="-1037.8" font-family="Helvetica,sans-Serif" font-size="8.00">+ Draw (GameTime gameTime) override</text>
<text text-anchor="start" x="1023" y="-1025.8" font-family="Helvetica,sans-Serif" font-size="8.00">+ Update (GameTime gameTime) override</text>
<text text-anchor="start" x="1023" y="-1013.8" font-family="Helvetica,sans-Serif" font-size="8.00">+ GetEnumerator () : IEnumerator&lt;IGameObject&gt;</text>
<text text-anchor="start" x="1023" y="-1001.8" font-family="Helvetica,sans-Serif" font-size="8.00">&#45; IEnumerable.GetEnumerator () : IEnumerator</text>
<text text-anchor="start" x="1023" y="-989.8" font-family="Helvetica,sans-Serif" font-size="8.00">+ SubComponents (GameTime gameTime) : IEnumerable&lt;IGameStateComponent&gt; override</text>
</g>
<!-- Box_DrawableGameStateComponent&#45;&gt;Box_World -->
<g id="edge12" class="edge"><title>Box_DrawableGameStateComponent&#45;&gt;Box_World</title>
<path fill="none" stroke="midnightblue" d="M782.884,-1313.19C854.598,-1299.47 936.388,-1278.29 1006,-1246 1014.44,-1242.08 1022.87,-1237.73 1031.22,-1233.06"/>
<polygon fill="none" stroke="midnightblue" points="782.016,-1309.79 772.834,-1315.08 783.309,-1316.67 782.016,-1309.79"/>
</g>
<!-- Box_Widget -->
<g id="node6" class="node"><title>Box_Widget</title>
<polygon fill="#fcfcda" stroke="black" points="731,-1053 731,-1161 997,-1161 997,-1053 731,-1053"/>
<text text-anchor="middle" x="864" y="-1149.8" font-family="Helvetica,sans-Serif" font-size="8.00">Widget</text>
<polyline fill="none" stroke="black" points="731,-1141 997,-1141 "/>
<text text-anchor="start" x="739" y="-1129.8" font-family="Helvetica,sans-Serif" font-size="8.00">Attributes:</text>
<text text-anchor="start" x="739" y="-1117.8" font-family="Helvetica,sans-Serif" font-size="8.00">+ Info : WidgetInfo</text>
<text text-anchor="start" x="739" y="-1105.8" font-family="Helvetica,sans-Serif" font-size="8.00">+ IsVisible : bool virtual</text>
<text text-anchor="start" x="739" y="-1093.8" font-family="Helvetica,sans-Serif" font-size="8.00">Methods:</text>
<polyline fill="none" stroke="black" points="731,-1085 997,-1085 "/>
<text text-anchor="start" x="739" y="-1073.8" font-family="Helvetica,sans-Serif" font-size="8.00">+ Widget (GameState state, WidgetInfo info, DisplayLayer drawOrder)</text>
<text text-anchor="start" x="739" y="-1061.8" font-family="Helvetica,sans-Serif" font-size="8.00">+ bounds () : Rectangle</text>
</g>
<!-- Box_DrawableGameStateComponent&#45;&gt;Box_Widget -->
<g id="edge16" class="edge"><title>Box_DrawableGameStateComponent&#45;&gt;Box_Widget</title>
<path fill="none" stroke="midnightblue" d="M682.648,-1276.72C695.337,-1266.69 708.163,-1256.22 720,-1246 751.032,-1219.2 784.051,-1187.58 810.632,-1161.27"/>
<polygon fill="none" stroke="midnightblue" points="680.479,-1273.97 674.775,-1282.9 684.802,-1279.48 680.479,-1273.97"/>
</g>
<!-- Box_IGameStateComponent -->
<g id="node2" class="node"><title>Box_IGameStateComponent</title>
<polygon fill="#dafcda" stroke="black" points="322,-1429 322,-1513 640,-1513 640,-1429 322,-1429"/>
<text text-anchor="middle" x="481" y="-1501.8" font-family="Helvetica,sans-Serif" font-size="8.00">IGameStateComponent</text>
<polyline fill="none" stroke="black" points="322,-1493 640,-1493 "/>
<text text-anchor="start" x="330" y="-1481.8" font-family="Helvetica,sans-Serif" font-size="8.00">Attributes:</text>
<text text-anchor="start" x="330" y="-1469.8" font-family="Helvetica,sans-Serif" font-size="8.00">+ Index : int</text>
<text text-anchor="start" x="330" y="-1457.8" font-family="Helvetica,sans-Serif" font-size="8.00">Methods:</text>
<polyline fill="none" stroke="black" points="322,-1449 640,-1449 "/>
<text text-anchor="start" x="330" y="-1437.8" font-family="Helvetica,sans-Serif" font-size="8.00">+ SubComponents (GameTime gameTime) : IEnumerable&lt;IGameStateComponent&gt;</text>
</g>
<!-- Box_IGameStateComponent&#45;&gt;Box_DrawableGameStateComponent -->
<g id="edge4" class="edge"><title>Box_IGameStateComponent&#45;&gt;Box_DrawableGameStateComponent</title>
<path fill="none" stroke="midnightblue" d="M525.666,-1421.53C534.59,-1411.65 544.007,-1401.22 553.065,-1391.19"/>
<polygon fill="none" stroke="midnightblue" points="523.057,-1419.2 518.953,-1428.97 528.253,-1423.89 523.057,-1419.2"/>
</g>
<!-- Box_ColorPicker -->
<g id="node7" class="node"><title>Box_ColorPicker</title>
<polygon fill="#fcfcda" stroke="black" points="420.5,-661 420.5,-901 703.5,-901 703.5,-661 420.5,-661"/>
<text text-anchor="middle" x="562" y="-889.8" font-family="Helvetica,sans-Serif" font-size="8.00">ColorPicker</text>
<polyline fill="none" stroke="black" points="420.5,-881 703.5,-881 "/>
<text text-anchor="start" x="428.5" y="-869.8" font-family="Helvetica,sans-Serif" font-size="8.00">Attributes:</text>
<text text-anchor="start" x="428.5" y="-857.8" font-family="Helvetica,sans-Serif" font-size="8.00">&#45; colors : List&lt;Color&gt;</text>
<text text-anchor="start" x="428.5" y="-845.8" font-family="Helvetica,sans-Serif" font-size="8.00">&#45; tiles : List&lt;Vector2&gt;</text>
<text text-anchor="start" x="428.5" y="-833.8" font-family="Helvetica,sans-Serif" font-size="8.00">&#45; Vector2 tileSize : readonly static</text>
<text text-anchor="start" x="428.5" y="-821.8" font-family="Helvetica,sans-Serif" font-size="8.00">+ SelectedColor : Color</text>
<text text-anchor="start" x="428.5" y="-809.8" font-family="Helvetica,sans-Serif" font-size="8.00">+ OnSelectColor : Action&lt;Color&gt;</text>
<text text-anchor="start" x="428.5" y="-797.8" font-family="Helvetica,sans-Serif" font-size="8.00"># spriteBatch : SpriteBatch</text>
<text text-anchor="start" x="428.5" y="-785.8" font-family="Helvetica,sans-Serif" font-size="8.00">+ IsMouseEventEnabled : bool</text>
<text text-anchor="start" x="428.5" y="-773.8" font-family="Helvetica,sans-Serif" font-size="8.00">Methods:</text>
<polyline fill="none" stroke="black" points="420.5,-765 703.5,-765 "/>
<text text-anchor="start" x="428.5" y="-753.8" font-family="Helvetica,sans-Serif" font-size="8.00">+ ColorPicker (GameState state, WidgetInfo info, DisplayLayer drawOrder)</text>
<text text-anchor="start" x="428.5" y="-741.8" font-family="Helvetica,sans-Serif" font-size="8.00">+ Draw (GameTime gameTime) override</text>
<text text-anchor="start" x="428.5" y="-729.8" font-family="Helvetica,sans-Serif" font-size="8.00">&#45; CreateColors (int num) : IEnumerable&lt;Color&gt; static</text>
<text text-anchor="start" x="428.5" y="-717.8" font-family="Helvetica,sans-Serif" font-size="8.00">&#45; CreateTiles (IEnumerable&lt;Color&gt; _colors) : IEnumerable&lt;Vector2&gt; static</text>
<text text-anchor="start" x="428.5" y="-705.8" font-family="Helvetica,sans-Serif" font-size="8.00">&#45; SelectColor (Color color)</text>
<text text-anchor="start" x="428.5" y="-693.8" font-family="Helvetica,sans-Serif" font-size="8.00">+ OnLeftClick (Vector2 position, ClickState click, GameTime gameTime)</text>
<text text-anchor="start" x="428.5" y="-681.8" font-family="Helvetica,sans-Serif" font-size="8.00">+ OnRightClick (Vector2 position, ClickState click, GameTime gameTime)</text>
<text text-anchor="start" x="428.5" y="-669.8" font-family="Helvetica,sans-Serif" font-size="8.00">+ SetHovered (bool hovered)</text>
</g>
<!-- Box_Widget&#45;&gt;Box_ColorPicker -->
<g id="edge18" class="edge"><title>Box_Widget&#45;&gt;Box_ColorPicker</title>
<path fill="none" stroke="midnightblue" d="M806.911,-1045.37C769.229,-1004.7 718.609,-950.054 673.17,-901.005"/>
<polygon fill="none" stroke="midnightblue" points="804.428,-1047.84 813.792,-1052.8 809.564,-1043.09 804.428,-1047.84"/>
</g>
<!-- Box_Dialog -->
<g id="node8" class="node"><title>Box_Dialog</title>
<polygon fill="#fcfcda" stroke="black" points="1371,-685 1371,-877 1721,-877 1721,-685 1371,-685"/>
<text text-anchor="middle" x="1546" y="-865.8" font-family="Helvetica,sans-Serif" font-size="8.00">Dialog</text>
<polyline fill="none" stroke="black" points="1371,-857 1721,-857 "/>
<text text-anchor="start" x="1379" y="-845.8" font-family="Helvetica,sans-Serif" font-size="8.00">Attributes:</text>
<text text-anchor="start" x="1379" y="-833.8" font-family="Helvetica,sans-Serif" font-size="8.00">+ buttons : Menu</text>
<text text-anchor="start" x="1379" y="-821.8" font-family="Helvetica,sans-Serif" font-size="8.00">+ Done : Action</text>
<text text-anchor="start" x="1379" y="-809.8" font-family="Helvetica,sans-Serif" font-size="8.00"># spriteBatch : SpriteBatch</text>
<text text-anchor="start" x="1379" y="-797.8" font-family="Helvetica,sans-Serif" font-size="8.00">Methods:</text>
<polyline fill="none" stroke="black" points="1371,-789 1721,-789 "/>
<text text-anchor="start" x="1379" y="-777.8" font-family="Helvetica,sans-Serif" font-size="8.00">+ Dialog (GameState state, WidgetInfo info, DisplayLayer drawOrder)</text>
<text text-anchor="start" x="1379" y="-765.8" font-family="Helvetica,sans-Serif" font-size="8.00"># RelativeButtonPosition (int n) : Vector2</text>
<text text-anchor="start" x="1379" y="-753.8" font-family="Helvetica,sans-Serif" font-size="8.00"># RelativeButtonSize (int n) : Vector2</text>
<text text-anchor="start" x="1379" y="-741.8" font-family="Helvetica,sans-Serif" font-size="8.00">+ SubComponents (GameTime gameTime) : IEnumerable&lt;IGameStateComponent&gt; override</text>
<text text-anchor="start" x="1379" y="-729.8" font-family="Helvetica,sans-Serif" font-size="8.00">+ Draw (GameTime gameTime) override</text>
<text text-anchor="start" x="1379" y="-717.8" font-family="Helvetica,sans-Serif" font-size="8.00"># DrawDialog (GameTime gameTime) abstract</text>
<text text-anchor="start" x="1379" y="-705.8" font-family="Helvetica,sans-Serif" font-size="8.00">&#45; ButtonBackgroundColor (ItemState itemState) : Color</text>
<text text-anchor="start" x="1379" y="-693.8" font-family="Helvetica,sans-Serif" font-size="8.00">&#45; ButtonForegroundColor (ItemState itemState) : Color</text>
</g>
<!-- Box_Widget&#45;&gt;Box_Dialog -->
<g id="edge22" class="edge"><title>Box_Widget&#45;&gt;Box_Dialog</title>
<path fill="none" stroke="midnightblue" d="M910.639,-1045.01C935.617,-1016.57 968.872,-985.377 1006,-968 1150.03,-900.587 1215.16,-993.048 1362,-932 1393.48,-918.913 1423.78,-898.578 1450.39,-877.027"/>
<polygon fill="none" stroke="midnightblue" points="907.682,-1043.08 903.817,-1052.94 912.99,-1047.64 907.682,-1043.08"/>
</g>
<!-- Box_Menu -->
<g id="node12" class="node"><title>Box_Menu</title>
<polygon fill="#fcfcda" stroke="black" points="1738.5,-631 1738.5,-931 2137.5,-931 2137.5,-631 1738.5,-631"/>
<text text-anchor="middle" x="1938" y="-919.8" font-family="Helvetica,sans-Serif" font-size="8.00">Menu</text>
<polyline fill="none" stroke="black" points="1738.5,-911 2137.5,-911 "/>
<text text-anchor="start" x="1746.5" y="-899.8" font-family="Helvetica,sans-Serif" font-size="8.00">Attributes:</text>
<text text-anchor="start" x="1746.5" y="-887.8" font-family="Helvetica,sans-Serif" font-size="8.00">+ Vector2&gt; RelativeItemSize : Func&lt;int,</text>
<text text-anchor="start" x="1746.5" y="-875.8" font-family="Helvetica,sans-Serif" font-size="8.00">+ Vector2&gt; RelativeItemPosition : Func&lt;int,</text>
<text text-anchor="start" x="1746.5" y="-863.8" font-family="Helvetica,sans-Serif" font-size="8.00">+ Color&gt; ItemForegroundColor : Func&lt;ItemState,</text>
<text text-anchor="start" x="1746.5" y="-851.8" font-family="Helvetica,sans-Serif" font-size="8.00">+ Color&gt; ItemBackgroundColor : Func&lt;ItemState,</text>
<text text-anchor="start" x="1746.5" y="-839.8" font-family="Helvetica,sans-Serif" font-size="8.00">+ ItemAlignX : HAlign?</text>
<text text-anchor="start" x="1746.5" y="-827.8" font-family="Helvetica,sans-Serif" font-size="8.00">+ ItemAlignY : VAlign?</text>
<text text-anchor="start" x="1746.5" y="-815.8" font-family="Helvetica,sans-Serif" font-size="8.00"># Items : List&lt;MenuItem&gt;</text>
<text text-anchor="start" x="1746.5" y="-803.8" font-family="Helvetica,sans-Serif" font-size="8.00">&#45; ItemDisplayLayer : DisplayLayer</text>
<text text-anchor="start" x="1746.5" y="-791.8" font-family="Helvetica,sans-Serif" font-size="8.00">+ this [int i] : MenuItem</text>
<text text-anchor="start" x="1746.5" y="-779.8" font-family="Helvetica,sans-Serif" font-size="8.00">+ Count : int</text>
<text text-anchor="start" x="1746.5" y="-767.8" font-family="Helvetica,sans-Serif" font-size="8.00">&#45; isVisible : bool</text>
<text text-anchor="start" x="1746.5" y="-755.8" font-family="Helvetica,sans-Serif" font-size="8.00">+ IsVisible : bool override</text>
<text text-anchor="start" x="1746.5" y="-743.8" font-family="Helvetica,sans-Serif" font-size="8.00">Methods:</text>
<polyline fill="none" stroke="black" points="1738.5,-735 2137.5,-735 "/>
<text text-anchor="start" x="1746.5" y="-723.8" font-family="Helvetica,sans-Serif" font-size="8.00">+ Menu (GameState state, WidgetInfo info, DisplayLayer drawOrder)</text>
<text text-anchor="start" x="1746.5" y="-711.8" font-family="Helvetica,sans-Serif" font-size="8.00">&#45; assignMenuItemInfo (ref MenuItemInfo info, int num, MenuItem item)</text>
<text text-anchor="start" x="1746.5" y="-699.8" font-family="Helvetica,sans-Serif" font-size="8.00">+ AddButton (MenuItemInfo info) : MenuButton virtual</text>
<text text-anchor="start" x="1746.5" y="-687.8" font-family="Helvetica,sans-Serif" font-size="8.00">+ AddDropDown (MenuItemInfo info, DropDownMenuItem[] items, DropDownMenuItem defaultItem) virtual</text>
<text text-anchor="start" x="1746.5" y="-675.8" font-family="Helvetica,sans-Serif" font-size="8.00">+ AddDropDown (MenuItemInfo info, DistinctOptionInfo option) virtual</text>
<text text-anchor="start" x="1746.5" y="-663.8" font-family="Helvetica,sans-Serif" font-size="8.00">+ Clear ()</text>
<text text-anchor="start" x="1746.5" y="-651.8" font-family="Helvetica,sans-Serif" font-size="8.00">+ SubComponents (GameTime gameTime) : IEnumerable&lt;IGameStateComponent&gt; override</text>
<text text-anchor="start" x="1746.5" y="-639.8" font-family="Helvetica,sans-Serif" font-size="8.00">+ CollapseMenus (MenuItem menu)</text>
</g>
<!-- Box_Widget&#45;&gt;Box_Menu -->
<g id="edge30" class="edge"><title>Box_Widget&#45;&gt;Box_Menu</title>
<path fill="none" stroke="midnightblue" d="M909.375,-1045.22C934.356,-1016.3 967.99,-984.62 1006,-968 1153.6,-903.464 1578.07,-985.54 1730,-932 1732.74,-931.036 1735.47,-930.024 1738.19,-928.966"/>
<polygon fill="none" stroke="midnightblue" points="906.67,-1043 902.888,-1052.89 912.016,-1047.51 906.67,-1043"/>
</g>
<!-- Box_TextInput -->
<g id="node14" class="node"><title>Box_TextInput</title>
<polygon fill="#fcfcda" stroke="black" points="721,-697 721,-865 1007,-865 1007,-697 721,-697"/>
<text text-anchor="middle" x="864" y="-853.8" font-family="Helvetica,sans-Serif" font-size="8.00">TextInput</text>
<polyline fill="none" stroke="black" points="721,-845 1007,-845 "/>
<text text-anchor="start" x="729" y="-833.8" font-family="Helvetica,sans-Serif" font-size="8.00">Attributes:</text>
<text text-anchor="start" x="729" y="-821.8" font-family="Helvetica,sans-Serif" font-size="8.00">+ InputText : string</text>
<text text-anchor="start" x="729" y="-809.8" font-family="Helvetica,sans-Serif" font-size="8.00">&#45; font : SpriteFont</text>
<text text-anchor="start" x="729" y="-797.8" font-family="Helvetica,sans-Serif" font-size="8.00"># spriteBatch : SpriteBatch</text>
<text text-anchor="start" x="729" y="-785.8" font-family="Helvetica,sans-Serif" font-size="8.00">+ ValidKeys : List&lt;Keys&gt;</text>
<text text-anchor="start" x="729" y="-773.8" font-family="Helvetica,sans-Serif" font-size="8.00">+ IsKeyEventEnabled : bool</text>
<text text-anchor="start" x="729" y="-761.8" font-family="Helvetica,sans-Serif" font-size="8.00">Methods:</text>
<polyline fill="none" stroke="black" points="721,-753 1007,-753 "/>
<text text-anchor="start" x="729" y="-741.8" font-family="Helvetica,sans-Serif" font-size="8.00">+ TextInput (GameState state, WidgetInfo info, DisplayLayer drawOrder)</text>
<text text-anchor="start" x="729" y="-729.8" font-family="Helvetica,sans-Serif" font-size="8.00">+ Update (GameTime gameTime) override</text>
<text text-anchor="start" x="729" y="-717.8" font-family="Helvetica,sans-Serif" font-size="8.00">+ Draw (GameTime gameTime) override</text>
<text text-anchor="start" x="729" y="-705.8" font-family="Helvetica,sans-Serif" font-size="8.00">+ OnKeyEvent (List&lt;Keys&gt; key, KeyEvent keyEvent, GameTime gameTime)</text>
</g>
<!-- Box_Widget&#45;&gt;Box_TextInput -->
<g id="edge34" class="edge"><title>Box_Widget&#45;&gt;Box_TextInput</title>
<path fill="none" stroke="midnightblue" d="M864,-1042.6C864,-991.746 864,-920.389 864,-865.045"/>
<polygon fill="none" stroke="midnightblue" points="860.5,-1042.8 864,-1052.8 867.5,-1042.8 860.5,-1042.8"/>
</g>
<!-- Box_ItemWidget -->
<g id="node15" class="node"><title>Box_ItemWidget</title>
<polygon fill="#fcfcda" stroke="black" points="1024.5,-733 1024.5,-829 1353.5,-829 1353.5,-733 1024.5,-733"/>
<text text-anchor="middle" x="1189" y="-817.8" font-family="Helvetica,sans-Serif" font-size="8.00">ItemWidget</text>
<polyline fill="none" stroke="black" points="1024.5,-809 1353.5,-809 "/>
<text text-anchor="start" x="1032.5" y="-797.8" font-family="Helvetica,sans-Serif" font-size="8.00">Attributes:</text>
<text text-anchor="start" x="1032.5" y="-785.8" font-family="Helvetica,sans-Serif" font-size="8.00"># ItemNum : int</text>
<text text-anchor="start" x="1032.5" y="-773.8" font-family="Helvetica,sans-Serif" font-size="8.00">+ ItemState : ItemState</text>
<text text-anchor="start" x="1032.5" y="-761.8" font-family="Helvetica,sans-Serif" font-size="8.00">Methods:</text>
<polyline fill="none" stroke="black" points="1024.5,-753 1353.5,-753 "/>
<text text-anchor="start" x="1032.5" y="-741.8" font-family="Helvetica,sans-Serif" font-size="8.00">+ ItemWidget (GameState state, WidgetInfo info, DisplayLayer drawOrder, int itemNum)</text>
</g>
<!-- Box_Widget&#45;&gt;Box_ItemWidget -->
<g id="edge38" class="edge"><title>Box_Widget&#45;&gt;Box_ItemWidget</title>
<path fill="none" stroke="midnightblue" d="M925.112,-1045.7C987.666,-982.954 1083.6,-886.722 1140.94,-829.21"/>
<polygon fill="none" stroke="midnightblue" points="922.614,-1043.25 918.032,-1052.8 927.571,-1048.19 922.614,-1043.25"/>
</g>
<!-- Box_ConfirmDialog -->
<g id="node9" class="node"><title>Box_ConfirmDialog</title>
<polygon fill="#fcfcda" stroke="black" points="1400,-407 1400,-539 1692,-539 1692,-407 1400,-407"/>
<text text-anchor="middle" x="1546" y="-527.8" font-family="Helvetica,sans-Serif" font-size="8.00">ConfirmDialog</text>
<polyline fill="none" stroke="black" points="1400,-519 1692,-519 "/>
<text text-anchor="start" x="1408" y="-507.8" font-family="Helvetica,sans-Serif" font-size="8.00">Attributes:</text>
<text text-anchor="start" x="1408" y="-495.8" font-family="Helvetica,sans-Serif" font-size="8.00"># Text : string[]</text>
<text text-anchor="start" x="1408" y="-483.8" font-family="Helvetica,sans-Serif" font-size="8.00"># OnYesClick : Action</text>
<text text-anchor="start" x="1408" y="-471.8" font-family="Helvetica,sans-Serif" font-size="8.00"># OnNoClick : Action</text>
<text text-anchor="start" x="1408" y="-459.8" font-family="Helvetica,sans-Serif" font-size="8.00"># OnCancelClick : Action</text>
<text text-anchor="start" x="1408" y="-447.8" font-family="Helvetica,sans-Serif" font-size="8.00">Methods:</text>
<polyline fill="none" stroke="black" points="1400,-439 1692,-439 "/>
<text text-anchor="start" x="1408" y="-427.8" font-family="Helvetica,sans-Serif" font-size="8.00">+ ConfirmDialog (GameState state, WidgetInfo info, DisplayLayer drawOrder)</text>
<text text-anchor="start" x="1408" y="-415.8" font-family="Helvetica,sans-Serif" font-size="8.00"># DrawDialog (GameTime gameTime) override</text>
</g>
<!-- Box_Dialog&#45;&gt;Box_ConfirmDialog -->
<g id="edge24" class="edge"><title>Box_Dialog&#45;&gt;Box_ConfirmDialog</title>
<path fill="none" stroke="midnightblue" d="M1546,-674.717C1546,-629.727 1546,-578.708 1546,-539.236"/>
<polygon fill="none" stroke="midnightblue" points="1542.5,-674.814 1546,-684.814 1549.5,-674.814 1542.5,-674.814"/>
</g>
<!-- Box_TextInputDialog -->
<g id="node10" class="node"><title>Box_TextInputDialog</title>
<polygon fill="#fcfcda" stroke="black" points="1371,-153 1371,-273 1721,-273 1721,-153 1371,-153"/>
<text text-anchor="middle" x="1546" y="-261.8" font-family="Helvetica,sans-Serif" font-size="8.00">TextInputDialog</text>
<polyline fill="none" stroke="black" points="1371,-253 1721,-253 "/>
<text text-anchor="start" x="1379" y="-241.8" font-family="Helvetica,sans-Serif" font-size="8.00">Attributes:</text>
<text text-anchor="start" x="1379" y="-229.8" font-family="Helvetica,sans-Serif" font-size="8.00"># TextInput : TextInput</text>
<text text-anchor="start" x="1379" y="-217.8" font-family="Helvetica,sans-Serif" font-size="8.00">Methods:</text>
<polyline fill="none" stroke="black" points="1371,-209 1721,-209 "/>
<text text-anchor="start" x="1379" y="-197.8" font-family="Helvetica,sans-Serif" font-size="8.00">+ TextInputDialog (GameState state, WidgetInfo info, DisplayLayer drawOrder)</text>
<text text-anchor="start" x="1379" y="-185.8" font-family="Helvetica,sans-Serif" font-size="8.00">+ SubComponents (GameTime gameTime) : IEnumerable&lt;IGameStateComponent&gt; override</text>
<text text-anchor="start" x="1379" y="-173.8" font-family="Helvetica,sans-Serif" font-size="8.00"># TextInputPosition () : Vector2</text>
<text text-anchor="start" x="1379" y="-161.8" font-family="Helvetica,sans-Serif" font-size="8.00"># TextInputSize () : Vector2</text>
</g>
<!-- Box_ConfirmDialog&#45;&gt;Box_TextInputDialog -->
<g id="edge26" class="edge"><title>Box_ConfirmDialog&#45;&gt;Box_TextInputDialog</title>
<path fill="none" stroke="midnightblue" d="M1546,-396.646C1546,-357.341 1546,-310.1 1546,-273.376"/>
<polygon fill="none" stroke="midnightblue" points="1542.5,-396.718 1546,-406.718 1549.5,-396.718 1542.5,-396.718"/>
</g>
<!-- Box_KnotSaveConfirmDialog -->
<g id="node11" class="node"><title>Box_KnotSaveConfirmDialog</title>
<polygon fill="#fcfcda" stroke="black" points="1363.5,-1 1363.5,-73 1728.5,-73 1728.5,-1 1363.5,-1"/>
<text text-anchor="middle" x="1546" y="-61.8" font-family="Helvetica,sans-Serif" font-size="8.00">KnotSaveConfirmDialog</text>
<polyline fill="none" stroke="black" points="1363.5,-53 1728.5,-53 "/>
<text text-anchor="start" x="1371.5" y="-41.8" font-family="Helvetica,sans-Serif" font-size="8.00">Attributes:</text>
<text text-anchor="start" x="1371.5" y="-29.8" font-family="Helvetica,sans-Serif" font-size="8.00">Methods:</text>
<polyline fill="none" stroke="black" points="1363.5,-21 1728.5,-21 "/>
<text text-anchor="start" x="1371.5" y="-9.8" font-family="Helvetica,sans-Serif" font-size="8.00">+ KnotSaveConfirmDialog (GameState state, WidgetInfo info, DisplayLayer drawOrder, Knot knot)</text>
</g>
<!-- Box_TextInputDialog&#45;&gt;Box_KnotSaveConfirmDialog -->
<g id="edge28" class="edge"><title>Box_TextInputDialog&#45;&gt;Box_KnotSaveConfirmDialog</title>
<path fill="none" stroke="midnightblue" d="M1546,-142.835C1546,-118.985 1546,-93.3102 1546,-73.2223"/>
<polygon fill="none" stroke="midnightblue" points="1542.5,-142.923 1546,-152.923 1549.5,-142.923 1542.5,-142.923"/>
</g>
<!-- Box_VerticalMenu -->
<g id="node13" class="node"><title>Box_VerticalMenu</title>
<polygon fill="#fcfcda" stroke="black" points="1715,-389 1715,-557 2161,-557 2161,-389 1715,-389"/>
<text text-anchor="middle" x="1938" y="-545.8" font-family="Helvetica,sans-Serif" font-size="8.00">VerticalMenu</text>
<polyline fill="none" stroke="black" points="1715,-537 2161,-537 "/>
<text text-anchor="start" x="1723" y="-525.8" font-family="Helvetica,sans-Serif" font-size="8.00">Attributes:</text>
<text text-anchor="start" x="1723" y="-513.8" font-family="Helvetica,sans-Serif" font-size="8.00">+ Border : Border</text>
<text text-anchor="start" x="1723" y="-501.8" font-family="Helvetica,sans-Serif" font-size="8.00"># spriteBatch : SpriteBatch</text>
<text text-anchor="start" x="1723" y="-489.8" font-family="Helvetica,sans-Serif" font-size="8.00">Methods:</text>
<polyline fill="none" stroke="black" points="1715,-481 2161,-481 "/>
<text text-anchor="start" x="1723" y="-469.8" font-family="Helvetica,sans-Serif" font-size="8.00">+ VerticalMenu (GameState state, WidgetInfo info, DisplayLayer drawOrder)</text>
<text text-anchor="start" x="1723" y="-457.8" font-family="Helvetica,sans-Serif" font-size="8.00">+ AddButton (MenuItemInfo info) : MenuButton override</text>
<text text-anchor="start" x="1723" y="-445.8" font-family="Helvetica,sans-Serif" font-size="8.00">+ AddDropDown (MenuItemInfo info, DropDownMenuItem[] items, DropDownMenuItem defaultItem) override</text>
<text text-anchor="start" x="1723" y="-433.8" font-family="Helvetica,sans-Serif" font-size="8.00">+ AddDropDown (MenuItemInfo info, DistinctOptionInfo option) override</text>
<text text-anchor="start" x="1723" y="-421.8" font-family="Helvetica,sans-Serif" font-size="8.00">+ Align (Viewport viewport, float scale, Vector2? givenPosition = null, Vector2? givenItemSize = null, float padding = 0.15f)</text>
<text text-anchor="start" x="1723" y="-409.8" font-family="Helvetica,sans-Serif" font-size="8.00">+ Align (Viewport viewport, float scale, int posX, int posY, int? sizeX = null, int? sizeY = null, float padding = 0.15f)</text>
<text text-anchor="start" x="1723" y="-397.8" font-family="Helvetica,sans-Serif" font-size="8.00">+ Draw (GameTime gameTime) override</text>
</g>
<!-- Box_Menu&#45;&gt;Box_VerticalMenu -->
<g id="edge32" class="edge"><title>Box_Menu&#45;&gt;Box_VerticalMenu</title>
<path fill="none" stroke="midnightblue" d="M1938,-620.57C1938,-598.731 1938,-577.066 1938,-557.334"/>
<polygon fill="none" stroke="midnightblue" points="1934.5,-620.609 1938,-630.609 1941.5,-620.609 1934.5,-620.609"/>
</g>
<!-- Box_MenuItem -->
<g id="node16" class="node"><title>Box_MenuItem</title>
<polygon fill="#fcfcda" stroke="black" points="225.5,-353 225.5,-593 560.5,-593 560.5,-353 225.5,-353"/>
<text text-anchor="middle" x="393" y="-581.8" font-family="Helvetica,sans-Serif" font-size="8.00">MenuItem</text>
<polyline fill="none" stroke="black" points="225.5,-573 560.5,-573 "/>
<text text-anchor="start" x="233.5" y="-561.8" font-family="Helvetica,sans-Serif" font-size="8.00">Attributes:</text>
<text text-anchor="start" x="233.5" y="-549.8" font-family="Helvetica,sans-Serif" font-size="8.00">+ Info : MenuItemInfo new</text>
<text text-anchor="start" x="233.5" y="-537.8" font-family="Helvetica,sans-Serif" font-size="8.00"># spriteBatch : SpriteBatch</text>
<text text-anchor="start" x="233.5" y="-525.8" font-family="Helvetica,sans-Serif" font-size="8.00">+ ValidKeys : List&lt;Keys&gt;</text>
<text text-anchor="start" x="233.5" y="-513.8" font-family="Helvetica,sans-Serif" font-size="8.00">+ IsKeyEventEnabled : bool</text>
<text text-anchor="start" x="233.5" y="-501.8" font-family="Helvetica,sans-Serif" font-size="8.00">+ IsMouseEventEnabled : bool</text>
<text text-anchor="start" x="233.5" y="-489.8" font-family="Helvetica,sans-Serif" font-size="8.00">Methods:</text>
<polyline fill="none" stroke="black" points="225.5,-481 560.5,-481 "/>
<text text-anchor="start" x="233.5" y="-469.8" font-family="Helvetica,sans-Serif" font-size="8.00">+ MenuItem (GameState state, DisplayLayer drawOrder, int itemNum, MenuItemInfo info)</text>
<text text-anchor="start" x="233.5" y="-457.8" font-family="Helvetica,sans-Serif" font-size="8.00">+ Draw (GameTime gameTime) override</text>
<text text-anchor="start" x="233.5" y="-445.8" font-family="Helvetica,sans-Serif" font-size="8.00">+ TextPosition (SpriteFont font) : Vector2</text>
<text text-anchor="start" x="233.5" y="-433.8" font-family="Helvetica,sans-Serif" font-size="8.00">+ TextPosition (SpriteFont font, Vector2 scale) : Vector2</text>
<text text-anchor="start" x="233.5" y="-421.8" font-family="Helvetica,sans-Serif" font-size="8.00">+ MinimumSize (SpriteFont font) : Vector2</text>
<text text-anchor="start" x="233.5" y="-409.8" font-family="Helvetica,sans-Serif" font-size="8.00">+ OnLeftClick (Vector2 position, ClickState click, GameTime gameTime)</text>
<text text-anchor="start" x="233.5" y="-397.8" font-family="Helvetica,sans-Serif" font-size="8.00">+ OnRightClick (Vector2 position, ClickState click, GameTime gameTime)</text>
<text text-anchor="start" x="233.5" y="-385.8" font-family="Helvetica,sans-Serif" font-size="8.00">+ OnKeyEvent (List&lt;Keys&gt; key, KeyEvent keyEvent, GameTime gameTime)</text>
<text text-anchor="start" x="233.5" y="-373.8" font-family="Helvetica,sans-Serif" font-size="8.00">+ SetHovered (bool hovered)</text>
<text text-anchor="start" x="233.5" y="-361.8" font-family="Helvetica,sans-Serif" font-size="8.00">+ Collapse () virtual</text>
</g>
<!-- Box_ItemWidget&#45;&gt;Box_MenuItem -->
<g id="edge40" class="edge"><title>Box_ItemWidget&#45;&gt;Box_MenuItem</title>
<path fill="none" stroke="midnightblue" d="M1138.7,-725.541C1106.54,-693.244 1062.3,-654.236 1016,-630 872.215,-554.735 690.624,-514.309 560.649,-493.433"/>
<polygon fill="none" stroke="midnightblue" points="1136.27,-728.068 1145.78,-732.744 1141.27,-723.16 1136.27,-728.068"/>
</g>
<!-- Box_DropDownMenu -->
<g id="node17" class="node"><title>Box_DropDownMenu</title>
<polygon fill="#fcfcda" stroke="black" points="29.5,-111 29.5,-315 388.5,-315 388.5,-111 29.5,-111"/>
<text text-anchor="middle" x="209" y="-303.8" font-family="Helvetica,sans-Serif" font-size="8.00">DropDownMenu</text>
<polyline fill="none" stroke="black" points="29.5,-295 388.5,-295 "/>
<text text-anchor="start" x="37.5" y="-283.8" font-family="Helvetica,sans-Serif" font-size="8.00">Attributes:</text>
<text text-anchor="start" x="37.5" y="-271.8" font-family="Helvetica,sans-Serif" font-size="8.00">&#45; dropdown : VerticalMenu</text>
<text text-anchor="start" x="37.5" y="-259.8" font-family="Helvetica,sans-Serif" font-size="8.00">&#45; selected : MenuButton</text>
<text text-anchor="start" x="37.5" y="-247.8" font-family="Helvetica,sans-Serif" font-size="8.00">Methods:</text>
<polyline fill="none" stroke="black" points="29.5,-239 388.5,-239 "/>
<text text-anchor="start" x="37.5" y="-227.8" font-family="Helvetica,sans-Serif" font-size="8.00">+ DropDownMenu (GameState state, DisplayLayer drawOrder, int itemNum, MenuItemInfo info)</text>
<text text-anchor="start" x="37.5" y="-215.8" font-family="Helvetica,sans-Serif" font-size="8.00">+ AddEntries (DropDownMenuItem[] entries, DropDownMenuItem defaultEntry)</text>
<text text-anchor="start" x="37.5" y="-203.8" font-family="Helvetica,sans-Serif" font-size="8.00">+ AddEntries (DistinctOptionInfo option)</text>
<text text-anchor="start" x="37.5" y="-191.8" font-family="Helvetica,sans-Serif" font-size="8.00">+ SubComponents (GameTime gameTime) : IEnumerable&lt;IGameStateComponent&gt; override</text>
<text text-anchor="start" x="37.5" y="-179.8" font-family="Helvetica,sans-Serif" font-size="8.00">+ Collapse () override</text>
<text text-anchor="start" x="37.5" y="-167.8" font-family="Helvetica,sans-Serif" font-size="8.00">+ Draw (GameTime gameTime) override</text>
<text text-anchor="start" x="37.5" y="-155.8" font-family="Helvetica,sans-Serif" font-size="8.00">&#45; ValuePosition (int dummy = 0) : Vector2</text>
<text text-anchor="start" x="37.5" y="-143.8" font-family="Helvetica,sans-Serif" font-size="8.00">&#45; ValueSize (int dummy = 0) : Vector2</text>
<text text-anchor="start" x="37.5" y="-131.8" font-family="Helvetica,sans-Serif" font-size="8.00">&#45; DropDownBackgroundColor (ItemState itemState) : Color</text>
<text text-anchor="start" x="37.5" y="-119.8" font-family="Helvetica,sans-Serif" font-size="8.00">&#45; DropDownForegroundColor (ItemState itemState) : Color</text>
</g>
<!-- Box_MenuItem&#45;&gt;Box_DropDownMenu -->
<g id="edge46" class="edge"><title>Box_MenuItem&#45;&gt;Box_DropDownMenu</title>
<path fill="none" stroke="midnightblue" d="M302.122,-344.586C295.116,-334.686 288.101,-324.773 281.24,-315.078"/>
<polygon fill="none" stroke="midnightblue" points="299.368,-346.753 308.002,-352.894 305.082,-342.709 299.368,-346.753"/>
</g>
<!-- Box_MenuButton -->
<g id="node18" class="node"><title>Box_MenuButton</title>
<polygon fill="#fcfcda" stroke="black" points="405.5,-177 405.5,-249 748.5,-249 748.5,-177 405.5,-177"/>
<text text-anchor="middle" x="577" y="-237.8" font-family="Helvetica,sans-Serif" font-size="8.00">MenuButton</text>
<polyline fill="none" stroke="black" points="405.5,-229 748.5,-229 "/>
<text text-anchor="start" x="413.5" y="-217.8" font-family="Helvetica,sans-Serif" font-size="8.00">Attributes:</text>
<text text-anchor="start" x="413.5" y="-205.8" font-family="Helvetica,sans-Serif" font-size="8.00">Methods:</text>
<polyline fill="none" stroke="black" points="405.5,-197 748.5,-197 "/>
<text text-anchor="start" x="413.5" y="-185.8" font-family="Helvetica,sans-Serif" font-size="8.00">+ MenuButton (GameState state, DisplayLayer drawOrder, int itemNum, MenuItemInfo info)</text>
</g>
<!-- Box_MenuItem&#45;&gt;Box_MenuButton -->
<g id="edge48" class="edge"><title>Box_MenuItem&#45;&gt;Box_MenuButton</title>
<path fill="none" stroke="midnightblue" d="M483.962,-344.467C508.782,-309.395 533.703,-274.181 551.497,-249.037"/>
<polygon fill="none" stroke="midnightblue" points="480.918,-342.709 477.998,-352.894 486.632,-346.753 480.918,-342.709"/>
</g>
<!-- Box_XnaDrawableGameComponent -->
<g id="node19" class="node"><title>Box_XnaDrawableGameComponent</title>
<polygon fill="#ffffff" stroke="black" points="657.5,-1461 657.5,-1481 788.5,-1481 788.5,-1461 657.5,-1461"/>
<text text-anchor="middle" x="723" y="-1469.8" font-family="Helvetica,sans-Serif" font-size="8.00">Xna.DrawableGameComponent</text>
</g>
<!-- Box_XnaDrawableGameComponent&#45;&gt;Box_DrawableGameStateComponent -->
<g id="edge2" class="edge"><title>Box_XnaDrawableGameComponent&#45;&gt;Box_DrawableGameStateComponent</title>
<path fill="none" stroke="midnightblue" d="M707.148,-1453.44C692.817,-1437.57 670.95,-1413.36 650.861,-1391.11"/>
<polygon fill="none" stroke="midnightblue" points="704.606,-1455.85 713.905,-1460.93 709.801,-1451.16 704.606,-1455.85"/>
</g>
<!-- Box_XnaIGameComponent -->
<g id="node20" class="node"><title>Box_XnaIGameComponent</title>
<polygon fill="#ffffff" stroke="black" points="431.5,-1551 431.5,-1571 530.5,-1571 530.5,-1551 431.5,-1551"/>
<text text-anchor="middle" x="481" y="-1559.8" font-family="Helvetica,sans-Serif" font-size="8.00">Xna.IGameComponent</text>
</g>
<!-- Box_XnaIGameComponent&#45;&gt;Box_IGameStateComponent -->
<g id="edge6" class="edge"><title>Box_XnaIGameComponent&#45;&gt;Box_IGameStateComponent</title>
<path fill="none" stroke="midnightblue" d="M481,-1540.45C481,-1532.39 481,-1522.83 481,-1513.41"/>
<polygon fill="none" stroke="midnightblue" points="477.5,-1540.68 481,-1550.68 484.5,-1540.68 477.5,-1540.68"/>
</g>
<!-- Box_IEnumerable -->
<g id="node21" class="node"><title>Box_IEnumerable</title>
<polygon fill="#ffffff" stroke="black" points="1131,-1327 1131,-1347 1249,-1347 1249,-1327 1131,-1327"/>
<text text-anchor="middle" x="1190" y="-1335.8" font-family="Helvetica,sans-Serif" font-size="8.00">IEnumerable&lt;IGameObject&gt;</text>
</g>
<!-- Box_IEnumerable&#45;&gt;Box_World -->
<g id="edge14" class="edge"><title>Box_IEnumerable&#45;&gt;Box_World</title>
<path fill="none" stroke="midnightblue" d="M1190,-1316.73C1190,-1297.13 1190,-1265.68 1190,-1233.03"/>
<polygon fill="none" stroke="midnightblue" points="1186.5,-1316.82 1190,-1326.82 1193.5,-1316.82 1186.5,-1316.82"/>
</g>
<!-- Box_IMouseEventListener -->
<g id="node22" class="node"><title>Box_IMouseEventListener</title>
<polygon fill="#ffffff" stroke="black" points="518,-1097 518,-1117 610,-1117 610,-1097 518,-1097"/>
<text text-anchor="middle" x="564" y="-1105.8" font-family="Helvetica,sans-Serif" font-size="8.00">IMouseEventListener</text>
</g>
<!-- Box_IMouseEventListener&#45;&gt;Box_ColorPicker -->
<g id="edge20" class="edge"><title>Box_IMouseEventListener&#45;&gt;Box_ColorPicker</title>
<path fill="none" stroke="midnightblue" d="M563.874,-1086.53C563.649,-1049.77 563.159,-969.976 562.737,-901.151"/>
<polygon fill="none" stroke="midnightblue" points="560.377,-1086.91 563.938,-1096.89 567.376,-1086.86 560.377,-1086.91"/>
</g>
<!-- Box_IMouseEventListener&#45;&gt;Box_MenuItem -->
<g id="edge42" class="edge"><title>Box_IMouseEventListener&#45;&gt;Box_MenuItem</title>
<path fill="none" stroke="midnightblue" d="M561.66,-1086.67C557.077,-1056.37 544.088,-999.533 509,-968 464.409,-927.927 415.298,-979.715 379,-932 306.175,-836.267 324.052,-693.946 351.015,-593.204"/>
<polygon fill="none" stroke="midnightblue" points="558.231,-1087.44 563.033,-1096.88 565.168,-1086.5 558.231,-1087.44"/>
</g>
<!-- Box_IKeyEventListener -->
<g id="node23" class="node"><title>Box_IKeyEventListener</title>
<polygon fill="#ffffff" stroke="black" points="630.5,-1097 630.5,-1117 711.5,-1117 711.5,-1097 630.5,-1097"/>
<text text-anchor="middle" x="671" y="-1105.8" font-family="Helvetica,sans-Serif" font-size="8.00">IKeyEventListener</text>
</g>
<!-- Box_IKeyEventListener&#45;&gt;Box_TextInput -->
<g id="edge36" class="edge"><title>Box_IKeyEventListener&#45;&gt;Box_TextInput</title>
<path fill="none" stroke="midnightblue" d="M676.276,-1087.07C684.063,-1059.34 700.11,-1008.02 722,-968 741.466,-932.415 767.251,-896.243 791.503,-865.315"/>
<polygon fill="none" stroke="midnightblue" points="672.881,-1086.22 673.617,-1096.79 679.633,-1088.06 672.881,-1086.22"/>
</g>
<!-- Box_IKeyEventListener&#45;&gt;Box_MenuItem -->
<g id="edge44" class="edge"><title>Box_IKeyEventListener&#45;&gt;Box_MenuItem</title>
<path fill="none" stroke="midnightblue" d="M669.556,-1086.67C666.218,-1055.93 655.206,-998.035 619,-968 547.129,-908.38 473.573,-1002.21 412,-932 369.337,-883.356 373.121,-711.997 381.613,-593.014"/>
<polygon fill="none" stroke="midnightblue" points="666.074,-1087.02 670.471,-1096.66 673.045,-1086.39 666.074,-1087.02"/>
</g>
</g>
</svg>
