<?xml version="1.0" encoding="UTF-8" standalone="no"?>
<!DOCTYPE svg PUBLIC "-//W3C//DTD SVG 1.1//EN"
 "http://www.w3.org/Graphics/SVG/1.1/DTD/svg11.dtd">
<!-- Generated by graphviz version 2.26.3 (20100126.1600)
 -->
<!-- Title: MenuItem Pages: 1 -->
<svg width="4004pt" height="3750pt"
 viewBox="0.00 0.00 961.00 900.00" xmlns="http://www.w3.org/2000/svg" xmlns:xlink="http://www.w3.org/1999/xlink">
<g id="graph1" class="graph" transform="scale(4.16667 4.16667) rotate(0) translate(4 896)">
<title>MenuItem</title>
<polygon fill="white" stroke="white" points="-4,5 -4,-896 958,-896 958,5 -4,5"/>
<!-- Box_MenuItem -->
<g id="node1" class="node"><title>Box_MenuItem</title>
<polygon fill="#fcfcda" stroke="black" points="267.5,-193 267.5,-377 614.5,-377 614.5,-193 267.5,-193"/>
<text text-anchor="middle" x="441" y="-365.8" font-family="Arial" font-size="8.00">MenuItem</text>
<polyline fill="none" stroke="black" points="267.5,-359 614.5,-359 "/>
<text text-anchor="start" x="275.5" y="-347.8" font-family="Arial" font-size="8.00"># spriteBatch : SpriteBatch</text>
<text text-anchor="start" x="275.5" y="-337.8" font-family="Arial" font-size="8.00">+ IsMouseEventEnabled : bool</text>
<text text-anchor="start" x="275.5" y="-327.8" font-family="Arial" font-size="8.00">+ ValidKeys : List&lt;Keys&gt;</text>
<text text-anchor="start" x="275.5" y="-317.8" font-family="Arial" font-size="8.00">+ IsKeyEventEnabled : bool</text>
<text text-anchor="start" x="275.5" y="-307.8" font-family="Arial" font-size="8.00">+ Info : MenuItemInfo</text>
<polyline fill="none" stroke="black" points="267.5,-301 614.5,-301 "/>
<text text-anchor="start" x="275.5" y="-289.8" font-family="Arial" font-size="8.00">+ MenuItem (GameScreen screen, DisplayLayer drawOrder, int itemNum, MenuItemInfo info)</text>
<text text-anchor="start" x="275.5" y="-279.8" font-family="Arial" font-size="8.00">+ Collapse () virtual</text>
<text text-anchor="start" x="275.5" y="-269.8" font-family="Arial" font-size="8.00">+ OnKeyEvent (List&lt;Keys&gt; key, KeyEvent keyEvent, GameTime gameTime)</text>
<text text-anchor="start" x="275.5" y="-259.8" font-family="Arial" font-size="8.00">+ OnLeftClick (Vector2 position, ClickState click, GameTime gameTime)</text>
<text text-anchor="start" x="275.5" y="-249.8" font-family="Arial" font-size="8.00">+ OnRightClick (Vector2 position, ClickState click, GameTime gameTime)</text>
<text text-anchor="start" x="275.5" y="-239.8" font-family="Arial" font-size="8.00">+ MinimumSize (SpriteFont font) : Vector2</text>
<text text-anchor="start" x="275.5" y="-229.8" font-family="Arial" font-size="8.00">+ TextPosition (SpriteFont font) : Vector2</text>
<text text-anchor="start" x="275.5" y="-219.8" font-family="Arial" font-size="8.00">+ TextPosition (SpriteFont font, Vector2 scale) : Vector2</text>
<text text-anchor="start" x="275.5" y="-209.8" font-family="Arial" font-size="8.00">+ Draw (GameTime gameTime)</text>
<text text-anchor="start" x="275.5" y="-199.8" font-family="Arial" font-size="8.00">+ SetHovered (bool hovered)</text>
</g>
<!-- Box_DropDownMenu -->
<g id="node8" class="node"><title>Box_DropDownMenu</title>
<polygon fill="#fcfcda" stroke="black" points="64,-1 64,-155 436,-155 436,-1 64,-1"/>
<text text-anchor="middle" x="250" y="-143.8" font-family="Arial" font-size="8.00">DropDownMenu</text>
<polyline fill="none" stroke="black" points="64,-137 436,-137 "/>
<text text-anchor="start" x="72" y="-125.8" font-family="Arial" font-size="8.00">&#45; selected : MenuButton</text>
<text text-anchor="start" x="72" y="-115.8" font-family="Arial" font-size="8.00">&#45; dropdown : VerticalMenu</text>
<polyline fill="none" stroke="black" points="64,-109 436,-109 "/>
<text text-anchor="start" x="72" y="-97.8" font-family="Arial" font-size="8.00">&#45; ValuePosition (int dummy) : Vector2</text>
<text text-anchor="start" x="72" y="-87.8" font-family="Arial" font-size="8.00">+ DropDownMenu (GameScreen screen, DisplayLayer drawOrder, int itemNum, MenuItemInfo info)</text>
<text text-anchor="start" x="72" y="-77.8" font-family="Arial" font-size="8.00">&#45; DropDownBackgroundColor (ItemState itemState) : Color</text>
<text text-anchor="start" x="72" y="-67.8" font-family="Arial" font-size="8.00">&#45; DropDownForegroundColor (ItemState itemState) : Color</text>
<text text-anchor="start" x="72" y="-57.8" font-family="Arial" font-size="8.00">&#45; ValueSize (int dummy) : Vector2</text>
<text text-anchor="start" x="72" y="-47.8" font-family="Arial" font-size="8.00">+ SubComponents (GameTime gameTime) : IEnumerable&lt;IGameScreenComponent&gt;</text>
<text text-anchor="start" x="72" y="-37.8" font-family="Arial" font-size="8.00">+ Collapse ()</text>
<text text-anchor="start" x="72" y="-27.8" font-family="Arial" font-size="8.00">+ Draw (GameTime gameTime)</text>
<text text-anchor="start" x="72" y="-17.8" font-family="Arial" font-size="8.00">+ AddEntries (DistinctOptionInfo option)</text>
<text text-anchor="start" x="72" y="-7.8" font-family="Arial" font-size="8.00">+ AddEntries (DropDownMenuItem[] entries, DropDownMenuItem defaultEntry)</text>
</g>
<!-- Box_MenuItem&#45;&gt;Box_DropDownMenu -->
<g id="edge18" class="edge"><title>Box_MenuItem&#45;&gt;Box_DropDownMenu</title>
<path fill="none" stroke="midnightblue" d="M348.783,-185.058C339.544,-175.045 330.264,-164.987 321.289,-155.261"/>
<polygon fill="none" stroke="midnightblue" points="346.48,-187.724 355.834,-192.7 351.625,-182.977 346.48,-187.724"/>
</g>
<!-- Box_MenuButton -->
<g id="node9" class="node"><title>Box_MenuButton</title>
<polygon fill="#fcfcda" stroke="black" points="454,-51 454,-105 810,-105 810,-51 454,-51"/>
<text text-anchor="middle" x="632" y="-93.8" font-family="Arial" font-size="8.00">MenuButton</text>
<polyline fill="none" stroke="black" points="454,-87 810,-87 "/>
<text text-anchor="middle" x="632" y="-75.8" font-family="Arial" font-size="8.00"> </text>
<polyline fill="none" stroke="black" points="454,-69 810,-69 "/>
<text text-anchor="start" x="462" y="-57.8" font-family="Arial" font-size="8.00">+ MenuButton (GameScreen screen, DisplayLayer drawOrder, int itemNum, MenuItemInfo info)</text>
</g>
<!-- Box_MenuItem&#45;&gt;Box_MenuButton -->
<g id="edge20" class="edge"><title>Box_MenuItem&#45;&gt;Box_MenuButton</title>
<path fill="none" stroke="midnightblue" d="M533.039,-185.251C560.127,-155.894 587.586,-126.134 606.685,-105.435"/>
<polygon fill="none" stroke="midnightblue" points="530.375,-182.977 526.166,-192.7 535.52,-187.724 530.375,-182.977"/>
</g>
<!-- Box_IKeyEventListener -->
<g id="node2" class="node"><title>Box_IKeyEventListener</title>
<polygon fill="#dafcda" stroke="black" points="-0.5,-425 -0.5,-499 286.5,-499 286.5,-425 -0.5,-425"/>
<text text-anchor="middle" x="143" y="-487.8" font-family="Arial" font-size="8.00">IKeyEventListener</text>
<polyline fill="none" stroke="black" points="-0.5,-481 286.5,-481 "/>
<text text-anchor="start" x="7.5" y="-469.8" font-family="Arial" font-size="8.00">+ ValidKeys : List&lt;Keys&gt;</text>
<text text-anchor="start" x="7.5" y="-459.8" font-family="Arial" font-size="8.00">+ Index : DisplayLayer</text>
<text text-anchor="start" x="7.5" y="-449.8" font-family="Arial" font-size="8.00">+ IsKeyEventEnabled : bool</text>
<polyline fill="none" stroke="black" points="-0.5,-443 286.5,-443 "/>
<text text-anchor="start" x="7.5" y="-431.8" font-family="Arial" font-size="8.00">+ OnKeyEvent (List&lt;Keys&gt; key, KeyEvent keyEvent, GameTime gameTime)</text>
</g>
<!-- Box_IKeyEventListener&#45;&gt;Box_MenuItem -->
<g id="edge6" class="edge"><title>Box_IKeyEventListener&#45;&gt;Box_MenuItem</title>
<path fill="none" stroke="midnightblue" d="M214.278,-419.664C236.028,-406.745 260.847,-392.004 285.895,-377.126"/>
<polygon fill="none" stroke="midnightblue" points="212.281,-416.779 205.471,-424.895 215.856,-422.797 212.281,-416.779"/>
</g>
<!-- Box_IMouseEventListener -->
<g id="node3" class="node"><title>Box_IMouseEventListener</title>
<polygon fill="#dafcda" stroke="black" points="304,-415 304,-509 578,-509 578,-415 304,-415"/>
<text text-anchor="middle" x="441" y="-497.8" font-family="Arial" font-size="8.00">IMouseEventListener</text>
<polyline fill="none" stroke="black" points="304,-491 578,-491 "/>
<text text-anchor="start" x="312" y="-479.8" font-family="Arial" font-size="8.00">+ Index : DisplayLayer</text>
<text text-anchor="start" x="312" y="-469.8" font-family="Arial" font-size="8.00">+ IsMouseEventEnabled : bool</text>
<polyline fill="none" stroke="black" points="304,-463 578,-463 "/>
<text text-anchor="start" x="312" y="-451.8" font-family="Arial" font-size="8.00">+ OnLeftClick (Vector2 position, ClickState click, GameTime gameTime)</text>
<text text-anchor="start" x="312" y="-441.8" font-family="Arial" font-size="8.00">+ OnRightClick (Vector2 position, ClickState click, GameTime gameTime)</text>
<text text-anchor="start" x="312" y="-431.8" font-family="Arial" font-size="8.00">+ SetHovered (bool hovered)</text>
<text text-anchor="start" x="312" y="-421.8" font-family="Arial" font-size="8.00">+ bounds () : Rectangle</text>
</g>
<!-- Box_IMouseEventListener&#45;&gt;Box_MenuItem -->
<g id="edge4" class="edge"><title>Box_IMouseEventListener&#45;&gt;Box_MenuItem</title>
<path fill="none" stroke="midnightblue" d="M441,-404.543C441,-395.801 441,-386.597 441,-377.337"/>
<polygon fill="none" stroke="midnightblue" points="437.5,-404.567 441,-414.567 444.5,-404.567 437.5,-404.567"/>
</g>
<!-- Box_ItemWidget -->
<g id="node4" class="node"><title>Box_ItemWidget</title>
<polygon fill="#fcfcda" stroke="black" points="596,-430 596,-494 940,-494 940,-430 596,-430"/>
<text text-anchor="middle" x="768" y="-482.8" font-family="Arial" font-size="8.00">ItemWidget</text>
<polyline fill="none" stroke="black" points="596,-476 940,-476 "/>
<text text-anchor="start" x="604" y="-464.8" font-family="Arial" font-size="8.00">+ ItemState : ItemState</text>
<text text-anchor="start" x="604" y="-454.8" font-family="Arial" font-size="8.00"># ItemNum : int</text>
<polyline fill="none" stroke="black" points="596,-448 940,-448 "/>
<text text-anchor="start" x="604" y="-436.8" font-family="Arial" font-size="8.00">+ ItemWidget (GameScreen screen, WidgetInfo info, DisplayLayer drawOrder, int itemNum)</text>
</g>
<!-- Box_ItemWidget&#45;&gt;Box_MenuItem -->
<g id="edge2" class="edge"><title>Box_ItemWidget&#45;&gt;Box_MenuItem</title>
<path fill="none" stroke="midnightblue" d="M699.767,-425.066C673.67,-410.94 642.599,-394.122 611.199,-377.126"/>
<polygon fill="none" stroke="midnightblue" points="698.322,-428.264 708.783,-429.947 701.655,-422.108 698.322,-428.264"/>
</g>
<!-- Box_Widget -->
<g id="node5" class="node"><title>Box_Widget</title>
<polygon fill="#fcfcda" stroke="black" points="626,-547 626,-621 910,-621 910,-547 626,-547"/>
<text text-anchor="middle" x="768" y="-609.8" font-family="Arial" font-size="8.00">Widget</text>
<polyline fill="none" stroke="black" points="626,-603 910,-603 "/>
<text text-anchor="start" x="634" y="-591.8" font-family="Arial" font-size="8.00">+ Info : WidgetInfo</text>
<text text-anchor="start" x="634" y="-581.8" font-family="Arial" font-size="8.00">+ IsVisible : bool virtual</text>
<polyline fill="none" stroke="black" points="626,-575 910,-575 "/>
<text text-anchor="start" x="634" y="-563.8" font-family="Arial" font-size="8.00">+ bounds () : Rectangle</text>
<text text-anchor="start" x="634" y="-553.8" font-family="Arial" font-size="8.00">+ Widget (GameScreen screen, WidgetInfo info, DisplayLayer drawOrder)</text>
</g>
<!-- Box_Widget&#45;&gt;Box_ItemWidget -->
<g id="edge8" class="edge"><title>Box_Widget&#45;&gt;Box_ItemWidget</title>
<path fill="none" stroke="midnightblue" d="M768,-536.6C768,-522.366 768,-507.091 768,-494.094"/>
<polygon fill="none" stroke="midnightblue" points="764.5,-536.733 768,-546.733 771.5,-536.733 764.5,-536.733"/>
</g>
<!-- Box_DrawableGameScreenComponent -->
<g id="node6" class="node"><title>Box_DrawableGameScreenComponent</title>
<polygon fill="#fcfcda" stroke="black" points="598.5,-659 598.5,-743 937.5,-743 937.5,-659 598.5,-659"/>
<text text-anchor="middle" x="768" y="-731.8" font-family="Arial" font-size="8.00">DrawableGameScreenComponent</text>
<polyline fill="none" stroke="black" points="598.5,-725 937.5,-725 "/>
<text text-anchor="start" x="606.5" y="-713.8" font-family="Arial" font-size="8.00">+ Index : DisplayLayer</text>
<text text-anchor="start" x="606.5" y="-703.8" font-family="Arial" font-size="8.00">&#45; _index : DisplayLayer</text>
<text text-anchor="start" x="606.5" y="-693.8" font-family="Arial" font-size="8.00">+ screen : GameScreen</text>
<polyline fill="none" stroke="black" points="598.5,-687 937.5,-687 "/>
<text text-anchor="start" x="606.5" y="-675.8" font-family="Arial" font-size="8.00">+ DrawableGameScreenComponent (GameScreen screen, DisplayLayer index)</text>
<text text-anchor="start" x="606.5" y="-665.8" font-family="Arial" font-size="8.00">+ SubComponents (GameTime gameTime) : IEnumerable&lt;IGameScreenComponent&gt; virtual</text>
</g>
<!-- Box_DrawableGameScreenComponent&#45;&gt;Box_Widget -->
<g id="edge10" class="edge"><title>Box_DrawableGameScreenComponent&#45;&gt;Box_Widget</title>
<path fill="none" stroke="midnightblue" d="M768,-648.482C768,-639.258 768,-629.834 768,-621.14"/>
<polygon fill="none" stroke="midnightblue" points="764.5,-648.76 768,-658.76 771.5,-648.76 764.5,-648.76"/>
</g>
<!-- Box_IGameScreenComponent -->
<g id="node7" class="node"><title>Box_IGameScreenComponent</title>
<polygon fill="#dafcda" stroke="black" points="490.5,-781 490.5,-835 805.5,-835 805.5,-781 490.5,-781"/>
<text text-anchor="middle" x="648" y="-823.8" font-family="Arial" font-size="8.00">IGameScreenComponent</text>
<polyline fill="none" stroke="black" points="490.5,-817 805.5,-817 "/>
<text text-anchor="start" x="498.5" y="-805.8" font-family="Arial" font-size="8.00">+ Index : DisplayLayer</text>
<polyline fill="none" stroke="black" points="490.5,-799 805.5,-799 "/>
<text text-anchor="start" x="498.5" y="-787.8" font-family="Arial" font-size="8.00">+ SubComponents (GameTime gameTime) : IEnumerable&lt;IGameScreenComponent&gt;</text>
</g>
<!-- Box_IGameScreenComponent&#45;&gt;Box_DrawableGameScreenComponent -->
<g id="edge14" class="edge"><title>Box_IGameScreenComponent&#45;&gt;Box_DrawableGameScreenComponent</title>
<path fill="none" stroke="midnightblue" d="M686.017,-774.102C696.949,-764.354 709.012,-753.598 720.444,-743.404"/>
<polygon fill="none" stroke="midnightblue" points="683.416,-771.732 678.281,-780.999 688.074,-776.956 683.416,-771.732"/>
</g>
<!-- Box_XnaDrawableGameComponent -->
<g id="node10" class="node"><title>Box_XnaDrawableGameComponent</title>
<polygon fill="#ffffff" stroke="black" points="823,-799 823,-817 953,-817 953,-799 823,-799"/>
<text text-anchor="middle" x="888" y="-805.8" font-family="Arial" font-size="8.00">Xna.DrawableGameComponent</text>
</g>
<!-- Box_XnaDrawableGameComponent&#45;&gt;Box_DrawableGameScreenComponent -->
<g id="edge12" class="edge"><title>Box_XnaDrawableGameComponent&#45;&gt;Box_DrawableGameScreenComponent</title>
<path fill="none" stroke="midnightblue" d="M870.077,-792.018C855.616,-779.124 834.59,-760.376 815.373,-743.241"/>
<polygon fill="none" stroke="midnightblue" points="867.976,-794.834 877.769,-798.877 872.634,-789.61 867.976,-794.834"/>
</g>
<!-- Box_XnaIGameComponent -->
<g id="node11" class="node"><title>Box_XnaIGameComponent</title>
<polygon fill="#ffffff" stroke="black" points="600,-873 600,-891 696,-891 696,-873 600,-873"/>
<text text-anchor="middle" x="648" y="-879.8" font-family="Arial" font-size="8.00">Xna.IGameComponent</text>
</g>
<!-- Box_XnaIGameComponent&#45;&gt;Box_IGameScreenComponent -->
<g id="edge16" class="edge"><title>Box_XnaIGameComponent&#45;&gt;Box_IGameScreenComponent</title>
<path fill="none" stroke="midnightblue" d="M648,-862.64C648,-854.2 648,-844.16 648,-835.004"/>
<polygon fill="none" stroke="midnightblue" points="644.5,-862.926 648,-872.926 651.5,-862.926 644.5,-862.926"/>
</g>
</g>
</svg>
