<?xml version="1.0" encoding="UTF-8" standalone="no"?>
<!DOCTYPE svg PUBLIC "-//W3C//DTD SVG 1.1//EN"
 "http://www.w3.org/Graphics/SVG/1.1/DTD/svg11.dtd">
<!-- Generated by graphviz version 2.26.3 (20100126.1600)
 -->
<!-- Title: MenuItem Pages: 1 -->
<svg width="942pt" height="568pt"
 viewBox="0.00 0.00 942.00 568.00" xmlns="http://www.w3.org/2000/svg" xmlns:xlink="http://www.w3.org/1999/xlink">
<g id="graph1" class="graph" transform="scale(1 1) rotate(0) translate(4 564)">
<title>MenuItem</title>
<polygon fill="white" stroke="white" points="-4,5 -4,-564 939,-564 939,5 -4,5"/>
<!-- Box_GameModel -->
<g id="node1" class="node"><title>Box_GameModel</title>
<polygon fill="#fcfcda" stroke="black" points="363,-133 363,-427 587,-427 587,-133 363,-133"/>
<text text-anchor="middle" x="475" y="-415.8" font-family="Arial" font-size="8.00">GameModel</text>
<polyline fill="none" stroke="black" points="363,-409 587,-409 "/>
<text text-anchor="start" x="371" y="-397.8" font-family="Arial" font-size="8.00">&#45; IGameObject.Info : GameObjectInfo</text>
<text text-anchor="start" x="371" y="-387.8" font-family="Arial" font-size="8.00">&#45; _rotation : Angles3</text>
<text text-anchor="start" x="371" y="-377.8" font-family="Arial" font-size="8.00">&#45; Bounds : BoundingSphere[]</text>
<text text-anchor="start" x="371" y="-367.8" font-family="Arial" font-size="8.00">&#45; _bounds : BoundingSphere[]</text>
<text text-anchor="start" x="371" y="-357.8" font-family="Arial" font-size="8.00">&#45; _worldMatrix : Matrix</text>
<text text-anchor="start" x="371" y="-347.8" font-family="Arial" font-size="8.00">&#45; _position : Vector3</text>
<text text-anchor="start" x="371" y="-337.8" font-family="Arial" font-size="8.00">&#45; _inFrustum : bool</text>
<text text-anchor="start" x="371" y="-327.8" font-family="Arial" font-size="8.00"># InCameraFrustum : bool</text>
<text text-anchor="start" x="371" y="-317.8" font-family="Arial" font-size="8.00">+ BaseColor : Color</text>
<text text-anchor="start" x="371" y="-307.8" font-family="Arial" font-size="8.00">+ HighlightColor : Color</text>
<text text-anchor="start" x="371" y="-297.8" font-family="Arial" font-size="8.00">+ Info : GameModelInfo</text>
<text text-anchor="start" x="371" y="-287.8" font-family="Arial" font-size="8.00">+ WorldMatrix : Matrix</text>
<text text-anchor="start" x="371" y="-277.8" font-family="Arial" font-size="8.00">+ World : World</text>
<text text-anchor="start" x="371" y="-267.8" font-family="Arial" font-size="8.00">+ Alpha : float</text>
<text text-anchor="start" x="371" y="-257.8" font-family="Arial" font-size="8.00">+ HighlightIntensity : float</text>
<text text-anchor="start" x="371" y="-247.8" font-family="Arial" font-size="8.00">&#45; _scale : Vector3</text>
<text text-anchor="start" x="371" y="-237.8" font-family="Arial" font-size="8.00">&#45; _world : World</text>
<text text-anchor="start" x="371" y="-227.8" font-family="Arial" font-size="8.00"># screen : GameScreen</text>
<text text-anchor="start" x="371" y="-217.8" font-family="Arial" font-size="8.00">+ Model : Model virtual</text>
<polyline fill="none" stroke="black" points="363,-211 587,-211 "/>
<text text-anchor="start" x="371" y="-199.8" font-family="Arial" font-size="8.00">&#45; OnViewChanged ()</text>
<text text-anchor="start" x="371" y="-189.8" font-family="Arial" font-size="8.00">&#45; UpdatePrecomputed ()</text>
<text text-anchor="start" x="371" y="-179.8" font-family="Arial" font-size="8.00">+ GameModel (GameScreen screen, GameModelInfo info)</text>
<text text-anchor="start" x="371" y="-169.8" font-family="Arial" font-size="8.00">+ Draw (GameTime time) virtual</text>
<text text-anchor="start" x="371" y="-159.8" font-family="Arial" font-size="8.00">+ Center () : Vector3</text>
<text text-anchor="start" x="371" y="-149.8" font-family="Arial" font-size="8.00">+ Intersects (Ray ray) : GameObjectDistance virtual</text>
<text text-anchor="start" x="371" y="-139.8" font-family="Arial" font-size="8.00">+ Update (GameTime time) virtual</text>
</g>
<!-- Box_ArrowModel -->
<g id="node3" class="node"><title>Box_ArrowModel</title>
<polygon fill="#fcfcda" stroke="black" points="0,-6 0,-90 230,-90 230,-6 0,-6"/>
<text text-anchor="middle" x="115" y="-78.8" font-family="Arial" font-size="8.00">ArrowModel</text>
<polyline fill="none" stroke="black" points="0,-72 230,-72 "/>
<text text-anchor="start" x="8" y="-60.8" font-family="Arial" font-size="8.00">&#45; Bounds : BoundingSphere[]</text>
<text text-anchor="start" x="8" y="-50.8" font-family="Arial" font-size="8.00">+ Info : ArrowModelInfo</text>
<polyline fill="none" stroke="black" points="0,-44 230,-44 "/>
<text text-anchor="start" x="8" y="-32.8" font-family="Arial" font-size="8.00">+ ArrowModel (GameScreen screen, ArrowModelInfo info)</text>
<text text-anchor="start" x="8" y="-22.8" font-family="Arial" font-size="8.00">+ Intersects (Ray ray) : GameObjectDistance</text>
<text text-anchor="start" x="8" y="-12.8" font-family="Arial" font-size="8.00">+ Draw (GameTime time)</text>
</g>
<!-- Box_GameModel&#45;&gt;Box_ArrowModel -->
<g id="edge4" class="edge"><title>Box_GameModel&#45;&gt;Box_ArrowModel</title>
<path fill="none" stroke="midnightblue" d="M354.073,-202.069C295.974,-164.628 228.641,-121.235 180.265,-90.0599"/>
<polygon fill="none" stroke="midnightblue" points="352.273,-205.073 362.575,-207.548 356.065,-199.189 352.273,-205.073"/>
</g>
<!-- Box_NodeModel -->
<g id="node4" class="node"><title>Box_NodeModel</title>
<polygon fill="#fcfcda" stroke="black" points="248,-16 248,-80 468,-80 468,-16 248,-16"/>
<text text-anchor="middle" x="358" y="-68.8" font-family="Arial" font-size="8.00">NodeModel</text>
<polyline fill="none" stroke="black" points="248,-62 468,-62 "/>
<text text-anchor="start" x="256" y="-50.8" font-family="Arial" font-size="8.00">+ Info : NodeModelInfo</text>
<polyline fill="none" stroke="black" points="248,-44 468,-44 "/>
<text text-anchor="start" x="256" y="-32.8" font-family="Arial" font-size="8.00">+ NodeModel (GameScreen screen, NodeModelInfo info)</text>
<text text-anchor="start" x="256" y="-22.8" font-family="Arial" font-size="8.00">+ Draw (GameTime time)</text>
</g>
<!-- Box_GameModel&#45;&gt;Box_NodeModel -->
<g id="edge6" class="edge"><title>Box_GameModel&#45;&gt;Box_NodeModel</title>
<path fill="none" stroke="midnightblue" d="M396.127,-123.602C387.934,-107.357 380.351,-92.32 374.141,-80.0055"/>
<polygon fill="none" stroke="midnightblue" points="393.108,-125.389 400.736,-132.742 399.358,-122.237 393.108,-125.389"/>
</g>
<!-- Box_PipeModel -->
<g id="node5" class="node"><title>Box_PipeModel</title>
<polygon fill="#fcfcda" stroke="black" points="486,-1 486,-95 698,-95 698,-1 486,-1"/>
<text text-anchor="middle" x="592" y="-83.8" font-family="Arial" font-size="8.00">PipeModel</text>
<polyline fill="none" stroke="black" points="486,-77 698,-77 "/>
<text text-anchor="start" x="494" y="-65.8" font-family="Arial" font-size="8.00">&#45; Bounds : BoundingSphere[]</text>
<text text-anchor="start" x="494" y="-55.8" font-family="Arial" font-size="8.00">+ Info : PipeModelInfo</text>
<polyline fill="none" stroke="black" points="486,-49 698,-49 "/>
<text text-anchor="start" x="494" y="-37.8" font-family="Arial" font-size="8.00">+ OnDataChange () : Action</text>
<text text-anchor="start" x="494" y="-27.8" font-family="Arial" font-size="8.00">+ PipeModel (GameScreen screen, PipeModelInfo info)</text>
<text text-anchor="start" x="494" y="-17.8" font-family="Arial" font-size="8.00">+ Intersects (Ray ray) : GameObjectDistance</text>
<text text-anchor="start" x="494" y="-7.8" font-family="Arial" font-size="8.00">+ Draw (GameTime time)</text>
</g>
<!-- Box_GameModel&#45;&gt;Box_PipeModel -->
<g id="edge8" class="edge"><title>Box_GameModel&#45;&gt;Box_PipeModel</title>
<path fill="none" stroke="midnightblue" d="M553.821,-123.705C558.943,-113.549 563.828,-103.863 568.289,-95.0174"/>
<polygon fill="none" stroke="midnightblue" points="550.642,-122.237 549.264,-132.742 556.892,-125.389 550.642,-122.237"/>
</g>
<!-- Box_TestModel -->
<g id="node6" class="node"><title>Box_TestModel</title>
<polygon fill="#fcfcda" stroke="black" points="716,-16 716,-80 934,-80 934,-16 716,-16"/>
<text text-anchor="middle" x="825" y="-68.8" font-family="Arial" font-size="8.00">TestModel</text>
<polyline fill="none" stroke="black" points="716,-62 934,-62 "/>
<text text-anchor="middle" x="825" y="-50.8" font-family="Arial" font-size="8.00"> </text>
<polyline fill="none" stroke="black" points="716,-44 934,-44 "/>
<text text-anchor="start" x="724" y="-32.8" font-family="Arial" font-size="8.00">+ Update (GameTime time)</text>
<text text-anchor="start" x="724" y="-22.8" font-family="Arial" font-size="8.00">+ TestModel (GameScreen screen, GameModelInfo info)</text>
</g>
<!-- Box_GameModel&#45;&gt;Box_TestModel -->
<g id="edge10" class="edge"><title>Box_GameModel&#45;&gt;Box_TestModel</title>
<path fill="none" stroke="midnightblue" d="M595.856,-199.89C657.797,-158.831 729.777,-111.119 776.29,-80.2877"/>
<polygon fill="none" stroke="midnightblue" points="593.588,-197.194 587.186,-205.636 597.455,-203.029 593.588,-197.194"/>
</g>
<!-- Box_IGameObject -->
<g id="node2" class="node"><title>Box_IGameObject</title>
<polygon fill="#dafcda" stroke="black" points="385.5,-465 385.5,-559 564.5,-559 564.5,-465 385.5,-465"/>
<text text-anchor="middle" x="475" y="-547.8" font-family="Arial" font-size="8.00">IGameObject</text>
<polyline fill="none" stroke="black" points="385.5,-541 564.5,-541 "/>
<text text-anchor="start" x="393.5" y="-529.8" font-family="Arial" font-size="8.00">+ Info : GameObjectInfo</text>
<text text-anchor="start" x="393.5" y="-519.8" font-family="Arial" font-size="8.00">+ World : World</text>
<polyline fill="none" stroke="black" points="385.5,-513 564.5,-513 "/>
<text text-anchor="start" x="393.5" y="-501.8" font-family="Arial" font-size="8.00">+ Draw (GameTime time)</text>
<text text-anchor="start" x="393.5" y="-491.8" font-family="Arial" font-size="8.00">+ Update (GameTime time)</text>
<text text-anchor="start" x="393.5" y="-481.8" font-family="Arial" font-size="8.00">+ Intersects (Ray ray) : GameObjectDistance</text>
<text text-anchor="start" x="393.5" y="-471.8" font-family="Arial" font-size="8.00">+ Center () : Vector3</text>
</g>
<!-- Box_IGameObject&#45;&gt;Box_GameModel -->
<g id="edge2" class="edge"><title>Box_IGameObject&#45;&gt;Box_GameModel</title>
<path fill="none" stroke="midnightblue" d="M475,-454.563C475,-445.94 475,-436.731 475,-427.221"/>
<polygon fill="none" stroke="midnightblue" points="471.5,-454.772 475,-464.772 478.5,-454.772 471.5,-454.772"/>
</g>
</g>
</svg>
