<?xml version="1.0" encoding="UTF-8" standalone="no"?>
<!DOCTYPE svg PUBLIC "-//W3C//DTD SVG 1.1//EN"
 "http://www.w3.org/Graphics/SVG/1.1/DTD/svg11.dtd">
<!-- Generated by graphviz version 2.26.3 (20100126.1600)
 -->
<!-- Title: MenuItem Pages: 1 -->
<svg width="474pt" height="612pt"
 viewBox="0.00 0.00 474.00 612.00" xmlns="http://www.w3.org/2000/svg" xmlns:xlink="http://www.w3.org/1999/xlink">
<g id="graph1" class="graph" transform="scale(1 1) rotate(0) translate(4 608)">
<title>MenuItem</title>
<polygon fill="white" stroke="white" points="-4,5 -4,-608 471,-608 471,5 -4,5"/>
<!-- Box_Overlay -->
<g id="node1" class="node"><title>Box_Overlay</title>
<polygon fill="#fcfcda" stroke="black" points="120,-1 120,-277 440,-277 440,-1 120,-1"/>
<text text-anchor="middle" x="280" y="-265.8" font-family="Helvetica,sans-Serif" font-size="8.00">Overlay</text>
<polyline fill="none" stroke="black" points="120,-257 440,-257 "/>
<text text-anchor="start" x="128" y="-245.8" font-family="Helvetica,sans-Serif" font-size="8.00">Attributes:</text>
<text text-anchor="start" x="128" y="-233.8" font-family="Helvetica,sans-Serif" font-size="8.00">&#45; effect : BasicEffect</text>
<text text-anchor="start" x="128" y="-221.8" font-family="Helvetica,sans-Serif" font-size="8.00">&#45; _elapsed_time : float</text>
<text text-anchor="start" x="128" y="-209.8" font-family="Helvetica,sans-Serif" font-size="8.00">&#45; _fps : int</text>
<text text-anchor="start" x="128" y="-197.8" font-family="Helvetica,sans-Serif" font-size="8.00">&#45; World : World</text>
<text text-anchor="start" x="128" y="-185.8" font-family="Helvetica,sans-Serif" font-size="8.00">&#45; _total_frames : int</text>
<text text-anchor="start" x="128" y="-173.8" font-family="Helvetica,sans-Serif" font-size="8.00">&#45; spriteBatch : SpriteBatch</text>
<text text-anchor="start" x="128" y="-161.8" font-family="Helvetica,sans-Serif" font-size="8.00">&#45; font : SpriteFont</text>
<text text-anchor="start" x="128" y="-149.8" font-family="Helvetica,sans-Serif" font-size="8.00">Methods:</text>
<polyline fill="none" stroke="black" points="120,-141 440,-141 "/>
<text text-anchor="start" x="128" y="-129.8" font-family="Helvetica,sans-Serif" font-size="8.00">&#45; DrawFPS (GameTime gameTime)</text>
<text text-anchor="start" x="128" y="-117.8" font-family="Helvetica,sans-Serif" font-size="8.00">&#45; DrawString (float n, int width, int height, Color color)</text>
<text text-anchor="start" x="128" y="-105.8" font-family="Helvetica,sans-Serif" font-size="8.00">&#45; DrawVectorCoordinates (Vector3 vector, int width2, int width3, int width4, int height)</text>
<text text-anchor="start" x="128" y="-93.8" font-family="Helvetica,sans-Serif" font-size="8.00">&#45; UpdateFPS (GameTime gameTime)</text>
<text text-anchor="start" x="128" y="-81.8" font-family="Helvetica,sans-Serif" font-size="8.00">+ Overlay (GameState state, World world)</text>
<text text-anchor="start" x="128" y="-69.8" font-family="Helvetica,sans-Serif" font-size="8.00">+ Draw (GameTime gameTime)</text>
<text text-anchor="start" x="128" y="-57.8" font-family="Helvetica,sans-Serif" font-size="8.00">&#45; DrawCoordinates (GameTime gameTime)</text>
<text text-anchor="start" x="128" y="-45.8" font-family="Helvetica,sans-Serif" font-size="8.00">&#45; DrawOverlay (GameTime gameTime)</text>
<text text-anchor="start" x="128" y="-33.8" font-family="Helvetica,sans-Serif" font-size="8.00">&#45; DrawString (string str, int width, int height, Color color)</text>
<text text-anchor="start" x="128" y="-21.8" font-family="Helvetica,sans-Serif" font-size="8.00"># LoadContent ()</text>
<text text-anchor="start" x="128" y="-9.8" font-family="Helvetica,sans-Serif" font-size="8.00">+ Update (GameTime gameTime)</text>
</g>
<!-- Box_DrawableGameStateComponent -->
<g id="node2" class="node"><title>Box_DrawableGameStateComponent</title>
<polygon fill="#fcfcda" stroke="black" points="109.5,-315 109.5,-423 450.5,-423 450.5,-315 109.5,-315"/>
<text text-anchor="middle" x="280" y="-411.8" font-family="Helvetica,sans-Serif" font-size="8.00">DrawableGameStateComponent</text>
<polyline fill="none" stroke="black" points="109.5,-403 450.5,-403 "/>
<text text-anchor="start" x="117.5" y="-391.8" font-family="Helvetica,sans-Serif" font-size="8.00">Attributes:</text>
<text text-anchor="start" x="117.5" y="-379.8" font-family="Helvetica,sans-Serif" font-size="8.00">+ state : GameState</text>
<text text-anchor="start" x="117.5" y="-367.8" font-family="Helvetica,sans-Serif" font-size="8.00">+ Index : int</text>
<text text-anchor="start" x="117.5" y="-355.8" font-family="Helvetica,sans-Serif" font-size="8.00">Methods:</text>
<polyline fill="none" stroke="black" points="109.5,-347 450.5,-347 "/>
<text text-anchor="start" x="117.5" y="-335.8" font-family="Helvetica,sans-Serif" font-size="8.00">+ DrawableGameStateComponent (GameState state, DisplayLayer drawOrder)</text>
<text text-anchor="start" x="117.5" y="-323.8" font-family="Helvetica,sans-Serif" font-size="8.00">+ SubComponents (GameTime gameTime) : IEnumerable&lt;IGameStateComponent&gt; virtual</text>
</g>
<!-- Box_DrawableGameStateComponent&#45;&gt;Box_Overlay -->
<g id="edge2" class="edge"><title>Box_DrawableGameStateComponent&#45;&gt;Box_Overlay</title>
<path fill="none" stroke="midnightblue" d="M280,-304.779C280,-296.051 280,-286.835 280,-277.399"/>
<polygon fill="none" stroke="midnightblue" points="276.5,-304.784 280,-314.784 283.5,-304.784 276.5,-304.784"/>
</g>
<!-- Box_IGameStateComponent -->
<g id="node3" class="node"><title>Box_IGameStateComponent</title>
<polygon fill="#dafcda" stroke="black" points="0,-461 0,-545 318,-545 318,-461 0,-461"/>
<text text-anchor="middle" x="159" y="-533.8" font-family="Helvetica,sans-Serif" font-size="8.00">IGameStateComponent</text>
<polyline fill="none" stroke="black" points="0,-525 318,-525 "/>
<text text-anchor="start" x="8" y="-513.8" font-family="Helvetica,sans-Serif" font-size="8.00">Attributes:</text>
<text text-anchor="start" x="8" y="-501.8" font-family="Helvetica,sans-Serif" font-size="8.00">+ Index : int</text>
<text text-anchor="start" x="8" y="-489.8" font-family="Helvetica,sans-Serif" font-size="8.00">Methods:</text>
<polyline fill="none" stroke="black" points="0,-481 318,-481 "/>
<text text-anchor="start" x="8" y="-469.8" font-family="Helvetica,sans-Serif" font-size="8.00">+ SubComponents (GameTime gameTime) : IEnumerable&lt;IGameStateComponent&gt;</text>
</g>
<!-- Box_IGameStateComponent&#45;&gt;Box_DrawableGameStateComponent -->
<g id="edge6" class="edge"><title>Box_IGameStateComponent&#45;&gt;Box_DrawableGameStateComponent</title>
<path fill="none" stroke="midnightblue" d="M197.382,-453.244C205.992,-443.448 215.283,-433.125 224.426,-423.192"/>
<polygon fill="none" stroke="midnightblue" points="194.578,-451.134 190.638,-460.969 199.851,-455.737 194.578,-451.134"/>
</g>
<!-- Box_IGameStateComponent&#45;&gt;Box_DrawableGameStateComponent -->
<g id="edge12" class="edge"><title>Box_IGameStateComponent&#45;&gt;Box_DrawableGameStateComponent</title>
<path fill="none" stroke="midnightblue" d="M210.207,-453.535C219.371,-443.653 228.822,-433.224 237.705,-423.192"/>
<polygon fill="none" stroke="midnightblue" points="207.532,-451.27 203.268,-460.969 212.65,-456.047 207.532,-451.27"/>
</g>
<!-- Box_XnaDrawableGameComponent -->
<g id="node4" class="node"><title>Box_XnaDrawableGameComponent</title>
<polygon fill="#ffffff" stroke="black" points="335.5,-493 335.5,-513 466.5,-513 466.5,-493 335.5,-493"/>
<text text-anchor="middle" x="401" y="-501.8" font-family="Helvetica,sans-Serif" font-size="8.00">Xna.DrawableGameComponent</text>
</g>
<!-- Box_XnaDrawableGameComponent&#45;&gt;Box_DrawableGameStateComponent -->
<g id="edge4" class="edge"><title>Box_XnaDrawableGameComponent&#45;&gt;Box_DrawableGameStateComponent</title>
<path fill="none" stroke="midnightblue" d="M380.851,-485.879C364.835,-470.019 342.101,-445.562 322.223,-423.111"/>
<polygon fill="none" stroke="midnightblue" points="378.513,-488.487 388.132,-492.928 383.382,-483.458 378.513,-488.487"/>
</g>
<!-- Box_XnaDrawableGameComponent&#45;&gt;Box_DrawableGameStateComponent -->
<g id="edge10" class="edge"><title>Box_XnaDrawableGameComponent&#45;&gt;Box_DrawableGameStateComponent</title>
<path fill="none" stroke="midnightblue" d="M389.532,-485.006C376.823,-469.13 355.791,-445.153 335.499,-423.111"/>
<polygon fill="none" stroke="midnightblue" points="386.783,-487.173 395.679,-492.928 392.314,-482.882 386.783,-487.173"/>
</g>
<!-- Box_XnaIGameComponent -->
<g id="node5" class="node"><title>Box_XnaIGameComponent</title>
<polygon fill="#ffffff" stroke="black" points="109.5,-583 109.5,-603 208.5,-603 208.5,-583 109.5,-583"/>
<text text-anchor="middle" x="159" y="-591.8" font-family="Helvetica,sans-Serif" font-size="8.00">Xna.IGameComponent</text>
</g>
<!-- Box_XnaIGameComponent&#45;&gt;Box_IGameStateComponent -->
<g id="edge8" class="edge"><title>Box_XnaIGameComponent&#45;&gt;Box_IGameStateComponent</title>
<path fill="none" stroke="midnightblue" d="M153.253,-572.731C152.518,-564.612 152.187,-554.936 152.26,-545.414"/>
<polygon fill="none" stroke="midnightblue" points="149.783,-573.192 154.506,-582.676 156.728,-572.317 149.783,-573.192"/>
</g>
<!-- Box_XnaIGameComponent&#45;&gt;Box_IGameStateComponent -->
<g id="edge14" class="edge"><title>Box_XnaIGameComponent&#45;&gt;Box_IGameStateComponent</title>
<path fill="none" stroke="midnightblue" d="M164.747,-572.731C165.482,-564.612 165.813,-554.936 165.74,-545.414"/>
<polygon fill="none" stroke="midnightblue" points="161.272,-572.317 163.494,-582.676 168.217,-573.192 161.272,-572.317"/>
</g>
</g>
</svg>
