<?xml version="1.0" encoding="UTF-8" standalone="no"?>
<!DOCTYPE svg PUBLIC "-//W3C//DTD SVG 1.1//EN"
 "http://www.w3.org/Graphics/SVG/1.1/DTD/svg11.dtd">
<!-- Generated by graphviz version 2.26.3 (20100126.1600)
 -->
<!-- Title: MenuItem Pages: 1 -->
<svg width="449pt" height="420pt"
 viewBox="0.00 0.00 449.00 420.00" xmlns="http://www.w3.org/2000/svg" xmlns:xlink="http://www.w3.org/1999/xlink">
<g id="graph1" class="graph" transform="scale(1 1) rotate(0) translate(4 416)">
<title>MenuItem</title>
<polygon fill="white" stroke="white" points="-4,5 -4,-416 446,-416 446,5 -4,5"/>
<!-- Box_GameStateComponent -->
<g id="node1" class="node"><title>Box_GameStateComponent</title>
<polygon fill="#fcfcda" stroke="black" points="100.5,-159 100.5,-255 441.5,-255 441.5,-159 100.5,-159"/>
<text text-anchor="middle" x="271" y="-243.8" font-family="Helvetica,sans-Serif" font-size="8.00">GameStateComponent</text>
<polyline fill="none" stroke="black" points="100.5,-235 441.5,-235 "/>
<text text-anchor="start" x="108.5" y="-223.8" font-family="Helvetica,sans-Serif" font-size="8.00"># InputOrder : DisplayLayer</text>
<text text-anchor="start" x="108.5" y="-211.8" font-family="Helvetica,sans-Serif" font-size="8.00">+ state : GameState</text>
<text text-anchor="start" x="108.5" y="-199.8" font-family="Helvetica,sans-Serif" font-size="8.00">+ Index : int</text>
<polyline fill="none" stroke="black" points="100.5,-191 441.5,-191 "/>
<text text-anchor="start" x="108.5" y="-179.8" font-family="Helvetica,sans-Serif" font-size="8.00">+ GameStateComponent (GameState state, DisplayLayer inputOrder)</text>
<text text-anchor="start" x="108.5" y="-167.8" font-family="Helvetica,sans-Serif" font-size="8.00">+ SubComponents (GameTime gameTime) : IEnumerable&lt;IGameStateComponent&gt; virtual</text>
</g>
<!-- Box_KeyHandler -->
<g id="node3" class="node"><title>Box_KeyHandler</title>
<polygon fill="#fcfcda" stroke="black" points="186,-1 186,-121 356,-121 356,-1 186,-1"/>
<text text-anchor="middle" x="271" y="-109.8" font-family="Helvetica,sans-Serif" font-size="8.00">KeyHandler</text>
<polyline fill="none" stroke="black" points="186,-101 356,-101 "/>
<text text-anchor="start" x="194" y="-89.8" font-family="Helvetica,sans-Serif" font-size="8.00">private class KeyEventComponent :</text>
<text text-anchor="start" x="194" y="-77.8" font-family="Helvetica,sans-Serif" font-size="8.00">+ receiver : IKeyEventListener</text>
<text text-anchor="start" x="194" y="-65.8" font-family="Helvetica,sans-Serif" font-size="8.00">+ layer : int</text>
<text text-anchor="start" x="194" y="-53.8" font-family="Helvetica,sans-Serif" font-size="8.00">+ keyEvent : KeyEvent</text>
<text text-anchor="start" x="194" y="-41.8" font-family="Helvetica,sans-Serif" font-size="8.00">+ keys : List&lt;Keys&gt;</text>
<polyline fill="none" stroke="black" points="186,-33 356,-33 "/>
<text text-anchor="start" x="194" y="-21.8" font-family="Helvetica,sans-Serif" font-size="8.00">+ KeyHandler (GameState state)</text>
<text text-anchor="start" x="194" y="-9.8" font-family="Helvetica,sans-Serif" font-size="8.00">+ Update (GameTime gameTime) override</text>
</g>
<!-- Box_GameStateComponent&#45;&gt;Box_KeyHandler -->
<g id="edge8" class="edge"><title>Box_GameStateComponent&#45;&gt;Box_KeyHandler</title>
<path fill="none" stroke="midnightblue" d="M271,-148.712C271,-139.64 271,-130.251 271,-121.139"/>
<polygon fill="none" stroke="midnightblue" points="267.5,-148.789 271,-158.79 274.5,-148.79 267.5,-148.789"/>
</g>
<!-- Box_IGameStateComponent -->
<g id="node2" class="node"><title>Box_IGameStateComponent</title>
<polygon fill="#dafcda" stroke="black" points="0,-293 0,-353 318,-353 318,-293 0,-293"/>
<text text-anchor="middle" x="159" y="-341.8" font-family="Helvetica,sans-Serif" font-size="8.00">IGameStateComponent</text>
<polyline fill="none" stroke="black" points="0,-333 318,-333 "/>
<text text-anchor="start" x="8" y="-321.8" font-family="Helvetica,sans-Serif" font-size="8.00">+ Index : int</text>
<polyline fill="none" stroke="black" points="0,-313 318,-313 "/>
<text text-anchor="start" x="8" y="-301.8" font-family="Helvetica,sans-Serif" font-size="8.00">+ SubComponents (GameTime gameTime) : IEnumerable&lt;IGameStateComponent&gt;</text>
</g>
<!-- Box_IGameStateComponent&#45;&gt;Box_GameStateComponent -->
<g id="edge4" class="edge"><title>Box_IGameStateComponent&#45;&gt;Box_GameStateComponent</title>
<path fill="none" stroke="midnightblue" d="M195.137,-285.572C204.541,-275.833 214.803,-265.204 224.655,-255.001"/>
<polygon fill="none" stroke="midnightblue" points="192.562,-283.2 188.134,-292.825 197.598,-288.062 192.562,-283.2"/>
</g>
<!-- Box_XnaGameComponent -->
<g id="node4" class="node"><title>Box_XnaGameComponent</title>
<polygon fill="#ffffff" stroke="black" points="335.5,-313 335.5,-333 432.5,-333 432.5,-313 335.5,-313"/>
<text text-anchor="middle" x="384" y="-321.8" font-family="Helvetica,sans-Serif" font-size="8.00">Xna.GameComponent</text>
</g>
<!-- Box_XnaGameComponent&#45;&gt;Box_GameStateComponent -->
<g id="edge2" class="edge"><title>Box_XnaGameComponent&#45;&gt;Box_GameStateComponent</title>
<path fill="none" stroke="midnightblue" d="M366.632,-305.171C353.618,-291.812 335.161,-272.865 317.928,-255.174"/>
<polygon fill="none" stroke="midnightblue" points="364.487,-307.985 373.972,-312.706 369.501,-303.1 364.487,-307.985"/>
</g>
<!-- Box_XnaIGameComponent -->
<g id="node5" class="node"><title>Box_XnaIGameComponent</title>
<polygon fill="#ffffff" stroke="black" points="109.5,-391 109.5,-411 208.5,-411 208.5,-391 109.5,-391"/>
<text text-anchor="middle" x="159" y="-399.8" font-family="Helvetica,sans-Serif" font-size="8.00">Xna.IGameComponent</text>
</g>
<!-- Box_XnaIGameComponent&#45;&gt;Box_IGameStateComponent -->
<g id="edge6" class="edge"><title>Box_XnaIGameComponent&#45;&gt;Box_IGameStateComponent</title>
<path fill="none" stroke="midnightblue" d="M159,-380.777C159,-372.329 159,-362.337 159,-353.059"/>
<polygon fill="none" stroke="midnightblue" points="155.5,-380.803 159,-390.803 162.5,-380.803 155.5,-380.803"/>
</g>
</g>
</svg>
