<?xml version="1.0" encoding="UTF-8" standalone="no"?>
<!DOCTYPE svg PUBLIC "-//W3C//DTD SVG 1.1//EN"
 "http://www.w3.org/Graphics/SVG/1.1/DTD/svg11.dtd">
<!-- Generated by graphviz version 2.26.3 (20100126.1600)
 -->
<!-- Title: MenuItem Pages: 1 -->
<svg width="753pt" height="674pt"
 viewBox="0.00 0.00 753.00 674.00" xmlns="http://www.w3.org/2000/svg" xmlns:xlink="http://www.w3.org/1999/xlink">
<g id="graph1" class="graph" transform="scale(1 1) rotate(0) translate(4 670)">
<title>MenuItem</title>
<polygon fill="white" stroke="white" points="-4,5 -4,-670 750,-670 750,5 -4,5"/>
<!-- Box_Input -->
<g id="node1" class="node"><title>Box_Input</title>
<polygon fill="#fcfcda" stroke="black" points="293,-99 293,-375 579,-375 579,-99 293,-99"/>
<text text-anchor="middle" x="436" y="-363.8" font-family="Helvetica,sans-Serif" font-size="8.00">Input</text>
<polyline fill="none" stroke="black" points="293,-355 579,-355 "/>
<text text-anchor="start" x="301" y="-343.8" font-family="Helvetica,sans-Serif" font-size="8.00"># FullscreenToggled : bool static</text>
<text text-anchor="start" x="301" y="-331.8" font-family="Helvetica,sans-Serif" font-size="8.00">+ PreviousKeyboardState : KeyboardState static</text>
<text text-anchor="start" x="301" y="-319.8" font-family="Helvetica,sans-Serif" font-size="8.00">+ PreviousMouseState : MouseState static</text>
<text text-anchor="start" x="301" y="-307.8" font-family="Helvetica,sans-Serif" font-size="8.00">&#45; LeftButtonClickTimer : double static</text>
<text text-anchor="start" x="301" y="-295.8" font-family="Helvetica,sans-Serif" font-size="8.00">&#45; RightButtonClickTimer : double static</text>
<text text-anchor="start" x="301" y="-283.8" font-family="Helvetica,sans-Serif" font-size="8.00">&#45; PreviousClickMouseState : MouseState static</text>
<text text-anchor="start" x="301" y="-271.8" font-family="Helvetica,sans-Serif" font-size="8.00">+ LeftButton : ClickState static</text>
<text text-anchor="start" x="301" y="-259.8" font-family="Helvetica,sans-Serif" font-size="8.00">+ RightButton : ClickState static</text>
<text text-anchor="start" x="301" y="-247.8" font-family="Helvetica,sans-Serif" font-size="8.00">+ GrabMouseMovement : bool</text>
<text text-anchor="start" x="301" y="-235.8" font-family="Helvetica,sans-Serif" font-size="8.00">+ CurrentInputAction : InputAction</text>
<text text-anchor="start" x="301" y="-223.8" font-family="Helvetica,sans-Serif" font-size="8.00">+ WASDMode : WASDMode</text>
<text text-anchor="start" x="301" y="-211.8" font-family="Helvetica,sans-Serif" font-size="8.00">+ ValidKeys : List&lt;Keys&gt;</text>
<text text-anchor="start" x="301" y="-199.8" font-family="Helvetica,sans-Serif" font-size="8.00">+ IsKeyEventEnabled : bool</text>
<text text-anchor="start" x="301" y="-187.8" font-family="Helvetica,sans-Serif" font-size="8.00">+ MouseState : MouseState static</text>
<text text-anchor="start" x="301" y="-175.8" font-family="Helvetica,sans-Serif" font-size="8.00">+ KeyboardState : KeyboardState static</text>
<polyline fill="none" stroke="black" points="293,-167 579,-167 "/>
<text text-anchor="start" x="301" y="-155.8" font-family="Helvetica,sans-Serif" font-size="8.00">+ Input (GameState state)</text>
<text text-anchor="start" x="301" y="-143.8" font-family="Helvetica,sans-Serif" font-size="8.00">+ Update (GameTime gameTime) override</text>
<text text-anchor="start" x="301" y="-131.8" font-family="Helvetica,sans-Serif" font-size="8.00"># UpdateKeys (GameTime gameTime) virtual</text>
<text text-anchor="start" x="301" y="-119.8" font-family="Helvetica,sans-Serif" font-size="8.00"># UpdateMouse (GameTime gameTime) virtual</text>
<text text-anchor="start" x="301" y="-107.8" font-family="Helvetica,sans-Serif" font-size="8.00">+ OnKeyEvent (List&lt;Keys&gt; key, KeyEvent keyEvent, GameTime gameTime)</text>
</g>
<!-- Box_MenuScreenInput -->
<g id="node5" class="node"><title>Box_MenuScreenInput</title>
<polygon fill="#fcfcda" stroke="black" points="358.5,-1 358.5,-61 513.5,-61 513.5,-1 358.5,-1"/>
<text text-anchor="middle" x="436" y="-49.8" font-family="Helvetica,sans-Serif" font-size="8.00">MenuScreenInput</text>
<polyline fill="none" stroke="black" points="358.5,-41 513.5,-41 "/>
<text text-anchor="middle" x="436" y="-29.8" font-family="Helvetica,sans-Serif" font-size="8.00"> </text>
<polyline fill="none" stroke="black" points="358.5,-21 513.5,-21 "/>
<text text-anchor="start" x="366.5" y="-9.8" font-family="Helvetica,sans-Serif" font-size="8.00">+ MenuScreenInput (GameState state)</text>
</g>
<!-- Box_Input&#45;&gt;Box_MenuScreenInput -->
<g id="edge12" class="edge"><title>Box_Input&#45;&gt;Box_MenuScreenInput</title>
<path fill="none" stroke="midnightblue" d="M436,-88.5304C436,-78.5426 436,-69.2685 436,-61.2102"/>
<polygon fill="none" stroke="midnightblue" points="432.5,-88.7374 436,-98.7374 439.5,-88.7375 432.5,-88.7374"/>
</g>
<!-- Box_GameStateComponent -->
<g id="node2" class="node"><title>Box_GameStateComponent</title>
<polygon fill="#fcfcda" stroke="black" points="100.5,-413 100.5,-509 441.5,-509 441.5,-413 100.5,-413"/>
<text text-anchor="middle" x="271" y="-497.8" font-family="Helvetica,sans-Serif" font-size="8.00">GameStateComponent</text>
<polyline fill="none" stroke="black" points="100.5,-489 441.5,-489 "/>
<text text-anchor="start" x="108.5" y="-477.8" font-family="Helvetica,sans-Serif" font-size="8.00"># InputOrder : DisplayLayer</text>
<text text-anchor="start" x="108.5" y="-465.8" font-family="Helvetica,sans-Serif" font-size="8.00">+ state : GameState</text>
<text text-anchor="start" x="108.5" y="-453.8" font-family="Helvetica,sans-Serif" font-size="8.00">+ Index : int</text>
<polyline fill="none" stroke="black" points="100.5,-445 441.5,-445 "/>
<text text-anchor="start" x="108.5" y="-433.8" font-family="Helvetica,sans-Serif" font-size="8.00">+ GameStateComponent (GameState state, DisplayLayer inputOrder)</text>
<text text-anchor="start" x="108.5" y="-421.8" font-family="Helvetica,sans-Serif" font-size="8.00">+ SubComponents (GameTime gameTime) : IEnumerable&lt;IGameStateComponent&gt; virtual</text>
</g>
<!-- Box_GameStateComponent&#45;&gt;Box_Input -->
<g id="edge2" class="edge"><title>Box_GameStateComponent&#45;&gt;Box_Input</title>
<path fill="none" stroke="midnightblue" d="M312.477,-404.692C319.258,-395.486 326.536,-385.606 334.041,-375.418"/>
<polygon fill="none" stroke="midnightblue" points="309.509,-402.819 306.397,-412.946 315.145,-406.971 309.509,-402.819"/>
</g>
<!-- Box_IGameStateComponent -->
<g id="node3" class="node"><title>Box_IGameStateComponent</title>
<polygon fill="#dafcda" stroke="black" points="0,-547 0,-607 318,-607 318,-547 0,-547"/>
<text text-anchor="middle" x="159" y="-595.8" font-family="Helvetica,sans-Serif" font-size="8.00">IGameStateComponent</text>
<polyline fill="none" stroke="black" points="0,-587 318,-587 "/>
<text text-anchor="start" x="8" y="-575.8" font-family="Helvetica,sans-Serif" font-size="8.00">+ Index : int</text>
<polyline fill="none" stroke="black" points="0,-567 318,-567 "/>
<text text-anchor="start" x="8" y="-555.8" font-family="Helvetica,sans-Serif" font-size="8.00">+ SubComponents (GameTime gameTime) : IEnumerable&lt;IGameStateComponent&gt;</text>
</g>
<!-- Box_IGameStateComponent&#45;&gt;Box_GameStateComponent -->
<g id="edge8" class="edge"><title>Box_IGameStateComponent&#45;&gt;Box_GameStateComponent</title>
<path fill="none" stroke="midnightblue" d="M195.137,-539.572C204.541,-529.833 214.803,-519.204 224.655,-509.001"/>
<polygon fill="none" stroke="midnightblue" points="192.562,-537.2 188.134,-546.825 197.598,-542.062 192.562,-537.2"/>
</g>
<!-- Box_IKeyEventListener -->
<g id="node4" class="node"><title>Box_IKeyEventListener</title>
<polygon fill="#dafcda" stroke="black" points="459,-419 459,-503 745,-503 745,-419 459,-419"/>
<text text-anchor="middle" x="602" y="-491.8" font-family="Helvetica,sans-Serif" font-size="8.00">IKeyEventListener</text>
<polyline fill="none" stroke="black" points="459,-483 745,-483 "/>
<text text-anchor="start" x="467" y="-471.8" font-family="Helvetica,sans-Serif" font-size="8.00">+ ValidKeys : List&lt;Keys&gt;</text>
<text text-anchor="start" x="467" y="-459.8" font-family="Helvetica,sans-Serif" font-size="8.00">+ Index : int</text>
<text text-anchor="start" x="467" y="-447.8" font-family="Helvetica,sans-Serif" font-size="8.00">+ IsKeyEventEnabled : bool</text>
<polyline fill="none" stroke="black" points="459,-439 745,-439 "/>
<text text-anchor="start" x="467" y="-427.8" font-family="Helvetica,sans-Serif" font-size="8.00">+ OnKeyEvent (List&lt;Keys&gt; key, KeyEvent keyEvent, GameTime gameTime)</text>
</g>
<!-- Box_IKeyEventListener&#45;&gt;Box_Input -->
<g id="edge4" class="edge"><title>Box_IKeyEventListener&#45;&gt;Box_Input</title>
<path fill="none" stroke="midnightblue" d="M564.758,-410.745C556.66,-399.819 547.718,-387.752 538.432,-375.221"/>
<polygon fill="none" stroke="midnightblue" points="562.011,-412.917 570.777,-418.867 567.635,-408.749 562.011,-412.917"/>
</g>
<!-- Box_XnaGameComponent -->
<g id="node6" class="node"><title>Box_XnaGameComponent</title>
<polygon fill="#ffffff" stroke="black" points="335.5,-567 335.5,-587 432.5,-587 432.5,-567 335.5,-567"/>
<text text-anchor="middle" x="384" y="-575.8" font-family="Helvetica,sans-Serif" font-size="8.00">Xna.GameComponent</text>
</g>
<!-- Box_XnaGameComponent&#45;&gt;Box_GameStateComponent -->
<g id="edge6" class="edge"><title>Box_XnaGameComponent&#45;&gt;Box_GameStateComponent</title>
<path fill="none" stroke="midnightblue" d="M366.632,-559.171C353.618,-545.812 335.161,-526.865 317.928,-509.174"/>
<polygon fill="none" stroke="midnightblue" points="364.487,-561.985 373.972,-566.706 369.501,-557.1 364.487,-561.985"/>
</g>
<!-- Box_XnaIGameComponent -->
<g id="node7" class="node"><title>Box_XnaIGameComponent</title>
<polygon fill="#ffffff" stroke="black" points="109.5,-645 109.5,-665 208.5,-665 208.5,-645 109.5,-645"/>
<text text-anchor="middle" x="159" y="-653.8" font-family="Helvetica,sans-Serif" font-size="8.00">Xna.IGameComponent</text>
</g>
<!-- Box_XnaIGameComponent&#45;&gt;Box_IGameStateComponent -->
<g id="edge10" class="edge"><title>Box_XnaIGameComponent&#45;&gt;Box_IGameStateComponent</title>
<path fill="none" stroke="midnightblue" d="M159,-634.777C159,-626.329 159,-616.337 159,-607.059"/>
<polygon fill="none" stroke="midnightblue" points="155.5,-634.803 159,-644.803 162.5,-634.803 155.5,-634.803"/>
</g>
</g>
</svg>
