<?xml version="1.0" encoding="UTF-8" standalone="no"?>
<!DOCTYPE svg PUBLIC "-//W3C//DTD SVG 1.1//EN"
 "http://www.w3.org/Graphics/SVG/1.1/DTD/svg11.dtd">
<!-- Generated by graphviz version 2.26.3 (20100126.1600)
 -->
<!-- Title: MenuItem Pages: 1 -->
<svg width="833pt" height="1317pt"
 viewBox="0.00 0.00 200.00 316.00" xmlns="http://www.w3.org/2000/svg" xmlns:xlink="http://www.w3.org/1999/xlink">
<g id="graph1" class="graph" transform="scale(4.16667 4.16667) rotate(0) translate(4 312)">
<title>MenuItem</title>
<polygon fill="white" stroke="white" points="-4,5 -4,-312 197,-312 197,5 -4,5"/>
<!-- Box_KnotStringIO -->
<g id="node1" class="node"><title>Box_KnotStringIO</title>
<polygon fill="#fcfcda" stroke="black" points="-0.5,-1 -0.5,-185 192.5,-185 192.5,-1 -0.5,-1"/>
<text text-anchor="middle" x="96" y="-173.8" font-family="Arial" font-size="8.00">KnotStringIO</text>
<polyline fill="none" stroke="black" points="-0.5,-167 192.5,-167 "/>
<text text-anchor="start" x="7.5" y="-155.8" font-family="Arial" font-size="8.00">&#45; lines : IEnumerable&lt;string&gt;</text>
<text text-anchor="start" x="7.5" y="-145.8" font-family="Arial" font-size="8.00">+ Edges : IEnumerable&lt;Edge&gt;</text>
<text text-anchor="start" x="7.5" y="-135.8" font-family="Arial" font-size="8.00">+ CountEdges : int</text>
<text text-anchor="start" x="7.5" y="-125.8" font-family="Arial" font-size="8.00">+ Hash : string</text>
<text text-anchor="start" x="7.5" y="-115.8" font-family="Arial" font-size="8.00">+ Name : string</text>
<text text-anchor="start" x="7.5" y="-105.8" font-family="Arial" font-size="8.00">+ Content : string</text>
<polyline fill="none" stroke="black" points="-0.5,-99 192.5,-99 "/>
<text text-anchor="start" x="7.5" y="-87.8" font-family="Arial" font-size="8.00">&#45; DecodeEdge (char c) : Edge static</text>
<text text-anchor="start" x="7.5" y="-77.8" font-family="Arial" font-size="8.00">&#45; EncodeEdge (Edge edge) : char static</text>
<text text-anchor="start" x="7.5" y="-67.8" font-family="Arial" font-size="8.00">&#45; DecodeColor (string hexString) : Color static</text>
<text text-anchor="start" x="7.5" y="-57.8" font-family="Arial" font-size="8.00">&#45; ToLines (Knot knot) : IEnumerable&lt;string&gt; static</text>
<text text-anchor="start" x="7.5" y="-47.8" font-family="Arial" font-size="8.00">&#45; EncodeColor (Color c) : String static</text>
<text text-anchor="start" x="7.5" y="-37.8" font-family="Arial" font-size="8.00">+ KnotStringIO (Knot knot)</text>
<text text-anchor="start" x="7.5" y="-27.8" font-family="Arial" font-size="8.00">+ KnotStringIO (string content)</text>
<text text-anchor="start" x="7.5" y="-17.8" font-family="Arial" font-size="8.00">+ ToString () : string</text>
<text text-anchor="start" x="7.5" y="-7.8" font-family="Arial" font-size="8.00">+ Save (Knot knot)</text>
</g>
<!-- Box_IKnotIO -->
<g id="node2" class="node"><title>Box_IKnotIO</title>
<polygon fill="#dafcda" stroke="black" points="34.5,-223 34.5,-307 157.5,-307 157.5,-223 34.5,-223"/>
<text text-anchor="middle" x="96" y="-295.8" font-family="Arial" font-size="8.00">IKnotIO</text>
<polyline fill="none" stroke="black" points="34.5,-289 157.5,-289 "/>
<text text-anchor="start" x="42.5" y="-277.8" font-family="Arial" font-size="8.00">+ Edges : IEnumerable&lt;Edge&gt;</text>
<text text-anchor="start" x="42.5" y="-267.8" font-family="Arial" font-size="8.00">+ CountEdges : int</text>
<text text-anchor="start" x="42.5" y="-257.8" font-family="Arial" font-size="8.00">+ Name : string</text>
<text text-anchor="start" x="42.5" y="-247.8" font-family="Arial" font-size="8.00">+ Hash : string</text>
<polyline fill="none" stroke="black" points="34.5,-241 157.5,-241 "/>
<text text-anchor="start" x="42.5" y="-229.8" font-family="Arial" font-size="8.00">+ Save (Knot knot)</text>
</g>
<!-- Box_IKnotIO&#45;&gt;Box_KnotStringIO -->
<g id="edge2" class="edge"><title>Box_IKnotIO&#45;&gt;Box_KnotStringIO</title>
<path fill="none" stroke="midnightblue" d="M96,-212.876C96,-204.072 96,-194.704 96,-185.235"/>
<polygon fill="none" stroke="midnightblue" points="92.5001,-212.924 96,-222.924 99.5001,-212.924 92.5001,-212.924"/>
</g>
</g>
</svg>
