<?xml version="1.0" encoding="UTF-8" standalone="no"?>
<!DOCTYPE svg PUBLIC "-//W3C//DTD SVG 1.1//EN"
 "http://www.w3.org/Graphics/SVG/1.1/DTD/svg11.dtd">
<!-- Generated by graphviz version 2.26.3 (20100126.1600)
 -->
<!-- Title: MenuItem Pages: 1 -->
<svg width="1958pt" height="1475pt"
 viewBox="0.00 0.00 470.00 354.00" xmlns="http://www.w3.org/2000/svg" xmlns:xlink="http://www.w3.org/1999/xlink">
<g id="graph1" class="graph" transform="scale(4.16667 4.16667) rotate(0) translate(4 350)">
<title>MenuItem</title>
<polygon fill="white" stroke="white" points="-4,5 -4,-350 467,-350 467,5 -4,5"/>
<!-- Box_MousePointer -->
<g id="node1" class="node"><title>Box_MousePointer</title>
<polygon fill="#fcfcda" stroke="black" points="199.5,-1 199.5,-75 354.5,-75 354.5,-1 199.5,-1"/>
<text text-anchor="middle" x="277" y="-63.8" font-family="Arial" font-size="8.00">MousePointer</text>
<polyline fill="none" stroke="black" points="199.5,-57 354.5,-57 "/>
<text text-anchor="start" x="207.5" y="-45.8" font-family="Arial" font-size="8.00">&#45; spriteBatch : SpriteBatch</text>
<polyline fill="none" stroke="black" points="199.5,-39 354.5,-39 "/>
<text text-anchor="start" x="207.5" y="-27.8" font-family="Arial" font-size="8.00">+ MousePointer (GameScreen screen)</text>
<text text-anchor="start" x="207.5" y="-17.8" font-family="Arial" font-size="8.00">&#45; DrawCursor (GameTime gameTime)</text>
<text text-anchor="start" x="207.5" y="-7.8" font-family="Arial" font-size="8.00">+ Draw (GameTime gameTime)</text>
</g>
<!-- Box_DrawableGameScreenComponent -->
<g id="node2" class="node"><title>Box_DrawableGameScreenComponent</title>
<polygon fill="#fcfcda" stroke="black" points="107.5,-113 107.5,-197 446.5,-197 446.5,-113 107.5,-113"/>
<text text-anchor="middle" x="277" y="-185.8" font-family="Arial" font-size="8.00">DrawableGameScreenComponent</text>
<polyline fill="none" stroke="black" points="107.5,-179 446.5,-179 "/>
<text text-anchor="start" x="115.5" y="-167.8" font-family="Arial" font-size="8.00">+ Index : DisplayLayer</text>
<text text-anchor="start" x="115.5" y="-157.8" font-family="Arial" font-size="8.00">&#45; _index : DisplayLayer</text>
<text text-anchor="start" x="115.5" y="-147.8" font-family="Arial" font-size="8.00">+ screen : GameScreen</text>
<polyline fill="none" stroke="black" points="107.5,-141 446.5,-141 "/>
<text text-anchor="start" x="115.5" y="-129.8" font-family="Arial" font-size="8.00">+ DrawableGameScreenComponent (GameScreen screen, DisplayLayer index)</text>
<text text-anchor="start" x="115.5" y="-119.8" font-family="Arial" font-size="8.00">+ SubComponents (GameTime gameTime) : IEnumerable&lt;IGameScreenComponent&gt; virtual</text>
</g>
<!-- Box_DrawableGameScreenComponent&#45;&gt;Box_MousePointer -->
<g id="edge2" class="edge"><title>Box_DrawableGameScreenComponent&#45;&gt;Box_MousePointer</title>
<path fill="none" stroke="midnightblue" d="M277,-102.482C277,-93.2581 277,-83.8343 277,-75.1401"/>
<polygon fill="none" stroke="midnightblue" points="273.5,-102.76 277,-112.76 280.5,-102.76 273.5,-102.76"/>
</g>
<!-- Box_IGameScreenComponent -->
<g id="node3" class="node"><title>Box_IGameScreenComponent</title>
<polygon fill="#dafcda" stroke="black" points="-0.5,-235 -0.5,-289 314.5,-289 314.5,-235 -0.5,-235"/>
<text text-anchor="middle" x="157" y="-277.8" font-family="Arial" font-size="8.00">IGameScreenComponent</text>
<polyline fill="none" stroke="black" points="-0.5,-271 314.5,-271 "/>
<text text-anchor="start" x="7.5" y="-259.8" font-family="Arial" font-size="8.00">+ Index : DisplayLayer</text>
<polyline fill="none" stroke="black" points="-0.5,-253 314.5,-253 "/>
<text text-anchor="start" x="7.5" y="-241.8" font-family="Arial" font-size="8.00">+ SubComponents (GameTime gameTime) : IEnumerable&lt;IGameScreenComponent&gt;</text>
</g>
<!-- Box_IGameScreenComponent&#45;&gt;Box_DrawableGameScreenComponent -->
<g id="edge6" class="edge"><title>Box_IGameScreenComponent&#45;&gt;Box_DrawableGameScreenComponent</title>
<path fill="none" stroke="midnightblue" d="M195.017,-228.102C205.949,-218.354 218.012,-207.598 229.444,-197.404"/>
<polygon fill="none" stroke="midnightblue" points="192.416,-225.732 187.281,-234.999 197.074,-230.956 192.416,-225.732"/>
</g>
<!-- Box_XnaDrawableGameComponent -->
<g id="node4" class="node"><title>Box_XnaDrawableGameComponent</title>
<polygon fill="#ffffff" stroke="black" points="332,-253 332,-271 462,-271 462,-253 332,-253"/>
<text text-anchor="middle" x="397" y="-259.8" font-family="Arial" font-size="8.00">Xna.DrawableGameComponent</text>
</g>
<!-- Box_XnaDrawableGameComponent&#45;&gt;Box_DrawableGameScreenComponent -->
<g id="edge4" class="edge"><title>Box_XnaDrawableGameComponent&#45;&gt;Box_DrawableGameScreenComponent</title>
<path fill="none" stroke="midnightblue" d="M379.077,-246.018C364.616,-233.124 343.59,-214.376 324.373,-197.241"/>
<polygon fill="none" stroke="midnightblue" points="376.976,-248.834 386.769,-252.877 381.634,-243.61 376.976,-248.834"/>
</g>
<!-- Box_XnaIGameComponent -->
<g id="node5" class="node"><title>Box_XnaIGameComponent</title>
<polygon fill="#ffffff" stroke="black" points="109,-327 109,-345 205,-345 205,-327 109,-327"/>
<text text-anchor="middle" x="157" y="-333.8" font-family="Arial" font-size="8.00">Xna.IGameComponent</text>
</g>
<!-- Box_XnaIGameComponent&#45;&gt;Box_IGameScreenComponent -->
<g id="edge8" class="edge"><title>Box_XnaIGameComponent&#45;&gt;Box_IGameScreenComponent</title>
<path fill="none" stroke="midnightblue" d="M157,-316.64C157,-308.2 157,-298.16 157,-289.004"/>
<polygon fill="none" stroke="midnightblue" points="153.5,-316.926 157,-326.926 160.5,-316.926 153.5,-316.926"/>
</g>
</g>
</svg>
