<?xml version="1.0" encoding="UTF-8" standalone="no"?>
<!DOCTYPE svg PUBLIC "-//W3C//DTD SVG 1.1//EN"
 "http://www.w3.org/Graphics/SVG/1.1/DTD/svg11.dtd">
<!-- Generated by graphviz version 2.26.3 (20100126.1600)
 -->
<!-- Title: MenuItem Pages: 1 -->
<svg width="474pt" height="444pt"
 viewBox="0.00 0.00 474.00 444.00" xmlns="http://www.w3.org/2000/svg" xmlns:xlink="http://www.w3.org/1999/xlink">
<g id="graph1" class="graph" transform="scale(1 1) rotate(0) translate(4 440)">
<title>MenuItem</title>
<polygon fill="white" stroke="white" points="-4,5 -4,-440 471,-440 471,5 -4,5"/>
<!-- Box_MousePointer -->
<g id="node1" class="node"><title>Box_MousePointer</title>
<polygon fill="#fcfcda" stroke="black" points="202.5,-1 202.5,-109 357.5,-109 357.5,-1 202.5,-1"/>
<text text-anchor="middle" x="280" y="-97.8" font-family="Helvetica,sans-Serif" font-size="8.00">MousePointer</text>
<polyline fill="none" stroke="black" points="202.5,-89 357.5,-89 "/>
<text text-anchor="start" x="210.5" y="-77.8" font-family="Helvetica,sans-Serif" font-size="8.00">Attributes:</text>
<text text-anchor="start" x="210.5" y="-65.8" font-family="Helvetica,sans-Serif" font-size="8.00">&#45; spriteBatch : SpriteBatch</text>
<text text-anchor="start" x="210.5" y="-53.8" font-family="Helvetica,sans-Serif" font-size="8.00">Methods:</text>
<polyline fill="none" stroke="black" points="202.5,-45 357.5,-45 "/>
<text text-anchor="start" x="210.5" y="-33.8" font-family="Helvetica,sans-Serif" font-size="8.00">+ MousePointer (GameState state)</text>
<text text-anchor="start" x="210.5" y="-21.8" font-family="Helvetica,sans-Serif" font-size="8.00">&#45; DrawCursor (GameTime gameTime)</text>
<text text-anchor="start" x="210.5" y="-9.8" font-family="Helvetica,sans-Serif" font-size="8.00">+ Draw (GameTime gameTime)</text>
</g>
<!-- Box_DrawableGameStateComponent -->
<g id="node2" class="node"><title>Box_DrawableGameStateComponent</title>
<polygon fill="#fcfcda" stroke="black" points="109.5,-147 109.5,-255 450.5,-255 450.5,-147 109.5,-147"/>
<text text-anchor="middle" x="280" y="-243.8" font-family="Helvetica,sans-Serif" font-size="8.00">DrawableGameStateComponent</text>
<polyline fill="none" stroke="black" points="109.5,-235 450.5,-235 "/>
<text text-anchor="start" x="117.5" y="-223.8" font-family="Helvetica,sans-Serif" font-size="8.00">Attributes:</text>
<text text-anchor="start" x="117.5" y="-211.8" font-family="Helvetica,sans-Serif" font-size="8.00">+ state : GameState</text>
<text text-anchor="start" x="117.5" y="-199.8" font-family="Helvetica,sans-Serif" font-size="8.00">+ Index : int</text>
<text text-anchor="start" x="117.5" y="-187.8" font-family="Helvetica,sans-Serif" font-size="8.00">Methods:</text>
<polyline fill="none" stroke="black" points="109.5,-179 450.5,-179 "/>
<text text-anchor="start" x="117.5" y="-167.8" font-family="Helvetica,sans-Serif" font-size="8.00">+ DrawableGameStateComponent (GameState state, DisplayLayer drawOrder)</text>
<text text-anchor="start" x="117.5" y="-155.8" font-family="Helvetica,sans-Serif" font-size="8.00">+ SubComponents (GameTime gameTime) : IEnumerable&lt;IGameStateComponent&gt; virtual</text>
</g>
<!-- Box_DrawableGameStateComponent&#45;&gt;Box_MousePointer -->
<g id="edge2" class="edge"><title>Box_DrawableGameStateComponent&#45;&gt;Box_MousePointer</title>
<path fill="none" stroke="midnightblue" d="M280,-136.523C280,-127.474 280,-118.248 280,-109.41"/>
<polygon fill="none" stroke="midnightblue" points="276.5,-136.635 280,-146.635 283.5,-136.635 276.5,-136.635"/>
</g>
<!-- Box_IGameStateComponent -->
<g id="node3" class="node"><title>Box_IGameStateComponent</title>
<polygon fill="#dafcda" stroke="black" points="0,-293 0,-377 318,-377 318,-293 0,-293"/>
<text text-anchor="middle" x="159" y="-365.8" font-family="Helvetica,sans-Serif" font-size="8.00">IGameStateComponent</text>
<polyline fill="none" stroke="black" points="0,-357 318,-357 "/>
<text text-anchor="start" x="8" y="-345.8" font-family="Helvetica,sans-Serif" font-size="8.00">Attributes:</text>
<text text-anchor="start" x="8" y="-333.8" font-family="Helvetica,sans-Serif" font-size="8.00">+ Index : int</text>
<text text-anchor="start" x="8" y="-321.8" font-family="Helvetica,sans-Serif" font-size="8.00">Methods:</text>
<polyline fill="none" stroke="black" points="0,-313 318,-313 "/>
<text text-anchor="start" x="8" y="-301.8" font-family="Helvetica,sans-Serif" font-size="8.00">+ SubComponents (GameTime gameTime) : IEnumerable&lt;IGameStateComponent&gt;</text>
</g>
<!-- Box_IGameStateComponent&#45;&gt;Box_DrawableGameStateComponent -->
<g id="edge6" class="edge"><title>Box_IGameStateComponent&#45;&gt;Box_DrawableGameStateComponent</title>
<path fill="none" stroke="midnightblue" d="M197.382,-285.244C205.992,-275.448 215.283,-265.125 224.426,-255.192"/>
<polygon fill="none" stroke="midnightblue" points="194.578,-283.134 190.638,-292.969 199.851,-287.737 194.578,-283.134"/>
</g>
<!-- Box_IGameStateComponent&#45;&gt;Box_DrawableGameStateComponent -->
<g id="edge12" class="edge"><title>Box_IGameStateComponent&#45;&gt;Box_DrawableGameStateComponent</title>
<path fill="none" stroke="midnightblue" d="M210.207,-285.535C219.371,-275.653 228.822,-265.224 237.705,-255.192"/>
<polygon fill="none" stroke="midnightblue" points="207.532,-283.27 203.268,-292.969 212.65,-288.047 207.532,-283.27"/>
</g>
<!-- Box_XnaDrawableGameComponent -->
<g id="node4" class="node"><title>Box_XnaDrawableGameComponent</title>
<polygon fill="#ffffff" stroke="black" points="335.5,-325 335.5,-345 466.5,-345 466.5,-325 335.5,-325"/>
<text text-anchor="middle" x="401" y="-333.8" font-family="Helvetica,sans-Serif" font-size="8.00">Xna.DrawableGameComponent</text>
</g>
<!-- Box_XnaDrawableGameComponent&#45;&gt;Box_DrawableGameStateComponent -->
<g id="edge4" class="edge"><title>Box_XnaDrawableGameComponent&#45;&gt;Box_DrawableGameStateComponent</title>
<path fill="none" stroke="midnightblue" d="M380.851,-317.879C364.835,-302.019 342.101,-277.562 322.223,-255.111"/>
<polygon fill="none" stroke="midnightblue" points="378.513,-320.487 388.132,-324.928 383.382,-315.458 378.513,-320.487"/>
</g>
<!-- Box_XnaDrawableGameComponent&#45;&gt;Box_DrawableGameStateComponent -->
<g id="edge10" class="edge"><title>Box_XnaDrawableGameComponent&#45;&gt;Box_DrawableGameStateComponent</title>
<path fill="none" stroke="midnightblue" d="M389.532,-317.006C376.823,-301.13 355.791,-277.153 335.499,-255.111"/>
<polygon fill="none" stroke="midnightblue" points="386.783,-319.173 395.679,-324.928 392.314,-314.882 386.783,-319.173"/>
</g>
<!-- Box_XnaIGameComponent -->
<g id="node5" class="node"><title>Box_XnaIGameComponent</title>
<polygon fill="#ffffff" stroke="black" points="109.5,-415 109.5,-435 208.5,-435 208.5,-415 109.5,-415"/>
<text text-anchor="middle" x="159" y="-423.8" font-family="Helvetica,sans-Serif" font-size="8.00">Xna.IGameComponent</text>
</g>
<!-- Box_XnaIGameComponent&#45;&gt;Box_IGameStateComponent -->
<g id="edge8" class="edge"><title>Box_XnaIGameComponent&#45;&gt;Box_IGameStateComponent</title>
<path fill="none" stroke="midnightblue" d="M153.253,-404.731C152.518,-396.612 152.187,-386.936 152.26,-377.414"/>
<polygon fill="none" stroke="midnightblue" points="149.783,-405.192 154.506,-414.676 156.728,-404.317 149.783,-405.192"/>
</g>
<!-- Box_XnaIGameComponent&#45;&gt;Box_IGameStateComponent -->
<g id="edge14" class="edge"><title>Box_XnaIGameComponent&#45;&gt;Box_IGameStateComponent</title>
<path fill="none" stroke="midnightblue" d="M164.747,-404.731C165.482,-396.612 165.813,-386.936 165.74,-377.414"/>
<polygon fill="none" stroke="midnightblue" points="161.272,-404.317 163.494,-414.676 168.217,-405.192 161.272,-404.317"/>
</g>
</g>
</svg>
