<?xml version="1.0" encoding="UTF-8" standalone="no"?>
<!DOCTYPE svg PUBLIC "-//W3C//DTD SVG 1.1//EN"
 "http://www.w3.org/Graphics/SVG/1.1/DTD/svg11.dtd">
<!-- Generated by graphviz version 2.26.3 (20100126.1600)
 -->
<!-- Title: MenuItem Pages: 1 -->
<svg width="1983pt" height="1867pt"
 viewBox="0.00 0.00 476.00 448.00" xmlns="http://www.w3.org/2000/svg" xmlns:xlink="http://www.w3.org/1999/xlink">
<g id="graph1" class="graph" transform="scale(4.16667 4.16667) rotate(0) translate(4 444)">
<title>MenuItem</title>
<polygon fill="white" stroke="white" points="-4,5 -4,-444 473,-444 473,5 -4,5"/>
<!-- Box_IEdgeChangeListener -->
<g id="node1" class="node"><title>Box_IEdgeChangeListener</title>
<polygon fill="#dafcda" stroke="black" points="9,-385 9,-439 161,-439 161,-385 9,-385"/>
<text text-anchor="middle" x="85" y="-427.8" font-family="Arial" font-size="8.00">IEdgeChangeListener</text>
<polyline fill="none" stroke="black" points="9,-421 161,-421 "/>
<text text-anchor="middle" x="85" y="-409.8" font-family="Arial" font-size="8.00"> </text>
<polyline fill="none" stroke="black" points="9,-403 161,-403 "/>
<text text-anchor="start" x="17" y="-391.8" font-family="Arial" font-size="8.00">+ OnEdgesChanged (EdgeList edges)</text>
</g>
<!-- Box_KnotRenderer -->
<g id="node2" class="node"><title>Box_KnotRenderer</title>
<polygon fill="#fcfcda" stroke="black" points="41.5,-213 41.5,-347 252.5,-347 252.5,-213 41.5,-213"/>
<text text-anchor="middle" x="147" y="-335.8" font-family="Arial" font-size="8.00">KnotRenderer</text>
<polyline fill="none" stroke="black" points="41.5,-329 252.5,-329 "/>
<text text-anchor="start" x="49.5" y="-317.8" font-family="Arial" font-size="8.00">+ World : World abstract</text>
<text text-anchor="start" x="49.5" y="-307.8" font-family="Arial" font-size="8.00"># screen : GameScreen</text>
<text text-anchor="start" x="49.5" y="-297.8" font-family="Arial" font-size="8.00">+ Info : GameObjectInfo abstract</text>
<polyline fill="none" stroke="black" points="41.5,-291 252.5,-291 "/>
<text text-anchor="start" x="49.5" y="-279.8" font-family="Arial" font-size="8.00"># nodeMap () : NodeMap</text>
<text text-anchor="start" x="49.5" y="-269.8" font-family="Arial" font-size="8.00">+ Intersects (Ray ray) : GameObjectDistance abstract</text>
<text text-anchor="start" x="49.5" y="-259.8" font-family="Arial" font-size="8.00">+ Center () : Vector3 abstract</text>
<text text-anchor="start" x="49.5" y="-249.8" font-family="Arial" font-size="8.00">+ Draw (GameTime gameTime) abstract</text>
<text text-anchor="start" x="49.5" y="-239.8" font-family="Arial" font-size="8.00">+ KnotRenderer (GameScreen screen)</text>
<text text-anchor="start" x="49.5" y="-229.8" font-family="Arial" font-size="8.00">+ Update (GameTime gameTime) abstract</text>
<text text-anchor="start" x="49.5" y="-219.8" font-family="Arial" font-size="8.00">+ OnEdgesChanged (EdgeList edges) virtual</text>
</g>
<!-- Box_IEdgeChangeListener&#45;&gt;Box_KnotRenderer -->
<g id="edge2" class="edge"><title>Box_IEdgeChangeListener&#45;&gt;Box_KnotRenderer</title>
<path fill="none" stroke="midnightblue" d="M102.054,-375.692C106.243,-366.773 110.862,-356.94 115.495,-347.075"/>
<polygon fill="none" stroke="midnightblue" points="98.7797,-374.43 97.6962,-384.969 105.116,-377.406 98.7797,-374.43"/>
</g>
<!-- Box_LineRenderer -->
<g id="node3" class="node"><title>Box_LineRenderer</title>
<polygon fill="#fcfcda" stroke="black" points="-0.5,-16 -0.5,-160 232.5,-160 232.5,-16 -0.5,-16"/>
<text text-anchor="middle" x="116" y="-148.8" font-family="Arial" font-size="8.00">LineRenderer</text>
<polyline fill="none" stroke="black" points="-0.5,-142 232.5,-142 "/>
<text text-anchor="start" x="7.5" y="-130.8" font-family="Arial" font-size="8.00">&#45; edges : EdgeList</text>
<text text-anchor="start" x="7.5" y="-120.8" font-family="Arial" font-size="8.00">&#45; basicEffect : BasicEffect</text>
<text text-anchor="start" x="7.5" y="-110.8" font-family="Arial" font-size="8.00">+ Info : GameObjectInfo</text>
<text text-anchor="start" x="7.5" y="-100.8" font-family="Arial" font-size="8.00">+ World : World</text>
<polyline fill="none" stroke="black" points="-0.5,-94 232.5,-94 "/>
<text text-anchor="start" x="7.5" y="-82.8" font-family="Arial" font-size="8.00">+ LineRenderer (GameScreen screen, GameObjectInfo info)</text>
<text text-anchor="start" x="7.5" y="-72.8" font-family="Arial" font-size="8.00">+ OnEdgesChanged (EdgeList edges)</text>
<text text-anchor="start" x="7.5" y="-62.8" font-family="Arial" font-size="8.00">&#45; DrawRoundedLines ()</text>
<text text-anchor="start" x="7.5" y="-52.8" font-family="Arial" font-size="8.00">+ Intersects (Ray ray) : GameObjectDistance</text>
<text text-anchor="start" x="7.5" y="-42.8" font-family="Arial" font-size="8.00">+ Center () : Vector3</text>
<text text-anchor="start" x="7.5" y="-32.8" font-family="Arial" font-size="8.00">+ Draw (GameTime gameTime)</text>
<text text-anchor="start" x="7.5" y="-22.8" font-family="Arial" font-size="8.00">+ Update (GameTime gameTime)</text>
</g>
<!-- Box_KnotRenderer&#45;&gt;Box_LineRenderer -->
<g id="edge6" class="edge"><title>Box_KnotRenderer&#45;&gt;Box_LineRenderer</title>
<path fill="none" stroke="midnightblue" d="M134.519,-202.701C132.244,-188.605 129.877,-173.949 127.627,-160.014"/>
<polygon fill="none" stroke="midnightblue" points="131.108,-203.533 136.158,-212.848 138.019,-202.418 131.108,-203.533"/>
</g>
<!-- Box_PipeRenderer -->
<g id="node4" class="node"><title>Box_PipeRenderer</title>
<polygon fill="#fcfcda" stroke="black" points="250,-1 250,-175 468,-175 468,-1 250,-1"/>
<text text-anchor="middle" x="359" y="-163.8" font-family="Arial" font-size="8.00">PipeRenderer</text>
<polyline fill="none" stroke="black" points="250,-157 468,-157 "/>
<text text-anchor="start" x="258" y="-145.8" font-family="Arial" font-size="8.00">&#45; nodes : List&lt;NodeModel&gt;</text>
<text text-anchor="start" x="258" y="-135.8" font-family="Arial" font-size="8.00">&#45; nodeFactory : ModelFactory</text>
<text text-anchor="start" x="258" y="-125.8" font-family="Arial" font-size="8.00">&#45; pipeFactory : ModelFactory</text>
<text text-anchor="start" x="258" y="-115.8" font-family="Arial" font-size="8.00">&#45; pipes : List&lt;PipeModel&gt;</text>
<text text-anchor="start" x="258" y="-105.8" font-family="Arial" font-size="8.00">+ Info : GameObjectInfo</text>
<text text-anchor="start" x="258" y="-95.8" font-family="Arial" font-size="8.00">+ World : World</text>
<polyline fill="none" stroke="black" points="250,-89 468,-89 "/>
<text text-anchor="start" x="258" y="-77.8" font-family="Arial" font-size="8.00">&#45; IEnumerable.GetEnumerator () : IEnumerator</text>
<text text-anchor="start" x="258" y="-67.8" font-family="Arial" font-size="8.00">+ PipeRenderer (GameState state, GameObjectInfo info)</text>
<text text-anchor="start" x="258" y="-57.8" font-family="Arial" font-size="8.00">+ Draw (GameTime gameTime)</text>
<text text-anchor="start" x="258" y="-47.8" font-family="Arial" font-size="8.00">+ OnEdgesChanged (EdgeList edges)</text>
<text text-anchor="start" x="258" y="-37.8" font-family="Arial" font-size="8.00">+ GetEnumerator () : IEnumerator&lt;IGameObject&gt;</text>
<text text-anchor="start" x="258" y="-27.8" font-family="Arial" font-size="8.00">+ Intersects (Ray ray) : GameObjectDistance</text>
<text text-anchor="start" x="258" y="-17.8" font-family="Arial" font-size="8.00">+ Center () : Vector3</text>
<text text-anchor="start" x="258" y="-7.8" font-family="Arial" font-size="8.00">+ Update (GameTime gameTime)</text>
</g>
<!-- Box_KnotRenderer&#45;&gt;Box_PipeRenderer -->
<g id="edge8" class="edge"><title>Box_KnotRenderer&#45;&gt;Box_PipeRenderer</title>
<path fill="none" stroke="midnightblue" d="M228.81,-205.908C239.976,-195.795 251.52,-185.34 262.91,-175.025"/>
<polygon fill="none" stroke="midnightblue" points="226.21,-203.541 221.147,-212.848 230.909,-208.729 226.21,-203.541"/>
</g>
<!-- Box_IGameObject -->
<g id="node5" class="node"><title>Box_IGameObject</title>
<polygon fill="#ffffff" stroke="black" points="179,-403 179,-421 241,-421 241,-403 179,-403"/>
<text text-anchor="middle" x="210" y="-409.8" font-family="Arial" font-size="8.00">IGameObject</text>
</g>
<!-- Box_IGameObject&#45;&gt;Box_KnotRenderer -->
<g id="edge4" class="edge"><title>Box_IGameObject&#45;&gt;Box_KnotRenderer</title>
<path fill="none" stroke="midnightblue" d="M201.309,-393.791C195.416,-381.444 187.227,-364.285 178.993,-347.033"/>
<polygon fill="none" stroke="midnightblue" points="198.204,-395.41 205.67,-402.927 204.521,-392.395 198.204,-395.41"/>
</g>
<!-- Box_IEnumerable -->
<g id="node6" class="node"><title>Box_IEnumerable</title>
<polygon fill="#ffffff" stroke="black" points="301.5,-271 301.5,-289 416.5,-289 416.5,-271 301.5,-271"/>
<text text-anchor="middle" x="359" y="-277.8" font-family="Arial" font-size="8.00">IEnumerable&lt;IGameObject&gt;</text>
</g>
<!-- Box_IEnumerable&#45;&gt;Box_PipeRenderer -->
<g id="edge10" class="edge"><title>Box_IEnumerable&#45;&gt;Box_PipeRenderer</title>
<path fill="none" stroke="midnightblue" d="M359,-260.99C359,-240.815 359,-207.482 359,-175.433"/>
<polygon fill="none" stroke="midnightblue" points="355.5,-260.997 359,-270.997 362.5,-260.997 355.5,-260.997"/>
</g>
</g>
</svg>
