<?xml version="1.0" encoding="UTF-8" standalone="no"?>
<!DOCTYPE svg PUBLIC "-//W3C//DTD SVG 1.1//EN"
 "http://www.w3.org/Graphics/SVG/1.1/DTD/svg11.dtd">
<!-- Generated by graphviz version 2.26.3 (20100126.1600)
 -->
<!-- Title: MenuItem Pages: 1 -->
<svg width="476pt" height="488pt"
 viewBox="0.00 0.00 476.00 488.00" xmlns="http://www.w3.org/2000/svg" xmlns:xlink="http://www.w3.org/1999/xlink">
<g id="graph1" class="graph" transform="scale(1 1) rotate(0) translate(4 484)">
<title>MenuItem</title>
<polygon fill="white" stroke="white" points="-4,5 -4,-484 473,-484 473,5 -4,5"/>
<!-- Box_KnotRenderer -->
<g id="node1" class="node"><title>Box_KnotRenderer</title>
<polygon fill="#fcfcda" stroke="black" points="214.5,-213 214.5,-347 425.5,-347 425.5,-213 214.5,-213"/>
<text text-anchor="middle" x="320" y="-335.8" font-family="Arial" font-size="8.00">KnotRenderer</text>
<polyline fill="none" stroke="black" points="214.5,-329 425.5,-329 "/>
<text text-anchor="start" x="222.5" y="-317.8" font-family="Arial" font-size="8.00">+ World : World abstract</text>
<text text-anchor="start" x="222.5" y="-307.8" font-family="Arial" font-size="8.00"># screen : GameScreen</text>
<text text-anchor="start" x="222.5" y="-297.8" font-family="Arial" font-size="8.00">+ Info : GameObjectInfo abstract</text>
<polyline fill="none" stroke="black" points="214.5,-291 425.5,-291 "/>
<text text-anchor="start" x="222.5" y="-279.8" font-family="Arial" font-size="8.00"># nodeMap () : NodeMap</text>
<text text-anchor="start" x="222.5" y="-269.8" font-family="Arial" font-size="8.00">+ Intersects (Ray ray) : GameObjectDistance abstract</text>
<text text-anchor="start" x="222.5" y="-259.8" font-family="Arial" font-size="8.00">+ Center () : Vector3 abstract</text>
<text text-anchor="start" x="222.5" y="-249.8" font-family="Arial" font-size="8.00">+ Draw (GameTime gameTime) abstract</text>
<text text-anchor="start" x="222.5" y="-239.8" font-family="Arial" font-size="8.00">+ KnotRenderer (GameScreen screen)</text>
<text text-anchor="start" x="222.5" y="-229.8" font-family="Arial" font-size="8.00">+ Update (GameTime gameTime) abstract</text>
<text text-anchor="start" x="222.5" y="-219.8" font-family="Arial" font-size="8.00">+ OnEdgesChanged (EdgeList edges) virtual</text>
</g>
<!-- Box_LineRenderer -->
<g id="node3" class="node"><title>Box_LineRenderer</title>
<polygon fill="#fcfcda" stroke="black" points="235.5,-16 235.5,-160 468.5,-160 468.5,-16 235.5,-16"/>
<text text-anchor="middle" x="352" y="-148.8" font-family="Arial" font-size="8.00">LineRenderer</text>
<polyline fill="none" stroke="black" points="235.5,-142 468.5,-142 "/>
<text text-anchor="start" x="243.5" y="-130.8" font-family="Arial" font-size="8.00">&#45; edges : EdgeList</text>
<text text-anchor="start" x="243.5" y="-120.8" font-family="Arial" font-size="8.00">&#45; basicEffect : BasicEffect</text>
<text text-anchor="start" x="243.5" y="-110.8" font-family="Arial" font-size="8.00">+ Info : GameObjectInfo</text>
<text text-anchor="start" x="243.5" y="-100.8" font-family="Arial" font-size="8.00">+ World : World</text>
<polyline fill="none" stroke="black" points="235.5,-94 468.5,-94 "/>
<text text-anchor="start" x="243.5" y="-82.8" font-family="Arial" font-size="8.00">+ LineRenderer (GameScreen screen, GameObjectInfo info)</text>
<text text-anchor="start" x="243.5" y="-72.8" font-family="Arial" font-size="8.00">+ OnEdgesChanged (EdgeList edges)</text>
<text text-anchor="start" x="243.5" y="-62.8" font-family="Arial" font-size="8.00">&#45; DrawRoundedLines ()</text>
<text text-anchor="start" x="243.5" y="-52.8" font-family="Arial" font-size="8.00">+ Intersects (Ray ray) : GameObjectDistance</text>
<text text-anchor="start" x="243.5" y="-42.8" font-family="Arial" font-size="8.00">+ Center () : Vector3</text>
<text text-anchor="start" x="243.5" y="-32.8" font-family="Arial" font-size="8.00">+ Draw (GameTime gameTime)</text>
<text text-anchor="start" x="243.5" y="-22.8" font-family="Arial" font-size="8.00">+ Update (GameTime gameTime)</text>
</g>
<!-- Box_KnotRenderer&#45;&gt;Box_LineRenderer -->
<g id="edge6" class="edge"><title>Box_KnotRenderer&#45;&gt;Box_LineRenderer</title>
<path fill="none" stroke="midnightblue" d="M332.883,-202.701C335.233,-188.605 337.675,-173.949 339.998,-160.014"/>
<polygon fill="none" stroke="midnightblue" points="329.384,-202.408 331.192,-212.848 336.288,-203.559 329.384,-202.408"/>
</g>
<!-- Box_PipeRenderer -->
<g id="node4" class="node"><title>Box_PipeRenderer</title>
<polygon fill="#fcfcda" stroke="black" points="0,-1 0,-175 218,-175 218,-1 0,-1"/>
<text text-anchor="middle" x="109" y="-163.8" font-family="Arial" font-size="8.00">PipeRenderer</text>
<polyline fill="none" stroke="black" points="0,-157 218,-157 "/>
<text text-anchor="start" x="8" y="-145.8" font-family="Arial" font-size="8.00">&#45; nodes : List&lt;NodeModel&gt;</text>
<text text-anchor="start" x="8" y="-135.8" font-family="Arial" font-size="8.00">&#45; nodeFactory : ModelFactory</text>
<text text-anchor="start" x="8" y="-125.8" font-family="Arial" font-size="8.00">&#45; pipeFactory : ModelFactory</text>
<text text-anchor="start" x="8" y="-115.8" font-family="Arial" font-size="8.00">&#45; pipes : List&lt;PipeModel&gt;</text>
<text text-anchor="start" x="8" y="-105.8" font-family="Arial" font-size="8.00">+ Info : GameObjectInfo</text>
<text text-anchor="start" x="8" y="-95.8" font-family="Arial" font-size="8.00">+ World : World</text>
<polyline fill="none" stroke="black" points="0,-89 218,-89 "/>
<text text-anchor="start" x="8" y="-77.8" font-family="Arial" font-size="8.00">&#45; IEnumerable.GetEnumerator () : IEnumerator</text>
<text text-anchor="start" x="8" y="-67.8" font-family="Arial" font-size="8.00">+ PipeRenderer (GameState state, GameObjectInfo info)</text>
<text text-anchor="start" x="8" y="-57.8" font-family="Arial" font-size="8.00">+ Draw (GameTime gameTime)</text>
<text text-anchor="start" x="8" y="-47.8" font-family="Arial" font-size="8.00">+ OnEdgesChanged (EdgeList edges)</text>
<text text-anchor="start" x="8" y="-37.8" font-family="Arial" font-size="8.00">+ GetEnumerator () : IEnumerator&lt;IGameObject&gt;</text>
<text text-anchor="start" x="8" y="-27.8" font-family="Arial" font-size="8.00">+ Intersects (Ray ray) : GameObjectDistance</text>
<text text-anchor="start" x="8" y="-17.8" font-family="Arial" font-size="8.00">+ Center () : Vector3</text>
<text text-anchor="start" x="8" y="-7.8" font-family="Arial" font-size="8.00">+ Update (GameTime gameTime)</text>
</g>
<!-- Box_KnotRenderer&#45;&gt;Box_PipeRenderer -->
<g id="edge8" class="edge"><title>Box_KnotRenderer&#45;&gt;Box_PipeRenderer</title>
<path fill="none" stroke="midnightblue" d="M238.575,-205.908C227.462,-195.795 215.973,-185.34 204.637,-175.025"/>
<polygon fill="none" stroke="midnightblue" points="236.451,-208.706 246.202,-212.848 241.162,-203.529 236.451,-208.706"/>
</g>
<!-- Box_IGameObject -->
<g id="node2" class="node"><title>Box_IGameObject</title>
<polygon fill="#dafcda" stroke="black" points="153.5,-385 153.5,-479 332.5,-479 332.5,-385 153.5,-385"/>
<text text-anchor="middle" x="243" y="-467.8" font-family="Arial" font-size="8.00">IGameObject</text>
<polyline fill="none" stroke="black" points="153.5,-461 332.5,-461 "/>
<text text-anchor="start" x="161.5" y="-449.8" font-family="Arial" font-size="8.00">+ Info : GameObjectInfo</text>
<text text-anchor="start" x="161.5" y="-439.8" font-family="Arial" font-size="8.00">+ World : World</text>
<polyline fill="none" stroke="black" points="153.5,-433 332.5,-433 "/>
<text text-anchor="start" x="161.5" y="-421.8" font-family="Arial" font-size="8.00">+ Draw (GameTime time)</text>
<text text-anchor="start" x="161.5" y="-411.8" font-family="Arial" font-size="8.00">+ Update (GameTime time)</text>
<text text-anchor="start" x="161.5" y="-401.8" font-family="Arial" font-size="8.00">+ Intersects (Ray ray) : GameObjectDistance</text>
<text text-anchor="start" x="161.5" y="-391.8" font-family="Arial" font-size="8.00">+ Center () : Vector3</text>
</g>
<!-- Box_IGameObject&#45;&gt;Box_KnotRenderer -->
<g id="edge4" class="edge"><title>Box_IGameObject&#45;&gt;Box_KnotRenderer</title>
<path fill="none" stroke="midnightblue" d="M271.571,-375.6C276.284,-366.297 281.209,-356.574 286.038,-347.041"/>
<polygon fill="none" stroke="midnightblue" points="268.338,-374.237 266.941,-384.739 274.583,-377.4 268.338,-374.237"/>
</g>
<!-- Box_IEdgeChangeListener -->
<g id="node5" class="node"><title>Box_IEdgeChangeListener</title>
<polygon fill="#ffffff" stroke="black" points="349.5,-423 349.5,-441 442.5,-441 442.5,-423 349.5,-423"/>
<text text-anchor="middle" x="396" y="-429.8" font-family="Arial" font-size="8.00">IEdgeChangeListener</text>
</g>
<!-- Box_IEdgeChangeListener&#45;&gt;Box_KnotRenderer -->
<g id="edge2" class="edge"><title>Box_IEdgeChangeListener&#45;&gt;Box_KnotRenderer</title>
<path fill="none" stroke="midnightblue" d="M386.924,-413.848C378.603,-397.206 365.754,-371.507 353.53,-347.06"/>
<polygon fill="none" stroke="midnightblue" points="383.871,-415.568 391.473,-422.947 390.132,-412.437 383.871,-415.568"/>
</g>
<!-- Box_IEnumerable -->
<g id="node6" class="node"><title>Box_IEnumerable</title>
<polygon fill="#ffffff" stroke="black" points="51.5,-271 51.5,-289 166.5,-289 166.5,-271 51.5,-271"/>
<text text-anchor="middle" x="109" y="-277.8" font-family="Arial" font-size="8.00">IEnumerable&lt;IGameObject&gt;</text>
</g>
<!-- Box_IEnumerable&#45;&gt;Box_PipeRenderer -->
<g id="edge10" class="edge"><title>Box_IEnumerable&#45;&gt;Box_PipeRenderer</title>
<path fill="none" stroke="midnightblue" d="M109,-260.99C109,-240.815 109,-207.482 109,-175.433"/>
<polygon fill="none" stroke="midnightblue" points="105.5,-260.997 109,-270.997 112.5,-260.997 105.5,-260.997"/>
</g>
</g>
</svg>
