<?xml version="1.0" encoding="UTF-8" standalone="no"?>
<!DOCTYPE svg PUBLIC "-//W3C//DTD SVG 1.1//EN"
 "http://www.w3.org/Graphics/SVG/1.1/DTD/svg11.dtd">
<!-- Generated by graphviz version 2.26.3 (20100126.1600)
 -->
<!-- Title: MenuItem Pages: 1 -->
<svg width="1600pt" height="1892pt"
 viewBox="0.00 0.00 384.00 454.00" xmlns="http://www.w3.org/2000/svg" xmlns:xlink="http://www.w3.org/1999/xlink">
<g id="graph1" class="graph" transform="scale(4.16667 4.16667) rotate(0) translate(4 450)">
<title>MenuItem</title>
<polygon fill="white" stroke="white" points="-4,5 -4,-450 381,-450 381,5 -4,5"/>
<!-- Box_NodeModelInfo -->
<g id="node1" class="node"><title>Box_NodeModelInfo</title>
<polygon fill="#fcfcda" stroke="black" points="-0.5,-1 -0.5,-95 376.5,-95 376.5,-1 -0.5,-1"/>
<text text-anchor="middle" x="188" y="-83.8" font-family="Arial" font-size="8.00">NodeModelInfo</text>
<polyline fill="none" stroke="black" points="-0.5,-77 376.5,-77 "/>
<text text-anchor="start" x="7.5" y="-65.8" font-family="Arial" font-size="8.00">+ EdgeA : Edge</text>
<text text-anchor="start" x="7.5" y="-55.8" font-family="Arial" font-size="8.00">+ EdgeB : Edge</text>
<text text-anchor="start" x="7.5" y="-45.8" font-family="Arial" font-size="8.00">+ NodeMap : NodeMap</text>
<text text-anchor="start" x="7.5" y="-35.8" font-family="Arial" font-size="8.00">+ EdgeList : EdgeList</text>
<polyline fill="none" stroke="black" points="-0.5,-29 376.5,-29 "/>
<text text-anchor="start" x="7.5" y="-17.8" font-family="Arial" font-size="8.00">+ NodeModelInfo (EdgeList edgeList, NodeMap nodeMap, Edge edgeA, Edge edgeB, Vector3 offset)</text>
<text text-anchor="start" x="7.5" y="-7.8" font-family="Arial" font-size="8.00">+ Equals (GameObjectInfo other) : bool</text>
</g>
<!-- Box_GameModelInfo -->
<g id="node2" class="node"><title>Box_GameModelInfo</title>
<polygon fill="#fcfcda" stroke="black" points="110,-133 110,-217 266,-217 266,-133 110,-133"/>
<text text-anchor="middle" x="188" y="-205.8" font-family="Arial" font-size="8.00">GameModelInfo</text>
<polyline fill="none" stroke="black" points="110,-199 266,-199 "/>
<text text-anchor="start" x="118" y="-187.8" font-family="Arial" font-size="8.00">+ Rotation : Angles3</text>
<text text-anchor="start" x="118" y="-177.8" font-family="Arial" font-size="8.00">+ Scale : Vector3</text>
<text text-anchor="start" x="118" y="-167.8" font-family="Arial" font-size="8.00">+ Modelname : string</text>
<polyline fill="none" stroke="black" points="110,-161 266,-161 "/>
<text text-anchor="start" x="118" y="-149.8" font-family="Arial" font-size="8.00">+ GameModelInfo (string modelname)</text>
<text text-anchor="start" x="118" y="-139.8" font-family="Arial" font-size="8.00">+ Equals (GameObjectInfo other) : bool</text>
</g>
<!-- Box_GameModelInfo&#45;&gt;Box_NodeModelInfo -->
<g id="edge2" class="edge"><title>Box_GameModelInfo&#45;&gt;Box_NodeModelInfo</title>
<path fill="none" stroke="midnightblue" d="M188,-122.671C188,-113.624 188,-104.266 188,-95.3606"/>
<polygon fill="none" stroke="midnightblue" points="184.5,-122.711 188,-132.711 191.5,-122.711 184.5,-122.711"/>
</g>
<!-- Box_GameObjectInfo -->
<g id="node3" class="node"><title>Box_GameObjectInfo</title>
<polygon fill="#fcfcda" stroke="black" points="62,-255 62,-389 314,-389 314,-255 62,-255"/>
<text text-anchor="middle" x="188" y="-377.8" font-family="Arial" font-size="8.00">GameObjectInfo</text>
<polyline fill="none" stroke="black" points="62,-371 314,-371 "/>
<text text-anchor="start" x="70" y="-359.8" font-family="Arial" font-size="8.00">+ IsMovable : bool</text>
<text text-anchor="start" x="70" y="-349.8" font-family="Arial" font-size="8.00">+ IsSelectable : bool</text>
<text text-anchor="start" x="70" y="-339.8" font-family="Arial" font-size="8.00">+ IsVisible : bool</text>
<text text-anchor="start" x="70" y="-329.8" font-family="Arial" font-size="8.00">+ Position : Vector3</text>
<polyline fill="none" stroke="black" points="62,-323 314,-323 "/>
<text text-anchor="start" x="70" y="-311.8" font-family="Arial" font-size="8.00">+ GameObjectInfo ()</text>
<text text-anchor="start" x="70" y="-301.8" font-family="Arial" font-size="8.00">+ operator (GameObjectInfo o1, GameObjectInfo o2) : bool static</text>
<text text-anchor="start" x="70" y="-291.8" font-family="Arial" font-size="8.00">+ Equals (Object obj) : bool</text>
<text text-anchor="start" x="70" y="-281.8" font-family="Arial" font-size="8.00">+ GetHashCode () : int</text>
<text text-anchor="start" x="70" y="-271.8" font-family="Arial" font-size="8.00">+ operator ! (GameObjectInfo o1, GameObjectInfo o2) : bool static</text>
<text text-anchor="start" x="70" y="-261.8" font-family="Arial" font-size="8.00">+ Equals (GameObjectInfo other) : bool virtual</text>
</g>
<!-- Box_GameObjectInfo&#45;&gt;Box_GameModelInfo -->
<g id="edge4" class="edge"><title>Box_GameObjectInfo&#45;&gt;Box_GameModelInfo</title>
<path fill="none" stroke="midnightblue" d="M188,-244.668C188,-235.194 188,-225.804 188,-217.132"/>
<polygon fill="none" stroke="midnightblue" points="184.5,-244.953 188,-254.953 191.5,-244.953 184.5,-244.953"/>
</g>
<!-- Box_IEquatable -->
<g id="node4" class="node"><title>Box_IEquatable</title>
<polygon fill="#ffffff" stroke="black" points="128,-427 128,-445 248,-445 248,-427 128,-427"/>
<text text-anchor="middle" x="188" y="-433.8" font-family="Arial" font-size="8.00">IEquatable&lt;GameObjectInfo&gt;</text>
</g>
<!-- Box_IEquatable&#45;&gt;Box_GameObjectInfo -->
<g id="edge6" class="edge"><title>Box_IEquatable&#45;&gt;Box_GameObjectInfo</title>
<path fill="none" stroke="midnightblue" d="M188,-416.57C188,-408.742 188,-399.21 188,-389.246"/>
<polygon fill="none" stroke="midnightblue" points="184.5,-416.671 188,-426.671 191.5,-416.671 184.5,-416.671"/>
</g>
</g>
</svg>
