<?xml version="1.0" encoding="UTF-8" standalone="no"?>
<!DOCTYPE svg PUBLIC "-//W3C//DTD SVG 1.1//EN"
 "http://www.w3.org/Graphics/SVG/1.1/DTD/svg11.dtd">
<!-- Generated by graphviz version 2.26.3 (20100126.1600)
 -->
<!-- Title: MenuItem Pages: 1 -->
<svg width="244pt" height="530pt"
 viewBox="0.00 0.00 244.00 530.00" xmlns="http://www.w3.org/2000/svg" xmlns:xlink="http://www.w3.org/1999/xlink">
<g id="graph1" class="graph" transform="scale(1 1) rotate(0) translate(4 526)">
<title>MenuItem</title>
<polygon fill="white" stroke="white" points="-4,5 -4,-526 241,-526 241,5 -4,5"/>
<!-- Box_ShadowGameModel -->
<g id="node1" class="node"><title>Box_ShadowGameModel</title>
<polygon fill="#fcfcda" stroke="black" points="0,-1 0,-121 236,-121 236,-1 0,-1"/>
<text text-anchor="middle" x="118" y="-109.8" font-family="Helvetica,sans-Serif" font-size="8.00">ShadowGameModel</text>
<polyline fill="none" stroke="black" points="0,-101 236,-101 "/>
<text text-anchor="start" x="8" y="-89.8" font-family="Helvetica,sans-Serif" font-size="8.00">Attributes:</text>
<text text-anchor="start" x="8" y="-77.8" font-family="Helvetica,sans-Serif" font-size="8.00">+ ShadowColor : Color</text>
<text text-anchor="start" x="8" y="-65.8" font-family="Helvetica,sans-Serif" font-size="8.00">&#45; Model : GameModel</text>
<text text-anchor="start" x="8" y="-53.8" font-family="Helvetica,sans-Serif" font-size="8.00">+ ShadowAlpha : float</text>
<text text-anchor="start" x="8" y="-41.8" font-family="Helvetica,sans-Serif" font-size="8.00">Methods:</text>
<polyline fill="none" stroke="black" points="0,-33 236,-33 "/>
<text text-anchor="start" x="8" y="-21.8" font-family="Helvetica,sans-Serif" font-size="8.00">+ ShadowGameModel (GameState state, GameModel model)</text>
<text text-anchor="start" x="8" y="-9.8" font-family="Helvetica,sans-Serif" font-size="8.00">+ Draw (GameTime gameTime)</text>
</g>
<!-- Box_ShadowGameObject -->
<g id="node2" class="node"><title>Box_ShadowGameObject</title>
<polygon fill="#fcfcda" stroke="black" points="3.5,-159 3.5,-351 232.5,-351 232.5,-159 3.5,-159"/>
<text text-anchor="middle" x="118" y="-339.8" font-family="Helvetica,sans-Serif" font-size="8.00">ShadowGameObject</text>
<polyline fill="none" stroke="black" points="3.5,-331 232.5,-331 "/>
<text text-anchor="start" x="11.5" y="-319.8" font-family="Helvetica,sans-Serif" font-size="8.00">Attributes:</text>
<text text-anchor="start" x="11.5" y="-307.8" font-family="Helvetica,sans-Serif" font-size="8.00">&#45; Obj : IGameObject</text>
<text text-anchor="start" x="11.5" y="-295.8" font-family="Helvetica,sans-Serif" font-size="8.00">+ OriginalPosition : Vector3</text>
<text text-anchor="start" x="11.5" y="-283.8" font-family="Helvetica,sans-Serif" font-size="8.00">+ World : World</text>
<text text-anchor="start" x="11.5" y="-271.8" font-family="Helvetica,sans-Serif" font-size="8.00">+ Info : dynamic</text>
<text text-anchor="start" x="11.5" y="-259.8" font-family="Helvetica,sans-Serif" font-size="8.00"># state : GameState</text>
<text text-anchor="start" x="11.5" y="-247.8" font-family="Helvetica,sans-Serif" font-size="8.00">+ ShadowPosition : Vector3</text>
<text text-anchor="start" x="11.5" y="-235.8" font-family="Helvetica,sans-Serif" font-size="8.00">Methods:</text>
<polyline fill="none" stroke="black" points="3.5,-227 232.5,-227 "/>
<text text-anchor="start" x="11.5" y="-215.8" font-family="Helvetica,sans-Serif" font-size="8.00">+ Update (GameTime gameTime) virtual</text>
<text text-anchor="start" x="11.5" y="-203.8" font-family="Helvetica,sans-Serif" font-size="8.00">+ Intersects (Ray ray) : GameObjectDistance</text>
<text text-anchor="start" x="11.5" y="-191.8" font-family="Helvetica,sans-Serif" font-size="8.00">+ ShadowGameObject (GameState state, IGameObject obj)</text>
<text text-anchor="start" x="11.5" y="-179.8" font-family="Helvetica,sans-Serif" font-size="8.00">+ Center () : Vector3</text>
<text text-anchor="start" x="11.5" y="-167.8" font-family="Helvetica,sans-Serif" font-size="8.00">+ Draw (GameTime gameTime) virtual</text>
</g>
<!-- Box_ShadowGameObject&#45;&gt;Box_ShadowGameModel -->
<g id="edge2" class="edge"><title>Box_ShadowGameObject&#45;&gt;Box_ShadowGameModel</title>
<path fill="none" stroke="midnightblue" d="M118,-148.615C118,-139.209 118,-129.92 118,-121.11"/>
<polygon fill="none" stroke="midnightblue" points="114.5,-148.852 118,-158.853 121.5,-148.853 114.5,-148.852"/>
</g>
<!-- Box_IGameObject -->
<g id="node3" class="node"><title>Box_IGameObject</title>
<polygon fill="#dafcda" stroke="black" points="30,-389 30,-521 206,-521 206,-389 30,-389"/>
<text text-anchor="middle" x="118" y="-509.8" font-family="Helvetica,sans-Serif" font-size="8.00">IGameObject</text>
<polyline fill="none" stroke="black" points="30,-501 206,-501 "/>
<text text-anchor="start" x="38" y="-489.8" font-family="Helvetica,sans-Serif" font-size="8.00">Attributes:</text>
<text text-anchor="start" x="38" y="-477.8" font-family="Helvetica,sans-Serif" font-size="8.00">+ Info : dynamic</text>
<text text-anchor="start" x="38" y="-465.8" font-family="Helvetica,sans-Serif" font-size="8.00">+ World : World</text>
<text text-anchor="start" x="38" y="-453.8" font-family="Helvetica,sans-Serif" font-size="8.00">Methods:</text>
<polyline fill="none" stroke="black" points="30,-445 206,-445 "/>
<text text-anchor="start" x="38" y="-433.8" font-family="Helvetica,sans-Serif" font-size="8.00">+ Draw (GameTime gameTime)</text>
<text text-anchor="start" x="38" y="-421.8" font-family="Helvetica,sans-Serif" font-size="8.00">+ Update (GameTime gameTime)</text>
<text text-anchor="start" x="38" y="-409.8" font-family="Helvetica,sans-Serif" font-size="8.00">+ Intersects (Ray ray) : GameObjectDistance</text>
<text text-anchor="start" x="38" y="-397.8" font-family="Helvetica,sans-Serif" font-size="8.00">+ Center () : Vector3</text>
</g>
<!-- Box_IGameObject&#45;&gt;Box_ShadowGameObject -->
<g id="edge4" class="edge"><title>Box_IGameObject&#45;&gt;Box_ShadowGameObject</title>
<path fill="none" stroke="midnightblue" d="M111.425,-378.914C111.291,-369.899 111.234,-360.608 111.254,-351.359"/>
<polygon fill="none" stroke="midnightblue" points="107.926,-379.024 111.609,-388.958 114.925,-378.896 107.926,-379.024"/>
</g>
<!-- Box_IGameObject&#45;&gt;Box_ShadowGameObject -->
<g id="edge6" class="edge"><title>Box_IGameObject&#45;&gt;Box_ShadowGameObject</title>
<path fill="none" stroke="midnightblue" d="M124.575,-378.914C124.709,-369.899 124.766,-360.608 124.746,-351.359"/>
<polygon fill="none" stroke="midnightblue" points="121.075,-378.896 124.391,-388.958 128.074,-379.024 121.075,-378.896"/>
</g>
</g>
</svg>
