<?xml version="1.0" encoding="UTF-8" standalone="no"?>
<!DOCTYPE svg PUBLIC "-//W3C//DTD SVG 1.1//EN"
 "http://www.w3.org/Graphics/SVG/1.1/DTD/svg11.dtd">
<!-- Generated by graphviz version 2.26.3 (20100126.1600)
 -->
<!-- Title: MenuItem Pages: 1 -->
<svg width="1717pt" height="2200pt"
 viewBox="0.00 0.00 412.00 528.00" xmlns="http://www.w3.org/2000/svg" xmlns:xlink="http://www.w3.org/1999/xlink">
<g id="graph1" class="graph" transform="scale(4.16667 4.16667) rotate(0) translate(4 524)">
<title>MenuItem</title>
<polygon fill="white" stroke="white" points="-4,5 -4,-524 409,-524 409,5 -4,5"/>
<!-- Box_ModelRenderer -->
<g id="node1" class="node"><title>Box_ModelRenderer</title>
<polygon fill="#fcfcda" stroke="black" points="137.5,-1 137.5,-215 376.5,-215 376.5,-1 137.5,-1"/>
<text text-anchor="middle" x="257" y="-203.8" font-family="Arial" font-size="8.00">ModelRenderer</text>
<polyline fill="none" stroke="black" points="137.5,-197 376.5,-197 "/>
<text text-anchor="start" x="145.5" y="-185.8" font-family="Arial" font-size="8.00">&#45; arrows : List&lt;ArrowModel&gt;</text>
<text text-anchor="start" x="145.5" y="-175.8" font-family="Arial" font-size="8.00">&#45; nodes : List&lt;NodeModel&gt;</text>
<text text-anchor="start" x="145.5" y="-165.8" font-family="Arial" font-size="8.00">&#45; arrowFactory : ModelFactory</text>
<text text-anchor="start" x="145.5" y="-155.8" font-family="Arial" font-size="8.00">&#45; nodeFactory : ModelFactory</text>
<text text-anchor="start" x="145.5" y="-145.8" font-family="Arial" font-size="8.00">&#45; pipeFactory : ModelFactory</text>
<text text-anchor="start" x="145.5" y="-135.8" font-family="Arial" font-size="8.00">&#45; pipes : List&lt;PipeModel&gt;</text>
<text text-anchor="start" x="145.5" y="-125.8" font-family="Arial" font-size="8.00">+ Info : GameObjectInfo</text>
<text text-anchor="start" x="145.5" y="-115.8" font-family="Arial" font-size="8.00">+ World : World</text>
<polyline fill="none" stroke="black" points="137.5,-109 376.5,-109 "/>
<text text-anchor="start" x="145.5" y="-97.8" font-family="Arial" font-size="8.00">&#45; IEnumerable.GetEnumerator () : IEnumerator</text>
<text text-anchor="start" x="145.5" y="-87.8" font-family="Arial" font-size="8.00">&#45; CreateArrow (Edge edge)</text>
<text text-anchor="start" x="145.5" y="-77.8" font-family="Arial" font-size="8.00">+ ModelRenderer (GameScreen screen, GameObjectInfo info)</text>
<text text-anchor="start" x="145.5" y="-67.8" font-family="Arial" font-size="8.00">+ Draw (GameTime gameTime)</text>
<text text-anchor="start" x="145.5" y="-57.8" font-family="Arial" font-size="8.00">+ OnEdgesChanged (EdgeList edgeList)</text>
<text text-anchor="start" x="145.5" y="-47.8" font-family="Arial" font-size="8.00">+ GetEnumerator () : IEnumerator&lt;IGameObject&gt;</text>
<text text-anchor="start" x="145.5" y="-37.8" font-family="Arial" font-size="8.00">+ Intersects (Ray ray) : GameObjectDistance</text>
<text text-anchor="start" x="145.5" y="-27.8" font-family="Arial" font-size="8.00">+ Center () : Vector3</text>
<text text-anchor="start" x="145.5" y="-17.8" font-family="Arial" font-size="8.00">+ Update (GameTime gameTime)</text>
<text text-anchor="start" x="145.5" y="-7.8" font-family="Arial" font-size="8.00">+ CreateArrows (WrapList&lt;Edge&gt; selectedEdges)</text>
</g>
<!-- Box_KnotRenderer -->
<g id="node2" class="node"><title>Box_KnotRenderer</title>
<polygon fill="#fcfcda" stroke="black" points="61.5,-253 61.5,-387 272.5,-387 272.5,-253 61.5,-253"/>
<text text-anchor="middle" x="167" y="-375.8" font-family="Arial" font-size="8.00">KnotRenderer</text>
<polyline fill="none" stroke="black" points="61.5,-369 272.5,-369 "/>
<text text-anchor="start" x="69.5" y="-357.8" font-family="Arial" font-size="8.00">+ World : World abstract</text>
<text text-anchor="start" x="69.5" y="-347.8" font-family="Arial" font-size="8.00"># screen : GameScreen</text>
<text text-anchor="start" x="69.5" y="-337.8" font-family="Arial" font-size="8.00">+ Info : GameObjectInfo abstract</text>
<polyline fill="none" stroke="black" points="61.5,-331 272.5,-331 "/>
<text text-anchor="start" x="69.5" y="-319.8" font-family="Arial" font-size="8.00"># nodeMap () : NodeMap</text>
<text text-anchor="start" x="69.5" y="-309.8" font-family="Arial" font-size="8.00">+ Intersects (Ray ray) : GameObjectDistance abstract</text>
<text text-anchor="start" x="69.5" y="-299.8" font-family="Arial" font-size="8.00">+ Center () : Vector3 abstract</text>
<text text-anchor="start" x="69.5" y="-289.8" font-family="Arial" font-size="8.00">+ Draw (GameTime gameTime) abstract</text>
<text text-anchor="start" x="69.5" y="-279.8" font-family="Arial" font-size="8.00">+ KnotRenderer (GameScreen screen)</text>
<text text-anchor="start" x="69.5" y="-269.8" font-family="Arial" font-size="8.00">+ Update (GameTime gameTime) abstract</text>
<text text-anchor="start" x="69.5" y="-259.8" font-family="Arial" font-size="8.00">+ OnEdgesChanged (EdgeList edges) virtual</text>
</g>
<!-- Box_KnotRenderer&#45;&gt;Box_ModelRenderer -->
<g id="edge2" class="edge"><title>Box_KnotRenderer&#45;&gt;Box_ModelRenderer</title>
<path fill="none" stroke="midnightblue" d="M199.48,-243.492C203.374,-234.319 207.404,-224.827 211.44,-215.32"/>
<polygon fill="none" stroke="midnightblue" points="196.163,-242.349 195.477,-252.922 202.606,-245.085 196.163,-242.349"/>
</g>
<!-- Box_IEdgeChangeListener -->
<g id="node3" class="node"><title>Box_IEdgeChangeListener</title>
<polygon fill="#dafcda" stroke="black" points="0,-445 0,-499 152,-499 152,-445 0,-445"/>
<text text-anchor="middle" x="76" y="-487.8" font-family="Arial" font-size="8.00">IEdgeChangeListener</text>
<polyline fill="none" stroke="black" points="0,-481 152,-481 "/>
<text text-anchor="middle" x="76" y="-469.8" font-family="Arial" font-size="8.00"> </text>
<polyline fill="none" stroke="black" points="0,-463 152,-463 "/>
<text text-anchor="start" x="8" y="-451.8" font-family="Arial" font-size="8.00">+ OnEdgesChanged (EdgeList edges)</text>
</g>
<!-- Box_IEdgeChangeListener&#45;&gt;Box_KnotRenderer -->
<g id="edge6" class="edge"><title>Box_IEdgeChangeListener&#45;&gt;Box_KnotRenderer</title>
<path fill="none" stroke="midnightblue" d="M97.5032,-436.083C106.286,-421.413 116.739,-403.953 126.837,-387.086"/>
<polygon fill="none" stroke="midnightblue" points="94.4027,-434.448 92.269,-444.825 100.409,-438.043 94.4027,-434.448"/>
</g>
<!-- Box_IGameObject -->
<g id="node4" class="node"><title>Box_IGameObject</title>
<polygon fill="#dafcda" stroke="black" points="169.5,-425 169.5,-519 348.5,-519 348.5,-425 169.5,-425"/>
<text text-anchor="middle" x="259" y="-507.8" font-family="Arial" font-size="8.00">IGameObject</text>
<polyline fill="none" stroke="black" points="169.5,-501 348.5,-501 "/>
<text text-anchor="start" x="177.5" y="-489.8" font-family="Arial" font-size="8.00">+ Info : GameObjectInfo</text>
<text text-anchor="start" x="177.5" y="-479.8" font-family="Arial" font-size="8.00">+ World : World</text>
<polyline fill="none" stroke="black" points="169.5,-473 348.5,-473 "/>
<text text-anchor="start" x="177.5" y="-461.8" font-family="Arial" font-size="8.00">+ Draw (GameTime gameTime)</text>
<text text-anchor="start" x="177.5" y="-451.8" font-family="Arial" font-size="8.00">+ Update (GameTime gameTime)</text>
<text text-anchor="start" x="177.5" y="-441.8" font-family="Arial" font-size="8.00">+ Intersects (Ray ray) : GameObjectDistance</text>
<text text-anchor="start" x="177.5" y="-431.8" font-family="Arial" font-size="8.00">+ Center () : Vector3</text>
</g>
<!-- Box_IGameObject&#45;&gt;Box_KnotRenderer -->
<g id="edge8" class="edge"><title>Box_IGameObject&#45;&gt;Box_KnotRenderer</title>
<path fill="none" stroke="midnightblue" d="M225.214,-416.18C219.478,-406.702 213.467,-396.772 207.577,-387.041"/>
<polygon fill="none" stroke="midnightblue" points="222.223,-417.997 230.395,-424.739 228.211,-414.372 222.223,-417.997"/>
</g>
<!-- Box_IEnumerable -->
<g id="node5" class="node"><title>Box_IEnumerable</title>
<polygon fill="#ffffff" stroke="black" points="289.5,-311 289.5,-329 404.5,-329 404.5,-311 289.5,-311"/>
<text text-anchor="middle" x="347" y="-317.8" font-family="Arial" font-size="8.00">IEnumerable&lt;IGameObject&gt;</text>
</g>
<!-- Box_IEnumerable&#45;&gt;Box_ModelRenderer -->
<g id="edge4" class="edge"><title>Box_IEnumerable&#45;&gt;Box_ModelRenderer</title>
<path fill="none" stroke="midnightblue" d="M339.172,-301.56C330.742,-281.703 316.623,-248.445 302.445,-215.048"/>
<polygon fill="none" stroke="midnightblue" points="336.003,-303.053 343.133,-310.891 342.447,-300.318 336.003,-303.053"/>
</g>
</g>
</svg>
