<?xml version="1.0" encoding="UTF-8" standalone="no"?>
<!DOCTYPE svg PUBLIC "-//W3C//DTD SVG 1.1//EN"
 "http://www.w3.org/Graphics/SVG/1.1/DTD/svg11.dtd">
<!-- Generated by graphviz version 2.26.3 (20100126.1600)
 -->
<!-- Title: MenuItem Pages: 1 -->
<svg width="2683pt" height="2100pt"
 viewBox="0.00 0.00 644.00 504.00" xmlns="http://www.w3.org/2000/svg" xmlns:xlink="http://www.w3.org/1999/xlink">
<g id="graph1" class="graph" transform="scale(4.16667 4.16667) rotate(0) translate(4 500)">
<title>MenuItem</title>
<polygon fill="white" stroke="white" points="-4,5 -4,-500 641,-500 641,5 -4,5"/>
<!-- Box_Input -->
<g id="node1" class="node"><title>Box_Input</title>
<polygon fill="#fcfcda" stroke="black" points="162.5,-93 162.5,-327 449.5,-327 449.5,-93 162.5,-93"/>
<text text-anchor="middle" x="306" y="-315.8" font-family="Arial" font-size="8.00">Input</text>
<polyline fill="none" stroke="black" points="162.5,-309 449.5,-309 "/>
<text text-anchor="start" x="170.5" y="-297.8" font-family="Arial" font-size="8.00">&#45; PreviousClickMouseState : MouseState static</text>
<text text-anchor="start" x="170.5" y="-287.8" font-family="Arial" font-size="8.00">&#45; LeftButtonClickTimer : double static</text>
<text text-anchor="start" x="170.5" y="-277.8" font-family="Arial" font-size="8.00">&#45; RightButtonClickTimer : double static</text>
<text text-anchor="start" x="170.5" y="-267.8" font-family="Arial" font-size="8.00">+ GrabMouseMovement : bool</text>
<text text-anchor="start" x="170.5" y="-257.8" font-family="Arial" font-size="8.00">+ LeftButton : ClickState static</text>
<text text-anchor="start" x="170.5" y="-247.8" font-family="Arial" font-size="8.00">+ RightButton : ClickState static</text>
<text text-anchor="start" x="170.5" y="-237.8" font-family="Arial" font-size="8.00">+ PreviousKeyboardState : KeyboardState static</text>
<text text-anchor="start" x="170.5" y="-227.8" font-family="Arial" font-size="8.00">+ MouseState : MouseState static</text>
<text text-anchor="start" x="170.5" y="-217.8" font-family="Arial" font-size="8.00">+ PreviousMouseState : MouseState static</text>
<text text-anchor="start" x="170.5" y="-207.8" font-family="Arial" font-size="8.00"># FullscreenToggled : bool static</text>
<text text-anchor="start" x="170.5" y="-197.8" font-family="Arial" font-size="8.00">+ CurrentInputAction : InputAction</text>
<text text-anchor="start" x="170.5" y="-187.8" font-family="Arial" font-size="8.00">+ ValidKeys : List&lt;Keys&gt;</text>
<text text-anchor="start" x="170.5" y="-177.8" font-family="Arial" font-size="8.00">+ WASDMode : WASDMode</text>
<text text-anchor="start" x="170.5" y="-167.8" font-family="Arial" font-size="8.00">+ IsKeyEventEnabled : bool</text>
<text text-anchor="start" x="170.5" y="-157.8" font-family="Arial" font-size="8.00">+ KeyboardState : KeyboardState static</text>
<polyline fill="none" stroke="black" points="162.5,-151 449.5,-151 "/>
<text text-anchor="start" x="170.5" y="-139.8" font-family="Arial" font-size="8.00"># UpdateMouse (GameTime gameTime) virtual</text>
<text text-anchor="start" x="170.5" y="-129.8" font-family="Arial" font-size="8.00">+ Update (GameTime gameTime)</text>
<text text-anchor="start" x="170.5" y="-119.8" font-family="Arial" font-size="8.00">+ OnKeyEvent (List&lt;Keys&gt; key, KeyEvent keyEvent, GameTime gameTime)</text>
<text text-anchor="start" x="170.5" y="-109.8" font-family="Arial" font-size="8.00"># UpdateKeys (GameTime gameTime) virtual</text>
<text text-anchor="start" x="170.5" y="-99.8" font-family="Arial" font-size="8.00">+ Input (GameState state)</text>
</g>
<!-- Box_MenuScreenInput -->
<g id="node4" class="node"><title>Box_MenuScreenInput</title>
<polygon fill="#fcfcda" stroke="black" points="228.5,-1 228.5,-55 383.5,-55 383.5,-1 228.5,-1"/>
<text text-anchor="middle" x="306" y="-43.8" font-family="Arial" font-size="8.00">MenuScreenInput</text>
<polyline fill="none" stroke="black" points="228.5,-37 383.5,-37 "/>
<text text-anchor="middle" x="306" y="-25.8" font-family="Arial" font-size="8.00"> </text>
<polyline fill="none" stroke="black" points="228.5,-19 383.5,-19 "/>
<text text-anchor="start" x="236.5" y="-7.8" font-family="Arial" font-size="8.00">+ MenuScreenInput (GameState state)</text>
</g>
<!-- Box_Input&#45;&gt;Box_MenuScreenInput -->
<g id="edge10" class="edge"><title>Box_Input&#45;&gt;Box_MenuScreenInput</title>
<path fill="none" stroke="midnightblue" d="M306,-82.6713C306,-72.6201 306,-63.2764 306,-55.2588"/>
<polygon fill="none" stroke="midnightblue" points="302.5,-82.9353 306,-92.9354 309.5,-82.9354 302.5,-82.9353"/>
</g>
<!-- Box_IKeyEventListener -->
<g id="node2" class="node"><title>Box_IKeyEventListener</title>
<polygon fill="#dafcda" stroke="black" points="-0.5,-365 -0.5,-439 286.5,-439 286.5,-365 -0.5,-365"/>
<text text-anchor="middle" x="143" y="-427.8" font-family="Arial" font-size="8.00">IKeyEventListener</text>
<polyline fill="none" stroke="black" points="-0.5,-421 286.5,-421 "/>
<text text-anchor="start" x="7.5" y="-409.8" font-family="Arial" font-size="8.00">+ ValidKeys : List&lt;Keys&gt;</text>
<text text-anchor="start" x="7.5" y="-399.8" font-family="Arial" font-size="8.00">+ Index : DisplayLayer</text>
<text text-anchor="start" x="7.5" y="-389.8" font-family="Arial" font-size="8.00">+ IsKeyEventEnabled : bool</text>
<polyline fill="none" stroke="black" points="-0.5,-383 286.5,-383 "/>
<text text-anchor="start" x="7.5" y="-371.8" font-family="Arial" font-size="8.00">+ OnKeyEvent (List&lt;Keys&gt; key, KeyEvent keyEvent, GameTime gameTime)</text>
</g>
<!-- Box_IKeyEventListener&#45;&gt;Box_Input -->
<g id="edge4" class="edge"><title>Box_IKeyEventListener&#45;&gt;Box_Input</title>
<path fill="none" stroke="midnightblue" d="M181.123,-357.095C188.976,-347.844 197.587,-337.701 206.501,-327.201"/>
<polygon fill="none" stroke="midnightblue" points="178.232,-355.092 174.428,-364.98 183.568,-359.622 178.232,-355.092"/>
</g>
<!-- Box_GameStateComponent -->
<g id="node3" class="node"><title>Box_GameStateComponent</title>
<polygon fill="#fcfcda" stroke="black" points="304,-365 304,-439 636,-439 636,-365 304,-365"/>
<text text-anchor="middle" x="470" y="-427.8" font-family="Arial" font-size="8.00">GameStateComponent</text>
<polyline fill="none" stroke="black" points="304,-421 636,-421 "/>
<text text-anchor="start" x="312" y="-409.8" font-family="Arial" font-size="8.00">+ Index : DisplayLayer</text>
<text text-anchor="start" x="312" y="-399.8" font-family="Arial" font-size="8.00">+ state : GameState</text>
<polyline fill="none" stroke="black" points="304,-393 636,-393 "/>
<text text-anchor="start" x="312" y="-381.8" font-family="Arial" font-size="8.00">+ GameStateComponent (GameState state, DisplayLayer index)</text>
<text text-anchor="start" x="312" y="-371.8" font-family="Arial" font-size="8.00">+ SubComponents (GameTime gameTime) : IEnumerable&lt;IGameStateComponent&gt; virtual</text>
</g>
<!-- Box_GameStateComponent&#45;&gt;Box_Input -->
<g id="edge2" class="edge"><title>Box_GameStateComponent&#45;&gt;Box_Input</title>
<path fill="none" stroke="midnightblue" d="M431.883,-357.375C423.917,-348.049 415.168,-337.807 406.109,-327.201"/>
<polygon fill="none" stroke="midnightblue" points="429.223,-359.65 438.379,-364.98 434.546,-355.103 429.223,-359.65"/>
</g>
<!-- Box_XnaGameComponent -->
<g id="node5" class="node"><title>Box_XnaGameComponent</title>
<polygon fill="#ffffff" stroke="black" points="365.5,-477 365.5,-495 460.5,-495 460.5,-477 365.5,-477"/>
<text text-anchor="middle" x="413" y="-483.8" font-family="Arial" font-size="8.00">Xna.GameComponent</text>
</g>
<!-- Box_XnaGameComponent&#45;&gt;Box_GameStateComponent -->
<g id="edge6" class="edge"><title>Box_XnaGameComponent&#45;&gt;Box_GameStateComponent</title>
<path fill="none" stroke="midnightblue" d="M424.96,-468.375C430.731,-459.87 437.887,-449.325 444.782,-439.163"/>
<polygon fill="none" stroke="midnightblue" points="422.037,-466.45 419.318,-476.69 427.829,-470.38 422.037,-466.45"/>
</g>
<!-- Box_IGameStateComponent -->
<g id="node6" class="node"><title>Box_IGameStateComponent</title>
<polygon fill="#ffffff" stroke="black" points="478,-477 478,-495 576,-495 576,-477 478,-477"/>
<text text-anchor="middle" x="527" y="-483.8" font-family="Arial" font-size="8.00">IGameStateComponent</text>
</g>
<!-- Box_IGameStateComponent&#45;&gt;Box_GameStateComponent -->
<g id="edge8" class="edge"><title>Box_IGameStateComponent&#45;&gt;Box_GameStateComponent</title>
<path fill="none" stroke="midnightblue" d="M515.04,-468.375C509.269,-459.87 502.113,-449.325 495.218,-439.163"/>
<polygon fill="none" stroke="midnightblue" points="512.171,-470.38 520.682,-476.69 517.963,-466.45 512.171,-470.38"/>
</g>
</g>
</svg>
