<?xml version="1.0" encoding="UTF-8" standalone="no"?>
<!DOCTYPE svg PUBLIC "-//W3C//DTD SVG 1.1//EN"
 "http://www.w3.org/Graphics/SVG/1.1/DTD/svg11.dtd">
<!-- Generated by graphviz version 2.26.3 (20100126.1600)
 -->
<!-- Title: MenuItem Pages: 1 -->
<svg width="1117pt" height="1650pt"
 viewBox="0.00 0.00 268.00 396.00" xmlns="http://www.w3.org/2000/svg" xmlns:xlink="http://www.w3.org/1999/xlink">
<g id="graph1" class="graph" transform="scale(4.16667 4.16667) rotate(0) translate(4 392)">
<title>MenuItem</title>
<polygon fill="white" stroke="white" points="-4,5 -4,-392 265,-392 265,5 -4,5"/>
<!-- Box_TexturedRectangle -->
<g id="node1" class="node"><title>Box_TexturedRectangle</title>
<polygon fill="#fcfcda" stroke="black" points="0,-1 0,-255 260,-255 260,-1 0,-1"/>
<text text-anchor="middle" x="130" y="-243.8" font-family="Arial" font-size="8.00">TexturedRectangle</text>
<polyline fill="none" stroke="black" points="0,-237 260,-237 "/>
<text text-anchor="start" x="8" y="-225.8" font-family="Arial" font-size="8.00">&#45; IGameObject.Info : GameObjectInfo</text>
<text text-anchor="start" x="8" y="-215.8" font-family="Arial" font-size="8.00">&#45; basicEffect : BasicEffect</text>
<text text-anchor="start" x="8" y="-205.8" font-family="Arial" font-size="8.00">&#45; texture : Texture2D</text>
<text text-anchor="start" x="8" y="-195.8" font-family="Arial" font-size="8.00">&#45; LowerLeft : Vector3</text>
<text text-anchor="start" x="8" y="-185.8" font-family="Arial" font-size="8.00">&#45; LowerRight : Vector3</text>
<text text-anchor="start" x="8" y="-175.8" font-family="Arial" font-size="8.00">&#45; Normal : Vector3</text>
<text text-anchor="start" x="8" y="-165.8" font-family="Arial" font-size="8.00">&#45; UpperRight : Vector3</text>
<text text-anchor="start" x="8" y="-155.8" font-family="Arial" font-size="8.00">&#45; Vertices : VertexPositionNormalTexture[]</text>
<text text-anchor="start" x="8" y="-145.8" font-family="Arial" font-size="8.00">&#45; Indexes : short[]</text>
<text text-anchor="start" x="8" y="-135.8" font-family="Arial" font-size="8.00">+ Info : TexturedRectangleInfo</text>
<text text-anchor="start" x="8" y="-125.8" font-family="Arial" font-size="8.00">&#45; UpperLeft : Vector3</text>
<text text-anchor="start" x="8" y="-115.8" font-family="Arial" font-size="8.00"># state : GameState</text>
<text text-anchor="start" x="8" y="-105.8" font-family="Arial" font-size="8.00">+ World : World</text>
<polyline fill="none" stroke="black" points="0,-99 260,-99 "/>
<text text-anchor="start" x="8" y="-87.8" font-family="Arial" font-size="8.00">&#45; Length () : Vector3</text>
<text text-anchor="start" x="8" y="-77.8" font-family="Arial" font-size="8.00">&#45; FillVertices ()</text>
<text text-anchor="start" x="8" y="-67.8" font-family="Arial" font-size="8.00">+ Intersects (Ray ray) : GameObjectDistance</text>
<text text-anchor="start" x="8" y="-57.8" font-family="Arial" font-size="8.00">+ TexturedRectangle (GameState state, TexturedRectangleInfo info)</text>
<text text-anchor="start" x="8" y="-47.8" font-family="Arial" font-size="8.00">+ Draw (GameTime gameTime)</text>
<text text-anchor="start" x="8" y="-37.8" font-family="Arial" font-size="8.00"># SetPosition (Vector3 position)</text>
<text text-anchor="start" x="8" y="-27.8" font-family="Arial" font-size="8.00">+ Bounds () : BoundingBox[]</text>
<text text-anchor="start" x="8" y="-17.8" font-family="Arial" font-size="8.00">+ Center () : Vector3</text>
<text text-anchor="start" x="8" y="-7.8" font-family="Arial" font-size="8.00">+ Update (GameTime gameTime)</text>
</g>
<!-- Box_IGameObject -->
<g id="node2" class="node"><title>Box_IGameObject</title>
<polygon fill="#dafcda" stroke="black" points="40.5,-293 40.5,-387 219.5,-387 219.5,-293 40.5,-293"/>
<text text-anchor="middle" x="130" y="-375.8" font-family="Arial" font-size="8.00">IGameObject</text>
<polyline fill="none" stroke="black" points="40.5,-369 219.5,-369 "/>
<text text-anchor="start" x="48.5" y="-357.8" font-family="Arial" font-size="8.00">+ Info : GameObjectInfo</text>
<text text-anchor="start" x="48.5" y="-347.8" font-family="Arial" font-size="8.00">+ World : World</text>
<polyline fill="none" stroke="black" points="40.5,-341 219.5,-341 "/>
<text text-anchor="start" x="48.5" y="-329.8" font-family="Arial" font-size="8.00">+ Draw (GameTime gameTime)</text>
<text text-anchor="start" x="48.5" y="-319.8" font-family="Arial" font-size="8.00">+ Update (GameTime gameTime)</text>
<text text-anchor="start" x="48.5" y="-309.8" font-family="Arial" font-size="8.00">+ Intersects (Ray ray) : GameObjectDistance</text>
<text text-anchor="start" x="48.5" y="-299.8" font-family="Arial" font-size="8.00">+ Center () : Vector3</text>
</g>
<!-- Box_IGameObject&#45;&gt;Box_TexturedRectangle -->
<g id="edge2" class="edge"><title>Box_IGameObject&#45;&gt;Box_TexturedRectangle</title>
<path fill="none" stroke="midnightblue" d="M130,-282.69C130,-274.035 130,-264.828 130,-255.384"/>
<polygon fill="none" stroke="midnightblue" points="126.5,-282.95 130,-292.95 133.5,-282.95 126.5,-282.95"/>
</g>
</g>
</svg>
