<?xml version="1.0" encoding="UTF-8" standalone="no"?>
<!DOCTYPE svg PUBLIC "-//W3C//DTD SVG 1.1//EN"
 "http://www.w3.org/Graphics/SVG/1.1/DTD/svg11.dtd">
<!-- Generated by graphviz version 2.26.3 (20100126.1600)
 -->
<!-- Title: MenuItem Pages: 1 -->
<svg width="463pt" height="554pt"
 viewBox="0.00 0.00 463.00 554.00" xmlns="http://www.w3.org/2000/svg" xmlns:xlink="http://www.w3.org/1999/xlink">
<g id="graph1" class="graph" transform="scale(1 1) rotate(0) translate(4 550)">
<title>MenuItem</title>
<polygon fill="white" stroke="white" points="-4,5 -4,-550 460,-550 460,5 -4,5"/>
<!-- Box_IEdgeChangeListener -->
<g id="node1" class="node"><title>Box_IEdgeChangeListener</title>
<polygon fill="#dafcda" stroke="black" points="0,-473 0,-545 152,-545 152,-473 0,-473"/>
<text text-anchor="middle" x="76" y="-533.8" font-family="Helvetica,sans-Serif" font-size="8.00">IEdgeChangeListener</text>
<polyline fill="none" stroke="black" points="0,-525 152,-525 "/>
<text text-anchor="start" x="8" y="-513.8" font-family="Helvetica,sans-Serif" font-size="8.00">Attributes:</text>
<text text-anchor="start" x="8" y="-501.8" font-family="Helvetica,sans-Serif" font-size="8.00">Methods:</text>
<polyline fill="none" stroke="black" points="0,-493 152,-493 "/>
<text text-anchor="start" x="8" y="-481.8" font-family="Helvetica,sans-Serif" font-size="8.00">+ OnEdgesChanged (EdgeList edges)</text>
</g>
<!-- Box_KnotRenderer -->
<g id="node2" class="node"><title>Box_KnotRenderer</title>
<polygon fill="#fcfcda" stroke="black" points="35,-267 35,-435 241,-435 241,-267 35,-267"/>
<text text-anchor="middle" x="138" y="-423.8" font-family="Helvetica,sans-Serif" font-size="8.00">KnotRenderer</text>
<polyline fill="none" stroke="black" points="35,-415 241,-415 "/>
<text text-anchor="start" x="43" y="-403.8" font-family="Helvetica,sans-Serif" font-size="8.00">Attributes:</text>
<text text-anchor="start" x="43" y="-391.8" font-family="Helvetica,sans-Serif" font-size="8.00">+ World : World abstract</text>
<text text-anchor="start" x="43" y="-379.8" font-family="Helvetica,sans-Serif" font-size="8.00"># state : GameState</text>
<text text-anchor="start" x="43" y="-367.8" font-family="Helvetica,sans-Serif" font-size="8.00">+ Info : dynamic abstract</text>
<text text-anchor="start" x="43" y="-355.8" font-family="Helvetica,sans-Serif" font-size="8.00">Methods:</text>
<polyline fill="none" stroke="black" points="35,-347 241,-347 "/>
<text text-anchor="start" x="43" y="-335.8" font-family="Helvetica,sans-Serif" font-size="8.00">+ Intersects (Ray ray) : GameObjectDistance abstract</text>
<text text-anchor="start" x="43" y="-323.8" font-family="Helvetica,sans-Serif" font-size="8.00">+ Center () : Vector3 abstract</text>
<text text-anchor="start" x="43" y="-311.8" font-family="Helvetica,sans-Serif" font-size="8.00">+ Draw (GameTime gameTime) abstract</text>
<text text-anchor="start" x="43" y="-299.8" font-family="Helvetica,sans-Serif" font-size="8.00">+ Update (GameTime gameTime) abstract</text>
<text text-anchor="start" x="43" y="-287.8" font-family="Helvetica,sans-Serif" font-size="8.00">+ KnotRenderer (GameState state)</text>
<text text-anchor="start" x="43" y="-275.8" font-family="Helvetica,sans-Serif" font-size="8.00">+ OnEdgesChanged (EdgeList edges) abstract</text>
</g>
<!-- Box_IEdgeChangeListener&#45;&gt;Box_KnotRenderer -->
<g id="edge2" class="edge"><title>Box_IEdgeChangeListener&#45;&gt;Box_KnotRenderer</title>
<path fill="none" stroke="midnightblue" d="M87.8326,-463.06C90.9961,-454.193 94.5602,-444.649 98.2982,-435.005"/>
<polygon fill="none" stroke="midnightblue" points="84.4406,-462.157 84.4431,-472.752 91.0482,-464.468 84.4406,-462.157"/>
</g>
<!-- Box_IEdgeChangeListener&#45;&gt;Box_KnotRenderer -->
<g id="edge18" class="edge"><title>Box_IEdgeChangeListener&#45;&gt;Box_KnotRenderer</title>
<path fill="none" stroke="midnightblue" d="M100.099,-463.346C103.932,-454.399 107.902,-444.753 111.774,-435.005"/>
<polygon fill="none" stroke="midnightblue" points="96.7871,-462.186 96.005,-472.752 103.205,-464.98 96.7871,-462.186"/>
</g>
<!-- Box_LineRenderer -->
<g id="node3" class="node"><title>Box_LineRenderer</title>
<polygon fill="#fcfcda" stroke="black" points="1,-19 1,-211 219,-211 219,-19 1,-19"/>
<text text-anchor="middle" x="110" y="-199.8" font-family="Helvetica,sans-Serif" font-size="8.00">LineRenderer</text>
<polyline fill="none" stroke="black" points="1,-191 219,-191 "/>
<text text-anchor="start" x="9" y="-179.8" font-family="Helvetica,sans-Serif" font-size="8.00">Attributes:</text>
<text text-anchor="start" x="9" y="-167.8" font-family="Helvetica,sans-Serif" font-size="8.00">&#45; edges : EdgeList</text>
<text text-anchor="start" x="9" y="-155.8" font-family="Helvetica,sans-Serif" font-size="8.00">&#45; basicEffect : BasicEffect</text>
<text text-anchor="start" x="9" y="-143.8" font-family="Helvetica,sans-Serif" font-size="8.00">+ World : World</text>
<text text-anchor="start" x="9" y="-131.8" font-family="Helvetica,sans-Serif" font-size="8.00">+ Info : dynamic</text>
<text text-anchor="start" x="9" y="-119.8" font-family="Helvetica,sans-Serif" font-size="8.00">Methods:</text>
<polyline fill="none" stroke="black" points="1,-111 219,-111 "/>
<text text-anchor="start" x="9" y="-99.8" font-family="Helvetica,sans-Serif" font-size="8.00">+ LineRenderer (GameState state, GameObjectInfo info)</text>
<text text-anchor="start" x="9" y="-87.8" font-family="Helvetica,sans-Serif" font-size="8.00">+ OnEdgesChanged (EdgeList edges)</text>
<text text-anchor="start" x="9" y="-75.8" font-family="Helvetica,sans-Serif" font-size="8.00">&#45; DrawRoundedLines ()</text>
<text text-anchor="start" x="9" y="-63.8" font-family="Helvetica,sans-Serif" font-size="8.00">+ Intersects (Ray ray) : GameObjectDistance</text>
<text text-anchor="start" x="9" y="-51.8" font-family="Helvetica,sans-Serif" font-size="8.00">+ Center () : Vector3</text>
<text text-anchor="start" x="9" y="-39.8" font-family="Helvetica,sans-Serif" font-size="8.00">+ Draw (GameTime gameTime)</text>
<text text-anchor="start" x="9" y="-27.8" font-family="Helvetica,sans-Serif" font-size="8.00">+ Update (GameTime gameTime)</text>
</g>
<!-- Box_KnotRenderer&#45;&gt;Box_LineRenderer -->
<g id="edge22" class="edge"><title>Box_KnotRenderer&#45;&gt;Box_LineRenderer</title>
<path fill="none" stroke="midnightblue" d="M106.909,-256.563C104.673,-241.64 102.822,-226.193 101.477,-211.23"/>
<polygon fill="none" stroke="midnightblue" points="103.507,-257.463 108.517,-266.798 110.422,-256.376 103.507,-257.463"/>
</g>
<!-- Box_KnotRenderer&#45;&gt;Box_LineRenderer -->
<g id="edge28" class="edge"><title>Box_KnotRenderer&#45;&gt;Box_LineRenderer</title>
<path fill="none" stroke="midnightblue" d="M146.682,-256.563C145.378,-241.64 143.563,-226.193 141.358,-211.23"/>
<polygon fill="none" stroke="midnightblue" points="143.215,-257.11 147.503,-266.798 150.193,-256.55 143.215,-257.11"/>
</g>
<!-- Box_KnotRenderer&#45;&gt;Box_LineRenderer -->
<g id="edge6" class="edge"><title>Box_KnotRenderer&#45;&gt;Box_LineRenderer</title>
<path fill="none" stroke="midnightblue" d="M120.167,-256.563C118.241,-241.64 116.402,-226.193 114.77,-211.23"/>
<polygon fill="none" stroke="midnightblue" points="116.739,-257.34 121.512,-266.798 123.679,-256.427 116.739,-257.34"/>
</g>
<!-- Box_KnotRenderer&#45;&gt;Box_LineRenderer -->
<g id="edge12" class="edge"><title>Box_KnotRenderer&#45;&gt;Box_LineRenderer</title>
<path fill="none" stroke="midnightblue" d="M133.425,-256.563C131.809,-241.64 129.982,-226.193 128.064,-211.23"/>
<polygon fill="none" stroke="midnightblue" points="129.975,-257.222 134.508,-266.798 136.936,-256.485 129.975,-257.222"/>
</g>
<!-- Box_PipeRenderer -->
<g id="node4" class="node"><title>Box_PipeRenderer</title>
<polygon fill="#fcfcda" stroke="black" points="236.5,-1 236.5,-229 455.5,-229 455.5,-1 236.5,-1"/>
<text text-anchor="middle" x="346" y="-217.8" font-family="Helvetica,sans-Serif" font-size="8.00">PipeRenderer</text>
<polyline fill="none" stroke="black" points="236.5,-209 455.5,-209 "/>
<text text-anchor="start" x="244.5" y="-197.8" font-family="Helvetica,sans-Serif" font-size="8.00">Attributes:</text>
<text text-anchor="start" x="244.5" y="-185.8" font-family="Helvetica,sans-Serif" font-size="8.00">&#45; knots : List&lt;NodeModel&gt;</text>
<text text-anchor="start" x="244.5" y="-173.8" font-family="Helvetica,sans-Serif" font-size="8.00">&#45; knotFactory : NodeModelFactory</text>
<text text-anchor="start" x="244.5" y="-161.8" font-family="Helvetica,sans-Serif" font-size="8.00">&#45; pipeFactory : PipeModelFactory</text>
<text text-anchor="start" x="244.5" y="-149.8" font-family="Helvetica,sans-Serif" font-size="8.00">&#45; pipes : List&lt;PipeModel&gt;</text>
<text text-anchor="start" x="244.5" y="-137.8" font-family="Helvetica,sans-Serif" font-size="8.00">+ World : World</text>
<text text-anchor="start" x="244.5" y="-125.8" font-family="Helvetica,sans-Serif" font-size="8.00">+ Info : dynamic</text>
<text text-anchor="start" x="244.5" y="-113.8" font-family="Helvetica,sans-Serif" font-size="8.00">Methods:</text>
<polyline fill="none" stroke="black" points="236.5,-105 455.5,-105 "/>
<text text-anchor="start" x="244.5" y="-93.8" font-family="Helvetica,sans-Serif" font-size="8.00">&#45; IEnumerable.GetEnumerator () : IEnumerator</text>
<text text-anchor="start" x="244.5" y="-81.8" font-family="Helvetica,sans-Serif" font-size="8.00">+ GetEnumerator () : IEnumerator&lt;IGameObject&gt;</text>
<text text-anchor="start" x="244.5" y="-69.8" font-family="Helvetica,sans-Serif" font-size="8.00">+ PipeRenderer (GameState state, GameObjectInfo info)</text>
<text text-anchor="start" x="244.5" y="-57.8" font-family="Helvetica,sans-Serif" font-size="8.00">+ Intersects (Ray ray) : GameObjectDistance</text>
<text text-anchor="start" x="244.5" y="-45.8" font-family="Helvetica,sans-Serif" font-size="8.00">+ Draw (GameTime gameTime)</text>
<text text-anchor="start" x="244.5" y="-33.8" font-family="Helvetica,sans-Serif" font-size="8.00">+ OnEdgesChanged (EdgeList edges)</text>
<text text-anchor="start" x="244.5" y="-21.8" font-family="Helvetica,sans-Serif" font-size="8.00">+ Update (GameTime gameTime)</text>
<text text-anchor="start" x="244.5" y="-9.8" font-family="Helvetica,sans-Serif" font-size="8.00">+ Center () : Vector3</text>
</g>
<!-- Box_KnotRenderer&#45;&gt;Box_PipeRenderer -->
<g id="edge24" class="edge"><title>Box_KnotRenderer&#45;&gt;Box_PipeRenderer</title>
<path fill="none" stroke="midnightblue" d="M199.191,-259.102C211.007,-245.146 223.669,-230.676 236.443,-216.529"/>
<polygon fill="none" stroke="midnightblue" points="196.477,-256.892 192.719,-266.798 201.834,-261.398 196.477,-256.892"/>
</g>
<!-- Box_KnotRenderer&#45;&gt;Box_PipeRenderer -->
<g id="edge30" class="edge"><title>Box_KnotRenderer&#45;&gt;Box_PipeRenderer</title>
<path fill="none" stroke="midnightblue" d="M238.601,-259.317C247.633,-249.461 256.695,-239.348 265.528,-229.271"/>
<polygon fill="none" stroke="midnightblue" points="235.909,-257.073 231.705,-266.798 241.056,-261.818 235.909,-257.073"/>
</g>
<!-- Box_KnotRenderer&#45;&gt;Box_PipeRenderer -->
<g id="edge8" class="edge"><title>Box_KnotRenderer&#45;&gt;Box_PipeRenderer</title>
<path fill="none" stroke="midnightblue" d="M212.459,-259.027C220.952,-249.263 229.729,-239.249 238.54,-229.271"/>
<polygon fill="none" stroke="midnightblue" points="209.626,-256.952 205.714,-266.798 214.912,-261.54 209.626,-256.952"/>
</g>
<!-- Box_KnotRenderer&#45;&gt;Box_PipeRenderer -->
<g id="edge14" class="edge"><title>Box_KnotRenderer&#45;&gt;Box_PipeRenderer</title>
<path fill="none" stroke="midnightblue" d="M225.404,-259.317C234.205,-249.461 243.168,-239.348 252.034,-229.271"/>
<polygon fill="none" stroke="midnightblue" points="222.77,-257.012 218.709,-266.798 227.986,-261.68 222.77,-257.012"/>
</g>
<!-- Box_IGameObject -->
<g id="node5" class="node"><title>Box_IGameObject</title>
<polygon fill="#ffffff" stroke="black" points="169.5,-499 169.5,-519 232.5,-519 232.5,-499 169.5,-499"/>
<text text-anchor="middle" x="201" y="-507.8" font-family="Helvetica,sans-Serif" font-size="8.00">IGameObject</text>
</g>
<!-- Box_IGameObject&#45;&gt;Box_KnotRenderer -->
<g id="edge4" class="edge"><title>Box_IGameObject&#45;&gt;Box_KnotRenderer</title>
<path fill="none" stroke="midnightblue" d="M188.64,-489.583C181.759,-475.607 173.112,-455.693 164.879,-435.305"/>
<polygon fill="none" stroke="midnightblue" points="185.613,-491.35 193.307,-498.633 191.834,-488.141 185.613,-491.35"/>
</g>
<!-- Box_IGameObject&#45;&gt;Box_KnotRenderer -->
<g id="edge20" class="edge"><title>Box_IGameObject&#45;&gt;Box_KnotRenderer</title>
<path fill="none" stroke="midnightblue" d="M197.624,-488.763C193.33,-474.833 186.221,-455.297 178.352,-435.305"/>
<polygon fill="none" stroke="midnightblue" points="194.328,-489.969 200.426,-498.633 201.062,-488.057 194.328,-489.969"/>
</g>
<!-- Box_IEnumerable -->
<g id="node6" class="node"><title>Box_IEnumerable</title>
<polygon fill="#ffffff" stroke="black" points="287,-341 287,-361 405,-361 405,-341 287,-341"/>
<text text-anchor="middle" x="346" y="-349.8" font-family="Helvetica,sans-Serif" font-size="8.00">IEnumerable&lt;IGameObject&gt;</text>
</g>
<!-- Box_IEnumerable&#45;&gt;Box_PipeRenderer -->
<g id="edge26" class="edge"><title>Box_IEnumerable&#45;&gt;Box_PipeRenderer</title>
<path fill="none" stroke="midnightblue" d="M334.159,-331.27C328.357,-308.263 325.558,-268.349 325.76,-229.025"/>
<polygon fill="none" stroke="midnightblue" points="330.829,-332.35 337.141,-340.859 337.513,-330.271 330.829,-332.35"/>
</g>
<!-- Box_IEnumerable&#45;&gt;Box_PipeRenderer -->
<g id="edge32" class="edge"><title>Box_IEnumerable&#45;&gt;Box_PipeRenderer</title>
<path fill="none" stroke="midnightblue" d="M357.841,-331.27C363.643,-308.263 366.442,-268.349 366.24,-229.025"/>
<polygon fill="none" stroke="midnightblue" points="354.487,-330.271 354.859,-340.859 361.171,-332.35 354.487,-330.271"/>
</g>
<!-- Box_IEnumerable&#45;&gt;Box_PipeRenderer -->
<g id="edge10" class="edge"><title>Box_IEnumerable&#45;&gt;Box_PipeRenderer</title>
<path fill="none" stroke="midnightblue" d="M342.001,-330.641C340.102,-307.541 339.187,-267.994 339.253,-229.025"/>
<polygon fill="none" stroke="midnightblue" points="338.546,-331.268 343.047,-340.859 345.51,-330.555 338.546,-331.268"/>
</g>
<!-- Box_IEnumerable&#45;&gt;Box_PipeRenderer -->
<g id="edge16" class="edge"><title>Box_IEnumerable&#45;&gt;Box_PipeRenderer</title>
<path fill="none" stroke="midnightblue" d="M349.999,-330.641C351.898,-307.541 352.813,-267.994 352.747,-229.025"/>
<polygon fill="none" stroke="midnightblue" points="346.49,-330.555 348.953,-340.859 353.454,-331.268 346.49,-330.555"/>
</g>
</g>
</svg>
