<?xml version="1.0" encoding="UTF-8" standalone="no"?>
<!DOCTYPE svg PUBLIC "-//W3C//DTD SVG 1.1//EN"
 "http://www.w3.org/Graphics/SVG/1.1/DTD/svg11.dtd">
<!-- Generated by graphviz version 2.26.3 (20100126.1600)
 -->
<!-- Title: MenuItem Pages: 1 -->
<svg width="336pt" height="416pt"
 viewBox="0.00 0.00 336.00 416.00" xmlns="http://www.w3.org/2000/svg" xmlns:xlink="http://www.w3.org/1999/xlink">
<g id="graph1" class="graph" transform="scale(1 1) rotate(0) translate(4 412)">
<title>MenuItem</title>
<polygon fill="white" stroke="white" points="-4,5 -4,-412 333,-412 333,5 -4,5"/>
<!-- Box_PipeMovement -->
<g id="node1" class="node"><title>Box_PipeMovement</title>
<polygon fill="#fcfcda" stroke="black" points="14,-1 14,-275 328,-275 328,-1 14,-1"/>
<text text-anchor="middle" x="171" y="-263.8" font-family="Arial" font-size="8.00">PipeMovement</text>
<polyline fill="none" stroke="black" points="14,-257 328,-257 "/>
<text text-anchor="start" x="22" y="-245.8" font-family="Arial" font-size="8.00">&#45; shadowObjects : List&lt;ShadowGameObject&gt;</text>
<text text-anchor="start" x="22" y="-235.8" font-family="Arial" font-size="8.00">+ World : World</text>
<text text-anchor="start" x="22" y="-225.8" font-family="Arial" font-size="8.00">&#45; screen : GameScreen</text>
<text text-anchor="start" x="22" y="-215.8" font-family="Arial" font-size="8.00">&#45; previousMousePosition : Vector3</text>
<text text-anchor="start" x="22" y="-205.8" font-family="Arial" font-size="8.00">+ Info : GameObjectInfo</text>
<text text-anchor="start" x="22" y="-195.8" font-family="Arial" font-size="8.00">+ Knot : Knot</text>
<polyline fill="none" stroke="black" points="14,-189 328,-189 "/>
<text text-anchor="start" x="22" y="-177.8" font-family="Arial" font-size="8.00">&#45; knownEdgeLists () : HashSet&lt;EdgeList&gt;</text>
<text text-anchor="start" x="22" y="-167.8" font-family="Arial" font-size="8.00">&#45; IEnumerable.GetEnumerator () : IEnumerator</text>
<text text-anchor="start" x="22" y="-157.8" font-family="Arial" font-size="8.00">&#45; MovePipes (Vector3 currentMousePosition)</text>
<text text-anchor="start" x="22" y="-147.8" font-family="Arial" font-size="8.00">&#45; MoveShadowPipes (Vector3 currentMousePosition)</text>
<text text-anchor="start" x="22" y="-137.8" font-family="Arial" font-size="8.00">+ Intersects (Ray ray) : GameObjectDistance</text>
<text text-anchor="start" x="22" y="-127.8" font-family="Arial" font-size="8.00">+ GetEnumerator () : IEnumerator&lt;IGameObject&gt;</text>
<text text-anchor="start" x="22" y="-117.8" font-family="Arial" font-size="8.00">+ PipeMovement (GameScreen screen, World world, GameObjectInfo info)</text>
<text text-anchor="start" x="22" y="-107.8" font-family="Arial" font-size="8.00">+ Draw (GameTime gameTime)</text>
<text text-anchor="start" x="22" y="-97.8" font-family="Arial" font-size="8.00">&#45; ComputeDirection (Vector3 currentMousePosition, out Vector3 direction, out float</text>
<text text-anchor="start" x="22" y="-87.8" font-family="Arial" font-size="8.00">count)</text>
<text text-anchor="start" x="22" y="-77.8" font-family="Arial" font-size="8.00">&#45; ComputeDirection (Vector3 currentMousePosition, out Vector3 direction, out int</text>
<text text-anchor="start" x="22" y="-67.8" font-family="Arial" font-size="8.00">countInt)</text>
<text text-anchor="start" x="22" y="-57.8" font-family="Arial" font-size="8.00">&#45; CreateShadowPipes ()</text>
<text text-anchor="start" x="22" y="-47.8" font-family="Arial" font-size="8.00">&#45; MoveShadowPipes (Vector3 currentMousePosition, Vector3 direction3D)</text>
<text text-anchor="start" x="22" y="-37.8" font-family="Arial" font-size="8.00">&#45; TryMovePipes (GameTime gameTime)</text>
<text text-anchor="start" x="22" y="-27.8" font-family="Arial" font-size="8.00">&#45; TrySelectObject (GameTime gameTime)</text>
<text text-anchor="start" x="22" y="-17.8" font-family="Arial" font-size="8.00">+ Center () : Vector3</text>
<text text-anchor="start" x="22" y="-7.8" font-family="Arial" font-size="8.00">+ Update (GameTime gameTime)</text>
</g>
<!-- Box_IGameObject -->
<g id="node2" class="node"><title>Box_IGameObject</title>
<polygon fill="#dafcda" stroke="black" points="-0.5,-313 -0.5,-407 178.5,-407 178.5,-313 -0.5,-313"/>
<text text-anchor="middle" x="89" y="-395.8" font-family="Arial" font-size="8.00">IGameObject</text>
<polyline fill="none" stroke="black" points="-0.5,-389 178.5,-389 "/>
<text text-anchor="start" x="7.5" y="-377.8" font-family="Arial" font-size="8.00">+ Info : GameObjectInfo</text>
<text text-anchor="start" x="7.5" y="-367.8" font-family="Arial" font-size="8.00">+ World : World</text>
<polyline fill="none" stroke="black" points="-0.5,-361 178.5,-361 "/>
<text text-anchor="start" x="7.5" y="-349.8" font-family="Arial" font-size="8.00">+ Draw (GameTime time)</text>
<text text-anchor="start" x="7.5" y="-339.8" font-family="Arial" font-size="8.00">+ Update (GameTime time)</text>
<text text-anchor="start" x="7.5" y="-329.8" font-family="Arial" font-size="8.00">+ Intersects (Ray ray) : GameObjectDistance</text>
<text text-anchor="start" x="7.5" y="-319.8" font-family="Arial" font-size="8.00">+ Center () : Vector3</text>
</g>
<!-- Box_IGameObject&#45;&gt;Box_PipeMovement -->
<g id="edge2" class="edge"><title>Box_IGameObject&#45;&gt;Box_PipeMovement</title>
<path fill="none" stroke="midnightblue" d="M109.864,-303.515C113.153,-294.609 116.673,-285.08 120.3,-275.26"/>
<polygon fill="none" stroke="midnightblue" points="106.572,-302.326 106.39,-312.92 113.138,-304.752 106.572,-302.326"/>
</g>
<!-- Box_IEnumerable -->
<g id="node3" class="node"><title>Box_IEnumerable</title>
<polygon fill="#ffffff" stroke="black" points="195.5,-351 195.5,-369 310.5,-369 310.5,-351 195.5,-351"/>
<text text-anchor="middle" x="253" y="-357.8" font-family="Arial" font-size="8.00">IEnumerable&lt;IGameObject&gt;</text>
</g>
<!-- Box_IEnumerable&#45;&gt;Box_PipeMovement -->
<g id="edge4" class="edge"><title>Box_IEnumerable&#45;&gt;Box_PipeMovement</title>
<path fill="none" stroke="midnightblue" d="M246.064,-341.221C240.23,-325.426 231.308,-301.273 221.627,-275.064"/>
<polygon fill="none" stroke="midnightblue" points="242.833,-342.576 249.581,-350.744 249.399,-340.15 242.833,-342.576"/>
</g>
</g>
</svg>
