<?xml version="1.0" encoding="UTF-8" standalone="no"?>
<!DOCTYPE svg PUBLIC "-//W3C//DTD SVG 1.1//EN"
 "http://www.w3.org/Graphics/SVG/1.1/DTD/svg11.dtd">
<!-- Generated by graphviz version 2.26.3 (20100126.1600)
 -->
<!-- Title: MenuItem Pages: 1 -->
<svg width="2008pt" height="3283pt"
 viewBox="0.00 0.00 482.00 788.00" xmlns="http://www.w3.org/2000/svg" xmlns:xlink="http://www.w3.org/1999/xlink">
<g id="graph1" class="graph" transform="scale(4.16667 4.16667) rotate(0) translate(4 784)">
<title>MenuItem</title>
<polygon fill="white" stroke="white" points="-4,5 -4,-784 479,-784 479,5 -4,5"/>
<!-- Box_Menu -->
<g id="node1" class="node"><title>Box_Menu</title>
<polygon fill="#fcfcda" stroke="black" points="80,-163 80,-397 474,-397 474,-163 80,-163"/>
<text text-anchor="middle" x="277" y="-385.8" font-family="Arial" font-size="8.00">Menu</text>
<polyline fill="none" stroke="black" points="80,-379 474,-379 "/>
<text text-anchor="start" x="88" y="-367.8" font-family="Arial" font-size="8.00">&#45; isVisible : bool</text>
<text text-anchor="start" x="88" y="-357.8" font-family="Arial" font-size="8.00"># Items : List&lt;MenuItem&gt;</text>
<text text-anchor="start" x="88" y="-347.8" font-family="Arial" font-size="8.00">+ Color&gt; ItemBackgroundColor : Func&lt;ItemState,</text>
<text text-anchor="start" x="88" y="-337.8" font-family="Arial" font-size="8.00">+ Color&gt; ItemForegroundColor : Func&lt;ItemState,</text>
<text text-anchor="start" x="88" y="-327.8" font-family="Arial" font-size="8.00">+ Vector2&gt; RelativeItemPosition : Func&lt;int,</text>
<text text-anchor="start" x="88" y="-317.8" font-family="Arial" font-size="8.00">+ ItemAlignX : HAlign?</text>
<text text-anchor="start" x="88" y="-307.8" font-family="Arial" font-size="8.00">+ ItemAlignY : VAlign?</text>
<text text-anchor="start" x="88" y="-297.8" font-family="Arial" font-size="8.00">+ Count : int</text>
<text text-anchor="start" x="88" y="-287.8" font-family="Arial" font-size="8.00">+ IsVisible : bool</text>
<text text-anchor="start" x="88" y="-277.8" font-family="Arial" font-size="8.00">&#45; ItemDisplayLayer : DisplayLayer</text>
<text text-anchor="start" x="88" y="-267.8" font-family="Arial" font-size="8.00">+ Vector2&gt; RelativeItemSize : Func&lt;int,</text>
<polyline fill="none" stroke="black" points="80,-261 474,-261 "/>
<text text-anchor="start" x="88" y="-249.8" font-family="Arial" font-size="8.00">&#45; assignMenuItemInfo (ref MenuItemInfo info, int num, MenuItem item)</text>
<text text-anchor="start" x="88" y="-239.8" font-family="Arial" font-size="8.00">+ Menu (GameScreen screen, WidgetInfo info, DisplayLayer drawOrder)</text>
<text text-anchor="start" x="88" y="-229.8" font-family="Arial" font-size="8.00">+ this (int i) : MenuItem</text>
<text text-anchor="start" x="88" y="-219.8" font-family="Arial" font-size="8.00">+ SubComponents (GameTime gameTime) : IEnumerable&lt;IGameScreenComponent&gt;</text>
<text text-anchor="start" x="88" y="-209.8" font-family="Arial" font-size="8.00">+ CollapseMenus (MenuItem menu)</text>
<text text-anchor="start" x="88" y="-199.8" font-family="Arial" font-size="8.00">+ AddButton (MenuItemInfo info) : MenuButton virtual</text>
<text text-anchor="start" x="88" y="-189.8" font-family="Arial" font-size="8.00">+ AddDropDown (MenuItemInfo info, DistinctOptionInfo option) virtual</text>
<text text-anchor="start" x="88" y="-179.8" font-family="Arial" font-size="8.00">+ AddDropDown (MenuItemInfo info, DropDownMenuItem[] items, DropDownMenuItem defaultItem) virtual</text>
<text text-anchor="start" x="88" y="-169.8" font-family="Arial" font-size="8.00">+ Clear ()</text>
</g>
<!-- Box_VerticalMenu -->
<g id="node5" class="node"><title>Box_VerticalMenu</title>
<polygon fill="#fcfcda" stroke="black" points="92,-1 92,-125 462,-125 462,-1 92,-1"/>
<text text-anchor="middle" x="277" y="-113.8" font-family="Arial" font-size="8.00">VerticalMenu</text>
<polyline fill="none" stroke="black" points="92,-107 462,-107 "/>
<text text-anchor="start" x="100" y="-95.8" font-family="Arial" font-size="8.00"># spriteBatch : SpriteBatch</text>
<text text-anchor="start" x="100" y="-85.8" font-family="Arial" font-size="8.00">+ Border : Border</text>
<polyline fill="none" stroke="black" points="92,-79 462,-79 "/>
<text text-anchor="start" x="100" y="-67.8" font-family="Arial" font-size="8.00">+ VerticalMenu (GameScreen screen, WidgetInfo info, DisplayLayer drawOrder)</text>
<text text-anchor="start" x="100" y="-57.8" font-family="Arial" font-size="8.00">+ Align (Viewport viewport, float scale, int posX, int posY, int? sizeX)</text>
<text text-anchor="start" x="100" y="-47.8" font-family="Arial" font-size="8.00">+ AddButton (MenuItemInfo info) : MenuButton</text>
<text text-anchor="start" x="100" y="-37.8" font-family="Arial" font-size="8.00">+ AddDropDown (MenuItemInfo info, DistinctOptionInfo option)</text>
<text text-anchor="start" x="100" y="-27.8" font-family="Arial" font-size="8.00">+ AddDropDown (MenuItemInfo info, DropDownMenuItem[] items, DropDownMenuItem defaultItem)</text>
<text text-anchor="start" x="100" y="-17.8" font-family="Arial" font-size="8.00">+ Draw (GameTime gameTime)</text>
<text text-anchor="start" x="100" y="-7.8" font-family="Arial" font-size="8.00">+ Align (Viewport viewport, float scale, Vector2? givenPosition)</text>
</g>
<!-- Box_Menu&#45;&gt;Box_VerticalMenu -->
<g id="edge12" class="edge"><title>Box_Menu&#45;&gt;Box_VerticalMenu</title>
<path fill="none" stroke="midnightblue" d="M277,-152.908C277,-143.351 277,-133.993 277,-125.141"/>
<polygon fill="none" stroke="midnightblue" points="273.5,-152.925 277,-162.925 280.5,-152.925 273.5,-152.925"/>
</g>
<!-- Box_Widget -->
<g id="node2" class="node"><title>Box_Widget</title>
<polygon fill="#fcfcda" stroke="black" points="135,-435 135,-509 419,-509 419,-435 135,-435"/>
<text text-anchor="middle" x="277" y="-497.8" font-family="Arial" font-size="8.00">Widget</text>
<polyline fill="none" stroke="black" points="135,-491 419,-491 "/>
<text text-anchor="start" x="143" y="-479.8" font-family="Arial" font-size="8.00">+ Info : WidgetInfo</text>
<text text-anchor="start" x="143" y="-469.8" font-family="Arial" font-size="8.00">+ IsVisible : bool virtual</text>
<polyline fill="none" stroke="black" points="135,-463 419,-463 "/>
<text text-anchor="start" x="143" y="-451.8" font-family="Arial" font-size="8.00">+ bounds () : Rectangle</text>
<text text-anchor="start" x="143" y="-441.8" font-family="Arial" font-size="8.00">+ Widget (GameScreen screen, WidgetInfo info, DisplayLayer drawOrder)</text>
</g>
<!-- Box_Widget&#45;&gt;Box_Menu -->
<g id="edge2" class="edge"><title>Box_Widget&#45;&gt;Box_Menu</title>
<path fill="none" stroke="midnightblue" d="M277,-424.835C277,-416.203 277,-406.852 277,-397.201"/>
<polygon fill="none" stroke="midnightblue" points="273.5,-424.98 277,-434.98 280.5,-424.981 273.5,-424.98"/>
</g>
<!-- Box_DrawableGameScreenComponent -->
<g id="node3" class="node"><title>Box_DrawableGameScreenComponent</title>
<polygon fill="#fcfcda" stroke="black" points="107.5,-547 107.5,-631 446.5,-631 446.5,-547 107.5,-547"/>
<text text-anchor="middle" x="277" y="-619.8" font-family="Arial" font-size="8.00">DrawableGameScreenComponent</text>
<polyline fill="none" stroke="black" points="107.5,-613 446.5,-613 "/>
<text text-anchor="start" x="115.5" y="-601.8" font-family="Arial" font-size="8.00">+ Index : DisplayLayer</text>
<text text-anchor="start" x="115.5" y="-591.8" font-family="Arial" font-size="8.00">&#45; _index : DisplayLayer</text>
<text text-anchor="start" x="115.5" y="-581.8" font-family="Arial" font-size="8.00">+ screen : GameScreen</text>
<polyline fill="none" stroke="black" points="107.5,-575 446.5,-575 "/>
<text text-anchor="start" x="115.5" y="-563.8" font-family="Arial" font-size="8.00">+ DrawableGameScreenComponent (GameScreen screen, DisplayLayer index)</text>
<text text-anchor="start" x="115.5" y="-553.8" font-family="Arial" font-size="8.00">+ SubComponents (GameTime gameTime) : IEnumerable&lt;IGameScreenComponent&gt; virtual</text>
</g>
<!-- Box_DrawableGameScreenComponent&#45;&gt;Box_Widget -->
<g id="edge4" class="edge"><title>Box_DrawableGameScreenComponent&#45;&gt;Box_Widget</title>
<path fill="none" stroke="midnightblue" d="M277,-536.482C277,-527.258 277,-517.834 277,-509.14"/>
<polygon fill="none" stroke="midnightblue" points="273.5,-536.76 277,-546.76 280.5,-536.76 273.5,-536.76"/>
</g>
<!-- Box_IGameScreenComponent -->
<g id="node4" class="node"><title>Box_IGameScreenComponent</title>
<polygon fill="#dafcda" stroke="black" points="-0.5,-669 -0.5,-723 314.5,-723 314.5,-669 -0.5,-669"/>
<text text-anchor="middle" x="157" y="-711.8" font-family="Arial" font-size="8.00">IGameScreenComponent</text>
<polyline fill="none" stroke="black" points="-0.5,-705 314.5,-705 "/>
<text text-anchor="start" x="7.5" y="-693.8" font-family="Arial" font-size="8.00">+ Index : DisplayLayer</text>
<polyline fill="none" stroke="black" points="-0.5,-687 314.5,-687 "/>
<text text-anchor="start" x="7.5" y="-675.8" font-family="Arial" font-size="8.00">+ SubComponents (GameTime gameTime) : IEnumerable&lt;IGameScreenComponent&gt;</text>
</g>
<!-- Box_IGameScreenComponent&#45;&gt;Box_DrawableGameScreenComponent -->
<g id="edge8" class="edge"><title>Box_IGameScreenComponent&#45;&gt;Box_DrawableGameScreenComponent</title>
<path fill="none" stroke="midnightblue" d="M195.017,-662.102C205.949,-652.354 218.012,-641.598 229.444,-631.404"/>
<polygon fill="none" stroke="midnightblue" points="192.416,-659.732 187.281,-668.999 197.074,-664.956 192.416,-659.732"/>
</g>
<!-- Box_XnaDrawableGameComponent -->
<g id="node6" class="node"><title>Box_XnaDrawableGameComponent</title>
<polygon fill="#ffffff" stroke="black" points="332,-687 332,-705 462,-705 462,-687 332,-687"/>
<text text-anchor="middle" x="397" y="-693.8" font-family="Arial" font-size="8.00">Xna.DrawableGameComponent</text>
</g>
<!-- Box_XnaDrawableGameComponent&#45;&gt;Box_DrawableGameScreenComponent -->
<g id="edge6" class="edge"><title>Box_XnaDrawableGameComponent&#45;&gt;Box_DrawableGameScreenComponent</title>
<path fill="none" stroke="midnightblue" d="M379.077,-680.018C364.616,-667.124 343.59,-648.376 324.373,-631.241"/>
<polygon fill="none" stroke="midnightblue" points="376.976,-682.834 386.769,-686.877 381.634,-677.61 376.976,-682.834"/>
</g>
<!-- Box_XnaIGameComponent -->
<g id="node7" class="node"><title>Box_XnaIGameComponent</title>
<polygon fill="#ffffff" stroke="black" points="109,-761 109,-779 205,-779 205,-761 109,-761"/>
<text text-anchor="middle" x="157" y="-767.8" font-family="Arial" font-size="8.00">Xna.IGameComponent</text>
</g>
<!-- Box_XnaIGameComponent&#45;&gt;Box_IGameScreenComponent -->
<g id="edge10" class="edge"><title>Box_XnaIGameComponent&#45;&gt;Box_IGameScreenComponent</title>
<path fill="none" stroke="midnightblue" d="M157,-750.64C157,-742.2 157,-732.16 157,-723.004"/>
<polygon fill="none" stroke="midnightblue" points="153.5,-750.926 157,-760.926 160.5,-750.926 153.5,-750.926"/>
</g>
</g>
</svg>
