<?xml version="1.0" encoding="UTF-8" standalone="no"?>
<!DOCTYPE svg PUBLIC "-//W3C//DTD SVG 1.1//EN"
 "http://www.w3.org/Graphics/SVG/1.1/DTD/svg11.dtd">
<!-- Generated by graphviz version 2.26.3 (20100126.1600)
 -->
<!-- Title: MenuItem Pages: 1 -->
<svg width="940pt" height="614pt"
 viewBox="0.00 0.00 940.00 614.00" xmlns="http://www.w3.org/2000/svg" xmlns:xlink="http://www.w3.org/1999/xlink">
<g id="graph1" class="graph" transform="scale(1 1) rotate(0) translate(4 610)">
<title>MenuItem</title>
<polygon fill="white" stroke="white" points="-4,5 -4,-610 937,-610 937,5 -4,5"/>
<!-- Box_RenderEffect -->
<g id="node1" class="node"><title>Box_RenderEffect</title>
<polygon fill="#fcfcda" stroke="black" points="342,-231 342,-435 592,-435 592,-231 342,-231"/>
<text text-anchor="middle" x="467" y="-423.8" font-family="Helvetica,sans-Serif" font-size="8.00">RenderEffect</text>
<polyline fill="none" stroke="black" points="342,-415 592,-415 "/>
<text text-anchor="start" x="350" y="-403.8" font-family="Helvetica,sans-Serif" font-size="8.00">Attributes:</text>
<text text-anchor="start" x="350" y="-391.8" font-family="Helvetica,sans-Serif" font-size="8.00">&#45; background : Color</text>
<text text-anchor="start" x="350" y="-379.8" font-family="Helvetica,sans-Serif" font-size="8.00">&#45; renderTarget : RenderTargetCache</text>
<text text-anchor="start" x="350" y="-367.8" font-family="Helvetica,sans-Serif" font-size="8.00">&#45; spriteBatch : SpriteBatch</text>
<text text-anchor="start" x="350" y="-355.8" font-family="Helvetica,sans-Serif" font-size="8.00"># state : GameState</text>
<text text-anchor="start" x="350" y="-343.8" font-family="Helvetica,sans-Serif" font-size="8.00">+ RenderTarget : RenderTarget2D</text>
<text text-anchor="start" x="350" y="-331.8" font-family="Helvetica,sans-Serif" font-size="8.00">Methods:</text>
<polyline fill="none" stroke="black" points="342,-323 592,-323 "/>
<text text-anchor="start" x="350" y="-311.8" font-family="Helvetica,sans-Serif" font-size="8.00">+ RenderEffect (GameState state)</text>
<text text-anchor="start" x="350" y="-299.8" font-family="Helvetica,sans-Serif" font-size="8.00">+ Draw (SpriteBatch spriteBatch, GameTime gameTime) abstract</text>
<text text-anchor="start" x="350" y="-287.8" font-family="Helvetica,sans-Serif" font-size="8.00">+ DrawModel (GameModel model, GameTime gameTime) virtual</text>
<text text-anchor="start" x="350" y="-275.8" font-family="Helvetica,sans-Serif" font-size="8.00">+ RemapModel (Model model) virtual</text>
<text text-anchor="start" x="350" y="-263.8" font-family="Helvetica,sans-Serif" font-size="8.00">+ Begin (GameTime gameTime)</text>
<text text-anchor="start" x="350" y="-251.8" font-family="Helvetica,sans-Serif" font-size="8.00">+ Begin (Color background, GameTime gameTime) virtual</text>
<text text-anchor="start" x="350" y="-239.8" font-family="Helvetica,sans-Serif" font-size="8.00">+ End (GameTime gameTime) virtual</text>
</g>
<!-- Box_BlurEffect -->
<g id="node3" class="node"><title>Box_BlurEffect</title>
<polygon fill="#fcfcda" stroke="black" points="-0.5,-37 -0.5,-157 218.5,-157 218.5,-37 -0.5,-37"/>
<text text-anchor="middle" x="109" y="-145.8" font-family="Helvetica,sans-Serif" font-size="8.00">BlurEffect</text>
<polyline fill="none" stroke="black" points="-0.5,-137 218.5,-137 "/>
<text text-anchor="start" x="7.5" y="-125.8" font-family="Helvetica,sans-Serif" font-size="8.00">Attributes:</text>
<text text-anchor="start" x="7.5" y="-113.8" font-family="Helvetica,sans-Serif" font-size="8.00">&#45; testEffect : Effect static</text>
<text text-anchor="start" x="7.5" y="-101.8" font-family="Helvetica,sans-Serif" font-size="8.00">Methods:</text>
<polyline fill="none" stroke="black" points="-0.5,-93 218.5,-93 "/>
<text text-anchor="start" x="7.5" y="-81.8" font-family="Helvetica,sans-Serif" font-size="8.00">+ BlurEffect (GameState state)</text>
<text text-anchor="start" x="7.5" y="-69.8" font-family="Helvetica,sans-Serif" font-size="8.00">+ Begin (Color background, GameTime gameTime)</text>
<text text-anchor="start" x="7.5" y="-57.8" font-family="Helvetica,sans-Serif" font-size="8.00">+ Draw (SpriteBatch spriteBatch, GameTime gameTime)</text>
<text text-anchor="start" x="7.5" y="-45.8" font-family="Helvetica,sans-Serif" font-size="8.00">+ End (GameTime gameTime)</text>
</g>
<!-- Box_RenderEffect&#45;&gt;Box_BlurEffect -->
<g id="edge4" class="edge"><title>Box_RenderEffect&#45;&gt;Box_BlurEffect</title>
<path fill="none" stroke="midnightblue" d="M332.638,-265.3C294.697,-243.736 253.986,-218.964 218,-194 201.767,-182.739 184.988,-169.817 169.579,-157.155"/>
<polygon fill="none" stroke="midnightblue" points="331.277,-268.552 341.705,-270.424 334.721,-262.457 331.277,-268.552"/>
</g>
<!-- Box_RenderEffect&#45;&gt;Box_BlurEffect -->
<g id="edge12" class="edge"><title>Box_RenderEffect&#45;&gt;Box_BlurEffect</title>
<path fill="none" stroke="midnightblue" d="M333.225,-255.578C300.814,-236.438 266.688,-215.289 236,-194 219.767,-182.739 202.988,-169.817 187.135,-157.155"/>
<polygon fill="none" stroke="midnightblue" points="331.475,-258.609 341.87,-260.66 335.023,-252.575 331.475,-258.609"/>
</g>
<!-- Box_CelShadingEffect -->
<g id="node4" class="node"><title>Box_CelShadingEffect</title>
<polygon fill="#fcfcda" stroke="black" points="235.5,-1 235.5,-193 460.5,-193 460.5,-1 235.5,-1"/>
<text text-anchor="middle" x="348" y="-181.8" font-family="Helvetica,sans-Serif" font-size="8.00">CelShadingEffect</text>
<polyline fill="none" stroke="black" points="235.5,-173 460.5,-173 "/>
<text text-anchor="start" x="243.5" y="-161.8" font-family="Helvetica,sans-Serif" font-size="8.00">Attributes:</text>
<text text-anchor="start" x="243.5" y="-149.8" font-family="Helvetica,sans-Serif" font-size="8.00">&#45; outlineShader : Effect</text>
<text text-anchor="start" x="243.5" y="-137.8" font-family="Helvetica,sans-Serif" font-size="8.00">&#45; celMap : Texture2D</text>
<text text-anchor="start" x="243.5" y="-125.8" font-family="Helvetica,sans-Serif" font-size="8.00">&#45; lightDirection : Vector4</text>
<text text-anchor="start" x="243.5" y="-113.8" font-family="Helvetica,sans-Serif" font-size="8.00">&#45; outlineThickness : float</text>
<text text-anchor="start" x="243.5" y="-101.8" font-family="Helvetica,sans-Serif" font-size="8.00">&#45; outlineThreshold : float</text>
<text text-anchor="start" x="243.5" y="-89.8" font-family="Helvetica,sans-Serif" font-size="8.00">&#45; celShader : Effect</text>
<text text-anchor="start" x="243.5" y="-77.8" font-family="Helvetica,sans-Serif" font-size="8.00">+ Color : Color</text>
<text text-anchor="start" x="243.5" y="-65.8" font-family="Helvetica,sans-Serif" font-size="8.00">Methods:</text>
<polyline fill="none" stroke="black" points="235.5,-57 460.5,-57 "/>
<text text-anchor="start" x="243.5" y="-45.8" font-family="Helvetica,sans-Serif" font-size="8.00">+ CelShadingEffect (GameState state)</text>
<text text-anchor="start" x="243.5" y="-33.8" font-family="Helvetica,sans-Serif" font-size="8.00">+ Draw (SpriteBatch spriteBatch, GameTime gameTime)</text>
<text text-anchor="start" x="243.5" y="-21.8" font-family="Helvetica,sans-Serif" font-size="8.00">+ DrawModel (GameModel model, GameTime gameTime)</text>
<text text-anchor="start" x="243.5" y="-9.8" font-family="Helvetica,sans-Serif" font-size="8.00">+ RemapModel (Model model)</text>
</g>
<!-- Box_RenderEffect&#45;&gt;Box_CelShadingEffect -->
<g id="edge6" class="edge"><title>Box_RenderEffect&#45;&gt;Box_CelShadingEffect</title>
<path fill="none" stroke="midnightblue" d="M404.176,-221.774C399.356,-212.271 394.565,-202.709 389.928,-193.336"/>
<polygon fill="none" stroke="midnightblue" points="401.145,-223.536 408.801,-230.86 407.383,-220.36 401.145,-223.536"/>
</g>
<!-- Box_RenderEffect&#45;&gt;Box_CelShadingEffect -->
<g id="edge14" class="edge"><title>Box_RenderEffect&#45;&gt;Box_CelShadingEffect</title>
<path fill="none" stroke="midnightblue" d="M417.656,-221.774C412.892,-212.271 408.04,-202.709 403.224,-193.336"/>
<polygon fill="none" stroke="midnightblue" points="414.594,-223.476 422.192,-230.86 420.856,-220.349 414.594,-223.476"/>
</g>
<!-- Box_FadeEffect -->
<g id="node5" class="node"><title>Box_FadeEffect</title>
<polygon fill="#fcfcda" stroke="black" points="477.5,-37 477.5,-157 696.5,-157 696.5,-37 477.5,-37"/>
<text text-anchor="middle" x="587" y="-145.8" font-family="Helvetica,sans-Serif" font-size="8.00">FadeEffect</text>
<polyline fill="none" stroke="black" points="477.5,-137 696.5,-137 "/>
<text text-anchor="start" x="485.5" y="-125.8" font-family="Helvetica,sans-Serif" font-size="8.00">Attributes:</text>
<text text-anchor="start" x="485.5" y="-113.8" font-family="Helvetica,sans-Serif" font-size="8.00">&#45; alpha : float</text>
<text text-anchor="start" x="485.5" y="-101.8" font-family="Helvetica,sans-Serif" font-size="8.00">&#45; lastFrame : RenderTarget2D</text>
<text text-anchor="start" x="485.5" y="-89.8" font-family="Helvetica,sans-Serif" font-size="8.00">+ IsFinished : bool</text>
<text text-anchor="start" x="485.5" y="-77.8" font-family="Helvetica,sans-Serif" font-size="8.00">Methods:</text>
<polyline fill="none" stroke="black" points="477.5,-69 696.5,-69 "/>
<text text-anchor="start" x="485.5" y="-57.8" font-family="Helvetica,sans-Serif" font-size="8.00">+ FadeEffect (GameState state, GameState oldState)</text>
<text text-anchor="start" x="485.5" y="-45.8" font-family="Helvetica,sans-Serif" font-size="8.00">+ Draw (SpriteBatch spriteBatch, GameTime gameTime)</text>
</g>
<!-- Box_RenderEffect&#45;&gt;Box_FadeEffect -->
<g id="edge8" class="edge"><title>Box_RenderEffect&#45;&gt;Box_FadeEffect</title>
<path fill="none" stroke="midnightblue" d="M516.861,-221.683C528.118,-199.418 539.858,-176.835 550.462,-157.118"/>
<polygon fill="none" stroke="midnightblue" points="513.612,-220.354 512.24,-230.86 519.864,-223.502 513.612,-220.354"/>
</g>
<!-- Box_RenderEffect&#45;&gt;Box_FadeEffect -->
<g id="edge16" class="edge"><title>Box_RenderEffect&#45;&gt;Box_FadeEffect</title>
<path fill="none" stroke="midnightblue" d="M530.342,-221.683C541.727,-199.418 552.953,-176.835 562.401,-157.118"/>
<polygon fill="none" stroke="midnightblue" points="527.085,-220.365 525.631,-230.86 533.312,-223.562 527.085,-220.365"/>
</g>
<!-- Box_NoEffect -->
<g id="node6" class="node"><title>Box_NoEffect</title>
<polygon fill="#fcfcda" stroke="black" points="713.5,-55 713.5,-139 932.5,-139 932.5,-55 713.5,-55"/>
<text text-anchor="middle" x="823" y="-127.8" font-family="Helvetica,sans-Serif" font-size="8.00">NoEffect</text>
<polyline fill="none" stroke="black" points="713.5,-119 932.5,-119 "/>
<text text-anchor="start" x="721.5" y="-107.8" font-family="Helvetica,sans-Serif" font-size="8.00">Attributes:</text>
<text text-anchor="start" x="721.5" y="-95.8" font-family="Helvetica,sans-Serif" font-size="8.00">Methods:</text>
<polyline fill="none" stroke="black" points="713.5,-87 932.5,-87 "/>
<text text-anchor="start" x="721.5" y="-75.8" font-family="Helvetica,sans-Serif" font-size="8.00">+ Draw (SpriteBatch spriteBatch, GameTime gameTime)</text>
<text text-anchor="start" x="721.5" y="-63.8" font-family="Helvetica,sans-Serif" font-size="8.00">+ NoEffect (GameState state)</text>
</g>
<!-- Box_RenderEffect&#45;&gt;Box_NoEffect -->
<g id="edge10" class="edge"><title>Box_RenderEffect&#45;&gt;Box_NoEffect</title>
<path fill="none" stroke="midnightblue" d="M601.097,-254.543C632.775,-235.653 666.03,-214.871 696,-194 720.047,-177.253 745.32,-156.891 767.004,-139.155"/>
<polygon fill="none" stroke="midnightblue" points="599.021,-251.705 592.208,-259.82 602.594,-257.725 599.021,-251.705"/>
</g>
<!-- Box_RenderEffect&#45;&gt;Box_NoEffect -->
<g id="edge18" class="edge"><title>Box_RenderEffect&#45;&gt;Box_NoEffect</title>
<path fill="none" stroke="midnightblue" d="M601.138,-264.693C638.519,-243.241 678.557,-218.683 714,-194 738.047,-177.253 763.32,-156.891 783.556,-139.155"/>
<polygon fill="none" stroke="midnightblue" points="599.155,-261.795 592.203,-269.791 602.623,-267.875 599.155,-261.795"/>
</g>
<!-- Box_IRenderEffect -->
<g id="node2" class="node"><title>Box_IRenderEffect</title>
<polygon fill="#dafcda" stroke="black" points="354.5,-473 354.5,-605 579.5,-605 579.5,-473 354.5,-473"/>
<text text-anchor="middle" x="467" y="-593.8" font-family="Helvetica,sans-Serif" font-size="8.00">IRenderEffect</text>
<polyline fill="none" stroke="black" points="354.5,-585 579.5,-585 "/>
<text text-anchor="start" x="362.5" y="-573.8" font-family="Helvetica,sans-Serif" font-size="8.00">Attributes:</text>
<text text-anchor="start" x="362.5" y="-561.8" font-family="Helvetica,sans-Serif" font-size="8.00">+ RenderTarget : RenderTarget2D</text>
<text text-anchor="start" x="362.5" y="-549.8" font-family="Helvetica,sans-Serif" font-size="8.00">Methods:</text>
<polyline fill="none" stroke="black" points="354.5,-541 579.5,-541 "/>
<text text-anchor="start" x="362.5" y="-529.8" font-family="Helvetica,sans-Serif" font-size="8.00">+ Begin (GameTime gameTime)</text>
<text text-anchor="start" x="362.5" y="-517.8" font-family="Helvetica,sans-Serif" font-size="8.00">+ End (GameTime gameTime)</text>
<text text-anchor="start" x="362.5" y="-505.8" font-family="Helvetica,sans-Serif" font-size="8.00">+ Draw (SpriteBatch spriteBatch, GameTime gameTime)</text>
<text text-anchor="start" x="362.5" y="-493.8" font-family="Helvetica,sans-Serif" font-size="8.00">+ RemapModel (Model model)</text>
<text text-anchor="start" x="362.5" y="-481.8" font-family="Helvetica,sans-Serif" font-size="8.00">+ DrawModel (GameModel model, GameTime gameTime)</text>
</g>
<!-- Box_IRenderEffect&#45;&gt;Box_RenderEffect -->
<g id="edge2" class="edge"><title>Box_IRenderEffect&#45;&gt;Box_RenderEffect</title>
<path fill="none" stroke="midnightblue" d="M467,-462.867C467,-453.791 467,-444.415 467,-435.051"/>
<polygon fill="none" stroke="midnightblue" points="463.5,-462.97 467,-472.97 470.5,-462.97 463.5,-462.97"/>
</g>
</g>
</svg>
