<?xml version="1.0" encoding="UTF-8" standalone="no"?>
<!DOCTYPE svg PUBLIC "-//W3C//DTD SVG 1.1//EN"
 "http://www.w3.org/Graphics/SVG/1.1/DTD/svg11.dtd">
<!-- Generated by graphviz version 2.26.3 (20100126.1600)
 -->
<!-- Title: MenuItem Pages: 1 -->
<svg width="753pt" height="758pt"
 viewBox="0.00 0.00 753.00 758.00" xmlns="http://www.w3.org/2000/svg" xmlns:xlink="http://www.w3.org/1999/xlink">
<g id="graph1" class="graph" transform="scale(1 1) rotate(0) translate(4 754)">
<title>MenuItem</title>
<polygon fill="white" stroke="white" points="-4,5 -4,-754 750,-754 750,5 -4,5"/>
<!-- Box_Input -->
<g id="node1" class="node"><title>Box_Input</title>
<polygon fill="#fcfcda" stroke="black" points="293,-111 293,-411 579,-411 579,-111 293,-111"/>
<text text-anchor="middle" x="436" y="-399.8" font-family="Helvetica,sans-Serif" font-size="8.00">Input</text>
<polyline fill="none" stroke="black" points="293,-391 579,-391 "/>
<text text-anchor="start" x="301" y="-379.8" font-family="Helvetica,sans-Serif" font-size="8.00">Attributes:</text>
<text text-anchor="start" x="301" y="-367.8" font-family="Helvetica,sans-Serif" font-size="8.00">&#45; PreviousClickMouseState : MouseState static</text>
<text text-anchor="start" x="301" y="-355.8" font-family="Helvetica,sans-Serif" font-size="8.00">&#45; LeftButtonClickTimer : double static</text>
<text text-anchor="start" x="301" y="-343.8" font-family="Helvetica,sans-Serif" font-size="8.00">&#45; RightButtonClickTimer : double static</text>
<text text-anchor="start" x="301" y="-331.8" font-family="Helvetica,sans-Serif" font-size="8.00">+ GrabMouseMovement : bool</text>
<text text-anchor="start" x="301" y="-319.8" font-family="Helvetica,sans-Serif" font-size="8.00">+ LeftButton : ClickState static</text>
<text text-anchor="start" x="301" y="-307.8" font-family="Helvetica,sans-Serif" font-size="8.00">+ RightButton : ClickState static</text>
<text text-anchor="start" x="301" y="-295.8" font-family="Helvetica,sans-Serif" font-size="8.00">+ PreviousKeyboardState : KeyboardState static</text>
<text text-anchor="start" x="301" y="-283.8" font-family="Helvetica,sans-Serif" font-size="8.00">+ MouseState : MouseState static</text>
<text text-anchor="start" x="301" y="-271.8" font-family="Helvetica,sans-Serif" font-size="8.00">+ PreviousMouseState : MouseState static</text>
<text text-anchor="start" x="301" y="-259.8" font-family="Helvetica,sans-Serif" font-size="8.00"># FullscreenToggled : bool static</text>
<text text-anchor="start" x="301" y="-247.8" font-family="Helvetica,sans-Serif" font-size="8.00">+ CurrentInputAction : InputAction</text>
<text text-anchor="start" x="301" y="-235.8" font-family="Helvetica,sans-Serif" font-size="8.00">+ ValidKeys : List&lt;Keys&gt;</text>
<text text-anchor="start" x="301" y="-223.8" font-family="Helvetica,sans-Serif" font-size="8.00">+ WASDMode : WASDMode</text>
<text text-anchor="start" x="301" y="-211.8" font-family="Helvetica,sans-Serif" font-size="8.00">+ IsKeyEventEnabled : bool</text>
<text text-anchor="start" x="301" y="-199.8" font-family="Helvetica,sans-Serif" font-size="8.00">+ KeyboardState : KeyboardState static</text>
<text text-anchor="start" x="301" y="-187.8" font-family="Helvetica,sans-Serif" font-size="8.00">Methods:</text>
<polyline fill="none" stroke="black" points="293,-179 579,-179 "/>
<text text-anchor="start" x="301" y="-167.8" font-family="Helvetica,sans-Serif" font-size="8.00"># UpdateMouse (GameTime gameTime) virtual</text>
<text text-anchor="start" x="301" y="-155.8" font-family="Helvetica,sans-Serif" font-size="8.00">+ Update (GameTime gameTime)</text>
<text text-anchor="start" x="301" y="-143.8" font-family="Helvetica,sans-Serif" font-size="8.00">+ OnKeyEvent (List&lt;Keys&gt; key, KeyEvent keyEvent, GameTime gameTime)</text>
<text text-anchor="start" x="301" y="-131.8" font-family="Helvetica,sans-Serif" font-size="8.00"># UpdateKeys (GameTime gameTime) virtual</text>
<text text-anchor="start" x="301" y="-119.8" font-family="Helvetica,sans-Serif" font-size="8.00">+ Input (GameState state)</text>
</g>
<!-- Box_MenuScreenInput -->
<g id="node5" class="node"><title>Box_MenuScreenInput</title>
<polygon fill="#fcfcda" stroke="black" points="358.5,-1 358.5,-73 513.5,-73 513.5,-1 358.5,-1"/>
<text text-anchor="middle" x="436" y="-61.8" font-family="Helvetica,sans-Serif" font-size="8.00">MenuScreenInput</text>
<polyline fill="none" stroke="black" points="358.5,-53 513.5,-53 "/>
<text text-anchor="start" x="366.5" y="-41.8" font-family="Helvetica,sans-Serif" font-size="8.00">Attributes:</text>
<text text-anchor="start" x="366.5" y="-29.8" font-family="Helvetica,sans-Serif" font-size="8.00">Methods:</text>
<polyline fill="none" stroke="black" points="358.5,-21 513.5,-21 "/>
<text text-anchor="start" x="366.5" y="-9.8" font-family="Helvetica,sans-Serif" font-size="8.00">+ MenuScreenInput (GameState state)</text>
</g>
<!-- Box_Input&#45;&gt;Box_MenuScreenInput -->
<g id="edge18" class="edge"><title>Box_Input&#45;&gt;Box_MenuScreenInput</title>
<path fill="none" stroke="midnightblue" d="M429.841,-100.747C430.102,-90.725 430.45,-81.3399 430.884,-73.0147"/>
<polygon fill="none" stroke="midnightblue" points="426.337,-100.89 429.609,-110.967 433.335,-101.049 426.337,-100.89"/>
</g>
<!-- Box_Input&#45;&gt;Box_MenuScreenInput -->
<g id="edge20" class="edge"><title>Box_Input&#45;&gt;Box_MenuScreenInput</title>
<path fill="none" stroke="midnightblue" d="M442.159,-100.747C441.898,-90.725 441.55,-81.3399 441.116,-73.0147"/>
<polygon fill="none" stroke="midnightblue" points="438.665,-101.049 442.391,-110.967 445.663,-100.89 438.665,-101.049"/>
</g>
<!-- Box_GameStateComponent -->
<g id="node2" class="node"><title>Box_GameStateComponent</title>
<polygon fill="#fcfcda" stroke="black" points="100.5,-449 100.5,-569 441.5,-569 441.5,-449 100.5,-449"/>
<text text-anchor="middle" x="271" y="-557.8" font-family="Helvetica,sans-Serif" font-size="8.00">GameStateComponent</text>
<polyline fill="none" stroke="black" points="100.5,-549 441.5,-549 "/>
<text text-anchor="start" x="108.5" y="-537.8" font-family="Helvetica,sans-Serif" font-size="8.00">Attributes:</text>
<text text-anchor="start" x="108.5" y="-525.8" font-family="Helvetica,sans-Serif" font-size="8.00"># InputOrder : DisplayLayer</text>
<text text-anchor="start" x="108.5" y="-513.8" font-family="Helvetica,sans-Serif" font-size="8.00">+ state : GameState</text>
<text text-anchor="start" x="108.5" y="-501.8" font-family="Helvetica,sans-Serif" font-size="8.00">+ Index : int</text>
<text text-anchor="start" x="108.5" y="-489.8" font-family="Helvetica,sans-Serif" font-size="8.00">Methods:</text>
<polyline fill="none" stroke="black" points="100.5,-481 441.5,-481 "/>
<text text-anchor="start" x="108.5" y="-469.8" font-family="Helvetica,sans-Serif" font-size="8.00">+ GameStateComponent (GameState state, DisplayLayer inputOrder)</text>
<text text-anchor="start" x="108.5" y="-457.8" font-family="Helvetica,sans-Serif" font-size="8.00">+ SubComponents (GameTime gameTime) : IEnumerable&lt;IGameStateComponent&gt; virtual</text>
</g>
<!-- Box_GameStateComponent&#45;&gt;Box_Input -->
<g id="edge2" class="edge"><title>Box_GameStateComponent&#45;&gt;Box_Input</title>
<path fill="none" stroke="midnightblue" d="M316.551,-440.535C322.773,-431.183 329.349,-421.3 336.087,-411.173"/>
<polygon fill="none" stroke="midnightblue" points="313.567,-438.702 310.942,-448.966 319.395,-442.579 313.567,-438.702"/>
</g>
<!-- Box_IGameStateComponent -->
<g id="node3" class="node"><title>Box_IGameStateComponent</title>
<polygon fill="#dafcda" stroke="black" points="0,-607 0,-691 318,-691 318,-607 0,-607"/>
<text text-anchor="middle" x="159" y="-679.8" font-family="Helvetica,sans-Serif" font-size="8.00">IGameStateComponent</text>
<polyline fill="none" stroke="black" points="0,-671 318,-671 "/>
<text text-anchor="start" x="8" y="-659.8" font-family="Helvetica,sans-Serif" font-size="8.00">Attributes:</text>
<text text-anchor="start" x="8" y="-647.8" font-family="Helvetica,sans-Serif" font-size="8.00">+ Index : int</text>
<text text-anchor="start" x="8" y="-635.8" font-family="Helvetica,sans-Serif" font-size="8.00">Methods:</text>
<polyline fill="none" stroke="black" points="0,-627 318,-627 "/>
<text text-anchor="start" x="8" y="-615.8" font-family="Helvetica,sans-Serif" font-size="8.00">+ SubComponents (GameTime gameTime) : IEnumerable&lt;IGameStateComponent&gt;</text>
</g>
<!-- Box_IGameStateComponent&#45;&gt;Box_GameStateComponent -->
<g id="edge8" class="edge"><title>Box_IGameStateComponent&#45;&gt;Box_GameStateComponent</title>
<path fill="none" stroke="midnightblue" d="M192.497,-599.005C200,-589.314 208.136,-579.065 216.239,-569.09"/>
<polygon fill="none" stroke="midnightblue" points="189.675,-596.933 186.358,-606.995 195.226,-601.198 189.675,-596.933"/>
</g>
<!-- Box_IGameStateComponent&#45;&gt;Box_GameStateComponent -->
<g id="edge14" class="edge"><title>Box_IGameStateComponent&#45;&gt;Box_GameStateComponent</title>
<path fill="none" stroke="midnightblue" d="M205.255,-599.295C213.332,-589.519 221.681,-579.165 229.618,-569.09"/>
<polygon fill="none" stroke="midnightblue" points="202.554,-597.069 198.849,-606.995 207.935,-601.546 202.554,-597.069"/>
</g>
<!-- Box_IKeyEventListener -->
<g id="node4" class="node"><title>Box_IKeyEventListener</title>
<polygon fill="#dafcda" stroke="black" points="459,-455 459,-563 745,-563 745,-455 459,-455"/>
<text text-anchor="middle" x="602" y="-551.8" font-family="Helvetica,sans-Serif" font-size="8.00">IKeyEventListener</text>
<polyline fill="none" stroke="black" points="459,-543 745,-543 "/>
<text text-anchor="start" x="467" y="-531.8" font-family="Helvetica,sans-Serif" font-size="8.00">Attributes:</text>
<text text-anchor="start" x="467" y="-519.8" font-family="Helvetica,sans-Serif" font-size="8.00">+ ValidKeys : List&lt;Keys&gt;</text>
<text text-anchor="start" x="467" y="-507.8" font-family="Helvetica,sans-Serif" font-size="8.00">+ Index : int</text>
<text text-anchor="start" x="467" y="-495.8" font-family="Helvetica,sans-Serif" font-size="8.00">+ IsKeyEventEnabled : bool</text>
<text text-anchor="start" x="467" y="-483.8" font-family="Helvetica,sans-Serif" font-size="8.00">Methods:</text>
<polyline fill="none" stroke="black" points="459,-475 745,-475 "/>
<text text-anchor="start" x="467" y="-463.8" font-family="Helvetica,sans-Serif" font-size="8.00">+ OnKeyEvent (List&lt;Keys&gt; key, KeyEvent keyEvent, GameTime gameTime)</text>
</g>
<!-- Box_IKeyEventListener&#45;&gt;Box_Input -->
<g id="edge4" class="edge"><title>Box_IKeyEventListener&#45;&gt;Box_Input</title>
<path fill="none" stroke="midnightblue" d="M560.026,-446.293C552.697,-435.343 544.798,-423.541 536.661,-411.385"/>
<polygon fill="none" stroke="midnightblue" points="557.305,-448.518 565.776,-454.882 563.122,-444.625 557.305,-448.518"/>
</g>
<!-- Box_XnaGameComponent -->
<g id="node6" class="node"><title>Box_XnaGameComponent</title>
<polygon fill="#ffffff" stroke="black" points="335.5,-639 335.5,-659 432.5,-659 432.5,-639 335.5,-639"/>
<text text-anchor="middle" x="384" y="-647.8" font-family="Helvetica,sans-Serif" font-size="8.00">Xna.GameComponent</text>
</g>
<!-- Box_XnaGameComponent&#45;&gt;Box_GameStateComponent -->
<g id="edge6" class="edge"><title>Box_XnaGameComponent&#45;&gt;Box_GameStateComponent</title>
<path fill="none" stroke="midnightblue" d="M365.232,-631.507C350.878,-615.756 330.755,-591.667 312.743,-569.004"/>
<polygon fill="none" stroke="midnightblue" points="362.785,-634.015 372.17,-638.932 367.9,-629.235 362.785,-634.015"/>
</g>
<!-- Box_XnaGameComponent&#45;&gt;Box_GameStateComponent -->
<g id="edge12" class="edge"><title>Box_XnaGameComponent&#45;&gt;Box_GameStateComponent</title>
<path fill="none" stroke="midnightblue" d="M373.912,-630.631C362.768,-614.873 344.352,-591.251 326.12,-569.004"/>
<polygon fill="none" stroke="midnightblue" points="371.048,-632.645 379.576,-638.932 376.83,-628.699 371.048,-632.645"/>
</g>
<!-- Box_XnaIGameComponent -->
<g id="node7" class="node"><title>Box_XnaIGameComponent</title>
<polygon fill="#ffffff" stroke="black" points="109.5,-729 109.5,-749 208.5,-749 208.5,-729 109.5,-729"/>
<text text-anchor="middle" x="159" y="-737.8" font-family="Helvetica,sans-Serif" font-size="8.00">Xna.IGameComponent</text>
</g>
<!-- Box_XnaIGameComponent&#45;&gt;Box_IGameStateComponent -->
<g id="edge10" class="edge"><title>Box_XnaIGameComponent&#45;&gt;Box_IGameStateComponent</title>
<path fill="none" stroke="midnightblue" d="M153.253,-718.731C152.518,-710.612 152.187,-700.936 152.26,-691.414"/>
<polygon fill="none" stroke="midnightblue" points="149.783,-719.192 154.506,-728.676 156.728,-718.317 149.783,-719.192"/>
</g>
<!-- Box_XnaIGameComponent&#45;&gt;Box_IGameStateComponent -->
<g id="edge16" class="edge"><title>Box_XnaIGameComponent&#45;&gt;Box_IGameStateComponent</title>
<path fill="none" stroke="midnightblue" d="M164.747,-718.731C165.482,-710.612 165.813,-700.936 165.74,-691.414"/>
<polygon fill="none" stroke="midnightblue" points="161.272,-718.317 163.494,-728.676 168.217,-719.192 161.272,-718.317"/>
</g>
</g>
</svg>
