<?xml version="1.0" encoding="UTF-8" standalone="no"?>
<!DOCTYPE svg PUBLIC "-//W3C//DTD SVG 1.1//EN"
 "http://www.w3.org/Graphics/SVG/1.1/DTD/svg11.dtd">
<!-- Generated by graphviz version 2.26.3 (20100126.1600)
 -->
<!-- Title: MenuItem Pages: 1 -->
<svg width="1183pt" height="1742pt"
 viewBox="0.00 0.00 284.00 418.00" xmlns="http://www.w3.org/2000/svg" xmlns:xlink="http://www.w3.org/1999/xlink">
<g id="graph1" class="graph" transform="scale(4.16667 4.16667) rotate(0) translate(4 414)">
<title>MenuItem</title>
<polygon fill="white" stroke="white" points="-4,5 -4,-414 281,-414 281,5 -4,5"/>
<!-- Box_NoEffect -->
<g id="node1" class="node"><title>Box_NoEffect</title>
<polygon fill="#fcfcda" stroke="black" points="15.5,-1 15.5,-65 260.5,-65 260.5,-1 15.5,-1"/>
<text text-anchor="middle" x="138" y="-53.8" font-family="Arial" font-size="8.00">NoEffect</text>
<polyline fill="none" stroke="black" points="15.5,-47 260.5,-47 "/>
<text text-anchor="middle" x="138" y="-35.8" font-family="Arial" font-size="8.00"> </text>
<polyline fill="none" stroke="black" points="15.5,-29 260.5,-29 "/>
<text text-anchor="start" x="23.5" y="-17.8" font-family="Arial" font-size="8.00"># DrawRenderTarget (SpriteBatch spriteBatch, GameTime time)</text>
<text text-anchor="start" x="23.5" y="-7.8" font-family="Arial" font-size="8.00">+ NoEffect (GameScreen screen)</text>
</g>
<!-- Box_RenderEffect -->
<g id="node2" class="node"><title>Box_RenderEffect</title>
<polygon fill="#fcfcda" stroke="black" points="-0.5,-103 -0.5,-277 276.5,-277 276.5,-103 -0.5,-103"/>
<text text-anchor="middle" x="138" y="-265.8" font-family="Arial" font-size="8.00">RenderEffect</text>
<polyline fill="none" stroke="black" points="-0.5,-259 276.5,-259 "/>
<text text-anchor="start" x="7.5" y="-247.8" font-family="Arial" font-size="8.00">&#45; background : Color</text>
<text text-anchor="start" x="7.5" y="-237.8" font-family="Arial" font-size="8.00">&#45; renderTarget : RenderTargetCache</text>
<text text-anchor="start" x="7.5" y="-227.8" font-family="Arial" font-size="8.00">&#45; spriteBatch : SpriteBatch</text>
<text text-anchor="start" x="7.5" y="-217.8" font-family="Arial" font-size="8.00"># screen : GameScreen</text>
<text text-anchor="start" x="7.5" y="-207.8" font-family="Arial" font-size="8.00">+ RenderTarget : RenderTarget2D</text>
<polyline fill="none" stroke="black" points="-0.5,-201 276.5,-201 "/>
<text text-anchor="start" x="7.5" y="-189.8" font-family="Arial" font-size="8.00"># DrawRenderTarget (SpriteBatch spriteBatch, GameTime time) abstract</text>
<text text-anchor="start" x="7.5" y="-179.8" font-family="Arial" font-size="8.00">+ RenderEffect (GameScreen screen)</text>
<text text-anchor="start" x="7.5" y="-169.8" font-family="Arial" font-size="8.00">+ DrawModel (GameModel model, GameTime time) virtual</text>
<text text-anchor="start" x="7.5" y="-159.8" font-family="Arial" font-size="8.00">+ RemapModel (Model model) virtual</text>
<text text-anchor="start" x="7.5" y="-149.8" font-family="Arial" font-size="8.00">+ Begin (GameTime time)</text>
<text text-anchor="start" x="7.5" y="-139.8" font-family="Arial" font-size="8.00"># ModifyBasicEffect (BasicEffect effect, GameModel model)</text>
<text text-anchor="start" x="7.5" y="-129.8" font-family="Arial" font-size="8.00">+ Begin (Color background, GameTime time) virtual</text>
<text text-anchor="start" x="7.5" y="-119.8" font-family="Arial" font-size="8.00">+ End (GameTime time) virtual</text>
<text text-anchor="start" x="7.5" y="-109.8" font-family="Arial" font-size="8.00">+ DrawLastFrame (GameTime time)</text>
</g>
<!-- Box_RenderEffect&#45;&gt;Box_NoEffect -->
<g id="edge2" class="edge"><title>Box_RenderEffect&#45;&gt;Box_NoEffect</title>
<path fill="none" stroke="midnightblue" d="M138,-92.5007C138,-82.758 138,-73.4307 138,-65.1694"/>
<polygon fill="none" stroke="midnightblue" points="134.5,-92.7768 138,-102.777 141.5,-92.7768 134.5,-92.7768"/>
</g>
<!-- Box_IRenderEffect -->
<g id="node3" class="node"><title>Box_IRenderEffect</title>
<polygon fill="#dafcda" stroke="black" points="39.5,-315 39.5,-409 236.5,-409 236.5,-315 39.5,-315"/>
<text text-anchor="middle" x="138" y="-397.8" font-family="Arial" font-size="8.00">IRenderEffect</text>
<polyline fill="none" stroke="black" points="39.5,-391 236.5,-391 "/>
<text text-anchor="start" x="47.5" y="-379.8" font-family="Arial" font-size="8.00">+ RenderTarget : RenderTarget2D</text>
<polyline fill="none" stroke="black" points="39.5,-373 236.5,-373 "/>
<text text-anchor="start" x="47.5" y="-361.8" font-family="Arial" font-size="8.00">+ Begin (GameTime time)</text>
<text text-anchor="start" x="47.5" y="-351.8" font-family="Arial" font-size="8.00">+ End (GameTime time)</text>
<text text-anchor="start" x="47.5" y="-341.8" font-family="Arial" font-size="8.00">+ RemapModel (Model model)</text>
<text text-anchor="start" x="47.5" y="-331.8" font-family="Arial" font-size="8.00">+ DrawModel (GameModel model, GameTime time)</text>
<text text-anchor="start" x="47.5" y="-321.8" font-family="Arial" font-size="8.00">+ DrawLastFrame (GameTime time)</text>
</g>
<!-- Box_IRenderEffect&#45;&gt;Box_RenderEffect -->
<g id="edge4" class="edge"><title>Box_IRenderEffect&#45;&gt;Box_RenderEffect</title>
<path fill="none" stroke="midnightblue" d="M138,-304.473C138,-295.697 138,-286.474 138,-277.233"/>
<polygon fill="none" stroke="midnightblue" points="134.5,-304.545 138,-314.545 141.5,-304.545 134.5,-304.545"/>
</g>
</g>
</svg>
