<?xml version="1.0" encoding="UTF-8" standalone="no"?>
<!DOCTYPE svg PUBLIC "-//W3C//DTD SVG 1.1//EN"
 "http://www.w3.org/Graphics/SVG/1.1/DTD/svg11.dtd">
<!-- Generated by graphviz version 2.26.3 (20100126.1600)
 -->
<!-- Title: MenuItem Pages: 1 -->
<svg width="417pt" height="334pt"
 viewBox="0.00 0.00 417.00 334.00" xmlns="http://www.w3.org/2000/svg" xmlns:xlink="http://www.w3.org/1999/xlink">
<g id="graph1" class="graph" transform="scale(1 1) rotate(0) translate(4 330)">
<title>MenuItem</title>
<polygon fill="white" stroke="white" points="-4,5 -4,-330 414,-330 414,5 -4,5"/>
<!-- Box_WidgetMouseHandler -->
<g id="node1" class="node"><title>Box_WidgetMouseHandler</title>
<polygon fill="#fcfcda" stroke="black" points="159.5,-1 159.5,-65 342.5,-65 342.5,-1 159.5,-1"/>
<text text-anchor="middle" x="251" y="-53.8" font-family="Arial" font-size="8.00">WidgetMouseHandler</text>
<polyline fill="none" stroke="black" points="159.5,-47 342.5,-47 "/>
<text text-anchor="start" x="167.5" y="-35.8" font-family="Arial" font-size="8.00">&#45; ClickEventComponent : class</text>
<polyline fill="none" stroke="black" points="159.5,-29 342.5,-29 "/>
<text text-anchor="start" x="167.5" y="-17.8" font-family="Arial" font-size="8.00">+ WidgetMouseHandler (GameScreen screen)</text>
<text text-anchor="start" x="167.5" y="-7.8" font-family="Arial" font-size="8.00">+ Update (GameTime time)</text>
</g>
<!-- Box_GameScreenComponent -->
<g id="node2" class="node"><title>Box_GameScreenComponent</title>
<polygon fill="#fcfcda" stroke="black" points="92.5,-103 92.5,-177 409.5,-177 409.5,-103 92.5,-103"/>
<text text-anchor="middle" x="251" y="-165.8" font-family="Arial" font-size="8.00">GameScreenComponent</text>
<polyline fill="none" stroke="black" points="92.5,-159 409.5,-159 "/>
<text text-anchor="start" x="100.5" y="-147.8" font-family="Arial" font-size="8.00">+ Index : DisplayLayer</text>
<text text-anchor="start" x="100.5" y="-137.8" font-family="Arial" font-size="8.00">+ screen : GameScreen</text>
<polyline fill="none" stroke="black" points="92.5,-131 409.5,-131 "/>
<text text-anchor="start" x="100.5" y="-119.8" font-family="Arial" font-size="8.00">+ GameScreenComponent (GameScreen screen, DisplayLayer index)</text>
<text text-anchor="start" x="100.5" y="-109.8" font-family="Arial" font-size="8.00">+ SubComponents (GameTime time) : IEnumerable&lt;IGameScreenComponent&gt; virtual</text>
</g>
<!-- Box_GameScreenComponent&#45;&gt;Box_WidgetMouseHandler -->
<g id="edge2" class="edge"><title>Box_GameScreenComponent&#45;&gt;Box_WidgetMouseHandler</title>
<path fill="none" stroke="midnightblue" d="M251,-92.8493C251,-83.4611 251,-73.8084 251,-65.0695"/>
<polygon fill="none" stroke="midnightblue" points="247.5,-92.8768 251,-102.877 254.5,-92.8769 247.5,-92.8768"/>
</g>
<!-- Box_IGameScreenComponent -->
<g id="node3" class="node"><title>Box_IGameScreenComponent</title>
<polygon fill="#dafcda" stroke="black" points="-0.5,-215 -0.5,-269 292.5,-269 292.5,-215 -0.5,-215"/>
<text text-anchor="middle" x="146" y="-257.8" font-family="Arial" font-size="8.00">IGameScreenComponent</text>
<polyline fill="none" stroke="black" points="-0.5,-251 292.5,-251 "/>
<text text-anchor="start" x="7.5" y="-239.8" font-family="Arial" font-size="8.00">+ Index : DisplayLayer</text>
<polyline fill="none" stroke="black" points="-0.5,-233 292.5,-233 "/>
<text text-anchor="start" x="7.5" y="-221.8" font-family="Arial" font-size="8.00">+ SubComponents (GameTime time) : IEnumerable&lt;IGameScreenComponent&gt;</text>
</g>
<!-- Box_IGameScreenComponent&#45;&gt;Box_GameScreenComponent -->
<g id="edge6" class="edge"><title>Box_IGameScreenComponent&#45;&gt;Box_GameScreenComponent</title>
<path fill="none" stroke="midnightblue" d="M181.065,-207.937C191.229,-198.063 202.378,-187.233 212.728,-177.178"/>
<polygon fill="none" stroke="midnightblue" points="178.596,-205.455 173.862,-214.934 183.474,-210.476 178.596,-205.455"/>
</g>
<!-- Box_XnaGameComponent -->
<g id="node4" class="node"><title>Box_XnaGameComponent</title>
<polygon fill="#ffffff" stroke="black" points="309.5,-233 309.5,-251 404.5,-251 404.5,-233 309.5,-233"/>
<text text-anchor="middle" x="357" y="-239.8" font-family="Arial" font-size="8.00">Xna.GameComponent</text>
</g>
<!-- Box_XnaGameComponent&#45;&gt;Box_GameScreenComponent -->
<g id="edge4" class="edge"><title>Box_XnaGameComponent&#45;&gt;Box_GameScreenComponent</title>
<path fill="none" stroke="midnightblue" d="M340.37,-225.998C326.786,-212.926 307.044,-193.929 289.568,-177.113"/>
<polygon fill="none" stroke="midnightblue" points="337.961,-228.536 347.593,-232.948 342.814,-223.492 337.961,-228.536"/>
</g>
<!-- Box_XnaIGameComponent -->
<g id="node5" class="node"><title>Box_XnaIGameComponent</title>
<polygon fill="#ffffff" stroke="black" points="98,-307 98,-325 194,-325 194,-307 98,-307"/>
<text text-anchor="middle" x="146" y="-313.8" font-family="Arial" font-size="8.00">Xna.IGameComponent</text>
</g>
<!-- Box_XnaIGameComponent&#45;&gt;Box_IGameScreenComponent -->
<g id="edge8" class="edge"><title>Box_XnaIGameComponent&#45;&gt;Box_IGameScreenComponent</title>
<path fill="none" stroke="midnightblue" d="M146,-296.64C146,-288.2 146,-278.16 146,-269.004"/>
<polygon fill="none" stroke="midnightblue" points="142.5,-296.926 146,-306.926 149.5,-296.926 142.5,-296.926"/>
</g>
</g>
</svg>
