<?xml version="1.0" encoding="UTF-8" standalone="no"?>
<!DOCTYPE svg PUBLIC "-//W3C//DTD SVG 1.1//EN"
 "http://www.w3.org/Graphics/SVG/1.1/DTD/svg11.dtd">
<!-- Generated by graphviz version 2.26.3 (20100126.1600)
 -->
<!-- Title: MenuItem Pages: 1 -->
<svg width="2208pt" height="902pt"
 viewBox="0.00 0.00 2208.00 902.00" xmlns="http://www.w3.org/2000/svg" xmlns:xlink="http://www.w3.org/1999/xlink">
<g id="graph1" class="graph" transform="scale(1 1) rotate(0) translate(4 898)">
<title>MenuItem</title>
<polygon fill="white" stroke="white" points="-4,5 -4,-898 2205,-898 2205,5 -4,5"/>
<!-- Box_IGameObject -->
<g id="node1" class="node"><title>Box_IGameObject</title>
<polygon fill="#dafcda" stroke="black" points="876,-761 876,-893 1052,-893 1052,-761 876,-761"/>
<text text-anchor="middle" x="964" y="-881.8" font-family="Helvetica,sans-Serif" font-size="8.00">IGameObject</text>
<polyline fill="none" stroke="black" points="876,-873 1052,-873 "/>
<text text-anchor="start" x="884" y="-861.8" font-family="Helvetica,sans-Serif" font-size="8.00">Attributes:</text>
<text text-anchor="start" x="884" y="-849.8" font-family="Helvetica,sans-Serif" font-size="8.00">+ Info : GameObjectInfo</text>
<text text-anchor="start" x="884" y="-837.8" font-family="Helvetica,sans-Serif" font-size="8.00">+ World : World</text>
<text text-anchor="start" x="884" y="-825.8" font-family="Helvetica,sans-Serif" font-size="8.00">Methods:</text>
<polyline fill="none" stroke="black" points="876,-817 1052,-817 "/>
<text text-anchor="start" x="884" y="-805.8" font-family="Helvetica,sans-Serif" font-size="8.00">+ Draw (GameTime gameTime)</text>
<text text-anchor="start" x="884" y="-793.8" font-family="Helvetica,sans-Serif" font-size="8.00">+ Update (GameTime gameTime)</text>
<text text-anchor="start" x="884" y="-781.8" font-family="Helvetica,sans-Serif" font-size="8.00">+ Intersects (Ray ray) : GameObjectDistance</text>
<text text-anchor="start" x="884" y="-769.8" font-family="Helvetica,sans-Serif" font-size="8.00">+ Center () : Vector3</text>
</g>
<!-- Box_GameModel -->
<g id="node2" class="node"><title>Box_GameModel</title>
<polygon fill="#fcfcda" stroke="black" points="1549,-351 1549,-723 1761,-723 1761,-351 1549,-351"/>
<text text-anchor="middle" x="1655" y="-711.8" font-family="Helvetica,sans-Serif" font-size="8.00">GameModel</text>
<polyline fill="none" stroke="black" points="1549,-703 1761,-703 "/>
<text text-anchor="start" x="1557" y="-691.8" font-family="Helvetica,sans-Serif" font-size="8.00">Attributes:</text>
<text text-anchor="start" x="1557" y="-679.8" font-family="Helvetica,sans-Serif" font-size="8.00">&#45; IGameObject.Info : GameObjectInfo</text>
<text text-anchor="start" x="1557" y="-667.8" font-family="Helvetica,sans-Serif" font-size="8.00">&#45; _rotation : Angles3</text>
<text text-anchor="start" x="1557" y="-655.8" font-family="Helvetica,sans-Serif" font-size="8.00">&#45; Bounds : BoundingSphere[]</text>
<text text-anchor="start" x="1557" y="-643.8" font-family="Helvetica,sans-Serif" font-size="8.00">&#45; _bounds : BoundingSphere[]</text>
<text text-anchor="start" x="1557" y="-631.8" font-family="Helvetica,sans-Serif" font-size="8.00">&#45; _worldMatrix : Matrix</text>
<text text-anchor="start" x="1557" y="-619.8" font-family="Helvetica,sans-Serif" font-size="8.00">&#45; _position : Vector3</text>
<text text-anchor="start" x="1557" y="-607.8" font-family="Helvetica,sans-Serif" font-size="8.00">&#45; _inFrustum : bool</text>
<text text-anchor="start" x="1557" y="-595.8" font-family="Helvetica,sans-Serif" font-size="8.00"># InCameraFrustum : bool</text>
<text text-anchor="start" x="1557" y="-583.8" font-family="Helvetica,sans-Serif" font-size="8.00">+ BaseColor : Color</text>
<text text-anchor="start" x="1557" y="-571.8" font-family="Helvetica,sans-Serif" font-size="8.00">+ HighlightColor : Color</text>
<text text-anchor="start" x="1557" y="-559.8" font-family="Helvetica,sans-Serif" font-size="8.00">+ Info : GameModelInfo</text>
<text text-anchor="start" x="1557" y="-547.8" font-family="Helvetica,sans-Serif" font-size="8.00">+ WorldMatrix : Matrix</text>
<text text-anchor="start" x="1557" y="-535.8" font-family="Helvetica,sans-Serif" font-size="8.00">+ World : World</text>
<text text-anchor="start" x="1557" y="-523.8" font-family="Helvetica,sans-Serif" font-size="8.00">+ Alpha : float</text>
<text text-anchor="start" x="1557" y="-511.8" font-family="Helvetica,sans-Serif" font-size="8.00">+ HighlightIntensity : float</text>
<text text-anchor="start" x="1557" y="-499.8" font-family="Helvetica,sans-Serif" font-size="8.00">&#45; _scale : Vector3</text>
<text text-anchor="start" x="1557" y="-487.8" font-family="Helvetica,sans-Serif" font-size="8.00">&#45; _world : World</text>
<text text-anchor="start" x="1557" y="-475.8" font-family="Helvetica,sans-Serif" font-size="8.00"># state : GameState</text>
<text text-anchor="start" x="1557" y="-463.8" font-family="Helvetica,sans-Serif" font-size="8.00">+ Model : Model virtual</text>
<text text-anchor="start" x="1557" y="-451.8" font-family="Helvetica,sans-Serif" font-size="8.00">Methods:</text>
<polyline fill="none" stroke="black" points="1549,-443 1761,-443 "/>
<text text-anchor="start" x="1557" y="-431.8" font-family="Helvetica,sans-Serif" font-size="8.00">&#45; OnViewChanged ()</text>
<text text-anchor="start" x="1557" y="-419.8" font-family="Helvetica,sans-Serif" font-size="8.00">&#45; UpdatePrecomputed ()</text>
<text text-anchor="start" x="1557" y="-407.8" font-family="Helvetica,sans-Serif" font-size="8.00">+ GameModel (GameState state, GameModelInfo info)</text>
<text text-anchor="start" x="1557" y="-395.8" font-family="Helvetica,sans-Serif" font-size="8.00">+ Draw (GameTime gameTime) virtual</text>
<text text-anchor="start" x="1557" y="-383.8" font-family="Helvetica,sans-Serif" font-size="8.00">+ Center () : Vector3</text>
<text text-anchor="start" x="1557" y="-371.8" font-family="Helvetica,sans-Serif" font-size="8.00">+ Intersects (Ray ray) : GameObjectDistance virtual</text>
<text text-anchor="start" x="1557" y="-359.8" font-family="Helvetica,sans-Serif" font-size="8.00">+ Update (GameTime gameTime) virtual</text>
</g>
<!-- Box_IGameObject&#45;&gt;Box_GameModel -->
<g id="edge2" class="edge"><title>Box_IGameObject&#45;&gt;Box_GameModel</title>
<path fill="none" stroke="midnightblue" d="M1062.32,-818.4C1158.94,-806.946 1308.55,-781.033 1426,-724 1469.75,-702.756 1512.48,-671.62 1548.96,-640.826"/>
<polygon fill="none" stroke="midnightblue" points="1061.8,-814.937 1052.27,-819.563 1062.6,-821.891 1061.8,-814.937"/>
</g>
<!-- Box_KnotRenderer -->
<g id="node7" class="node"><title>Box_KnotRenderer</title>
<polygon fill="#fcfcda" stroke="black" points="245,-447 245,-627 451,-627 451,-447 245,-447"/>
<text text-anchor="middle" x="348" y="-615.8" font-family="Helvetica,sans-Serif" font-size="8.00">KnotRenderer</text>
<polyline fill="none" stroke="black" points="245,-607 451,-607 "/>
<text text-anchor="start" x="253" y="-595.8" font-family="Helvetica,sans-Serif" font-size="8.00">Attributes:</text>
<text text-anchor="start" x="253" y="-583.8" font-family="Helvetica,sans-Serif" font-size="8.00">+ World : World abstract</text>
<text text-anchor="start" x="253" y="-571.8" font-family="Helvetica,sans-Serif" font-size="8.00"># state : GameState</text>
<text text-anchor="start" x="253" y="-559.8" font-family="Helvetica,sans-Serif" font-size="8.00">+ Info : GameObjectInfo abstract</text>
<text text-anchor="start" x="253" y="-547.8" font-family="Helvetica,sans-Serif" font-size="8.00">Methods:</text>
<polyline fill="none" stroke="black" points="245,-539 451,-539 "/>
<text text-anchor="start" x="253" y="-527.8" font-family="Helvetica,sans-Serif" font-size="8.00"># nodeMap () : NodeMap</text>
<text text-anchor="start" x="253" y="-515.8" font-family="Helvetica,sans-Serif" font-size="8.00">+ Intersects (Ray ray) : GameObjectDistance abstract</text>
<text text-anchor="start" x="253" y="-503.8" font-family="Helvetica,sans-Serif" font-size="8.00">+ Center () : Vector3 abstract</text>
<text text-anchor="start" x="253" y="-491.8" font-family="Helvetica,sans-Serif" font-size="8.00">+ Draw (GameTime gameTime) abstract</text>
<text text-anchor="start" x="253" y="-479.8" font-family="Helvetica,sans-Serif" font-size="8.00">+ KnotRenderer (GameState state)</text>
<text text-anchor="start" x="253" y="-467.8" font-family="Helvetica,sans-Serif" font-size="8.00">+ Update (GameTime gameTime) abstract</text>
<text text-anchor="start" x="253" y="-455.8" font-family="Helvetica,sans-Serif" font-size="8.00">+ OnEdgesChanged (EdgeList edges) virtual</text>
</g>
<!-- Box_IGameObject&#45;&gt;Box_KnotRenderer -->
<g id="edge14" class="edge"><title>Box_IGameObject&#45;&gt;Box_KnotRenderer</title>
<path fill="none" stroke="midnightblue" d="M865.594,-816.385C737.965,-801.029 524.079,-769.397 460,-724 426.188,-700.045 400.809,-662.37 382.837,-627.095"/>
<polygon fill="none" stroke="midnightblue" points="865.425,-819.89 875.768,-817.597 866.253,-812.939 865.425,-819.89"/>
</g>
<!-- Box_MovableGameObject -->
<g id="node11" class="node"><title>Box_MovableGameObject</title>
<polygon fill="#fcfcda" stroke="black" points="1166.5,-435 1166.5,-639 1417.5,-639 1417.5,-435 1166.5,-435"/>
<text text-anchor="middle" x="1292" y="-627.8" font-family="Helvetica,sans-Serif" font-size="8.00">MovableGameObject</text>
<polyline fill="none" stroke="black" points="1166.5,-619 1417.5,-619 "/>
<text text-anchor="start" x="1174.5" y="-607.8" font-family="Helvetica,sans-Serif" font-size="8.00">Attributes:</text>
<text text-anchor="start" x="1174.5" y="-595.8" font-family="Helvetica,sans-Serif" font-size="8.00">&#45; Obj : IGameObject</text>
<text text-anchor="start" x="1174.5" y="-583.8" font-family="Helvetica,sans-Serif" font-size="8.00">+ World : World</text>
<text text-anchor="start" x="1174.5" y="-571.8" font-family="Helvetica,sans-Serif" font-size="8.00">&#45; state : GameState</text>
<text text-anchor="start" x="1174.5" y="-559.8" font-family="Helvetica,sans-Serif" font-size="8.00">+ Info : GameObjectInfo</text>
<text text-anchor="start" x="1174.5" y="-547.8" font-family="Helvetica,sans-Serif" font-size="8.00">Methods:</text>
<polyline fill="none" stroke="black" points="1166.5,-539 1417.5,-539 "/>
<text text-anchor="start" x="1174.5" y="-527.8" font-family="Helvetica,sans-Serif" font-size="8.00"># CurrentGroundPlane () : Plane</text>
<text text-anchor="start" x="1174.5" y="-515.8" font-family="Helvetica,sans-Serif" font-size="8.00">+ MovableGameObject (GameState state, IGameObject obj)</text>
<text text-anchor="start" x="1174.5" y="-503.8" font-family="Helvetica,sans-Serif" font-size="8.00">+ Update (GameTime gameTime) virtual</text>
<text text-anchor="start" x="1174.5" y="-491.8" font-family="Helvetica,sans-Serif" font-size="8.00"># CurrentMouseRay () : Ray</text>
<text text-anchor="start" x="1174.5" y="-479.8" font-family="Helvetica,sans-Serif" font-size="8.00"># CurrentMousePosition (Ray ray, Plane groundPlane) : Vector3?</text>
<text text-anchor="start" x="1174.5" y="-467.8" font-family="Helvetica,sans-Serif" font-size="8.00">+ Intersects (Ray ray) : GameObjectDistance</text>
<text text-anchor="start" x="1174.5" y="-455.8" font-family="Helvetica,sans-Serif" font-size="8.00">+ Center () : Vector3</text>
<text text-anchor="start" x="1174.5" y="-443.8" font-family="Helvetica,sans-Serif" font-size="8.00">+ Draw (GameTime gameTime)</text>
</g>
<!-- Box_IGameObject&#45;&gt;Box_MovableGameObject -->
<g id="edge26" class="edge"><title>Box_IGameObject&#45;&gt;Box_MovableGameObject</title>
<path fill="none" stroke="midnightblue" d="M1061.62,-786.199C1094.33,-769.767 1129.66,-748.781 1158,-724 1185.66,-699.811 1210.75,-668.857 1231.53,-639.124"/>
<polygon fill="none" stroke="midnightblue" points="1059.88,-783.15 1052.46,-790.712 1062.98,-789.427 1059.88,-783.15"/>
</g>
<!-- Box_PipeMovement -->
<g id="node12" class="node"><title>Box_PipeMovement</title>
<polygon fill="#fcfcda" stroke="black" points="713.5,-1 713.5,-313 1050.5,-313 1050.5,-1 713.5,-1"/>
<text text-anchor="middle" x="882" y="-301.8" font-family="Helvetica,sans-Serif" font-size="8.00">PipeMovement</text>
<polyline fill="none" stroke="black" points="713.5,-293 1050.5,-293 "/>
<text text-anchor="start" x="721.5" y="-281.8" font-family="Helvetica,sans-Serif" font-size="8.00">Attributes:</text>
<text text-anchor="start" x="721.5" y="-269.8" font-family="Helvetica,sans-Serif" font-size="8.00">&#45; shadowObjects : List&lt;ShadowGameObject&gt;</text>
<text text-anchor="start" x="721.5" y="-257.8" font-family="Helvetica,sans-Serif" font-size="8.00">+ World : World</text>
<text text-anchor="start" x="721.5" y="-245.8" font-family="Helvetica,sans-Serif" font-size="8.00">&#45; state : GameState</text>
<text text-anchor="start" x="721.5" y="-233.8" font-family="Helvetica,sans-Serif" font-size="8.00">&#45; previousMousePosition : Vector3</text>
<text text-anchor="start" x="721.5" y="-221.8" font-family="Helvetica,sans-Serif" font-size="8.00">+ Info : GameObjectInfo</text>
<text text-anchor="start" x="721.5" y="-209.8" font-family="Helvetica,sans-Serif" font-size="8.00">+ Knot : Knot</text>
<text text-anchor="start" x="721.5" y="-197.8" font-family="Helvetica,sans-Serif" font-size="8.00">Methods:</text>
<polyline fill="none" stroke="black" points="713.5,-189 1050.5,-189 "/>
<text text-anchor="start" x="721.5" y="-177.8" font-family="Helvetica,sans-Serif" font-size="8.00">&#45; knownEdgeLists () : HashSet&lt;EdgeList&gt;</text>
<text text-anchor="start" x="721.5" y="-165.8" font-family="Helvetica,sans-Serif" font-size="8.00">&#45; IEnumerable.GetEnumerator () : IEnumerator</text>
<text text-anchor="start" x="721.5" y="-153.8" font-family="Helvetica,sans-Serif" font-size="8.00">&#45; ComputeDirection (Vector3 currentMousePosition, out Vector3 direction, out float count)</text>
<text text-anchor="start" x="721.5" y="-141.8" font-family="Helvetica,sans-Serif" font-size="8.00">&#45; MovePipes (Vector3 currentMousePosition)</text>
<text text-anchor="start" x="721.5" y="-129.8" font-family="Helvetica,sans-Serif" font-size="8.00">+ Intersects (Ray ray) : GameObjectDistance</text>
<text text-anchor="start" x="721.5" y="-117.8" font-family="Helvetica,sans-Serif" font-size="8.00">+ GetEnumerator () : IEnumerator&lt;IGameObject&gt;</text>
<text text-anchor="start" x="721.5" y="-105.8" font-family="Helvetica,sans-Serif" font-size="8.00">+ PipeMovement (GameState state, World world, GameObjectInfo info)</text>
<text text-anchor="start" x="721.5" y="-93.8" font-family="Helvetica,sans-Serif" font-size="8.00">+ Draw (GameTime gameTime)</text>
<text text-anchor="start" x="721.5" y="-81.8" font-family="Helvetica,sans-Serif" font-size="8.00">&#45; ComputeDirection (Vector3 currentMousePosition, out Vector3 direction, out int countInt)</text>
<text text-anchor="start" x="721.5" y="-69.8" font-family="Helvetica,sans-Serif" font-size="8.00">&#45; CreateShadowPipes ()</text>
<text text-anchor="start" x="721.5" y="-57.8" font-family="Helvetica,sans-Serif" font-size="8.00">&#45; MoveShadowPipes (Vector3 currentMousePosition)</text>
<text text-anchor="start" x="721.5" y="-45.8" font-family="Helvetica,sans-Serif" font-size="8.00">&#45; TryMovePipes (GameTime gameTime)</text>
<text text-anchor="start" x="721.5" y="-33.8" font-family="Helvetica,sans-Serif" font-size="8.00">&#45; TrySelectObject (GameTime gameTime)</text>
<text text-anchor="start" x="721.5" y="-21.8" font-family="Helvetica,sans-Serif" font-size="8.00">+ Center () : Vector3</text>
<text text-anchor="start" x="721.5" y="-9.8" font-family="Helvetica,sans-Serif" font-size="8.00">+ Update (GameTime gameTime)</text>
</g>
<!-- Box_IGameObject&#45;&gt;Box_PipeMovement -->
<g id="edge28" class="edge"><title>Box_IGameObject&#45;&gt;Box_PipeMovement</title>
<path fill="none" stroke="midnightblue" d="M921.578,-751.62C917.778,-742.523 914.448,-733.195 912,-724 892.14,-649.402 885.352,-453.845 883.074,-313.263"/>
<polygon fill="none" stroke="midnightblue" points="918.469,-753.247 925.691,-761 924.88,-750.436 918.469,-753.247"/>
</g>
<!-- Box_ShadowGameObject -->
<g id="node13" class="node"><title>Box_ShadowGameObject</title>
<polygon fill="#fcfcda" stroke="black" points="920.5,-441 920.5,-633 1149.5,-633 1149.5,-441 920.5,-441"/>
<text text-anchor="middle" x="1035" y="-621.8" font-family="Helvetica,sans-Serif" font-size="8.00">ShadowGameObject</text>
<polyline fill="none" stroke="black" points="920.5,-613 1149.5,-613 "/>
<text text-anchor="start" x="928.5" y="-601.8" font-family="Helvetica,sans-Serif" font-size="8.00">Attributes:</text>
<text text-anchor="start" x="928.5" y="-589.8" font-family="Helvetica,sans-Serif" font-size="8.00">&#45; Obj : IGameObject</text>
<text text-anchor="start" x="928.5" y="-577.8" font-family="Helvetica,sans-Serif" font-size="8.00">+ Info : GameObjectInfo</text>
<text text-anchor="start" x="928.5" y="-565.8" font-family="Helvetica,sans-Serif" font-size="8.00">+ OriginalPosition : Vector3</text>
<text text-anchor="start" x="928.5" y="-553.8" font-family="Helvetica,sans-Serif" font-size="8.00">+ World : World</text>
<text text-anchor="start" x="928.5" y="-541.8" font-family="Helvetica,sans-Serif" font-size="8.00"># state : GameState</text>
<text text-anchor="start" x="928.5" y="-529.8" font-family="Helvetica,sans-Serif" font-size="8.00">+ ShadowPosition : Vector3</text>
<text text-anchor="start" x="928.5" y="-517.8" font-family="Helvetica,sans-Serif" font-size="8.00">Methods:</text>
<polyline fill="none" stroke="black" points="920.5,-509 1149.5,-509 "/>
<text text-anchor="start" x="928.5" y="-497.8" font-family="Helvetica,sans-Serif" font-size="8.00">+ Update (GameTime gameTime) virtual</text>
<text text-anchor="start" x="928.5" y="-485.8" font-family="Helvetica,sans-Serif" font-size="8.00">+ Intersects (Ray ray) : GameObjectDistance</text>
<text text-anchor="start" x="928.5" y="-473.8" font-family="Helvetica,sans-Serif" font-size="8.00">+ ShadowGameObject (GameState state, IGameObject obj)</text>
<text text-anchor="start" x="928.5" y="-461.8" font-family="Helvetica,sans-Serif" font-size="8.00">+ Center () : Vector3</text>
<text text-anchor="start" x="928.5" y="-449.8" font-family="Helvetica,sans-Serif" font-size="8.00">+ Draw (GameTime gameTime) virtual</text>
</g>
<!-- Box_IGameObject&#45;&gt;Box_ShadowGameObject -->
<g id="edge32" class="edge"><title>Box_IGameObject&#45;&gt;Box_ShadowGameObject</title>
<path fill="none" stroke="midnightblue" d="M982.638,-750.875C991.46,-714.84 1002.09,-671.414 1011.46,-633.133"/>
<polygon fill="none" stroke="midnightblue" points="979.178,-750.286 980.2,-760.832 985.978,-751.951 979.178,-750.286"/>
</g>
<!-- Box_TexturedRectangle -->
<g id="node15" class="node"><title>Box_TexturedRectangle</title>
<polygon fill="#fcfcda" stroke="black" points="468.5,-375 468.5,-699 729.5,-699 729.5,-375 468.5,-375"/>
<text text-anchor="middle" x="599" y="-687.8" font-family="Helvetica,sans-Serif" font-size="8.00">TexturedRectangle</text>
<polyline fill="none" stroke="black" points="468.5,-679 729.5,-679 "/>
<text text-anchor="start" x="476.5" y="-667.8" font-family="Helvetica,sans-Serif" font-size="8.00">Attributes:</text>
<text text-anchor="start" x="476.5" y="-655.8" font-family="Helvetica,sans-Serif" font-size="8.00">&#45; IGameObject.Info : GameObjectInfo</text>
<text text-anchor="start" x="476.5" y="-643.8" font-family="Helvetica,sans-Serif" font-size="8.00">&#45; basicEffect : BasicEffect</text>
<text text-anchor="start" x="476.5" y="-631.8" font-family="Helvetica,sans-Serif" font-size="8.00">&#45; texture : Texture2D</text>
<text text-anchor="start" x="476.5" y="-619.8" font-family="Helvetica,sans-Serif" font-size="8.00">&#45; LowerLeft : Vector3</text>
<text text-anchor="start" x="476.5" y="-607.8" font-family="Helvetica,sans-Serif" font-size="8.00">&#45; LowerRight : Vector3</text>
<text text-anchor="start" x="476.5" y="-595.8" font-family="Helvetica,sans-Serif" font-size="8.00">&#45; Normal : Vector3</text>
<text text-anchor="start" x="476.5" y="-583.8" font-family="Helvetica,sans-Serif" font-size="8.00">&#45; UpperRight : Vector3</text>
<text text-anchor="start" x="476.5" y="-571.8" font-family="Helvetica,sans-Serif" font-size="8.00">&#45; Vertices : VertexPositionNormalTexture[]</text>
<text text-anchor="start" x="476.5" y="-559.8" font-family="Helvetica,sans-Serif" font-size="8.00">&#45; Indexes : short[]</text>
<text text-anchor="start" x="476.5" y="-547.8" font-family="Helvetica,sans-Serif" font-size="8.00">+ Info : TexturedRectangleInfo</text>
<text text-anchor="start" x="476.5" y="-535.8" font-family="Helvetica,sans-Serif" font-size="8.00">&#45; UpperLeft : Vector3</text>
<text text-anchor="start" x="476.5" y="-523.8" font-family="Helvetica,sans-Serif" font-size="8.00"># state : GameState</text>
<text text-anchor="start" x="476.5" y="-511.8" font-family="Helvetica,sans-Serif" font-size="8.00">+ World : World</text>
<text text-anchor="start" x="476.5" y="-499.8" font-family="Helvetica,sans-Serif" font-size="8.00">Methods:</text>
<polyline fill="none" stroke="black" points="468.5,-491 729.5,-491 "/>
<text text-anchor="start" x="476.5" y="-479.8" font-family="Helvetica,sans-Serif" font-size="8.00">&#45; Length () : Vector3</text>
<text text-anchor="start" x="476.5" y="-467.8" font-family="Helvetica,sans-Serif" font-size="8.00">&#45; FillVertices ()</text>
<text text-anchor="start" x="476.5" y="-455.8" font-family="Helvetica,sans-Serif" font-size="8.00">+ Intersects (Ray ray) : GameObjectDistance</text>
<text text-anchor="start" x="476.5" y="-443.8" font-family="Helvetica,sans-Serif" font-size="8.00">+ TexturedRectangle (GameState state, TexturedRectangleInfo info)</text>
<text text-anchor="start" x="476.5" y="-431.8" font-family="Helvetica,sans-Serif" font-size="8.00">+ Draw (GameTime gameTime)</text>
<text text-anchor="start" x="476.5" y="-419.8" font-family="Helvetica,sans-Serif" font-size="8.00"># SetPosition (Vector3 position)</text>
<text text-anchor="start" x="476.5" y="-407.8" font-family="Helvetica,sans-Serif" font-size="8.00">+ Bounds () : BoundingBox[]</text>
<text text-anchor="start" x="476.5" y="-395.8" font-family="Helvetica,sans-Serif" font-size="8.00">+ Center () : Vector3</text>
<text text-anchor="start" x="476.5" y="-383.8" font-family="Helvetica,sans-Serif" font-size="8.00">+ Update (GameTime gameTime)</text>
</g>
<!-- Box_IGameObject&#45;&gt;Box_TexturedRectangle -->
<g id="edge36" class="edge"><title>Box_IGameObject&#45;&gt;Box_TexturedRectangle</title>
<path fill="none" stroke="midnightblue" d="M866.394,-795.03C824.138,-778.164 775.806,-754.548 738,-724 728.561,-716.373 719.425,-707.965 710.651,-699.065"/>
<polygon fill="none" stroke="midnightblue" points="865.283,-798.354 875.871,-798.741 867.835,-791.836 865.283,-798.354"/>
</g>
<!-- Box_ArrowModel -->
<g id="node3" class="node"><title>Box_ArrowModel</title>
<polygon fill="#fcfcda" stroke="black" points="1322,-97 1322,-217 1534,-217 1534,-97 1322,-97"/>
<text text-anchor="middle" x="1428" y="-205.8" font-family="Helvetica,sans-Serif" font-size="8.00">ArrowModel</text>
<polyline fill="none" stroke="black" points="1322,-197 1534,-197 "/>
<text text-anchor="start" x="1330" y="-185.8" font-family="Helvetica,sans-Serif" font-size="8.00">Attributes:</text>
<text text-anchor="start" x="1330" y="-173.8" font-family="Helvetica,sans-Serif" font-size="8.00">&#45; Bounds : BoundingSphere[]</text>
<text text-anchor="start" x="1330" y="-161.8" font-family="Helvetica,sans-Serif" font-size="8.00">+ Info : ArrowModelInfo</text>
<text text-anchor="start" x="1330" y="-149.8" font-family="Helvetica,sans-Serif" font-size="8.00">Methods:</text>
<polyline fill="none" stroke="black" points="1322,-141 1534,-141 "/>
<text text-anchor="start" x="1330" y="-129.8" font-family="Helvetica,sans-Serif" font-size="8.00">+ ArrowModel (GameState state, ArrowModelInfo info)</text>
<text text-anchor="start" x="1330" y="-117.8" font-family="Helvetica,sans-Serif" font-size="8.00">+ Intersects (Ray ray) : GameObjectDistance</text>
<text text-anchor="start" x="1330" y="-105.8" font-family="Helvetica,sans-Serif" font-size="8.00">+ Draw (GameTime gameTime)</text>
</g>
<!-- Box_GameModel&#45;&gt;Box_ArrowModel -->
<g id="edge4" class="edge"><title>Box_GameModel&#45;&gt;Box_ArrowModel</title>
<path fill="none" stroke="midnightblue" d="M1543.77,-350.802C1514.85,-302.387 1485.73,-253.643 1463.93,-217.151"/>
<polygon fill="none" stroke="midnightblue" points="1540.84,-352.726 1548.98,-359.516 1546.85,-349.137 1540.84,-352.726"/>
</g>
<!-- Box_NodeModel -->
<g id="node4" class="node"><title>Box_NodeModel</title>
<polygon fill="#fcfcda" stroke="black" points="1551.5,-109 1551.5,-205 1758.5,-205 1758.5,-109 1551.5,-109"/>
<text text-anchor="middle" x="1655" y="-193.8" font-family="Helvetica,sans-Serif" font-size="8.00">NodeModel</text>
<polyline fill="none" stroke="black" points="1551.5,-185 1758.5,-185 "/>
<text text-anchor="start" x="1559.5" y="-173.8" font-family="Helvetica,sans-Serif" font-size="8.00">Attributes:</text>
<text text-anchor="start" x="1559.5" y="-161.8" font-family="Helvetica,sans-Serif" font-size="8.00">+ Info : NodeModelInfo</text>
<text text-anchor="start" x="1559.5" y="-149.8" font-family="Helvetica,sans-Serif" font-size="8.00">Methods:</text>
<polyline fill="none" stroke="black" points="1551.5,-141 1758.5,-141 "/>
<text text-anchor="start" x="1559.5" y="-129.8" font-family="Helvetica,sans-Serif" font-size="8.00">+ NodeModel (GameState state, NodeModelInfo info)</text>
<text text-anchor="start" x="1559.5" y="-117.8" font-family="Helvetica,sans-Serif" font-size="8.00">+ Draw (GameTime gameTime)</text>
</g>
<!-- Box_GameModel&#45;&gt;Box_NodeModel -->
<g id="edge6" class="edge"><title>Box_GameModel&#45;&gt;Box_NodeModel</title>
<path fill="none" stroke="midnightblue" d="M1655,-340.776C1655,-290.194 1655,-240.201 1655,-205.157"/>
<polygon fill="none" stroke="midnightblue" points="1651.5,-340.896 1655,-350.896 1658.5,-340.896 1651.5,-340.896"/>
</g>
<!-- Box_PipeModel -->
<g id="node5" class="node"><title>Box_PipeModel</title>
<polygon fill="#fcfcda" stroke="black" points="1776,-91 1776,-223 1976,-223 1976,-91 1776,-91"/>
<text text-anchor="middle" x="1876" y="-211.8" font-family="Helvetica,sans-Serif" font-size="8.00">PipeModel</text>
<polyline fill="none" stroke="black" points="1776,-203 1976,-203 "/>
<text text-anchor="start" x="1784" y="-191.8" font-family="Helvetica,sans-Serif" font-size="8.00">Attributes:</text>
<text text-anchor="start" x="1784" y="-179.8" font-family="Helvetica,sans-Serif" font-size="8.00">&#45; Bounds : BoundingSphere[]</text>
<text text-anchor="start" x="1784" y="-167.8" font-family="Helvetica,sans-Serif" font-size="8.00">+ Info : PipeModelInfo</text>
<text text-anchor="start" x="1784" y="-155.8" font-family="Helvetica,sans-Serif" font-size="8.00">Methods:</text>
<polyline fill="none" stroke="black" points="1776,-147 1976,-147 "/>
<text text-anchor="start" x="1784" y="-135.8" font-family="Helvetica,sans-Serif" font-size="8.00">+ OnDataChange () : Action</text>
<text text-anchor="start" x="1784" y="-123.8" font-family="Helvetica,sans-Serif" font-size="8.00">+ PipeModel (GameState state, PipeModelInfo info)</text>
<text text-anchor="start" x="1784" y="-111.8" font-family="Helvetica,sans-Serif" font-size="8.00">+ Intersects (Ray ray) : GameObjectDistance</text>
<text text-anchor="start" x="1784" y="-99.8" font-family="Helvetica,sans-Serif" font-size="8.00">+ Draw (GameTime gameTime)</text>
</g>
<!-- Box_GameModel&#45;&gt;Box_PipeModel -->
<g id="edge8" class="edge"><title>Box_GameModel&#45;&gt;Box_PipeModel</title>
<path fill="none" stroke="midnightblue" d="M1766.26,-345.695C1791.91,-301.597 1817.5,-257.593 1837.51,-223.185"/>
<polygon fill="none" stroke="midnightblue" points="1763.13,-344.109 1761.13,-354.513 1769.18,-347.628 1763.13,-344.109"/>
</g>
<!-- Box_TestModel -->
<g id="node6" class="node"><title>Box_TestModel</title>
<polygon fill="#fcfcda" stroke="black" points="1994,-115 1994,-199 2200,-199 2200,-115 1994,-115"/>
<text text-anchor="middle" x="2097" y="-187.8" font-family="Helvetica,sans-Serif" font-size="8.00">TestModel</text>
<polyline fill="none" stroke="black" points="1994,-179 2200,-179 "/>
<text text-anchor="start" x="2002" y="-167.8" font-family="Helvetica,sans-Serif" font-size="8.00">Attributes:</text>
<text text-anchor="start" x="2002" y="-155.8" font-family="Helvetica,sans-Serif" font-size="8.00">Methods:</text>
<polyline fill="none" stroke="black" points="1994,-147 2200,-147 "/>
<text text-anchor="start" x="2002" y="-135.8" font-family="Helvetica,sans-Serif" font-size="8.00">+ Update (GameTime gameTime)</text>
<text text-anchor="start" x="2002" y="-123.8" font-family="Helvetica,sans-Serif" font-size="8.00">+ TestModel (GameState state, GameModelInfo info)</text>
</g>
<!-- Box_GameModel&#45;&gt;Box_TestModel -->
<g id="edge10" class="edge"><title>Box_GameModel&#45;&gt;Box_TestModel</title>
<path fill="none" stroke="midnightblue" d="M1770.23,-473.192C1837.27,-432.787 1920.91,-376.479 1985,-314 2020.36,-279.525 2052.16,-232.657 2072.75,-199.122"/>
<polygon fill="none" stroke="midnightblue" points="1768.08,-470.397 1761.3,-478.537 1771.68,-476.402 1768.08,-470.397"/>
</g>
<!-- Box_LineRenderer -->
<g id="node8" class="node"><title>Box_LineRenderer</title>
<polygon fill="#fcfcda" stroke="black" points="0,-61 0,-253 218,-253 218,-61 0,-61"/>
<text text-anchor="middle" x="109" y="-241.8" font-family="Helvetica,sans-Serif" font-size="8.00">LineRenderer</text>
<polyline fill="none" stroke="black" points="0,-233 218,-233 "/>
<text text-anchor="start" x="8" y="-221.8" font-family="Helvetica,sans-Serif" font-size="8.00">Attributes:</text>
<text text-anchor="start" x="8" y="-209.8" font-family="Helvetica,sans-Serif" font-size="8.00">&#45; edges : EdgeList</text>
<text text-anchor="start" x="8" y="-197.8" font-family="Helvetica,sans-Serif" font-size="8.00">&#45; basicEffect : BasicEffect</text>
<text text-anchor="start" x="8" y="-185.8" font-family="Helvetica,sans-Serif" font-size="8.00">+ Info : GameObjectInfo</text>
<text text-anchor="start" x="8" y="-173.8" font-family="Helvetica,sans-Serif" font-size="8.00">+ World : World</text>
<text text-anchor="start" x="8" y="-161.8" font-family="Helvetica,sans-Serif" font-size="8.00">Methods:</text>
<polyline fill="none" stroke="black" points="0,-153 218,-153 "/>
<text text-anchor="start" x="8" y="-141.8" font-family="Helvetica,sans-Serif" font-size="8.00">+ LineRenderer (GameState state, GameObjectInfo info)</text>
<text text-anchor="start" x="8" y="-129.8" font-family="Helvetica,sans-Serif" font-size="8.00">+ OnEdgesChanged (EdgeList edges)</text>
<text text-anchor="start" x="8" y="-117.8" font-family="Helvetica,sans-Serif" font-size="8.00">&#45; DrawRoundedLines ()</text>
<text text-anchor="start" x="8" y="-105.8" font-family="Helvetica,sans-Serif" font-size="8.00">+ Intersects (Ray ray) : GameObjectDistance</text>
<text text-anchor="start" x="8" y="-93.8" font-family="Helvetica,sans-Serif" font-size="8.00">+ Center () : Vector3</text>
<text text-anchor="start" x="8" y="-81.8" font-family="Helvetica,sans-Serif" font-size="8.00">+ Draw (GameTime gameTime)</text>
<text text-anchor="start" x="8" y="-69.8" font-family="Helvetica,sans-Serif" font-size="8.00">+ Update (GameTime gameTime)</text>
</g>
<!-- Box_KnotRenderer&#45;&gt;Box_LineRenderer -->
<g id="edge16" class="edge"><title>Box_KnotRenderer&#45;&gt;Box_LineRenderer</title>
<path fill="none" stroke="midnightblue" d="M285.905,-438.272C250,-381.184 205.027,-309.679 169.411,-253.051"/>
<polygon fill="none" stroke="midnightblue" points="283.074,-440.344 291.36,-446.945 288.999,-436.617 283.074,-440.344"/>
</g>
<!-- Box_ModelRenderer -->
<g id="node9" class="node"><title>Box_ModelRenderer</title>
<polygon fill="#fcfcda" stroke="black" points="235.5,-25 235.5,-289 460.5,-289 460.5,-25 235.5,-25"/>
<text text-anchor="middle" x="348" y="-277.8" font-family="Helvetica,sans-Serif" font-size="8.00">ModelRenderer</text>
<polyline fill="none" stroke="black" points="235.5,-269 460.5,-269 "/>
<text text-anchor="start" x="243.5" y="-257.8" font-family="Helvetica,sans-Serif" font-size="8.00">Attributes:</text>
<text text-anchor="start" x="243.5" y="-245.8" font-family="Helvetica,sans-Serif" font-size="8.00">&#45; arrows : List&lt;ArrowModel&gt;</text>
<text text-anchor="start" x="243.5" y="-233.8" font-family="Helvetica,sans-Serif" font-size="8.00">&#45; nodes : List&lt;NodeModel&gt;</text>
<text text-anchor="start" x="243.5" y="-221.8" font-family="Helvetica,sans-Serif" font-size="8.00">&#45; arrowFactory : ModelFactory</text>
<text text-anchor="start" x="243.5" y="-209.8" font-family="Helvetica,sans-Serif" font-size="8.00">&#45; nodeFactory : ModelFactory</text>
<text text-anchor="start" x="243.5" y="-197.8" font-family="Helvetica,sans-Serif" font-size="8.00">&#45; pipeFactory : ModelFactory</text>
<text text-anchor="start" x="243.5" y="-185.8" font-family="Helvetica,sans-Serif" font-size="8.00">&#45; pipes : List&lt;PipeModel&gt;</text>
<text text-anchor="start" x="243.5" y="-173.8" font-family="Helvetica,sans-Serif" font-size="8.00">+ Info : GameObjectInfo</text>
<text text-anchor="start" x="243.5" y="-161.8" font-family="Helvetica,sans-Serif" font-size="8.00">+ World : World</text>
<text text-anchor="start" x="243.5" y="-149.8" font-family="Helvetica,sans-Serif" font-size="8.00">Methods:</text>
<polyline fill="none" stroke="black" points="235.5,-141 460.5,-141 "/>
<text text-anchor="start" x="243.5" y="-129.8" font-family="Helvetica,sans-Serif" font-size="8.00">&#45; IEnumerable.GetEnumerator () : IEnumerator</text>
<text text-anchor="start" x="243.5" y="-117.8" font-family="Helvetica,sans-Serif" font-size="8.00">+ GetEnumerator () : IEnumerator&lt;IGameObject&gt;</text>
<text text-anchor="start" x="243.5" y="-105.8" font-family="Helvetica,sans-Serif" font-size="8.00">+ ModelRenderer (GameState state, GameObjectInfo info)</text>
<text text-anchor="start" x="243.5" y="-93.8" font-family="Helvetica,sans-Serif" font-size="8.00">+ Draw (GameTime gameTime)</text>
<text text-anchor="start" x="243.5" y="-81.8" font-family="Helvetica,sans-Serif" font-size="8.00">+ OnEdgesChanged (EdgeList edgeList)</text>
<text text-anchor="start" x="243.5" y="-69.8" font-family="Helvetica,sans-Serif" font-size="8.00">+ Intersects (Ray ray) : GameObjectDistance</text>
<text text-anchor="start" x="243.5" y="-57.8" font-family="Helvetica,sans-Serif" font-size="8.00">+ Center () : Vector3</text>
<text text-anchor="start" x="243.5" y="-45.8" font-family="Helvetica,sans-Serif" font-size="8.00">+ Update (GameTime gameTime)</text>
<text text-anchor="start" x="243.5" y="-33.8" font-family="Helvetica,sans-Serif" font-size="8.00">+ CreateArrows (WrapList&lt;Edge&gt; selectedEdges)</text>
</g>
<!-- Box_KnotRenderer&#45;&gt;Box_ModelRenderer -->
<g id="edge18" class="edge"><title>Box_KnotRenderer&#45;&gt;Box_ModelRenderer</title>
<path fill="none" stroke="midnightblue" d="M348,-436.851C348,-391.67 348,-337.682 348,-289.233"/>
<polygon fill="none" stroke="midnightblue" points="344.5,-436.945 348,-446.945 351.5,-436.945 344.5,-436.945"/>
</g>
<!-- Box_PipeRenderer -->
<g id="node10" class="node"><title>Box_PipeRenderer</title>
<polygon fill="#fcfcda" stroke="black" points="477.5,-43 477.5,-271 696.5,-271 696.5,-43 477.5,-43"/>
<text text-anchor="middle" x="587" y="-259.8" font-family="Helvetica,sans-Serif" font-size="8.00">PipeRenderer</text>
<polyline fill="none" stroke="black" points="477.5,-251 696.5,-251 "/>
<text text-anchor="start" x="485.5" y="-239.8" font-family="Helvetica,sans-Serif" font-size="8.00">Attributes:</text>
<text text-anchor="start" x="485.5" y="-227.8" font-family="Helvetica,sans-Serif" font-size="8.00">&#45; nodes : List&lt;NodeModel&gt;</text>
<text text-anchor="start" x="485.5" y="-215.8" font-family="Helvetica,sans-Serif" font-size="8.00">&#45; nodeFactory : ModelFactory</text>
<text text-anchor="start" x="485.5" y="-203.8" font-family="Helvetica,sans-Serif" font-size="8.00">&#45; pipeFactory : ModelFactory</text>
<text text-anchor="start" x="485.5" y="-191.8" font-family="Helvetica,sans-Serif" font-size="8.00">&#45; pipes : List&lt;PipeModel&gt;</text>
<text text-anchor="start" x="485.5" y="-179.8" font-family="Helvetica,sans-Serif" font-size="8.00">+ Info : GameObjectInfo</text>
<text text-anchor="start" x="485.5" y="-167.8" font-family="Helvetica,sans-Serif" font-size="8.00">+ World : World</text>
<text text-anchor="start" x="485.5" y="-155.8" font-family="Helvetica,sans-Serif" font-size="8.00">Methods:</text>
<polyline fill="none" stroke="black" points="477.5,-147 696.5,-147 "/>
<text text-anchor="start" x="485.5" y="-135.8" font-family="Helvetica,sans-Serif" font-size="8.00">&#45; IEnumerable.GetEnumerator () : IEnumerator</text>
<text text-anchor="start" x="485.5" y="-123.8" font-family="Helvetica,sans-Serif" font-size="8.00">+ PipeRenderer (GameState state, GameObjectInfo info)</text>
<text text-anchor="start" x="485.5" y="-111.8" font-family="Helvetica,sans-Serif" font-size="8.00">+ Draw (GameTime gameTime)</text>
<text text-anchor="start" x="485.5" y="-99.8" font-family="Helvetica,sans-Serif" font-size="8.00">+ OnEdgesChanged (EdgeList edges)</text>
<text text-anchor="start" x="485.5" y="-87.8" font-family="Helvetica,sans-Serif" font-size="8.00">+ GetEnumerator () : IEnumerator&lt;IGameObject&gt;</text>
<text text-anchor="start" x="485.5" y="-75.8" font-family="Helvetica,sans-Serif" font-size="8.00">+ Intersects (Ray ray) : GameObjectDistance</text>
<text text-anchor="start" x="485.5" y="-63.8" font-family="Helvetica,sans-Serif" font-size="8.00">+ Center () : Vector3</text>
<text text-anchor="start" x="485.5" y="-51.8" font-family="Helvetica,sans-Serif" font-size="8.00">+ Update (GameTime gameTime)</text>
</g>
<!-- Box_KnotRenderer&#45;&gt;Box_PipeRenderer -->
<g id="edge22" class="edge"><title>Box_KnotRenderer&#45;&gt;Box_PipeRenderer</title>
<path fill="none" stroke="midnightblue" d="M406.303,-437.882C423.365,-409.362 442.215,-378.316 460,-350 476.16,-324.27 493.877,-296.869 510.813,-271.038"/>
<polygon fill="none" stroke="midnightblue" points="403.191,-436.265 401.068,-446.645 409.201,-439.855 403.191,-436.265"/>
</g>
<!-- Box_ShadowGameModel -->
<g id="node14" class="node"><title>Box_ShadowGameModel</title>
<polygon fill="#fcfcda" stroke="black" points="1068,-97 1068,-217 1304,-217 1304,-97 1068,-97"/>
<text text-anchor="middle" x="1186" y="-205.8" font-family="Helvetica,sans-Serif" font-size="8.00">ShadowGameModel</text>
<polyline fill="none" stroke="black" points="1068,-197 1304,-197 "/>
<text text-anchor="start" x="1076" y="-185.8" font-family="Helvetica,sans-Serif" font-size="8.00">Attributes:</text>
<text text-anchor="start" x="1076" y="-173.8" font-family="Helvetica,sans-Serif" font-size="8.00">+ ShadowColor : Color</text>
<text text-anchor="start" x="1076" y="-161.8" font-family="Helvetica,sans-Serif" font-size="8.00">&#45; Model : GameModel</text>
<text text-anchor="start" x="1076" y="-149.8" font-family="Helvetica,sans-Serif" font-size="8.00">+ ShadowAlpha : float</text>
<text text-anchor="start" x="1076" y="-137.8" font-family="Helvetica,sans-Serif" font-size="8.00">Methods:</text>
<polyline fill="none" stroke="black" points="1068,-129 1304,-129 "/>
<text text-anchor="start" x="1076" y="-117.8" font-family="Helvetica,sans-Serif" font-size="8.00">+ ShadowGameModel (GameState state, GameModel model)</text>
<text text-anchor="start" x="1076" y="-105.8" font-family="Helvetica,sans-Serif" font-size="8.00">+ Draw (GameTime gameTime)</text>
</g>
<!-- Box_ShadowGameObject&#45;&gt;Box_ShadowGameModel -->
<g id="edge34" class="edge"><title>Box_ShadowGameObject&#45;&gt;Box_ShadowGameModel</title>
<path fill="none" stroke="midnightblue" d="M1077.12,-431.003C1104.56,-361.951 1139.36,-274.363 1162.14,-217.055"/>
<polygon fill="none" stroke="midnightblue" points="1073.74,-430.033 1073.3,-440.619 1080.24,-432.618 1073.74,-430.033"/>
</g>
<!-- Box_IEdgeChangeListener -->
<g id="node16" class="node"><title>Box_IEdgeChangeListener</title>
<polygon fill="#ffffff" stroke="black" points="300.5,-817 300.5,-837 395.5,-837 395.5,-817 300.5,-817"/>
<text text-anchor="middle" x="348" y="-825.8" font-family="Helvetica,sans-Serif" font-size="8.00">IEdgeChangeListener</text>
</g>
<!-- Box_IEdgeChangeListener&#45;&gt;Box_KnotRenderer -->
<g id="edge12" class="edge"><title>Box_IEdgeChangeListener&#45;&gt;Box_KnotRenderer</title>
<path fill="none" stroke="midnightblue" d="M348,-806.255C348,-769.358 348,-690.287 348,-627.328"/>
<polygon fill="none" stroke="midnightblue" points="344.5,-806.679 348,-816.679 351.5,-806.679 344.5,-806.679"/>
</g>
<!-- Box_IEnumerable -->
<g id="node17" class="node"><title>Box_IEnumerable</title>
<polygon fill="#ffffff" stroke="black" points="747,-527 747,-547 865,-547 865,-527 747,-527"/>
<text text-anchor="middle" x="806" y="-535.8" font-family="Helvetica,sans-Serif" font-size="8.00">IEnumerable&lt;IGameObject&gt;</text>
</g>
<!-- Box_IEnumerable&#45;&gt;Box_ModelRenderer -->
<g id="edge20" class="edge"><title>Box_IEnumerable&#45;&gt;Box_ModelRenderer</title>
<path fill="none" stroke="midnightblue" d="M805.148,-516.717C802.325,-477.619 790.178,-391.982 738,-350 644.021,-274.386 573.461,-374.312 469,-314 457.228,-307.203 446.208,-298.766 435.989,-289.357"/>
<polygon fill="none" stroke="midnightblue" points="801.663,-517.07 805.741,-526.849 808.651,-516.661 801.663,-517.07"/>
</g>
<!-- Box_IEnumerable&#45;&gt;Box_PipeRenderer -->
<g id="edge24" class="edge"><title>Box_IEnumerable&#45;&gt;Box_PipeRenderer</title>
<path fill="none" stroke="midnightblue" d="M801.368,-516.516C792.701,-480.817 771.794,-405.698 738,-350 726.741,-331.443 718.87,-330.695 705,-314 693.67,-300.362 682.074,-285.787 670.787,-271.217"/>
<polygon fill="none" stroke="midnightblue" points="798.054,-517.715 803.753,-526.647 804.868,-516.111 798.054,-517.715"/>
</g>
<!-- Box_IEnumerable&#45;&gt;Box_PipeMovement -->
<g id="edge30" class="edge"><title>Box_IEnumerable&#45;&gt;Box_PipeMovement</title>
<path fill="none" stroke="midnightblue" d="M810.005,-516.977C817.656,-478.719 834.996,-392.022 850.74,-313.3"/>
<polygon fill="none" stroke="midnightblue" points="806.562,-516.344 808.033,-526.836 813.426,-517.717 806.562,-516.344"/>
</g>
</g>
</svg>
