<?xml version="1.0" encoding="UTF-8" standalone="no"?>
<!DOCTYPE svg PUBLIC "-//W3C//DTD SVG 1.1//EN"
 "http://www.w3.org/Graphics/SVG/1.1/DTD/svg11.dtd">
<!-- Generated by graphviz version 2.26.3 (20100126.1600)
 -->
<!-- Title: MenuItem Pages: 1 -->
<svg width="628pt" height="534pt"
 viewBox="0.00 0.00 628.00 534.00" xmlns="http://www.w3.org/2000/svg" xmlns:xlink="http://www.w3.org/1999/xlink">
<g id="graph1" class="graph" transform="scale(1 1) rotate(0) translate(4 530)">
<title>MenuItem</title>
<polygon fill="white" stroke="white" points="-4,5 -4,-530 625,-530 625,5 -4,5"/>
<!-- Box_TextInput -->
<g id="node1" class="node"><title>Box_TextInput</title>
<polygon fill="#fcfcda" stroke="black" points="132,-1 132,-125 424,-125 424,-1 132,-1"/>
<text text-anchor="middle" x="278" y="-113.8" font-family="Arial" font-size="8.00">TextInput</text>
<polyline fill="none" stroke="black" points="132,-107 424,-107 "/>
<text text-anchor="start" x="140" y="-95.8" font-family="Arial" font-size="8.00">&#45; font : SpriteFont</text>
<text text-anchor="start" x="140" y="-85.8" font-family="Arial" font-size="8.00"># spriteBatch : SpriteBatch</text>
<text text-anchor="start" x="140" y="-75.8" font-family="Arial" font-size="8.00">+ IsKeyEventEnabled : bool</text>
<text text-anchor="start" x="140" y="-65.8" font-family="Arial" font-size="8.00">+ ValidKeys : List&lt;Keys&gt;</text>
<text text-anchor="start" x="140" y="-55.8" font-family="Arial" font-size="8.00">+ InputText : string</text>
<polyline fill="none" stroke="black" points="132,-49 424,-49 "/>
<text text-anchor="start" x="140" y="-37.8" font-family="Arial" font-size="8.00">+ TextInput (GameScreen screen, WidgetInfo info, DisplayLayer drawOrder)</text>
<text text-anchor="start" x="140" y="-27.8" font-family="Arial" font-size="8.00">+ Draw (GameTime time)</text>
<text text-anchor="start" x="140" y="-17.8" font-family="Arial" font-size="8.00">+ OnKeyEvent (List&lt;Keys&gt; key, KeyEvent keyEvent, GameTime time)</text>
<text text-anchor="start" x="140" y="-7.8" font-family="Arial" font-size="8.00">+ Update (GameTime time)</text>
</g>
<!-- Box_IKeyEventListener -->
<g id="node2" class="node"><title>Box_IKeyEventListener</title>
<polygon fill="#dafcda" stroke="black" points="-0.5,-163 -0.5,-237 264.5,-237 264.5,-163 -0.5,-163"/>
<text text-anchor="middle" x="132" y="-225.8" font-family="Arial" font-size="8.00">IKeyEventListener</text>
<polyline fill="none" stroke="black" points="-0.5,-219 264.5,-219 "/>
<text text-anchor="start" x="7.5" y="-207.8" font-family="Arial" font-size="8.00">+ ValidKeys : List&lt;Keys&gt;</text>
<text text-anchor="start" x="7.5" y="-197.8" font-family="Arial" font-size="8.00">+ Index : DisplayLayer</text>
<text text-anchor="start" x="7.5" y="-187.8" font-family="Arial" font-size="8.00">+ IsKeyEventEnabled : bool</text>
<polyline fill="none" stroke="black" points="-0.5,-181 264.5,-181 "/>
<text text-anchor="start" x="7.5" y="-169.8" font-family="Arial" font-size="8.00">+ OnKeyEvent (List&lt;Keys&gt; key, KeyEvent keyEvent, GameTime time)</text>
</g>
<!-- Box_IKeyEventListener&#45;&gt;Box_TextInput -->
<g id="edge4" class="edge"><title>Box_IKeyEventListener&#45;&gt;Box_TextInput</title>
<path fill="none" stroke="midnightblue" d="M178.958,-155.937C189.405,-146.133 200.672,-135.561 211.731,-125.184"/>
<polygon fill="none" stroke="midnightblue" points="176.407,-153.531 171.51,-162.926 181.197,-158.635 176.407,-153.531"/>
</g>
<!-- Box_Widget -->
<g id="node3" class="node"><title>Box_Widget</title>
<polygon fill="#fcfcda" stroke="black" points="282,-163 282,-237 566,-237 566,-163 282,-163"/>
<text text-anchor="middle" x="424" y="-225.8" font-family="Arial" font-size="8.00">Widget</text>
<polyline fill="none" stroke="black" points="282,-219 566,-219 "/>
<text text-anchor="start" x="290" y="-207.8" font-family="Arial" font-size="8.00">+ Info : WidgetInfo</text>
<text text-anchor="start" x="290" y="-197.8" font-family="Arial" font-size="8.00">+ IsVisible : bool virtual</text>
<polyline fill="none" stroke="black" points="282,-191 566,-191 "/>
<text text-anchor="start" x="290" y="-179.8" font-family="Arial" font-size="8.00">+ bounds () : Rectangle</text>
<text text-anchor="start" x="290" y="-169.8" font-family="Arial" font-size="8.00">+ Widget (GameScreen screen, WidgetInfo info, DisplayLayer drawOrder)</text>
</g>
<!-- Box_Widget&#45;&gt;Box_TextInput -->
<g id="edge2" class="edge"><title>Box_Widget&#45;&gt;Box_TextInput</title>
<path fill="none" stroke="midnightblue" d="M377.042,-155.937C366.595,-146.133 355.328,-135.561 344.269,-125.184"/>
<polygon fill="none" stroke="midnightblue" points="374.803,-158.635 384.49,-162.926 379.593,-153.531 374.803,-158.635"/>
</g>
<!-- Box_DrawableGameScreenComponent -->
<g id="node4" class="node"><title>Box_DrawableGameScreenComponent</title>
<polygon fill="#fcfcda" stroke="black" points="265.5,-275 265.5,-359 582.5,-359 582.5,-275 265.5,-275"/>
<text text-anchor="middle" x="424" y="-347.8" font-family="Arial" font-size="8.00">DrawableGameScreenComponent</text>
<polyline fill="none" stroke="black" points="265.5,-341 582.5,-341 "/>
<text text-anchor="start" x="273.5" y="-329.8" font-family="Arial" font-size="8.00">+ Index : DisplayLayer</text>
<text text-anchor="start" x="273.5" y="-319.8" font-family="Arial" font-size="8.00">&#45; _index : DisplayLayer</text>
<text text-anchor="start" x="273.5" y="-309.8" font-family="Arial" font-size="8.00">+ screen : GameScreen</text>
<polyline fill="none" stroke="black" points="265.5,-303 582.5,-303 "/>
<text text-anchor="start" x="273.5" y="-291.8" font-family="Arial" font-size="8.00">+ DrawableGameScreenComponent (GameScreen screen, DisplayLayer index)</text>
<text text-anchor="start" x="273.5" y="-281.8" font-family="Arial" font-size="8.00">+ SubComponents (GameTime time) : IEnumerable&lt;IGameScreenComponent&gt; virtual</text>
</g>
<!-- Box_DrawableGameScreenComponent&#45;&gt;Box_Widget -->
<g id="edge6" class="edge"><title>Box_DrawableGameScreenComponent&#45;&gt;Box_Widget</title>
<path fill="none" stroke="midnightblue" d="M424,-264.482C424,-255.258 424,-245.834 424,-237.14"/>
<polygon fill="none" stroke="midnightblue" points="420.5,-264.76 424,-274.76 427.5,-264.76 420.5,-264.76"/>
</g>
<!-- Box_IGameScreenComponent -->
<g id="node5" class="node"><title>Box_IGameScreenComponent</title>
<polygon fill="#dafcda" stroke="black" points="162.5,-397 162.5,-451 455.5,-451 455.5,-397 162.5,-397"/>
<text text-anchor="middle" x="309" y="-439.8" font-family="Arial" font-size="8.00">IGameScreenComponent</text>
<polyline fill="none" stroke="black" points="162.5,-433 455.5,-433 "/>
<text text-anchor="start" x="170.5" y="-421.8" font-family="Arial" font-size="8.00">+ Index : DisplayLayer</text>
<polyline fill="none" stroke="black" points="162.5,-415 455.5,-415 "/>
<text text-anchor="start" x="170.5" y="-403.8" font-family="Arial" font-size="8.00">+ SubComponents (GameTime time) : IEnumerable&lt;IGameScreenComponent&gt;</text>
</g>
<!-- Box_IGameScreenComponent&#45;&gt;Box_DrawableGameScreenComponent -->
<g id="edge10" class="edge"><title>Box_IGameScreenComponent&#45;&gt;Box_DrawableGameScreenComponent</title>
<path fill="none" stroke="midnightblue" d="M345.433,-390.102C355.91,-380.354 367.469,-369.598 378.425,-359.404"/>
<polygon fill="none" stroke="midnightblue" points="342.956,-387.625 338.019,-396.999 347.725,-392.75 342.956,-387.625"/>
</g>
<!-- Box_XnaDrawableGameComponent -->
<g id="node6" class="node"><title>Box_XnaDrawableGameComponent</title>
<polygon fill="#ffffff" stroke="black" points="376,-498 376,-516 506,-516 506,-498 376,-498"/>
<text text-anchor="middle" x="441" y="-504.8" font-family="Arial" font-size="8.00">Xna.DrawableGameComponent</text>
</g>
<!-- Box_XnaIGameComponent -->
<g id="node7" class="node"><title>Box_XnaIGameComponent</title>
<polygon fill="#ffffff" stroke="black" points="524,-498 524,-516 620,-516 620,-498 524,-498"/>
<text text-anchor="middle" x="572" y="-504.8" font-family="Arial" font-size="8.00">Xna.IGameComponent</text>
</g>
<!-- Box_DrawableGameComponent -->
<g id="node11" class="node"><title>Box_DrawableGameComponent</title>
<polygon fill="none" stroke="black" points="473,-406 473,-442 605,-442 605,-406 473,-406"/>
<text text-anchor="middle" x="539" y="-421.8" font-family="Arial" font-size="8.00">Box_DrawableGameComponent</text>
</g>
<!-- Box_DrawableGameComponent&#45;&gt;Box_DrawableGameScreenComponent -->
<g id="edge8" class="edge"><title>Box_DrawableGameComponent&#45;&gt;Box_DrawableGameScreenComponent</title>
<path fill="none" stroke="midnightblue" d="M511.993,-398.871C499.316,-387.076 483.857,-372.693 469.454,-359.292"/>
<polygon fill="none" stroke="midnightblue" points="509.787,-401.599 519.492,-405.849 514.555,-396.475 509.787,-401.599"/>
</g>
<!-- Box_IGameComponent -->
<g id="node14" class="node"><title>Box_IGameComponent</title>
<polygon fill="none" stroke="black" points="260,-489 260,-525 358,-525 358,-489 260,-489"/>
<text text-anchor="middle" x="309" y="-504.8" font-family="Arial" font-size="8.00">Box_IGameComponent</text>
</g>
<!-- Box_IGameComponent&#45;&gt;Box_IGameScreenComponent -->
<g id="edge12" class="edge"><title>Box_IGameComponent&#45;&gt;Box_IGameScreenComponent</title>
<path fill="none" stroke="midnightblue" d="M309,-478.987C309,-469.995 309,-460.055 309,-451.127"/>
<polygon fill="none" stroke="midnightblue" points="305.5,-478.99 309,-488.99 312.5,-478.99 305.5,-478.99"/>
</g>
</g>
</svg>
