<?xml version="1.0" encoding="UTF-8" standalone="no"?>
<!DOCTYPE svg PUBLIC "-//W3C//DTD SVG 1.1//EN"
 "http://www.w3.org/Graphics/SVG/1.1/DTD/svg11.dtd">
<!-- Generated by graphviz version 2.26.3 (20100126.1600)
 -->
<!-- Title: MenuItem Pages: 1 -->
<svg width="796pt" height="612pt"
 viewBox="0.00 0.00 796.00 612.00" xmlns="http://www.w3.org/2000/svg" xmlns:xlink="http://www.w3.org/1999/xlink">
<g id="graph1" class="graph" transform="scale(1 1) rotate(0) translate(4 608)">
<title>MenuItem</title>
<polygon fill="white" stroke="white" points="-4,5 -4,-608 793,-608 793,5 -4,5"/>
<!-- Box_GameObjectInfo -->
<g id="node1" class="node"><title>Box_GameObjectInfo</title>
<polygon fill="#fcfcda" stroke="black" points="309.5,-365 309.5,-545 560.5,-545 560.5,-365 309.5,-365"/>
<text text-anchor="middle" x="435" y="-533.8" font-family="Helvetica,sans-Serif" font-size="8.00">GameObjectInfo</text>
<polyline fill="none" stroke="black" points="309.5,-525 560.5,-525 "/>
<text text-anchor="start" x="317.5" y="-513.8" font-family="Helvetica,sans-Serif" font-size="8.00">Attributes:</text>
<text text-anchor="start" x="317.5" y="-501.8" font-family="Helvetica,sans-Serif" font-size="8.00">+ IsMovable : bool</text>
<text text-anchor="start" x="317.5" y="-489.8" font-family="Helvetica,sans-Serif" font-size="8.00">+ IsSelectable : bool</text>
<text text-anchor="start" x="317.5" y="-477.8" font-family="Helvetica,sans-Serif" font-size="8.00">+ IsVisible : bool</text>
<text text-anchor="start" x="317.5" y="-465.8" font-family="Helvetica,sans-Serif" font-size="8.00">+ Position : Vector3</text>
<text text-anchor="start" x="317.5" y="-453.8" font-family="Helvetica,sans-Serif" font-size="8.00">Methods:</text>
<polyline fill="none" stroke="black" points="309.5,-445 560.5,-445 "/>
<text text-anchor="start" x="317.5" y="-433.8" font-family="Helvetica,sans-Serif" font-size="8.00">+ GameObjectInfo ()</text>
<text text-anchor="start" x="317.5" y="-421.8" font-family="Helvetica,sans-Serif" font-size="8.00">+ operator (GameObjectInfo o1, GameObjectInfo o2) : bool static</text>
<text text-anchor="start" x="317.5" y="-409.8" font-family="Helvetica,sans-Serif" font-size="8.00">+ Equals (Object obj) : bool</text>
<text text-anchor="start" x="317.5" y="-397.8" font-family="Helvetica,sans-Serif" font-size="8.00">+ GetHashCode () : int</text>
<text text-anchor="start" x="317.5" y="-385.8" font-family="Helvetica,sans-Serif" font-size="8.00">+ operator ! (GameObjectInfo o1, GameObjectInfo o2) : bool static</text>
<text text-anchor="start" x="317.5" y="-373.8" font-family="Helvetica,sans-Serif" font-size="8.00">+ Equals (GameObjectInfo other) : bool virtual</text>
</g>
<!-- Box_GameModelInfo -->
<g id="node2" class="node"><title>Box_GameModelInfo</title>
<polygon fill="#fcfcda" stroke="black" points="208,-195 208,-315 364,-315 364,-195 208,-195"/>
<text text-anchor="middle" x="286" y="-303.8" font-family="Helvetica,sans-Serif" font-size="8.00">GameModelInfo</text>
<polyline fill="none" stroke="black" points="208,-295 364,-295 "/>
<text text-anchor="start" x="216" y="-283.8" font-family="Helvetica,sans-Serif" font-size="8.00">Attributes:</text>
<text text-anchor="start" x="216" y="-271.8" font-family="Helvetica,sans-Serif" font-size="8.00">+ Rotation : Angles3</text>
<text text-anchor="start" x="216" y="-259.8" font-family="Helvetica,sans-Serif" font-size="8.00">+ Scale : float</text>
<text text-anchor="start" x="216" y="-247.8" font-family="Helvetica,sans-Serif" font-size="8.00">+ Modelname : string</text>
<text text-anchor="start" x="216" y="-235.8" font-family="Helvetica,sans-Serif" font-size="8.00">Methods:</text>
<polyline fill="none" stroke="black" points="208,-227 364,-227 "/>
<text text-anchor="start" x="216" y="-215.8" font-family="Helvetica,sans-Serif" font-size="8.00">+ GameModelInfo (string modelname)</text>
<text text-anchor="start" x="216" y="-203.8" font-family="Helvetica,sans-Serif" font-size="8.00">+ Equals (GameObjectInfo other) : bool</text>
</g>
<!-- Box_GameObjectInfo&#45;&gt;Box_GameModelInfo -->
<g id="edge4" class="edge"><title>Box_GameObjectInfo&#45;&gt;Box_GameModelInfo</title>
<path fill="none" stroke="midnightblue" d="M354.947,-356.606C344.363,-342.418 333.928,-328.186 324.494,-315.054"/>
<polygon fill="none" stroke="midnightblue" points="352.395,-359.038 361.19,-364.946 358,-354.843 352.395,-359.038"/>
</g>
<!-- Box_GameObjectInfo&#45;&gt;Box_GameModelInfo -->
<g id="edge16" class="edge"><title>Box_GameObjectInfo&#45;&gt;Box_GameModelInfo</title>
<path fill="none" stroke="midnightblue" d="M368.446,-356.606C357.889,-342.418 347.119,-328.186 336.987,-315.054"/>
<polygon fill="none" stroke="midnightblue" points="365.862,-358.998 374.63,-364.946 371.485,-354.829 365.862,-358.998"/>
</g>
<!-- Box_TexturedRectangleInfo -->
<g id="node5" class="node"><title>Box_TexturedRectangleInfo</title>
<polygon fill="#fcfcda" stroke="black" points="381.5,-183 381.5,-327 788.5,-327 788.5,-183 381.5,-183"/>
<text text-anchor="middle" x="585" y="-315.8" font-family="Helvetica,sans-Serif" font-size="8.00">TexturedRectangleInfo</text>
<polyline fill="none" stroke="black" points="381.5,-307 788.5,-307 "/>
<text text-anchor="start" x="389.5" y="-295.8" font-family="Helvetica,sans-Serif" font-size="8.00">Attributes:</text>
<text text-anchor="start" x="389.5" y="-283.8" font-family="Helvetica,sans-Serif" font-size="8.00">+ Left : Vector3</text>
<text text-anchor="start" x="389.5" y="-271.8" font-family="Helvetica,sans-Serif" font-size="8.00">+ Up : Vector3</text>
<text text-anchor="start" x="389.5" y="-259.8" font-family="Helvetica,sans-Serif" font-size="8.00">+ Height : float</text>
<text text-anchor="start" x="389.5" y="-247.8" font-family="Helvetica,sans-Serif" font-size="8.00">+ Width : float</text>
<text text-anchor="start" x="389.5" y="-235.8" font-family="Helvetica,sans-Serif" font-size="8.00">+ Texturename : string</text>
<text text-anchor="start" x="389.5" y="-223.8" font-family="Helvetica,sans-Serif" font-size="8.00">Methods:</text>
<polyline fill="none" stroke="black" points="381.5,-215 788.5,-215 "/>
<text text-anchor="start" x="389.5" y="-203.8" font-family="Helvetica,sans-Serif" font-size="8.00">+ TexturedRectangleInfo (string texturename, Vector3 origin, Vector3 left, float width, Vector3 up, float height)</text>
<text text-anchor="start" x="389.5" y="-191.8" font-family="Helvetica,sans-Serif" font-size="8.00">+ Equals (GameObjectInfo other) : bool</text>
</g>
<!-- Box_GameObjectInfo&#45;&gt;Box_TexturedRectangleInfo -->
<g id="edge26" class="edge"><title>Box_GameObjectInfo&#45;&gt;Box_TexturedRectangleInfo</title>
<path fill="none" stroke="midnightblue" d="M501.811,-356.921C509.317,-346.897 516.933,-336.848 524.356,-327.176"/>
<polygon fill="none" stroke="midnightblue" points="498.997,-354.839 495.82,-364.946 504.607,-359.026 498.997,-354.839"/>
</g>
<!-- Box_GameObjectInfo&#45;&gt;Box_TexturedRectangleInfo -->
<g id="edge14" class="edge"><title>Box_GameObjectInfo&#45;&gt;Box_TexturedRectangleInfo</title>
<path fill="none" stroke="midnightblue" d="M515.308,-356.921C522.838,-346.897 530.296,-336.848 537.38,-327.176"/>
<polygon fill="none" stroke="midnightblue" points="512.484,-354.854 509.261,-364.946 518.074,-359.066 512.484,-354.854"/>
</g>
<!-- Box_NodeModelInfo -->
<g id="node3" class="node"><title>Box_NodeModelInfo</title>
<polygon fill="#fcfcda" stroke="black" points="-0.5,-13 -0.5,-133 292.5,-133 292.5,-13 -0.5,-13"/>
<text text-anchor="middle" x="146" y="-121.8" font-family="Helvetica,sans-Serif" font-size="8.00">NodeModelInfo</text>
<polyline fill="none" stroke="black" points="-0.5,-113 292.5,-113 "/>
<text text-anchor="start" x="7.5" y="-101.8" font-family="Helvetica,sans-Serif" font-size="8.00">Attributes:</text>
<text text-anchor="start" x="7.5" y="-89.8" font-family="Helvetica,sans-Serif" font-size="8.00">+ EdgeA : Edge</text>
<text text-anchor="start" x="7.5" y="-77.8" font-family="Helvetica,sans-Serif" font-size="8.00">+ EdgeB : Edge</text>
<text text-anchor="start" x="7.5" y="-65.8" font-family="Helvetica,sans-Serif" font-size="8.00">+ Edges : EdgeList</text>
<text text-anchor="start" x="7.5" y="-53.8" font-family="Helvetica,sans-Serif" font-size="8.00">Methods:</text>
<polyline fill="none" stroke="black" points="-0.5,-45 292.5,-45 "/>
<text text-anchor="start" x="7.5" y="-33.8" font-family="Helvetica,sans-Serif" font-size="8.00">+ NodeModelInfo (EdgeList edges, Edge edgeA, Edge edgeB, Vector3 offset)</text>
<text text-anchor="start" x="7.5" y="-21.8" font-family="Helvetica,sans-Serif" font-size="8.00">+ Equals (GameObjectInfo other) : bool</text>
</g>
<!-- Box_GameModelInfo&#45;&gt;Box_NodeModelInfo -->
<g id="edge22" class="edge"><title>Box_GameModelInfo&#45;&gt;Box_NodeModelInfo</title>
<path fill="none" stroke="midnightblue" d="M213.925,-186.873C199.407,-169.188 185.021,-150.27 173.011,-133.035"/>
<polygon fill="none" stroke="midnightblue" points="211.513,-189.448 220.596,-194.902 216.897,-184.974 211.513,-189.448"/>
</g>
<!-- Box_GameModelInfo&#45;&gt;Box_NodeModelInfo -->
<g id="edge6" class="edge"><title>Box_GameModelInfo&#45;&gt;Box_NodeModelInfo</title>
<path fill="none" stroke="midnightblue" d="M227.038,-186.873C213.129,-169.188 198.633,-150.27 185.791,-133.035"/>
<polygon fill="none" stroke="midnightblue" points="224.434,-189.224 233.379,-194.902 229.928,-184.885 224.434,-189.224"/>
</g>
<!-- Box_GameModelInfo&#45;&gt;Box_NodeModelInfo -->
<g id="edge10" class="edge"><title>Box_GameModelInfo&#45;&gt;Box_NodeModelInfo</title>
<path fill="none" stroke="midnightblue" d="M240.152,-186.873C226.852,-169.188 212.244,-150.27 198.571,-133.035"/>
<polygon fill="none" stroke="midnightblue" points="237.367,-188.994 246.162,-194.902 242.971,-184.799 237.367,-188.994"/>
</g>
<!-- Box_GameModelInfo&#45;&gt;Box_NodeModelInfo -->
<g id="edge18" class="edge"><title>Box_GameModelInfo&#45;&gt;Box_NodeModelInfo</title>
<path fill="none" stroke="midnightblue" d="M252.922,-186.395C240.31,-168.847 225.725,-150.115 211.351,-133.035"/>
<polygon fill="none" stroke="midnightblue" points="250.31,-188.763 258.945,-194.902 256.023,-184.718 250.31,-188.763"/>
</g>
<!-- Box_PipeModelInfo -->
<g id="node4" class="node"><title>Box_PipeModelInfo</title>
<polygon fill="#fcfcda" stroke="black" points="309.5,-1 309.5,-145 544.5,-145 544.5,-1 309.5,-1"/>
<text text-anchor="middle" x="427" y="-133.8" font-family="Helvetica,sans-Serif" font-size="8.00">PipeModelInfo</text>
<polyline fill="none" stroke="black" points="309.5,-125 544.5,-125 "/>
<text text-anchor="start" x="317.5" y="-113.8" font-family="Helvetica,sans-Serif" font-size="8.00">Attributes:</text>
<text text-anchor="start" x="317.5" y="-101.8" font-family="Helvetica,sans-Serif" font-size="8.00">+ Edge : Edge</text>
<text text-anchor="start" x="317.5" y="-89.8" font-family="Helvetica,sans-Serif" font-size="8.00">+ Direction : Vector3</text>
<text text-anchor="start" x="317.5" y="-77.8" font-family="Helvetica,sans-Serif" font-size="8.00">+ PositionFrom : Vector3</text>
<text text-anchor="start" x="317.5" y="-65.8" font-family="Helvetica,sans-Serif" font-size="8.00">+ PositionTo : Vector3</text>
<text text-anchor="start" x="317.5" y="-53.8" font-family="Helvetica,sans-Serif" font-size="8.00">+ Edges : EdgeList</text>
<text text-anchor="start" x="317.5" y="-41.8" font-family="Helvetica,sans-Serif" font-size="8.00">Methods:</text>
<polyline fill="none" stroke="black" points="309.5,-33 544.5,-33 "/>
<text text-anchor="start" x="317.5" y="-21.8" font-family="Helvetica,sans-Serif" font-size="8.00">+ PipeModelInfo (EdgeList edges, Edge edge, Vector3 offset)</text>
<text text-anchor="start" x="317.5" y="-9.8" font-family="Helvetica,sans-Serif" font-size="8.00">+ Equals (GameObjectInfo other) : bool</text>
</g>
<!-- Box_GameModelInfo&#45;&gt;Box_PipeModelInfo -->
<g id="edge24" class="edge"><title>Box_GameModelInfo&#45;&gt;Box_PipeModelInfo</title>
<path fill="none" stroke="midnightblue" d="M319.332,-186.565C329.145,-173.008 340.144,-158.737 351.315,-145.064"/>
<polygon fill="none" stroke="midnightblue" points="316.343,-184.728 313.385,-194.902 322.042,-188.794 316.343,-184.728"/>
</g>
<!-- Box_GameModelInfo&#45;&gt;Box_PipeModelInfo -->
<g id="edge8" class="edge"><title>Box_GameModelInfo&#45;&gt;Box_PipeModelInfo</title>
<path fill="none" stroke="midnightblue" d="M332.457,-186.565C342.729,-173.008 353.766,-158.737 364.552,-145.064"/>
<polygon fill="none" stroke="midnightblue" points="329.395,-184.811 326.168,-194.902 334.984,-189.026 329.395,-184.811"/>
</g>
<!-- Box_GameModelInfo&#45;&gt;Box_PipeModelInfo -->
<g id="edge12" class="edge"><title>Box_GameModelInfo&#45;&gt;Box_PipeModelInfo</title>
<path fill="none" stroke="midnightblue" d="M345.277,-186.948C356.105,-173.277 367.29,-158.866 377.789,-145.064"/>
<polygon fill="none" stroke="midnightblue" points="342.436,-184.897 338.951,-194.902 347.915,-189.254 342.436,-184.897"/>
</g>
<!-- Box_GameModelInfo&#45;&gt;Box_PipeModelInfo -->
<g id="edge20" class="edge"><title>Box_GameModelInfo&#45;&gt;Box_PipeModelInfo</title>
<path fill="none" stroke="midnightblue" d="M358.388,-186.948C369.688,-173.277 380.916,-158.866 391.025,-145.064"/>
<polygon fill="none" stroke="midnightblue" points="355.466,-184.986 351.734,-194.902 360.835,-189.478 355.466,-184.986"/>
</g>
<!-- Box_IEquatable -->
<g id="node6" class="node"><title>Box_IEquatable</title>
<polygon fill="#ffffff" stroke="black" points="374,-583 374,-603 496,-603 496,-583 374,-583"/>
<text text-anchor="middle" x="435" y="-591.8" font-family="Helvetica,sans-Serif" font-size="8.00">IEquatable&lt;GameObjectInfo&gt;</text>
</g>
<!-- Box_IEquatable&#45;&gt;Box_GameObjectInfo -->
<g id="edge2" class="edge"><title>Box_IEquatable&#45;&gt;Box_GameObjectInfo</title>
<path fill="none" stroke="midnightblue" d="M435,-572.572C435,-564.819 435,-555.407 435,-545.321"/>
<polygon fill="none" stroke="midnightblue" points="431.5,-572.628 435,-582.628 438.5,-572.628 431.5,-572.628"/>
</g>
</g>
</svg>
