<?xml version="1.0" encoding="UTF-8" standalone="no"?>
<!DOCTYPE svg PUBLIC "-//W3C//DTD SVG 1.1//EN"
 "http://www.w3.org/Graphics/SVG/1.1/DTD/svg11.dtd">
<!-- Generated by graphviz version 2.26.3 (20100126.1600)
 -->
<!-- Title: MenuItem Pages: 1 -->
<svg width="3983pt" height="2483pt"
 viewBox="0.00 0.00 956.00 596.00" xmlns="http://www.w3.org/2000/svg" xmlns:xlink="http://www.w3.org/1999/xlink">
<g id="graph1" class="graph" transform="scale(4.16667 4.16667) rotate(0) translate(4 592)">
<title>MenuItem</title>
<polygon fill="white" stroke="white" points="-4,5 -4,-592 953,-592 953,5 -4,5"/>
<!-- Box_MenuScreenInput -->
<g id="node1" class="node"><title>Box_MenuScreenInput</title>
<polygon fill="#fcfcda" stroke="black" points="422.5,-1 422.5,-55 577.5,-55 577.5,-1 422.5,-1"/>
<text text-anchor="middle" x="500" y="-43.8" font-family="Arial" font-size="8.00">MenuScreenInput</text>
<polyline fill="none" stroke="black" points="422.5,-37 577.5,-37 "/>
<text text-anchor="middle" x="500" y="-25.8" font-family="Arial" font-size="8.00"> </text>
<polyline fill="none" stroke="black" points="422.5,-19 577.5,-19 "/>
<text text-anchor="start" x="430.5" y="-7.8" font-family="Arial" font-size="8.00">+ MenuScreenInput (GameState state)</text>
</g>
<!-- Box_Input -->
<g id="node2" class="node"><title>Box_Input</title>
<polygon fill="#fcfcda" stroke="black" points="356.5,-93 356.5,-327 643.5,-327 643.5,-93 356.5,-93"/>
<text text-anchor="middle" x="500" y="-315.8" font-family="Arial" font-size="8.00">Input</text>
<polyline fill="none" stroke="black" points="356.5,-309 643.5,-309 "/>
<text text-anchor="start" x="364.5" y="-297.8" font-family="Arial" font-size="8.00">&#45; PreviousClickMouseState : MouseState static</text>
<text text-anchor="start" x="364.5" y="-287.8" font-family="Arial" font-size="8.00">&#45; LeftButtonClickTimer : double static</text>
<text text-anchor="start" x="364.5" y="-277.8" font-family="Arial" font-size="8.00">&#45; RightButtonClickTimer : double static</text>
<text text-anchor="start" x="364.5" y="-267.8" font-family="Arial" font-size="8.00">+ GrabMouseMovement : bool</text>
<text text-anchor="start" x="364.5" y="-257.8" font-family="Arial" font-size="8.00">+ LeftButton : ClickState static</text>
<text text-anchor="start" x="364.5" y="-247.8" font-family="Arial" font-size="8.00">+ RightButton : ClickState static</text>
<text text-anchor="start" x="364.5" y="-237.8" font-family="Arial" font-size="8.00">+ PreviousKeyboardState : KeyboardState static</text>
<text text-anchor="start" x="364.5" y="-227.8" font-family="Arial" font-size="8.00">+ MouseState : MouseState static</text>
<text text-anchor="start" x="364.5" y="-217.8" font-family="Arial" font-size="8.00">+ PreviousMouseState : MouseState static</text>
<text text-anchor="start" x="364.5" y="-207.8" font-family="Arial" font-size="8.00"># FullscreenToggled : bool static</text>
<text text-anchor="start" x="364.5" y="-197.8" font-family="Arial" font-size="8.00">+ CurrentInputAction : InputAction</text>
<text text-anchor="start" x="364.5" y="-187.8" font-family="Arial" font-size="8.00">+ ValidKeys : List&lt;Keys&gt;</text>
<text text-anchor="start" x="364.5" y="-177.8" font-family="Arial" font-size="8.00">+ WASDMode : WASDMode</text>
<text text-anchor="start" x="364.5" y="-167.8" font-family="Arial" font-size="8.00">+ IsKeyEventEnabled : bool</text>
<text text-anchor="start" x="364.5" y="-157.8" font-family="Arial" font-size="8.00">+ KeyboardState : KeyboardState static</text>
<polyline fill="none" stroke="black" points="356.5,-151 643.5,-151 "/>
<text text-anchor="start" x="364.5" y="-139.8" font-family="Arial" font-size="8.00"># UpdateMouse (GameTime gameTime) virtual</text>
<text text-anchor="start" x="364.5" y="-129.8" font-family="Arial" font-size="8.00">+ Update (GameTime gameTime)</text>
<text text-anchor="start" x="364.5" y="-119.8" font-family="Arial" font-size="8.00">+ OnKeyEvent (List&lt;Keys&gt; key, KeyEvent keyEvent, GameTime gameTime)</text>
<text text-anchor="start" x="364.5" y="-109.8" font-family="Arial" font-size="8.00"># UpdateKeys (GameTime gameTime) virtual</text>
<text text-anchor="start" x="364.5" y="-99.8" font-family="Arial" font-size="8.00">+ Input (GameState state)</text>
</g>
<!-- Box_Input&#45;&gt;Box_MenuScreenInput -->
<g id="edge2" class="edge"><title>Box_Input&#45;&gt;Box_MenuScreenInput</title>
<path fill="none" stroke="midnightblue" d="M500,-82.6713C500,-72.6201 500,-63.2764 500,-55.2588"/>
<polygon fill="none" stroke="midnightblue" points="496.5,-82.9353 500,-92.9354 503.5,-82.9354 496.5,-82.9353"/>
</g>
<!-- Box_GameScreenComponent -->
<g id="node3" class="node"><title>Box_GameScreenComponent</title>
<polygon fill="#fcfcda" stroke="black" points="-0.5,-365 -0.5,-439 316.5,-439 316.5,-365 -0.5,-365"/>
<text text-anchor="middle" x="158" y="-427.8" font-family="Arial" font-size="8.00">GameScreenComponent</text>
<polyline fill="none" stroke="black" points="-0.5,-421 316.5,-421 "/>
<text text-anchor="start" x="7.5" y="-409.8" font-family="Arial" font-size="8.00">+ Index : DisplayLayer</text>
<text text-anchor="start" x="7.5" y="-399.8" font-family="Arial" font-size="8.00">+ screen : GameScreen</text>
<polyline fill="none" stroke="black" points="-0.5,-393 316.5,-393 "/>
<text text-anchor="start" x="7.5" y="-381.8" font-family="Arial" font-size="8.00">+ GameScreenComponent (GameScreen screen, DisplayLayer index)</text>
<text text-anchor="start" x="7.5" y="-371.8" font-family="Arial" font-size="8.00">+ SubComponents (GameTime time) : IEnumerable&lt;IGameScreenComponent&gt; virtual</text>
</g>
<!-- Box_GameScreenComponent&#45;&gt;Box_Input -->
<g id="edge4" class="edge"><title>Box_GameScreenComponent&#45;&gt;Box_Input</title>
<path fill="none" stroke="midnightblue" d="M232.963,-359.915C269.198,-339.573 313.947,-314.451 356.386,-290.626"/>
<polygon fill="none" stroke="midnightblue" points="230.948,-357.033 223.941,-364.98 234.374,-363.137 230.948,-357.033"/>
</g>
<!-- Box_IGameScreenComponent -->
<g id="node4" class="node"><title>Box_IGameScreenComponent</title>
<polygon fill="#dafcda" stroke="black" points="11.5,-477 11.5,-531 304.5,-531 304.5,-477 11.5,-477"/>
<text text-anchor="middle" x="158" y="-519.8" font-family="Arial" font-size="8.00">IGameScreenComponent</text>
<polyline fill="none" stroke="black" points="11.5,-513 304.5,-513 "/>
<text text-anchor="start" x="19.5" y="-501.8" font-family="Arial" font-size="8.00">+ Index : DisplayLayer</text>
<polyline fill="none" stroke="black" points="11.5,-495 304.5,-495 "/>
<text text-anchor="start" x="19.5" y="-483.8" font-family="Arial" font-size="8.00">+ SubComponents (GameTime time) : IEnumerable&lt;IGameScreenComponent&gt;</text>
</g>
<!-- Box_IGameScreenComponent&#45;&gt;Box_GameScreenComponent -->
<g id="edge10" class="edge"><title>Box_IGameScreenComponent&#45;&gt;Box_GameScreenComponent</title>
<path fill="none" stroke="midnightblue" d="M158,-466.743C158,-457.759 158,-448.159 158,-439.178"/>
<polygon fill="none" stroke="midnightblue" points="154.5,-466.934 158,-476.934 161.5,-466.934 154.5,-466.934"/>
</g>
<!-- Box_IKeyEventListener -->
<g id="node5" class="node"><title>Box_IKeyEventListener</title>
<polygon fill="#dafcda" stroke="black" points="683.5,-365 683.5,-439 948.5,-439 948.5,-365 683.5,-365"/>
<text text-anchor="middle" x="816" y="-427.8" font-family="Arial" font-size="8.00">IKeyEventListener</text>
<polyline fill="none" stroke="black" points="683.5,-421 948.5,-421 "/>
<text text-anchor="start" x="691.5" y="-409.8" font-family="Arial" font-size="8.00">+ ValidKeys : List&lt;Keys&gt;</text>
<text text-anchor="start" x="691.5" y="-399.8" font-family="Arial" font-size="8.00">+ Index : DisplayLayer</text>
<text text-anchor="start" x="691.5" y="-389.8" font-family="Arial" font-size="8.00">+ IsKeyEventEnabled : bool</text>
<polyline fill="none" stroke="black" points="683.5,-383 948.5,-383 "/>
<text text-anchor="start" x="691.5" y="-371.8" font-family="Arial" font-size="8.00">+ OnKeyEvent (List&lt;Keys&gt; key, KeyEvent keyEvent, GameTime time)</text>
</g>
<!-- Box_IKeyEventListener&#45;&gt;Box_Input -->
<g id="edge6" class="edge"><title>Box_IKeyEventListener&#45;&gt;Box_Input</title>
<path fill="none" stroke="midnightblue" d="M746.291,-359.645C715.985,-341.231 679.296,-318.939 643.596,-297.248"/>
<polygon fill="none" stroke="midnightblue" points="744.708,-362.779 755.072,-364.98 748.343,-356.797 744.708,-362.779"/>
</g>
<!-- Box_GameStateComponent -->
<g id="node6" class="node"><title>Box_GameStateComponent</title>
<polygon fill="#fcfcda" stroke="black" points="334,-365 334,-439 666,-439 666,-365 334,-365"/>
<text text-anchor="middle" x="500" y="-427.8" font-family="Arial" font-size="8.00">GameStateComponent</text>
<polyline fill="none" stroke="black" points="334,-421 666,-421 "/>
<text text-anchor="start" x="342" y="-409.8" font-family="Arial" font-size="8.00">+ Index : DisplayLayer</text>
<text text-anchor="start" x="342" y="-399.8" font-family="Arial" font-size="8.00">+ state : GameState</text>
<polyline fill="none" stroke="black" points="334,-393 666,-393 "/>
<text text-anchor="start" x="342" y="-381.8" font-family="Arial" font-size="8.00">+ GameStateComponent (GameState state, DisplayLayer index)</text>
<text text-anchor="start" x="342" y="-371.8" font-family="Arial" font-size="8.00">+ SubComponents (GameTime gameTime) : IEnumerable&lt;IGameStateComponent&gt; virtual</text>
</g>
<!-- Box_GameStateComponent&#45;&gt;Box_Input -->
<g id="edge14" class="edge"><title>Box_GameStateComponent&#45;&gt;Box_Input</title>
<path fill="none" stroke="midnightblue" d="M500,-354.835C500,-346.203 500,-336.852 500,-327.201"/>
<polygon fill="none" stroke="midnightblue" points="496.5,-354.98 500,-364.98 503.5,-354.981 496.5,-354.98"/>
</g>
<!-- Box_XnaGameComponent -->
<g id="node7" class="node"><title>Box_XnaGameComponent</title>
<polygon fill="#ffffff" stroke="black" points="330.5,-495 330.5,-513 425.5,-513 425.5,-495 330.5,-495"/>
<text text-anchor="middle" x="378" y="-501.8" font-family="Arial" font-size="8.00">Xna.GameComponent</text>
</g>
<!-- Box_XnaGameComponent&#45;&gt;Box_GameScreenComponent -->
<g id="edge8" class="edge"><title>Box_XnaGameComponent&#45;&gt;Box_GameScreenComponent</title>
<path fill="none" stroke="midnightblue" d="M349.219,-490.656C321.058,-477.6 276.86,-457.108 238.047,-439.113"/>
<polygon fill="none" stroke="midnightblue" points="347.932,-493.917 358.476,-494.948 350.876,-487.567 347.932,-493.917"/>
</g>
<!-- Box_XnaGameComponent&#45;&gt;Box_GameStateComponent -->
<g id="edge16" class="edge"><title>Box_XnaGameComponent&#45;&gt;Box_GameStateComponent</title>
<path fill="none" stroke="midnightblue" d="M396.704,-488.363C412.35,-475.281 435.309,-456.086 455.61,-439.113"/>
<polygon fill="none" stroke="midnightblue" points="394.254,-485.849 388.827,-494.948 398.744,-491.219 394.254,-485.849"/>
</g>
<!-- Box_XnaIGameComponent -->
<g id="node8" class="node"><title>Box_XnaIGameComponent</title>
<polygon fill="#ffffff" stroke="black" points="110,-569 110,-587 206,-587 206,-569 110,-569"/>
<text text-anchor="middle" x="158" y="-575.8" font-family="Arial" font-size="8.00">Xna.IGameComponent</text>
</g>
<!-- Box_XnaIGameComponent&#45;&gt;Box_IGameScreenComponent -->
<g id="edge12" class="edge"><title>Box_XnaIGameComponent&#45;&gt;Box_IGameScreenComponent</title>
<path fill="none" stroke="midnightblue" d="M158,-558.64C158,-550.2 158,-540.16 158,-531.004"/>
<polygon fill="none" stroke="midnightblue" points="154.5,-558.926 158,-568.926 161.5,-558.926 154.5,-558.926"/>
</g>
<!-- Box_IGameStateComponent -->
<g id="node9" class="node"><title>Box_IGameStateComponent</title>
<polygon fill="#ffffff" stroke="black" points="451,-495 451,-513 549,-513 549,-495 451,-495"/>
<text text-anchor="middle" x="500" y="-501.8" font-family="Arial" font-size="8.00">IGameStateComponent</text>
</g>
<!-- Box_IGameStateComponent&#45;&gt;Box_GameStateComponent -->
<g id="edge18" class="edge"><title>Box_IGameStateComponent&#45;&gt;Box_GameStateComponent</title>
<path fill="none" stroke="midnightblue" d="M500,-484.578C500,-471.746 500,-454.515 500,-439.113"/>
<polygon fill="none" stroke="midnightblue" points="496.5,-484.948 500,-494.948 503.5,-484.948 496.5,-484.948"/>
</g>
</g>
</svg>
