<?xml version="1.0" encoding="UTF-8" standalone="no"?>
<!DOCTYPE svg PUBLIC "-//W3C//DTD SVG 1.1//EN"
 "http://www.w3.org/Graphics/SVG/1.1/DTD/svg11.dtd">
<!-- Generated by graphviz version 2.26.3 (20100126.1600)
 -->
<!-- Title: MenuItem Pages: 1 -->
<svg width="552pt" height="588pt"
 viewBox="0.00 0.00 552.00 588.00" xmlns="http://www.w3.org/2000/svg" xmlns:xlink="http://www.w3.org/1999/xlink">
<g id="graph1" class="graph" transform="scale(1 1) rotate(0) translate(4 584)">
<title>MenuItem</title>
<polygon fill="white" stroke="white" points="-4,5 -4,-584 549,-584 549,5 -4,5"/>
<!-- Box_GameModelInfo -->
<g id="node1" class="node"><title>Box_GameModelInfo</title>
<polygon fill="#fcfcda" stroke="black" points="208,-183 208,-303 364,-303 364,-183 208,-183"/>
<text text-anchor="middle" x="286" y="-291.8" font-family="Helvetica,sans-Serif" font-size="8.00">GameModelInfo</text>
<polyline fill="none" stroke="black" points="208,-283 364,-283 "/>
<text text-anchor="start" x="216" y="-271.8" font-family="Helvetica,sans-Serif" font-size="8.00">Attributes:</text>
<text text-anchor="start" x="216" y="-259.8" font-family="Helvetica,sans-Serif" font-size="8.00">+ Rotation : Angles3</text>
<text text-anchor="start" x="216" y="-247.8" font-family="Helvetica,sans-Serif" font-size="8.00">+ Scale : float</text>
<text text-anchor="start" x="216" y="-235.8" font-family="Helvetica,sans-Serif" font-size="8.00">+ Modelname : string</text>
<text text-anchor="start" x="216" y="-223.8" font-family="Helvetica,sans-Serif" font-size="8.00">Methods:</text>
<polyline fill="none" stroke="black" points="208,-215 364,-215 "/>
<text text-anchor="start" x="216" y="-203.8" font-family="Helvetica,sans-Serif" font-size="8.00">+ GameModelInfo (string modelname)</text>
<text text-anchor="start" x="216" y="-191.8" font-family="Helvetica,sans-Serif" font-size="8.00">+ Equals (GameObjectInfo other) : bool</text>
</g>
<!-- Box_NodeModelInfo -->
<g id="node3" class="node"><title>Box_NodeModelInfo</title>
<polygon fill="#fcfcda" stroke="black" points="-0.5,-13 -0.5,-133 292.5,-133 292.5,-13 -0.5,-13"/>
<text text-anchor="middle" x="146" y="-121.8" font-family="Helvetica,sans-Serif" font-size="8.00">NodeModelInfo</text>
<polyline fill="none" stroke="black" points="-0.5,-113 292.5,-113 "/>
<text text-anchor="start" x="7.5" y="-101.8" font-family="Helvetica,sans-Serif" font-size="8.00">Attributes:</text>
<text text-anchor="start" x="7.5" y="-89.8" font-family="Helvetica,sans-Serif" font-size="8.00">+ EdgeA : Edge</text>
<text text-anchor="start" x="7.5" y="-77.8" font-family="Helvetica,sans-Serif" font-size="8.00">+ EdgeB : Edge</text>
<text text-anchor="start" x="7.5" y="-65.8" font-family="Helvetica,sans-Serif" font-size="8.00">+ Edges : EdgeList</text>
<text text-anchor="start" x="7.5" y="-53.8" font-family="Helvetica,sans-Serif" font-size="8.00">Methods:</text>
<polyline fill="none" stroke="black" points="-0.5,-45 292.5,-45 "/>
<text text-anchor="start" x="7.5" y="-33.8" font-family="Helvetica,sans-Serif" font-size="8.00">+ NodeModelInfo (EdgeList edges, Edge edgeA, Edge edgeB, Vector3 offset)</text>
<text text-anchor="start" x="7.5" y="-21.8" font-family="Helvetica,sans-Serif" font-size="8.00">+ Equals (GameObjectInfo other) : bool</text>
</g>
<!-- Box_GameModelInfo&#45;&gt;Box_NodeModelInfo -->
<g id="edge6" class="edge"><title>Box_GameModelInfo&#45;&gt;Box_NodeModelInfo</title>
<path fill="none" stroke="midnightblue" d="M229.673,-174.603C218.394,-160.907 206.623,-146.614 195.593,-133.22"/>
<polygon fill="none" stroke="midnightblue" points="227.188,-177.091 236.247,-182.586 232.592,-172.641 227.188,-177.091"/>
</g>
<!-- Box_PipeModelInfo -->
<g id="node4" class="node"><title>Box_PipeModelInfo</title>
<polygon fill="#fcfcda" stroke="black" points="309.5,-1 309.5,-145 544.5,-145 544.5,-1 309.5,-1"/>
<text text-anchor="middle" x="427" y="-133.8" font-family="Helvetica,sans-Serif" font-size="8.00">PipeModelInfo</text>
<polyline fill="none" stroke="black" points="309.5,-125 544.5,-125 "/>
<text text-anchor="start" x="317.5" y="-113.8" font-family="Helvetica,sans-Serif" font-size="8.00">Attributes:</text>
<text text-anchor="start" x="317.5" y="-101.8" font-family="Helvetica,sans-Serif" font-size="8.00">+ Edge : Edge</text>
<text text-anchor="start" x="317.5" y="-89.8" font-family="Helvetica,sans-Serif" font-size="8.00">+ Direction : Vector3</text>
<text text-anchor="start" x="317.5" y="-77.8" font-family="Helvetica,sans-Serif" font-size="8.00">+ PositionFrom : Vector3</text>
<text text-anchor="start" x="317.5" y="-65.8" font-family="Helvetica,sans-Serif" font-size="8.00">+ PositionTo : Vector3</text>
<text text-anchor="start" x="317.5" y="-53.8" font-family="Helvetica,sans-Serif" font-size="8.00">+ Edges : EdgeList</text>
<text text-anchor="start" x="317.5" y="-41.8" font-family="Helvetica,sans-Serif" font-size="8.00">Methods:</text>
<polyline fill="none" stroke="black" points="309.5,-33 544.5,-33 "/>
<text text-anchor="start" x="317.5" y="-21.8" font-family="Helvetica,sans-Serif" font-size="8.00">+ PipeModelInfo (EdgeList edges, Edge edge, Vector3 offset)</text>
<text text-anchor="start" x="317.5" y="-9.8" font-family="Helvetica,sans-Serif" font-size="8.00">+ Equals (GameObjectInfo other) : bool</text>
</g>
<!-- Box_GameModelInfo&#45;&gt;Box_PipeModelInfo -->
<g id="edge8" class="edge"><title>Box_GameModelInfo&#45;&gt;Box_PipeModelInfo</title>
<path fill="none" stroke="midnightblue" d="M342.542,-174.829C350.643,-165.061 359.001,-154.985 367.163,-145.143"/>
<polygon fill="none" stroke="midnightblue" points="339.798,-172.654 336.108,-182.586 345.186,-177.123 339.798,-172.654"/>
</g>
<!-- Box_GameObjectInfo -->
<g id="node2" class="node"><title>Box_GameObjectInfo</title>
<polygon fill="#fcfcda" stroke="black" points="160.5,-341 160.5,-521 411.5,-521 411.5,-341 160.5,-341"/>
<text text-anchor="middle" x="286" y="-509.8" font-family="Helvetica,sans-Serif" font-size="8.00">GameObjectInfo</text>
<polyline fill="none" stroke="black" points="160.5,-501 411.5,-501 "/>
<text text-anchor="start" x="168.5" y="-489.8" font-family="Helvetica,sans-Serif" font-size="8.00">Attributes:</text>
<text text-anchor="start" x="168.5" y="-477.8" font-family="Helvetica,sans-Serif" font-size="8.00">+ IsMovable : bool</text>
<text text-anchor="start" x="168.5" y="-465.8" font-family="Helvetica,sans-Serif" font-size="8.00">+ IsSelectable : bool</text>
<text text-anchor="start" x="168.5" y="-453.8" font-family="Helvetica,sans-Serif" font-size="8.00">+ IsVisible : bool</text>
<text text-anchor="start" x="168.5" y="-441.8" font-family="Helvetica,sans-Serif" font-size="8.00">+ Position : Vector3</text>
<text text-anchor="start" x="168.5" y="-429.8" font-family="Helvetica,sans-Serif" font-size="8.00">Methods:</text>
<polyline fill="none" stroke="black" points="160.5,-421 411.5,-421 "/>
<text text-anchor="start" x="168.5" y="-409.8" font-family="Helvetica,sans-Serif" font-size="8.00">+ GameObjectInfo ()</text>
<text text-anchor="start" x="168.5" y="-397.8" font-family="Helvetica,sans-Serif" font-size="8.00">+ operator (GameObjectInfo o1, GameObjectInfo o2) : bool static</text>
<text text-anchor="start" x="168.5" y="-385.8" font-family="Helvetica,sans-Serif" font-size="8.00">+ Equals (Object obj) : bool</text>
<text text-anchor="start" x="168.5" y="-373.8" font-family="Helvetica,sans-Serif" font-size="8.00">+ GetHashCode () : int</text>
<text text-anchor="start" x="168.5" y="-361.8" font-family="Helvetica,sans-Serif" font-size="8.00">+ operator ! (GameObjectInfo o1, GameObjectInfo o2) : bool static</text>
<text text-anchor="start" x="168.5" y="-349.8" font-family="Helvetica,sans-Serif" font-size="8.00">+ Equals (GameObjectInfo other) : bool virtual</text>
</g>
<!-- Box_GameObjectInfo&#45;&gt;Box_GameModelInfo -->
<g id="edge2" class="edge"><title>Box_GameObjectInfo&#45;&gt;Box_GameModelInfo</title>
<path fill="none" stroke="midnightblue" d="M286,-330.639C286,-321.24 286,-311.925 286,-303.074"/>
<polygon fill="none" stroke="midnightblue" points="282.5,-330.854 286,-340.855 289.5,-330.855 282.5,-330.854"/>
</g>
<!-- Box_IEquatable -->
<g id="node5" class="node"><title>Box_IEquatable</title>
<polygon fill="#ffffff" stroke="black" points="225,-559 225,-579 347,-579 347,-559 225,-559"/>
<text text-anchor="middle" x="286" y="-567.8" font-family="Helvetica,sans-Serif" font-size="8.00">IEquatable&lt;GameObjectInfo&gt;</text>
</g>
<!-- Box_IEquatable&#45;&gt;Box_GameObjectInfo -->
<g id="edge4" class="edge"><title>Box_IEquatable&#45;&gt;Box_GameObjectInfo</title>
<path fill="none" stroke="midnightblue" d="M286,-548.572C286,-540.819 286,-531.407 286,-521.321"/>
<polygon fill="none" stroke="midnightblue" points="282.5,-548.628 286,-558.628 289.5,-548.628 282.5,-548.628"/>
</g>
</g>
</svg>
