<?xml version="1.0" encoding="UTF-8" standalone="no"?>
<!DOCTYPE svg PUBLIC "-//W3C//DTD SVG 1.1//EN"
 "http://www.w3.org/Graphics/SVG/1.1/DTD/svg11.dtd">
<!-- Generated by graphviz version 2.26.3 (20100126.1600)
 -->
<!-- Title: MenuItem Pages: 1 -->
<svg width="1983pt" height="3675pt"
 viewBox="0.00 0.00 476.00 882.00" xmlns="http://www.w3.org/2000/svg" xmlns:xlink="http://www.w3.org/1999/xlink">
<g id="graph1" class="graph" transform="scale(4.16667 4.16667) rotate(0) translate(4 878)">
<title>MenuItem</title>
<polygon fill="white" stroke="white" points="-4,5 -4,-878 473,-878 473,5 -4,5"/>
<!-- Box_KnotSaveConfirmDialog -->
<g id="node1" class="node"><title>Box_KnotSaveConfirmDialog</title>
<polygon fill="#fcfcda" stroke="black" points="85.5,-1 85.5,-55 468.5,-55 468.5,-1 85.5,-1"/>
<text text-anchor="middle" x="277" y="-43.8" font-family="Arial" font-size="8.00">KnotSaveConfirmDialog</text>
<polyline fill="none" stroke="black" points="85.5,-37 468.5,-37 "/>
<text text-anchor="middle" x="277" y="-25.8" font-family="Arial" font-size="8.00"> </text>
<polyline fill="none" stroke="black" points="85.5,-19 468.5,-19 "/>
<text text-anchor="start" x="93.5" y="-7.8" font-family="Arial" font-size="8.00">+ KnotSaveConfirmDialog (GameScreen screen, WidgetInfo info, DisplayLayer drawOrder, Knot knot)</text>
</g>
<!-- Box_TextInputDialog -->
<g id="node2" class="node"><title>Box_TextInputDialog</title>
<polygon fill="#fcfcda" stroke="black" points="119.5,-93 119.5,-177 434.5,-177 434.5,-93 119.5,-93"/>
<text text-anchor="middle" x="277" y="-165.8" font-family="Arial" font-size="8.00">TextInputDialog</text>
<polyline fill="none" stroke="black" points="119.5,-159 434.5,-159 "/>
<text text-anchor="start" x="127.5" y="-147.8" font-family="Arial" font-size="8.00"># TextInput : TextInput</text>
<polyline fill="none" stroke="black" points="119.5,-141 434.5,-141 "/>
<text text-anchor="start" x="127.5" y="-129.8" font-family="Arial" font-size="8.00"># TextInputSize () : Vector2</text>
<text text-anchor="start" x="127.5" y="-119.8" font-family="Arial" font-size="8.00">+ TextInputDialog (GameScreen screen, WidgetInfo info, DisplayLayer drawOrder)</text>
<text text-anchor="start" x="127.5" y="-109.8" font-family="Arial" font-size="8.00"># TextInputPosition () : Vector2</text>
<text text-anchor="start" x="127.5" y="-99.8" font-family="Arial" font-size="8.00">+ SubComponents (GameTime gameTime) : IEnumerable&lt;IGameScreenComponent&gt;</text>
</g>
<!-- Box_TextInputDialog&#45;&gt;Box_KnotSaveConfirmDialog -->
<g id="edge2" class="edge"><title>Box_TextInputDialog&#45;&gt;Box_KnotSaveConfirmDialog</title>
<path fill="none" stroke="midnightblue" d="M277,-82.5276C277,-73.0762 277,-63.582 277,-55.2255"/>
<polygon fill="none" stroke="midnightblue" points="273.5,-82.7107 277,-92.7108 280.5,-82.7108 273.5,-82.7107"/>
</g>
<!-- Box_ConfirmDialog -->
<g id="node3" class="node"><title>Box_ConfirmDialog</title>
<polygon fill="#fcfcda" stroke="black" points="122.5,-215 122.5,-309 431.5,-309 431.5,-215 122.5,-215"/>
<text text-anchor="middle" x="277" y="-297.8" font-family="Arial" font-size="8.00">ConfirmDialog</text>
<polyline fill="none" stroke="black" points="122.5,-291 431.5,-291 "/>
<text text-anchor="start" x="130.5" y="-279.8" font-family="Arial" font-size="8.00"># Text : string[]</text>
<polyline fill="none" stroke="black" points="122.5,-273 431.5,-273 "/>
<text text-anchor="start" x="130.5" y="-261.8" font-family="Arial" font-size="8.00"># OnYesClick () : Action</text>
<text text-anchor="start" x="130.5" y="-251.8" font-family="Arial" font-size="8.00"># OnCancelClick () : Action</text>
<text text-anchor="start" x="130.5" y="-241.8" font-family="Arial" font-size="8.00"># OnNoClick () : Action</text>
<text text-anchor="start" x="130.5" y="-231.8" font-family="Arial" font-size="8.00"># DrawDialog (GameTime gameTime)</text>
<text text-anchor="start" x="130.5" y="-221.8" font-family="Arial" font-size="8.00">+ ConfirmDialog (GameScreen screen, WidgetInfo info, DisplayLayer drawOrder)</text>
</g>
<!-- Box_ConfirmDialog&#45;&gt;Box_TextInputDialog -->
<g id="edge4" class="edge"><title>Box_ConfirmDialog&#45;&gt;Box_TextInputDialog</title>
<path fill="none" stroke="midnightblue" d="M277,-204.491C277,-195.34 277,-186.022 277,-177.306"/>
<polygon fill="none" stroke="midnightblue" points="273.5,-204.71 277,-214.71 280.5,-204.71 273.5,-204.71"/>
</g>
<!-- Box_Dialog -->
<g id="node4" class="node"><title>Box_Dialog</title>
<polygon fill="#fcfcda" stroke="black" points="119.5,-347 119.5,-491 434.5,-491 434.5,-347 119.5,-347"/>
<text text-anchor="middle" x="277" y="-479.8" font-family="Arial" font-size="8.00">Dialog</text>
<polyline fill="none" stroke="black" points="119.5,-473 434.5,-473 "/>
<text text-anchor="start" x="127.5" y="-461.8" font-family="Arial" font-size="8.00"># spriteBatch : SpriteBatch</text>
<text text-anchor="start" x="127.5" y="-451.8" font-family="Arial" font-size="8.00">+ Done : Action</text>
<text text-anchor="start" x="127.5" y="-441.8" font-family="Arial" font-size="8.00">+ buttons : Menu</text>
<polyline fill="none" stroke="black" points="119.5,-435 434.5,-435 "/>
<text text-anchor="start" x="127.5" y="-423.8" font-family="Arial" font-size="8.00">&#45; ButtonBackgroundColor (ItemState itemState) : Color</text>
<text text-anchor="start" x="127.5" y="-413.8" font-family="Arial" font-size="8.00"># RelativeButtonSize (int n) : Vector2</text>
<text text-anchor="start" x="127.5" y="-403.8" font-family="Arial" font-size="8.00">+ Dialog (GameScreen screen, WidgetInfo info, DisplayLayer drawOrder)</text>
<text text-anchor="start" x="127.5" y="-393.8" font-family="Arial" font-size="8.00">&#45; ButtonForegroundColor (ItemState itemState) : Color</text>
<text text-anchor="start" x="127.5" y="-383.8" font-family="Arial" font-size="8.00"># RelativeButtonPosition (int n) : Vector2</text>
<text text-anchor="start" x="127.5" y="-373.8" font-family="Arial" font-size="8.00"># DrawDialog (GameTime gameTime) abstract</text>
<text text-anchor="start" x="127.5" y="-363.8" font-family="Arial" font-size="8.00">+ SubComponents (GameTime gameTime) : IEnumerable&lt;IGameScreenComponent&gt;</text>
<text text-anchor="start" x="127.5" y="-353.8" font-family="Arial" font-size="8.00">+ Draw (GameTime gameTime)</text>
</g>
<!-- Box_Dialog&#45;&gt;Box_ConfirmDialog -->
<g id="edge6" class="edge"><title>Box_Dialog&#45;&gt;Box_ConfirmDialog</title>
<path fill="none" stroke="midnightblue" d="M277,-336.761C277,-327.389 277,-318.088 277,-309.395"/>
<polygon fill="none" stroke="midnightblue" points="273.5,-336.933 277,-346.933 280.5,-336.933 273.5,-336.933"/>
</g>
<!-- Box_Widget -->
<g id="node5" class="node"><title>Box_Widget</title>
<polygon fill="#fcfcda" stroke="black" points="135,-529 135,-603 419,-603 419,-529 135,-529"/>
<text text-anchor="middle" x="277" y="-591.8" font-family="Arial" font-size="8.00">Widget</text>
<polyline fill="none" stroke="black" points="135,-585 419,-585 "/>
<text text-anchor="start" x="143" y="-573.8" font-family="Arial" font-size="8.00">+ Info : WidgetInfo</text>
<text text-anchor="start" x="143" y="-563.8" font-family="Arial" font-size="8.00">+ IsVisible : bool virtual</text>
<polyline fill="none" stroke="black" points="135,-557 419,-557 "/>
<text text-anchor="start" x="143" y="-545.8" font-family="Arial" font-size="8.00">+ bounds () : Rectangle</text>
<text text-anchor="start" x="143" y="-535.8" font-family="Arial" font-size="8.00">+ Widget (GameScreen screen, WidgetInfo info, DisplayLayer drawOrder)</text>
</g>
<!-- Box_Widget&#45;&gt;Box_Dialog -->
<g id="edge8" class="edge"><title>Box_Widget&#45;&gt;Box_Dialog</title>
<path fill="none" stroke="midnightblue" d="M277,-518.801C277,-509.931 277,-500.473 277,-491.047"/>
<polygon fill="none" stroke="midnightblue" points="273.5,-518.906 277,-528.906 280.5,-518.906 273.5,-518.906"/>
</g>
<!-- Box_DrawableGameScreenComponent -->
<g id="node6" class="node"><title>Box_DrawableGameScreenComponent</title>
<polygon fill="#fcfcda" stroke="black" points="107.5,-641 107.5,-725 446.5,-725 446.5,-641 107.5,-641"/>
<text text-anchor="middle" x="277" y="-713.8" font-family="Arial" font-size="8.00">DrawableGameScreenComponent</text>
<polyline fill="none" stroke="black" points="107.5,-707 446.5,-707 "/>
<text text-anchor="start" x="115.5" y="-695.8" font-family="Arial" font-size="8.00">+ Index : DisplayLayer</text>
<text text-anchor="start" x="115.5" y="-685.8" font-family="Arial" font-size="8.00">&#45; _index : DisplayLayer</text>
<text text-anchor="start" x="115.5" y="-675.8" font-family="Arial" font-size="8.00">+ screen : GameScreen</text>
<polyline fill="none" stroke="black" points="107.5,-669 446.5,-669 "/>
<text text-anchor="start" x="115.5" y="-657.8" font-family="Arial" font-size="8.00">+ DrawableGameScreenComponent (GameScreen screen, DisplayLayer index)</text>
<text text-anchor="start" x="115.5" y="-647.8" font-family="Arial" font-size="8.00">+ SubComponents (GameTime gameTime) : IEnumerable&lt;IGameScreenComponent&gt; virtual</text>
</g>
<!-- Box_DrawableGameScreenComponent&#45;&gt;Box_Widget -->
<g id="edge10" class="edge"><title>Box_DrawableGameScreenComponent&#45;&gt;Box_Widget</title>
<path fill="none" stroke="midnightblue" d="M277,-630.482C277,-621.258 277,-611.834 277,-603.14"/>
<polygon fill="none" stroke="midnightblue" points="273.5,-630.76 277,-640.76 280.5,-630.76 273.5,-630.76"/>
</g>
<!-- Box_IGameScreenComponent -->
<g id="node7" class="node"><title>Box_IGameScreenComponent</title>
<polygon fill="#dafcda" stroke="black" points="-0.5,-763 -0.5,-817 314.5,-817 314.5,-763 -0.5,-763"/>
<text text-anchor="middle" x="157" y="-805.8" font-family="Arial" font-size="8.00">IGameScreenComponent</text>
<polyline fill="none" stroke="black" points="-0.5,-799 314.5,-799 "/>
<text text-anchor="start" x="7.5" y="-787.8" font-family="Arial" font-size="8.00">+ Index : DisplayLayer</text>
<polyline fill="none" stroke="black" points="-0.5,-781 314.5,-781 "/>
<text text-anchor="start" x="7.5" y="-769.8" font-family="Arial" font-size="8.00">+ SubComponents (GameTime gameTime) : IEnumerable&lt;IGameScreenComponent&gt;</text>
</g>
<!-- Box_IGameScreenComponent&#45;&gt;Box_DrawableGameScreenComponent -->
<g id="edge14" class="edge"><title>Box_IGameScreenComponent&#45;&gt;Box_DrawableGameScreenComponent</title>
<path fill="none" stroke="midnightblue" d="M195.017,-756.102C205.949,-746.354 218.012,-735.598 229.444,-725.404"/>
<polygon fill="none" stroke="midnightblue" points="192.416,-753.732 187.281,-762.999 197.074,-758.956 192.416,-753.732"/>
</g>
<!-- Box_XnaDrawableGameComponent -->
<g id="node8" class="node"><title>Box_XnaDrawableGameComponent</title>
<polygon fill="#ffffff" stroke="black" points="332,-781 332,-799 462,-799 462,-781 332,-781"/>
<text text-anchor="middle" x="397" y="-787.8" font-family="Arial" font-size="8.00">Xna.DrawableGameComponent</text>
</g>
<!-- Box_XnaDrawableGameComponent&#45;&gt;Box_DrawableGameScreenComponent -->
<g id="edge12" class="edge"><title>Box_XnaDrawableGameComponent&#45;&gt;Box_DrawableGameScreenComponent</title>
<path fill="none" stroke="midnightblue" d="M379.077,-774.018C364.616,-761.124 343.59,-742.376 324.373,-725.241"/>
<polygon fill="none" stroke="midnightblue" points="376.976,-776.834 386.769,-780.877 381.634,-771.61 376.976,-776.834"/>
</g>
<!-- Box_XnaIGameComponent -->
<g id="node9" class="node"><title>Box_XnaIGameComponent</title>
<polygon fill="#ffffff" stroke="black" points="109,-855 109,-873 205,-873 205,-855 109,-855"/>
<text text-anchor="middle" x="157" y="-861.8" font-family="Arial" font-size="8.00">Xna.IGameComponent</text>
</g>
<!-- Box_XnaIGameComponent&#45;&gt;Box_IGameScreenComponent -->
<g id="edge16" class="edge"><title>Box_XnaIGameComponent&#45;&gt;Box_IGameScreenComponent</title>
<path fill="none" stroke="midnightblue" d="M157,-844.64C157,-836.2 157,-826.16 157,-817.004"/>
<polygon fill="none" stroke="midnightblue" points="153.5,-844.926 157,-854.926 160.5,-844.926 153.5,-844.926"/>
</g>
</g>
</svg>
