<?xml version="1.0" encoding="UTF-8" standalone="no"?>
<!DOCTYPE svg PUBLIC "-//W3C//DTD SVG 1.1//EN"
 "http://www.w3.org/Graphics/SVG/1.1/DTD/svg11.dtd">
<!-- Generated by graphviz version 2.26.3 (20100126.1600)
 -->
<!-- Title: MenuItem Pages: 1 -->
<svg width="1821pt" height="1392pt"
 viewBox="0.00 0.00 437.00 334.00" xmlns="http://www.w3.org/2000/svg" xmlns:xlink="http://www.w3.org/1999/xlink">
<g id="graph1" class="graph" transform="scale(4.16667 4.16667) rotate(0) translate(4 330)">
<title>MenuItem</title>
<polygon fill="white" stroke="white" points="-4,5 -4,-330 434,-330 434,5 -4,5"/>
<!-- Box_ClickHandler -->
<g id="node1" class="node"><title>Box_ClickHandler</title>
<polygon fill="#fcfcda" stroke="black" points="195,-1 195,-65 331,-65 331,-1 195,-1"/>
<text text-anchor="middle" x="263" y="-53.8" font-family="Arial" font-size="8.00">ClickHandler</text>
<polyline fill="none" stroke="black" points="195,-47 331,-47 "/>
<text text-anchor="start" x="203" y="-35.8" font-family="Arial" font-size="8.00">&#45; ClickEventComponent : class</text>
<polyline fill="none" stroke="black" points="195,-29 331,-29 "/>
<text text-anchor="start" x="203" y="-17.8" font-family="Arial" font-size="8.00">+ ClickHandler (GameState state)</text>
<text text-anchor="start" x="203" y="-7.8" font-family="Arial" font-size="8.00">+ Update (GameTime gameTime)</text>
</g>
<!-- Box_GameStateComponent -->
<g id="node2" class="node"><title>Box_GameStateComponent</title>
<polygon fill="#fcfcda" stroke="black" points="97,-103 97,-177 429,-177 429,-103 97,-103"/>
<text text-anchor="middle" x="263" y="-165.8" font-family="Arial" font-size="8.00">GameStateComponent</text>
<polyline fill="none" stroke="black" points="97,-159 429,-159 "/>
<text text-anchor="start" x="105" y="-147.8" font-family="Arial" font-size="8.00">+ Index : DisplayLayer</text>
<text text-anchor="start" x="105" y="-137.8" font-family="Arial" font-size="8.00">+ state : GameState</text>
<polyline fill="none" stroke="black" points="97,-131 429,-131 "/>
<text text-anchor="start" x="105" y="-119.8" font-family="Arial" font-size="8.00">+ GameStateComponent (GameState state, DisplayLayer index)</text>
<text text-anchor="start" x="105" y="-109.8" font-family="Arial" font-size="8.00">+ SubComponents (GameTime gameTime) : IEnumerable&lt;IGameStateComponent&gt; virtual</text>
</g>
<!-- Box_GameStateComponent&#45;&gt;Box_ClickHandler -->
<g id="edge2" class="edge"><title>Box_GameStateComponent&#45;&gt;Box_ClickHandler</title>
<path fill="none" stroke="midnightblue" d="M263,-92.8493C263,-83.4611 263,-73.8084 263,-65.0695"/>
<polygon fill="none" stroke="midnightblue" points="259.5,-92.8768 263,-102.877 266.5,-92.8769 259.5,-92.8768"/>
</g>
<!-- Box_IGameStateComponent -->
<g id="node3" class="node"><title>Box_IGameStateComponent</title>
<polygon fill="#dafcda" stroke="black" points="0,-215 0,-269 308,-269 308,-215 0,-215"/>
<text text-anchor="middle" x="154" y="-257.8" font-family="Arial" font-size="8.00">IGameStateComponent</text>
<polyline fill="none" stroke="black" points="0,-251 308,-251 "/>
<text text-anchor="start" x="8" y="-239.8" font-family="Arial" font-size="8.00">+ Index : DisplayLayer</text>
<polyline fill="none" stroke="black" points="0,-233 308,-233 "/>
<text text-anchor="start" x="8" y="-221.8" font-family="Arial" font-size="8.00">+ SubComponents (GameTime gameTime) : IEnumerable&lt;IGameStateComponent&gt;</text>
</g>
<!-- Box_IGameStateComponent&#45;&gt;Box_GameStateComponent -->
<g id="edge6" class="edge"><title>Box_IGameStateComponent&#45;&gt;Box_GameStateComponent</title>
<path fill="none" stroke="midnightblue" d="M190.4,-207.937C200.952,-198.063 212.526,-187.233 223.27,-177.178"/>
<polygon fill="none" stroke="midnightblue" points="187.834,-205.545 182.924,-214.934 192.617,-210.656 187.834,-205.545"/>
</g>
<!-- Box_XnaGameComponent -->
<g id="node4" class="node"><title>Box_XnaGameComponent</title>
<polygon fill="#ffffff" stroke="black" points="325.5,-233 325.5,-251 420.5,-251 420.5,-233 325.5,-233"/>
<text text-anchor="middle" x="373" y="-239.8" font-family="Arial" font-size="8.00">Xna.GameComponent</text>
</g>
<!-- Box_XnaGameComponent&#45;&gt;Box_GameStateComponent -->
<g id="edge4" class="edge"><title>Box_XnaGameComponent&#45;&gt;Box_GameStateComponent</title>
<path fill="none" stroke="midnightblue" d="M355.743,-225.998C341.646,-212.926 321.159,-193.929 303.024,-177.113"/>
<polygon fill="none" stroke="midnightblue" points="353.526,-228.715 363.238,-232.948 358.285,-223.582 353.526,-228.715"/>
</g>
<!-- Box_XnaIGameComponent -->
<g id="node5" class="node"><title>Box_XnaIGameComponent</title>
<polygon fill="#ffffff" stroke="black" points="106,-307 106,-325 202,-325 202,-307 106,-307"/>
<text text-anchor="middle" x="154" y="-313.8" font-family="Arial" font-size="8.00">Xna.IGameComponent</text>
</g>
<!-- Box_XnaIGameComponent&#45;&gt;Box_IGameStateComponent -->
<g id="edge8" class="edge"><title>Box_XnaIGameComponent&#45;&gt;Box_IGameStateComponent</title>
<path fill="none" stroke="midnightblue" d="M154,-296.64C154,-288.2 154,-278.16 154,-269.004"/>
<polygon fill="none" stroke="midnightblue" points="150.5,-296.926 154,-306.926 157.5,-296.926 150.5,-296.926"/>
</g>
</g>
</svg>
