<?xml version="1.0" encoding="UTF-8" standalone="no"?>
<!DOCTYPE svg PUBLIC "-//W3C//DTD SVG 1.1//EN"
 "http://www.w3.org/Graphics/SVG/1.1/DTD/svg11.dtd">
<!-- Generated by graphviz version 2.26.3 (20100126.1600)
 -->
<!-- Title: MenuItem Pages: 1 -->
<svg width="258pt" height="470pt"
 viewBox="0.00 0.00 258.00 470.00" xmlns="http://www.w3.org/2000/svg" xmlns:xlink="http://www.w3.org/1999/xlink">
<g id="graph1" class="graph" transform="scale(1 1) rotate(0) translate(4 466)">
<title>MenuItem</title>
<polygon fill="white" stroke="white" points="-4,5 -4,-466 255,-466 255,5 -4,5"/>
<!-- Box_RenderEffect -->
<g id="node1" class="node"><title>Box_RenderEffect</title>
<polygon fill="#fcfcda" stroke="black" points="0,-135 0,-315 250,-315 250,-135 0,-135"/>
<text text-anchor="middle" x="125" y="-303.8" font-family="Helvetica,sans-Serif" font-size="8.00">RenderEffect</text>
<polyline fill="none" stroke="black" points="0,-295 250,-295 "/>
<text text-anchor="start" x="8" y="-283.8" font-family="Helvetica,sans-Serif" font-size="8.00"># state : GameState</text>
<text text-anchor="start" x="8" y="-271.8" font-family="Helvetica,sans-Serif" font-size="8.00">&#45; renderTarget : RenderTargetCache</text>
<text text-anchor="start" x="8" y="-259.8" font-family="Helvetica,sans-Serif" font-size="8.00">&#45; background : Color</text>
<text text-anchor="start" x="8" y="-247.8" font-family="Helvetica,sans-Serif" font-size="8.00">&#45; spriteBatch : SpriteBatch</text>
<text text-anchor="start" x="8" y="-235.8" font-family="Helvetica,sans-Serif" font-size="8.00">+ RenderTarget : RenderTarget2D</text>
<polyline fill="none" stroke="black" points="0,-227 250,-227 "/>
<text text-anchor="start" x="8" y="-215.8" font-family="Helvetica,sans-Serif" font-size="8.00">+ RenderEffect (GameState state)</text>
<text text-anchor="start" x="8" y="-203.8" font-family="Helvetica,sans-Serif" font-size="8.00">+ Begin (GameTime gameTime)</text>
<text text-anchor="start" x="8" y="-191.8" font-family="Helvetica,sans-Serif" font-size="8.00">+ Begin (Color background, GameTime gameTime) virtual</text>
<text text-anchor="start" x="8" y="-179.8" font-family="Helvetica,sans-Serif" font-size="8.00">+ End (GameTime gameTime) virtual</text>
<text text-anchor="start" x="8" y="-167.8" font-family="Helvetica,sans-Serif" font-size="8.00">+ Draw (SpriteBatch spriteBatch, GameTime gameTime) abstract</text>
<text text-anchor="start" x="8" y="-155.8" font-family="Helvetica,sans-Serif" font-size="8.00">+ RemapModel (Model model) virtual</text>
<text text-anchor="start" x="8" y="-143.8" font-family="Helvetica,sans-Serif" font-size="8.00">+ DrawModel (GameModel model, GameTime gameTime) virtual</text>
</g>
<!-- Box_BlurEffect -->
<g id="node3" class="node"><title>Box_BlurEffect</title>
<polygon fill="#fcfcda" stroke="black" points="-0.5,-1 -0.5,-97 250.5,-97 250.5,-1 -0.5,-1"/>
<text text-anchor="middle" x="125" y="-85.8" font-family="Helvetica,sans-Serif" font-size="8.00">BlurEffect</text>
<polyline fill="none" stroke="black" points="-0.5,-77 250.5,-77 "/>
<text text-anchor="start" x="7.5" y="-65.8" font-family="Helvetica,sans-Serif" font-size="8.00">&#45; testEffect : Effect static</text>
<polyline fill="none" stroke="black" points="-0.5,-57 250.5,-57 "/>
<text text-anchor="start" x="7.5" y="-45.8" font-family="Helvetica,sans-Serif" font-size="8.00">+ BlurEffect (GameState state)</text>
<text text-anchor="start" x="7.5" y="-33.8" font-family="Helvetica,sans-Serif" font-size="8.00">+ Begin (Color background, GameTime gameTime) override</text>
<text text-anchor="start" x="7.5" y="-21.8" font-family="Helvetica,sans-Serif" font-size="8.00">+ End (GameTime gameTime) override</text>
<text text-anchor="start" x="7.5" y="-9.8" font-family="Helvetica,sans-Serif" font-size="8.00">+ Draw (SpriteBatch spriteBatch, GameTime gameTime) override</text>
</g>
<!-- Box_RenderEffect&#45;&gt;Box_BlurEffect -->
<g id="edge16" class="edge"><title>Box_RenderEffect&#45;&gt;Box_BlurEffect</title>
<path fill="none" stroke="midnightblue" d="M125,-124.896C125,-115.309 125,-105.917 125,-97.1873"/>
<polygon fill="none" stroke="midnightblue" points="121.5,-124.938 125,-134.938 128.5,-124.938 121.5,-124.938"/>
</g>
<!-- Box_IRenderEffect -->
<g id="node2" class="node"><title>Box_IRenderEffect</title>
<polygon fill="#dafcda" stroke="black" points="12.5,-353 12.5,-461 237.5,-461 237.5,-353 12.5,-353"/>
<text text-anchor="middle" x="125" y="-449.8" font-family="Helvetica,sans-Serif" font-size="8.00">IRenderEffect</text>
<polyline fill="none" stroke="black" points="12.5,-441 237.5,-441 "/>
<text text-anchor="start" x="20.5" y="-429.8" font-family="Helvetica,sans-Serif" font-size="8.00">+ RenderTarget : RenderTarget2D</text>
<polyline fill="none" stroke="black" points="12.5,-421 237.5,-421 "/>
<text text-anchor="start" x="20.5" y="-409.8" font-family="Helvetica,sans-Serif" font-size="8.00">+ Begin (GameTime gameTime)</text>
<text text-anchor="start" x="20.5" y="-397.8" font-family="Helvetica,sans-Serif" font-size="8.00">+ End (GameTime gameTime)</text>
<text text-anchor="start" x="20.5" y="-385.8" font-family="Helvetica,sans-Serif" font-size="8.00">+ Draw (SpriteBatch spriteBatch, GameTime gameTime)</text>
<text text-anchor="start" x="20.5" y="-373.8" font-family="Helvetica,sans-Serif" font-size="8.00">+ RemapModel (Model model)</text>
<text text-anchor="start" x="20.5" y="-361.8" font-family="Helvetica,sans-Serif" font-size="8.00">+ DrawModel (GameModel model, GameTime gameTime)</text>
</g>
<!-- Box_IRenderEffect&#45;&gt;Box_RenderEffect -->
<g id="edge2" class="edge"><title>Box_IRenderEffect&#45;&gt;Box_RenderEffect</title>
<path fill="none" stroke="midnightblue" d="M86.1131,-342.88C84.9996,-333.853 84.4626,-324.437 84.502,-315.036"/>
<polygon fill="none" stroke="midnightblue" points="82.6694,-343.517 87.6152,-352.887 89.5919,-342.478 82.6694,-343.517"/>
</g>
<!-- Box_IRenderEffect&#45;&gt;Box_RenderEffect -->
<g id="edge4" class="edge"><title>Box_IRenderEffect&#45;&gt;Box_RenderEffect</title>
<path fill="none" stroke="midnightblue" d="M99.0754,-342.88C98.3331,-333.853 97.9751,-324.437 98.0013,-315.036"/>
<polygon fill="none" stroke="midnightblue" points="95.5983,-343.285 100.077,-352.887 102.564,-342.588 95.5983,-343.285"/>
</g>
<!-- Box_IRenderEffect&#45;&gt;Box_RenderEffect -->
<g id="edge6" class="edge"><title>Box_IRenderEffect&#45;&gt;Box_RenderEffect</title>
<path fill="none" stroke="midnightblue" d="M112.038,-342.88C111.667,-333.853 111.488,-324.437 111.501,-315.036"/>
<polygon fill="none" stroke="midnightblue" points="108.543,-343.074 112.538,-352.887 115.534,-342.724 108.543,-343.074"/>
</g>
<!-- Box_IRenderEffect&#45;&gt;Box_RenderEffect -->
<g id="edge8" class="edge"><title>Box_IRenderEffect&#45;&gt;Box_RenderEffect</title>
<path fill="none" stroke="midnightblue" d="M125,-342.88C125,-333.853 125,-324.437 125,-315.036"/>
<polygon fill="none" stroke="midnightblue" points="121.5,-342.887 125,-352.887 128.5,-342.887 121.5,-342.887"/>
</g>
<!-- Box_IRenderEffect&#45;&gt;Box_RenderEffect -->
<g id="edge10" class="edge"><title>Box_IRenderEffect&#45;&gt;Box_RenderEffect</title>
<path fill="none" stroke="midnightblue" d="M137.962,-342.88C138.333,-333.853 138.512,-324.437 138.499,-315.036"/>
<polygon fill="none" stroke="midnightblue" points="134.466,-342.724 137.462,-352.887 141.457,-343.074 134.466,-342.724"/>
</g>
<!-- Box_IRenderEffect&#45;&gt;Box_RenderEffect -->
<g id="edge12" class="edge"><title>Box_IRenderEffect&#45;&gt;Box_RenderEffect</title>
<path fill="none" stroke="midnightblue" d="M150.925,-342.88C151.667,-333.853 152.025,-324.437 151.999,-315.036"/>
<polygon fill="none" stroke="midnightblue" points="147.436,-342.588 149.923,-352.887 154.402,-343.285 147.436,-342.588"/>
</g>
<!-- Box_IRenderEffect&#45;&gt;Box_RenderEffect -->
<g id="edge14" class="edge"><title>Box_IRenderEffect&#45;&gt;Box_RenderEffect</title>
<path fill="none" stroke="midnightblue" d="M163.887,-342.88C165,-333.853 165.537,-324.437 165.498,-315.036"/>
<polygon fill="none" stroke="midnightblue" points="160.408,-342.478 162.385,-352.887 167.331,-343.517 160.408,-342.478"/>
</g>
</g>
</svg>
