<?xml version="1.0" encoding="UTF-8" standalone="no"?>
<!DOCTYPE svg PUBLIC "-//W3C//DTD SVG 1.1//EN"
 "http://www.w3.org/Graphics/SVG/1.1/DTD/svg11.dtd">
<!-- Generated by graphviz version 2.26.3 (20100126.1600)
 -->
<!-- Title: MenuItem Pages: 1 -->
<svg width="1978pt" height="878pt"
 viewBox="0.00 0.00 1978.00 878.00" xmlns="http://www.w3.org/2000/svg" xmlns:xlink="http://www.w3.org/1999/xlink">
<g id="graph1" class="graph" transform="scale(1 1) rotate(0) translate(4 874)">
<title>MenuItem</title>
<polygon fill="white" stroke="white" points="-4,5 -4,-874 1975,-874 1975,5 -4,5"/>
<!-- Box_IGameObject -->
<g id="node1" class="node"><title>Box_IGameObject</title>
<polygon fill="#dafcda" stroke="black" points="873,-737 873,-869 1049,-869 1049,-737 873,-737"/>
<text text-anchor="middle" x="961" y="-857.8" font-family="Helvetica,sans-Serif" font-size="8.00">IGameObject</text>
<polyline fill="none" stroke="black" points="873,-849 1049,-849 "/>
<text text-anchor="start" x="881" y="-837.8" font-family="Helvetica,sans-Serif" font-size="8.00">Attributes:</text>
<text text-anchor="start" x="881" y="-825.8" font-family="Helvetica,sans-Serif" font-size="8.00">+ Info : GameObjectInfo</text>
<text text-anchor="start" x="881" y="-813.8" font-family="Helvetica,sans-Serif" font-size="8.00">+ World : World</text>
<text text-anchor="start" x="881" y="-801.8" font-family="Helvetica,sans-Serif" font-size="8.00">Methods:</text>
<polyline fill="none" stroke="black" points="873,-793 1049,-793 "/>
<text text-anchor="start" x="881" y="-781.8" font-family="Helvetica,sans-Serif" font-size="8.00">+ Draw (GameTime gameTime)</text>
<text text-anchor="start" x="881" y="-769.8" font-family="Helvetica,sans-Serif" font-size="8.00">+ Update (GameTime gameTime)</text>
<text text-anchor="start" x="881" y="-757.8" font-family="Helvetica,sans-Serif" font-size="8.00">+ Intersects (Ray ray) : GameObjectDistance</text>
<text text-anchor="start" x="881" y="-745.8" font-family="Helvetica,sans-Serif" font-size="8.00">+ Center () : Vector3</text>
</g>
<!-- Box_GameModel -->
<g id="node2" class="node"><title>Box_GameModel</title>
<polygon fill="#fcfcda" stroke="black" points="1487,-327 1487,-699 1699,-699 1699,-327 1487,-327"/>
<text text-anchor="middle" x="1593" y="-687.8" font-family="Helvetica,sans-Serif" font-size="8.00">GameModel</text>
<polyline fill="none" stroke="black" points="1487,-679 1699,-679 "/>
<text text-anchor="start" x="1495" y="-667.8" font-family="Helvetica,sans-Serif" font-size="8.00">Attributes:</text>
<text text-anchor="start" x="1495" y="-655.8" font-family="Helvetica,sans-Serif" font-size="8.00">&#45; IGameObject.Info : GameObjectInfo</text>
<text text-anchor="start" x="1495" y="-643.8" font-family="Helvetica,sans-Serif" font-size="8.00">&#45; _rotation : Angles3</text>
<text text-anchor="start" x="1495" y="-631.8" font-family="Helvetica,sans-Serif" font-size="8.00">&#45; Bounds : BoundingSphere[]</text>
<text text-anchor="start" x="1495" y="-619.8" font-family="Helvetica,sans-Serif" font-size="8.00">&#45; _bounds : BoundingSphere[]</text>
<text text-anchor="start" x="1495" y="-607.8" font-family="Helvetica,sans-Serif" font-size="8.00">&#45; _worldMatrix : Matrix</text>
<text text-anchor="start" x="1495" y="-595.8" font-family="Helvetica,sans-Serif" font-size="8.00">&#45; _position : Vector3</text>
<text text-anchor="start" x="1495" y="-583.8" font-family="Helvetica,sans-Serif" font-size="8.00">&#45; _inFrustum : bool</text>
<text text-anchor="start" x="1495" y="-571.8" font-family="Helvetica,sans-Serif" font-size="8.00"># InCameraFrustum : bool</text>
<text text-anchor="start" x="1495" y="-559.8" font-family="Helvetica,sans-Serif" font-size="8.00">+ BaseColor : Color</text>
<text text-anchor="start" x="1495" y="-547.8" font-family="Helvetica,sans-Serif" font-size="8.00">+ HighlightColor : Color</text>
<text text-anchor="start" x="1495" y="-535.8" font-family="Helvetica,sans-Serif" font-size="8.00">+ Info : GameModelInfo</text>
<text text-anchor="start" x="1495" y="-523.8" font-family="Helvetica,sans-Serif" font-size="8.00">+ WorldMatrix : Matrix</text>
<text text-anchor="start" x="1495" y="-511.8" font-family="Helvetica,sans-Serif" font-size="8.00">+ World : World</text>
<text text-anchor="start" x="1495" y="-499.8" font-family="Helvetica,sans-Serif" font-size="8.00">+ Alpha : float</text>
<text text-anchor="start" x="1495" y="-487.8" font-family="Helvetica,sans-Serif" font-size="8.00">+ HighlightIntensity : float</text>
<text text-anchor="start" x="1495" y="-475.8" font-family="Helvetica,sans-Serif" font-size="8.00">&#45; _world : World</text>
<text text-anchor="start" x="1495" y="-463.8" font-family="Helvetica,sans-Serif" font-size="8.00">&#45; _scale : float</text>
<text text-anchor="start" x="1495" y="-451.8" font-family="Helvetica,sans-Serif" font-size="8.00"># state : GameState</text>
<text text-anchor="start" x="1495" y="-439.8" font-family="Helvetica,sans-Serif" font-size="8.00">+ Model : Model virtual</text>
<text text-anchor="start" x="1495" y="-427.8" font-family="Helvetica,sans-Serif" font-size="8.00">Methods:</text>
<polyline fill="none" stroke="black" points="1487,-419 1699,-419 "/>
<text text-anchor="start" x="1495" y="-407.8" font-family="Helvetica,sans-Serif" font-size="8.00">&#45; OnViewChanged ()</text>
<text text-anchor="start" x="1495" y="-395.8" font-family="Helvetica,sans-Serif" font-size="8.00">&#45; UpdatePrecomputed ()</text>
<text text-anchor="start" x="1495" y="-383.8" font-family="Helvetica,sans-Serif" font-size="8.00">+ GameModel (GameState state, GameModelInfo info)</text>
<text text-anchor="start" x="1495" y="-371.8" font-family="Helvetica,sans-Serif" font-size="8.00">+ Draw (GameTime gameTime) virtual</text>
<text text-anchor="start" x="1495" y="-359.8" font-family="Helvetica,sans-Serif" font-size="8.00">+ Center () : Vector3</text>
<text text-anchor="start" x="1495" y="-347.8" font-family="Helvetica,sans-Serif" font-size="8.00">+ Intersects (Ray ray) : GameObjectDistance virtual</text>
<text text-anchor="start" x="1495" y="-335.8" font-family="Helvetica,sans-Serif" font-size="8.00">+ Update (GameTime gameTime) virtual</text>
</g>
<!-- Box_IGameObject&#45;&gt;Box_GameModel -->
<g id="edge2" class="edge"><title>Box_IGameObject&#45;&gt;Box_GameModel</title>
<path fill="none" stroke="midnightblue" d="M1059.35,-788.231C1175.95,-769.493 1362.15,-735.34 1423,-700 1445.76,-686.779 1467.2,-669.483 1486.67,-650.748"/>
<polygon fill="none" stroke="midnightblue" points="1058.66,-784.796 1049.34,-789.829 1059.77,-791.709 1058.66,-784.796"/>
</g>
<!-- Box_KnotRenderer -->
<g id="node6" class="node"><title>Box_KnotRenderer</title>
<polygon fill="#fcfcda" stroke="black" points="242,-423 242,-603 448,-603 448,-423 242,-423"/>
<text text-anchor="middle" x="345" y="-591.8" font-family="Helvetica,sans-Serif" font-size="8.00">KnotRenderer</text>
<polyline fill="none" stroke="black" points="242,-583 448,-583 "/>
<text text-anchor="start" x="250" y="-571.8" font-family="Helvetica,sans-Serif" font-size="8.00">Attributes:</text>
<text text-anchor="start" x="250" y="-559.8" font-family="Helvetica,sans-Serif" font-size="8.00">+ World : World abstract</text>
<text text-anchor="start" x="250" y="-547.8" font-family="Helvetica,sans-Serif" font-size="8.00"># state : GameState</text>
<text text-anchor="start" x="250" y="-535.8" font-family="Helvetica,sans-Serif" font-size="8.00">+ Info : GameObjectInfo abstract</text>
<text text-anchor="start" x="250" y="-523.8" font-family="Helvetica,sans-Serif" font-size="8.00">Methods:</text>
<polyline fill="none" stroke="black" points="242,-515 448,-515 "/>
<text text-anchor="start" x="250" y="-503.8" font-family="Helvetica,sans-Serif" font-size="8.00"># nodeMap () : NodeMap</text>
<text text-anchor="start" x="250" y="-491.8" font-family="Helvetica,sans-Serif" font-size="8.00">+ Intersects (Ray ray) : GameObjectDistance abstract</text>
<text text-anchor="start" x="250" y="-479.8" font-family="Helvetica,sans-Serif" font-size="8.00">+ Center () : Vector3 abstract</text>
<text text-anchor="start" x="250" y="-467.8" font-family="Helvetica,sans-Serif" font-size="8.00">+ Draw (GameTime gameTime) abstract</text>
<text text-anchor="start" x="250" y="-455.8" font-family="Helvetica,sans-Serif" font-size="8.00">+ KnotRenderer (GameState state)</text>
<text text-anchor="start" x="250" y="-443.8" font-family="Helvetica,sans-Serif" font-size="8.00">+ Update (GameTime gameTime) abstract</text>
<text text-anchor="start" x="250" y="-431.8" font-family="Helvetica,sans-Serif" font-size="8.00">+ OnEdgesChanged (EdgeList edges) virtual</text>
</g>
<!-- Box_IGameObject&#45;&gt;Box_KnotRenderer -->
<g id="edge12" class="edge"><title>Box_IGameObject&#45;&gt;Box_KnotRenderer</title>
<path fill="none" stroke="midnightblue" d="M862.594,-792.385C734.965,-777.029 521.079,-745.397 457,-700 423.188,-676.045 397.809,-638.37 379.837,-603.095"/>
<polygon fill="none" stroke="midnightblue" points="862.425,-795.89 872.768,-793.597 863.253,-788.939 862.425,-795.89"/>
</g>
<!-- Box_MovableGameObject -->
<g id="node10" class="node"><title>Box_MovableGameObject</title>
<polygon fill="#fcfcda" stroke="black" points="1163.5,-411 1163.5,-615 1414.5,-615 1414.5,-411 1163.5,-411"/>
<text text-anchor="middle" x="1289" y="-603.8" font-family="Helvetica,sans-Serif" font-size="8.00">MovableGameObject</text>
<polyline fill="none" stroke="black" points="1163.5,-595 1414.5,-595 "/>
<text text-anchor="start" x="1171.5" y="-583.8" font-family="Helvetica,sans-Serif" font-size="8.00">Attributes:</text>
<text text-anchor="start" x="1171.5" y="-571.8" font-family="Helvetica,sans-Serif" font-size="8.00">&#45; Obj : IGameObject</text>
<text text-anchor="start" x="1171.5" y="-559.8" font-family="Helvetica,sans-Serif" font-size="8.00">+ World : World</text>
<text text-anchor="start" x="1171.5" y="-547.8" font-family="Helvetica,sans-Serif" font-size="8.00">&#45; state : GameState</text>
<text text-anchor="start" x="1171.5" y="-535.8" font-family="Helvetica,sans-Serif" font-size="8.00">+ Info : GameObjectInfo</text>
<text text-anchor="start" x="1171.5" y="-523.8" font-family="Helvetica,sans-Serif" font-size="8.00">Methods:</text>
<polyline fill="none" stroke="black" points="1163.5,-515 1414.5,-515 "/>
<text text-anchor="start" x="1171.5" y="-503.8" font-family="Helvetica,sans-Serif" font-size="8.00"># CurrentGroundPlane () : Plane</text>
<text text-anchor="start" x="1171.5" y="-491.8" font-family="Helvetica,sans-Serif" font-size="8.00">+ MovableGameObject (GameState state, IGameObject obj)</text>
<text text-anchor="start" x="1171.5" y="-479.8" font-family="Helvetica,sans-Serif" font-size="8.00">+ Update (GameTime gameTime) virtual</text>
<text text-anchor="start" x="1171.5" y="-467.8" font-family="Helvetica,sans-Serif" font-size="8.00"># CurrentMouseRay () : Ray</text>
<text text-anchor="start" x="1171.5" y="-455.8" font-family="Helvetica,sans-Serif" font-size="8.00"># CurrentMousePosition (Ray ray, Plane groundPlane) : Vector3?</text>
<text text-anchor="start" x="1171.5" y="-443.8" font-family="Helvetica,sans-Serif" font-size="8.00">+ Intersects (Ray ray) : GameObjectDistance</text>
<text text-anchor="start" x="1171.5" y="-431.8" font-family="Helvetica,sans-Serif" font-size="8.00">+ Center () : Vector3</text>
<text text-anchor="start" x="1171.5" y="-419.8" font-family="Helvetica,sans-Serif" font-size="8.00">+ Draw (GameTime gameTime)</text>
</g>
<!-- Box_IGameObject&#45;&gt;Box_MovableGameObject -->
<g id="edge24" class="edge"><title>Box_IGameObject&#45;&gt;Box_MovableGameObject</title>
<path fill="none" stroke="midnightblue" d="M1058.62,-762.199C1091.33,-745.767 1126.66,-724.781 1155,-700 1182.66,-675.811 1207.75,-644.857 1228.53,-615.124"/>
<polygon fill="none" stroke="midnightblue" points="1056.88,-759.15 1049.46,-766.712 1059.98,-765.427 1056.88,-759.15"/>
</g>
<!-- Box_PipeMovement -->
<g id="node11" class="node"><title>Box_PipeMovement</title>
<polygon fill="#fcfcda" stroke="black" points="713.5,-1 713.5,-289 1050.5,-289 1050.5,-1 713.5,-1"/>
<text text-anchor="middle" x="882" y="-277.8" font-family="Helvetica,sans-Serif" font-size="8.00">PipeMovement</text>
<polyline fill="none" stroke="black" points="713.5,-269 1050.5,-269 "/>
<text text-anchor="start" x="721.5" y="-257.8" font-family="Helvetica,sans-Serif" font-size="8.00">Attributes:</text>
<text text-anchor="start" x="721.5" y="-245.8" font-family="Helvetica,sans-Serif" font-size="8.00">&#45; shadowObjects : List&lt;ShadowGameObject&gt;</text>
<text text-anchor="start" x="721.5" y="-233.8" font-family="Helvetica,sans-Serif" font-size="8.00">+ World : World</text>
<text text-anchor="start" x="721.5" y="-221.8" font-family="Helvetica,sans-Serif" font-size="8.00">&#45; state : GameState</text>
<text text-anchor="start" x="721.5" y="-209.8" font-family="Helvetica,sans-Serif" font-size="8.00">&#45; previousMousePosition : Vector3</text>
<text text-anchor="start" x="721.5" y="-197.8" font-family="Helvetica,sans-Serif" font-size="8.00">+ Info : GameObjectInfo</text>
<text text-anchor="start" x="721.5" y="-185.8" font-family="Helvetica,sans-Serif" font-size="8.00">+ Knot : Knot</text>
<text text-anchor="start" x="721.5" y="-173.8" font-family="Helvetica,sans-Serif" font-size="8.00">Methods:</text>
<polyline fill="none" stroke="black" points="713.5,-165 1050.5,-165 "/>
<text text-anchor="start" x="721.5" y="-153.8" font-family="Helvetica,sans-Serif" font-size="8.00">&#45; knownEdgeLists () : HashSet&lt;EdgeList&gt;</text>
<text text-anchor="start" x="721.5" y="-141.8" font-family="Helvetica,sans-Serif" font-size="8.00">&#45; IEnumerable.GetEnumerator () : IEnumerator</text>
<text text-anchor="start" x="721.5" y="-129.8" font-family="Helvetica,sans-Serif" font-size="8.00">&#45; ComputeDirection (Vector3 currentMousePosition, out Vector3 direction, out float count)</text>
<text text-anchor="start" x="721.5" y="-117.8" font-family="Helvetica,sans-Serif" font-size="8.00">&#45; MovePipes (Vector3 currentMousePosition)</text>
<text text-anchor="start" x="721.5" y="-105.8" font-family="Helvetica,sans-Serif" font-size="8.00">+ Intersects (Ray ray) : GameObjectDistance</text>
<text text-anchor="start" x="721.5" y="-93.8" font-family="Helvetica,sans-Serif" font-size="8.00">+ GetEnumerator () : IEnumerator&lt;IGameObject&gt;</text>
<text text-anchor="start" x="721.5" y="-81.8" font-family="Helvetica,sans-Serif" font-size="8.00">+ PipeMovement (GameState state, World world, GameObjectInfo info)</text>
<text text-anchor="start" x="721.5" y="-69.8" font-family="Helvetica,sans-Serif" font-size="8.00">+ Draw (GameTime gameTime)</text>
<text text-anchor="start" x="721.5" y="-57.8" font-family="Helvetica,sans-Serif" font-size="8.00">&#45; ComputeDirection (Vector3 currentMousePosition, out Vector3 direction, out int countInt)</text>
<text text-anchor="start" x="721.5" y="-45.8" font-family="Helvetica,sans-Serif" font-size="8.00">&#45; CreateShadowPipes ()</text>
<text text-anchor="start" x="721.5" y="-33.8" font-family="Helvetica,sans-Serif" font-size="8.00">&#45; MoveShadowPipes (Vector3 currentMousePosition)</text>
<text text-anchor="start" x="721.5" y="-21.8" font-family="Helvetica,sans-Serif" font-size="8.00">+ Center () : Vector3</text>
<text text-anchor="start" x="721.5" y="-9.8" font-family="Helvetica,sans-Serif" font-size="8.00">+ Update (GameTime gameTime)</text>
</g>
<!-- Box_IGameObject&#45;&gt;Box_PipeMovement -->
<g id="edge26" class="edge"><title>Box_IGameObject&#45;&gt;Box_PipeMovement</title>
<path fill="none" stroke="midnightblue" d="M918.45,-727.417C914.694,-718.386 911.409,-709.128 909,-700 873.086,-563.937 869.334,-402.73 872.753,-289.213"/>
<polygon fill="none" stroke="midnightblue" points="915.308,-728.967 922.518,-736.731 921.723,-726.166 915.308,-728.967"/>
</g>
<!-- Box_ShadowGameObject -->
<g id="node12" class="node"><title>Box_ShadowGameObject</title>
<polygon fill="#fcfcda" stroke="black" points="917.5,-417 917.5,-609 1146.5,-609 1146.5,-417 917.5,-417"/>
<text text-anchor="middle" x="1032" y="-597.8" font-family="Helvetica,sans-Serif" font-size="8.00">ShadowGameObject</text>
<polyline fill="none" stroke="black" points="917.5,-589 1146.5,-589 "/>
<text text-anchor="start" x="925.5" y="-577.8" font-family="Helvetica,sans-Serif" font-size="8.00">Attributes:</text>
<text text-anchor="start" x="925.5" y="-565.8" font-family="Helvetica,sans-Serif" font-size="8.00">&#45; Obj : IGameObject</text>
<text text-anchor="start" x="925.5" y="-553.8" font-family="Helvetica,sans-Serif" font-size="8.00">+ Info : GameObjectInfo</text>
<text text-anchor="start" x="925.5" y="-541.8" font-family="Helvetica,sans-Serif" font-size="8.00">+ OriginalPosition : Vector3</text>
<text text-anchor="start" x="925.5" y="-529.8" font-family="Helvetica,sans-Serif" font-size="8.00">+ World : World</text>
<text text-anchor="start" x="925.5" y="-517.8" font-family="Helvetica,sans-Serif" font-size="8.00"># state : GameState</text>
<text text-anchor="start" x="925.5" y="-505.8" font-family="Helvetica,sans-Serif" font-size="8.00">+ ShadowPosition : Vector3</text>
<text text-anchor="start" x="925.5" y="-493.8" font-family="Helvetica,sans-Serif" font-size="8.00">Methods:</text>
<polyline fill="none" stroke="black" points="917.5,-485 1146.5,-485 "/>
<text text-anchor="start" x="925.5" y="-473.8" font-family="Helvetica,sans-Serif" font-size="8.00">+ Update (GameTime gameTime) virtual</text>
<text text-anchor="start" x="925.5" y="-461.8" font-family="Helvetica,sans-Serif" font-size="8.00">+ Intersects (Ray ray) : GameObjectDistance</text>
<text text-anchor="start" x="925.5" y="-449.8" font-family="Helvetica,sans-Serif" font-size="8.00">+ ShadowGameObject (GameState state, IGameObject obj)</text>
<text text-anchor="start" x="925.5" y="-437.8" font-family="Helvetica,sans-Serif" font-size="8.00">+ Center () : Vector3</text>
<text text-anchor="start" x="925.5" y="-425.8" font-family="Helvetica,sans-Serif" font-size="8.00">+ Draw (GameTime gameTime) virtual</text>
</g>
<!-- Box_IGameObject&#45;&gt;Box_ShadowGameObject -->
<g id="edge30" class="edge"><title>Box_IGameObject&#45;&gt;Box_ShadowGameObject</title>
<path fill="none" stroke="midnightblue" d="M979.638,-726.875C988.46,-690.84 999.092,-647.414 1008.46,-609.133"/>
<polygon fill="none" stroke="midnightblue" points="976.178,-726.286 977.2,-736.832 982.978,-727.951 976.178,-726.286"/>
</g>
<!-- Box_TexturedRectangle -->
<g id="node14" class="node"><title>Box_TexturedRectangle</title>
<polygon fill="#fcfcda" stroke="black" points="465.5,-351 465.5,-675 726.5,-675 726.5,-351 465.5,-351"/>
<text text-anchor="middle" x="596" y="-663.8" font-family="Helvetica,sans-Serif" font-size="8.00">TexturedRectangle</text>
<polyline fill="none" stroke="black" points="465.5,-655 726.5,-655 "/>
<text text-anchor="start" x="473.5" y="-643.8" font-family="Helvetica,sans-Serif" font-size="8.00">Attributes:</text>
<text text-anchor="start" x="473.5" y="-631.8" font-family="Helvetica,sans-Serif" font-size="8.00">&#45; IGameObject.Info : GameObjectInfo</text>
<text text-anchor="start" x="473.5" y="-619.8" font-family="Helvetica,sans-Serif" font-size="8.00">&#45; basicEffect : BasicEffect</text>
<text text-anchor="start" x="473.5" y="-607.8" font-family="Helvetica,sans-Serif" font-size="8.00">&#45; texture : Texture2D</text>
<text text-anchor="start" x="473.5" y="-595.8" font-family="Helvetica,sans-Serif" font-size="8.00">&#45; LowerLeft : Vector3</text>
<text text-anchor="start" x="473.5" y="-583.8" font-family="Helvetica,sans-Serif" font-size="8.00">&#45; LowerRight : Vector3</text>
<text text-anchor="start" x="473.5" y="-571.8" font-family="Helvetica,sans-Serif" font-size="8.00">&#45; Normal : Vector3</text>
<text text-anchor="start" x="473.5" y="-559.8" font-family="Helvetica,sans-Serif" font-size="8.00">&#45; UpperRight : Vector3</text>
<text text-anchor="start" x="473.5" y="-547.8" font-family="Helvetica,sans-Serif" font-size="8.00">&#45; Vertices : VertexPositionNormalTexture[]</text>
<text text-anchor="start" x="473.5" y="-535.8" font-family="Helvetica,sans-Serif" font-size="8.00">&#45; Indexes : short[]</text>
<text text-anchor="start" x="473.5" y="-523.8" font-family="Helvetica,sans-Serif" font-size="8.00">+ Info : TexturedRectangleInfo</text>
<text text-anchor="start" x="473.5" y="-511.8" font-family="Helvetica,sans-Serif" font-size="8.00">&#45; UpperLeft : Vector3</text>
<text text-anchor="start" x="473.5" y="-499.8" font-family="Helvetica,sans-Serif" font-size="8.00"># state : GameState</text>
<text text-anchor="start" x="473.5" y="-487.8" font-family="Helvetica,sans-Serif" font-size="8.00">+ World : World</text>
<text text-anchor="start" x="473.5" y="-475.8" font-family="Helvetica,sans-Serif" font-size="8.00">Methods:</text>
<polyline fill="none" stroke="black" points="465.5,-467 726.5,-467 "/>
<text text-anchor="start" x="473.5" y="-455.8" font-family="Helvetica,sans-Serif" font-size="8.00">&#45; Length () : Vector3</text>
<text text-anchor="start" x="473.5" y="-443.8" font-family="Helvetica,sans-Serif" font-size="8.00">&#45; FillVertices ()</text>
<text text-anchor="start" x="473.5" y="-431.8" font-family="Helvetica,sans-Serif" font-size="8.00">+ Intersects (Ray ray) : GameObjectDistance</text>
<text text-anchor="start" x="473.5" y="-419.8" font-family="Helvetica,sans-Serif" font-size="8.00">+ TexturedRectangle (GameState state, TexturedRectangleInfo info)</text>
<text text-anchor="start" x="473.5" y="-407.8" font-family="Helvetica,sans-Serif" font-size="8.00">+ Draw (GameTime gameTime)</text>
<text text-anchor="start" x="473.5" y="-395.8" font-family="Helvetica,sans-Serif" font-size="8.00"># SetPosition (Vector3 position)</text>
<text text-anchor="start" x="473.5" y="-383.8" font-family="Helvetica,sans-Serif" font-size="8.00">+ Bounds () : BoundingBox[]</text>
<text text-anchor="start" x="473.5" y="-371.8" font-family="Helvetica,sans-Serif" font-size="8.00">+ Center () : Vector3</text>
<text text-anchor="start" x="473.5" y="-359.8" font-family="Helvetica,sans-Serif" font-size="8.00">+ Update (GameTime gameTime)</text>
</g>
<!-- Box_IGameObject&#45;&gt;Box_TexturedRectangle -->
<g id="edge34" class="edge"><title>Box_IGameObject&#45;&gt;Box_TexturedRectangle</title>
<path fill="none" stroke="midnightblue" d="M863.394,-771.03C821.138,-754.164 772.806,-730.548 735,-700 725.561,-692.373 716.425,-683.965 707.651,-675.065"/>
<polygon fill="none" stroke="midnightblue" points="862.283,-774.354 872.871,-774.741 864.835,-767.836 862.283,-774.354"/>
</g>
<!-- Box_NodeModel -->
<g id="node3" class="node"><title>Box_NodeModel</title>
<polygon fill="#fcfcda" stroke="black" points="1545.5,-97 1545.5,-193 1752.5,-193 1752.5,-97 1545.5,-97"/>
<text text-anchor="middle" x="1649" y="-181.8" font-family="Helvetica,sans-Serif" font-size="8.00">NodeModel</text>
<polyline fill="none" stroke="black" points="1545.5,-173 1752.5,-173 "/>
<text text-anchor="start" x="1553.5" y="-161.8" font-family="Helvetica,sans-Serif" font-size="8.00">Attributes:</text>
<text text-anchor="start" x="1553.5" y="-149.8" font-family="Helvetica,sans-Serif" font-size="8.00">+ Info : NodeModelInfo</text>
<text text-anchor="start" x="1553.5" y="-137.8" font-family="Helvetica,sans-Serif" font-size="8.00">Methods:</text>
<polyline fill="none" stroke="black" points="1545.5,-129 1752.5,-129 "/>
<text text-anchor="start" x="1553.5" y="-117.8" font-family="Helvetica,sans-Serif" font-size="8.00">+ NodeModel (GameState state, NodeModelInfo info)</text>
<text text-anchor="start" x="1553.5" y="-105.8" font-family="Helvetica,sans-Serif" font-size="8.00">+ Draw (GameTime gameTime)</text>
</g>
<!-- Box_GameModel&#45;&gt;Box_NodeModel -->
<g id="edge4" class="edge"><title>Box_GameModel&#45;&gt;Box_NodeModel</title>
<path fill="none" stroke="midnightblue" d="M1622.87,-316.688C1629.89,-270.605 1636.74,-225.557 1641.67,-193.175"/>
<polygon fill="none" stroke="midnightblue" points="1619.37,-316.431 1621.33,-326.844 1626.29,-317.484 1619.37,-316.431"/>
</g>
<!-- Box_PipeModel -->
<g id="node4" class="node"><title>Box_PipeModel</title>
<polygon fill="#fcfcda" stroke="black" points="1770,-79 1770,-211 1970,-211 1970,-79 1770,-79"/>
<text text-anchor="middle" x="1870" y="-199.8" font-family="Helvetica,sans-Serif" font-size="8.00">PipeModel</text>
<polyline fill="none" stroke="black" points="1770,-191 1970,-191 "/>
<text text-anchor="start" x="1778" y="-179.8" font-family="Helvetica,sans-Serif" font-size="8.00">Attributes:</text>
<text text-anchor="start" x="1778" y="-167.8" font-family="Helvetica,sans-Serif" font-size="8.00">&#45; Bounds : BoundingSphere[]</text>
<text text-anchor="start" x="1778" y="-155.8" font-family="Helvetica,sans-Serif" font-size="8.00">+ Info : PipeModelInfo</text>
<text text-anchor="start" x="1778" y="-143.8" font-family="Helvetica,sans-Serif" font-size="8.00">Methods:</text>
<polyline fill="none" stroke="black" points="1770,-135 1970,-135 "/>
<text text-anchor="start" x="1778" y="-123.8" font-family="Helvetica,sans-Serif" font-size="8.00">+ OnDataChange () : Action</text>
<text text-anchor="start" x="1778" y="-111.8" font-family="Helvetica,sans-Serif" font-size="8.00">+ Draw (GameTime gameTime)</text>
<text text-anchor="start" x="1778" y="-99.8" font-family="Helvetica,sans-Serif" font-size="8.00">+ PipeModel (GameState state, PipeModelInfo info)</text>
<text text-anchor="start" x="1778" y="-87.8" font-family="Helvetica,sans-Serif" font-size="8.00">+ Intersects (Ray ray) : GameObjectDistance</text>
</g>
<!-- Box_GameModel&#45;&gt;Box_PipeModel -->
<g id="edge6" class="edge"><title>Box_GameModel&#45;&gt;Box_PipeModel</title>
<path fill="none" stroke="midnightblue" d="M1705.25,-364.047C1723.87,-339.319 1742.98,-313.94 1761,-290 1780.41,-264.207 1801.75,-235.823 1820.37,-211.058"/>
<polygon fill="none" stroke="midnightblue" points="1702.44,-361.957 1699.22,-372.051 1708.03,-366.169 1702.44,-361.957"/>
</g>
<!-- Box_TestModel -->
<g id="node5" class="node"><title>Box_TestModel</title>
<polygon fill="#fcfcda" stroke="black" points="1322,-103 1322,-187 1528,-187 1528,-103 1322,-103"/>
<text text-anchor="middle" x="1425" y="-175.8" font-family="Helvetica,sans-Serif" font-size="8.00">TestModel</text>
<polyline fill="none" stroke="black" points="1322,-167 1528,-167 "/>
<text text-anchor="start" x="1330" y="-155.8" font-family="Helvetica,sans-Serif" font-size="8.00">Attributes:</text>
<text text-anchor="start" x="1330" y="-143.8" font-family="Helvetica,sans-Serif" font-size="8.00">Methods:</text>
<polyline fill="none" stroke="black" points="1322,-135 1528,-135 "/>
<text text-anchor="start" x="1330" y="-123.8" font-family="Helvetica,sans-Serif" font-size="8.00">+ Update (GameTime gameTime)</text>
<text text-anchor="start" x="1330" y="-111.8" font-family="Helvetica,sans-Serif" font-size="8.00">+ TestModel (GameState state, GameModelInfo info)</text>
</g>
<!-- Box_GameModel&#45;&gt;Box_TestModel -->
<g id="edge8" class="edge"><title>Box_GameModel&#45;&gt;Box_TestModel</title>
<path fill="none" stroke="midnightblue" d="M1503.81,-317.637C1481.32,-268.376 1459.33,-220.206 1444.32,-187.321"/>
<polygon fill="none" stroke="midnightblue" points="1500.68,-319.2 1508.02,-326.844 1507.05,-316.293 1500.68,-319.2"/>
</g>
<!-- Box_LineRenderer -->
<g id="node7" class="node"><title>Box_LineRenderer</title>
<polygon fill="#fcfcda" stroke="black" points="0,-49 0,-241 218,-241 218,-49 0,-49"/>
<text text-anchor="middle" x="109" y="-229.8" font-family="Helvetica,sans-Serif" font-size="8.00">LineRenderer</text>
<polyline fill="none" stroke="black" points="0,-221 218,-221 "/>
<text text-anchor="start" x="8" y="-209.8" font-family="Helvetica,sans-Serif" font-size="8.00">Attributes:</text>
<text text-anchor="start" x="8" y="-197.8" font-family="Helvetica,sans-Serif" font-size="8.00">&#45; edges : EdgeList</text>
<text text-anchor="start" x="8" y="-185.8" font-family="Helvetica,sans-Serif" font-size="8.00">&#45; basicEffect : BasicEffect</text>
<text text-anchor="start" x="8" y="-173.8" font-family="Helvetica,sans-Serif" font-size="8.00">+ Info : GameObjectInfo</text>
<text text-anchor="start" x="8" y="-161.8" font-family="Helvetica,sans-Serif" font-size="8.00">+ World : World</text>
<text text-anchor="start" x="8" y="-149.8" font-family="Helvetica,sans-Serif" font-size="8.00">Methods:</text>
<polyline fill="none" stroke="black" points="0,-141 218,-141 "/>
<text text-anchor="start" x="8" y="-129.8" font-family="Helvetica,sans-Serif" font-size="8.00">+ LineRenderer (GameState state, GameObjectInfo info)</text>
<text text-anchor="start" x="8" y="-117.8" font-family="Helvetica,sans-Serif" font-size="8.00">+ OnEdgesChanged (EdgeList edges)</text>
<text text-anchor="start" x="8" y="-105.8" font-family="Helvetica,sans-Serif" font-size="8.00">&#45; DrawRoundedLines ()</text>
<text text-anchor="start" x="8" y="-93.8" font-family="Helvetica,sans-Serif" font-size="8.00">+ Intersects (Ray ray) : GameObjectDistance</text>
<text text-anchor="start" x="8" y="-81.8" font-family="Helvetica,sans-Serif" font-size="8.00">+ Center () : Vector3</text>
<text text-anchor="start" x="8" y="-69.8" font-family="Helvetica,sans-Serif" font-size="8.00">+ Draw (GameTime gameTime)</text>
<text text-anchor="start" x="8" y="-57.8" font-family="Helvetica,sans-Serif" font-size="8.00">+ Update (GameTime gameTime)</text>
</g>
<!-- Box_KnotRenderer&#45;&gt;Box_LineRenderer -->
<g id="edge14" class="edge"><title>Box_KnotRenderer&#45;&gt;Box_LineRenderer</title>
<path fill="none" stroke="midnightblue" d="M281.81,-414.466C247.357,-360.744 204.891,-294.525 170.678,-241.175"/>
<polygon fill="none" stroke="midnightblue" points="278.923,-416.449 287.268,-422.977 284.816,-412.67 278.923,-416.449"/>
</g>
<!-- Box_ModelRenderer -->
<g id="node8" class="node"><title>Box_ModelRenderer</title>
<polygon fill="#fcfcda" stroke="black" points="471.5,-31 471.5,-259 696.5,-259 696.5,-31 471.5,-31"/>
<text text-anchor="middle" x="584" y="-247.8" font-family="Helvetica,sans-Serif" font-size="8.00">ModelRenderer</text>
<polyline fill="none" stroke="black" points="471.5,-239 696.5,-239 "/>
<text text-anchor="start" x="479.5" y="-227.8" font-family="Helvetica,sans-Serif" font-size="8.00">Attributes:</text>
<text text-anchor="start" x="479.5" y="-215.8" font-family="Helvetica,sans-Serif" font-size="8.00">&#45; nodes : List&lt;NodeModel&gt;</text>
<text text-anchor="start" x="479.5" y="-203.8" font-family="Helvetica,sans-Serif" font-size="8.00">&#45; nodeFactory : ModelFactory</text>
<text text-anchor="start" x="479.5" y="-191.8" font-family="Helvetica,sans-Serif" font-size="8.00">&#45; pipeFactory : ModelFactory</text>
<text text-anchor="start" x="479.5" y="-179.8" font-family="Helvetica,sans-Serif" font-size="8.00">&#45; pipes : List&lt;PipeModel&gt;</text>
<text text-anchor="start" x="479.5" y="-167.8" font-family="Helvetica,sans-Serif" font-size="8.00">+ Info : GameObjectInfo</text>
<text text-anchor="start" x="479.5" y="-155.8" font-family="Helvetica,sans-Serif" font-size="8.00">+ World : World</text>
<text text-anchor="start" x="479.5" y="-143.8" font-family="Helvetica,sans-Serif" font-size="8.00">Methods:</text>
<polyline fill="none" stroke="black" points="471.5,-135 696.5,-135 "/>
<text text-anchor="start" x="479.5" y="-123.8" font-family="Helvetica,sans-Serif" font-size="8.00">&#45; IEnumerable.GetEnumerator () : IEnumerator</text>
<text text-anchor="start" x="479.5" y="-111.8" font-family="Helvetica,sans-Serif" font-size="8.00">+ ModelRenderer (GameState state, GameObjectInfo info)</text>
<text text-anchor="start" x="479.5" y="-99.8" font-family="Helvetica,sans-Serif" font-size="8.00">+ Draw (GameTime gameTime)</text>
<text text-anchor="start" x="479.5" y="-87.8" font-family="Helvetica,sans-Serif" font-size="8.00">+ OnEdgesChanged (EdgeList edgeList)</text>
<text text-anchor="start" x="479.5" y="-75.8" font-family="Helvetica,sans-Serif" font-size="8.00">+ GetEnumerator () : IEnumerator&lt;IGameObject&gt;</text>
<text text-anchor="start" x="479.5" y="-63.8" font-family="Helvetica,sans-Serif" font-size="8.00">+ Intersects (Ray ray) : GameObjectDistance</text>
<text text-anchor="start" x="479.5" y="-51.8" font-family="Helvetica,sans-Serif" font-size="8.00">+ Center () : Vector3</text>
<text text-anchor="start" x="479.5" y="-39.8" font-family="Helvetica,sans-Serif" font-size="8.00">+ Update (GameTime gameTime)</text>
</g>
<!-- Box_KnotRenderer&#45;&gt;Box_ModelRenderer -->
<g id="edge16" class="edge"><title>Box_KnotRenderer&#45;&gt;Box_ModelRenderer</title>
<path fill="none" stroke="midnightblue" d="M402.5,-413.975C419.619,-385.328 438.701,-354.191 457,-326 471.212,-304.105 486.835,-281.071 502.116,-259.047"/>
<polygon fill="none" stroke="midnightblue" points="399.366,-412.397 397.253,-422.779 405.379,-415.981 399.366,-412.397"/>
</g>
<!-- Box_PipeRenderer -->
<g id="node9" class="node"><title>Box_PipeRenderer</title>
<polygon fill="#fcfcda" stroke="black" points="235.5,-31 235.5,-259 454.5,-259 454.5,-31 235.5,-31"/>
<text text-anchor="middle" x="345" y="-247.8" font-family="Helvetica,sans-Serif" font-size="8.00">PipeRenderer</text>
<polyline fill="none" stroke="black" points="235.5,-239 454.5,-239 "/>
<text text-anchor="start" x="243.5" y="-227.8" font-family="Helvetica,sans-Serif" font-size="8.00">Attributes:</text>
<text text-anchor="start" x="243.5" y="-215.8" font-family="Helvetica,sans-Serif" font-size="8.00">&#45; nodes : List&lt;NodeModel&gt;</text>
<text text-anchor="start" x="243.5" y="-203.8" font-family="Helvetica,sans-Serif" font-size="8.00">&#45; nodeFactory : ModelFactory</text>
<text text-anchor="start" x="243.5" y="-191.8" font-family="Helvetica,sans-Serif" font-size="8.00">&#45; pipeFactory : ModelFactory</text>
<text text-anchor="start" x="243.5" y="-179.8" font-family="Helvetica,sans-Serif" font-size="8.00">&#45; pipes : List&lt;PipeModel&gt;</text>
<text text-anchor="start" x="243.5" y="-167.8" font-family="Helvetica,sans-Serif" font-size="8.00">+ Info : GameObjectInfo</text>
<text text-anchor="start" x="243.5" y="-155.8" font-family="Helvetica,sans-Serif" font-size="8.00">+ World : World</text>
<text text-anchor="start" x="243.5" y="-143.8" font-family="Helvetica,sans-Serif" font-size="8.00">Methods:</text>
<polyline fill="none" stroke="black" points="235.5,-135 454.5,-135 "/>
<text text-anchor="start" x="243.5" y="-123.8" font-family="Helvetica,sans-Serif" font-size="8.00">&#45; IEnumerable.GetEnumerator () : IEnumerator</text>
<text text-anchor="start" x="243.5" y="-111.8" font-family="Helvetica,sans-Serif" font-size="8.00">+ PipeRenderer (GameState state, GameObjectInfo info)</text>
<text text-anchor="start" x="243.5" y="-99.8" font-family="Helvetica,sans-Serif" font-size="8.00">+ Draw (GameTime gameTime)</text>
<text text-anchor="start" x="243.5" y="-87.8" font-family="Helvetica,sans-Serif" font-size="8.00">+ OnEdgesChanged (EdgeList edges)</text>
<text text-anchor="start" x="243.5" y="-75.8" font-family="Helvetica,sans-Serif" font-size="8.00">+ GetEnumerator () : IEnumerator&lt;IGameObject&gt;</text>
<text text-anchor="start" x="243.5" y="-63.8" font-family="Helvetica,sans-Serif" font-size="8.00">+ Intersects (Ray ray) : GameObjectDistance</text>
<text text-anchor="start" x="243.5" y="-51.8" font-family="Helvetica,sans-Serif" font-size="8.00">+ Center () : Vector3</text>
<text text-anchor="start" x="243.5" y="-39.8" font-family="Helvetica,sans-Serif" font-size="8.00">+ Update (GameTime gameTime)</text>
</g>
<!-- Box_KnotRenderer&#45;&gt;Box_PipeRenderer -->
<g id="edge20" class="edge"><title>Box_KnotRenderer&#45;&gt;Box_PipeRenderer</title>
<path fill="none" stroke="midnightblue" d="M345,-412.687C345,-365.217 345,-308.304 345,-259.184"/>
<polygon fill="none" stroke="midnightblue" points="341.5,-412.977 345,-422.977 348.5,-412.977 341.5,-412.977"/>
</g>
<!-- Box_ShadowGameModel -->
<g id="node13" class="node"><title>Box_ShadowGameModel</title>
<polygon fill="#fcfcda" stroke="black" points="1068,-85 1068,-205 1304,-205 1304,-85 1068,-85"/>
<text text-anchor="middle" x="1186" y="-193.8" font-family="Helvetica,sans-Serif" font-size="8.00">ShadowGameModel</text>
<polyline fill="none" stroke="black" points="1068,-185 1304,-185 "/>
<text text-anchor="start" x="1076" y="-173.8" font-family="Helvetica,sans-Serif" font-size="8.00">Attributes:</text>
<text text-anchor="start" x="1076" y="-161.8" font-family="Helvetica,sans-Serif" font-size="8.00">+ ShadowColor : Color</text>
<text text-anchor="start" x="1076" y="-149.8" font-family="Helvetica,sans-Serif" font-size="8.00">&#45; Model : GameModel</text>
<text text-anchor="start" x="1076" y="-137.8" font-family="Helvetica,sans-Serif" font-size="8.00">+ ShadowAlpha : float</text>
<text text-anchor="start" x="1076" y="-125.8" font-family="Helvetica,sans-Serif" font-size="8.00">Methods:</text>
<polyline fill="none" stroke="black" points="1068,-117 1304,-117 "/>
<text text-anchor="start" x="1076" y="-105.8" font-family="Helvetica,sans-Serif" font-size="8.00">+ ShadowGameModel (GameState state, GameModel model)</text>
<text text-anchor="start" x="1076" y="-93.8" font-family="Helvetica,sans-Serif" font-size="8.00">+ Draw (GameTime gameTime)</text>
</g>
<!-- Box_ShadowGameObject&#45;&gt;Box_ShadowGameModel -->
<g id="edge32" class="edge"><title>Box_ShadowGameObject&#45;&gt;Box_ShadowGameModel</title>
<path fill="none" stroke="midnightblue" d="M1076.26,-407.246C1103.68,-341.704 1137.92,-259.883 1160.8,-205.228"/>
<polygon fill="none" stroke="midnightblue" points="1072.89,-406.217 1072.26,-416.793 1079.35,-408.919 1072.89,-406.217"/>
</g>
<!-- Box_IEdgeChangeListener -->
<g id="node15" class="node"><title>Box_IEdgeChangeListener</title>
<polygon fill="#ffffff" stroke="black" points="297.5,-793 297.5,-813 392.5,-813 392.5,-793 297.5,-793"/>
<text text-anchor="middle" x="345" y="-801.8" font-family="Helvetica,sans-Serif" font-size="8.00">IEdgeChangeListener</text>
</g>
<!-- Box_IEdgeChangeListener&#45;&gt;Box_KnotRenderer -->
<g id="edge10" class="edge"><title>Box_IEdgeChangeListener&#45;&gt;Box_KnotRenderer</title>
<path fill="none" stroke="midnightblue" d="M345,-782.255C345,-745.358 345,-666.287 345,-603.328"/>
<polygon fill="none" stroke="midnightblue" points="341.5,-782.679 345,-792.679 348.5,-782.679 341.5,-782.679"/>
</g>
<!-- Box_IEnumerable -->
<g id="node16" class="node"><title>Box_IEnumerable</title>
<polygon fill="#ffffff" stroke="black" points="744,-503 744,-523 862,-523 862,-503 744,-503"/>
<text text-anchor="middle" x="803" y="-511.8" font-family="Helvetica,sans-Serif" font-size="8.00">IEnumerable&lt;IGameObject&gt;</text>
</g>
<!-- Box_IEnumerable&#45;&gt;Box_ModelRenderer -->
<g id="edge18" class="edge"><title>Box_IEnumerable&#45;&gt;Box_ModelRenderer</title>
<path fill="none" stroke="midnightblue" d="M798.096,-492.677C789.012,-457.224 767.486,-382.471 735,-326 734.916,-325.854 709.378,-295.234 679.329,-259.222"/>
<polygon fill="none" stroke="midnightblue" points="794.788,-493.879 800.606,-502.733 801.58,-492.183 794.788,-493.879"/>
</g>
<!-- Box_IEnumerable&#45;&gt;Box_PipeRenderer -->
<g id="edge22" class="edge"><title>Box_IEnumerable&#45;&gt;Box_PipeRenderer</title>
<path fill="none" stroke="midnightblue" d="M802.154,-492.711C799.34,-453.6 787.208,-367.944 735,-326 639.936,-249.626 569.446,-349.492 463,-290 448.409,-281.845 434.914,-271.104 422.663,-259.145"/>
<polygon fill="none" stroke="midnightblue" points="798.668,-493.066 802.744,-502.845 805.657,-492.659 798.668,-493.066"/>
</g>
<!-- Box_IEnumerable&#45;&gt;Box_PipeMovement -->
<g id="edge28" class="edge"><title>Box_IEnumerable&#45;&gt;Box_PipeMovement</title>
<path fill="none" stroke="midnightblue" d="M807.333,-492.817C815.626,-454.183 834.403,-366.72 851.05,-289.171"/>
<polygon fill="none" stroke="midnightblue" points="803.872,-492.262 805.195,-502.773 810.716,-493.731 803.872,-492.262"/>
</g>
</g>
</svg>
