<?xml version="1.0" encoding="UTF-8" standalone="no"?>
<!DOCTYPE svg PUBLIC "-//W3C//DTD SVG 1.1//EN"
 "http://www.w3.org/Graphics/SVG/1.1/DTD/svg11.dtd">
<!-- Generated by graphviz version 2.26.3 (20100126.1600)
 -->
<!-- Title: MenuItem Pages: 1 -->
<svg width="220pt" height="626pt"
 viewBox="0.00 0.00 220.00 626.00" xmlns="http://www.w3.org/2000/svg" xmlns:xlink="http://www.w3.org/1999/xlink">
<g id="graph1" class="graph" transform="scale(1 1) rotate(0) translate(4 622)">
<title>MenuItem</title>
<polygon fill="white" stroke="white" points="-4,5 -4,-622 217,-622 217,5 -4,5"/>
<!-- Box_TestModel -->
<g id="node1" class="node"><title>Box_TestModel</title>
<polygon fill="#fcfcda" stroke="black" points="3,-1 3,-85 209,-85 209,-1 3,-1"/>
<text text-anchor="middle" x="106" y="-73.8" font-family="Helvetica,sans-Serif" font-size="8.00">TestModel</text>
<polyline fill="none" stroke="black" points="3,-65 209,-65 "/>
<text text-anchor="start" x="11" y="-53.8" font-family="Helvetica,sans-Serif" font-size="8.00">Attributes:</text>
<text text-anchor="start" x="11" y="-41.8" font-family="Helvetica,sans-Serif" font-size="8.00">Methods:</text>
<polyline fill="none" stroke="black" points="3,-33 209,-33 "/>
<text text-anchor="start" x="11" y="-21.8" font-family="Helvetica,sans-Serif" font-size="8.00">+ Update (GameTime gameTime)</text>
<text text-anchor="start" x="11" y="-9.8" font-family="Helvetica,sans-Serif" font-size="8.00">+ TestModel (GameState state, GameModelInfo info)</text>
</g>
<!-- Box_GameModel -->
<g id="node2" class="node"><title>Box_GameModel</title>
<polygon fill="#fcfcda" stroke="black" points="0,-123 0,-447 212,-447 212,-123 0,-123"/>
<text text-anchor="middle" x="106" y="-435.8" font-family="Helvetica,sans-Serif" font-size="8.00">GameModel</text>
<polyline fill="none" stroke="black" points="0,-427 212,-427 "/>
<text text-anchor="start" x="8" y="-415.8" font-family="Helvetica,sans-Serif" font-size="8.00">Attributes:</text>
<text text-anchor="start" x="8" y="-403.8" font-family="Helvetica,sans-Serif" font-size="8.00">&#45; _rotation : Angles3</text>
<text text-anchor="start" x="8" y="-391.8" font-family="Helvetica,sans-Serif" font-size="8.00">&#45; Bounds : BoundingSphere[]</text>
<text text-anchor="start" x="8" y="-379.8" font-family="Helvetica,sans-Serif" font-size="8.00">&#45; _bounds : BoundingSphere[]</text>
<text text-anchor="start" x="8" y="-367.8" font-family="Helvetica,sans-Serif" font-size="8.00">&#45; _worldMatrix : Matrix</text>
<text text-anchor="start" x="8" y="-355.8" font-family="Helvetica,sans-Serif" font-size="8.00">&#45; _position : Vector3</text>
<text text-anchor="start" x="8" y="-343.8" font-family="Helvetica,sans-Serif" font-size="8.00">+ BaseColor : Color</text>
<text text-anchor="start" x="8" y="-331.8" font-family="Helvetica,sans-Serif" font-size="8.00">+ HighlightColor : Color</text>
<text text-anchor="start" x="8" y="-319.8" font-family="Helvetica,sans-Serif" font-size="8.00">+ WorldMatrix : Matrix</text>
<text text-anchor="start" x="8" y="-307.8" font-family="Helvetica,sans-Serif" font-size="8.00">+ Info : dynamic</text>
<text text-anchor="start" x="8" y="-295.8" font-family="Helvetica,sans-Serif" font-size="8.00">+ Alpha : float</text>
<text text-anchor="start" x="8" y="-283.8" font-family="Helvetica,sans-Serif" font-size="8.00">+ HighlightIntensity : float</text>
<text text-anchor="start" x="8" y="-271.8" font-family="Helvetica,sans-Serif" font-size="8.00">&#45; _scale : float</text>
<text text-anchor="start" x="8" y="-259.8" font-family="Helvetica,sans-Serif" font-size="8.00"># state : GameState</text>
<text text-anchor="start" x="8" y="-247.8" font-family="Helvetica,sans-Serif" font-size="8.00">+ World : World</text>
<text text-anchor="start" x="8" y="-235.8" font-family="Helvetica,sans-Serif" font-size="8.00">+ Model : Model virtual</text>
<text text-anchor="start" x="8" y="-223.8" font-family="Helvetica,sans-Serif" font-size="8.00">Methods:</text>
<polyline fill="none" stroke="black" points="0,-215 212,-215 "/>
<text text-anchor="start" x="8" y="-203.8" font-family="Helvetica,sans-Serif" font-size="8.00">&#45; UpdatePrecomputed ()</text>
<text text-anchor="start" x="8" y="-191.8" font-family="Helvetica,sans-Serif" font-size="8.00">+ GameModel (GameState state, GameModelInfo info)</text>
<text text-anchor="start" x="8" y="-179.8" font-family="Helvetica,sans-Serif" font-size="8.00">+ Draw (GameTime gameTime) virtual</text>
<text text-anchor="start" x="8" y="-167.8" font-family="Helvetica,sans-Serif" font-size="8.00">&#45; inFrustum () : bool</text>
<text text-anchor="start" x="8" y="-155.8" font-family="Helvetica,sans-Serif" font-size="8.00">+ Center () : Vector3</text>
<text text-anchor="start" x="8" y="-143.8" font-family="Helvetica,sans-Serif" font-size="8.00">+ Intersects (Ray ray) : GameObjectDistance virtual</text>
<text text-anchor="start" x="8" y="-131.8" font-family="Helvetica,sans-Serif" font-size="8.00">+ Update (GameTime gameTime) virtual</text>
</g>
<!-- Box_GameModel&#45;&gt;Box_TestModel -->
<g id="edge2" class="edge"><title>Box_GameModel&#45;&gt;Box_TestModel</title>
<path fill="none" stroke="midnightblue" d="M106,-112.868C106,-102.998 106,-93.6836 106,-85.2678"/>
<polygon fill="none" stroke="midnightblue" points="102.5,-112.911 106,-122.911 109.5,-112.911 102.5,-112.911"/>
</g>
<!-- Box_IGameObject -->
<g id="node3" class="node"><title>Box_IGameObject</title>
<polygon fill="#dafcda" stroke="black" points="18,-485 18,-617 194,-617 194,-485 18,-485"/>
<text text-anchor="middle" x="106" y="-605.8" font-family="Helvetica,sans-Serif" font-size="8.00">IGameObject</text>
<polyline fill="none" stroke="black" points="18,-597 194,-597 "/>
<text text-anchor="start" x="26" y="-585.8" font-family="Helvetica,sans-Serif" font-size="8.00">Attributes:</text>
<text text-anchor="start" x="26" y="-573.8" font-family="Helvetica,sans-Serif" font-size="8.00">+ Info : dynamic</text>
<text text-anchor="start" x="26" y="-561.8" font-family="Helvetica,sans-Serif" font-size="8.00">+ World : World</text>
<text text-anchor="start" x="26" y="-549.8" font-family="Helvetica,sans-Serif" font-size="8.00">Methods:</text>
<polyline fill="none" stroke="black" points="18,-541 194,-541 "/>
<text text-anchor="start" x="26" y="-529.8" font-family="Helvetica,sans-Serif" font-size="8.00">+ Draw (GameTime gameTime)</text>
<text text-anchor="start" x="26" y="-517.8" font-family="Helvetica,sans-Serif" font-size="8.00">+ Update (GameTime gameTime)</text>
<text text-anchor="start" x="26" y="-505.8" font-family="Helvetica,sans-Serif" font-size="8.00">+ Intersects (Ray ray) : GameObjectDistance</text>
<text text-anchor="start" x="26" y="-493.8" font-family="Helvetica,sans-Serif" font-size="8.00">+ Center () : Vector3</text>
</g>
<!-- Box_IGameObject&#45;&gt;Box_GameModel -->
<g id="edge4" class="edge"><title>Box_IGameObject&#45;&gt;Box_GameModel</title>
<path fill="none" stroke="midnightblue" d="M106,-474.694C106,-465.823 106,-456.538 106,-447.045"/>
<polygon fill="none" stroke="midnightblue" points="102.5,-474.905 106,-484.905 109.5,-474.905 102.5,-474.905"/>
</g>
</g>
</svg>
