<?xml version="1.0" encoding="UTF-8" standalone="no"?>
<!DOCTYPE svg PUBLIC "-//W3C//DTD SVG 1.1//EN"
 "http://www.w3.org/Graphics/SVG/1.1/DTD/svg11.dtd">
<!-- Generated by graphviz version 2.26.3 (20100126.1600)
 -->
<!-- Title: MenuItem Pages: 1 -->
<svg width="1933pt" height="3675pt"
 viewBox="0.00 0.00 464.00 882.00" xmlns="http://www.w3.org/2000/svg" xmlns:xlink="http://www.w3.org/1999/xlink">
<g id="graph1" class="graph" transform="scale(4.16667 4.16667) rotate(0) translate(4 878)">
<title>MenuItem</title>
<polygon fill="white" stroke="white" points="-4,5 -4,-878 461,-878 461,5 -4,5"/>
<!-- Box_KnotSaveConfirmDialog -->
<g id="node1" class="node"><title>Box_KnotSaveConfirmDialog</title>
<polygon fill="#fcfcda" stroke="black" points="88,-1 88,-55 456,-55 456,-1 88,-1"/>
<text text-anchor="middle" x="272" y="-43.8" font-family="Arial" font-size="8.00">KnotSaveConfirmDialog</text>
<polyline fill="none" stroke="black" points="88,-37 456,-37 "/>
<text text-anchor="middle" x="272" y="-25.8" font-family="Arial" font-size="8.00"> </text>
<polyline fill="none" stroke="black" points="88,-19 456,-19 "/>
<text text-anchor="start" x="96" y="-7.8" font-family="Arial" font-size="8.00">+ KnotSaveConfirmDialog (GameState state, WidgetInfo info, DisplayLayer drawOrder, Knot knot)</text>
</g>
<!-- Box_TextInputDialog -->
<g id="node2" class="node"><title>Box_TextInputDialog</title>
<polygon fill="#fcfcda" stroke="black" points="118,-93 118,-177 426,-177 426,-93 118,-93"/>
<text text-anchor="middle" x="272" y="-165.8" font-family="Arial" font-size="8.00">TextInputDialog</text>
<polyline fill="none" stroke="black" points="118,-159 426,-159 "/>
<text text-anchor="start" x="126" y="-147.8" font-family="Arial" font-size="8.00"># TextInput : TextInput</text>
<polyline fill="none" stroke="black" points="118,-141 426,-141 "/>
<text text-anchor="start" x="126" y="-129.8" font-family="Arial" font-size="8.00"># TextInputSize () : Vector2</text>
<text text-anchor="start" x="126" y="-119.8" font-family="Arial" font-size="8.00">+ TextInputDialog (GameState state, WidgetInfo info, DisplayLayer drawOrder)</text>
<text text-anchor="start" x="126" y="-109.8" font-family="Arial" font-size="8.00"># TextInputPosition () : Vector2</text>
<text text-anchor="start" x="126" y="-99.8" font-family="Arial" font-size="8.00">+ SubComponents (GameTime gameTime) : IEnumerable&lt;IGameStateComponent&gt;</text>
</g>
<!-- Box_TextInputDialog&#45;&gt;Box_KnotSaveConfirmDialog -->
<g id="edge2" class="edge"><title>Box_TextInputDialog&#45;&gt;Box_KnotSaveConfirmDialog</title>
<path fill="none" stroke="midnightblue" d="M272,-82.5276C272,-73.0762 272,-63.582 272,-55.2255"/>
<polygon fill="none" stroke="midnightblue" points="268.5,-82.7107 272,-92.7108 275.5,-82.7108 268.5,-82.7107"/>
</g>
<!-- Box_ConfirmDialog -->
<g id="node3" class="node"><title>Box_ConfirmDialog</title>
<polygon fill="#fcfcda" stroke="black" points="125,-215 125,-309 419,-309 419,-215 125,-215"/>
<text text-anchor="middle" x="272" y="-297.8" font-family="Arial" font-size="8.00">ConfirmDialog</text>
<polyline fill="none" stroke="black" points="125,-291 419,-291 "/>
<text text-anchor="start" x="133" y="-279.8" font-family="Arial" font-size="8.00"># Text : string[]</text>
<polyline fill="none" stroke="black" points="125,-273 419,-273 "/>
<text text-anchor="start" x="133" y="-261.8" font-family="Arial" font-size="8.00"># OnYesClick () : Action</text>
<text text-anchor="start" x="133" y="-251.8" font-family="Arial" font-size="8.00"># OnCancelClick () : Action</text>
<text text-anchor="start" x="133" y="-241.8" font-family="Arial" font-size="8.00"># OnNoClick () : Action</text>
<text text-anchor="start" x="133" y="-231.8" font-family="Arial" font-size="8.00"># DrawDialog (GameTime gameTime)</text>
<text text-anchor="start" x="133" y="-221.8" font-family="Arial" font-size="8.00">+ ConfirmDialog (GameState state, WidgetInfo info, DisplayLayer drawOrder)</text>
</g>
<!-- Box_ConfirmDialog&#45;&gt;Box_TextInputDialog -->
<g id="edge4" class="edge"><title>Box_ConfirmDialog&#45;&gt;Box_TextInputDialog</title>
<path fill="none" stroke="midnightblue" d="M272,-204.491C272,-195.34 272,-186.022 272,-177.306"/>
<polygon fill="none" stroke="midnightblue" points="268.5,-204.71 272,-214.71 275.5,-204.71 268.5,-204.71"/>
</g>
<!-- Box_Dialog -->
<g id="node4" class="node"><title>Box_Dialog</title>
<polygon fill="#fcfcda" stroke="black" points="118,-347 118,-491 426,-491 426,-347 118,-347"/>
<text text-anchor="middle" x="272" y="-479.8" font-family="Arial" font-size="8.00">Dialog</text>
<polyline fill="none" stroke="black" points="118,-473 426,-473 "/>
<text text-anchor="start" x="126" y="-461.8" font-family="Arial" font-size="8.00"># spriteBatch : SpriteBatch</text>
<text text-anchor="start" x="126" y="-451.8" font-family="Arial" font-size="8.00">+ Done : Action</text>
<text text-anchor="start" x="126" y="-441.8" font-family="Arial" font-size="8.00">+ buttons : Menu</text>
<polyline fill="none" stroke="black" points="118,-435 426,-435 "/>
<text text-anchor="start" x="126" y="-423.8" font-family="Arial" font-size="8.00">&#45; ButtonBackgroundColor (ItemState itemState) : Color</text>
<text text-anchor="start" x="126" y="-413.8" font-family="Arial" font-size="8.00"># RelativeButtonSize (int n) : Vector2</text>
<text text-anchor="start" x="126" y="-403.8" font-family="Arial" font-size="8.00">+ Dialog (GameState state, WidgetInfo info, DisplayLayer drawOrder)</text>
<text text-anchor="start" x="126" y="-393.8" font-family="Arial" font-size="8.00">&#45; ButtonForegroundColor (ItemState itemState) : Color</text>
<text text-anchor="start" x="126" y="-383.8" font-family="Arial" font-size="8.00"># RelativeButtonPosition (int n) : Vector2</text>
<text text-anchor="start" x="126" y="-373.8" font-family="Arial" font-size="8.00"># DrawDialog (GameTime gameTime) abstract</text>
<text text-anchor="start" x="126" y="-363.8" font-family="Arial" font-size="8.00">+ SubComponents (GameTime gameTime) : IEnumerable&lt;IGameStateComponent&gt;</text>
<text text-anchor="start" x="126" y="-353.8" font-family="Arial" font-size="8.00">+ Draw (GameTime gameTime)</text>
</g>
<!-- Box_Dialog&#45;&gt;Box_ConfirmDialog -->
<g id="edge6" class="edge"><title>Box_Dialog&#45;&gt;Box_ConfirmDialog</title>
<path fill="none" stroke="midnightblue" d="M272,-336.761C272,-327.389 272,-318.088 272,-309.395"/>
<polygon fill="none" stroke="midnightblue" points="268.5,-336.933 272,-346.933 275.5,-336.933 268.5,-336.933"/>
</g>
<!-- Box_Widget -->
<g id="node5" class="node"><title>Box_Widget</title>
<polygon fill="#fcfcda" stroke="black" points="137.5,-529 137.5,-603 406.5,-603 406.5,-529 137.5,-529"/>
<text text-anchor="middle" x="272" y="-591.8" font-family="Arial" font-size="8.00">Widget</text>
<polyline fill="none" stroke="black" points="137.5,-585 406.5,-585 "/>
<text text-anchor="start" x="145.5" y="-573.8" font-family="Arial" font-size="8.00">+ Info : WidgetInfo</text>
<text text-anchor="start" x="145.5" y="-563.8" font-family="Arial" font-size="8.00">+ IsVisible : bool virtual</text>
<polyline fill="none" stroke="black" points="137.5,-557 406.5,-557 "/>
<text text-anchor="start" x="145.5" y="-545.8" font-family="Arial" font-size="8.00">+ bounds () : Rectangle</text>
<text text-anchor="start" x="145.5" y="-535.8" font-family="Arial" font-size="8.00">+ Widget (GameState state, WidgetInfo info, DisplayLayer drawOrder)</text>
</g>
<!-- Box_Widget&#45;&gt;Box_Dialog -->
<g id="edge8" class="edge"><title>Box_Widget&#45;&gt;Box_Dialog</title>
<path fill="none" stroke="midnightblue" d="M272,-518.801C272,-509.931 272,-500.473 272,-491.047"/>
<polygon fill="none" stroke="midnightblue" points="268.5,-518.906 272,-528.906 275.5,-518.906 268.5,-518.906"/>
</g>
<!-- Box_DrawableGameStateComponent -->
<g id="node6" class="node"><title>Box_DrawableGameStateComponent</title>
<polygon fill="#fcfcda" stroke="black" points="106,-641 106,-725 438,-725 438,-641 106,-641"/>
<text text-anchor="middle" x="272" y="-713.8" font-family="Arial" font-size="8.00">DrawableGameStateComponent</text>
<polyline fill="none" stroke="black" points="106,-707 438,-707 "/>
<text text-anchor="start" x="114" y="-695.8" font-family="Arial" font-size="8.00">+ Index : DisplayLayer</text>
<text text-anchor="start" x="114" y="-685.8" font-family="Arial" font-size="8.00">&#45; _index : DisplayLayer</text>
<text text-anchor="start" x="114" y="-675.8" font-family="Arial" font-size="8.00">+ state : GameState</text>
<polyline fill="none" stroke="black" points="106,-669 438,-669 "/>
<text text-anchor="start" x="114" y="-657.8" font-family="Arial" font-size="8.00">+ DrawableGameStateComponent (GameState state, DisplayLayer index)</text>
<text text-anchor="start" x="114" y="-647.8" font-family="Arial" font-size="8.00">+ SubComponents (GameTime gameTime) : IEnumerable&lt;IGameStateComponent&gt; virtual</text>
</g>
<!-- Box_DrawableGameStateComponent&#45;&gt;Box_Widget -->
<g id="edge10" class="edge"><title>Box_DrawableGameStateComponent&#45;&gt;Box_Widget</title>
<path fill="none" stroke="midnightblue" d="M272,-630.482C272,-621.258 272,-611.834 272,-603.14"/>
<polygon fill="none" stroke="midnightblue" points="268.5,-630.76 272,-640.76 275.5,-630.76 268.5,-630.76"/>
</g>
<!-- Box_IGameStateComponent -->
<g id="node7" class="node"><title>Box_IGameStateComponent</title>
<polygon fill="#dafcda" stroke="black" points="0,-763 0,-817 308,-817 308,-763 0,-763"/>
<text text-anchor="middle" x="154" y="-805.8" font-family="Arial" font-size="8.00">IGameStateComponent</text>
<polyline fill="none" stroke="black" points="0,-799 308,-799 "/>
<text text-anchor="start" x="8" y="-787.8" font-family="Arial" font-size="8.00">+ Index : DisplayLayer</text>
<polyline fill="none" stroke="black" points="0,-781 308,-781 "/>
<text text-anchor="start" x="8" y="-769.8" font-family="Arial" font-size="8.00">+ SubComponents (GameTime gameTime) : IEnumerable&lt;IGameStateComponent&gt;</text>
</g>
<!-- Box_IGameStateComponent&#45;&gt;Box_DrawableGameStateComponent -->
<g id="edge14" class="edge"><title>Box_IGameStateComponent&#45;&gt;Box_DrawableGameStateComponent</title>
<path fill="none" stroke="midnightblue" d="M191.383,-756.102C202.133,-746.354 213.995,-735.598 225.236,-725.404"/>
<polygon fill="none" stroke="midnightblue" points="188.833,-753.689 183.776,-762.999 193.535,-758.875 188.833,-753.689"/>
</g>
<!-- Box_XnaDrawableGameComponent -->
<g id="node8" class="node"><title>Box_XnaDrawableGameComponent</title>
<polygon fill="#ffffff" stroke="black" points="326,-781 326,-799 456,-799 456,-781 326,-781"/>
<text text-anchor="middle" x="391" y="-787.8" font-family="Arial" font-size="8.00">Xna.DrawableGameComponent</text>
</g>
<!-- Box_XnaDrawableGameComponent&#45;&gt;Box_DrawableGameStateComponent -->
<g id="edge12" class="edge"><title>Box_XnaDrawableGameComponent&#45;&gt;Box_DrawableGameStateComponent</title>
<path fill="none" stroke="midnightblue" d="M373.226,-774.018C358.886,-761.124 338.035,-742.376 318.979,-725.241"/>
<polygon fill="none" stroke="midnightblue" points="371.078,-776.794 380.854,-780.877 375.758,-771.588 371.078,-776.794"/>
</g>
<!-- Box_XnaIGameComponent -->
<g id="node9" class="node"><title>Box_XnaIGameComponent</title>
<polygon fill="#ffffff" stroke="black" points="106,-855 106,-873 202,-873 202,-855 106,-855"/>
<text text-anchor="middle" x="154" y="-861.8" font-family="Arial" font-size="8.00">Xna.IGameComponent</text>
</g>
<!-- Box_XnaIGameComponent&#45;&gt;Box_IGameStateComponent -->
<g id="edge16" class="edge"><title>Box_XnaIGameComponent&#45;&gt;Box_IGameStateComponent</title>
<path fill="none" stroke="midnightblue" d="M154,-844.64C154,-836.2 154,-826.16 154,-817.004"/>
<polygon fill="none" stroke="midnightblue" points="150.5,-844.926 154,-854.926 157.5,-844.926 150.5,-844.926"/>
</g>
</g>
</svg>
