<?xml version="1.0" encoding="UTF-8" standalone="no"?>
<!DOCTYPE svg PUBLIC "-//W3C//DTD SVG 1.1//EN"
 "http://www.w3.org/Graphics/SVG/1.1/DTD/svg11.dtd">
<!-- Generated by graphviz version 2.26.3 (20100126.1600)
 -->
<!-- Title: MenuItem Pages: 1 -->
<svg width="1002pt" height="624pt"
 viewBox="0.00 0.00 1002.00 624.00" xmlns="http://www.w3.org/2000/svg" xmlns:xlink="http://www.w3.org/1999/xlink">
<g id="graph1" class="graph" transform="scale(1 1) rotate(0) translate(4 620)">
<title>MenuItem</title>
<polygon fill="white" stroke="white" points="-4,5 -4,-620 999,-620 999,5 -4,5"/>
<!-- Box_GameObjectInfo -->
<g id="node1" class="node"><title>Box_GameObjectInfo</title>
<polygon fill="#fcfcda" stroke="black" points="493.5,-377 493.5,-557 744.5,-557 744.5,-377 493.5,-377"/>
<text text-anchor="middle" x="619" y="-545.8" font-family="Helvetica,sans-Serif" font-size="8.00">GameObjectInfo</text>
<polyline fill="none" stroke="black" points="493.5,-537 744.5,-537 "/>
<text text-anchor="start" x="501.5" y="-525.8" font-family="Helvetica,sans-Serif" font-size="8.00">Attributes:</text>
<text text-anchor="start" x="501.5" y="-513.8" font-family="Helvetica,sans-Serif" font-size="8.00">+ IsMovable : bool</text>
<text text-anchor="start" x="501.5" y="-501.8" font-family="Helvetica,sans-Serif" font-size="8.00">+ IsSelectable : bool</text>
<text text-anchor="start" x="501.5" y="-489.8" font-family="Helvetica,sans-Serif" font-size="8.00">+ IsVisible : bool</text>
<text text-anchor="start" x="501.5" y="-477.8" font-family="Helvetica,sans-Serif" font-size="8.00">+ Position : Vector3</text>
<text text-anchor="start" x="501.5" y="-465.8" font-family="Helvetica,sans-Serif" font-size="8.00">Methods:</text>
<polyline fill="none" stroke="black" points="493.5,-457 744.5,-457 "/>
<text text-anchor="start" x="501.5" y="-445.8" font-family="Helvetica,sans-Serif" font-size="8.00">+ GameObjectInfo ()</text>
<text text-anchor="start" x="501.5" y="-433.8" font-family="Helvetica,sans-Serif" font-size="8.00">+ operator (GameObjectInfo o1, GameObjectInfo o2) : bool static</text>
<text text-anchor="start" x="501.5" y="-421.8" font-family="Helvetica,sans-Serif" font-size="8.00">+ Equals (Object obj) : bool</text>
<text text-anchor="start" x="501.5" y="-409.8" font-family="Helvetica,sans-Serif" font-size="8.00">+ GetHashCode () : int</text>
<text text-anchor="start" x="501.5" y="-397.8" font-family="Helvetica,sans-Serif" font-size="8.00">+ operator ! (GameObjectInfo o1, GameObjectInfo o2) : bool static</text>
<text text-anchor="start" x="501.5" y="-385.8" font-family="Helvetica,sans-Serif" font-size="8.00">+ Equals (GameObjectInfo other) : bool virtual</text>
</g>
<!-- Box_GameModelInfo -->
<g id="node2" class="node"><title>Box_GameModelInfo</title>
<polygon fill="#fcfcda" stroke="black" points="392,-207 392,-327 548,-327 548,-207 392,-207"/>
<text text-anchor="middle" x="470" y="-315.8" font-family="Helvetica,sans-Serif" font-size="8.00">GameModelInfo</text>
<polyline fill="none" stroke="black" points="392,-307 548,-307 "/>
<text text-anchor="start" x="400" y="-295.8" font-family="Helvetica,sans-Serif" font-size="8.00">Attributes:</text>
<text text-anchor="start" x="400" y="-283.8" font-family="Helvetica,sans-Serif" font-size="8.00">+ Rotation : Angles3</text>
<text text-anchor="start" x="400" y="-271.8" font-family="Helvetica,sans-Serif" font-size="8.00">+ Scale : Vector3</text>
<text text-anchor="start" x="400" y="-259.8" font-family="Helvetica,sans-Serif" font-size="8.00">+ Modelname : string</text>
<text text-anchor="start" x="400" y="-247.8" font-family="Helvetica,sans-Serif" font-size="8.00">Methods:</text>
<polyline fill="none" stroke="black" points="392,-239 548,-239 "/>
<text text-anchor="start" x="400" y="-227.8" font-family="Helvetica,sans-Serif" font-size="8.00">+ GameModelInfo (string modelname)</text>
<text text-anchor="start" x="400" y="-215.8" font-family="Helvetica,sans-Serif" font-size="8.00">+ Equals (GameObjectInfo other) : bool</text>
</g>
<!-- Box_GameObjectInfo&#45;&gt;Box_GameModelInfo -->
<g id="edge4" class="edge"><title>Box_GameObjectInfo&#45;&gt;Box_GameModelInfo</title>
<path fill="none" stroke="midnightblue" d="M545.696,-368.606C535.126,-354.418 524.524,-340.186 514.74,-327.054"/>
<polygon fill="none" stroke="midnightblue" points="543.129,-371.018 551.91,-376.946 548.742,-366.836 543.129,-371.018"/>
</g>
<!-- Box_TexturedRectangleInfo -->
<g id="node6" class="node"><title>Box_TexturedRectangleInfo</title>
<polygon fill="#fcfcda" stroke="black" points="565.5,-195 565.5,-339 972.5,-339 972.5,-195 565.5,-195"/>
<text text-anchor="middle" x="769" y="-327.8" font-family="Helvetica,sans-Serif" font-size="8.00">TexturedRectangleInfo</text>
<polyline fill="none" stroke="black" points="565.5,-319 972.5,-319 "/>
<text text-anchor="start" x="573.5" y="-307.8" font-family="Helvetica,sans-Serif" font-size="8.00">Attributes:</text>
<text text-anchor="start" x="573.5" y="-295.8" font-family="Helvetica,sans-Serif" font-size="8.00">+ Left : Vector3</text>
<text text-anchor="start" x="573.5" y="-283.8" font-family="Helvetica,sans-Serif" font-size="8.00">+ Up : Vector3</text>
<text text-anchor="start" x="573.5" y="-271.8" font-family="Helvetica,sans-Serif" font-size="8.00">+ Height : float</text>
<text text-anchor="start" x="573.5" y="-259.8" font-family="Helvetica,sans-Serif" font-size="8.00">+ Width : float</text>
<text text-anchor="start" x="573.5" y="-247.8" font-family="Helvetica,sans-Serif" font-size="8.00">+ Texturename : string</text>
<text text-anchor="start" x="573.5" y="-235.8" font-family="Helvetica,sans-Serif" font-size="8.00">Methods:</text>
<polyline fill="none" stroke="black" points="565.5,-227 972.5,-227 "/>
<text text-anchor="start" x="573.5" y="-215.8" font-family="Helvetica,sans-Serif" font-size="8.00">+ TexturedRectangleInfo (string texturename, Vector3 origin, Vector3 left, float width, Vector3 up, float height)</text>
<text text-anchor="start" x="573.5" y="-203.8" font-family="Helvetica,sans-Serif" font-size="8.00">+ Equals (GameObjectInfo other) : bool</text>
</g>
<!-- Box_GameObjectInfo&#45;&gt;Box_TexturedRectangleInfo -->
<g id="edge12" class="edge"><title>Box_GameObjectInfo&#45;&gt;Box_TexturedRectangleInfo</title>
<path fill="none" stroke="midnightblue" d="M692.559,-368.921C700.077,-358.897 707.614,-348.848 714.868,-339.176"/>
<polygon fill="none" stroke="midnightblue" points="689.74,-366.846 686.54,-376.946 695.34,-371.046 689.74,-366.846"/>
</g>
<!-- Box_ArrowModelInfo -->
<g id="node3" class="node"><title>Box_ArrowModelInfo</title>
<polygon fill="#fcfcda" stroke="black" points="0,-19 0,-139 264,-139 264,-19 0,-19"/>
<text text-anchor="middle" x="132" y="-127.8" font-family="Helvetica,sans-Serif" font-size="8.00">ArrowModelInfo</text>
<polyline fill="none" stroke="black" points="0,-119 264,-119 "/>
<text text-anchor="start" x="8" y="-107.8" font-family="Helvetica,sans-Serif" font-size="8.00">Attributes:</text>
<text text-anchor="start" x="8" y="-95.8" font-family="Helvetica,sans-Serif" font-size="8.00">+ Diameter : float</text>
<text text-anchor="start" x="8" y="-83.8" font-family="Helvetica,sans-Serif" font-size="8.00">+ Length : float</text>
<text text-anchor="start" x="8" y="-71.8" font-family="Helvetica,sans-Serif" font-size="8.00">+ Direction : Vector3</text>
<text text-anchor="start" x="8" y="-59.8" font-family="Helvetica,sans-Serif" font-size="8.00">Methods:</text>
<polyline fill="none" stroke="black" points="0,-51 264,-51 "/>
<text text-anchor="start" x="8" y="-39.8" font-family="Helvetica,sans-Serif" font-size="8.00">+ ArrowModelInfo (Vector3 position, Vector3 direction, Vector3 offset)</text>
<text text-anchor="start" x="8" y="-27.8" font-family="Helvetica,sans-Serif" font-size="8.00">+ Equals (GameObjectInfo other) : bool</text>
</g>
<!-- Box_GameModelInfo&#45;&gt;Box_ArrowModelInfo -->
<g id="edge6" class="edge"><title>Box_GameModelInfo&#45;&gt;Box_ArrowModelInfo</title>
<path fill="none" stroke="midnightblue" d="M382.769,-218.866C348.524,-199.935 308.895,-177.986 273,-158 261.968,-151.858 250.458,-145.433 238.978,-139.017"/>
<polygon fill="none" stroke="midnightblue" points="381.369,-222.091 391.814,-223.865 384.755,-215.964 381.369,-222.091"/>
</g>
<!-- Box_NodeModelInfo -->
<g id="node4" class="node"><title>Box_NodeModelInfo</title>
<polygon fill="#fcfcda" stroke="black" points="281.5,-13 281.5,-145 658.5,-145 658.5,-13 281.5,-13"/>
<text text-anchor="middle" x="470" y="-133.8" font-family="Helvetica,sans-Serif" font-size="8.00">NodeModelInfo</text>
<polyline fill="none" stroke="black" points="281.5,-125 658.5,-125 "/>
<text text-anchor="start" x="289.5" y="-113.8" font-family="Helvetica,sans-Serif" font-size="8.00">Attributes:</text>
<text text-anchor="start" x="289.5" y="-101.8" font-family="Helvetica,sans-Serif" font-size="8.00">+ EdgeA : Edge</text>
<text text-anchor="start" x="289.5" y="-89.8" font-family="Helvetica,sans-Serif" font-size="8.00">+ EdgeB : Edge</text>
<text text-anchor="start" x="289.5" y="-77.8" font-family="Helvetica,sans-Serif" font-size="8.00">+ NodeMap : NodeMap</text>
<text text-anchor="start" x="289.5" y="-65.8" font-family="Helvetica,sans-Serif" font-size="8.00">+ EdgeList : EdgeList</text>
<text text-anchor="start" x="289.5" y="-53.8" font-family="Helvetica,sans-Serif" font-size="8.00">Methods:</text>
<polyline fill="none" stroke="black" points="281.5,-45 658.5,-45 "/>
<text text-anchor="start" x="289.5" y="-33.8" font-family="Helvetica,sans-Serif" font-size="8.00">+ NodeModelInfo (EdgeList edgeList, NodeMap nodeMap, Edge edgeA, Edge edgeB, Vector3 offset)</text>
<text text-anchor="start" x="289.5" y="-21.8" font-family="Helvetica,sans-Serif" font-size="8.00">+ Equals (GameObjectInfo other) : bool</text>
</g>
<!-- Box_GameModelInfo&#45;&gt;Box_NodeModelInfo -->
<g id="edge8" class="edge"><title>Box_GameModelInfo&#45;&gt;Box_NodeModelInfo</title>
<path fill="none" stroke="midnightblue" d="M470,-196.677C470,-179.84 470,-161.919 470,-145.272"/>
<polygon fill="none" stroke="midnightblue" points="466.5,-196.999 470,-206.999 473.5,-196.999 466.5,-196.999"/>
</g>
<!-- Box_PipeModelInfo -->
<g id="node5" class="node"><title>Box_PipeModelInfo</title>
<polygon fill="#fcfcda" stroke="black" points="675.5,-1 675.5,-157 994.5,-157 994.5,-1 675.5,-1"/>
<text text-anchor="middle" x="835" y="-145.8" font-family="Helvetica,sans-Serif" font-size="8.00">PipeModelInfo</text>
<polyline fill="none" stroke="black" points="675.5,-137 994.5,-137 "/>
<text text-anchor="start" x="683.5" y="-125.8" font-family="Helvetica,sans-Serif" font-size="8.00">Attributes:</text>
<text text-anchor="start" x="683.5" y="-113.8" font-family="Helvetica,sans-Serif" font-size="8.00">+ Edge : Edge</text>
<text text-anchor="start" x="683.5" y="-101.8" font-family="Helvetica,sans-Serif" font-size="8.00">+ NodeMap : NodeMap</text>
<text text-anchor="start" x="683.5" y="-89.8" font-family="Helvetica,sans-Serif" font-size="8.00">+ Direction : Vector3</text>
<text text-anchor="start" x="683.5" y="-77.8" font-family="Helvetica,sans-Serif" font-size="8.00">+ PositionFrom : Vector3</text>
<text text-anchor="start" x="683.5" y="-65.8" font-family="Helvetica,sans-Serif" font-size="8.00">+ PositionTo : Vector3</text>
<text text-anchor="start" x="683.5" y="-53.8" font-family="Helvetica,sans-Serif" font-size="8.00">+ EdgeList : EdgeList</text>
<text text-anchor="start" x="683.5" y="-41.8" font-family="Helvetica,sans-Serif" font-size="8.00">Methods:</text>
<polyline fill="none" stroke="black" points="675.5,-33 994.5,-33 "/>
<text text-anchor="start" x="683.5" y="-21.8" font-family="Helvetica,sans-Serif" font-size="8.00">+ PipeModelInfo (EdgeList edgeList, NodeMap nodeMap, Edge edge, Vector3 offset)</text>
<text text-anchor="start" x="683.5" y="-9.8" font-family="Helvetica,sans-Serif" font-size="8.00">+ Equals (GameObjectInfo other) : bool</text>
</g>
<!-- Box_GameModelInfo&#45;&gt;Box_PipeModelInfo -->
<g id="edge10" class="edge"><title>Box_GameModelInfo&#45;&gt;Box_PipeModelInfo</title>
<path fill="none" stroke="midnightblue" d="M545.105,-201.177C549.039,-198.625 553.014,-196.215 557,-194 601.964,-169.014 619.189,-176.981 667,-158 669.696,-156.93 672.41,-155.837 675.138,-154.725"/>
<polygon fill="none" stroke="midnightblue" points="542.877,-198.459 536.568,-206.971 546.808,-204.251 542.877,-198.459"/>
</g>
<!-- Box_IEquatable -->
<g id="node7" class="node"><title>Box_IEquatable</title>
<polygon fill="#ffffff" stroke="black" points="558,-595 558,-615 680,-615 680,-595 558,-595"/>
<text text-anchor="middle" x="619" y="-603.8" font-family="Helvetica,sans-Serif" font-size="8.00">IEquatable&lt;GameObjectInfo&gt;</text>
</g>
<!-- Box_IEquatable&#45;&gt;Box_GameObjectInfo -->
<g id="edge2" class="edge"><title>Box_IEquatable&#45;&gt;Box_GameObjectInfo</title>
<path fill="none" stroke="midnightblue" d="M619,-584.572C619,-576.819 619,-567.407 619,-557.321"/>
<polygon fill="none" stroke="midnightblue" points="615.5,-584.628 619,-594.628 622.5,-584.628 615.5,-584.628"/>
</g>
</g>
</svg>
