<?xml version="1.0" encoding="UTF-8" standalone="no"?>
<!DOCTYPE svg PUBLIC "-//W3C//DTD SVG 1.1//EN"
 "http://www.w3.org/Graphics/SVG/1.1/DTD/svg11.dtd">
<!-- Generated by graphviz version 2.26.3 (20100126.1600)
 -->
<!-- Title: MenuItem Pages: 1 -->
<svg width="928pt" height="938pt"
 viewBox="0.00 0.00 928.00 938.00" xmlns="http://www.w3.org/2000/svg" xmlns:xlink="http://www.w3.org/1999/xlink">
<g id="graph1" class="graph" transform="scale(1 1) rotate(0) translate(4 934)">
<title>MenuItem</title>
<polygon fill="white" stroke="white" points="-4,5 -4,-934 925,-934 925,5 -4,5"/>
<!-- Box_DropDownMenu -->
<g id="node1" class="node"><title>Box_DropDownMenu</title>
<polygon fill="#fcfcda" stroke="black" points="231.5,-1 231.5,-165 584.5,-165 584.5,-1 231.5,-1"/>
<text text-anchor="middle" x="408" y="-153.8" font-family="Arial" font-size="8.00">DropDownMenu</text>
<polyline fill="none" stroke="black" points="231.5,-147 584.5,-147 "/>
<text text-anchor="start" x="239.5" y="-135.8" font-family="Arial" font-size="8.00">&#45; selected : MenuButton</text>
<text text-anchor="start" x="239.5" y="-125.8" font-family="Arial" font-size="8.00">&#45; dropdown : VerticalMenu</text>
<polyline fill="none" stroke="black" points="231.5,-119 584.5,-119 "/>
<text text-anchor="start" x="239.5" y="-107.8" font-family="Arial" font-size="8.00">&#45; ValuePosition (int dummy) : Vector2</text>
<text text-anchor="start" x="239.5" y="-97.8" font-family="Arial" font-size="8.00">+ DropDownMenu (GameScreen screen, DisplayLayer drawOrder, int itemNum, MenuItemInfo</text>
<text text-anchor="start" x="239.5" y="-87.8" font-family="Arial" font-size="8.00">info)</text>
<text text-anchor="start" x="239.5" y="-77.8" font-family="Arial" font-size="8.00">&#45; DropDownBackgroundColor (ItemState itemState) : Color</text>
<text text-anchor="start" x="239.5" y="-67.8" font-family="Arial" font-size="8.00">&#45; DropDownForegroundColor (ItemState itemState) : Color</text>
<text text-anchor="start" x="239.5" y="-57.8" font-family="Arial" font-size="8.00">&#45; ValueSize (int dummy) : Vector2</text>
<text text-anchor="start" x="239.5" y="-47.8" font-family="Arial" font-size="8.00">+ SubComponents (GameTime time) : IEnumerable&lt;IGameScreenComponent&gt;</text>
<text text-anchor="start" x="239.5" y="-37.8" font-family="Arial" font-size="8.00">+ Collapse ()</text>
<text text-anchor="start" x="239.5" y="-27.8" font-family="Arial" font-size="8.00">+ Draw (GameTime time)</text>
<text text-anchor="start" x="239.5" y="-17.8" font-family="Arial" font-size="8.00">+ AddEntries (DistinctOptionInfo option)</text>
<text text-anchor="start" x="239.5" y="-7.8" font-family="Arial" font-size="8.00">+ AddEntries (DropDownMenuItem[] entries, DropDownMenuItem defaultEntry)</text>
</g>
<!-- Box_MenuItem -->
<g id="node2" class="node"><title>Box_MenuItem</title>
<polygon fill="#fcfcda" stroke="black" points="243.5,-203 243.5,-397 572.5,-397 572.5,-203 243.5,-203"/>
<text text-anchor="middle" x="408" y="-385.8" font-family="Arial" font-size="8.00">MenuItem</text>
<polyline fill="none" stroke="black" points="243.5,-379 572.5,-379 "/>
<text text-anchor="start" x="251.5" y="-367.8" font-family="Arial" font-size="8.00"># spriteBatch : SpriteBatch</text>
<text text-anchor="start" x="251.5" y="-357.8" font-family="Arial" font-size="8.00">+ IsMouseEventEnabled : bool</text>
<text text-anchor="start" x="251.5" y="-347.8" font-family="Arial" font-size="8.00">+ ValidKeys : List&lt;Keys&gt;</text>
<text text-anchor="start" x="251.5" y="-337.8" font-family="Arial" font-size="8.00">+ IsKeyEventEnabled : bool</text>
<text text-anchor="start" x="251.5" y="-327.8" font-family="Arial" font-size="8.00">+ Info : MenuItemInfo</text>
<polyline fill="none" stroke="black" points="243.5,-321 572.5,-321 "/>
<text text-anchor="start" x="251.5" y="-309.8" font-family="Arial" font-size="8.00">+ MenuItem (GameScreen screen, DisplayLayer drawOrder, int itemNum, MenuItemInfo</text>
<text text-anchor="start" x="251.5" y="-299.8" font-family="Arial" font-size="8.00">info)</text>
<text text-anchor="start" x="251.5" y="-289.8" font-family="Arial" font-size="8.00">+ Collapse () virtual</text>
<text text-anchor="start" x="251.5" y="-279.8" font-family="Arial" font-size="8.00">+ OnKeyEvent (List&lt;Keys&gt; key, KeyEvent keyEvent, GameTime time)</text>
<text text-anchor="start" x="251.5" y="-269.8" font-family="Arial" font-size="8.00">+ OnLeftClick (Vector2 position, ClickState click, GameTime time)</text>
<text text-anchor="start" x="251.5" y="-259.8" font-family="Arial" font-size="8.00">+ OnRightClick (Vector2 position, ClickState click, GameTime time)</text>
<text text-anchor="start" x="251.5" y="-249.8" font-family="Arial" font-size="8.00">+ MinimumSize (SpriteFont font) : Vector2</text>
<text text-anchor="start" x="251.5" y="-239.8" font-family="Arial" font-size="8.00">+ TextPosition (SpriteFont font) : Vector2</text>
<text text-anchor="start" x="251.5" y="-229.8" font-family="Arial" font-size="8.00">+ TextPosition (SpriteFont font, Vector2 scale) : Vector2</text>
<text text-anchor="start" x="251.5" y="-219.8" font-family="Arial" font-size="8.00">+ Draw (GameTime time)</text>
<text text-anchor="start" x="251.5" y="-209.8" font-family="Arial" font-size="8.00">+ SetHovered (bool hovered)</text>
</g>
<!-- Box_MenuItem&#45;&gt;Box_DropDownMenu -->
<g id="edge2" class="edge"><title>Box_MenuItem&#45;&gt;Box_DropDownMenu</title>
<path fill="none" stroke="midnightblue" d="M408,-192.822C408,-183.495 408,-174.154 408,-165.077"/>
<polygon fill="none" stroke="midnightblue" points="404.5,-192.924 408,-202.925 411.5,-192.925 404.5,-192.924"/>
</g>
<!-- Box_IKeyEventListener -->
<g id="node3" class="node"><title>Box_IKeyEventListener</title>
<polygon fill="#dafcda" stroke="black" points="-0.5,-445 -0.5,-519 264.5,-519 264.5,-445 -0.5,-445"/>
<text text-anchor="middle" x="132" y="-507.8" font-family="Arial" font-size="8.00">IKeyEventListener</text>
<polyline fill="none" stroke="black" points="-0.5,-501 264.5,-501 "/>
<text text-anchor="start" x="7.5" y="-489.8" font-family="Arial" font-size="8.00">+ ValidKeys : List&lt;Keys&gt;</text>
<text text-anchor="start" x="7.5" y="-479.8" font-family="Arial" font-size="8.00">+ Index : DisplayLayer</text>
<text text-anchor="start" x="7.5" y="-469.8" font-family="Arial" font-size="8.00">+ IsKeyEventEnabled : bool</text>
<polyline fill="none" stroke="black" points="-0.5,-463 264.5,-463 "/>
<text text-anchor="start" x="7.5" y="-451.8" font-family="Arial" font-size="8.00">+ OnKeyEvent (List&lt;Keys&gt; key, KeyEvent keyEvent, GameTime time)</text>
</g>
<!-- Box_IKeyEventListener&#45;&gt;Box_MenuItem -->
<g id="edge8" class="edge"><title>Box_IKeyEventListener&#45;&gt;Box_MenuItem</title>
<path fill="none" stroke="midnightblue" d="M196.641,-439.375C216.11,-426.536 238.326,-411.886 260.869,-397.021"/>
<polygon fill="none" stroke="midnightblue" points="194.607,-436.523 188.185,-444.95 198.461,-442.367 194.607,-436.523"/>
</g>
<!-- Box_IMouseEventListener -->
<g id="node4" class="node"><title>Box_IMouseEventListener</title>
<polygon fill="#dafcda" stroke="black" points="282,-435 282,-529 534,-529 534,-435 282,-435"/>
<text text-anchor="middle" x="408" y="-517.8" font-family="Arial" font-size="8.00">IMouseEventListener</text>
<polyline fill="none" stroke="black" points="282,-511 534,-511 "/>
<text text-anchor="start" x="290" y="-499.8" font-family="Arial" font-size="8.00">+ Index : DisplayLayer</text>
<text text-anchor="start" x="290" y="-489.8" font-family="Arial" font-size="8.00">+ IsMouseEventEnabled : bool</text>
<polyline fill="none" stroke="black" points="282,-483 534,-483 "/>
<text text-anchor="start" x="290" y="-471.8" font-family="Arial" font-size="8.00">+ OnLeftClick (Vector2 position, ClickState click, GameTime time)</text>
<text text-anchor="start" x="290" y="-461.8" font-family="Arial" font-size="8.00">+ OnRightClick (Vector2 position, ClickState click, GameTime time)</text>
<text text-anchor="start" x="290" y="-451.8" font-family="Arial" font-size="8.00">+ SetHovered (bool hovered)</text>
<text text-anchor="start" x="290" y="-441.8" font-family="Arial" font-size="8.00">+ bounds () : Rectangle</text>
</g>
<!-- Box_IMouseEventListener&#45;&gt;Box_MenuItem -->
<g id="edge6" class="edge"><title>Box_IMouseEventListener&#45;&gt;Box_MenuItem</title>
<path fill="none" stroke="midnightblue" d="M408,-424.612C408,-415.845 408,-406.594 408,-397.255"/>
<polygon fill="none" stroke="midnightblue" points="404.5,-424.657 408,-434.657 411.5,-424.657 404.5,-424.657"/>
</g>
<!-- Box_ItemWidget -->
<g id="node5" class="node"><title>Box_ItemWidget</title>
<polygon fill="#fcfcda" stroke="black" points="552,-445.5 552,-518.5 896,-518.5 896,-445.5 552,-445.5"/>
<text text-anchor="middle" x="724" y="-507.3" font-family="Arial" font-size="8.00">ItemWidget</text>
<polyline fill="none" stroke="black" points="552,-500.5 896,-500.5 "/>
<text text-anchor="start" x="560" y="-489.3" font-family="Arial" font-size="8.00">+ ItemState : ItemState</text>
<text text-anchor="start" x="560" y="-479.3" font-family="Arial" font-size="8.00"># ItemNum : int</text>
<polyline fill="none" stroke="black" points="552,-472.5 896,-472.5 "/>
<text text-anchor="start" x="560" y="-461.3" font-family="Arial" font-size="8.00">+ ItemWidget (GameScreen screen, WidgetInfo info, DisplayLayer drawOrder, int itemNum)</text>
</g>
<!-- Box_ItemWidget&#45;&gt;Box_MenuItem -->
<g id="edge4" class="edge"><title>Box_ItemWidget&#45;&gt;Box_MenuItem</title>
<path fill="none" stroke="midnightblue" d="M651.509,-440.249C627.736,-426.557 600.266,-410.735 572.527,-394.759"/>
<polygon fill="none" stroke="midnightblue" points="650.02,-443.431 660.433,-445.389 653.514,-437.365 650.02,-443.431"/>
</g>
<!-- Box_Widget -->
<g id="node6" class="node"><title>Box_Widget</title>
<polygon fill="#fcfcda" stroke="black" points="582,-567 582,-641 866,-641 866,-567 582,-567"/>
<text text-anchor="middle" x="724" y="-629.8" font-family="Arial" font-size="8.00">Widget</text>
<polyline fill="none" stroke="black" points="582,-623 866,-623 "/>
<text text-anchor="start" x="590" y="-611.8" font-family="Arial" font-size="8.00">+ Info : WidgetInfo</text>
<text text-anchor="start" x="590" y="-601.8" font-family="Arial" font-size="8.00">+ IsVisible : bool virtual</text>
<polyline fill="none" stroke="black" points="582,-595 866,-595 "/>
<text text-anchor="start" x="590" y="-583.8" font-family="Arial" font-size="8.00">+ bounds () : Rectangle</text>
<text text-anchor="start" x="590" y="-573.8" font-family="Arial" font-size="8.00">+ Widget (GameScreen screen, WidgetInfo info, DisplayLayer drawOrder)</text>
</g>
<!-- Box_Widget&#45;&gt;Box_ItemWidget -->
<g id="edge10" class="edge"><title>Box_Widget&#45;&gt;Box_ItemWidget</title>
<path fill="none" stroke="midnightblue" d="M724,-556.42C724,-543.86 724,-530.501 724,-518.62"/>
<polygon fill="none" stroke="midnightblue" points="720.5,-556.733 724,-566.733 727.5,-556.733 720.5,-556.733"/>
</g>
<!-- Box_DrawableGameScreenComponent -->
<g id="node7" class="node"><title>Box_DrawableGameScreenComponent</title>
<polygon fill="#fcfcda" stroke="black" points="565.5,-679 565.5,-763 882.5,-763 882.5,-679 565.5,-679"/>
<text text-anchor="middle" x="724" y="-751.8" font-family="Arial" font-size="8.00">DrawableGameScreenComponent</text>
<polyline fill="none" stroke="black" points="565.5,-745 882.5,-745 "/>
<text text-anchor="start" x="573.5" y="-733.8" font-family="Arial" font-size="8.00">+ Index : DisplayLayer</text>
<text text-anchor="start" x="573.5" y="-723.8" font-family="Arial" font-size="8.00">&#45; _index : DisplayLayer</text>
<text text-anchor="start" x="573.5" y="-713.8" font-family="Arial" font-size="8.00">+ screen : GameScreen</text>
<polyline fill="none" stroke="black" points="565.5,-707 882.5,-707 "/>
<text text-anchor="start" x="573.5" y="-695.8" font-family="Arial" font-size="8.00">+ DrawableGameScreenComponent (GameScreen screen, DisplayLayer index)</text>
<text text-anchor="start" x="573.5" y="-685.8" font-family="Arial" font-size="8.00">+ SubComponents (GameTime time) : IEnumerable&lt;IGameScreenComponent&gt; virtual</text>
</g>
<!-- Box_DrawableGameScreenComponent&#45;&gt;Box_Widget -->
<g id="edge12" class="edge"><title>Box_DrawableGameScreenComponent&#45;&gt;Box_Widget</title>
<path fill="none" stroke="midnightblue" d="M724,-668.482C724,-659.258 724,-649.834 724,-641.14"/>
<polygon fill="none" stroke="midnightblue" points="720.5,-668.76 724,-678.76 727.5,-668.76 720.5,-668.76"/>
</g>
<!-- Box_IGameScreenComponent -->
<g id="node8" class="node"><title>Box_IGameScreenComponent</title>
<polygon fill="#dafcda" stroke="black" points="462.5,-801 462.5,-855 755.5,-855 755.5,-801 462.5,-801"/>
<text text-anchor="middle" x="609" y="-843.8" font-family="Arial" font-size="8.00">IGameScreenComponent</text>
<polyline fill="none" stroke="black" points="462.5,-837 755.5,-837 "/>
<text text-anchor="start" x="470.5" y="-825.8" font-family="Arial" font-size="8.00">+ Index : DisplayLayer</text>
<polyline fill="none" stroke="black" points="462.5,-819 755.5,-819 "/>
<text text-anchor="start" x="470.5" y="-807.8" font-family="Arial" font-size="8.00">+ SubComponents (GameTime time) : IEnumerable&lt;IGameScreenComponent&gt;</text>
</g>
<!-- Box_IGameScreenComponent&#45;&gt;Box_DrawableGameScreenComponent -->
<g id="edge16" class="edge"><title>Box_IGameScreenComponent&#45;&gt;Box_DrawableGameScreenComponent</title>
<path fill="none" stroke="midnightblue" d="M645.433,-794.102C655.91,-784.354 667.469,-773.598 678.425,-763.404"/>
<polygon fill="none" stroke="midnightblue" points="642.956,-791.625 638.019,-800.999 647.725,-796.75 642.956,-791.625"/>
</g>
<!-- Box_XnaDrawableGameComponent -->
<g id="node9" class="node"><title>Box_XnaDrawableGameComponent</title>
<polygon fill="#ffffff" stroke="black" points="676,-902 676,-920 806,-920 806,-902 676,-902"/>
<text text-anchor="middle" x="741" y="-908.8" font-family="Arial" font-size="8.00">Xna.DrawableGameComponent</text>
</g>
<!-- Box_XnaIGameComponent -->
<g id="node10" class="node"><title>Box_XnaIGameComponent</title>
<polygon fill="#ffffff" stroke="black" points="824,-902 824,-920 920,-920 920,-902 824,-902"/>
<text text-anchor="middle" x="872" y="-908.8" font-family="Arial" font-size="8.00">Xna.IGameComponent</text>
</g>
<!-- Box_DrawableGameComponent -->
<g id="node17" class="node"><title>Box_DrawableGameComponent</title>
<polygon fill="none" stroke="black" points="773,-810 773,-846 905,-846 905,-810 773,-810"/>
<text text-anchor="middle" x="839" y="-825.8" font-family="Arial" font-size="8.00">Box_DrawableGameComponent</text>
</g>
<!-- Box_DrawableGameComponent&#45;&gt;Box_DrawableGameScreenComponent -->
<g id="edge14" class="edge"><title>Box_DrawableGameComponent&#45;&gt;Box_DrawableGameScreenComponent</title>
<path fill="none" stroke="midnightblue" d="M811.993,-802.871C799.316,-791.076 783.857,-776.693 769.454,-763.292"/>
<polygon fill="none" stroke="midnightblue" points="809.787,-805.599 819.492,-809.849 814.555,-800.475 809.787,-805.599"/>
</g>
<!-- Box_IGameComponent -->
<g id="node20" class="node"><title>Box_IGameComponent</title>
<polygon fill="none" stroke="black" points="560,-893 560,-929 658,-929 658,-893 560,-893"/>
<text text-anchor="middle" x="609" y="-908.8" font-family="Arial" font-size="8.00">Box_IGameComponent</text>
</g>
<!-- Box_IGameComponent&#45;&gt;Box_IGameScreenComponent -->
<g id="edge18" class="edge"><title>Box_IGameComponent&#45;&gt;Box_IGameScreenComponent</title>
<path fill="none" stroke="midnightblue" d="M609,-882.987C609,-873.995 609,-864.055 609,-855.127"/>
<polygon fill="none" stroke="midnightblue" points="605.5,-882.99 609,-892.99 612.5,-882.99 605.5,-882.99"/>
</g>
</g>
</svg>
