<?xml version="1.0" encoding="UTF-8" standalone="no"?>
<!DOCTYPE svg PUBLIC "-//W3C//DTD SVG 1.1//EN"
 "http://www.w3.org/Graphics/SVG/1.1/DTD/svg11.dtd">
<!-- Generated by graphviz version 2.26.3 (20100126.1600)
 -->
<!-- Title: MenuItem Pages: 1 -->
<svg width="11375pt" height="2775pt"
 viewBox="0.00 0.00 2730.00 666.00" xmlns="http://www.w3.org/2000/svg" xmlns:xlink="http://www.w3.org/1999/xlink">
<g id="graph1" class="graph" transform="scale(4.16667 4.16667) rotate(0) translate(4 662)">
<title>MenuItem</title>
<polygon fill="white" stroke="white" points="-4,5 -4,-662 2727,-662 2727,5 -4,5"/>
<!-- Box_GameScreenComponent -->
<g id="node1" class="node"><title>Box_GameScreenComponent</title>
<polygon fill="#fcfcda" stroke="black" points="1382.5,-435 1382.5,-509 1699.5,-509 1699.5,-435 1382.5,-435"/>
<text text-anchor="middle" x="1541" y="-497.8" font-family="Arial" font-size="8.00">GameScreenComponent</text>
<polyline fill="none" stroke="black" points="1382.5,-491 1699.5,-491 "/>
<text text-anchor="start" x="1390.5" y="-479.8" font-family="Arial" font-size="8.00">+ Index : DisplayLayer</text>
<text text-anchor="start" x="1390.5" y="-469.8" font-family="Arial" font-size="8.00">+ screen : GameScreen</text>
<polyline fill="none" stroke="black" points="1382.5,-463 1699.5,-463 "/>
<text text-anchor="start" x="1390.5" y="-451.8" font-family="Arial" font-size="8.00">+ GameScreenComponent (GameScreen screen, DisplayLayer index)</text>
<text text-anchor="start" x="1390.5" y="-441.8" font-family="Arial" font-size="8.00">+ SubComponents (GameTime time) : IEnumerable&lt;IGameScreenComponent&gt; virtual</text>
</g>
<!-- Box_Camera -->
<g id="node3" class="node"><title>Box_Camera</title>
<polygon fill="#fcfcda" stroke="black" points="1997.5,-93 1997.5,-397 2180.5,-397 2180.5,-93 1997.5,-93"/>
<text text-anchor="middle" x="2089" y="-385.8" font-family="Arial" font-size="8.00">Camera</text>
<polyline fill="none" stroke="black" points="1997.5,-379 2180.5,-379 "/>
<text text-anchor="start" x="2005.5" y="-367.8" font-family="Arial" font-size="8.00">&#45; AutoRotation : Angles3</text>
<text text-anchor="start" x="2005.5" y="-357.8" font-family="Arial" font-size="8.00">&#45; _target : Vector3</text>
<text text-anchor="start" x="2005.5" y="-347.8" font-family="Arial" font-size="8.00">&#45; aspectRatio : float</text>
<text text-anchor="start" x="2005.5" y="-337.8" font-family="Arial" font-size="8.00">&#45; farPlane : float</text>
<text text-anchor="start" x="2005.5" y="-327.8" font-family="Arial" font-size="8.00">&#45; nearPlane : float</text>
<text text-anchor="start" x="2005.5" y="-317.8" font-family="Arial" font-size="8.00">+ Position : Vector3</text>
<text text-anchor="start" x="2005.5" y="-307.8" font-family="Arial" font-size="8.00">+ Target : Vector3</text>
<text text-anchor="start" x="2005.5" y="-297.8" font-family="Arial" font-size="8.00">+ TargetDirection : Vector3</text>
<text text-anchor="start" x="2005.5" y="-287.8" font-family="Arial" font-size="8.00">+ UpVector : Vector3</text>
<text text-anchor="start" x="2005.5" y="-277.8" font-family="Arial" font-size="8.00">+ FoV : float</text>
<text text-anchor="start" x="2005.5" y="-267.8" font-family="Arial" font-size="8.00">&#45; World : World</text>
<text text-anchor="start" x="2005.5" y="-257.8" font-family="Arial" font-size="8.00">&#45; _position : Vector3</text>
<text text-anchor="start" x="2005.5" y="-247.8" font-family="Arial" font-size="8.00">&#45; foV : float</text>
<text text-anchor="start" x="2005.5" y="-237.8" font-family="Arial" font-size="8.00">+ RotationAngle : Angles3</text>
<text text-anchor="start" x="2005.5" y="-227.8" font-family="Arial" font-size="8.00">+ ViewFrustum : BoundingFrustum</text>
<text text-anchor="start" x="2005.5" y="-217.8" font-family="Arial" font-size="8.00">+ ProjectionMatrix : Matrix</text>
<text text-anchor="start" x="2005.5" y="-207.8" font-family="Arial" font-size="8.00">+ ViewMatrix : Matrix</text>
<text text-anchor="start" x="2005.5" y="-197.8" font-family="Arial" font-size="8.00">+ WorldMatrix : Matrix</text>
<text text-anchor="start" x="2005.5" y="-187.8" font-family="Arial" font-size="8.00">+ ArcballTarget : Vector3</text>
<text text-anchor="start" x="2005.5" y="-177.8" font-family="Arial" font-size="8.00">+ DefaultPosition : Vector3</text>
<text text-anchor="start" x="2005.5" y="-167.8" font-family="Arial" font-size="8.00">+ TargetDistance : float</text>
<polyline fill="none" stroke="black" points="1997.5,-161 2180.5,-161 "/>
<text text-anchor="start" x="2005.5" y="-149.8" font-family="Arial" font-size="8.00">+ OnViewChanged () : Action</text>
<text text-anchor="start" x="2005.5" y="-139.8" font-family="Arial" font-size="8.00">+ Camera (GameScreen screen, World world)</text>
<text text-anchor="start" x="2005.5" y="-129.8" font-family="Arial" font-size="8.00">+ GetMouseRay (Vector2 mouse) : Ray</text>
<text text-anchor="start" x="2005.5" y="-119.8" font-family="Arial" font-size="8.00">&#45; UpdateMatrices (GameTime time)</text>
<text text-anchor="start" x="2005.5" y="-109.8" font-family="Arial" font-size="8.00">&#45; UpdateRotation (GameTime time)</text>
<text text-anchor="start" x="2005.5" y="-99.8" font-family="Arial" font-size="8.00">+ Update (GameTime time)</text>
</g>
<!-- Box_GameScreenComponent&#45;&gt;Box_Camera -->
<g id="edge8" class="edge"><title>Box_GameScreenComponent&#45;&gt;Box_Camera</title>
<path fill="none" stroke="midnightblue" d="M1709.61,-458.279C1816.69,-446.909 1943.41,-427.723 1989,-398 1991.79,-396.18 1994.52,-394.252 1997.19,-392.228"/>
<polygon fill="none" stroke="midnightblue" points="1709.22,-454.801 1699.64,-459.321 1709.95,-461.763 1709.22,-454.801"/>
</g>
<!-- Box_ClickHandler -->
<g id="node4" class="node"><title>Box_ClickHandler</title>
<polygon fill="#fcfcda" stroke="black" points="2197.5,-198 2197.5,-292 2348.5,-292 2348.5,-198 2197.5,-198"/>
<text text-anchor="middle" x="2273" y="-280.8" font-family="Arial" font-size="8.00">ClickHandler</text>
<polyline fill="none" stroke="black" points="2197.5,-274 2348.5,-274 "/>
<text text-anchor="start" x="2205.5" y="-262.8" font-family="Arial" font-size="8.00">private class ClickEventComponent :</text>
<text text-anchor="start" x="2205.5" y="-252.8" font-family="Arial" font-size="8.00">+ receiver : IMouseEventListener</text>
<text text-anchor="start" x="2205.5" y="-242.8" font-family="Arial" font-size="8.00">+ layer : DisplayLayer</text>
<text text-anchor="start" x="2205.5" y="-232.8" font-family="Arial" font-size="8.00">+ relativePosition : Vector2</text>
<polyline fill="none" stroke="black" points="2197.5,-226 2348.5,-226 "/>
<text text-anchor="start" x="2205.5" y="-214.8" font-family="Arial" font-size="8.00">+ ClickHandler (GameScreen screen)</text>
<text text-anchor="start" x="2205.5" y="-204.8" font-family="Arial" font-size="8.00">+ Update (GameTime time) override</text>
</g>
<!-- Box_GameScreenComponent&#45;&gt;Box_ClickHandler -->
<g id="edge10" class="edge"><title>Box_GameScreenComponent&#45;&gt;Box_ClickHandler</title>
<path fill="none" stroke="midnightblue" d="M1709.74,-460.759C1888.37,-447.596 2149.93,-424.228 2189,-398 2225.61,-373.426 2247.74,-327.362 2260.02,-292.174"/>
<polygon fill="none" stroke="midnightblue" points="1709.42,-457.273 1699.7,-461.495 1709.93,-464.255 1709.42,-457.273"/>
</g>
<!-- Box_Input -->
<g id="node5" class="node"><title>Box_Input</title>
<polygon fill="#fcfcda" stroke="black" points="585.5,-128 585.5,-362 850.5,-362 850.5,-128 585.5,-128"/>
<text text-anchor="middle" x="718" y="-350.8" font-family="Arial" font-size="8.00">Input</text>
<polyline fill="none" stroke="black" points="585.5,-344 850.5,-344 "/>
<text text-anchor="start" x="593.5" y="-332.8" font-family="Arial" font-size="8.00"># FullscreenToggled : bool static</text>
<text text-anchor="start" x="593.5" y="-322.8" font-family="Arial" font-size="8.00">+ PreviousKeyboardState : KeyboardState static</text>
<text text-anchor="start" x="593.5" y="-312.8" font-family="Arial" font-size="8.00">+ PreviousMouseState : MouseState static</text>
<text text-anchor="start" x="593.5" y="-302.8" font-family="Arial" font-size="8.00">&#45; LeftButtonClickTimer : double static</text>
<text text-anchor="start" x="593.5" y="-292.8" font-family="Arial" font-size="8.00">&#45; RightButtonClickTimer : double static</text>
<text text-anchor="start" x="593.5" y="-282.8" font-family="Arial" font-size="8.00">&#45; PreviousClickMouseState : MouseState static</text>
<text text-anchor="start" x="593.5" y="-272.8" font-family="Arial" font-size="8.00">+ LeftButton : ClickState static</text>
<text text-anchor="start" x="593.5" y="-262.8" font-family="Arial" font-size="8.00">+ RightButton : ClickState static</text>
<text text-anchor="start" x="593.5" y="-252.8" font-family="Arial" font-size="8.00">+ GrabMouseMovement : bool</text>
<text text-anchor="start" x="593.5" y="-242.8" font-family="Arial" font-size="8.00">+ CurrentInputAction : InputAction</text>
<text text-anchor="start" x="593.5" y="-232.8" font-family="Arial" font-size="8.00">+ WASDMode : WASDMode</text>
<text text-anchor="start" x="593.5" y="-222.8" font-family="Arial" font-size="8.00">+ ValidKeys : List&lt;Keys&gt;</text>
<text text-anchor="start" x="593.5" y="-212.8" font-family="Arial" font-size="8.00">+ IsKeyEventEnabled : bool</text>
<text text-anchor="start" x="593.5" y="-202.8" font-family="Arial" font-size="8.00">+ MouseState : MouseState static</text>
<text text-anchor="start" x="593.5" y="-192.8" font-family="Arial" font-size="8.00">+ KeyboardState : KeyboardState static</text>
<polyline fill="none" stroke="black" points="585.5,-186 850.5,-186 "/>
<text text-anchor="start" x="593.5" y="-174.8" font-family="Arial" font-size="8.00">+ Input (GameScreen screen)</text>
<text text-anchor="start" x="593.5" y="-164.8" font-family="Arial" font-size="8.00">+ Update (GameTime time) override</text>
<text text-anchor="start" x="593.5" y="-154.8" font-family="Arial" font-size="8.00"># UpdateKeys (GameTime time) virtual</text>
<text text-anchor="start" x="593.5" y="-144.8" font-family="Arial" font-size="8.00"># UpdateMouse (GameTime time) virtual</text>
<text text-anchor="start" x="593.5" y="-134.8" font-family="Arial" font-size="8.00">+ OnKeyEvent (List&lt;Keys&gt; key, KeyEvent keyEvent, GameTime time)</text>
</g>
<!-- Box_GameScreenComponent&#45;&gt;Box_Input -->
<g id="edge12" class="edge"><title>Box_GameScreenComponent&#45;&gt;Box_Input</title>
<path fill="none" stroke="midnightblue" d="M1372.25,-467.17C1199.99,-459.868 945.927,-441.844 859,-398 840.778,-388.809 823.731,-376.223 808.228,-362.187"/>
<polygon fill="none" stroke="midnightblue" points="1372.31,-470.675 1382.45,-467.594 1372.6,-463.681 1372.31,-470.675"/>
</g>
<!-- Box_InputManager -->
<g id="node7" class="node"><title>Box_InputManager</title>
<polygon fill="#fcfcda" stroke="black" points="2365.5,-153 2365.5,-337 2556.5,-337 2556.5,-153 2365.5,-153"/>
<text text-anchor="middle" x="2461" y="-325.8" font-family="Arial" font-size="8.00">InputManager</text>
<polyline fill="none" stroke="black" points="2365.5,-319 2556.5,-319 "/>
<text text-anchor="start" x="2373.5" y="-307.8" font-family="Arial" font-size="8.00">&#45; PreviousClickMouseState : MouseState static</text>
<text text-anchor="start" x="2373.5" y="-297.8" font-family="Arial" font-size="8.00">&#45; LeftButtonClickTimer : double static</text>
<text text-anchor="start" x="2373.5" y="-287.8" font-family="Arial" font-size="8.00">&#45; RightButtonClickTimer : double static</text>
<text text-anchor="start" x="2373.5" y="-277.8" font-family="Arial" font-size="8.00">+ GrabMouseMovement : bool</text>
<text text-anchor="start" x="2373.5" y="-267.8" font-family="Arial" font-size="8.00">+ LeftButton : ClickState static</text>
<text text-anchor="start" x="2373.5" y="-257.8" font-family="Arial" font-size="8.00">+ RightButton : ClickState static</text>
<text text-anchor="start" x="2373.5" y="-247.8" font-family="Arial" font-size="8.00">+ PreviousKeyboardState : KeyboardState static</text>
<text text-anchor="start" x="2373.5" y="-237.8" font-family="Arial" font-size="8.00">+ MouseState : MouseState static</text>
<text text-anchor="start" x="2373.5" y="-227.8" font-family="Arial" font-size="8.00">+ PreviousMouseState : MouseState static</text>
<text text-anchor="start" x="2373.5" y="-217.8" font-family="Arial" font-size="8.00">+ CurrentInputAction : InputAction</text>
<text text-anchor="start" x="2373.5" y="-207.8" font-family="Arial" font-size="8.00">+ WASDMode : WASDMode</text>
<text text-anchor="start" x="2373.5" y="-197.8" font-family="Arial" font-size="8.00">+ KeyboardState : KeyboardState static</text>
<text text-anchor="start" x="2373.5" y="-187.8" font-family="Arial" font-size="8.00">+ FullscreenToggled : bool static</text>
<polyline fill="none" stroke="black" points="2365.5,-181 2556.5,-181 "/>
<text text-anchor="start" x="2373.5" y="-169.8" font-family="Arial" font-size="8.00">+ Update (GameTime time)</text>
<text text-anchor="start" x="2373.5" y="-159.8" font-family="Arial" font-size="8.00">+ InputManager (GameScreen screen)</text>
</g>
<!-- Box_GameScreenComponent&#45;&gt;Box_InputManager -->
<g id="edge18" class="edge"><title>Box_GameScreenComponent&#45;&gt;Box_InputManager</title>
<path fill="none" stroke="midnightblue" d="M1710.09,-464.361C1932.8,-453.125 2302.71,-429.963 2357,-398 2381.49,-383.579 2401.48,-360.843 2417.15,-337.265"/>
<polygon fill="none" stroke="midnightblue" points="1709.74,-460.874 1699.93,-464.871 1710.09,-467.865 1709.74,-460.874"/>
</g>
<!-- Box_KeyHandler -->
<g id="node8" class="node"><title>Box_KeyHandler</title>
<polygon fill="#fcfcda" stroke="black" points="2573.5,-193 2573.5,-297 2722.5,-297 2722.5,-193 2573.5,-193"/>
<text text-anchor="middle" x="2648" y="-285.8" font-family="Arial" font-size="8.00">KeyHandler</text>
<polyline fill="none" stroke="black" points="2573.5,-279 2722.5,-279 "/>
<text text-anchor="start" x="2581.5" y="-267.8" font-family="Arial" font-size="8.00">private class KeyEventComponent :</text>
<text text-anchor="start" x="2581.5" y="-257.8" font-family="Arial" font-size="8.00">+ receiver : IKeyEventListener</text>
<text text-anchor="start" x="2581.5" y="-247.8" font-family="Arial" font-size="8.00">+ layer : DisplayLayer</text>
<text text-anchor="start" x="2581.5" y="-237.8" font-family="Arial" font-size="8.00">+ keyEvent : KeyEvent</text>
<text text-anchor="start" x="2581.5" y="-227.8" font-family="Arial" font-size="8.00">+ keys : List&lt;Keys&gt;</text>
<polyline fill="none" stroke="black" points="2573.5,-221 2722.5,-221 "/>
<text text-anchor="start" x="2581.5" y="-209.8" font-family="Arial" font-size="8.00">+ KeyHandler (GameScreen screen)</text>
<text text-anchor="start" x="2581.5" y="-199.8" font-family="Arial" font-size="8.00">+ Update (GameTime time) override</text>
</g>
<!-- Box_GameScreenComponent&#45;&gt;Box_KeyHandler -->
<g id="edge20" class="edge"><title>Box_GameScreenComponent&#45;&gt;Box_KeyHandler</title>
<path fill="none" stroke="midnightblue" d="M1710.02,-468.585C1982.38,-461.781 2495.08,-443.106 2565,-398 2600.42,-375.147 2621.89,-331.768 2634.09,-297.02"/>
<polygon fill="none" stroke="midnightblue" points="1709.54,-465.096 1699.63,-468.842 1709.71,-472.094 1709.54,-465.096"/>
</g>
<!-- Box_WidgetKeyHandler -->
<g id="node9" class="node"><title>Box_WidgetKeyHandler</title>
<polygon fill="#fcfcda" stroke="black" points="1149.5,-213 1149.5,-277 1322.5,-277 1322.5,-213 1149.5,-213"/>
<text text-anchor="middle" x="1236" y="-265.8" font-family="Arial" font-size="8.00">WidgetKeyHandler</text>
<polyline fill="none" stroke="black" points="1149.5,-259 1322.5,-259 "/>
<text text-anchor="start" x="1157.5" y="-247.8" font-family="Arial" font-size="8.00">&#45; KeyEventComponent : class</text>
<polyline fill="none" stroke="black" points="1149.5,-241 1322.5,-241 "/>
<text text-anchor="start" x="1157.5" y="-229.8" font-family="Arial" font-size="8.00">+ WidgetKeyHandler (GameScreen screen)</text>
<text text-anchor="start" x="1157.5" y="-219.8" font-family="Arial" font-size="8.00">+ Update (GameTime time)</text>
</g>
<!-- Box_GameScreenComponent&#45;&gt;Box_WidgetKeyHandler -->
<g id="edge22" class="edge"><title>Box_GameScreenComponent&#45;&gt;Box_WidgetKeyHandler</title>
<path fill="none" stroke="midnightblue" d="M1385.2,-430.783C1365.84,-421.824 1347.19,-411.013 1331,-398 1290.79,-365.683 1262.95,-311.465 1248.23,-277.003"/>
<polygon fill="none" stroke="midnightblue" points="1383.89,-434.029 1394.44,-434.902 1386.73,-427.635 1383.89,-434.029"/>
</g>
<!-- Box_WidgetMouseHandler -->
<g id="node10" class="node"><title>Box_WidgetMouseHandler</title>
<polygon fill="#fcfcda" stroke="black" points="1339.5,-213 1339.5,-277 1522.5,-277 1522.5,-213 1339.5,-213"/>
<text text-anchor="middle" x="1431" y="-265.8" font-family="Arial" font-size="8.00">WidgetMouseHandler</text>
<polyline fill="none" stroke="black" points="1339.5,-259 1522.5,-259 "/>
<text text-anchor="start" x="1347.5" y="-247.8" font-family="Arial" font-size="8.00">&#45; ClickEventComponent : class</text>
<polyline fill="none" stroke="black" points="1339.5,-241 1522.5,-241 "/>
<text text-anchor="start" x="1347.5" y="-229.8" font-family="Arial" font-size="8.00">+ WidgetMouseHandler (GameScreen screen)</text>
<text text-anchor="start" x="1347.5" y="-219.8" font-family="Arial" font-size="8.00">+ Update (GameTime time)</text>
</g>
<!-- Box_GameScreenComponent&#45;&gt;Box_WidgetMouseHandler -->
<g id="edge24" class="edge"><title>Box_GameScreenComponent&#45;&gt;Box_WidgetMouseHandler</title>
<path fill="none" stroke="midnightblue" d="M1518.55,-425.667C1497.1,-381.415 1465.35,-315.888 1446.56,-277.107"/>
<polygon fill="none" stroke="midnightblue" points="1515.45,-427.297 1522.96,-434.77 1521.75,-424.244 1515.45,-427.297"/>
</g>
<!-- Box_KnotInputHandler -->
<g id="node11" class="node"><title>Box_KnotInputHandler</title>
<polygon fill="#fcfcda" stroke="black" points="867.5,-173 867.5,-317 1132.5,-317 1132.5,-173 867.5,-173"/>
<text text-anchor="middle" x="1000" y="-305.8" font-family="Arial" font-size="8.00">KnotInputHandler</text>
<polyline fill="none" stroke="black" points="867.5,-299 1132.5,-299 "/>
<text text-anchor="start" x="875.5" y="-287.8" font-family="Arial" font-size="8.00">&#45; wasdSpeed : int</text>
<text text-anchor="start" x="875.5" y="-277.8" font-family="Arial" font-size="8.00">&#45; camera : Camera</text>
<text text-anchor="start" x="875.5" y="-267.8" font-family="Arial" font-size="8.00">&#45; World : World</text>
<text text-anchor="start" x="875.5" y="-257.8" font-family="Arial" font-size="8.00">+ ValidKeys : List&lt;Keys&gt;</text>
<text text-anchor="start" x="875.5" y="-247.8" font-family="Arial" font-size="8.00">+ IsKeyEventEnabled : bool</text>
<polyline fill="none" stroke="black" points="867.5,-241 1132.5,-241 "/>
<text text-anchor="start" x="875.5" y="-229.8" font-family="Arial" font-size="8.00"># UpdateMouse (GameTime time)</text>
<text text-anchor="start" x="875.5" y="-219.8" font-family="Arial" font-size="8.00">+ KnotInputHandler (GameScreen screen, World world)</text>
<text text-anchor="start" x="875.5" y="-209.8" font-family="Arial" font-size="8.00">+ OnKeyEvent (List&lt;Keys&gt; key, KeyEvent keyEvent, GameTime time)</text>
<text text-anchor="start" x="875.5" y="-199.8" font-family="Arial" font-size="8.00">&#45; ResetMousePosition ()</text>
<text text-anchor="start" x="875.5" y="-189.8" font-family="Arial" font-size="8.00"># UpdateKeys (GameTime time)</text>
<text text-anchor="start" x="875.5" y="-179.8" font-family="Arial" font-size="8.00">+ Update (GameTime time)</text>
</g>
<!-- Box_GameScreenComponent&#45;&gt;Box_KnotInputHandler -->
<g id="edge26" class="edge"><title>Box_GameScreenComponent&#45;&gt;Box_KnotInputHandler</title>
<path fill="none" stroke="midnightblue" d="M1372.36,-451.63C1281.81,-438.58 1180.81,-419.986 1141,-398 1105.58,-378.442 1074.17,-346.712 1050.03,-317.205"/>
<polygon fill="none" stroke="midnightblue" points="1372.1,-455.129 1382.49,-453.075 1373.08,-448.199 1372.1,-455.129"/>
</g>
<!-- Box_EdgeColoring -->
<g id="node12" class="node"><title>Box_EdgeColoring</title>
<polygon fill="#fcfcda" stroke="black" points="-0.5,-198 -0.5,-292 264.5,-292 264.5,-198 -0.5,-198"/>
<text text-anchor="middle" x="132" y="-280.8" font-family="Arial" font-size="8.00">EdgeColoring</text>
<polyline fill="none" stroke="black" points="-0.5,-274 264.5,-274 "/>
<text text-anchor="start" x="7.5" y="-262.8" font-family="Arial" font-size="8.00">+ ValidKeys : List&lt;Keys&gt;</text>
<text text-anchor="start" x="7.5" y="-252.8" font-family="Arial" font-size="8.00">+ Knot : Knot</text>
<text text-anchor="start" x="7.5" y="-242.8" font-family="Arial" font-size="8.00">+ IsKeyEventEnabled : bool</text>
<polyline fill="none" stroke="black" points="-0.5,-236 264.5,-236 "/>
<text text-anchor="start" x="7.5" y="-224.8" font-family="Arial" font-size="8.00">+ OnKeyEvent (List&lt;Keys&gt; key, KeyEvent keyEvent, GameTime time)</text>
<text text-anchor="start" x="7.5" y="-214.8" font-family="Arial" font-size="8.00">+ EdgeColoring (GameScreen screen)</text>
<text text-anchor="start" x="7.5" y="-204.8" font-family="Arial" font-size="8.00">+ Update (GameTime time)</text>
</g>
<!-- Box_GameScreenComponent&#45;&gt;Box_EdgeColoring -->
<g id="edge30" class="edge"><title>Box_GameScreenComponent&#45;&gt;Box_EdgeColoring</title>
<path fill="none" stroke="midnightblue" d="M1371.95,-465.489C1038.04,-452.167 321.79,-421.103 273,-398 225.009,-375.275 185.641,-328.2 160.817,-292.233"/>
<polygon fill="none" stroke="midnightblue" points="1372.07,-468.997 1382.2,-465.898 1372.35,-462.003 1372.07,-468.997"/>
</g>
<!-- Box_ModelMousePicker -->
<g id="node13" class="node"><title>Box_ModelMousePicker</title>
<polygon fill="#fcfcda" stroke="black" points="1540,-193 1540,-297 1762,-297 1762,-193 1540,-193"/>
<text text-anchor="middle" x="1651" y="-285.8" font-family="Arial" font-size="8.00">ModelMousePicker</text>
<polyline fill="none" stroke="black" points="1540,-279 1762,-279 "/>
<text text-anchor="start" x="1548" y="-267.8" font-family="Arial" font-size="8.00">&#45; lastMousePosition : Vector2</text>
<text text-anchor="start" x="1548" y="-257.8" font-family="Arial" font-size="8.00">&#45; World : World</text>
<text text-anchor="start" x="1548" y="-247.8" font-family="Arial" font-size="8.00">&#45; lastRayCheck : double</text>
<polyline fill="none" stroke="black" points="1540,-241 1762,-241 "/>
<text text-anchor="start" x="1548" y="-229.8" font-family="Arial" font-size="8.00">&#45; UpdateMouseRay (GameTime time)</text>
<text text-anchor="start" x="1548" y="-219.8" font-family="Arial" font-size="8.00">+ ModelMousePicker (GameScreen screen, World world)</text>
<text text-anchor="start" x="1548" y="-209.8" font-family="Arial" font-size="8.00">&#45; CheckMouseRay (GameTime time)</text>
<text text-anchor="start" x="1548" y="-199.8" font-family="Arial" font-size="8.00">+ Update (GameTime time)</text>
</g>
<!-- Box_GameScreenComponent&#45;&gt;Box_ModelMousePicker -->
<g id="edge34" class="edge"><title>Box_GameScreenComponent&#45;&gt;Box_ModelMousePicker</title>
<path fill="none" stroke="midnightblue" d="M1563.47,-425.624C1581.56,-388.302 1606.97,-335.865 1625.75,-297.1"/>
<polygon fill="none" stroke="midnightblue" points="1560.25,-424.244 1559.04,-434.77 1566.55,-427.297 1560.25,-424.244"/>
</g>
<!-- Box_MousePicker -->
<g id="node14" class="node"><title>Box_MousePicker</title>
<polygon fill="#fcfcda" stroke="black" points="1779.5,-198 1779.5,-292 1980.5,-292 1980.5,-198 1779.5,-198"/>
<text text-anchor="middle" x="1880" y="-280.8" font-family="Arial" font-size="8.00">MousePicker</text>
<polyline fill="none" stroke="black" points="1779.5,-274 1980.5,-274 "/>
<text text-anchor="start" x="1787.5" y="-262.8" font-family="Arial" font-size="8.00">&#45; World : World</text>
<text text-anchor="start" x="1787.5" y="-252.8" font-family="Arial" font-size="8.00">&#45; lastRayCheck : double</text>
<text text-anchor="start" x="1787.5" y="-242.8" font-family="Arial" font-size="8.00">&#45; lastMousePosition : Vector2</text>
<polyline fill="none" stroke="black" points="1779.5,-236 1980.5,-236 "/>
<text text-anchor="start" x="1787.5" y="-224.8" font-family="Arial" font-size="8.00">+ MousePicker (GameScreen screen, World world)</text>
<text text-anchor="start" x="1787.5" y="-214.8" font-family="Arial" font-size="8.00">+ Update (GameTime time) override</text>
<text text-anchor="start" x="1787.5" y="-204.8" font-family="Arial" font-size="8.00">+ UpdateMouseRay (GameTime time)</text>
</g>
<!-- Box_GameScreenComponent&#45;&gt;Box_MousePicker -->
<g id="edge36" class="edge"><title>Box_GameScreenComponent&#45;&gt;Box_MousePicker</title>
<path fill="none" stroke="midnightblue" d="M1709.13,-432.032C1731.05,-422.855 1752.34,-411.651 1771,-398 1808.64,-370.466 1838.24,-325.952 1857.04,-292.02"/>
<polygon fill="none" stroke="midnightblue" points="1707.66,-428.849 1699.7,-435.842 1710.28,-435.34 1707.66,-428.849"/>
</g>
<!-- Box_PipeColoring -->
<g id="node15" class="node"><title>Box_PipeColoring</title>
<polygon fill="#fcfcda" stroke="black" points="281.5,-198 281.5,-292 568.5,-292 568.5,-198 281.5,-198"/>
<text text-anchor="middle" x="425" y="-280.8" font-family="Arial" font-size="8.00">PipeColoring</text>
<polyline fill="none" stroke="black" points="281.5,-274 568.5,-274 "/>
<text text-anchor="start" x="289.5" y="-262.8" font-family="Arial" font-size="8.00">+ ValidKeys : List&lt;Keys&gt;</text>
<text text-anchor="start" x="289.5" y="-252.8" font-family="Arial" font-size="8.00">+ Knot : Knot</text>
<text text-anchor="start" x="289.5" y="-242.8" font-family="Arial" font-size="8.00">+ IsKeyEventEnabled : bool</text>
<polyline fill="none" stroke="black" points="281.5,-236 568.5,-236 "/>
<text text-anchor="start" x="289.5" y="-224.8" font-family="Arial" font-size="8.00">+ OnKeyEvent (List&lt;Keys&gt; key, KeyEvent keyEvent, GameTime gameTime)</text>
<text text-anchor="start" x="289.5" y="-214.8" font-family="Arial" font-size="8.00">+ PipeColoring (GameScreen screen)</text>
<text text-anchor="start" x="289.5" y="-204.8" font-family="Arial" font-size="8.00">+ Update (GameTime gameTime)</text>
</g>
<!-- Box_GameScreenComponent&#45;&gt;Box_PipeColoring -->
<g id="edge38" class="edge"><title>Box_GameScreenComponent&#45;&gt;Box_PipeColoring</title>
<path fill="none" stroke="midnightblue" d="M1372.2,-465.433C1114.96,-454.465 647.137,-430.391 577,-398 527.031,-374.923 484.33,-327.9 457.026,-292.041"/>
<polygon fill="none" stroke="midnightblue" points="1372.25,-468.938 1382.39,-465.865 1372.55,-461.945 1372.25,-468.938"/>
</g>
<!-- Box_IGameScreenComponent -->
<g id="node2" class="node"><title>Box_IGameScreenComponent</title>
<polygon fill="#dafcda" stroke="black" points="1288.5,-547 1288.5,-601 1581.5,-601 1581.5,-547 1288.5,-547"/>
<text text-anchor="middle" x="1435" y="-589.8" font-family="Arial" font-size="8.00">IGameScreenComponent</text>
<polyline fill="none" stroke="black" points="1288.5,-583 1581.5,-583 "/>
<text text-anchor="start" x="1296.5" y="-571.8" font-family="Arial" font-size="8.00">+ Index : DisplayLayer</text>
<polyline fill="none" stroke="black" points="1288.5,-565 1581.5,-565 "/>
<text text-anchor="start" x="1296.5" y="-553.8" font-family="Arial" font-size="8.00">+ SubComponents (GameTime time) : IEnumerable&lt;IGameScreenComponent&gt;</text>
</g>
<!-- Box_IGameScreenComponent&#45;&gt;Box_GameScreenComponent -->
<g id="edge4" class="edge"><title>Box_IGameScreenComponent&#45;&gt;Box_GameScreenComponent</title>
<path fill="none" stroke="midnightblue" d="M1470.4,-539.937C1480.66,-530.063 1491.91,-519.233 1502.36,-509.178"/>
<polygon fill="none" stroke="midnightblue" points="1467.91,-537.478 1463.13,-546.934 1472.76,-542.522 1467.91,-537.478"/>
</g>
<!-- Box_MenuScreenInput -->
<g id="node6" class="node"><title>Box_MenuScreenInput</title>
<polygon fill="#fcfcda" stroke="black" points="640.5,-1 640.5,-55 795.5,-55 795.5,-1 640.5,-1"/>
<text text-anchor="middle" x="718" y="-43.8" font-family="Arial" font-size="8.00">MenuScreenInput</text>
<polyline fill="none" stroke="black" points="640.5,-37 795.5,-37 "/>
<text text-anchor="middle" x="718" y="-25.8" font-family="Arial" font-size="8.00"> </text>
<polyline fill="none" stroke="black" points="640.5,-19 795.5,-19 "/>
<text text-anchor="start" x="648.5" y="-7.8" font-family="Arial" font-size="8.00">+ MenuScreenInput (GameState state)</text>
</g>
<!-- Box_Input&#45;&gt;Box_MenuScreenInput -->
<g id="edge16" class="edge"><title>Box_Input&#45;&gt;Box_MenuScreenInput</title>
<path fill="none" stroke="midnightblue" d="M718,-117.764C718,-94.1952 718,-71.8431 718,-55.3389"/>
<polygon fill="none" stroke="midnightblue" points="714.5,-117.925 718,-127.925 721.5,-117.925 714.5,-117.925"/>
</g>
<!-- Box_XnaGameComponent -->
<g id="node16" class="node"><title>Box_XnaGameComponent</title>
<polygon fill="#ffffff" stroke="black" points="1598.5,-565 1598.5,-583 1693.5,-583 1693.5,-565 1598.5,-565"/>
<text text-anchor="middle" x="1646" y="-571.8" font-family="Arial" font-size="8.00">Xna.GameComponent</text>
</g>
<!-- Box_XnaGameComponent&#45;&gt;Box_GameScreenComponent -->
<g id="edge2" class="edge"><title>Box_XnaGameComponent&#45;&gt;Box_GameScreenComponent</title>
<path fill="none" stroke="midnightblue" d="M1629.15,-557.63C1615.71,-544.571 1596.35,-525.772 1579.2,-509.113"/>
<polygon fill="none" stroke="midnightblue" points="1627.07,-560.491 1636.68,-564.948 1631.95,-555.47 1627.07,-560.491"/>
</g>
<!-- Box_XnaIGameComponent -->
<g id="node17" class="node"><title>Box_XnaIGameComponent</title>
<polygon fill="#ffffff" stroke="black" points="1387,-639 1387,-657 1483,-657 1483,-639 1387,-639"/>
<text text-anchor="middle" x="1435" y="-645.8" font-family="Arial" font-size="8.00">Xna.IGameComponent</text>
</g>
<!-- Box_XnaIGameComponent&#45;&gt;Box_IGameScreenComponent -->
<g id="edge6" class="edge"><title>Box_XnaIGameComponent&#45;&gt;Box_IGameScreenComponent</title>
<path fill="none" stroke="midnightblue" d="M1435,-628.64C1435,-620.2 1435,-610.16 1435,-601.004"/>
<polygon fill="none" stroke="midnightblue" points="1431.5,-628.926 1435,-638.926 1438.5,-628.926 1431.5,-628.926"/>
</g>
<!-- Box_IKeyEventListener -->
<g id="node18" class="node"><title>Box_IKeyEventListener</title>
<polygon fill="#ffffff" stroke="black" points="530,-463 530,-481 612,-481 612,-463 530,-463"/>
<text text-anchor="middle" x="571" y="-469.8" font-family="Arial" font-size="8.00">IKeyEventListener</text>
</g>
<!-- Box_IKeyEventListener&#45;&gt;Box_Input -->
<g id="edge14" class="edge"><title>Box_IKeyEventListener&#45;&gt;Box_Input</title>
<path fill="none" stroke="midnightblue" d="M582.48,-454.273C595.754,-433.774 618.79,-398.202 642.143,-362.14"/>
<polygon fill="none" stroke="midnightblue" points="579.442,-452.524 576.945,-462.82 585.318,-456.329 579.442,-452.524"/>
</g>
<!-- Box_IKeyEventListener&#45;&gt;Box_KnotInputHandler -->
<g id="edge28" class="edge"><title>Box_IKeyEventListener&#45;&gt;Box_KnotInputHandler</title>
<path fill="none" stroke="midnightblue" d="M622.514,-467.649C682.906,-460.623 784.234,-442.7 859,-398 893.259,-377.518 924.213,-346.212 948.332,-317.242"/>
<polygon fill="none" stroke="midnightblue" points="622.011,-464.183 612.457,-468.761 622.781,-471.14 622.011,-464.183"/>
</g>
<!-- Box_IKeyEventListener&#45;&gt;Box_EdgeColoring -->
<g id="edge32" class="edge"><title>Box_IKeyEventListener&#45;&gt;Box_EdgeColoring</title>
<path fill="none" stroke="midnightblue" d="M519.659,-468.253C457.43,-461.769 351.202,-444.325 273,-398 228.247,-371.489 189.228,-326.393 163.652,-292.008"/>
<polygon fill="none" stroke="midnightblue" points="519.334,-471.738 529.63,-469.237 520.022,-464.772 519.334,-471.738"/>
</g>
<!-- Box_IKeyEventListener&#45;&gt;Box_PipeColoring -->
<g id="edge40" class="edge"><title>Box_IKeyEventListener&#45;&gt;Box_PipeColoring</title>
<path fill="none" stroke="midnightblue" d="M559.603,-454.28C537.414,-419.781 487.755,-342.571 455.355,-292.196"/>
<polygon fill="none" stroke="midnightblue" points="556.743,-456.303 565.096,-462.82 562.63,-452.516 556.743,-456.303"/>
</g>
</g>
</svg>
