<?xml version="1.0" encoding="UTF-8" standalone="no"?>
<!DOCTYPE svg PUBLIC "-//W3C//DTD SVG 1.1//EN"
 "http://www.w3.org/Graphics/SVG/1.1/DTD/svg11.dtd">
<!-- Generated by graphviz version 2.26.3 (20100126.1600)
 -->
<!-- Title: MenuItem Pages: 1 -->
<svg width="912pt" height="800pt"
 viewBox="0.00 0.00 912.00 800.00" xmlns="http://www.w3.org/2000/svg" xmlns:xlink="http://www.w3.org/1999/xlink">
<g id="graph1" class="graph" transform="scale(1 1) rotate(0) translate(4 796)">
<title>MenuItem</title>
<polygon fill="white" stroke="white" points="-4,5 -4,-796 909,-796 909,5 -4,5"/>
<!-- Box_MenuButton -->
<g id="node1" class="node"><title>Box_MenuButton</title>
<polygon fill="#fcfcda" stroke="black" points="230,-1 230,-55 586,-55 586,-1 230,-1"/>
<text text-anchor="middle" x="408" y="-43.8" font-family="Arial" font-size="8.00">MenuButton</text>
<polyline fill="none" stroke="black" points="230,-37 586,-37 "/>
<text text-anchor="middle" x="408" y="-25.8" font-family="Arial" font-size="8.00"> </text>
<polyline fill="none" stroke="black" points="230,-19 586,-19 "/>
<text text-anchor="start" x="238" y="-7.8" font-family="Arial" font-size="8.00">+ MenuButton (GameScreen screen, DisplayLayer drawOrder, int itemNum, MenuItemInfo info)</text>
</g>
<!-- Box_MenuItem -->
<g id="node2" class="node"><title>Box_MenuItem</title>
<polygon fill="#fcfcda" stroke="black" points="234.5,-93 234.5,-277 581.5,-277 581.5,-93 234.5,-93"/>
<text text-anchor="middle" x="408" y="-265.8" font-family="Arial" font-size="8.00">MenuItem</text>
<polyline fill="none" stroke="black" points="234.5,-259 581.5,-259 "/>
<text text-anchor="start" x="242.5" y="-247.8" font-family="Arial" font-size="8.00"># spriteBatch : SpriteBatch</text>
<text text-anchor="start" x="242.5" y="-237.8" font-family="Arial" font-size="8.00">+ IsMouseEventEnabled : bool</text>
<text text-anchor="start" x="242.5" y="-227.8" font-family="Arial" font-size="8.00">+ ValidKeys : List&lt;Keys&gt;</text>
<text text-anchor="start" x="242.5" y="-217.8" font-family="Arial" font-size="8.00">+ IsKeyEventEnabled : bool</text>
<text text-anchor="start" x="242.5" y="-207.8" font-family="Arial" font-size="8.00">+ Info : MenuItemInfo</text>
<polyline fill="none" stroke="black" points="234.5,-201 581.5,-201 "/>
<text text-anchor="start" x="242.5" y="-189.8" font-family="Arial" font-size="8.00">+ MenuItem (GameScreen screen, DisplayLayer drawOrder, int itemNum, MenuItemInfo info)</text>
<text text-anchor="start" x="242.5" y="-179.8" font-family="Arial" font-size="8.00">+ Collapse () virtual</text>
<text text-anchor="start" x="242.5" y="-169.8" font-family="Arial" font-size="8.00">+ OnKeyEvent (List&lt;Keys&gt; key, KeyEvent keyEvent, GameTime time)</text>
<text text-anchor="start" x="242.5" y="-159.8" font-family="Arial" font-size="8.00">+ OnLeftClick (Vector2 position, ClickState click, GameTime time)</text>
<text text-anchor="start" x="242.5" y="-149.8" font-family="Arial" font-size="8.00">+ OnRightClick (Vector2 position, ClickState click, GameTime time)</text>
<text text-anchor="start" x="242.5" y="-139.8" font-family="Arial" font-size="8.00">+ MinimumSize (SpriteFont font) : Vector2</text>
<text text-anchor="start" x="242.5" y="-129.8" font-family="Arial" font-size="8.00">+ TextPosition (SpriteFont font) : Vector2</text>
<text text-anchor="start" x="242.5" y="-119.8" font-family="Arial" font-size="8.00">+ TextPosition (SpriteFont font, Vector2 scale) : Vector2</text>
<text text-anchor="start" x="242.5" y="-109.8" font-family="Arial" font-size="8.00">+ Draw (GameTime time)</text>
<text text-anchor="start" x="242.5" y="-99.8" font-family="Arial" font-size="8.00">+ SetHovered (bool hovered)</text>
</g>
<!-- Box_MenuItem&#45;&gt;Box_MenuButton -->
<g id="edge2" class="edge"><title>Box_MenuItem&#45;&gt;Box_MenuButton</title>
<path fill="none" stroke="midnightblue" d="M408,-82.5882C408,-72.5758 408,-63.1372 408,-55.0144"/>
<polygon fill="none" stroke="midnightblue" points="404.5,-82.7643 408,-92.7643 411.5,-82.7644 404.5,-82.7643"/>
</g>
<!-- Box_IKeyEventListener -->
<g id="node3" class="node"><title>Box_IKeyEventListener</title>
<polygon fill="#dafcda" stroke="black" points="-0.5,-325 -0.5,-399 264.5,-399 264.5,-325 -0.5,-325"/>
<text text-anchor="middle" x="132" y="-387.8" font-family="Arial" font-size="8.00">IKeyEventListener</text>
<polyline fill="none" stroke="black" points="-0.5,-381 264.5,-381 "/>
<text text-anchor="start" x="7.5" y="-369.8" font-family="Arial" font-size="8.00">+ ValidKeys : List&lt;Keys&gt;</text>
<text text-anchor="start" x="7.5" y="-359.8" font-family="Arial" font-size="8.00">+ Index : DisplayLayer</text>
<text text-anchor="start" x="7.5" y="-349.8" font-family="Arial" font-size="8.00">+ IsKeyEventEnabled : bool</text>
<polyline fill="none" stroke="black" points="-0.5,-343 264.5,-343 "/>
<text text-anchor="start" x="7.5" y="-331.8" font-family="Arial" font-size="8.00">+ OnKeyEvent (List&lt;Keys&gt; key, KeyEvent keyEvent, GameTime time)</text>
</g>
<!-- Box_IKeyEventListener&#45;&gt;Box_MenuItem -->
<g id="edge8" class="edge"><title>Box_IKeyEventListener&#45;&gt;Box_MenuItem</title>
<path fill="none" stroke="midnightblue" d="M198.285,-319.491C218.365,-306.614 241.25,-291.938 264.346,-277.126"/>
<polygon fill="none" stroke="midnightblue" points="196.387,-316.55 189.859,-324.895 200.166,-322.443 196.387,-316.55"/>
</g>
<!-- Box_IMouseEventListener -->
<g id="node4" class="node"><title>Box_IMouseEventListener</title>
<polygon fill="#dafcda" stroke="black" points="282,-315 282,-409 534,-409 534,-315 282,-315"/>
<text text-anchor="middle" x="408" y="-397.8" font-family="Arial" font-size="8.00">IMouseEventListener</text>
<polyline fill="none" stroke="black" points="282,-391 534,-391 "/>
<text text-anchor="start" x="290" y="-379.8" font-family="Arial" font-size="8.00">+ Index : DisplayLayer</text>
<text text-anchor="start" x="290" y="-369.8" font-family="Arial" font-size="8.00">+ IsMouseEventEnabled : bool</text>
<polyline fill="none" stroke="black" points="282,-363 534,-363 "/>
<text text-anchor="start" x="290" y="-351.8" font-family="Arial" font-size="8.00">+ OnLeftClick (Vector2 position, ClickState click, GameTime time)</text>
<text text-anchor="start" x="290" y="-341.8" font-family="Arial" font-size="8.00">+ OnRightClick (Vector2 position, ClickState click, GameTime time)</text>
<text text-anchor="start" x="290" y="-331.8" font-family="Arial" font-size="8.00">+ SetHovered (bool hovered)</text>
<text text-anchor="start" x="290" y="-321.8" font-family="Arial" font-size="8.00">+ bounds () : Rectangle</text>
</g>
<!-- Box_IMouseEventListener&#45;&gt;Box_MenuItem -->
<g id="edge6" class="edge"><title>Box_IMouseEventListener&#45;&gt;Box_MenuItem</title>
<path fill="none" stroke="midnightblue" d="M408,-304.543C408,-295.801 408,-286.597 408,-277.337"/>
<polygon fill="none" stroke="midnightblue" points="404.5,-304.567 408,-314.567 411.5,-304.567 404.5,-304.567"/>
</g>
<!-- Box_ItemWidget -->
<g id="node5" class="node"><title>Box_ItemWidget</title>
<polygon fill="#fcfcda" stroke="black" points="552,-330 552,-394 896,-394 896,-330 552,-330"/>
<text text-anchor="middle" x="724" y="-382.8" font-family="Arial" font-size="8.00">ItemWidget</text>
<polyline fill="none" stroke="black" points="552,-376 896,-376 "/>
<text text-anchor="start" x="560" y="-364.8" font-family="Arial" font-size="8.00">+ ItemState : ItemState</text>
<text text-anchor="start" x="560" y="-354.8" font-family="Arial" font-size="8.00"># ItemNum : int</text>
<polyline fill="none" stroke="black" points="552,-348 896,-348 "/>
<text text-anchor="start" x="560" y="-336.8" font-family="Arial" font-size="8.00">+ ItemWidget (GameScreen screen, WidgetInfo info, DisplayLayer drawOrder, int itemNum)</text>
</g>
<!-- Box_ItemWidget&#45;&gt;Box_MenuItem -->
<g id="edge4" class="edge"><title>Box_ItemWidget&#45;&gt;Box_MenuItem</title>
<path fill="none" stroke="midnightblue" d="M657.731,-324.881C632.58,-310.793 602.685,-294.048 572.473,-277.126"/>
<polygon fill="none" stroke="midnightblue" points="656.34,-328.113 666.775,-329.947 659.761,-322.006 656.34,-328.113"/>
</g>
<!-- Box_Widget -->
<g id="node6" class="node"><title>Box_Widget</title>
<polygon fill="#fcfcda" stroke="black" points="582,-447 582,-521 866,-521 866,-447 582,-447"/>
<text text-anchor="middle" x="724" y="-509.8" font-family="Arial" font-size="8.00">Widget</text>
<polyline fill="none" stroke="black" points="582,-503 866,-503 "/>
<text text-anchor="start" x="590" y="-491.8" font-family="Arial" font-size="8.00">+ Info : WidgetInfo</text>
<text text-anchor="start" x="590" y="-481.8" font-family="Arial" font-size="8.00">+ IsVisible : bool virtual</text>
<polyline fill="none" stroke="black" points="582,-475 866,-475 "/>
<text text-anchor="start" x="590" y="-463.8" font-family="Arial" font-size="8.00">+ bounds () : Rectangle</text>
<text text-anchor="start" x="590" y="-453.8" font-family="Arial" font-size="8.00">+ Widget (GameScreen screen, WidgetInfo info, DisplayLayer drawOrder)</text>
</g>
<!-- Box_Widget&#45;&gt;Box_ItemWidget -->
<g id="edge10" class="edge"><title>Box_Widget&#45;&gt;Box_ItemWidget</title>
<path fill="none" stroke="midnightblue" d="M724,-436.6C724,-422.366 724,-407.091 724,-394.094"/>
<polygon fill="none" stroke="midnightblue" points="720.5,-436.733 724,-446.733 727.5,-436.733 720.5,-436.733"/>
</g>
<!-- Box_DrawableGameScreenComponent -->
<g id="node7" class="node"><title>Box_DrawableGameScreenComponent</title>
<polygon fill="#fcfcda" stroke="black" points="565.5,-559 565.5,-643 882.5,-643 882.5,-559 565.5,-559"/>
<text text-anchor="middle" x="724" y="-631.8" font-family="Arial" font-size="8.00">DrawableGameScreenComponent</text>
<polyline fill="none" stroke="black" points="565.5,-625 882.5,-625 "/>
<text text-anchor="start" x="573.5" y="-613.8" font-family="Arial" font-size="8.00">+ Index : DisplayLayer</text>
<text text-anchor="start" x="573.5" y="-603.8" font-family="Arial" font-size="8.00">&#45; _index : DisplayLayer</text>
<text text-anchor="start" x="573.5" y="-593.8" font-family="Arial" font-size="8.00">+ screen : GameScreen</text>
<polyline fill="none" stroke="black" points="565.5,-587 882.5,-587 "/>
<text text-anchor="start" x="573.5" y="-575.8" font-family="Arial" font-size="8.00">+ DrawableGameScreenComponent (GameScreen screen, DisplayLayer index)</text>
<text text-anchor="start" x="573.5" y="-565.8" font-family="Arial" font-size="8.00">+ SubComponents (GameTime time) : IEnumerable&lt;IGameScreenComponent&gt; virtual</text>
</g>
<!-- Box_DrawableGameScreenComponent&#45;&gt;Box_Widget -->
<g id="edge12" class="edge"><title>Box_DrawableGameScreenComponent&#45;&gt;Box_Widget</title>
<path fill="none" stroke="midnightblue" d="M724,-548.482C724,-539.258 724,-529.834 724,-521.14"/>
<polygon fill="none" stroke="midnightblue" points="720.5,-548.76 724,-558.76 727.5,-548.76 720.5,-548.76"/>
</g>
<!-- Box_IGameScreenComponent -->
<g id="node8" class="node"><title>Box_IGameScreenComponent</title>
<polygon fill="#dafcda" stroke="black" points="463.5,-681 463.5,-735 756.5,-735 756.5,-681 463.5,-681"/>
<text text-anchor="middle" x="610" y="-723.8" font-family="Arial" font-size="8.00">IGameScreenComponent</text>
<polyline fill="none" stroke="black" points="463.5,-717 756.5,-717 "/>
<text text-anchor="start" x="471.5" y="-705.8" font-family="Arial" font-size="8.00">+ Index : DisplayLayer</text>
<polyline fill="none" stroke="black" points="463.5,-699 756.5,-699 "/>
<text text-anchor="start" x="471.5" y="-687.8" font-family="Arial" font-size="8.00">+ SubComponents (GameTime time) : IEnumerable&lt;IGameScreenComponent&gt;</text>
</g>
<!-- Box_IGameScreenComponent&#45;&gt;Box_DrawableGameScreenComponent -->
<g id="edge16" class="edge"><title>Box_IGameScreenComponent&#45;&gt;Box_DrawableGameScreenComponent</title>
<path fill="none" stroke="midnightblue" d="M646.116,-674.102C656.502,-664.354 667.961,-653.598 678.821,-643.404"/>
<polygon fill="none" stroke="midnightblue" points="643.663,-671.604 638.767,-680.999 648.454,-676.708 643.663,-671.604"/>
</g>
<!-- Box_XnaDrawableGameComponent -->
<g id="node9" class="node"><title>Box_XnaDrawableGameComponent</title>
<polygon fill="#ffffff" stroke="black" points="774,-699 774,-717 904,-717 904,-699 774,-699"/>
<text text-anchor="middle" x="839" y="-705.8" font-family="Arial" font-size="8.00">Xna.DrawableGameComponent</text>
</g>
<!-- Box_XnaDrawableGameComponent&#45;&gt;Box_DrawableGameScreenComponent -->
<g id="edge14" class="edge"><title>Box_XnaDrawableGameComponent&#45;&gt;Box_DrawableGameScreenComponent</title>
<path fill="none" stroke="midnightblue" d="M821.824,-692.018C807.966,-679.124 787.815,-660.376 769.399,-643.241"/>
<polygon fill="none" stroke="midnightblue" points="819.49,-694.628 829.195,-698.877 824.258,-689.503 819.49,-694.628"/>
</g>
<!-- Box_XnaIGameComponent -->
<g id="node10" class="node"><title>Box_XnaIGameComponent</title>
<polygon fill="#ffffff" stroke="black" points="562,-773 562,-791 658,-791 658,-773 562,-773"/>
<text text-anchor="middle" x="610" y="-779.8" font-family="Arial" font-size="8.00">Xna.IGameComponent</text>
</g>
<!-- Box_XnaIGameComponent&#45;&gt;Box_IGameScreenComponent -->
<g id="edge18" class="edge"><title>Box_XnaIGameComponent&#45;&gt;Box_IGameScreenComponent</title>
<path fill="none" stroke="midnightblue" d="M610,-762.64C610,-754.2 610,-744.16 610,-735.004"/>
<polygon fill="none" stroke="midnightblue" points="606.5,-762.926 610,-772.926 613.5,-762.926 606.5,-762.926"/>
</g>
</g>
</svg>
