<?xml version="1.0" encoding="UTF-8" standalone="no"?>
<!DOCTYPE svg PUBLIC "-//W3C//DTD SVG 1.1//EN"
 "http://www.w3.org/Graphics/SVG/1.1/DTD/svg11.dtd">
<!-- Generated by graphviz version 2.26.3 (20100126.1600)
 -->
<!-- Title: MenuItem Pages: 1 -->
<svg width="1367pt" height="1025pt"
 viewBox="0.00 0.00 328.00 246.00" xmlns="http://www.w3.org/2000/svg" xmlns:xlink="http://www.w3.org/1999/xlink">
<g id="graph1" class="graph" transform="scale(4.16667 4.16667) rotate(0) translate(4 242)">
<title>MenuItem</title>
<polygon fill="white" stroke="white" points="-4,5 -4,-242 325,-242 325,5 -4,5"/>
<!-- Box_FileIO -->
<g id="node1" class="node"><title>Box_FileIO</title>
<polygon fill="#fcfcda" stroke="black" points="-0.5,-183 -0.5,-237 250.5,-237 250.5,-183 -0.5,-183"/>
<text text-anchor="middle" x="125" y="-225.8" font-family="Arial" font-size="8.00">FileIO</text>
<polyline fill="none" stroke="black" points="-0.5,-219 250.5,-219 "/>
<text text-anchor="start" x="7.5" y="-207.8" font-family="Arial" font-size="8.00"># Filename : string</text>
<polyline fill="none" stroke="black" points="-0.5,-201 250.5,-201 "/>
<text text-anchor="start" x="7.5" y="-189.8" font-family="Arial" font-size="8.00">+ ConvertToFilename (string humanReadableName) : string virtual</text>
</g>
<!-- Box_KnotFileIO -->
<g id="node2" class="node"><title>Box_KnotFileIO</title>
<polygon fill="#fcfcda" stroke="black" points="93.5,-1 93.5,-145 320.5,-145 320.5,-1 93.5,-1"/>
<text text-anchor="middle" x="207" y="-133.8" font-family="Arial" font-size="8.00">KnotFileIO</text>
<polyline fill="none" stroke="black" points="93.5,-127 320.5,-127 "/>
<text text-anchor="start" x="101.5" y="-115.8" font-family="Arial" font-size="8.00">+ CountEdges : int</text>
<text text-anchor="start" x="101.5" y="-105.8" font-family="Arial" font-size="8.00">+ Hash : string</text>
<text text-anchor="start" x="101.5" y="-95.8" font-family="Arial" font-size="8.00">+ Name : string</text>
<text text-anchor="start" x="101.5" y="-85.8" font-family="Arial" font-size="8.00">&#45; parser : KnotStringIO</text>
<text text-anchor="start" x="101.5" y="-75.8" font-family="Arial" font-size="8.00">+ Edges : IEnumerable&lt;Edge&gt;</text>
<text text-anchor="start" x="101.5" y="-65.8" font-family="Arial" font-size="8.00">+ FileExtensions : string[] static</text>
<polyline fill="none" stroke="black" points="93.5,-59 320.5,-59 "/>
<text text-anchor="start" x="101.5" y="-47.8" font-family="Arial" font-size="8.00">+ KnotFileIO (Knot knot)</text>
<text text-anchor="start" x="101.5" y="-37.8" font-family="Arial" font-size="8.00">+ Save (Knot knot)</text>
<text text-anchor="start" x="101.5" y="-27.8" font-family="Arial" font-size="8.00">+ KnotFileIO (string filename)</text>
<text text-anchor="start" x="101.5" y="-17.8" font-family="Arial" font-size="8.00">+ ConvertToFilename (string humanReadableName) : string</text>
<text text-anchor="start" x="101.5" y="-7.8" font-family="Arial" font-size="8.00">+ ToString () : string</text>
</g>
<!-- Box_FileIO&#45;&gt;Box_KnotFileIO -->
<g id="edge2" class="edge"><title>Box_FileIO&#45;&gt;Box_KnotFileIO</title>
<path fill="none" stroke="midnightblue" d="M146.373,-174.292C151.762,-165.288 157.743,-155.294 163.789,-145.194"/>
<polygon fill="none" stroke="midnightblue" points="143.333,-172.555 141.201,-182.933 149.34,-176.15 143.333,-172.555"/>
</g>
<!-- Box_IKnotIO -->
<g id="node3" class="node"><title>Box_IKnotIO</title>
<polygon fill="#ffffff" stroke="black" points="268,-201 268,-219 310,-219 310,-201 268,-201"/>
<text text-anchor="middle" x="289" y="-207.8" font-family="Arial" font-size="8.00">IKnotIO</text>
</g>
<!-- Box_IKnotIO&#45;&gt;Box_KnotFileIO -->
<g id="edge4" class="edge"><title>Box_IKnotIO&#45;&gt;Box_KnotFileIO</title>
<path fill="none" stroke="midnightblue" d="M278.158,-191.886C270.836,-179.652 260.642,-162.621 250.255,-145.267"/>
<polygon fill="none" stroke="midnightblue" points="275.225,-193.8 283.364,-200.583 281.231,-190.205 275.225,-193.8"/>
</g>
</g>
</svg>
