<?xml version="1.0" encoding="UTF-8" standalone="no"?>
<!DOCTYPE svg PUBLIC "-//W3C//DTD SVG 1.1//EN"
 "http://www.w3.org/Graphics/SVG/1.1/DTD/svg11.dtd">
<!-- Generated by graphviz version 2.26.3 (20100126.1600)
 -->
<!-- Title: MenuItem Pages: 1 -->
<svg width="558pt" height="514pt"
 viewBox="0.00 0.00 558.00 514.00" xmlns="http://www.w3.org/2000/svg" xmlns:xlink="http://www.w3.org/1999/xlink">
<g id="graph1" class="graph" transform="scale(1 1) rotate(0) translate(4 510)">
<title>MenuItem</title>
<polygon fill="white" stroke="white" points="-4,5 -4,-510 555,-510 555,5 -4,5"/>
<!-- Box_World -->
<g id="node1" class="node"><title>Box_World</title>
<polygon fill="#fcfcda" stroke="black" points="229.5,-1 229.5,-235 522.5,-235 522.5,-1 229.5,-1"/>
<text text-anchor="middle" x="376" y="-223.8" font-family="Arial" font-size="8.00">World</text>
<polyline fill="none" stroke="black" points="229.5,-217 522.5,-217 "/>
<text text-anchor="start" x="237.5" y="-205.8" font-family="Arial" font-size="8.00">&#45; currentEffect : IRenderEffect</text>
<text text-anchor="start" x="237.5" y="-195.8" font-family="Arial" font-size="8.00">&#45; _redraw : bool</text>
<text text-anchor="start" x="237.5" y="-185.8" font-family="Arial" font-size="8.00">+ SelectedObject : IGameObject</text>
<text text-anchor="start" x="237.5" y="-175.8" font-family="Arial" font-size="8.00">+ Objects : List&lt;IGameObject&gt;</text>
<text text-anchor="start" x="237.5" y="-165.8" font-family="Arial" font-size="8.00">+ Redraw : bool</text>
<text text-anchor="start" x="237.5" y="-155.8" font-family="Arial" font-size="8.00">&#45; _selectedObject : IGameObject</text>
<text text-anchor="start" x="237.5" y="-145.8" font-family="Arial" font-size="8.00">&#45; effects : List&lt;IRenderEffect&gt;</text>
<text text-anchor="start" x="237.5" y="-135.8" font-family="Arial" font-size="8.00">&#45; floor : TexturedRectangle</text>
<text text-anchor="start" x="237.5" y="-125.8" font-family="Arial" font-size="8.00">+ Camera : Camera</text>
<polyline fill="none" stroke="black" points="229.5,-119 522.5,-119 "/>
<text text-anchor="start" x="237.5" y="-107.8" font-family="Arial" font-size="8.00">+ SelectionChanged (o) : Action&lt;IGameObject&gt;</text>
<text text-anchor="start" x="237.5" y="-97.8" font-family="Arial" font-size="8.00">&#45; IEnumerable.GetEnumerator () : IEnumerator</text>
<text text-anchor="start" x="237.5" y="-87.8" font-family="Arial" font-size="8.00">+ World (GameScreen screen)</text>
<text text-anchor="start" x="237.5" y="-77.8" font-family="Arial" font-size="8.00">+ SelectedObjectDistance () : float</text>
<text text-anchor="start" x="237.5" y="-67.8" font-family="Arial" font-size="8.00">+ SubComponents (GameTime time) : IEnumerable&lt;IGameScreenComponent&gt;</text>
<text text-anchor="start" x="237.5" y="-57.8" font-family="Arial" font-size="8.00">+ Draw (GameTime time)</text>
<text text-anchor="start" x="237.5" y="-47.8" font-family="Arial" font-size="8.00">+ Update (GameTime time)</text>
<text text-anchor="start" x="237.5" y="-37.8" font-family="Arial" font-size="8.00">+ Add (IGameObject obj)</text>
<text text-anchor="start" x="237.5" y="-27.8" font-family="Arial" font-size="8.00">+ GetEnumerator () : IEnumerator&lt;IGameObject&gt;</text>
<text text-anchor="start" x="237.5" y="-17.8" font-family="Arial" font-size="8.00">+ Initialize ()</text>
<text text-anchor="start" x="237.5" y="-7.8" font-family="Arial" font-size="8.00">+ SelectObject (IGameObject obj, GameTime time)</text>
</g>
<!-- Box_DrawableGameScreenComponent -->
<g id="node2" class="node"><title>Box_DrawableGameScreenComponent</title>
<polygon fill="#fcfcda" stroke="black" points="101.5,-273 101.5,-357 418.5,-357 418.5,-273 101.5,-273"/>
<text text-anchor="middle" x="260" y="-345.8" font-family="Arial" font-size="8.00">DrawableGameScreenComponent</text>
<polyline fill="none" stroke="black" points="101.5,-339 418.5,-339 "/>
<text text-anchor="start" x="109.5" y="-327.8" font-family="Arial" font-size="8.00">+ Index : DisplayLayer</text>
<text text-anchor="start" x="109.5" y="-317.8" font-family="Arial" font-size="8.00">&#45; _index : DisplayLayer</text>
<text text-anchor="start" x="109.5" y="-307.8" font-family="Arial" font-size="8.00">+ screen : GameScreen</text>
<polyline fill="none" stroke="black" points="101.5,-301 418.5,-301 "/>
<text text-anchor="start" x="109.5" y="-289.8" font-family="Arial" font-size="8.00">+ DrawableGameScreenComponent (GameScreen screen, DisplayLayer index)</text>
<text text-anchor="start" x="109.5" y="-279.8" font-family="Arial" font-size="8.00">+ SubComponents (GameTime time) : IEnumerable&lt;IGameScreenComponent&gt; virtual</text>
</g>
<!-- Box_DrawableGameScreenComponent&#45;&gt;Box_World -->
<g id="edge2" class="edge"><title>Box_DrawableGameScreenComponent&#45;&gt;Box_World</title>
<path fill="none" stroke="midnightblue" d="M290.033,-263.996C295.326,-255.007 301.028,-245.324 306.886,-235.374"/>
<polygon fill="none" stroke="midnightblue" points="286.943,-262.346 284.885,-272.739 292.975,-265.897 286.943,-262.346"/>
</g>
<!-- Box_IGameScreenComponent -->
<g id="node3" class="node"><title>Box_IGameScreenComponent</title>
<polygon fill="#dafcda" stroke="black" points="-0.5,-395 -0.5,-449 292.5,-449 292.5,-395 -0.5,-395"/>
<text text-anchor="middle" x="146" y="-437.8" font-family="Arial" font-size="8.00">IGameScreenComponent</text>
<polyline fill="none" stroke="black" points="-0.5,-431 292.5,-431 "/>
<text text-anchor="start" x="7.5" y="-419.8" font-family="Arial" font-size="8.00">+ Index : DisplayLayer</text>
<polyline fill="none" stroke="black" points="-0.5,-413 292.5,-413 "/>
<text text-anchor="start" x="7.5" y="-401.8" font-family="Arial" font-size="8.00">+ SubComponents (GameTime time) : IEnumerable&lt;IGameScreenComponent&gt;</text>
</g>
<!-- Box_IGameScreenComponent&#45;&gt;Box_DrawableGameScreenComponent -->
<g id="edge8" class="edge"><title>Box_IGameScreenComponent&#45;&gt;Box_DrawableGameScreenComponent</title>
<path fill="none" stroke="midnightblue" d="M182.116,-388.102C192.502,-378.354 203.961,-367.598 214.821,-357.404"/>
<polygon fill="none" stroke="midnightblue" points="179.663,-385.604 174.767,-394.999 184.454,-390.708 179.663,-385.604"/>
</g>
<!-- Box_IEnumerable -->
<g id="node4" class="node"><title>Box_IEnumerable</title>
<polygon fill="#ffffff" stroke="black" points="435.5,-306 435.5,-324 550.5,-324 550.5,-306 435.5,-306"/>
<text text-anchor="middle" x="493" y="-312.8" font-family="Arial" font-size="8.00">IEnumerable&lt;IGameObject&gt;</text>
</g>
<!-- Box_IEnumerable&#45;&gt;Box_World -->
<g id="edge4" class="edge"><title>Box_IEnumerable&#45;&gt;Box_World</title>
<path fill="none" stroke="midnightblue" d="M482.388,-297.131C473.516,-282.194 460.025,-259.478 445.599,-235.188"/>
<polygon fill="none" stroke="midnightblue" points="479.398,-298.952 487.514,-305.763 485.417,-295.377 479.398,-298.952"/>
</g>
<!-- Box_XnaDrawableGameComponent -->
<g id="node5" class="node"><title>Box_XnaDrawableGameComponent</title>
<polygon fill="#ffffff" stroke="black" points="310,-413 310,-431 440,-431 440,-413 310,-413"/>
<text text-anchor="middle" x="375" y="-419.8" font-family="Arial" font-size="8.00">Xna.DrawableGameComponent</text>
</g>
<!-- Box_XnaDrawableGameComponent&#45;&gt;Box_DrawableGameScreenComponent -->
<g id="edge6" class="edge"><title>Box_XnaDrawableGameComponent&#45;&gt;Box_DrawableGameScreenComponent</title>
<path fill="none" stroke="midnightblue" d="M357.824,-406.018C343.966,-393.124 323.815,-374.376 305.399,-357.241"/>
<polygon fill="none" stroke="midnightblue" points="355.49,-408.628 365.195,-412.877 360.258,-403.503 355.49,-408.628"/>
</g>
<!-- Box_XnaIGameComponent -->
<g id="node6" class="node"><title>Box_XnaIGameComponent</title>
<polygon fill="#ffffff" stroke="black" points="98,-487 98,-505 194,-505 194,-487 98,-487"/>
<text text-anchor="middle" x="146" y="-493.8" font-family="Arial" font-size="8.00">Xna.IGameComponent</text>
</g>
<!-- Box_XnaIGameComponent&#45;&gt;Box_IGameScreenComponent -->
<g id="edge10" class="edge"><title>Box_XnaIGameComponent&#45;&gt;Box_IGameScreenComponent</title>
<path fill="none" stroke="midnightblue" d="M146,-476.64C146,-468.2 146,-458.16 146,-449.004"/>
<polygon fill="none" stroke="midnightblue" points="142.5,-476.926 146,-486.926 149.5,-476.926 142.5,-476.926"/>
</g>
</g>
</svg>
