<?xml version="1.0" encoding="UTF-8" standalone="no"?>
<!DOCTYPE svg PUBLIC "-//W3C//DTD SVG 1.1//EN"
 "http://www.w3.org/Graphics/SVG/1.1/DTD/svg11.dtd">
<!-- Generated by graphviz version 2.26.3 (20100126.1600)
 -->
<!-- Title: MenuItem Pages: 1 -->
<svg width="463pt" height="554pt"
 viewBox="0.00 0.00 463.00 554.00" xmlns="http://www.w3.org/2000/svg" xmlns:xlink="http://www.w3.org/1999/xlink">
<g id="graph1" class="graph" transform="scale(1 1) rotate(0) translate(4 550)">
<title>MenuItem</title>
<polygon fill="white" stroke="white" points="-4,5 -4,-550 460,-550 460,5 -4,5"/>
<!-- Box_IEdgeChangeListener -->
<g id="node1" class="node"><title>Box_IEdgeChangeListener</title>
<polygon fill="#dafcda" stroke="black" points="0,-473 0,-545 152,-545 152,-473 0,-473"/>
<text text-anchor="middle" x="76" y="-533.8" font-family="Helvetica,sans-Serif" font-size="8.00">IEdgeChangeListener</text>
<polyline fill="none" stroke="black" points="0,-525 152,-525 "/>
<text text-anchor="start" x="8" y="-513.8" font-family="Helvetica,sans-Serif" font-size="8.00">Attributes:</text>
<text text-anchor="start" x="8" y="-501.8" font-family="Helvetica,sans-Serif" font-size="8.00">Methods:</text>
<polyline fill="none" stroke="black" points="0,-493 152,-493 "/>
<text text-anchor="start" x="8" y="-481.8" font-family="Helvetica,sans-Serif" font-size="8.00">+ OnEdgesChanged (EdgeList edges)</text>
</g>
<!-- Box_KnotRenderer -->
<g id="node2" class="node"><title>Box_KnotRenderer</title>
<polygon fill="#fcfcda" stroke="black" points="35,-267 35,-435 241,-435 241,-267 35,-267"/>
<text text-anchor="middle" x="138" y="-423.8" font-family="Helvetica,sans-Serif" font-size="8.00">KnotRenderer</text>
<polyline fill="none" stroke="black" points="35,-415 241,-415 "/>
<text text-anchor="start" x="43" y="-403.8" font-family="Helvetica,sans-Serif" font-size="8.00">Attributes:</text>
<text text-anchor="start" x="43" y="-391.8" font-family="Helvetica,sans-Serif" font-size="8.00">+ World : World abstract</text>
<text text-anchor="start" x="43" y="-379.8" font-family="Helvetica,sans-Serif" font-size="8.00"># state : GameState</text>
<text text-anchor="start" x="43" y="-367.8" font-family="Helvetica,sans-Serif" font-size="8.00">+ Info : dynamic abstract</text>
<text text-anchor="start" x="43" y="-355.8" font-family="Helvetica,sans-Serif" font-size="8.00">Methods:</text>
<polyline fill="none" stroke="black" points="35,-347 241,-347 "/>
<text text-anchor="start" x="43" y="-335.8" font-family="Helvetica,sans-Serif" font-size="8.00">+ Intersects (Ray ray) : GameObjectDistance abstract</text>
<text text-anchor="start" x="43" y="-323.8" font-family="Helvetica,sans-Serif" font-size="8.00">+ Center () : Vector3 abstract</text>
<text text-anchor="start" x="43" y="-311.8" font-family="Helvetica,sans-Serif" font-size="8.00">+ Draw (GameTime gameTime) abstract</text>
<text text-anchor="start" x="43" y="-299.8" font-family="Helvetica,sans-Serif" font-size="8.00">+ Update (GameTime gameTime) abstract</text>
<text text-anchor="start" x="43" y="-287.8" font-family="Helvetica,sans-Serif" font-size="8.00">+ KnotRenderer (GameState state)</text>
<text text-anchor="start" x="43" y="-275.8" font-family="Helvetica,sans-Serif" font-size="8.00">+ OnEdgesChanged (EdgeList edges) abstract</text>
</g>
<!-- Box_IEdgeChangeListener&#45;&gt;Box_KnotRenderer -->
<g id="edge2" class="edge"><title>Box_IEdgeChangeListener&#45;&gt;Box_KnotRenderer</title>
<path fill="none" stroke="midnightblue" d="M93.915,-463.346C97.4259,-454.399 101.211,-444.753 105.036,-435.005"/>
<polygon fill="none" stroke="midnightblue" points="90.6189,-462.164 90.2241,-472.752 97.1351,-464.721 90.6189,-462.164"/>
</g>
<!-- Box_LineRenderer -->
<g id="node3" class="node"><title>Box_LineRenderer</title>
<polygon fill="#fcfcda" stroke="black" points="1,-19 1,-211 219,-211 219,-19 1,-19"/>
<text text-anchor="middle" x="110" y="-199.8" font-family="Helvetica,sans-Serif" font-size="8.00">LineRenderer</text>
<polyline fill="none" stroke="black" points="1,-191 219,-191 "/>
<text text-anchor="start" x="9" y="-179.8" font-family="Helvetica,sans-Serif" font-size="8.00">Attributes:</text>
<text text-anchor="start" x="9" y="-167.8" font-family="Helvetica,sans-Serif" font-size="8.00">&#45; edges : EdgeList</text>
<text text-anchor="start" x="9" y="-155.8" font-family="Helvetica,sans-Serif" font-size="8.00">&#45; basicEffect : BasicEffect</text>
<text text-anchor="start" x="9" y="-143.8" font-family="Helvetica,sans-Serif" font-size="8.00">+ World : World</text>
<text text-anchor="start" x="9" y="-131.8" font-family="Helvetica,sans-Serif" font-size="8.00">+ Info : dynamic</text>
<text text-anchor="start" x="9" y="-119.8" font-family="Helvetica,sans-Serif" font-size="8.00">Methods:</text>
<polyline fill="none" stroke="black" points="1,-111 219,-111 "/>
<text text-anchor="start" x="9" y="-99.8" font-family="Helvetica,sans-Serif" font-size="8.00">+ LineRenderer (GameState state, GameObjectInfo info)</text>
<text text-anchor="start" x="9" y="-87.8" font-family="Helvetica,sans-Serif" font-size="8.00">+ OnEdgesChanged (EdgeList edges)</text>
<text text-anchor="start" x="9" y="-75.8" font-family="Helvetica,sans-Serif" font-size="8.00">&#45; DrawRoundedLines ()</text>
<text text-anchor="start" x="9" y="-63.8" font-family="Helvetica,sans-Serif" font-size="8.00">+ Intersects (Ray ray) : GameObjectDistance</text>
<text text-anchor="start" x="9" y="-51.8" font-family="Helvetica,sans-Serif" font-size="8.00">+ Center () : Vector3</text>
<text text-anchor="start" x="9" y="-39.8" font-family="Helvetica,sans-Serif" font-size="8.00">+ Draw (GameTime gameTime)</text>
<text text-anchor="start" x="9" y="-27.8" font-family="Helvetica,sans-Serif" font-size="8.00">+ Update (GameTime gameTime)</text>
</g>
<!-- Box_KnotRenderer&#45;&gt;Box_LineRenderer -->
<g id="edge6" class="edge"><title>Box_KnotRenderer&#45;&gt;Box_LineRenderer</title>
<path fill="none" stroke="midnightblue" d="M126.796,-256.563C125.025,-241.64 123.192,-226.193 121.417,-211.23"/>
<polygon fill="none" stroke="midnightblue" points="123.356,-257.28 128.01,-266.798 130.307,-256.455 123.356,-257.28"/>
</g>
<!-- Box_PipeRenderer -->
<g id="node4" class="node"><title>Box_PipeRenderer</title>
<polygon fill="#fcfcda" stroke="black" points="236.5,-1 236.5,-229 455.5,-229 455.5,-1 236.5,-1"/>
<text text-anchor="middle" x="346" y="-217.8" font-family="Helvetica,sans-Serif" font-size="8.00">PipeRenderer</text>
<polyline fill="none" stroke="black" points="236.5,-209 455.5,-209 "/>
<text text-anchor="start" x="244.5" y="-197.8" font-family="Helvetica,sans-Serif" font-size="8.00">Attributes:</text>
<text text-anchor="start" x="244.5" y="-185.8" font-family="Helvetica,sans-Serif" font-size="8.00">&#45; knots : List&lt;NodeModel&gt;</text>
<text text-anchor="start" x="244.5" y="-173.8" font-family="Helvetica,sans-Serif" font-size="8.00">&#45; knotFactory : ModelFactory</text>
<text text-anchor="start" x="244.5" y="-161.8" font-family="Helvetica,sans-Serif" font-size="8.00">&#45; pipeFactory : ModelFactory</text>
<text text-anchor="start" x="244.5" y="-149.8" font-family="Helvetica,sans-Serif" font-size="8.00">&#45; pipes : List&lt;PipeModel&gt;</text>
<text text-anchor="start" x="244.5" y="-137.8" font-family="Helvetica,sans-Serif" font-size="8.00">+ World : World</text>
<text text-anchor="start" x="244.5" y="-125.8" font-family="Helvetica,sans-Serif" font-size="8.00">+ Info : dynamic</text>
<text text-anchor="start" x="244.5" y="-113.8" font-family="Helvetica,sans-Serif" font-size="8.00">Methods:</text>
<polyline fill="none" stroke="black" points="236.5,-105 455.5,-105 "/>
<text text-anchor="start" x="244.5" y="-93.8" font-family="Helvetica,sans-Serif" font-size="8.00">&#45; IEnumerable.GetEnumerator () : IEnumerator</text>
<text text-anchor="start" x="244.5" y="-81.8" font-family="Helvetica,sans-Serif" font-size="8.00">+ GetEnumerator () : IEnumerator&lt;IGameObject&gt;</text>
<text text-anchor="start" x="244.5" y="-69.8" font-family="Helvetica,sans-Serif" font-size="8.00">+ PipeRenderer (GameState state, GameObjectInfo info)</text>
<text text-anchor="start" x="244.5" y="-57.8" font-family="Helvetica,sans-Serif" font-size="8.00">+ Intersects (Ray ray) : GameObjectDistance</text>
<text text-anchor="start" x="244.5" y="-45.8" font-family="Helvetica,sans-Serif" font-size="8.00">+ Draw (GameTime gameTime)</text>
<text text-anchor="start" x="244.5" y="-33.8" font-family="Helvetica,sans-Serif" font-size="8.00">+ OnEdgesChanged (EdgeList edges)</text>
<text text-anchor="start" x="244.5" y="-21.8" font-family="Helvetica,sans-Serif" font-size="8.00">+ Center () : Vector3</text>
<text text-anchor="start" x="244.5" y="-9.8" font-family="Helvetica,sans-Serif" font-size="8.00">+ Update (GameTime gameTime)</text>
</g>
<!-- Box_KnotRenderer&#45;&gt;Box_PipeRenderer -->
<g id="edge8" class="edge"><title>Box_KnotRenderer&#45;&gt;Box_PipeRenderer</title>
<path fill="none" stroke="midnightblue" d="M219.061,-259.027C227.666,-249.263 236.492,-239.249 245.287,-229.271"/>
<polygon fill="none" stroke="midnightblue" points="216.198,-256.982 212.212,-266.798 221.45,-261.61 216.198,-256.982"/>
</g>
<!-- Box_IGameObject -->
<g id="node5" class="node"><title>Box_IGameObject</title>
<polygon fill="#ffffff" stroke="black" points="169.5,-499 169.5,-519 232.5,-519 232.5,-499 169.5,-499"/>
<text text-anchor="middle" x="201" y="-507.8" font-family="Helvetica,sans-Serif" font-size="8.00">IGameObject</text>
</g>
<!-- Box_IGameObject&#45;&gt;Box_KnotRenderer -->
<g id="edge4" class="edge"><title>Box_IGameObject&#45;&gt;Box_KnotRenderer</title>
<path fill="none" stroke="midnightblue" d="M193.095,-489.175C187.531,-475.22 179.666,-455.495 171.615,-435.305"/>
<polygon fill="none" stroke="midnightblue" points="189.911,-490.641 196.866,-498.633 196.414,-488.048 189.911,-490.641"/>
</g>
<!-- Box_IEnumerable -->
<g id="node6" class="node"><title>Box_IEnumerable</title>
<polygon fill="#ffffff" stroke="black" points="287,-341 287,-361 405,-361 405,-341 287,-341"/>
<text text-anchor="middle" x="346" y="-349.8" font-family="Helvetica,sans-Serif" font-size="8.00">IEnumerable&lt;IGameObject&gt;</text>
</g>
<!-- Box_IEnumerable&#45;&gt;Box_PipeRenderer -->
<g id="edge10" class="edge"><title>Box_IEnumerable&#45;&gt;Box_PipeRenderer</title>
<path fill="none" stroke="midnightblue" d="M346,-330.641C346,-307.541 346,-267.994 346,-229.025"/>
<polygon fill="none" stroke="midnightblue" points="342.5,-330.859 346,-340.859 349.5,-330.859 342.5,-330.859"/>
</g>
</g>
</svg>
