<?xml version="1.0" encoding="UTF-8" standalone="no"?>
<!DOCTYPE svg PUBLIC "-//W3C//DTD SVG 1.1//EN"
 "http://www.w3.org/Graphics/SVG/1.1/DTD/svg11.dtd">
<!-- Generated by graphviz version 2.26.3 (20100126.1600)
 -->
<!-- Title: MenuItem Pages: 1 -->
<svg width="631pt" height="650pt"
 viewBox="0.00 0.00 631.00 650.00" xmlns="http://www.w3.org/2000/svg" xmlns:xlink="http://www.w3.org/1999/xlink">
<g id="graph1" class="graph" transform="scale(1 1) rotate(0) translate(4 646)">
<title>MenuItem</title>
<polygon fill="white" stroke="white" points="-4,5 -4,-646 628,-646 628,5 -4,5"/>
<!-- Box_TextInput -->
<g id="node1" class="node"><title>Box_TextInput</title>
<polygon fill="#fcfcda" stroke="black" points="147,-1 147,-169 433,-169 433,-1 147,-1"/>
<text text-anchor="middle" x="290" y="-157.8" font-family="Helvetica,sans-Serif" font-size="8.00">TextInput</text>
<polyline fill="none" stroke="black" points="147,-149 433,-149 "/>
<text text-anchor="start" x="155" y="-137.8" font-family="Helvetica,sans-Serif" font-size="8.00">Attributes:</text>
<text text-anchor="start" x="155" y="-125.8" font-family="Helvetica,sans-Serif" font-size="8.00">&#45; font : SpriteFont</text>
<text text-anchor="start" x="155" y="-113.8" font-family="Helvetica,sans-Serif" font-size="8.00"># spriteBatch : SpriteBatch</text>
<text text-anchor="start" x="155" y="-101.8" font-family="Helvetica,sans-Serif" font-size="8.00">+ IsKeyEventEnabled : bool</text>
<text text-anchor="start" x="155" y="-89.8" font-family="Helvetica,sans-Serif" font-size="8.00">+ ValidKeys : List&lt;Keys&gt;</text>
<text text-anchor="start" x="155" y="-77.8" font-family="Helvetica,sans-Serif" font-size="8.00">+ InputText : string</text>
<text text-anchor="start" x="155" y="-65.8" font-family="Helvetica,sans-Serif" font-size="8.00">Methods:</text>
<polyline fill="none" stroke="black" points="147,-57 433,-57 "/>
<text text-anchor="start" x="155" y="-45.8" font-family="Helvetica,sans-Serif" font-size="8.00">+ TextInput (GameState state, WidgetInfo info, DisplayLayer drawOrder)</text>
<text text-anchor="start" x="155" y="-33.8" font-family="Helvetica,sans-Serif" font-size="8.00">+ Draw (GameTime gameTime)</text>
<text text-anchor="start" x="155" y="-21.8" font-family="Helvetica,sans-Serif" font-size="8.00">+ OnKeyEvent (List&lt;Keys&gt; key, KeyEvent keyEvent, GameTime gameTime)</text>
<text text-anchor="start" x="155" y="-9.8" font-family="Helvetica,sans-Serif" font-size="8.00">+ Update (GameTime gameTime)</text>
</g>
<!-- Box_IKeyEventListener -->
<g id="node2" class="node"><title>Box_IKeyEventListener</title>
<polygon fill="#dafcda" stroke="black" points="0,-207 0,-315 286,-315 286,-207 0,-207"/>
<text text-anchor="middle" x="143" y="-303.8" font-family="Helvetica,sans-Serif" font-size="8.00">IKeyEventListener</text>
<polyline fill="none" stroke="black" points="0,-295 286,-295 "/>
<text text-anchor="start" x="8" y="-283.8" font-family="Helvetica,sans-Serif" font-size="8.00">Attributes:</text>
<text text-anchor="start" x="8" y="-271.8" font-family="Helvetica,sans-Serif" font-size="8.00">+ ValidKeys : List&lt;Keys&gt;</text>
<text text-anchor="start" x="8" y="-259.8" font-family="Helvetica,sans-Serif" font-size="8.00">+ Index : int</text>
<text text-anchor="start" x="8" y="-247.8" font-family="Helvetica,sans-Serif" font-size="8.00">+ IsKeyEventEnabled : bool</text>
<text text-anchor="start" x="8" y="-235.8" font-family="Helvetica,sans-Serif" font-size="8.00">Methods:</text>
<polyline fill="none" stroke="black" points="0,-227 286,-227 "/>
<text text-anchor="start" x="8" y="-215.8" font-family="Helvetica,sans-Serif" font-size="8.00">+ OnKeyEvent (List&lt;Keys&gt; key, KeyEvent keyEvent, GameTime gameTime)</text>
</g>
<!-- Box_IKeyEventListener&#45;&gt;Box_TextInput -->
<g id="edge4" class="edge"><title>Box_IKeyEventListener&#45;&gt;Box_TextInput</title>
<path fill="none" stroke="midnightblue" d="M194.944,-198.808C202.965,-189.205 211.362,-179.151 219.704,-169.164"/>
<polygon fill="none" stroke="midnightblue" points="192.028,-196.839 188.304,-206.758 197.401,-201.327 192.028,-196.839"/>
</g>
<!-- Box_Widget -->
<g id="node3" class="node"><title>Box_Widget</title>
<polygon fill="#fcfcda" stroke="black" points="304,-207 304,-315 570,-315 570,-207 304,-207"/>
<text text-anchor="middle" x="437" y="-303.8" font-family="Helvetica,sans-Serif" font-size="8.00">Widget</text>
<polyline fill="none" stroke="black" points="304,-295 570,-295 "/>
<text text-anchor="start" x="312" y="-283.8" font-family="Helvetica,sans-Serif" font-size="8.00">Attributes:</text>
<text text-anchor="start" x="312" y="-271.8" font-family="Helvetica,sans-Serif" font-size="8.00">+ Info : WidgetInfo</text>
<text text-anchor="start" x="312" y="-259.8" font-family="Helvetica,sans-Serif" font-size="8.00">+ IsVisible : bool virtual</text>
<text text-anchor="start" x="312" y="-247.8" font-family="Helvetica,sans-Serif" font-size="8.00">Methods:</text>
<polyline fill="none" stroke="black" points="304,-239 570,-239 "/>
<text text-anchor="start" x="312" y="-227.8" font-family="Helvetica,sans-Serif" font-size="8.00">+ bounds () : Rectangle</text>
<text text-anchor="start" x="312" y="-215.8" font-family="Helvetica,sans-Serif" font-size="8.00">+ Widget (GameState state, WidgetInfo info, DisplayLayer drawOrder)</text>
</g>
<!-- Box_Widget&#45;&gt;Box_TextInput -->
<g id="edge2" class="edge"><title>Box_Widget&#45;&gt;Box_TextInput</title>
<path fill="none" stroke="midnightblue" d="M385.056,-198.808C377.035,-189.205 368.638,-179.151 360.296,-169.164"/>
<polygon fill="none" stroke="midnightblue" points="382.599,-201.327 391.696,-206.758 387.972,-196.839 382.599,-201.327"/>
</g>
<!-- Box_DrawableGameStateComponent -->
<g id="node4" class="node"><title>Box_DrawableGameStateComponent</title>
<polygon fill="#fcfcda" stroke="black" points="266.5,-353 266.5,-461 607.5,-461 607.5,-353 266.5,-353"/>
<text text-anchor="middle" x="437" y="-449.8" font-family="Helvetica,sans-Serif" font-size="8.00">DrawableGameStateComponent</text>
<polyline fill="none" stroke="black" points="266.5,-441 607.5,-441 "/>
<text text-anchor="start" x="274.5" y="-429.8" font-family="Helvetica,sans-Serif" font-size="8.00">Attributes:</text>
<text text-anchor="start" x="274.5" y="-417.8" font-family="Helvetica,sans-Serif" font-size="8.00">+ state : GameState</text>
<text text-anchor="start" x="274.5" y="-405.8" font-family="Helvetica,sans-Serif" font-size="8.00">+ Index : int</text>
<text text-anchor="start" x="274.5" y="-393.8" font-family="Helvetica,sans-Serif" font-size="8.00">Methods:</text>
<polyline fill="none" stroke="black" points="266.5,-385 607.5,-385 "/>
<text text-anchor="start" x="274.5" y="-373.8" font-family="Helvetica,sans-Serif" font-size="8.00">+ DrawableGameStateComponent (GameState state, DisplayLayer drawOrder)</text>
<text text-anchor="start" x="274.5" y="-361.8" font-family="Helvetica,sans-Serif" font-size="8.00">+ SubComponents (GameTime gameTime) : IEnumerable&lt;IGameStateComponent&gt; virtual</text>
</g>
<!-- Box_DrawableGameStateComponent&#45;&gt;Box_Widget -->
<g id="edge6" class="edge"><title>Box_DrawableGameStateComponent&#45;&gt;Box_Widget</title>
<path fill="none" stroke="midnightblue" d="M430.291,-342.523C430.204,-333.474 430.256,-324.248 430.448,-315.41"/>
<polygon fill="none" stroke="midnightblue" points="426.793,-342.691 430.449,-352.635 433.792,-342.581 426.793,-342.691"/>
</g>
<!-- Box_DrawableGameStateComponent&#45;&gt;Box_Widget -->
<g id="edge20" class="edge"><title>Box_DrawableGameStateComponent&#45;&gt;Box_Widget</title>
<path fill="none" stroke="midnightblue" d="M443.709,-342.523C443.796,-333.474 443.744,-324.248 443.552,-315.41"/>
<polygon fill="none" stroke="midnightblue" points="440.208,-342.581 443.551,-352.635 447.207,-342.691 440.208,-342.581"/>
</g>
<!-- Box_IGameStateComponent -->
<g id="node5" class="node"><title>Box_IGameStateComponent</title>
<polygon fill="#dafcda" stroke="black" points="157,-499 157,-583 475,-583 475,-499 157,-499"/>
<text text-anchor="middle" x="316" y="-571.8" font-family="Helvetica,sans-Serif" font-size="8.00">IGameStateComponent</text>
<polyline fill="none" stroke="black" points="157,-563 475,-563 "/>
<text text-anchor="start" x="165" y="-551.8" font-family="Helvetica,sans-Serif" font-size="8.00">Attributes:</text>
<text text-anchor="start" x="165" y="-539.8" font-family="Helvetica,sans-Serif" font-size="8.00">+ Index : int</text>
<text text-anchor="start" x="165" y="-527.8" font-family="Helvetica,sans-Serif" font-size="8.00">Methods:</text>
<polyline fill="none" stroke="black" points="157,-519 475,-519 "/>
<text text-anchor="start" x="165" y="-507.8" font-family="Helvetica,sans-Serif" font-size="8.00">+ SubComponents (GameTime gameTime) : IEnumerable&lt;IGameStateComponent&gt;</text>
</g>
<!-- Box_IGameStateComponent&#45;&gt;Box_DrawableGameStateComponent -->
<g id="edge24" class="edge"><title>Box_IGameStateComponent&#45;&gt;Box_DrawableGameStateComponent</title>
<path fill="none" stroke="midnightblue" d="M341.529,-490.953C349.61,-481.244 358.751,-471.027 368.148,-461.192"/>
<polygon fill="none" stroke="midnightblue" points="338.604,-489.003 335.009,-498.969 344.034,-493.42 338.604,-489.003"/>
</g>
<!-- Box_IGameStateComponent&#45;&gt;Box_DrawableGameStateComponent -->
<g id="edge30" class="edge"><title>Box_IGameStateComponent&#45;&gt;Box_DrawableGameStateComponent</title>
<path fill="none" stroke="midnightblue" d="M380.003,-491.825C389.748,-481.857 399.368,-471.322 407.983,-461.192"/>
<polygon fill="none" stroke="midnightblue" points="377.468,-489.411 372.898,-498.969 382.431,-494.347 377.468,-489.411"/>
</g>
<!-- Box_IGameStateComponent&#45;&gt;Box_DrawableGameStateComponent -->
<g id="edge10" class="edge"><title>Box_IGameStateComponent&#45;&gt;Box_DrawableGameStateComponent</title>
<path fill="none" stroke="midnightblue" d="M354.382,-491.244C362.992,-481.448 372.283,-471.125 381.426,-461.192"/>
<polygon fill="none" stroke="midnightblue" points="351.578,-489.134 347.638,-498.969 356.851,-493.737 351.578,-489.134"/>
</g>
<!-- Box_IGameStateComponent&#45;&gt;Box_DrawableGameStateComponent -->
<g id="edge16" class="edge"><title>Box_IGameStateComponent&#45;&gt;Box_DrawableGameStateComponent</title>
<path fill="none" stroke="midnightblue" d="M367.207,-491.535C376.371,-481.653 385.822,-471.224 394.705,-461.192"/>
<polygon fill="none" stroke="midnightblue" points="364.532,-489.27 360.268,-498.969 369.65,-494.047 364.532,-489.27"/>
</g>
<!-- Box_XnaDrawableGameComponent -->
<g id="node6" class="node"><title>Box_XnaDrawableGameComponent</title>
<polygon fill="#ffffff" stroke="black" points="492.5,-531 492.5,-551 623.5,-551 623.5,-531 492.5,-531"/>
<text text-anchor="middle" x="558" y="-539.8" font-family="Helvetica,sans-Serif" font-size="8.00">Xna.DrawableGameComponent</text>
</g>
<!-- Box_XnaDrawableGameComponent&#45;&gt;Box_DrawableGameStateComponent -->
<g id="edge22" class="edge"><title>Box_XnaDrawableGameComponent&#45;&gt;Box_DrawableGameStateComponent</title>
<path fill="none" stroke="midnightblue" d="M529.526,-524.736C509.943,-508.909 485.381,-483.97 465.948,-461.111"/>
<polygon fill="none" stroke="midnightblue" points="527.523,-527.61 537.585,-530.928 531.788,-522.06 527.523,-527.61"/>
</g>
<!-- Box_XnaDrawableGameComponent&#45;&gt;Box_DrawableGameStateComponent -->
<g id="edge28" class="edge"><title>Box_XnaDrawableGameComponent&#45;&gt;Box_DrawableGameStateComponent</title>
<path fill="none" stroke="midnightblue" d="M555.282,-521.664C545.537,-505.8 526.258,-482.541 505.774,-461.111"/>
<polygon fill="none" stroke="midnightblue" points="552.429,-523.754 560.226,-530.928 558.605,-520.458 552.429,-523.754"/>
</g>
<!-- Box_XnaDrawableGameComponent&#45;&gt;Box_DrawableGameStateComponent -->
<g id="edge8" class="edge"><title>Box_XnaDrawableGameComponent&#45;&gt;Box_DrawableGameStateComponent</title>
<path fill="none" stroke="midnightblue" d="M537.851,-523.879C521.835,-508.019 499.101,-483.562 479.223,-461.111"/>
<polygon fill="none" stroke="midnightblue" points="535.513,-526.487 545.132,-530.928 540.382,-521.458 535.513,-526.487"/>
</g>
<!-- Box_XnaDrawableGameComponent&#45;&gt;Box_DrawableGameStateComponent -->
<g id="edge14" class="edge"><title>Box_XnaDrawableGameComponent&#45;&gt;Box_DrawableGameStateComponent</title>
<path fill="none" stroke="midnightblue" d="M546.532,-523.006C533.823,-507.13 512.791,-483.153 492.499,-461.111"/>
<polygon fill="none" stroke="midnightblue" points="543.783,-525.173 552.679,-530.928 549.314,-520.882 543.783,-525.173"/>
</g>
<!-- Box_XnaIGameComponent -->
<g id="node7" class="node"><title>Box_XnaIGameComponent</title>
<polygon fill="#ffffff" stroke="black" points="266.5,-621 266.5,-641 365.5,-641 365.5,-621 266.5,-621"/>
<text text-anchor="middle" x="316" y="-629.8" font-family="Helvetica,sans-Serif" font-size="8.00">Xna.IGameComponent</text>
</g>
<!-- Box_XnaIGameComponent&#45;&gt;Box_IGameStateComponent -->
<g id="edge26" class="edge"><title>Box_XnaIGameComponent&#45;&gt;Box_IGameStateComponent</title>
<path fill="none" stroke="midnightblue" d="M298.911,-611.282C296.599,-603.052 295.555,-593.152 295.78,-583.414"/>
<polygon fill="none" stroke="midnightblue" points="295.666,-612.595 302.518,-620.676 302.201,-610.086 295.666,-612.595"/>
</g>
<!-- Box_XnaIGameComponent&#45;&gt;Box_IGameStateComponent -->
<g id="edge32" class="edge"><title>Box_XnaIGameComponent&#45;&gt;Box_IGameStateComponent</title>
<path fill="none" stroke="midnightblue" d="M333.089,-611.282C335.401,-603.052 336.445,-593.152 336.22,-583.414"/>
<polygon fill="none" stroke="midnightblue" points="329.799,-610.086 329.482,-620.676 336.334,-612.595 329.799,-610.086"/>
</g>
<!-- Box_XnaIGameComponent&#45;&gt;Box_IGameStateComponent -->
<g id="edge12" class="edge"><title>Box_XnaIGameComponent&#45;&gt;Box_IGameStateComponent</title>
<path fill="none" stroke="midnightblue" d="M310.253,-610.731C309.518,-602.612 309.187,-592.936 309.26,-583.414"/>
<polygon fill="none" stroke="midnightblue" points="306.783,-611.192 311.506,-620.676 313.728,-610.317 306.783,-611.192"/>
</g>
<!-- Box_XnaIGameComponent&#45;&gt;Box_IGameStateComponent -->
<g id="edge18" class="edge"><title>Box_XnaIGameComponent&#45;&gt;Box_IGameStateComponent</title>
<path fill="none" stroke="midnightblue" d="M321.747,-610.731C322.482,-602.612 322.813,-592.936 322.74,-583.414"/>
<polygon fill="none" stroke="midnightblue" points="318.272,-610.317 320.494,-620.676 325.217,-611.192 318.272,-610.317"/>
</g>
</g>
</svg>
