<?xml version="1.0" encoding="UTF-8" standalone="no"?>
<!DOCTYPE svg PUBLIC "-//W3C//DTD SVG 1.1//EN"
 "http://www.w3.org/Graphics/SVG/1.1/DTD/svg11.dtd">
<!-- Generated by graphviz version 2.26.3 (20100126.1600)
 -->
<!-- Title: MenuItem Pages: 1 -->
<svg width="619pt" height="746pt"
 viewBox="0.00 0.00 619.00 746.00" xmlns="http://www.w3.org/2000/svg" xmlns:xlink="http://www.w3.org/1999/xlink">
<g id="graph1" class="graph" transform="scale(1 1) rotate(0) translate(4 742)">
<title>MenuItem</title>
<polygon fill="white" stroke="white" points="-4,5 -4,-742 616,-742 616,5 -4,5"/>
<!-- Box_ColorPicker -->
<g id="node1" class="node"><title>Box_ColorPicker</title>
<polygon fill="#fcfcda" stroke="black" points="139.5,-1 139.5,-241 422.5,-241 422.5,-1 139.5,-1"/>
<text text-anchor="middle" x="281" y="-229.8" font-family="Helvetica,sans-Serif" font-size="8.00">ColorPicker</text>
<polyline fill="none" stroke="black" points="139.5,-221 422.5,-221 "/>
<text text-anchor="start" x="147.5" y="-209.8" font-family="Helvetica,sans-Serif" font-size="8.00">Attributes:</text>
<text text-anchor="start" x="147.5" y="-197.8" font-family="Helvetica,sans-Serif" font-size="8.00">&#45; colors : List&lt;Color&gt;</text>
<text text-anchor="start" x="147.5" y="-185.8" font-family="Helvetica,sans-Serif" font-size="8.00">&#45; tiles : List&lt;Vector2&gt;</text>
<text text-anchor="start" x="147.5" y="-173.8" font-family="Helvetica,sans-Serif" font-size="8.00">&#45; Vector2 tileSize : readonly static</text>
<text text-anchor="start" x="147.5" y="-161.8" font-family="Helvetica,sans-Serif" font-size="8.00">+ SelectedColor : Color</text>
<text text-anchor="start" x="147.5" y="-149.8" font-family="Helvetica,sans-Serif" font-size="8.00">+ OnSelectColor : Action&lt;Color&gt;</text>
<text text-anchor="start" x="147.5" y="-137.8" font-family="Helvetica,sans-Serif" font-size="8.00"># spriteBatch : SpriteBatch</text>
<text text-anchor="start" x="147.5" y="-125.8" font-family="Helvetica,sans-Serif" font-size="8.00">+ IsMouseEventEnabled : bool</text>
<text text-anchor="start" x="147.5" y="-113.8" font-family="Helvetica,sans-Serif" font-size="8.00">Methods:</text>
<polyline fill="none" stroke="black" points="139.5,-105 422.5,-105 "/>
<text text-anchor="start" x="147.5" y="-93.8" font-family="Helvetica,sans-Serif" font-size="8.00">+ ColorPicker (GameState state, WidgetInfo info, DisplayLayer drawOrder)</text>
<text text-anchor="start" x="147.5" y="-81.8" font-family="Helvetica,sans-Serif" font-size="8.00">+ Draw (GameTime gameTime) override</text>
<text text-anchor="start" x="147.5" y="-69.8" font-family="Helvetica,sans-Serif" font-size="8.00">&#45; CreateColors (int num) : IEnumerable&lt;Color&gt; static</text>
<text text-anchor="start" x="147.5" y="-57.8" font-family="Helvetica,sans-Serif" font-size="8.00">&#45; CreateTiles (IEnumerable&lt;Color&gt; _colors) : IEnumerable&lt;Vector2&gt; static</text>
<text text-anchor="start" x="147.5" y="-45.8" font-family="Helvetica,sans-Serif" font-size="8.00">&#45; SelectColor (Color color)</text>
<text text-anchor="start" x="147.5" y="-33.8" font-family="Helvetica,sans-Serif" font-size="8.00">+ OnLeftClick (Vector2 position, ClickState click, GameTime gameTime)</text>
<text text-anchor="start" x="147.5" y="-21.8" font-family="Helvetica,sans-Serif" font-size="8.00">+ OnRightClick (Vector2 position, ClickState click, GameTime gameTime)</text>
<text text-anchor="start" x="147.5" y="-9.8" font-family="Helvetica,sans-Serif" font-size="8.00">+ SetHovered (bool hovered)</text>
</g>
<!-- Box_IMouseEventListener -->
<g id="node2" class="node"><title>Box_IMouseEventListener</title>
<polygon fill="#dafcda" stroke="black" points="-0.5,-279 -0.5,-411 274.5,-411 274.5,-279 -0.5,-279"/>
<text text-anchor="middle" x="137" y="-399.8" font-family="Helvetica,sans-Serif" font-size="8.00">IMouseEventListener</text>
<polyline fill="none" stroke="black" points="-0.5,-391 274.5,-391 "/>
<text text-anchor="start" x="7.5" y="-379.8" font-family="Helvetica,sans-Serif" font-size="8.00">Attributes:</text>
<text text-anchor="start" x="7.5" y="-367.8" font-family="Helvetica,sans-Serif" font-size="8.00">+ Index : int</text>
<text text-anchor="start" x="7.5" y="-355.8" font-family="Helvetica,sans-Serif" font-size="8.00">+ IsMouseEventEnabled : bool</text>
<text text-anchor="start" x="7.5" y="-343.8" font-family="Helvetica,sans-Serif" font-size="8.00">Methods:</text>
<polyline fill="none" stroke="black" points="-0.5,-335 274.5,-335 "/>
<text text-anchor="start" x="7.5" y="-323.8" font-family="Helvetica,sans-Serif" font-size="8.00">+ OnLeftClick (Vector2 position, ClickState click, GameTime gameTime)</text>
<text text-anchor="start" x="7.5" y="-311.8" font-family="Helvetica,sans-Serif" font-size="8.00">+ OnRightClick (Vector2 position, ClickState click, GameTime gameTime)</text>
<text text-anchor="start" x="7.5" y="-299.8" font-family="Helvetica,sans-Serif" font-size="8.00">+ SetHovered (bool hovered)</text>
<text text-anchor="start" x="7.5" y="-287.8" font-family="Helvetica,sans-Serif" font-size="8.00">+ bounds () : Rectangle</text>
</g>
<!-- Box_IMouseEventListener&#45;&gt;Box_ColorPicker -->
<g id="edge4" class="edge"><title>Box_IMouseEventListener&#45;&gt;Box_ColorPicker</title>
<path fill="none" stroke="midnightblue" d="M185.067,-270.229C191.081,-260.874 197.346,-251.128 203.667,-241.296"/>
<polygon fill="none" stroke="midnightblue" points="182.084,-268.397 179.62,-278.702 187.972,-272.183 182.084,-268.397"/>
</g>
<!-- Box_Widget -->
<g id="node3" class="node"><title>Box_Widget</title>
<polygon fill="#fcfcda" stroke="black" points="292,-291 292,-399 558,-399 558,-291 292,-291"/>
<text text-anchor="middle" x="425" y="-387.8" font-family="Helvetica,sans-Serif" font-size="8.00">Widget</text>
<polyline fill="none" stroke="black" points="292,-379 558,-379 "/>
<text text-anchor="start" x="300" y="-367.8" font-family="Helvetica,sans-Serif" font-size="8.00">Attributes:</text>
<text text-anchor="start" x="300" y="-355.8" font-family="Helvetica,sans-Serif" font-size="8.00">+ Info : WidgetInfo</text>
<text text-anchor="start" x="300" y="-343.8" font-family="Helvetica,sans-Serif" font-size="8.00">+ IsVisible : bool virtual</text>
<text text-anchor="start" x="300" y="-331.8" font-family="Helvetica,sans-Serif" font-size="8.00">Methods:</text>
<polyline fill="none" stroke="black" points="292,-323 558,-323 "/>
<text text-anchor="start" x="300" y="-311.8" font-family="Helvetica,sans-Serif" font-size="8.00">+ Widget (GameState state, WidgetInfo info, DisplayLayer drawOrder)</text>
<text text-anchor="start" x="300" y="-299.8" font-family="Helvetica,sans-Serif" font-size="8.00">+ bounds () : Rectangle</text>
</g>
<!-- Box_Widget&#45;&gt;Box_ColorPicker -->
<g id="edge2" class="edge"><title>Box_Widget&#45;&gt;Box_ColorPicker</title>
<path fill="none" stroke="midnightblue" d="M384.539,-282.061C376.277,-269.208 367.324,-255.282 358.259,-241.181"/>
<polygon fill="none" stroke="midnightblue" points="381.79,-284.257 390.142,-290.776 387.678,-280.471 381.79,-284.257"/>
</g>
<!-- Box_DrawableGameStateComponent -->
<g id="node4" class="node"><title>Box_DrawableGameStateComponent</title>
<polygon fill="#fcfcda" stroke="black" points="254.5,-449 254.5,-557 595.5,-557 595.5,-449 254.5,-449"/>
<text text-anchor="middle" x="425" y="-545.8" font-family="Helvetica,sans-Serif" font-size="8.00">DrawableGameStateComponent</text>
<polyline fill="none" stroke="black" points="254.5,-537 595.5,-537 "/>
<text text-anchor="start" x="262.5" y="-525.8" font-family="Helvetica,sans-Serif" font-size="8.00">Attributes:</text>
<text text-anchor="start" x="262.5" y="-513.8" font-family="Helvetica,sans-Serif" font-size="8.00">+ state : GameState</text>
<text text-anchor="start" x="262.5" y="-501.8" font-family="Helvetica,sans-Serif" font-size="8.00">+ Index : int</text>
<text text-anchor="start" x="262.5" y="-489.8" font-family="Helvetica,sans-Serif" font-size="8.00">Methods:</text>
<polyline fill="none" stroke="black" points="254.5,-481 595.5,-481 "/>
<text text-anchor="start" x="262.5" y="-469.8" font-family="Helvetica,sans-Serif" font-size="8.00">+ DrawableGameStateComponent (GameState state, DisplayLayer drawOrder)</text>
<text text-anchor="start" x="262.5" y="-457.8" font-family="Helvetica,sans-Serif" font-size="8.00">+ SubComponents (GameTime gameTime) : IEnumerable&lt;IGameStateComponent&gt; virtual</text>
</g>
<!-- Box_DrawableGameStateComponent&#45;&gt;Box_Widget -->
<g id="edge6" class="edge"><title>Box_DrawableGameStateComponent&#45;&gt;Box_Widget</title>
<path fill="none" stroke="midnightblue" d="M425,-438.343C425,-425.343 425,-411.807 425,-399.207"/>
<polygon fill="none" stroke="midnightblue" points="421.5,-438.625 425,-448.625 428.5,-438.625 421.5,-438.625"/>
</g>
<!-- Box_IGameStateComponent -->
<g id="node5" class="node"><title>Box_IGameStateComponent</title>
<polygon fill="#dafcda" stroke="black" points="145,-595 145,-679 463,-679 463,-595 145,-595"/>
<text text-anchor="middle" x="304" y="-667.8" font-family="Helvetica,sans-Serif" font-size="8.00">IGameStateComponent</text>
<polyline fill="none" stroke="black" points="145,-659 463,-659 "/>
<text text-anchor="start" x="153" y="-647.8" font-family="Helvetica,sans-Serif" font-size="8.00">Attributes:</text>
<text text-anchor="start" x="153" y="-635.8" font-family="Helvetica,sans-Serif" font-size="8.00">+ Index : int</text>
<text text-anchor="start" x="153" y="-623.8" font-family="Helvetica,sans-Serif" font-size="8.00">Methods:</text>
<polyline fill="none" stroke="black" points="145,-615 463,-615 "/>
<text text-anchor="start" x="153" y="-603.8" font-family="Helvetica,sans-Serif" font-size="8.00">+ SubComponents (GameTime gameTime) : IEnumerable&lt;IGameStateComponent&gt;</text>
</g>
<!-- Box_IGameStateComponent&#45;&gt;Box_DrawableGameStateComponent -->
<g id="edge10" class="edge"><title>Box_IGameStateComponent&#45;&gt;Box_DrawableGameStateComponent</title>
<path fill="none" stroke="midnightblue" d="M348.666,-587.535C357.59,-577.653 367.007,-567.224 376.065,-557.192"/>
<polygon fill="none" stroke="midnightblue" points="346.057,-585.202 341.953,-594.969 351.253,-589.893 346.057,-585.202"/>
</g>
<!-- Box_XnaDrawableGameComponent -->
<g id="node6" class="node"><title>Box_XnaDrawableGameComponent</title>
<polygon fill="#ffffff" stroke="black" points="480.5,-627 480.5,-647 611.5,-647 611.5,-627 480.5,-627"/>
<text text-anchor="middle" x="546" y="-635.8" font-family="Helvetica,sans-Serif" font-size="8.00">Xna.DrawableGameComponent</text>
</g>
<!-- Box_XnaDrawableGameComponent&#45;&gt;Box_DrawableGameStateComponent -->
<g id="edge8" class="edge"><title>Box_XnaDrawableGameComponent&#45;&gt;Box_DrawableGameStateComponent</title>
<path fill="none" stroke="midnightblue" d="M530.148,-619.445C515.817,-603.574 493.95,-579.357 473.861,-557.111"/>
<polygon fill="none" stroke="midnightblue" points="527.606,-621.852 536.905,-626.928 532.801,-617.161 527.606,-621.852"/>
</g>
<!-- Box_XnaIGameComponent -->
<g id="node7" class="node"><title>Box_XnaIGameComponent</title>
<polygon fill="#ffffff" stroke="black" points="254.5,-717 254.5,-737 353.5,-737 353.5,-717 254.5,-717"/>
<text text-anchor="middle" x="304" y="-725.8" font-family="Helvetica,sans-Serif" font-size="8.00">Xna.IGameComponent</text>
</g>
<!-- Box_XnaIGameComponent&#45;&gt;Box_IGameStateComponent -->
<g id="edge12" class="edge"><title>Box_XnaIGameComponent&#45;&gt;Box_IGameStateComponent</title>
<path fill="none" stroke="midnightblue" d="M304,-706.454C304,-698.393 304,-688.828 304,-679.414"/>
<polygon fill="none" stroke="midnightblue" points="300.5,-706.676 304,-716.676 307.5,-706.676 300.5,-706.676"/>
</g>
</g>
</svg>
