<?xml version="1.0" encoding="UTF-8" standalone="no"?>
<!DOCTYPE svg PUBLIC "-//W3C//DTD SVG 1.1//EN"
 "http://www.w3.org/Graphics/SVG/1.1/DTD/svg11.dtd">
<!-- Generated by graphviz version 2.26.3 (20100126.1600)
 -->
<!-- Title: MenuItem Pages: 1 -->
<svg width="414pt" height="626pt"
 viewBox="0.00 0.00 414.00 626.00" xmlns="http://www.w3.org/2000/svg" xmlns:xlink="http://www.w3.org/1999/xlink">
<g id="graph1" class="graph" transform="scale(1 1) rotate(0) translate(4 622)">
<title>MenuItem</title>
<polygon fill="white" stroke="white" points="-4,5 -4,-622 411,-622 411,5 -4,5"/>
<!-- Box_PipeRenderer -->
<g id="node1" class="node"><title>Box_PipeRenderer</title>
<polygon fill="#fcfcda" stroke="black" points="147.5,-1 147.5,-229 366.5,-229 366.5,-1 147.5,-1"/>
<text text-anchor="middle" x="257" y="-217.8" font-family="Helvetica,sans-Serif" font-size="8.00">PipeRenderer</text>
<polyline fill="none" stroke="black" points="147.5,-209 366.5,-209 "/>
<text text-anchor="start" x="155.5" y="-197.8" font-family="Helvetica,sans-Serif" font-size="8.00">Attributes:</text>
<text text-anchor="start" x="155.5" y="-185.8" font-family="Helvetica,sans-Serif" font-size="8.00">&#45; nodes : List&lt;NodeModel&gt;</text>
<text text-anchor="start" x="155.5" y="-173.8" font-family="Helvetica,sans-Serif" font-size="8.00">&#45; nodeFactory : ModelFactory</text>
<text text-anchor="start" x="155.5" y="-161.8" font-family="Helvetica,sans-Serif" font-size="8.00">&#45; pipeFactory : ModelFactory</text>
<text text-anchor="start" x="155.5" y="-149.8" font-family="Helvetica,sans-Serif" font-size="8.00">&#45; pipes : List&lt;PipeModel&gt;</text>
<text text-anchor="start" x="155.5" y="-137.8" font-family="Helvetica,sans-Serif" font-size="8.00">+ Info : GameObjectInfo</text>
<text text-anchor="start" x="155.5" y="-125.8" font-family="Helvetica,sans-Serif" font-size="8.00">+ World : World</text>
<text text-anchor="start" x="155.5" y="-113.8" font-family="Helvetica,sans-Serif" font-size="8.00">Methods:</text>
<polyline fill="none" stroke="black" points="147.5,-105 366.5,-105 "/>
<text text-anchor="start" x="155.5" y="-93.8" font-family="Helvetica,sans-Serif" font-size="8.00">&#45; IEnumerable.GetEnumerator () : IEnumerator</text>
<text text-anchor="start" x="155.5" y="-81.8" font-family="Helvetica,sans-Serif" font-size="8.00">+ PipeRenderer (GameState state, GameObjectInfo info)</text>
<text text-anchor="start" x="155.5" y="-69.8" font-family="Helvetica,sans-Serif" font-size="8.00">+ Draw (GameTime gameTime)</text>
<text text-anchor="start" x="155.5" y="-57.8" font-family="Helvetica,sans-Serif" font-size="8.00">+ OnEdgesChanged (EdgeList edges)</text>
<text text-anchor="start" x="155.5" y="-45.8" font-family="Helvetica,sans-Serif" font-size="8.00">+ GetEnumerator () : IEnumerator&lt;IGameObject&gt;</text>
<text text-anchor="start" x="155.5" y="-33.8" font-family="Helvetica,sans-Serif" font-size="8.00">+ Intersects (Ray ray) : GameObjectDistance</text>
<text text-anchor="start" x="155.5" y="-21.8" font-family="Helvetica,sans-Serif" font-size="8.00">+ Center () : Vector3</text>
<text text-anchor="start" x="155.5" y="-9.8" font-family="Helvetica,sans-Serif" font-size="8.00">+ Update (GameTime gameTime)</text>
</g>
<!-- Box_KnotRenderer -->
<g id="node2" class="node"><title>Box_KnotRenderer</title>
<polygon fill="#fcfcda" stroke="black" points="64,-267 64,-447 270,-447 270,-267 64,-267"/>
<text text-anchor="middle" x="167" y="-435.8" font-family="Helvetica,sans-Serif" font-size="8.00">KnotRenderer</text>
<polyline fill="none" stroke="black" points="64,-427 270,-427 "/>
<text text-anchor="start" x="72" y="-415.8" font-family="Helvetica,sans-Serif" font-size="8.00">Attributes:</text>
<text text-anchor="start" x="72" y="-403.8" font-family="Helvetica,sans-Serif" font-size="8.00">+ World : World abstract</text>
<text text-anchor="start" x="72" y="-391.8" font-family="Helvetica,sans-Serif" font-size="8.00"># state : GameState</text>
<text text-anchor="start" x="72" y="-379.8" font-family="Helvetica,sans-Serif" font-size="8.00">+ Info : GameObjectInfo abstract</text>
<text text-anchor="start" x="72" y="-367.8" font-family="Helvetica,sans-Serif" font-size="8.00">Methods:</text>
<polyline fill="none" stroke="black" points="64,-359 270,-359 "/>
<text text-anchor="start" x="72" y="-347.8" font-family="Helvetica,sans-Serif" font-size="8.00"># nodeMap () : NodeMap</text>
<text text-anchor="start" x="72" y="-335.8" font-family="Helvetica,sans-Serif" font-size="8.00">+ Intersects (Ray ray) : GameObjectDistance abstract</text>
<text text-anchor="start" x="72" y="-323.8" font-family="Helvetica,sans-Serif" font-size="8.00">+ Center () : Vector3 abstract</text>
<text text-anchor="start" x="72" y="-311.8" font-family="Helvetica,sans-Serif" font-size="8.00">+ Draw (GameTime gameTime) abstract</text>
<text text-anchor="start" x="72" y="-299.8" font-family="Helvetica,sans-Serif" font-size="8.00">+ KnotRenderer (GameState state)</text>
<text text-anchor="start" x="72" y="-287.8" font-family="Helvetica,sans-Serif" font-size="8.00">+ Update (GameTime gameTime) abstract</text>
<text text-anchor="start" x="72" y="-275.8" font-family="Helvetica,sans-Serif" font-size="8.00">+ OnEdgesChanged (EdgeList edges) virtual</text>
</g>
<!-- Box_KnotRenderer&#45;&gt;Box_PipeRenderer -->
<g id="edge2" class="edge"><title>Box_KnotRenderer&#45;&gt;Box_PipeRenderer</title>
<path fill="none" stroke="midnightblue" d="M204.06,-257.349C207.49,-248.128 210.983,-238.735 214.456,-229.395"/>
<polygon fill="none" stroke="midnightblue" points="200.718,-256.295 200.513,-266.888 207.279,-258.735 200.718,-256.295"/>
</g>
<!-- Box_IEdgeChangeListener -->
<g id="node3" class="node"><title>Box_IEdgeChangeListener</title>
<polygon fill="#dafcda" stroke="black" points="0,-515 0,-587 152,-587 152,-515 0,-515"/>
<text text-anchor="middle" x="76" y="-575.8" font-family="Helvetica,sans-Serif" font-size="8.00">IEdgeChangeListener</text>
<polyline fill="none" stroke="black" points="0,-567 152,-567 "/>
<text text-anchor="start" x="8" y="-555.8" font-family="Helvetica,sans-Serif" font-size="8.00">Attributes:</text>
<text text-anchor="start" x="8" y="-543.8" font-family="Helvetica,sans-Serif" font-size="8.00">Methods:</text>
<polyline fill="none" stroke="black" points="0,-535 152,-535 "/>
<text text-anchor="start" x="8" y="-523.8" font-family="Helvetica,sans-Serif" font-size="8.00">+ OnEdgesChanged (EdgeList edges)</text>
</g>
<!-- Box_IEdgeChangeListener&#45;&gt;Box_KnotRenderer -->
<g id="edge6" class="edge"><title>Box_IEdgeChangeListener&#45;&gt;Box_KnotRenderer</title>
<path fill="none" stroke="midnightblue" d="M97.2926,-505.607C105.486,-488.139 115.157,-467.521 124.645,-447.294"/>
<polygon fill="none" stroke="midnightblue" points="93.9812,-504.425 92.9031,-514.965 100.319,-507.398 93.9812,-504.425"/>
</g>
<!-- Box_IGameObject -->
<g id="node4" class="node"><title>Box_IGameObject</title>
<polygon fill="#dafcda" stroke="black" points="170,-485 170,-617 346,-617 346,-485 170,-485"/>
<text text-anchor="middle" x="258" y="-605.8" font-family="Helvetica,sans-Serif" font-size="8.00">IGameObject</text>
<polyline fill="none" stroke="black" points="170,-597 346,-597 "/>
<text text-anchor="start" x="178" y="-585.8" font-family="Helvetica,sans-Serif" font-size="8.00">Attributes:</text>
<text text-anchor="start" x="178" y="-573.8" font-family="Helvetica,sans-Serif" font-size="8.00">+ Info : GameObjectInfo</text>
<text text-anchor="start" x="178" y="-561.8" font-family="Helvetica,sans-Serif" font-size="8.00">+ World : World</text>
<text text-anchor="start" x="178" y="-549.8" font-family="Helvetica,sans-Serif" font-size="8.00">Methods:</text>
<polyline fill="none" stroke="black" points="170,-541 346,-541 "/>
<text text-anchor="start" x="178" y="-529.8" font-family="Helvetica,sans-Serif" font-size="8.00">+ Draw (GameTime gameTime)</text>
<text text-anchor="start" x="178" y="-517.8" font-family="Helvetica,sans-Serif" font-size="8.00">+ Update (GameTime gameTime)</text>
<text text-anchor="start" x="178" y="-505.8" font-family="Helvetica,sans-Serif" font-size="8.00">+ Intersects (Ray ray) : GameObjectDistance</text>
<text text-anchor="start" x="178" y="-493.8" font-family="Helvetica,sans-Serif" font-size="8.00">+ Center () : Vector3</text>
</g>
<!-- Box_IGameObject&#45;&gt;Box_KnotRenderer -->
<g id="edge8" class="edge"><title>Box_IGameObject&#45;&gt;Box_KnotRenderer</title>
<path fill="none" stroke="midnightblue" d="M222.634,-475.603C218.28,-466.322 213.796,-456.763 209.352,-447.289"/>
<polygon fill="none" stroke="midnightblue" points="219.522,-477.212 226.937,-484.779 225.859,-474.239 219.522,-477.212"/>
</g>
<!-- Box_IEnumerable -->
<g id="node5" class="node"><title>Box_IEnumerable</title>
<polygon fill="#ffffff" stroke="black" points="288,-347 288,-367 406,-367 406,-347 288,-347"/>
<text text-anchor="middle" x="347" y="-355.8" font-family="Helvetica,sans-Serif" font-size="8.00">IEnumerable&lt;IGameObject&gt;</text>
</g>
<!-- Box_IEnumerable&#45;&gt;Box_PipeRenderer -->
<g id="edge4" class="edge"><title>Box_IEnumerable&#45;&gt;Box_PipeRenderer</title>
<path fill="none" stroke="midnightblue" d="M339.649,-337.235C330.709,-313.196 314.894,-270.672 299.476,-229.214"/>
<polygon fill="none" stroke="midnightblue" points="336.481,-338.757 343.247,-346.91 343.042,-336.317 336.481,-338.757"/>
</g>
</g>
</svg>
