<?xml version="1.0" encoding="UTF-8" standalone="no"?>
<!DOCTYPE svg PUBLIC "-//W3C//DTD SVG 1.1//EN"
 "http://www.w3.org/Graphics/SVG/1.1/DTD/svg11.dtd">
<!-- Generated by graphviz version 2.26.3 (20100126.1600)
 -->
<!-- Title: MenuItem Pages: 1 -->
<svg width="220pt" height="602pt"
 viewBox="0.00 0.00 220.00 602.00" xmlns="http://www.w3.org/2000/svg" xmlns:xlink="http://www.w3.org/1999/xlink">
<g id="graph1" class="graph" transform="scale(1 1) rotate(0) translate(4 598)">
<title>MenuItem</title>
<polygon fill="white" stroke="white" points="-4,5 -4,-598 217,-598 217,5 -4,5"/>
<!-- Box_NodeModel -->
<g id="node1" class="node"><title>Box_NodeModel</title>
<polygon fill="#fcfcda" stroke="black" points="2.5,-1 2.5,-97 209.5,-97 209.5,-1 2.5,-1"/>
<text text-anchor="middle" x="106" y="-85.8" font-family="Helvetica,sans-Serif" font-size="8.00">NodeModel</text>
<polyline fill="none" stroke="black" points="2.5,-77 209.5,-77 "/>
<text text-anchor="start" x="10.5" y="-65.8" font-family="Helvetica,sans-Serif" font-size="8.00">Attributes:</text>
<text text-anchor="start" x="10.5" y="-53.8" font-family="Helvetica,sans-Serif" font-size="8.00">+ Info : NodeModelInfo</text>
<text text-anchor="start" x="10.5" y="-41.8" font-family="Helvetica,sans-Serif" font-size="8.00">Methods:</text>
<polyline fill="none" stroke="black" points="2.5,-33 209.5,-33 "/>
<text text-anchor="start" x="10.5" y="-21.8" font-family="Helvetica,sans-Serif" font-size="8.00">+ NodeModel (GameState state, NodeModelInfo info)</text>
<text text-anchor="start" x="10.5" y="-9.8" font-family="Helvetica,sans-Serif" font-size="8.00">+ Draw (GameTime gameTime)</text>
</g>
<!-- Box_GameModel -->
<g id="node2" class="node"><title>Box_GameModel</title>
<polygon fill="#fcfcda" stroke="black" points="0,-135 0,-423 212,-423 212,-135 0,-135"/>
<text text-anchor="middle" x="106" y="-411.8" font-family="Helvetica,sans-Serif" font-size="8.00">GameModel</text>
<polyline fill="none" stroke="black" points="0,-403 212,-403 "/>
<text text-anchor="start" x="8" y="-391.8" font-family="Helvetica,sans-Serif" font-size="8.00">Attributes:</text>
<text text-anchor="start" x="8" y="-379.8" font-family="Helvetica,sans-Serif" font-size="8.00">&#45; _rotation : Angles3</text>
<text text-anchor="start" x="8" y="-367.8" font-family="Helvetica,sans-Serif" font-size="8.00">&#45; _worldMatrix : Matrix</text>
<text text-anchor="start" x="8" y="-355.8" font-family="Helvetica,sans-Serif" font-size="8.00">&#45; _position : Vector3</text>
<text text-anchor="start" x="8" y="-343.8" font-family="Helvetica,sans-Serif" font-size="8.00">+ BaseColor : Color</text>
<text text-anchor="start" x="8" y="-331.8" font-family="Helvetica,sans-Serif" font-size="8.00">+ HighlightColor : Color</text>
<text text-anchor="start" x="8" y="-319.8" font-family="Helvetica,sans-Serif" font-size="8.00">+ WorldMatrix : Matrix</text>
<text text-anchor="start" x="8" y="-307.8" font-family="Helvetica,sans-Serif" font-size="8.00">+ Info : dynamic</text>
<text text-anchor="start" x="8" y="-295.8" font-family="Helvetica,sans-Serif" font-size="8.00">+ Alpha : float</text>
<text text-anchor="start" x="8" y="-283.8" font-family="Helvetica,sans-Serif" font-size="8.00">+ HighlightIntensity : float</text>
<text text-anchor="start" x="8" y="-271.8" font-family="Helvetica,sans-Serif" font-size="8.00">&#45; _scale : float</text>
<text text-anchor="start" x="8" y="-259.8" font-family="Helvetica,sans-Serif" font-size="8.00"># state : GameState</text>
<text text-anchor="start" x="8" y="-247.8" font-family="Helvetica,sans-Serif" font-size="8.00">+ World : World</text>
<text text-anchor="start" x="8" y="-235.8" font-family="Helvetica,sans-Serif" font-size="8.00">+ Model : Model virtual</text>
<text text-anchor="start" x="8" y="-223.8" font-family="Helvetica,sans-Serif" font-size="8.00">Methods:</text>
<polyline fill="none" stroke="black" points="0,-215 212,-215 "/>
<text text-anchor="start" x="8" y="-203.8" font-family="Helvetica,sans-Serif" font-size="8.00">&#45; UpdateWorldMatrix ()</text>
<text text-anchor="start" x="8" y="-191.8" font-family="Helvetica,sans-Serif" font-size="8.00">+ GameModel (GameState state, GameModelInfo info)</text>
<text text-anchor="start" x="8" y="-179.8" font-family="Helvetica,sans-Serif" font-size="8.00">+ Intersects (Ray ray) : GameObjectDistance virtual</text>
<text text-anchor="start" x="8" y="-167.8" font-family="Helvetica,sans-Serif" font-size="8.00">+ Draw (GameTime gameTime) virtual</text>
<text text-anchor="start" x="8" y="-155.8" font-family="Helvetica,sans-Serif" font-size="8.00">+ Center () : Vector3</text>
<text text-anchor="start" x="8" y="-143.8" font-family="Helvetica,sans-Serif" font-size="8.00">+ Update (GameTime gameTime) virtual</text>
</g>
<!-- Box_GameModel&#45;&gt;Box_NodeModel -->
<g id="edge2" class="edge"><title>Box_GameModel&#45;&gt;Box_NodeModel</title>
<path fill="none" stroke="midnightblue" d="M106,-124.734C106,-115.044 106,-105.777 106,-97.2571"/>
<polygon fill="none" stroke="midnightblue" points="102.5,-124.971 106,-134.971 109.5,-124.971 102.5,-124.971"/>
</g>
<!-- Box_IGameObject -->
<g id="node3" class="node"><title>Box_IGameObject</title>
<polygon fill="#dafcda" stroke="black" points="18,-461 18,-593 194,-593 194,-461 18,-461"/>
<text text-anchor="middle" x="106" y="-581.8" font-family="Helvetica,sans-Serif" font-size="8.00">IGameObject</text>
<polyline fill="none" stroke="black" points="18,-573 194,-573 "/>
<text text-anchor="start" x="26" y="-561.8" font-family="Helvetica,sans-Serif" font-size="8.00">Attributes:</text>
<text text-anchor="start" x="26" y="-549.8" font-family="Helvetica,sans-Serif" font-size="8.00">+ Info : dynamic</text>
<text text-anchor="start" x="26" y="-537.8" font-family="Helvetica,sans-Serif" font-size="8.00">+ World : World</text>
<text text-anchor="start" x="26" y="-525.8" font-family="Helvetica,sans-Serif" font-size="8.00">Methods:</text>
<polyline fill="none" stroke="black" points="18,-517 194,-517 "/>
<text text-anchor="start" x="26" y="-505.8" font-family="Helvetica,sans-Serif" font-size="8.00">+ Draw (GameTime gameTime)</text>
<text text-anchor="start" x="26" y="-493.8" font-family="Helvetica,sans-Serif" font-size="8.00">+ Update (GameTime gameTime)</text>
<text text-anchor="start" x="26" y="-481.8" font-family="Helvetica,sans-Serif" font-size="8.00">+ Intersects (Ray ray) : GameObjectDistance</text>
<text text-anchor="start" x="26" y="-469.8" font-family="Helvetica,sans-Serif" font-size="8.00">+ Center () : Vector3</text>
</g>
<!-- Box_IGameObject&#45;&gt;Box_GameModel -->
<g id="edge4" class="edge"><title>Box_IGameObject&#45;&gt;Box_GameModel</title>
<path fill="none" stroke="midnightblue" d="M106,-450.739C106,-441.953 106,-432.79 106,-423.469"/>
<polygon fill="none" stroke="midnightblue" points="102.5,-450.866 106,-460.866 109.5,-450.866 102.5,-450.866"/>
</g>
</g>
</svg>
