<?xml version="1.0" encoding="UTF-8" standalone="no"?>
<!DOCTYPE svg PUBLIC "-//W3C//DTD SVG 1.1//EN"
 "http://www.w3.org/Graphics/SVG/1.1/DTD/svg11.dtd">
<!-- Generated by graphviz version 2.26.3 (20100126.1600)
 -->
<!-- Title: MenuItem Pages: 1 -->
<svg width="449pt" height="612pt"
 viewBox="0.00 0.00 449.00 612.00" xmlns="http://www.w3.org/2000/svg" xmlns:xlink="http://www.w3.org/1999/xlink">
<g id="graph1" class="graph" transform="scale(1 1) rotate(0) translate(4 608)">
<title>MenuItem</title>
<polygon fill="white" stroke="white" points="-4,5 -4,-608 446,-608 446,5 -4,5"/>
<!-- Box_GameStateComponent -->
<g id="node1" class="node"><title>Box_GameStateComponent</title>
<polygon fill="#fcfcda" stroke="black" points="100.5,-351 100.5,-447 441.5,-447 441.5,-351 100.5,-351"/>
<text text-anchor="middle" x="271" y="-435.8" font-family="Helvetica,sans-Serif" font-size="8.00">GameStateComponent</text>
<polyline fill="none" stroke="black" points="100.5,-427 441.5,-427 "/>
<text text-anchor="start" x="108.5" y="-415.8" font-family="Helvetica,sans-Serif" font-size="8.00"># InputOrder : DisplayLayer</text>
<text text-anchor="start" x="108.5" y="-403.8" font-family="Helvetica,sans-Serif" font-size="8.00">+ state : GameState</text>
<text text-anchor="start" x="108.5" y="-391.8" font-family="Helvetica,sans-Serif" font-size="8.00">+ Index : int</text>
<polyline fill="none" stroke="black" points="100.5,-383 441.5,-383 "/>
<text text-anchor="start" x="108.5" y="-371.8" font-family="Helvetica,sans-Serif" font-size="8.00">+ GameStateComponent (GameState state, DisplayLayer inputOrder)</text>
<text text-anchor="start" x="108.5" y="-359.8" font-family="Helvetica,sans-Serif" font-size="8.00">+ SubComponents (GameTime gameTime) : IEnumerable&lt;IGameStateComponent&gt; virtual</text>
</g>
<!-- Box_Camera -->
<g id="node3" class="node"><title>Box_Camera</title>
<polygon fill="#fcfcda" stroke="black" points="186,-1 186,-313 356,-313 356,-1 186,-1"/>
<text text-anchor="middle" x="271" y="-301.8" font-family="Helvetica,sans-Serif" font-size="8.00">Camera</text>
<polyline fill="none" stroke="black" points="186,-293 356,-293 "/>
<text text-anchor="start" x="194" y="-281.8" font-family="Helvetica,sans-Serif" font-size="8.00">&#45; World : World</text>
<text text-anchor="start" x="194" y="-269.8" font-family="Helvetica,sans-Serif" font-size="8.00">+ WorldMatrix : Matrix</text>
<text text-anchor="start" x="194" y="-257.8" font-family="Helvetica,sans-Serif" font-size="8.00">+ ViewMatrix : Matrix</text>
<text text-anchor="start" x="194" y="-245.8" font-family="Helvetica,sans-Serif" font-size="8.00">+ ProjectionMatrix : Matrix</text>
<text text-anchor="start" x="194" y="-233.8" font-family="Helvetica,sans-Serif" font-size="8.00">+ DefaultPosition : Vector3</text>
<text text-anchor="start" x="194" y="-221.8" font-family="Helvetica,sans-Serif" font-size="8.00">+ Position : Vector3</text>
<text text-anchor="start" x="194" y="-209.8" font-family="Helvetica,sans-Serif" font-size="8.00">+ Target : Vector3</text>
<text text-anchor="start" x="194" y="-197.8" font-family="Helvetica,sans-Serif" font-size="8.00">+ UpVector : Vector3</text>
<text text-anchor="start" x="194" y="-185.8" font-family="Helvetica,sans-Serif" font-size="8.00">&#45; foV : float</text>
<text text-anchor="start" x="194" y="-173.8" font-family="Helvetica,sans-Serif" font-size="8.00">+ FoV : float</text>
<text text-anchor="start" x="194" y="-161.8" font-family="Helvetica,sans-Serif" font-size="8.00">+ RotationAngle : Angles3</text>
<text text-anchor="start" x="194" y="-149.8" font-family="Helvetica,sans-Serif" font-size="8.00">&#45; AutoRotation : Angles3</text>
<text text-anchor="start" x="194" y="-137.8" font-family="Helvetica,sans-Serif" font-size="8.00">&#45; aspectRatio : float</text>
<text text-anchor="start" x="194" y="-125.8" font-family="Helvetica,sans-Serif" font-size="8.00">&#45; nearPlane : float</text>
<text text-anchor="start" x="194" y="-113.8" font-family="Helvetica,sans-Serif" font-size="8.00">&#45; farPlane : float</text>
<text text-anchor="start" x="194" y="-101.8" font-family="Helvetica,sans-Serif" font-size="8.00">+ TargetDistance : float</text>
<text text-anchor="start" x="194" y="-89.8" font-family="Helvetica,sans-Serif" font-size="8.00">+ TargetDirection : Vector3</text>
<text text-anchor="start" x="194" y="-77.8" font-family="Helvetica,sans-Serif" font-size="8.00">+ ArcballTarget : Vector3</text>
<polyline fill="none" stroke="black" points="186,-69 356,-69 "/>
<text text-anchor="start" x="194" y="-57.8" font-family="Helvetica,sans-Serif" font-size="8.00">+ Camera (GameState state, World world)</text>
<text text-anchor="start" x="194" y="-45.8" font-family="Helvetica,sans-Serif" font-size="8.00">+ Update (GameTime gameTime) override</text>
<text text-anchor="start" x="194" y="-33.8" font-family="Helvetica,sans-Serif" font-size="8.00">&#45; UpdateRotation (GameTime gameTime)</text>
<text text-anchor="start" x="194" y="-21.8" font-family="Helvetica,sans-Serif" font-size="8.00">&#45; UpdateMatrices (GameTime gameTime)</text>
<text text-anchor="start" x="194" y="-9.8" font-family="Helvetica,sans-Serif" font-size="8.00">+ GetMouseRay (Vector2 mouse) : Ray</text>
</g>
<!-- Box_GameStateComponent&#45;&gt;Box_Camera -->
<g id="edge8" class="edge"><title>Box_GameStateComponent&#45;&gt;Box_Camera</title>
<path fill="none" stroke="midnightblue" d="M271,-340.649C271,-331.99 271,-322.74 271,-313.168"/>
<polygon fill="none" stroke="midnightblue" points="267.5,-340.899 271,-350.899 274.5,-340.899 267.5,-340.899"/>
</g>
<!-- Box_IGameStateComponent -->
<g id="node2" class="node"><title>Box_IGameStateComponent</title>
<polygon fill="#dafcda" stroke="black" points="0,-485 0,-545 318,-545 318,-485 0,-485"/>
<text text-anchor="middle" x="159" y="-533.8" font-family="Helvetica,sans-Serif" font-size="8.00">IGameStateComponent</text>
<polyline fill="none" stroke="black" points="0,-525 318,-525 "/>
<text text-anchor="start" x="8" y="-513.8" font-family="Helvetica,sans-Serif" font-size="8.00">+ Index : int</text>
<polyline fill="none" stroke="black" points="0,-505 318,-505 "/>
<text text-anchor="start" x="8" y="-493.8" font-family="Helvetica,sans-Serif" font-size="8.00">+ SubComponents (GameTime gameTime) : IEnumerable&lt;IGameStateComponent&gt;</text>
</g>
<!-- Box_IGameStateComponent&#45;&gt;Box_GameStateComponent -->
<g id="edge4" class="edge"><title>Box_IGameStateComponent&#45;&gt;Box_GameStateComponent</title>
<path fill="none" stroke="midnightblue" d="M195.137,-477.572C204.541,-467.833 214.803,-457.204 224.655,-447.001"/>
<polygon fill="none" stroke="midnightblue" points="192.562,-475.2 188.134,-484.825 197.598,-480.062 192.562,-475.2"/>
</g>
<!-- Box_XnaGameComponent -->
<g id="node4" class="node"><title>Box_XnaGameComponent</title>
<polygon fill="#ffffff" stroke="black" points="335.5,-505 335.5,-525 432.5,-525 432.5,-505 335.5,-505"/>
<text text-anchor="middle" x="384" y="-513.8" font-family="Helvetica,sans-Serif" font-size="8.00">Xna.GameComponent</text>
</g>
<!-- Box_XnaGameComponent&#45;&gt;Box_GameStateComponent -->
<g id="edge2" class="edge"><title>Box_XnaGameComponent&#45;&gt;Box_GameStateComponent</title>
<path fill="none" stroke="midnightblue" d="M366.632,-497.171C353.618,-483.812 335.161,-464.865 317.928,-447.174"/>
<polygon fill="none" stroke="midnightblue" points="364.487,-499.985 373.972,-504.706 369.501,-495.1 364.487,-499.985"/>
</g>
<!-- Box_XnaIGameComponent -->
<g id="node5" class="node"><title>Box_XnaIGameComponent</title>
<polygon fill="#ffffff" stroke="black" points="109.5,-583 109.5,-603 208.5,-603 208.5,-583 109.5,-583"/>
<text text-anchor="middle" x="159" y="-591.8" font-family="Helvetica,sans-Serif" font-size="8.00">Xna.IGameComponent</text>
</g>
<!-- Box_XnaIGameComponent&#45;&gt;Box_IGameStateComponent -->
<g id="edge6" class="edge"><title>Box_XnaIGameComponent&#45;&gt;Box_IGameStateComponent</title>
<path fill="none" stroke="midnightblue" d="M159,-572.777C159,-564.329 159,-554.337 159,-545.059"/>
<polygon fill="none" stroke="midnightblue" points="155.5,-572.803 159,-582.803 162.5,-572.803 155.5,-572.803"/>
</g>
</g>
</svg>
