<?xml version="1.0" encoding="UTF-8" standalone="no"?>
<!DOCTYPE svg PUBLIC "-//W3C//DTD SVG 1.1//EN"
 "http://www.w3.org/Graphics/SVG/1.1/DTD/svg11.dtd">
<!-- Generated by graphviz version 2.26.3 (20100126.1600)
 -->
<!-- Title: MenuItem Pages: 1 -->
<svg width="1933pt" height="1475pt"
 viewBox="0.00 0.00 464.00 354.00" xmlns="http://www.w3.org/2000/svg" xmlns:xlink="http://www.w3.org/1999/xlink">
<g id="graph1" class="graph" transform="scale(4.16667 4.16667) rotate(0) translate(4 350)">
<title>MenuItem</title>
<polygon fill="white" stroke="white" points="-4,5 -4,-350 461,-350 461,5 -4,5"/>
<!-- Box_MousePointer -->
<g id="node1" class="node"><title>Box_MousePointer</title>
<polygon fill="#fcfcda" stroke="black" points="196.5,-1 196.5,-75 347.5,-75 347.5,-1 196.5,-1"/>
<text text-anchor="middle" x="272" y="-63.8" font-family="Arial" font-size="8.00">MousePointer</text>
<polyline fill="none" stroke="black" points="196.5,-57 347.5,-57 "/>
<text text-anchor="start" x="204.5" y="-45.8" font-family="Arial" font-size="8.00">&#45; spriteBatch : SpriteBatch</text>
<polyline fill="none" stroke="black" points="196.5,-39 347.5,-39 "/>
<text text-anchor="start" x="204.5" y="-27.8" font-family="Arial" font-size="8.00">+ MousePointer (GameState state)</text>
<text text-anchor="start" x="204.5" y="-17.8" font-family="Arial" font-size="8.00">&#45; DrawCursor (GameTime gameTime)</text>
<text text-anchor="start" x="204.5" y="-7.8" font-family="Arial" font-size="8.00">+ Draw (GameTime gameTime)</text>
</g>
<!-- Box_DrawableGameStateComponent -->
<g id="node2" class="node"><title>Box_DrawableGameStateComponent</title>
<polygon fill="#fcfcda" stroke="black" points="106,-113 106,-197 438,-197 438,-113 106,-113"/>
<text text-anchor="middle" x="272" y="-185.8" font-family="Arial" font-size="8.00">DrawableGameStateComponent</text>
<polyline fill="none" stroke="black" points="106,-179 438,-179 "/>
<text text-anchor="start" x="114" y="-167.8" font-family="Arial" font-size="8.00">+ Index : DisplayLayer</text>
<text text-anchor="start" x="114" y="-157.8" font-family="Arial" font-size="8.00">&#45; _index : DisplayLayer</text>
<text text-anchor="start" x="114" y="-147.8" font-family="Arial" font-size="8.00">+ state : GameState</text>
<polyline fill="none" stroke="black" points="106,-141 438,-141 "/>
<text text-anchor="start" x="114" y="-129.8" font-family="Arial" font-size="8.00">+ DrawableGameStateComponent (GameState state, DisplayLayer index)</text>
<text text-anchor="start" x="114" y="-119.8" font-family="Arial" font-size="8.00">+ SubComponents (GameTime gameTime) : IEnumerable&lt;IGameStateComponent&gt; virtual</text>
</g>
<!-- Box_DrawableGameStateComponent&#45;&gt;Box_MousePointer -->
<g id="edge2" class="edge"><title>Box_DrawableGameStateComponent&#45;&gt;Box_MousePointer</title>
<path fill="none" stroke="midnightblue" d="M272,-102.482C272,-93.2581 272,-83.8343 272,-75.1401"/>
<polygon fill="none" stroke="midnightblue" points="268.5,-102.76 272,-112.76 275.5,-102.76 268.5,-102.76"/>
</g>
<!-- Box_IGameStateComponent -->
<g id="node3" class="node"><title>Box_IGameStateComponent</title>
<polygon fill="#dafcda" stroke="black" points="0,-235 0,-289 308,-289 308,-235 0,-235"/>
<text text-anchor="middle" x="154" y="-277.8" font-family="Arial" font-size="8.00">IGameStateComponent</text>
<polyline fill="none" stroke="black" points="0,-271 308,-271 "/>
<text text-anchor="start" x="8" y="-259.8" font-family="Arial" font-size="8.00">+ Index : DisplayLayer</text>
<polyline fill="none" stroke="black" points="0,-253 308,-253 "/>
<text text-anchor="start" x="8" y="-241.8" font-family="Arial" font-size="8.00">+ SubComponents (GameTime gameTime) : IEnumerable&lt;IGameStateComponent&gt;</text>
</g>
<!-- Box_IGameStateComponent&#45;&gt;Box_DrawableGameStateComponent -->
<g id="edge6" class="edge"><title>Box_IGameStateComponent&#45;&gt;Box_DrawableGameStateComponent</title>
<path fill="none" stroke="midnightblue" d="M191.383,-228.102C202.133,-218.354 213.995,-207.598 225.236,-197.404"/>
<polygon fill="none" stroke="midnightblue" points="188.833,-225.689 183.776,-234.999 193.535,-230.875 188.833,-225.689"/>
</g>
<!-- Box_XnaDrawableGameComponent -->
<g id="node4" class="node"><title>Box_XnaDrawableGameComponent</title>
<polygon fill="#ffffff" stroke="black" points="326,-253 326,-271 456,-271 456,-253 326,-253"/>
<text text-anchor="middle" x="391" y="-259.8" font-family="Arial" font-size="8.00">Xna.DrawableGameComponent</text>
</g>
<!-- Box_XnaDrawableGameComponent&#45;&gt;Box_DrawableGameStateComponent -->
<g id="edge4" class="edge"><title>Box_XnaDrawableGameComponent&#45;&gt;Box_DrawableGameStateComponent</title>
<path fill="none" stroke="midnightblue" d="M373.226,-246.018C358.886,-233.124 338.035,-214.376 318.979,-197.241"/>
<polygon fill="none" stroke="midnightblue" points="371.078,-248.794 380.854,-252.877 375.758,-243.588 371.078,-248.794"/>
</g>
<!-- Box_XnaIGameComponent -->
<g id="node5" class="node"><title>Box_XnaIGameComponent</title>
<polygon fill="#ffffff" stroke="black" points="106,-327 106,-345 202,-345 202,-327 106,-327"/>
<text text-anchor="middle" x="154" y="-333.8" font-family="Arial" font-size="8.00">Xna.IGameComponent</text>
</g>
<!-- Box_XnaIGameComponent&#45;&gt;Box_IGameStateComponent -->
<g id="edge8" class="edge"><title>Box_XnaIGameComponent&#45;&gt;Box_IGameStateComponent</title>
<path fill="none" stroke="midnightblue" d="M154,-316.64C154,-308.2 154,-298.16 154,-289.004"/>
<polygon fill="none" stroke="midnightblue" points="150.5,-316.926 154,-326.926 157.5,-316.926 150.5,-316.926"/>
</g>
</g>
</svg>
