<?xml version="1.0" encoding="UTF-8" standalone="no"?>
<!DOCTYPE svg PUBLIC "-//W3C//DTD SVG 1.1//EN"
 "http://www.w3.org/Graphics/SVG/1.1/DTD/svg11.dtd">
<!-- Generated by graphviz version 2.26.3 (20100126.1600)
 -->
<!-- Title: MenuItem Pages: 1 -->
<svg width="1430pt" height="638pt"
 viewBox="0.00 0.00 1430.00 638.00" xmlns="http://www.w3.org/2000/svg" xmlns:xlink="http://www.w3.org/1999/xlink">
<g id="graph1" class="graph" transform="scale(1 1) rotate(0) translate(4 634)">
<title>MenuItem</title>
<polygon fill="white" stroke="white" points="-4,5 -4,-634 1427,-634 1427,5 -4,5"/>
<!-- Box_IRenderEffect -->
<g id="node1" class="node"><title>Box_IRenderEffect</title>
<polygon fill="#dafcda" stroke="black" points="598.5,-497 598.5,-629 823.5,-629 823.5,-497 598.5,-497"/>
<text text-anchor="middle" x="711" y="-617.8" font-family="Helvetica,sans-Serif" font-size="8.00">IRenderEffect</text>
<polyline fill="none" stroke="black" points="598.5,-609 823.5,-609 "/>
<text text-anchor="start" x="606.5" y="-597.8" font-family="Helvetica,sans-Serif" font-size="8.00">Attributes:</text>
<text text-anchor="start" x="606.5" y="-585.8" font-family="Helvetica,sans-Serif" font-size="8.00">+ RenderTarget : RenderTarget2D</text>
<text text-anchor="start" x="606.5" y="-573.8" font-family="Helvetica,sans-Serif" font-size="8.00">Methods:</text>
<polyline fill="none" stroke="black" points="598.5,-565 823.5,-565 "/>
<text text-anchor="start" x="606.5" y="-553.8" font-family="Helvetica,sans-Serif" font-size="8.00">+ Begin (GameTime gameTime)</text>
<text text-anchor="start" x="606.5" y="-541.8" font-family="Helvetica,sans-Serif" font-size="8.00">+ End (GameTime gameTime)</text>
<text text-anchor="start" x="606.5" y="-529.8" font-family="Helvetica,sans-Serif" font-size="8.00">+ RemapModel (Model model)</text>
<text text-anchor="start" x="606.5" y="-517.8" font-family="Helvetica,sans-Serif" font-size="8.00">+ DrawModel (GameModel model, GameTime gameTime)</text>
<text text-anchor="start" x="606.5" y="-505.8" font-family="Helvetica,sans-Serif" font-size="8.00">+ DrawLastFrame (GameTime gameTime)</text>
</g>
<!-- Box_RenderEffect -->
<g id="node2" class="node"><title>Box_RenderEffect</title>
<polygon fill="#fcfcda" stroke="black" points="560.5,-231 560.5,-459 861.5,-459 861.5,-231 560.5,-231"/>
<text text-anchor="middle" x="711" y="-447.8" font-family="Helvetica,sans-Serif" font-size="8.00">RenderEffect</text>
<polyline fill="none" stroke="black" points="560.5,-439 861.5,-439 "/>
<text text-anchor="start" x="568.5" y="-427.8" font-family="Helvetica,sans-Serif" font-size="8.00">Attributes:</text>
<text text-anchor="start" x="568.5" y="-415.8" font-family="Helvetica,sans-Serif" font-size="8.00">&#45; background : Color</text>
<text text-anchor="start" x="568.5" y="-403.8" font-family="Helvetica,sans-Serif" font-size="8.00">&#45; renderTarget : RenderTargetCache</text>
<text text-anchor="start" x="568.5" y="-391.8" font-family="Helvetica,sans-Serif" font-size="8.00">&#45; spriteBatch : SpriteBatch</text>
<text text-anchor="start" x="568.5" y="-379.8" font-family="Helvetica,sans-Serif" font-size="8.00"># state : GameState</text>
<text text-anchor="start" x="568.5" y="-367.8" font-family="Helvetica,sans-Serif" font-size="8.00">+ RenderTarget : RenderTarget2D</text>
<text text-anchor="start" x="568.5" y="-355.8" font-family="Helvetica,sans-Serif" font-size="8.00">Methods:</text>
<polyline fill="none" stroke="black" points="560.5,-347 861.5,-347 "/>
<text text-anchor="start" x="568.5" y="-335.8" font-family="Helvetica,sans-Serif" font-size="8.00"># DrawRenderTarget (SpriteBatch spriteBatch, GameTime gameTime) abstract</text>
<text text-anchor="start" x="568.5" y="-323.8" font-family="Helvetica,sans-Serif" font-size="8.00">+ RenderEffect (GameState state)</text>
<text text-anchor="start" x="568.5" y="-311.8" font-family="Helvetica,sans-Serif" font-size="8.00">+ DrawModel (GameModel model, GameTime gameTime) virtual</text>
<text text-anchor="start" x="568.5" y="-299.8" font-family="Helvetica,sans-Serif" font-size="8.00">+ RemapModel (Model model) virtual</text>
<text text-anchor="start" x="568.5" y="-287.8" font-family="Helvetica,sans-Serif" font-size="8.00">+ Begin (GameTime gameTime)</text>
<text text-anchor="start" x="568.5" y="-275.8" font-family="Helvetica,sans-Serif" font-size="8.00"># ModifyBasicEffect (BasicEffect effect, GameModel model)</text>
<text text-anchor="start" x="568.5" y="-263.8" font-family="Helvetica,sans-Serif" font-size="8.00">+ Begin (Color background, GameTime gameTime) virtual</text>
<text text-anchor="start" x="568.5" y="-251.8" font-family="Helvetica,sans-Serif" font-size="8.00">+ End (GameTime gameTime) virtual</text>
<text text-anchor="start" x="568.5" y="-239.8" font-family="Helvetica,sans-Serif" font-size="8.00">+ DrawLastFrame (GameTime gameTime)</text>
</g>
<!-- Box_IRenderEffect&#45;&gt;Box_RenderEffect -->
<g id="edge2" class="edge"><title>Box_IRenderEffect&#45;&gt;Box_RenderEffect</title>
<path fill="none" stroke="midnightblue" d="M711,-486.488C711,-477.649 711,-468.496 711,-459.293"/>
<polygon fill="none" stroke="midnightblue" points="707.5,-486.705 711,-496.705 714.5,-486.705 707.5,-486.705"/>
</g>
<!-- Box_BlurEffect -->
<g id="node3" class="node"><title>Box_BlurEffect</title>
<polygon fill="#fcfcda" stroke="black" points="0,-37 0,-157 270,-157 270,-37 0,-37"/>
<text text-anchor="middle" x="135" y="-145.8" font-family="Helvetica,sans-Serif" font-size="8.00">BlurEffect</text>
<polyline fill="none" stroke="black" points="0,-137 270,-137 "/>
<text text-anchor="start" x="8" y="-125.8" font-family="Helvetica,sans-Serif" font-size="8.00">Attributes:</text>
<text text-anchor="start" x="8" y="-113.8" font-family="Helvetica,sans-Serif" font-size="8.00">&#45; testEffect : Effect static</text>
<text text-anchor="start" x="8" y="-101.8" font-family="Helvetica,sans-Serif" font-size="8.00">Methods:</text>
<polyline fill="none" stroke="black" points="0,-93 270,-93 "/>
<text text-anchor="start" x="8" y="-81.8" font-family="Helvetica,sans-Serif" font-size="8.00">+ BlurEffect (GameState state)</text>
<text text-anchor="start" x="8" y="-69.8" font-family="Helvetica,sans-Serif" font-size="8.00"># DrawRenderTarget (SpriteBatch spriteBatch, GameTime gameTime)</text>
<text text-anchor="start" x="8" y="-57.8" font-family="Helvetica,sans-Serif" font-size="8.00">+ Begin (Color background, GameTime gameTime)</text>
<text text-anchor="start" x="8" y="-45.8" font-family="Helvetica,sans-Serif" font-size="8.00">+ End (GameTime gameTime)</text>
</g>
<!-- Box_RenderEffect&#45;&gt;Box_BlurEffect -->
<g id="edge4" class="edge"><title>Box_RenderEffect&#45;&gt;Box_BlurEffect</title>
<path fill="none" stroke="midnightblue" d="M550.648,-299.761C467.501,-273.636 365.517,-237.354 279,-194 257.98,-183.467 236.401,-170.347 216.555,-157.195"/>
<polygon fill="none" stroke="midnightblue" points="549.845,-303.177 560.434,-302.816 551.931,-296.495 549.845,-303.177"/>
</g>
<!-- Box_CelShadingEffect -->
<g id="node4" class="node"><title>Box_CelShadingEffect</title>
<polygon fill="#fcfcda" stroke="black" points="288,-1 288,-193 558,-193 558,-1 288,-1"/>
<text text-anchor="middle" x="423" y="-181.8" font-family="Helvetica,sans-Serif" font-size="8.00">CelShadingEffect</text>
<polyline fill="none" stroke="black" points="288,-173 558,-173 "/>
<text text-anchor="start" x="296" y="-161.8" font-family="Helvetica,sans-Serif" font-size="8.00">Attributes:</text>
<text text-anchor="start" x="296" y="-149.8" font-family="Helvetica,sans-Serif" font-size="8.00">&#45; outlineShader : Effect</text>
<text text-anchor="start" x="296" y="-137.8" font-family="Helvetica,sans-Serif" font-size="8.00">&#45; celMap : Texture2D</text>
<text text-anchor="start" x="296" y="-125.8" font-family="Helvetica,sans-Serif" font-size="8.00">&#45; lightDirection : Vector4</text>
<text text-anchor="start" x="296" y="-113.8" font-family="Helvetica,sans-Serif" font-size="8.00">&#45; outlineThickness : float</text>
<text text-anchor="start" x="296" y="-101.8" font-family="Helvetica,sans-Serif" font-size="8.00">&#45; outlineThreshold : float</text>
<text text-anchor="start" x="296" y="-89.8" font-family="Helvetica,sans-Serif" font-size="8.00">&#45; celShader : Effect</text>
<text text-anchor="start" x="296" y="-77.8" font-family="Helvetica,sans-Serif" font-size="8.00">+ Color : Color</text>
<text text-anchor="start" x="296" y="-65.8" font-family="Helvetica,sans-Serif" font-size="8.00">Methods:</text>
<polyline fill="none" stroke="black" points="288,-57 558,-57 "/>
<text text-anchor="start" x="296" y="-45.8" font-family="Helvetica,sans-Serif" font-size="8.00">+ CelShadingEffect (GameState state)</text>
<text text-anchor="start" x="296" y="-33.8" font-family="Helvetica,sans-Serif" font-size="8.00"># DrawRenderTarget (SpriteBatch spriteBatch, GameTime gameTime)</text>
<text text-anchor="start" x="296" y="-21.8" font-family="Helvetica,sans-Serif" font-size="8.00">+ DrawModel (GameModel model, GameTime gameTime)</text>
<text text-anchor="start" x="296" y="-9.8" font-family="Helvetica,sans-Serif" font-size="8.00">+ RemapModel (Model model)</text>
</g>
<!-- Box_RenderEffect&#45;&gt;Box_CelShadingEffect -->
<g id="edge6" class="edge"><title>Box_RenderEffect&#45;&gt;Box_CelShadingEffect</title>
<path fill="none" stroke="midnightblue" d="M570.49,-224.005C558.47,-213.655 546.419,-203.277 534.67,-193.16"/>
<polygon fill="none" stroke="midnightblue" points="568.519,-226.926 578.38,-230.8 573.086,-221.622 568.519,-226.926"/>
</g>
<!-- Box_FadeEffect -->
<g id="node5" class="node"><title>Box_FadeEffect</title>
<polygon fill="#fcfcda" stroke="black" points="576,-37 576,-157 846,-157 846,-37 576,-37"/>
<text text-anchor="middle" x="711" y="-145.8" font-family="Helvetica,sans-Serif" font-size="8.00">FadeEffect</text>
<polyline fill="none" stroke="black" points="576,-137 846,-137 "/>
<text text-anchor="start" x="584" y="-125.8" font-family="Helvetica,sans-Serif" font-size="8.00">Attributes:</text>
<text text-anchor="start" x="584" y="-113.8" font-family="Helvetica,sans-Serif" font-size="8.00">&#45; alpha : float</text>
<text text-anchor="start" x="584" y="-101.8" font-family="Helvetica,sans-Serif" font-size="8.00">&#45; lastFrame : RenderTarget2D</text>
<text text-anchor="start" x="584" y="-89.8" font-family="Helvetica,sans-Serif" font-size="8.00">+ IsFinished : bool</text>
<text text-anchor="start" x="584" y="-77.8" font-family="Helvetica,sans-Serif" font-size="8.00">Methods:</text>
<polyline fill="none" stroke="black" points="576,-69 846,-69 "/>
<text text-anchor="start" x="584" y="-57.8" font-family="Helvetica,sans-Serif" font-size="8.00"># DrawRenderTarget (SpriteBatch spriteBatch, GameTime gameTime)</text>
<text text-anchor="start" x="584" y="-45.8" font-family="Helvetica,sans-Serif" font-size="8.00">+ FadeEffect (GameState state, GameState oldState)</text>
</g>
<!-- Box_RenderEffect&#45;&gt;Box_FadeEffect -->
<g id="edge8" class="edge"><title>Box_RenderEffect&#45;&gt;Box_FadeEffect</title>
<path fill="none" stroke="midnightblue" d="M711,-220.65C711,-198.54 711,-176.446 711,-157.177"/>
<polygon fill="none" stroke="midnightblue" points="707.5,-220.799 711,-230.8 714.5,-220.8 707.5,-220.799"/>
</g>
<!-- Box_InstancingTest -->
<g id="node6" class="node"><title>Box_InstancingTest</title>
<polygon fill="#fcfcda" stroke="black" points="864,-25 864,-169 1134,-169 1134,-25 864,-25"/>
<text text-anchor="middle" x="999" y="-157.8" font-family="Helvetica,sans-Serif" font-size="8.00">InstancingTest</text>
<polyline fill="none" stroke="black" points="864,-149 1134,-149 "/>
<text text-anchor="start" x="872" y="-137.8" font-family="Helvetica,sans-Serif" font-size="8.00">Attributes:</text>
<text text-anchor="start" x="872" y="-125.8" font-family="Helvetica,sans-Serif" font-size="8.00">&#45; ModelInstances : class</text>
<text text-anchor="start" x="872" y="-113.8" font-family="Helvetica,sans-Serif" font-size="8.00">Methods:</text>
<polyline fill="none" stroke="black" points="864,-105 1134,-105 "/>
<text text-anchor="start" x="872" y="-93.8" font-family="Helvetica,sans-Serif" font-size="8.00">&#45; instanceHash () : Hashtable</text>
<text text-anchor="start" x="872" y="-81.8" font-family="Helvetica,sans-Serif" font-size="8.00">+ Begin (Color background, GameTime gameTime)</text>
<text text-anchor="start" x="872" y="-69.8" font-family="Helvetica,sans-Serif" font-size="8.00"># DrawRenderTarget (SpriteBatch spriteBatch, GameTime gameTime)</text>
<text text-anchor="start" x="872" y="-57.8" font-family="Helvetica,sans-Serif" font-size="8.00">+ InstancingTest (GameState state)</text>
<text text-anchor="start" x="872" y="-45.8" font-family="Helvetica,sans-Serif" font-size="8.00">+ DrawModel (GameModel model, GameTime gameTime)</text>
<text text-anchor="start" x="872" y="-33.8" font-family="Helvetica,sans-Serif" font-size="8.00">+ End (GameTime gameTime)</text>
</g>
<!-- Box_RenderEffect&#45;&gt;Box_InstancingTest -->
<g id="edge10" class="edge"><title>Box_RenderEffect&#45;&gt;Box_InstancingTest</title>
<path fill="none" stroke="midnightblue" d="M851.338,-224.153C873.183,-205.343 895.139,-186.436 915.196,-169.165"/>
<polygon fill="none" stroke="midnightblue" points="848.914,-221.622 843.62,-230.8 853.481,-226.926 848.914,-221.622"/>
</g>
<!-- Box_NoEffect -->
<g id="node7" class="node"><title>Box_NoEffect</title>
<polygon fill="#fcfcda" stroke="black" points="1152,-55 1152,-139 1422,-139 1422,-55 1152,-55"/>
<text text-anchor="middle" x="1287" y="-127.8" font-family="Helvetica,sans-Serif" font-size="8.00">NoEffect</text>
<polyline fill="none" stroke="black" points="1152,-119 1422,-119 "/>
<text text-anchor="start" x="1160" y="-107.8" font-family="Helvetica,sans-Serif" font-size="8.00">Attributes:</text>
<text text-anchor="start" x="1160" y="-95.8" font-family="Helvetica,sans-Serif" font-size="8.00">Methods:</text>
<polyline fill="none" stroke="black" points="1152,-87 1422,-87 "/>
<text text-anchor="start" x="1160" y="-75.8" font-family="Helvetica,sans-Serif" font-size="8.00"># DrawRenderTarget (SpriteBatch spriteBatch, GameTime gameTime)</text>
<text text-anchor="start" x="1160" y="-63.8" font-family="Helvetica,sans-Serif" font-size="8.00">+ NoEffect (GameState state)</text>
</g>
<!-- Box_RenderEffect&#45;&gt;Box_NoEffect -->
<g id="edge12" class="edge"><title>Box_RenderEffect&#45;&gt;Box_NoEffect</title>
<path fill="none" stroke="midnightblue" d="M871.352,-299.761C954.499,-273.636 1056.48,-237.354 1143,-194 1173.72,-178.605 1205.64,-157.686 1231.59,-139.216"/>
<polygon fill="none" stroke="midnightblue" points="870.069,-296.495 861.566,-302.816 872.155,-303.177 870.069,-296.495"/>
</g>
</g>
</svg>
