<?xml version="1.0" encoding="UTF-8" standalone="no"?>
<!DOCTYPE svg PUBLIC "-//W3C//DTD SVG 1.1//EN"
 "http://www.w3.org/Graphics/SVG/1.1/DTD/svg11.dtd">
<!-- Generated by graphviz version 2.26.3 (20100126.1600)
 -->
<!-- Title: MenuItem Pages: 1 -->
<svg width="1821pt" height="2392pt"
 viewBox="0.00 0.00 437.00 574.00" xmlns="http://www.w3.org/2000/svg" xmlns:xlink="http://www.w3.org/1999/xlink">
<g id="graph1" class="graph" transform="scale(4.16667 4.16667) rotate(0) translate(4 570)">
<title>MenuItem</title>
<polygon fill="white" stroke="white" points="-4,5 -4,-570 434,-570 434,5 -4,5"/>
<!-- Box_Camera -->
<g id="node1" class="node"><title>Box_Camera</title>
<polygon fill="#fcfcda" stroke="black" points="179,-1 179,-305 347,-305 347,-1 179,-1"/>
<text text-anchor="middle" x="263" y="-293.8" font-family="Arial" font-size="8.00">Camera</text>
<polyline fill="none" stroke="black" points="179,-287 347,-287 "/>
<text text-anchor="start" x="187" y="-275.8" font-family="Arial" font-size="8.00">&#45; AutoRotation : Angles3</text>
<text text-anchor="start" x="187" y="-265.8" font-family="Arial" font-size="8.00">&#45; _target : Vector3</text>
<text text-anchor="start" x="187" y="-255.8" font-family="Arial" font-size="8.00">&#45; aspectRatio : float</text>
<text text-anchor="start" x="187" y="-245.8" font-family="Arial" font-size="8.00">&#45; farPlane : float</text>
<text text-anchor="start" x="187" y="-235.8" font-family="Arial" font-size="8.00">&#45; nearPlane : float</text>
<text text-anchor="start" x="187" y="-225.8" font-family="Arial" font-size="8.00">+ Position : Vector3</text>
<text text-anchor="start" x="187" y="-215.8" font-family="Arial" font-size="8.00">+ Target : Vector3</text>
<text text-anchor="start" x="187" y="-205.8" font-family="Arial" font-size="8.00">+ TargetDirection : Vector3</text>
<text text-anchor="start" x="187" y="-195.8" font-family="Arial" font-size="8.00">+ UpVector : Vector3</text>
<text text-anchor="start" x="187" y="-185.8" font-family="Arial" font-size="8.00">+ FoV : float</text>
<text text-anchor="start" x="187" y="-175.8" font-family="Arial" font-size="8.00">&#45; World : World</text>
<text text-anchor="start" x="187" y="-165.8" font-family="Arial" font-size="8.00">&#45; _position : Vector3</text>
<text text-anchor="start" x="187" y="-155.8" font-family="Arial" font-size="8.00">&#45; foV : float</text>
<text text-anchor="start" x="187" y="-145.8" font-family="Arial" font-size="8.00">+ RotationAngle : Angles3</text>
<text text-anchor="start" x="187" y="-135.8" font-family="Arial" font-size="8.00">+ ViewFrustum : BoundingFrustum</text>
<text text-anchor="start" x="187" y="-125.8" font-family="Arial" font-size="8.00">+ ProjectionMatrix : Matrix</text>
<text text-anchor="start" x="187" y="-115.8" font-family="Arial" font-size="8.00">+ ViewMatrix : Matrix</text>
<text text-anchor="start" x="187" y="-105.8" font-family="Arial" font-size="8.00">+ WorldMatrix : Matrix</text>
<text text-anchor="start" x="187" y="-95.8" font-family="Arial" font-size="8.00">+ ArcballTarget : Vector3</text>
<text text-anchor="start" x="187" y="-85.8" font-family="Arial" font-size="8.00">+ DefaultPosition : Vector3</text>
<text text-anchor="start" x="187" y="-75.8" font-family="Arial" font-size="8.00">+ TargetDistance : float</text>
<polyline fill="none" stroke="black" points="179,-69 347,-69 "/>
<text text-anchor="start" x="187" y="-57.8" font-family="Arial" font-size="8.00">+ OnViewChanged () : Action</text>
<text text-anchor="start" x="187" y="-47.8" font-family="Arial" font-size="8.00">+ Camera (GameState state, World world)</text>
<text text-anchor="start" x="187" y="-37.8" font-family="Arial" font-size="8.00">+ GetMouseRay (Vector2 mouse) : Ray</text>
<text text-anchor="start" x="187" y="-27.8" font-family="Arial" font-size="8.00">&#45; UpdateMatrices (GameTime gameTime)</text>
<text text-anchor="start" x="187" y="-17.8" font-family="Arial" font-size="8.00">&#45; UpdateRotation (GameTime gameTime)</text>
<text text-anchor="start" x="187" y="-7.8" font-family="Arial" font-size="8.00">+ Update (GameTime gameTime)</text>
</g>
<!-- Box_GameStateComponent -->
<g id="node2" class="node"><title>Box_GameStateComponent</title>
<polygon fill="#fcfcda" stroke="black" points="97,-343 97,-417 429,-417 429,-343 97,-343"/>
<text text-anchor="middle" x="263" y="-405.8" font-family="Arial" font-size="8.00">GameStateComponent</text>
<polyline fill="none" stroke="black" points="97,-399 429,-399 "/>
<text text-anchor="start" x="105" y="-387.8" font-family="Arial" font-size="8.00">+ Index : DisplayLayer</text>
<text text-anchor="start" x="105" y="-377.8" font-family="Arial" font-size="8.00">+ state : GameState</text>
<polyline fill="none" stroke="black" points="97,-371 429,-371 "/>
<text text-anchor="start" x="105" y="-359.8" font-family="Arial" font-size="8.00">+ GameStateComponent (GameState state, DisplayLayer index)</text>
<text text-anchor="start" x="105" y="-349.8" font-family="Arial" font-size="8.00">+ SubComponents (GameTime gameTime) : IEnumerable&lt;IGameStateComponent&gt; virtual</text>
</g>
<!-- Box_GameStateComponent&#45;&gt;Box_Camera -->
<g id="edge2" class="edge"><title>Box_GameStateComponent&#45;&gt;Box_Camera</title>
<path fill="none" stroke="midnightblue" d="M263,-332.743C263,-324.189 263,-314.864 263,-305.107"/>
<polygon fill="none" stroke="midnightblue" points="259.5,-332.77 263,-342.77 266.5,-332.77 259.5,-332.77"/>
</g>
<!-- Box_IGameStateComponent -->
<g id="node3" class="node"><title>Box_IGameStateComponent</title>
<polygon fill="#dafcda" stroke="black" points="0,-455 0,-509 308,-509 308,-455 0,-455"/>
<text text-anchor="middle" x="154" y="-497.8" font-family="Arial" font-size="8.00">IGameStateComponent</text>
<polyline fill="none" stroke="black" points="0,-491 308,-491 "/>
<text text-anchor="start" x="8" y="-479.8" font-family="Arial" font-size="8.00">+ Index : DisplayLayer</text>
<polyline fill="none" stroke="black" points="0,-473 308,-473 "/>
<text text-anchor="start" x="8" y="-461.8" font-family="Arial" font-size="8.00">+ SubComponents (GameTime gameTime) : IEnumerable&lt;IGameStateComponent&gt;</text>
</g>
<!-- Box_IGameStateComponent&#45;&gt;Box_GameStateComponent -->
<g id="edge6" class="edge"><title>Box_IGameStateComponent&#45;&gt;Box_GameStateComponent</title>
<path fill="none" stroke="midnightblue" d="M190.4,-447.937C200.952,-438.063 212.526,-427.233 223.27,-417.178"/>
<polygon fill="none" stroke="midnightblue" points="187.834,-445.545 182.924,-454.934 192.617,-450.656 187.834,-445.545"/>
</g>
<!-- Box_XnaGameComponent -->
<g id="node4" class="node"><title>Box_XnaGameComponent</title>
<polygon fill="#ffffff" stroke="black" points="325.5,-473 325.5,-491 420.5,-491 420.5,-473 325.5,-473"/>
<text text-anchor="middle" x="373" y="-479.8" font-family="Arial" font-size="8.00">Xna.GameComponent</text>
</g>
<!-- Box_XnaGameComponent&#45;&gt;Box_GameStateComponent -->
<g id="edge4" class="edge"><title>Box_XnaGameComponent&#45;&gt;Box_GameStateComponent</title>
<path fill="none" stroke="midnightblue" d="M355.743,-465.998C341.646,-452.926 321.159,-433.929 303.024,-417.113"/>
<polygon fill="none" stroke="midnightblue" points="353.526,-468.715 363.238,-472.948 358.285,-463.582 353.526,-468.715"/>
</g>
<!-- Box_XnaIGameComponent -->
<g id="node5" class="node"><title>Box_XnaIGameComponent</title>
<polygon fill="#ffffff" stroke="black" points="106,-547 106,-565 202,-565 202,-547 106,-547"/>
<text text-anchor="middle" x="154" y="-553.8" font-family="Arial" font-size="8.00">Xna.IGameComponent</text>
</g>
<!-- Box_XnaIGameComponent&#45;&gt;Box_IGameStateComponent -->
<g id="edge8" class="edge"><title>Box_XnaIGameComponent&#45;&gt;Box_IGameStateComponent</title>
<path fill="none" stroke="midnightblue" d="M154,-536.64C154,-528.2 154,-518.16 154,-509.004"/>
<polygon fill="none" stroke="midnightblue" points="150.5,-536.926 154,-546.926 157.5,-536.926 150.5,-536.926"/>
</g>
</g>
</svg>
