<?xml version="1.0" encoding="UTF-8" standalone="no"?>
<!DOCTYPE svg PUBLIC "-//W3C//DTD SVG 1.1//EN"
 "http://www.w3.org/Graphics/SVG/1.1/DTD/svg11.dtd">
<!-- Generated by graphviz version 2.26.3 (20100126.1600)
 -->
<!-- Title: MenuItem Pages: 1 -->
<svg width="1254pt" height="698pt"
 viewBox="0.00 0.00 1254.00 698.00" xmlns="http://www.w3.org/2000/svg" xmlns:xlink="http://www.w3.org/1999/xlink">
<g id="graph1" class="graph" transform="scale(1 1) rotate(0) translate(4 694)">
<title>MenuItem</title>
<polygon fill="white" stroke="white" points="-4,5 -4,-694 1251,-694 1251,5 -4,5"/>
<!-- Box_IKeyEventListener -->
<g id="node1" class="node"><title>Box_IKeyEventListener</title>
<polygon fill="#dafcda" stroke="black" points="318,-581 318,-689 604,-689 604,-581 318,-581"/>
<text text-anchor="middle" x="461" y="-677.8" font-family="Helvetica,sans-Serif" font-size="8.00">IKeyEventListener</text>
<polyline fill="none" stroke="black" points="318,-669 604,-669 "/>
<text text-anchor="start" x="326" y="-657.8" font-family="Helvetica,sans-Serif" font-size="8.00">Attributes:</text>
<text text-anchor="start" x="326" y="-645.8" font-family="Helvetica,sans-Serif" font-size="8.00">+ ValidKeys : List&lt;Keys&gt;</text>
<text text-anchor="start" x="326" y="-633.8" font-family="Helvetica,sans-Serif" font-size="8.00">+ Index : int</text>
<text text-anchor="start" x="326" y="-621.8" font-family="Helvetica,sans-Serif" font-size="8.00">+ IsKeyEventEnabled : bool</text>
<text text-anchor="start" x="326" y="-609.8" font-family="Helvetica,sans-Serif" font-size="8.00">Methods:</text>
<polyline fill="none" stroke="black" points="318,-601 604,-601 "/>
<text text-anchor="start" x="326" y="-589.8" font-family="Helvetica,sans-Serif" font-size="8.00">+ OnKeyEvent (List&lt;Keys&gt; key, KeyEvent keyEvent, GameTime gameTime)</text>
</g>
<!-- Box_Input -->
<g id="node2" class="node"><title>Box_Input</title>
<polygon fill="#fcfcda" stroke="black" points="0,-243 0,-543 286,-543 286,-243 0,-243"/>
<text text-anchor="middle" x="143" y="-531.8" font-family="Helvetica,sans-Serif" font-size="8.00">Input</text>
<polyline fill="none" stroke="black" points="0,-523 286,-523 "/>
<text text-anchor="start" x="8" y="-511.8" font-family="Helvetica,sans-Serif" font-size="8.00">Attributes:</text>
<text text-anchor="start" x="8" y="-499.8" font-family="Helvetica,sans-Serif" font-size="8.00">&#45; PreviousClickMouseState : MouseState static</text>
<text text-anchor="start" x="8" y="-487.8" font-family="Helvetica,sans-Serif" font-size="8.00">&#45; LeftButtonClickTimer : double static</text>
<text text-anchor="start" x="8" y="-475.8" font-family="Helvetica,sans-Serif" font-size="8.00">&#45; RightButtonClickTimer : double static</text>
<text text-anchor="start" x="8" y="-463.8" font-family="Helvetica,sans-Serif" font-size="8.00">+ GrabMouseMovement : bool</text>
<text text-anchor="start" x="8" y="-451.8" font-family="Helvetica,sans-Serif" font-size="8.00">+ LeftButton : ClickState static</text>
<text text-anchor="start" x="8" y="-439.8" font-family="Helvetica,sans-Serif" font-size="8.00">+ RightButton : ClickState static</text>
<text text-anchor="start" x="8" y="-427.8" font-family="Helvetica,sans-Serif" font-size="8.00">+ PreviousKeyboardState : KeyboardState static</text>
<text text-anchor="start" x="8" y="-415.8" font-family="Helvetica,sans-Serif" font-size="8.00">+ MouseState : MouseState static</text>
<text text-anchor="start" x="8" y="-403.8" font-family="Helvetica,sans-Serif" font-size="8.00">+ PreviousMouseState : MouseState static</text>
<text text-anchor="start" x="8" y="-391.8" font-family="Helvetica,sans-Serif" font-size="8.00"># FullscreenToggled : bool static</text>
<text text-anchor="start" x="8" y="-379.8" font-family="Helvetica,sans-Serif" font-size="8.00">+ CurrentInputAction : InputAction</text>
<text text-anchor="start" x="8" y="-367.8" font-family="Helvetica,sans-Serif" font-size="8.00">+ ValidKeys : List&lt;Keys&gt;</text>
<text text-anchor="start" x="8" y="-355.8" font-family="Helvetica,sans-Serif" font-size="8.00">+ WASDMode : WASDMode</text>
<text text-anchor="start" x="8" y="-343.8" font-family="Helvetica,sans-Serif" font-size="8.00">+ IsKeyEventEnabled : bool</text>
<text text-anchor="start" x="8" y="-331.8" font-family="Helvetica,sans-Serif" font-size="8.00">+ KeyboardState : KeyboardState static</text>
<text text-anchor="start" x="8" y="-319.8" font-family="Helvetica,sans-Serif" font-size="8.00">Methods:</text>
<polyline fill="none" stroke="black" points="0,-311 286,-311 "/>
<text text-anchor="start" x="8" y="-299.8" font-family="Helvetica,sans-Serif" font-size="8.00"># UpdateMouse (GameTime gameTime) virtual</text>
<text text-anchor="start" x="8" y="-287.8" font-family="Helvetica,sans-Serif" font-size="8.00">+ Update (GameTime gameTime)</text>
<text text-anchor="start" x="8" y="-275.8" font-family="Helvetica,sans-Serif" font-size="8.00">+ OnKeyEvent (List&lt;Keys&gt; key, KeyEvent keyEvent, GameTime gameTime)</text>
<text text-anchor="start" x="8" y="-263.8" font-family="Helvetica,sans-Serif" font-size="8.00"># UpdateKeys (GameTime gameTime) virtual</text>
<text text-anchor="start" x="8" y="-251.8" font-family="Helvetica,sans-Serif" font-size="8.00">+ Input (GameState state)</text>
</g>
<!-- Box_IKeyEventListener&#45;&gt;Box_Input -->
<g id="edge4" class="edge"><title>Box_IKeyEventListener&#45;&gt;Box_Input</title>
<path fill="none" stroke="midnightblue" d="M334.375,-575.883C317.591,-565.967 301.021,-555.225 286,-544 285.702,-543.777 285.404,-543.554 285.106,-543.33"/>
<polygon fill="none" stroke="midnightblue" points="332.759,-578.992 343.164,-580.991 336.277,-572.94 332.759,-578.992"/>
</g>
<!-- Box_IKeyEventListener&#45;&gt;Box_Input -->
<g id="edge34" class="edge"><title>Box_IKeyEventListener&#45;&gt;Box_Input</title>
<path fill="none" stroke="midnightblue" d="M352.175,-575.883C335.591,-565.967 319.021,-555.225 304,-544 298.041,-539.547 292.085,-534.867 286.164,-530.025"/>
<polygon fill="none" stroke="midnightblue" points="350.449,-578.928 360.841,-580.991 354.004,-572.898 350.449,-578.928"/>
</g>
<!-- Box_PipeColoring -->
<g id="node4" class="node"><title>Box_PipeColoring</title>
<polygon fill="#fcfcda" stroke="black" points="304,-327 304,-459 590,-459 590,-327 304,-327"/>
<text text-anchor="middle" x="447" y="-447.8" font-family="Helvetica,sans-Serif" font-size="8.00">PipeColoring</text>
<polyline fill="none" stroke="black" points="304,-439 590,-439 "/>
<text text-anchor="start" x="312" y="-427.8" font-family="Helvetica,sans-Serif" font-size="8.00">Attributes:</text>
<text text-anchor="start" x="312" y="-415.8" font-family="Helvetica,sans-Serif" font-size="8.00">+ ValidKeys : List&lt;Keys&gt;</text>
<text text-anchor="start" x="312" y="-403.8" font-family="Helvetica,sans-Serif" font-size="8.00">+ Knot : Knot</text>
<text text-anchor="start" x="312" y="-391.8" font-family="Helvetica,sans-Serif" font-size="8.00">+ IsKeyEventEnabled : bool</text>
<text text-anchor="start" x="312" y="-379.8" font-family="Helvetica,sans-Serif" font-size="8.00">Methods:</text>
<polyline fill="none" stroke="black" points="304,-371 590,-371 "/>
<text text-anchor="start" x="312" y="-359.8" font-family="Helvetica,sans-Serif" font-size="8.00">+ OnKeyEvent (List&lt;Keys&gt; key, KeyEvent keyEvent, GameTime gameTime)</text>
<text text-anchor="start" x="312" y="-347.8" font-family="Helvetica,sans-Serif" font-size="8.00">+ PipeColoring (GameState state)</text>
<text text-anchor="start" x="312" y="-335.8" font-family="Helvetica,sans-Serif" font-size="8.00">+ Update (GameTime gameTime)</text>
</g>
<!-- Box_IKeyEventListener&#45;&gt;Box_PipeColoring -->
<g id="edge42" class="edge"><title>Box_IKeyEventListener&#45;&gt;Box_PipeColoring</title>
<path fill="none" stroke="midnightblue" d="M451.229,-570.597C448.319,-536.235 445.859,-494.012 444.742,-459.359"/>
<polygon fill="none" stroke="midnightblue" points="447.78,-571.338 452.145,-580.992 454.753,-570.723 447.78,-571.338"/>
</g>
<!-- Box_IKeyEventListener&#45;&gt;Box_PipeColoring -->
<g id="edge12" class="edge"><title>Box_IKeyEventListener&#45;&gt;Box_PipeColoring</title>
<path fill="none" stroke="midnightblue" d="M463.32,-570.597C462.254,-536.235 459.828,-494.012 456.936,-459.359"/>
<polygon fill="none" stroke="midnightblue" points="459.832,-571.092 463.606,-580.992 466.829,-570.899 459.832,-571.092"/>
</g>
<!-- Box_MenuItem -->
<g id="node5" class="node"><title>Box_MenuItem</title>
<polygon fill="#fcfcda" stroke="black" points="607.5,-273 607.5,-513 942.5,-513 942.5,-273 607.5,-273"/>
<text text-anchor="middle" x="775" y="-501.8" font-family="Helvetica,sans-Serif" font-size="8.00">MenuItem</text>
<polyline fill="none" stroke="black" points="607.5,-493 942.5,-493 "/>
<text text-anchor="start" x="615.5" y="-481.8" font-family="Helvetica,sans-Serif" font-size="8.00">Attributes:</text>
<text text-anchor="start" x="615.5" y="-469.8" font-family="Helvetica,sans-Serif" font-size="8.00"># spriteBatch : SpriteBatch</text>
<text text-anchor="start" x="615.5" y="-457.8" font-family="Helvetica,sans-Serif" font-size="8.00">+ IsMouseEventEnabled : bool</text>
<text text-anchor="start" x="615.5" y="-445.8" font-family="Helvetica,sans-Serif" font-size="8.00">+ ValidKeys : List&lt;Keys&gt;</text>
<text text-anchor="start" x="615.5" y="-433.8" font-family="Helvetica,sans-Serif" font-size="8.00">+ IsKeyEventEnabled : bool</text>
<text text-anchor="start" x="615.5" y="-421.8" font-family="Helvetica,sans-Serif" font-size="8.00">+ Info : MenuItemInfo</text>
<text text-anchor="start" x="615.5" y="-409.8" font-family="Helvetica,sans-Serif" font-size="8.00">Methods:</text>
<polyline fill="none" stroke="black" points="607.5,-401 942.5,-401 "/>
<text text-anchor="start" x="615.5" y="-389.8" font-family="Helvetica,sans-Serif" font-size="8.00">+ MenuItem (GameState state, DisplayLayer drawOrder, int itemNum, MenuItemInfo info)</text>
<text text-anchor="start" x="615.5" y="-377.8" font-family="Helvetica,sans-Serif" font-size="8.00">+ Collapse () virtual</text>
<text text-anchor="start" x="615.5" y="-365.8" font-family="Helvetica,sans-Serif" font-size="8.00">+ OnKeyEvent (List&lt;Keys&gt; key, KeyEvent keyEvent, GameTime gameTime)</text>
<text text-anchor="start" x="615.5" y="-353.8" font-family="Helvetica,sans-Serif" font-size="8.00">+ OnLeftClick (Vector2 position, ClickState click, GameTime gameTime)</text>
<text text-anchor="start" x="615.5" y="-341.8" font-family="Helvetica,sans-Serif" font-size="8.00">+ OnRightClick (Vector2 position, ClickState click, GameTime gameTime)</text>
<text text-anchor="start" x="615.5" y="-329.8" font-family="Helvetica,sans-Serif" font-size="8.00">+ MinimumSize (SpriteFont font) : Vector2</text>
<text text-anchor="start" x="615.5" y="-317.8" font-family="Helvetica,sans-Serif" font-size="8.00">+ TextPosition (SpriteFont font) : Vector2</text>
<text text-anchor="start" x="615.5" y="-305.8" font-family="Helvetica,sans-Serif" font-size="8.00">+ TextPosition (SpriteFont font, Vector2 scale) : Vector2</text>
<text text-anchor="start" x="615.5" y="-293.8" font-family="Helvetica,sans-Serif" font-size="8.00">+ Draw (GameTime gameTime)</text>
<text text-anchor="start" x="615.5" y="-281.8" font-family="Helvetica,sans-Serif" font-size="8.00">+ SetHovered (bool hovered)</text>
</g>
<!-- Box_IKeyEventListener&#45;&gt;Box_MenuItem -->
<g id="edge48" class="edge"><title>Box_IKeyEventListener&#45;&gt;Box_MenuItem</title>
<path fill="none" stroke="midnightblue" d="M546.612,-574.977C561.273,-564.938 576.208,-554.399 590,-544 602.859,-534.305 615.996,-523.953 629.045,-513.386"/>
<polygon fill="none" stroke="midnightblue" points="544.319,-572.304 538.022,-580.825 548.258,-578.09 544.319,-572.304"/>
</g>
<!-- Box_IKeyEventListener&#45;&gt;Box_MenuItem -->
<g id="edge18" class="edge"><title>Box_IKeyEventListener&#45;&gt;Box_MenuItem</title>
<path fill="none" stroke="midnightblue" d="M563.961,-575.258C578.994,-565.135 594.079,-554.496 608,-544 620.859,-534.305 633.996,-523.953 646.977,-513.386"/>
<polygon fill="none" stroke="midnightblue" points="561.996,-572.361 555.622,-580.825 565.882,-578.183 561.996,-572.361"/>
</g>
<!-- Box_TextInput -->
<g id="node8" class="node"><title>Box_TextInput</title>
<polygon fill="#fcfcda" stroke="black" points="960,-309 960,-477 1246,-477 1246,-309 960,-309"/>
<text text-anchor="middle" x="1103" y="-465.8" font-family="Helvetica,sans-Serif" font-size="8.00">TextInput</text>
<polyline fill="none" stroke="black" points="960,-457 1246,-457 "/>
<text text-anchor="start" x="968" y="-445.8" font-family="Helvetica,sans-Serif" font-size="8.00">Attributes:</text>
<text text-anchor="start" x="968" y="-433.8" font-family="Helvetica,sans-Serif" font-size="8.00">&#45; font : SpriteFont</text>
<text text-anchor="start" x="968" y="-421.8" font-family="Helvetica,sans-Serif" font-size="8.00"># spriteBatch : SpriteBatch</text>
<text text-anchor="start" x="968" y="-409.8" font-family="Helvetica,sans-Serif" font-size="8.00">+ IsKeyEventEnabled : bool</text>
<text text-anchor="start" x="968" y="-397.8" font-family="Helvetica,sans-Serif" font-size="8.00">+ ValidKeys : List&lt;Keys&gt;</text>
<text text-anchor="start" x="968" y="-385.8" font-family="Helvetica,sans-Serif" font-size="8.00">+ InputText : string</text>
<text text-anchor="start" x="968" y="-373.8" font-family="Helvetica,sans-Serif" font-size="8.00">Methods:</text>
<polyline fill="none" stroke="black" points="960,-365 1246,-365 "/>
<text text-anchor="start" x="968" y="-353.8" font-family="Helvetica,sans-Serif" font-size="8.00">+ TextInput (GameState state, WidgetInfo info, DisplayLayer drawOrder)</text>
<text text-anchor="start" x="968" y="-341.8" font-family="Helvetica,sans-Serif" font-size="8.00">+ Draw (GameTime gameTime)</text>
<text text-anchor="start" x="968" y="-329.8" font-family="Helvetica,sans-Serif" font-size="8.00">+ OnKeyEvent (List&lt;Keys&gt; key, KeyEvent keyEvent, GameTime gameTime)</text>
<text text-anchor="start" x="968" y="-317.8" font-family="Helvetica,sans-Serif" font-size="8.00">+ Update (GameTime gameTime)</text>
</g>
<!-- Box_IKeyEventListener&#45;&gt;Box_TextInput -->
<g id="edge30" class="edge"><title>Box_IKeyEventListener&#45;&gt;Box_TextInput</title>
<path fill="none" stroke="midnightblue" d="M614.276,-590.904C631.307,-586.924 648.465,-583.197 665,-580 786.89,-556.436 830.521,-598.632 942,-544 974.4,-528.122 1004.07,-502.598 1028.92,-477.016"/>
<polygon fill="none" stroke="midnightblue" points="613.193,-587.564 604.27,-593.275 614.807,-594.375 613.193,-587.564"/>
</g>
<!-- Box_IKeyEventListener&#45;&gt;Box_TextInput -->
<g id="edge60" class="edge"><title>Box_IKeyEventListener&#45;&gt;Box_TextInput</title>
<path fill="none" stroke="midnightblue" d="M614.028,-595.217C637.07,-589.631 660.607,-584.329 683,-580 804.89,-556.436 848.521,-598.632 960,-544 992.4,-528.122 1022.07,-502.598 1045.94,-477.016"/>
<polygon fill="none" stroke="midnightblue" points="613.069,-591.849 604.188,-597.627 614.733,-598.648 613.069,-591.849"/>
</g>
<!-- Box_MenuScreenInput -->
<g id="node3" class="node"><title>Box_MenuScreenInput</title>
<polygon fill="#fcfcda" stroke="black" points="65.5,-67 65.5,-139 220.5,-139 220.5,-67 65.5,-67"/>
<text text-anchor="middle" x="143" y="-127.8" font-family="Helvetica,sans-Serif" font-size="8.00">MenuScreenInput</text>
<polyline fill="none" stroke="black" points="65.5,-119 220.5,-119 "/>
<text text-anchor="start" x="73.5" y="-107.8" font-family="Helvetica,sans-Serif" font-size="8.00">Attributes:</text>
<text text-anchor="start" x="73.5" y="-95.8" font-family="Helvetica,sans-Serif" font-size="8.00">Methods:</text>
<polyline fill="none" stroke="black" points="65.5,-87 220.5,-87 "/>
<text text-anchor="start" x="73.5" y="-75.8" font-family="Helvetica,sans-Serif" font-size="8.00">+ MenuScreenInput (GameState state)</text>
</g>
<!-- Box_Input&#45;&gt;Box_MenuScreenInput -->
<g id="edge36" class="edge"><title>Box_Input&#45;&gt;Box_MenuScreenInput</title>
<path fill="none" stroke="midnightblue" d="M122.854,-232.456C123.325,-197.271 125.403,-163.321 129.087,-139.021"/>
<polygon fill="none" stroke="midnightblue" points="119.35,-232.873 122.761,-242.903 126.35,-232.935 119.35,-232.873"/>
</g>
<!-- Box_Input&#45;&gt;Box_MenuScreenInput -->
<g id="edge38" class="edge"><title>Box_Input&#45;&gt;Box_MenuScreenInput</title>
<path fill="none" stroke="midnightblue" d="M163.146,-232.456C162.675,-197.271 160.597,-163.321 156.913,-139.021"/>
<polygon fill="none" stroke="midnightblue" points="159.65,-232.935 163.239,-242.903 166.65,-232.873 159.65,-232.935"/>
</g>
<!-- Box_Input&#45;&gt;Box_MenuScreenInput -->
<g id="edge6" class="edge"><title>Box_Input&#45;&gt;Box_MenuScreenInput</title>
<path fill="none" stroke="midnightblue" d="M136.285,-232.456C136.442,-197.271 137.134,-163.321 138.362,-139.021"/>
<polygon fill="none" stroke="midnightblue" points="132.783,-232.893 136.254,-242.903 139.783,-232.914 132.783,-232.893"/>
</g>
<!-- Box_Input&#45;&gt;Box_MenuScreenInput -->
<g id="edge8" class="edge"><title>Box_Input&#45;&gt;Box_MenuScreenInput</title>
<path fill="none" stroke="midnightblue" d="M149.715,-232.456C149.558,-197.271 148.866,-163.321 147.638,-139.021"/>
<polygon fill="none" stroke="midnightblue" points="146.217,-232.914 149.746,-242.903 153.217,-232.893 146.217,-232.914"/>
</g>
<!-- Box_DropDownMenu -->
<g id="node6" class="node"><title>Box_DropDownMenu</title>
<polygon fill="#fcfcda" stroke="black" points="780.5,-1 780.5,-205 1139.5,-205 1139.5,-1 780.5,-1"/>
<text text-anchor="middle" x="960" y="-193.8" font-family="Helvetica,sans-Serif" font-size="8.00">DropDownMenu</text>
<polyline fill="none" stroke="black" points="780.5,-185 1139.5,-185 "/>
<text text-anchor="start" x="788.5" y="-173.8" font-family="Helvetica,sans-Serif" font-size="8.00">Attributes:</text>
<text text-anchor="start" x="788.5" y="-161.8" font-family="Helvetica,sans-Serif" font-size="8.00">&#45; selected : MenuButton</text>
<text text-anchor="start" x="788.5" y="-149.8" font-family="Helvetica,sans-Serif" font-size="8.00">&#45; dropdown : VerticalMenu</text>
<text text-anchor="start" x="788.5" y="-137.8" font-family="Helvetica,sans-Serif" font-size="8.00">Methods:</text>
<polyline fill="none" stroke="black" points="780.5,-129 1139.5,-129 "/>
<text text-anchor="start" x="788.5" y="-117.8" font-family="Helvetica,sans-Serif" font-size="8.00">&#45; ValuePosition (int dummy) : Vector2</text>
<text text-anchor="start" x="788.5" y="-105.8" font-family="Helvetica,sans-Serif" font-size="8.00">+ DropDownMenu (GameState state, DisplayLayer drawOrder, int itemNum, MenuItemInfo info)</text>
<text text-anchor="start" x="788.5" y="-93.8" font-family="Helvetica,sans-Serif" font-size="8.00">&#45; DropDownBackgroundColor (ItemState itemState) : Color</text>
<text text-anchor="start" x="788.5" y="-81.8" font-family="Helvetica,sans-Serif" font-size="8.00">&#45; DropDownForegroundColor (ItemState itemState) : Color</text>
<text text-anchor="start" x="788.5" y="-69.8" font-family="Helvetica,sans-Serif" font-size="8.00">&#45; ValueSize (int dummy) : Vector2</text>
<text text-anchor="start" x="788.5" y="-57.8" font-family="Helvetica,sans-Serif" font-size="8.00">+ SubComponents (GameTime gameTime) : IEnumerable&lt;IGameStateComponent&gt;</text>
<text text-anchor="start" x="788.5" y="-45.8" font-family="Helvetica,sans-Serif" font-size="8.00">+ Collapse ()</text>
<text text-anchor="start" x="788.5" y="-33.8" font-family="Helvetica,sans-Serif" font-size="8.00">+ Draw (GameTime gameTime)</text>
<text text-anchor="start" x="788.5" y="-21.8" font-family="Helvetica,sans-Serif" font-size="8.00">+ AddEntries (DistinctOptionInfo option)</text>
<text text-anchor="start" x="788.5" y="-9.8" font-family="Helvetica,sans-Serif" font-size="8.00">+ AddEntries (DropDownMenuItem[] entries, DropDownMenuItem defaultEntry)</text>
</g>
<!-- Box_MenuItem&#45;&gt;Box_DropDownMenu -->
<g id="edge24" class="edge"><title>Box_MenuItem&#45;&gt;Box_DropDownMenu</title>
<path fill="none" stroke="midnightblue" d="M837.004,-264.239C849.294,-244.541 862.346,-224.438 875.217,-205.409"/>
<polygon fill="none" stroke="midnightblue" points="833.896,-262.609 831.601,-272.953 839.845,-266.298 833.896,-262.609"/>
</g>
<!-- Box_MenuItem&#45;&gt;Box_DropDownMenu -->
<g id="edge50" class="edge"><title>Box_MenuItem&#45;&gt;Box_DropDownMenu</title>
<path fill="none" stroke="midnightblue" d="M863.683,-264.504C876.397,-244.721 889.206,-224.523 901.154,-205.409"/>
<polygon fill="none" stroke="midnightblue" points="860.714,-262.65 858.242,-272.953 866.599,-266.44 860.714,-262.65"/>
</g>
<!-- Box_MenuItem&#45;&gt;Box_DropDownMenu -->
<g id="edge54" class="edge"><title>Box_MenuItem&#45;&gt;Box_DropDownMenu</title>
<path fill="none" stroke="midnightblue" d="M877.105,-264.504C890.006,-244.721 902.664,-224.523 914.123,-205.409"/>
<polygon fill="none" stroke="midnightblue" points="874.121,-262.671 871.563,-272.953 879.974,-266.51 874.121,-262.671"/>
</g>
<!-- Box_MenuItem&#45;&gt;Box_DropDownMenu -->
<g id="edge20" class="edge"><title>Box_MenuItem&#45;&gt;Box_DropDownMenu</title>
<path fill="none" stroke="midnightblue" d="M850.428,-264.239C862.902,-244.541 875.803,-224.438 888.186,-205.409"/>
<polygon fill="none" stroke="midnightblue" points="847.305,-262.629 844.922,-272.953 853.223,-266.369 847.305,-262.629"/>
</g>
<!-- Box_MenuButton -->
<g id="node7" class="node"><title>Box_MenuButton</title>
<polygon fill="#fcfcda" stroke="black" points="420.5,-67 420.5,-139 763.5,-139 763.5,-67 420.5,-67"/>
<text text-anchor="middle" x="592" y="-127.8" font-family="Helvetica,sans-Serif" font-size="8.00">MenuButton</text>
<polyline fill="none" stroke="black" points="420.5,-119 763.5,-119 "/>
<text text-anchor="start" x="428.5" y="-107.8" font-family="Helvetica,sans-Serif" font-size="8.00">Attributes:</text>
<text text-anchor="start" x="428.5" y="-95.8" font-family="Helvetica,sans-Serif" font-size="8.00">Methods:</text>
<polyline fill="none" stroke="black" points="420.5,-87 763.5,-87 "/>
<text text-anchor="start" x="428.5" y="-75.8" font-family="Helvetica,sans-Serif" font-size="8.00">+ MenuButton (GameState state, DisplayLayer drawOrder, int itemNum, MenuItemInfo info)</text>
</g>
<!-- Box_MenuItem&#45;&gt;Box_MenuButton -->
<g id="edge22" class="edge"><title>Box_MenuItem&#45;&gt;Box_MenuButton</title>
<path fill="none" stroke="midnightblue" d="M673.75,-264.454C644.279,-218.78 616.127,-170.9 600.931,-139.257"/>
<polygon fill="none" stroke="midnightblue" points="670.885,-266.47 679.265,-272.953 676.757,-262.659 670.885,-266.47"/>
</g>
<!-- Box_MenuItem&#45;&gt;Box_MenuButton -->
<g id="edge26" class="edge"><title>Box_MenuItem&#45;&gt;Box_MenuButton</title>
<path fill="none" stroke="midnightblue" d="M687.172,-264.454C658.134,-218.78 628.607,-170.9 610.23,-139.257"/>
<polygon fill="none" stroke="midnightblue" points="684.261,-266.399 692.586,-272.953 690.165,-262.638 684.261,-266.399"/>
</g>
<!-- Box_MenuItem&#45;&gt;Box_MenuButton -->
<g id="edge52" class="edge"><title>Box_MenuItem&#45;&gt;Box_MenuButton</title>
<path fill="none" stroke="midnightblue" d="M700.594,-264.454C671.989,-218.78 641.088,-170.9 619.529,-139.257"/>
<polygon fill="none" stroke="midnightblue" points="697.638,-266.328 705.906,-272.953 703.574,-262.618 697.638,-266.328"/>
</g>
<!-- Box_MenuItem&#45;&gt;Box_MenuButton -->
<g id="edge56" class="edge"><title>Box_MenuItem&#45;&gt;Box_MenuButton</title>
<path fill="none" stroke="midnightblue" d="M713.841,-264.17C685.71,-218.582 653.517,-170.835 628.828,-139.257"/>
<polygon fill="none" stroke="midnightblue" points="711.016,-266.257 719.227,-272.953 716.983,-262.598 711.016,-266.257"/>
</g>
<!-- Box_GameStateComponent -->
<g id="node9" class="node"><title>Box_GameStateComponent</title>
<polygon fill="#ffffff" stroke="black" points="140.5,-625 140.5,-645 239.5,-645 239.5,-625 140.5,-625"/>
<text text-anchor="middle" x="190" y="-633.8" font-family="Helvetica,sans-Serif" font-size="8.00">GameStateComponent</text>
</g>
<!-- Box_GameStateComponent&#45;&gt;Box_Input -->
<g id="edge2" class="edge"><title>Box_GameStateComponent&#45;&gt;Box_Input</title>
<path fill="none" stroke="midnightblue" d="M182.212,-615.089C177.478,-598.005 171.478,-571.665 165.561,-543.018"/>
<polygon fill="none" stroke="midnightblue" points="178.926,-616.319 185.127,-624.91 185.637,-614.327 178.926,-616.319"/>
</g>
<!-- Box_GameStateComponent&#45;&gt;Box_Input -->
<g id="edge32" class="edge"><title>Box_GameStateComponent&#45;&gt;Box_Input</title>
<path fill="none" stroke="midnightblue" d="M189.999,-614.598C188.071,-597.503 183.871,-571.392 178.71,-543.018"/>
<polygon fill="none" stroke="midnightblue" points="186.546,-615.275 190.954,-624.91 193.517,-614.629 186.546,-615.275"/>
</g>
<!-- Box_GameStateComponent&#45;&gt;Box_PipeColoring -->
<g id="edge40" class="edge"><title>Box_GameStateComponent&#45;&gt;Box_PipeColoring</title>
<path fill="none" stroke="midnightblue" d="M203.813,-617.913C222.97,-599.918 257.378,-570.562 286,-544 315.31,-516.799 346.807,-485.816 374.152,-459.024"/>
<polygon fill="none" stroke="midnightblue" points="201.355,-615.422 196.598,-624.889 206.22,-620.454 201.355,-615.422"/>
</g>
<!-- Box_GameStateComponent&#45;&gt;Box_PipeColoring -->
<g id="edge10" class="edge"><title>Box_GameStateComponent&#45;&gt;Box_PipeColoring</title>
<path fill="none" stroke="midnightblue" d="M216.003,-618.866C239.74,-600.967 274.867,-571.037 304,-544 333.31,-516.799 364.807,-485.816 390.819,-459.024"/>
<polygon fill="none" stroke="midnightblue" points="213.792,-616.147 207.805,-624.889 217.936,-621.789 213.792,-616.147"/>
</g>
<!-- Box_ItemWidget -->
<g id="node10" class="node"><title>Box_ItemWidget</title>
<polygon fill="#ffffff" stroke="black" points="792.5,-625 792.5,-645 849.5,-645 849.5,-625 792.5,-625"/>
<text text-anchor="middle" x="821" y="-633.8" font-family="Helvetica,sans-Serif" font-size="8.00">ItemWidget</text>
</g>
<!-- Box_ItemWidget&#45;&gt;Box_MenuItem -->
<g id="edge44" class="edge"><title>Box_ItemWidget&#45;&gt;Box_MenuItem</title>
<path fill="none" stroke="midnightblue" d="M813.288,-615.066C807.031,-592.141 798.567,-552.566 791.082,-513.117"/>
<polygon fill="none" stroke="midnightblue" points="810.001,-616.295 816.169,-624.91 816.719,-614.329 810.001,-616.295"/>
</g>
<!-- Box_ItemWidget&#45;&gt;Box_MenuItem -->
<g id="edge14" class="edge"><title>Box_ItemWidget&#45;&gt;Box_MenuItem</title>
<path fill="none" stroke="midnightblue" d="M821.1,-614.753C818.615,-591.781 812.061,-552.387 804.582,-513.117"/>
<polygon fill="none" stroke="midnightblue" points="817.63,-615.256 821.995,-624.91 824.603,-614.641 817.63,-615.256"/>
</g>
<!-- Box_IMouseEventListener -->
<g id="node11" class="node"><title>Box_IMouseEventListener</title>
<polygon fill="#ffffff" stroke="black" points="683,-625 683,-645 775,-645 775,-625 683,-625"/>
<text text-anchor="middle" x="729" y="-633.8" font-family="Helvetica,sans-Serif" font-size="8.00">IMouseEventListener</text>
</g>
<!-- Box_IMouseEventListener&#45;&gt;Box_MenuItem -->
<g id="edge46" class="edge"><title>Box_IMouseEventListener&#45;&gt;Box_MenuItem</title>
<path fill="none" stroke="midnightblue" d="M728.9,-614.753C731.385,-591.781 737.939,-552.387 745.418,-513.117"/>
<polygon fill="none" stroke="midnightblue" points="725.397,-614.641 728.005,-624.91 732.37,-615.256 725.397,-614.641"/>
</g>
<!-- Box_IMouseEventListener&#45;&gt;Box_MenuItem -->
<g id="edge16" class="edge"><title>Box_IMouseEventListener&#45;&gt;Box_MenuItem</title>
<path fill="none" stroke="midnightblue" d="M736.712,-615.066C742.969,-592.141 751.433,-552.566 758.918,-513.117"/>
<polygon fill="none" stroke="midnightblue" points="733.281,-614.329 733.831,-624.91 739.999,-616.295 733.281,-614.329"/>
</g>
<!-- Box_Widget -->
<g id="node12" class="node"><title>Box_Widget</title>
<polygon fill="#ffffff" stroke="black" points="1082.5,-625 1082.5,-645 1123.5,-645 1123.5,-625 1082.5,-625"/>
<text text-anchor="middle" x="1103" y="-633.8" font-family="Helvetica,sans-Serif" font-size="8.00">Widget</text>
</g>
<!-- Box_Widget&#45;&gt;Box_TextInput -->
<g id="edge28" class="edge"><title>Box_Widget&#45;&gt;Box_TextInput</title>
<path fill="none" stroke="midnightblue" d="M1099.06,-614.86C1096.59,-584.827 1095.75,-526.556 1096.53,-477.268"/>
<polygon fill="none" stroke="midnightblue" points="1095.59,-615.317 1100.09,-624.91 1102.55,-614.606 1095.59,-615.317"/>
</g>
<!-- Box_Widget&#45;&gt;Box_TextInput -->
<g id="edge58" class="edge"><title>Box_Widget&#45;&gt;Box_TextInput</title>
<path fill="none" stroke="midnightblue" d="M1106.94,-614.86C1109.41,-584.827 1110.25,-526.556 1109.47,-477.268"/>
<polygon fill="none" stroke="midnightblue" points="1103.45,-614.606 1105.91,-624.91 1110.41,-615.317 1103.45,-614.606"/>
</g>
</g>
</svg>
