<?xml version="1.0" encoding="UTF-8" standalone="no"?>
<!DOCTYPE svg PUBLIC "-//W3C//DTD SVG 1.1//EN"
 "http://www.w3.org/Graphics/SVG/1.1/DTD/svg11.dtd">
<!-- Generated by graphviz version 2.26.3 (20100126.1600)
 -->
<!-- Title: MenuItem Pages: 1 -->
<svg width="474pt" height="540pt"
 viewBox="0.00 0.00 474.00 540.00" xmlns="http://www.w3.org/2000/svg" xmlns:xlink="http://www.w3.org/1999/xlink">
<g id="graph1" class="graph" transform="scale(1 1) rotate(0) translate(4 536)">
<title>MenuItem</title>
<polygon fill="white" stroke="white" points="-4,5 -4,-536 471,-536 471,5 -4,5"/>
<!-- Box_DrawableGameStateComponent -->
<g id="node1" class="node"><title>Box_DrawableGameStateComponent</title>
<polygon fill="#fcfcda" stroke="black" points="109.5,-291 109.5,-375 450.5,-375 450.5,-291 109.5,-291"/>
<text text-anchor="middle" x="280" y="-363.8" font-family="Helvetica,sans-Serif" font-size="8.00">DrawableGameStateComponent</text>
<polyline fill="none" stroke="black" points="109.5,-355 450.5,-355 "/>
<text text-anchor="start" x="117.5" y="-343.8" font-family="Helvetica,sans-Serif" font-size="8.00">+ state : GameState</text>
<text text-anchor="start" x="117.5" y="-331.8" font-family="Helvetica,sans-Serif" font-size="8.00">+ Index : int</text>
<polyline fill="none" stroke="black" points="109.5,-323 450.5,-323 "/>
<text text-anchor="start" x="117.5" y="-311.8" font-family="Helvetica,sans-Serif" font-size="8.00">+ DrawableGameStateComponent (GameState state, DisplayLayer drawOrder)</text>
<text text-anchor="start" x="117.5" y="-299.8" font-family="Helvetica,sans-Serif" font-size="8.00">+ SubComponents (GameTime gameTime) : IEnumerable&lt;IGameStateComponent&gt; virtual</text>
</g>
<!-- Box_Overlay -->
<g id="node3" class="node"><title>Box_Overlay</title>
<polygon fill="#fcfcda" stroke="black" points="120,-1 120,-253 440,-253 440,-1 120,-1"/>
<text text-anchor="middle" x="280" y="-241.8" font-family="Helvetica,sans-Serif" font-size="8.00">Overlay</text>
<polyline fill="none" stroke="black" points="120,-233 440,-233 "/>
<text text-anchor="start" x="128" y="-221.8" font-family="Helvetica,sans-Serif" font-size="8.00">&#45; spriteBatch : SpriteBatch</text>
<text text-anchor="start" x="128" y="-209.8" font-family="Helvetica,sans-Serif" font-size="8.00">&#45; effect : BasicEffect</text>
<text text-anchor="start" x="128" y="-197.8" font-family="Helvetica,sans-Serif" font-size="8.00">&#45; World : World</text>
<text text-anchor="start" x="128" y="-185.8" font-family="Helvetica,sans-Serif" font-size="8.00">&#45; font : SpriteFont</text>
<text text-anchor="start" x="128" y="-173.8" font-family="Helvetica,sans-Serif" font-size="8.00">&#45; _total_frames : int</text>
<text text-anchor="start" x="128" y="-161.8" font-family="Helvetica,sans-Serif" font-size="8.00">&#45; _elapsed_time : float</text>
<text text-anchor="start" x="128" y="-149.8" font-family="Helvetica,sans-Serif" font-size="8.00">&#45; _fps : int</text>
<polyline fill="none" stroke="black" points="120,-141 440,-141 "/>
<text text-anchor="start" x="128" y="-129.8" font-family="Helvetica,sans-Serif" font-size="8.00">+ Overlay (GameState state, World world)</text>
<text text-anchor="start" x="128" y="-117.8" font-family="Helvetica,sans-Serif" font-size="8.00"># LoadContent () override</text>
<text text-anchor="start" x="128" y="-105.8" font-family="Helvetica,sans-Serif" font-size="8.00">+ Draw (GameTime gameTime) override</text>
<text text-anchor="start" x="128" y="-93.8" font-family="Helvetica,sans-Serif" font-size="8.00">+ Update (GameTime gameTime) override</text>
<text text-anchor="start" x="128" y="-81.8" font-family="Helvetica,sans-Serif" font-size="8.00">&#45; DrawCoordinates (GameTime gameTime)</text>
<text text-anchor="start" x="128" y="-69.8" font-family="Helvetica,sans-Serif" font-size="8.00">&#45; DrawOverlay (GameTime gameTime)</text>
<text text-anchor="start" x="128" y="-57.8" font-family="Helvetica,sans-Serif" font-size="8.00">&#45; DrawVectorCoordinates (Vector3 vector, int width2, int width3, int width4, int height)</text>
<text text-anchor="start" x="128" y="-45.8" font-family="Helvetica,sans-Serif" font-size="8.00">&#45; DrawString (string str, int width, int height, Color color)</text>
<text text-anchor="start" x="128" y="-33.8" font-family="Helvetica,sans-Serif" font-size="8.00">&#45; DrawString (float n, int width, int height, Color color)</text>
<text text-anchor="start" x="128" y="-21.8" font-family="Helvetica,sans-Serif" font-size="8.00">&#45; UpdateFPS (GameTime gameTime)</text>
<text text-anchor="start" x="128" y="-9.8" font-family="Helvetica,sans-Serif" font-size="8.00">&#45; DrawFPS (GameTime gameTime)</text>
</g>
<!-- Box_DrawableGameStateComponent&#45;&gt;Box_Overlay -->
<g id="edge8" class="edge"><title>Box_DrawableGameStateComponent&#45;&gt;Box_Overlay</title>
<path fill="none" stroke="midnightblue" d="M280,-280.658C280,-272.057 280,-262.827 280,-253.318"/>
<polygon fill="none" stroke="midnightblue" points="276.5,-280.816 280,-290.816 283.5,-280.816 276.5,-280.816"/>
</g>
<!-- Box_IGameStateComponent -->
<g id="node2" class="node"><title>Box_IGameStateComponent</title>
<polygon fill="#dafcda" stroke="black" points="0,-413 0,-473 318,-473 318,-413 0,-413"/>
<text text-anchor="middle" x="159" y="-461.8" font-family="Helvetica,sans-Serif" font-size="8.00">IGameStateComponent</text>
<polyline fill="none" stroke="black" points="0,-453 318,-453 "/>
<text text-anchor="start" x="8" y="-441.8" font-family="Helvetica,sans-Serif" font-size="8.00">+ Index : int</text>
<polyline fill="none" stroke="black" points="0,-433 318,-433 "/>
<text text-anchor="start" x="8" y="-421.8" font-family="Helvetica,sans-Serif" font-size="8.00">+ SubComponents (GameTime gameTime) : IEnumerable&lt;IGameStateComponent&gt;</text>
</g>
<!-- Box_IGameStateComponent&#45;&gt;Box_DrawableGameStateComponent -->
<g id="edge4" class="edge"><title>Box_IGameStateComponent&#45;&gt;Box_DrawableGameStateComponent</title>
<path fill="none" stroke="midnightblue" d="M199.738,-405.965C210.538,-396.147 222.282,-385.47 233.37,-375.391"/>
<polygon fill="none" stroke="midnightblue" points="197.109,-403.625 192.064,-412.942 201.818,-408.805 197.109,-403.625"/>
</g>
<!-- Box_XnaDrawableGameComponent -->
<g id="node4" class="node"><title>Box_XnaDrawableGameComponent</title>
<polygon fill="#ffffff" stroke="black" points="335.5,-433 335.5,-453 466.5,-453 466.5,-433 335.5,-433"/>
<text text-anchor="middle" x="401" y="-441.8" font-family="Helvetica,sans-Serif" font-size="8.00">Xna.DrawableGameComponent</text>
</g>
<!-- Box_XnaDrawableGameComponent&#45;&gt;Box_DrawableGameStateComponent -->
<g id="edge2" class="edge"><title>Box_XnaDrawableGameComponent&#45;&gt;Box_DrawableGameStateComponent</title>
<path fill="none" stroke="midnightblue" d="M382.298,-425.998C367.412,-412.466 345.923,-392.93 326.479,-375.254"/>
<polygon fill="none" stroke="midnightblue" points="380.08,-428.712 389.833,-432.849 384.788,-423.532 380.08,-428.712"/>
</g>
<!-- Box_XnaIGameComponent -->
<g id="node5" class="node"><title>Box_XnaIGameComponent</title>
<polygon fill="#ffffff" stroke="black" points="109.5,-511 109.5,-531 208.5,-531 208.5,-511 109.5,-511"/>
<text text-anchor="middle" x="159" y="-519.8" font-family="Helvetica,sans-Serif" font-size="8.00">Xna.IGameComponent</text>
</g>
<!-- Box_XnaIGameComponent&#45;&gt;Box_IGameStateComponent -->
<g id="edge6" class="edge"><title>Box_XnaIGameComponent&#45;&gt;Box_IGameStateComponent</title>
<path fill="none" stroke="midnightblue" d="M159,-500.777C159,-492.329 159,-482.337 159,-473.059"/>
<polygon fill="none" stroke="midnightblue" points="155.5,-500.803 159,-510.803 162.5,-500.803 155.5,-500.803"/>
</g>
</g>
</svg>
