<?xml version="1.0" encoding="UTF-8" standalone="no"?>
<!DOCTYPE svg PUBLIC "-//W3C//DTD SVG 1.1//EN"
 "http://www.w3.org/Graphics/SVG/1.1/DTD/svg11.dtd">
<!-- Generated by graphviz version 2.26.3 (20100126.1600)
 -->
<!-- Title: MenuItem Pages: 1 -->
<svg width="3967pt" height="3750pt"
 viewBox="0.00 0.00 952.00 900.00" xmlns="http://www.w3.org/2000/svg" xmlns:xlink="http://www.w3.org/1999/xlink">
<g id="graph1" class="graph" transform="scale(4.16667 4.16667) rotate(0) translate(4 896)">
<title>MenuItem</title>
<polygon fill="white" stroke="white" points="-4,5 -4,-896 949,-896 949,5 -4,5"/>
<!-- Box_DropDownMenu -->
<g id="node1" class="node"><title>Box_DropDownMenu</title>
<polygon fill="#fcfcda" stroke="black" points="262.5,-1 262.5,-155 619.5,-155 619.5,-1 262.5,-1"/>
<text text-anchor="middle" x="441" y="-143.8" font-family="Arial" font-size="8.00">DropDownMenu</text>
<polyline fill="none" stroke="black" points="262.5,-137 619.5,-137 "/>
<text text-anchor="start" x="270.5" y="-125.8" font-family="Arial" font-size="8.00">&#45; selected : MenuButton</text>
<text text-anchor="start" x="270.5" y="-115.8" font-family="Arial" font-size="8.00">&#45; dropdown : VerticalMenu</text>
<polyline fill="none" stroke="black" points="262.5,-109 619.5,-109 "/>
<text text-anchor="start" x="270.5" y="-97.8" font-family="Arial" font-size="8.00">&#45; ValuePosition (int dummy) : Vector2</text>
<text text-anchor="start" x="270.5" y="-87.8" font-family="Arial" font-size="8.00">+ DropDownMenu (GameState state, DisplayLayer drawOrder, int itemNum, MenuItemInfo info)</text>
<text text-anchor="start" x="270.5" y="-77.8" font-family="Arial" font-size="8.00">&#45; DropDownBackgroundColor (ItemState itemState) : Color</text>
<text text-anchor="start" x="270.5" y="-67.8" font-family="Arial" font-size="8.00">&#45; DropDownForegroundColor (ItemState itemState) : Color</text>
<text text-anchor="start" x="270.5" y="-57.8" font-family="Arial" font-size="8.00">&#45; ValueSize (int dummy) : Vector2</text>
<text text-anchor="start" x="270.5" y="-47.8" font-family="Arial" font-size="8.00">+ SubComponents (GameTime gameTime) : IEnumerable&lt;IGameStateComponent&gt;</text>
<text text-anchor="start" x="270.5" y="-37.8" font-family="Arial" font-size="8.00">+ Collapse ()</text>
<text text-anchor="start" x="270.5" y="-27.8" font-family="Arial" font-size="8.00">+ Draw (GameTime gameTime)</text>
<text text-anchor="start" x="270.5" y="-17.8" font-family="Arial" font-size="8.00">+ AddEntries (DistinctOptionInfo option)</text>
<text text-anchor="start" x="270.5" y="-7.8" font-family="Arial" font-size="8.00">+ AddEntries (DropDownMenuItem[] entries, DropDownMenuItem defaultEntry)</text>
</g>
<!-- Box_MenuItem -->
<g id="node2" class="node"><title>Box_MenuItem</title>
<polygon fill="#fcfcda" stroke="black" points="275,-193 275,-377 607,-377 607,-193 275,-193"/>
<text text-anchor="middle" x="441" y="-365.8" font-family="Arial" font-size="8.00">MenuItem</text>
<polyline fill="none" stroke="black" points="275,-359 607,-359 "/>
<text text-anchor="start" x="283" y="-347.8" font-family="Arial" font-size="8.00"># spriteBatch : SpriteBatch</text>
<text text-anchor="start" x="283" y="-337.8" font-family="Arial" font-size="8.00">+ IsMouseEventEnabled : bool</text>
<text text-anchor="start" x="283" y="-327.8" font-family="Arial" font-size="8.00">+ ValidKeys : List&lt;Keys&gt;</text>
<text text-anchor="start" x="283" y="-317.8" font-family="Arial" font-size="8.00">+ IsKeyEventEnabled : bool</text>
<text text-anchor="start" x="283" y="-307.8" font-family="Arial" font-size="8.00">+ Info : MenuItemInfo</text>
<polyline fill="none" stroke="black" points="275,-301 607,-301 "/>
<text text-anchor="start" x="283" y="-289.8" font-family="Arial" font-size="8.00">+ MenuItem (GameState state, DisplayLayer drawOrder, int itemNum, MenuItemInfo info)</text>
<text text-anchor="start" x="283" y="-279.8" font-family="Arial" font-size="8.00">+ Collapse () virtual</text>
<text text-anchor="start" x="283" y="-269.8" font-family="Arial" font-size="8.00">+ OnKeyEvent (List&lt;Keys&gt; key, KeyEvent keyEvent, GameTime gameTime)</text>
<text text-anchor="start" x="283" y="-259.8" font-family="Arial" font-size="8.00">+ OnLeftClick (Vector2 position, ClickState click, GameTime gameTime)</text>
<text text-anchor="start" x="283" y="-249.8" font-family="Arial" font-size="8.00">+ OnRightClick (Vector2 position, ClickState click, GameTime gameTime)</text>
<text text-anchor="start" x="283" y="-239.8" font-family="Arial" font-size="8.00">+ MinimumSize (SpriteFont font) : Vector2</text>
<text text-anchor="start" x="283" y="-229.8" font-family="Arial" font-size="8.00">+ TextPosition (SpriteFont font) : Vector2</text>
<text text-anchor="start" x="283" y="-219.8" font-family="Arial" font-size="8.00">+ TextPosition (SpriteFont font, Vector2 scale) : Vector2</text>
<text text-anchor="start" x="283" y="-209.8" font-family="Arial" font-size="8.00">+ Draw (GameTime gameTime)</text>
<text text-anchor="start" x="283" y="-199.8" font-family="Arial" font-size="8.00">+ SetHovered (bool hovered)</text>
</g>
<!-- Box_MenuItem&#45;&gt;Box_DropDownMenu -->
<g id="edge2" class="edge"><title>Box_MenuItem&#45;&gt;Box_DropDownMenu</title>
<path fill="none" stroke="midnightblue" d="M441,-182.406C441,-173.272 441,-164.129 441,-155.261"/>
<polygon fill="none" stroke="midnightblue" points="437.5,-182.7 441,-192.7 444.5,-182.7 437.5,-182.7"/>
</g>
<!-- Box_IKeyEventListener -->
<g id="node3" class="node"><title>Box_IKeyEventListener</title>
<polygon fill="#dafcda" stroke="black" points="-0.5,-425 -0.5,-499 286.5,-499 286.5,-425 -0.5,-425"/>
<text text-anchor="middle" x="143" y="-487.8" font-family="Arial" font-size="8.00">IKeyEventListener</text>
<polyline fill="none" stroke="black" points="-0.5,-481 286.5,-481 "/>
<text text-anchor="start" x="7.5" y="-469.8" font-family="Arial" font-size="8.00">+ ValidKeys : List&lt;Keys&gt;</text>
<text text-anchor="start" x="7.5" y="-459.8" font-family="Arial" font-size="8.00">+ Index : DisplayLayer</text>
<text text-anchor="start" x="7.5" y="-449.8" font-family="Arial" font-size="8.00">+ IsKeyEventEnabled : bool</text>
<polyline fill="none" stroke="black" points="-0.5,-443 286.5,-443 "/>
<text text-anchor="start" x="7.5" y="-431.8" font-family="Arial" font-size="8.00">+ OnKeyEvent (List&lt;Keys&gt; key, KeyEvent keyEvent, GameTime gameTime)</text>
</g>
<!-- Box_IKeyEventListener&#45;&gt;Box_MenuItem -->
<g id="edge8" class="edge"><title>Box_IKeyEventListener&#45;&gt;Box_MenuItem</title>
<path fill="none" stroke="midnightblue" d="M214.278,-419.664C236.028,-406.745 260.847,-392.004 285.895,-377.126"/>
<polygon fill="none" stroke="midnightblue" points="212.281,-416.779 205.471,-424.895 215.856,-422.797 212.281,-416.779"/>
</g>
<!-- Box_IMouseEventListener -->
<g id="node4" class="node"><title>Box_IMouseEventListener</title>
<polygon fill="#dafcda" stroke="black" points="304,-415 304,-509 578,-509 578,-415 304,-415"/>
<text text-anchor="middle" x="441" y="-497.8" font-family="Arial" font-size="8.00">IMouseEventListener</text>
<polyline fill="none" stroke="black" points="304,-491 578,-491 "/>
<text text-anchor="start" x="312" y="-479.8" font-family="Arial" font-size="8.00">+ Index : DisplayLayer</text>
<text text-anchor="start" x="312" y="-469.8" font-family="Arial" font-size="8.00">+ IsMouseEventEnabled : bool</text>
<polyline fill="none" stroke="black" points="304,-463 578,-463 "/>
<text text-anchor="start" x="312" y="-451.8" font-family="Arial" font-size="8.00">+ OnLeftClick (Vector2 position, ClickState click, GameTime gameTime)</text>
<text text-anchor="start" x="312" y="-441.8" font-family="Arial" font-size="8.00">+ OnRightClick (Vector2 position, ClickState click, GameTime gameTime)</text>
<text text-anchor="start" x="312" y="-431.8" font-family="Arial" font-size="8.00">+ SetHovered (bool hovered)</text>
<text text-anchor="start" x="312" y="-421.8" font-family="Arial" font-size="8.00">+ bounds () : Rectangle</text>
</g>
<!-- Box_IMouseEventListener&#45;&gt;Box_MenuItem -->
<g id="edge6" class="edge"><title>Box_IMouseEventListener&#45;&gt;Box_MenuItem</title>
<path fill="none" stroke="midnightblue" d="M441,-404.543C441,-395.801 441,-386.597 441,-377.337"/>
<polygon fill="none" stroke="midnightblue" points="437.5,-404.567 441,-414.567 444.5,-404.567 437.5,-404.567"/>
</g>
<!-- Box_ItemWidget -->
<g id="node5" class="node"><title>Box_ItemWidget</title>
<polygon fill="#fcfcda" stroke="black" points="595.5,-430 595.5,-494 924.5,-494 924.5,-430 595.5,-430"/>
<text text-anchor="middle" x="760" y="-482.8" font-family="Arial" font-size="8.00">ItemWidget</text>
<polyline fill="none" stroke="black" points="595.5,-476 924.5,-476 "/>
<text text-anchor="start" x="603.5" y="-464.8" font-family="Arial" font-size="8.00">+ ItemState : ItemState</text>
<text text-anchor="start" x="603.5" y="-454.8" font-family="Arial" font-size="8.00"># ItemNum : int</text>
<polyline fill="none" stroke="black" points="595.5,-448 924.5,-448 "/>
<text text-anchor="start" x="603.5" y="-436.8" font-family="Arial" font-size="8.00">+ ItemWidget (GameState state, WidgetInfo info, DisplayLayer drawOrder, int itemNum)</text>
</g>
<!-- Box_ItemWidget&#45;&gt;Box_MenuItem -->
<g id="edge4" class="edge"><title>Box_ItemWidget&#45;&gt;Box_MenuItem</title>
<path fill="none" stroke="midnightblue" d="M693.436,-425.066C667.977,-410.94 637.667,-394.122 607.035,-377.126"/>
<polygon fill="none" stroke="midnightblue" points="691.789,-428.155 702.232,-429.947 695.185,-422.034 691.789,-428.155"/>
</g>
<!-- Box_Widget -->
<g id="node6" class="node"><title>Box_Widget</title>
<polygon fill="#fcfcda" stroke="black" points="625.5,-547 625.5,-621 894.5,-621 894.5,-547 625.5,-547"/>
<text text-anchor="middle" x="760" y="-609.8" font-family="Arial" font-size="8.00">Widget</text>
<polyline fill="none" stroke="black" points="625.5,-603 894.5,-603 "/>
<text text-anchor="start" x="633.5" y="-591.8" font-family="Arial" font-size="8.00">+ Info : WidgetInfo</text>
<text text-anchor="start" x="633.5" y="-581.8" font-family="Arial" font-size="8.00">+ IsVisible : bool virtual</text>
<polyline fill="none" stroke="black" points="625.5,-575 894.5,-575 "/>
<text text-anchor="start" x="633.5" y="-563.8" font-family="Arial" font-size="8.00">+ bounds () : Rectangle</text>
<text text-anchor="start" x="633.5" y="-553.8" font-family="Arial" font-size="8.00">+ Widget (GameState state, WidgetInfo info, DisplayLayer drawOrder)</text>
</g>
<!-- Box_Widget&#45;&gt;Box_ItemWidget -->
<g id="edge10" class="edge"><title>Box_Widget&#45;&gt;Box_ItemWidget</title>
<path fill="none" stroke="midnightblue" d="M760,-536.6C760,-522.366 760,-507.091 760,-494.094"/>
<polygon fill="none" stroke="midnightblue" points="756.5,-536.733 760,-546.733 763.5,-536.733 756.5,-536.733"/>
</g>
<!-- Box_DrawableGameStateComponent -->
<g id="node7" class="node"><title>Box_DrawableGameStateComponent</title>
<polygon fill="#fcfcda" stroke="black" points="594,-659 594,-743 926,-743 926,-659 594,-659"/>
<text text-anchor="middle" x="760" y="-731.8" font-family="Arial" font-size="8.00">DrawableGameStateComponent</text>
<polyline fill="none" stroke="black" points="594,-725 926,-725 "/>
<text text-anchor="start" x="602" y="-713.8" font-family="Arial" font-size="8.00">+ Index : DisplayLayer</text>
<text text-anchor="start" x="602" y="-703.8" font-family="Arial" font-size="8.00">&#45; _index : DisplayLayer</text>
<text text-anchor="start" x="602" y="-693.8" font-family="Arial" font-size="8.00">+ state : GameState</text>
<polyline fill="none" stroke="black" points="594,-687 926,-687 "/>
<text text-anchor="start" x="602" y="-675.8" font-family="Arial" font-size="8.00">+ DrawableGameStateComponent (GameState state, DisplayLayer index)</text>
<text text-anchor="start" x="602" y="-665.8" font-family="Arial" font-size="8.00">+ SubComponents (GameTime gameTime) : IEnumerable&lt;IGameStateComponent&gt; virtual</text>
</g>
<!-- Box_DrawableGameStateComponent&#45;&gt;Box_Widget -->
<g id="edge12" class="edge"><title>Box_DrawableGameStateComponent&#45;&gt;Box_Widget</title>
<path fill="none" stroke="midnightblue" d="M760,-648.482C760,-639.258 760,-629.834 760,-621.14"/>
<polygon fill="none" stroke="midnightblue" points="756.5,-648.76 760,-658.76 763.5,-648.76 756.5,-648.76"/>
</g>
<!-- Box_IGameStateComponent -->
<g id="node8" class="node"><title>Box_IGameStateComponent</title>
<polygon fill="#dafcda" stroke="black" points="488,-781 488,-835 796,-835 796,-781 488,-781"/>
<text text-anchor="middle" x="642" y="-823.8" font-family="Arial" font-size="8.00">IGameStateComponent</text>
<polyline fill="none" stroke="black" points="488,-817 796,-817 "/>
<text text-anchor="start" x="496" y="-805.8" font-family="Arial" font-size="8.00">+ Index : DisplayLayer</text>
<polyline fill="none" stroke="black" points="488,-799 796,-799 "/>
<text text-anchor="start" x="496" y="-787.8" font-family="Arial" font-size="8.00">+ SubComponents (GameTime gameTime) : IEnumerable&lt;IGameStateComponent&gt;</text>
</g>
<!-- Box_IGameStateComponent&#45;&gt;Box_DrawableGameStateComponent -->
<g id="edge16" class="edge"><title>Box_IGameStateComponent&#45;&gt;Box_DrawableGameStateComponent</title>
<path fill="none" stroke="midnightblue" d="M679.383,-774.102C690.133,-764.354 701.995,-753.598 713.236,-743.404"/>
<polygon fill="none" stroke="midnightblue" points="676.833,-771.689 671.776,-780.999 681.535,-776.875 676.833,-771.689"/>
</g>
<!-- Box_XnaDrawableGameComponent -->
<g id="node9" class="node"><title>Box_XnaDrawableGameComponent</title>
<polygon fill="#ffffff" stroke="black" points="814,-799 814,-817 944,-817 944,-799 814,-799"/>
<text text-anchor="middle" x="879" y="-805.8" font-family="Arial" font-size="8.00">Xna.DrawableGameComponent</text>
</g>
<!-- Box_XnaDrawableGameComponent&#45;&gt;Box_DrawableGameStateComponent -->
<g id="edge14" class="edge"><title>Box_XnaDrawableGameComponent&#45;&gt;Box_DrawableGameStateComponent</title>
<path fill="none" stroke="midnightblue" d="M861.226,-792.018C846.886,-779.124 826.035,-760.376 806.979,-743.241"/>
<polygon fill="none" stroke="midnightblue" points="859.078,-794.794 868.854,-798.877 863.758,-789.588 859.078,-794.794"/>
</g>
<!-- Box_XnaIGameComponent -->
<g id="node10" class="node"><title>Box_XnaIGameComponent</title>
<polygon fill="#ffffff" stroke="black" points="594,-873 594,-891 690,-891 690,-873 594,-873"/>
<text text-anchor="middle" x="642" y="-879.8" font-family="Arial" font-size="8.00">Xna.IGameComponent</text>
</g>
<!-- Box_XnaIGameComponent&#45;&gt;Box_IGameStateComponent -->
<g id="edge18" class="edge"><title>Box_XnaIGameComponent&#45;&gt;Box_IGameStateComponent</title>
<path fill="none" stroke="midnightblue" d="M642,-862.64C642,-854.2 642,-844.16 642,-835.004"/>
<polygon fill="none" stroke="midnightblue" points="638.5,-862.926 642,-872.926 645.5,-862.926 638.5,-862.926"/>
</g>
</g>
</svg>
