<?xml version="1.0" encoding="UTF-8" standalone="no"?>
<!DOCTYPE svg PUBLIC "-//W3C//DTD SVG 1.1//EN"
 "http://www.w3.org/Graphics/SVG/1.1/DTD/svg11.dtd">
<!-- Generated by graphviz version 2.26.3 (20100126.1600)
 -->
<!-- Title: MenuItem Pages: 1 -->
<svg width="753pt" height="480pt"
 viewBox="0.00 0.00 753.00 480.00" xmlns="http://www.w3.org/2000/svg" xmlns:xlink="http://www.w3.org/1999/xlink">
<g id="graph1" class="graph" transform="scale(1 1) rotate(0) translate(4 476)">
<title>MenuItem</title>
<polygon fill="white" stroke="white" points="-4,5 -4,-476 750,-476 750,5 -4,5"/>
<!-- Box_PipeColoring -->
<g id="node1" class="node"><title>Box_PipeColoring</title>
<polygon fill="#fcfcda" stroke="black" points="293,-1 293,-133 579,-133 579,-1 293,-1"/>
<text text-anchor="middle" x="436" y="-121.8" font-family="Helvetica,sans-Serif" font-size="8.00">PipeColoring</text>
<polyline fill="none" stroke="black" points="293,-113 579,-113 "/>
<text text-anchor="start" x="301" y="-101.8" font-family="Helvetica,sans-Serif" font-size="8.00">Attributes:</text>
<text text-anchor="start" x="301" y="-89.8" font-family="Helvetica,sans-Serif" font-size="8.00">+ ValidKeys : List&lt;Keys&gt;</text>
<text text-anchor="start" x="301" y="-77.8" font-family="Helvetica,sans-Serif" font-size="8.00">+ Knot : Knot</text>
<text text-anchor="start" x="301" y="-65.8" font-family="Helvetica,sans-Serif" font-size="8.00">+ IsKeyEventEnabled : bool</text>
<text text-anchor="start" x="301" y="-53.8" font-family="Helvetica,sans-Serif" font-size="8.00">Methods:</text>
<polyline fill="none" stroke="black" points="293,-45 579,-45 "/>
<text text-anchor="start" x="301" y="-33.8" font-family="Helvetica,sans-Serif" font-size="8.00">+ OnKeyEvent (List&lt;Keys&gt; key, KeyEvent keyEvent, GameTime gameTime)</text>
<text text-anchor="start" x="301" y="-21.8" font-family="Helvetica,sans-Serif" font-size="8.00">+ PipeColoring (GameState state)</text>
<text text-anchor="start" x="301" y="-9.8" font-family="Helvetica,sans-Serif" font-size="8.00">+ Update (GameTime gameTime)</text>
</g>
<!-- Box_GameStateComponent -->
<g id="node2" class="node"><title>Box_GameStateComponent</title>
<polygon fill="#fcfcda" stroke="black" points="100.5,-171 100.5,-291 441.5,-291 441.5,-171 100.5,-171"/>
<text text-anchor="middle" x="271" y="-279.8" font-family="Helvetica,sans-Serif" font-size="8.00">GameStateComponent</text>
<polyline fill="none" stroke="black" points="100.5,-271 441.5,-271 "/>
<text text-anchor="start" x="108.5" y="-259.8" font-family="Helvetica,sans-Serif" font-size="8.00">Attributes:</text>
<text text-anchor="start" x="108.5" y="-247.8" font-family="Helvetica,sans-Serif" font-size="8.00"># InputOrder : DisplayLayer</text>
<text text-anchor="start" x="108.5" y="-235.8" font-family="Helvetica,sans-Serif" font-size="8.00">+ state : GameState</text>
<text text-anchor="start" x="108.5" y="-223.8" font-family="Helvetica,sans-Serif" font-size="8.00">+ Index : int</text>
<text text-anchor="start" x="108.5" y="-211.8" font-family="Helvetica,sans-Serif" font-size="8.00">Methods:</text>
<polyline fill="none" stroke="black" points="100.5,-203 441.5,-203 "/>
<text text-anchor="start" x="108.5" y="-191.8" font-family="Helvetica,sans-Serif" font-size="8.00">+ GameStateComponent (GameState state, DisplayLayer inputOrder)</text>
<text text-anchor="start" x="108.5" y="-179.8" font-family="Helvetica,sans-Serif" font-size="8.00">+ SubComponents (GameTime gameTime) : IEnumerable&lt;IGameStateComponent&gt; virtual</text>
</g>
<!-- Box_GameStateComponent&#45;&gt;Box_PipeColoring -->
<g id="edge2" class="edge"><title>Box_GameStateComponent&#45;&gt;Box_PipeColoring</title>
<path fill="none" stroke="midnightblue" d="M338.796,-163.615C348.898,-153.574 359.305,-143.23 369.382,-133.214"/>
<polygon fill="none" stroke="midnightblue" points="336.128,-161.332 331.503,-170.864 341.063,-166.297 336.128,-161.332"/>
</g>
<!-- Box_IGameStateComponent -->
<g id="node3" class="node"><title>Box_IGameStateComponent</title>
<polygon fill="#dafcda" stroke="black" points="0,-329 0,-413 318,-413 318,-329 0,-329"/>
<text text-anchor="middle" x="159" y="-401.8" font-family="Helvetica,sans-Serif" font-size="8.00">IGameStateComponent</text>
<polyline fill="none" stroke="black" points="0,-393 318,-393 "/>
<text text-anchor="start" x="8" y="-381.8" font-family="Helvetica,sans-Serif" font-size="8.00">Attributes:</text>
<text text-anchor="start" x="8" y="-369.8" font-family="Helvetica,sans-Serif" font-size="8.00">+ Index : int</text>
<text text-anchor="start" x="8" y="-357.8" font-family="Helvetica,sans-Serif" font-size="8.00">Methods:</text>
<polyline fill="none" stroke="black" points="0,-349 318,-349 "/>
<text text-anchor="start" x="8" y="-337.8" font-family="Helvetica,sans-Serif" font-size="8.00">+ SubComponents (GameTime gameTime) : IEnumerable&lt;IGameStateComponent&gt;</text>
</g>
<!-- Box_IGameStateComponent&#45;&gt;Box_GameStateComponent -->
<g id="edge8" class="edge"><title>Box_IGameStateComponent&#45;&gt;Box_GameStateComponent</title>
<path fill="none" stroke="midnightblue" d="M192.497,-321.005C200,-311.314 208.136,-301.065 216.239,-291.09"/>
<polygon fill="none" stroke="midnightblue" points="189.675,-318.933 186.358,-328.995 195.226,-323.198 189.675,-318.933"/>
</g>
<!-- Box_IGameStateComponent&#45;&gt;Box_GameStateComponent -->
<g id="edge14" class="edge"><title>Box_IGameStateComponent&#45;&gt;Box_GameStateComponent</title>
<path fill="none" stroke="midnightblue" d="M205.255,-321.295C213.332,-311.519 221.681,-301.165 229.618,-291.09"/>
<polygon fill="none" stroke="midnightblue" points="202.554,-319.069 198.849,-328.995 207.935,-323.546 202.554,-319.069"/>
</g>
<!-- Box_IKeyEventListener -->
<g id="node4" class="node"><title>Box_IKeyEventListener</title>
<polygon fill="#dafcda" stroke="black" points="459,-177 459,-285 745,-285 745,-177 459,-177"/>
<text text-anchor="middle" x="602" y="-273.8" font-family="Helvetica,sans-Serif" font-size="8.00">IKeyEventListener</text>
<polyline fill="none" stroke="black" points="459,-265 745,-265 "/>
<text text-anchor="start" x="467" y="-253.8" font-family="Helvetica,sans-Serif" font-size="8.00">Attributes:</text>
<text text-anchor="start" x="467" y="-241.8" font-family="Helvetica,sans-Serif" font-size="8.00">+ ValidKeys : List&lt;Keys&gt;</text>
<text text-anchor="start" x="467" y="-229.8" font-family="Helvetica,sans-Serif" font-size="8.00">+ Index : int</text>
<text text-anchor="start" x="467" y="-217.8" font-family="Helvetica,sans-Serif" font-size="8.00">+ IsKeyEventEnabled : bool</text>
<text text-anchor="start" x="467" y="-205.8" font-family="Helvetica,sans-Serif" font-size="8.00">Methods:</text>
<polyline fill="none" stroke="black" points="459,-197 745,-197 "/>
<text text-anchor="start" x="467" y="-185.8" font-family="Helvetica,sans-Serif" font-size="8.00">+ OnKeyEvent (List&lt;Keys&gt; key, KeyEvent keyEvent, GameTime gameTime)</text>
</g>
<!-- Box_IKeyEventListener&#45;&gt;Box_PipeColoring -->
<g id="edge4" class="edge"><title>Box_IKeyEventListener&#45;&gt;Box_PipeColoring</title>
<path fill="none" stroke="midnightblue" d="M539.781,-169.531C527.744,-157.638 515.083,-145.13 502.904,-133.098"/>
<polygon fill="none" stroke="midnightblue" points="537.612,-172.307 547.185,-176.846 542.531,-167.328 537.612,-172.307"/>
</g>
<!-- Box_XnaGameComponent -->
<g id="node5" class="node"><title>Box_XnaGameComponent</title>
<polygon fill="#ffffff" stroke="black" points="335.5,-361 335.5,-381 432.5,-381 432.5,-361 335.5,-361"/>
<text text-anchor="middle" x="384" y="-369.8" font-family="Helvetica,sans-Serif" font-size="8.00">Xna.GameComponent</text>
</g>
<!-- Box_XnaGameComponent&#45;&gt;Box_GameStateComponent -->
<g id="edge6" class="edge"><title>Box_XnaGameComponent&#45;&gt;Box_GameStateComponent</title>
<path fill="none" stroke="midnightblue" d="M365.232,-353.507C350.878,-337.756 330.755,-313.667 312.743,-291.004"/>
<polygon fill="none" stroke="midnightblue" points="362.785,-356.015 372.17,-360.932 367.9,-351.235 362.785,-356.015"/>
</g>
<!-- Box_XnaGameComponent&#45;&gt;Box_GameStateComponent -->
<g id="edge12" class="edge"><title>Box_XnaGameComponent&#45;&gt;Box_GameStateComponent</title>
<path fill="none" stroke="midnightblue" d="M373.912,-352.631C362.768,-336.873 344.352,-313.251 326.12,-291.004"/>
<polygon fill="none" stroke="midnightblue" points="371.048,-354.645 379.576,-360.932 376.83,-350.699 371.048,-354.645"/>
</g>
<!-- Box_XnaIGameComponent -->
<g id="node6" class="node"><title>Box_XnaIGameComponent</title>
<polygon fill="#ffffff" stroke="black" points="109.5,-451 109.5,-471 208.5,-471 208.5,-451 109.5,-451"/>
<text text-anchor="middle" x="159" y="-459.8" font-family="Helvetica,sans-Serif" font-size="8.00">Xna.IGameComponent</text>
</g>
<!-- Box_XnaIGameComponent&#45;&gt;Box_IGameStateComponent -->
<g id="edge10" class="edge"><title>Box_XnaIGameComponent&#45;&gt;Box_IGameStateComponent</title>
<path fill="none" stroke="midnightblue" d="M153.253,-440.731C152.518,-432.612 152.187,-422.936 152.26,-413.414"/>
<polygon fill="none" stroke="midnightblue" points="149.783,-441.192 154.506,-450.676 156.728,-440.317 149.783,-441.192"/>
</g>
<!-- Box_XnaIGameComponent&#45;&gt;Box_IGameStateComponent -->
<g id="edge16" class="edge"><title>Box_XnaIGameComponent&#45;&gt;Box_IGameStateComponent</title>
<path fill="none" stroke="midnightblue" d="M164.747,-440.731C165.482,-432.612 165.813,-422.936 165.74,-413.414"/>
<polygon fill="none" stroke="midnightblue" points="161.272,-440.317 163.494,-450.676 168.217,-441.192 161.272,-440.317"/>
</g>
</g>
</svg>
