<?xml version="1.0" encoding="UTF-8" standalone="no"?>
<!DOCTYPE svg PUBLIC "-//W3C//DTD SVG 1.1//EN"
 "http://www.w3.org/Graphics/SVG/1.1/DTD/svg11.dtd">
<!-- Generated by graphviz version 2.26.3 (20100126.1600)
 -->
<!-- Title: MenuItem Pages: 1 -->
<svg width="1567pt" height="2492pt"
 viewBox="0.00 0.00 376.00 598.00" xmlns="http://www.w3.org/2000/svg" xmlns:xlink="http://www.w3.org/1999/xlink">
<g id="graph1" class="graph" transform="scale(4.16667 4.16667) rotate(0) translate(4 594)">
<title>MenuItem</title>
<polygon fill="white" stroke="white" points="-4,5 -4,-594 373,-594 373,5 -4,5"/>
<!-- Box_StartScreen -->
<g id="node1" class="node"><title>Box_StartScreen</title>
<polygon fill="#fcfcda" stroke="black" points="108,-1 108,-115 260,-115 260,-1 108,-1"/>
<text text-anchor="middle" x="184" y="-103.8" font-family="Arial" font-size="8.00">StartScreen</text>
<polyline fill="none" stroke="black" points="108,-97 260,-97 "/>
<text text-anchor="start" x="116" y="-85.8" font-family="Arial" font-size="8.00">&#45; spriteBatch : SpriteBatch</text>
<text text-anchor="start" x="116" y="-75.8" font-family="Arial" font-size="8.00">&#45; logo : Texture2D</text>
<text text-anchor="start" x="116" y="-65.8" font-family="Arial" font-size="8.00"># menu : Menu</text>
<polyline fill="none" stroke="black" points="108,-59 260,-59 "/>
<text text-anchor="start" x="116" y="-47.8" font-family="Arial" font-size="8.00">+ StartScreen (Game game)</text>
<text text-anchor="start" x="116" y="-37.8" font-family="Arial" font-size="8.00">+ Activate (GameTime gameTime)</text>
<text text-anchor="start" x="116" y="-27.8" font-family="Arial" font-size="8.00">+ UpdateMenu (GameTime gameTime)</text>
<text text-anchor="start" x="116" y="-17.8" font-family="Arial" font-size="8.00">+ DrawMenu (GameTime gameTime)</text>
<text text-anchor="start" x="116" y="-7.8" font-family="Arial" font-size="8.00">+ Initialize ()</text>
</g>
<!-- Box_MenuScreen -->
<g id="node2" class="node"><title>Box_MenuScreen</title>
<polygon fill="#fcfcda" stroke="black" points="90,-153 90,-337 278,-337 278,-153 90,-153"/>
<text text-anchor="middle" x="184" y="-325.8" font-family="Arial" font-size="8.00">MenuScreen</text>
<polyline fill="none" stroke="black" points="90,-319 278,-319 "/>
<text text-anchor="start" x="98" y="-307.8" font-family="Arial" font-size="8.00">&#45; backColor : Color</text>
<text text-anchor="start" x="98" y="-297.8" font-family="Arial" font-size="8.00">&#45; pointer : MousePointer</text>
<text text-anchor="start" x="98" y="-287.8" font-family="Arial" font-size="8.00"># LinePoints : List&lt;Vector2&gt;</text>
<text text-anchor="start" x="98" y="-277.8" font-family="Arial" font-size="8.00"># LineWidth : int</text>
<text text-anchor="start" x="98" y="-267.8" font-family="Arial" font-size="8.00">&#45; spriteBatch : SpriteBatch</text>
<polyline fill="none" stroke="black" points="90,-261 278,-261 "/>
<text text-anchor="start" x="98" y="-249.8" font-family="Arial" font-size="8.00">+ MenuScreen (Core.Game game)</text>
<text text-anchor="start" x="98" y="-239.8" font-family="Arial" font-size="8.00">+ Activate (GameTime gameTime)</text>
<text text-anchor="start" x="98" y="-229.8" font-family="Arial" font-size="8.00">+ Draw (GameTime gameTime)</text>
<text text-anchor="start" x="98" y="-219.8" font-family="Arial" font-size="8.00"># BackgroundColor (ItemState itemState) : Color</text>
<text text-anchor="start" x="98" y="-209.8" font-family="Arial" font-size="8.00"># ForegroundColor (ItemState itemState) : Color</text>
<text text-anchor="start" x="98" y="-199.8" font-family="Arial" font-size="8.00">+ DrawMenu (GameTime gameTime) abstract</text>
<text text-anchor="start" x="98" y="-189.8" font-family="Arial" font-size="8.00">+ UpdateMenu (GameTime gameTime) abstract</text>
<text text-anchor="start" x="98" y="-179.8" font-family="Arial" font-size="8.00">+ Initialize ()</text>
<text text-anchor="start" x="98" y="-169.8" font-family="Arial" font-size="8.00">+ Unload ()</text>
<text text-anchor="start" x="98" y="-159.8" font-family="Arial" font-size="8.00">+ Update (GameTime gameTime)</text>
</g>
<!-- Box_MenuScreen&#45;&gt;Box_StartScreen -->
<g id="edge2" class="edge"><title>Box_MenuScreen&#45;&gt;Box_StartScreen</title>
<path fill="none" stroke="midnightblue" d="M184,-142.596C184,-133.155 184,-123.836 184,-115.029"/>
<polygon fill="none" stroke="midnightblue" points="180.5,-142.87 184,-152.87 187.5,-142.87 180.5,-142.87"/>
</g>
<!-- Box_GameState -->
<g id="node3" class="node"><title>Box_GameState</title>
<polygon fill="#fcfcda" stroke="black" points="-0.5,-375 -0.5,-589 368.5,-589 368.5,-375 -0.5,-375"/>
<text text-anchor="middle" x="184" y="-577.8" font-family="Arial" font-size="8.00">GameState</text>
<polyline fill="none" stroke="black" points="-0.5,-571 368.5,-571 "/>
<text text-anchor="start" x="7.5" y="-559.8" font-family="Arial" font-size="8.00">+ content : ContentManager</text>
<text text-anchor="start" x="7.5" y="-549.8" font-family="Arial" font-size="8.00">+ NextState : GameState</text>
<text text-anchor="start" x="7.5" y="-539.8" font-family="Arial" font-size="8.00">+ device : GraphicsDevice</text>
<text text-anchor="start" x="7.5" y="-529.8" font-family="Arial" font-size="8.00">+ RenderEffects : RenderEffectStack</text>
<text text-anchor="start" x="7.5" y="-519.8" font-family="Arial" font-size="8.00">+ viewport : Viewport</text>
<text text-anchor="start" x="7.5" y="-509.8" font-family="Arial" font-size="8.00">+ game : Game</text>
<text text-anchor="start" x="7.5" y="-499.8" font-family="Arial" font-size="8.00">+ graphics : GraphicsDeviceManager</text>
<text text-anchor="start" x="7.5" y="-489.8" font-family="Arial" font-size="8.00">+ input : Input</text>
<text text-anchor="start" x="7.5" y="-479.8" font-family="Arial" font-size="8.00">+ PostProcessing : RenderEffect</text>
<polyline fill="none" stroke="black" points="-0.5,-473 368.5,-473 "/>
<text text-anchor="start" x="7.5" y="-461.8" font-family="Arial" font-size="8.00">+ Draw (GameTime gameTime) abstract</text>
<text text-anchor="start" x="7.5" y="-451.8" font-family="Arial" font-size="8.00">+ Initialize () abstract</text>
<text text-anchor="start" x="7.5" y="-441.8" font-family="Arial" font-size="8.00">+ Unload () abstract</text>
<text text-anchor="start" x="7.5" y="-431.8" font-family="Arial" font-size="8.00">+ Activate (GameTime gameTime) virtual</text>
<text text-anchor="start" x="7.5" y="-421.8" font-family="Arial" font-size="8.00">+ GameState (Game game)</text>
<text text-anchor="start" x="7.5" y="-411.8" font-family="Arial" font-size="8.00">+ Update (GameTime gameTime) abstract</text>
<text text-anchor="start" x="7.5" y="-401.8" font-family="Arial" font-size="8.00">+ Deactivate (GameTime gameTime) virtual</text>
<text text-anchor="start" x="7.5" y="-391.8" font-family="Arial" font-size="8.00">+ AddGameComponents (GameTime gameTime, params IGameStateComponent[] components)</text>
<text text-anchor="start" x="7.5" y="-381.8" font-family="Arial" font-size="8.00">+ RemoveGameComponents (GameTime gameTime, params IGameStateComponent[] components)</text>
</g>
<!-- Box_GameState&#45;&gt;Box_MenuScreen -->
<g id="edge4" class="edge"><title>Box_GameState&#45;&gt;Box_MenuScreen</title>
<path fill="none" stroke="midnightblue" d="M184,-364.846C184,-355.529 184,-346.201 184,-337.092"/>
<polygon fill="none" stroke="midnightblue" points="180.5,-364.941 184,-374.941 187.5,-364.941 180.5,-364.941"/>
</g>
</g>
</svg>
