<?xml version="1.0" encoding="UTF-8" standalone="no"?>
<!DOCTYPE svg PUBLIC "-//W3C//DTD SVG 1.1//EN"
 "http://www.w3.org/Graphics/SVG/1.1/DTD/svg11.dtd">
<!-- Generated by graphviz version 2.26.3 (20100126.1600)
 -->
<!-- Title: MenuItem Pages: 1 -->
<svg width="1325pt" height="1692pt"
 viewBox="0.00 0.00 318.00 406.00" xmlns="http://www.w3.org/2000/svg" xmlns:xlink="http://www.w3.org/1999/xlink">
<g id="graph1" class="graph" transform="scale(4.16667 4.16667) rotate(0) translate(4 402)">
<title>MenuItem</title>
<polygon fill="white" stroke="white" points="-4,5 -4,-402 315,-402 315,5 -4,5"/>
<!-- Box_ModelRenderer -->
<g id="node1" class="node"><title>Box_ModelRenderer</title>
<polygon fill="#fcfcda" stroke="black" points="51.5,-1 51.5,-265 290.5,-265 290.5,-1 51.5,-1"/>
<text text-anchor="middle" x="171" y="-253.8" font-family="Arial" font-size="8.00">ModelRenderer</text>
<polyline fill="none" stroke="black" points="51.5,-247 290.5,-247 "/>
<text text-anchor="start" x="59.5" y="-235.8" font-family="Arial" font-size="8.00">&#45; arrows : List&lt;ArrowModel&gt;</text>
<text text-anchor="start" x="59.5" y="-225.8" font-family="Arial" font-size="8.00">&#45; nodes : List&lt;NodeModel&gt;</text>
<text text-anchor="start" x="59.5" y="-215.8" font-family="Arial" font-size="8.00">&#45; pipes : List&lt;PipeModel&gt;</text>
<text text-anchor="start" x="59.5" y="-205.8" font-family="Arial" font-size="8.00">&#45; arrowFactory : ModelFactory</text>
<text text-anchor="start" x="59.5" y="-195.8" font-family="Arial" font-size="8.00">&#45; nodeFactory : ModelFactory</text>
<text text-anchor="start" x="59.5" y="-185.8" font-family="Arial" font-size="8.00">&#45; pipeFactory : ModelFactory</text>
<text text-anchor="start" x="59.5" y="-175.8" font-family="Arial" font-size="8.00">+ Info : GameObjectInfo</text>
<text text-anchor="start" x="59.5" y="-165.8" font-family="Arial" font-size="8.00">&#45; screen : GameScreen</text>
<text text-anchor="start" x="59.5" y="-155.8" font-family="Arial" font-size="8.00">&#45; knot : Knot</text>
<text text-anchor="start" x="59.5" y="-145.8" font-family="Arial" font-size="8.00">+ Knot : Knot</text>
<text text-anchor="start" x="59.5" y="-135.8" font-family="Arial" font-size="8.00">+ World : World</text>
<polyline fill="none" stroke="black" points="51.5,-129 290.5,-129 "/>
<text text-anchor="start" x="59.5" y="-117.8" font-family="Arial" font-size="8.00">&#45; nodeMap () : NodeMap</text>
<text text-anchor="start" x="59.5" y="-107.8" font-family="Arial" font-size="8.00">&#45; IEnumerable.GetEnumerator () : IEnumerator</text>
<text text-anchor="start" x="59.5" y="-97.8" font-family="Arial" font-size="8.00">&#45; CreateArrow (Edge edge)</text>
<text text-anchor="start" x="59.5" y="-87.8" font-family="Arial" font-size="8.00">+ Draw (GameTime time)</text>
<text text-anchor="start" x="59.5" y="-77.8" font-family="Arial" font-size="8.00">+ OnEdgesChanged ()</text>
<text text-anchor="start" x="59.5" y="-67.8" font-family="Arial" font-size="8.00">+ Update (GameTime time)</text>
<text text-anchor="start" x="59.5" y="-57.8" font-family="Arial" font-size="8.00">&#45; CreateArrows (IList&lt;Edge&gt; selectedEdges)</text>
<text text-anchor="start" x="59.5" y="-47.8" font-family="Arial" font-size="8.00">+ Intersects (Ray ray) : GameObjectDistance</text>
<text text-anchor="start" x="59.5" y="-37.8" font-family="Arial" font-size="8.00">+ GetEnumerator () : IEnumerator&lt;IGameObject&gt;</text>
<text text-anchor="start" x="59.5" y="-27.8" font-family="Arial" font-size="8.00">+ ModelRenderer (GameScreen screen, GameObjectInfo info)</text>
<text text-anchor="start" x="59.5" y="-17.8" font-family="Arial" font-size="8.00">+ Center () : Vector3</text>
<text text-anchor="start" x="59.5" y="-7.8" font-family="Arial" font-size="8.00">+ CreateArrows (IEnumerable&lt;Edge&gt; selectedEdges)</text>
</g>
<!-- Box_IGameObject -->
<g id="node2" class="node"><title>Box_IGameObject</title>
<polygon fill="#dafcda" stroke="black" points="-0.5,-303 -0.5,-397 178.5,-397 178.5,-303 -0.5,-303"/>
<text text-anchor="middle" x="89" y="-385.8" font-family="Arial" font-size="8.00">IGameObject</text>
<polyline fill="none" stroke="black" points="-0.5,-379 178.5,-379 "/>
<text text-anchor="start" x="7.5" y="-367.8" font-family="Arial" font-size="8.00">+ Info : GameObjectInfo</text>
<text text-anchor="start" x="7.5" y="-357.8" font-family="Arial" font-size="8.00">+ World : World</text>
<polyline fill="none" stroke="black" points="-0.5,-351 178.5,-351 "/>
<text text-anchor="start" x="7.5" y="-339.8" font-family="Arial" font-size="8.00">+ Draw (GameTime time)</text>
<text text-anchor="start" x="7.5" y="-329.8" font-family="Arial" font-size="8.00">+ Update (GameTime time)</text>
<text text-anchor="start" x="7.5" y="-319.8" font-family="Arial" font-size="8.00">+ Intersects (Ray ray) : GameObjectDistance</text>
<text text-anchor="start" x="7.5" y="-309.8" font-family="Arial" font-size="8.00">+ Center () : Vector3</text>
</g>
<!-- Box_IGameObject&#45;&gt;Box_ModelRenderer -->
<g id="edge2" class="edge"><title>Box_IGameObject&#45;&gt;Box_ModelRenderer</title>
<path fill="none" stroke="midnightblue" d="M110.349,-293.503C113.716,-284.593 117.314,-275.071 121.015,-265.277"/>
<polygon fill="none" stroke="midnightblue" points="107.054,-292.323 106.793,-302.914 113.602,-294.797 107.054,-292.323"/>
</g>
<!-- Box_IEnumerable -->
<g id="node3" class="node"><title>Box_IEnumerable</title>
<polygon fill="#ffffff" stroke="black" points="195.5,-341 195.5,-359 310.5,-359 310.5,-341 195.5,-341"/>
<text text-anchor="middle" x="253" y="-347.8" font-family="Arial" font-size="8.00">IEnumerable&lt;IGameObject&gt;</text>
</g>
<!-- Box_IEnumerable&#45;&gt;Box_ModelRenderer -->
<g id="edge4" class="edge"><title>Box_IEnumerable&#45;&gt;Box_ModelRenderer</title>
<path fill="none" stroke="midnightblue" d="M245.982,-331.429C240.002,-315.602 230.819,-291.302 220.907,-265.071"/>
<polygon fill="none" stroke="midnightblue" points="242.772,-332.835 249.581,-340.952 249.32,-330.36 242.772,-332.835"/>
</g>
</g>
</svg>
