<?xml version="1.0" encoding="UTF-8" standalone="no"?>
<!DOCTYPE svg PUBLIC "-//W3C//DTD SVG 1.1//EN"
 "http://www.w3.org/Graphics/SVG/1.1/DTD/svg11.dtd">
<!-- Generated by graphviz version 2.26.3 (20100126.1600)
 -->
<!-- Title: MenuItem Pages: 1 -->
<svg width="1850pt" height="1317pt"
 viewBox="0.00 0.00 444.00 316.00" xmlns="http://www.w3.org/2000/svg" xmlns:xlink="http://www.w3.org/1999/xlink">
<g id="graph1" class="graph" transform="scale(4.16667 4.16667) rotate(0) translate(4 312)">
<title>MenuItem</title>
<polygon fill="white" stroke="white" points="-4,5 -4,-312 441,-312 441,5 -4,5"/>
<!-- Box_IKnotIO -->
<g id="node1" class="node"><title>Box_IKnotIO</title>
<polygon fill="#dafcda" stroke="black" points="213.5,-223 213.5,-307 336.5,-307 336.5,-223 213.5,-223"/>
<text text-anchor="middle" x="275" y="-295.8" font-family="Arial" font-size="8.00">IKnotIO</text>
<polyline fill="none" stroke="black" points="213.5,-289 336.5,-289 "/>
<text text-anchor="start" x="221.5" y="-277.8" font-family="Arial" font-size="8.00">+ Edges : IEnumerable&lt;Edge&gt;</text>
<text text-anchor="start" x="221.5" y="-267.8" font-family="Arial" font-size="8.00">+ CountEdges : int</text>
<text text-anchor="start" x="221.5" y="-257.8" font-family="Arial" font-size="8.00">+ Name : string</text>
<text text-anchor="start" x="221.5" y="-247.8" font-family="Arial" font-size="8.00">+ Hash : string</text>
<polyline fill="none" stroke="black" points="213.5,-241 336.5,-241 "/>
<text text-anchor="start" x="221.5" y="-229.8" font-family="Arial" font-size="8.00">+ Save (Knot knot)</text>
</g>
<!-- Box_KnotFileIO -->
<g id="node2" class="node"><title>Box_KnotFileIO</title>
<polygon fill="#fcfcda" stroke="black" points="-0.5,-21 -0.5,-165 226.5,-165 226.5,-21 -0.5,-21"/>
<text text-anchor="middle" x="113" y="-153.8" font-family="Arial" font-size="8.00">KnotFileIO</text>
<polyline fill="none" stroke="black" points="-0.5,-147 226.5,-147 "/>
<text text-anchor="start" x="7.5" y="-135.8" font-family="Arial" font-size="8.00">+ CountEdges : int</text>
<text text-anchor="start" x="7.5" y="-125.8" font-family="Arial" font-size="8.00">+ Hash : string</text>
<text text-anchor="start" x="7.5" y="-115.8" font-family="Arial" font-size="8.00">+ Name : string</text>
<text text-anchor="start" x="7.5" y="-105.8" font-family="Arial" font-size="8.00">&#45; parser : KnotStringIO</text>
<text text-anchor="start" x="7.5" y="-95.8" font-family="Arial" font-size="8.00">+ Edges : IEnumerable&lt;Edge&gt;</text>
<text text-anchor="start" x="7.5" y="-85.8" font-family="Arial" font-size="8.00">+ FileExtensions : string[] static</text>
<polyline fill="none" stroke="black" points="-0.5,-79 226.5,-79 "/>
<text text-anchor="start" x="7.5" y="-67.8" font-family="Arial" font-size="8.00">+ KnotFileIO (Knot knot)</text>
<text text-anchor="start" x="7.5" y="-57.8" font-family="Arial" font-size="8.00">+ Save (Knot knot)</text>
<text text-anchor="start" x="7.5" y="-47.8" font-family="Arial" font-size="8.00">+ KnotFileIO (string filename)</text>
<text text-anchor="start" x="7.5" y="-37.8" font-family="Arial" font-size="8.00">+ ConvertToFilename (string humanReadableName) : string</text>
<text text-anchor="start" x="7.5" y="-27.8" font-family="Arial" font-size="8.00">+ ToString () : string</text>
</g>
<!-- Box_IKnotIO&#45;&gt;Box_KnotFileIO -->
<g id="edge4" class="edge"><title>Box_IKnotIO&#45;&gt;Box_KnotFileIO</title>
<path fill="none" stroke="midnightblue" d="M228.283,-215.399C213.517,-199.722 196.887,-182.065 180.95,-165.144"/>
<polygon fill="none" stroke="midnightblue" points="225.966,-218.044 235.37,-222.924 231.062,-213.245 225.966,-218.044"/>
</g>
<!-- Box_KnotStringIO -->
<g id="node3" class="node"><title>Box_KnotStringIO</title>
<polygon fill="#fcfcda" stroke="black" points="243.5,-1 243.5,-185 436.5,-185 436.5,-1 243.5,-1"/>
<text text-anchor="middle" x="340" y="-173.8" font-family="Arial" font-size="8.00">KnotStringIO</text>
<polyline fill="none" stroke="black" points="243.5,-167 436.5,-167 "/>
<text text-anchor="start" x="251.5" y="-155.8" font-family="Arial" font-size="8.00">&#45; lines : IEnumerable&lt;string&gt;</text>
<text text-anchor="start" x="251.5" y="-145.8" font-family="Arial" font-size="8.00">+ Edges : IEnumerable&lt;Edge&gt;</text>
<text text-anchor="start" x="251.5" y="-135.8" font-family="Arial" font-size="8.00">+ CountEdges : int</text>
<text text-anchor="start" x="251.5" y="-125.8" font-family="Arial" font-size="8.00">+ Hash : string</text>
<text text-anchor="start" x="251.5" y="-115.8" font-family="Arial" font-size="8.00">+ Name : string</text>
<text text-anchor="start" x="251.5" y="-105.8" font-family="Arial" font-size="8.00">+ Content : string</text>
<polyline fill="none" stroke="black" points="243.5,-99 436.5,-99 "/>
<text text-anchor="start" x="251.5" y="-87.8" font-family="Arial" font-size="8.00">&#45; DecodeEdge (char c) : Edge static</text>
<text text-anchor="start" x="251.5" y="-77.8" font-family="Arial" font-size="8.00">&#45; EncodeEdge (Edge edge) : char static</text>
<text text-anchor="start" x="251.5" y="-67.8" font-family="Arial" font-size="8.00">&#45; DecodeColor (string hexString) : Color static</text>
<text text-anchor="start" x="251.5" y="-57.8" font-family="Arial" font-size="8.00">&#45; ToLines (Knot knot) : IEnumerable&lt;string&gt; static</text>
<text text-anchor="start" x="251.5" y="-47.8" font-family="Arial" font-size="8.00">&#45; EncodeColor (Color c) : String static</text>
<text text-anchor="start" x="251.5" y="-37.8" font-family="Arial" font-size="8.00">+ KnotStringIO (Knot knot)</text>
<text text-anchor="start" x="251.5" y="-27.8" font-family="Arial" font-size="8.00">+ KnotStringIO (string content)</text>
<text text-anchor="start" x="251.5" y="-17.8" font-family="Arial" font-size="8.00">+ ToString () : string</text>
<text text-anchor="start" x="251.5" y="-7.8" font-family="Arial" font-size="8.00">+ Save (Knot knot)</text>
</g>
<!-- Box_IKnotIO&#45;&gt;Box_KnotStringIO -->
<g id="edge6" class="edge"><title>Box_IKnotIO&#45;&gt;Box_KnotStringIO</title>
<path fill="none" stroke="midnightblue" d="M294.481,-213.449C297.871,-204.479 301.488,-194.91 305.144,-185.235"/>
<polygon fill="none" stroke="midnightblue" points="291.162,-212.332 290.901,-222.924 297.71,-214.807 291.162,-212.332"/>
</g>
<!-- Box_FileIO -->
<g id="node4" class="node"><title>Box_FileIO</title>
<polygon fill="#ffffff" stroke="black" points="95,-256 95,-274 131,-274 131,-256 95,-256"/>
<text text-anchor="middle" x="113" y="-262.8" font-family="Arial" font-size="8.00">FileIO</text>
</g>
<!-- Box_FileIO&#45;&gt;Box_KnotFileIO -->
<g id="edge2" class="edge"><title>Box_FileIO&#45;&gt;Box_KnotFileIO</title>
<path fill="none" stroke="midnightblue" d="M113,-245.709C113,-226.124 113,-194.586 113,-165.243"/>
<polygon fill="none" stroke="midnightblue" points="109.5,-245.752 113,-255.753 116.5,-245.753 109.5,-245.752"/>
</g>
</g>
</svg>
