<?xml version="1.0" encoding="UTF-8" standalone="no"?>
<!DOCTYPE svg PUBLIC "-//W3C//DTD SVG 1.1//EN"
 "http://www.w3.org/Graphics/SVG/1.1/DTD/svg11.dtd">
<!-- Generated by graphviz version 2.26.3 (20100126.1600)
 -->
<!-- Title: MenuItem Pages: 1 -->
<svg width="2912pt" height="1517pt"
 viewBox="0.00 0.00 699.00 364.00" xmlns="http://www.w3.org/2000/svg" xmlns:xlink="http://www.w3.org/1999/xlink">
<g id="graph1" class="graph" transform="scale(4.16667 4.16667) rotate(0) translate(4 360)">
<title>MenuItem</title>
<polygon fill="white" stroke="white" points="-4,5 -4,-360 696,-360 696,5 -4,5"/>
<!-- Box_EdgeColoring -->
<g id="node1" class="node"><title>Box_EdgeColoring</title>
<polygon fill="#fcfcda" stroke="black" points="272.5,-1 272.5,-95 537.5,-95 537.5,-1 272.5,-1"/>
<text text-anchor="middle" x="405" y="-83.8" font-family="Arial" font-size="8.00">EdgeColoring</text>
<polyline fill="none" stroke="black" points="272.5,-77 537.5,-77 "/>
<text text-anchor="start" x="280.5" y="-65.8" font-family="Arial" font-size="8.00">+ ValidKeys : List&lt;Keys&gt;</text>
<text text-anchor="start" x="280.5" y="-55.8" font-family="Arial" font-size="8.00">+ Knot : Knot</text>
<text text-anchor="start" x="280.5" y="-45.8" font-family="Arial" font-size="8.00">+ IsKeyEventEnabled : bool</text>
<polyline fill="none" stroke="black" points="272.5,-39 537.5,-39 "/>
<text text-anchor="start" x="280.5" y="-27.8" font-family="Arial" font-size="8.00">+ OnKeyEvent (List&lt;Keys&gt; key, KeyEvent keyEvent, GameTime time)</text>
<text text-anchor="start" x="280.5" y="-17.8" font-family="Arial" font-size="8.00">+ EdgeColoring (GameScreen screen)</text>
<text text-anchor="start" x="280.5" y="-7.8" font-family="Arial" font-size="8.00">+ Update (GameTime time)</text>
</g>
<!-- Box_GameScreenComponent -->
<g id="node2" class="node"><title>Box_GameScreenComponent</title>
<polygon fill="#fcfcda" stroke="black" points="92.5,-133 92.5,-207 409.5,-207 409.5,-133 92.5,-133"/>
<text text-anchor="middle" x="251" y="-195.8" font-family="Arial" font-size="8.00">GameScreenComponent</text>
<polyline fill="none" stroke="black" points="92.5,-189 409.5,-189 "/>
<text text-anchor="start" x="100.5" y="-177.8" font-family="Arial" font-size="8.00">+ Index : DisplayLayer</text>
<text text-anchor="start" x="100.5" y="-167.8" font-family="Arial" font-size="8.00">+ screen : GameScreen</text>
<polyline fill="none" stroke="black" points="92.5,-161 409.5,-161 "/>
<text text-anchor="start" x="100.5" y="-149.8" font-family="Arial" font-size="8.00">+ GameScreenComponent (GameScreen screen, DisplayLayer index)</text>
<text text-anchor="start" x="100.5" y="-139.8" font-family="Arial" font-size="8.00">+ SubComponents (GameTime time) : IEnumerable&lt;IGameScreenComponent&gt; virtual</text>
</g>
<!-- Box_GameScreenComponent&#45;&gt;Box_EdgeColoring -->
<g id="edge2" class="edge"><title>Box_GameScreenComponent&#45;&gt;Box_EdgeColoring</title>
<path fill="none" stroke="midnightblue" d="M305.894,-126.513C318.713,-116.358 332.425,-105.495 345.435,-95.1875"/>
<polygon fill="none" stroke="midnightblue" points="303.707,-123.78 298.042,-132.733 308.054,-129.267 303.707,-123.78"/>
</g>
<!-- Box_IGameScreenComponent -->
<g id="node3" class="node"><title>Box_IGameScreenComponent</title>
<polygon fill="#dafcda" stroke="black" points="-0.5,-245 -0.5,-299 292.5,-299 292.5,-245 -0.5,-245"/>
<text text-anchor="middle" x="146" y="-287.8" font-family="Arial" font-size="8.00">IGameScreenComponent</text>
<polyline fill="none" stroke="black" points="-0.5,-281 292.5,-281 "/>
<text text-anchor="start" x="7.5" y="-269.8" font-family="Arial" font-size="8.00">+ Index : DisplayLayer</text>
<polyline fill="none" stroke="black" points="-0.5,-263 292.5,-263 "/>
<text text-anchor="start" x="7.5" y="-251.8" font-family="Arial" font-size="8.00">+ SubComponents (GameTime time) : IEnumerable&lt;IGameScreenComponent&gt;</text>
</g>
<!-- Box_IGameScreenComponent&#45;&gt;Box_GameScreenComponent -->
<g id="edge8" class="edge"><title>Box_IGameScreenComponent&#45;&gt;Box_GameScreenComponent</title>
<path fill="none" stroke="midnightblue" d="M181.065,-237.937C191.229,-228.063 202.378,-217.233 212.728,-207.178"/>
<polygon fill="none" stroke="midnightblue" points="178.596,-235.455 173.862,-244.934 183.474,-240.476 178.596,-235.455"/>
</g>
<!-- Box_IKeyEventListener -->
<g id="node4" class="node"><title>Box_IKeyEventListener</title>
<polygon fill="#dafcda" stroke="black" points="426.5,-133 426.5,-207 691.5,-207 691.5,-133 426.5,-133"/>
<text text-anchor="middle" x="559" y="-195.8" font-family="Arial" font-size="8.00">IKeyEventListener</text>
<polyline fill="none" stroke="black" points="426.5,-189 691.5,-189 "/>
<text text-anchor="start" x="434.5" y="-177.8" font-family="Arial" font-size="8.00">+ ValidKeys : List&lt;Keys&gt;</text>
<text text-anchor="start" x="434.5" y="-167.8" font-family="Arial" font-size="8.00">+ Index : DisplayLayer</text>
<text text-anchor="start" x="434.5" y="-157.8" font-family="Arial" font-size="8.00">+ IsKeyEventEnabled : bool</text>
<polyline fill="none" stroke="black" points="426.5,-151 691.5,-151 "/>
<text text-anchor="start" x="434.5" y="-139.8" font-family="Arial" font-size="8.00">+ OnKeyEvent (List&lt;Keys&gt; key, KeyEvent keyEvent, GameTime time)</text>
</g>
<!-- Box_IKeyEventListener&#45;&gt;Box_EdgeColoring -->
<g id="edge4" class="edge"><title>Box_IKeyEventListener&#45;&gt;Box_EdgeColoring</title>
<path fill="none" stroke="midnightblue" d="M504.106,-126.513C491.287,-116.358 477.575,-105.495 464.565,-95.1875"/>
<polygon fill="none" stroke="midnightblue" points="501.946,-129.267 511.958,-132.733 506.293,-123.78 501.946,-129.267"/>
</g>
<!-- Box_XnaGameComponent -->
<g id="node5" class="node"><title>Box_XnaGameComponent</title>
<polygon fill="#ffffff" stroke="black" points="309.5,-263 309.5,-281 404.5,-281 404.5,-263 309.5,-263"/>
<text text-anchor="middle" x="357" y="-269.8" font-family="Arial" font-size="8.00">Xna.GameComponent</text>
</g>
<!-- Box_XnaGameComponent&#45;&gt;Box_GameScreenComponent -->
<g id="edge6" class="edge"><title>Box_XnaGameComponent&#45;&gt;Box_GameScreenComponent</title>
<path fill="none" stroke="midnightblue" d="M340.37,-255.998C326.786,-242.926 307.044,-223.929 289.568,-207.113"/>
<polygon fill="none" stroke="midnightblue" points="337.961,-258.536 347.593,-262.948 342.814,-253.492 337.961,-258.536"/>
</g>
<!-- Box_XnaIGameComponent -->
<g id="node6" class="node"><title>Box_XnaIGameComponent</title>
<polygon fill="#ffffff" stroke="black" points="98,-337 98,-355 194,-355 194,-337 98,-337"/>
<text text-anchor="middle" x="146" y="-343.8" font-family="Arial" font-size="8.00">Xna.IGameComponent</text>
</g>
<!-- Box_XnaIGameComponent&#45;&gt;Box_IGameScreenComponent -->
<g id="edge10" class="edge"><title>Box_XnaIGameComponent&#45;&gt;Box_IGameScreenComponent</title>
<path fill="none" stroke="midnightblue" d="M146,-326.64C146,-318.2 146,-308.16 146,-299.004"/>
<polygon fill="none" stroke="midnightblue" points="142.5,-326.926 146,-336.926 149.5,-326.926 142.5,-326.926"/>
</g>
</g>
</svg>
