<?xml version="1.0" encoding="UTF-8" standalone="no"?>
<!DOCTYPE svg PUBLIC "-//W3C//DTD SVG 1.1//EN"
 "http://www.w3.org/Graphics/SVG/1.1/DTD/svg11.dtd">
<!-- Generated by graphviz version 2.26.3 (20100126.1600)
 -->
<!-- Title: MenuItem Pages: 1 -->
<svg width="3233pt" height="3625pt"
 viewBox="0.00 0.00 776.00 870.00" xmlns="http://www.w3.org/2000/svg" xmlns:xlink="http://www.w3.org/1999/xlink">
<g id="graph1" class="graph" transform="scale(4.16667 4.16667) rotate(0) translate(4 866)">
<title>MenuItem</title>
<polygon fill="white" stroke="white" points="-4,5 -4,-866 773,-866 773,5 -4,5"/>
<!-- Box_ItemWidget -->
<g id="node1" class="node"><title>Box_ItemWidget</title>
<polygon fill="#fcfcda" stroke="black" points="419.5,-415 419.5,-479 748.5,-479 748.5,-415 419.5,-415"/>
<text text-anchor="middle" x="584" y="-467.8" font-family="Arial" font-size="8.00">ItemWidget</text>
<polyline fill="none" stroke="black" points="419.5,-461 748.5,-461 "/>
<text text-anchor="start" x="427.5" y="-449.8" font-family="Arial" font-size="8.00">+ ItemState : ItemState</text>
<text text-anchor="start" x="427.5" y="-439.8" font-family="Arial" font-size="8.00"># ItemNum : int</text>
<polyline fill="none" stroke="black" points="419.5,-433 748.5,-433 "/>
<text text-anchor="start" x="427.5" y="-421.8" font-family="Arial" font-size="8.00">+ ItemWidget (GameState state, WidgetInfo info, DisplayLayer drawOrder, int itemNum)</text>
</g>
<!-- Box_MenuItem -->
<g id="node5" class="node"><title>Box_MenuItem</title>
<polygon fill="#fcfcda" stroke="black" points="195,-193 195,-377 527,-377 527,-193 195,-193"/>
<text text-anchor="middle" x="361" y="-365.8" font-family="Arial" font-size="8.00">MenuItem</text>
<polyline fill="none" stroke="black" points="195,-359 527,-359 "/>
<text text-anchor="start" x="203" y="-347.8" font-family="Arial" font-size="8.00"># spriteBatch : SpriteBatch</text>
<text text-anchor="start" x="203" y="-337.8" font-family="Arial" font-size="8.00">+ IsMouseEventEnabled : bool</text>
<text text-anchor="start" x="203" y="-327.8" font-family="Arial" font-size="8.00">+ ValidKeys : List&lt;Keys&gt;</text>
<text text-anchor="start" x="203" y="-317.8" font-family="Arial" font-size="8.00">+ IsKeyEventEnabled : bool</text>
<text text-anchor="start" x="203" y="-307.8" font-family="Arial" font-size="8.00">+ Info : MenuItemInfo</text>
<polyline fill="none" stroke="black" points="195,-301 527,-301 "/>
<text text-anchor="start" x="203" y="-289.8" font-family="Arial" font-size="8.00">+ MenuItem (GameState state, DisplayLayer drawOrder, int itemNum, MenuItemInfo info)</text>
<text text-anchor="start" x="203" y="-279.8" font-family="Arial" font-size="8.00">+ Collapse () virtual</text>
<text text-anchor="start" x="203" y="-269.8" font-family="Arial" font-size="8.00">+ OnKeyEvent (List&lt;Keys&gt; key, KeyEvent keyEvent, GameTime gameTime)</text>
<text text-anchor="start" x="203" y="-259.8" font-family="Arial" font-size="8.00">+ OnLeftClick (Vector2 position, ClickState click, GameTime gameTime)</text>
<text text-anchor="start" x="203" y="-249.8" font-family="Arial" font-size="8.00">+ OnRightClick (Vector2 position, ClickState click, GameTime gameTime)</text>
<text text-anchor="start" x="203" y="-239.8" font-family="Arial" font-size="8.00">+ MinimumSize (SpriteFont font) : Vector2</text>
<text text-anchor="start" x="203" y="-229.8" font-family="Arial" font-size="8.00">+ TextPosition (SpriteFont font) : Vector2</text>
<text text-anchor="start" x="203" y="-219.8" font-family="Arial" font-size="8.00">+ TextPosition (SpriteFont font, Vector2 scale) : Vector2</text>
<text text-anchor="start" x="203" y="-209.8" font-family="Arial" font-size="8.00">+ Draw (GameTime gameTime)</text>
<text text-anchor="start" x="203" y="-199.8" font-family="Arial" font-size="8.00">+ SetHovered (bool hovered)</text>
</g>
<!-- Box_ItemWidget&#45;&gt;Box_MenuItem -->
<g id="edge12" class="edge"><title>Box_ItemWidget&#45;&gt;Box_MenuItem</title>
<path fill="none" stroke="midnightblue" d="M531.792,-409.073C518.347,-399.306 503.28,-388.36 487.812,-377.124"/>
<polygon fill="none" stroke="midnightblue" points="529.795,-411.948 539.942,-414.994 533.909,-406.285 529.795,-411.948"/>
</g>
<!-- Box_Widget -->
<g id="node2" class="node"><title>Box_Widget</title>
<polygon fill="#fcfcda" stroke="black" points="449.5,-517 449.5,-591 718.5,-591 718.5,-517 449.5,-517"/>
<text text-anchor="middle" x="584" y="-579.8" font-family="Arial" font-size="8.00">Widget</text>
<polyline fill="none" stroke="black" points="449.5,-573 718.5,-573 "/>
<text text-anchor="start" x="457.5" y="-561.8" font-family="Arial" font-size="8.00">+ Info : WidgetInfo</text>
<text text-anchor="start" x="457.5" y="-551.8" font-family="Arial" font-size="8.00">+ IsVisible : bool virtual</text>
<polyline fill="none" stroke="black" points="449.5,-545 718.5,-545 "/>
<text text-anchor="start" x="457.5" y="-533.8" font-family="Arial" font-size="8.00">+ bounds () : Rectangle</text>
<text text-anchor="start" x="457.5" y="-523.8" font-family="Arial" font-size="8.00">+ Widget (GameState state, WidgetInfo info, DisplayLayer drawOrder)</text>
</g>
<!-- Box_Widget&#45;&gt;Box_ItemWidget -->
<g id="edge2" class="edge"><title>Box_Widget&#45;&gt;Box_ItemWidget</title>
<path fill="none" stroke="midnightblue" d="M584,-506.849C584,-497.461 584,-487.808 584,-479.07"/>
<polygon fill="none" stroke="midnightblue" points="580.5,-506.877 584,-516.877 587.5,-506.877 580.5,-506.877"/>
</g>
<!-- Box_DrawableGameStateComponent -->
<g id="node3" class="node"><title>Box_DrawableGameStateComponent</title>
<polygon fill="#fcfcda" stroke="black" points="418,-629 418,-713 750,-713 750,-629 418,-629"/>
<text text-anchor="middle" x="584" y="-701.8" font-family="Arial" font-size="8.00">DrawableGameStateComponent</text>
<polyline fill="none" stroke="black" points="418,-695 750,-695 "/>
<text text-anchor="start" x="426" y="-683.8" font-family="Arial" font-size="8.00">+ Index : DisplayLayer</text>
<text text-anchor="start" x="426" y="-673.8" font-family="Arial" font-size="8.00">&#45; _index : DisplayLayer</text>
<text text-anchor="start" x="426" y="-663.8" font-family="Arial" font-size="8.00">+ state : GameState</text>
<polyline fill="none" stroke="black" points="418,-657 750,-657 "/>
<text text-anchor="start" x="426" y="-645.8" font-family="Arial" font-size="8.00">+ DrawableGameStateComponent (GameState state, DisplayLayer index)</text>
<text text-anchor="start" x="426" y="-635.8" font-family="Arial" font-size="8.00">+ SubComponents (GameTime gameTime) : IEnumerable&lt;IGameStateComponent&gt; virtual</text>
</g>
<!-- Box_DrawableGameStateComponent&#45;&gt;Box_Widget -->
<g id="edge4" class="edge"><title>Box_DrawableGameStateComponent&#45;&gt;Box_Widget</title>
<path fill="none" stroke="midnightblue" d="M584,-618.482C584,-609.258 584,-599.834 584,-591.14"/>
<polygon fill="none" stroke="midnightblue" points="580.5,-618.76 584,-628.76 587.5,-618.76 580.5,-618.76"/>
</g>
<!-- Box_IGameStateComponent -->
<g id="node4" class="node"><title>Box_IGameStateComponent</title>
<polygon fill="#dafcda" stroke="black" points="312,-751 312,-805 620,-805 620,-751 312,-751"/>
<text text-anchor="middle" x="466" y="-793.8" font-family="Arial" font-size="8.00">IGameStateComponent</text>
<polyline fill="none" stroke="black" points="312,-787 620,-787 "/>
<text text-anchor="start" x="320" y="-775.8" font-family="Arial" font-size="8.00">+ Index : DisplayLayer</text>
<polyline fill="none" stroke="black" points="312,-769 620,-769 "/>
<text text-anchor="start" x="320" y="-757.8" font-family="Arial" font-size="8.00">+ SubComponents (GameTime gameTime) : IEnumerable&lt;IGameStateComponent&gt;</text>
</g>
<!-- Box_IGameStateComponent&#45;&gt;Box_DrawableGameStateComponent -->
<g id="edge8" class="edge"><title>Box_IGameStateComponent&#45;&gt;Box_DrawableGameStateComponent</title>
<path fill="none" stroke="midnightblue" d="M503.383,-744.102C514.133,-734.354 525.995,-723.598 537.236,-713.404"/>
<polygon fill="none" stroke="midnightblue" points="500.833,-741.689 495.776,-750.999 505.535,-746.875 500.833,-741.689"/>
</g>
<!-- Box_DropDownMenu -->
<g id="node6" class="node"><title>Box_DropDownMenu</title>
<polygon fill="#fcfcda" stroke="black" points="-0.5,-1 -0.5,-155 356.5,-155 356.5,-1 -0.5,-1"/>
<text text-anchor="middle" x="178" y="-143.8" font-family="Arial" font-size="8.00">DropDownMenu</text>
<polyline fill="none" stroke="black" points="-0.5,-137 356.5,-137 "/>
<text text-anchor="start" x="7.5" y="-125.8" font-family="Arial" font-size="8.00">&#45; selected : MenuButton</text>
<text text-anchor="start" x="7.5" y="-115.8" font-family="Arial" font-size="8.00">&#45; dropdown : VerticalMenu</text>
<polyline fill="none" stroke="black" points="-0.5,-109 356.5,-109 "/>
<text text-anchor="start" x="7.5" y="-97.8" font-family="Arial" font-size="8.00">&#45; ValuePosition (int dummy) : Vector2</text>
<text text-anchor="start" x="7.5" y="-87.8" font-family="Arial" font-size="8.00">+ DropDownMenu (GameState state, DisplayLayer drawOrder, int itemNum, MenuItemInfo info)</text>
<text text-anchor="start" x="7.5" y="-77.8" font-family="Arial" font-size="8.00">&#45; DropDownBackgroundColor (ItemState itemState) : Color</text>
<text text-anchor="start" x="7.5" y="-67.8" font-family="Arial" font-size="8.00">&#45; DropDownForegroundColor (ItemState itemState) : Color</text>
<text text-anchor="start" x="7.5" y="-57.8" font-family="Arial" font-size="8.00">&#45; ValueSize (int dummy) : Vector2</text>
<text text-anchor="start" x="7.5" y="-47.8" font-family="Arial" font-size="8.00">+ SubComponents (GameTime gameTime) : IEnumerable&lt;IGameStateComponent&gt;</text>
<text text-anchor="start" x="7.5" y="-37.8" font-family="Arial" font-size="8.00">+ Collapse ()</text>
<text text-anchor="start" x="7.5" y="-27.8" font-family="Arial" font-size="8.00">+ Draw (GameTime gameTime)</text>
<text text-anchor="start" x="7.5" y="-17.8" font-family="Arial" font-size="8.00">+ AddEntries (DistinctOptionInfo option)</text>
<text text-anchor="start" x="7.5" y="-7.8" font-family="Arial" font-size="8.00">+ AddEntries (DropDownMenuItem[] entries, DropDownMenuItem defaultEntry)</text>
</g>
<!-- Box_MenuItem&#45;&gt;Box_DropDownMenu -->
<g id="edge18" class="edge"><title>Box_MenuItem&#45;&gt;Box_DropDownMenu</title>
<path fill="none" stroke="midnightblue" d="M272.645,-185.058C263.793,-175.045 254.902,-164.987 246.303,-155.261"/>
<polygon fill="none" stroke="midnightblue" points="270.156,-187.526 279.401,-192.7 275.4,-182.889 270.156,-187.526"/>
</g>
<!-- Box_MenuButton -->
<g id="node7" class="node"><title>Box_MenuButton</title>
<polygon fill="#fcfcda" stroke="black" points="373.5,-51 373.5,-105 714.5,-105 714.5,-51 373.5,-51"/>
<text text-anchor="middle" x="544" y="-93.8" font-family="Arial" font-size="8.00">MenuButton</text>
<polyline fill="none" stroke="black" points="373.5,-87 714.5,-87 "/>
<text text-anchor="middle" x="544" y="-75.8" font-family="Arial" font-size="8.00"> </text>
<polyline fill="none" stroke="black" points="373.5,-69 714.5,-69 "/>
<text text-anchor="start" x="381.5" y="-57.8" font-family="Arial" font-size="8.00">+ MenuButton (GameState state, DisplayLayer drawOrder, int itemNum, MenuItemInfo info)</text>
</g>
<!-- Box_MenuItem&#45;&gt;Box_MenuButton -->
<g id="edge20" class="edge"><title>Box_MenuItem&#45;&gt;Box_MenuButton</title>
<path fill="none" stroke="midnightblue" d="M449.514,-184.877C475.36,-155.642 501.524,-126.046 519.746,-105.435"/>
<polygon fill="none" stroke="midnightblue" points="446.6,-182.889 442.599,-192.7 451.844,-187.526 446.6,-182.889"/>
</g>
<!-- Box_XnaDrawableGameComponent -->
<g id="node8" class="node"><title>Box_XnaDrawableGameComponent</title>
<polygon fill="#ffffff" stroke="black" points="638,-769 638,-787 768,-787 768,-769 638,-769"/>
<text text-anchor="middle" x="703" y="-775.8" font-family="Arial" font-size="8.00">Xna.DrawableGameComponent</text>
</g>
<!-- Box_XnaDrawableGameComponent&#45;&gt;Box_DrawableGameStateComponent -->
<g id="edge6" class="edge"><title>Box_XnaDrawableGameComponent&#45;&gt;Box_DrawableGameStateComponent</title>
<path fill="none" stroke="midnightblue" d="M685.226,-762.018C670.886,-749.124 650.035,-730.376 630.979,-713.241"/>
<polygon fill="none" stroke="midnightblue" points="683.078,-764.794 692.854,-768.877 687.758,-759.588 683.078,-764.794"/>
</g>
<!-- Box_XnaIGameComponent -->
<g id="node9" class="node"><title>Box_XnaIGameComponent</title>
<polygon fill="#ffffff" stroke="black" points="418,-843 418,-861 514,-861 514,-843 418,-843"/>
<text text-anchor="middle" x="466" y="-849.8" font-family="Arial" font-size="8.00">Xna.IGameComponent</text>
</g>
<!-- Box_XnaIGameComponent&#45;&gt;Box_IGameStateComponent -->
<g id="edge10" class="edge"><title>Box_XnaIGameComponent&#45;&gt;Box_IGameStateComponent</title>
<path fill="none" stroke="midnightblue" d="M466,-832.64C466,-824.2 466,-814.16 466,-805.004"/>
<polygon fill="none" stroke="midnightblue" points="462.5,-832.926 466,-842.926 469.5,-832.926 462.5,-832.926"/>
</g>
<!-- Box_IMouseEventListener -->
<g id="node10" class="node"><title>Box_IMouseEventListener</title>
<polygon fill="#ffffff" stroke="black" points="210,-438 210,-456 302,-456 302,-438 210,-438"/>
<text text-anchor="middle" x="256" y="-444.8" font-family="Arial" font-size="8.00">IMouseEventListener</text>
</g>
<!-- Box_IMouseEventListener&#45;&gt;Box_MenuItem -->
<g id="edge14" class="edge"><title>Box_IMouseEventListener&#45;&gt;Box_MenuItem</title>
<path fill="none" stroke="midnightblue" d="M267.419,-429.382C275.929,-416.253 288.272,-397.208 301.219,-377.234"/>
<polygon fill="none" stroke="midnightblue" points="264.448,-427.531 261.946,-437.826 270.322,-431.338 264.448,-427.531"/>
</g>
<!-- Box_IKeyEventListener -->
<g id="node11" class="node"><title>Box_IKeyEventListener</title>
<polygon fill="#ffffff" stroke="black" points="320,-438 320,-456 402,-456 402,-438 320,-438"/>
<text text-anchor="middle" x="361" y="-444.8" font-family="Arial" font-size="8.00">IKeyEventListener</text>
</g>
<!-- Box_IKeyEventListener&#45;&gt;Box_MenuItem -->
<g id="edge16" class="edge"><title>Box_IKeyEventListener&#45;&gt;Box_MenuItem</title>
<path fill="none" stroke="midnightblue" d="M361,-427.429C361,-414.402 361,-396.239 361,-377.234"/>
<polygon fill="none" stroke="midnightblue" points="357.5,-427.826 361,-437.826 364.5,-427.826 357.5,-427.826"/>
</g>
</g>
</svg>
