<?xml version="1.0" encoding="UTF-8" standalone="no"?>
<!DOCTYPE svg PUBLIC "-//W3C//DTD SVG 1.1//EN"
 "http://www.w3.org/Graphics/SVG/1.1/DTD/svg11.dtd">
<!-- Generated by graphviz version 2.26.3 (20100126.1600)
 -->
<!-- Title: MenuItem Pages: 1 -->
<svg width="3121pt" height="1517pt"
 viewBox="0.00 0.00 749.00 364.00" xmlns="http://www.w3.org/2000/svg" xmlns:xlink="http://www.w3.org/1999/xlink">
<g id="graph1" class="graph" transform="scale(4.16667 4.16667) rotate(0) translate(4 360)">
<title>MenuItem</title>
<polygon fill="white" stroke="white" points="-4,5 -4,-360 746,-360 746,5 -4,5"/>
<!-- Box_PipeColoring -->
<g id="node1" class="node"><title>Box_PipeColoring</title>
<polygon fill="#fcfcda" stroke="black" points="289.5,-1 289.5,-95 576.5,-95 576.5,-1 289.5,-1"/>
<text text-anchor="middle" x="433" y="-83.8" font-family="Arial" font-size="8.00">PipeColoring</text>
<polyline fill="none" stroke="black" points="289.5,-77 576.5,-77 "/>
<text text-anchor="start" x="297.5" y="-65.8" font-family="Arial" font-size="8.00">+ ValidKeys : List&lt;Keys&gt;</text>
<text text-anchor="start" x="297.5" y="-55.8" font-family="Arial" font-size="8.00">+ Knot : Knot</text>
<text text-anchor="start" x="297.5" y="-45.8" font-family="Arial" font-size="8.00">+ IsKeyEventEnabled : bool</text>
<polyline fill="none" stroke="black" points="289.5,-39 576.5,-39 "/>
<text text-anchor="start" x="297.5" y="-27.8" font-family="Arial" font-size="8.00">+ OnKeyEvent (List&lt;Keys&gt; key, KeyEvent keyEvent, GameTime gameTime)</text>
<text text-anchor="start" x="297.5" y="-17.8" font-family="Arial" font-size="8.00">+ PipeColoring (GameScreen screen)</text>
<text text-anchor="start" x="297.5" y="-7.8" font-family="Arial" font-size="8.00">+ Update (GameTime gameTime)</text>
</g>
<!-- Box_GameScreenComponent -->
<g id="node2" class="node"><title>Box_GameScreenComponent</title>
<polygon fill="#fcfcda" stroke="black" points="98.5,-133 98.5,-207 437.5,-207 437.5,-133 98.5,-133"/>
<text text-anchor="middle" x="268" y="-195.8" font-family="Arial" font-size="8.00">GameScreenComponent</text>
<polyline fill="none" stroke="black" points="98.5,-189 437.5,-189 "/>
<text text-anchor="start" x="106.5" y="-177.8" font-family="Arial" font-size="8.00">+ Index : DisplayLayer</text>
<text text-anchor="start" x="106.5" y="-167.8" font-family="Arial" font-size="8.00">+ screen : GameScreen</text>
<polyline fill="none" stroke="black" points="98.5,-161 437.5,-161 "/>
<text text-anchor="start" x="106.5" y="-149.8" font-family="Arial" font-size="8.00">+ GameScreenComponent (GameScreen screen, DisplayLayer index)</text>
<text text-anchor="start" x="106.5" y="-139.8" font-family="Arial" font-size="8.00">+ SubComponents (GameTime gameTime) : IEnumerable&lt;IGameScreenComponent&gt; virtual</text>
</g>
<!-- Box_GameScreenComponent&#45;&gt;Box_PipeColoring -->
<g id="edge2" class="edge"><title>Box_GameScreenComponent&#45;&gt;Box_PipeColoring</title>
<path fill="none" stroke="midnightblue" d="M326.815,-126.513C340.549,-116.358 355.241,-105.495 369.181,-95.1875"/>
<polygon fill="none" stroke="midnightblue" points="324.362,-123.973 318.402,-132.733 328.524,-129.602 324.362,-123.973"/>
</g>
<!-- Box_IGameScreenComponent -->
<g id="node3" class="node"><title>Box_IGameScreenComponent</title>
<polygon fill="#dafcda" stroke="black" points="-0.5,-245 -0.5,-299 314.5,-299 314.5,-245 -0.5,-245"/>
<text text-anchor="middle" x="157" y="-287.8" font-family="Arial" font-size="8.00">IGameScreenComponent</text>
<polyline fill="none" stroke="black" points="-0.5,-281 314.5,-281 "/>
<text text-anchor="start" x="7.5" y="-269.8" font-family="Arial" font-size="8.00">+ Index : DisplayLayer</text>
<polyline fill="none" stroke="black" points="-0.5,-263 314.5,-263 "/>
<text text-anchor="start" x="7.5" y="-251.8" font-family="Arial" font-size="8.00">+ SubComponents (GameTime gameTime) : IEnumerable&lt;IGameScreenComponent&gt;</text>
</g>
<!-- Box_IGameScreenComponent&#45;&gt;Box_GameScreenComponent -->
<g id="edge8" class="edge"><title>Box_IGameScreenComponent&#45;&gt;Box_GameScreenComponent</title>
<path fill="none" stroke="midnightblue" d="M194.068,-237.937C204.814,-228.063 216.599,-217.233 227.541,-207.178"/>
<polygon fill="none" stroke="midnightblue" points="191.45,-235.59 186.455,-244.934 196.186,-240.745 191.45,-235.59"/>
</g>
<!-- Box_IKeyEventListener -->
<g id="node4" class="node"><title>Box_IKeyEventListener</title>
<polygon fill="#dafcda" stroke="black" points="454.5,-133 454.5,-207 741.5,-207 741.5,-133 454.5,-133"/>
<text text-anchor="middle" x="598" y="-195.8" font-family="Arial" font-size="8.00">IKeyEventListener</text>
<polyline fill="none" stroke="black" points="454.5,-189 741.5,-189 "/>
<text text-anchor="start" x="462.5" y="-177.8" font-family="Arial" font-size="8.00">+ ValidKeys : List&lt;Keys&gt;</text>
<text text-anchor="start" x="462.5" y="-167.8" font-family="Arial" font-size="8.00">+ Index : DisplayLayer</text>
<text text-anchor="start" x="462.5" y="-157.8" font-family="Arial" font-size="8.00">+ IsKeyEventEnabled : bool</text>
<polyline fill="none" stroke="black" points="454.5,-151 741.5,-151 "/>
<text text-anchor="start" x="462.5" y="-139.8" font-family="Arial" font-size="8.00">+ OnKeyEvent (List&lt;Keys&gt; key, KeyEvent keyEvent, GameTime gameTime)</text>
</g>
<!-- Box_IKeyEventListener&#45;&gt;Box_PipeColoring -->
<g id="edge4" class="edge"><title>Box_IKeyEventListener&#45;&gt;Box_PipeColoring</title>
<path fill="none" stroke="midnightblue" d="M539.185,-126.513C525.451,-116.358 510.759,-105.495 496.819,-95.1875"/>
<polygon fill="none" stroke="midnightblue" points="537.476,-129.602 547.598,-132.733 541.638,-123.973 537.476,-129.602"/>
</g>
<!-- Box_XnaGameComponent -->
<g id="node5" class="node"><title>Box_XnaGameComponent</title>
<polygon fill="#ffffff" stroke="black" points="331.5,-263 331.5,-281 426.5,-281 426.5,-263 331.5,-263"/>
<text text-anchor="middle" x="379" y="-269.8" font-family="Arial" font-size="8.00">Xna.GameComponent</text>
</g>
<!-- Box_XnaGameComponent&#45;&gt;Box_GameScreenComponent -->
<g id="edge6" class="edge"><title>Box_XnaGameComponent&#45;&gt;Box_GameScreenComponent</title>
<path fill="none" stroke="midnightblue" d="M361.586,-255.998C347.361,-242.926 326.688,-223.929 308.388,-207.113"/>
<polygon fill="none" stroke="midnightblue" points="359.418,-258.759 369.149,-262.948 364.154,-253.605 359.418,-258.759"/>
</g>
<!-- Box_XnaIGameComponent -->
<g id="node6" class="node"><title>Box_XnaIGameComponent</title>
<polygon fill="#ffffff" stroke="black" points="109,-337 109,-355 205,-355 205,-337 109,-337"/>
<text text-anchor="middle" x="157" y="-343.8" font-family="Arial" font-size="8.00">Xna.IGameComponent</text>
</g>
<!-- Box_XnaIGameComponent&#45;&gt;Box_IGameScreenComponent -->
<g id="edge10" class="edge"><title>Box_XnaIGameComponent&#45;&gt;Box_IGameScreenComponent</title>
<path fill="none" stroke="midnightblue" d="M157,-326.64C157,-318.2 157,-308.16 157,-299.004"/>
<polygon fill="none" stroke="midnightblue" points="153.5,-326.926 157,-336.926 160.5,-326.926 153.5,-326.926"/>
</g>
</g>
</svg>
