<?xml version="1.0" encoding="UTF-8" standalone="no"?>
<!DOCTYPE svg PUBLIC "-//W3C//DTD SVG 1.1//EN"
 "http://www.w3.org/Graphics/SVG/1.1/DTD/svg11.dtd">
<!-- Generated by graphviz version 2.26.3 (20100126.1600)
 -->
<!-- Title: MenuItem Pages: 1 -->
<svg width="1850pt" height="1233pt"
 viewBox="0.00 0.00 444.00 296.00" xmlns="http://www.w3.org/2000/svg" xmlns:xlink="http://www.w3.org/1999/xlink">
<g id="graph1" class="graph" transform="scale(4.16667 4.16667) rotate(0) translate(4 292)">
<title>MenuItem</title>
<polygon fill="white" stroke="white" points="-4,5 -4,-292 441,-292 441,5 -4,5"/>
<!-- Box_IKnotIO -->
<g id="node1" class="node"><title>Box_IKnotIO</title>
<polygon fill="#dafcda" stroke="black" points="213.5,-213 213.5,-287 336.5,-287 336.5,-213 213.5,-213"/>
<text text-anchor="middle" x="275" y="-275.8" font-family="Arial" font-size="8.00">IKnotIO</text>
<polyline fill="none" stroke="black" points="213.5,-269 336.5,-269 "/>
<text text-anchor="start" x="221.5" y="-257.8" font-family="Arial" font-size="8.00">+ Edges : IEnumerable&lt;Edge&gt;</text>
<text text-anchor="start" x="221.5" y="-247.8" font-family="Arial" font-size="8.00">+ CountEdges : int</text>
<text text-anchor="start" x="221.5" y="-237.8" font-family="Arial" font-size="8.00">+ Name : string</text>
<polyline fill="none" stroke="black" points="213.5,-231 336.5,-231 "/>
<text text-anchor="start" x="221.5" y="-219.8" font-family="Arial" font-size="8.00">+ Save (Knot knot)</text>
</g>
<!-- Box_KnotFileIO -->
<g id="node2" class="node"><title>Box_KnotFileIO</title>
<polygon fill="#fcfcda" stroke="black" points="-0.5,-21 -0.5,-155 226.5,-155 226.5,-21 -0.5,-21"/>
<text text-anchor="middle" x="113" y="-143.8" font-family="Arial" font-size="8.00">KnotFileIO</text>
<polyline fill="none" stroke="black" points="-0.5,-137 226.5,-137 "/>
<text text-anchor="start" x="7.5" y="-125.8" font-family="Arial" font-size="8.00">+ CountEdges : int</text>
<text text-anchor="start" x="7.5" y="-115.8" font-family="Arial" font-size="8.00">+ Name : string</text>
<text text-anchor="start" x="7.5" y="-105.8" font-family="Arial" font-size="8.00">&#45; parser : KnotStringIO</text>
<text text-anchor="start" x="7.5" y="-95.8" font-family="Arial" font-size="8.00">+ Edges : IEnumerable&lt;Edge&gt;</text>
<text text-anchor="start" x="7.5" y="-85.8" font-family="Arial" font-size="8.00">+ FileExtensions : string[] static</text>
<polyline fill="none" stroke="black" points="-0.5,-79 226.5,-79 "/>
<text text-anchor="start" x="7.5" y="-67.8" font-family="Arial" font-size="8.00">+ KnotFileIO (Knot knot)</text>
<text text-anchor="start" x="7.5" y="-57.8" font-family="Arial" font-size="8.00">+ Save (Knot knot)</text>
<text text-anchor="start" x="7.5" y="-47.8" font-family="Arial" font-size="8.00">+ KnotFileIO (string filename)</text>
<text text-anchor="start" x="7.5" y="-37.8" font-family="Arial" font-size="8.00">+ ConvertToFilename (string humanReadableName) : string</text>
<text text-anchor="start" x="7.5" y="-27.8" font-family="Arial" font-size="8.00">+ ToString () : string</text>
</g>
<!-- Box_IKnotIO&#45;&gt;Box_KnotFileIO -->
<g id="edge4" class="edge"><title>Box_IKnotIO&#45;&gt;Box_KnotFileIO</title>
<path fill="none" stroke="midnightblue" d="M230.414,-205.414C214.905,-189.905 197.146,-172.146 180.216,-155.216"/>
<polygon fill="none" stroke="midnightblue" points="228.288,-208.238 237.834,-212.834 233.238,-203.288 228.288,-208.238"/>
</g>
<!-- Box_KnotStringIO -->
<g id="node3" class="node"><title>Box_KnotStringIO</title>
<polygon fill="#fcfcda" stroke="black" points="243.5,-1 243.5,-175 436.5,-175 436.5,-1 243.5,-1"/>
<text text-anchor="middle" x="340" y="-163.8" font-family="Arial" font-size="8.00">KnotStringIO</text>
<polyline fill="none" stroke="black" points="243.5,-157 436.5,-157 "/>
<text text-anchor="start" x="251.5" y="-145.8" font-family="Arial" font-size="8.00">&#45; lines : IEnumerable&lt;string&gt;</text>
<text text-anchor="start" x="251.5" y="-135.8" font-family="Arial" font-size="8.00">+ Edges : IEnumerable&lt;Edge&gt;</text>
<text text-anchor="start" x="251.5" y="-125.8" font-family="Arial" font-size="8.00">+ CountEdges : int</text>
<text text-anchor="start" x="251.5" y="-115.8" font-family="Arial" font-size="8.00">+ Name : string</text>
<text text-anchor="start" x="251.5" y="-105.8" font-family="Arial" font-size="8.00">+ Content : string</text>
<polyline fill="none" stroke="black" points="243.5,-99 436.5,-99 "/>
<text text-anchor="start" x="251.5" y="-87.8" font-family="Arial" font-size="8.00">&#45; DecodeEdge (char c) : Edge static</text>
<text text-anchor="start" x="251.5" y="-77.8" font-family="Arial" font-size="8.00">&#45; EncodeEdge (Edge edge) : char static</text>
<text text-anchor="start" x="251.5" y="-67.8" font-family="Arial" font-size="8.00">+ Save (Knot knot)</text>
<text text-anchor="start" x="251.5" y="-57.8" font-family="Arial" font-size="8.00">&#45; DecodeColor (string hexString) : Color static</text>
<text text-anchor="start" x="251.5" y="-47.8" font-family="Arial" font-size="8.00">&#45; ToLines (Knot knot) : IEnumerable&lt;string&gt; static</text>
<text text-anchor="start" x="251.5" y="-37.8" font-family="Arial" font-size="8.00">&#45; EncodeColor (Color c) : String static</text>
<text text-anchor="start" x="251.5" y="-27.8" font-family="Arial" font-size="8.00">+ KnotStringIO (Knot knot)</text>
<text text-anchor="start" x="251.5" y="-17.8" font-family="Arial" font-size="8.00">+ KnotStringIO (string content)</text>
<text text-anchor="start" x="251.5" y="-7.8" font-family="Arial" font-size="8.00">+ ToString () : string</text>
</g>
<!-- Box_IKnotIO&#45;&gt;Box_KnotStringIO -->
<g id="edge6" class="edge"><title>Box_IKnotIO&#45;&gt;Box_KnotStringIO</title>
<path fill="none" stroke="midnightblue" d="M293.686,-203.429C297.274,-194.487 301.137,-184.859 305.048,-175.111"/>
<polygon fill="none" stroke="midnightblue" points="290.388,-202.25 289.912,-212.834 296.884,-204.856 290.388,-202.25"/>
</g>
<!-- Box_FileIO -->
<g id="node4" class="node"><title>Box_FileIO</title>
<polygon fill="#ffffff" stroke="black" points="95,-241 95,-259 131,-259 131,-241 95,-241"/>
<text text-anchor="middle" x="113" y="-247.8" font-family="Arial" font-size="8.00">FileIO</text>
</g>
<!-- Box_FileIO&#45;&gt;Box_KnotFileIO -->
<g id="edge2" class="edge"><title>Box_FileIO&#45;&gt;Box_KnotFileIO</title>
<path fill="none" stroke="midnightblue" d="M113,-230.679C113,-211.961 113,-182.475 113,-155.154"/>
<polygon fill="none" stroke="midnightblue" points="109.5,-230.826 113,-240.826 116.5,-230.826 109.5,-230.826"/>
</g>
</g>
</svg>
