<?xml version="1.0" encoding="UTF-8" standalone="no"?>
<!DOCTYPE svg PUBLIC "-//W3C//DTD SVG 1.1//EN"
 "http://www.w3.org/Graphics/SVG/1.1/DTD/svg11.dtd">
<!-- Generated by graphviz version 2.26.3 (20100126.1600)
 -->
<!-- Title: MenuItem Pages: 1 -->
<svg width="842pt" height="750pt"
 viewBox="0.00 0.00 202.00 180.00" xmlns="http://www.w3.org/2000/svg" xmlns:xlink="http://www.w3.org/1999/xlink">
<g id="graph1" class="graph" transform="scale(4.16667 4.16667) rotate(0) translate(4 176)">
<title>MenuItem</title>
<polygon fill="white" stroke="white" points="-4,5 -4,-176 199,-176 199,5 -4,5"/>
<!-- Box_KnotModeInput -->
<g id="node1" class="node"><title>Box_KnotModeInput</title>
<polygon fill="#fcfcda" stroke="black" points="0,-1 0,-115 194,-115 194,-1 0,-1"/>
<text text-anchor="middle" x="97" y="-103.8" font-family="Arial" font-size="8.00">KnotModeInput</text>
<polyline fill="none" stroke="black" points="0,-97 194,-97 "/>
<text text-anchor="start" x="8" y="-85.8" font-family="Arial" font-size="8.00">&#45; wasdSpeed : int</text>
<text text-anchor="start" x="8" y="-75.8" font-family="Arial" font-size="8.00">&#45; camera : Camera</text>
<text text-anchor="start" x="8" y="-65.8" font-family="Arial" font-size="8.00">&#45; World : World</text>
<polyline fill="none" stroke="black" points="0,-59 194,-59 "/>
<text text-anchor="start" x="8" y="-47.8" font-family="Arial" font-size="8.00"># UpdateMouse (GameTime gameTime)</text>
<text text-anchor="start" x="8" y="-37.8" font-family="Arial" font-size="8.00">+ KnotModeInput (GameState state, World world)</text>
<text text-anchor="start" x="8" y="-27.8" font-family="Arial" font-size="8.00">&#45; ResetMousePosition ()</text>
<text text-anchor="start" x="8" y="-17.8" font-family="Arial" font-size="8.00"># UpdateKeys (GameTime gameTime)</text>
<text text-anchor="start" x="8" y="-7.8" font-family="Arial" font-size="8.00">+ Update (GameTime gameTime)</text>
</g>
<!-- Box_CoreInput -->
<g id="node2" class="node"><title>Box_CoreInput</title>
<polygon fill="#ffffff" stroke="black" points="70.5,-153 70.5,-171 123.5,-171 123.5,-153 70.5,-153"/>
<text text-anchor="middle" x="97" y="-159.8" font-family="Arial" font-size="8.00">Core.Input</text>
</g>
<!-- Box_CoreInput&#45;&gt;Box_KnotModeInput -->
<g id="edge2" class="edge"><title>Box_CoreInput&#45;&gt;Box_KnotModeInput</title>
<path fill="none" stroke="midnightblue" d="M97,-142.516C97,-134.577 97,-124.949 97,-115.075"/>
<polygon fill="none" stroke="midnightblue" points="93.5001,-142.771 97,-152.771 100.5,-142.771 93.5001,-142.771"/>
</g>
</g>
</svg>
