<?xml version="1.0" encoding="UTF-8" standalone="no"?>
<!DOCTYPE svg PUBLIC "-//W3C//DTD SVG 1.1//EN"
 "http://www.w3.org/Graphics/SVG/1.1/DTD/svg11.dtd">
<!-- Generated by graphviz version 2.26.3 (20100126.1600)
 -->
<!-- Title: MenuItem Pages: 1 -->
<svg width="3087pt" height="1517pt"
 viewBox="0.00 0.00 741.00 364.00" xmlns="http://www.w3.org/2000/svg" xmlns:xlink="http://www.w3.org/1999/xlink">
<g id="graph1" class="graph" transform="scale(4.16667 4.16667) rotate(0) translate(4 360)">
<title>MenuItem</title>
<polygon fill="white" stroke="white" points="-4,5 -4,-360 738,-360 738,5 -4,5"/>
<!-- Box_PipeColoring -->
<g id="node1" class="node"><title>Box_PipeColoring</title>
<polygon fill="#fcfcda" stroke="black" points="282.5,-1 282.5,-95 569.5,-95 569.5,-1 282.5,-1"/>
<text text-anchor="middle" x="426" y="-83.8" font-family="Arial" font-size="8.00">PipeColoring</text>
<polyline fill="none" stroke="black" points="282.5,-77 569.5,-77 "/>
<text text-anchor="start" x="290.5" y="-65.8" font-family="Arial" font-size="8.00">+ ValidKeys : List&lt;Keys&gt;</text>
<text text-anchor="start" x="290.5" y="-55.8" font-family="Arial" font-size="8.00">+ Knot : Knot</text>
<text text-anchor="start" x="290.5" y="-45.8" font-family="Arial" font-size="8.00">+ IsKeyEventEnabled : bool</text>
<polyline fill="none" stroke="black" points="282.5,-39 569.5,-39 "/>
<text text-anchor="start" x="290.5" y="-27.8" font-family="Arial" font-size="8.00">+ OnKeyEvent (List&lt;Keys&gt; key, KeyEvent keyEvent, GameTime gameTime)</text>
<text text-anchor="start" x="290.5" y="-17.8" font-family="Arial" font-size="8.00">+ PipeColoring (GameState state)</text>
<text text-anchor="start" x="290.5" y="-7.8" font-family="Arial" font-size="8.00">+ Update (GameTime gameTime)</text>
</g>
<!-- Box_GameStateComponent -->
<g id="node2" class="node"><title>Box_GameStateComponent</title>
<polygon fill="#fcfcda" stroke="black" points="97,-133 97,-207 429,-207 429,-133 97,-133"/>
<text text-anchor="middle" x="263" y="-195.8" font-family="Arial" font-size="8.00">GameStateComponent</text>
<polyline fill="none" stroke="black" points="97,-189 429,-189 "/>
<text text-anchor="start" x="105" y="-177.8" font-family="Arial" font-size="8.00">+ Index : DisplayLayer</text>
<text text-anchor="start" x="105" y="-167.8" font-family="Arial" font-size="8.00">+ state : GameState</text>
<polyline fill="none" stroke="black" points="97,-161 429,-161 "/>
<text text-anchor="start" x="105" y="-149.8" font-family="Arial" font-size="8.00">+ GameStateComponent (GameState state, DisplayLayer index)</text>
<text text-anchor="start" x="105" y="-139.8" font-family="Arial" font-size="8.00">+ SubComponents (GameTime gameTime) : IEnumerable&lt;IGameStateComponent&gt; virtual</text>
</g>
<!-- Box_GameStateComponent&#45;&gt;Box_PipeColoring -->
<g id="edge2" class="edge"><title>Box_GameStateComponent&#45;&gt;Box_PipeColoring</title>
<path fill="none" stroke="midnightblue" d="M321.102,-126.513C334.67,-116.358 349.183,-105.495 362.954,-95.1875"/>
<polygon fill="none" stroke="midnightblue" points="318.7,-123.939 312.791,-132.733 322.894,-129.543 318.7,-123.939"/>
</g>
<!-- Box_IGameStateComponent -->
<g id="node3" class="node"><title>Box_IGameStateComponent</title>
<polygon fill="#dafcda" stroke="black" points="0,-245 0,-299 308,-299 308,-245 0,-245"/>
<text text-anchor="middle" x="154" y="-287.8" font-family="Arial" font-size="8.00">IGameStateComponent</text>
<polyline fill="none" stroke="black" points="0,-281 308,-281 "/>
<text text-anchor="start" x="8" y="-269.8" font-family="Arial" font-size="8.00">+ Index : DisplayLayer</text>
<polyline fill="none" stroke="black" points="0,-263 308,-263 "/>
<text text-anchor="start" x="8" y="-251.8" font-family="Arial" font-size="8.00">+ SubComponents (GameTime gameTime) : IEnumerable&lt;IGameStateComponent&gt;</text>
</g>
<!-- Box_IGameStateComponent&#45;&gt;Box_GameStateComponent -->
<g id="edge8" class="edge"><title>Box_IGameStateComponent&#45;&gt;Box_GameStateComponent</title>
<path fill="none" stroke="midnightblue" d="M190.4,-237.937C200.952,-228.063 212.526,-217.233 223.27,-207.178"/>
<polygon fill="none" stroke="midnightblue" points="187.834,-235.545 182.924,-244.934 192.617,-240.656 187.834,-235.545"/>
</g>
<!-- Box_IKeyEventListener -->
<g id="node4" class="node"><title>Box_IKeyEventListener</title>
<polygon fill="#dafcda" stroke="black" points="446.5,-133 446.5,-207 733.5,-207 733.5,-133 446.5,-133"/>
<text text-anchor="middle" x="590" y="-195.8" font-family="Arial" font-size="8.00">IKeyEventListener</text>
<polyline fill="none" stroke="black" points="446.5,-189 733.5,-189 "/>
<text text-anchor="start" x="454.5" y="-177.8" font-family="Arial" font-size="8.00">+ ValidKeys : List&lt;Keys&gt;</text>
<text text-anchor="start" x="454.5" y="-167.8" font-family="Arial" font-size="8.00">+ Index : DisplayLayer</text>
<text text-anchor="start" x="454.5" y="-157.8" font-family="Arial" font-size="8.00">+ IsKeyEventEnabled : bool</text>
<polyline fill="none" stroke="black" points="446.5,-151 733.5,-151 "/>
<text text-anchor="start" x="454.5" y="-139.8" font-family="Arial" font-size="8.00">+ OnKeyEvent (List&lt;Keys&gt; key, KeyEvent keyEvent, GameTime gameTime)</text>
</g>
<!-- Box_IKeyEventListener&#45;&gt;Box_PipeColoring -->
<g id="edge4" class="edge"><title>Box_IKeyEventListener&#45;&gt;Box_PipeColoring</title>
<path fill="none" stroke="midnightblue" d="M531.542,-126.513C517.89,-116.358 503.288,-105.495 489.432,-95.1875"/>
<polygon fill="none" stroke="midnightblue" points="529.791,-129.573 539.903,-132.733 533.969,-123.956 529.791,-129.573"/>
</g>
<!-- Box_XnaGameComponent -->
<g id="node5" class="node"><title>Box_XnaGameComponent</title>
<polygon fill="#ffffff" stroke="black" points="325.5,-263 325.5,-281 420.5,-281 420.5,-263 325.5,-263"/>
<text text-anchor="middle" x="373" y="-269.8" font-family="Arial" font-size="8.00">Xna.GameComponent</text>
</g>
<!-- Box_XnaGameComponent&#45;&gt;Box_GameStateComponent -->
<g id="edge6" class="edge"><title>Box_XnaGameComponent&#45;&gt;Box_GameStateComponent</title>
<path fill="none" stroke="midnightblue" d="M355.743,-255.998C341.646,-242.926 321.159,-223.929 303.024,-207.113"/>
<polygon fill="none" stroke="midnightblue" points="353.526,-258.715 363.238,-262.948 358.285,-253.582 353.526,-258.715"/>
</g>
<!-- Box_XnaIGameComponent -->
<g id="node6" class="node"><title>Box_XnaIGameComponent</title>
<polygon fill="#ffffff" stroke="black" points="106,-337 106,-355 202,-355 202,-337 106,-337"/>
<text text-anchor="middle" x="154" y="-343.8" font-family="Arial" font-size="8.00">Xna.IGameComponent</text>
</g>
<!-- Box_XnaIGameComponent&#45;&gt;Box_IGameStateComponent -->
<g id="edge10" class="edge"><title>Box_XnaIGameComponent&#45;&gt;Box_IGameStateComponent</title>
<path fill="none" stroke="midnightblue" d="M154,-326.64C154,-318.2 154,-308.16 154,-299.004"/>
<polygon fill="none" stroke="midnightblue" points="150.5,-326.926 154,-336.926 157.5,-326.926 150.5,-326.926"/>
</g>
</g>
</svg>
