<?xml version="1.0" encoding="UTF-8" standalone="no"?>
<!DOCTYPE svg PUBLIC "-//W3C//DTD SVG 1.1//EN"
 "http://www.w3.org/Graphics/SVG/1.1/DTD/svg11.dtd">
<!-- Generated by graphviz version 2.26.3 (20100126.1600)
 -->
<!-- Title: MenuItem Pages: 1 -->
<svg width="1854pt" height="1558pt"
 viewBox="0.00 0.00 445.00 374.00" xmlns="http://www.w3.org/2000/svg" xmlns:xlink="http://www.w3.org/1999/xlink">
<g id="graph1" class="graph" transform="scale(4.16667 4.16667) rotate(0) translate(4 370)">
<title>MenuItem</title>
<polygon fill="white" stroke="white" points="-4,5 -4,-370 442,-370 442,5 -4,5"/>
<!-- Box_ModelMousePicker -->
<g id="node1" class="node"><title>Box_ModelMousePicker</title>
<polygon fill="#fcfcda" stroke="black" points="157,-1 157,-105 379,-105 379,-1 157,-1"/>
<text text-anchor="middle" x="268" y="-93.8" font-family="Arial" font-size="8.00">ModelMousePicker</text>
<polyline fill="none" stroke="black" points="157,-87 379,-87 "/>
<text text-anchor="start" x="165" y="-75.8" font-family="Arial" font-size="8.00">&#45; lastMousePosition : Vector2</text>
<text text-anchor="start" x="165" y="-65.8" font-family="Arial" font-size="8.00">&#45; World : World</text>
<text text-anchor="start" x="165" y="-55.8" font-family="Arial" font-size="8.00">&#45; lastRayCheck : double</text>
<polyline fill="none" stroke="black" points="157,-49 379,-49 "/>
<text text-anchor="start" x="165" y="-37.8" font-family="Arial" font-size="8.00">&#45; UpdateMouseRay (GameTime gameTime)</text>
<text text-anchor="start" x="165" y="-27.8" font-family="Arial" font-size="8.00">+ ModelMousePicker (GameScreen screen, World world)</text>
<text text-anchor="start" x="165" y="-17.8" font-family="Arial" font-size="8.00">&#45; CheckMouseRay (GameTime gameTime)</text>
<text text-anchor="start" x="165" y="-7.8" font-family="Arial" font-size="8.00">+ Update (GameTime gameTime)</text>
</g>
<!-- Box_GameScreenComponent -->
<g id="node2" class="node"><title>Box_GameScreenComponent</title>
<polygon fill="#fcfcda" stroke="black" points="98.5,-143 98.5,-217 437.5,-217 437.5,-143 98.5,-143"/>
<text text-anchor="middle" x="268" y="-205.8" font-family="Arial" font-size="8.00">GameScreenComponent</text>
<polyline fill="none" stroke="black" points="98.5,-199 437.5,-199 "/>
<text text-anchor="start" x="106.5" y="-187.8" font-family="Arial" font-size="8.00">+ Index : DisplayLayer</text>
<text text-anchor="start" x="106.5" y="-177.8" font-family="Arial" font-size="8.00">+ screen : GameScreen</text>
<polyline fill="none" stroke="black" points="98.5,-171 437.5,-171 "/>
<text text-anchor="start" x="106.5" y="-159.8" font-family="Arial" font-size="8.00">+ GameScreenComponent (GameScreen screen, DisplayLayer index)</text>
<text text-anchor="start" x="106.5" y="-149.8" font-family="Arial" font-size="8.00">+ SubComponents (GameTime gameTime) : IEnumerable&lt;IGameScreenComponent&gt; virtual</text>
</g>
<!-- Box_GameScreenComponent&#45;&gt;Box_ModelMousePicker -->
<g id="edge2" class="edge"><title>Box_GameScreenComponent&#45;&gt;Box_ModelMousePicker</title>
<path fill="none" stroke="midnightblue" d="M268,-132.74C268,-123.847 268,-114.498 268,-105.458"/>
<polygon fill="none" stroke="midnightblue" points="264.5,-132.925 268,-142.925 271.5,-132.925 264.5,-132.925"/>
</g>
<!-- Box_IGameScreenComponent -->
<g id="node3" class="node"><title>Box_IGameScreenComponent</title>
<polygon fill="#dafcda" stroke="black" points="-0.5,-255 -0.5,-309 314.5,-309 314.5,-255 -0.5,-255"/>
<text text-anchor="middle" x="157" y="-297.8" font-family="Arial" font-size="8.00">IGameScreenComponent</text>
<polyline fill="none" stroke="black" points="-0.5,-291 314.5,-291 "/>
<text text-anchor="start" x="7.5" y="-279.8" font-family="Arial" font-size="8.00">+ Index : DisplayLayer</text>
<polyline fill="none" stroke="black" points="-0.5,-273 314.5,-273 "/>
<text text-anchor="start" x="7.5" y="-261.8" font-family="Arial" font-size="8.00">+ SubComponents (GameTime gameTime) : IEnumerable&lt;IGameScreenComponent&gt;</text>
</g>
<!-- Box_IGameScreenComponent&#45;&gt;Box_GameScreenComponent -->
<g id="edge6" class="edge"><title>Box_IGameScreenComponent&#45;&gt;Box_GameScreenComponent</title>
<path fill="none" stroke="midnightblue" d="M194.068,-247.937C204.814,-238.063 216.599,-227.233 227.541,-217.178"/>
<polygon fill="none" stroke="midnightblue" points="191.45,-245.59 186.455,-254.934 196.186,-250.745 191.45,-245.59"/>
</g>
<!-- Box_XnaGameComponent -->
<g id="node4" class="node"><title>Box_XnaGameComponent</title>
<polygon fill="#ffffff" stroke="black" points="331.5,-273 331.5,-291 426.5,-291 426.5,-273 331.5,-273"/>
<text text-anchor="middle" x="379" y="-279.8" font-family="Arial" font-size="8.00">Xna.GameComponent</text>
</g>
<!-- Box_XnaGameComponent&#45;&gt;Box_GameScreenComponent -->
<g id="edge4" class="edge"><title>Box_XnaGameComponent&#45;&gt;Box_GameScreenComponent</title>
<path fill="none" stroke="midnightblue" d="M361.586,-265.998C347.361,-252.926 326.688,-233.929 308.388,-217.113"/>
<polygon fill="none" stroke="midnightblue" points="359.418,-268.759 369.149,-272.948 364.154,-263.605 359.418,-268.759"/>
</g>
<!-- Box_XnaIGameComponent -->
<g id="node5" class="node"><title>Box_XnaIGameComponent</title>
<polygon fill="#ffffff" stroke="black" points="109,-347 109,-365 205,-365 205,-347 109,-347"/>
<text text-anchor="middle" x="157" y="-353.8" font-family="Arial" font-size="8.00">Xna.IGameComponent</text>
</g>
<!-- Box_XnaIGameComponent&#45;&gt;Box_IGameScreenComponent -->
<g id="edge8" class="edge"><title>Box_XnaIGameComponent&#45;&gt;Box_IGameScreenComponent</title>
<path fill="none" stroke="midnightblue" d="M157,-336.64C157,-328.2 157,-318.16 157,-309.004"/>
<polygon fill="none" stroke="midnightblue" points="153.5,-336.926 157,-346.926 160.5,-336.926 153.5,-336.926"/>
</g>
</g>
</svg>
