<?xml version="1.0" encoding="UTF-8" standalone="no"?>
<!DOCTYPE svg PUBLIC "-//W3C//DTD SVG 1.1//EN"
 "http://www.w3.org/Graphics/SVG/1.1/DTD/svg11.dtd">
<!-- Generated by graphviz version 2.26.3 (20100126.1600)
 -->
<!-- Title: MenuItem Pages: 1 -->
<svg width="182pt" height="308pt"
 viewBox="0.00 0.00 182.00 308.00" xmlns="http://www.w3.org/2000/svg" xmlns:xlink="http://www.w3.org/1999/xlink">
<g id="graph1" class="graph" transform="scale(1 1) rotate(0) translate(4 304)">
<title>MenuItem</title>
<polygon fill="white" stroke="white" points="-4,5 -4,-304 179,-304 179,5 -4,5"/>
<!-- Box_Node -->
<g id="node1" class="node"><title>Box_Node</title>
<polygon fill="#fcfcda" stroke="black" points="0,-1 0,-241 174,-241 174,-1 0,-1"/>
<text text-anchor="middle" x="87" y="-229.8" font-family="Helvetica,sans-Serif" font-size="8.00">Node</text>
<polyline fill="none" stroke="black" points="0,-221 174,-221 "/>
<text text-anchor="start" x="8" y="-209.8" font-family="Helvetica,sans-Serif" font-size="8.00">Attributes:</text>
<text text-anchor="start" x="8" y="-197.8" font-family="Helvetica,sans-Serif" font-size="8.00">+ X : int</text>
<text text-anchor="start" x="8" y="-185.8" font-family="Helvetica,sans-Serif" font-size="8.00">+ Y : int</text>
<text text-anchor="start" x="8" y="-173.8" font-family="Helvetica,sans-Serif" font-size="8.00">+ Z : int</text>
<text text-anchor="start" x="8" y="-161.8" font-family="Helvetica,sans-Serif" font-size="8.00">+ Scale : int static</text>
<text text-anchor="start" x="8" y="-149.8" font-family="Helvetica,sans-Serif" font-size="8.00">Methods:</text>
<polyline fill="none" stroke="black" points="0,-141 174,-141 "/>
<text text-anchor="start" x="8" y="-129.8" font-family="Helvetica,sans-Serif" font-size="8.00">+ GetHashCode () : int</text>
<text text-anchor="start" x="8" y="-117.8" font-family="Helvetica,sans-Serif" font-size="8.00">+ Node (int x, int y, int z) : this()</text>
<text text-anchor="start" x="8" y="-105.8" font-family="Helvetica,sans-Serif" font-size="8.00">+ Vector () : Vector3</text>
<text text-anchor="start" x="8" y="-93.8" font-family="Helvetica,sans-Serif" font-size="8.00">+ Equals (Node other) : bool</text>
<text text-anchor="start" x="8" y="-81.8" font-family="Helvetica,sans-Serif" font-size="8.00">+ Clone () : object</text>
<text text-anchor="start" x="8" y="-69.8" font-family="Helvetica,sans-Serif" font-size="8.00">+ Equals (object obj) : bool</text>
<text text-anchor="start" x="8" y="-57.8" font-family="Helvetica,sans-Serif" font-size="8.00">+ ToString () : string</text>
<text text-anchor="start" x="8" y="-45.8" font-family="Helvetica,sans-Serif" font-size="8.00">+ operator (Node a, Vector3 b) : Node static</text>
<text text-anchor="start" x="8" y="-33.8" font-family="Helvetica,sans-Serif" font-size="8.00">&#45; operator (Node a, Node b) : Vector3 static</text>
<text text-anchor="start" x="8" y="-21.8" font-family="Helvetica,sans-Serif" font-size="8.00">+ operator ! (Node a, Node b) : bool static</text>
<text text-anchor="start" x="8" y="-9.8" font-family="Helvetica,sans-Serif" font-size="8.00">+ operator (Node a, Node b) : bool static</text>
</g>
<!-- Box_IEquatable -->
<g id="node2" class="node"><title>Box_IEquatable</title>
<polygon fill="#ffffff" stroke="black" points="2.5,-279 2.5,-299 85.5,-299 85.5,-279 2.5,-279"/>
<text text-anchor="middle" x="44" y="-287.8" font-family="Helvetica,sans-Serif" font-size="8.00">IEquatable&lt;Node&gt;</text>
</g>
<!-- Box_IEquatable&#45;&gt;Box_Node -->
<g id="edge2" class="edge"><title>Box_IEquatable&#45;&gt;Box_Node</title>
<path fill="none" stroke="midnightblue" d="M49.1091,-269.039C51.088,-261.307 53.5225,-251.796 56.1945,-241.356"/>
<polygon fill="none" stroke="midnightblue" points="45.65,-268.438 46.5611,-278.994 52.4314,-270.174 45.65,-268.438"/>
</g>
<!-- Box_ICloneable -->
<g id="node3" class="node"><title>Box_ICloneable</title>
<polygon fill="#ffffff" stroke="black" points="102.5,-279 102.5,-299 157.5,-299 157.5,-279 102.5,-279"/>
<text text-anchor="middle" x="130" y="-287.8" font-family="Helvetica,sans-Serif" font-size="8.00">ICloneable</text>
</g>
<!-- Box_ICloneable&#45;&gt;Box_Node -->
<g id="edge4" class="edge"><title>Box_ICloneable&#45;&gt;Box_Node</title>
<path fill="none" stroke="midnightblue" d="M124.891,-269.039C122.912,-261.307 120.478,-251.796 117.806,-241.356"/>
<polygon fill="none" stroke="midnightblue" points="121.569,-270.174 127.439,-278.994 128.35,-268.438 121.569,-270.174"/>
</g>
</g>
</svg>
