<?xml version="1.0" encoding="UTF-8" standalone="no"?>
<!DOCTYPE svg PUBLIC "-//W3C//DTD SVG 1.1//EN"
 "http://www.w3.org/Graphics/SVG/1.1/DTD/svg11.dtd">
<!-- Generated by graphviz version 2.26.3 (20100126.1600)
 -->
<!-- Title: MenuItem Pages: 1 -->
<svg width="2287pt" height="3500pt"
 viewBox="0.00 0.00 549.00 840.00" xmlns="http://www.w3.org/2000/svg" xmlns:xlink="http://www.w3.org/1999/xlink">
<g id="graph1" class="graph" transform="scale(4.16667 4.16667) rotate(0) translate(4 836)">
<title>MenuItem</title>
<polygon fill="white" stroke="white" points="-4,5 -4,-836 546,-836 546,5 -4,5"/>
<!-- Box_GameScreen -->
<g id="node1" class="node"><title>Box_GameScreen</title>
<polygon fill="#fcfcda" stroke="black" points="5.5,-617 5.5,-831 360.5,-831 360.5,-617 5.5,-617"/>
<text text-anchor="middle" x="183" y="-819.8" font-family="Arial" font-size="8.00">GameScreen</text>
<polyline fill="none" stroke="black" points="5.5,-813 360.5,-813 "/>
<text text-anchor="start" x="13.5" y="-801.8" font-family="Arial" font-size="8.00">+ content : ContentManager</text>
<text text-anchor="start" x="13.5" y="-791.8" font-family="Arial" font-size="8.00">+ NextState : GameScreen</text>
<text text-anchor="start" x="13.5" y="-781.8" font-family="Arial" font-size="8.00">+ device : GraphicsDevice</text>
<text text-anchor="start" x="13.5" y="-771.8" font-family="Arial" font-size="8.00">+ RenderEffects : RenderEffectStack</text>
<text text-anchor="start" x="13.5" y="-761.8" font-family="Arial" font-size="8.00">+ viewport : Viewport</text>
<text text-anchor="start" x="13.5" y="-751.8" font-family="Arial" font-size="8.00">+ game : Game</text>
<text text-anchor="start" x="13.5" y="-741.8" font-family="Arial" font-size="8.00">+ graphics : GraphicsDeviceManager</text>
<text text-anchor="start" x="13.5" y="-731.8" font-family="Arial" font-size="8.00">+ input : InputManager</text>
<text text-anchor="start" x="13.5" y="-721.8" font-family="Arial" font-size="8.00">+ PostProcessing : RenderEffect</text>
<polyline fill="none" stroke="black" points="5.5,-715 360.5,-715 "/>
<text text-anchor="start" x="13.5" y="-703.8" font-family="Arial" font-size="8.00">+ Draw (GameTime time) abstract</text>
<text text-anchor="start" x="13.5" y="-693.8" font-family="Arial" font-size="8.00">+ Initialize () abstract</text>
<text text-anchor="start" x="13.5" y="-683.8" font-family="Arial" font-size="8.00">+ Unload () abstract</text>
<text text-anchor="start" x="13.5" y="-673.8" font-family="Arial" font-size="8.00">+ Activate (GameTime time) virtual</text>
<text text-anchor="start" x="13.5" y="-663.8" font-family="Arial" font-size="8.00">+ GameScreen (Game game)</text>
<text text-anchor="start" x="13.5" y="-653.8" font-family="Arial" font-size="8.00">+ Update (GameTime time) abstract</text>
<text text-anchor="start" x="13.5" y="-643.8" font-family="Arial" font-size="8.00">+ Deactivate (GameTime time) virtual</text>
<text text-anchor="start" x="13.5" y="-633.8" font-family="Arial" font-size="8.00">+ AddGameComponents (GameTime time, params IGameScreenComponent[] components)</text>
<text text-anchor="start" x="13.5" y="-623.8" font-family="Arial" font-size="8.00">+ RemoveGameComponents (GameTime time, params IGameScreenComponent[] components)</text>
</g>
<!-- Box_CreativeModeScreen -->
<g id="node2" class="node"><title>Box_CreativeModeScreen</title>
<polygon fill="#fcfcda" stroke="black" points="0,-345 0,-579 170,-579 170,-345 0,-345"/>
<text text-anchor="middle" x="85" y="-567.8" font-family="Arial" font-size="8.00">CreativeModeScreen</text>
<polyline fill="none" stroke="black" points="0,-561 170,-561 "/>
<text text-anchor="start" x="8" y="-549.8" font-family="Arial" font-size="8.00">&#45; dialog : Dialog</text>
<text text-anchor="start" x="8" y="-539.8" font-family="Arial" font-size="8.00">&#45; coloring : EdgeColoring</text>
<text text-anchor="start" x="8" y="-529.8" font-family="Arial" font-size="8.00">&#45; movement : EdgeMovement</text>
<text text-anchor="start" x="8" y="-519.8" font-family="Arial" font-size="8.00">&#45; knotInput : KnotInputHandler</text>
<text text-anchor="start" x="8" y="-509.8" font-family="Arial" font-size="8.00">&#45; picker : ModelMousePicker</text>
<text text-anchor="start" x="8" y="-499.8" font-family="Arial" font-size="8.00">&#45; renderer : ModelRenderer</text>
<text text-anchor="start" x="8" y="-489.8" font-family="Arial" font-size="8.00">&#45; pointer : MousePointer</text>
<text text-anchor="start" x="8" y="-479.8" font-family="Arial" font-size="8.00">&#45; overlay : Overlay</text>
<text text-anchor="start" x="8" y="-469.8" font-family="Arial" font-size="8.00">&#45; world : World</text>
<text text-anchor="start" x="8" y="-459.8" font-family="Arial" font-size="8.00">&#45; knotModified : bool</text>
<text text-anchor="start" x="8" y="-449.8" font-family="Arial" font-size="8.00">+ Knot : Knot</text>
<text text-anchor="start" x="8" y="-439.8" font-family="Arial" font-size="8.00">&#45; knot : Knot</text>
<polyline fill="none" stroke="black" points="0,-433 170,-433 "/>
<text text-anchor="start" x="8" y="-421.8" font-family="Arial" font-size="8.00">&#45; UpdateInput (GameTime time)</text>
<text text-anchor="start" x="8" y="-411.8" font-family="Arial" font-size="8.00">+ CreativeModeScreen (Core.Game game)</text>
<text text-anchor="start" x="8" y="-401.8" font-family="Arial" font-size="8.00">+ Activate (GameTime time)</text>
<text text-anchor="start" x="8" y="-391.8" font-family="Arial" font-size="8.00">+ Draw (GameTime time)</text>
<text text-anchor="start" x="8" y="-381.8" font-family="Arial" font-size="8.00">+ Initialize ()</text>
<text text-anchor="start" x="8" y="-371.8" font-family="Arial" font-size="8.00">+ LoadFile (string file)</text>
<text text-anchor="start" x="8" y="-361.8" font-family="Arial" font-size="8.00">+ Unload ()</text>
<text text-anchor="start" x="8" y="-351.8" font-family="Arial" font-size="8.00">+ Update (GameTime time)</text>
</g>
<!-- Box_GameScreen&#45;&gt;Box_CreativeModeScreen -->
<g id="edge2" class="edge"><title>Box_GameScreen&#45;&gt;Box_CreativeModeScreen</title>
<path fill="none" stroke="midnightblue" d="M139.281,-607.12C135.835,-597.907 132.354,-588.6 128.907,-579.384"/>
<polygon fill="none" stroke="midnightblue" points="136.075,-608.539 142.857,-616.679 142.632,-606.086 136.075,-608.539"/>
</g>
<!-- Box_MenuScreen -->
<g id="node3" class="node"><title>Box_MenuScreen</title>
<polygon fill="#fcfcda" stroke="black" points="188,-370 188,-554 376,-554 376,-370 188,-370"/>
<text text-anchor="middle" x="282" y="-542.8" font-family="Arial" font-size="8.00">MenuScreen</text>
<polyline fill="none" stroke="black" points="188,-536 376,-536 "/>
<text text-anchor="start" x="196" y="-524.8" font-family="Arial" font-size="8.00">&#45; backColor : Color</text>
<text text-anchor="start" x="196" y="-514.8" font-family="Arial" font-size="8.00">&#45; pointer : MousePointer</text>
<text text-anchor="start" x="196" y="-504.8" font-family="Arial" font-size="8.00"># LinePoints : List&lt;Vector2&gt;</text>
<text text-anchor="start" x="196" y="-494.8" font-family="Arial" font-size="8.00"># LineWidth : int</text>
<text text-anchor="start" x="196" y="-484.8" font-family="Arial" font-size="8.00">&#45; spriteBatch : SpriteBatch</text>
<polyline fill="none" stroke="black" points="188,-478 376,-478 "/>
<text text-anchor="start" x="196" y="-466.8" font-family="Arial" font-size="8.00">+ MenuScreen (Core.Game game)</text>
<text text-anchor="start" x="196" y="-456.8" font-family="Arial" font-size="8.00">+ Activate (GameTime time)</text>
<text text-anchor="start" x="196" y="-446.8" font-family="Arial" font-size="8.00">+ Draw (GameTime time)</text>
<text text-anchor="start" x="196" y="-436.8" font-family="Arial" font-size="8.00"># BackgroundColor (ItemState itemState) : Color</text>
<text text-anchor="start" x="196" y="-426.8" font-family="Arial" font-size="8.00"># ForegroundColor (ItemState itemState) : Color</text>
<text text-anchor="start" x="196" y="-416.8" font-family="Arial" font-size="8.00">+ DrawMenu (GameTime time) abstract</text>
<text text-anchor="start" x="196" y="-406.8" font-family="Arial" font-size="8.00">+ UpdateMenu (GameTime time) abstract</text>
<text text-anchor="start" x="196" y="-396.8" font-family="Arial" font-size="8.00">+ Initialize ()</text>
<text text-anchor="start" x="196" y="-386.8" font-family="Arial" font-size="8.00">+ Unload ()</text>
<text text-anchor="start" x="196" y="-376.8" font-family="Arial" font-size="8.00">+ Update (GameTime time)</text>
</g>
<!-- Box_GameScreen&#45;&gt;Box_MenuScreen -->
<g id="edge4" class="edge"><title>Box_GameScreen&#45;&gt;Box_MenuScreen</title>
<path fill="none" stroke="midnightblue" d="M227.252,-606.889C233.94,-589.19 240.757,-571.148 247.208,-554.076"/>
<polygon fill="none" stroke="midnightblue" points="223.813,-606.087 223.553,-616.679 230.362,-608.561 223.813,-606.087"/>
</g>
<!-- Box_StartScreen -->
<g id="node4" class="node"><title>Box_StartScreen</title>
<polygon fill="#fcfcda" stroke="black" points="45.5,-173 45.5,-287 176.5,-287 176.5,-173 45.5,-173"/>
<text text-anchor="middle" x="111" y="-275.8" font-family="Arial" font-size="8.00">StartScreen</text>
<polyline fill="none" stroke="black" points="45.5,-269 176.5,-269 "/>
<text text-anchor="start" x="53.5" y="-257.8" font-family="Arial" font-size="8.00">&#45; spriteBatch : SpriteBatch</text>
<text text-anchor="start" x="53.5" y="-247.8" font-family="Arial" font-size="8.00">&#45; logo : Texture2D</text>
<text text-anchor="start" x="53.5" y="-237.8" font-family="Arial" font-size="8.00"># menu : Menu</text>
<polyline fill="none" stroke="black" points="45.5,-231 176.5,-231 "/>
<text text-anchor="start" x="53.5" y="-219.8" font-family="Arial" font-size="8.00">+ StartScreen (Game game)</text>
<text text-anchor="start" x="53.5" y="-209.8" font-family="Arial" font-size="8.00">+ Activate (GameTime time)</text>
<text text-anchor="start" x="53.5" y="-199.8" font-family="Arial" font-size="8.00">+ UpdateMenu (GameTime time)</text>
<text text-anchor="start" x="53.5" y="-189.8" font-family="Arial" font-size="8.00">+ DrawMenu (GameTime time)</text>
<text text-anchor="start" x="53.5" y="-179.8" font-family="Arial" font-size="8.00">+ Initialize ()</text>
</g>
<!-- Box_MenuScreen&#45;&gt;Box_StartScreen -->
<g id="edge6" class="edge"><title>Box_MenuScreen&#45;&gt;Box_StartScreen</title>
<path fill="none" stroke="midnightblue" d="M208.097,-361.734C189.293,-336.223 169.727,-309.677 153.128,-287.156"/>
<polygon fill="none" stroke="midnightblue" points="205.42,-364.001 214.171,-369.974 211.055,-359.848 205.42,-364.001"/>
</g>
<!-- Box_LoadSavegameScreen -->
<g id="node5" class="node"><title>Box_LoadSavegameScreen</title>
<polygon fill="#fcfcda" stroke="black" points="194,-153 194,-307 370,-307 370,-153 194,-153"/>
<text text-anchor="middle" x="282" y="-295.8" font-family="Arial" font-size="8.00">LoadSavegameScreen</text>
<polyline fill="none" stroke="black" points="194,-289 370,-289 "/>
<text text-anchor="start" x="202" y="-277.8" font-family="Arial" font-size="8.00">&#45; fileIndex : FileIndex</text>
<text text-anchor="start" x="202" y="-267.8" font-family="Arial" font-size="8.00">&#45; fileFormat : IKnotIO</text>
<text text-anchor="start" x="202" y="-257.8" font-family="Arial" font-size="8.00">&#45; spriteBatch : SpriteBatch</text>
<text text-anchor="start" x="202" y="-247.8" font-family="Arial" font-size="8.00">&#45; menu : VerticalMenu</text>
<polyline fill="none" stroke="black" points="194,-241 370,-241 "/>
<text text-anchor="start" x="202" y="-229.8" font-family="Arial" font-size="8.00">&#45; AddDefaultKnots ()</text>
<text text-anchor="start" x="202" y="-219.8" font-family="Arial" font-size="8.00">+ LoadSavegameScreen (Core.Game game)</text>
<text text-anchor="start" x="202" y="-209.8" font-family="Arial" font-size="8.00">+ Activate (GameTime time)</text>
<text text-anchor="start" x="202" y="-199.8" font-family="Arial" font-size="8.00">+ DrawMenu (GameTime time)</text>
<text text-anchor="start" x="202" y="-189.8" font-family="Arial" font-size="8.00">&#45; AddFileToList (string filename)</text>
<text text-anchor="start" x="202" y="-179.8" font-family="Arial" font-size="8.00">&#45; UpdateFiles ()</text>
<text text-anchor="start" x="202" y="-169.8" font-family="Arial" font-size="8.00">+ Initialize ()</text>
<text text-anchor="start" x="202" y="-159.8" font-family="Arial" font-size="8.00">+ UpdateMenu (GameTime time)</text>
</g>
<!-- Box_MenuScreen&#45;&gt;Box_LoadSavegameScreen -->
<g id="edge8" class="edge"><title>Box_MenuScreen&#45;&gt;Box_LoadSavegameScreen</title>
<path fill="none" stroke="midnightblue" d="M282,-359.689C282,-342.115 282,-324.116 282,-307.336"/>
<polygon fill="none" stroke="midnightblue" points="278.5,-359.974 282,-369.974 285.5,-359.974 278.5,-359.974"/>
</g>
<!-- Box_OptionScreen -->
<g id="node6" class="node"><title>Box_OptionScreen</title>
<polygon fill="#fcfcda" stroke="black" points="387.5,-178 387.5,-282 530.5,-282 530.5,-178 387.5,-178"/>
<text text-anchor="middle" x="459" y="-270.8" font-family="Arial" font-size="8.00">OptionScreen</text>
<polyline fill="none" stroke="black" points="387.5,-264 530.5,-264 "/>
<text text-anchor="start" x="395.5" y="-252.8" font-family="Arial" font-size="8.00">&#45; spriteBatch : SpriteBatch</text>
<text text-anchor="start" x="395.5" y="-242.8" font-family="Arial" font-size="8.00">&#45; menu : VerticalMenu</text>
<polyline fill="none" stroke="black" points="387.5,-236 530.5,-236 "/>
<text text-anchor="start" x="395.5" y="-224.8" font-family="Arial" font-size="8.00">+ OptionScreen (Core.Game game)</text>
<text text-anchor="start" x="395.5" y="-214.8" font-family="Arial" font-size="8.00">+ Activate (GameTime time)</text>
<text text-anchor="start" x="395.5" y="-204.8" font-family="Arial" font-size="8.00">+ DrawMenu (GameTime time)</text>
<text text-anchor="start" x="395.5" y="-194.8" font-family="Arial" font-size="8.00">+ UpdateMenu (GameTime time)</text>
<text text-anchor="start" x="395.5" y="-184.8" font-family="Arial" font-size="8.00">+ Initialize ()</text>
</g>
<!-- Box_MenuScreen&#45;&gt;Box_OptionScreen -->
<g id="edge10" class="edge"><title>Box_MenuScreen&#45;&gt;Box_OptionScreen</title>
<path fill="none" stroke="midnightblue" d="M358.385,-361.879C379.346,-334.405 401.232,-305.719 419.217,-282.144"/>
<polygon fill="none" stroke="midnightblue" points="355.492,-359.901 352.209,-369.974 361.058,-364.147 355.492,-359.901"/>
</g>
<!-- Box_VideoOptionScreen -->
<g id="node7" class="node"><title>Box_VideoOptionScreen</title>
<polygon fill="#fcfcda" stroke="black" points="377,-1 377,-115 541,-115 541,-1 377,-1"/>
<text text-anchor="middle" x="459" y="-103.8" font-family="Arial" font-size="8.00">VideoOptionScreen</text>
<polyline fill="none" stroke="black" points="377,-97 541,-97 "/>
<text text-anchor="start" x="385" y="-85.8" font-family="Arial" font-size="8.00">&#45; spriteBatch : SpriteBatch</text>
<text text-anchor="start" x="385" y="-75.8" font-family="Arial" font-size="8.00">&#45; menu : VerticalMenu</text>
<polyline fill="none" stroke="black" points="377,-69 541,-69 "/>
<text text-anchor="start" x="385" y="-57.8" font-family="Arial" font-size="8.00">+ VideoOptionScreen (Core.Game game)</text>
<text text-anchor="start" x="385" y="-47.8" font-family="Arial" font-size="8.00">+ Activate (GameTime time)</text>
<text text-anchor="start" x="385" y="-37.8" font-family="Arial" font-size="8.00">+ DrawMenu (GameTime time)</text>
<text text-anchor="start" x="385" y="-27.8" font-family="Arial" font-size="8.00">+ Initialize ()</text>
<text text-anchor="start" x="385" y="-17.8" font-family="Arial" font-size="8.00">+ UpdateMenu (GameTime time)</text>
<text text-anchor="start" x="385" y="-7.8" font-family="Arial" font-size="8.00">+ Collapse (MenuItem item)</text>
</g>
<!-- Box_OptionScreen&#45;&gt;Box_VideoOptionScreen -->
<g id="edge12" class="edge"><title>Box_OptionScreen&#45;&gt;Box_VideoOptionScreen</title>
<path fill="none" stroke="midnightblue" d="M459,-167.505C459,-150.446 459,-132.05 459,-115.296"/>
<polygon fill="none" stroke="midnightblue" points="455.5,-167.928 459,-177.928 462.5,-167.928 455.5,-167.928"/>
</g>
</g>
</svg>
