<?xml version="1.0" encoding="UTF-8" standalone="no"?>
<!DOCTYPE svg PUBLIC "-//W3C//DTD SVG 1.1//EN"
 "http://www.w3.org/Graphics/SVG/1.1/DTD/svg11.dtd">
<!-- Generated by graphviz version 2.26.3 (20100126.1600)
 -->
<!-- Title: MenuItem Pages: 1 -->
<svg width="318pt" height="588pt"
 viewBox="0.00 0.00 318.00 588.00" xmlns="http://www.w3.org/2000/svg" xmlns:xlink="http://www.w3.org/1999/xlink">
<g id="graph1" class="graph" transform="scale(1 1) rotate(0) translate(4 584)">
<title>MenuItem</title>
<polygon fill="white" stroke="white" points="-4,5 -4,-584 315,-584 315,5 -4,5"/>
<!-- Box_LineRenderer -->
<g id="node1" class="node"><title>Box_LineRenderer</title>
<polygon fill="#fcfcda" stroke="black" points="54.5,-1 54.5,-145 287.5,-145 287.5,-1 54.5,-1"/>
<text text-anchor="middle" x="171" y="-133.8" font-family="Arial" font-size="8.00">LineRenderer</text>
<polyline fill="none" stroke="black" points="54.5,-127 287.5,-127 "/>
<text text-anchor="start" x="62.5" y="-115.8" font-family="Arial" font-size="8.00">&#45; edges : EdgeList</text>
<text text-anchor="start" x="62.5" y="-105.8" font-family="Arial" font-size="8.00">&#45; basicEffect : BasicEffect</text>
<text text-anchor="start" x="62.5" y="-95.8" font-family="Arial" font-size="8.00">+ Info : GameObjectInfo</text>
<text text-anchor="start" x="62.5" y="-85.8" font-family="Arial" font-size="8.00">+ World : World</text>
<polyline fill="none" stroke="black" points="54.5,-79 287.5,-79 "/>
<text text-anchor="start" x="62.5" y="-67.8" font-family="Arial" font-size="8.00">+ LineRenderer (GameScreen screen, GameObjectInfo info)</text>
<text text-anchor="start" x="62.5" y="-57.8" font-family="Arial" font-size="8.00">+ OnEdgesChanged (EdgeList edges)</text>
<text text-anchor="start" x="62.5" y="-47.8" font-family="Arial" font-size="8.00">&#45; DrawRoundedLines ()</text>
<text text-anchor="start" x="62.5" y="-37.8" font-family="Arial" font-size="8.00">+ Intersects (Ray ray) : GameObjectDistance</text>
<text text-anchor="start" x="62.5" y="-27.8" font-family="Arial" font-size="8.00">+ Center () : Vector3</text>
<text text-anchor="start" x="62.5" y="-17.8" font-family="Arial" font-size="8.00">+ Draw (GameTime gameTime)</text>
<text text-anchor="start" x="62.5" y="-7.8" font-family="Arial" font-size="8.00">+ Update (GameTime gameTime)</text>
</g>
<!-- Box_KnotRenderer -->
<g id="node2" class="node"><title>Box_KnotRenderer</title>
<polygon fill="#fcfcda" stroke="black" points="53.5,-183 53.5,-447 288.5,-447 288.5,-183 53.5,-183"/>
<text text-anchor="middle" x="171" y="-435.8" font-family="Arial" font-size="8.00">KnotRenderer</text>
<polyline fill="none" stroke="black" points="53.5,-429 288.5,-429 "/>
<text text-anchor="start" x="61.5" y="-417.8" font-family="Arial" font-size="8.00">&#45; arrows : List&lt;ArrowModel&gt;</text>
<text text-anchor="start" x="61.5" y="-407.8" font-family="Arial" font-size="8.00">&#45; nodes : List&lt;NodeModel&gt;</text>
<text text-anchor="start" x="61.5" y="-397.8" font-family="Arial" font-size="8.00">&#45; pipes : List&lt;PipeModel&gt;</text>
<text text-anchor="start" x="61.5" y="-387.8" font-family="Arial" font-size="8.00">&#45; arrowFactory : ModelFactory</text>
<text text-anchor="start" x="61.5" y="-377.8" font-family="Arial" font-size="8.00">&#45; nodeFactory : ModelFactory</text>
<text text-anchor="start" x="61.5" y="-367.8" font-family="Arial" font-size="8.00">&#45; pipeFactory : ModelFactory</text>
<text text-anchor="start" x="61.5" y="-357.8" font-family="Arial" font-size="8.00">+ Info : GameObjectInfo</text>
<text text-anchor="start" x="61.5" y="-347.8" font-family="Arial" font-size="8.00">&#45; screen : GameScreen</text>
<text text-anchor="start" x="61.5" y="-337.8" font-family="Arial" font-size="8.00">&#45; knot : Knot</text>
<text text-anchor="start" x="61.5" y="-327.8" font-family="Arial" font-size="8.00">+ Knot : Knot</text>
<text text-anchor="start" x="61.5" y="-317.8" font-family="Arial" font-size="8.00">+ World : World</text>
<polyline fill="none" stroke="black" points="53.5,-311 288.5,-311 "/>
<text text-anchor="start" x="61.5" y="-299.8" font-family="Arial" font-size="8.00">&#45; nodeMap () : NodeMap</text>
<text text-anchor="start" x="61.5" y="-289.8" font-family="Arial" font-size="8.00">&#45; IEnumerable.GetEnumerator () : IEnumerator</text>
<text text-anchor="start" x="61.5" y="-279.8" font-family="Arial" font-size="8.00">&#45; CreateArrow (Edge edge)</text>
<text text-anchor="start" x="61.5" y="-269.8" font-family="Arial" font-size="8.00">+ Draw (GameTime time)</text>
<text text-anchor="start" x="61.5" y="-259.8" font-family="Arial" font-size="8.00">+ OnEdgesChanged ()</text>
<text text-anchor="start" x="61.5" y="-249.8" font-family="Arial" font-size="8.00">+ Update (GameTime time)</text>
<text text-anchor="start" x="61.5" y="-239.8" font-family="Arial" font-size="8.00">&#45; CreateArrows (IList&lt;Edge&gt; selectedEdges)</text>
<text text-anchor="start" x="61.5" y="-229.8" font-family="Arial" font-size="8.00">+ Intersects (Ray ray) : GameObjectDistance</text>
<text text-anchor="start" x="61.5" y="-219.8" font-family="Arial" font-size="8.00">+ GetEnumerator () : IEnumerator&lt;IGameObject&gt;</text>
<text text-anchor="start" x="61.5" y="-209.8" font-family="Arial" font-size="8.00">+ KnotRenderer (GameScreen screen, GameObjectInfo info)</text>
<text text-anchor="start" x="61.5" y="-199.8" font-family="Arial" font-size="8.00">+ Center () : Vector3</text>
<text text-anchor="start" x="61.5" y="-189.8" font-family="Arial" font-size="8.00">+ CreateArrows (IEnumerable&lt;Edge&gt; selectedEdges)</text>
</g>
<!-- Box_KnotRenderer&#45;&gt;Box_LineRenderer -->
<g id="edge2" class="edge"><title>Box_KnotRenderer&#45;&gt;Box_LineRenderer</title>
<path fill="none" stroke="midnightblue" d="M171,-172.431C171,-163.048 171,-153.844 171,-145.055"/>
<polygon fill="none" stroke="midnightblue" points="167.5,-172.671 171,-182.671 174.5,-172.671 167.5,-172.671"/>
</g>
<!-- Box_IGameObject -->
<g id="node3" class="node"><title>Box_IGameObject</title>
<polygon fill="#dafcda" stroke="black" points="-0.5,-485 -0.5,-579 178.5,-579 178.5,-485 -0.5,-485"/>
<text text-anchor="middle" x="89" y="-567.8" font-family="Arial" font-size="8.00">IGameObject</text>
<polyline fill="none" stroke="black" points="-0.5,-561 178.5,-561 "/>
<text text-anchor="start" x="7.5" y="-549.8" font-family="Arial" font-size="8.00">+ Info : GameObjectInfo</text>
<text text-anchor="start" x="7.5" y="-539.8" font-family="Arial" font-size="8.00">+ World : World</text>
<polyline fill="none" stroke="black" points="-0.5,-533 178.5,-533 "/>
<text text-anchor="start" x="7.5" y="-521.8" font-family="Arial" font-size="8.00">+ Draw (GameTime time)</text>
<text text-anchor="start" x="7.5" y="-511.8" font-family="Arial" font-size="8.00">+ Update (GameTime time)</text>
<text text-anchor="start" x="7.5" y="-501.8" font-family="Arial" font-size="8.00">+ Intersects (Ray ray) : GameObjectDistance</text>
<text text-anchor="start" x="7.5" y="-491.8" font-family="Arial" font-size="8.00">+ Center () : Vector3</text>
</g>
<!-- Box_IGameObject&#45;&gt;Box_KnotRenderer -->
<g id="edge4" class="edge"><title>Box_IGameObject&#45;&gt;Box_KnotRenderer</title>
<path fill="none" stroke="midnightblue" d="M110.349,-475.503C113.716,-466.593 117.314,-457.071 121.015,-447.277"/>
<polygon fill="none" stroke="midnightblue" points="107.054,-474.323 106.793,-484.914 113.602,-476.797 107.054,-474.323"/>
</g>
<!-- Box_IEnumerable -->
<g id="node4" class="node"><title>Box_IEnumerable</title>
<polygon fill="#ffffff" stroke="black" points="195.5,-523 195.5,-541 310.5,-541 310.5,-523 195.5,-523"/>
<text text-anchor="middle" x="253" y="-529.8" font-family="Arial" font-size="8.00">IEnumerable&lt;IGameObject&gt;</text>
</g>
<!-- Box_IEnumerable&#45;&gt;Box_KnotRenderer -->
<g id="edge6" class="edge"><title>Box_IEnumerable&#45;&gt;Box_KnotRenderer</title>
<path fill="none" stroke="midnightblue" d="M245.982,-513.429C240.002,-497.602 230.819,-473.302 220.907,-447.071"/>
<polygon fill="none" stroke="midnightblue" points="242.772,-514.835 249.581,-522.952 249.32,-512.36 242.772,-514.835"/>
</g>
</g>
</svg>
