<?xml version="1.0" encoding="UTF-8" standalone="no"?>
<!DOCTYPE svg PUBLIC "-//W3C//DTD SVG 1.1//EN"
 "http://www.w3.org/Graphics/SVG/1.1/DTD/svg11.dtd">
<!-- Generated by graphviz version 2.26.3 (20100126.1600)
 -->
<!-- Title: MenuItem Pages: 1 -->
<svg width="4017pt" height="2058pt"
 viewBox="0.00 0.00 964.00 494.00" xmlns="http://www.w3.org/2000/svg" xmlns:xlink="http://www.w3.org/1999/xlink">
<g id="graph1" class="graph" transform="scale(4.16667 4.16667) rotate(0) translate(4 490)">
<title>MenuItem</title>
<polygon fill="white" stroke="white" points="-4,5 -4,-490 961,-490 961,5 -4,5"/>
<!-- Box_GameObjectInfo -->
<g id="node1" class="node"><title>Box_GameObjectInfo</title>
<polygon fill="#fcfcda" stroke="black" points="471,-295 471,-429 723,-429 723,-295 471,-295"/>
<text text-anchor="middle" x="597" y="-417.8" font-family="Arial" font-size="8.00">GameObjectInfo</text>
<polyline fill="none" stroke="black" points="471,-411 723,-411 "/>
<text text-anchor="start" x="479" y="-399.8" font-family="Arial" font-size="8.00">+ IsMovable : bool</text>
<text text-anchor="start" x="479" y="-389.8" font-family="Arial" font-size="8.00">+ IsSelectable : bool</text>
<text text-anchor="start" x="479" y="-379.8" font-family="Arial" font-size="8.00">+ IsVisible : bool</text>
<text text-anchor="start" x="479" y="-369.8" font-family="Arial" font-size="8.00">+ Position : Vector3</text>
<polyline fill="none" stroke="black" points="471,-363 723,-363 "/>
<text text-anchor="start" x="479" y="-351.8" font-family="Arial" font-size="8.00">+ GameObjectInfo ()</text>
<text text-anchor="start" x="479" y="-341.8" font-family="Arial" font-size="8.00">+ operator (GameObjectInfo o1, GameObjectInfo o2) : bool static</text>
<text text-anchor="start" x="479" y="-331.8" font-family="Arial" font-size="8.00">+ Equals (Object obj) : bool</text>
<text text-anchor="start" x="479" y="-321.8" font-family="Arial" font-size="8.00">+ GetHashCode () : int</text>
<text text-anchor="start" x="479" y="-311.8" font-family="Arial" font-size="8.00">+ operator ! (GameObjectInfo o1, GameObjectInfo o2) : bool static</text>
<text text-anchor="start" x="479" y="-301.8" font-family="Arial" font-size="8.00">+ Equals (GameObjectInfo other) : bool virtual</text>
</g>
<!-- Box_GameModelInfo -->
<g id="node2" class="node"><title>Box_GameModelInfo</title>
<polygon fill="#fcfcda" stroke="black" points="368,-163 368,-247 524,-247 524,-163 368,-163"/>
<text text-anchor="middle" x="446" y="-235.8" font-family="Arial" font-size="8.00">GameModelInfo</text>
<polyline fill="none" stroke="black" points="368,-229 524,-229 "/>
<text text-anchor="start" x="376" y="-217.8" font-family="Arial" font-size="8.00">+ Rotation : Angles3</text>
<text text-anchor="start" x="376" y="-207.8" font-family="Arial" font-size="8.00">+ Scale : Vector3</text>
<text text-anchor="start" x="376" y="-197.8" font-family="Arial" font-size="8.00">+ Modelname : string</text>
<polyline fill="none" stroke="black" points="368,-191 524,-191 "/>
<text text-anchor="start" x="376" y="-179.8" font-family="Arial" font-size="8.00">+ GameModelInfo (string modelname)</text>
<text text-anchor="start" x="376" y="-169.8" font-family="Arial" font-size="8.00">+ Equals (GameObjectInfo other) : bool</text>
</g>
<!-- Box_GameObjectInfo&#45;&gt;Box_GameModelInfo -->
<g id="edge4" class="edge"><title>Box_GameObjectInfo&#45;&gt;Box_GameModelInfo</title>
<path fill="none" stroke="midnightblue" d="M525.566,-287.728C512.213,-273.844 498.691,-259.784 486.675,-247.291"/>
<polygon fill="none" stroke="midnightblue" points="523.07,-290.181 532.524,-294.962 528.115,-285.329 523.07,-290.181"/>
</g>
<!-- Box_TexturedRectangleInfo -->
<g id="node6" class="node"><title>Box_TexturedRectangleInfo</title>
<polygon fill="#fcfcda" stroke="black" points="541.5,-153 541.5,-257 956.5,-257 956.5,-153 541.5,-153"/>
<text text-anchor="middle" x="749" y="-245.8" font-family="Arial" font-size="8.00">TexturedRectangleInfo</text>
<polyline fill="none" stroke="black" points="541.5,-239 956.5,-239 "/>
<text text-anchor="start" x="549.5" y="-227.8" font-family="Arial" font-size="8.00">+ Left : Vector3</text>
<text text-anchor="start" x="549.5" y="-217.8" font-family="Arial" font-size="8.00">+ Up : Vector3</text>
<text text-anchor="start" x="549.5" y="-207.8" font-family="Arial" font-size="8.00">+ Height : float</text>
<text text-anchor="start" x="549.5" y="-197.8" font-family="Arial" font-size="8.00">+ Width : float</text>
<text text-anchor="start" x="549.5" y="-187.8" font-family="Arial" font-size="8.00">+ Texturename : string</text>
<polyline fill="none" stroke="black" points="541.5,-181 956.5,-181 "/>
<text text-anchor="start" x="549.5" y="-169.8" font-family="Arial" font-size="8.00">+ TexturedRectangleInfo (string texturename, Vector3 origin, Vector3 left, float width, Vector3 up, float height)</text>
<text text-anchor="start" x="549.5" y="-159.8" font-family="Arial" font-size="8.00">+ Equals (GameObjectInfo other) : bool</text>
</g>
<!-- Box_GameObjectInfo&#45;&gt;Box_TexturedRectangleInfo -->
<g id="edge12" class="edge"><title>Box_GameObjectInfo&#45;&gt;Box_TexturedRectangleInfo</title>
<path fill="none" stroke="midnightblue" d="M669.124,-287.503C679.077,-277.223 689.119,-266.851 698.564,-257.095"/>
<polygon fill="none" stroke="midnightblue" points="666.344,-285.343 661.903,-294.962 671.373,-290.212 666.344,-285.343"/>
</g>
<!-- Box_ArrowModelInfo -->
<g id="node3" class="node"><title>Box_ArrowModelInfo</title>
<polygon fill="#fcfcda" stroke="black" points="0,-16 0,-100 274,-100 274,-16 0,-16"/>
<text text-anchor="middle" x="137" y="-88.8" font-family="Arial" font-size="8.00">ArrowModelInfo</text>
<polyline fill="none" stroke="black" points="0,-82 274,-82 "/>
<text text-anchor="start" x="8" y="-70.8" font-family="Arial" font-size="8.00">+ Diameter : float</text>
<text text-anchor="start" x="8" y="-60.8" font-family="Arial" font-size="8.00">+ Length : float</text>
<text text-anchor="start" x="8" y="-50.8" font-family="Arial" font-size="8.00">+ Direction : Vector3</text>
<polyline fill="none" stroke="black" points="0,-44 274,-44 "/>
<text text-anchor="start" x="8" y="-32.8" font-family="Arial" font-size="8.00">+ ArrowModelInfo (Vector3 position, Vector3 direction, Vector3 offset)</text>
<text text-anchor="start" x="8" y="-22.8" font-family="Arial" font-size="8.00">+ Equals (GameObjectInfo other) : bool</text>
</g>
<!-- Box_GameModelInfo&#45;&gt;Box_ArrowModelInfo -->
<g id="edge6" class="edge"><title>Box_GameModelInfo&#45;&gt;Box_ArrowModelInfo</title>
<path fill="none" stroke="midnightblue" d="M358.592,-163.417C316.925,-143.596 267.179,-119.93 225.387,-100.048"/>
<polygon fill="none" stroke="midnightblue" points="357.093,-166.58 367.627,-167.716 360.1,-160.259 357.093,-166.58"/>
</g>
<!-- Box_NodeModelInfo -->
<g id="node4" class="node"><title>Box_NodeModelInfo</title>
<polygon fill="#fcfcda" stroke="black" points="292,-16 292,-100 600,-100 600,-16 292,-16"/>
<text text-anchor="middle" x="446" y="-88.8" font-family="Arial" font-size="8.00">NodeModelInfo</text>
<polyline fill="none" stroke="black" points="292,-82 600,-82 "/>
<text text-anchor="start" x="300" y="-70.8" font-family="Arial" font-size="8.00">+ EdgeA : Edge</text>
<text text-anchor="start" x="300" y="-60.8" font-family="Arial" font-size="8.00">+ EdgeB : Edge</text>
<text text-anchor="start" x="300" y="-50.8" font-family="Arial" font-size="8.00">+ NodeMap : NodeMap</text>
<polyline fill="none" stroke="black" points="292,-44 600,-44 "/>
<text text-anchor="start" x="300" y="-32.8" font-family="Arial" font-size="8.00">+ NodeModelInfo (NodeMap nodeMap, Edge edgeA, Edge edgeB, Vector3 offset)</text>
<text text-anchor="start" x="300" y="-22.8" font-family="Arial" font-size="8.00">+ Equals (GameObjectInfo other) : bool</text>
</g>
<!-- Box_GameModelInfo&#45;&gt;Box_NodeModelInfo -->
<g id="edge8" class="edge"><title>Box_GameModelInfo&#45;&gt;Box_NodeModelInfo</title>
<path fill="none" stroke="midnightblue" d="M446,-152.437C446,-135.266 446,-116.431 446,-100.13"/>
<polygon fill="none" stroke="midnightblue" points="442.5,-152.876 446,-162.876 449.5,-152.876 442.5,-152.876"/>
</g>
<!-- Box_PipeModelInfo -->
<g id="node5" class="node"><title>Box_PipeModelInfo</title>
<polygon fill="#fcfcda" stroke="black" points="617.5,-1 617.5,-115 906.5,-115 906.5,-1 617.5,-1"/>
<text text-anchor="middle" x="762" y="-103.8" font-family="Arial" font-size="8.00">PipeModelInfo</text>
<polyline fill="none" stroke="black" points="617.5,-97 906.5,-97 "/>
<text text-anchor="start" x="625.5" y="-85.8" font-family="Arial" font-size="8.00">+ Edge : Edge</text>
<text text-anchor="start" x="625.5" y="-75.8" font-family="Arial" font-size="8.00">+ NodeMap : NodeMap</text>
<text text-anchor="start" x="625.5" y="-65.8" font-family="Arial" font-size="8.00">+ Direction : Vector3</text>
<text text-anchor="start" x="625.5" y="-55.8" font-family="Arial" font-size="8.00">+ PositionFrom : Vector3</text>
<text text-anchor="start" x="625.5" y="-45.8" font-family="Arial" font-size="8.00">+ PositionTo : Vector3</text>
<text text-anchor="start" x="625.5" y="-35.8" font-family="Arial" font-size="8.00">+ Knot : Knot</text>
<polyline fill="none" stroke="black" points="617.5,-29 906.5,-29 "/>
<text text-anchor="start" x="625.5" y="-17.8" font-family="Arial" font-size="8.00">+ PipeModelInfo (Knot knot, NodeMap nodeMap, Edge edge, Vector3 offset)</text>
<text text-anchor="start" x="625.5" y="-7.8" font-family="Arial" font-size="8.00">+ Equals (GameObjectInfo other) : bool</text>
</g>
<!-- Box_GameModelInfo&#45;&gt;Box_PipeModelInfo -->
<g id="edge10" class="edge"><title>Box_GameModelInfo&#45;&gt;Box_PipeModelInfo</title>
<path fill="none" stroke="midnightblue" d="M521.698,-157.933C525.49,-155.875 529.272,-153.886 533,-152 559.748,-138.469 588.92,-125.333 617.21,-113.382"/>
<polygon fill="none" stroke="midnightblue" points="519.895,-154.93 512.848,-162.841 523.29,-161.052 519.895,-154.93"/>
</g>
<!-- Box_IEquatable -->
<g id="node7" class="node"><title>Box_IEquatable</title>
<polygon fill="#ffffff" stroke="black" points="537,-467 537,-485 657,-485 657,-467 537,-467"/>
<text text-anchor="middle" x="597" y="-473.8" font-family="Arial" font-size="8.00">IEquatable&lt;GameObjectInfo&gt;</text>
</g>
<!-- Box_IEquatable&#45;&gt;Box_GameObjectInfo -->
<g id="edge2" class="edge"><title>Box_IEquatable&#45;&gt;Box_GameObjectInfo</title>
<path fill="none" stroke="midnightblue" d="M597,-456.57C597,-448.742 597,-439.21 597,-429.246"/>
<polygon fill="none" stroke="midnightblue" points="593.5,-456.671 597,-466.671 600.5,-456.671 593.5,-456.671"/>
</g>
</g>
</svg>
