<?xml version="1.0" encoding="UTF-8" standalone="no"?>
<!DOCTYPE svg PUBLIC "-//W3C//DTD SVG 1.1//EN"
 "http://www.w3.org/Graphics/SVG/1.1/DTD/svg11.dtd">
<!-- Generated by graphviz version 2.26.3 (20100126.1600)
 -->
<!-- Title: MenuItem Pages: 1 -->
<svg width="689pt" height="848pt"
 viewBox="0.00 0.00 689.00 848.00" xmlns="http://www.w3.org/2000/svg" xmlns:xlink="http://www.w3.org/1999/xlink">
<g id="graph1" class="graph" transform="scale(1 1) rotate(0) translate(4 844)">
<title>MenuItem</title>
<polygon fill="white" stroke="white" points="-4,5 -4,-844 686,-844 686,5 -4,5"/>
<!-- Box_GameScreen -->
<g id="node1" class="node"><title>Box_GameScreen</title>
<polygon fill="#fcfcda" stroke="black" points="50.5,-616.5 50.5,-839.5 405.5,-839.5 405.5,-616.5 50.5,-616.5"/>
<text text-anchor="middle" x="228" y="-828.3" font-family="Arial" font-size="8.00">GameScreen</text>
<polyline fill="none" stroke="black" points="50.5,-821.5 405.5,-821.5 "/>
<text text-anchor="start" x="58.5" y="-810.3" font-family="Arial" font-size="8.00">+ content : ContentManager</text>
<text text-anchor="start" x="58.5" y="-800.3" font-family="Arial" font-size="8.00">+ NextState : GameScreen</text>
<text text-anchor="start" x="58.5" y="-790.3" font-family="Arial" font-size="8.00">+ device : GraphicsDevice</text>
<text text-anchor="start" x="58.5" y="-780.3" font-family="Arial" font-size="8.00">+ RenderEffects : RenderEffectStack</text>
<text text-anchor="start" x="58.5" y="-770.3" font-family="Arial" font-size="8.00">+ viewport : Viewport</text>
<text text-anchor="start" x="58.5" y="-760.3" font-family="Arial" font-size="8.00">+ game : Game</text>
<text text-anchor="start" x="58.5" y="-750.3" font-family="Arial" font-size="8.00">+ graphics : GraphicsDeviceManager</text>
<text text-anchor="start" x="58.5" y="-740.3" font-family="Arial" font-size="8.00">+ input : InputManager</text>
<text text-anchor="start" x="58.5" y="-730.3" font-family="Arial" font-size="8.00">+ PostProcessing : RenderEffect</text>
<polyline fill="none" stroke="black" points="50.5,-723.5 405.5,-723.5 "/>
<text text-anchor="start" x="58.5" y="-712.3" font-family="Arial" font-size="8.00">+ Draw (GameTime time) abstract</text>
<text text-anchor="start" x="58.5" y="-702.3" font-family="Arial" font-size="8.00">+ Initialize () abstract</text>
<text text-anchor="start" x="58.5" y="-692.3" font-family="Arial" font-size="8.00">+ Unload () abstract</text>
<text text-anchor="start" x="58.5" y="-682.3" font-family="Arial" font-size="8.00">+ Activate (GameTime time) virtual</text>
<text text-anchor="start" x="58.5" y="-672.3" font-family="Arial" font-size="8.00">+ GameScreen (Game game)</text>
<text text-anchor="start" x="58.5" y="-662.3" font-family="Arial" font-size="8.00">+ Update (GameTime time) abstract</text>
<text text-anchor="start" x="58.5" y="-652.3" font-family="Arial" font-size="8.00">+ Deactivate (GameTime time) virtual</text>
<text text-anchor="start" x="58.5" y="-642.3" font-family="Arial" font-size="8.00">+ AddGameComponents (GameTime time, params IGameScreenComponent[] components)</text>
<text text-anchor="start" x="58.5" y="-632.3" font-family="Arial" font-size="8.00">+ RemoveGameComponents (GameTime time, params IGameScreenComponent[] components)</text>
</g>
<!-- Box_CreativeModeScreen -->
<g id="node2" class="node"><title>Box_CreativeModeScreen</title>
<polygon fill="#fcfcda" stroke="black" points="45,-345 45,-579 215,-579 215,-345 45,-345"/>
<text text-anchor="middle" x="130" y="-567.8" font-family="Arial" font-size="8.00">CreativeModeScreen</text>
<polyline fill="none" stroke="black" points="45,-561 215,-561 "/>
<text text-anchor="start" x="53" y="-549.8" font-family="Arial" font-size="8.00">&#45; dialog : Dialog</text>
<text text-anchor="start" x="53" y="-539.8" font-family="Arial" font-size="8.00">&#45; coloring : EdgeColoring</text>
<text text-anchor="start" x="53" y="-529.8" font-family="Arial" font-size="8.00">&#45; movement : EdgeMovement</text>
<text text-anchor="start" x="53" y="-519.8" font-family="Arial" font-size="8.00">&#45; knotInput : KnotInputHandler</text>
<text text-anchor="start" x="53" y="-509.8" font-family="Arial" font-size="8.00">&#45; renderer : KnotRenderer</text>
<text text-anchor="start" x="53" y="-499.8" font-family="Arial" font-size="8.00">&#45; picker : ModelMouseHandler</text>
<text text-anchor="start" x="53" y="-489.8" font-family="Arial" font-size="8.00">&#45; pointer : MousePointer</text>
<text text-anchor="start" x="53" y="-479.8" font-family="Arial" font-size="8.00">&#45; overlay : Overlay</text>
<text text-anchor="start" x="53" y="-469.8" font-family="Arial" font-size="8.00">&#45; world : World</text>
<text text-anchor="start" x="53" y="-459.8" font-family="Arial" font-size="8.00">&#45; knotModified : bool</text>
<text text-anchor="start" x="53" y="-449.8" font-family="Arial" font-size="8.00">+ Knot : Knot</text>
<text text-anchor="start" x="53" y="-439.8" font-family="Arial" font-size="8.00">&#45; knot : Knot</text>
<polyline fill="none" stroke="black" points="45,-433 215,-433 "/>
<text text-anchor="start" x="53" y="-421.8" font-family="Arial" font-size="8.00">&#45; UpdateInput (GameTime time)</text>
<text text-anchor="start" x="53" y="-411.8" font-family="Arial" font-size="8.00">+ CreativeModeScreen (Core.Game game)</text>
<text text-anchor="start" x="53" y="-401.8" font-family="Arial" font-size="8.00">+ Activate (GameTime time)</text>
<text text-anchor="start" x="53" y="-391.8" font-family="Arial" font-size="8.00">+ Draw (GameTime time)</text>
<text text-anchor="start" x="53" y="-381.8" font-family="Arial" font-size="8.00">+ Initialize ()</text>
<text text-anchor="start" x="53" y="-371.8" font-family="Arial" font-size="8.00">+ LoadFile (string file)</text>
<text text-anchor="start" x="53" y="-361.8" font-family="Arial" font-size="8.00">+ Unload ()</text>
<text text-anchor="start" x="53" y="-351.8" font-family="Arial" font-size="8.00">+ Update (GameTime time)</text>
</g>
<!-- Box_GameScreen&#45;&gt;Box_CreativeModeScreen -->
<g id="edge2" class="edge"><title>Box_GameScreen&#45;&gt;Box_CreativeModeScreen</title>
<path fill="none" stroke="midnightblue" d="M183.366,-606.849C179.995,-597.701 176.597,-588.478 173.235,-579.353"/>
<polygon fill="none" stroke="midnightblue" points="180.124,-608.175 186.865,-616.348 186.692,-605.755 180.124,-608.175"/>
</g>
<!-- Box_MenuScreen -->
<g id="node3" class="node"><title>Box_MenuScreen</title>
<polygon fill="#fcfcda" stroke="black" points="233,-370 233,-554 421,-554 421,-370 233,-370"/>
<text text-anchor="middle" x="327" y="-542.8" font-family="Arial" font-size="8.00">MenuScreen</text>
<polyline fill="none" stroke="black" points="233,-536 421,-536 "/>
<text text-anchor="start" x="241" y="-524.8" font-family="Arial" font-size="8.00">&#45; backColor : Color</text>
<text text-anchor="start" x="241" y="-514.8" font-family="Arial" font-size="8.00">&#45; pointer : MousePointer</text>
<text text-anchor="start" x="241" y="-504.8" font-family="Arial" font-size="8.00"># LinePoints : List&lt;Vector2&gt;</text>
<text text-anchor="start" x="241" y="-494.8" font-family="Arial" font-size="8.00"># LineWidth : int</text>
<text text-anchor="start" x="241" y="-484.8" font-family="Arial" font-size="8.00">&#45; spriteBatch : SpriteBatch</text>
<polyline fill="none" stroke="black" points="233,-478 421,-478 "/>
<text text-anchor="start" x="241" y="-466.8" font-family="Arial" font-size="8.00">+ MenuScreen (Core.Game game)</text>
<text text-anchor="start" x="241" y="-456.8" font-family="Arial" font-size="8.00">+ Activate (GameTime time)</text>
<text text-anchor="start" x="241" y="-446.8" font-family="Arial" font-size="8.00">+ Draw (GameTime time)</text>
<text text-anchor="start" x="241" y="-436.8" font-family="Arial" font-size="8.00"># BackgroundColor (ItemState itemState) : Color</text>
<text text-anchor="start" x="241" y="-426.8" font-family="Arial" font-size="8.00"># ForegroundColor (ItemState itemState) : Color</text>
<text text-anchor="start" x="241" y="-416.8" font-family="Arial" font-size="8.00">+ DrawMenu (GameTime time) abstract</text>
<text text-anchor="start" x="241" y="-406.8" font-family="Arial" font-size="8.00">+ UpdateMenu (GameTime time) abstract</text>
<text text-anchor="start" x="241" y="-396.8" font-family="Arial" font-size="8.00">+ Initialize ()</text>
<text text-anchor="start" x="241" y="-386.8" font-family="Arial" font-size="8.00">+ Unload ()</text>
<text text-anchor="start" x="241" y="-376.8" font-family="Arial" font-size="8.00">+ Update (GameTime time)</text>
</g>
<!-- Box_GameScreen&#45;&gt;Box_MenuScreen -->
<g id="edge4" class="edge"><title>Box_GameScreen&#45;&gt;Box_MenuScreen</title>
<path fill="none" stroke="midnightblue" d="M273.192,-606.574C279.765,-588.915 286.439,-570.982 292.747,-554.033"/>
<polygon fill="none" stroke="midnightblue" points="269.763,-605.755 269.555,-616.348 276.323,-608.197 269.763,-605.755"/>
</g>
<!-- Box_StartScreen -->
<g id="node4" class="node"><title>Box_StartScreen</title>
<polygon fill="#fcfcda" stroke="black" points="-0.5,-173 -0.5,-287 130.5,-287 130.5,-173 -0.5,-173"/>
<text text-anchor="middle" x="65" y="-275.8" font-family="Arial" font-size="8.00">StartScreen</text>
<polyline fill="none" stroke="black" points="-0.5,-269 130.5,-269 "/>
<text text-anchor="start" x="7.5" y="-257.8" font-family="Arial" font-size="8.00">&#45; spriteBatch : SpriteBatch</text>
<text text-anchor="start" x="7.5" y="-247.8" font-family="Arial" font-size="8.00">&#45; logo : Texture2D</text>
<text text-anchor="start" x="7.5" y="-237.8" font-family="Arial" font-size="8.00"># menu : Menu</text>
<polyline fill="none" stroke="black" points="-0.5,-231 130.5,-231 "/>
<text text-anchor="start" x="7.5" y="-219.8" font-family="Arial" font-size="8.00">+ StartScreen (Game game)</text>
<text text-anchor="start" x="7.5" y="-209.8" font-family="Arial" font-size="8.00">+ Activate (GameTime time)</text>
<text text-anchor="start" x="7.5" y="-199.8" font-family="Arial" font-size="8.00">+ UpdateMenu (GameTime time)</text>
<text text-anchor="start" x="7.5" y="-189.8" font-family="Arial" font-size="8.00">+ DrawMenu (GameTime time)</text>
<text text-anchor="start" x="7.5" y="-179.8" font-family="Arial" font-size="8.00">+ Initialize ()</text>
</g>
<!-- Box_MenuScreen&#45;&gt;Box_StartScreen -->
<g id="edge6" class="edge"><title>Box_MenuScreen&#45;&gt;Box_StartScreen</title>
<path fill="none" stroke="midnightblue" d="M246.87,-362.853C239.502,-356.069 231.845,-349.683 224,-344 190.775,-319.933 172.717,-331.374 139,-308 130.256,-301.938 121.737,-294.709 113.777,-287.133"/>
<polygon fill="none" stroke="midnightblue" points="244.478,-365.409 254.139,-369.759 249.299,-360.334 244.478,-365.409"/>
</g>
<!-- Box_CreativeLoadScreen -->
<g id="node5" class="node"><title>Box_CreativeLoadScreen</title>
<polygon fill="#fcfcda" stroke="black" points="148,-153 148,-307 316,-307 316,-153 148,-153"/>
<text text-anchor="middle" x="232" y="-295.8" font-family="Arial" font-size="8.00">CreativeLoadScreen</text>
<polyline fill="none" stroke="black" points="148,-289 316,-289 "/>
<text text-anchor="start" x="156" y="-277.8" font-family="Arial" font-size="8.00">&#45; fileIndex : FileIndex</text>
<text text-anchor="start" x="156" y="-267.8" font-family="Arial" font-size="8.00">&#45; fileFormat : IKnotIO</text>
<text text-anchor="start" x="156" y="-257.8" font-family="Arial" font-size="8.00">&#45; spriteBatch : SpriteBatch</text>
<text text-anchor="start" x="156" y="-247.8" font-family="Arial" font-size="8.00">&#45; menu : VerticalMenu</text>
<polyline fill="none" stroke="black" points="148,-241 316,-241 "/>
<text text-anchor="start" x="156" y="-229.8" font-family="Arial" font-size="8.00">&#45; AddDefaultKnots ()</text>
<text text-anchor="start" x="156" y="-219.8" font-family="Arial" font-size="8.00">+ CreativeLoadScreen (Core.Game game)</text>
<text text-anchor="start" x="156" y="-209.8" font-family="Arial" font-size="8.00">+ Activate (GameTime time)</text>
<text text-anchor="start" x="156" y="-199.8" font-family="Arial" font-size="8.00">+ DrawMenu (GameTime time)</text>
<text text-anchor="start" x="156" y="-189.8" font-family="Arial" font-size="8.00">&#45; AddFileToList (string filename)</text>
<text text-anchor="start" x="156" y="-179.8" font-family="Arial" font-size="8.00">&#45; UpdateFiles ()</text>
<text text-anchor="start" x="156" y="-169.8" font-family="Arial" font-size="8.00">+ Initialize ()</text>
<text text-anchor="start" x="156" y="-159.8" font-family="Arial" font-size="8.00">+ UpdateMenu (GameTime time)</text>
</g>
<!-- Box_MenuScreen&#45;&gt;Box_CreativeLoadScreen -->
<g id="edge8" class="edge"><title>Box_MenuScreen&#45;&gt;Box_CreativeLoadScreen</title>
<path fill="none" stroke="midnightblue" d="M285.509,-360.674C278.185,-342.788 270.667,-324.429 263.668,-307.336"/>
<polygon fill="none" stroke="midnightblue" points="282.289,-362.046 289.317,-369.974 288.767,-359.394 282.289,-362.046"/>
</g>
<!-- Box_LoadSavegameScreen -->
<g id="node6" class="node"><title>Box_LoadSavegameScreen</title>
<polygon fill="#fcfcda" stroke="black" points="334,-153 334,-307 510,-307 510,-153 334,-153"/>
<text text-anchor="middle" x="422" y="-295.8" font-family="Arial" font-size="8.00">LoadSavegameScreen</text>
<polyline fill="none" stroke="black" points="334,-289 510,-289 "/>
<text text-anchor="start" x="342" y="-277.8" font-family="Arial" font-size="8.00">&#45; fileIndex : FileIndex</text>
<text text-anchor="start" x="342" y="-267.8" font-family="Arial" font-size="8.00">&#45; fileFormat : IKnotIO</text>
<text text-anchor="start" x="342" y="-257.8" font-family="Arial" font-size="8.00">&#45; spriteBatch : SpriteBatch</text>
<text text-anchor="start" x="342" y="-247.8" font-family="Arial" font-size="8.00">&#45; menu : VerticalMenu</text>
<polyline fill="none" stroke="black" points="334,-241 510,-241 "/>
<text text-anchor="start" x="342" y="-229.8" font-family="Arial" font-size="8.00">&#45; AddDefaultKnots ()</text>
<text text-anchor="start" x="342" y="-219.8" font-family="Arial" font-size="8.00">+ LoadSavegameScreen (Core.Game game)</text>
<text text-anchor="start" x="342" y="-209.8" font-family="Arial" font-size="8.00">+ Activate (GameTime time)</text>
<text text-anchor="start" x="342" y="-199.8" font-family="Arial" font-size="8.00">+ DrawMenu (GameTime time)</text>
<text text-anchor="start" x="342" y="-189.8" font-family="Arial" font-size="8.00">&#45; AddFileToList (string filename)</text>
<text text-anchor="start" x="342" y="-179.8" font-family="Arial" font-size="8.00">&#45; UpdateFiles ()</text>
<text text-anchor="start" x="342" y="-169.8" font-family="Arial" font-size="8.00">+ Initialize ()</text>
<text text-anchor="start" x="342" y="-159.8" font-family="Arial" font-size="8.00">+ UpdateMenu (GameTime time)</text>
</g>
<!-- Box_MenuScreen&#45;&gt;Box_LoadSavegameScreen -->
<g id="edge10" class="edge"><title>Box_MenuScreen&#45;&gt;Box_LoadSavegameScreen</title>
<path fill="none" stroke="midnightblue" d="M368.491,-360.674C375.815,-342.788 383.333,-324.429 390.332,-307.336"/>
<polygon fill="none" stroke="midnightblue" points="365.233,-359.394 364.683,-369.974 371.711,-362.046 365.233,-359.394"/>
</g>
<!-- Box_OptionScreen -->
<g id="node7" class="node"><title>Box_OptionScreen</title>
<polygon fill="#fcfcda" stroke="black" points="527.5,-178 527.5,-282 670.5,-282 670.5,-178 527.5,-178"/>
<text text-anchor="middle" x="599" y="-270.8" font-family="Arial" font-size="8.00">OptionScreen</text>
<polyline fill="none" stroke="black" points="527.5,-264 670.5,-264 "/>
<text text-anchor="start" x="535.5" y="-252.8" font-family="Arial" font-size="8.00">&#45; spriteBatch : SpriteBatch</text>
<text text-anchor="start" x="535.5" y="-242.8" font-family="Arial" font-size="8.00">&#45; menu : VerticalMenu</text>
<polyline fill="none" stroke="black" points="527.5,-236 670.5,-236 "/>
<text text-anchor="start" x="535.5" y="-224.8" font-family="Arial" font-size="8.00">+ OptionScreen (Core.Game game)</text>
<text text-anchor="start" x="535.5" y="-214.8" font-family="Arial" font-size="8.00">+ Activate (GameTime time)</text>
<text text-anchor="start" x="535.5" y="-204.8" font-family="Arial" font-size="8.00">+ DrawMenu (GameTime time)</text>
<text text-anchor="start" x="535.5" y="-194.8" font-family="Arial" font-size="8.00">+ UpdateMenu (GameTime time)</text>
<text text-anchor="start" x="535.5" y="-184.8" font-family="Arial" font-size="8.00">+ Initialize ()</text>
</g>
<!-- Box_MenuScreen&#45;&gt;Box_OptionScreen -->
<g id="edge12" class="edge"><title>Box_MenuScreen&#45;&gt;Box_OptionScreen</title>
<path fill="none" stroke="midnightblue" d="M429.113,-383.106C458.604,-359.519 490.505,-333.214 519,-308 528.152,-299.902 537.645,-291.066 546.756,-282.345"/>
<polygon fill="none" stroke="midnightblue" points="426.906,-380.39 421.269,-389.361 431.27,-385.862 426.906,-380.39"/>
</g>
<!-- Box_VideoOptionScreen -->
<g id="node8" class="node"><title>Box_VideoOptionScreen</title>
<polygon fill="#fcfcda" stroke="black" points="517,-1 517,-115 681,-115 681,-1 517,-1"/>
<text text-anchor="middle" x="599" y="-103.8" font-family="Arial" font-size="8.00">VideoOptionScreen</text>
<polyline fill="none" stroke="black" points="517,-97 681,-97 "/>
<text text-anchor="start" x="525" y="-85.8" font-family="Arial" font-size="8.00">&#45; spriteBatch : SpriteBatch</text>
<text text-anchor="start" x="525" y="-75.8" font-family="Arial" font-size="8.00">&#45; menu : VerticalMenu</text>
<polyline fill="none" stroke="black" points="517,-69 681,-69 "/>
<text text-anchor="start" x="525" y="-57.8" font-family="Arial" font-size="8.00">+ VideoOptionScreen (Core.Game game)</text>
<text text-anchor="start" x="525" y="-47.8" font-family="Arial" font-size="8.00">+ Activate (GameTime time)</text>
<text text-anchor="start" x="525" y="-37.8" font-family="Arial" font-size="8.00">+ DrawMenu (GameTime time)</text>
<text text-anchor="start" x="525" y="-27.8" font-family="Arial" font-size="8.00">+ Initialize ()</text>
<text text-anchor="start" x="525" y="-17.8" font-family="Arial" font-size="8.00">+ UpdateMenu (GameTime time)</text>
<text text-anchor="start" x="525" y="-7.8" font-family="Arial" font-size="8.00">+ Collapse (MenuItem item)</text>
</g>
<!-- Box_OptionScreen&#45;&gt;Box_VideoOptionScreen -->
<g id="edge14" class="edge"><title>Box_OptionScreen&#45;&gt;Box_VideoOptionScreen</title>
<path fill="none" stroke="midnightblue" d="M599,-167.505C599,-150.446 599,-132.05 599,-115.296"/>
<polygon fill="none" stroke="midnightblue" points="595.5,-167.928 599,-177.928 602.5,-167.928 595.5,-167.928"/>
</g>
</g>
</svg>
