<?xml version="1.0" encoding="UTF-8" standalone="no"?>
<!DOCTYPE svg PUBLIC "-//W3C//DTD SVG 1.1//EN"
 "http://www.w3.org/Graphics/SVG/1.1/DTD/svg11.dtd">
<!-- Generated by graphviz version 2.26.3 (20100126.1600)
 -->
<!-- Title: MenuItem Pages: 1 -->
<svg width="548pt" height="422pt"
 viewBox="0.00 0.00 548.00 422.00" xmlns="http://www.w3.org/2000/svg" xmlns:xlink="http://www.w3.org/1999/xlink">
<g id="graph1" class="graph" transform="scale(1 1) rotate(0) translate(4 418)">
<title>MenuItem</title>
<polygon fill="white" stroke="white" points="-4,5 -4,-418 545,-418 545,5 -4,5"/>
<!-- Box_BooleanOptionInfo -->
<g id="node1" class="node"><title>Box_BooleanOptionInfo</title>
<polygon fill="#fcfcda" stroke="black" points="37.5,-1 37.5,-97 502.5,-97 502.5,-1 37.5,-1"/>
<text text-anchor="middle" x="270" y="-85.8" font-family="Helvetica,sans-Serif" font-size="8.00">BooleanOptionInfo</text>
<polyline fill="none" stroke="black" points="37.5,-77 502.5,-77 "/>
<text text-anchor="start" x="45.5" y="-65.8" font-family="Helvetica,sans-Serif" font-size="8.00">Attributes:</text>
<text text-anchor="start" x="45.5" y="-53.8" font-family="Helvetica,sans-Serif" font-size="8.00">+ ValidValues : string[] static</text>
<text text-anchor="start" x="45.5" y="-41.8" font-family="Helvetica,sans-Serif" font-size="8.00">+ BoolValue : bool</text>
<text text-anchor="start" x="45.5" y="-29.8" font-family="Helvetica,sans-Serif" font-size="8.00">Methods:</text>
<polyline fill="none" stroke="black" points="37.5,-21 502.5,-21 "/>
<text text-anchor="start" x="45.5" y="-9.8" font-family="Helvetica,sans-Serif" font-size="8.00">+ BooleanOptionInfo (string section, string name, bool defaultValue, Action&lt;bool&gt; onChange = null, ConfigFile configFile = null)</text>
</g>
<!-- Box_DistinctOptionInfo -->
<g id="node2" class="node"><title>Box_DistinctOptionInfo</title>
<polygon fill="#fcfcda" stroke="black" points="-0.5,-135 -0.5,-231 540.5,-231 540.5,-135 -0.5,-135"/>
<text text-anchor="middle" x="270" y="-219.8" font-family="Helvetica,sans-Serif" font-size="8.00">DistinctOptionInfo</text>
<polyline fill="none" stroke="black" points="-0.5,-211 540.5,-211 "/>
<text text-anchor="start" x="7.5" y="-199.8" font-family="Helvetica,sans-Serif" font-size="8.00">Attributes:</text>
<text text-anchor="start" x="7.5" y="-187.8" font-family="Helvetica,sans-Serif" font-size="8.00">+ ValidValues : HashSet&lt;string&gt;</text>
<text text-anchor="start" x="7.5" y="-175.8" font-family="Helvetica,sans-Serif" font-size="8.00">+ Value : string override</text>
<text text-anchor="start" x="7.5" y="-163.8" font-family="Helvetica,sans-Serif" font-size="8.00">Methods:</text>
<polyline fill="none" stroke="black" points="-0.5,-155 540.5,-155 "/>
<text text-anchor="start" x="7.5" y="-143.8" font-family="Helvetica,sans-Serif" font-size="8.00">+ DistinctOptionInfo (string section, string name, string defaultValue, string[] validValues, Action&lt;string&gt; onChange = null, ConfigFile configFile = null)</text>
</g>
<!-- Box_DistinctOptionInfo&#45;&gt;Box_BooleanOptionInfo -->
<g id="edge2" class="edge"><title>Box_DistinctOptionInfo&#45;&gt;Box_BooleanOptionInfo</title>
<path fill="none" stroke="midnightblue" d="M270,-124.498C270,-115.418 270,-106.127 270,-97.3061"/>
<polygon fill="none" stroke="midnightblue" points="266.5,-124.623 270,-134.623 273.5,-124.623 266.5,-124.623"/>
</g>
<!-- Box_OptionInfo -->
<g id="node3" class="node"><title>Box_OptionInfo</title>
<polygon fill="#fcfcda" stroke="black" points="47.5,-269 47.5,-413 492.5,-413 492.5,-269 47.5,-269"/>
<text text-anchor="middle" x="270" y="-401.8" font-family="Helvetica,sans-Serif" font-size="8.00">OptionInfo</text>
<polyline fill="none" stroke="black" points="47.5,-393 492.5,-393 "/>
<text text-anchor="start" x="55.5" y="-381.8" font-family="Helvetica,sans-Serif" font-size="8.00">Attributes:</text>
<text text-anchor="start" x="55.5" y="-369.8" font-family="Helvetica,sans-Serif" font-size="8.00">+ Section : string</text>
<text text-anchor="start" x="55.5" y="-357.8" font-family="Helvetica,sans-Serif" font-size="8.00">+ Name : string</text>
<text text-anchor="start" x="55.5" y="-345.8" font-family="Helvetica,sans-Serif" font-size="8.00">+ DefaultValue : string</text>
<text text-anchor="start" x="55.5" y="-333.8" font-family="Helvetica,sans-Serif" font-size="8.00">+ OnChange : Action&lt;string&gt;</text>
<text text-anchor="start" x="55.5" y="-321.8" font-family="Helvetica,sans-Serif" font-size="8.00">+ Value : string virtual</text>
<text text-anchor="start" x="55.5" y="-309.8" font-family="Helvetica,sans-Serif" font-size="8.00">&#45; ConfigFile : ConfigFile</text>
<text text-anchor="start" x="55.5" y="-297.8" font-family="Helvetica,sans-Serif" font-size="8.00">Methods:</text>
<polyline fill="none" stroke="black" points="47.5,-289 492.5,-289 "/>
<text text-anchor="start" x="55.5" y="-277.8" font-family="Helvetica,sans-Serif" font-size="8.00">+ OptionInfo (string section, string name, string defaultValue, Action&lt;string&gt; onChange = null, ConfigFile configFile = null)</text>
</g>
<!-- Box_OptionInfo&#45;&gt;Box_DistinctOptionInfo -->
<g id="edge4" class="edge"><title>Box_OptionInfo&#45;&gt;Box_DistinctOptionInfo</title>
<path fill="none" stroke="midnightblue" d="M270,-258.792C270,-249.442 270,-240.153 270,-231.449"/>
<polygon fill="none" stroke="midnightblue" points="266.5,-258.935 270,-268.935 273.5,-258.935 266.5,-258.935"/>
</g>
</g>
</svg>
