<?xml version="1.0" encoding="UTF-8" standalone="no"?>
<!DOCTYPE svg PUBLIC "-//W3C//DTD SVG 1.1//EN"
 "http://www.w3.org/Graphics/SVG/1.1/DTD/svg11.dtd">
<!-- Generated by graphviz version 2.26.3 (20100126.1600)
 -->
<!-- Title: MenuItem Pages: 1 -->
<svg width="1874pt" height="806pt"
 viewBox="0.00 0.00 1874.00 806.00" xmlns="http://www.w3.org/2000/svg" xmlns:xlink="http://www.w3.org/1999/xlink">
<g id="graph1" class="graph" transform="scale(1 1) rotate(0) translate(4 802)">
<title>MenuItem</title>
<polygon fill="white" stroke="white" points="-4,5 -4,-802 1871,-802 1871,5 -4,5"/>
<!-- Box_IGameObject -->
<g id="node1" class="node"><title>Box_IGameObject</title>
<polygon fill="#dafcda" stroke="black" points="648,-665 648,-797 824,-797 824,-665 648,-665"/>
<text text-anchor="middle" x="736" y="-785.8" font-family="Helvetica,sans-Serif" font-size="8.00">IGameObject</text>
<polyline fill="none" stroke="black" points="648,-777 824,-777 "/>
<text text-anchor="start" x="656" y="-765.8" font-family="Helvetica,sans-Serif" font-size="8.00">Attributes:</text>
<text text-anchor="start" x="656" y="-753.8" font-family="Helvetica,sans-Serif" font-size="8.00">+ Info : dynamic</text>
<text text-anchor="start" x="656" y="-741.8" font-family="Helvetica,sans-Serif" font-size="8.00">+ World : World</text>
<text text-anchor="start" x="656" y="-729.8" font-family="Helvetica,sans-Serif" font-size="8.00">Methods:</text>
<polyline fill="none" stroke="black" points="648,-721 824,-721 "/>
<text text-anchor="start" x="656" y="-709.8" font-family="Helvetica,sans-Serif" font-size="8.00">+ Draw (GameTime gameTime)</text>
<text text-anchor="start" x="656" y="-697.8" font-family="Helvetica,sans-Serif" font-size="8.00">+ Update (GameTime gameTime)</text>
<text text-anchor="start" x="656" y="-685.8" font-family="Helvetica,sans-Serif" font-size="8.00">+ Intersects (Ray ray) : GameObjectDistance</text>
<text text-anchor="start" x="656" y="-673.8" font-family="Helvetica,sans-Serif" font-size="8.00">+ Center () : Vector3</text>
</g>
<!-- Box_GameModel -->
<g id="node2" class="node"><title>Box_GameModel</title>
<polygon fill="#fcfcda" stroke="black" points="1433,-327 1433,-615 1645,-615 1645,-327 1433,-327"/>
<text text-anchor="middle" x="1539" y="-603.8" font-family="Helvetica,sans-Serif" font-size="8.00">GameModel</text>
<polyline fill="none" stroke="black" points="1433,-595 1645,-595 "/>
<text text-anchor="start" x="1441" y="-583.8" font-family="Helvetica,sans-Serif" font-size="8.00">Attributes:</text>
<text text-anchor="start" x="1441" y="-571.8" font-family="Helvetica,sans-Serif" font-size="8.00">&#45; _rotation : Angles3</text>
<text text-anchor="start" x="1441" y="-559.8" font-family="Helvetica,sans-Serif" font-size="8.00">&#45; _worldMatrix : Matrix</text>
<text text-anchor="start" x="1441" y="-547.8" font-family="Helvetica,sans-Serif" font-size="8.00">&#45; _position : Vector3</text>
<text text-anchor="start" x="1441" y="-535.8" font-family="Helvetica,sans-Serif" font-size="8.00">+ BaseColor : Color</text>
<text text-anchor="start" x="1441" y="-523.8" font-family="Helvetica,sans-Serif" font-size="8.00">+ HighlightColor : Color</text>
<text text-anchor="start" x="1441" y="-511.8" font-family="Helvetica,sans-Serif" font-size="8.00">+ WorldMatrix : Matrix</text>
<text text-anchor="start" x="1441" y="-499.8" font-family="Helvetica,sans-Serif" font-size="8.00">+ Info : dynamic</text>
<text text-anchor="start" x="1441" y="-487.8" font-family="Helvetica,sans-Serif" font-size="8.00">+ Alpha : float</text>
<text text-anchor="start" x="1441" y="-475.8" font-family="Helvetica,sans-Serif" font-size="8.00">+ HighlightIntensity : float</text>
<text text-anchor="start" x="1441" y="-463.8" font-family="Helvetica,sans-Serif" font-size="8.00">&#45; _scale : float</text>
<text text-anchor="start" x="1441" y="-451.8" font-family="Helvetica,sans-Serif" font-size="8.00"># state : GameState</text>
<text text-anchor="start" x="1441" y="-439.8" font-family="Helvetica,sans-Serif" font-size="8.00">+ World : World</text>
<text text-anchor="start" x="1441" y="-427.8" font-family="Helvetica,sans-Serif" font-size="8.00">+ Model : Model virtual</text>
<text text-anchor="start" x="1441" y="-415.8" font-family="Helvetica,sans-Serif" font-size="8.00">Methods:</text>
<polyline fill="none" stroke="black" points="1433,-407 1645,-407 "/>
<text text-anchor="start" x="1441" y="-395.8" font-family="Helvetica,sans-Serif" font-size="8.00">&#45; UpdateWorldMatrix ()</text>
<text text-anchor="start" x="1441" y="-383.8" font-family="Helvetica,sans-Serif" font-size="8.00">+ GameModel (GameState state, GameModelInfo info)</text>
<text text-anchor="start" x="1441" y="-371.8" font-family="Helvetica,sans-Serif" font-size="8.00">+ Intersects (Ray ray) : GameObjectDistance virtual</text>
<text text-anchor="start" x="1441" y="-359.8" font-family="Helvetica,sans-Serif" font-size="8.00">+ Draw (GameTime gameTime) virtual</text>
<text text-anchor="start" x="1441" y="-347.8" font-family="Helvetica,sans-Serif" font-size="8.00">+ Center () : Vector3</text>
<text text-anchor="start" x="1441" y="-335.8" font-family="Helvetica,sans-Serif" font-size="8.00">+ Update (GameTime gameTime) virtual</text>
</g>
<!-- Box_IGameObject&#45;&gt;Box_GameModel -->
<g id="edge2" class="edge"><title>Box_IGameObject&#45;&gt;Box_GameModel</title>
<path fill="none" stroke="midnightblue" d="M833.993,-710.888C948.222,-687.903 1129.66,-650.559 1196,-628 1277.89,-600.151 1366.3,-558.014 1432.89,-524.402"/>
<polygon fill="none" stroke="midnightblue" points="833.295,-707.458 824.181,-712.861 834.675,-714.321 833.295,-707.458"/>
</g>
<!-- Box_IGameObject&#45;&gt;Box_GameModel -->
<g id="edge46" class="edge"><title>Box_IGameObject&#45;&gt;Box_GameModel</title>
<path fill="none" stroke="midnightblue" d="M833.858,-713.39C952.575,-690.7 1145.2,-651.397 1214,-628 1289.52,-602.317 1370.58,-564.482 1432.9,-532.389"/>
<polygon fill="none" stroke="midnightblue" points="833.193,-709.954 824.025,-715.264 834.503,-716.83 833.193,-709.954"/>
</g>
<!-- Box_KnotRenderer -->
<g id="node6" class="node"><title>Box_KnotRenderer</title>
<polygon fill="#fcfcda" stroke="black" points="6,-387 6,-555 212,-555 212,-387 6,-387"/>
<text text-anchor="middle" x="109" y="-543.8" font-family="Helvetica,sans-Serif" font-size="8.00">KnotRenderer</text>
<polyline fill="none" stroke="black" points="6,-535 212,-535 "/>
<text text-anchor="start" x="14" y="-523.8" font-family="Helvetica,sans-Serif" font-size="8.00">Attributes:</text>
<text text-anchor="start" x="14" y="-511.8" font-family="Helvetica,sans-Serif" font-size="8.00">+ World : World abstract</text>
<text text-anchor="start" x="14" y="-499.8" font-family="Helvetica,sans-Serif" font-size="8.00"># state : GameState</text>
<text text-anchor="start" x="14" y="-487.8" font-family="Helvetica,sans-Serif" font-size="8.00">+ Info : dynamic abstract</text>
<text text-anchor="start" x="14" y="-475.8" font-family="Helvetica,sans-Serif" font-size="8.00">Methods:</text>
<polyline fill="none" stroke="black" points="6,-467 212,-467 "/>
<text text-anchor="start" x="14" y="-455.8" font-family="Helvetica,sans-Serif" font-size="8.00">+ Intersects (Ray ray) : GameObjectDistance abstract</text>
<text text-anchor="start" x="14" y="-443.8" font-family="Helvetica,sans-Serif" font-size="8.00">+ Center () : Vector3 abstract</text>
<text text-anchor="start" x="14" y="-431.8" font-family="Helvetica,sans-Serif" font-size="8.00">+ Draw (GameTime gameTime) abstract</text>
<text text-anchor="start" x="14" y="-419.8" font-family="Helvetica,sans-Serif" font-size="8.00">+ Update (GameTime gameTime) abstract</text>
<text text-anchor="start" x="14" y="-407.8" font-family="Helvetica,sans-Serif" font-size="8.00">+ KnotRenderer (GameState state)</text>
<text text-anchor="start" x="14" y="-395.8" font-family="Helvetica,sans-Serif" font-size="8.00">+ OnEdgesChanged (EdgeList edges) abstract</text>
</g>
<!-- Box_IGameObject&#45;&gt;Box_KnotRenderer -->
<g id="edge62" class="edge"><title>Box_IGameObject&#45;&gt;Box_KnotRenderer</title>
<path fill="none" stroke="midnightblue" d="M637.65,-720.768C505.827,-705.145 280.641,-672.412 212,-628 184.17,-609.994 161.115,-582.435 143.825,-555.404"/>
<polygon fill="none" stroke="midnightblue" points="637.418,-724.265 647.758,-721.954 638.234,-717.313 637.418,-724.265"/>
</g>
<!-- Box_IGameObject&#45;&gt;Box_KnotRenderer -->
<g id="edge18" class="edge"><title>Box_IGameObject&#45;&gt;Box_KnotRenderer</title>
<path fill="none" stroke="midnightblue" d="M637.821,-719.307C510.375,-703.158 296.569,-671.071 230,-628 202.17,-609.994 179.115,-582.435 160.784,-555.404"/>
<polygon fill="none" stroke="midnightblue" points="637.622,-722.809 647.98,-720.584 638.495,-715.864 637.622,-722.809"/>
</g>
<!-- Box_MovableGameObject -->
<g id="node9" class="node"><title>Box_MovableGameObject</title>
<polygon fill="#fcfcda" stroke="black" points="229.5,-369 229.5,-573 480.5,-573 480.5,-369 229.5,-369"/>
<text text-anchor="middle" x="355" y="-561.8" font-family="Helvetica,sans-Serif" font-size="8.00">MovableGameObject</text>
<polyline fill="none" stroke="black" points="229.5,-553 480.5,-553 "/>
<text text-anchor="start" x="237.5" y="-541.8" font-family="Helvetica,sans-Serif" font-size="8.00">Attributes:</text>
<text text-anchor="start" x="237.5" y="-529.8" font-family="Helvetica,sans-Serif" font-size="8.00">&#45; Obj : IGameObject</text>
<text text-anchor="start" x="237.5" y="-517.8" font-family="Helvetica,sans-Serif" font-size="8.00">+ World : World</text>
<text text-anchor="start" x="237.5" y="-505.8" font-family="Helvetica,sans-Serif" font-size="8.00">&#45; state : GameState</text>
<text text-anchor="start" x="237.5" y="-493.8" font-family="Helvetica,sans-Serif" font-size="8.00">+ Info : dynamic</text>
<text text-anchor="start" x="237.5" y="-481.8" font-family="Helvetica,sans-Serif" font-size="8.00">Methods:</text>
<polyline fill="none" stroke="black" points="229.5,-473 480.5,-473 "/>
<text text-anchor="start" x="237.5" y="-461.8" font-family="Helvetica,sans-Serif" font-size="8.00"># CurrentGroundPlane () : Plane</text>
<text text-anchor="start" x="237.5" y="-449.8" font-family="Helvetica,sans-Serif" font-size="8.00">+ MovableGameObject (GameState state, IGameObject obj)</text>
<text text-anchor="start" x="237.5" y="-437.8" font-family="Helvetica,sans-Serif" font-size="8.00">+ Update (GameTime gameTime) virtual</text>
<text text-anchor="start" x="237.5" y="-425.8" font-family="Helvetica,sans-Serif" font-size="8.00"># CurrentMouseRay () : Ray</text>
<text text-anchor="start" x="237.5" y="-413.8" font-family="Helvetica,sans-Serif" font-size="8.00"># CurrentMousePosition (Ray ray, Plane groundPlane) : Vector3?</text>
<text text-anchor="start" x="237.5" y="-401.8" font-family="Helvetica,sans-Serif" font-size="8.00">+ Intersects (Ray ray) : GameObjectDistance</text>
<text text-anchor="start" x="237.5" y="-389.8" font-family="Helvetica,sans-Serif" font-size="8.00">+ Center () : Vector3</text>
<text text-anchor="start" x="237.5" y="-377.8" font-family="Helvetica,sans-Serif" font-size="8.00">+ Draw (GameTime gameTime)</text>
</g>
<!-- Box_IGameObject&#45;&gt;Box_MovableGameObject -->
<g id="edge32" class="edge"><title>Box_IGameObject&#45;&gt;Box_MovableGameObject</title>
<path fill="none" stroke="midnightblue" d="M638.146,-704.917C587.78,-687.918 527.271,-662.443 480,-628 458.857,-612.595 438.877,-593.209 421.323,-573.366"/>
<polygon fill="none" stroke="midnightblue" points="637.158,-708.276 647.751,-708.098 639.359,-701.631 637.158,-708.276"/>
</g>
<!-- Box_IGameObject&#45;&gt;Box_MovableGameObject -->
<g id="edge76" class="edge"><title>Box_IGameObject&#45;&gt;Box_MovableGameObject</title>
<path fill="none" stroke="midnightblue" d="M638.232,-699.205C593.059,-682.398 540.244,-658.78 498,-628 476.857,-612.595 456.877,-593.209 438.905,-573.366"/>
<polygon fill="none" stroke="midnightblue" points="637.155,-702.538 647.749,-702.688 639.561,-695.964 637.155,-702.538"/>
</g>
<!-- Box_PipeMovement -->
<g id="node10" class="node"><title>Box_PipeMovement</title>
<polygon fill="#fcfcda" stroke="black" points="480.5,-1 480.5,-277 817.5,-277 817.5,-1 480.5,-1"/>
<text text-anchor="middle" x="649" y="-265.8" font-family="Helvetica,sans-Serif" font-size="8.00">PipeMovement</text>
<polyline fill="none" stroke="black" points="480.5,-257 817.5,-257 "/>
<text text-anchor="start" x="488.5" y="-245.8" font-family="Helvetica,sans-Serif" font-size="8.00">Attributes:</text>
<text text-anchor="start" x="488.5" y="-233.8" font-family="Helvetica,sans-Serif" font-size="8.00">&#45; shadowObjects : List&lt;ShadowGameObject&gt;</text>
<text text-anchor="start" x="488.5" y="-221.8" font-family="Helvetica,sans-Serif" font-size="8.00">+ World : World</text>
<text text-anchor="start" x="488.5" y="-209.8" font-family="Helvetica,sans-Serif" font-size="8.00">&#45; state : GameState</text>
<text text-anchor="start" x="488.5" y="-197.8" font-family="Helvetica,sans-Serif" font-size="8.00">&#45; previousMousePosition : Vector3</text>
<text text-anchor="start" x="488.5" y="-185.8" font-family="Helvetica,sans-Serif" font-size="8.00">+ Knot : Knot</text>
<text text-anchor="start" x="488.5" y="-173.8" font-family="Helvetica,sans-Serif" font-size="8.00">+ Info : dynamic</text>
<text text-anchor="start" x="488.5" y="-161.8" font-family="Helvetica,sans-Serif" font-size="8.00">Methods:</text>
<polyline fill="none" stroke="black" points="480.5,-153 817.5,-153 "/>
<text text-anchor="start" x="488.5" y="-141.8" font-family="Helvetica,sans-Serif" font-size="8.00">&#45; IEnumerable.GetEnumerator () : IEnumerator</text>
<text text-anchor="start" x="488.5" y="-129.8" font-family="Helvetica,sans-Serif" font-size="8.00">&#45; CreateShadowPipes ()</text>
<text text-anchor="start" x="488.5" y="-117.8" font-family="Helvetica,sans-Serif" font-size="8.00">&#45; MovePipes (Vector3 currentMousePosition)</text>
<text text-anchor="start" x="488.5" y="-105.8" font-family="Helvetica,sans-Serif" font-size="8.00">+ Intersects (Ray ray) : GameObjectDistance</text>
<text text-anchor="start" x="488.5" y="-93.8" font-family="Helvetica,sans-Serif" font-size="8.00">+ GetEnumerator () : IEnumerator&lt;IGameObject&gt;</text>
<text text-anchor="start" x="488.5" y="-81.8" font-family="Helvetica,sans-Serif" font-size="8.00">+ PipeMovement (GameState state, World world, GameObjectInfo info)</text>
<text text-anchor="start" x="488.5" y="-69.8" font-family="Helvetica,sans-Serif" font-size="8.00">+ Draw (GameTime gameTime)</text>
<text text-anchor="start" x="488.5" y="-57.8" font-family="Helvetica,sans-Serif" font-size="8.00">+ Update (GameTime gameTime)</text>
<text text-anchor="start" x="488.5" y="-45.8" font-family="Helvetica,sans-Serif" font-size="8.00">&#45; ComputeDirection (Vector3 currentMousePosition, out Vector3 direction, out float count)</text>
<text text-anchor="start" x="488.5" y="-33.8" font-family="Helvetica,sans-Serif" font-size="8.00">&#45; ComputeDirection (Vector3 currentMousePosition, out Vector3 direction, out int countInt)</text>
<text text-anchor="start" x="488.5" y="-21.8" font-family="Helvetica,sans-Serif" font-size="8.00">&#45; MoveShadowPipes (Vector3 currentMousePosition)</text>
<text text-anchor="start" x="488.5" y="-9.8" font-family="Helvetica,sans-Serif" font-size="8.00">+ Center () : Vector3</text>
</g>
<!-- Box_IGameObject&#45;&gt;Box_PipeMovement -->
<g id="edge34" class="edge"><title>Box_IGameObject&#45;&gt;Box_PipeMovement</title>
<path fill="none" stroke="midnightblue" d="M682.325,-655.821C678.215,-646.678 674.649,-637.284 672,-628 639.149,-512.848 632.748,-376.501 635.139,-277.073"/>
<polygon fill="none" stroke="midnightblue" points="679.162,-657.321 686.601,-664.866 685.491,-654.329 679.162,-657.321"/>
</g>
<!-- Box_IGameObject&#45;&gt;Box_PipeMovement -->
<g id="edge84" class="edge"><title>Box_IGameObject&#45;&gt;Box_PipeMovement</title>
<path fill="none" stroke="midnightblue" d="M700.084,-655.535C696.141,-646.483 692.621,-637.187 690,-628 657.149,-512.848 650.748,-376.501 650.147,-277.073"/>
<polygon fill="none" stroke="midnightblue" points="697.001,-657.211 704.326,-664.866 703.374,-654.314 697.001,-657.211"/>
</g>
<!-- Box_ShadowGameObject -->
<g id="node11" class="node"><title>Box_ShadowGameObject</title>
<polygon fill="#fcfcda" stroke="black" points="967.5,-375 967.5,-567 1196.5,-567 1196.5,-375 967.5,-375"/>
<text text-anchor="middle" x="1082" y="-555.8" font-family="Helvetica,sans-Serif" font-size="8.00">ShadowGameObject</text>
<polyline fill="none" stroke="black" points="967.5,-547 1196.5,-547 "/>
<text text-anchor="start" x="975.5" y="-535.8" font-family="Helvetica,sans-Serif" font-size="8.00">Attributes:</text>
<text text-anchor="start" x="975.5" y="-523.8" font-family="Helvetica,sans-Serif" font-size="8.00">&#45; Obj : IGameObject</text>
<text text-anchor="start" x="975.5" y="-511.8" font-family="Helvetica,sans-Serif" font-size="8.00">+ OriginalPosition : Vector3</text>
<text text-anchor="start" x="975.5" y="-499.8" font-family="Helvetica,sans-Serif" font-size="8.00">+ World : World</text>
<text text-anchor="start" x="975.5" y="-487.8" font-family="Helvetica,sans-Serif" font-size="8.00">+ Info : dynamic</text>
<text text-anchor="start" x="975.5" y="-475.8" font-family="Helvetica,sans-Serif" font-size="8.00"># state : GameState</text>
<text text-anchor="start" x="975.5" y="-463.8" font-family="Helvetica,sans-Serif" font-size="8.00">+ ShadowPosition : Vector3</text>
<text text-anchor="start" x="975.5" y="-451.8" font-family="Helvetica,sans-Serif" font-size="8.00">Methods:</text>
<polyline fill="none" stroke="black" points="967.5,-443 1196.5,-443 "/>
<text text-anchor="start" x="975.5" y="-431.8" font-family="Helvetica,sans-Serif" font-size="8.00">+ Update (GameTime gameTime) virtual</text>
<text text-anchor="start" x="975.5" y="-419.8" font-family="Helvetica,sans-Serif" font-size="8.00">+ Intersects (Ray ray) : GameObjectDistance</text>
<text text-anchor="start" x="975.5" y="-407.8" font-family="Helvetica,sans-Serif" font-size="8.00">+ ShadowGameObject (GameState state, IGameObject obj)</text>
<text text-anchor="start" x="975.5" y="-395.8" font-family="Helvetica,sans-Serif" font-size="8.00">+ Center () : Vector3</text>
<text text-anchor="start" x="975.5" y="-383.8" font-family="Helvetica,sans-Serif" font-size="8.00">+ Draw (GameTime gameTime) virtual</text>
</g>
<!-- Box_IGameObject&#45;&gt;Box_ShadowGameObject -->
<g id="edge38" class="edge"><title>Box_IGameObject&#45;&gt;Box_ShadowGameObject</title>
<path fill="none" stroke="midnightblue" d="M833.892,-694.045C872.33,-677.461 915.395,-655.385 950,-628 971.722,-610.81 991.879,-589.032 1009.6,-567.212"/>
<polygon fill="none" stroke="midnightblue" points="832.067,-691.016 824.227,-698.142 834.8,-697.461 832.067,-691.016"/>
</g>
<!-- Box_IGameObject&#45;&gt;Box_ShadowGameObject -->
<g id="edge78" class="edge"><title>Box_IGameObject&#45;&gt;Box_ShadowGameObject</title>
<path fill="none" stroke="midnightblue" d="M833.645,-700.94C877.606,-683.778 928.356,-659.374 968,-628 989.722,-610.81 1009.88,-589.032 1027.05,-567.212"/>
<polygon fill="none" stroke="midnightblue" points="832.172,-697.757 824.085,-704.601 834.675,-704.294 832.172,-697.757"/>
</g>
<!-- Box_TexturedRectangle -->
<g id="node13" class="node"><title>Box_TexturedRectangle</title>
<polygon fill="#fcfcda" stroke="black" points="689.5,-315 689.5,-627 950.5,-627 950.5,-315 689.5,-315"/>
<text text-anchor="middle" x="820" y="-615.8" font-family="Helvetica,sans-Serif" font-size="8.00">TexturedRectangle</text>
<polyline fill="none" stroke="black" points="689.5,-607 950.5,-607 "/>
<text text-anchor="start" x="697.5" y="-595.8" font-family="Helvetica,sans-Serif" font-size="8.00">Attributes:</text>
<text text-anchor="start" x="697.5" y="-583.8" font-family="Helvetica,sans-Serif" font-size="8.00">&#45; basicEffect : BasicEffect</text>
<text text-anchor="start" x="697.5" y="-571.8" font-family="Helvetica,sans-Serif" font-size="8.00">&#45; texture : Texture2D</text>
<text text-anchor="start" x="697.5" y="-559.8" font-family="Helvetica,sans-Serif" font-size="8.00">&#45; LowerLeft : Vector3</text>
<text text-anchor="start" x="697.5" y="-547.8" font-family="Helvetica,sans-Serif" font-size="8.00">&#45; LowerRight : Vector3</text>
<text text-anchor="start" x="697.5" y="-535.8" font-family="Helvetica,sans-Serif" font-size="8.00">&#45; Normal : Vector3</text>
<text text-anchor="start" x="697.5" y="-523.8" font-family="Helvetica,sans-Serif" font-size="8.00">&#45; UpperRight : Vector3</text>
<text text-anchor="start" x="697.5" y="-511.8" font-family="Helvetica,sans-Serif" font-size="8.00">&#45; Vertices : VertexPositionNormalTexture[]</text>
<text text-anchor="start" x="697.5" y="-499.8" font-family="Helvetica,sans-Serif" font-size="8.00">&#45; Indexes : short[]</text>
<text text-anchor="start" x="697.5" y="-487.8" font-family="Helvetica,sans-Serif" font-size="8.00">+ Info : dynamic</text>
<text text-anchor="start" x="697.5" y="-475.8" font-family="Helvetica,sans-Serif" font-size="8.00">&#45; UpperLeft : Vector3</text>
<text text-anchor="start" x="697.5" y="-463.8" font-family="Helvetica,sans-Serif" font-size="8.00"># state : GameState</text>
<text text-anchor="start" x="697.5" y="-451.8" font-family="Helvetica,sans-Serif" font-size="8.00">+ World : World</text>
<text text-anchor="start" x="697.5" y="-439.8" font-family="Helvetica,sans-Serif" font-size="8.00">Methods:</text>
<polyline fill="none" stroke="black" points="689.5,-431 950.5,-431 "/>
<text text-anchor="start" x="697.5" y="-419.8" font-family="Helvetica,sans-Serif" font-size="8.00">&#45; Length () : Vector3</text>
<text text-anchor="start" x="697.5" y="-407.8" font-family="Helvetica,sans-Serif" font-size="8.00">&#45; FillVertices ()</text>
<text text-anchor="start" x="697.5" y="-395.8" font-family="Helvetica,sans-Serif" font-size="8.00">+ Intersects (Ray ray) : GameObjectDistance</text>
<text text-anchor="start" x="697.5" y="-383.8" font-family="Helvetica,sans-Serif" font-size="8.00">+ TexturedRectangle (GameState state, TexturedRectangleInfo info)</text>
<text text-anchor="start" x="697.5" y="-371.8" font-family="Helvetica,sans-Serif" font-size="8.00">+ Draw (GameTime gameTime)</text>
<text text-anchor="start" x="697.5" y="-359.8" font-family="Helvetica,sans-Serif" font-size="8.00"># SetPosition (Vector3 position)</text>
<text text-anchor="start" x="697.5" y="-347.8" font-family="Helvetica,sans-Serif" font-size="8.00">+ Bounds () : BoundingBox[]</text>
<text text-anchor="start" x="697.5" y="-335.8" font-family="Helvetica,sans-Serif" font-size="8.00">+ Center () : Vector3</text>
<text text-anchor="start" x="697.5" y="-323.8" font-family="Helvetica,sans-Serif" font-size="8.00">+ Update (GameTime gameTime)</text>
</g>
<!-- Box_IGameObject&#45;&gt;Box_TexturedRectangle -->
<g id="edge44" class="edge"><title>Box_IGameObject&#45;&gt;Box_TexturedRectangle</title>
<path fill="none" stroke="midnightblue" d="M754.314,-655.12C757.031,-646.112 759.935,-636.682 762.955,-627.054"/>
<polygon fill="none" stroke="midnightblue" points="750.956,-654.135 751.444,-664.718 757.662,-656.141 750.956,-654.135"/>
</g>
<!-- Box_IGameObject&#45;&gt;Box_TexturedRectangle -->
<g id="edge88" class="edge"><title>Box_IGameObject&#45;&gt;Box_TexturedRectangle</title>
<path fill="none" stroke="midnightblue" d="M766.716,-655.12C769.82,-646.112 773.009,-636.682 776.211,-627.054"/>
<polygon fill="none" stroke="midnightblue" points="763.357,-654.123 763.385,-664.718 769.97,-656.419 763.357,-654.123"/>
</g>
<!-- Box_NodeModel -->
<g id="node3" class="node"><title>Box_NodeModel</title>
<polygon fill="#fcfcda" stroke="black" points="1659.5,-91 1659.5,-187 1866.5,-187 1866.5,-91 1659.5,-91"/>
<text text-anchor="middle" x="1763" y="-175.8" font-family="Helvetica,sans-Serif" font-size="8.00">NodeModel</text>
<polyline fill="none" stroke="black" points="1659.5,-167 1866.5,-167 "/>
<text text-anchor="start" x="1667.5" y="-155.8" font-family="Helvetica,sans-Serif" font-size="8.00">Attributes:</text>
<text text-anchor="start" x="1667.5" y="-143.8" font-family="Helvetica,sans-Serif" font-size="8.00">+ Info : NodeModelInfo</text>
<text text-anchor="start" x="1667.5" y="-131.8" font-family="Helvetica,sans-Serif" font-size="8.00">Methods:</text>
<polyline fill="none" stroke="black" points="1659.5,-123 1866.5,-123 "/>
<text text-anchor="start" x="1667.5" y="-111.8" font-family="Helvetica,sans-Serif" font-size="8.00">+ NodeModel (GameState state, NodeModelInfo info)</text>
<text text-anchor="start" x="1667.5" y="-99.8" font-family="Helvetica,sans-Serif" font-size="8.00">+ Draw (GameTime gameTime)</text>
</g>
<!-- Box_GameModel&#45;&gt;Box_NodeModel -->
<g id="edge4" class="edge"><title>Box_GameModel&#45;&gt;Box_NodeModel</title>
<path fill="none" stroke="midnightblue" d="M1621.83,-318.302C1653.43,-270.856 1688.23,-221.952 1715.68,-187.227"/>
<polygon fill="none" stroke="midnightblue" points="1618.79,-316.56 1616.18,-326.828 1624.62,-320.429 1618.79,-316.56"/>
</g>
<!-- Box_GameModel&#45;&gt;Box_NodeModel -->
<g id="edge48" class="edge"><title>Box_GameModel&#45;&gt;Box_NodeModel</title>
<path fill="none" stroke="midnightblue" d="M1648.76,-318.302C1680.91,-270.856 1713.3,-221.952 1735.39,-187.227"/>
<polygon fill="none" stroke="midnightblue" points="1645.69,-316.588 1642.97,-326.828 1651.48,-320.519 1645.69,-316.588"/>
</g>
<!-- Box_GameModel&#45;&gt;Box_NodeModel -->
<g id="edge54" class="edge"><title>Box_GameModel&#45;&gt;Box_NodeModel</title>
<path fill="none" stroke="midnightblue" d="M1650.88,-334.753C1687.24,-282.41 1723.58,-225.987 1745.24,-187.228"/>
<polygon fill="none" stroke="midnightblue" points="1647.9,-332.911 1645.05,-343.115 1653.64,-336.915 1647.9,-332.911"/>
</g>
<!-- Box_GameModel&#45;&gt;Box_NodeModel -->
<g id="edge10" class="edge"><title>Box_GameModel&#45;&gt;Box_NodeModel</title>
<path fill="none" stroke="midnightblue" d="M1635.29,-318.302C1667.17,-270.856 1700.76,-221.952 1725.54,-187.227"/>
<polygon fill="none" stroke="midnightblue" points="1632.24,-316.574 1629.57,-326.828 1638.05,-320.474 1632.24,-316.574"/>
</g>
<!-- Box_PipeModel -->
<g id="node4" class="node"><title>Box_PipeModel</title>
<polygon fill="#fcfcda" stroke="black" points="1218,-67 1218,-211 1418,-211 1418,-67 1218,-67"/>
<text text-anchor="middle" x="1318" y="-199.8" font-family="Helvetica,sans-Serif" font-size="8.00">PipeModel</text>
<polyline fill="none" stroke="black" points="1218,-191 1418,-191 "/>
<text text-anchor="start" x="1226" y="-179.8" font-family="Helvetica,sans-Serif" font-size="8.00">Attributes:</text>
<text text-anchor="start" x="1226" y="-167.8" font-family="Helvetica,sans-Serif" font-size="8.00">&#45; Bounds : BoundingSphere[]</text>
<text text-anchor="start" x="1226" y="-155.8" font-family="Helvetica,sans-Serif" font-size="8.00">+ Info : PipeModelInfo</text>
<text text-anchor="start" x="1226" y="-143.8" font-family="Helvetica,sans-Serif" font-size="8.00">Methods:</text>
<polyline fill="none" stroke="black" points="1218,-135 1418,-135 "/>
<text text-anchor="start" x="1226" y="-123.8" font-family="Helvetica,sans-Serif" font-size="8.00">+ OnDataChange () : Action</text>
<text text-anchor="start" x="1226" y="-111.8" font-family="Helvetica,sans-Serif" font-size="8.00">+ Draw (GameTime gameTime)</text>
<text text-anchor="start" x="1226" y="-99.8" font-family="Helvetica,sans-Serif" font-size="8.00">+ PipeModel (GameState state, PipeModelInfo info)</text>
<text text-anchor="start" x="1226" y="-87.8" font-family="Helvetica,sans-Serif" font-size="8.00">+ Intersects (Ray ray) : GameObjectDistance</text>
<text text-anchor="start" x="1226" y="-75.8" font-family="Helvetica,sans-Serif" font-size="8.00">+ Update (GameTime gameTime)</text>
</g>
<!-- Box_GameModel&#45;&gt;Box_PipeModel -->
<g id="edge6" class="edge"><title>Box_GameModel&#45;&gt;Box_PipeModel</title>
<path fill="none" stroke="midnightblue" d="M1427.07,-332.888C1398.47,-291.084 1370.01,-246.85 1349.02,-211.205"/>
<polygon fill="none" stroke="midnightblue" points="1424.24,-334.954 1432.79,-341.214 1430.01,-330.99 1424.24,-334.954"/>
</g>
<!-- Box_GameModel&#45;&gt;Box_PipeModel -->
<g id="edge50" class="edge"><title>Box_GameModel&#45;&gt;Box_PipeModel</title>
<path fill="none" stroke="midnightblue" d="M1444.14,-318.39C1419.44,-281.116 1393.68,-242.936 1371.9,-211.433"/>
<polygon fill="none" stroke="midnightblue" points="1441.29,-320.421 1449.73,-326.828 1447.13,-316.558 1441.29,-320.421"/>
</g>
<!-- Box_GameModel&#45;&gt;Box_PipeModel -->
<g id="edge56" class="edge"><title>Box_GameModel&#45;&gt;Box_PipeModel</title>
<path fill="none" stroke="midnightblue" d="M1457.6,-318.39C1433.12,-281.116 1406.66,-242.936 1383.28,-211.433"/>
<polygon fill="none" stroke="midnightblue" points="1454.72,-320.375 1463.12,-326.828 1460.58,-316.544 1454.72,-320.375"/>
</g>
<!-- Box_GameModel&#45;&gt;Box_PipeModel -->
<g id="edge12" class="edge"><title>Box_GameModel&#45;&gt;Box_PipeModel</title>
<path fill="none" stroke="midnightblue" d="M1430.68,-318.39C1405.76,-281.116 1380.69,-242.936 1360.53,-211.433"/>
<polygon fill="none" stroke="midnightblue" points="1427.86,-320.466 1436.33,-326.828 1433.68,-316.572 1427.86,-320.466"/>
</g>
<!-- Box_TestModel -->
<g id="node5" class="node"><title>Box_TestModel</title>
<polygon fill="#fcfcda" stroke="black" points="1436,-97 1436,-181 1642,-181 1642,-97 1436,-97"/>
<text text-anchor="middle" x="1539" y="-169.8" font-family="Helvetica,sans-Serif" font-size="8.00">TestModel</text>
<polyline fill="none" stroke="black" points="1436,-161 1642,-161 "/>
<text text-anchor="start" x="1444" y="-149.8" font-family="Helvetica,sans-Serif" font-size="8.00">Attributes:</text>
<text text-anchor="start" x="1444" y="-137.8" font-family="Helvetica,sans-Serif" font-size="8.00">Methods:</text>
<polyline fill="none" stroke="black" points="1436,-129 1642,-129 "/>
<text text-anchor="start" x="1444" y="-117.8" font-family="Helvetica,sans-Serif" font-size="8.00">+ Update (GameTime gameTime)</text>
<text text-anchor="start" x="1444" y="-105.8" font-family="Helvetica,sans-Serif" font-size="8.00">+ TestModel (GameState state, GameModelInfo info)</text>
</g>
<!-- Box_GameModel&#45;&gt;Box_TestModel -->
<g id="edge52" class="edge"><title>Box_GameModel&#45;&gt;Box_TestModel</title>
<path fill="none" stroke="midnightblue" d="M1518.79,-316.578C1518.42,-266.859 1520.47,-215.748 1524.96,-181.202"/>
<polygon fill="none" stroke="midnightblue" points="1515.3,-316.867 1518.91,-326.828 1522.3,-316.791 1515.3,-316.867"/>
</g>
<!-- Box_GameModel&#45;&gt;Box_TestModel -->
<g id="edge58" class="edge"><title>Box_GameModel&#45;&gt;Box_TestModel</title>
<path fill="none" stroke="midnightblue" d="M1559.21,-316.578C1559.58,-266.859 1557.53,-215.748 1553.04,-181.202"/>
<polygon fill="none" stroke="midnightblue" points="1555.7,-316.791 1559.09,-326.828 1562.7,-316.867 1555.7,-316.791"/>
</g>
<!-- Box_GameModel&#45;&gt;Box_TestModel -->
<g id="edge8" class="edge"><title>Box_GameModel&#45;&gt;Box_TestModel</title>
<path fill="none" stroke="midnightblue" d="M1532.26,-316.578C1532.14,-266.859 1532.82,-215.748 1534.32,-181.202"/>
<polygon fill="none" stroke="midnightblue" points="1528.77,-316.841 1532.3,-326.828 1535.77,-316.816 1528.77,-316.841"/>
</g>
<!-- Box_GameModel&#45;&gt;Box_TestModel -->
<g id="edge14" class="edge"><title>Box_GameModel&#45;&gt;Box_TestModel</title>
<path fill="none" stroke="midnightblue" d="M1545.74,-316.578C1545.86,-266.859 1545.18,-215.748 1543.68,-181.202"/>
<polygon fill="none" stroke="midnightblue" points="1542.23,-316.816 1545.7,-326.828 1549.23,-316.841 1542.23,-316.816"/>
</g>
<!-- Box_LineRenderer -->
<g id="node7" class="node"><title>Box_LineRenderer</title>
<polygon fill="#fcfcda" stroke="black" points="0,-43 0,-235 218,-235 218,-43 0,-43"/>
<text text-anchor="middle" x="109" y="-223.8" font-family="Helvetica,sans-Serif" font-size="8.00">LineRenderer</text>
<polyline fill="none" stroke="black" points="0,-215 218,-215 "/>
<text text-anchor="start" x="8" y="-203.8" font-family="Helvetica,sans-Serif" font-size="8.00">Attributes:</text>
<text text-anchor="start" x="8" y="-191.8" font-family="Helvetica,sans-Serif" font-size="8.00">&#45; edges : EdgeList</text>
<text text-anchor="start" x="8" y="-179.8" font-family="Helvetica,sans-Serif" font-size="8.00">&#45; basicEffect : BasicEffect</text>
<text text-anchor="start" x="8" y="-167.8" font-family="Helvetica,sans-Serif" font-size="8.00">+ World : World</text>
<text text-anchor="start" x="8" y="-155.8" font-family="Helvetica,sans-Serif" font-size="8.00">+ Info : dynamic</text>
<text text-anchor="start" x="8" y="-143.8" font-family="Helvetica,sans-Serif" font-size="8.00">Methods:</text>
<polyline fill="none" stroke="black" points="0,-135 218,-135 "/>
<text text-anchor="start" x="8" y="-123.8" font-family="Helvetica,sans-Serif" font-size="8.00">+ LineRenderer (GameState state, GameObjectInfo info)</text>
<text text-anchor="start" x="8" y="-111.8" font-family="Helvetica,sans-Serif" font-size="8.00">+ OnEdgesChanged (EdgeList edges)</text>
<text text-anchor="start" x="8" y="-99.8" font-family="Helvetica,sans-Serif" font-size="8.00">&#45; DrawRoundedLines ()</text>
<text text-anchor="start" x="8" y="-87.8" font-family="Helvetica,sans-Serif" font-size="8.00">+ Intersects (Ray ray) : GameObjectDistance</text>
<text text-anchor="start" x="8" y="-75.8" font-family="Helvetica,sans-Serif" font-size="8.00">+ Center () : Vector3</text>
<text text-anchor="start" x="8" y="-63.8" font-family="Helvetica,sans-Serif" font-size="8.00">+ Draw (GameTime gameTime)</text>
<text text-anchor="start" x="8" y="-51.8" font-family="Helvetica,sans-Serif" font-size="8.00">+ Update (GameTime gameTime)</text>
</g>
<!-- Box_KnotRenderer&#45;&gt;Box_LineRenderer -->
<g id="edge26" class="edge"><title>Box_KnotRenderer&#45;&gt;Box_LineRenderer</title>
<path fill="none" stroke="midnightblue" d="M90.5272,-376.608C88.1887,-332.335 88.158,-279.655 90.4352,-235.161"/>
<polygon fill="none" stroke="midnightblue" points="87.0446,-377.012 91.1157,-386.793 94.033,-376.608 87.0446,-377.012"/>
</g>
<!-- Box_KnotRenderer&#45;&gt;Box_LineRenderer -->
<g id="edge64" class="edge"><title>Box_KnotRenderer&#45;&gt;Box_LineRenderer</title>
<path fill="none" stroke="midnightblue" d="M115.158,-376.608C115.937,-332.335 115.947,-279.655 115.188,-235.161"/>
<polygon fill="none" stroke="midnightblue" points="111.655,-376.728 114.961,-386.793 118.653,-376.862 111.655,-376.728"/>
</g>
<!-- Box_KnotRenderer&#45;&gt;Box_LineRenderer -->
<g id="edge70" class="edge"><title>Box_KnotRenderer&#45;&gt;Box_LineRenderer</title>
<path fill="none" stroke="midnightblue" d="M127.473,-376.608C129.811,-332.335 129.842,-279.655 127.565,-235.161"/>
<polygon fill="none" stroke="midnightblue" points="123.967,-376.608 126.884,-386.793 130.955,-377.012 123.967,-376.608"/>
</g>
<!-- Box_KnotRenderer&#45;&gt;Box_LineRenderer -->
<g id="edge20" class="edge"><title>Box_KnotRenderer&#45;&gt;Box_LineRenderer</title>
<path fill="none" stroke="midnightblue" d="M102.842,-376.608C102.063,-332.335 102.053,-279.655 102.812,-235.161"/>
<polygon fill="none" stroke="midnightblue" points="99.3466,-376.862 103.039,-386.793 106.345,-376.728 99.3466,-376.862"/>
</g>
<!-- Box_PipeRenderer -->
<g id="node8" class="node"><title>Box_PipeRenderer</title>
<polygon fill="#fcfcda" stroke="black" points="238.5,-25 238.5,-253 457.5,-253 457.5,-25 238.5,-25"/>
<text text-anchor="middle" x="348" y="-241.8" font-family="Helvetica,sans-Serif" font-size="8.00">PipeRenderer</text>
<polyline fill="none" stroke="black" points="238.5,-233 457.5,-233 "/>
<text text-anchor="start" x="246.5" y="-221.8" font-family="Helvetica,sans-Serif" font-size="8.00">Attributes:</text>
<text text-anchor="start" x="246.5" y="-209.8" font-family="Helvetica,sans-Serif" font-size="8.00">&#45; knots : List&lt;NodeModel&gt;</text>
<text text-anchor="start" x="246.5" y="-197.8" font-family="Helvetica,sans-Serif" font-size="8.00">&#45; knotFactory : NodeModelFactory</text>
<text text-anchor="start" x="246.5" y="-185.8" font-family="Helvetica,sans-Serif" font-size="8.00">&#45; pipeFactory : PipeModelFactory</text>
<text text-anchor="start" x="246.5" y="-173.8" font-family="Helvetica,sans-Serif" font-size="8.00">&#45; pipes : List&lt;PipeModel&gt;</text>
<text text-anchor="start" x="246.5" y="-161.8" font-family="Helvetica,sans-Serif" font-size="8.00">+ World : World</text>
<text text-anchor="start" x="246.5" y="-149.8" font-family="Helvetica,sans-Serif" font-size="8.00">+ Info : dynamic</text>
<text text-anchor="start" x="246.5" y="-137.8" font-family="Helvetica,sans-Serif" font-size="8.00">Methods:</text>
<polyline fill="none" stroke="black" points="238.5,-129 457.5,-129 "/>
<text text-anchor="start" x="246.5" y="-117.8" font-family="Helvetica,sans-Serif" font-size="8.00">&#45; IEnumerable.GetEnumerator () : IEnumerator</text>
<text text-anchor="start" x="246.5" y="-105.8" font-family="Helvetica,sans-Serif" font-size="8.00">+ GetEnumerator () : IEnumerator&lt;IGameObject&gt;</text>
<text text-anchor="start" x="246.5" y="-93.8" font-family="Helvetica,sans-Serif" font-size="8.00">+ PipeRenderer (GameState state, GameObjectInfo info)</text>
<text text-anchor="start" x="246.5" y="-81.8" font-family="Helvetica,sans-Serif" font-size="8.00">+ Intersects (Ray ray) : GameObjectDistance</text>
<text text-anchor="start" x="246.5" y="-69.8" font-family="Helvetica,sans-Serif" font-size="8.00">+ Draw (GameTime gameTime)</text>
<text text-anchor="start" x="246.5" y="-57.8" font-family="Helvetica,sans-Serif" font-size="8.00">+ OnEdgesChanged (EdgeList edges)</text>
<text text-anchor="start" x="246.5" y="-45.8" font-family="Helvetica,sans-Serif" font-size="8.00">+ Update (GameTime gameTime)</text>
<text text-anchor="start" x="246.5" y="-33.8" font-family="Helvetica,sans-Serif" font-size="8.00">+ Center () : Vector3</text>
</g>
<!-- Box_KnotRenderer&#45;&gt;Box_PipeRenderer -->
<g id="edge22" class="edge"><title>Box_KnotRenderer&#45;&gt;Box_PipeRenderer</title>
<path fill="none" stroke="midnightblue" d="M148.457,-378.598C162.892,-357.354 178.981,-334.874 194,-314 208.142,-294.346 223.219,-273.487 238.295,-253.277"/>
<polygon fill="none" stroke="midnightblue" points="145.49,-376.738 142.803,-386.986 151.295,-380.651 145.49,-376.738"/>
</g>
<!-- Box_KnotRenderer&#45;&gt;Box_PipeRenderer -->
<g id="edge28" class="edge"><title>Box_KnotRenderer&#45;&gt;Box_PipeRenderer</title>
<path fill="none" stroke="midnightblue" d="M165.971,-378.598C180.892,-357.354 196.981,-334.874 212,-314 226.142,-294.346 241.219,-273.487 256.007,-253.277"/>
<polygon fill="none" stroke="midnightblue" points="162.966,-376.788 160.096,-386.986 168.7,-380.804 162.966,-376.788"/>
</g>
<!-- Box_KnotRenderer&#45;&gt;Box_PipeRenderer -->
<g id="edge66" class="edge"><title>Box_KnotRenderer&#45;&gt;Box_PipeRenderer</title>
<path fill="none" stroke="midnightblue" d="M183.281,-378.88C198.75,-357.553 214.914,-334.966 230,-314 244.142,-294.346 259.219,-273.487 273.719,-253.277"/>
<polygon fill="none" stroke="midnightblue" points="180.437,-376.839 177.39,-386.986 186.1,-380.955 180.437,-376.839"/>
</g>
<!-- Box_KnotRenderer&#45;&gt;Box_PipeRenderer -->
<g id="edge72" class="edge"><title>Box_KnotRenderer&#45;&gt;Box_PipeRenderer</title>
<path fill="none" stroke="midnightblue" d="M200.788,-378.88C216.75,-357.553 232.914,-334.966 248,-314 262.142,-294.346 277.219,-273.487 291.431,-253.277"/>
<polygon fill="none" stroke="midnightblue" points="197.903,-376.893 194.683,-386.986 203.495,-381.104 197.903,-376.893"/>
</g>
<!-- Box_ShadowGameModel -->
<g id="node12" class="node"><title>Box_ShadowGameModel</title>
<polygon fill="#fcfcda" stroke="black" points="964,-79 964,-199 1200,-199 1200,-79 964,-79"/>
<text text-anchor="middle" x="1082" y="-187.8" font-family="Helvetica,sans-Serif" font-size="8.00">ShadowGameModel</text>
<polyline fill="none" stroke="black" points="964,-179 1200,-179 "/>
<text text-anchor="start" x="972" y="-167.8" font-family="Helvetica,sans-Serif" font-size="8.00">Attributes:</text>
<text text-anchor="start" x="972" y="-155.8" font-family="Helvetica,sans-Serif" font-size="8.00">+ ShadowColor : Color</text>
<text text-anchor="start" x="972" y="-143.8" font-family="Helvetica,sans-Serif" font-size="8.00">&#45; Model : GameModel</text>
<text text-anchor="start" x="972" y="-131.8" font-family="Helvetica,sans-Serif" font-size="8.00">+ ShadowAlpha : float</text>
<text text-anchor="start" x="972" y="-119.8" font-family="Helvetica,sans-Serif" font-size="8.00">Methods:</text>
<polyline fill="none" stroke="black" points="964,-111 1200,-111 "/>
<text text-anchor="start" x="972" y="-99.8" font-family="Helvetica,sans-Serif" font-size="8.00">+ ShadowGameModel (GameState state, GameModel model)</text>
<text text-anchor="start" x="972" y="-87.8" font-family="Helvetica,sans-Serif" font-size="8.00">+ Draw (GameTime gameTime)</text>
</g>
<!-- Box_ShadowGameObject&#45;&gt;Box_ShadowGameModel -->
<g id="edge40" class="edge"><title>Box_ShadowGameObject&#45;&gt;Box_ShadowGameModel</title>
<path fill="none" stroke="midnightblue" d="M1062.97,-364.877C1060.65,-310.153 1061.64,-245.404 1065.96,-199.291"/>
<polygon fill="none" stroke="midnightblue" points="1059.48,-365.146 1063.44,-374.972 1066.47,-364.819 1059.48,-365.146"/>
</g>
<!-- Box_ShadowGameObject&#45;&gt;Box_ShadowGameModel -->
<g id="edge42" class="edge"><title>Box_ShadowGameObject&#45;&gt;Box_ShadowGameModel</title>
<path fill="none" stroke="midnightblue" d="M1075.66,-364.877C1074.88,-310.153 1075.21,-245.404 1076.65,-199.291"/>
<polygon fill="none" stroke="midnightblue" points="1072.16,-365.028 1075.81,-374.972 1079.16,-364.918 1072.16,-365.028"/>
</g>
<!-- Box_ShadowGameObject&#45;&gt;Box_ShadowGameModel -->
<g id="edge80" class="edge"><title>Box_ShadowGameObject&#45;&gt;Box_ShadowGameModel</title>
<path fill="none" stroke="midnightblue" d="M1088.34,-364.877C1089.12,-310.153 1088.79,-245.404 1087.35,-199.291"/>
<polygon fill="none" stroke="midnightblue" points="1084.84,-364.918 1088.19,-374.972 1091.84,-365.028 1084.84,-364.918"/>
</g>
<!-- Box_ShadowGameObject&#45;&gt;Box_ShadowGameModel -->
<g id="edge82" class="edge"><title>Box_ShadowGameObject&#45;&gt;Box_ShadowGameModel</title>
<path fill="none" stroke="midnightblue" d="M1101.03,-364.877C1103.35,-310.153 1102.36,-245.404 1098.04,-199.291"/>
<polygon fill="none" stroke="midnightblue" points="1097.53,-364.819 1100.56,-374.972 1104.52,-365.146 1097.53,-364.819"/>
</g>
<!-- Box_IEdgeChangeListener -->
<g id="node14" class="node"><title>Box_IEdgeChangeListener</title>
<polygon fill="#ffffff" stroke="black" points="61.5,-721 61.5,-741 156.5,-741 156.5,-721 61.5,-721"/>
<text text-anchor="middle" x="109" y="-729.8" font-family="Helvetica,sans-Serif" font-size="8.00">IEdgeChangeListener</text>
</g>
<!-- Box_IEdgeChangeListener&#45;&gt;Box_KnotRenderer -->
<g id="edge60" class="edge"><title>Box_IEdgeChangeListener&#45;&gt;Box_KnotRenderer</title>
<path fill="none" stroke="midnightblue" d="M105.156,-710.583C102.511,-677.426 101.672,-610.056 102.637,-555.177"/>
<polygon fill="none" stroke="midnightblue" points="101.7,-711.201 106.166,-720.808 108.666,-710.512 101.7,-711.201"/>
</g>
<!-- Box_IEdgeChangeListener&#45;&gt;Box_KnotRenderer -->
<g id="edge16" class="edge"><title>Box_IEdgeChangeListener&#45;&gt;Box_KnotRenderer</title>
<path fill="none" stroke="midnightblue" d="M112.844,-710.583C115.489,-677.426 116.328,-610.056 115.363,-555.177"/>
<polygon fill="none" stroke="midnightblue" points="109.334,-710.512 111.834,-720.808 116.3,-711.201 109.334,-710.512"/>
</g>
<!-- Box_IEnumerable -->
<g id="node15" class="node"><title>Box_IEnumerable</title>
<polygon fill="#ffffff" stroke="black" points="498,-461 498,-481 616,-481 616,-461 498,-461"/>
<text text-anchor="middle" x="557" y="-469.8" font-family="Helvetica,sans-Serif" font-size="8.00">IEnumerable&lt;IGameObject&gt;</text>
</g>
<!-- Box_IEnumerable&#45;&gt;Box_PipeRenderer -->
<g id="edge24" class="edge"><title>Box_IEnumerable&#45;&gt;Box_PipeRenderer</title>
<path fill="none" stroke="midnightblue" d="M534.219,-452.705C513.467,-422.596 490.536,-361.233 462,-314 449.693,-293.629 435.245,-273.03 420.741,-253.468"/>
<polygon fill="none" stroke="midnightblue" points="531.723,-455.201 540.593,-460.995 537.272,-450.934 531.723,-455.201"/>
</g>
<!-- Box_IEnumerable&#45;&gt;Box_PipeRenderer -->
<g id="edge30" class="edge"><title>Box_IEnumerable&#45;&gt;Box_PipeRenderer</title>
<path fill="none" stroke="midnightblue" d="M544.978,-451.919C531.071,-421.539 508.29,-360.826 480,-314 467.693,-293.629 453.245,-273.03 438.497,-253.468"/>
<polygon fill="none" stroke="midnightblue" points="541.857,-453.504 549.35,-460.995 548.164,-450.467 541.857,-453.504"/>
</g>
<!-- Box_IEnumerable&#45;&gt;Box_PipeRenderer -->
<g id="edge68" class="edge"><title>Box_IEnumerable&#45;&gt;Box_PipeRenderer</title>
<path fill="none" stroke="midnightblue" d="M556.084,-451.12C548.674,-420.484 526.044,-360.419 498,-314 485.693,-293.629 471.245,-273.03 456.254,-253.468"/>
<polygon fill="none" stroke="midnightblue" points="552.671,-451.901 558.107,-460.995 559.529,-450.496 552.671,-451.901"/>
</g>
<!-- Box_IEnumerable&#45;&gt;Box_PipeRenderer -->
<g id="edge74" class="edge"><title>Box_IEnumerable&#45;&gt;Box_PipeRenderer</title>
<path fill="none" stroke="midnightblue" d="M567.541,-450.715C566.476,-419.957 543.921,-360.215 516,-314 499.355,-286.449 478.794,-258.481 457.667,-233.226"/>
<polygon fill="none" stroke="midnightblue" points="564.029,-450.787 566.864,-460.995 571.014,-451.247 564.029,-450.787"/>
</g>
<!-- Box_IEnumerable&#45;&gt;Box_PipeMovement -->
<g id="edge36" class="edge"><title>Box_IEnumerable&#45;&gt;Box_PipeMovement</title>
<path fill="none" stroke="midnightblue" d="M559.211,-450.513C566.235,-415.992 585.259,-343.493 604.062,-277.116"/>
<polygon fill="none" stroke="midnightblue" points="555.704,-450.227 557.307,-460.7 562.585,-451.513 555.704,-450.227"/>
</g>
<!-- Box_IEnumerable&#45;&gt;Box_PipeMovement -->
<g id="edge86" class="edge"><title>Box_IEnumerable&#45;&gt;Box_PipeMovement</title>
<path fill="none" stroke="midnightblue" d="M565.986,-450.961C578.067,-416.623 599.33,-343.781 617.391,-277.116"/>
<polygon fill="none" stroke="midnightblue" points="562.571,-450.106 562.402,-460.7 569.14,-452.524 562.571,-450.106"/>
</g>
</g>
</svg>
