<?xml version="1.0" encoding="UTF-8" standalone="no"?>
<!DOCTYPE svg PUBLIC "-//W3C//DTD SVG 1.1//EN"
 "http://www.w3.org/Graphics/SVG/1.1/DTD/svg11.dtd">
<!-- Generated by graphviz version 2.26.3 (20100126.1600)
 -->
<!-- Title: MenuItem Pages: 1 -->
<svg width="868pt" height="518pt"
 viewBox="0.00 0.00 868.00 518.00" xmlns="http://www.w3.org/2000/svg" xmlns:xlink="http://www.w3.org/1999/xlink">
<g id="graph1" class="graph" transform="scale(1 1) rotate(0) translate(4 514)">
<title>MenuItem</title>
<polygon fill="white" stroke="white" points="-4,5 -4,-514 865,-514 865,5 -4,5"/>
<!-- Box_IMouseEventListener -->
<g id="node1" class="node"><title>Box_IMouseEventListener</title>
<polygon fill="#dafcda" stroke="black" points="190,-415 190,-509 442,-509 442,-415 190,-415"/>
<text text-anchor="middle" x="316" y="-497.8" font-family="Arial" font-size="8.00">IMouseEventListener</text>
<polyline fill="none" stroke="black" points="190,-491 442,-491 "/>
<text text-anchor="start" x="198" y="-479.8" font-family="Arial" font-size="8.00">+ Index : DisplayLayer</text>
<text text-anchor="start" x="198" y="-469.8" font-family="Arial" font-size="8.00">+ IsMouseEventEnabled : bool</text>
<polyline fill="none" stroke="black" points="190,-463 442,-463 "/>
<text text-anchor="start" x="198" y="-451.8" font-family="Arial" font-size="8.00">+ OnLeftClick (Vector2 position, ClickState click, GameTime time)</text>
<text text-anchor="start" x="198" y="-441.8" font-family="Arial" font-size="8.00">+ OnRightClick (Vector2 position, ClickState click, GameTime time)</text>
<text text-anchor="start" x="198" y="-431.8" font-family="Arial" font-size="8.00">+ SetHovered (bool hovered)</text>
<text text-anchor="start" x="198" y="-421.8" font-family="Arial" font-size="8.00">+ bounds () : Rectangle</text>
</g>
<!-- Box_ColorPicker -->
<g id="node2" class="node"><title>Box_ColorPicker</title>
<polygon fill="#fcfcda" stroke="black" points="0,-193 0,-377 300,-377 300,-193 0,-193"/>
<text text-anchor="middle" x="150" y="-365.8" font-family="Arial" font-size="8.00">ColorPicker</text>
<polyline fill="none" stroke="black" points="0,-359 300,-359 "/>
<text text-anchor="start" x="8" y="-347.8" font-family="Arial" font-size="8.00">&#45; tiles : List&lt;Vector2&gt;</text>
<text text-anchor="start" x="8" y="-337.8" font-family="Arial" font-size="8.00">+ SelectedColor : Color</text>
<text text-anchor="start" x="8" y="-327.8" font-family="Arial" font-size="8.00">+ IsMouseEventEnabled : bool</text>
<text text-anchor="start" x="8" y="-317.8" font-family="Arial" font-size="8.00">&#45; colors : List&lt;Color&gt;</text>
<text text-anchor="start" x="8" y="-307.8" font-family="Arial" font-size="8.00"># spriteBatch : SpriteBatch</text>
<text text-anchor="start" x="8" y="-297.8" font-family="Arial" font-size="8.00">+ OnSelectColor : Action&lt;Color&gt;</text>
<polyline fill="none" stroke="black" points="0,-291 300,-291 "/>
<text text-anchor="start" x="8" y="-279.8" font-family="Arial" font-size="8.00">&#45; Vector2 tileSize (0.032f, 0.032f) : readonly static</text>
<text text-anchor="start" x="8" y="-269.8" font-family="Arial" font-size="8.00">&#45; CreateTiles (IEnumerable&lt;Color&gt; _colors) : IEnumerable&lt;Vector2&gt; static</text>
<text text-anchor="start" x="8" y="-259.8" font-family="Arial" font-size="8.00">+ ColorPicker (GameScreen screen, WidgetInfo info, DisplayLayer drawOrder)</text>
<text text-anchor="start" x="8" y="-249.8" font-family="Arial" font-size="8.00">+ Draw (GameTime time)</text>
<text text-anchor="start" x="8" y="-239.8" font-family="Arial" font-size="8.00">+ OnRightClick (Vector2 position, ClickState click, GameTime time)</text>
<text text-anchor="start" x="8" y="-229.8" font-family="Arial" font-size="8.00">+ SetHovered (bool hovered)</text>
<text text-anchor="start" x="8" y="-219.8" font-family="Arial" font-size="8.00">&#45; CreateColors (int num) : IEnumerable&lt;Color&gt; static</text>
<text text-anchor="start" x="8" y="-209.8" font-family="Arial" font-size="8.00">&#45; SelectColor (Color color)</text>
<text text-anchor="start" x="8" y="-199.8" font-family="Arial" font-size="8.00">+ OnLeftClick (Vector2 position, ClickState click, GameTime time)</text>
</g>
<!-- Box_IMouseEventListener&#45;&gt;Box_ColorPicker -->
<g id="edge4" class="edge"><title>Box_IMouseEventListener&#45;&gt;Box_ColorPicker</title>
<path fill="none" stroke="midnightblue" d="M264.507,-407.094C255.604,-397.602 246.133,-387.503 236.599,-377.337"/>
<polygon fill="none" stroke="midnightblue" points="262.121,-409.667 271.515,-414.567 267.227,-404.879 262.121,-409.667"/>
</g>
<!-- Box_MenuItem -->
<g id="node3" class="node"><title>Box_MenuItem</title>
<polygon fill="#fcfcda" stroke="black" points="317.5,-193 317.5,-377 664.5,-377 664.5,-193 317.5,-193"/>
<text text-anchor="middle" x="491" y="-365.8" font-family="Arial" font-size="8.00">MenuItem</text>
<polyline fill="none" stroke="black" points="317.5,-359 664.5,-359 "/>
<text text-anchor="start" x="325.5" y="-347.8" font-family="Arial" font-size="8.00"># spriteBatch : SpriteBatch</text>
<text text-anchor="start" x="325.5" y="-337.8" font-family="Arial" font-size="8.00">+ IsMouseEventEnabled : bool</text>
<text text-anchor="start" x="325.5" y="-327.8" font-family="Arial" font-size="8.00">+ ValidKeys : List&lt;Keys&gt;</text>
<text text-anchor="start" x="325.5" y="-317.8" font-family="Arial" font-size="8.00">+ IsKeyEventEnabled : bool</text>
<text text-anchor="start" x="325.5" y="-307.8" font-family="Arial" font-size="8.00">+ Info : MenuItemInfo</text>
<polyline fill="none" stroke="black" points="317.5,-301 664.5,-301 "/>
<text text-anchor="start" x="325.5" y="-289.8" font-family="Arial" font-size="8.00">+ MenuItem (GameScreen screen, DisplayLayer drawOrder, int itemNum, MenuItemInfo info)</text>
<text text-anchor="start" x="325.5" y="-279.8" font-family="Arial" font-size="8.00">+ Collapse () virtual</text>
<text text-anchor="start" x="325.5" y="-269.8" font-family="Arial" font-size="8.00">+ OnKeyEvent (List&lt;Keys&gt; key, KeyEvent keyEvent, GameTime time)</text>
<text text-anchor="start" x="325.5" y="-259.8" font-family="Arial" font-size="8.00">+ OnLeftClick (Vector2 position, ClickState click, GameTime time)</text>
<text text-anchor="start" x="325.5" y="-249.8" font-family="Arial" font-size="8.00">+ OnRightClick (Vector2 position, ClickState click, GameTime time)</text>
<text text-anchor="start" x="325.5" y="-239.8" font-family="Arial" font-size="8.00">+ MinimumSize (SpriteFont font) : Vector2</text>
<text text-anchor="start" x="325.5" y="-229.8" font-family="Arial" font-size="8.00">+ TextPosition (SpriteFont font) : Vector2</text>
<text text-anchor="start" x="325.5" y="-219.8" font-family="Arial" font-size="8.00">+ TextPosition (SpriteFont font, Vector2 scale) : Vector2</text>
<text text-anchor="start" x="325.5" y="-209.8" font-family="Arial" font-size="8.00">+ Draw (GameTime time)</text>
<text text-anchor="start" x="325.5" y="-199.8" font-family="Arial" font-size="8.00">+ SetHovered (bool hovered)</text>
</g>
<!-- Box_IMouseEventListener&#45;&gt;Box_MenuItem -->
<g id="edge8" class="edge"><title>Box_IMouseEventListener&#45;&gt;Box_MenuItem</title>
<path fill="none" stroke="midnightblue" d="M370.007,-407.376C379.473,-397.802 389.555,-387.604 399.706,-377.337"/>
<polygon fill="none" stroke="midnightblue" points="367.439,-404.995 362.897,-414.567 372.417,-409.917 367.439,-404.995"/>
</g>
<!-- Box_DropDownMenu -->
<g id="node4" class="node"><title>Box_DropDownMenu</title>
<polygon fill="#fcfcda" stroke="black" points="114,-1 114,-155 486,-155 486,-1 114,-1"/>
<text text-anchor="middle" x="300" y="-143.8" font-family="Arial" font-size="8.00">DropDownMenu</text>
<polyline fill="none" stroke="black" points="114,-137 486,-137 "/>
<text text-anchor="start" x="122" y="-125.8" font-family="Arial" font-size="8.00">&#45; selected : MenuButton</text>
<text text-anchor="start" x="122" y="-115.8" font-family="Arial" font-size="8.00">&#45; dropdown : VerticalMenu</text>
<polyline fill="none" stroke="black" points="114,-109 486,-109 "/>
<text text-anchor="start" x="122" y="-97.8" font-family="Arial" font-size="8.00">&#45; ValuePosition (int dummy) : Vector2</text>
<text text-anchor="start" x="122" y="-87.8" font-family="Arial" font-size="8.00">+ DropDownMenu (GameScreen screen, DisplayLayer drawOrder, int itemNum, MenuItemInfo info)</text>
<text text-anchor="start" x="122" y="-77.8" font-family="Arial" font-size="8.00">&#45; DropDownBackgroundColor (ItemState itemState) : Color</text>
<text text-anchor="start" x="122" y="-67.8" font-family="Arial" font-size="8.00">&#45; DropDownForegroundColor (ItemState itemState) : Color</text>
<text text-anchor="start" x="122" y="-57.8" font-family="Arial" font-size="8.00">&#45; ValueSize (int dummy) : Vector2</text>
<text text-anchor="start" x="122" y="-47.8" font-family="Arial" font-size="8.00">+ SubComponents (GameTime time) : IEnumerable&lt;IGameScreenComponent&gt;</text>
<text text-anchor="start" x="122" y="-37.8" font-family="Arial" font-size="8.00">+ Collapse ()</text>
<text text-anchor="start" x="122" y="-27.8" font-family="Arial" font-size="8.00">+ Draw (GameTime time)</text>
<text text-anchor="start" x="122" y="-17.8" font-family="Arial" font-size="8.00">+ AddEntries (DistinctOptionInfo option)</text>
<text text-anchor="start" x="122" y="-7.8" font-family="Arial" font-size="8.00">+ AddEntries (DropDownMenuItem[] entries, DropDownMenuItem defaultEntry)</text>
</g>
<!-- Box_MenuItem&#45;&gt;Box_DropDownMenu -->
<g id="edge12" class="edge"><title>Box_MenuItem&#45;&gt;Box_DropDownMenu</title>
<path fill="none" stroke="midnightblue" d="M398.783,-185.058C389.544,-175.045 380.264,-164.987 371.289,-155.261"/>
<polygon fill="none" stroke="midnightblue" points="396.48,-187.724 405.834,-192.7 401.625,-182.977 396.48,-187.724"/>
</g>
<!-- Box_MenuButton -->
<g id="node5" class="node"><title>Box_MenuButton</title>
<polygon fill="#fcfcda" stroke="black" points="504,-51 504,-105 860,-105 860,-51 504,-51"/>
<text text-anchor="middle" x="682" y="-93.8" font-family="Arial" font-size="8.00">MenuButton</text>
<polyline fill="none" stroke="black" points="504,-87 860,-87 "/>
<text text-anchor="middle" x="682" y="-75.8" font-family="Arial" font-size="8.00"> </text>
<polyline fill="none" stroke="black" points="504,-69 860,-69 "/>
<text text-anchor="start" x="512" y="-57.8" font-family="Arial" font-size="8.00">+ MenuButton (GameScreen screen, DisplayLayer drawOrder, int itemNum, MenuItemInfo info)</text>
</g>
<!-- Box_MenuItem&#45;&gt;Box_MenuButton -->
<g id="edge14" class="edge"><title>Box_MenuItem&#45;&gt;Box_MenuButton</title>
<path fill="none" stroke="midnightblue" d="M583.039,-185.251C610.127,-155.894 637.586,-126.134 656.685,-105.435"/>
<polygon fill="none" stroke="midnightblue" points="580.375,-182.977 576.166,-192.7 585.52,-187.724 580.375,-182.977"/>
</g>
<!-- Box_Widget -->
<g id="node6" class="node"><title>Box_Widget</title>
<polygon fill="#ffffff" stroke="black" points="129.5,-453 129.5,-471 170.5,-471 170.5,-453 129.5,-453"/>
<text text-anchor="middle" x="150" y="-459.8" font-family="Arial" font-size="8.00">Widget</text>
</g>
<!-- Box_Widget&#45;&gt;Box_ColorPicker -->
<g id="edge2" class="edge"><title>Box_Widget&#45;&gt;Box_ColorPicker</title>
<path fill="none" stroke="midnightblue" d="M150,-442.754C150,-426.557 150,-402.12 150,-377.285"/>
<polygon fill="none" stroke="midnightblue" points="146.5,-442.979 150,-452.979 153.5,-442.979 146.5,-442.979"/>
</g>
<!-- Box_ItemWidget -->
<g id="node7" class="node"><title>Box_ItemWidget</title>
<polygon fill="#ffffff" stroke="black" points="461,-453 461,-471 517,-471 517,-453 461,-453"/>
<text text-anchor="middle" x="489" y="-459.8" font-family="Arial" font-size="8.00">ItemWidget</text>
</g>
<!-- Box_ItemWidget&#45;&gt;Box_MenuItem -->
<g id="edge6" class="edge"><title>Box_ItemWidget&#45;&gt;Box_MenuItem</title>
<path fill="none" stroke="midnightblue" d="M489.217,-442.754C489.4,-426.557 489.677,-402.12 489.957,-377.285"/>
<polygon fill="none" stroke="midnightblue" points="485.715,-442.94 489.102,-452.979 492.715,-443.019 485.715,-442.94"/>
</g>
<!-- Box_IKeyEventListener -->
<g id="node8" class="node"><title>Box_IKeyEventListener</title>
<polygon fill="#ffffff" stroke="black" points="535,-453 535,-471 617,-471 617,-453 535,-453"/>
<text text-anchor="middle" x="576" y="-459.8" font-family="Arial" font-size="8.00">IKeyEventListener</text>
</g>
<!-- Box_IKeyEventListener&#45;&gt;Box_MenuItem -->
<g id="edge10" class="edge"><title>Box_IKeyEventListener&#45;&gt;Box_MenuItem</title>
<path fill="none" stroke="midnightblue" d="M567.206,-443.688C559.435,-427.506 547.476,-402.602 535.318,-377.285"/>
<polygon fill="none" stroke="midnightblue" points="564.184,-445.48 571.668,-452.979 570.494,-442.45 564.184,-445.48"/>
</g>
</g>
</svg>
