<?xml version="1.0" encoding="UTF-8" standalone="no"?>
<!DOCTYPE svg PUBLIC "-//W3C//DTD SVG 1.1//EN"
 "http://www.w3.org/Graphics/SVG/1.1/DTD/svg11.dtd">
<!-- Generated by graphviz version 2.26.3 (20100126.1600)
 -->
<!-- Title: MenuItem Pages: 1 -->
<svg width="1821pt" height="1517pt"
 viewBox="0.00 0.00 437.00 364.00" xmlns="http://www.w3.org/2000/svg" xmlns:xlink="http://www.w3.org/1999/xlink">
<g id="graph1" class="graph" transform="scale(4.16667 4.16667) rotate(0) translate(4 360)">
<title>MenuItem</title>
<polygon fill="white" stroke="white" points="-4,5 -4,-360 434,-360 434,5 -4,5"/>
<!-- Box_MousePicker -->
<g id="node1" class="node"><title>Box_MousePicker</title>
<polygon fill="#fcfcda" stroke="black" points="170,-1 170,-95 356,-95 356,-1 170,-1"/>
<text text-anchor="middle" x="263" y="-83.8" font-family="Arial" font-size="8.00">MousePicker</text>
<polyline fill="none" stroke="black" points="170,-77 356,-77 "/>
<text text-anchor="start" x="178" y="-65.8" font-family="Arial" font-size="8.00">&#45; lastMousePosition : Vector2</text>
<text text-anchor="start" x="178" y="-55.8" font-family="Arial" font-size="8.00">&#45; World : World</text>
<text text-anchor="start" x="178" y="-45.8" font-family="Arial" font-size="8.00">&#45; lastRayCheck : double</text>
<polyline fill="none" stroke="black" points="170,-39 356,-39 "/>
<text text-anchor="start" x="178" y="-27.8" font-family="Arial" font-size="8.00">+ MousePicker (GameState state, World world)</text>
<text text-anchor="start" x="178" y="-17.8" font-family="Arial" font-size="8.00">+ Update (GameTime gameTime)</text>
<text text-anchor="start" x="178" y="-7.8" font-family="Arial" font-size="8.00">+ UpdateMouseRay (GameTime gameTime)</text>
</g>
<!-- Box_GameStateComponent -->
<g id="node2" class="node"><title>Box_GameStateComponent</title>
<polygon fill="#fcfcda" stroke="black" points="97,-133 97,-207 429,-207 429,-133 97,-133"/>
<text text-anchor="middle" x="263" y="-195.8" font-family="Arial" font-size="8.00">GameStateComponent</text>
<polyline fill="none" stroke="black" points="97,-189 429,-189 "/>
<text text-anchor="start" x="105" y="-177.8" font-family="Arial" font-size="8.00">+ Index : DisplayLayer</text>
<text text-anchor="start" x="105" y="-167.8" font-family="Arial" font-size="8.00">+ state : GameState</text>
<polyline fill="none" stroke="black" points="97,-161 429,-161 "/>
<text text-anchor="start" x="105" y="-149.8" font-family="Arial" font-size="8.00">+ GameStateComponent (GameState state, DisplayLayer index)</text>
<text text-anchor="start" x="105" y="-139.8" font-family="Arial" font-size="8.00">+ SubComponents (GameTime gameTime) : IEnumerable&lt;IGameStateComponent&gt; virtual</text>
</g>
<!-- Box_GameStateComponent&#45;&gt;Box_MousePicker -->
<g id="edge2" class="edge"><title>Box_GameStateComponent&#45;&gt;Box_MousePicker</title>
<path fill="none" stroke="midnightblue" d="M263,-122.517C263,-113.615 263,-104.308 263,-95.4085"/>
<polygon fill="none" stroke="midnightblue" points="259.5,-122.733 263,-132.733 266.5,-122.733 259.5,-122.733"/>
</g>
<!-- Box_IGameStateComponent -->
<g id="node3" class="node"><title>Box_IGameStateComponent</title>
<polygon fill="#dafcda" stroke="black" points="0,-245 0,-299 308,-299 308,-245 0,-245"/>
<text text-anchor="middle" x="154" y="-287.8" font-family="Arial" font-size="8.00">IGameStateComponent</text>
<polyline fill="none" stroke="black" points="0,-281 308,-281 "/>
<text text-anchor="start" x="8" y="-269.8" font-family="Arial" font-size="8.00">+ Index : DisplayLayer</text>
<polyline fill="none" stroke="black" points="0,-263 308,-263 "/>
<text text-anchor="start" x="8" y="-251.8" font-family="Arial" font-size="8.00">+ SubComponents (GameTime gameTime) : IEnumerable&lt;IGameStateComponent&gt;</text>
</g>
<!-- Box_IGameStateComponent&#45;&gt;Box_GameStateComponent -->
<g id="edge6" class="edge"><title>Box_IGameStateComponent&#45;&gt;Box_GameStateComponent</title>
<path fill="none" stroke="midnightblue" d="M190.4,-237.937C200.952,-228.063 212.526,-217.233 223.27,-207.178"/>
<polygon fill="none" stroke="midnightblue" points="187.834,-235.545 182.924,-244.934 192.617,-240.656 187.834,-235.545"/>
</g>
<!-- Box_XnaGameComponent -->
<g id="node4" class="node"><title>Box_XnaGameComponent</title>
<polygon fill="#ffffff" stroke="black" points="325.5,-263 325.5,-281 420.5,-281 420.5,-263 325.5,-263"/>
<text text-anchor="middle" x="373" y="-269.8" font-family="Arial" font-size="8.00">Xna.GameComponent</text>
</g>
<!-- Box_XnaGameComponent&#45;&gt;Box_GameStateComponent -->
<g id="edge4" class="edge"><title>Box_XnaGameComponent&#45;&gt;Box_GameStateComponent</title>
<path fill="none" stroke="midnightblue" d="M355.743,-255.998C341.646,-242.926 321.159,-223.929 303.024,-207.113"/>
<polygon fill="none" stroke="midnightblue" points="353.526,-258.715 363.238,-262.948 358.285,-253.582 353.526,-258.715"/>
</g>
<!-- Box_XnaIGameComponent -->
<g id="node5" class="node"><title>Box_XnaIGameComponent</title>
<polygon fill="#ffffff" stroke="black" points="106,-337 106,-355 202,-355 202,-337 106,-337"/>
<text text-anchor="middle" x="154" y="-343.8" font-family="Arial" font-size="8.00">Xna.IGameComponent</text>
</g>
<!-- Box_XnaIGameComponent&#45;&gt;Box_IGameStateComponent -->
<g id="edge8" class="edge"><title>Box_XnaIGameComponent&#45;&gt;Box_IGameStateComponent</title>
<path fill="none" stroke="midnightblue" d="M154,-326.64C154,-318.2 154,-308.16 154,-299.004"/>
<polygon fill="none" stroke="midnightblue" points="150.5,-326.926 154,-336.926 157.5,-326.926 150.5,-326.926"/>
</g>
</g>
</svg>
