<?xml version="1.0" encoding="UTF-8" standalone="no"?>
<!DOCTYPE svg PUBLIC "-//W3C//DTD SVG 1.1//EN"
 "http://www.w3.org/Graphics/SVG/1.1/DTD/svg11.dtd">
<!-- Generated by graphviz version 2.26.3 (20100126.1600)
 -->
<!-- Title: MenuItem Pages: 1 -->
<svg width="448pt" height="354pt"
 viewBox="0.00 0.00 448.00 354.00" xmlns="http://www.w3.org/2000/svg" xmlns:xlink="http://www.w3.org/1999/xlink">
<g id="graph1" class="graph" transform="scale(1 1) rotate(0) translate(4 350)">
<title>MenuItem</title>
<polygon fill="white" stroke="white" points="-4,5 -4,-350 445,-350 445,5 -4,5"/>
<!-- Box_MousePointer -->
<g id="node1" class="node"><title>Box_MousePointer</title>
<polygon fill="#fcfcda" stroke="black" points="182.5,-1 182.5,-75 337.5,-75 337.5,-1 182.5,-1"/>
<text text-anchor="middle" x="260" y="-63.8" font-family="Arial" font-size="8.00">MousePointer</text>
<polyline fill="none" stroke="black" points="182.5,-57 337.5,-57 "/>
<text text-anchor="start" x="190.5" y="-45.8" font-family="Arial" font-size="8.00">&#45; spriteBatch : SpriteBatch</text>
<polyline fill="none" stroke="black" points="182.5,-39 337.5,-39 "/>
<text text-anchor="start" x="190.5" y="-27.8" font-family="Arial" font-size="8.00">+ MousePointer (GameScreen screen)</text>
<text text-anchor="start" x="190.5" y="-17.8" font-family="Arial" font-size="8.00">&#45; DrawCursor (GameTime time)</text>
<text text-anchor="start" x="190.5" y="-7.8" font-family="Arial" font-size="8.00">+ Draw (GameTime time)</text>
</g>
<!-- Box_DrawableGameScreenComponent -->
<g id="node2" class="node"><title>Box_DrawableGameScreenComponent</title>
<polygon fill="#fcfcda" stroke="black" points="101.5,-113 101.5,-197 418.5,-197 418.5,-113 101.5,-113"/>
<text text-anchor="middle" x="260" y="-185.8" font-family="Arial" font-size="8.00">DrawableGameScreenComponent</text>
<polyline fill="none" stroke="black" points="101.5,-179 418.5,-179 "/>
<text text-anchor="start" x="109.5" y="-167.8" font-family="Arial" font-size="8.00">+ Index : DisplayLayer</text>
<text text-anchor="start" x="109.5" y="-157.8" font-family="Arial" font-size="8.00">&#45; _index : DisplayLayer</text>
<text text-anchor="start" x="109.5" y="-147.8" font-family="Arial" font-size="8.00">+ screen : GameScreen</text>
<polyline fill="none" stroke="black" points="101.5,-141 418.5,-141 "/>
<text text-anchor="start" x="109.5" y="-129.8" font-family="Arial" font-size="8.00">+ DrawableGameScreenComponent (GameScreen screen, DisplayLayer index)</text>
<text text-anchor="start" x="109.5" y="-119.8" font-family="Arial" font-size="8.00">+ SubComponents (GameTime time) : IEnumerable&lt;IGameScreenComponent&gt; virtual</text>
</g>
<!-- Box_DrawableGameScreenComponent&#45;&gt;Box_MousePointer -->
<g id="edge2" class="edge"><title>Box_DrawableGameScreenComponent&#45;&gt;Box_MousePointer</title>
<path fill="none" stroke="midnightblue" d="M260,-102.482C260,-93.2581 260,-83.8343 260,-75.1401"/>
<polygon fill="none" stroke="midnightblue" points="256.5,-102.76 260,-112.76 263.5,-102.76 256.5,-102.76"/>
</g>
<!-- Box_IGameScreenComponent -->
<g id="node3" class="node"><title>Box_IGameScreenComponent</title>
<polygon fill="#dafcda" stroke="black" points="-0.5,-235 -0.5,-289 292.5,-289 292.5,-235 -0.5,-235"/>
<text text-anchor="middle" x="146" y="-277.8" font-family="Arial" font-size="8.00">IGameScreenComponent</text>
<polyline fill="none" stroke="black" points="-0.5,-271 292.5,-271 "/>
<text text-anchor="start" x="7.5" y="-259.8" font-family="Arial" font-size="8.00">+ Index : DisplayLayer</text>
<polyline fill="none" stroke="black" points="-0.5,-253 292.5,-253 "/>
<text text-anchor="start" x="7.5" y="-241.8" font-family="Arial" font-size="8.00">+ SubComponents (GameTime time) : IEnumerable&lt;IGameScreenComponent&gt;</text>
</g>
<!-- Box_IGameScreenComponent&#45;&gt;Box_DrawableGameScreenComponent -->
<g id="edge6" class="edge"><title>Box_IGameScreenComponent&#45;&gt;Box_DrawableGameScreenComponent</title>
<path fill="none" stroke="midnightblue" d="M182.116,-228.102C192.502,-218.354 203.961,-207.598 214.821,-197.404"/>
<polygon fill="none" stroke="midnightblue" points="179.663,-225.604 174.767,-234.999 184.454,-230.708 179.663,-225.604"/>
</g>
<!-- Box_XnaDrawableGameComponent -->
<g id="node4" class="node"><title>Box_XnaDrawableGameComponent</title>
<polygon fill="#ffffff" stroke="black" points="310,-253 310,-271 440,-271 440,-253 310,-253"/>
<text text-anchor="middle" x="375" y="-259.8" font-family="Arial" font-size="8.00">Xna.DrawableGameComponent</text>
</g>
<!-- Box_XnaDrawableGameComponent&#45;&gt;Box_DrawableGameScreenComponent -->
<g id="edge4" class="edge"><title>Box_XnaDrawableGameComponent&#45;&gt;Box_DrawableGameScreenComponent</title>
<path fill="none" stroke="midnightblue" d="M357.824,-246.018C343.966,-233.124 323.815,-214.376 305.399,-197.241"/>
<polygon fill="none" stroke="midnightblue" points="355.49,-248.628 365.195,-252.877 360.258,-243.503 355.49,-248.628"/>
</g>
<!-- Box_XnaIGameComponent -->
<g id="node5" class="node"><title>Box_XnaIGameComponent</title>
<polygon fill="#ffffff" stroke="black" points="98,-327 98,-345 194,-345 194,-327 98,-327"/>
<text text-anchor="middle" x="146" y="-333.8" font-family="Arial" font-size="8.00">Xna.IGameComponent</text>
</g>
<!-- Box_XnaIGameComponent&#45;&gt;Box_IGameScreenComponent -->
<g id="edge8" class="edge"><title>Box_XnaIGameComponent&#45;&gt;Box_IGameScreenComponent</title>
<path fill="none" stroke="midnightblue" d="M146,-316.64C146,-308.2 146,-298.16 146,-289.004"/>
<polygon fill="none" stroke="midnightblue" points="142.5,-316.926 146,-326.926 149.5,-316.926 142.5,-316.926"/>
</g>
</g>
</svg>
