<?xml version="1.0" encoding="UTF-8" standalone="no"?>
<!DOCTYPE svg PUBLIC "-//W3C//DTD SVG 1.1//EN"
 "http://www.w3.org/Graphics/SVG/1.1/DTD/svg11.dtd">
<!-- Generated by graphviz version 2.26.3 (20100126.1600)
 -->
<!-- Title: MenuItem Pages: 1 -->
<svg width="362pt" height="748pt"
 viewBox="0.00 0.00 362.00 748.00" xmlns="http://www.w3.org/2000/svg" xmlns:xlink="http://www.w3.org/1999/xlink">
<g id="graph1" class="graph" transform="scale(1 1) rotate(0) translate(4 744)">
<title>MenuItem</title>
<polygon fill="white" stroke="white" points="-4,5 -4,-744 359,-744 359,5 -4,5"/>
<!-- Box_OptionScreen -->
<g id="node1" class="node"><title>Box_OptionScreen</title>
<polygon fill="#fcfcda" stroke="black" points="95,-153 95,-257 259,-257 259,-153 95,-153"/>
<text text-anchor="middle" x="177" y="-245.8" font-family="Arial" font-size="8.00">OptionScreen</text>
<polyline fill="none" stroke="black" points="95,-239 259,-239 "/>
<text text-anchor="start" x="103" y="-227.8" font-family="Arial" font-size="8.00">&#45; spriteBatch : SpriteBatch</text>
<text text-anchor="start" x="103" y="-217.8" font-family="Arial" font-size="8.00">&#45; menu : VerticalMenu</text>
<polyline fill="none" stroke="black" points="95,-211 259,-211 "/>
<text text-anchor="start" x="103" y="-199.8" font-family="Arial" font-size="8.00">+ OptionScreen (Core.Knot3Game game)</text>
<text text-anchor="start" x="103" y="-189.8" font-family="Arial" font-size="8.00">+ Activate (GameTime time)</text>
<text text-anchor="start" x="103" y="-179.8" font-family="Arial" font-size="8.00">+ DrawMenu (GameTime time)</text>
<text text-anchor="start" x="103" y="-169.8" font-family="Arial" font-size="8.00">+ UpdateMenu (GameTime time)</text>
<text text-anchor="start" x="103" y="-159.8" font-family="Arial" font-size="8.00">+ Initialize ()</text>
</g>
<!-- Box_VideoOptionScreen -->
<g id="node4" class="node"><title>Box_VideoOptionScreen</title>
<polygon fill="#fcfcda" stroke="black" points="84.5,-1 84.5,-115 269.5,-115 269.5,-1 84.5,-1"/>
<text text-anchor="middle" x="177" y="-103.8" font-family="Arial" font-size="8.00">VideoOptionScreen</text>
<polyline fill="none" stroke="black" points="84.5,-97 269.5,-97 "/>
<text text-anchor="start" x="92.5" y="-85.8" font-family="Arial" font-size="8.00">&#45; spriteBatch : SpriteBatch</text>
<text text-anchor="start" x="92.5" y="-75.8" font-family="Arial" font-size="8.00">&#45; menu : VerticalMenu</text>
<polyline fill="none" stroke="black" points="84.5,-69 269.5,-69 "/>
<text text-anchor="start" x="92.5" y="-57.8" font-family="Arial" font-size="8.00">+ VideoOptionScreen (Core.Knot3Game game)</text>
<text text-anchor="start" x="92.5" y="-47.8" font-family="Arial" font-size="8.00">+ Activate (GameTime time)</text>
<text text-anchor="start" x="92.5" y="-37.8" font-family="Arial" font-size="8.00">+ DrawMenu (GameTime time)</text>
<text text-anchor="start" x="92.5" y="-27.8" font-family="Arial" font-size="8.00">+ Initialize ()</text>
<text text-anchor="start" x="92.5" y="-17.8" font-family="Arial" font-size="8.00">+ UpdateMenu (GameTime time)</text>
<text text-anchor="start" x="92.5" y="-7.8" font-family="Arial" font-size="8.00">+ Collapse (MenuItem item)</text>
</g>
<!-- Box_OptionScreen&#45;&gt;Box_VideoOptionScreen -->
<g id="edge6" class="edge"><title>Box_OptionScreen&#45;&gt;Box_VideoOptionScreen</title>
<path fill="none" stroke="midnightblue" d="M177,-142.579C177,-133.447 177,-124.082 177,-115.064"/>
<polygon fill="none" stroke="midnightblue" points="173.5,-142.759 177,-152.759 180.5,-142.759 173.5,-142.759"/>
</g>
<!-- Box_MenuScreen -->
<g id="node2" class="node"><title>Box_MenuScreen</title>
<polygon fill="#fcfcda" stroke="black" points="83,-295 83,-479 271,-479 271,-295 83,-295"/>
<text text-anchor="middle" x="177" y="-467.8" font-family="Arial" font-size="8.00">MenuScreen</text>
<polyline fill="none" stroke="black" points="83,-461 271,-461 "/>
<text text-anchor="start" x="91" y="-449.8" font-family="Arial" font-size="8.00">&#45; backColor : Color</text>
<text text-anchor="start" x="91" y="-439.8" font-family="Arial" font-size="8.00">&#45; pointer : MousePointer</text>
<text text-anchor="start" x="91" y="-429.8" font-family="Arial" font-size="8.00"># LinePoints : List&lt;Vector2&gt;</text>
<text text-anchor="start" x="91" y="-419.8" font-family="Arial" font-size="8.00"># LineWidth : int</text>
<text text-anchor="start" x="91" y="-409.8" font-family="Arial" font-size="8.00">&#45; spriteBatch : SpriteBatch</text>
<polyline fill="none" stroke="black" points="83,-403 271,-403 "/>
<text text-anchor="start" x="91" y="-391.8" font-family="Arial" font-size="8.00">+ MenuScreen (Core.Knot3Game game)</text>
<text text-anchor="start" x="91" y="-381.8" font-family="Arial" font-size="8.00">+ Activate (GameTime time)</text>
<text text-anchor="start" x="91" y="-371.8" font-family="Arial" font-size="8.00">+ Draw (GameTime time)</text>
<text text-anchor="start" x="91" y="-361.8" font-family="Arial" font-size="8.00"># BackgroundColor (ItemState itemState) : Color</text>
<text text-anchor="start" x="91" y="-351.8" font-family="Arial" font-size="8.00"># ForegroundColor (ItemState itemState) : Color</text>
<text text-anchor="start" x="91" y="-341.8" font-family="Arial" font-size="8.00">+ DrawMenu (GameTime time) abstract</text>
<text text-anchor="start" x="91" y="-331.8" font-family="Arial" font-size="8.00">+ UpdateMenu (GameTime time) abstract</text>
<text text-anchor="start" x="91" y="-321.8" font-family="Arial" font-size="8.00">+ Initialize ()</text>
<text text-anchor="start" x="91" y="-311.8" font-family="Arial" font-size="8.00">+ Unload ()</text>
<text text-anchor="start" x="91" y="-301.8" font-family="Arial" font-size="8.00">+ Update (GameTime time)</text>
</g>
<!-- Box_MenuScreen&#45;&gt;Box_OptionScreen -->
<g id="edge2" class="edge"><title>Box_MenuScreen&#45;&gt;Box_OptionScreen</title>
<path fill="none" stroke="midnightblue" d="M177,-284.701C177,-275.312 177,-266.087 177,-257.432"/>
<polygon fill="none" stroke="midnightblue" points="173.5,-284.934 177,-294.934 180.5,-284.934 173.5,-284.934"/>
</g>
<!-- Box_GameScreen -->
<g id="node3" class="node"><title>Box_GameScreen</title>
<polygon fill="#fcfcda" stroke="black" points="-0.5,-516.5 -0.5,-739.5 354.5,-739.5 354.5,-516.5 -0.5,-516.5"/>
<text text-anchor="middle" x="177" y="-728.3" font-family="Arial" font-size="8.00">GameScreen</text>
<polyline fill="none" stroke="black" points="-0.5,-721.5 354.5,-721.5 "/>
<text text-anchor="start" x="7.5" y="-710.3" font-family="Arial" font-size="8.00">+ content : ContentManager</text>
<text text-anchor="start" x="7.5" y="-700.3" font-family="Arial" font-size="8.00">+ NextState : GameScreen</text>
<text text-anchor="start" x="7.5" y="-690.3" font-family="Arial" font-size="8.00">+ device : GraphicsDevice</text>
<text text-anchor="start" x="7.5" y="-680.3" font-family="Arial" font-size="8.00">+ RenderEffects : RenderEffectStack</text>
<text text-anchor="start" x="7.5" y="-670.3" font-family="Arial" font-size="8.00">+ viewport : Viewport</text>
<text text-anchor="start" x="7.5" y="-660.3" font-family="Arial" font-size="8.00">+ graphics : GraphicsDeviceManager</text>
<text text-anchor="start" x="7.5" y="-650.3" font-family="Arial" font-size="8.00">+ input : InputManager</text>
<text text-anchor="start" x="7.5" y="-640.3" font-family="Arial" font-size="8.00">+ game : Knot3Game</text>
<text text-anchor="start" x="7.5" y="-630.3" font-family="Arial" font-size="8.00">+ PostProcessing : RenderEffect</text>
<polyline fill="none" stroke="black" points="-0.5,-623.5 354.5,-623.5 "/>
<text text-anchor="start" x="7.5" y="-612.3" font-family="Arial" font-size="8.00">+ Draw (GameTime time) abstract</text>
<text text-anchor="start" x="7.5" y="-602.3" font-family="Arial" font-size="8.00">+ Initialize () abstract</text>
<text text-anchor="start" x="7.5" y="-592.3" font-family="Arial" font-size="8.00">+ Unload () abstract</text>
<text text-anchor="start" x="7.5" y="-582.3" font-family="Arial" font-size="8.00">+ Activate (GameTime time) virtual</text>
<text text-anchor="start" x="7.5" y="-572.3" font-family="Arial" font-size="8.00">+ GameScreen (Knot3Game game)</text>
<text text-anchor="start" x="7.5" y="-562.3" font-family="Arial" font-size="8.00">+ Update (GameTime time) abstract</text>
<text text-anchor="start" x="7.5" y="-552.3" font-family="Arial" font-size="8.00">+ Deactivate (GameTime time) virtual</text>
<text text-anchor="start" x="7.5" y="-542.3" font-family="Arial" font-size="8.00">+ AddGameComponents (GameTime time, params IGameScreenComponent[] components)</text>
<text text-anchor="start" x="7.5" y="-532.3" font-family="Arial" font-size="8.00">+ RemoveGameComponents (GameTime time, params IGameScreenComponent[] components)</text>
</g>
<!-- Box_GameScreen&#45;&gt;Box_MenuScreen -->
<g id="edge4" class="edge"><title>Box_GameScreen&#45;&gt;Box_MenuScreen</title>
<path fill="none" stroke="midnightblue" d="M177,-506.1C177,-497.044 177,-487.998 177,-479.167"/>
<polygon fill="none" stroke="midnightblue" points="173.5,-506.319 177,-516.319 180.5,-506.319 173.5,-506.319"/>
</g>
</g>
</svg>
