<?xml version="1.0" encoding="UTF-8" standalone="no"?>
<!DOCTYPE svg PUBLIC "-//W3C//DTD SVG 1.1//EN"
 "http://www.w3.org/Graphics/SVG/1.1/DTD/svg11.dtd">
<!-- Generated by graphviz version 2.26.3 (20100126.1600)
 -->
<!-- Title: MenuItem Pages: 1 -->
<svg width="1958pt" height="2225pt"
 viewBox="0.00 0.00 470.00 534.00" xmlns="http://www.w3.org/2000/svg" xmlns:xlink="http://www.w3.org/1999/xlink">
<g id="graph1" class="graph" transform="scale(4.16667 4.16667) rotate(0) translate(4 530)">
<title>MenuItem</title>
<polygon fill="white" stroke="white" points="-4,5 -4,-530 467,-530 467,5 -4,5"/>
<!-- Box_Overlay -->
<g id="node1" class="node"><title>Box_Overlay</title>
<polygon fill="#fcfcda" stroke="black" points="112.5,-1 112.5,-255 441.5,-255 441.5,-1 112.5,-1"/>
<text text-anchor="middle" x="277" y="-243.8" font-family="Arial" font-size="8.00">Overlay</text>
<polyline fill="none" stroke="black" points="112.5,-237 441.5,-237 "/>
<text text-anchor="start" x="120.5" y="-225.8" font-family="Arial" font-size="8.00">&#45; effect : BasicEffect</text>
<text text-anchor="start" x="120.5" y="-215.8" font-family="Arial" font-size="8.00">&#45; _elapsed_time : float</text>
<text text-anchor="start" x="120.5" y="-205.8" font-family="Arial" font-size="8.00">&#45; _fps : int</text>
<text text-anchor="start" x="120.5" y="-195.8" font-family="Arial" font-size="8.00">&#45; World : World</text>
<text text-anchor="start" x="120.5" y="-185.8" font-family="Arial" font-size="8.00">+ HashtableWrapper : class</text>
<text text-anchor="start" x="120.5" y="-175.8" font-family="Arial" font-size="8.00">&#45; _total_frames : int</text>
<text text-anchor="start" x="120.5" y="-165.8" font-family="Arial" font-size="8.00">&#45; spriteBatch : SpriteBatch</text>
<text text-anchor="start" x="120.5" y="-155.8" font-family="Arial" font-size="8.00">&#45; font : SpriteFont</text>
<polyline fill="none" stroke="black" points="112.5,-149 441.5,-149 "/>
<text text-anchor="start" x="120.5" y="-137.8" font-family="Arial" font-size="8.00">&#45; profiler () : Hashtable static</text>
<text text-anchor="start" x="120.5" y="-127.8" font-family="Arial" font-size="8.00">+ Profiler () : HashtableWrapper static</text>
<text text-anchor="start" x="120.5" y="-117.8" font-family="Arial" font-size="8.00">&#45; DrawFPS (GameTime gameTime)</text>
<text text-anchor="start" x="120.5" y="-107.8" font-family="Arial" font-size="8.00">&#45; DrawString (float n, int width, int height, Color color)</text>
<text text-anchor="start" x="120.5" y="-97.8" font-family="Arial" font-size="8.00">&#45; DrawVectorCoordinates (Vector3 vector, int width2, int width3, int width4, int height)</text>
<text text-anchor="start" x="120.5" y="-87.8" font-family="Arial" font-size="8.00">&#45; UpdateFPS (GameTime gameTime)</text>
<text text-anchor="start" x="120.5" y="-77.8" font-family="Arial" font-size="8.00">+ Overlay (GameScreen screen, World world)</text>
<text text-anchor="start" x="120.5" y="-67.8" font-family="Arial" font-size="8.00">+ Draw (GameTime gameTime)</text>
<text text-anchor="start" x="120.5" y="-57.8" font-family="Arial" font-size="8.00">&#45; DrawCoordinates (GameTime gameTime)</text>
<text text-anchor="start" x="120.5" y="-47.8" font-family="Arial" font-size="8.00">&#45; DrawOverlay (GameTime gameTime)</text>
<text text-anchor="start" x="120.5" y="-37.8" font-family="Arial" font-size="8.00">&#45; DrawProfiler (GameTime gameTime)</text>
<text text-anchor="start" x="120.5" y="-27.8" font-family="Arial" font-size="8.00">&#45; DrawString (string str, int width, int height, Color color)</text>
<text text-anchor="start" x="120.5" y="-17.8" font-family="Arial" font-size="8.00"># LoadContent ()</text>
<text text-anchor="start" x="120.5" y="-7.8" font-family="Arial" font-size="8.00">+ Update (GameTime gameTime)</text>
</g>
<!-- Box_DrawableGameScreenComponent -->
<g id="node2" class="node"><title>Box_DrawableGameScreenComponent</title>
<polygon fill="#fcfcda" stroke="black" points="107.5,-293 107.5,-377 446.5,-377 446.5,-293 107.5,-293"/>
<text text-anchor="middle" x="277" y="-365.8" font-family="Arial" font-size="8.00">DrawableGameScreenComponent</text>
<polyline fill="none" stroke="black" points="107.5,-359 446.5,-359 "/>
<text text-anchor="start" x="115.5" y="-347.8" font-family="Arial" font-size="8.00">+ Index : DisplayLayer</text>
<text text-anchor="start" x="115.5" y="-337.8" font-family="Arial" font-size="8.00">&#45; _index : DisplayLayer</text>
<text text-anchor="start" x="115.5" y="-327.8" font-family="Arial" font-size="8.00">+ screen : GameScreen</text>
<polyline fill="none" stroke="black" points="107.5,-321 446.5,-321 "/>
<text text-anchor="start" x="115.5" y="-309.8" font-family="Arial" font-size="8.00">+ DrawableGameScreenComponent (GameScreen screen, DisplayLayer index)</text>
<text text-anchor="start" x="115.5" y="-299.8" font-family="Arial" font-size="8.00">+ SubComponents (GameTime gameTime) : IEnumerable&lt;IGameScreenComponent&gt; virtual</text>
</g>
<!-- Box_DrawableGameScreenComponent&#45;&gt;Box_Overlay -->
<g id="edge2" class="edge"><title>Box_DrawableGameScreenComponent&#45;&gt;Box_Overlay</title>
<path fill="none" stroke="midnightblue" d="M277,-282.657C277,-274.014 277,-264.736 277,-255.172"/>
<polygon fill="none" stroke="midnightblue" points="273.5,-282.861 277,-292.861 280.5,-282.861 273.5,-282.861"/>
</g>
<!-- Box_IGameScreenComponent -->
<g id="node3" class="node"><title>Box_IGameScreenComponent</title>
<polygon fill="#dafcda" stroke="black" points="-0.5,-415 -0.5,-469 314.5,-469 314.5,-415 -0.5,-415"/>
<text text-anchor="middle" x="157" y="-457.8" font-family="Arial" font-size="8.00">IGameScreenComponent</text>
<polyline fill="none" stroke="black" points="-0.5,-451 314.5,-451 "/>
<text text-anchor="start" x="7.5" y="-439.8" font-family="Arial" font-size="8.00">+ Index : DisplayLayer</text>
<polyline fill="none" stroke="black" points="-0.5,-433 314.5,-433 "/>
<text text-anchor="start" x="7.5" y="-421.8" font-family="Arial" font-size="8.00">+ SubComponents (GameTime gameTime) : IEnumerable&lt;IGameScreenComponent&gt;</text>
</g>
<!-- Box_IGameScreenComponent&#45;&gt;Box_DrawableGameScreenComponent -->
<g id="edge6" class="edge"><title>Box_IGameScreenComponent&#45;&gt;Box_DrawableGameScreenComponent</title>
<path fill="none" stroke="midnightblue" d="M195.017,-408.102C205.949,-398.354 218.012,-387.598 229.444,-377.404"/>
<polygon fill="none" stroke="midnightblue" points="192.416,-405.732 187.281,-414.999 197.074,-410.956 192.416,-405.732"/>
</g>
<!-- Box_XnaDrawableGameComponent -->
<g id="node4" class="node"><title>Box_XnaDrawableGameComponent</title>
<polygon fill="#ffffff" stroke="black" points="332,-433 332,-451 462,-451 462,-433 332,-433"/>
<text text-anchor="middle" x="397" y="-439.8" font-family="Arial" font-size="8.00">Xna.DrawableGameComponent</text>
</g>
<!-- Box_XnaDrawableGameComponent&#45;&gt;Box_DrawableGameScreenComponent -->
<g id="edge4" class="edge"><title>Box_XnaDrawableGameComponent&#45;&gt;Box_DrawableGameScreenComponent</title>
<path fill="none" stroke="midnightblue" d="M379.077,-426.018C364.616,-413.124 343.59,-394.376 324.373,-377.241"/>
<polygon fill="none" stroke="midnightblue" points="376.976,-428.834 386.769,-432.877 381.634,-423.61 376.976,-428.834"/>
</g>
<!-- Box_XnaIGameComponent -->
<g id="node5" class="node"><title>Box_XnaIGameComponent</title>
<polygon fill="#ffffff" stroke="black" points="109,-507 109,-525 205,-525 205,-507 109,-507"/>
<text text-anchor="middle" x="157" y="-513.8" font-family="Arial" font-size="8.00">Xna.IGameComponent</text>
</g>
<!-- Box_XnaIGameComponent&#45;&gt;Box_IGameScreenComponent -->
<g id="edge8" class="edge"><title>Box_XnaIGameComponent&#45;&gt;Box_IGameScreenComponent</title>
<path fill="none" stroke="midnightblue" d="M157,-496.64C157,-488.2 157,-478.16 157,-469.004"/>
<polygon fill="none" stroke="midnightblue" points="153.5,-496.926 157,-506.926 160.5,-496.926 153.5,-496.926"/>
</g>
</g>
</svg>
