<?xml version="1.0" encoding="UTF-8" standalone="no"?>
<!DOCTYPE svg PUBLIC "-//W3C//DTD SVG 1.1//EN"
 "http://www.w3.org/Graphics/SVG/1.1/DTD/svg11.dtd">
<!-- Generated by graphviz version 2.26.3 (20100126.1600)
 -->
<!-- Title: MenuItem Pages: 1 -->
<svg width="2442pt" height="2142pt"
 viewBox="0.00 0.00 586.00 514.00" xmlns="http://www.w3.org/2000/svg" xmlns:xlink="http://www.w3.org/1999/xlink">
<g id="graph1" class="graph" transform="scale(4.16667 4.16667) rotate(0) translate(4 510)">
<title>MenuItem</title>
<polygon fill="white" stroke="white" points="-4,5 -4,-510 583,-510 583,5 -4,5"/>
<!-- Box_World -->
<g id="node1" class="node"><title>Box_World</title>
<polygon fill="#fcfcda" stroke="black" points="241.5,-1 241.5,-235 556.5,-235 556.5,-1 241.5,-1"/>
<text text-anchor="middle" x="399" y="-223.8" font-family="Arial" font-size="8.00">World</text>
<polyline fill="none" stroke="black" points="241.5,-217 556.5,-217 "/>
<text text-anchor="start" x="249.5" y="-205.8" font-family="Arial" font-size="8.00">&#45; currentEffect : IRenderEffect</text>
<text text-anchor="start" x="249.5" y="-195.8" font-family="Arial" font-size="8.00">&#45; _redraw : bool</text>
<text text-anchor="start" x="249.5" y="-185.8" font-family="Arial" font-size="8.00">+ SelectedObject : IGameObject</text>
<text text-anchor="start" x="249.5" y="-175.8" font-family="Arial" font-size="8.00">+ Objects : List&lt;IGameObject&gt;</text>
<text text-anchor="start" x="249.5" y="-165.8" font-family="Arial" font-size="8.00">+ Redraw : bool</text>
<text text-anchor="start" x="249.5" y="-155.8" font-family="Arial" font-size="8.00">&#45; _selectedObject : IGameObject</text>
<text text-anchor="start" x="249.5" y="-145.8" font-family="Arial" font-size="8.00">&#45; effects : List&lt;IRenderEffect&gt;</text>
<text text-anchor="start" x="249.5" y="-135.8" font-family="Arial" font-size="8.00">&#45; floor : TexturedRectangle</text>
<text text-anchor="start" x="249.5" y="-125.8" font-family="Arial" font-size="8.00">+ Camera : Camera</text>
<polyline fill="none" stroke="black" points="241.5,-119 556.5,-119 "/>
<text text-anchor="start" x="249.5" y="-107.8" font-family="Arial" font-size="8.00">+ SelectionChanged (o) : Action&lt;IGameObject&gt;</text>
<text text-anchor="start" x="249.5" y="-97.8" font-family="Arial" font-size="8.00">&#45; IEnumerable.GetEnumerator () : IEnumerator</text>
<text text-anchor="start" x="249.5" y="-87.8" font-family="Arial" font-size="8.00">+ World (GameScreen screen)</text>
<text text-anchor="start" x="249.5" y="-77.8" font-family="Arial" font-size="8.00">+ SelectedObjectDistance () : float</text>
<text text-anchor="start" x="249.5" y="-67.8" font-family="Arial" font-size="8.00">+ SubComponents (GameTime gameTime) : IEnumerable&lt;IGameScreenComponent&gt;</text>
<text text-anchor="start" x="249.5" y="-57.8" font-family="Arial" font-size="8.00">+ Draw (GameTime gameTime)</text>
<text text-anchor="start" x="249.5" y="-47.8" font-family="Arial" font-size="8.00">+ Update (GameTime gameTime)</text>
<text text-anchor="start" x="249.5" y="-37.8" font-family="Arial" font-size="8.00">+ Add (IGameObject obj)</text>
<text text-anchor="start" x="249.5" y="-27.8" font-family="Arial" font-size="8.00">+ GetEnumerator () : IEnumerator&lt;IGameObject&gt;</text>
<text text-anchor="start" x="249.5" y="-17.8" font-family="Arial" font-size="8.00">+ Initialize ()</text>
<text text-anchor="start" x="249.5" y="-7.8" font-family="Arial" font-size="8.00">+ SelectObject (IGameObject obj, GameTime gameTime)</text>
</g>
<!-- Box_DrawableGameScreenComponent -->
<g id="node2" class="node"><title>Box_DrawableGameScreenComponent</title>
<polygon fill="#fcfcda" stroke="black" points="107.5,-273 107.5,-357 446.5,-357 446.5,-273 107.5,-273"/>
<text text-anchor="middle" x="277" y="-345.8" font-family="Arial" font-size="8.00">DrawableGameScreenComponent</text>
<polyline fill="none" stroke="black" points="107.5,-339 446.5,-339 "/>
<text text-anchor="start" x="115.5" y="-327.8" font-family="Arial" font-size="8.00">+ Index : DisplayLayer</text>
<text text-anchor="start" x="115.5" y="-317.8" font-family="Arial" font-size="8.00">&#45; _index : DisplayLayer</text>
<text text-anchor="start" x="115.5" y="-307.8" font-family="Arial" font-size="8.00">+ screen : GameScreen</text>
<polyline fill="none" stroke="black" points="107.5,-301 446.5,-301 "/>
<text text-anchor="start" x="115.5" y="-289.8" font-family="Arial" font-size="8.00">+ DrawableGameScreenComponent (GameScreen screen, DisplayLayer index)</text>
<text text-anchor="start" x="115.5" y="-279.8" font-family="Arial" font-size="8.00">+ SubComponents (GameTime gameTime) : IEnumerable&lt;IGameScreenComponent&gt; virtual</text>
</g>
<!-- Box_DrawableGameScreenComponent&#45;&gt;Box_World -->
<g id="edge2" class="edge"><title>Box_DrawableGameScreenComponent&#45;&gt;Box_World</title>
<path fill="none" stroke="midnightblue" d="M308.586,-263.996C314.153,-255.007 320.15,-245.324 326.312,-235.374"/>
<polygon fill="none" stroke="midnightblue" points="305.462,-262.394 303.172,-272.739 311.413,-266.08 305.462,-262.394"/>
</g>
<!-- Box_IGameScreenComponent -->
<g id="node3" class="node"><title>Box_IGameScreenComponent</title>
<polygon fill="#dafcda" stroke="black" points="-0.5,-395 -0.5,-449 314.5,-449 314.5,-395 -0.5,-395"/>
<text text-anchor="middle" x="157" y="-437.8" font-family="Arial" font-size="8.00">IGameScreenComponent</text>
<polyline fill="none" stroke="black" points="-0.5,-431 314.5,-431 "/>
<text text-anchor="start" x="7.5" y="-419.8" font-family="Arial" font-size="8.00">+ Index : DisplayLayer</text>
<polyline fill="none" stroke="black" points="-0.5,-413 314.5,-413 "/>
<text text-anchor="start" x="7.5" y="-401.8" font-family="Arial" font-size="8.00">+ SubComponents (GameTime gameTime) : IEnumerable&lt;IGameScreenComponent&gt;</text>
</g>
<!-- Box_IGameScreenComponent&#45;&gt;Box_DrawableGameScreenComponent -->
<g id="edge8" class="edge"><title>Box_IGameScreenComponent&#45;&gt;Box_DrawableGameScreenComponent</title>
<path fill="none" stroke="midnightblue" d="M195.017,-388.102C205.949,-378.354 218.012,-367.598 229.444,-357.404"/>
<polygon fill="none" stroke="midnightblue" points="192.416,-385.732 187.281,-394.999 197.074,-390.956 192.416,-385.732"/>
</g>
<!-- Box_IEnumerable -->
<g id="node4" class="node"><title>Box_IEnumerable</title>
<polygon fill="#ffffff" stroke="black" points="463.5,-306 463.5,-324 578.5,-324 578.5,-306 463.5,-306"/>
<text text-anchor="middle" x="521" y="-312.8" font-family="Arial" font-size="8.00">IEnumerable&lt;IGameObject&gt;</text>
</g>
<!-- Box_IEnumerable&#45;&gt;Box_World -->
<g id="edge4" class="edge"><title>Box_IEnumerable&#45;&gt;Box_World</title>
<path fill="none" stroke="midnightblue" d="M509.934,-297.131C500.683,-282.194 486.616,-259.478 471.573,-235.188"/>
<polygon fill="none" stroke="midnightblue" points="507.039,-299.104 515.279,-305.763 512.99,-295.418 507.039,-299.104"/>
</g>
<!-- Box_XnaDrawableGameComponent -->
<g id="node5" class="node"><title>Box_XnaDrawableGameComponent</title>
<polygon fill="#ffffff" stroke="black" points="332,-413 332,-431 462,-431 462,-413 332,-413"/>
<text text-anchor="middle" x="397" y="-419.8" font-family="Arial" font-size="8.00">Xna.DrawableGameComponent</text>
</g>
<!-- Box_XnaDrawableGameComponent&#45;&gt;Box_DrawableGameScreenComponent -->
<g id="edge6" class="edge"><title>Box_XnaDrawableGameComponent&#45;&gt;Box_DrawableGameScreenComponent</title>
<path fill="none" stroke="midnightblue" d="M379.077,-406.018C364.616,-393.124 343.59,-374.376 324.373,-357.241"/>
<polygon fill="none" stroke="midnightblue" points="376.976,-408.834 386.769,-412.877 381.634,-403.61 376.976,-408.834"/>
</g>
<!-- Box_XnaIGameComponent -->
<g id="node6" class="node"><title>Box_XnaIGameComponent</title>
<polygon fill="#ffffff" stroke="black" points="109,-487 109,-505 205,-505 205,-487 109,-487"/>
<text text-anchor="middle" x="157" y="-493.8" font-family="Arial" font-size="8.00">Xna.IGameComponent</text>
</g>
<!-- Box_XnaIGameComponent&#45;&gt;Box_IGameScreenComponent -->
<g id="edge10" class="edge"><title>Box_XnaIGameComponent&#45;&gt;Box_IGameScreenComponent</title>
<path fill="none" stroke="midnightblue" d="M157,-476.64C157,-468.2 157,-458.16 157,-449.004"/>
<polygon fill="none" stroke="midnightblue" points="153.5,-476.926 157,-486.926 160.5,-476.926 153.5,-476.926"/>
</g>
</g>
</svg>
