<?xml version="1.0" encoding="UTF-8" standalone="no"?>
<!DOCTYPE svg PUBLIC "-//W3C//DTD SVG 1.1//EN"
 "http://www.w3.org/Graphics/SVG/1.1/DTD/svg11.dtd">
<!-- Generated by graphviz version 2.26.3 (20100126.1600)
 -->
<!-- Title: MenuItem Pages: 1 -->
<svg width="1367pt" height="983pt"
 viewBox="0.00 0.00 328.00 236.00" xmlns="http://www.w3.org/2000/svg" xmlns:xlink="http://www.w3.org/1999/xlink">
<g id="graph1" class="graph" transform="scale(4.16667 4.16667) rotate(0) translate(4 232)">
<title>MenuItem</title>
<polygon fill="white" stroke="white" points="-4,5 -4,-232 325,-232 325,5 -4,5"/>
<!-- Box_FileIO -->
<g id="node1" class="node"><title>Box_FileIO</title>
<polygon fill="#fcfcda" stroke="black" points="-0.5,-173 -0.5,-227 250.5,-227 250.5,-173 -0.5,-173"/>
<text text-anchor="middle" x="125" y="-215.8" font-family="Arial" font-size="8.00">FileIO</text>
<polyline fill="none" stroke="black" points="-0.5,-209 250.5,-209 "/>
<text text-anchor="start" x="7.5" y="-197.8" font-family="Arial" font-size="8.00"># Filename : string</text>
<polyline fill="none" stroke="black" points="-0.5,-191 250.5,-191 "/>
<text text-anchor="start" x="7.5" y="-179.8" font-family="Arial" font-size="8.00">+ ConvertToFilename (string humanReadableName) : string virtual</text>
</g>
<!-- Box_KnotFileIO -->
<g id="node2" class="node"><title>Box_KnotFileIO</title>
<polygon fill="#fcfcda" stroke="black" points="93.5,-1 93.5,-135 320.5,-135 320.5,-1 93.5,-1"/>
<text text-anchor="middle" x="207" y="-123.8" font-family="Arial" font-size="8.00">KnotFileIO</text>
<polyline fill="none" stroke="black" points="93.5,-117 320.5,-117 "/>
<text text-anchor="start" x="101.5" y="-105.8" font-family="Arial" font-size="8.00">+ MetaData : KnotMetaData</text>
<text text-anchor="start" x="101.5" y="-95.8" font-family="Arial" font-size="8.00">+ Name : string</text>
<text text-anchor="start" x="101.5" y="-85.8" font-family="Arial" font-size="8.00">&#45; parser : KnotStringIO</text>
<text text-anchor="start" x="101.5" y="-75.8" font-family="Arial" font-size="8.00">+ Edges : IEnumerable&lt;Edge&gt;</text>
<text text-anchor="start" x="101.5" y="-65.8" font-family="Arial" font-size="8.00">+ FileExtensions : string[] static</text>
<polyline fill="none" stroke="black" points="93.5,-59 320.5,-59 "/>
<text text-anchor="start" x="101.5" y="-47.8" font-family="Arial" font-size="8.00">+ KnotFileIO (Knot knot)</text>
<text text-anchor="start" x="101.5" y="-37.8" font-family="Arial" font-size="8.00">+ Save (Knot knot)</text>
<text text-anchor="start" x="101.5" y="-27.8" font-family="Arial" font-size="8.00">+ KnotFileIO (string filename)</text>
<text text-anchor="start" x="101.5" y="-17.8" font-family="Arial" font-size="8.00">+ ConvertToFilename (string humanReadableName) : string</text>
<text text-anchor="start" x="101.5" y="-7.8" font-family="Arial" font-size="8.00">+ ToString () : string</text>
</g>
<!-- Box_FileIO&#45;&gt;Box_KnotFileIO -->
<g id="edge2" class="edge"><title>Box_FileIO&#45;&gt;Box_KnotFileIO</title>
<path fill="none" stroke="midnightblue" d="M147.202,-164.26C152.836,-155.191 159.074,-145.15 165.332,-135.075"/>
<polygon fill="none" stroke="midnightblue" points="144.096,-162.628 141.792,-172.969 150.042,-166.322 144.096,-162.628"/>
</g>
<!-- Box_IKnotIO -->
<g id="node3" class="node"><title>Box_IKnotIO</title>
<polygon fill="#ffffff" stroke="black" points="268,-191 268,-209 310,-209 310,-191 268,-191"/>
<text text-anchor="middle" x="289" y="-197.8" font-family="Arial" font-size="8.00">IKnotIO</text>
</g>
<!-- Box_IKnotIO&#45;&gt;Box_KnotFileIO -->
<g id="edge4" class="edge"><title>Box_IKnotIO&#45;&gt;Box_KnotFileIO</title>
<path fill="none" stroke="midnightblue" d="M277.917,-182.16C270.231,-169.787 259.466,-152.458 248.642,-135.033"/>
<polygon fill="none" stroke="midnightblue" points="275.114,-184.28 283.364,-190.927 281.06,-180.586 275.114,-184.28"/>
</g>
</g>
</svg>
