<?xml version="1.0" encoding="UTF-8" standalone="no"?>
<!DOCTYPE svg PUBLIC "-//W3C//DTD SVG 1.1//EN"
 "http://www.w3.org/Graphics/SVG/1.1/DTD/svg11.dtd">
<!-- Generated by graphviz version 2.26.3 (20100126.1600)
 -->
<!-- Title: MenuItem Pages: 1 -->
<svg width="2408pt" height="2142pt"
 viewBox="0.00 0.00 578.00 514.00" xmlns="http://www.w3.org/2000/svg" xmlns:xlink="http://www.w3.org/1999/xlink">
<g id="graph1" class="graph" transform="scale(4.16667 4.16667) rotate(0) translate(4 510)">
<title>MenuItem</title>
<polygon fill="white" stroke="white" points="-4,5 -4,-510 575,-510 575,5 -4,5"/>
<!-- Box_World -->
<g id="node1" class="node"><title>Box_World</title>
<polygon fill="#fcfcda" stroke="black" points="238,-1 238,-235 546,-235 546,-1 238,-1"/>
<text text-anchor="middle" x="392" y="-223.8" font-family="Arial" font-size="8.00">World</text>
<polyline fill="none" stroke="black" points="238,-217 546,-217 "/>
<text text-anchor="start" x="246" y="-205.8" font-family="Arial" font-size="8.00">&#45; knotRenderEffect : RenderEffect</text>
<text text-anchor="start" x="246" y="-195.8" font-family="Arial" font-size="8.00">&#45; _redraw : bool</text>
<text text-anchor="start" x="246" y="-185.8" font-family="Arial" font-size="8.00">+ SelectedObject : IGameObject</text>
<text text-anchor="start" x="246" y="-175.8" font-family="Arial" font-size="8.00">+ Objects : List&lt;IGameObject&gt;</text>
<text text-anchor="start" x="246" y="-165.8" font-family="Arial" font-size="8.00">+ Redraw : bool</text>
<text text-anchor="start" x="246" y="-155.8" font-family="Arial" font-size="8.00">&#45; _selectedObject : IGameObject</text>
<text text-anchor="start" x="246" y="-145.8" font-family="Arial" font-size="8.00">&#45; knotRenderEffects : List&lt;RenderEffect&gt;</text>
<text text-anchor="start" x="246" y="-135.8" font-family="Arial" font-size="8.00">&#45; floor : TexturedRectangle</text>
<text text-anchor="start" x="246" y="-125.8" font-family="Arial" font-size="8.00">+ Camera : Camera</text>
<polyline fill="none" stroke="black" points="238,-119 546,-119 "/>
<text text-anchor="start" x="246" y="-107.8" font-family="Arial" font-size="8.00">+ SelectionChanged (o) : Action&lt;IGameObject&gt;</text>
<text text-anchor="start" x="246" y="-97.8" font-family="Arial" font-size="8.00">&#45; IEnumerable.GetEnumerator () : IEnumerator</text>
<text text-anchor="start" x="246" y="-87.8" font-family="Arial" font-size="8.00">+ World (GameState state)</text>
<text text-anchor="start" x="246" y="-77.8" font-family="Arial" font-size="8.00">+ SelectedObjectDistance () : float</text>
<text text-anchor="start" x="246" y="-67.8" font-family="Arial" font-size="8.00">+ SubComponents (GameTime gameTime) : IEnumerable&lt;IGameStateComponent&gt;</text>
<text text-anchor="start" x="246" y="-57.8" font-family="Arial" font-size="8.00">+ Draw (GameTime gameTime)</text>
<text text-anchor="start" x="246" y="-47.8" font-family="Arial" font-size="8.00">+ Update (GameTime gameTime)</text>
<text text-anchor="start" x="246" y="-37.8" font-family="Arial" font-size="8.00">+ Add (IGameObject obj)</text>
<text text-anchor="start" x="246" y="-27.8" font-family="Arial" font-size="8.00">+ GetEnumerator () : IEnumerator&lt;IGameObject&gt;</text>
<text text-anchor="start" x="246" y="-17.8" font-family="Arial" font-size="8.00">+ Initialize ()</text>
<text text-anchor="start" x="246" y="-7.8" font-family="Arial" font-size="8.00">+ SelectObject (IGameObject obj, GameTime gameTime)</text>
</g>
<!-- Box_DrawableGameStateComponent -->
<g id="node2" class="node"><title>Box_DrawableGameStateComponent</title>
<polygon fill="#fcfcda" stroke="black" points="106,-273 106,-357 438,-357 438,-273 106,-273"/>
<text text-anchor="middle" x="272" y="-345.8" font-family="Arial" font-size="8.00">DrawableGameStateComponent</text>
<polyline fill="none" stroke="black" points="106,-339 438,-339 "/>
<text text-anchor="start" x="114" y="-327.8" font-family="Arial" font-size="8.00">+ Index : DisplayLayer</text>
<text text-anchor="start" x="114" y="-317.8" font-family="Arial" font-size="8.00">&#45; _index : DisplayLayer</text>
<text text-anchor="start" x="114" y="-307.8" font-family="Arial" font-size="8.00">+ state : GameState</text>
<polyline fill="none" stroke="black" points="106,-301 438,-301 "/>
<text text-anchor="start" x="114" y="-289.8" font-family="Arial" font-size="8.00">+ DrawableGameStateComponent (GameState state, DisplayLayer index)</text>
<text text-anchor="start" x="114" y="-279.8" font-family="Arial" font-size="8.00">+ SubComponents (GameTime gameTime) : IEnumerable&lt;IGameStateComponent&gt; virtual</text>
</g>
<!-- Box_DrawableGameStateComponent&#45;&gt;Box_World -->
<g id="edge2" class="edge"><title>Box_DrawableGameStateComponent&#45;&gt;Box_World</title>
<path fill="none" stroke="midnightblue" d="M303.068,-263.996C308.544,-255.007 314.442,-245.324 320.503,-235.374"/>
<polygon fill="none" stroke="midnightblue" points="299.956,-262.377 297.743,-272.739 305.934,-266.019 299.956,-262.377"/>
</g>
<!-- Box_IGameStateComponent -->
<g id="node3" class="node"><title>Box_IGameStateComponent</title>
<polygon fill="#dafcda" stroke="black" points="0,-395 0,-449 308,-449 308,-395 0,-395"/>
<text text-anchor="middle" x="154" y="-437.8" font-family="Arial" font-size="8.00">IGameStateComponent</text>
<polyline fill="none" stroke="black" points="0,-431 308,-431 "/>
<text text-anchor="start" x="8" y="-419.8" font-family="Arial" font-size="8.00">+ Index : DisplayLayer</text>
<polyline fill="none" stroke="black" points="0,-413 308,-413 "/>
<text text-anchor="start" x="8" y="-401.8" font-family="Arial" font-size="8.00">+ SubComponents (GameTime gameTime) : IEnumerable&lt;IGameStateComponent&gt;</text>
</g>
<!-- Box_IGameStateComponent&#45;&gt;Box_DrawableGameStateComponent -->
<g id="edge8" class="edge"><title>Box_IGameStateComponent&#45;&gt;Box_DrawableGameStateComponent</title>
<path fill="none" stroke="midnightblue" d="M191.383,-388.102C202.133,-378.354 213.995,-367.598 225.236,-357.404"/>
<polygon fill="none" stroke="midnightblue" points="188.833,-385.689 183.776,-394.999 193.535,-390.875 188.833,-385.689"/>
</g>
<!-- Box_IEnumerable -->
<g id="node4" class="node"><title>Box_IEnumerable</title>
<polygon fill="#ffffff" stroke="black" points="455.5,-306 455.5,-324 570.5,-324 570.5,-306 455.5,-306"/>
<text text-anchor="middle" x="513" y="-312.8" font-family="Arial" font-size="8.00">IEnumerable&lt;IGameObject&gt;</text>
</g>
<!-- Box_IEnumerable&#45;&gt;Box_World -->
<g id="edge4" class="edge"><title>Box_IEnumerable&#45;&gt;Box_World</title>
<path fill="none" stroke="midnightblue" d="M502.025,-297.131C492.85,-282.194 478.897,-259.478 463.978,-235.188"/>
<polygon fill="none" stroke="midnightblue" points="499.11,-299.073 507.326,-305.763 505.075,-295.41 499.11,-299.073"/>
</g>
<!-- Box_XnaDrawableGameComponent -->
<g id="node5" class="node"><title>Box_XnaDrawableGameComponent</title>
<polygon fill="#ffffff" stroke="black" points="326,-413 326,-431 456,-431 456,-413 326,-413"/>
<text text-anchor="middle" x="391" y="-419.8" font-family="Arial" font-size="8.00">Xna.DrawableGameComponent</text>
</g>
<!-- Box_XnaDrawableGameComponent&#45;&gt;Box_DrawableGameStateComponent -->
<g id="edge6" class="edge"><title>Box_XnaDrawableGameComponent&#45;&gt;Box_DrawableGameStateComponent</title>
<path fill="none" stroke="midnightblue" d="M373.226,-406.018C358.886,-393.124 338.035,-374.376 318.979,-357.241"/>
<polygon fill="none" stroke="midnightblue" points="371.078,-408.794 380.854,-412.877 375.758,-403.588 371.078,-408.794"/>
</g>
<!-- Box_XnaIGameComponent -->
<g id="node6" class="node"><title>Box_XnaIGameComponent</title>
<polygon fill="#ffffff" stroke="black" points="106,-487 106,-505 202,-505 202,-487 106,-487"/>
<text text-anchor="middle" x="154" y="-493.8" font-family="Arial" font-size="8.00">Xna.IGameComponent</text>
</g>
<!-- Box_XnaIGameComponent&#45;&gt;Box_IGameStateComponent -->
<g id="edge10" class="edge"><title>Box_XnaIGameComponent&#45;&gt;Box_IGameStateComponent</title>
<path fill="none" stroke="midnightblue" d="M154,-476.64C154,-468.2 154,-458.16 154,-449.004"/>
<polygon fill="none" stroke="midnightblue" points="150.5,-476.926 154,-486.926 157.5,-476.926 150.5,-476.926"/>
</g>
</g>
</svg>
