<?xml version="1.0" encoding="UTF-8" standalone="no"?>
<!DOCTYPE svg PUBLIC "-//W3C//DTD SVG 1.1//EN"
 "http://www.w3.org/Graphics/SVG/1.1/DTD/svg11.dtd">
<!-- Generated by graphviz version 2.26.3 (20100126.1600)
 -->
<!-- Title: MenuItem Pages: 1 -->
<svg width="792pt" height="1000pt"
 viewBox="0.00 0.00 190.00 240.00" xmlns="http://www.w3.org/2000/svg" xmlns:xlink="http://www.w3.org/1999/xlink">
<g id="graph1" class="graph" transform="scale(4.16667 4.16667) rotate(0) translate(4 236)">
<title>MenuItem</title>
<polygon fill="white" stroke="white" points="-4,5 -4,-236 187,-236 187,5 -4,5"/>
<!-- Box_Circle -->
<g id="node1" class="node"><title>Box_Circle</title>
<polygon fill="#fcfcda" stroke="black" points="0,-1 0,-175 182,-175 182,-1 0,-1"/>
<text text-anchor="middle" x="91" y="-163.8" font-family="Arial" font-size="8.00">Circle&lt;T&gt;</text>
<polyline fill="none" stroke="black" points="0,-157 182,-157 "/>
<text text-anchor="start" x="8" y="-145.8" font-family="Arial" font-size="8.00">+ Next : Circle&lt;T&gt;</text>
<text text-anchor="start" x="8" y="-135.8" font-family="Arial" font-size="8.00">+ Previous : Circle&lt;T&gt;</text>
<text text-anchor="start" x="8" y="-125.8" font-family="Arial" font-size="8.00">+ Content : T</text>
<text text-anchor="start" x="8" y="-115.8" font-family="Arial" font-size="8.00">+ Count : int</text>
<polyline fill="none" stroke="black" points="0,-109 182,-109 "/>
<text text-anchor="start" x="8" y="-97.8" font-family="Arial" font-size="8.00">+ InsertBefore (T obj) : Circle&lt;T&gt;</text>
<text text-anchor="start" x="8" y="-87.8" font-family="Arial" font-size="8.00">+ Contains (T obj, out Circle&lt;T&gt; item) : bool</text>
<text text-anchor="start" x="8" y="-77.8" font-family="Arial" font-size="8.00">&#45; IEnumerable.GetEnumerator () : IEnumerator</text>
<text text-anchor="start" x="8" y="-67.8" font-family="Arial" font-size="8.00">+ Circle (IEnumerable&lt;T&gt; list)</text>
<text text-anchor="start" x="8" y="-57.8" font-family="Arial" font-size="8.00">+ Circle (T content)</text>
<text text-anchor="start" x="8" y="-47.8" font-family="Arial" font-size="8.00">+ Find (T obj) : Circle&lt;T&gt;</text>
<text text-anchor="start" x="8" y="-37.8" font-family="Arial" font-size="8.00">+ InsertAfter (T obj) : Circle&lt;T&gt;</text>
<text text-anchor="start" x="8" y="-27.8" font-family="Arial" font-size="8.00">+ RangeTo (Circle&lt;T&gt; other) : IEnumerable&lt;T&gt;</text>
<text text-anchor="start" x="8" y="-17.8" font-family="Arial" font-size="8.00">+ GetEnumerator () : IEnumerator&lt;T&gt;</text>
<text text-anchor="start" x="8" y="-7.8" font-family="Arial" font-size="8.00">+ Remove ()</text>
</g>
<!-- Box_IEnumerable -->
<g id="node2" class="node"><title>Box_IEnumerable</title>
<polygon fill="#ffffff" stroke="black" points="54,-213 54,-231 128,-231 128,-213 54,-213"/>
<text text-anchor="middle" x="91" y="-219.8" font-family="Arial" font-size="8.00">IEnumerable&lt;T&gt;</text>
</g>
<!-- Box_IEnumerable&#45;&gt;Box_Circle -->
<g id="edge2" class="edge"><title>Box_IEnumerable&#45;&gt;Box_Circle</title>
<path fill="none" stroke="midnightblue" d="M91,-202.541C91,-194.819 91,-185.359 91,-175.217"/>
<polygon fill="none" stroke="midnightblue" points="87.5001,-202.79 91,-212.79 94.5001,-202.79 87.5001,-202.79"/>
</g>
</g>
</svg>
