<?xml version="1.0" encoding="UTF-8" standalone="no"?>
<!DOCTYPE svg PUBLIC "-//W3C//DTD SVG 1.1//EN"
 "http://www.w3.org/Graphics/SVG/1.1/DTD/svg11.dtd">
<!-- Generated by graphviz version 2.26.3 (20100126.1600)
 -->
<!-- Title: MenuItem Pages: 1 -->
<svg width="792pt" height="916pt"
 viewBox="0.00 0.00 792.00 916.00" xmlns="http://www.w3.org/2000/svg" xmlns:xlink="http://www.w3.org/1999/xlink">
<g id="graph1" class="graph" transform="scale(1 1) rotate(0) translate(4 912)">
<title>MenuItem</title>
<polygon fill="white" stroke="white" points="-4,5 -4,-912 789,-912 789,5 -4,5"/>
<!-- Box_ItemWidget -->
<g id="node1" class="node"><title>Box_ItemWidget</title>
<polygon fill="#fcfcda" stroke="black" points="416,-434.5 416,-507.5 760,-507.5 760,-434.5 416,-434.5"/>
<text text-anchor="middle" x="588" y="-496.3" font-family="Arial" font-size="8.00">ItemWidget</text>
<polyline fill="none" stroke="black" points="416,-489.5 760,-489.5 "/>
<text text-anchor="start" x="424" y="-478.3" font-family="Arial" font-size="8.00">+ ItemState : ItemState</text>
<text text-anchor="start" x="424" y="-468.3" font-family="Arial" font-size="8.00"># ItemNum : int</text>
<polyline fill="none" stroke="black" points="416,-461.5 760,-461.5 "/>
<text text-anchor="start" x="424" y="-450.3" font-family="Arial" font-size="8.00">+ ItemWidget (GameScreen screen, WidgetInfo info, DisplayLayer drawOrder, int itemNum)</text>
</g>
<!-- Box_MenuItem -->
<g id="node5" class="node"><title>Box_MenuItem</title>
<polygon fill="#fcfcda" stroke="black" points="192.5,-203 192.5,-397 521.5,-397 521.5,-203 192.5,-203"/>
<text text-anchor="middle" x="357" y="-385.8" font-family="Arial" font-size="8.00">MenuItem</text>
<polyline fill="none" stroke="black" points="192.5,-379 521.5,-379 "/>
<text text-anchor="start" x="200.5" y="-367.8" font-family="Arial" font-size="8.00"># spriteBatch : SpriteBatch</text>
<text text-anchor="start" x="200.5" y="-357.8" font-family="Arial" font-size="8.00">+ IsMouseEventEnabled : bool</text>
<text text-anchor="start" x="200.5" y="-347.8" font-family="Arial" font-size="8.00">+ ValidKeys : List&lt;Keys&gt;</text>
<text text-anchor="start" x="200.5" y="-337.8" font-family="Arial" font-size="8.00">+ IsKeyEventEnabled : bool</text>
<text text-anchor="start" x="200.5" y="-327.8" font-family="Arial" font-size="8.00">+ Info : MenuItemInfo</text>
<polyline fill="none" stroke="black" points="192.5,-321 521.5,-321 "/>
<text text-anchor="start" x="200.5" y="-309.8" font-family="Arial" font-size="8.00">+ MenuItem (GameScreen screen, DisplayLayer drawOrder, int itemNum, MenuItemInfo</text>
<text text-anchor="start" x="200.5" y="-299.8" font-family="Arial" font-size="8.00">info)</text>
<text text-anchor="start" x="200.5" y="-289.8" font-family="Arial" font-size="8.00">+ Collapse () virtual</text>
<text text-anchor="start" x="200.5" y="-279.8" font-family="Arial" font-size="8.00">+ OnKeyEvent (List&lt;Keys&gt; key, KeyEvent keyEvent, GameTime time)</text>
<text text-anchor="start" x="200.5" y="-269.8" font-family="Arial" font-size="8.00">+ OnLeftClick (Vector2 position, ClickState click, GameTime time)</text>
<text text-anchor="start" x="200.5" y="-259.8" font-family="Arial" font-size="8.00">+ OnRightClick (Vector2 position, ClickState click, GameTime time)</text>
<text text-anchor="start" x="200.5" y="-249.8" font-family="Arial" font-size="8.00">+ MinimumSize (SpriteFont font) : Vector2</text>
<text text-anchor="start" x="200.5" y="-239.8" font-family="Arial" font-size="8.00">+ TextPosition (SpriteFont font) : Vector2</text>
<text text-anchor="start" x="200.5" y="-229.8" font-family="Arial" font-size="8.00">+ TextPosition (SpriteFont font, Vector2 scale) : Vector2</text>
<text text-anchor="start" x="200.5" y="-219.8" font-family="Arial" font-size="8.00">+ Draw (GameTime time)</text>
<text text-anchor="start" x="200.5" y="-209.8" font-family="Arial" font-size="8.00">+ SetHovered (bool hovered)</text>
</g>
<!-- Box_ItemWidget&#45;&gt;Box_MenuItem -->
<g id="edge12" class="edge"><title>Box_ItemWidget&#45;&gt;Box_MenuItem</title>
<path fill="none" stroke="midnightblue" d="M530.089,-428.131C517.07,-418.493 502.74,-407.885 488.068,-397.024"/>
<polygon fill="none" stroke="midnightblue" points="528.325,-431.179 538.445,-434.316 532.49,-425.553 528.325,-431.179"/>
</g>
<!-- Box_Widget -->
<g id="node2" class="node"><title>Box_Widget</title>
<polygon fill="#fcfcda" stroke="black" points="446,-545 446,-619 730,-619 730,-545 446,-545"/>
<text text-anchor="middle" x="588" y="-607.8" font-family="Arial" font-size="8.00">Widget</text>
<polyline fill="none" stroke="black" points="446,-601 730,-601 "/>
<text text-anchor="start" x="454" y="-589.8" font-family="Arial" font-size="8.00">+ Info : WidgetInfo</text>
<text text-anchor="start" x="454" y="-579.8" font-family="Arial" font-size="8.00">+ IsVisible : bool virtual</text>
<polyline fill="none" stroke="black" points="446,-573 730,-573 "/>
<text text-anchor="start" x="454" y="-561.8" font-family="Arial" font-size="8.00">+ bounds () : Rectangle</text>
<text text-anchor="start" x="454" y="-551.8" font-family="Arial" font-size="8.00">+ Widget (GameScreen screen, WidgetInfo info, DisplayLayer drawOrder)</text>
</g>
<!-- Box_Widget&#45;&gt;Box_ItemWidget -->
<g id="edge2" class="edge"><title>Box_Widget&#45;&gt;Box_ItemWidget</title>
<path fill="none" stroke="midnightblue" d="M588,-534.681C588,-525.622 588,-516.266 588,-507.606"/>
<polygon fill="none" stroke="midnightblue" points="584.5,-534.73 588,-544.73 591.5,-534.73 584.5,-534.73"/>
</g>
<!-- Box_DrawableGameScreenComponent -->
<g id="node3" class="node"><title>Box_DrawableGameScreenComponent</title>
<polygon fill="#fcfcda" stroke="black" points="429.5,-657 429.5,-741 746.5,-741 746.5,-657 429.5,-657"/>
<text text-anchor="middle" x="588" y="-729.8" font-family="Arial" font-size="8.00">DrawableGameScreenComponent</text>
<polyline fill="none" stroke="black" points="429.5,-723 746.5,-723 "/>
<text text-anchor="start" x="437.5" y="-711.8" font-family="Arial" font-size="8.00">+ Index : DisplayLayer</text>
<text text-anchor="start" x="437.5" y="-701.8" font-family="Arial" font-size="8.00">&#45; _index : DisplayLayer</text>
<text text-anchor="start" x="437.5" y="-691.8" font-family="Arial" font-size="8.00">+ screen : GameScreen</text>
<polyline fill="none" stroke="black" points="429.5,-685 746.5,-685 "/>
<text text-anchor="start" x="437.5" y="-673.8" font-family="Arial" font-size="8.00">+ DrawableGameScreenComponent (GameScreen screen, DisplayLayer index)</text>
<text text-anchor="start" x="437.5" y="-663.8" font-family="Arial" font-size="8.00">+ SubComponents (GameTime time) : IEnumerable&lt;IGameScreenComponent&gt; virtual</text>
</g>
<!-- Box_DrawableGameScreenComponent&#45;&gt;Box_Widget -->
<g id="edge4" class="edge"><title>Box_DrawableGameScreenComponent&#45;&gt;Box_Widget</title>
<path fill="none" stroke="midnightblue" d="M588,-646.482C588,-637.258 588,-627.834 588,-619.14"/>
<polygon fill="none" stroke="midnightblue" points="584.5,-646.76 588,-656.76 591.5,-646.76 584.5,-646.76"/>
</g>
<!-- Box_IGameScreenComponent -->
<g id="node4" class="node"><title>Box_IGameScreenComponent</title>
<polygon fill="#dafcda" stroke="black" points="326.5,-779 326.5,-833 619.5,-833 619.5,-779 326.5,-779"/>
<text text-anchor="middle" x="473" y="-821.8" font-family="Arial" font-size="8.00">IGameScreenComponent</text>
<polyline fill="none" stroke="black" points="326.5,-815 619.5,-815 "/>
<text text-anchor="start" x="334.5" y="-803.8" font-family="Arial" font-size="8.00">+ Index : DisplayLayer</text>
<polyline fill="none" stroke="black" points="326.5,-797 619.5,-797 "/>
<text text-anchor="start" x="334.5" y="-785.8" font-family="Arial" font-size="8.00">+ SubComponents (GameTime time) : IEnumerable&lt;IGameScreenComponent&gt;</text>
</g>
<!-- Box_IGameScreenComponent&#45;&gt;Box_DrawableGameScreenComponent -->
<g id="edge8" class="edge"><title>Box_IGameScreenComponent&#45;&gt;Box_DrawableGameScreenComponent</title>
<path fill="none" stroke="midnightblue" d="M509.433,-772.102C519.91,-762.354 531.469,-751.598 542.425,-741.404"/>
<polygon fill="none" stroke="midnightblue" points="506.956,-769.625 502.019,-778.999 511.725,-774.75 506.956,-769.625"/>
</g>
<!-- Box_DropDownMenu -->
<g id="node6" class="node"><title>Box_DropDownMenu</title>
<polygon fill="#fcfcda" stroke="black" points="-0.5,-1 -0.5,-165 352.5,-165 352.5,-1 -0.5,-1"/>
<text text-anchor="middle" x="176" y="-153.8" font-family="Arial" font-size="8.00">DropDownMenu</text>
<polyline fill="none" stroke="black" points="-0.5,-147 352.5,-147 "/>
<text text-anchor="start" x="7.5" y="-135.8" font-family="Arial" font-size="8.00">&#45; selected : MenuButton</text>
<text text-anchor="start" x="7.5" y="-125.8" font-family="Arial" font-size="8.00">&#45; dropdown : VerticalMenu</text>
<polyline fill="none" stroke="black" points="-0.5,-119 352.5,-119 "/>
<text text-anchor="start" x="7.5" y="-107.8" font-family="Arial" font-size="8.00">&#45; ValuePosition (int dummy) : Vector2</text>
<text text-anchor="start" x="7.5" y="-97.8" font-family="Arial" font-size="8.00">+ DropDownMenu (GameScreen screen, DisplayLayer drawOrder, int itemNum, MenuItemInfo</text>
<text text-anchor="start" x="7.5" y="-87.8" font-family="Arial" font-size="8.00">info)</text>
<text text-anchor="start" x="7.5" y="-77.8" font-family="Arial" font-size="8.00">&#45; DropDownBackgroundColor (ItemState itemState) : Color</text>
<text text-anchor="start" x="7.5" y="-67.8" font-family="Arial" font-size="8.00">&#45; DropDownForegroundColor (ItemState itemState) : Color</text>
<text text-anchor="start" x="7.5" y="-57.8" font-family="Arial" font-size="8.00">&#45; ValueSize (int dummy) : Vector2</text>
<text text-anchor="start" x="7.5" y="-47.8" font-family="Arial" font-size="8.00">+ SubComponents (GameTime time) : IEnumerable&lt;IGameScreenComponent&gt;</text>
<text text-anchor="start" x="7.5" y="-37.8" font-family="Arial" font-size="8.00">+ Collapse ()</text>
<text text-anchor="start" x="7.5" y="-27.8" font-family="Arial" font-size="8.00">+ Draw (GameTime time)</text>
<text text-anchor="start" x="7.5" y="-17.8" font-family="Arial" font-size="8.00">+ AddEntries (DistinctOptionInfo option)</text>
<text text-anchor="start" x="7.5" y="-7.8" font-family="Arial" font-size="8.00">+ AddEntries (DropDownMenuItem[] entries, DropDownMenuItem defaultEntry)</text>
</g>
<!-- Box_MenuItem&#45;&gt;Box_DropDownMenu -->
<g id="edge18" class="edge"><title>Box_MenuItem&#45;&gt;Box_DropDownMenu</title>
<path fill="none" stroke="midnightblue" d="M269.588,-195.203C261.15,-185.086 252.676,-174.927 244.461,-165.077"/>
<polygon fill="none" stroke="midnightblue" points="266.936,-197.487 276.029,-202.925 272.312,-193.003 266.936,-197.487"/>
</g>
<!-- Box_MenuButton -->
<g id="node7" class="node"><title>Box_MenuButton</title>
<polygon fill="#fcfcda" stroke="black" points="370,-51 370,-115 708,-115 708,-51 370,-51"/>
<text text-anchor="middle" x="539" y="-103.8" font-family="Arial" font-size="8.00">MenuButton</text>
<polyline fill="none" stroke="black" points="370,-97 708,-97 "/>
<text text-anchor="middle" x="539" y="-85.8" font-family="Arial" font-size="8.00"> </text>
<polyline fill="none" stroke="black" points="370,-79 708,-79 "/>
<text text-anchor="start" x="378" y="-67.8" font-family="Arial" font-size="8.00">+ MenuButton (GameScreen screen, DisplayLayer drawOrder, int itemNum, MenuItemInfo</text>
<text text-anchor="start" x="378" y="-57.8" font-family="Arial" font-size="8.00">info)</text>
</g>
<!-- Box_MenuItem&#45;&gt;Box_MenuButton -->
<g id="edge20" class="edge"><title>Box_MenuItem&#45;&gt;Box_MenuButton</title>
<path fill="none" stroke="midnightblue" d="M444.957,-195.128C469.392,-165.994 494.121,-136.51 512.084,-115.092"/>
<polygon fill="none" stroke="midnightblue" points="442.163,-193.013 438.418,-202.925 447.526,-197.512 442.163,-193.013"/>
</g>
<!-- Box_XnaDrawableGameComponent -->
<g id="node8" class="node"><title>Box_XnaDrawableGameComponent</title>
<polygon fill="#ffffff" stroke="black" points="540,-880 540,-898 670,-898 670,-880 540,-880"/>
<text text-anchor="middle" x="605" y="-886.8" font-family="Arial" font-size="8.00">Xna.DrawableGameComponent</text>
</g>
<!-- Box_XnaIGameComponent -->
<g id="node9" class="node"><title>Box_XnaIGameComponent</title>
<polygon fill="#ffffff" stroke="black" points="688,-880 688,-898 784,-898 784,-880 688,-880"/>
<text text-anchor="middle" x="736" y="-886.8" font-family="Arial" font-size="8.00">Xna.IGameComponent</text>
</g>
<!-- Box_IMouseEventListener -->
<g id="node10" class="node"><title>Box_IMouseEventListener</title>
<polygon fill="#ffffff" stroke="black" points="206,-462 206,-480 298,-480 298,-462 206,-462"/>
<text text-anchor="middle" x="252" y="-468.8" font-family="Arial" font-size="8.00">IMouseEventListener</text>
</g>
<!-- Box_IMouseEventListener&#45;&gt;Box_MenuItem -->
<g id="edge14" class="edge"><title>Box_IMouseEventListener&#45;&gt;Box_MenuItem</title>
<path fill="none" stroke="midnightblue" d="M263.115,-452.898C271.663,-438.978 284.203,-418.555 297.353,-397.139"/>
<polygon fill="none" stroke="midnightblue" points="259.895,-451.453 257.645,-461.806 265.861,-455.116 259.895,-451.453"/>
</g>
<!-- Box_IKeyEventListener -->
<g id="node11" class="node"><title>Box_IKeyEventListener</title>
<polygon fill="#ffffff" stroke="black" points="316,-462 316,-480 398,-480 398,-462 316,-462"/>
<text text-anchor="middle" x="357" y="-468.8" font-family="Arial" font-size="8.00">IKeyEventListener</text>
</g>
<!-- Box_IKeyEventListener&#45;&gt;Box_MenuItem -->
<g id="edge16" class="edge"><title>Box_IKeyEventListener&#45;&gt;Box_MenuItem</title>
<path fill="none" stroke="midnightblue" d="M357,-451.666C357,-437.788 357,-417.931 357,-397.139"/>
<polygon fill="none" stroke="midnightblue" points="353.5,-451.806 357,-461.806 360.5,-451.806 353.5,-451.806"/>
</g>
<!-- Box_DrawableGameComponent -->
<g id="node14" class="node"><title>Box_DrawableGameComponent</title>
<polygon fill="none" stroke="black" points="637,-788 637,-824 769,-824 769,-788 637,-788"/>
<text text-anchor="middle" x="703" y="-803.8" font-family="Arial" font-size="8.00">Box_DrawableGameComponent</text>
</g>
<!-- Box_DrawableGameComponent&#45;&gt;Box_DrawableGameScreenComponent -->
<g id="edge6" class="edge"><title>Box_DrawableGameComponent&#45;&gt;Box_DrawableGameScreenComponent</title>
<path fill="none" stroke="midnightblue" d="M675.993,-780.871C663.316,-769.076 647.857,-754.693 633.454,-741.292"/>
<polygon fill="none" stroke="midnightblue" points="673.787,-783.599 683.492,-787.849 678.555,-778.475 673.787,-783.599"/>
</g>
<!-- Box_IGameComponent -->
<g id="node17" class="node"><title>Box_IGameComponent</title>
<polygon fill="none" stroke="black" points="424,-871 424,-907 522,-907 522,-871 424,-871"/>
<text text-anchor="middle" x="473" y="-886.8" font-family="Arial" font-size="8.00">Box_IGameComponent</text>
</g>
<!-- Box_IGameComponent&#45;&gt;Box_IGameScreenComponent -->
<g id="edge10" class="edge"><title>Box_IGameComponent&#45;&gt;Box_IGameScreenComponent</title>
<path fill="none" stroke="midnightblue" d="M473,-860.987C473,-851.995 473,-842.055 473,-833.127"/>
<polygon fill="none" stroke="midnightblue" points="469.5,-860.99 473,-870.99 476.5,-860.99 469.5,-860.99"/>
</g>
</g>
</svg>
