<?xml version="1.0" encoding="UTF-8" standalone="no"?>
<!DOCTYPE svg PUBLIC "-//W3C//DTD SVG 1.1//EN"
 "http://www.w3.org/Graphics/SVG/1.1/DTD/svg11.dtd">
<!-- Generated by graphviz version 2.26.3 (20100126.1600)
 -->
<!-- Title: MenuItem Pages: 1 -->
<svg width="652pt" height="674pt"
 viewBox="0.00 0.00 652.00 674.00" xmlns="http://www.w3.org/2000/svg" xmlns:xlink="http://www.w3.org/1999/xlink">
<g id="graph1" class="graph" transform="scale(1 1) rotate(0) translate(4 670)">
<title>MenuItem</title>
<polygon fill="white" stroke="white" points="-4,5 -4,-670 649,-670 649,5 -4,5"/>
<!-- Box_GameStateComponent -->
<g id="node1" class="node"><title>Box_GameStateComponent</title>
<polygon fill="#fcfcda" stroke="black" points="303.5,-413 303.5,-509 644.5,-509 644.5,-413 303.5,-413"/>
<text text-anchor="middle" x="474" y="-497.8" font-family="Helvetica,sans-Serif" font-size="8.00">GameStateComponent</text>
<polyline fill="none" stroke="black" points="303.5,-489 644.5,-489 "/>
<text text-anchor="start" x="311.5" y="-477.8" font-family="Helvetica,sans-Serif" font-size="8.00"># InputOrder : DisplayLayer</text>
<text text-anchor="start" x="311.5" y="-465.8" font-family="Helvetica,sans-Serif" font-size="8.00">+ state : GameState</text>
<text text-anchor="start" x="311.5" y="-453.8" font-family="Helvetica,sans-Serif" font-size="8.00">+ Index : int</text>
<polyline fill="none" stroke="black" points="303.5,-445 644.5,-445 "/>
<text text-anchor="start" x="311.5" y="-433.8" font-family="Helvetica,sans-Serif" font-size="8.00">+ GameStateComponent (GameState state, DisplayLayer inputOrder)</text>
<text text-anchor="start" x="311.5" y="-421.8" font-family="Helvetica,sans-Serif" font-size="8.00">+ SubComponents (GameTime gameTime) : IEnumerable&lt;IGameStateComponent&gt; virtual</text>
</g>
<!-- Box_Input -->
<g id="node5" class="node"><title>Box_Input</title>
<polygon fill="#fcfcda" stroke="black" points="165,-99 165,-375 451,-375 451,-99 165,-99"/>
<text text-anchor="middle" x="308" y="-363.8" font-family="Helvetica,sans-Serif" font-size="8.00">Input</text>
<polyline fill="none" stroke="black" points="165,-355 451,-355 "/>
<text text-anchor="start" x="173" y="-343.8" font-family="Helvetica,sans-Serif" font-size="8.00"># FullscreenToggled : bool static</text>
<text text-anchor="start" x="173" y="-331.8" font-family="Helvetica,sans-Serif" font-size="8.00">+ PreviousKeyboardState : KeyboardState static</text>
<text text-anchor="start" x="173" y="-319.8" font-family="Helvetica,sans-Serif" font-size="8.00">+ PreviousMouseState : MouseState static</text>
<text text-anchor="start" x="173" y="-307.8" font-family="Helvetica,sans-Serif" font-size="8.00">&#45; LeftButtonClickTimer : double static</text>
<text text-anchor="start" x="173" y="-295.8" font-family="Helvetica,sans-Serif" font-size="8.00">&#45; RightButtonClickTimer : double static</text>
<text text-anchor="start" x="173" y="-283.8" font-family="Helvetica,sans-Serif" font-size="8.00">&#45; PreviousClickMouseState : MouseState static</text>
<text text-anchor="start" x="173" y="-271.8" font-family="Helvetica,sans-Serif" font-size="8.00">+ LeftButton : ClickState static</text>
<text text-anchor="start" x="173" y="-259.8" font-family="Helvetica,sans-Serif" font-size="8.00">+ RightButton : ClickState static</text>
<text text-anchor="start" x="173" y="-247.8" font-family="Helvetica,sans-Serif" font-size="8.00">+ GrabMouseMovement : bool</text>
<text text-anchor="start" x="173" y="-235.8" font-family="Helvetica,sans-Serif" font-size="8.00">+ CurrentInputAction : InputAction</text>
<text text-anchor="start" x="173" y="-223.8" font-family="Helvetica,sans-Serif" font-size="8.00">+ WASDMode : WASDMode</text>
<text text-anchor="start" x="173" y="-211.8" font-family="Helvetica,sans-Serif" font-size="8.00">+ ValidKeys : List&lt;Keys&gt;</text>
<text text-anchor="start" x="173" y="-199.8" font-family="Helvetica,sans-Serif" font-size="8.00">+ IsKeyEventEnabled : bool</text>
<text text-anchor="start" x="173" y="-187.8" font-family="Helvetica,sans-Serif" font-size="8.00">+ MouseState : MouseState static</text>
<text text-anchor="start" x="173" y="-175.8" font-family="Helvetica,sans-Serif" font-size="8.00">+ KeyboardState : KeyboardState static</text>
<polyline fill="none" stroke="black" points="165,-167 451,-167 "/>
<text text-anchor="start" x="173" y="-155.8" font-family="Helvetica,sans-Serif" font-size="8.00">+ Input (GameState state)</text>
<text text-anchor="start" x="173" y="-143.8" font-family="Helvetica,sans-Serif" font-size="8.00">+ Update (GameTime gameTime) override</text>
<text text-anchor="start" x="173" y="-131.8" font-family="Helvetica,sans-Serif" font-size="8.00"># UpdateKeys (GameTime gameTime) virtual</text>
<text text-anchor="start" x="173" y="-119.8" font-family="Helvetica,sans-Serif" font-size="8.00"># UpdateMouse (GameTime gameTime) virtual</text>
<text text-anchor="start" x="173" y="-107.8" font-family="Helvetica,sans-Serif" font-size="8.00">+ OnKeyEvent (List&lt;Keys&gt; key, KeyEvent keyEvent, GameTime gameTime)</text>
</g>
<!-- Box_GameStateComponent&#45;&gt;Box_Input -->
<g id="edge10" class="edge"><title>Box_GameStateComponent&#45;&gt;Box_Input</title>
<path fill="none" stroke="midnightblue" d="M432.271,-404.692C425.449,-395.486 418.128,-385.606 410.577,-375.418"/>
<polygon fill="none" stroke="midnightblue" points="429.623,-406.996 438.389,-412.946 435.247,-402.828 429.623,-406.996"/>
</g>
<!-- Box_IGameStateComponent -->
<g id="node2" class="node"><title>Box_IGameStateComponent</title>
<polygon fill="#dafcda" stroke="black" points="202,-547 202,-607 520,-607 520,-547 202,-547"/>
<text text-anchor="middle" x="361" y="-595.8" font-family="Helvetica,sans-Serif" font-size="8.00">IGameStateComponent</text>
<polyline fill="none" stroke="black" points="202,-587 520,-587 "/>
<text text-anchor="start" x="210" y="-575.8" font-family="Helvetica,sans-Serif" font-size="8.00">+ Index : int</text>
<polyline fill="none" stroke="black" points="202,-567 520,-567 "/>
<text text-anchor="start" x="210" y="-555.8" font-family="Helvetica,sans-Serif" font-size="8.00">+ SubComponents (GameTime gameTime) : IEnumerable&lt;IGameStateComponent&gt;</text>
</g>
<!-- Box_IGameStateComponent&#45;&gt;Box_GameStateComponent -->
<g id="edge4" class="edge"><title>Box_IGameStateComponent&#45;&gt;Box_GameStateComponent</title>
<path fill="none" stroke="midnightblue" d="M397.46,-539.572C406.948,-529.833 417.301,-519.204 427.241,-509.001"/>
<polygon fill="none" stroke="midnightblue" points="394.865,-537.22 390.394,-546.825 399.879,-542.104 394.865,-537.22"/>
</g>
<!-- Box_IKeyEventListener -->
<g id="node3" class="node"><title>Box_IKeyEventListener</title>
<polygon fill="#dafcda" stroke="black" points="0,-419 0,-503 286,-503 286,-419 0,-419"/>
<text text-anchor="middle" x="143" y="-491.8" font-family="Helvetica,sans-Serif" font-size="8.00">IKeyEventListener</text>
<polyline fill="none" stroke="black" points="0,-483 286,-483 "/>
<text text-anchor="start" x="8" y="-471.8" font-family="Helvetica,sans-Serif" font-size="8.00">+ ValidKeys : List&lt;Keys&gt;</text>
<text text-anchor="start" x="8" y="-459.8" font-family="Helvetica,sans-Serif" font-size="8.00">+ Index : int</text>
<text text-anchor="start" x="8" y="-447.8" font-family="Helvetica,sans-Serif" font-size="8.00">+ IsKeyEventEnabled : bool</text>
<polyline fill="none" stroke="black" points="0,-439 286,-439 "/>
<text text-anchor="start" x="8" y="-427.8" font-family="Helvetica,sans-Serif" font-size="8.00">+ OnKeyEvent (List&lt;Keys&gt; key, KeyEvent keyEvent, GameTime gameTime)</text>
</g>
<!-- Box_IKeyEventListener&#45;&gt;Box_Input -->
<g id="edge12" class="edge"><title>Box_IKeyEventListener&#45;&gt;Box_Input</title>
<path fill="none" stroke="midnightblue" d="M180.018,-410.745C188.066,-399.819 196.955,-387.752 206.185,-375.221"/>
<polygon fill="none" stroke="midnightblue" points="177.148,-408.74 174.035,-418.867 182.784,-412.892 177.148,-408.74"/>
</g>
<!-- Box_MenuScreenInput -->
<g id="node4" class="node"><title>Box_MenuScreenInput</title>
<polygon fill="#fcfcda" stroke="black" points="230.5,-1 230.5,-61 385.5,-61 385.5,-1 230.5,-1"/>
<text text-anchor="middle" x="308" y="-49.8" font-family="Helvetica,sans-Serif" font-size="8.00">MenuScreenInput</text>
<polyline fill="none" stroke="black" points="230.5,-41 385.5,-41 "/>
<text text-anchor="middle" x="308" y="-29.8" font-family="Helvetica,sans-Serif" font-size="8.00"> </text>
<polyline fill="none" stroke="black" points="230.5,-21 385.5,-21 "/>
<text text-anchor="start" x="238.5" y="-9.8" font-family="Helvetica,sans-Serif" font-size="8.00">+ MenuScreenInput (GameState state)</text>
</g>
<!-- Box_Input&#45;&gt;Box_MenuScreenInput -->
<g id="edge8" class="edge"><title>Box_Input&#45;&gt;Box_MenuScreenInput</title>
<path fill="none" stroke="midnightblue" d="M308,-88.5304C308,-78.5426 308,-69.2685 308,-61.2102"/>
<polygon fill="none" stroke="midnightblue" points="304.5,-88.7374 308,-98.7374 311.5,-88.7375 304.5,-88.7374"/>
</g>
<!-- Box_XnaGameComponent -->
<g id="node6" class="node"><title>Box_XnaGameComponent</title>
<polygon fill="#ffffff" stroke="black" points="537.5,-567 537.5,-587 634.5,-587 634.5,-567 537.5,-567"/>
<text text-anchor="middle" x="586" y="-575.8" font-family="Helvetica,sans-Serif" font-size="8.00">Xna.GameComponent</text>
</g>
<!-- Box_XnaGameComponent&#45;&gt;Box_GameStateComponent -->
<g id="edge2" class="edge"><title>Box_XnaGameComponent&#45;&gt;Box_GameStateComponent</title>
<path fill="none" stroke="midnightblue" d="M568.786,-559.171C555.887,-545.812 537.593,-526.865 520.512,-509.174"/>
<polygon fill="none" stroke="midnightblue" points="566.597,-561.943 576.061,-566.706 571.633,-557.081 566.597,-561.943"/>
</g>
<!-- Box_XnaIGameComponent -->
<g id="node7" class="node"><title>Box_XnaIGameComponent</title>
<polygon fill="#ffffff" stroke="black" points="311.5,-645 311.5,-665 410.5,-665 410.5,-645 311.5,-645"/>
<text text-anchor="middle" x="361" y="-653.8" font-family="Helvetica,sans-Serif" font-size="8.00">Xna.IGameComponent</text>
</g>
<!-- Box_XnaIGameComponent&#45;&gt;Box_IGameStateComponent -->
<g id="edge6" class="edge"><title>Box_XnaIGameComponent&#45;&gt;Box_IGameStateComponent</title>
<path fill="none" stroke="midnightblue" d="M361,-634.777C361,-626.329 361,-616.337 361,-607.059"/>
<polygon fill="none" stroke="midnightblue" points="357.5,-634.803 361,-644.803 364.5,-634.803 357.5,-634.803"/>
</g>
</g>
</svg>
