<?xml version="1.0" encoding="UTF-8" standalone="no"?>
<!DOCTYPE svg PUBLIC "-//W3C//DTD SVG 1.1//EN"
 "http://www.w3.org/Graphics/SVG/1.1/DTD/svg11.dtd">
<!-- Generated by graphviz version 2.26.3 (20100126.1600)
 -->
<!-- Title: MenuItem Pages: 1 -->
<svg width="2105pt" height="1580pt"
 viewBox="0.00 0.00 2105.00 1580.00" xmlns="http://www.w3.org/2000/svg" xmlns:xlink="http://www.w3.org/1999/xlink">
<g id="graph1" class="graph" transform="scale(1 1) rotate(0) translate(4 1576)">
<title>MenuItem</title>
<polygon fill="white" stroke="white" points="-4,5 -4,-1576 2102,-1576 2102,5 -4,5"/>
<!-- Box_DrawableGameStateComponent -->
<g id="node1" class="node"><title>Box_DrawableGameStateComponent</title>
<polygon fill="#fcfcda" stroke="black" points="423.5,-1283 423.5,-1391 764.5,-1391 764.5,-1283 423.5,-1283"/>
<text text-anchor="middle" x="594" y="-1379.8" font-family="Helvetica,sans-Serif" font-size="8.00">DrawableGameStateComponent</text>
<polyline fill="none" stroke="black" points="423.5,-1371 764.5,-1371 "/>
<text text-anchor="start" x="431.5" y="-1359.8" font-family="Helvetica,sans-Serif" font-size="8.00">Attributes:</text>
<text text-anchor="start" x="431.5" y="-1347.8" font-family="Helvetica,sans-Serif" font-size="8.00">+ state : GameState</text>
<text text-anchor="start" x="431.5" y="-1335.8" font-family="Helvetica,sans-Serif" font-size="8.00">+ Index : int</text>
<text text-anchor="start" x="431.5" y="-1323.8" font-family="Helvetica,sans-Serif" font-size="8.00">Methods:</text>
<polyline fill="none" stroke="black" points="423.5,-1315 764.5,-1315 "/>
<text text-anchor="start" x="431.5" y="-1303.8" font-family="Helvetica,sans-Serif" font-size="8.00">+ DrawableGameStateComponent (GameState state, DisplayLayer drawOrder)</text>
<text text-anchor="start" x="431.5" y="-1291.8" font-family="Helvetica,sans-Serif" font-size="8.00">+ SubComponents (GameTime gameTime) : IEnumerable&lt;IGameStateComponent&gt; virtual</text>
</g>
<!-- Box_MousePointer -->
<g id="node3" class="node"><title>Box_MousePointer</title>
<polygon fill="#fcfcda" stroke="black" points="-0.5,-1053 -0.5,-1161 154.5,-1161 154.5,-1053 -0.5,-1053"/>
<text text-anchor="middle" x="77" y="-1149.8" font-family="Helvetica,sans-Serif" font-size="8.00">MousePointer</text>
<polyline fill="none" stroke="black" points="-0.5,-1141 154.5,-1141 "/>
<text text-anchor="start" x="7.5" y="-1129.8" font-family="Helvetica,sans-Serif" font-size="8.00">Attributes:</text>
<text text-anchor="start" x="7.5" y="-1117.8" font-family="Helvetica,sans-Serif" font-size="8.00">&#45; spriteBatch : SpriteBatch</text>
<text text-anchor="start" x="7.5" y="-1105.8" font-family="Helvetica,sans-Serif" font-size="8.00">Methods:</text>
<polyline fill="none" stroke="black" points="-0.5,-1097 154.5,-1097 "/>
<text text-anchor="start" x="7.5" y="-1085.8" font-family="Helvetica,sans-Serif" font-size="8.00">+ MousePointer (GameState state)</text>
<text text-anchor="start" x="7.5" y="-1073.8" font-family="Helvetica,sans-Serif" font-size="8.00">&#45; DrawCursor (GameTime gameTime)</text>
<text text-anchor="start" x="7.5" y="-1061.8" font-family="Helvetica,sans-Serif" font-size="8.00">+ Draw (GameTime gameTime)</text>
</g>
<!-- Box_DrawableGameStateComponent&#45;&gt;Box_MousePointer -->
<g id="edge8" class="edge"><title>Box_DrawableGameStateComponent&#45;&gt;Box_MousePointer</title>
<path fill="none" stroke="midnightblue" d="M413.189,-1313.35C314.242,-1297.61 203.686,-1274.58 163,-1246 133.394,-1225.2 111.946,-1190.64 97.8738,-1161.19"/>
<polygon fill="none" stroke="midnightblue" points="412.917,-1316.85 423.339,-1314.94 414.004,-1309.93 412.917,-1316.85"/>
</g>
<!-- Box_Overlay -->
<g id="node4" class="node"><title>Box_Overlay</title>
<polygon fill="#fcfcda" stroke="black" points="172,-969 172,-1245 492,-1245 492,-969 172,-969"/>
<text text-anchor="middle" x="332" y="-1233.8" font-family="Helvetica,sans-Serif" font-size="8.00">Overlay</text>
<polyline fill="none" stroke="black" points="172,-1225 492,-1225 "/>
<text text-anchor="start" x="180" y="-1213.8" font-family="Helvetica,sans-Serif" font-size="8.00">Attributes:</text>
<text text-anchor="start" x="180" y="-1201.8" font-family="Helvetica,sans-Serif" font-size="8.00">&#45; effect : BasicEffect</text>
<text text-anchor="start" x="180" y="-1189.8" font-family="Helvetica,sans-Serif" font-size="8.00">&#45; _elapsed_time : float</text>
<text text-anchor="start" x="180" y="-1177.8" font-family="Helvetica,sans-Serif" font-size="8.00">&#45; _fps : int</text>
<text text-anchor="start" x="180" y="-1165.8" font-family="Helvetica,sans-Serif" font-size="8.00">&#45; World : World</text>
<text text-anchor="start" x="180" y="-1153.8" font-family="Helvetica,sans-Serif" font-size="8.00">&#45; _total_frames : int</text>
<text text-anchor="start" x="180" y="-1141.8" font-family="Helvetica,sans-Serif" font-size="8.00">&#45; spriteBatch : SpriteBatch</text>
<text text-anchor="start" x="180" y="-1129.8" font-family="Helvetica,sans-Serif" font-size="8.00">&#45; font : SpriteFont</text>
<text text-anchor="start" x="180" y="-1117.8" font-family="Helvetica,sans-Serif" font-size="8.00">Methods:</text>
<polyline fill="none" stroke="black" points="172,-1109 492,-1109 "/>
<text text-anchor="start" x="180" y="-1097.8" font-family="Helvetica,sans-Serif" font-size="8.00">&#45; DrawFPS (GameTime gameTime)</text>
<text text-anchor="start" x="180" y="-1085.8" font-family="Helvetica,sans-Serif" font-size="8.00">&#45; DrawString (float n, int width, int height, Color color)</text>
<text text-anchor="start" x="180" y="-1073.8" font-family="Helvetica,sans-Serif" font-size="8.00">&#45; DrawVectorCoordinates (Vector3 vector, int width2, int width3, int width4, int height)</text>
<text text-anchor="start" x="180" y="-1061.8" font-family="Helvetica,sans-Serif" font-size="8.00">&#45; UpdateFPS (GameTime gameTime)</text>
<text text-anchor="start" x="180" y="-1049.8" font-family="Helvetica,sans-Serif" font-size="8.00">+ Overlay (GameState state, World world)</text>
<text text-anchor="start" x="180" y="-1037.8" font-family="Helvetica,sans-Serif" font-size="8.00">+ Draw (GameTime gameTime)</text>
<text text-anchor="start" x="180" y="-1025.8" font-family="Helvetica,sans-Serif" font-size="8.00">&#45; DrawCoordinates (GameTime gameTime)</text>
<text text-anchor="start" x="180" y="-1013.8" font-family="Helvetica,sans-Serif" font-size="8.00">&#45; DrawOverlay (GameTime gameTime)</text>
<text text-anchor="start" x="180" y="-1001.8" font-family="Helvetica,sans-Serif" font-size="8.00">&#45; DrawString (string str, int width, int height, Color color)</text>
<text text-anchor="start" x="180" y="-989.8" font-family="Helvetica,sans-Serif" font-size="8.00"># LoadContent ()</text>
<text text-anchor="start" x="180" y="-977.8" font-family="Helvetica,sans-Serif" font-size="8.00">+ Update (GameTime gameTime)</text>
</g>
<!-- Box_DrawableGameStateComponent&#45;&gt;Box_Overlay -->
<g id="edge10" class="edge"><title>Box_DrawableGameStateComponent&#45;&gt;Box_Overlay</title>
<path fill="none" stroke="midnightblue" d="M524.661,-1276.13C513.526,-1266.36 501.621,-1255.9 489.397,-1245.17"/>
<polygon fill="none" stroke="midnightblue" points="522.417,-1278.82 532.241,-1282.78 527.035,-1273.56 522.417,-1278.82"/>
</g>
<!-- Box_World -->
<g id="node5" class="node"><title>Box_World</title>
<polygon fill="#fcfcda" stroke="black" points="1007,-981 1007,-1233 1325,-1233 1325,-981 1007,-981"/>
<text text-anchor="middle" x="1166" y="-1221.8" font-family="Helvetica,sans-Serif" font-size="8.00">World</text>
<polyline fill="none" stroke="black" points="1007,-1213 1325,-1213 "/>
<text text-anchor="start" x="1015" y="-1201.8" font-family="Helvetica,sans-Serif" font-size="8.00">Attributes:</text>
<text text-anchor="start" x="1015" y="-1189.8" font-family="Helvetica,sans-Serif" font-size="8.00">&#45; knotRenderEffect : RenderEffect</text>
<text text-anchor="start" x="1015" y="-1177.8" font-family="Helvetica,sans-Serif" font-size="8.00">+ Objects : List&lt;IGameObject&gt;</text>
<text text-anchor="start" x="1015" y="-1165.8" font-family="Helvetica,sans-Serif" font-size="8.00">&#45; knotRenderEffects : List&lt;RenderEffect&gt;</text>
<text text-anchor="start" x="1015" y="-1153.8" font-family="Helvetica,sans-Serif" font-size="8.00">&#45; floor : TexturedRectangle</text>
<text text-anchor="start" x="1015" y="-1141.8" font-family="Helvetica,sans-Serif" font-size="8.00">+ Camera : Camera</text>
<text text-anchor="start" x="1015" y="-1129.8" font-family="Helvetica,sans-Serif" font-size="8.00">+ SelectedObject : IGameObject</text>
<text text-anchor="start" x="1015" y="-1117.8" font-family="Helvetica,sans-Serif" font-size="8.00">Methods:</text>
<polyline fill="none" stroke="black" points="1007,-1109 1325,-1109 "/>
<text text-anchor="start" x="1015" y="-1097.8" font-family="Helvetica,sans-Serif" font-size="8.00">&#45; IEnumerable.GetEnumerator () : IEnumerator</text>
<text text-anchor="start" x="1015" y="-1085.8" font-family="Helvetica,sans-Serif" font-size="8.00">+ World (GameState state)</text>
<text text-anchor="start" x="1015" y="-1073.8" font-family="Helvetica,sans-Serif" font-size="8.00">+ SelectedObjectDistance () : float</text>
<text text-anchor="start" x="1015" y="-1061.8" font-family="Helvetica,sans-Serif" font-size="8.00">+ SubComponents (GameTime gameTime) : IEnumerable&lt;IGameStateComponent&gt;</text>
<text text-anchor="start" x="1015" y="-1049.8" font-family="Helvetica,sans-Serif" font-size="8.00">+ Draw (GameTime gameTime)</text>
<text text-anchor="start" x="1015" y="-1037.8" font-family="Helvetica,sans-Serif" font-size="8.00">+ Add (IGameObject obj)</text>
<text text-anchor="start" x="1015" y="-1025.8" font-family="Helvetica,sans-Serif" font-size="8.00">+ GetEnumerator () : IEnumerator&lt;IGameObject&gt;</text>
<text text-anchor="start" x="1015" y="-1013.8" font-family="Helvetica,sans-Serif" font-size="8.00">+ Initialize ()</text>
<text text-anchor="start" x="1015" y="-1001.8" font-family="Helvetica,sans-Serif" font-size="8.00">+ Update (GameTime gameTime)</text>
<text text-anchor="start" x="1015" y="-989.8" font-family="Helvetica,sans-Serif" font-size="8.00">+ SelectObject (IGameObject obj, GameTime gameTime)</text>
</g>
<!-- Box_DrawableGameStateComponent&#45;&gt;Box_World -->
<g id="edge12" class="edge"><title>Box_DrawableGameStateComponent&#45;&gt;Box_World</title>
<path fill="none" stroke="midnightblue" d="M774.667,-1314.94C846.719,-1301.45 928.811,-1279.97 998,-1246 1005.82,-1242.16 1013.58,-1237.89 1021.25,-1233.3"/>
<polygon fill="none" stroke="midnightblue" points="773.774,-1311.54 764.569,-1316.79 775.036,-1318.43 773.774,-1311.54"/>
</g>
<!-- Box_Widget -->
<g id="node6" class="node"><title>Box_Widget</title>
<polygon fill="#fcfcda" stroke="black" points="723,-1053 723,-1161 989,-1161 989,-1053 723,-1053"/>
<text text-anchor="middle" x="856" y="-1149.8" font-family="Helvetica,sans-Serif" font-size="8.00">Widget</text>
<polyline fill="none" stroke="black" points="723,-1141 989,-1141 "/>
<text text-anchor="start" x="731" y="-1129.8" font-family="Helvetica,sans-Serif" font-size="8.00">Attributes:</text>
<text text-anchor="start" x="731" y="-1117.8" font-family="Helvetica,sans-Serif" font-size="8.00">+ Info : WidgetInfo</text>
<text text-anchor="start" x="731" y="-1105.8" font-family="Helvetica,sans-Serif" font-size="8.00">+ IsVisible : bool virtual</text>
<text text-anchor="start" x="731" y="-1093.8" font-family="Helvetica,sans-Serif" font-size="8.00">Methods:</text>
<polyline fill="none" stroke="black" points="723,-1085 989,-1085 "/>
<text text-anchor="start" x="731" y="-1073.8" font-family="Helvetica,sans-Serif" font-size="8.00">+ bounds () : Rectangle</text>
<text text-anchor="start" x="731" y="-1061.8" font-family="Helvetica,sans-Serif" font-size="8.00">+ Widget (GameState state, WidgetInfo info, DisplayLayer drawOrder)</text>
</g>
<!-- Box_DrawableGameStateComponent&#45;&gt;Box_Widget -->
<g id="edge16" class="edge"><title>Box_DrawableGameStateComponent&#45;&gt;Box_Widget</title>
<path fill="none" stroke="midnightblue" d="M674.648,-1276.72C687.337,-1266.69 700.163,-1256.22 712,-1246 743.032,-1219.2 776.051,-1187.58 802.632,-1161.27"/>
<polygon fill="none" stroke="midnightblue" points="672.479,-1273.97 666.775,-1282.9 676.802,-1279.48 672.479,-1273.97"/>
</g>
<!-- Box_IGameStateComponent -->
<g id="node2" class="node"><title>Box_IGameStateComponent</title>
<polygon fill="#dafcda" stroke="black" points="314,-1429 314,-1513 632,-1513 632,-1429 314,-1429"/>
<text text-anchor="middle" x="473" y="-1501.8" font-family="Helvetica,sans-Serif" font-size="8.00">IGameStateComponent</text>
<polyline fill="none" stroke="black" points="314,-1493 632,-1493 "/>
<text text-anchor="start" x="322" y="-1481.8" font-family="Helvetica,sans-Serif" font-size="8.00">Attributes:</text>
<text text-anchor="start" x="322" y="-1469.8" font-family="Helvetica,sans-Serif" font-size="8.00">+ Index : int</text>
<text text-anchor="start" x="322" y="-1457.8" font-family="Helvetica,sans-Serif" font-size="8.00">Methods:</text>
<polyline fill="none" stroke="black" points="314,-1449 632,-1449 "/>
<text text-anchor="start" x="322" y="-1437.8" font-family="Helvetica,sans-Serif" font-size="8.00">+ SubComponents (GameTime gameTime) : IEnumerable&lt;IGameStateComponent&gt;</text>
</g>
<!-- Box_IGameStateComponent&#45;&gt;Box_DrawableGameStateComponent -->
<g id="edge4" class="edge"><title>Box_IGameStateComponent&#45;&gt;Box_DrawableGameStateComponent</title>
<path fill="none" stroke="midnightblue" d="M517.666,-1421.53C526.59,-1411.65 536.007,-1401.22 545.065,-1391.19"/>
<polygon fill="none" stroke="midnightblue" points="515.057,-1419.2 510.953,-1428.97 520.253,-1423.89 515.057,-1419.2"/>
</g>
<!-- Box_ColorPicker -->
<g id="node7" class="node"><title>Box_ColorPicker</title>
<polygon fill="#fcfcda" stroke="black" points="412.5,-661 412.5,-901 695.5,-901 695.5,-661 412.5,-661"/>
<text text-anchor="middle" x="554" y="-889.8" font-family="Helvetica,sans-Serif" font-size="8.00">ColorPicker</text>
<polyline fill="none" stroke="black" points="412.5,-881 695.5,-881 "/>
<text text-anchor="start" x="420.5" y="-869.8" font-family="Helvetica,sans-Serif" font-size="8.00">Attributes:</text>
<text text-anchor="start" x="420.5" y="-857.8" font-family="Helvetica,sans-Serif" font-size="8.00">&#45; tiles : List&lt;Vector2&gt;</text>
<text text-anchor="start" x="420.5" y="-845.8" font-family="Helvetica,sans-Serif" font-size="8.00">+ SelectedColor : Color</text>
<text text-anchor="start" x="420.5" y="-833.8" font-family="Helvetica,sans-Serif" font-size="8.00">+ IsMouseEventEnabled : bool</text>
<text text-anchor="start" x="420.5" y="-821.8" font-family="Helvetica,sans-Serif" font-size="8.00">&#45; colors : List&lt;Color&gt;</text>
<text text-anchor="start" x="420.5" y="-809.8" font-family="Helvetica,sans-Serif" font-size="8.00"># spriteBatch : SpriteBatch</text>
<text text-anchor="start" x="420.5" y="-797.8" font-family="Helvetica,sans-Serif" font-size="8.00">+ OnSelectColor : Action&lt;Color&gt;</text>
<text text-anchor="start" x="420.5" y="-785.8" font-family="Helvetica,sans-Serif" font-size="8.00">Methods:</text>
<polyline fill="none" stroke="black" points="412.5,-777 695.5,-777 "/>
<text text-anchor="start" x="420.5" y="-765.8" font-family="Helvetica,sans-Serif" font-size="8.00">&#45; Vector2 tileSize (0.032f, 0.032f) : readonly static</text>
<text text-anchor="start" x="420.5" y="-753.8" font-family="Helvetica,sans-Serif" font-size="8.00">&#45; CreateTiles (IEnumerable&lt;Color&gt; _colors) : IEnumerable&lt;Vector2&gt; static</text>
<text text-anchor="start" x="420.5" y="-741.8" font-family="Helvetica,sans-Serif" font-size="8.00">+ ColorPicker (GameState state, WidgetInfo info, DisplayLayer drawOrder)</text>
<text text-anchor="start" x="420.5" y="-729.8" font-family="Helvetica,sans-Serif" font-size="8.00">+ Draw (GameTime gameTime)</text>
<text text-anchor="start" x="420.5" y="-717.8" font-family="Helvetica,sans-Serif" font-size="8.00">+ OnRightClick (Vector2 position, ClickState click, GameTime gameTime)</text>
<text text-anchor="start" x="420.5" y="-705.8" font-family="Helvetica,sans-Serif" font-size="8.00">+ SetHovered (bool hovered)</text>
<text text-anchor="start" x="420.5" y="-693.8" font-family="Helvetica,sans-Serif" font-size="8.00">&#45; CreateColors (int num) : IEnumerable&lt;Color&gt; static</text>
<text text-anchor="start" x="420.5" y="-681.8" font-family="Helvetica,sans-Serif" font-size="8.00">&#45; SelectColor (Color color)</text>
<text text-anchor="start" x="420.5" y="-669.8" font-family="Helvetica,sans-Serif" font-size="8.00">+ OnLeftClick (Vector2 position, ClickState click, GameTime gameTime)</text>
</g>
<!-- Box_Widget&#45;&gt;Box_ColorPicker -->
<g id="edge18" class="edge"><title>Box_Widget&#45;&gt;Box_ColorPicker</title>
<path fill="none" stroke="midnightblue" d="M798.911,-1045.37C761.229,-1004.7 710.609,-950.054 665.17,-901.005"/>
<polygon fill="none" stroke="midnightblue" points="796.428,-1047.84 805.792,-1052.8 801.564,-1043.09 796.428,-1047.84"/>
</g>
<!-- Box_Dialog -->
<g id="node8" class="node"><title>Box_Dialog</title>
<polygon fill="#fcfcda" stroke="black" points="1363,-685 1363,-877 1681,-877 1681,-685 1363,-685"/>
<text text-anchor="middle" x="1522" y="-865.8" font-family="Helvetica,sans-Serif" font-size="8.00">Dialog</text>
<polyline fill="none" stroke="black" points="1363,-857 1681,-857 "/>
<text text-anchor="start" x="1371" y="-845.8" font-family="Helvetica,sans-Serif" font-size="8.00">Attributes:</text>
<text text-anchor="start" x="1371" y="-833.8" font-family="Helvetica,sans-Serif" font-size="8.00"># spriteBatch : SpriteBatch</text>
<text text-anchor="start" x="1371" y="-821.8" font-family="Helvetica,sans-Serif" font-size="8.00">+ Done : Action</text>
<text text-anchor="start" x="1371" y="-809.8" font-family="Helvetica,sans-Serif" font-size="8.00">+ buttons : Menu</text>
<text text-anchor="start" x="1371" y="-797.8" font-family="Helvetica,sans-Serif" font-size="8.00">Methods:</text>
<polyline fill="none" stroke="black" points="1363,-789 1681,-789 "/>
<text text-anchor="start" x="1371" y="-777.8" font-family="Helvetica,sans-Serif" font-size="8.00">&#45; ButtonBackgroundColor (ItemState itemState) : Color</text>
<text text-anchor="start" x="1371" y="-765.8" font-family="Helvetica,sans-Serif" font-size="8.00"># RelativeButtonSize (int n) : Vector2</text>
<text text-anchor="start" x="1371" y="-753.8" font-family="Helvetica,sans-Serif" font-size="8.00">+ Dialog (GameState state, WidgetInfo info, DisplayLayer drawOrder)</text>
<text text-anchor="start" x="1371" y="-741.8" font-family="Helvetica,sans-Serif" font-size="8.00">&#45; ButtonForegroundColor (ItemState itemState) : Color</text>
<text text-anchor="start" x="1371" y="-729.8" font-family="Helvetica,sans-Serif" font-size="8.00"># RelativeButtonPosition (int n) : Vector2</text>
<text text-anchor="start" x="1371" y="-717.8" font-family="Helvetica,sans-Serif" font-size="8.00"># DrawDialog (GameTime gameTime) abstract</text>
<text text-anchor="start" x="1371" y="-705.8" font-family="Helvetica,sans-Serif" font-size="8.00">+ SubComponents (GameTime gameTime) : IEnumerable&lt;IGameStateComponent&gt;</text>
<text text-anchor="start" x="1371" y="-693.8" font-family="Helvetica,sans-Serif" font-size="8.00">+ Draw (GameTime gameTime)</text>
</g>
<!-- Box_Widget&#45;&gt;Box_Dialog -->
<g id="edge22" class="edge"><title>Box_Widget&#45;&gt;Box_Dialog</title>
<path fill="none" stroke="midnightblue" d="M902.639,-1045.01C927.617,-1016.57 960.872,-985.377 998,-968 1142.03,-900.587 1208.56,-996.333 1354,-932 1383.59,-918.912 1411.55,-898.577 1435.87,-877.026"/>
<polygon fill="none" stroke="midnightblue" points="899.682,-1043.08 895.817,-1052.94 904.99,-1047.64 899.682,-1043.08"/>
</g>
<!-- Box_Menu -->
<g id="node12" class="node"><title>Box_Menu</title>
<polygon fill="#fcfcda" stroke="black" points="1698.5,-631 1698.5,-931 2097.5,-931 2097.5,-631 1698.5,-631"/>
<text text-anchor="middle" x="1898" y="-919.8" font-family="Helvetica,sans-Serif" font-size="8.00">Menu</text>
<polyline fill="none" stroke="black" points="1698.5,-911 2097.5,-911 "/>
<text text-anchor="start" x="1706.5" y="-899.8" font-family="Helvetica,sans-Serif" font-size="8.00">Attributes:</text>
<text text-anchor="start" x="1706.5" y="-887.8" font-family="Helvetica,sans-Serif" font-size="8.00">&#45; isVisible : bool</text>
<text text-anchor="start" x="1706.5" y="-875.8" font-family="Helvetica,sans-Serif" font-size="8.00"># Items : List&lt;MenuItem&gt;</text>
<text text-anchor="start" x="1706.5" y="-863.8" font-family="Helvetica,sans-Serif" font-size="8.00">+ Color&gt; ItemBackgroundColor : Func&lt;ItemState,</text>
<text text-anchor="start" x="1706.5" y="-851.8" font-family="Helvetica,sans-Serif" font-size="8.00">+ Color&gt; ItemForegroundColor : Func&lt;ItemState,</text>
<text text-anchor="start" x="1706.5" y="-839.8" font-family="Helvetica,sans-Serif" font-size="8.00">+ Vector2&gt; RelativeItemPosition : Func&lt;int,</text>
<text text-anchor="start" x="1706.5" y="-827.8" font-family="Helvetica,sans-Serif" font-size="8.00">+ ItemAlignX : HAlign?</text>
<text text-anchor="start" x="1706.5" y="-815.8" font-family="Helvetica,sans-Serif" font-size="8.00">+ ItemAlignY : VAlign?</text>
<text text-anchor="start" x="1706.5" y="-803.8" font-family="Helvetica,sans-Serif" font-size="8.00">+ Count : int</text>
<text text-anchor="start" x="1706.5" y="-791.8" font-family="Helvetica,sans-Serif" font-size="8.00">+ IsVisible : bool</text>
<text text-anchor="start" x="1706.5" y="-779.8" font-family="Helvetica,sans-Serif" font-size="8.00">&#45; ItemDisplayLayer : DisplayLayer</text>
<text text-anchor="start" x="1706.5" y="-767.8" font-family="Helvetica,sans-Serif" font-size="8.00">+ Vector2&gt; RelativeItemSize : Func&lt;int,</text>
<text text-anchor="start" x="1706.5" y="-755.8" font-family="Helvetica,sans-Serif" font-size="8.00">Methods:</text>
<polyline fill="none" stroke="black" points="1698.5,-747 2097.5,-747 "/>
<text text-anchor="start" x="1706.5" y="-735.8" font-family="Helvetica,sans-Serif" font-size="8.00">&#45; assignMenuItemInfo (ref MenuItemInfo info, int num, MenuItem item)</text>
<text text-anchor="start" x="1706.5" y="-723.8" font-family="Helvetica,sans-Serif" font-size="8.00">+ Menu (GameState state, WidgetInfo info, DisplayLayer drawOrder)</text>
<text text-anchor="start" x="1706.5" y="-711.8" font-family="Helvetica,sans-Serif" font-size="8.00">+ this (int i) : MenuItem</text>
<text text-anchor="start" x="1706.5" y="-699.8" font-family="Helvetica,sans-Serif" font-size="8.00">+ SubComponents (GameTime gameTime) : IEnumerable&lt;IGameStateComponent&gt;</text>
<text text-anchor="start" x="1706.5" y="-687.8" font-family="Helvetica,sans-Serif" font-size="8.00">+ CollapseMenus (MenuItem menu)</text>
<text text-anchor="start" x="1706.5" y="-675.8" font-family="Helvetica,sans-Serif" font-size="8.00">+ AddButton (MenuItemInfo info) : MenuButton virtual</text>
<text text-anchor="start" x="1706.5" y="-663.8" font-family="Helvetica,sans-Serif" font-size="8.00">+ AddDropDown (MenuItemInfo info, DistinctOptionInfo option) virtual</text>
<text text-anchor="start" x="1706.5" y="-651.8" font-family="Helvetica,sans-Serif" font-size="8.00">+ AddDropDown (MenuItemInfo info, DropDownMenuItem[] items, DropDownMenuItem defaultItem) virtual</text>
<text text-anchor="start" x="1706.5" y="-639.8" font-family="Helvetica,sans-Serif" font-size="8.00">+ Clear ()</text>
</g>
<!-- Box_Widget&#45;&gt;Box_Menu -->
<g id="edge30" class="edge"><title>Box_Widget&#45;&gt;Box_Menu</title>
<path fill="none" stroke="midnightblue" d="M901.391,-1045.26C926.376,-1016.34 960.009,-984.664 998,-968 1139.02,-906.147 1544.83,-983.346 1690,-932 1692.73,-931.033 1695.46,-930.017 1698.19,-928.957"/>
<polygon fill="none" stroke="midnightblue" points="898.688,-1043.03 894.903,-1052.93 904.033,-1047.55 898.688,-1043.03"/>
</g>
<!-- Box_TextInput -->
<g id="node14" class="node"><title>Box_TextInput</title>
<polygon fill="#fcfcda" stroke="black" points="713,-697 713,-865 999,-865 999,-697 713,-697"/>
<text text-anchor="middle" x="856" y="-853.8" font-family="Helvetica,sans-Serif" font-size="8.00">TextInput</text>
<polyline fill="none" stroke="black" points="713,-845 999,-845 "/>
<text text-anchor="start" x="721" y="-833.8" font-family="Helvetica,sans-Serif" font-size="8.00">Attributes:</text>
<text text-anchor="start" x="721" y="-821.8" font-family="Helvetica,sans-Serif" font-size="8.00">&#45; font : SpriteFont</text>
<text text-anchor="start" x="721" y="-809.8" font-family="Helvetica,sans-Serif" font-size="8.00"># spriteBatch : SpriteBatch</text>
<text text-anchor="start" x="721" y="-797.8" font-family="Helvetica,sans-Serif" font-size="8.00">+ IsKeyEventEnabled : bool</text>
<text text-anchor="start" x="721" y="-785.8" font-family="Helvetica,sans-Serif" font-size="8.00">+ ValidKeys : List&lt;Keys&gt;</text>
<text text-anchor="start" x="721" y="-773.8" font-family="Helvetica,sans-Serif" font-size="8.00">+ InputText : string</text>
<text text-anchor="start" x="721" y="-761.8" font-family="Helvetica,sans-Serif" font-size="8.00">Methods:</text>
<polyline fill="none" stroke="black" points="713,-753 999,-753 "/>
<text text-anchor="start" x="721" y="-741.8" font-family="Helvetica,sans-Serif" font-size="8.00">+ TextInput (GameState state, WidgetInfo info, DisplayLayer drawOrder)</text>
<text text-anchor="start" x="721" y="-729.8" font-family="Helvetica,sans-Serif" font-size="8.00">+ Draw (GameTime gameTime)</text>
<text text-anchor="start" x="721" y="-717.8" font-family="Helvetica,sans-Serif" font-size="8.00">+ OnKeyEvent (List&lt;Keys&gt; key, KeyEvent keyEvent, GameTime gameTime)</text>
<text text-anchor="start" x="721" y="-705.8" font-family="Helvetica,sans-Serif" font-size="8.00">+ Update (GameTime gameTime)</text>
</g>
<!-- Box_Widget&#45;&gt;Box_TextInput -->
<g id="edge34" class="edge"><title>Box_Widget&#45;&gt;Box_TextInput</title>
<path fill="none" stroke="midnightblue" d="M856,-1042.6C856,-991.746 856,-920.389 856,-865.045"/>
<polygon fill="none" stroke="midnightblue" points="852.5,-1042.8 856,-1052.8 859.5,-1042.8 852.5,-1042.8"/>
</g>
<!-- Box_ItemWidget -->
<g id="node15" class="node"><title>Box_ItemWidget</title>
<polygon fill="#fcfcda" stroke="black" points="1016.5,-733 1016.5,-829 1345.5,-829 1345.5,-733 1016.5,-733"/>
<text text-anchor="middle" x="1181" y="-817.8" font-family="Helvetica,sans-Serif" font-size="8.00">ItemWidget</text>
<polyline fill="none" stroke="black" points="1016.5,-809 1345.5,-809 "/>
<text text-anchor="start" x="1024.5" y="-797.8" font-family="Helvetica,sans-Serif" font-size="8.00">Attributes:</text>
<text text-anchor="start" x="1024.5" y="-785.8" font-family="Helvetica,sans-Serif" font-size="8.00">+ ItemState : ItemState</text>
<text text-anchor="start" x="1024.5" y="-773.8" font-family="Helvetica,sans-Serif" font-size="8.00"># ItemNum : int</text>
<text text-anchor="start" x="1024.5" y="-761.8" font-family="Helvetica,sans-Serif" font-size="8.00">Methods:</text>
<polyline fill="none" stroke="black" points="1016.5,-753 1345.5,-753 "/>
<text text-anchor="start" x="1024.5" y="-741.8" font-family="Helvetica,sans-Serif" font-size="8.00">+ ItemWidget (GameState state, WidgetInfo info, DisplayLayer drawOrder, int itemNum)</text>
</g>
<!-- Box_Widget&#45;&gt;Box_ItemWidget -->
<g id="edge38" class="edge"><title>Box_Widget&#45;&gt;Box_ItemWidget</title>
<path fill="none" stroke="midnightblue" d="M917.112,-1045.7C979.666,-982.954 1075.6,-886.722 1132.94,-829.21"/>
<polygon fill="none" stroke="midnightblue" points="914.614,-1043.25 910.032,-1052.8 919.571,-1048.19 914.614,-1043.25"/>
</g>
<!-- Box_ConfirmDialog -->
<g id="node9" class="node"><title>Box_ConfirmDialog</title>
<polygon fill="#fcfcda" stroke="black" points="1376,-407 1376,-539 1668,-539 1668,-407 1376,-407"/>
<text text-anchor="middle" x="1522" y="-527.8" font-family="Helvetica,sans-Serif" font-size="8.00">ConfirmDialog</text>
<polyline fill="none" stroke="black" points="1376,-519 1668,-519 "/>
<text text-anchor="start" x="1384" y="-507.8" font-family="Helvetica,sans-Serif" font-size="8.00">Attributes:</text>
<text text-anchor="start" x="1384" y="-495.8" font-family="Helvetica,sans-Serif" font-size="8.00"># Text : string[]</text>
<text text-anchor="start" x="1384" y="-483.8" font-family="Helvetica,sans-Serif" font-size="8.00">Methods:</text>
<polyline fill="none" stroke="black" points="1376,-475 1668,-475 "/>
<text text-anchor="start" x="1384" y="-463.8" font-family="Helvetica,sans-Serif" font-size="8.00"># OnYesClick () : Action</text>
<text text-anchor="start" x="1384" y="-451.8" font-family="Helvetica,sans-Serif" font-size="8.00"># OnCancelClick () : Action</text>
<text text-anchor="start" x="1384" y="-439.8" font-family="Helvetica,sans-Serif" font-size="8.00"># OnNoClick () : Action</text>
<text text-anchor="start" x="1384" y="-427.8" font-family="Helvetica,sans-Serif" font-size="8.00"># DrawDialog (GameTime gameTime)</text>
<text text-anchor="start" x="1384" y="-415.8" font-family="Helvetica,sans-Serif" font-size="8.00">+ ConfirmDialog (GameState state, WidgetInfo info, DisplayLayer drawOrder)</text>
</g>
<!-- Box_Dialog&#45;&gt;Box_ConfirmDialog -->
<g id="edge24" class="edge"><title>Box_Dialog&#45;&gt;Box_ConfirmDialog</title>
<path fill="none" stroke="midnightblue" d="M1522,-674.717C1522,-629.727 1522,-578.708 1522,-539.236"/>
<polygon fill="none" stroke="midnightblue" points="1518.5,-674.814 1522,-684.814 1525.5,-674.814 1518.5,-674.814"/>
</g>
<!-- Box_TextInputDialog -->
<g id="node10" class="node"><title>Box_TextInputDialog</title>
<polygon fill="#fcfcda" stroke="black" points="1363,-153 1363,-273 1681,-273 1681,-153 1363,-153"/>
<text text-anchor="middle" x="1522" y="-261.8" font-family="Helvetica,sans-Serif" font-size="8.00">TextInputDialog</text>
<polyline fill="none" stroke="black" points="1363,-253 1681,-253 "/>
<text text-anchor="start" x="1371" y="-241.8" font-family="Helvetica,sans-Serif" font-size="8.00">Attributes:</text>
<text text-anchor="start" x="1371" y="-229.8" font-family="Helvetica,sans-Serif" font-size="8.00"># TextInput : TextInput</text>
<text text-anchor="start" x="1371" y="-217.8" font-family="Helvetica,sans-Serif" font-size="8.00">Methods:</text>
<polyline fill="none" stroke="black" points="1363,-209 1681,-209 "/>
<text text-anchor="start" x="1371" y="-197.8" font-family="Helvetica,sans-Serif" font-size="8.00"># TextInputSize () : Vector2</text>
<text text-anchor="start" x="1371" y="-185.8" font-family="Helvetica,sans-Serif" font-size="8.00">+ TextInputDialog (GameState state, WidgetInfo info, DisplayLayer drawOrder)</text>
<text text-anchor="start" x="1371" y="-173.8" font-family="Helvetica,sans-Serif" font-size="8.00"># TextInputPosition () : Vector2</text>
<text text-anchor="start" x="1371" y="-161.8" font-family="Helvetica,sans-Serif" font-size="8.00">+ SubComponents (GameTime gameTime) : IEnumerable&lt;IGameStateComponent&gt;</text>
</g>
<!-- Box_ConfirmDialog&#45;&gt;Box_TextInputDialog -->
<g id="edge26" class="edge"><title>Box_ConfirmDialog&#45;&gt;Box_TextInputDialog</title>
<path fill="none" stroke="midnightblue" d="M1522,-396.646C1522,-357.341 1522,-310.1 1522,-273.376"/>
<polygon fill="none" stroke="midnightblue" points="1518.5,-396.718 1522,-406.718 1525.5,-396.718 1518.5,-396.718"/>
</g>
<!-- Box_KnotSaveConfirmDialog -->
<g id="node11" class="node"><title>Box_KnotSaveConfirmDialog</title>
<polygon fill="#fcfcda" stroke="black" points="1339.5,-1 1339.5,-73 1704.5,-73 1704.5,-1 1339.5,-1"/>
<text text-anchor="middle" x="1522" y="-61.8" font-family="Helvetica,sans-Serif" font-size="8.00">KnotSaveConfirmDialog</text>
<polyline fill="none" stroke="black" points="1339.5,-53 1704.5,-53 "/>
<text text-anchor="start" x="1347.5" y="-41.8" font-family="Helvetica,sans-Serif" font-size="8.00">Attributes:</text>
<text text-anchor="start" x="1347.5" y="-29.8" font-family="Helvetica,sans-Serif" font-size="8.00">Methods:</text>
<polyline fill="none" stroke="black" points="1339.5,-21 1704.5,-21 "/>
<text text-anchor="start" x="1347.5" y="-9.8" font-family="Helvetica,sans-Serif" font-size="8.00">+ KnotSaveConfirmDialog (GameState state, WidgetInfo info, DisplayLayer drawOrder, Knot knot)</text>
</g>
<!-- Box_TextInputDialog&#45;&gt;Box_KnotSaveConfirmDialog -->
<g id="edge28" class="edge"><title>Box_TextInputDialog&#45;&gt;Box_KnotSaveConfirmDialog</title>
<path fill="none" stroke="midnightblue" d="M1522,-142.835C1522,-118.985 1522,-93.3102 1522,-73.2223"/>
<polygon fill="none" stroke="midnightblue" points="1518.5,-142.923 1522,-152.923 1525.5,-142.923 1518.5,-142.923"/>
</g>
<!-- Box_VerticalMenu -->
<g id="node13" class="node"><title>Box_VerticalMenu</title>
<polygon fill="#fcfcda" stroke="black" points="1710,-389 1710,-557 2086,-557 2086,-389 1710,-389"/>
<text text-anchor="middle" x="1898" y="-545.8" font-family="Helvetica,sans-Serif" font-size="8.00">VerticalMenu</text>
<polyline fill="none" stroke="black" points="1710,-537 2086,-537 "/>
<text text-anchor="start" x="1718" y="-525.8" font-family="Helvetica,sans-Serif" font-size="8.00">Attributes:</text>
<text text-anchor="start" x="1718" y="-513.8" font-family="Helvetica,sans-Serif" font-size="8.00"># spriteBatch : SpriteBatch</text>
<text text-anchor="start" x="1718" y="-501.8" font-family="Helvetica,sans-Serif" font-size="8.00">+ Border : Border</text>
<text text-anchor="start" x="1718" y="-489.8" font-family="Helvetica,sans-Serif" font-size="8.00">Methods:</text>
<polyline fill="none" stroke="black" points="1710,-481 2086,-481 "/>
<text text-anchor="start" x="1718" y="-469.8" font-family="Helvetica,sans-Serif" font-size="8.00">+ VerticalMenu (GameState state, WidgetInfo info, DisplayLayer drawOrder)</text>
<text text-anchor="start" x="1718" y="-457.8" font-family="Helvetica,sans-Serif" font-size="8.00">+ Align (Viewport viewport, float scale, int posX, int posY, int? sizeX)</text>
<text text-anchor="start" x="1718" y="-445.8" font-family="Helvetica,sans-Serif" font-size="8.00">+ AddButton (MenuItemInfo info) : MenuButton</text>
<text text-anchor="start" x="1718" y="-433.8" font-family="Helvetica,sans-Serif" font-size="8.00">+ AddDropDown (MenuItemInfo info, DistinctOptionInfo option)</text>
<text text-anchor="start" x="1718" y="-421.8" font-family="Helvetica,sans-Serif" font-size="8.00">+ AddDropDown (MenuItemInfo info, DropDownMenuItem[] items, DropDownMenuItem defaultItem)</text>
<text text-anchor="start" x="1718" y="-409.8" font-family="Helvetica,sans-Serif" font-size="8.00">+ Draw (GameTime gameTime)</text>
<text text-anchor="start" x="1718" y="-397.8" font-family="Helvetica,sans-Serif" font-size="8.00">+ Align (Viewport viewport, float scale, Vector2? givenPosition)</text>
</g>
<!-- Box_Menu&#45;&gt;Box_VerticalMenu -->
<g id="edge32" class="edge"><title>Box_Menu&#45;&gt;Box_VerticalMenu</title>
<path fill="none" stroke="midnightblue" d="M1898,-620.57C1898,-598.731 1898,-577.066 1898,-557.334"/>
<polygon fill="none" stroke="midnightblue" points="1894.5,-620.609 1898,-630.609 1901.5,-620.609 1894.5,-620.609"/>
</g>
<!-- Box_MenuItem -->
<g id="node16" class="node"><title>Box_MenuItem</title>
<polygon fill="#fcfcda" stroke="black" points="217.5,-353 217.5,-593 552.5,-593 552.5,-353 217.5,-353"/>
<text text-anchor="middle" x="385" y="-581.8" font-family="Helvetica,sans-Serif" font-size="8.00">MenuItem</text>
<polyline fill="none" stroke="black" points="217.5,-573 552.5,-573 "/>
<text text-anchor="start" x="225.5" y="-561.8" font-family="Helvetica,sans-Serif" font-size="8.00">Attributes:</text>
<text text-anchor="start" x="225.5" y="-549.8" font-family="Helvetica,sans-Serif" font-size="8.00"># spriteBatch : SpriteBatch</text>
<text text-anchor="start" x="225.5" y="-537.8" font-family="Helvetica,sans-Serif" font-size="8.00">+ IsMouseEventEnabled : bool</text>
<text text-anchor="start" x="225.5" y="-525.8" font-family="Helvetica,sans-Serif" font-size="8.00">+ ValidKeys : List&lt;Keys&gt;</text>
<text text-anchor="start" x="225.5" y="-513.8" font-family="Helvetica,sans-Serif" font-size="8.00">+ IsKeyEventEnabled : bool</text>
<text text-anchor="start" x="225.5" y="-501.8" font-family="Helvetica,sans-Serif" font-size="8.00">+ Info : MenuItemInfo</text>
<text text-anchor="start" x="225.5" y="-489.8" font-family="Helvetica,sans-Serif" font-size="8.00">Methods:</text>
<polyline fill="none" stroke="black" points="217.5,-481 552.5,-481 "/>
<text text-anchor="start" x="225.5" y="-469.8" font-family="Helvetica,sans-Serif" font-size="8.00">+ MenuItem (GameState state, DisplayLayer drawOrder, int itemNum, MenuItemInfo info)</text>
<text text-anchor="start" x="225.5" y="-457.8" font-family="Helvetica,sans-Serif" font-size="8.00">+ Collapse () virtual</text>
<text text-anchor="start" x="225.5" y="-445.8" font-family="Helvetica,sans-Serif" font-size="8.00">+ OnKeyEvent (List&lt;Keys&gt; key, KeyEvent keyEvent, GameTime gameTime)</text>
<text text-anchor="start" x="225.5" y="-433.8" font-family="Helvetica,sans-Serif" font-size="8.00">+ OnLeftClick (Vector2 position, ClickState click, GameTime gameTime)</text>
<text text-anchor="start" x="225.5" y="-421.8" font-family="Helvetica,sans-Serif" font-size="8.00">+ OnRightClick (Vector2 position, ClickState click, GameTime gameTime)</text>
<text text-anchor="start" x="225.5" y="-409.8" font-family="Helvetica,sans-Serif" font-size="8.00">+ MinimumSize (SpriteFont font) : Vector2</text>
<text text-anchor="start" x="225.5" y="-397.8" font-family="Helvetica,sans-Serif" font-size="8.00">+ TextPosition (SpriteFont font) : Vector2</text>
<text text-anchor="start" x="225.5" y="-385.8" font-family="Helvetica,sans-Serif" font-size="8.00">+ TextPosition (SpriteFont font, Vector2 scale) : Vector2</text>
<text text-anchor="start" x="225.5" y="-373.8" font-family="Helvetica,sans-Serif" font-size="8.00">+ Draw (GameTime gameTime)</text>
<text text-anchor="start" x="225.5" y="-361.8" font-family="Helvetica,sans-Serif" font-size="8.00">+ SetHovered (bool hovered)</text>
</g>
<!-- Box_ItemWidget&#45;&gt;Box_MenuItem -->
<g id="edge40" class="edge"><title>Box_ItemWidget&#45;&gt;Box_MenuItem</title>
<path fill="none" stroke="midnightblue" d="M1130.7,-725.541C1098.54,-693.244 1054.3,-654.236 1008,-630 864.215,-554.735 682.624,-514.309 552.649,-493.433"/>
<polygon fill="none" stroke="midnightblue" points="1128.27,-728.068 1137.78,-732.744 1133.27,-723.16 1128.27,-728.068"/>
</g>
<!-- Box_DropDownMenu -->
<g id="node17" class="node"><title>Box_DropDownMenu</title>
<polygon fill="#fcfcda" stroke="black" points="21.5,-111 21.5,-315 380.5,-315 380.5,-111 21.5,-111"/>
<text text-anchor="middle" x="201" y="-303.8" font-family="Helvetica,sans-Serif" font-size="8.00">DropDownMenu</text>
<polyline fill="none" stroke="black" points="21.5,-295 380.5,-295 "/>
<text text-anchor="start" x="29.5" y="-283.8" font-family="Helvetica,sans-Serif" font-size="8.00">Attributes:</text>
<text text-anchor="start" x="29.5" y="-271.8" font-family="Helvetica,sans-Serif" font-size="8.00">&#45; selected : MenuButton</text>
<text text-anchor="start" x="29.5" y="-259.8" font-family="Helvetica,sans-Serif" font-size="8.00">&#45; dropdown : VerticalMenu</text>
<text text-anchor="start" x="29.5" y="-247.8" font-family="Helvetica,sans-Serif" font-size="8.00">Methods:</text>
<polyline fill="none" stroke="black" points="21.5,-239 380.5,-239 "/>
<text text-anchor="start" x="29.5" y="-227.8" font-family="Helvetica,sans-Serif" font-size="8.00">&#45; ValuePosition (int dummy) : Vector2</text>
<text text-anchor="start" x="29.5" y="-215.8" font-family="Helvetica,sans-Serif" font-size="8.00">+ DropDownMenu (GameState state, DisplayLayer drawOrder, int itemNum, MenuItemInfo info)</text>
<text text-anchor="start" x="29.5" y="-203.8" font-family="Helvetica,sans-Serif" font-size="8.00">&#45; DropDownBackgroundColor (ItemState itemState) : Color</text>
<text text-anchor="start" x="29.5" y="-191.8" font-family="Helvetica,sans-Serif" font-size="8.00">&#45; DropDownForegroundColor (ItemState itemState) : Color</text>
<text text-anchor="start" x="29.5" y="-179.8" font-family="Helvetica,sans-Serif" font-size="8.00">&#45; ValueSize (int dummy) : Vector2</text>
<text text-anchor="start" x="29.5" y="-167.8" font-family="Helvetica,sans-Serif" font-size="8.00">+ SubComponents (GameTime gameTime) : IEnumerable&lt;IGameStateComponent&gt;</text>
<text text-anchor="start" x="29.5" y="-155.8" font-family="Helvetica,sans-Serif" font-size="8.00">+ Collapse ()</text>
<text text-anchor="start" x="29.5" y="-143.8" font-family="Helvetica,sans-Serif" font-size="8.00">+ Draw (GameTime gameTime)</text>
<text text-anchor="start" x="29.5" y="-131.8" font-family="Helvetica,sans-Serif" font-size="8.00">+ AddEntries (DistinctOptionInfo option)</text>
<text text-anchor="start" x="29.5" y="-119.8" font-family="Helvetica,sans-Serif" font-size="8.00">+ AddEntries (DropDownMenuItem[] entries, DropDownMenuItem defaultEntry)</text>
</g>
<!-- Box_MenuItem&#45;&gt;Box_DropDownMenu -->
<g id="edge46" class="edge"><title>Box_MenuItem&#45;&gt;Box_DropDownMenu</title>
<path fill="none" stroke="midnightblue" d="M294.122,-344.586C287.116,-334.686 280.101,-324.773 273.24,-315.078"/>
<polygon fill="none" stroke="midnightblue" points="291.368,-346.753 300.002,-352.894 297.082,-342.709 291.368,-346.753"/>
</g>
<!-- Box_MenuButton -->
<g id="node18" class="node"><title>Box_MenuButton</title>
<polygon fill="#fcfcda" stroke="black" points="397.5,-177 397.5,-249 740.5,-249 740.5,-177 397.5,-177"/>
<text text-anchor="middle" x="569" y="-237.8" font-family="Helvetica,sans-Serif" font-size="8.00">MenuButton</text>
<polyline fill="none" stroke="black" points="397.5,-229 740.5,-229 "/>
<text text-anchor="start" x="405.5" y="-217.8" font-family="Helvetica,sans-Serif" font-size="8.00">Attributes:</text>
<text text-anchor="start" x="405.5" y="-205.8" font-family="Helvetica,sans-Serif" font-size="8.00">Methods:</text>
<polyline fill="none" stroke="black" points="397.5,-197 740.5,-197 "/>
<text text-anchor="start" x="405.5" y="-185.8" font-family="Helvetica,sans-Serif" font-size="8.00">+ MenuButton (GameState state, DisplayLayer drawOrder, int itemNum, MenuItemInfo info)</text>
</g>
<!-- Box_MenuItem&#45;&gt;Box_MenuButton -->
<g id="edge48" class="edge"><title>Box_MenuItem&#45;&gt;Box_MenuButton</title>
<path fill="none" stroke="midnightblue" d="M475.962,-344.467C500.782,-309.395 525.703,-274.181 543.497,-249.037"/>
<polygon fill="none" stroke="midnightblue" points="472.918,-342.709 469.998,-352.894 478.632,-346.753 472.918,-342.709"/>
</g>
<!-- Box_XnaDrawableGameComponent -->
<g id="node19" class="node"><title>Box_XnaDrawableGameComponent</title>
<polygon fill="#ffffff" stroke="black" points="649.5,-1461 649.5,-1481 780.5,-1481 780.5,-1461 649.5,-1461"/>
<text text-anchor="middle" x="715" y="-1469.8" font-family="Helvetica,sans-Serif" font-size="8.00">Xna.DrawableGameComponent</text>
</g>
<!-- Box_XnaDrawableGameComponent&#45;&gt;Box_DrawableGameStateComponent -->
<g id="edge2" class="edge"><title>Box_XnaDrawableGameComponent&#45;&gt;Box_DrawableGameStateComponent</title>
<path fill="none" stroke="midnightblue" d="M699.148,-1453.44C684.817,-1437.57 662.95,-1413.36 642.861,-1391.11"/>
<polygon fill="none" stroke="midnightblue" points="696.606,-1455.85 705.905,-1460.93 701.801,-1451.16 696.606,-1455.85"/>
</g>
<!-- Box_XnaIGameComponent -->
<g id="node20" class="node"><title>Box_XnaIGameComponent</title>
<polygon fill="#ffffff" stroke="black" points="423.5,-1551 423.5,-1571 522.5,-1571 522.5,-1551 423.5,-1551"/>
<text text-anchor="middle" x="473" y="-1559.8" font-family="Helvetica,sans-Serif" font-size="8.00">Xna.IGameComponent</text>
</g>
<!-- Box_XnaIGameComponent&#45;&gt;Box_IGameStateComponent -->
<g id="edge6" class="edge"><title>Box_XnaIGameComponent&#45;&gt;Box_IGameStateComponent</title>
<path fill="none" stroke="midnightblue" d="M473,-1540.45C473,-1532.39 473,-1522.83 473,-1513.41"/>
<polygon fill="none" stroke="midnightblue" points="469.5,-1540.68 473,-1550.68 476.5,-1540.68 469.5,-1540.68"/>
</g>
<!-- Box_IEnumerable -->
<g id="node21" class="node"><title>Box_IEnumerable</title>
<polygon fill="#ffffff" stroke="black" points="1107,-1327 1107,-1347 1225,-1347 1225,-1327 1107,-1327"/>
<text text-anchor="middle" x="1166" y="-1335.8" font-family="Helvetica,sans-Serif" font-size="8.00">IEnumerable&lt;IGameObject&gt;</text>
</g>
<!-- Box_IEnumerable&#45;&gt;Box_World -->
<g id="edge14" class="edge"><title>Box_IEnumerable&#45;&gt;Box_World</title>
<path fill="none" stroke="midnightblue" d="M1166,-1316.73C1166,-1297.13 1166,-1265.68 1166,-1233.03"/>
<polygon fill="none" stroke="midnightblue" points="1162.5,-1316.82 1166,-1326.82 1169.5,-1316.82 1162.5,-1316.82"/>
</g>
<!-- Box_IMouseEventListener -->
<g id="node22" class="node"><title>Box_IMouseEventListener</title>
<polygon fill="#ffffff" stroke="black" points="510,-1097 510,-1117 602,-1117 602,-1097 510,-1097"/>
<text text-anchor="middle" x="556" y="-1105.8" font-family="Helvetica,sans-Serif" font-size="8.00">IMouseEventListener</text>
</g>
<!-- Box_IMouseEventListener&#45;&gt;Box_ColorPicker -->
<g id="edge20" class="edge"><title>Box_IMouseEventListener&#45;&gt;Box_ColorPicker</title>
<path fill="none" stroke="midnightblue" d="M555.874,-1086.53C555.649,-1049.77 555.159,-969.976 554.737,-901.151"/>
<polygon fill="none" stroke="midnightblue" points="552.377,-1086.91 555.938,-1096.89 559.376,-1086.86 552.377,-1086.91"/>
</g>
<!-- Box_IMouseEventListener&#45;&gt;Box_MenuItem -->
<g id="edge42" class="edge"><title>Box_IMouseEventListener&#45;&gt;Box_MenuItem</title>
<path fill="none" stroke="midnightblue" d="M553.66,-1086.67C549.077,-1056.37 536.088,-999.533 501,-968 456.409,-927.927 407.298,-979.715 371,-932 298.175,-836.267 316.052,-693.946 343.015,-593.204"/>
<polygon fill="none" stroke="midnightblue" points="550.231,-1087.44 555.033,-1096.88 557.168,-1086.5 550.231,-1087.44"/>
</g>
<!-- Box_IKeyEventListener -->
<g id="node23" class="node"><title>Box_IKeyEventListener</title>
<polygon fill="#ffffff" stroke="black" points="622.5,-1097 622.5,-1117 703.5,-1117 703.5,-1097 622.5,-1097"/>
<text text-anchor="middle" x="663" y="-1105.8" font-family="Helvetica,sans-Serif" font-size="8.00">IKeyEventListener</text>
</g>
<!-- Box_IKeyEventListener&#45;&gt;Box_TextInput -->
<g id="edge36" class="edge"><title>Box_IKeyEventListener&#45;&gt;Box_TextInput</title>
<path fill="none" stroke="midnightblue" d="M668.276,-1087.07C676.063,-1059.34 692.11,-1008.02 714,-968 733.466,-932.415 759.251,-896.243 783.503,-865.315"/>
<polygon fill="none" stroke="midnightblue" points="664.881,-1086.22 665.617,-1096.79 671.633,-1088.06 664.881,-1086.22"/>
</g>
<!-- Box_IKeyEventListener&#45;&gt;Box_MenuItem -->
<g id="edge44" class="edge"><title>Box_IKeyEventListener&#45;&gt;Box_MenuItem</title>
<path fill="none" stroke="midnightblue" d="M661.556,-1086.67C658.218,-1055.93 647.206,-998.035 611,-968 539.129,-908.38 465.573,-1002.21 404,-932 361.337,-883.356 365.121,-711.997 373.613,-593.014"/>
<polygon fill="none" stroke="midnightblue" points="658.074,-1087.02 662.471,-1096.66 665.045,-1086.39 658.074,-1087.02"/>
</g>
</g>
</svg>
