<?xml version="1.0" encoding="UTF-8" standalone="no"?>
<!DOCTYPE svg PUBLIC "-//W3C//DTD SVG 1.1//EN"
 "http://www.w3.org/Graphics/SVG/1.1/DTD/svg11.dtd">
<!-- Generated by graphviz version 2.26.3 (20100126.1600)
 -->
<!-- Title: MenuItem Pages: 1 -->
<svg width="3658pt" height="2367pt"
 viewBox="0.00 0.00 878.00 568.00" xmlns="http://www.w3.org/2000/svg" xmlns:xlink="http://www.w3.org/1999/xlink">
<g id="graph1" class="graph" transform="scale(4.16667 4.16667) rotate(0) translate(4 564)">
<title>MenuItem</title>
<polygon fill="white" stroke="white" points="-4,5 -4,-564 875,-564 875,5 -4,5"/>
<!-- Box_GameModel -->
<g id="node1" class="node"><title>Box_GameModel</title>
<polygon fill="#fcfcda" stroke="black" points="338.5,-133 338.5,-427 547.5,-427 547.5,-133 338.5,-133"/>
<text text-anchor="middle" x="443" y="-415.8" font-family="Arial" font-size="8.00">GameModel</text>
<polyline fill="none" stroke="black" points="338.5,-409 547.5,-409 "/>
<text text-anchor="start" x="346.5" y="-397.8" font-family="Arial" font-size="8.00">&#45; IGameObject.Info : GameObjectInfo</text>
<text text-anchor="start" x="346.5" y="-387.8" font-family="Arial" font-size="8.00">&#45; _rotation : Angles3</text>
<text text-anchor="start" x="346.5" y="-377.8" font-family="Arial" font-size="8.00">&#45; Bounds : BoundingSphere[]</text>
<text text-anchor="start" x="346.5" y="-367.8" font-family="Arial" font-size="8.00">&#45; _bounds : BoundingSphere[]</text>
<text text-anchor="start" x="346.5" y="-357.8" font-family="Arial" font-size="8.00">&#45; _worldMatrix : Matrix</text>
<text text-anchor="start" x="346.5" y="-347.8" font-family="Arial" font-size="8.00">&#45; _position : Vector3</text>
<text text-anchor="start" x="346.5" y="-337.8" font-family="Arial" font-size="8.00">&#45; _inFrustum : bool</text>
<text text-anchor="start" x="346.5" y="-327.8" font-family="Arial" font-size="8.00"># InCameraFrustum : bool</text>
<text text-anchor="start" x="346.5" y="-317.8" font-family="Arial" font-size="8.00">+ BaseColor : Color</text>
<text text-anchor="start" x="346.5" y="-307.8" font-family="Arial" font-size="8.00">+ HighlightColor : Color</text>
<text text-anchor="start" x="346.5" y="-297.8" font-family="Arial" font-size="8.00">+ Info : GameModelInfo</text>
<text text-anchor="start" x="346.5" y="-287.8" font-family="Arial" font-size="8.00">+ WorldMatrix : Matrix</text>
<text text-anchor="start" x="346.5" y="-277.8" font-family="Arial" font-size="8.00">+ World : World</text>
<text text-anchor="start" x="346.5" y="-267.8" font-family="Arial" font-size="8.00">+ Alpha : float</text>
<text text-anchor="start" x="346.5" y="-257.8" font-family="Arial" font-size="8.00">+ HighlightIntensity : float</text>
<text text-anchor="start" x="346.5" y="-247.8" font-family="Arial" font-size="8.00">&#45; _scale : Vector3</text>
<text text-anchor="start" x="346.5" y="-237.8" font-family="Arial" font-size="8.00">&#45; _world : World</text>
<text text-anchor="start" x="346.5" y="-227.8" font-family="Arial" font-size="8.00"># state : GameState</text>
<text text-anchor="start" x="346.5" y="-217.8" font-family="Arial" font-size="8.00">+ Model : Model virtual</text>
<polyline fill="none" stroke="black" points="338.5,-211 547.5,-211 "/>
<text text-anchor="start" x="346.5" y="-199.8" font-family="Arial" font-size="8.00">&#45; OnViewChanged ()</text>
<text text-anchor="start" x="346.5" y="-189.8" font-family="Arial" font-size="8.00">&#45; UpdatePrecomputed ()</text>
<text text-anchor="start" x="346.5" y="-179.8" font-family="Arial" font-size="8.00">+ GameModel (GameState state, GameModelInfo info)</text>
<text text-anchor="start" x="346.5" y="-169.8" font-family="Arial" font-size="8.00">+ Draw (GameTime gameTime) virtual</text>
<text text-anchor="start" x="346.5" y="-159.8" font-family="Arial" font-size="8.00">+ Center () : Vector3</text>
<text text-anchor="start" x="346.5" y="-149.8" font-family="Arial" font-size="8.00">+ Intersects (Ray ray) : GameObjectDistance virtual</text>
<text text-anchor="start" x="346.5" y="-139.8" font-family="Arial" font-size="8.00">+ Update (GameTime gameTime) virtual</text>
</g>
<!-- Box_ArrowModel -->
<g id="node3" class="node"><title>Box_ArrowModel</title>
<polygon fill="#fcfcda" stroke="black" points="-0.5,-6 -0.5,-90 214.5,-90 214.5,-6 -0.5,-6"/>
<text text-anchor="middle" x="107" y="-78.8" font-family="Arial" font-size="8.00">ArrowModel</text>
<polyline fill="none" stroke="black" points="-0.5,-72 214.5,-72 "/>
<text text-anchor="start" x="7.5" y="-60.8" font-family="Arial" font-size="8.00">&#45; Bounds : BoundingSphere[]</text>
<text text-anchor="start" x="7.5" y="-50.8" font-family="Arial" font-size="8.00">+ Info : ArrowModelInfo</text>
<polyline fill="none" stroke="black" points="-0.5,-44 214.5,-44 "/>
<text text-anchor="start" x="7.5" y="-32.8" font-family="Arial" font-size="8.00">+ ArrowModel (GameState state, ArrowModelInfo info)</text>
<text text-anchor="start" x="7.5" y="-22.8" font-family="Arial" font-size="8.00">+ Intersects (Ray ray) : GameObjectDistance</text>
<text text-anchor="start" x="7.5" y="-12.8" font-family="Arial" font-size="8.00">+ Draw (GameTime gameTime)</text>
</g>
<!-- Box_GameModel&#45;&gt;Box_ArrowModel -->
<g id="edge4" class="edge"><title>Box_GameModel&#45;&gt;Box_ArrowModel</title>
<path fill="none" stroke="midnightblue" d="M329.816,-201.849C275.761,-164.525 213.203,-121.331 168.159,-90.2289"/>
<polygon fill="none" stroke="midnightblue" points="327.852,-204.746 338.07,-207.548 331.829,-198.986 327.852,-204.746"/>
</g>
<!-- Box_NodeModel -->
<g id="node4" class="node"><title>Box_NodeModel</title>
<polygon fill="#fcfcda" stroke="black" points="231.5,-16 231.5,-80 436.5,-80 436.5,-16 231.5,-16"/>
<text text-anchor="middle" x="334" y="-68.8" font-family="Arial" font-size="8.00">NodeModel</text>
<polyline fill="none" stroke="black" points="231.5,-62 436.5,-62 "/>
<text text-anchor="start" x="239.5" y="-50.8" font-family="Arial" font-size="8.00">+ Info : NodeModelInfo</text>
<polyline fill="none" stroke="black" points="231.5,-44 436.5,-44 "/>
<text text-anchor="start" x="239.5" y="-32.8" font-family="Arial" font-size="8.00">+ NodeModel (GameState state, NodeModelInfo info)</text>
<text text-anchor="start" x="239.5" y="-22.8" font-family="Arial" font-size="8.00">+ Draw (GameTime gameTime)</text>
</g>
<!-- Box_GameModel&#45;&gt;Box_NodeModel -->
<g id="edge6" class="edge"><title>Box_GameModel&#45;&gt;Box_NodeModel</title>
<path fill="none" stroke="midnightblue" d="M369.52,-123.602C361.888,-107.357 354.823,-92.32 349.037,-80.0055"/>
<polygon fill="none" stroke="midnightblue" points="366.394,-125.18 373.814,-132.742 372.73,-122.203 366.394,-125.18"/>
</g>
<!-- Box_PipeModel -->
<g id="node5" class="node"><title>Box_PipeModel</title>
<polygon fill="#fcfcda" stroke="black" points="453.5,-1 453.5,-95 650.5,-95 650.5,-1 453.5,-1"/>
<text text-anchor="middle" x="552" y="-83.8" font-family="Arial" font-size="8.00">PipeModel</text>
<polyline fill="none" stroke="black" points="453.5,-77 650.5,-77 "/>
<text text-anchor="start" x="461.5" y="-65.8" font-family="Arial" font-size="8.00">&#45; Bounds : BoundingSphere[]</text>
<text text-anchor="start" x="461.5" y="-55.8" font-family="Arial" font-size="8.00">+ Info : PipeModelInfo</text>
<polyline fill="none" stroke="black" points="453.5,-49 650.5,-49 "/>
<text text-anchor="start" x="461.5" y="-37.8" font-family="Arial" font-size="8.00">+ OnDataChange () : Action</text>
<text text-anchor="start" x="461.5" y="-27.8" font-family="Arial" font-size="8.00">+ PipeModel (GameState state, PipeModelInfo info)</text>
<text text-anchor="start" x="461.5" y="-17.8" font-family="Arial" font-size="8.00">+ Intersects (Ray ray) : GameObjectDistance</text>
<text text-anchor="start" x="461.5" y="-7.8" font-family="Arial" font-size="8.00">+ Draw (GameTime gameTime)</text>
</g>
<!-- Box_GameModel&#45;&gt;Box_PipeModel -->
<g id="edge8" class="edge"><title>Box_GameModel&#45;&gt;Box_PipeModel</title>
<path fill="none" stroke="midnightblue" d="M516.576,-123.397C521.295,-113.353 525.796,-103.773 529.91,-95.0174"/>
<polygon fill="none" stroke="midnightblue" points="513.27,-122.203 512.186,-132.742 519.606,-125.18 513.27,-122.203"/>
</g>
<!-- Box_TestModel -->
<g id="node6" class="node"><title>Box_TestModel</title>
<polygon fill="#fcfcda" stroke="black" points="667.5,-16 667.5,-80 870.5,-80 870.5,-16 667.5,-16"/>
<text text-anchor="middle" x="769" y="-68.8" font-family="Arial" font-size="8.00">TestModel</text>
<polyline fill="none" stroke="black" points="667.5,-62 870.5,-62 "/>
<text text-anchor="middle" x="769" y="-50.8" font-family="Arial" font-size="8.00"> </text>
<polyline fill="none" stroke="black" points="667.5,-44 870.5,-44 "/>
<text text-anchor="start" x="675.5" y="-32.8" font-family="Arial" font-size="8.00">+ Update (GameTime gameTime)</text>
<text text-anchor="start" x="675.5" y="-22.8" font-family="Arial" font-size="8.00">+ TestModel (GameState state, GameModelInfo info)</text>
</g>
<!-- Box_GameModel&#45;&gt;Box_TestModel -->
<g id="edge10" class="edge"><title>Box_GameModel&#45;&gt;Box_TestModel</title>
<path fill="none" stroke="midnightblue" d="M556.367,-199.322C613.937,-158.351 680.639,-110.882 723.759,-80.1957"/>
<polygon fill="none" stroke="midnightblue" points="554.061,-196.667 547.943,-205.317 558.12,-202.37 554.061,-196.667"/>
</g>
<!-- Box_IGameObject -->
<g id="node2" class="node"><title>Box_IGameObject</title>
<polygon fill="#dafcda" stroke="black" points="353.5,-465 353.5,-559 532.5,-559 532.5,-465 353.5,-465"/>
<text text-anchor="middle" x="443" y="-547.8" font-family="Arial" font-size="8.00">IGameObject</text>
<polyline fill="none" stroke="black" points="353.5,-541 532.5,-541 "/>
<text text-anchor="start" x="361.5" y="-529.8" font-family="Arial" font-size="8.00">+ Info : GameObjectInfo</text>
<text text-anchor="start" x="361.5" y="-519.8" font-family="Arial" font-size="8.00">+ World : World</text>
<polyline fill="none" stroke="black" points="353.5,-513 532.5,-513 "/>
<text text-anchor="start" x="361.5" y="-501.8" font-family="Arial" font-size="8.00">+ Draw (GameTime gameTime)</text>
<text text-anchor="start" x="361.5" y="-491.8" font-family="Arial" font-size="8.00">+ Update (GameTime gameTime)</text>
<text text-anchor="start" x="361.5" y="-481.8" font-family="Arial" font-size="8.00">+ Intersects (Ray ray) : GameObjectDistance</text>
<text text-anchor="start" x="361.5" y="-471.8" font-family="Arial" font-size="8.00">+ Center () : Vector3</text>
</g>
<!-- Box_IGameObject&#45;&gt;Box_GameModel -->
<g id="edge2" class="edge"><title>Box_IGameObject&#45;&gt;Box_GameModel</title>
<path fill="none" stroke="midnightblue" d="M443,-454.563C443,-445.94 443,-436.731 443,-427.221"/>
<polygon fill="none" stroke="midnightblue" points="439.5,-454.772 443,-464.772 446.5,-454.772 439.5,-454.772"/>
</g>
</g>
</svg>
