<?xml version="1.0" encoding="UTF-8" standalone="no"?>
<!DOCTYPE svg PUBLIC "-//W3C//DTD SVG 1.1//EN"
 "http://www.w3.org/Graphics/SVG/1.1/DTD/svg11.dtd">
<!-- Generated by graphviz version 2.26.3 (20100126.1600)
 -->
<!-- Title: MenuItem Pages: 1 -->
<svg width="1068pt" height="542pt"
 viewBox="0.00 0.00 1068.00 542.00" xmlns="http://www.w3.org/2000/svg" xmlns:xlink="http://www.w3.org/1999/xlink">
<g id="graph1" class="graph" transform="scale(1 1) rotate(0) translate(4 538)">
<title>MenuItem</title>
<polygon fill="white" stroke="white" points="-4,5 -4,-538 1065,-538 1065,5 -4,5"/>
<!-- Box_IRenderEffect -->
<g id="node1" class="node"><title>Box_IRenderEffect</title>
<polygon fill="#dafcda" stroke="black" points="418.5,-425 418.5,-533 643.5,-533 643.5,-425 418.5,-425"/>
<text text-anchor="middle" x="531" y="-521.8" font-family="Helvetica,sans-Serif" font-size="8.00">IRenderEffect</text>
<polyline fill="none" stroke="black" points="418.5,-513 643.5,-513 "/>
<text text-anchor="start" x="426.5" y="-501.8" font-family="Helvetica,sans-Serif" font-size="8.00">+ RenderTarget : RenderTarget2D</text>
<polyline fill="none" stroke="black" points="418.5,-493 643.5,-493 "/>
<text text-anchor="start" x="426.5" y="-481.8" font-family="Helvetica,sans-Serif" font-size="8.00">+ Begin (GameTime gameTime)</text>
<text text-anchor="start" x="426.5" y="-469.8" font-family="Helvetica,sans-Serif" font-size="8.00">+ End (GameTime gameTime)</text>
<text text-anchor="start" x="426.5" y="-457.8" font-family="Helvetica,sans-Serif" font-size="8.00">+ Draw (SpriteBatch spriteBatch, GameTime gameTime)</text>
<text text-anchor="start" x="426.5" y="-445.8" font-family="Helvetica,sans-Serif" font-size="8.00">+ RemapModel (Model model)</text>
<text text-anchor="start" x="426.5" y="-433.8" font-family="Helvetica,sans-Serif" font-size="8.00">+ DrawModel (GameModel model, GameTime gameTime)</text>
</g>
<!-- Box_RenderEffect -->
<g id="node6" class="node"><title>Box_RenderEffect</title>
<polygon fill="#fcfcda" stroke="black" points="406,-207 406,-387 656,-387 656,-207 406,-207"/>
<text text-anchor="middle" x="531" y="-375.8" font-family="Helvetica,sans-Serif" font-size="8.00">RenderEffect</text>
<polyline fill="none" stroke="black" points="406,-367 656,-367 "/>
<text text-anchor="start" x="414" y="-355.8" font-family="Helvetica,sans-Serif" font-size="8.00"># state : GameState</text>
<text text-anchor="start" x="414" y="-343.8" font-family="Helvetica,sans-Serif" font-size="8.00">&#45; renderTarget : RenderTargetCache</text>
<text text-anchor="start" x="414" y="-331.8" font-family="Helvetica,sans-Serif" font-size="8.00">&#45; background : Color</text>
<text text-anchor="start" x="414" y="-319.8" font-family="Helvetica,sans-Serif" font-size="8.00">&#45; spriteBatch : SpriteBatch</text>
<text text-anchor="start" x="414" y="-307.8" font-family="Helvetica,sans-Serif" font-size="8.00">+ RenderTarget : RenderTarget2D</text>
<polyline fill="none" stroke="black" points="406,-299 656,-299 "/>
<text text-anchor="start" x="414" y="-287.8" font-family="Helvetica,sans-Serif" font-size="8.00">+ RenderEffect (GameState state)</text>
<text text-anchor="start" x="414" y="-275.8" font-family="Helvetica,sans-Serif" font-size="8.00">+ Begin (GameTime gameTime)</text>
<text text-anchor="start" x="414" y="-263.8" font-family="Helvetica,sans-Serif" font-size="8.00">+ Begin (Color background, GameTime gameTime) virtual</text>
<text text-anchor="start" x="414" y="-251.8" font-family="Helvetica,sans-Serif" font-size="8.00">+ End (GameTime gameTime) virtual</text>
<text text-anchor="start" x="414" y="-239.8" font-family="Helvetica,sans-Serif" font-size="8.00">+ Draw (SpriteBatch spriteBatch, GameTime gameTime) abstract</text>
<text text-anchor="start" x="414" y="-227.8" font-family="Helvetica,sans-Serif" font-size="8.00">+ RemapModel (Model model) virtual</text>
<text text-anchor="start" x="414" y="-215.8" font-family="Helvetica,sans-Serif" font-size="8.00">+ DrawModel (GameModel model, GameTime gameTime) virtual</text>
</g>
<!-- Box_IRenderEffect&#45;&gt;Box_RenderEffect -->
<g id="edge10" class="edge"><title>Box_IRenderEffect&#45;&gt;Box_RenderEffect</title>
<path fill="none" stroke="midnightblue" d="M531,-414.88C531,-405.853 531,-396.437 531,-387.036"/>
<polygon fill="none" stroke="midnightblue" points="527.5,-414.887 531,-424.887 534.5,-414.887 527.5,-414.887"/>
</g>
<!-- Box_BlurEffect -->
<g id="node2" class="node"><title>Box_BlurEffect</title>
<polygon fill="#fcfcda" stroke="black" points="-0.5,-37 -0.5,-133 250.5,-133 250.5,-37 -0.5,-37"/>
<text text-anchor="middle" x="125" y="-121.8" font-family="Helvetica,sans-Serif" font-size="8.00">BlurEffect</text>
<polyline fill="none" stroke="black" points="-0.5,-113 250.5,-113 "/>
<text text-anchor="start" x="7.5" y="-101.8" font-family="Helvetica,sans-Serif" font-size="8.00">&#45; testEffect : Effect static</text>
<polyline fill="none" stroke="black" points="-0.5,-93 250.5,-93 "/>
<text text-anchor="start" x="7.5" y="-81.8" font-family="Helvetica,sans-Serif" font-size="8.00">+ BlurEffect (GameState state)</text>
<text text-anchor="start" x="7.5" y="-69.8" font-family="Helvetica,sans-Serif" font-size="8.00">+ Begin (Color background, GameTime gameTime) override</text>
<text text-anchor="start" x="7.5" y="-57.8" font-family="Helvetica,sans-Serif" font-size="8.00">+ End (GameTime gameTime) override</text>
<text text-anchor="start" x="7.5" y="-45.8" font-family="Helvetica,sans-Serif" font-size="8.00">+ Draw (SpriteBatch spriteBatch, GameTime gameTime) override</text>
</g>
<!-- Box_CelShadingEffect -->
<g id="node3" class="node"><title>Box_CelShadingEffect</title>
<polygon fill="#fcfcda" stroke="black" points="267.5,-1 267.5,-169 524.5,-169 524.5,-1 267.5,-1"/>
<text text-anchor="middle" x="396" y="-157.8" font-family="Helvetica,sans-Serif" font-size="8.00">CelShadingEffect</text>
<polyline fill="none" stroke="black" points="267.5,-149 524.5,-149 "/>
<text text-anchor="start" x="275.5" y="-137.8" font-family="Helvetica,sans-Serif" font-size="8.00">&#45; celShader : Effect</text>
<text text-anchor="start" x="275.5" y="-125.8" font-family="Helvetica,sans-Serif" font-size="8.00">&#45; celMap : Texture2D</text>
<text text-anchor="start" x="275.5" y="-113.8" font-family="Helvetica,sans-Serif" font-size="8.00">&#45; lightDirection : Vector4</text>
<text text-anchor="start" x="275.5" y="-101.8" font-family="Helvetica,sans-Serif" font-size="8.00">&#45; outlineShader : Effect</text>
<text text-anchor="start" x="275.5" y="-89.8" font-family="Helvetica,sans-Serif" font-size="8.00">&#45; outlineThickness : float</text>
<text text-anchor="start" x="275.5" y="-77.8" font-family="Helvetica,sans-Serif" font-size="8.00">&#45; outlineThreshold : float</text>
<text text-anchor="start" x="275.5" y="-65.8" font-family="Helvetica,sans-Serif" font-size="8.00">+ Color : Color</text>
<polyline fill="none" stroke="black" points="267.5,-57 524.5,-57 "/>
<text text-anchor="start" x="275.5" y="-45.8" font-family="Helvetica,sans-Serif" font-size="8.00">+ CelShadingEffect (GameState state)</text>
<text text-anchor="start" x="275.5" y="-33.8" font-family="Helvetica,sans-Serif" font-size="8.00">+ Draw (SpriteBatch spriteBatch, GameTime gameTime) override</text>
<text text-anchor="start" x="275.5" y="-21.8" font-family="Helvetica,sans-Serif" font-size="8.00">+ RemapModel (Model model) override</text>
<text text-anchor="start" x="275.5" y="-9.8" font-family="Helvetica,sans-Serif" font-size="8.00">+ DrawModel (GameModel model, GameTime gameTime) override</text>
</g>
<!-- Box_FadeEffect -->
<g id="node4" class="node"><title>Box_FadeEffect</title>
<polygon fill="#fcfcda" stroke="black" points="541.5,-37 541.5,-133 792.5,-133 792.5,-37 541.5,-37"/>
<text text-anchor="middle" x="667" y="-121.8" font-family="Helvetica,sans-Serif" font-size="8.00">FadeEffect</text>
<polyline fill="none" stroke="black" points="541.5,-113 792.5,-113 "/>
<text text-anchor="start" x="549.5" y="-101.8" font-family="Helvetica,sans-Serif" font-size="8.00">&#45; lastFrame : RenderTarget2D</text>
<text text-anchor="start" x="549.5" y="-89.8" font-family="Helvetica,sans-Serif" font-size="8.00">&#45; alpha : float</text>
<text text-anchor="start" x="549.5" y="-77.8" font-family="Helvetica,sans-Serif" font-size="8.00">+ IsFinished : bool</text>
<polyline fill="none" stroke="black" points="541.5,-69 792.5,-69 "/>
<text text-anchor="start" x="549.5" y="-57.8" font-family="Helvetica,sans-Serif" font-size="8.00">+ FadeEffect (GameState state, GameState oldState)</text>
<text text-anchor="start" x="549.5" y="-45.8" font-family="Helvetica,sans-Serif" font-size="8.00">+ Draw (SpriteBatch spriteBatch, GameTime gameTime) override</text>
</g>
<!-- Box_NoEffect -->
<g id="node5" class="node"><title>Box_NoEffect</title>
<polygon fill="#fcfcda" stroke="black" points="809.5,-49 809.5,-121 1060.5,-121 1060.5,-49 809.5,-49"/>
<text text-anchor="middle" x="935" y="-109.8" font-family="Helvetica,sans-Serif" font-size="8.00">NoEffect</text>
<polyline fill="none" stroke="black" points="809.5,-101 1060.5,-101 "/>
<text text-anchor="middle" x="935" y="-89.8" font-family="Helvetica,sans-Serif" font-size="8.00"> </text>
<polyline fill="none" stroke="black" points="809.5,-81 1060.5,-81 "/>
<text text-anchor="start" x="817.5" y="-69.8" font-family="Helvetica,sans-Serif" font-size="8.00">+ NoEffect (GameState state)</text>
<text text-anchor="start" x="817.5" y="-57.8" font-family="Helvetica,sans-Serif" font-size="8.00">+ Draw (SpriteBatch spriteBatch, GameTime gameTime) override</text>
</g>
<!-- Box_RenderEffect&#45;&gt;Box_BlurEffect -->
<g id="edge2" class="edge"><title>Box_RenderEffect&#45;&gt;Box_BlurEffect</title>
<path fill="none" stroke="midnightblue" d="M396.663,-238.428C352.232,-217.963 302.94,-194.064 259,-170 238.461,-158.752 216.789,-145.602 197,-133.054"/>
<polygon fill="none" stroke="midnightblue" points="395.224,-241.619 405.773,-242.608 398.143,-235.257 395.224,-241.619"/>
</g>
<!-- Box_RenderEffect&#45;&gt;Box_CelShadingEffect -->
<g id="edge4" class="edge"><title>Box_RenderEffect&#45;&gt;Box_CelShadingEffect</title>
<path fill="none" stroke="midnightblue" d="M468.114,-198.245C461.904,-188.493 455.641,-178.659 449.538,-169.075"/>
<polygon fill="none" stroke="midnightblue" points="465.228,-200.23 473.552,-206.786 471.133,-196.471 465.228,-200.23"/>
</g>
<!-- Box_RenderEffect&#45;&gt;Box_FadeEffect -->
<g id="edge6" class="edge"><title>Box_RenderEffect&#45;&gt;Box_FadeEffect</title>
<path fill="none" stroke="midnightblue" d="M594.402,-198.168C608.876,-175.605 623.629,-152.607 636.023,-133.288"/>
<polygon fill="none" stroke="midnightblue" points="591.327,-196.479 588.873,-206.786 597.219,-200.258 591.327,-196.479"/>
</g>
<!-- Box_RenderEffect&#45;&gt;Box_NoEffect -->
<g id="edge8" class="edge"><title>Box_RenderEffect&#45;&gt;Box_NoEffect</title>
<path fill="none" stroke="midnightblue" d="M665.563,-237.754C709.34,-217.412 757.768,-193.756 801,-170 828.162,-155.074 857.329,-136.851 881.494,-121.112"/>
<polygon fill="none" stroke="midnightblue" points="663.9,-234.667 656.295,-242.044 666.84,-241.02 663.9,-234.667"/>
</g>
</g>
</svg>
