<?xml version="1.0" encoding="UTF-8" standalone="no"?>
<!DOCTYPE svg PUBLIC "-//W3C//DTD SVG 1.1//EN"
 "http://www.w3.org/Graphics/SVG/1.1/DTD/svg11.dtd">
<!-- Generated by graphviz version 2.26.3 (20100126.1600)
 -->
<!-- Title: MenuItem Pages: 1 -->
<svg width="559pt" height="532pt"
 viewBox="0.00 0.00 559.00 532.00" xmlns="http://www.w3.org/2000/svg" xmlns:xlink="http://www.w3.org/1999/xlink">
<g id="graph1" class="graph" transform="scale(1 1) rotate(0) translate(4 528)">
<title>MenuItem</title>
<polygon fill="white" stroke="white" points="-4,5 -4,-528 556,-528 556,5 -4,5"/>
<!-- Box_World -->
<g id="node1" class="node"><title>Box_World</title>
<polygon fill="#fcfcda" stroke="black" points="230.5,-1 230.5,-235 523.5,-235 523.5,-1 230.5,-1"/>
<text text-anchor="middle" x="377" y="-223.8" font-family="Arial" font-size="8.00">World</text>
<polyline fill="none" stroke="black" points="230.5,-217 523.5,-217 "/>
<text text-anchor="start" x="238.5" y="-205.8" font-family="Arial" font-size="8.00">&#45; currentEffect : IRenderEffect</text>
<text text-anchor="start" x="238.5" y="-195.8" font-family="Arial" font-size="8.00">&#45; _redraw : bool</text>
<text text-anchor="start" x="238.5" y="-185.8" font-family="Arial" font-size="8.00">+ SelectedObject : IGameObject</text>
<text text-anchor="start" x="238.5" y="-175.8" font-family="Arial" font-size="8.00">+ Objects : List&lt;IGameObject&gt;</text>
<text text-anchor="start" x="238.5" y="-165.8" font-family="Arial" font-size="8.00">+ Redraw : bool</text>
<text text-anchor="start" x="238.5" y="-155.8" font-family="Arial" font-size="8.00">&#45; _selectedObject : IGameObject</text>
<text text-anchor="start" x="238.5" y="-145.8" font-family="Arial" font-size="8.00">&#45; effects : List&lt;IRenderEffect&gt;</text>
<text text-anchor="start" x="238.5" y="-135.8" font-family="Arial" font-size="8.00">&#45; floor : TexturedRectangle</text>
<text text-anchor="start" x="238.5" y="-125.8" font-family="Arial" font-size="8.00">+ Camera : Camera</text>
<polyline fill="none" stroke="black" points="230.5,-119 523.5,-119 "/>
<text text-anchor="start" x="238.5" y="-107.8" font-family="Arial" font-size="8.00">+ SelectionChanged (o) : Action&lt;IGameObject&gt;</text>
<text text-anchor="start" x="238.5" y="-97.8" font-family="Arial" font-size="8.00">&#45; IEnumerable.GetEnumerator () : IEnumerator</text>
<text text-anchor="start" x="238.5" y="-87.8" font-family="Arial" font-size="8.00">+ World (GameScreen screen)</text>
<text text-anchor="start" x="238.5" y="-77.8" font-family="Arial" font-size="8.00">+ SelectedObjectDistance () : float</text>
<text text-anchor="start" x="238.5" y="-67.8" font-family="Arial" font-size="8.00">+ SubComponents (GameTime time) : IEnumerable&lt;IGameScreenComponent&gt;</text>
<text text-anchor="start" x="238.5" y="-57.8" font-family="Arial" font-size="8.00">+ Draw (GameTime time)</text>
<text text-anchor="start" x="238.5" y="-47.8" font-family="Arial" font-size="8.00">+ Update (GameTime time)</text>
<text text-anchor="start" x="238.5" y="-37.8" font-family="Arial" font-size="8.00">+ Add (IGameObject obj)</text>
<text text-anchor="start" x="238.5" y="-27.8" font-family="Arial" font-size="8.00">+ GetEnumerator () : IEnumerator&lt;IGameObject&gt;</text>
<text text-anchor="start" x="238.5" y="-17.8" font-family="Arial" font-size="8.00">+ Initialize ()</text>
<text text-anchor="start" x="238.5" y="-7.8" font-family="Arial" font-size="8.00">+ SelectObject (IGameObject obj, GameTime time)</text>
</g>
<!-- Box_DrawableGameScreenComponent -->
<g id="node2" class="node"><title>Box_DrawableGameScreenComponent</title>
<polygon fill="#fcfcda" stroke="black" points="102.5,-273 102.5,-357 419.5,-357 419.5,-273 102.5,-273"/>
<text text-anchor="middle" x="261" y="-345.8" font-family="Arial" font-size="8.00">DrawableGameScreenComponent</text>
<polyline fill="none" stroke="black" points="102.5,-339 419.5,-339 "/>
<text text-anchor="start" x="110.5" y="-327.8" font-family="Arial" font-size="8.00">+ Index : DisplayLayer</text>
<text text-anchor="start" x="110.5" y="-317.8" font-family="Arial" font-size="8.00">&#45; _index : DisplayLayer</text>
<text text-anchor="start" x="110.5" y="-307.8" font-family="Arial" font-size="8.00">+ screen : GameScreen</text>
<polyline fill="none" stroke="black" points="102.5,-301 419.5,-301 "/>
<text text-anchor="start" x="110.5" y="-289.8" font-family="Arial" font-size="8.00">+ DrawableGameScreenComponent (GameScreen screen, DisplayLayer index)</text>
<text text-anchor="start" x="110.5" y="-279.8" font-family="Arial" font-size="8.00">+ SubComponents (GameTime time) : IEnumerable&lt;IGameScreenComponent&gt; virtual</text>
</g>
<!-- Box_DrawableGameScreenComponent&#45;&gt;Box_World -->
<g id="edge2" class="edge"><title>Box_DrawableGameScreenComponent&#45;&gt;Box_World</title>
<path fill="none" stroke="midnightblue" d="M291.033,-263.996C296.326,-255.007 302.028,-245.324 307.886,-235.374"/>
<polygon fill="none" stroke="midnightblue" points="287.943,-262.346 285.885,-272.739 293.975,-265.897 287.943,-262.346"/>
</g>
<!-- Box_IGameScreenComponent -->
<g id="node3" class="node"><title>Box_IGameScreenComponent</title>
<polygon fill="#dafcda" stroke="black" points="-0.5,-395 -0.5,-449 292.5,-449 292.5,-395 -0.5,-395"/>
<text text-anchor="middle" x="146" y="-437.8" font-family="Arial" font-size="8.00">IGameScreenComponent</text>
<polyline fill="none" stroke="black" points="-0.5,-431 292.5,-431 "/>
<text text-anchor="start" x="7.5" y="-419.8" font-family="Arial" font-size="8.00">+ Index : DisplayLayer</text>
<polyline fill="none" stroke="black" points="-0.5,-413 292.5,-413 "/>
<text text-anchor="start" x="7.5" y="-401.8" font-family="Arial" font-size="8.00">+ SubComponents (GameTime time) : IEnumerable&lt;IGameScreenComponent&gt;</text>
</g>
<!-- Box_IGameScreenComponent&#45;&gt;Box_DrawableGameScreenComponent -->
<g id="edge8" class="edge"><title>Box_IGameScreenComponent&#45;&gt;Box_DrawableGameScreenComponent</title>
<path fill="none" stroke="midnightblue" d="M182.433,-388.102C192.91,-378.354 204.469,-367.598 215.425,-357.404"/>
<polygon fill="none" stroke="midnightblue" points="179.956,-385.625 175.019,-394.999 184.725,-390.75 179.956,-385.625"/>
</g>
<!-- Box_IEnumerable -->
<g id="node4" class="node"><title>Box_IEnumerable</title>
<polygon fill="#ffffff" stroke="black" points="436.5,-306 436.5,-324 551.5,-324 551.5,-306 436.5,-306"/>
<text text-anchor="middle" x="494" y="-312.8" font-family="Arial" font-size="8.00">IEnumerable&lt;IGameObject&gt;</text>
</g>
<!-- Box_IEnumerable&#45;&gt;Box_World -->
<g id="edge4" class="edge"><title>Box_IEnumerable&#45;&gt;Box_World</title>
<path fill="none" stroke="midnightblue" d="M483.388,-297.131C474.516,-282.194 461.025,-259.478 446.599,-235.188"/>
<polygon fill="none" stroke="midnightblue" points="480.398,-298.952 488.514,-305.763 486.417,-295.377 480.398,-298.952"/>
</g>
<!-- Box_XnaDrawableGameComponent -->
<g id="node5" class="node"><title>Box_XnaDrawableGameComponent</title>
<polygon fill="#ffffff" stroke="black" points="213,-496 213,-514 343,-514 343,-496 213,-496"/>
<text text-anchor="middle" x="278" y="-502.8" font-family="Arial" font-size="8.00">Xna.DrawableGameComponent</text>
</g>
<!-- Box_XnaIGameComponent -->
<g id="node6" class="node"><title>Box_XnaIGameComponent</title>
<polygon fill="#ffffff" stroke="black" points="361,-496 361,-514 457,-514 457,-496 361,-496"/>
<text text-anchor="middle" x="409" y="-502.8" font-family="Arial" font-size="8.00">Xna.IGameComponent</text>
</g>
<!-- Box_DrawableGameComponent -->
<g id="node9" class="node"><title>Box_DrawableGameComponent</title>
<polygon fill="none" stroke="black" points="310,-404 310,-440 442,-440 442,-404 310,-404"/>
<text text-anchor="middle" x="376" y="-419.8" font-family="Arial" font-size="8.00">Box_DrawableGameComponent</text>
</g>
<!-- Box_DrawableGameComponent&#45;&gt;Box_DrawableGameScreenComponent -->
<g id="edge6" class="edge"><title>Box_DrawableGameComponent&#45;&gt;Box_DrawableGameScreenComponent</title>
<path fill="none" stroke="midnightblue" d="M348.993,-396.871C336.316,-385.076 320.857,-370.693 306.454,-357.292"/>
<polygon fill="none" stroke="midnightblue" points="346.787,-399.599 356.492,-403.849 351.555,-394.475 346.787,-399.599"/>
</g>
<!-- Box_IGameComponent -->
<g id="node12" class="node"><title>Box_IGameComponent</title>
<polygon fill="none" stroke="black" points="97,-487 97,-523 195,-523 195,-487 97,-487"/>
<text text-anchor="middle" x="146" y="-502.8" font-family="Arial" font-size="8.00">Box_IGameComponent</text>
</g>
<!-- Box_IGameComponent&#45;&gt;Box_IGameScreenComponent -->
<g id="edge10" class="edge"><title>Box_IGameComponent&#45;&gt;Box_IGameScreenComponent</title>
<path fill="none" stroke="midnightblue" d="M146,-476.987C146,-467.995 146,-458.055 146,-449.127"/>
<polygon fill="none" stroke="midnightblue" points="142.5,-476.99 146,-486.99 149.5,-476.99 142.5,-476.99"/>
</g>
</g>
</svg>
