<?xml version="1.0" encoding="UTF-8" standalone="no"?>
<!DOCTYPE svg PUBLIC "-//W3C//DTD SVG 1.1//EN"
 "http://www.w3.org/Graphics/SVG/1.1/DTD/svg11.dtd">
<!-- Generated by graphviz version 2.26.3 (20100126.1600)
 -->
<!-- Title: MenuItem Pages: 1 -->
<svg width="1821pt" height="1558pt"
 viewBox="0.00 0.00 437.00 374.00" xmlns="http://www.w3.org/2000/svg" xmlns:xlink="http://www.w3.org/1999/xlink">
<g id="graph1" class="graph" transform="scale(4.16667 4.16667) rotate(0) translate(4 370)">
<title>MenuItem</title>
<polygon fill="white" stroke="white" points="-4,5 -4,-370 434,-370 434,5 -4,5"/>
<!-- Box_ModelMousePicker -->
<g id="node1" class="node"><title>Box_ModelMousePicker</title>
<polygon fill="#fcfcda" stroke="black" points="159.5,-1 159.5,-105 366.5,-105 366.5,-1 159.5,-1"/>
<text text-anchor="middle" x="263" y="-93.8" font-family="Arial" font-size="8.00">ModelMousePicker</text>
<polyline fill="none" stroke="black" points="159.5,-87 366.5,-87 "/>
<text text-anchor="start" x="167.5" y="-75.8" font-family="Arial" font-size="8.00">&#45; lastMousePosition : Vector2</text>
<text text-anchor="start" x="167.5" y="-65.8" font-family="Arial" font-size="8.00">&#45; World : World</text>
<text text-anchor="start" x="167.5" y="-55.8" font-family="Arial" font-size="8.00">&#45; lastRayCheck : double</text>
<polyline fill="none" stroke="black" points="159.5,-49 366.5,-49 "/>
<text text-anchor="start" x="167.5" y="-37.8" font-family="Arial" font-size="8.00">&#45; UpdateMouseRay (GameTime gameTime)</text>
<text text-anchor="start" x="167.5" y="-27.8" font-family="Arial" font-size="8.00">+ ModelMousePicker (GameState state, World world)</text>
<text text-anchor="start" x="167.5" y="-17.8" font-family="Arial" font-size="8.00">&#45; CheckMouseRay (GameTime gameTime)</text>
<text text-anchor="start" x="167.5" y="-7.8" font-family="Arial" font-size="8.00">+ Update (GameTime gameTime)</text>
</g>
<!-- Box_GameStateComponent -->
<g id="node2" class="node"><title>Box_GameStateComponent</title>
<polygon fill="#fcfcda" stroke="black" points="97,-143 97,-217 429,-217 429,-143 97,-143"/>
<text text-anchor="middle" x="263" y="-205.8" font-family="Arial" font-size="8.00">GameStateComponent</text>
<polyline fill="none" stroke="black" points="97,-199 429,-199 "/>
<text text-anchor="start" x="105" y="-187.8" font-family="Arial" font-size="8.00">+ Index : DisplayLayer</text>
<text text-anchor="start" x="105" y="-177.8" font-family="Arial" font-size="8.00">+ state : GameState</text>
<polyline fill="none" stroke="black" points="97,-171 429,-171 "/>
<text text-anchor="start" x="105" y="-159.8" font-family="Arial" font-size="8.00">+ GameStateComponent (GameState state, DisplayLayer index)</text>
<text text-anchor="start" x="105" y="-149.8" font-family="Arial" font-size="8.00">+ SubComponents (GameTime gameTime) : IEnumerable&lt;IGameStateComponent&gt; virtual</text>
</g>
<!-- Box_GameStateComponent&#45;&gt;Box_ModelMousePicker -->
<g id="edge2" class="edge"><title>Box_GameStateComponent&#45;&gt;Box_ModelMousePicker</title>
<path fill="none" stroke="midnightblue" d="M263,-132.74C263,-123.847 263,-114.498 263,-105.458"/>
<polygon fill="none" stroke="midnightblue" points="259.5,-132.925 263,-142.925 266.5,-132.925 259.5,-132.925"/>
</g>
<!-- Box_IGameStateComponent -->
<g id="node3" class="node"><title>Box_IGameStateComponent</title>
<polygon fill="#dafcda" stroke="black" points="0,-255 0,-309 308,-309 308,-255 0,-255"/>
<text text-anchor="middle" x="154" y="-297.8" font-family="Arial" font-size="8.00">IGameStateComponent</text>
<polyline fill="none" stroke="black" points="0,-291 308,-291 "/>
<text text-anchor="start" x="8" y="-279.8" font-family="Arial" font-size="8.00">+ Index : DisplayLayer</text>
<polyline fill="none" stroke="black" points="0,-273 308,-273 "/>
<text text-anchor="start" x="8" y="-261.8" font-family="Arial" font-size="8.00">+ SubComponents (GameTime gameTime) : IEnumerable&lt;IGameStateComponent&gt;</text>
</g>
<!-- Box_IGameStateComponent&#45;&gt;Box_GameStateComponent -->
<g id="edge6" class="edge"><title>Box_IGameStateComponent&#45;&gt;Box_GameStateComponent</title>
<path fill="none" stroke="midnightblue" d="M190.4,-247.937C200.952,-238.063 212.526,-227.233 223.27,-217.178"/>
<polygon fill="none" stroke="midnightblue" points="187.834,-245.545 182.924,-254.934 192.617,-250.656 187.834,-245.545"/>
</g>
<!-- Box_XnaGameComponent -->
<g id="node4" class="node"><title>Box_XnaGameComponent</title>
<polygon fill="#ffffff" stroke="black" points="325.5,-273 325.5,-291 420.5,-291 420.5,-273 325.5,-273"/>
<text text-anchor="middle" x="373" y="-279.8" font-family="Arial" font-size="8.00">Xna.GameComponent</text>
</g>
<!-- Box_XnaGameComponent&#45;&gt;Box_GameStateComponent -->
<g id="edge4" class="edge"><title>Box_XnaGameComponent&#45;&gt;Box_GameStateComponent</title>
<path fill="none" stroke="midnightblue" d="M355.743,-265.998C341.646,-252.926 321.159,-233.929 303.024,-217.113"/>
<polygon fill="none" stroke="midnightblue" points="353.526,-268.715 363.238,-272.948 358.285,-263.582 353.526,-268.715"/>
</g>
<!-- Box_XnaIGameComponent -->
<g id="node5" class="node"><title>Box_XnaIGameComponent</title>
<polygon fill="#ffffff" stroke="black" points="106,-347 106,-365 202,-365 202,-347 106,-347"/>
<text text-anchor="middle" x="154" y="-353.8" font-family="Arial" font-size="8.00">Xna.IGameComponent</text>
</g>
<!-- Box_XnaIGameComponent&#45;&gt;Box_IGameStateComponent -->
<g id="edge8" class="edge"><title>Box_XnaIGameComponent&#45;&gt;Box_IGameStateComponent</title>
<path fill="none" stroke="midnightblue" d="M154,-336.64C154,-328.2 154,-318.16 154,-309.004"/>
<polygon fill="none" stroke="midnightblue" points="150.5,-336.926 154,-346.926 157.5,-336.926 150.5,-336.926"/>
</g>
</g>
</svg>
