<?xml version="1.0" encoding="UTF-8" standalone="no"?>
<!DOCTYPE svg PUBLIC "-//W3C//DTD SVG 1.1//EN"
 "http://www.w3.org/Graphics/SVG/1.1/DTD/svg11.dtd">
<!-- Generated by graphviz version 2.26.3 (20100126.1600)
 -->
<!-- Title: MenuItem Pages: 1 -->
<svg width="842pt" height="538pt"
 viewBox="0.00 0.00 842.00 538.00" xmlns="http://www.w3.org/2000/svg" xmlns:xlink="http://www.w3.org/1999/xlink">
<g id="graph1" class="graph" transform="scale(1 1) rotate(0) translate(4 534)">
<title>MenuItem</title>
<polygon fill="white" stroke="white" points="-4,5 -4,-534 839,-534 839,5 -4,5"/>
<!-- Box_IMouseEventListener -->
<g id="node1" class="node"><title>Box_IMouseEventListener</title>
<polygon fill="#dafcda" stroke="black" points="186,-435 186,-529 438,-529 438,-435 186,-435"/>
<text text-anchor="middle" x="312" y="-517.8" font-family="Arial" font-size="8.00">IMouseEventListener</text>
<polyline fill="none" stroke="black" points="186,-511 438,-511 "/>
<text text-anchor="start" x="194" y="-499.8" font-family="Arial" font-size="8.00">+ Index : DisplayLayer</text>
<text text-anchor="start" x="194" y="-489.8" font-family="Arial" font-size="8.00">+ IsMouseEventEnabled : bool</text>
<polyline fill="none" stroke="black" points="186,-483 438,-483 "/>
<text text-anchor="start" x="194" y="-471.8" font-family="Arial" font-size="8.00">+ OnLeftClick (Vector2 position, ClickState click, GameTime time)</text>
<text text-anchor="start" x="194" y="-461.8" font-family="Arial" font-size="8.00">+ OnRightClick (Vector2 position, ClickState click, GameTime time)</text>
<text text-anchor="start" x="194" y="-451.8" font-family="Arial" font-size="8.00">+ SetHovered (bool hovered)</text>
<text text-anchor="start" x="194" y="-441.8" font-family="Arial" font-size="8.00">+ bounds () : Rectangle</text>
</g>
<!-- Box_ColorPicker -->
<g id="node2" class="node"><title>Box_ColorPicker</title>
<polygon fill="#fcfcda" stroke="black" points="0,-208 0,-392 300,-392 300,-208 0,-208"/>
<text text-anchor="middle" x="150" y="-380.8" font-family="Arial" font-size="8.00">ColorPicker</text>
<polyline fill="none" stroke="black" points="0,-374 300,-374 "/>
<text text-anchor="start" x="8" y="-362.8" font-family="Arial" font-size="8.00">&#45; tiles : List&lt;Vector2&gt;</text>
<text text-anchor="start" x="8" y="-352.8" font-family="Arial" font-size="8.00">+ SelectedColor : Color</text>
<text text-anchor="start" x="8" y="-342.8" font-family="Arial" font-size="8.00">+ IsMouseEventEnabled : bool</text>
<text text-anchor="start" x="8" y="-332.8" font-family="Arial" font-size="8.00">&#45; colors : List&lt;Color&gt;</text>
<text text-anchor="start" x="8" y="-322.8" font-family="Arial" font-size="8.00"># spriteBatch : SpriteBatch</text>
<text text-anchor="start" x="8" y="-312.8" font-family="Arial" font-size="8.00">+ OnSelectColor : Action&lt;Color&gt;</text>
<polyline fill="none" stroke="black" points="0,-306 300,-306 "/>
<text text-anchor="start" x="8" y="-294.8" font-family="Arial" font-size="8.00">&#45; Vector2 tileSize (0.032f, 0.032f) : readonly static</text>
<text text-anchor="start" x="8" y="-284.8" font-family="Arial" font-size="8.00">&#45; CreateTiles (IEnumerable&lt;Color&gt; _colors) : IEnumerable&lt;Vector2&gt; static</text>
<text text-anchor="start" x="8" y="-274.8" font-family="Arial" font-size="8.00">+ ColorPicker (GameScreen screen, WidgetInfo info, DisplayLayer drawOrder)</text>
<text text-anchor="start" x="8" y="-264.8" font-family="Arial" font-size="8.00">+ Draw (GameTime time)</text>
<text text-anchor="start" x="8" y="-254.8" font-family="Arial" font-size="8.00">+ OnRightClick (Vector2 position, ClickState click, GameTime time)</text>
<text text-anchor="start" x="8" y="-244.8" font-family="Arial" font-size="8.00">+ SetHovered (bool hovered)</text>
<text text-anchor="start" x="8" y="-234.8" font-family="Arial" font-size="8.00">&#45; CreateColors (int num) : IEnumerable&lt;Color&gt; static</text>
<text text-anchor="start" x="8" y="-224.8" font-family="Arial" font-size="8.00">&#45; SelectColor (Color color)</text>
<text text-anchor="start" x="8" y="-214.8" font-family="Arial" font-size="8.00">+ OnLeftClick (Vector2 position, ClickState click, GameTime time)</text>
</g>
<!-- Box_IMouseEventListener&#45;&gt;Box_ColorPicker -->
<g id="edge4" class="edge"><title>Box_IMouseEventListener&#45;&gt;Box_ColorPicker</title>
<path fill="none" stroke="midnightblue" d="M263.182,-427.155C253.349,-416.108 242.76,-404.212 232.146,-392.287"/>
<polygon fill="none" stroke="midnightblue" points="260.596,-429.514 269.859,-434.657 265.825,-424.86 260.596,-429.514"/>
</g>
<!-- Box_MenuItem -->
<g id="node3" class="node"><title>Box_MenuItem</title>
<polygon fill="#fcfcda" stroke="black" points="319.5,-203 319.5,-397 648.5,-397 648.5,-203 319.5,-203"/>
<text text-anchor="middle" x="484" y="-385.8" font-family="Arial" font-size="8.00">MenuItem</text>
<polyline fill="none" stroke="black" points="319.5,-379 648.5,-379 "/>
<text text-anchor="start" x="327.5" y="-367.8" font-family="Arial" font-size="8.00"># spriteBatch : SpriteBatch</text>
<text text-anchor="start" x="327.5" y="-357.8" font-family="Arial" font-size="8.00">+ IsMouseEventEnabled : bool</text>
<text text-anchor="start" x="327.5" y="-347.8" font-family="Arial" font-size="8.00">+ ValidKeys : List&lt;Keys&gt;</text>
<text text-anchor="start" x="327.5" y="-337.8" font-family="Arial" font-size="8.00">+ IsKeyEventEnabled : bool</text>
<text text-anchor="start" x="327.5" y="-327.8" font-family="Arial" font-size="8.00">+ Info : MenuItemInfo</text>
<polyline fill="none" stroke="black" points="319.5,-321 648.5,-321 "/>
<text text-anchor="start" x="327.5" y="-309.8" font-family="Arial" font-size="8.00">+ MenuItem (GameScreen screen, DisplayLayer drawOrder, int itemNum, MenuItemInfo</text>
<text text-anchor="start" x="327.5" y="-299.8" font-family="Arial" font-size="8.00">info)</text>
<text text-anchor="start" x="327.5" y="-289.8" font-family="Arial" font-size="8.00">+ Collapse () virtual</text>
<text text-anchor="start" x="327.5" y="-279.8" font-family="Arial" font-size="8.00">+ OnKeyEvent (List&lt;Keys&gt; key, KeyEvent keyEvent, GameTime time)</text>
<text text-anchor="start" x="327.5" y="-269.8" font-family="Arial" font-size="8.00">+ OnLeftClick (Vector2 position, ClickState click, GameTime time)</text>
<text text-anchor="start" x="327.5" y="-259.8" font-family="Arial" font-size="8.00">+ OnRightClick (Vector2 position, ClickState click, GameTime time)</text>
<text text-anchor="start" x="327.5" y="-249.8" font-family="Arial" font-size="8.00">+ MinimumSize (SpriteFont font) : Vector2</text>
<text text-anchor="start" x="327.5" y="-239.8" font-family="Arial" font-size="8.00">+ TextPosition (SpriteFont font) : Vector2</text>
<text text-anchor="start" x="327.5" y="-229.8" font-family="Arial" font-size="8.00">+ TextPosition (SpriteFont font, Vector2 scale) : Vector2</text>
<text text-anchor="start" x="327.5" y="-219.8" font-family="Arial" font-size="8.00">+ Draw (GameTime time)</text>
<text text-anchor="start" x="327.5" y="-209.8" font-family="Arial" font-size="8.00">+ SetHovered (bool hovered)</text>
</g>
<!-- Box_IMouseEventListener&#45;&gt;Box_MenuItem -->
<g id="edge8" class="edge"><title>Box_IMouseEventListener&#45;&gt;Box_MenuItem</title>
<path fill="none" stroke="midnightblue" d="M363.817,-427.17C372.811,-417.654 382.4,-407.507 392.089,-397.255"/>
<polygon fill="none" stroke="midnightblue" points="361.067,-424.985 356.742,-434.657 366.154,-429.793 361.067,-424.985"/>
</g>
<!-- Box_DropDownMenu -->
<g id="node4" class="node"><title>Box_DropDownMenu</title>
<polygon fill="#fcfcda" stroke="black" points="125.5,-1 125.5,-165 478.5,-165 478.5,-1 125.5,-1"/>
<text text-anchor="middle" x="302" y="-153.8" font-family="Arial" font-size="8.00">DropDownMenu</text>
<polyline fill="none" stroke="black" points="125.5,-147 478.5,-147 "/>
<text text-anchor="start" x="133.5" y="-135.8" font-family="Arial" font-size="8.00">&#45; selected : MenuButton</text>
<text text-anchor="start" x="133.5" y="-125.8" font-family="Arial" font-size="8.00">&#45; dropdown : VerticalMenu</text>
<polyline fill="none" stroke="black" points="125.5,-119 478.5,-119 "/>
<text text-anchor="start" x="133.5" y="-107.8" font-family="Arial" font-size="8.00">&#45; ValuePosition (int dummy) : Vector2</text>
<text text-anchor="start" x="133.5" y="-97.8" font-family="Arial" font-size="8.00">+ DropDownMenu (GameScreen screen, DisplayLayer drawOrder, int itemNum, MenuItemInfo</text>
<text text-anchor="start" x="133.5" y="-87.8" font-family="Arial" font-size="8.00">info)</text>
<text text-anchor="start" x="133.5" y="-77.8" font-family="Arial" font-size="8.00">&#45; DropDownBackgroundColor (ItemState itemState) : Color</text>
<text text-anchor="start" x="133.5" y="-67.8" font-family="Arial" font-size="8.00">&#45; DropDownForegroundColor (ItemState itemState) : Color</text>
<text text-anchor="start" x="133.5" y="-57.8" font-family="Arial" font-size="8.00">&#45; ValueSize (int dummy) : Vector2</text>
<text text-anchor="start" x="133.5" y="-47.8" font-family="Arial" font-size="8.00">+ SubComponents (GameTime time) : IEnumerable&lt;IGameScreenComponent&gt;</text>
<text text-anchor="start" x="133.5" y="-37.8" font-family="Arial" font-size="8.00">+ Collapse ()</text>
<text text-anchor="start" x="133.5" y="-27.8" font-family="Arial" font-size="8.00">+ Draw (GameTime time)</text>
<text text-anchor="start" x="133.5" y="-17.8" font-family="Arial" font-size="8.00">+ AddEntries (DistinctOptionInfo option)</text>
<text text-anchor="start" x="133.5" y="-7.8" font-family="Arial" font-size="8.00">+ AddEntries (DropDownMenuItem[] entries, DropDownMenuItem defaultEntry)</text>
</g>
<!-- Box_MenuItem&#45;&gt;Box_DropDownMenu -->
<g id="edge12" class="edge"><title>Box_MenuItem&#45;&gt;Box_DropDownMenu</title>
<path fill="none" stroke="midnightblue" d="M396.105,-195.203C387.621,-185.086 379.1,-174.927 370.839,-165.077"/>
<polygon fill="none" stroke="midnightblue" points="393.474,-197.512 402.582,-202.925 398.837,-193.013 393.474,-197.512"/>
</g>
<!-- Box_MenuButton -->
<g id="node5" class="node"><title>Box_MenuButton</title>
<polygon fill="#fcfcda" stroke="black" points="496,-51 496,-115 834,-115 834,-51 496,-51"/>
<text text-anchor="middle" x="665" y="-103.8" font-family="Arial" font-size="8.00">MenuButton</text>
<polyline fill="none" stroke="black" points="496,-97 834,-97 "/>
<text text-anchor="middle" x="665" y="-85.8" font-family="Arial" font-size="8.00"> </text>
<polyline fill="none" stroke="black" points="496,-79 834,-79 "/>
<text text-anchor="start" x="504" y="-67.8" font-family="Arial" font-size="8.00">+ MenuButton (GameScreen screen, DisplayLayer drawOrder, int itemNum, MenuItemInfo</text>
<text text-anchor="start" x="504" y="-57.8" font-family="Arial" font-size="8.00">info)</text>
</g>
<!-- Box_MenuItem&#45;&gt;Box_MenuButton -->
<g id="edge14" class="edge"><title>Box_MenuItem&#45;&gt;Box_MenuButton</title>
<path fill="none" stroke="midnightblue" d="M571.474,-195.128C595.775,-165.994 620.367,-136.51 638.232,-115.092"/>
<polygon fill="none" stroke="midnightblue" points="568.688,-193.003 564.971,-202.925 574.064,-197.487 568.688,-193.003"/>
</g>
<!-- Box_Widget -->
<g id="node6" class="node"><title>Box_Widget</title>
<polygon fill="#ffffff" stroke="black" points="127.5,-473 127.5,-491 168.5,-491 168.5,-473 127.5,-473"/>
<text text-anchor="middle" x="148" y="-479.8" font-family="Arial" font-size="8.00">Widget</text>
</g>
<!-- Box_Widget&#45;&gt;Box_ColorPicker -->
<g id="edge2" class="edge"><title>Box_Widget&#45;&gt;Box_ColorPicker</title>
<path fill="none" stroke="midnightblue" d="M148.216,-462.358C148.405,-445.107 148.696,-418.683 148.988,-392.131"/>
<polygon fill="none" stroke="midnightblue" points="144.712,-462.686 148.102,-472.724 151.712,-462.763 144.712,-462.686"/>
</g>
<!-- Box_ItemWidget -->
<g id="node7" class="node"><title>Box_ItemWidget</title>
<polygon fill="#ffffff" stroke="black" points="456,-473 456,-491 512,-491 512,-473 456,-473"/>
<text text-anchor="middle" x="484" y="-479.8" font-family="Arial" font-size="8.00">ItemWidget</text>
</g>
<!-- Box_ItemWidget&#45;&gt;Box_MenuItem -->
<g id="edge6" class="edge"><title>Box_ItemWidget&#45;&gt;Box_MenuItem</title>
<path fill="none" stroke="midnightblue" d="M484,-462.502C484,-446.348 484,-422.079 484,-397.19"/>
<polygon fill="none" stroke="midnightblue" points="480.5,-462.724 484,-472.724 487.5,-462.724 480.5,-462.724"/>
</g>
<!-- Box_IKeyEventListener -->
<g id="node8" class="node"><title>Box_IKeyEventListener</title>
<polygon fill="#ffffff" stroke="black" points="530,-473 530,-491 612,-491 612,-473 530,-473"/>
<text text-anchor="middle" x="571" y="-479.8" font-family="Arial" font-size="8.00">IKeyEventListener</text>
</g>
<!-- Box_IKeyEventListener&#45;&gt;Box_MenuItem -->
<g id="edge10" class="edge"><title>Box_IKeyEventListener&#45;&gt;Box_MenuItem</title>
<path fill="none" stroke="midnightblue" d="M562.125,-463.434C554.408,-447.29 542.587,-422.562 530.459,-397.19"/>
<polygon fill="none" stroke="midnightblue" points="559.095,-465.212 566.566,-472.724 565.411,-462.193 559.095,-465.212"/>
</g>
</g>
</svg>
