<?xml version="1.0" encoding="UTF-8" standalone="no"?>
<!DOCTYPE svg PUBLIC "-//W3C//DTD SVG 1.1//EN"
 "http://www.w3.org/Graphics/SVG/1.1/DTD/svg11.dtd">
<!-- Generated by graphviz version 2.26.3 (20100126.1600)
 -->
<!-- Title: MenuItem Pages: 1 -->
<svg width="1068pt" height="614pt"
 viewBox="0.00 0.00 1068.00 614.00" xmlns="http://www.w3.org/2000/svg" xmlns:xlink="http://www.w3.org/1999/xlink">
<g id="graph1" class="graph" transform="scale(1 1) rotate(0) translate(4 610)">
<title>MenuItem</title>
<polygon fill="white" stroke="white" points="-4,5 -4,-610 1065,-610 1065,5 -4,5"/>
<!-- Box_RenderEffect -->
<g id="node1" class="node"><title>Box_RenderEffect</title>
<polygon fill="#fcfcda" stroke="black" points="406,-231 406,-435 656,-435 656,-231 406,-231"/>
<text text-anchor="middle" x="531" y="-423.8" font-family="Helvetica,sans-Serif" font-size="8.00">RenderEffect</text>
<polyline fill="none" stroke="black" points="406,-415 656,-415 "/>
<text text-anchor="start" x="414" y="-403.8" font-family="Helvetica,sans-Serif" font-size="8.00">Attributes:</text>
<text text-anchor="start" x="414" y="-391.8" font-family="Helvetica,sans-Serif" font-size="8.00"># state : GameState</text>
<text text-anchor="start" x="414" y="-379.8" font-family="Helvetica,sans-Serif" font-size="8.00">&#45; renderTarget : RenderTargetCache</text>
<text text-anchor="start" x="414" y="-367.8" font-family="Helvetica,sans-Serif" font-size="8.00">&#45; background : Color</text>
<text text-anchor="start" x="414" y="-355.8" font-family="Helvetica,sans-Serif" font-size="8.00">&#45; spriteBatch : SpriteBatch</text>
<text text-anchor="start" x="414" y="-343.8" font-family="Helvetica,sans-Serif" font-size="8.00">+ RenderTarget : RenderTarget2D</text>
<text text-anchor="start" x="414" y="-331.8" font-family="Helvetica,sans-Serif" font-size="8.00">Methods:</text>
<polyline fill="none" stroke="black" points="406,-323 656,-323 "/>
<text text-anchor="start" x="414" y="-311.8" font-family="Helvetica,sans-Serif" font-size="8.00">+ RenderEffect (GameState state)</text>
<text text-anchor="start" x="414" y="-299.8" font-family="Helvetica,sans-Serif" font-size="8.00">+ Begin (GameTime gameTime)</text>
<text text-anchor="start" x="414" y="-287.8" font-family="Helvetica,sans-Serif" font-size="8.00">+ Begin (Color background, GameTime gameTime) virtual</text>
<text text-anchor="start" x="414" y="-275.8" font-family="Helvetica,sans-Serif" font-size="8.00">+ End (GameTime gameTime) virtual</text>
<text text-anchor="start" x="414" y="-263.8" font-family="Helvetica,sans-Serif" font-size="8.00">+ Draw (SpriteBatch spriteBatch, GameTime gameTime) abstract</text>
<text text-anchor="start" x="414" y="-251.8" font-family="Helvetica,sans-Serif" font-size="8.00">+ RemapModel (Model model) virtual</text>
<text text-anchor="start" x="414" y="-239.8" font-family="Helvetica,sans-Serif" font-size="8.00">+ DrawModel (GameModel model, GameTime gameTime) virtual</text>
</g>
<!-- Box_BlurEffect -->
<g id="node3" class="node"><title>Box_BlurEffect</title>
<polygon fill="#fcfcda" stroke="black" points="-0.5,-37 -0.5,-157 250.5,-157 250.5,-37 -0.5,-37"/>
<text text-anchor="middle" x="125" y="-145.8" font-family="Helvetica,sans-Serif" font-size="8.00">BlurEffect</text>
<polyline fill="none" stroke="black" points="-0.5,-137 250.5,-137 "/>
<text text-anchor="start" x="7.5" y="-125.8" font-family="Helvetica,sans-Serif" font-size="8.00">Attributes:</text>
<text text-anchor="start" x="7.5" y="-113.8" font-family="Helvetica,sans-Serif" font-size="8.00">&#45; testEffect : Effect static</text>
<text text-anchor="start" x="7.5" y="-101.8" font-family="Helvetica,sans-Serif" font-size="8.00">Methods:</text>
<polyline fill="none" stroke="black" points="-0.5,-93 250.5,-93 "/>
<text text-anchor="start" x="7.5" y="-81.8" font-family="Helvetica,sans-Serif" font-size="8.00">+ BlurEffect (GameState state)</text>
<text text-anchor="start" x="7.5" y="-69.8" font-family="Helvetica,sans-Serif" font-size="8.00">+ Begin (Color background, GameTime gameTime) override</text>
<text text-anchor="start" x="7.5" y="-57.8" font-family="Helvetica,sans-Serif" font-size="8.00">+ End (GameTime gameTime) override</text>
<text text-anchor="start" x="7.5" y="-45.8" font-family="Helvetica,sans-Serif" font-size="8.00">+ Draw (SpriteBatch spriteBatch, GameTime gameTime) override</text>
</g>
<!-- Box_RenderEffect&#45;&gt;Box_BlurEffect -->
<g id="edge4" class="edge"><title>Box_RenderEffect&#45;&gt;Box_BlurEffect</title>
<path fill="none" stroke="midnightblue" d="M396.765,-269.554C352.128,-247.107 302.684,-220.753 259,-194 240.631,-182.751 221.524,-169.767 203.688,-157.031"/>
<polygon fill="none" stroke="midnightblue" points="395.41,-272.79 405.919,-274.137 398.544,-266.53 395.41,-272.79"/>
</g>
<!-- Box_CelShadingEffect -->
<g id="node4" class="node"><title>Box_CelShadingEffect</title>
<polygon fill="#fcfcda" stroke="black" points="267.5,-1 267.5,-193 524.5,-193 524.5,-1 267.5,-1"/>
<text text-anchor="middle" x="396" y="-181.8" font-family="Helvetica,sans-Serif" font-size="8.00">CelShadingEffect</text>
<polyline fill="none" stroke="black" points="267.5,-173 524.5,-173 "/>
<text text-anchor="start" x="275.5" y="-161.8" font-family="Helvetica,sans-Serif" font-size="8.00">Attributes:</text>
<text text-anchor="start" x="275.5" y="-149.8" font-family="Helvetica,sans-Serif" font-size="8.00">&#45; celShader : Effect</text>
<text text-anchor="start" x="275.5" y="-137.8" font-family="Helvetica,sans-Serif" font-size="8.00">&#45; celMap : Texture2D</text>
<text text-anchor="start" x="275.5" y="-125.8" font-family="Helvetica,sans-Serif" font-size="8.00">&#45; lightDirection : Vector4</text>
<text text-anchor="start" x="275.5" y="-113.8" font-family="Helvetica,sans-Serif" font-size="8.00">&#45; outlineShader : Effect</text>
<text text-anchor="start" x="275.5" y="-101.8" font-family="Helvetica,sans-Serif" font-size="8.00">&#45; outlineThickness : float</text>
<text text-anchor="start" x="275.5" y="-89.8" font-family="Helvetica,sans-Serif" font-size="8.00">&#45; outlineThreshold : float</text>
<text text-anchor="start" x="275.5" y="-77.8" font-family="Helvetica,sans-Serif" font-size="8.00">+ Color : Color</text>
<text text-anchor="start" x="275.5" y="-65.8" font-family="Helvetica,sans-Serif" font-size="8.00">Methods:</text>
<polyline fill="none" stroke="black" points="267.5,-57 524.5,-57 "/>
<text text-anchor="start" x="275.5" y="-45.8" font-family="Helvetica,sans-Serif" font-size="8.00">+ CelShadingEffect (GameState state)</text>
<text text-anchor="start" x="275.5" y="-33.8" font-family="Helvetica,sans-Serif" font-size="8.00">+ Draw (SpriteBatch spriteBatch, GameTime gameTime) override</text>
<text text-anchor="start" x="275.5" y="-21.8" font-family="Helvetica,sans-Serif" font-size="8.00">+ RemapModel (Model model) override</text>
<text text-anchor="start" x="275.5" y="-9.8" font-family="Helvetica,sans-Serif" font-size="8.00">+ DrawModel (GameModel model, GameTime gameTime) override</text>
</g>
<!-- Box_RenderEffect&#45;&gt;Box_CelShadingEffect -->
<g id="edge6" class="edge"><title>Box_RenderEffect&#45;&gt;Box_CelShadingEffect</title>
<path fill="none" stroke="midnightblue" d="M467.543,-222.068C462.052,-212.468 456.524,-202.806 451.107,-193.336"/>
<polygon fill="none" stroke="midnightblue" points="464.569,-223.917 472.572,-230.86 470.645,-220.441 464.569,-223.917"/>
</g>
<!-- Box_FadeEffect -->
<g id="node5" class="node"><title>Box_FadeEffect</title>
<polygon fill="#fcfcda" stroke="black" points="541.5,-37 541.5,-157 792.5,-157 792.5,-37 541.5,-37"/>
<text text-anchor="middle" x="667" y="-145.8" font-family="Helvetica,sans-Serif" font-size="8.00">FadeEffect</text>
<polyline fill="none" stroke="black" points="541.5,-137 792.5,-137 "/>
<text text-anchor="start" x="549.5" y="-125.8" font-family="Helvetica,sans-Serif" font-size="8.00">Attributes:</text>
<text text-anchor="start" x="549.5" y="-113.8" font-family="Helvetica,sans-Serif" font-size="8.00">&#45; lastFrame : RenderTarget2D</text>
<text text-anchor="start" x="549.5" y="-101.8" font-family="Helvetica,sans-Serif" font-size="8.00">&#45; alpha : float</text>
<text text-anchor="start" x="549.5" y="-89.8" font-family="Helvetica,sans-Serif" font-size="8.00">+ IsFinished : bool</text>
<text text-anchor="start" x="549.5" y="-77.8" font-family="Helvetica,sans-Serif" font-size="8.00">Methods:</text>
<polyline fill="none" stroke="black" points="541.5,-69 792.5,-69 "/>
<text text-anchor="start" x="549.5" y="-57.8" font-family="Helvetica,sans-Serif" font-size="8.00">+ FadeEffect (GameState state, GameState oldState)</text>
<text text-anchor="start" x="549.5" y="-45.8" font-family="Helvetica,sans-Serif" font-size="8.00">+ Draw (SpriteBatch spriteBatch, GameTime gameTime) override</text>
</g>
<!-- Box_RenderEffect&#45;&gt;Box_FadeEffect -->
<g id="edge8" class="edge"><title>Box_RenderEffect&#45;&gt;Box_FadeEffect</title>
<path fill="none" stroke="midnightblue" d="M594.978,-221.98C607.864,-199.619 620.943,-176.923 632.356,-157.118"/>
<polygon fill="none" stroke="midnightblue" points="591.821,-220.448 589.861,-230.86 597.886,-223.943 591.821,-220.448"/>
</g>
<!-- Box_NoEffect -->
<g id="node6" class="node"><title>Box_NoEffect</title>
<polygon fill="#fcfcda" stroke="black" points="809.5,-55 809.5,-139 1060.5,-139 1060.5,-55 809.5,-55"/>
<text text-anchor="middle" x="935" y="-127.8" font-family="Helvetica,sans-Serif" font-size="8.00">NoEffect</text>
<polyline fill="none" stroke="black" points="809.5,-119 1060.5,-119 "/>
<text text-anchor="start" x="817.5" y="-107.8" font-family="Helvetica,sans-Serif" font-size="8.00">Attributes:</text>
<text text-anchor="start" x="817.5" y="-95.8" font-family="Helvetica,sans-Serif" font-size="8.00">Methods:</text>
<polyline fill="none" stroke="black" points="809.5,-87 1060.5,-87 "/>
<text text-anchor="start" x="817.5" y="-75.8" font-family="Helvetica,sans-Serif" font-size="8.00">+ NoEffect (GameState state)</text>
<text text-anchor="start" x="817.5" y="-63.8" font-family="Helvetica,sans-Serif" font-size="8.00">+ Draw (SpriteBatch spriteBatch, GameTime gameTime) override</text>
</g>
<!-- Box_RenderEffect&#45;&gt;Box_NoEffect -->
<g id="edge10" class="edge"><title>Box_RenderEffect&#45;&gt;Box_NoEffect</title>
<path fill="none" stroke="midnightblue" d="M665.183,-268.958C709.236,-246.611 757.925,-220.469 801,-194 828.161,-177.31 856.96,-156.857 880.871,-139.042"/>
<polygon fill="none" stroke="midnightblue" points="663.495,-265.89 656.147,-273.522 666.651,-272.138 663.495,-265.89"/>
</g>
<!-- Box_IRenderEffect -->
<g id="node2" class="node"><title>Box_IRenderEffect</title>
<polygon fill="#dafcda" stroke="black" points="418.5,-473 418.5,-605 643.5,-605 643.5,-473 418.5,-473"/>
<text text-anchor="middle" x="531" y="-593.8" font-family="Helvetica,sans-Serif" font-size="8.00">IRenderEffect</text>
<polyline fill="none" stroke="black" points="418.5,-585 643.5,-585 "/>
<text text-anchor="start" x="426.5" y="-573.8" font-family="Helvetica,sans-Serif" font-size="8.00">Attributes:</text>
<text text-anchor="start" x="426.5" y="-561.8" font-family="Helvetica,sans-Serif" font-size="8.00">+ RenderTarget : RenderTarget2D</text>
<text text-anchor="start" x="426.5" y="-549.8" font-family="Helvetica,sans-Serif" font-size="8.00">Methods:</text>
<polyline fill="none" stroke="black" points="418.5,-541 643.5,-541 "/>
<text text-anchor="start" x="426.5" y="-529.8" font-family="Helvetica,sans-Serif" font-size="8.00">+ Begin (GameTime gameTime)</text>
<text text-anchor="start" x="426.5" y="-517.8" font-family="Helvetica,sans-Serif" font-size="8.00">+ End (GameTime gameTime)</text>
<text text-anchor="start" x="426.5" y="-505.8" font-family="Helvetica,sans-Serif" font-size="8.00">+ Draw (SpriteBatch spriteBatch, GameTime gameTime)</text>
<text text-anchor="start" x="426.5" y="-493.8" font-family="Helvetica,sans-Serif" font-size="8.00">+ RemapModel (Model model)</text>
<text text-anchor="start" x="426.5" y="-481.8" font-family="Helvetica,sans-Serif" font-size="8.00">+ DrawModel (GameModel model, GameTime gameTime)</text>
</g>
<!-- Box_IRenderEffect&#45;&gt;Box_RenderEffect -->
<g id="edge2" class="edge"><title>Box_IRenderEffect&#45;&gt;Box_RenderEffect</title>
<path fill="none" stroke="midnightblue" d="M531,-462.867C531,-453.791 531,-444.415 531,-435.051"/>
<polygon fill="none" stroke="midnightblue" points="527.5,-462.97 531,-472.97 534.5,-462.97 527.5,-462.97"/>
</g>
</g>
</svg>
