<?xml version="1.0" encoding="UTF-8" standalone="no"?>
<!DOCTYPE svg PUBLIC "-//W3C//DTD SVG 1.1//EN"
 "http://www.w3.org/Graphics/SVG/1.1/DTD/svg11.dtd">
<!-- Generated by graphviz version 2.26.3 (20100126.1600)
 -->
<!-- Title: MenuItem Pages: 1 -->
<svg width="3050pt" height="2200pt"
 viewBox="0.00 0.00 732.00 528.00" xmlns="http://www.w3.org/2000/svg" xmlns:xlink="http://www.w3.org/1999/xlink">
<g id="graph1" class="graph" transform="scale(4.16667 4.16667) rotate(0) translate(4 524)">
<title>MenuItem</title>
<polygon fill="white" stroke="white" points="-4,5 -4,-524 729,-524 729,5 -4,5"/>
<!-- Box_KnotRenderer -->
<g id="node1" class="node"><title>Box_KnotRenderer</title>
<polygon fill="#fcfcda" stroke="black" points="253.5,-253 253.5,-387 464.5,-387 464.5,-253 253.5,-253"/>
<text text-anchor="middle" x="359" y="-375.8" font-family="Arial" font-size="8.00">KnotRenderer</text>
<polyline fill="none" stroke="black" points="253.5,-369 464.5,-369 "/>
<text text-anchor="start" x="261.5" y="-357.8" font-family="Arial" font-size="8.00">+ World : World abstract</text>
<text text-anchor="start" x="261.5" y="-347.8" font-family="Arial" font-size="8.00"># screen : GameScreen</text>
<text text-anchor="start" x="261.5" y="-337.8" font-family="Arial" font-size="8.00">+ Info : GameObjectInfo abstract</text>
<polyline fill="none" stroke="black" points="253.5,-331 464.5,-331 "/>
<text text-anchor="start" x="261.5" y="-319.8" font-family="Arial" font-size="8.00"># nodeMap () : NodeMap</text>
<text text-anchor="start" x="261.5" y="-309.8" font-family="Arial" font-size="8.00">+ Intersects (Ray ray) : GameObjectDistance abstract</text>
<text text-anchor="start" x="261.5" y="-299.8" font-family="Arial" font-size="8.00">+ Center () : Vector3 abstract</text>
<text text-anchor="start" x="261.5" y="-289.8" font-family="Arial" font-size="8.00">+ Draw (GameTime gameTime) abstract</text>
<text text-anchor="start" x="261.5" y="-279.8" font-family="Arial" font-size="8.00">+ KnotRenderer (GameScreen screen)</text>
<text text-anchor="start" x="261.5" y="-269.8" font-family="Arial" font-size="8.00">+ Update (GameTime gameTime) abstract</text>
<text text-anchor="start" x="261.5" y="-259.8" font-family="Arial" font-size="8.00">+ OnEdgesChanged (EdgeList edges) virtual</text>
</g>
<!-- Box_LineRenderer -->
<g id="node4" class="node"><title>Box_LineRenderer</title>
<polygon fill="#fcfcda" stroke="black" points="-0.5,-36 -0.5,-180 232.5,-180 232.5,-36 -0.5,-36"/>
<text text-anchor="middle" x="116" y="-168.8" font-family="Arial" font-size="8.00">LineRenderer</text>
<polyline fill="none" stroke="black" points="-0.5,-162 232.5,-162 "/>
<text text-anchor="start" x="7.5" y="-150.8" font-family="Arial" font-size="8.00">&#45; edges : EdgeList</text>
<text text-anchor="start" x="7.5" y="-140.8" font-family="Arial" font-size="8.00">&#45; basicEffect : BasicEffect</text>
<text text-anchor="start" x="7.5" y="-130.8" font-family="Arial" font-size="8.00">+ Info : GameObjectInfo</text>
<text text-anchor="start" x="7.5" y="-120.8" font-family="Arial" font-size="8.00">+ World : World</text>
<polyline fill="none" stroke="black" points="-0.5,-114 232.5,-114 "/>
<text text-anchor="start" x="7.5" y="-102.8" font-family="Arial" font-size="8.00">+ LineRenderer (GameScreen screen, GameObjectInfo info)</text>
<text text-anchor="start" x="7.5" y="-92.8" font-family="Arial" font-size="8.00">+ OnEdgesChanged (EdgeList edges)</text>
<text text-anchor="start" x="7.5" y="-82.8" font-family="Arial" font-size="8.00">&#45; DrawRoundedLines ()</text>
<text text-anchor="start" x="7.5" y="-72.8" font-family="Arial" font-size="8.00">+ Intersects (Ray ray) : GameObjectDistance</text>
<text text-anchor="start" x="7.5" y="-62.8" font-family="Arial" font-size="8.00">+ Center () : Vector3</text>
<text text-anchor="start" x="7.5" y="-52.8" font-family="Arial" font-size="8.00">+ Draw (GameTime gameTime)</text>
<text text-anchor="start" x="7.5" y="-42.8" font-family="Arial" font-size="8.00">+ Update (GameTime gameTime)</text>
</g>
<!-- Box_KnotRenderer&#45;&gt;Box_LineRenderer -->
<g id="edge6" class="edge"><title>Box_KnotRenderer&#45;&gt;Box_LineRenderer</title>
<path fill="none" stroke="midnightblue" d="M274.562,-246.334C249.982,-224.89 223.164,-201.493 198.693,-180.143"/>
<polygon fill="none" stroke="midnightblue" points="272.277,-248.985 282.113,-252.922 276.879,-243.71 272.277,-248.985"/>
</g>
<!-- Box_ModelRenderer -->
<g id="node5" class="node"><title>Box_ModelRenderer</title>
<polygon fill="#fcfcda" stroke="black" points="485.5,-1 485.5,-215 724.5,-215 724.5,-1 485.5,-1"/>
<text text-anchor="middle" x="605" y="-203.8" font-family="Arial" font-size="8.00">ModelRenderer</text>
<polyline fill="none" stroke="black" points="485.5,-197 724.5,-197 "/>
<text text-anchor="start" x="493.5" y="-185.8" font-family="Arial" font-size="8.00">&#45; arrows : List&lt;ArrowModel&gt;</text>
<text text-anchor="start" x="493.5" y="-175.8" font-family="Arial" font-size="8.00">&#45; nodes : List&lt;NodeModel&gt;</text>
<text text-anchor="start" x="493.5" y="-165.8" font-family="Arial" font-size="8.00">&#45; arrowFactory : ModelFactory</text>
<text text-anchor="start" x="493.5" y="-155.8" font-family="Arial" font-size="8.00">&#45; nodeFactory : ModelFactory</text>
<text text-anchor="start" x="493.5" y="-145.8" font-family="Arial" font-size="8.00">&#45; pipeFactory : ModelFactory</text>
<text text-anchor="start" x="493.5" y="-135.8" font-family="Arial" font-size="8.00">&#45; pipes : List&lt;PipeModel&gt;</text>
<text text-anchor="start" x="493.5" y="-125.8" font-family="Arial" font-size="8.00">+ Info : GameObjectInfo</text>
<text text-anchor="start" x="493.5" y="-115.8" font-family="Arial" font-size="8.00">+ World : World</text>
<polyline fill="none" stroke="black" points="485.5,-109 724.5,-109 "/>
<text text-anchor="start" x="493.5" y="-97.8" font-family="Arial" font-size="8.00">&#45; IEnumerable.GetEnumerator () : IEnumerator</text>
<text text-anchor="start" x="493.5" y="-87.8" font-family="Arial" font-size="8.00">&#45; CreateArrow (Edge edge)</text>
<text text-anchor="start" x="493.5" y="-77.8" font-family="Arial" font-size="8.00">+ ModelRenderer (GameScreen screen, GameObjectInfo info)</text>
<text text-anchor="start" x="493.5" y="-67.8" font-family="Arial" font-size="8.00">+ Draw (GameTime gameTime)</text>
<text text-anchor="start" x="493.5" y="-57.8" font-family="Arial" font-size="8.00">+ OnEdgesChanged (EdgeList edgeList)</text>
<text text-anchor="start" x="493.5" y="-47.8" font-family="Arial" font-size="8.00">+ GetEnumerator () : IEnumerator&lt;IGameObject&gt;</text>
<text text-anchor="start" x="493.5" y="-37.8" font-family="Arial" font-size="8.00">+ Intersects (Ray ray) : GameObjectDistance</text>
<text text-anchor="start" x="493.5" y="-27.8" font-family="Arial" font-size="8.00">+ Center () : Vector3</text>
<text text-anchor="start" x="493.5" y="-17.8" font-family="Arial" font-size="8.00">+ Update (GameTime gameTime)</text>
<text text-anchor="start" x="493.5" y="-7.8" font-family="Arial" font-size="8.00">+ CreateArrows (WrapList&lt;Edge&gt; selectedEdges)</text>
</g>
<!-- Box_KnotRenderer&#45;&gt;Box_ModelRenderer -->
<g id="edge8" class="edge"><title>Box_KnotRenderer&#45;&gt;Box_ModelRenderer</title>
<path fill="none" stroke="midnightblue" d="M444.541,-246.282C457.762,-234.888 471.621,-222.944 485.423,-211.05"/>
<polygon fill="none" stroke="midnightblue" points="442.126,-243.742 436.836,-252.922 446.696,-249.045 442.126,-243.742"/>
</g>
<!-- Box_PipeRenderer -->
<g id="node6" class="node"><title>Box_PipeRenderer</title>
<polygon fill="#fcfcda" stroke="black" points="250,-21 250,-195 468,-195 468,-21 250,-21"/>
<text text-anchor="middle" x="359" y="-183.8" font-family="Arial" font-size="8.00">PipeRenderer</text>
<polyline fill="none" stroke="black" points="250,-177 468,-177 "/>
<text text-anchor="start" x="258" y="-165.8" font-family="Arial" font-size="8.00">&#45; nodes : List&lt;NodeModel&gt;</text>
<text text-anchor="start" x="258" y="-155.8" font-family="Arial" font-size="8.00">&#45; nodeFactory : ModelFactory</text>
<text text-anchor="start" x="258" y="-145.8" font-family="Arial" font-size="8.00">&#45; pipeFactory : ModelFactory</text>
<text text-anchor="start" x="258" y="-135.8" font-family="Arial" font-size="8.00">&#45; pipes : List&lt;PipeModel&gt;</text>
<text text-anchor="start" x="258" y="-125.8" font-family="Arial" font-size="8.00">+ Info : GameObjectInfo</text>
<text text-anchor="start" x="258" y="-115.8" font-family="Arial" font-size="8.00">+ World : World</text>
<polyline fill="none" stroke="black" points="250,-109 468,-109 "/>
<text text-anchor="start" x="258" y="-97.8" font-family="Arial" font-size="8.00">&#45; IEnumerable.GetEnumerator () : IEnumerator</text>
<text text-anchor="start" x="258" y="-87.8" font-family="Arial" font-size="8.00">+ PipeRenderer (GameState state, GameObjectInfo info)</text>
<text text-anchor="start" x="258" y="-77.8" font-family="Arial" font-size="8.00">+ Draw (GameTime gameTime)</text>
<text text-anchor="start" x="258" y="-67.8" font-family="Arial" font-size="8.00">+ OnEdgesChanged (EdgeList edges)</text>
<text text-anchor="start" x="258" y="-57.8" font-family="Arial" font-size="8.00">+ GetEnumerator () : IEnumerator&lt;IGameObject&gt;</text>
<text text-anchor="start" x="258" y="-47.8" font-family="Arial" font-size="8.00">+ Intersects (Ray ray) : GameObjectDistance</text>
<text text-anchor="start" x="258" y="-37.8" font-family="Arial" font-size="8.00">+ Center () : Vector3</text>
<text text-anchor="start" x="258" y="-27.8" font-family="Arial" font-size="8.00">+ Update (GameTime gameTime)</text>
</g>
<!-- Box_KnotRenderer&#45;&gt;Box_PipeRenderer -->
<g id="edge12" class="edge"><title>Box_KnotRenderer&#45;&gt;Box_PipeRenderer</title>
<path fill="none" stroke="midnightblue" d="M359,-242.889C359,-227.402 359,-211.025 359,-195.223"/>
<polygon fill="none" stroke="midnightblue" points="355.5,-242.922 359,-252.922 362.5,-242.922 355.5,-242.922"/>
</g>
<!-- Box_IEdgeChangeListener -->
<g id="node2" class="node"><title>Box_IEdgeChangeListener</title>
<polygon fill="#dafcda" stroke="black" points="192,-445 192,-499 344,-499 344,-445 192,-445"/>
<text text-anchor="middle" x="268" y="-487.8" font-family="Arial" font-size="8.00">IEdgeChangeListener</text>
<polyline fill="none" stroke="black" points="192,-481 344,-481 "/>
<text text-anchor="middle" x="268" y="-469.8" font-family="Arial" font-size="8.00"> </text>
<polyline fill="none" stroke="black" points="192,-463 344,-463 "/>
<text text-anchor="start" x="200" y="-451.8" font-family="Arial" font-size="8.00">+ OnEdgesChanged (EdgeList edges)</text>
</g>
<!-- Box_IEdgeChangeListener&#45;&gt;Box_KnotRenderer -->
<g id="edge2" class="edge"><title>Box_IEdgeChangeListener&#45;&gt;Box_KnotRenderer</title>
<path fill="none" stroke="midnightblue" d="M289.503,-436.083C298.286,-421.413 308.739,-403.953 318.837,-387.086"/>
<polygon fill="none" stroke="midnightblue" points="286.403,-434.448 284.269,-444.825 292.409,-438.043 286.403,-434.448"/>
</g>
<!-- Box_IGameObject -->
<g id="node3" class="node"><title>Box_IGameObject</title>
<polygon fill="#dafcda" stroke="black" points="361.5,-425 361.5,-519 540.5,-519 540.5,-425 361.5,-425"/>
<text text-anchor="middle" x="451" y="-507.8" font-family="Arial" font-size="8.00">IGameObject</text>
<polyline fill="none" stroke="black" points="361.5,-501 540.5,-501 "/>
<text text-anchor="start" x="369.5" y="-489.8" font-family="Arial" font-size="8.00">+ Info : GameObjectInfo</text>
<text text-anchor="start" x="369.5" y="-479.8" font-family="Arial" font-size="8.00">+ World : World</text>
<polyline fill="none" stroke="black" points="361.5,-473 540.5,-473 "/>
<text text-anchor="start" x="369.5" y="-461.8" font-family="Arial" font-size="8.00">+ Draw (GameTime gameTime)</text>
<text text-anchor="start" x="369.5" y="-451.8" font-family="Arial" font-size="8.00">+ Update (GameTime gameTime)</text>
<text text-anchor="start" x="369.5" y="-441.8" font-family="Arial" font-size="8.00">+ Intersects (Ray ray) : GameObjectDistance</text>
<text text-anchor="start" x="369.5" y="-431.8" font-family="Arial" font-size="8.00">+ Center () : Vector3</text>
</g>
<!-- Box_IGameObject&#45;&gt;Box_KnotRenderer -->
<g id="edge4" class="edge"><title>Box_IGameObject&#45;&gt;Box_KnotRenderer</title>
<path fill="none" stroke="midnightblue" d="M417.214,-416.18C411.478,-406.702 405.467,-396.772 399.577,-387.041"/>
<polygon fill="none" stroke="midnightblue" points="414.223,-417.997 422.395,-424.739 420.211,-414.372 414.223,-417.997"/>
</g>
<!-- Box_IEnumerable -->
<g id="node7" class="node"><title>Box_IEnumerable</title>
<polygon fill="#ffffff" stroke="black" points="514.5,-311 514.5,-329 629.5,-329 629.5,-311 514.5,-311"/>
<text text-anchor="middle" x="572" y="-317.8" font-family="Arial" font-size="8.00">IEnumerable&lt;IGameObject&gt;</text>
</g>
<!-- Box_IEnumerable&#45;&gt;Box_ModelRenderer -->
<g id="edge10" class="edge"><title>Box_IEnumerable&#45;&gt;Box_ModelRenderer</title>
<path fill="none" stroke="midnightblue" d="M574.956,-301.007C578.057,-281.09 583.186,-248.137 588.337,-215.048"/>
<polygon fill="none" stroke="midnightblue" points="571.498,-300.471 573.418,-310.891 578.414,-301.548 571.498,-300.471"/>
</g>
<!-- Box_IEnumerable&#45;&gt;Box_PipeRenderer -->
<g id="edge14" class="edge"><title>Box_IEnumerable&#45;&gt;Box_PipeRenderer</title>
<path fill="none" stroke="midnightblue" d="M555.468,-303.546C531.987,-280.175 487.282,-235.68 446.442,-195.031"/>
<polygon fill="none" stroke="midnightblue" points="553.291,-306.317 562.848,-310.891 558.229,-301.355 553.291,-306.317"/>
</g>
</g>
</svg>
