<?xml version="1.0" encoding="UTF-8" standalone="no"?>
<!DOCTYPE svg PUBLIC "-//W3C//DTD SVG 1.1//EN"
 "http://www.w3.org/Graphics/SVG/1.1/DTD/svg11.dtd">
<!-- Generated by graphviz version 2.26.3 (20100126.1600)
 -->
<!-- Title: MenuItem Pages: 1 -->
<svg width="410pt" height="488pt"
 viewBox="0.00 0.00 410.00 488.00" xmlns="http://www.w3.org/2000/svg" xmlns:xlink="http://www.w3.org/1999/xlink">
<g id="graph1" class="graph" transform="scale(1 1) rotate(0) translate(4 484)">
<title>MenuItem</title>
<polygon fill="white" stroke="white" points="-4,5 -4,-484 407,-484 407,5 -4,5"/>
<!-- Box_PipeRenderer -->
<g id="node1" class="node"><title>Box_PipeRenderer</title>
<polygon fill="#fcfcda" stroke="black" points="146,-1 146,-175 364,-175 364,-1 146,-1"/>
<text text-anchor="middle" x="255" y="-163.8" font-family="Arial" font-size="8.00">PipeRenderer</text>
<polyline fill="none" stroke="black" points="146,-157 364,-157 "/>
<text text-anchor="start" x="154" y="-145.8" font-family="Arial" font-size="8.00">&#45; nodes : List&lt;NodeModel&gt;</text>
<text text-anchor="start" x="154" y="-135.8" font-family="Arial" font-size="8.00">&#45; nodeFactory : ModelFactory</text>
<text text-anchor="start" x="154" y="-125.8" font-family="Arial" font-size="8.00">&#45; pipeFactory : ModelFactory</text>
<text text-anchor="start" x="154" y="-115.8" font-family="Arial" font-size="8.00">&#45; pipes : List&lt;PipeModel&gt;</text>
<text text-anchor="start" x="154" y="-105.8" font-family="Arial" font-size="8.00">+ Info : GameObjectInfo</text>
<text text-anchor="start" x="154" y="-95.8" font-family="Arial" font-size="8.00">+ World : World</text>
<polyline fill="none" stroke="black" points="146,-89 364,-89 "/>
<text text-anchor="start" x="154" y="-77.8" font-family="Arial" font-size="8.00">&#45; IEnumerable.GetEnumerator () : IEnumerator</text>
<text text-anchor="start" x="154" y="-67.8" font-family="Arial" font-size="8.00">+ PipeRenderer (GameState state, GameObjectInfo info)</text>
<text text-anchor="start" x="154" y="-57.8" font-family="Arial" font-size="8.00">+ Draw (GameTime gameTime)</text>
<text text-anchor="start" x="154" y="-47.8" font-family="Arial" font-size="8.00">+ OnEdgesChanged (EdgeList edges)</text>
<text text-anchor="start" x="154" y="-37.8" font-family="Arial" font-size="8.00">+ GetEnumerator () : IEnumerator&lt;IGameObject&gt;</text>
<text text-anchor="start" x="154" y="-27.8" font-family="Arial" font-size="8.00">+ Intersects (Ray ray) : GameObjectDistance</text>
<text text-anchor="start" x="154" y="-17.8" font-family="Arial" font-size="8.00">+ Center () : Vector3</text>
<text text-anchor="start" x="154" y="-7.8" font-family="Arial" font-size="8.00">+ Update (GameTime gameTime)</text>
</g>
<!-- Box_KnotRenderer -->
<g id="node2" class="node"><title>Box_KnotRenderer</title>
<polygon fill="#fcfcda" stroke="black" points="59.5,-213 59.5,-347 270.5,-347 270.5,-213 59.5,-213"/>
<text text-anchor="middle" x="165" y="-335.8" font-family="Arial" font-size="8.00">KnotRenderer</text>
<polyline fill="none" stroke="black" points="59.5,-329 270.5,-329 "/>
<text text-anchor="start" x="67.5" y="-317.8" font-family="Arial" font-size="8.00">+ World : World abstract</text>
<text text-anchor="start" x="67.5" y="-307.8" font-family="Arial" font-size="8.00"># screen : GameScreen</text>
<text text-anchor="start" x="67.5" y="-297.8" font-family="Arial" font-size="8.00">+ Info : GameObjectInfo abstract</text>
<polyline fill="none" stroke="black" points="59.5,-291 270.5,-291 "/>
<text text-anchor="start" x="67.5" y="-279.8" font-family="Arial" font-size="8.00"># nodeMap () : NodeMap</text>
<text text-anchor="start" x="67.5" y="-269.8" font-family="Arial" font-size="8.00">+ Intersects (Ray ray) : GameObjectDistance abstract</text>
<text text-anchor="start" x="67.5" y="-259.8" font-family="Arial" font-size="8.00">+ Center () : Vector3 abstract</text>
<text text-anchor="start" x="67.5" y="-249.8" font-family="Arial" font-size="8.00">+ Draw (GameTime gameTime) abstract</text>
<text text-anchor="start" x="67.5" y="-239.8" font-family="Arial" font-size="8.00">+ KnotRenderer (GameScreen screen)</text>
<text text-anchor="start" x="67.5" y="-229.8" font-family="Arial" font-size="8.00">+ Update (GameTime gameTime) abstract</text>
<text text-anchor="start" x="67.5" y="-219.8" font-family="Arial" font-size="8.00">+ OnEdgesChanged (EdgeList edges) virtual</text>
</g>
<!-- Box_KnotRenderer&#45;&gt;Box_PipeRenderer -->
<g id="edge2" class="edge"><title>Box_KnotRenderer&#45;&gt;Box_PipeRenderer</title>
<path fill="none" stroke="midnightblue" d="M200.827,-203.568C205.225,-194.188 209.744,-184.547 214.207,-175.025"/>
<polygon fill="none" stroke="midnightblue" points="197.553,-202.308 196.478,-212.848 203.891,-205.279 197.553,-202.308"/>
</g>
<!-- Box_IGameObject -->
<g id="node3" class="node"><title>Box_IGameObject</title>
<polygon fill="#dafcda" stroke="black" points="-0.5,-385 -0.5,-479 178.5,-479 178.5,-385 -0.5,-385"/>
<text text-anchor="middle" x="89" y="-467.8" font-family="Arial" font-size="8.00">IGameObject</text>
<polyline fill="none" stroke="black" points="-0.5,-461 178.5,-461 "/>
<text text-anchor="start" x="7.5" y="-449.8" font-family="Arial" font-size="8.00">+ Info : GameObjectInfo</text>
<text text-anchor="start" x="7.5" y="-439.8" font-family="Arial" font-size="8.00">+ World : World</text>
<polyline fill="none" stroke="black" points="-0.5,-433 178.5,-433 "/>
<text text-anchor="start" x="7.5" y="-421.8" font-family="Arial" font-size="8.00">+ Draw (GameTime time)</text>
<text text-anchor="start" x="7.5" y="-411.8" font-family="Arial" font-size="8.00">+ Update (GameTime time)</text>
<text text-anchor="start" x="7.5" y="-401.8" font-family="Arial" font-size="8.00">+ Intersects (Ray ray) : GameObjectDistance</text>
<text text-anchor="start" x="7.5" y="-391.8" font-family="Arial" font-size="8.00">+ Center () : Vector3</text>
</g>
<!-- Box_IGameObject&#45;&gt;Box_KnotRenderer -->
<g id="edge8" class="edge"><title>Box_IGameObject&#45;&gt;Box_KnotRenderer</title>
<path fill="none" stroke="midnightblue" d="M117.2,-375.6C121.852,-366.297 126.713,-356.574 131.48,-347.041"/>
<polygon fill="none" stroke="midnightblue" points="113.972,-374.23 112.63,-384.739 120.233,-377.36 113.972,-374.23"/>
</g>
<!-- Box_IEnumerable -->
<g id="node4" class="node"><title>Box_IEnumerable</title>
<polygon fill="#ffffff" stroke="black" points="287.5,-271 287.5,-289 402.5,-289 402.5,-271 287.5,-271"/>
<text text-anchor="middle" x="345" y="-277.8" font-family="Arial" font-size="8.00">IEnumerable&lt;IGameObject&gt;</text>
</g>
<!-- Box_IEnumerable&#45;&gt;Box_PipeRenderer -->
<g id="edge4" class="edge"><title>Box_IEnumerable&#45;&gt;Box_PipeRenderer</title>
<path fill="none" stroke="midnightblue" d="M336.481,-261.827C327.068,-241.745 311.217,-207.929 295.984,-175.433"/>
<polygon fill="none" stroke="midnightblue" points="333.366,-263.428 340.78,-270.997 339.705,-260.457 333.366,-263.428"/>
</g>
<!-- Box_IEdgeChangeListener -->
<g id="node5" class="node"><title>Box_IEdgeChangeListener</title>
<polygon fill="#ffffff" stroke="black" points="195.5,-423 195.5,-441 288.5,-441 288.5,-423 195.5,-423"/>
<text text-anchor="middle" x="242" y="-429.8" font-family="Arial" font-size="8.00">IEdgeChangeListener</text>
</g>
<!-- Box_IEdgeChangeListener&#45;&gt;Box_KnotRenderer -->
<g id="edge6" class="edge"><title>Box_IEdgeChangeListener&#45;&gt;Box_KnotRenderer</title>
<path fill="none" stroke="midnightblue" d="M232.804,-413.848C224.374,-397.206 211.356,-371.507 198.971,-347.06"/>
<polygon fill="none" stroke="midnightblue" points="229.773,-415.608 237.414,-422.947 236.017,-412.445 229.773,-415.608"/>
</g>
</g>
</svg>
