<?xml version="1.0" encoding="UTF-8" standalone="no"?>
<!DOCTYPE svg PUBLIC "-//W3C//DTD SVG 1.1//EN"
 "http://www.w3.org/Graphics/SVG/1.1/DTD/svg11.dtd">
<!-- Generated by graphviz version 2.26.3 (20100126.1600)
 -->
<!-- Title: MenuItem Pages: 1 -->
<svg width="449pt" height="468pt"
 viewBox="0.00 0.00 449.00 468.00" xmlns="http://www.w3.org/2000/svg" xmlns:xlink="http://www.w3.org/1999/xlink">
<g id="graph1" class="graph" transform="scale(1 1) rotate(0) translate(4 464)">
<title>MenuItem</title>
<polygon fill="white" stroke="white" points="-4,5 -4,-464 446,-464 446,5 -4,5"/>
<!-- Box_MousePicker -->
<g id="node1" class="node"><title>Box_MousePicker</title>
<polygon fill="#fcfcda" stroke="black" points="178.5,-1 178.5,-121 363.5,-121 363.5,-1 178.5,-1"/>
<text text-anchor="middle" x="271" y="-109.8" font-family="Helvetica,sans-Serif" font-size="8.00">MousePicker</text>
<polyline fill="none" stroke="black" points="178.5,-101 363.5,-101 "/>
<text text-anchor="start" x="186.5" y="-89.8" font-family="Helvetica,sans-Serif" font-size="8.00">Attributes:</text>
<text text-anchor="start" x="186.5" y="-77.8" font-family="Helvetica,sans-Serif" font-size="8.00">&#45; World : World</text>
<text text-anchor="start" x="186.5" y="-65.8" font-family="Helvetica,sans-Serif" font-size="8.00">&#45; lastRayCheck : double</text>
<text text-anchor="start" x="186.5" y="-53.8" font-family="Helvetica,sans-Serif" font-size="8.00">Methods:</text>
<polyline fill="none" stroke="black" points="178.5,-45 363.5,-45 "/>
<text text-anchor="start" x="186.5" y="-33.8" font-family="Helvetica,sans-Serif" font-size="8.00">+ MousePicker (GameState state, World world)</text>
<text text-anchor="start" x="186.5" y="-21.8" font-family="Helvetica,sans-Serif" font-size="8.00">+ Update (GameTime gameTime)</text>
<text text-anchor="start" x="186.5" y="-9.8" font-family="Helvetica,sans-Serif" font-size="8.00">+ UpdateMouseRay (GameTime gameTime)</text>
</g>
<!-- Box_GameStateComponent -->
<g id="node2" class="node"><title>Box_GameStateComponent</title>
<polygon fill="#fcfcda" stroke="black" points="100.5,-159 100.5,-279 441.5,-279 441.5,-159 100.5,-159"/>
<text text-anchor="middle" x="271" y="-267.8" font-family="Helvetica,sans-Serif" font-size="8.00">GameStateComponent</text>
<polyline fill="none" stroke="black" points="100.5,-259 441.5,-259 "/>
<text text-anchor="start" x="108.5" y="-247.8" font-family="Helvetica,sans-Serif" font-size="8.00">Attributes:</text>
<text text-anchor="start" x="108.5" y="-235.8" font-family="Helvetica,sans-Serif" font-size="8.00"># InputOrder : DisplayLayer</text>
<text text-anchor="start" x="108.5" y="-223.8" font-family="Helvetica,sans-Serif" font-size="8.00">+ state : GameState</text>
<text text-anchor="start" x="108.5" y="-211.8" font-family="Helvetica,sans-Serif" font-size="8.00">+ Index : int</text>
<text text-anchor="start" x="108.5" y="-199.8" font-family="Helvetica,sans-Serif" font-size="8.00">Methods:</text>
<polyline fill="none" stroke="black" points="100.5,-191 441.5,-191 "/>
<text text-anchor="start" x="108.5" y="-179.8" font-family="Helvetica,sans-Serif" font-size="8.00">+ GameStateComponent (GameState state, DisplayLayer inputOrder)</text>
<text text-anchor="start" x="108.5" y="-167.8" font-family="Helvetica,sans-Serif" font-size="8.00">+ SubComponents (GameTime gameTime) : IEnumerable&lt;IGameStateComponent&gt; virtual</text>
</g>
<!-- Box_GameStateComponent&#45;&gt;Box_MousePicker -->
<g id="edge2" class="edge"><title>Box_GameStateComponent&#45;&gt;Box_MousePicker</title>
<path fill="none" stroke="midnightblue" d="M271,-148.538C271,-139.352 271,-130.01 271,-121.016"/>
<polygon fill="none" stroke="midnightblue" points="267.5,-148.816 271,-158.816 274.5,-148.816 267.5,-148.816"/>
</g>
<!-- Box_IGameStateComponent -->
<g id="node3" class="node"><title>Box_IGameStateComponent</title>
<polygon fill="#dafcda" stroke="black" points="0,-317 0,-401 318,-401 318,-317 0,-317"/>
<text text-anchor="middle" x="159" y="-389.8" font-family="Helvetica,sans-Serif" font-size="8.00">IGameStateComponent</text>
<polyline fill="none" stroke="black" points="0,-381 318,-381 "/>
<text text-anchor="start" x="8" y="-369.8" font-family="Helvetica,sans-Serif" font-size="8.00">Attributes:</text>
<text text-anchor="start" x="8" y="-357.8" font-family="Helvetica,sans-Serif" font-size="8.00">+ Index : int</text>
<text text-anchor="start" x="8" y="-345.8" font-family="Helvetica,sans-Serif" font-size="8.00">Methods:</text>
<polyline fill="none" stroke="black" points="0,-337 318,-337 "/>
<text text-anchor="start" x="8" y="-325.8" font-family="Helvetica,sans-Serif" font-size="8.00">+ SubComponents (GameTime gameTime) : IEnumerable&lt;IGameStateComponent&gt;</text>
</g>
<!-- Box_IGameStateComponent&#45;&gt;Box_GameStateComponent -->
<g id="edge6" class="edge"><title>Box_IGameStateComponent&#45;&gt;Box_GameStateComponent</title>
<path fill="none" stroke="midnightblue" d="M192.497,-309.005C200,-299.314 208.136,-289.065 216.239,-279.09"/>
<polygon fill="none" stroke="midnightblue" points="189.675,-306.933 186.358,-316.995 195.226,-311.198 189.675,-306.933"/>
</g>
<!-- Box_IGameStateComponent&#45;&gt;Box_GameStateComponent -->
<g id="edge12" class="edge"><title>Box_IGameStateComponent&#45;&gt;Box_GameStateComponent</title>
<path fill="none" stroke="midnightblue" d="M205.255,-309.295C213.332,-299.519 221.681,-289.165 229.618,-279.09"/>
<polygon fill="none" stroke="midnightblue" points="202.554,-307.069 198.849,-316.995 207.935,-311.546 202.554,-307.069"/>
</g>
<!-- Box_XnaGameComponent -->
<g id="node4" class="node"><title>Box_XnaGameComponent</title>
<polygon fill="#ffffff" stroke="black" points="335.5,-349 335.5,-369 432.5,-369 432.5,-349 335.5,-349"/>
<text text-anchor="middle" x="384" y="-357.8" font-family="Helvetica,sans-Serif" font-size="8.00">Xna.GameComponent</text>
</g>
<!-- Box_XnaGameComponent&#45;&gt;Box_GameStateComponent -->
<g id="edge4" class="edge"><title>Box_XnaGameComponent&#45;&gt;Box_GameStateComponent</title>
<path fill="none" stroke="midnightblue" d="M365.232,-341.507C350.878,-325.756 330.755,-301.667 312.743,-279.004"/>
<polygon fill="none" stroke="midnightblue" points="362.785,-344.015 372.17,-348.932 367.9,-339.235 362.785,-344.015"/>
</g>
<!-- Box_XnaGameComponent&#45;&gt;Box_GameStateComponent -->
<g id="edge10" class="edge"><title>Box_XnaGameComponent&#45;&gt;Box_GameStateComponent</title>
<path fill="none" stroke="midnightblue" d="M373.912,-340.631C362.768,-324.873 344.352,-301.251 326.12,-279.004"/>
<polygon fill="none" stroke="midnightblue" points="371.048,-342.645 379.576,-348.932 376.83,-338.699 371.048,-342.645"/>
</g>
<!-- Box_XnaIGameComponent -->
<g id="node5" class="node"><title>Box_XnaIGameComponent</title>
<polygon fill="#ffffff" stroke="black" points="109.5,-439 109.5,-459 208.5,-459 208.5,-439 109.5,-439"/>
<text text-anchor="middle" x="159" y="-447.8" font-family="Helvetica,sans-Serif" font-size="8.00">Xna.IGameComponent</text>
</g>
<!-- Box_XnaIGameComponent&#45;&gt;Box_IGameStateComponent -->
<g id="edge8" class="edge"><title>Box_XnaIGameComponent&#45;&gt;Box_IGameStateComponent</title>
<path fill="none" stroke="midnightblue" d="M153.253,-428.731C152.518,-420.612 152.187,-410.936 152.26,-401.414"/>
<polygon fill="none" stroke="midnightblue" points="149.783,-429.192 154.506,-438.676 156.728,-428.317 149.783,-429.192"/>
</g>
<!-- Box_XnaIGameComponent&#45;&gt;Box_IGameStateComponent -->
<g id="edge14" class="edge"><title>Box_XnaIGameComponent&#45;&gt;Box_IGameStateComponent</title>
<path fill="none" stroke="midnightblue" d="M164.747,-428.731C165.482,-420.612 165.813,-410.936 165.74,-401.414"/>
<polygon fill="none" stroke="midnightblue" points="161.272,-428.317 163.494,-438.676 168.217,-429.192 161.272,-428.317"/>
</g>
</g>
</svg>
