<?xml version="1.0" encoding="UTF-8" standalone="no"?>
<!DOCTYPE svg PUBLIC "-//W3C//DTD SVG 1.1//EN"
 "http://www.w3.org/Graphics/SVG/1.1/DTD/svg11.dtd">
<!-- Generated by graphviz version 2.26.3 (20100126.1600)
 -->
<!-- Title: MenuItem Pages: 1 -->
<svg width="500pt" height="516pt"
 viewBox="0.00 0.00 500.00 516.00" xmlns="http://www.w3.org/2000/svg" xmlns:xlink="http://www.w3.org/1999/xlink">
<g id="graph1" class="graph" transform="scale(1 1) rotate(0) translate(4 512)">
<title>MenuItem</title>
<polygon fill="white" stroke="white" points="-4,5 -4,-512 497,-512 497,5 -4,5"/>
<!-- Box_DrawableGameStateComponent -->
<g id="node1" class="node"><title>Box_DrawableGameStateComponent</title>
<polygon fill="#fcfcda" stroke="black" points="135.5,-267 135.5,-351 476.5,-351 476.5,-267 135.5,-267"/>
<text text-anchor="middle" x="306" y="-339.8" font-family="Helvetica,sans-Serif" font-size="8.00">DrawableGameStateComponent</text>
<polyline fill="none" stroke="black" points="135.5,-331 476.5,-331 "/>
<text text-anchor="start" x="143.5" y="-319.8" font-family="Helvetica,sans-Serif" font-size="8.00">+ state : GameState</text>
<text text-anchor="start" x="143.5" y="-307.8" font-family="Helvetica,sans-Serif" font-size="8.00">+ Index : int</text>
<polyline fill="none" stroke="black" points="135.5,-299 476.5,-299 "/>
<text text-anchor="start" x="143.5" y="-287.8" font-family="Helvetica,sans-Serif" font-size="8.00">+ DrawableGameStateComponent (GameState state, DisplayLayer drawOrder)</text>
<text text-anchor="start" x="143.5" y="-275.8" font-family="Helvetica,sans-Serif" font-size="8.00">+ SubComponents (GameTime gameTime) : IEnumerable&lt;IGameStateComponent&gt; virtual</text>
</g>
<!-- Box_World -->
<g id="node3" class="node"><title>Box_World</title>
<polygon fill="#fcfcda" stroke="black" points="7,-1 7,-229 357,-229 357,-1 7,-1"/>
<text text-anchor="middle" x="182" y="-217.8" font-family="Helvetica,sans-Serif" font-size="8.00">World</text>
<polyline fill="none" stroke="black" points="7,-209 357,-209 "/>
<text text-anchor="start" x="15" y="-197.8" font-family="Helvetica,sans-Serif" font-size="8.00">&#45; knotRenderEffects : List&lt;RenderEffect&gt;</text>
<text text-anchor="start" x="15" y="-185.8" font-family="Helvetica,sans-Serif" font-size="8.00">&#45; knotRenderEffect : RenderEffect</text>
<text text-anchor="start" x="15" y="-173.8" font-family="Helvetica,sans-Serif" font-size="8.00">+ Objects : List&lt;IGameObject&gt;</text>
<text text-anchor="start" x="15" y="-161.8" font-family="Helvetica,sans-Serif" font-size="8.00">+ SelectedObject : IGameObject</text>
<text text-anchor="start" x="15" y="-149.8" font-family="Helvetica,sans-Serif" font-size="8.00">+ Camera : Camera</text>
<text text-anchor="start" x="15" y="-137.8" font-family="Helvetica,sans-Serif" font-size="8.00">&#45; floor : TexturedRectangle</text>
<polyline fill="none" stroke="black" points="7,-129 357,-129 "/>
<text text-anchor="start" x="15" y="-117.8" font-family="Helvetica,sans-Serif" font-size="8.00">+ World (GameState state)</text>
<text text-anchor="start" x="15" y="-105.8" font-family="Helvetica,sans-Serif" font-size="8.00">+ SelectObject (IGameObject obj, GameTime gameTime)</text>
<text text-anchor="start" x="15" y="-93.8" font-family="Helvetica,sans-Serif" font-size="8.00">+ SelectedObjectDistance () : float</text>
<text text-anchor="start" x="15" y="-81.8" font-family="Helvetica,sans-Serif" font-size="8.00">+ Add (IGameObject obj)</text>
<text text-anchor="start" x="15" y="-69.8" font-family="Helvetica,sans-Serif" font-size="8.00">+ Initialize () override</text>
<text text-anchor="start" x="15" y="-57.8" font-family="Helvetica,sans-Serif" font-size="8.00">+ Draw (GameTime gameTime) override</text>
<text text-anchor="start" x="15" y="-45.8" font-family="Helvetica,sans-Serif" font-size="8.00">+ Update (GameTime gameTime) override</text>
<text text-anchor="start" x="15" y="-33.8" font-family="Helvetica,sans-Serif" font-size="8.00">+ GetEnumerator () : IEnumerator&lt;IGameObject&gt;</text>
<text text-anchor="start" x="15" y="-21.8" font-family="Helvetica,sans-Serif" font-size="8.00">&#45; IEnumerable.GetEnumerator () : IEnumerator</text>
<text text-anchor="start" x="15" y="-9.8" font-family="Helvetica,sans-Serif" font-size="8.00">+ SubComponents (GameTime gameTime) : IEnumerable&lt;IGameStateComponent&gt; override</text>
</g>
<!-- Box_DrawableGameStateComponent&#45;&gt;Box_World -->
<g id="edge8" class="edge"><title>Box_DrawableGameStateComponent&#45;&gt;Box_World</title>
<path fill="none" stroke="midnightblue" d="M273.656,-258.397C267.828,-249.279 261.543,-239.446 255.092,-229.354"/>
<polygon fill="none" stroke="midnightblue" points="270.759,-260.364 279.094,-266.905 276.657,-256.594 270.759,-260.364"/>
</g>
<!-- Box_IGameStateComponent -->
<g id="node2" class="node"><title>Box_IGameStateComponent</title>
<polygon fill="#dafcda" stroke="black" points="26,-389 26,-449 344,-449 344,-389 26,-389"/>
<text text-anchor="middle" x="185" y="-437.8" font-family="Helvetica,sans-Serif" font-size="8.00">IGameStateComponent</text>
<polyline fill="none" stroke="black" points="26,-429 344,-429 "/>
<text text-anchor="start" x="34" y="-417.8" font-family="Helvetica,sans-Serif" font-size="8.00">+ Index : int</text>
<polyline fill="none" stroke="black" points="26,-409 344,-409 "/>
<text text-anchor="start" x="34" y="-397.8" font-family="Helvetica,sans-Serif" font-size="8.00">+ SubComponents (GameTime gameTime) : IEnumerable&lt;IGameStateComponent&gt;</text>
</g>
<!-- Box_IGameStateComponent&#45;&gt;Box_DrawableGameStateComponent -->
<g id="edge4" class="edge"><title>Box_IGameStateComponent&#45;&gt;Box_DrawableGameStateComponent</title>
<path fill="none" stroke="midnightblue" d="M225.738,-381.965C236.538,-372.147 248.282,-361.47 259.37,-351.391"/>
<polygon fill="none" stroke="midnightblue" points="223.109,-379.625 218.064,-388.942 227.818,-384.805 223.109,-379.625"/>
</g>
<!-- Box_XnaDrawableGameComponent -->
<g id="node4" class="node"><title>Box_XnaDrawableGameComponent</title>
<polygon fill="#ffffff" stroke="black" points="361.5,-409 361.5,-429 492.5,-429 492.5,-409 361.5,-409"/>
<text text-anchor="middle" x="427" y="-417.8" font-family="Helvetica,sans-Serif" font-size="8.00">Xna.DrawableGameComponent</text>
</g>
<!-- Box_XnaDrawableGameComponent&#45;&gt;Box_DrawableGameStateComponent -->
<g id="edge2" class="edge"><title>Box_XnaDrawableGameComponent&#45;&gt;Box_DrawableGameStateComponent</title>
<path fill="none" stroke="midnightblue" d="M408.298,-401.998C393.412,-388.466 371.923,-368.93 352.479,-351.254"/>
<polygon fill="none" stroke="midnightblue" points="406.08,-404.712 415.833,-408.849 410.788,-399.532 406.08,-404.712"/>
</g>
<!-- Box_XnaIGameComponent -->
<g id="node5" class="node"><title>Box_XnaIGameComponent</title>
<polygon fill="#ffffff" stroke="black" points="135.5,-487 135.5,-507 234.5,-507 234.5,-487 135.5,-487"/>
<text text-anchor="middle" x="185" y="-495.8" font-family="Helvetica,sans-Serif" font-size="8.00">Xna.IGameComponent</text>
</g>
<!-- Box_XnaIGameComponent&#45;&gt;Box_IGameStateComponent -->
<g id="edge6" class="edge"><title>Box_XnaIGameComponent&#45;&gt;Box_IGameStateComponent</title>
<path fill="none" stroke="midnightblue" d="M185,-476.777C185,-468.329 185,-458.337 185,-449.059"/>
<polygon fill="none" stroke="midnightblue" points="181.5,-476.803 185,-486.803 188.5,-476.803 181.5,-476.803"/>
</g>
<!-- Box_IEnumerable -->
<g id="node6" class="node"><title>Box_IEnumerable</title>
<polygon fill="#ffffff" stroke="black" points="0,-299 0,-319 118,-319 118,-299 0,-299"/>
<text text-anchor="middle" x="59" y="-307.8" font-family="Helvetica,sans-Serif" font-size="8.00">IEnumerable&lt;IGameObject&gt;</text>
</g>
<!-- Box_IEnumerable&#45;&gt;Box_World -->
<g id="edge10" class="edge"><title>Box_IEnumerable&#45;&gt;Box_World</title>
<path fill="none" stroke="midnightblue" d="M70.9512,-290.15C80.4075,-275.235 94.4753,-253.047 109.447,-229.433"/>
<polygon fill="none" stroke="midnightblue" points="67.8386,-288.523 65.4398,-298.843 73.7505,-292.271 67.8386,-288.523"/>
</g>
</g>
</svg>
