<?xml version="1.0" encoding="UTF-8" standalone="no"?>
<!DOCTYPE svg PUBLIC "-//W3C//DTD SVG 1.1//EN"
 "http://www.w3.org/Graphics/SVG/1.1/DTD/svg11.dtd">
<!-- Generated by graphviz version 2.26.3 (20100126.1600)
 -->
<!-- Title: MenuItem Pages: 1 -->
<svg width="594pt" height="588pt"
 viewBox="0.00 0.00 594.00 588.00" xmlns="http://www.w3.org/2000/svg" xmlns:xlink="http://www.w3.org/1999/xlink">
<g id="graph1" class="graph" transform="scale(1 1) rotate(0) translate(4 584)">
<title>MenuItem</title>
<polygon fill="white" stroke="white" points="-4,5 -4,-584 591,-584 591,5 -4,5"/>
<!-- Box_World -->
<g id="node1" class="node"><title>Box_World</title>
<polygon fill="#fcfcda" stroke="black" points="228,-1 228,-253 578,-253 578,-1 228,-1"/>
<text text-anchor="middle" x="403" y="-241.8" font-family="Helvetica,sans-Serif" font-size="8.00">World</text>
<polyline fill="none" stroke="black" points="228,-233 578,-233 "/>
<text text-anchor="start" x="236" y="-221.8" font-family="Helvetica,sans-Serif" font-size="8.00">Attributes:</text>
<text text-anchor="start" x="236" y="-209.8" font-family="Helvetica,sans-Serif" font-size="8.00">&#45; knotRenderEffects : List&lt;RenderEffect&gt;</text>
<text text-anchor="start" x="236" y="-197.8" font-family="Helvetica,sans-Serif" font-size="8.00">&#45; knotRenderEffect : RenderEffect</text>
<text text-anchor="start" x="236" y="-185.8" font-family="Helvetica,sans-Serif" font-size="8.00">+ Objects : List&lt;IGameObject&gt;</text>
<text text-anchor="start" x="236" y="-173.8" font-family="Helvetica,sans-Serif" font-size="8.00">+ SelectedObject : IGameObject</text>
<text text-anchor="start" x="236" y="-161.8" font-family="Helvetica,sans-Serif" font-size="8.00">+ Camera : Camera</text>
<text text-anchor="start" x="236" y="-149.8" font-family="Helvetica,sans-Serif" font-size="8.00">&#45; floor : TexturedRectangle</text>
<text text-anchor="start" x="236" y="-137.8" font-family="Helvetica,sans-Serif" font-size="8.00">Methods:</text>
<polyline fill="none" stroke="black" points="228,-129 578,-129 "/>
<text text-anchor="start" x="236" y="-117.8" font-family="Helvetica,sans-Serif" font-size="8.00">+ World (GameState state)</text>
<text text-anchor="start" x="236" y="-105.8" font-family="Helvetica,sans-Serif" font-size="8.00">+ SelectObject (IGameObject obj, GameTime gameTime)</text>
<text text-anchor="start" x="236" y="-93.8" font-family="Helvetica,sans-Serif" font-size="8.00">+ SelectedObjectDistance () : float</text>
<text text-anchor="start" x="236" y="-81.8" font-family="Helvetica,sans-Serif" font-size="8.00">+ Add (IGameObject obj)</text>
<text text-anchor="start" x="236" y="-69.8" font-family="Helvetica,sans-Serif" font-size="8.00">+ Initialize () override</text>
<text text-anchor="start" x="236" y="-57.8" font-family="Helvetica,sans-Serif" font-size="8.00">+ Draw (GameTime gameTime) override</text>
<text text-anchor="start" x="236" y="-45.8" font-family="Helvetica,sans-Serif" font-size="8.00">+ Update (GameTime gameTime) override</text>
<text text-anchor="start" x="236" y="-33.8" font-family="Helvetica,sans-Serif" font-size="8.00">+ GetEnumerator () : IEnumerator&lt;IGameObject&gt;</text>
<text text-anchor="start" x="236" y="-21.8" font-family="Helvetica,sans-Serif" font-size="8.00">&#45; IEnumerable.GetEnumerator () : IEnumerator</text>
<text text-anchor="start" x="236" y="-9.8" font-family="Helvetica,sans-Serif" font-size="8.00">+ SubComponents (GameTime gameTime) : IEnumerable&lt;IGameStateComponent&gt; override</text>
</g>
<!-- Box_DrawableGameStateComponent -->
<g id="node2" class="node"><title>Box_DrawableGameStateComponent</title>
<polygon fill="#fcfcda" stroke="black" points="109.5,-291 109.5,-399 450.5,-399 450.5,-291 109.5,-291"/>
<text text-anchor="middle" x="280" y="-387.8" font-family="Helvetica,sans-Serif" font-size="8.00">DrawableGameStateComponent</text>
<polyline fill="none" stroke="black" points="109.5,-379 450.5,-379 "/>
<text text-anchor="start" x="117.5" y="-367.8" font-family="Helvetica,sans-Serif" font-size="8.00">Attributes:</text>
<text text-anchor="start" x="117.5" y="-355.8" font-family="Helvetica,sans-Serif" font-size="8.00">+ state : GameState</text>
<text text-anchor="start" x="117.5" y="-343.8" font-family="Helvetica,sans-Serif" font-size="8.00">+ Index : int</text>
<text text-anchor="start" x="117.5" y="-331.8" font-family="Helvetica,sans-Serif" font-size="8.00">Methods:</text>
<polyline fill="none" stroke="black" points="109.5,-323 450.5,-323 "/>
<text text-anchor="start" x="117.5" y="-311.8" font-family="Helvetica,sans-Serif" font-size="8.00">+ DrawableGameStateComponent (GameState state, DisplayLayer drawOrder)</text>
<text text-anchor="start" x="117.5" y="-299.8" font-family="Helvetica,sans-Serif" font-size="8.00">+ SubComponents (GameTime gameTime) : IEnumerable&lt;IGameStateComponent&gt; virtual</text>
</g>
<!-- Box_DrawableGameStateComponent&#45;&gt;Box_World -->
<g id="edge2" class="edge"><title>Box_DrawableGameStateComponent&#45;&gt;Box_World</title>
<path fill="none" stroke="midnightblue" d="M315.477,-282.122C320.709,-272.85 326.248,-263.032 331.898,-253.018"/>
<polygon fill="none" stroke="midnightblue" points="312.428,-280.403 310.563,-290.832 318.525,-283.843 312.428,-280.403"/>
</g>
<!-- Box_IGameStateComponent -->
<g id="node3" class="node"><title>Box_IGameStateComponent</title>
<polygon fill="#dafcda" stroke="black" points="0,-437 0,-521 318,-521 318,-437 0,-437"/>
<text text-anchor="middle" x="159" y="-509.8" font-family="Helvetica,sans-Serif" font-size="8.00">IGameStateComponent</text>
<polyline fill="none" stroke="black" points="0,-501 318,-501 "/>
<text text-anchor="start" x="8" y="-489.8" font-family="Helvetica,sans-Serif" font-size="8.00">Attributes:</text>
<text text-anchor="start" x="8" y="-477.8" font-family="Helvetica,sans-Serif" font-size="8.00">+ Index : int</text>
<text text-anchor="start" x="8" y="-465.8" font-family="Helvetica,sans-Serif" font-size="8.00">Methods:</text>
<polyline fill="none" stroke="black" points="0,-457 318,-457 "/>
<text text-anchor="start" x="8" y="-445.8" font-family="Helvetica,sans-Serif" font-size="8.00">+ SubComponents (GameTime gameTime) : IEnumerable&lt;IGameStateComponent&gt;</text>
</g>
<!-- Box_IGameStateComponent&#45;&gt;Box_DrawableGameStateComponent -->
<g id="edge8" class="edge"><title>Box_IGameStateComponent&#45;&gt;Box_DrawableGameStateComponent</title>
<path fill="none" stroke="midnightblue" d="M203.666,-429.535C212.59,-419.653 222.007,-409.224 231.065,-399.192"/>
<polygon fill="none" stroke="midnightblue" points="201.057,-427.202 196.953,-436.969 206.253,-431.893 201.057,-427.202"/>
</g>
<!-- Box_IEnumerable -->
<g id="node4" class="node"><title>Box_IEnumerable</title>
<polygon fill="#ffffff" stroke="black" points="468,-335 468,-355 586,-355 586,-335 468,-335"/>
<text text-anchor="middle" x="527" y="-343.8" font-family="Helvetica,sans-Serif" font-size="8.00">IEnumerable&lt;IGameObject&gt;</text>
</g>
<!-- Box_IEnumerable&#45;&gt;Box_World -->
<g id="edge4" class="edge"><title>Box_IEnumerable&#45;&gt;Box_World</title>
<path fill="none" stroke="midnightblue" d="M516.084,-325.809C506.28,-308.572 490.965,-281.649 474.738,-253.12"/>
<polygon fill="none" stroke="midnightblue" points="513.199,-327.816 521.186,-334.778 519.284,-324.355 513.199,-327.816"/>
</g>
<!-- Box_XnaDrawableGameComponent -->
<g id="node5" class="node"><title>Box_XnaDrawableGameComponent</title>
<polygon fill="#ffffff" stroke="black" points="335.5,-469 335.5,-489 466.5,-489 466.5,-469 335.5,-469"/>
<text text-anchor="middle" x="401" y="-477.8" font-family="Helvetica,sans-Serif" font-size="8.00">Xna.DrawableGameComponent</text>
</g>
<!-- Box_XnaDrawableGameComponent&#45;&gt;Box_DrawableGameStateComponent -->
<g id="edge6" class="edge"><title>Box_XnaDrawableGameComponent&#45;&gt;Box_DrawableGameStateComponent</title>
<path fill="none" stroke="midnightblue" d="M385.148,-461.445C370.817,-445.574 348.95,-421.357 328.861,-399.111"/>
<polygon fill="none" stroke="midnightblue" points="382.606,-463.852 391.905,-468.928 387.801,-459.161 382.606,-463.852"/>
</g>
<!-- Box_XnaIGameComponent -->
<g id="node6" class="node"><title>Box_XnaIGameComponent</title>
<polygon fill="#ffffff" stroke="black" points="109.5,-559 109.5,-579 208.5,-579 208.5,-559 109.5,-559"/>
<text text-anchor="middle" x="159" y="-567.8" font-family="Helvetica,sans-Serif" font-size="8.00">Xna.IGameComponent</text>
</g>
<!-- Box_XnaIGameComponent&#45;&gt;Box_IGameStateComponent -->
<g id="edge10" class="edge"><title>Box_XnaIGameComponent&#45;&gt;Box_IGameStateComponent</title>
<path fill="none" stroke="midnightblue" d="M159,-548.454C159,-540.393 159,-530.828 159,-521.414"/>
<polygon fill="none" stroke="midnightblue" points="155.5,-548.676 159,-558.676 162.5,-548.676 155.5,-548.676"/>
</g>
</g>
</svg>
