<?xml version="1.0" encoding="UTF-8" standalone="no"?>
<!DOCTYPE svg PUBLIC "-//W3C//DTD SVG 1.1//EN"
 "http://www.w3.org/Graphics/SVG/1.1/DTD/svg11.dtd">
<!-- Generated by graphviz version 2.26.3 (20100126.1600)
 -->
<!-- Title: MenuItem Pages: 1 -->
<svg width="178pt" height="308pt"
 viewBox="0.00 0.00 178.00 308.00" xmlns="http://www.w3.org/2000/svg" xmlns:xlink="http://www.w3.org/1999/xlink">
<g id="graph1" class="graph" transform="scale(1 1) rotate(0) translate(4 304)">
<title>MenuItem</title>
<polygon fill="white" stroke="white" points="-4,5 -4,-304 175,-304 175,5 -4,5"/>
<!-- Box_Game -->
<g id="node1" class="node"><title>Box_Game</title>
<polygon fill="#fcfcda" stroke="black" points="0,-1 0,-241 170,-241 170,-1 0,-1"/>
<text text-anchor="middle" x="85" y="-229.8" font-family="Helvetica,sans-Serif" font-size="8.00">Game</text>
<polyline fill="none" stroke="black" points="0,-221 170,-221 "/>
<text text-anchor="start" x="8" y="-209.8" font-family="Helvetica,sans-Serif" font-size="8.00">Attributes:</text>
<text text-anchor="start" x="8" y="-197.8" font-family="Helvetica,sans-Serif" font-size="8.00">+ graphics : GraphicsDeviceManager</text>
<text text-anchor="start" x="8" y="-185.8" font-family="Helvetica,sans-Serif" font-size="8.00">+ State : GameState</text>
<text text-anchor="start" x="8" y="-173.8" font-family="Helvetica,sans-Serif" font-size="8.00">+ DefaultSize : Vector2 static</text>
<text text-anchor="start" x="8" y="-161.8" font-family="Helvetica,sans-Serif" font-size="8.00">+ Debug : bool static</text>
<text text-anchor="start" x="8" y="-149.8" font-family="Helvetica,sans-Serif" font-size="8.00">+ VSync : bool</text>
<text text-anchor="start" x="8" y="-137.8" font-family="Helvetica,sans-Serif" font-size="8.00">&#45; isFullscreen : bool</text>
<text text-anchor="start" x="8" y="-125.8" font-family="Helvetica,sans-Serif" font-size="8.00">+ IsFullscreen : bool</text>
<text text-anchor="start" x="8" y="-113.8" font-family="Helvetica,sans-Serif" font-size="8.00">Methods:</text>
<polyline fill="none" stroke="black" points="0,-105 170,-105 "/>
<text text-anchor="start" x="8" y="-93.8" font-family="Helvetica,sans-Serif" font-size="8.00">+ Game ()</text>
<text text-anchor="start" x="8" y="-81.8" font-family="Helvetica,sans-Serif" font-size="8.00"># Initialize () override</text>
<text text-anchor="start" x="8" y="-69.8" font-family="Helvetica,sans-Serif" font-size="8.00"># LoadContent () override</text>
<text text-anchor="start" x="8" y="-57.8" font-family="Helvetica,sans-Serif" font-size="8.00"># UnloadContent () override</text>
<text text-anchor="start" x="8" y="-45.8" font-family="Helvetica,sans-Serif" font-size="8.00"># Update (GameTime gameTime) override</text>
<text text-anchor="start" x="8" y="-33.8" font-family="Helvetica,sans-Serif" font-size="8.00">&#45; UpdateInput (GameTime gameTime)</text>
<text text-anchor="start" x="8" y="-21.8" font-family="Helvetica,sans-Serif" font-size="8.00"># Draw (GameTime gameTime) override</text>
<text text-anchor="start" x="8" y="-9.8" font-family="Helvetica,sans-Serif" font-size="8.00">+ Time (Action action) : TimeSpan static</text>
</g>
<!-- Box_MicrosoftXnaFrameworkGame -->
<g id="node2" class="node"><title>Box_MicrosoftXnaFrameworkGame</title>
<polygon fill="#ffffff" stroke="black" points="18.5,-279 18.5,-299 151.5,-299 151.5,-279 18.5,-279"/>
<text text-anchor="middle" x="85" y="-287.8" font-family="Helvetica,sans-Serif" font-size="8.00">Microsoft.Xna.Framework.Game</text>
</g>
<!-- Box_MicrosoftXnaFrameworkGame&#45;&gt;Box_Game -->
<g id="edge2" class="edge"><title>Box_MicrosoftXnaFrameworkGame&#45;&gt;Box_Game</title>
<path fill="none" stroke="midnightblue" d="M85,-268.768C85,-261.086 85,-251.675 85,-241.356"/>
<polygon fill="none" stroke="midnightblue" points="81.5001,-268.994 85,-278.994 88.5001,-268.994 81.5001,-268.994"/>
</g>
</g>
</svg>
