<?xml version="1.0" encoding="UTF-8" standalone="no"?>
<!DOCTYPE svg PUBLIC "-//W3C//DTD SVG 1.1//EN"
 "http://www.w3.org/Graphics/SVG/1.1/DTD/svg11.dtd">
<!-- Generated by graphviz version 2.26.3 (20100126.1600)
 -->
<!-- Title: MenuItem Pages: 1 -->
<svg width="753pt" height="468pt"
 viewBox="0.00 0.00 753.00 468.00" xmlns="http://www.w3.org/2000/svg" xmlns:xlink="http://www.w3.org/1999/xlink">
<g id="graph1" class="graph" transform="scale(1 1) rotate(0) translate(4 464)">
<title>MenuItem</title>
<polygon fill="white" stroke="white" points="-4,5 -4,-464 750,-464 750,5 -4,5"/>
<!-- Box_PipeColoring -->
<g id="node1" class="node"><title>Box_PipeColoring</title>
<polygon fill="#fcfcda" stroke="black" points="293,-1 293,-133 579,-133 579,-1 293,-1"/>
<text text-anchor="middle" x="436" y="-121.8" font-family="Helvetica,sans-Serif" font-size="8.00">PipeColoring</text>
<polyline fill="none" stroke="black" points="293,-113 579,-113 "/>
<text text-anchor="start" x="301" y="-101.8" font-family="Helvetica,sans-Serif" font-size="8.00">Attributes:</text>
<text text-anchor="start" x="301" y="-89.8" font-family="Helvetica,sans-Serif" font-size="8.00">+ ValidKeys : List&lt;Keys&gt;</text>
<text text-anchor="start" x="301" y="-77.8" font-family="Helvetica,sans-Serif" font-size="8.00">+ Knot : Knot</text>
<text text-anchor="start" x="301" y="-65.8" font-family="Helvetica,sans-Serif" font-size="8.00">+ IsKeyEventEnabled : bool</text>
<text text-anchor="start" x="301" y="-53.8" font-family="Helvetica,sans-Serif" font-size="8.00">Methods:</text>
<polyline fill="none" stroke="black" points="293,-45 579,-45 "/>
<text text-anchor="start" x="301" y="-33.8" font-family="Helvetica,sans-Serif" font-size="8.00">+ OnKeyEvent (List&lt;Keys&gt; key, KeyEvent keyEvent, GameTime gameTime)</text>
<text text-anchor="start" x="301" y="-21.8" font-family="Helvetica,sans-Serif" font-size="8.00">+ PipeColoring (GameState state)</text>
<text text-anchor="start" x="301" y="-9.8" font-family="Helvetica,sans-Serif" font-size="8.00">+ Update (GameTime gameTime)</text>
</g>
<!-- Box_GameStateComponent -->
<g id="node2" class="node"><title>Box_GameStateComponent</title>
<polygon fill="#fcfcda" stroke="black" points="100.5,-171 100.5,-279 441.5,-279 441.5,-171 100.5,-171"/>
<text text-anchor="middle" x="271" y="-267.8" font-family="Helvetica,sans-Serif" font-size="8.00">GameStateComponent</text>
<polyline fill="none" stroke="black" points="100.5,-259 441.5,-259 "/>
<text text-anchor="start" x="108.5" y="-247.8" font-family="Helvetica,sans-Serif" font-size="8.00">Attributes:</text>
<text text-anchor="start" x="108.5" y="-235.8" font-family="Helvetica,sans-Serif" font-size="8.00">+ Index : DisplayLayer</text>
<text text-anchor="start" x="108.5" y="-223.8" font-family="Helvetica,sans-Serif" font-size="8.00">+ state : GameState</text>
<text text-anchor="start" x="108.5" y="-211.8" font-family="Helvetica,sans-Serif" font-size="8.00">Methods:</text>
<polyline fill="none" stroke="black" points="100.5,-203 441.5,-203 "/>
<text text-anchor="start" x="108.5" y="-191.8" font-family="Helvetica,sans-Serif" font-size="8.00">+ GameStateComponent (GameState state, DisplayLayer index)</text>
<text text-anchor="start" x="108.5" y="-179.8" font-family="Helvetica,sans-Serif" font-size="8.00">+ SubComponents (GameTime gameTime) : IEnumerable&lt;IGameStateComponent&gt; virtual</text>
</g>
<!-- Box_GameStateComponent&#45;&gt;Box_PipeColoring -->
<g id="edge2" class="edge"><title>Box_GameStateComponent&#45;&gt;Box_PipeColoring</title>
<path fill="none" stroke="midnightblue" d="M335.249,-163.477C345.613,-153.552 356.382,-143.24 366.856,-133.21"/>
<polygon fill="none" stroke="midnightblue" points="332.586,-161.181 327.784,-170.625 337.427,-166.237 332.586,-161.181"/>
</g>
<!-- Box_IGameStateComponent -->
<g id="node3" class="node"><title>Box_IGameStateComponent</title>
<polygon fill="#dafcda" stroke="black" points="0,-317 0,-401 318,-401 318,-317 0,-317"/>
<text text-anchor="middle" x="159" y="-389.8" font-family="Helvetica,sans-Serif" font-size="8.00">IGameStateComponent</text>
<polyline fill="none" stroke="black" points="0,-381 318,-381 "/>
<text text-anchor="start" x="8" y="-369.8" font-family="Helvetica,sans-Serif" font-size="8.00">Attributes:</text>
<text text-anchor="start" x="8" y="-357.8" font-family="Helvetica,sans-Serif" font-size="8.00">+ Index : DisplayLayer</text>
<text text-anchor="start" x="8" y="-345.8" font-family="Helvetica,sans-Serif" font-size="8.00">Methods:</text>
<polyline fill="none" stroke="black" points="0,-337 318,-337 "/>
<text text-anchor="start" x="8" y="-325.8" font-family="Helvetica,sans-Serif" font-size="8.00">+ SubComponents (GameTime gameTime) : IEnumerable&lt;IGameStateComponent&gt;</text>
</g>
<!-- Box_IGameStateComponent&#45;&gt;Box_GameStateComponent -->
<g id="edge8" class="edge"><title>Box_IGameStateComponent&#45;&gt;Box_GameStateComponent</title>
<path fill="none" stroke="midnightblue" d="M200.587,-309.244C208.774,-299.448 217.403,-289.125 225.705,-279.192"/>
<polygon fill="none" stroke="midnightblue" points="197.858,-307.052 194.13,-316.969 203.229,-311.541 197.858,-307.052"/>
</g>
<!-- Box_IKeyEventListener -->
<g id="node4" class="node"><title>Box_IKeyEventListener</title>
<polygon fill="#dafcda" stroke="black" points="459,-171 459,-279 745,-279 745,-171 459,-171"/>
<text text-anchor="middle" x="602" y="-267.8" font-family="Helvetica,sans-Serif" font-size="8.00">IKeyEventListener</text>
<polyline fill="none" stroke="black" points="459,-259 745,-259 "/>
<text text-anchor="start" x="467" y="-247.8" font-family="Helvetica,sans-Serif" font-size="8.00">Attributes:</text>
<text text-anchor="start" x="467" y="-235.8" font-family="Helvetica,sans-Serif" font-size="8.00">+ ValidKeys : List&lt;Keys&gt;</text>
<text text-anchor="start" x="467" y="-223.8" font-family="Helvetica,sans-Serif" font-size="8.00">+ Index : DisplayLayer</text>
<text text-anchor="start" x="467" y="-211.8" font-family="Helvetica,sans-Serif" font-size="8.00">+ IsKeyEventEnabled : bool</text>
<text text-anchor="start" x="467" y="-199.8" font-family="Helvetica,sans-Serif" font-size="8.00">Methods:</text>
<polyline fill="none" stroke="black" points="459,-191 745,-191 "/>
<text text-anchor="start" x="467" y="-179.8" font-family="Helvetica,sans-Serif" font-size="8.00">+ OnKeyEvent (List&lt;Keys&gt; key, KeyEvent keyEvent, GameTime gameTime)</text>
</g>
<!-- Box_IKeyEventListener&#45;&gt;Box_PipeColoring -->
<g id="edge4" class="edge"><title>Box_IKeyEventListener&#45;&gt;Box_PipeColoring</title>
<path fill="none" stroke="midnightblue" d="M537.362,-163.477C526.934,-153.552 516.1,-143.24 505.563,-133.21"/>
<polygon fill="none" stroke="midnightblue" points="535.216,-166.266 544.872,-170.625 540.042,-161.196 535.216,-166.266"/>
</g>
<!-- Box_XnaGameComponent -->
<g id="node5" class="node"><title>Box_XnaGameComponent</title>
<polygon fill="#ffffff" stroke="black" points="335.5,-349 335.5,-369 432.5,-369 432.5,-349 335.5,-349"/>
<text text-anchor="middle" x="384" y="-357.8" font-family="Helvetica,sans-Serif" font-size="8.00">Xna.GameComponent</text>
</g>
<!-- Box_XnaGameComponent&#45;&gt;Box_GameStateComponent -->
<g id="edge6" class="edge"><title>Box_XnaGameComponent&#45;&gt;Box_GameStateComponent</title>
<path fill="none" stroke="midnightblue" d="M368.826,-341.006C355.438,-325.13 335.219,-301.153 316.631,-279.111"/>
<polygon fill="none" stroke="midnightblue" points="366.384,-343.54 375.507,-348.928 371.736,-339.027 366.384,-343.54"/>
</g>
<!-- Box_XnaIGameComponent -->
<g id="node6" class="node"><title>Box_XnaIGameComponent</title>
<polygon fill="#ffffff" stroke="black" points="109.5,-439 109.5,-459 208.5,-459 208.5,-439 109.5,-439"/>
<text text-anchor="middle" x="159" y="-447.8" font-family="Helvetica,sans-Serif" font-size="8.00">Xna.IGameComponent</text>
</g>
<!-- Box_XnaIGameComponent&#45;&gt;Box_IGameStateComponent -->
<g id="edge10" class="edge"><title>Box_XnaIGameComponent&#45;&gt;Box_IGameStateComponent</title>
<path fill="none" stroke="midnightblue" d="M159,-428.454C159,-420.393 159,-410.828 159,-401.414"/>
<polygon fill="none" stroke="midnightblue" points="155.5,-428.676 159,-438.676 162.5,-428.676 155.5,-428.676"/>
</g>
</g>
</svg>
