<?xml version="1.0" encoding="UTF-8" standalone="no"?>
<!DOCTYPE svg PUBLIC "-//W3C//DTD SVG 1.1//EN"
 "http://www.w3.org/Graphics/SVG/1.1/DTD/svg11.dtd">
<!-- Generated by graphviz version 2.26.3 (20100126.1600)
 -->
<!-- Title: MenuItem Pages: 1 -->
<svg width="954pt" height="1134pt"
 viewBox="0.00 0.00 954.00 1134.00" xmlns="http://www.w3.org/2000/svg" xmlns:xlink="http://www.w3.org/1999/xlink">
<g id="graph1" class="graph" transform="scale(1 1) rotate(0) translate(4 1130)">
<title>MenuItem</title>
<polygon fill="white" stroke="white" points="-4,5 -4,-1130 951,-1130 951,5 -4,5"/>
<!-- Box_DropDownMenu -->
<g id="node1" class="node"><title>Box_DropDownMenu</title>
<polygon fill="#fcfcda" stroke="black" points="261.5,-1 261.5,-205 620.5,-205 620.5,-1 261.5,-1"/>
<text text-anchor="middle" x="441" y="-193.8" font-family="Helvetica,sans-Serif" font-size="8.00">DropDownMenu</text>
<polyline fill="none" stroke="black" points="261.5,-185 620.5,-185 "/>
<text text-anchor="start" x="269.5" y="-173.8" font-family="Helvetica,sans-Serif" font-size="8.00">Attributes:</text>
<text text-anchor="start" x="269.5" y="-161.8" font-family="Helvetica,sans-Serif" font-size="8.00">&#45; selected : MenuButton</text>
<text text-anchor="start" x="269.5" y="-149.8" font-family="Helvetica,sans-Serif" font-size="8.00">&#45; dropdown : VerticalMenu</text>
<text text-anchor="start" x="269.5" y="-137.8" font-family="Helvetica,sans-Serif" font-size="8.00">Methods:</text>
<polyline fill="none" stroke="black" points="261.5,-129 620.5,-129 "/>
<text text-anchor="start" x="269.5" y="-117.8" font-family="Helvetica,sans-Serif" font-size="8.00">&#45; ValuePosition (int dummy) : Vector2</text>
<text text-anchor="start" x="269.5" y="-105.8" font-family="Helvetica,sans-Serif" font-size="8.00">+ DropDownMenu (GameState state, DisplayLayer drawOrder, int itemNum, MenuItemInfo info)</text>
<text text-anchor="start" x="269.5" y="-93.8" font-family="Helvetica,sans-Serif" font-size="8.00">&#45; DropDownBackgroundColor (ItemState itemState) : Color</text>
<text text-anchor="start" x="269.5" y="-81.8" font-family="Helvetica,sans-Serif" font-size="8.00">&#45; DropDownForegroundColor (ItemState itemState) : Color</text>
<text text-anchor="start" x="269.5" y="-69.8" font-family="Helvetica,sans-Serif" font-size="8.00">&#45; ValueSize (int dummy) : Vector2</text>
<text text-anchor="start" x="269.5" y="-57.8" font-family="Helvetica,sans-Serif" font-size="8.00">+ SubComponents (GameTime gameTime) : IEnumerable&lt;IGameStateComponent&gt;</text>
<text text-anchor="start" x="269.5" y="-45.8" font-family="Helvetica,sans-Serif" font-size="8.00">+ Collapse ()</text>
<text text-anchor="start" x="269.5" y="-33.8" font-family="Helvetica,sans-Serif" font-size="8.00">+ Draw (GameTime gameTime)</text>
<text text-anchor="start" x="269.5" y="-21.8" font-family="Helvetica,sans-Serif" font-size="8.00">+ AddEntries (DistinctOptionInfo option)</text>
<text text-anchor="start" x="269.5" y="-9.8" font-family="Helvetica,sans-Serif" font-size="8.00">+ AddEntries (DropDownMenuItem[] entries, DropDownMenuItem defaultEntry)</text>
</g>
<!-- Box_MenuItem -->
<g id="node2" class="node"><title>Box_MenuItem</title>
<polygon fill="#fcfcda" stroke="black" points="273.5,-243 273.5,-483 608.5,-483 608.5,-243 273.5,-243"/>
<text text-anchor="middle" x="441" y="-471.8" font-family="Helvetica,sans-Serif" font-size="8.00">MenuItem</text>
<polyline fill="none" stroke="black" points="273.5,-463 608.5,-463 "/>
<text text-anchor="start" x="281.5" y="-451.8" font-family="Helvetica,sans-Serif" font-size="8.00">Attributes:</text>
<text text-anchor="start" x="281.5" y="-439.8" font-family="Helvetica,sans-Serif" font-size="8.00"># spriteBatch : SpriteBatch</text>
<text text-anchor="start" x="281.5" y="-427.8" font-family="Helvetica,sans-Serif" font-size="8.00">+ IsMouseEventEnabled : bool</text>
<text text-anchor="start" x="281.5" y="-415.8" font-family="Helvetica,sans-Serif" font-size="8.00">+ ValidKeys : List&lt;Keys&gt;</text>
<text text-anchor="start" x="281.5" y="-403.8" font-family="Helvetica,sans-Serif" font-size="8.00">+ IsKeyEventEnabled : bool</text>
<text text-anchor="start" x="281.5" y="-391.8" font-family="Helvetica,sans-Serif" font-size="8.00">+ Info : MenuItemInfo</text>
<text text-anchor="start" x="281.5" y="-379.8" font-family="Helvetica,sans-Serif" font-size="8.00">Methods:</text>
<polyline fill="none" stroke="black" points="273.5,-371 608.5,-371 "/>
<text text-anchor="start" x="281.5" y="-359.8" font-family="Helvetica,sans-Serif" font-size="8.00">+ MenuItem (GameState state, DisplayLayer drawOrder, int itemNum, MenuItemInfo info)</text>
<text text-anchor="start" x="281.5" y="-347.8" font-family="Helvetica,sans-Serif" font-size="8.00">+ Collapse () virtual</text>
<text text-anchor="start" x="281.5" y="-335.8" font-family="Helvetica,sans-Serif" font-size="8.00">+ OnKeyEvent (List&lt;Keys&gt; key, KeyEvent keyEvent, GameTime gameTime)</text>
<text text-anchor="start" x="281.5" y="-323.8" font-family="Helvetica,sans-Serif" font-size="8.00">+ OnLeftClick (Vector2 position, ClickState click, GameTime gameTime)</text>
<text text-anchor="start" x="281.5" y="-311.8" font-family="Helvetica,sans-Serif" font-size="8.00">+ OnRightClick (Vector2 position, ClickState click, GameTime gameTime)</text>
<text text-anchor="start" x="281.5" y="-299.8" font-family="Helvetica,sans-Serif" font-size="8.00">+ MinimumSize (SpriteFont font) : Vector2</text>
<text text-anchor="start" x="281.5" y="-287.8" font-family="Helvetica,sans-Serif" font-size="8.00">+ TextPosition (SpriteFont font) : Vector2</text>
<text text-anchor="start" x="281.5" y="-275.8" font-family="Helvetica,sans-Serif" font-size="8.00">+ TextPosition (SpriteFont font, Vector2 scale) : Vector2</text>
<text text-anchor="start" x="281.5" y="-263.8" font-family="Helvetica,sans-Serif" font-size="8.00">+ Draw (GameTime gameTime)</text>
<text text-anchor="start" x="281.5" y="-251.8" font-family="Helvetica,sans-Serif" font-size="8.00">+ SetHovered (bool hovered)</text>
</g>
<!-- Box_MenuItem&#45;&gt;Box_DropDownMenu -->
<g id="edge2" class="edge"><title>Box_MenuItem&#45;&gt;Box_DropDownMenu</title>
<path fill="none" stroke="midnightblue" d="M441,-232.804C441,-223.497 441,-214.191 441,-205.078"/>
<polygon fill="none" stroke="midnightblue" points="437.5,-232.894 441,-242.894 444.5,-232.894 437.5,-232.894"/>
</g>
<!-- Box_IKeyEventListener -->
<g id="node3" class="node"><title>Box_IKeyEventListener</title>
<polygon fill="#dafcda" stroke="black" points="0,-533 0,-641 286,-641 286,-533 0,-533"/>
<text text-anchor="middle" x="143" y="-629.8" font-family="Helvetica,sans-Serif" font-size="8.00">IKeyEventListener</text>
<polyline fill="none" stroke="black" points="0,-621 286,-621 "/>
<text text-anchor="start" x="8" y="-609.8" font-family="Helvetica,sans-Serif" font-size="8.00">Attributes:</text>
<text text-anchor="start" x="8" y="-597.8" font-family="Helvetica,sans-Serif" font-size="8.00">+ ValidKeys : List&lt;Keys&gt;</text>
<text text-anchor="start" x="8" y="-585.8" font-family="Helvetica,sans-Serif" font-size="8.00">+ Index : int</text>
<text text-anchor="start" x="8" y="-573.8" font-family="Helvetica,sans-Serif" font-size="8.00">+ IsKeyEventEnabled : bool</text>
<text text-anchor="start" x="8" y="-561.8" font-family="Helvetica,sans-Serif" font-size="8.00">Methods:</text>
<polyline fill="none" stroke="black" points="0,-553 286,-553 "/>
<text text-anchor="start" x="8" y="-541.8" font-family="Helvetica,sans-Serif" font-size="8.00">+ OnKeyEvent (List&lt;Keys&gt; key, KeyEvent keyEvent, GameTime gameTime)</text>
</g>
<!-- Box_IKeyEventListener&#45;&gt;Box_MenuItem -->
<g id="edge8" class="edge"><title>Box_IKeyEventListener&#45;&gt;Box_MenuItem</title>
<path fill="none" stroke="midnightblue" d="M223.299,-526.641C241.337,-513.082 261.095,-498.231 281.116,-483.181"/>
<polygon fill="none" stroke="midnightblue" points="221.028,-523.969 215.137,-532.776 225.234,-529.565 221.028,-523.969"/>
</g>
<!-- Box_IMouseEventListener -->
<g id="node4" class="node"><title>Box_IMouseEventListener</title>
<polygon fill="#dafcda" stroke="black" points="303.5,-521 303.5,-653 578.5,-653 578.5,-521 303.5,-521"/>
<text text-anchor="middle" x="441" y="-641.8" font-family="Helvetica,sans-Serif" font-size="8.00">IMouseEventListener</text>
<polyline fill="none" stroke="black" points="303.5,-633 578.5,-633 "/>
<text text-anchor="start" x="311.5" y="-621.8" font-family="Helvetica,sans-Serif" font-size="8.00">Attributes:</text>
<text text-anchor="start" x="311.5" y="-609.8" font-family="Helvetica,sans-Serif" font-size="8.00">+ Index : int</text>
<text text-anchor="start" x="311.5" y="-597.8" font-family="Helvetica,sans-Serif" font-size="8.00">+ IsMouseEventEnabled : bool</text>
<text text-anchor="start" x="311.5" y="-585.8" font-family="Helvetica,sans-Serif" font-size="8.00">Methods:</text>
<polyline fill="none" stroke="black" points="303.5,-577 578.5,-577 "/>
<text text-anchor="start" x="311.5" y="-565.8" font-family="Helvetica,sans-Serif" font-size="8.00">+ OnLeftClick (Vector2 position, ClickState click, GameTime gameTime)</text>
<text text-anchor="start" x="311.5" y="-553.8" font-family="Helvetica,sans-Serif" font-size="8.00">+ OnRightClick (Vector2 position, ClickState click, GameTime gameTime)</text>
<text text-anchor="start" x="311.5" y="-541.8" font-family="Helvetica,sans-Serif" font-size="8.00">+ SetHovered (bool hovered)</text>
<text text-anchor="start" x="311.5" y="-529.8" font-family="Helvetica,sans-Serif" font-size="8.00">+ bounds () : Rectangle</text>
</g>
<!-- Box_IMouseEventListener&#45;&gt;Box_MenuItem -->
<g id="edge6" class="edge"><title>Box_IMouseEventListener&#45;&gt;Box_MenuItem</title>
<path fill="none" stroke="midnightblue" d="M441,-510.507C441,-501.68 441,-492.526 441,-483.296"/>
<polygon fill="none" stroke="midnightblue" points="437.5,-510.702 441,-520.702 444.5,-510.702 437.5,-510.702"/>
</g>
<!-- Box_ItemWidget -->
<g id="node5" class="node"><title>Box_ItemWidget</title>
<polygon fill="#fcfcda" stroke="black" points="595.5,-539 595.5,-635 924.5,-635 924.5,-539 595.5,-539"/>
<text text-anchor="middle" x="760" y="-623.8" font-family="Helvetica,sans-Serif" font-size="8.00">ItemWidget</text>
<polyline fill="none" stroke="black" points="595.5,-615 924.5,-615 "/>
<text text-anchor="start" x="603.5" y="-603.8" font-family="Helvetica,sans-Serif" font-size="8.00">Attributes:</text>
<text text-anchor="start" x="603.5" y="-591.8" font-family="Helvetica,sans-Serif" font-size="8.00">+ ItemState : ItemState</text>
<text text-anchor="start" x="603.5" y="-579.8" font-family="Helvetica,sans-Serif" font-size="8.00"># ItemNum : int</text>
<text text-anchor="start" x="603.5" y="-567.8" font-family="Helvetica,sans-Serif" font-size="8.00">Methods:</text>
<polyline fill="none" stroke="black" points="595.5,-559 924.5,-559 "/>
<text text-anchor="start" x="603.5" y="-547.8" font-family="Helvetica,sans-Serif" font-size="8.00">+ ItemWidget (GameState state, WidgetInfo info, DisplayLayer drawOrder, int itemNum)</text>
</g>
<!-- Box_ItemWidget&#45;&gt;Box_MenuItem -->
<g id="edge4" class="edge"><title>Box_ItemWidget&#45;&gt;Box_MenuItem</title>
<path fill="none" stroke="midnightblue" d="M683.336,-533.167C660.6,-517.202 634.756,-499.054 608.621,-480.702"/>
<polygon fill="none" stroke="midnightblue" points="681.371,-536.064 691.566,-538.946 685.394,-530.335 681.371,-536.064"/>
</g>
<!-- Box_Widget -->
<g id="node6" class="node"><title>Box_Widget</title>
<polygon fill="#fcfcda" stroke="black" points="627,-691 627,-799 893,-799 893,-691 627,-691"/>
<text text-anchor="middle" x="760" y="-787.8" font-family="Helvetica,sans-Serif" font-size="8.00">Widget</text>
<polyline fill="none" stroke="black" points="627,-779 893,-779 "/>
<text text-anchor="start" x="635" y="-767.8" font-family="Helvetica,sans-Serif" font-size="8.00">Attributes:</text>
<text text-anchor="start" x="635" y="-755.8" font-family="Helvetica,sans-Serif" font-size="8.00">+ Info : WidgetInfo</text>
<text text-anchor="start" x="635" y="-743.8" font-family="Helvetica,sans-Serif" font-size="8.00">+ IsVisible : bool virtual</text>
<text text-anchor="start" x="635" y="-731.8" font-family="Helvetica,sans-Serif" font-size="8.00">Methods:</text>
<polyline fill="none" stroke="black" points="627,-723 893,-723 "/>
<text text-anchor="start" x="635" y="-711.8" font-family="Helvetica,sans-Serif" font-size="8.00">+ bounds () : Rectangle</text>
<text text-anchor="start" x="635" y="-699.8" font-family="Helvetica,sans-Serif" font-size="8.00">+ Widget (GameState state, WidgetInfo info, DisplayLayer drawOrder)</text>
</g>
<!-- Box_Widget&#45;&gt;Box_ItemWidget -->
<g id="edge10" class="edge"><title>Box_Widget&#45;&gt;Box_ItemWidget</title>
<path fill="none" stroke="midnightblue" d="M760,-680.31C760,-665.203 760,-649.374 760,-635.133"/>
<polygon fill="none" stroke="midnightblue" points="756.5,-680.625 760,-690.625 763.5,-680.625 756.5,-680.625"/>
</g>
<!-- Box_DrawableGameStateComponent -->
<g id="node7" class="node"><title>Box_DrawableGameStateComponent</title>
<polygon fill="#fcfcda" stroke="black" points="589.5,-837 589.5,-945 930.5,-945 930.5,-837 589.5,-837"/>
<text text-anchor="middle" x="760" y="-933.8" font-family="Helvetica,sans-Serif" font-size="8.00">DrawableGameStateComponent</text>
<polyline fill="none" stroke="black" points="589.5,-925 930.5,-925 "/>
<text text-anchor="start" x="597.5" y="-913.8" font-family="Helvetica,sans-Serif" font-size="8.00">Attributes:</text>
<text text-anchor="start" x="597.5" y="-901.8" font-family="Helvetica,sans-Serif" font-size="8.00">+ state : GameState</text>
<text text-anchor="start" x="597.5" y="-889.8" font-family="Helvetica,sans-Serif" font-size="8.00">+ Index : int</text>
<text text-anchor="start" x="597.5" y="-877.8" font-family="Helvetica,sans-Serif" font-size="8.00">Methods:</text>
<polyline fill="none" stroke="black" points="589.5,-869 930.5,-869 "/>
<text text-anchor="start" x="597.5" y="-857.8" font-family="Helvetica,sans-Serif" font-size="8.00">+ DrawableGameStateComponent (GameState state, DisplayLayer drawOrder)</text>
<text text-anchor="start" x="597.5" y="-845.8" font-family="Helvetica,sans-Serif" font-size="8.00">+ SubComponents (GameTime gameTime) : IEnumerable&lt;IGameStateComponent&gt; virtual</text>
</g>
<!-- Box_DrawableGameStateComponent&#45;&gt;Box_Widget -->
<g id="edge12" class="edge"><title>Box_DrawableGameStateComponent&#45;&gt;Box_Widget</title>
<path fill="none" stroke="midnightblue" d="M760,-826.523C760,-817.474 760,-808.248 760,-799.41"/>
<polygon fill="none" stroke="midnightblue" points="756.5,-826.635 760,-836.635 763.5,-826.635 756.5,-826.635"/>
</g>
<!-- Box_IGameStateComponent -->
<g id="node8" class="node"><title>Box_IGameStateComponent</title>
<polygon fill="#dafcda" stroke="black" points="480,-983 480,-1067 798,-1067 798,-983 480,-983"/>
<text text-anchor="middle" x="639" y="-1055.8" font-family="Helvetica,sans-Serif" font-size="8.00">IGameStateComponent</text>
<polyline fill="none" stroke="black" points="480,-1047 798,-1047 "/>
<text text-anchor="start" x="488" y="-1035.8" font-family="Helvetica,sans-Serif" font-size="8.00">Attributes:</text>
<text text-anchor="start" x="488" y="-1023.8" font-family="Helvetica,sans-Serif" font-size="8.00">+ Index : int</text>
<text text-anchor="start" x="488" y="-1011.8" font-family="Helvetica,sans-Serif" font-size="8.00">Methods:</text>
<polyline fill="none" stroke="black" points="480,-1003 798,-1003 "/>
<text text-anchor="start" x="488" y="-991.8" font-family="Helvetica,sans-Serif" font-size="8.00">+ SubComponents (GameTime gameTime) : IEnumerable&lt;IGameStateComponent&gt;</text>
</g>
<!-- Box_IGameStateComponent&#45;&gt;Box_DrawableGameStateComponent -->
<g id="edge16" class="edge"><title>Box_IGameStateComponent&#45;&gt;Box_DrawableGameStateComponent</title>
<path fill="none" stroke="midnightblue" d="M683.666,-975.535C692.59,-965.653 702.007,-955.224 711.065,-945.192"/>
<polygon fill="none" stroke="midnightblue" points="681.057,-973.202 676.953,-982.969 686.253,-977.893 681.057,-973.202"/>
</g>
<!-- Box_XnaDrawableGameComponent -->
<g id="node9" class="node"><title>Box_XnaDrawableGameComponent</title>
<polygon fill="#ffffff" stroke="black" points="815.5,-1015 815.5,-1035 946.5,-1035 946.5,-1015 815.5,-1015"/>
<text text-anchor="middle" x="881" y="-1023.8" font-family="Helvetica,sans-Serif" font-size="8.00">Xna.DrawableGameComponent</text>
</g>
<!-- Box_XnaDrawableGameComponent&#45;&gt;Box_DrawableGameStateComponent -->
<g id="edge14" class="edge"><title>Box_XnaDrawableGameComponent&#45;&gt;Box_DrawableGameStateComponent</title>
<path fill="none" stroke="midnightblue" d="M865.148,-1007.44C850.817,-991.574 828.95,-967.357 808.861,-945.111"/>
<polygon fill="none" stroke="midnightblue" points="862.606,-1009.85 871.905,-1014.93 867.801,-1005.16 862.606,-1009.85"/>
</g>
<!-- Box_XnaIGameComponent -->
<g id="node10" class="node"><title>Box_XnaIGameComponent</title>
<polygon fill="#ffffff" stroke="black" points="589.5,-1105 589.5,-1125 688.5,-1125 688.5,-1105 589.5,-1105"/>
<text text-anchor="middle" x="639" y="-1113.8" font-family="Helvetica,sans-Serif" font-size="8.00">Xna.IGameComponent</text>
</g>
<!-- Box_XnaIGameComponent&#45;&gt;Box_IGameStateComponent -->
<g id="edge18" class="edge"><title>Box_XnaIGameComponent&#45;&gt;Box_IGameStateComponent</title>
<path fill="none" stroke="midnightblue" d="M639,-1094.45C639,-1086.39 639,-1076.83 639,-1067.41"/>
<polygon fill="none" stroke="midnightblue" points="635.5,-1094.68 639,-1104.68 642.5,-1094.68 635.5,-1094.68"/>
</g>
</g>
</svg>
