<?xml version="1.0" encoding="UTF-8" standalone="no"?>
<!DOCTYPE svg PUBLIC "-//W3C//DTD SVG 1.1//EN"
 "http://www.w3.org/Graphics/SVG/1.1/DTD/svg11.dtd">
<!-- Generated by graphviz version 2.26.3 (20100126.1600)
 -->
<!-- Title: MenuItem Pages: 1 -->
<svg width="4217pt" height="2058pt"
 viewBox="0.00 0.00 1012.00 494.00" xmlns="http://www.w3.org/2000/svg" xmlns:xlink="http://www.w3.org/1999/xlink">
<g id="graph1" class="graph" transform="scale(4.16667 4.16667) rotate(0) translate(4 490)">
<title>MenuItem</title>
<polygon fill="white" stroke="white" points="-4,5 -4,-490 1009,-490 1009,5 -4,5"/>
<!-- Box_GameObjectInfo -->
<g id="node1" class="node"><title>Box_GameObjectInfo</title>
<polygon fill="#fcfcda" stroke="black" points="505,-295 505,-429 757,-429 757,-295 505,-295"/>
<text text-anchor="middle" x="631" y="-417.8" font-family="Arial" font-size="8.00">GameObjectInfo</text>
<polyline fill="none" stroke="black" points="505,-411 757,-411 "/>
<text text-anchor="start" x="513" y="-399.8" font-family="Arial" font-size="8.00">+ IsMovable : bool</text>
<text text-anchor="start" x="513" y="-389.8" font-family="Arial" font-size="8.00">+ IsSelectable : bool</text>
<text text-anchor="start" x="513" y="-379.8" font-family="Arial" font-size="8.00">+ IsVisible : bool</text>
<text text-anchor="start" x="513" y="-369.8" font-family="Arial" font-size="8.00">+ Position : Vector3</text>
<polyline fill="none" stroke="black" points="505,-363 757,-363 "/>
<text text-anchor="start" x="513" y="-351.8" font-family="Arial" font-size="8.00">+ GameObjectInfo ()</text>
<text text-anchor="start" x="513" y="-341.8" font-family="Arial" font-size="8.00">+ operator (GameObjectInfo o1, GameObjectInfo o2) : bool static</text>
<text text-anchor="start" x="513" y="-331.8" font-family="Arial" font-size="8.00">+ Equals (Object obj) : bool</text>
<text text-anchor="start" x="513" y="-321.8" font-family="Arial" font-size="8.00">+ GetHashCode () : int</text>
<text text-anchor="start" x="513" y="-311.8" font-family="Arial" font-size="8.00">+ operator ! (GameObjectInfo o1, GameObjectInfo o2) : bool static</text>
<text text-anchor="start" x="513" y="-301.8" font-family="Arial" font-size="8.00">+ Equals (GameObjectInfo other) : bool virtual</text>
</g>
<!-- Box_GameModelInfo -->
<g id="node2" class="node"><title>Box_GameModelInfo</title>
<polygon fill="#fcfcda" stroke="black" points="402,-163 402,-247 558,-247 558,-163 402,-163"/>
<text text-anchor="middle" x="480" y="-235.8" font-family="Arial" font-size="8.00">GameModelInfo</text>
<polyline fill="none" stroke="black" points="402,-229 558,-229 "/>
<text text-anchor="start" x="410" y="-217.8" font-family="Arial" font-size="8.00">+ Rotation : Angles3</text>
<text text-anchor="start" x="410" y="-207.8" font-family="Arial" font-size="8.00">+ Scale : Vector3</text>
<text text-anchor="start" x="410" y="-197.8" font-family="Arial" font-size="8.00">+ Modelname : string</text>
<polyline fill="none" stroke="black" points="402,-191 558,-191 "/>
<text text-anchor="start" x="410" y="-179.8" font-family="Arial" font-size="8.00">+ GameModelInfo (string modelname)</text>
<text text-anchor="start" x="410" y="-169.8" font-family="Arial" font-size="8.00">+ Equals (GameObjectInfo other) : bool</text>
</g>
<!-- Box_GameObjectInfo&#45;&gt;Box_GameModelInfo -->
<g id="edge4" class="edge"><title>Box_GameObjectInfo&#45;&gt;Box_GameModelInfo</title>
<path fill="none" stroke="midnightblue" d="M559.566,-287.728C546.213,-273.844 532.691,-259.784 520.675,-247.291"/>
<polygon fill="none" stroke="midnightblue" points="557.07,-290.181 566.524,-294.962 562.115,-285.329 557.07,-290.181"/>
</g>
<!-- Box_TexturedRectangleInfo -->
<g id="node6" class="node"><title>Box_TexturedRectangleInfo</title>
<polygon fill="#fcfcda" stroke="black" points="575.5,-153 575.5,-257 990.5,-257 990.5,-153 575.5,-153"/>
<text text-anchor="middle" x="783" y="-245.8" font-family="Arial" font-size="8.00">TexturedRectangleInfo</text>
<polyline fill="none" stroke="black" points="575.5,-239 990.5,-239 "/>
<text text-anchor="start" x="583.5" y="-227.8" font-family="Arial" font-size="8.00">+ Left : Vector3</text>
<text text-anchor="start" x="583.5" y="-217.8" font-family="Arial" font-size="8.00">+ Up : Vector3</text>
<text text-anchor="start" x="583.5" y="-207.8" font-family="Arial" font-size="8.00">+ Height : float</text>
<text text-anchor="start" x="583.5" y="-197.8" font-family="Arial" font-size="8.00">+ Width : float</text>
<text text-anchor="start" x="583.5" y="-187.8" font-family="Arial" font-size="8.00">+ Texturename : string</text>
<polyline fill="none" stroke="black" points="575.5,-181 990.5,-181 "/>
<text text-anchor="start" x="583.5" y="-169.8" font-family="Arial" font-size="8.00">+ TexturedRectangleInfo (string texturename, Vector3 origin, Vector3 left, float width, Vector3 up, float height)</text>
<text text-anchor="start" x="583.5" y="-159.8" font-family="Arial" font-size="8.00">+ Equals (GameObjectInfo other) : bool</text>
</g>
<!-- Box_GameObjectInfo&#45;&gt;Box_TexturedRectangleInfo -->
<g id="edge12" class="edge"><title>Box_GameObjectInfo&#45;&gt;Box_TexturedRectangleInfo</title>
<path fill="none" stroke="midnightblue" d="M703.124,-287.503C713.077,-277.223 723.119,-266.851 732.564,-257.095"/>
<polygon fill="none" stroke="midnightblue" points="700.344,-285.343 695.903,-294.962 705.373,-290.212 700.344,-285.343"/>
</g>
<!-- Box_ArrowModelInfo -->
<g id="node3" class="node"><title>Box_ArrowModelInfo</title>
<polygon fill="#fcfcda" stroke="black" points="0,-16 0,-100 274,-100 274,-16 0,-16"/>
<text text-anchor="middle" x="137" y="-88.8" font-family="Arial" font-size="8.00">ArrowModelInfo</text>
<polyline fill="none" stroke="black" points="0,-82 274,-82 "/>
<text text-anchor="start" x="8" y="-70.8" font-family="Arial" font-size="8.00">+ Diameter : float</text>
<text text-anchor="start" x="8" y="-60.8" font-family="Arial" font-size="8.00">+ Length : float</text>
<text text-anchor="start" x="8" y="-50.8" font-family="Arial" font-size="8.00">+ Direction : Vector3</text>
<polyline fill="none" stroke="black" points="0,-44 274,-44 "/>
<text text-anchor="start" x="8" y="-32.8" font-family="Arial" font-size="8.00">+ ArrowModelInfo (Vector3 position, Vector3 direction, Vector3 offset)</text>
<text text-anchor="start" x="8" y="-22.8" font-family="Arial" font-size="8.00">+ Equals (GameObjectInfo other) : bool</text>
</g>
<!-- Box_GameModelInfo&#45;&gt;Box_ArrowModelInfo -->
<g id="edge6" class="edge"><title>Box_GameModelInfo&#45;&gt;Box_ArrowModelInfo</title>
<path fill="none" stroke="midnightblue" d="M392.303,-167.416C344.319,-146.851 284.729,-121.312 235.191,-100.082"/>
<polygon fill="none" stroke="midnightblue" points="391.169,-170.737 401.739,-171.459 393.926,-164.303 391.169,-170.737"/>
</g>
<!-- Box_NodeModelInfo -->
<g id="node4" class="node"><title>Box_NodeModelInfo</title>
<polygon fill="#fcfcda" stroke="black" points="291.5,-11 291.5,-105 668.5,-105 668.5,-11 291.5,-11"/>
<text text-anchor="middle" x="480" y="-93.8" font-family="Arial" font-size="8.00">NodeModelInfo</text>
<polyline fill="none" stroke="black" points="291.5,-87 668.5,-87 "/>
<text text-anchor="start" x="299.5" y="-75.8" font-family="Arial" font-size="8.00">+ EdgeA : Edge</text>
<text text-anchor="start" x="299.5" y="-65.8" font-family="Arial" font-size="8.00">+ EdgeB : Edge</text>
<text text-anchor="start" x="299.5" y="-55.8" font-family="Arial" font-size="8.00">+ NodeMap : NodeMap</text>
<text text-anchor="start" x="299.5" y="-45.8" font-family="Arial" font-size="8.00">+ EdgeList : EdgeList</text>
<polyline fill="none" stroke="black" points="291.5,-39 668.5,-39 "/>
<text text-anchor="start" x="299.5" y="-27.8" font-family="Arial" font-size="8.00">+ NodeModelInfo (EdgeList edgeList, NodeMap nodeMap, Edge edgeA, Edge edgeB, Vector3 offset)</text>
<text text-anchor="start" x="299.5" y="-17.8" font-family="Arial" font-size="8.00">+ Equals (GameObjectInfo other) : bool</text>
</g>
<!-- Box_GameModelInfo&#45;&gt;Box_NodeModelInfo -->
<g id="edge8" class="edge"><title>Box_GameModelInfo&#45;&gt;Box_NodeModelInfo</title>
<path fill="none" stroke="midnightblue" d="M480,-152.866C480,-137.275 480,-120.28 480,-105.037"/>
<polygon fill="none" stroke="midnightblue" points="476.5,-152.876 480,-162.876 483.5,-152.876 476.5,-152.876"/>
</g>
<!-- Box_PipeModelInfo -->
<g id="node5" class="node"><title>Box_PipeModelInfo</title>
<polygon fill="#fcfcda" stroke="black" points="685.5,-1 685.5,-115 1004.5,-115 1004.5,-1 685.5,-1"/>
<text text-anchor="middle" x="845" y="-103.8" font-family="Arial" font-size="8.00">PipeModelInfo</text>
<polyline fill="none" stroke="black" points="685.5,-97 1004.5,-97 "/>
<text text-anchor="start" x="693.5" y="-85.8" font-family="Arial" font-size="8.00">+ Edge : Edge</text>
<text text-anchor="start" x="693.5" y="-75.8" font-family="Arial" font-size="8.00">+ NodeMap : NodeMap</text>
<text text-anchor="start" x="693.5" y="-65.8" font-family="Arial" font-size="8.00">+ Direction : Vector3</text>
<text text-anchor="start" x="693.5" y="-55.8" font-family="Arial" font-size="8.00">+ PositionFrom : Vector3</text>
<text text-anchor="start" x="693.5" y="-45.8" font-family="Arial" font-size="8.00">+ PositionTo : Vector3</text>
<text text-anchor="start" x="693.5" y="-35.8" font-family="Arial" font-size="8.00">+ EdgeList : EdgeList</text>
<polyline fill="none" stroke="black" points="685.5,-29 1004.5,-29 "/>
<text text-anchor="start" x="693.5" y="-17.8" font-family="Arial" font-size="8.00">+ PipeModelInfo (EdgeList edgeList, NodeMap nodeMap, Edge edge, Vector3 offset)</text>
<text text-anchor="start" x="693.5" y="-7.8" font-family="Arial" font-size="8.00">+ Equals (GameObjectInfo other) : bool</text>
</g>
<!-- Box_GameModelInfo&#45;&gt;Box_PipeModelInfo -->
<g id="edge10" class="edge"><title>Box_GameModelInfo&#45;&gt;Box_PipeModelInfo</title>
<path fill="none" stroke="midnightblue" d="M554.65,-158.047C558.781,-155.914 562.914,-153.883 567,-152 613.721,-130.476 628.242,-132.394 677,-116 679.778,-115.066 682.582,-114.121 685.405,-113.168"/>
<polygon fill="none" stroke="midnightblue" points="552.807,-155.063 545.632,-162.858 556.102,-161.239 552.807,-155.063"/>
</g>
<!-- Box_IEquatable -->
<g id="node7" class="node"><title>Box_IEquatable</title>
<polygon fill="#ffffff" stroke="black" points="571,-467 571,-485 691,-485 691,-467 571,-467"/>
<text text-anchor="middle" x="631" y="-473.8" font-family="Arial" font-size="8.00">IEquatable&lt;GameObjectInfo&gt;</text>
</g>
<!-- Box_IEquatable&#45;&gt;Box_GameObjectInfo -->
<g id="edge2" class="edge"><title>Box_IEquatable&#45;&gt;Box_GameObjectInfo</title>
<path fill="none" stroke="midnightblue" d="M631,-456.57C631,-448.742 631,-439.21 631,-429.246"/>
<polygon fill="none" stroke="midnightblue" points="627.5,-456.671 631,-466.671 634.5,-456.671 627.5,-456.671"/>
</g>
</g>
</svg>
