<?xml version="1.0" encoding="UTF-8" standalone="no"?>
<!DOCTYPE svg PUBLIC "-//W3C//DTD SVG 1.1//EN"
 "http://www.w3.org/Graphics/SVG/1.1/DTD/svg11.dtd">
<!-- Generated by graphviz version 2.26.3 (20100126.1600)
 -->
<!-- Title: MenuItem Pages: 1 -->
<svg width="656pt" height="722pt"
 viewBox="0.00 0.00 656.00 722.00" xmlns="http://www.w3.org/2000/svg" xmlns:xlink="http://www.w3.org/1999/xlink">
<g id="graph1" class="graph" transform="scale(1 1) rotate(0) translate(4 718)">
<title>MenuItem</title>
<polygon fill="white" stroke="white" points="-4,5 -4,-718 653,-718 653,5 -4,5"/>
<!-- Box_GameModel -->
<g id="node1" class="node"><title>Box_GameModel</title>
<polygon fill="#fcfcda" stroke="black" points="218,-171 218,-543 430,-543 430,-171 218,-171"/>
<text text-anchor="middle" x="324" y="-531.8" font-family="Helvetica,sans-Serif" font-size="8.00">GameModel</text>
<polyline fill="none" stroke="black" points="218,-523 430,-523 "/>
<text text-anchor="start" x="226" y="-511.8" font-family="Helvetica,sans-Serif" font-size="8.00">Attributes:</text>
<text text-anchor="start" x="226" y="-499.8" font-family="Helvetica,sans-Serif" font-size="8.00">&#45; IGameObject.Info : GameObjectInfo</text>
<text text-anchor="start" x="226" y="-487.8" font-family="Helvetica,sans-Serif" font-size="8.00">&#45; _rotation : Angles3</text>
<text text-anchor="start" x="226" y="-475.8" font-family="Helvetica,sans-Serif" font-size="8.00">&#45; Bounds : BoundingSphere[]</text>
<text text-anchor="start" x="226" y="-463.8" font-family="Helvetica,sans-Serif" font-size="8.00">&#45; _bounds : BoundingSphere[]</text>
<text text-anchor="start" x="226" y="-451.8" font-family="Helvetica,sans-Serif" font-size="8.00">&#45; _worldMatrix : Matrix</text>
<text text-anchor="start" x="226" y="-439.8" font-family="Helvetica,sans-Serif" font-size="8.00">&#45; _position : Vector3</text>
<text text-anchor="start" x="226" y="-427.8" font-family="Helvetica,sans-Serif" font-size="8.00">&#45; _inFrustum : bool</text>
<text text-anchor="start" x="226" y="-415.8" font-family="Helvetica,sans-Serif" font-size="8.00"># InCameraFrustum : bool</text>
<text text-anchor="start" x="226" y="-403.8" font-family="Helvetica,sans-Serif" font-size="8.00">+ BaseColor : Color</text>
<text text-anchor="start" x="226" y="-391.8" font-family="Helvetica,sans-Serif" font-size="8.00">+ HighlightColor : Color</text>
<text text-anchor="start" x="226" y="-379.8" font-family="Helvetica,sans-Serif" font-size="8.00">+ Info : GameModelInfo</text>
<text text-anchor="start" x="226" y="-367.8" font-family="Helvetica,sans-Serif" font-size="8.00">+ WorldMatrix : Matrix</text>
<text text-anchor="start" x="226" y="-355.8" font-family="Helvetica,sans-Serif" font-size="8.00">+ World : World</text>
<text text-anchor="start" x="226" y="-343.8" font-family="Helvetica,sans-Serif" font-size="8.00">+ Alpha : float</text>
<text text-anchor="start" x="226" y="-331.8" font-family="Helvetica,sans-Serif" font-size="8.00">+ HighlightIntensity : float</text>
<text text-anchor="start" x="226" y="-319.8" font-family="Helvetica,sans-Serif" font-size="8.00">&#45; _world : World</text>
<text text-anchor="start" x="226" y="-307.8" font-family="Helvetica,sans-Serif" font-size="8.00">&#45; _scale : float</text>
<text text-anchor="start" x="226" y="-295.8" font-family="Helvetica,sans-Serif" font-size="8.00"># state : GameState</text>
<text text-anchor="start" x="226" y="-283.8" font-family="Helvetica,sans-Serif" font-size="8.00">+ Model : Model virtual</text>
<text text-anchor="start" x="226" y="-271.8" font-family="Helvetica,sans-Serif" font-size="8.00">Methods:</text>
<polyline fill="none" stroke="black" points="218,-263 430,-263 "/>
<text text-anchor="start" x="226" y="-251.8" font-family="Helvetica,sans-Serif" font-size="8.00">&#45; OnViewChanged ()</text>
<text text-anchor="start" x="226" y="-239.8" font-family="Helvetica,sans-Serif" font-size="8.00">&#45; UpdatePrecomputed ()</text>
<text text-anchor="start" x="226" y="-227.8" font-family="Helvetica,sans-Serif" font-size="8.00">+ GameModel (GameState state, GameModelInfo info)</text>
<text text-anchor="start" x="226" y="-215.8" font-family="Helvetica,sans-Serif" font-size="8.00">+ Draw (GameTime gameTime) virtual</text>
<text text-anchor="start" x="226" y="-203.8" font-family="Helvetica,sans-Serif" font-size="8.00">+ Center () : Vector3</text>
<text text-anchor="start" x="226" y="-191.8" font-family="Helvetica,sans-Serif" font-size="8.00">+ Intersects (Ray ray) : GameObjectDistance virtual</text>
<text text-anchor="start" x="226" y="-179.8" font-family="Helvetica,sans-Serif" font-size="8.00">+ Update (GameTime gameTime) virtual</text>
</g>
<!-- Box_NodeModel -->
<g id="node3" class="node"><title>Box_NodeModel</title>
<polygon fill="#fcfcda" stroke="black" points="-0.5,-19 -0.5,-115 206.5,-115 206.5,-19 -0.5,-19"/>
<text text-anchor="middle" x="103" y="-103.8" font-family="Helvetica,sans-Serif" font-size="8.00">NodeModel</text>
<polyline fill="none" stroke="black" points="-0.5,-95 206.5,-95 "/>
<text text-anchor="start" x="7.5" y="-83.8" font-family="Helvetica,sans-Serif" font-size="8.00">Attributes:</text>
<text text-anchor="start" x="7.5" y="-71.8" font-family="Helvetica,sans-Serif" font-size="8.00">+ Info : NodeModelInfo</text>
<text text-anchor="start" x="7.5" y="-59.8" font-family="Helvetica,sans-Serif" font-size="8.00">Methods:</text>
<polyline fill="none" stroke="black" points="-0.5,-51 206.5,-51 "/>
<text text-anchor="start" x="7.5" y="-39.8" font-family="Helvetica,sans-Serif" font-size="8.00">+ NodeModel (GameState state, NodeModelInfo info)</text>
<text text-anchor="start" x="7.5" y="-27.8" font-family="Helvetica,sans-Serif" font-size="8.00">+ Draw (GameTime gameTime)</text>
</g>
<!-- Box_GameModel&#45;&gt;Box_NodeModel -->
<g id="edge4" class="edge"><title>Box_GameModel&#45;&gt;Box_NodeModel</title>
<path fill="none" stroke="midnightblue" d="M211.451,-209.311C185.436,-175.173 159.572,-141.235 139.63,-115.067"/>
<polygon fill="none" stroke="midnightblue" points="208.862,-211.689 217.708,-217.521 214.43,-207.446 208.862,-211.689"/>
</g>
<!-- Box_PipeModel -->
<g id="node4" class="node"><title>Box_PipeModel</title>
<polygon fill="#fcfcda" stroke="black" points="224,-1 224,-133 424,-133 424,-1 224,-1"/>
<text text-anchor="middle" x="324" y="-121.8" font-family="Helvetica,sans-Serif" font-size="8.00">PipeModel</text>
<polyline fill="none" stroke="black" points="224,-113 424,-113 "/>
<text text-anchor="start" x="232" y="-101.8" font-family="Helvetica,sans-Serif" font-size="8.00">Attributes:</text>
<text text-anchor="start" x="232" y="-89.8" font-family="Helvetica,sans-Serif" font-size="8.00">&#45; Bounds : BoundingSphere[]</text>
<text text-anchor="start" x="232" y="-77.8" font-family="Helvetica,sans-Serif" font-size="8.00">+ Info : PipeModelInfo</text>
<text text-anchor="start" x="232" y="-65.8" font-family="Helvetica,sans-Serif" font-size="8.00">Methods:</text>
<polyline fill="none" stroke="black" points="224,-57 424,-57 "/>
<text text-anchor="start" x="232" y="-45.8" font-family="Helvetica,sans-Serif" font-size="8.00">+ OnDataChange () : Action</text>
<text text-anchor="start" x="232" y="-33.8" font-family="Helvetica,sans-Serif" font-size="8.00">+ Draw (GameTime gameTime)</text>
<text text-anchor="start" x="232" y="-21.8" font-family="Helvetica,sans-Serif" font-size="8.00">+ PipeModel (GameState state, PipeModelInfo info)</text>
<text text-anchor="start" x="232" y="-9.8" font-family="Helvetica,sans-Serif" font-size="8.00">+ Intersects (Ray ray) : GameObjectDistance</text>
</g>
<!-- Box_GameModel&#45;&gt;Box_PipeModel -->
<g id="edge6" class="edge"><title>Box_GameModel&#45;&gt;Box_PipeModel</title>
<path fill="none" stroke="midnightblue" d="M324,-160.748C324,-151.139 324,-141.875 324,-133.157"/>
<polygon fill="none" stroke="midnightblue" points="320.5,-160.878 324,-170.878 327.5,-160.878 320.5,-160.878"/>
</g>
<!-- Box_TestModel -->
<g id="node5" class="node"><title>Box_TestModel</title>
<polygon fill="#fcfcda" stroke="black" points="442,-25 442,-109 648,-109 648,-25 442,-25"/>
<text text-anchor="middle" x="545" y="-97.8" font-family="Helvetica,sans-Serif" font-size="8.00">TestModel</text>
<polyline fill="none" stroke="black" points="442,-89 648,-89 "/>
<text text-anchor="start" x="450" y="-77.8" font-family="Helvetica,sans-Serif" font-size="8.00">Attributes:</text>
<text text-anchor="start" x="450" y="-65.8" font-family="Helvetica,sans-Serif" font-size="8.00">Methods:</text>
<polyline fill="none" stroke="black" points="442,-57 648,-57 "/>
<text text-anchor="start" x="450" y="-45.8" font-family="Helvetica,sans-Serif" font-size="8.00">+ Update (GameTime gameTime)</text>
<text text-anchor="start" x="450" y="-33.8" font-family="Helvetica,sans-Serif" font-size="8.00">+ TestModel (GameState state, GameModelInfo info)</text>
</g>
<!-- Box_GameModel&#45;&gt;Box_TestModel -->
<g id="edge8" class="edge"><title>Box_GameModel&#45;&gt;Box_TestModel</title>
<path fill="none" stroke="midnightblue" d="M436.64,-209.192C464.616,-172.481 492.409,-136.011 512.843,-109.198"/>
<polygon fill="none" stroke="midnightblue" points="433.57,-207.446 430.292,-217.521 439.138,-211.689 433.57,-207.446"/>
</g>
<!-- Box_IGameObject -->
<g id="node2" class="node"><title>Box_IGameObject</title>
<polygon fill="#dafcda" stroke="black" points="236,-581 236,-713 412,-713 412,-581 236,-581"/>
<text text-anchor="middle" x="324" y="-701.8" font-family="Helvetica,sans-Serif" font-size="8.00">IGameObject</text>
<polyline fill="none" stroke="black" points="236,-693 412,-693 "/>
<text text-anchor="start" x="244" y="-681.8" font-family="Helvetica,sans-Serif" font-size="8.00">Attributes:</text>
<text text-anchor="start" x="244" y="-669.8" font-family="Helvetica,sans-Serif" font-size="8.00">+ Info : GameObjectInfo</text>
<text text-anchor="start" x="244" y="-657.8" font-family="Helvetica,sans-Serif" font-size="8.00">+ World : World</text>
<text text-anchor="start" x="244" y="-645.8" font-family="Helvetica,sans-Serif" font-size="8.00">Methods:</text>
<polyline fill="none" stroke="black" points="236,-637 412,-637 "/>
<text text-anchor="start" x="244" y="-625.8" font-family="Helvetica,sans-Serif" font-size="8.00">+ Draw (GameTime gameTime)</text>
<text text-anchor="start" x="244" y="-613.8" font-family="Helvetica,sans-Serif" font-size="8.00">+ Update (GameTime gameTime)</text>
<text text-anchor="start" x="244" y="-601.8" font-family="Helvetica,sans-Serif" font-size="8.00">+ Intersects (Ray ray) : GameObjectDistance</text>
<text text-anchor="start" x="244" y="-589.8" font-family="Helvetica,sans-Serif" font-size="8.00">+ Center () : Vector3</text>
</g>
<!-- Box_IGameObject&#45;&gt;Box_GameModel -->
<g id="edge2" class="edge"><title>Box_IGameObject&#45;&gt;Box_GameModel</title>
<path fill="none" stroke="midnightblue" d="M324,-570.736C324,-561.955 324,-552.736 324,-543.262"/>
<polygon fill="none" stroke="midnightblue" points="320.5,-570.832 324,-580.832 327.5,-570.832 320.5,-570.832"/>
</g>
</g>
</svg>
