<?xml version="1.0" encoding="UTF-8" standalone="no"?>
<!DOCTYPE svg PUBLIC "-//W3C//DTD SVG 1.1//EN"
 "http://www.w3.org/Graphics/SVG/1.1/DTD/svg11.dtd">
<!-- Generated by graphviz version 2.26.3 (20100126.1600)
 -->
<!-- Title: MenuItem Pages: 1 -->
<svg width="228pt" height="224pt"
 viewBox="0.00 0.00 228.00 224.00" xmlns="http://www.w3.org/2000/svg" xmlns:xlink="http://www.w3.org/1999/xlink">
<g id="graph1" class="graph" transform="scale(1 1) rotate(0) translate(4 220)">
<title>MenuItem</title>
<polygon fill="white" stroke="white" points="-4,5 -4,-220 225,-220 225,5 -4,5"/>
<!-- Box_IniFile -->
<g id="node1" class="node"><title>Box_IniFile</title>
<polygon fill="#fcfcda" stroke="black" points="-0.5,-1 -0.5,-157 220.5,-157 220.5,-1 -0.5,-1"/>
<text text-anchor="middle" x="110" y="-145.8" font-family="Helvetica,sans-Serif" font-size="8.00">IniFile</text>
<polyline fill="none" stroke="black" points="-0.5,-137 220.5,-137 "/>
<text text-anchor="start" x="7.5" y="-125.8" font-family="Helvetica,sans-Serif" font-size="8.00">Attributes:</text>
<text text-anchor="start" x="7.5" y="-113.8" font-family="Helvetica,sans-Serif" font-size="8.00">&#45; Filename : string</text>
<text text-anchor="start" x="7.5" y="-101.8" font-family="Helvetica,sans-Serif" font-size="8.00">+ Dictionary&lt;string, string&gt;&gt; Data : Dictionary&lt;string,</text>
<text text-anchor="start" x="7.5" y="-89.8" font-family="Helvetica,sans-Serif" font-size="8.00">+ this [string section, string key, string defaultValue : string</text>
<text text-anchor="start" x="7.5" y="-77.8" font-family="Helvetica,sans-Serif" font-size="8.00">Methods:</text>
<polyline fill="none" stroke="black" points="-0.5,-69 220.5,-69 "/>
<text text-anchor="start" x="7.5" y="-57.8" font-family="Helvetica,sans-Serif" font-size="8.00">+ IniFile (string filename)</text>
<text text-anchor="start" x="7.5" y="-45.8" font-family="Helvetica,sans-Serif" font-size="8.00">+ Dispose ()</text>
<text text-anchor="start" x="7.5" y="-33.8" font-family="Helvetica,sans-Serif" font-size="8.00"># Dispose (bool disposing) virtual</text>
<text text-anchor="start" x="7.5" y="-21.8" font-family="Helvetica,sans-Serif" font-size="8.00">+ Save ()</text>
<text text-anchor="start" x="7.5" y="-9.8" font-family="Helvetica,sans-Serif" font-size="8.00">&#45; StripComments (string line) : string static</text>
</g>
<!-- Box_IDisposable -->
<g id="node2" class="node"><title>Box_IDisposable</title>
<polygon fill="#ffffff" stroke="black" points="81,-195 81,-215 139,-215 139,-195 81,-195"/>
<text text-anchor="middle" x="110" y="-203.8" font-family="Helvetica,sans-Serif" font-size="8.00">IDisposable</text>
</g>
<!-- Box_IDisposable&#45;&gt;Box_IniFile -->
<g id="edge2" class="edge"><title>Box_IDisposable&#45;&gt;Box_IniFile</title>
<path fill="none" stroke="midnightblue" d="M110,-184.521C110,-176.692 110,-167.219 110,-157.201"/>
<polygon fill="none" stroke="midnightblue" points="106.5,-184.689 110,-194.689 113.5,-184.689 106.5,-184.689"/>
</g>
</g>
</svg>
