<?xml version="1.0" encoding="UTF-8" standalone="no"?>
<!DOCTYPE svg PUBLIC "-//W3C//DTD SVG 1.1//EN"
 "http://www.w3.org/Graphics/SVG/1.1/DTD/svg11.dtd">
<!-- Generated by graphviz version 2.26.3 (20100126.1600)
 -->
<!-- Title: MenuItem Pages: 1 -->
<svg width="7349pt" height="4717pt"
 viewBox="0.00 0.00 1763.74 1132.00" xmlns="http://www.w3.org/2000/svg" xmlns:xlink="http://www.w3.org/1999/xlink">
<g id="graph1" class="graph" transform="scale(4.16667 4.16667) rotate(0) translate(4 1128)">
<title>MenuItem</title>
<polygon fill="white" stroke="white" points="-4,5 -4,-1128 1760.74,-1128 1760.74,5 -4,5"/>
<!-- Box_Widget -->
<g id="node1" class="node"><title>Box_Widget</title>
<polygon fill="#fcfcda" stroke="black" points="719.24,-779 719.24,-853 988.24,-853 988.24,-779 719.24,-779"/>
<text text-anchor="middle" x="853.74" y="-841.8" font-family="Arial" font-size="8.00">Widget</text>
<polyline fill="none" stroke="black" points="719.24,-835 988.24,-835 "/>
<text text-anchor="start" x="727.24" y="-823.8" font-family="Arial" font-size="8.00">+ Info : WidgetInfo</text>
<text text-anchor="start" x="727.24" y="-813.8" font-family="Arial" font-size="8.00">+ IsVisible : bool virtual</text>
<polyline fill="none" stroke="black" points="719.24,-807 988.24,-807 "/>
<text text-anchor="start" x="727.24" y="-795.8" font-family="Arial" font-size="8.00">+ bounds () : Rectangle</text>
<text text-anchor="start" x="727.24" y="-785.8" font-family="Arial" font-size="8.00">+ Widget (GameState state, WidgetInfo info, DisplayLayer drawOrder)</text>
</g>
<!-- Box_ColorPicker -->
<g id="node4" class="node"><title>Box_ColorPicker</title>
<polygon fill="#fcfcda" stroke="black" points="387.24,-532 387.24,-716 672.24,-716 672.24,-532 387.24,-532"/>
<text text-anchor="middle" x="529.74" y="-704.8" font-family="Arial" font-size="8.00">ColorPicker</text>
<polyline fill="none" stroke="black" points="387.24,-698 672.24,-698 "/>
<text text-anchor="start" x="395.24" y="-686.8" font-family="Arial" font-size="8.00">&#45; tiles : List&lt;Vector2&gt;</text>
<text text-anchor="start" x="395.24" y="-676.8" font-family="Arial" font-size="8.00">+ SelectedColor : Color</text>
<text text-anchor="start" x="395.24" y="-666.8" font-family="Arial" font-size="8.00">+ IsMouseEventEnabled : bool</text>
<text text-anchor="start" x="395.24" y="-656.8" font-family="Arial" font-size="8.00">&#45; colors : List&lt;Color&gt;</text>
<text text-anchor="start" x="395.24" y="-646.8" font-family="Arial" font-size="8.00"># spriteBatch : SpriteBatch</text>
<text text-anchor="start" x="395.24" y="-636.8" font-family="Arial" font-size="8.00">+ OnSelectColor : Action&lt;Color&gt;</text>
<polyline fill="none" stroke="black" points="387.24,-630 672.24,-630 "/>
<text text-anchor="start" x="395.24" y="-618.8" font-family="Arial" font-size="8.00">&#45; Vector2 tileSize (0.032f, 0.032f) : readonly static</text>
<text text-anchor="start" x="395.24" y="-608.8" font-family="Arial" font-size="8.00">&#45; CreateTiles (IEnumerable&lt;Color&gt; _colors) : IEnumerable&lt;Vector2&gt; static</text>
<text text-anchor="start" x="395.24" y="-598.8" font-family="Arial" font-size="8.00">+ ColorPicker (GameState state, WidgetInfo info, DisplayLayer drawOrder)</text>
<text text-anchor="start" x="395.24" y="-588.8" font-family="Arial" font-size="8.00">+ Draw (GameTime gameTime)</text>
<text text-anchor="start" x="395.24" y="-578.8" font-family="Arial" font-size="8.00">+ OnRightClick (Vector2 position, ClickState click, GameTime gameTime)</text>
<text text-anchor="start" x="395.24" y="-568.8" font-family="Arial" font-size="8.00">+ SetHovered (bool hovered)</text>
<text text-anchor="start" x="395.24" y="-558.8" font-family="Arial" font-size="8.00">&#45; CreateColors (int num) : IEnumerable&lt;Color&gt; static</text>
<text text-anchor="start" x="395.24" y="-548.8" font-family="Arial" font-size="8.00">&#45; SelectColor (Color color)</text>
<text text-anchor="start" x="395.24" y="-538.8" font-family="Arial" font-size="8.00">+ OnLeftClick (Vector2 position, ClickState click, GameTime gameTime)</text>
</g>
<!-- Box_Widget&#45;&gt;Box_ColorPicker -->
<g id="edge10" class="edge"><title>Box_Widget&#45;&gt;Box_ColorPicker</title>
<path fill="none" stroke="midnightblue" d="M745.649,-774.89C723.649,-765.113 701.041,-753.998 680.74,-742 667.565,-734.213 654.249,-725.415 641.268,-716.22"/>
<polygon fill="none" stroke="midnightblue" points="744.467,-778.193 755.032,-778.997 747.274,-771.781 744.467,-778.193"/>
</g>
<!-- Box_Dialog -->
<g id="node5" class="node"><title>Box_Dialog</title>
<polygon fill="#fcfcda" stroke="black" points="1035.74,-552 1035.74,-696 1343.74,-696 1343.74,-552 1035.74,-552"/>
<text text-anchor="middle" x="1189.74" y="-684.8" font-family="Arial" font-size="8.00">Dialog</text>
<polyline fill="none" stroke="black" points="1035.74,-678 1343.74,-678 "/>
<text text-anchor="start" x="1043.74" y="-666.8" font-family="Arial" font-size="8.00"># spriteBatch : SpriteBatch</text>
<text text-anchor="start" x="1043.74" y="-656.8" font-family="Arial" font-size="8.00">+ Done : Action</text>
<text text-anchor="start" x="1043.74" y="-646.8" font-family="Arial" font-size="8.00">+ buttons : Menu</text>
<polyline fill="none" stroke="black" points="1035.74,-640 1343.74,-640 "/>
<text text-anchor="start" x="1043.74" y="-628.8" font-family="Arial" font-size="8.00">&#45; ButtonBackgroundColor (ItemState itemState) : Color</text>
<text text-anchor="start" x="1043.74" y="-618.8" font-family="Arial" font-size="8.00"># RelativeButtonSize (int n) : Vector2</text>
<text text-anchor="start" x="1043.74" y="-608.8" font-family="Arial" font-size="8.00">+ Dialog (GameState state, WidgetInfo info, DisplayLayer drawOrder)</text>
<text text-anchor="start" x="1043.74" y="-598.8" font-family="Arial" font-size="8.00">&#45; ButtonForegroundColor (ItemState itemState) : Color</text>
<text text-anchor="start" x="1043.74" y="-588.8" font-family="Arial" font-size="8.00"># RelativeButtonPosition (int n) : Vector2</text>
<text text-anchor="start" x="1043.74" y="-578.8" font-family="Arial" font-size="8.00"># DrawDialog (GameTime gameTime) abstract</text>
<text text-anchor="start" x="1043.74" y="-568.8" font-family="Arial" font-size="8.00">+ SubComponents (GameTime gameTime) : IEnumerable&lt;IGameStateComponent&gt;</text>
<text text-anchor="start" x="1043.74" y="-558.8" font-family="Arial" font-size="8.00">+ Draw (GameTime gameTime)</text>
</g>
<!-- Box_Widget&#45;&gt;Box_Dialog -->
<g id="edge14" class="edge"><title>Box_Widget&#45;&gt;Box_Dialog</title>
<path fill="none" stroke="midnightblue" d="M959.995,-774.972C982.486,-765.072 1005.76,-753.887 1026.74,-742 1050.6,-728.483 1075.16,-712.16 1097.74,-696.024"/>
<polygon fill="none" stroke="midnightblue" points="958.528,-771.794 950.751,-778.989 961.318,-778.214 958.528,-771.794"/>
</g>
<!-- Box_Menu -->
<g id="node9" class="node"><title>Box_Menu</title>
<polygon fill="#fcfcda" stroke="black" points="1361.74,-507 1361.74,-741 1755.74,-741 1755.74,-507 1361.74,-507"/>
<text text-anchor="middle" x="1558.74" y="-729.8" font-family="Arial" font-size="8.00">Menu</text>
<polyline fill="none" stroke="black" points="1361.74,-723 1755.74,-723 "/>
<text text-anchor="start" x="1369.74" y="-711.8" font-family="Arial" font-size="8.00">&#45; isVisible : bool</text>
<text text-anchor="start" x="1369.74" y="-701.8" font-family="Arial" font-size="8.00"># Items : List&lt;MenuItem&gt;</text>
<text text-anchor="start" x="1369.74" y="-691.8" font-family="Arial" font-size="8.00">+ Color&gt; ItemBackgroundColor : Func&lt;ItemState,</text>
<text text-anchor="start" x="1369.74" y="-681.8" font-family="Arial" font-size="8.00">+ Color&gt; ItemForegroundColor : Func&lt;ItemState,</text>
<text text-anchor="start" x="1369.74" y="-671.8" font-family="Arial" font-size="8.00">+ Vector2&gt; RelativeItemPosition : Func&lt;int,</text>
<text text-anchor="start" x="1369.74" y="-661.8" font-family="Arial" font-size="8.00">+ ItemAlignX : HAlign?</text>
<text text-anchor="start" x="1369.74" y="-651.8" font-family="Arial" font-size="8.00">+ ItemAlignY : VAlign?</text>
<text text-anchor="start" x="1369.74" y="-641.8" font-family="Arial" font-size="8.00">+ Count : int</text>
<text text-anchor="start" x="1369.74" y="-631.8" font-family="Arial" font-size="8.00">+ IsVisible : bool</text>
<text text-anchor="start" x="1369.74" y="-621.8" font-family="Arial" font-size="8.00">&#45; ItemDisplayLayer : DisplayLayer</text>
<text text-anchor="start" x="1369.74" y="-611.8" font-family="Arial" font-size="8.00">+ Vector2&gt; RelativeItemSize : Func&lt;int,</text>
<polyline fill="none" stroke="black" points="1361.74,-605 1755.74,-605 "/>
<text text-anchor="start" x="1369.74" y="-593.8" font-family="Arial" font-size="8.00">&#45; assignMenuItemInfo (ref MenuItemInfo info, int num, MenuItem item)</text>
<text text-anchor="start" x="1369.74" y="-583.8" font-family="Arial" font-size="8.00">+ Menu (GameState state, WidgetInfo info, DisplayLayer drawOrder)</text>
<text text-anchor="start" x="1369.74" y="-573.8" font-family="Arial" font-size="8.00">+ this (int i) : MenuItem</text>
<text text-anchor="start" x="1369.74" y="-563.8" font-family="Arial" font-size="8.00">+ SubComponents (GameTime gameTime) : IEnumerable&lt;IGameStateComponent&gt;</text>
<text text-anchor="start" x="1369.74" y="-553.8" font-family="Arial" font-size="8.00">+ CollapseMenus (MenuItem menu)</text>
<text text-anchor="start" x="1369.74" y="-543.8" font-family="Arial" font-size="8.00">+ AddButton (MenuItemInfo info) : MenuButton virtual</text>
<text text-anchor="start" x="1369.74" y="-533.8" font-family="Arial" font-size="8.00">+ AddDropDown (MenuItemInfo info, DistinctOptionInfo option) virtual</text>
<text text-anchor="start" x="1369.74" y="-523.8" font-family="Arial" font-size="8.00">+ AddDropDown (MenuItemInfo info, DropDownMenuItem[] items, DropDownMenuItem defaultItem) virtual</text>
<text text-anchor="start" x="1369.74" y="-513.8" font-family="Arial" font-size="8.00">+ Clear ()</text>
</g>
<!-- Box_Widget&#45;&gt;Box_Menu -->
<g id="edge22" class="edge"><title>Box_Widget&#45;&gt;Box_Menu</title>
<path fill="none" stroke="midnightblue" d="M998.296,-808.81C1099.78,-800.359 1237.42,-781.977 1352.74,-742 1355.66,-740.987 1358.59,-739.933 1361.52,-738.84"/>
<polygon fill="none" stroke="midnightblue" points="997.965,-805.325 988.28,-809.621 998.53,-812.302 997.965,-805.325"/>
</g>
<!-- Box_TextInput -->
<g id="node11" class="node"><title>Box_TextInput</title>
<polygon fill="#fcfcda" stroke="black" points="45.2401,-562 45.2401,-686 332.24,-686 332.24,-562 45.2401,-562"/>
<text text-anchor="middle" x="188.74" y="-674.8" font-family="Arial" font-size="8.00">TextInput</text>
<polyline fill="none" stroke="black" points="45.2401,-668 332.24,-668 "/>
<text text-anchor="start" x="53.2401" y="-656.8" font-family="Arial" font-size="8.00">&#45; font : SpriteFont</text>
<text text-anchor="start" x="53.2401" y="-646.8" font-family="Arial" font-size="8.00"># spriteBatch : SpriteBatch</text>
<text text-anchor="start" x="53.2401" y="-636.8" font-family="Arial" font-size="8.00">+ IsKeyEventEnabled : bool</text>
<text text-anchor="start" x="53.2401" y="-626.8" font-family="Arial" font-size="8.00">+ ValidKeys : List&lt;Keys&gt;</text>
<text text-anchor="start" x="53.2401" y="-616.8" font-family="Arial" font-size="8.00">+ InputText : string</text>
<polyline fill="none" stroke="black" points="45.2401,-610 332.24,-610 "/>
<text text-anchor="start" x="53.2401" y="-598.8" font-family="Arial" font-size="8.00">+ TextInput (GameState state, WidgetInfo info, DisplayLayer drawOrder)</text>
<text text-anchor="start" x="53.2401" y="-588.8" font-family="Arial" font-size="8.00">+ Draw (GameTime gameTime)</text>
<text text-anchor="start" x="53.2401" y="-578.8" font-family="Arial" font-size="8.00">+ OnKeyEvent (List&lt;Keys&gt; key, KeyEvent keyEvent, GameTime gameTime)</text>
<text text-anchor="start" x="53.2401" y="-568.8" font-family="Arial" font-size="8.00">+ Update (GameTime gameTime)</text>
</g>
<!-- Box_Widget&#45;&gt;Box_TextInput -->
<g id="edge26" class="edge"><title>Box_Widget&#45;&gt;Box_TextInput</title>
<path fill="none" stroke="midnightblue" d="M709.041,-799.882C592.164,-785.678 437.763,-763.89 378.74,-742 341.787,-728.295 304.269,-706.908 272.442,-686.085"/>
<polygon fill="none" stroke="midnightblue" points="708.814,-803.38 719.161,-801.105 709.653,-796.431 708.814,-803.38"/>
</g>
<!-- Box_ItemWidget -->
<g id="node12" class="node"><title>Box_ItemWidget</title>
<polygon fill="#fcfcda" stroke="black" points="689.24,-592 689.24,-656 1018.24,-656 1018.24,-592 689.24,-592"/>
<text text-anchor="middle" x="853.74" y="-644.8" font-family="Arial" font-size="8.00">ItemWidget</text>
<polyline fill="none" stroke="black" points="689.24,-638 1018.24,-638 "/>
<text text-anchor="start" x="697.24" y="-626.8" font-family="Arial" font-size="8.00">+ ItemState : ItemState</text>
<text text-anchor="start" x="697.24" y="-616.8" font-family="Arial" font-size="8.00"># ItemNum : int</text>
<polyline fill="none" stroke="black" points="689.24,-610 1018.24,-610 "/>
<text text-anchor="start" x="697.24" y="-598.8" font-family="Arial" font-size="8.00">+ ItemWidget (GameState state, WidgetInfo info, DisplayLayer drawOrder, int itemNum)</text>
</g>
<!-- Box_Widget&#45;&gt;Box_ItemWidget -->
<g id="edge30" class="edge"><title>Box_Widget&#45;&gt;Box_ItemWidget</title>
<path fill="none" stroke="midnightblue" d="M853.74,-768.974C853.74,-733.921 853.74,-686.968 853.74,-656.123"/>
<polygon fill="none" stroke="midnightblue" points="850.24,-768.98 853.74,-778.98 857.24,-768.981 850.24,-768.98"/>
</g>
<!-- Box_DrawableGameStateComponent -->
<g id="node2" class="node"><title>Box_DrawableGameStateComponent</title>
<polygon fill="#fcfcda" stroke="black" points="687.74,-891 687.74,-975 1019.74,-975 1019.74,-891 687.74,-891"/>
<text text-anchor="middle" x="853.74" y="-963.8" font-family="Arial" font-size="8.00">DrawableGameStateComponent</text>
<polyline fill="none" stroke="black" points="687.74,-957 1019.74,-957 "/>
<text text-anchor="start" x="695.74" y="-945.8" font-family="Arial" font-size="8.00">+ Index : DisplayLayer</text>
<text text-anchor="start" x="695.74" y="-935.8" font-family="Arial" font-size="8.00">&#45; _index : DisplayLayer</text>
<text text-anchor="start" x="695.74" y="-925.8" font-family="Arial" font-size="8.00">+ state : GameState</text>
<polyline fill="none" stroke="black" points="687.74,-919 1019.74,-919 "/>
<text text-anchor="start" x="695.74" y="-907.8" font-family="Arial" font-size="8.00">+ DrawableGameStateComponent (GameState state, DisplayLayer index)</text>
<text text-anchor="start" x="695.74" y="-897.8" font-family="Arial" font-size="8.00">+ SubComponents (GameTime gameTime) : IEnumerable&lt;IGameStateComponent&gt; virtual</text>
</g>
<!-- Box_DrawableGameStateComponent&#45;&gt;Box_Widget -->
<g id="edge2" class="edge"><title>Box_DrawableGameStateComponent&#45;&gt;Box_Widget</title>
<path fill="none" stroke="midnightblue" d="M853.74,-880.482C853.74,-871.258 853.74,-861.834 853.74,-853.14"/>
<polygon fill="none" stroke="midnightblue" points="850.24,-880.76 853.74,-890.76 857.24,-880.76 850.24,-880.76"/>
</g>
<!-- Box_IGameStateComponent -->
<g id="node3" class="node"><title>Box_IGameStateComponent</title>
<polygon fill="#dafcda" stroke="black" points="581.74,-1013 581.74,-1067 889.74,-1067 889.74,-1013 581.74,-1013"/>
<text text-anchor="middle" x="735.74" y="-1055.8" font-family="Arial" font-size="8.00">IGameStateComponent</text>
<polyline fill="none" stroke="black" points="581.74,-1049 889.74,-1049 "/>
<text text-anchor="start" x="589.74" y="-1037.8" font-family="Arial" font-size="8.00">+ Index : DisplayLayer</text>
<polyline fill="none" stroke="black" points="581.74,-1031 889.74,-1031 "/>
<text text-anchor="start" x="589.74" y="-1019.8" font-family="Arial" font-size="8.00">+ SubComponents (GameTime gameTime) : IEnumerable&lt;IGameStateComponent&gt;</text>
</g>
<!-- Box_IGameStateComponent&#45;&gt;Box_DrawableGameStateComponent -->
<g id="edge6" class="edge"><title>Box_IGameStateComponent&#45;&gt;Box_DrawableGameStateComponent</title>
<path fill="none" stroke="midnightblue" d="M773.123,-1006.1C783.873,-996.354 795.735,-985.598 806.976,-975.404"/>
<polygon fill="none" stroke="midnightblue" points="770.573,-1003.69 765.516,-1013 775.276,-1008.87 770.573,-1003.69"/>
</g>
<!-- Box_ConfirmDialog -->
<g id="node6" class="node"><title>Box_ConfirmDialog</title>
<polygon fill="#fcfcda" stroke="black" points="1042.74,-330 1042.74,-424 1336.74,-424 1336.74,-330 1042.74,-330"/>
<text text-anchor="middle" x="1189.74" y="-412.8" font-family="Arial" font-size="8.00">ConfirmDialog</text>
<polyline fill="none" stroke="black" points="1042.74,-406 1336.74,-406 "/>
<text text-anchor="start" x="1050.74" y="-394.8" font-family="Arial" font-size="8.00"># Text : string[]</text>
<polyline fill="none" stroke="black" points="1042.74,-388 1336.74,-388 "/>
<text text-anchor="start" x="1050.74" y="-376.8" font-family="Arial" font-size="8.00"># OnYesClick () : Action</text>
<text text-anchor="start" x="1050.74" y="-366.8" font-family="Arial" font-size="8.00"># OnCancelClick () : Action</text>
<text text-anchor="start" x="1050.74" y="-356.8" font-family="Arial" font-size="8.00"># OnNoClick () : Action</text>
<text text-anchor="start" x="1050.74" y="-346.8" font-family="Arial" font-size="8.00"># DrawDialog (GameTime gameTime)</text>
<text text-anchor="start" x="1050.74" y="-336.8" font-family="Arial" font-size="8.00">+ ConfirmDialog (GameState state, WidgetInfo info, DisplayLayer drawOrder)</text>
</g>
<!-- Box_Dialog&#45;&gt;Box_ConfirmDialog -->
<g id="edge16" class="edge"><title>Box_Dialog&#45;&gt;Box_ConfirmDialog</title>
<path fill="none" stroke="midnightblue" d="M1189.74,-541.592C1189.74,-502.566 1189.74,-457.362 1189.74,-424.212"/>
<polygon fill="none" stroke="midnightblue" points="1186.24,-541.893 1189.74,-551.893 1193.24,-541.893 1186.24,-541.893"/>
</g>
<!-- Box_TextInputDialog -->
<g id="node7" class="node"><title>Box_TextInputDialog</title>
<polygon fill="#fcfcda" stroke="black" points="1035.74,-128 1035.74,-212 1343.74,-212 1343.74,-128 1035.74,-128"/>
<text text-anchor="middle" x="1189.74" y="-200.8" font-family="Arial" font-size="8.00">TextInputDialog</text>
<polyline fill="none" stroke="black" points="1035.74,-194 1343.74,-194 "/>
<text text-anchor="start" x="1043.74" y="-182.8" font-family="Arial" font-size="8.00"># TextInput : TextInput</text>
<polyline fill="none" stroke="black" points="1035.74,-176 1343.74,-176 "/>
<text text-anchor="start" x="1043.74" y="-164.8" font-family="Arial" font-size="8.00"># TextInputSize () : Vector2</text>
<text text-anchor="start" x="1043.74" y="-154.8" font-family="Arial" font-size="8.00">+ TextInputDialog (GameState state, WidgetInfo info, DisplayLayer drawOrder)</text>
<text text-anchor="start" x="1043.74" y="-144.8" font-family="Arial" font-size="8.00"># TextInputPosition () : Vector2</text>
<text text-anchor="start" x="1043.74" y="-134.8" font-family="Arial" font-size="8.00">+ SubComponents (GameTime gameTime) : IEnumerable&lt;IGameStateComponent&gt;</text>
</g>
<!-- Box_ConfirmDialog&#45;&gt;Box_TextInputDialog -->
<g id="edge18" class="edge"><title>Box_ConfirmDialog&#45;&gt;Box_TextInputDialog</title>
<path fill="none" stroke="midnightblue" d="M1189.74,-319.491C1189.74,-285.437 1189.74,-243.045 1189.74,-212.11"/>
<polygon fill="none" stroke="midnightblue" points="1186.24,-319.769 1189.74,-329.769 1193.24,-319.77 1186.24,-319.769"/>
</g>
<!-- Box_KnotSaveConfirmDialog -->
<g id="node8" class="node"><title>Box_KnotSaveConfirmDialog</title>
<polygon fill="#fcfcda" stroke="black" points="1005.74,-1 1005.74,-55 1373.74,-55 1373.74,-1 1005.74,-1"/>
<text text-anchor="middle" x="1189.74" y="-43.8" font-family="Arial" font-size="8.00">KnotSaveConfirmDialog</text>
<polyline fill="none" stroke="black" points="1005.74,-37 1373.74,-37 "/>
<text text-anchor="middle" x="1189.74" y="-25.8" font-family="Arial" font-size="8.00"> </text>
<polyline fill="none" stroke="black" points="1005.74,-19 1373.74,-19 "/>
<text text-anchor="start" x="1013.74" y="-7.8" font-family="Arial" font-size="8.00">+ KnotSaveConfirmDialog (GameState state, WidgetInfo info, DisplayLayer drawOrder, Knot knot)</text>
</g>
<!-- Box_TextInputDialog&#45;&gt;Box_KnotSaveConfirmDialog -->
<g id="edge20" class="edge"><title>Box_TextInputDialog&#45;&gt;Box_KnotSaveConfirmDialog</title>
<path fill="none" stroke="midnightblue" d="M1189.74,-117.582C1189.74,-96.3431 1189.74,-72.7182 1189.74,-55.0643"/>
<polygon fill="none" stroke="midnightblue" points="1186.24,-117.78 1189.74,-127.78 1193.24,-117.78 1186.24,-117.78"/>
</g>
<!-- Box_VerticalMenu -->
<g id="node10" class="node"><title>Box_VerticalMenu</title>
<polygon fill="#fcfcda" stroke="black" points="1373.74,-315 1373.74,-439 1743.74,-439 1743.74,-315 1373.74,-315"/>
<text text-anchor="middle" x="1558.74" y="-427.8" font-family="Arial" font-size="8.00">VerticalMenu</text>
<polyline fill="none" stroke="black" points="1373.74,-421 1743.74,-421 "/>
<text text-anchor="start" x="1381.74" y="-409.8" font-family="Arial" font-size="8.00"># spriteBatch : SpriteBatch</text>
<text text-anchor="start" x="1381.74" y="-399.8" font-family="Arial" font-size="8.00">+ Border : Border</text>
<polyline fill="none" stroke="black" points="1373.74,-393 1743.74,-393 "/>
<text text-anchor="start" x="1381.74" y="-381.8" font-family="Arial" font-size="8.00">+ VerticalMenu (GameState state, WidgetInfo info, DisplayLayer drawOrder)</text>
<text text-anchor="start" x="1381.74" y="-371.8" font-family="Arial" font-size="8.00">+ Align (Viewport viewport, float scale, int posX, int posY, int? sizeX)</text>
<text text-anchor="start" x="1381.74" y="-361.8" font-family="Arial" font-size="8.00">+ AddButton (MenuItemInfo info) : MenuButton</text>
<text text-anchor="start" x="1381.74" y="-351.8" font-family="Arial" font-size="8.00">+ AddDropDown (MenuItemInfo info, DistinctOptionInfo option)</text>
<text text-anchor="start" x="1381.74" y="-341.8" font-family="Arial" font-size="8.00">+ AddDropDown (MenuItemInfo info, DropDownMenuItem[] items, DropDownMenuItem defaultItem)</text>
<text text-anchor="start" x="1381.74" y="-331.8" font-family="Arial" font-size="8.00">+ Draw (GameTime gameTime)</text>
<text text-anchor="start" x="1381.74" y="-321.8" font-family="Arial" font-size="8.00">+ Align (Viewport viewport, float scale, Vector2? givenPosition)</text>
</g>
<!-- Box_Menu&#45;&gt;Box_VerticalMenu -->
<g id="edge24" class="edge"><title>Box_Menu&#45;&gt;Box_VerticalMenu</title>
<path fill="none" stroke="midnightblue" d="M1558.74,-496.548C1558.74,-476.623 1558.74,-456.835 1558.74,-439.262"/>
<polygon fill="none" stroke="midnightblue" points="1555.24,-496.649 1558.74,-506.649 1562.24,-496.649 1555.24,-496.649"/>
</g>
<!-- Box_MenuItem -->
<g id="node13" class="node"><title>Box_MenuItem</title>
<polygon fill="#fcfcda" stroke="black" points="193.74,-285 193.74,-469 525.74,-469 525.74,-285 193.74,-285"/>
<text text-anchor="middle" x="359.74" y="-457.8" font-family="Arial" font-size="8.00">MenuItem</text>
<polyline fill="none" stroke="black" points="193.74,-451 525.74,-451 "/>
<text text-anchor="start" x="201.74" y="-439.8" font-family="Arial" font-size="8.00"># spriteBatch : SpriteBatch</text>
<text text-anchor="start" x="201.74" y="-429.8" font-family="Arial" font-size="8.00">+ IsMouseEventEnabled : bool</text>
<text text-anchor="start" x="201.74" y="-419.8" font-family="Arial" font-size="8.00">+ ValidKeys : List&lt;Keys&gt;</text>
<text text-anchor="start" x="201.74" y="-409.8" font-family="Arial" font-size="8.00">+ IsKeyEventEnabled : bool</text>
<text text-anchor="start" x="201.74" y="-399.8" font-family="Arial" font-size="8.00">+ Info : MenuItemInfo</text>
<polyline fill="none" stroke="black" points="193.74,-393 525.74,-393 "/>
<text text-anchor="start" x="201.74" y="-381.8" font-family="Arial" font-size="8.00">+ MenuItem (GameState state, DisplayLayer drawOrder, int itemNum, MenuItemInfo info)</text>
<text text-anchor="start" x="201.74" y="-371.8" font-family="Arial" font-size="8.00">+ Collapse () virtual</text>
<text text-anchor="start" x="201.74" y="-361.8" font-family="Arial" font-size="8.00">+ OnKeyEvent (List&lt;Keys&gt; key, KeyEvent keyEvent, GameTime gameTime)</text>
<text text-anchor="start" x="201.74" y="-351.8" font-family="Arial" font-size="8.00">+ OnLeftClick (Vector2 position, ClickState click, GameTime gameTime)</text>
<text text-anchor="start" x="201.74" y="-341.8" font-family="Arial" font-size="8.00">+ OnRightClick (Vector2 position, ClickState click, GameTime gameTime)</text>
<text text-anchor="start" x="201.74" y="-331.8" font-family="Arial" font-size="8.00">+ MinimumSize (SpriteFont font) : Vector2</text>
<text text-anchor="start" x="201.74" y="-321.8" font-family="Arial" font-size="8.00">+ TextPosition (SpriteFont font) : Vector2</text>
<text text-anchor="start" x="201.74" y="-311.8" font-family="Arial" font-size="8.00">+ TextPosition (SpriteFont font, Vector2 scale) : Vector2</text>
<text text-anchor="start" x="201.74" y="-301.8" font-family="Arial" font-size="8.00">+ Draw (GameTime gameTime)</text>
<text text-anchor="start" x="201.74" y="-291.8" font-family="Arial" font-size="8.00">+ SetHovered (bool hovered)</text>
</g>
<!-- Box_ItemWidget&#45;&gt;Box_MenuItem -->
<g id="edge32" class="edge"><title>Box_ItemWidget&#45;&gt;Box_MenuItem</title>
<path fill="none" stroke="midnightblue" d="M804.074,-585.86C770.441,-561.122 724.351,-529.281 680.74,-506 631.995,-479.978 576.828,-455.998 526.151,-435.955"/>
<polygon fill="none" stroke="midnightblue" points="802.227,-588.849 812.347,-591.987 806.394,-583.223 802.227,-588.849"/>
</g>
<!-- Box_DropDownMenu -->
<g id="node14" class="node"><title>Box_DropDownMenu</title>
<polygon fill="#fcfcda" stroke="black" points="364.24,-93 364.24,-247 721.24,-247 721.24,-93 364.24,-93"/>
<text text-anchor="middle" x="542.74" y="-235.8" font-family="Arial" font-size="8.00">DropDownMenu</text>
<polyline fill="none" stroke="black" points="364.24,-229 721.24,-229 "/>
<text text-anchor="start" x="372.24" y="-217.8" font-family="Arial" font-size="8.00">&#45; selected : MenuButton</text>
<text text-anchor="start" x="372.24" y="-207.8" font-family="Arial" font-size="8.00">&#45; dropdown : VerticalMenu</text>
<polyline fill="none" stroke="black" points="364.24,-201 721.24,-201 "/>
<text text-anchor="start" x="372.24" y="-189.8" font-family="Arial" font-size="8.00">&#45; ValuePosition (int dummy) : Vector2</text>
<text text-anchor="start" x="372.24" y="-179.8" font-family="Arial" font-size="8.00">+ DropDownMenu (GameState state, DisplayLayer drawOrder, int itemNum, MenuItemInfo info)</text>
<text text-anchor="start" x="372.24" y="-169.8" font-family="Arial" font-size="8.00">&#45; DropDownBackgroundColor (ItemState itemState) : Color</text>
<text text-anchor="start" x="372.24" y="-159.8" font-family="Arial" font-size="8.00">&#45; DropDownForegroundColor (ItemState itemState) : Color</text>
<text text-anchor="start" x="372.24" y="-149.8" font-family="Arial" font-size="8.00">&#45; ValueSize (int dummy) : Vector2</text>
<text text-anchor="start" x="372.24" y="-139.8" font-family="Arial" font-size="8.00">+ SubComponents (GameTime gameTime) : IEnumerable&lt;IGameStateComponent&gt;</text>
<text text-anchor="start" x="372.24" y="-129.8" font-family="Arial" font-size="8.00">+ Collapse ()</text>
<text text-anchor="start" x="372.24" y="-119.8" font-family="Arial" font-size="8.00">+ Draw (GameTime gameTime)</text>
<text text-anchor="start" x="372.24" y="-109.8" font-family="Arial" font-size="8.00">+ AddEntries (DistinctOptionInfo option)</text>
<text text-anchor="start" x="372.24" y="-99.8" font-family="Arial" font-size="8.00">+ AddEntries (DropDownMenuItem[] entries, DropDownMenuItem defaultEntry)</text>
</g>
<!-- Box_MenuItem&#45;&gt;Box_DropDownMenu -->
<g id="edge38" class="edge"><title>Box_MenuItem&#45;&gt;Box_DropDownMenu</title>
<path fill="none" stroke="midnightblue" d="M448.095,-277.058C456.947,-267.045 465.838,-256.987 474.437,-247.261"/>
<polygon fill="none" stroke="midnightblue" points="445.34,-274.889 441.339,-284.7 450.585,-279.526 445.34,-274.889"/>
</g>
<!-- Box_MenuButton -->
<g id="node15" class="node"><title>Box_MenuButton</title>
<polygon fill="#fcfcda" stroke="black" points="6.2401,-143 6.2401,-197 347.24,-197 347.24,-143 6.2401,-143"/>
<text text-anchor="middle" x="176.74" y="-185.8" font-family="Arial" font-size="8.00">MenuButton</text>
<polyline fill="none" stroke="black" points="6.2401,-179 347.24,-179 "/>
<text text-anchor="middle" x="176.74" y="-167.8" font-family="Arial" font-size="8.00"> </text>
<polyline fill="none" stroke="black" points="6.2401,-161 347.24,-161 "/>
<text text-anchor="start" x="14.2401" y="-149.8" font-family="Arial" font-size="8.00">+ MenuButton (GameState state, DisplayLayer drawOrder, int itemNum, MenuItemInfo info)</text>
</g>
<!-- Box_MenuItem&#45;&gt;Box_MenuButton -->
<g id="edge40" class="edge"><title>Box_MenuItem&#45;&gt;Box_MenuButton</title>
<path fill="none" stroke="midnightblue" d="M271.226,-276.877C245.38,-247.642 219.216,-218.046 200.995,-197.435"/>
<polygon fill="none" stroke="midnightblue" points="268.896,-279.526 278.141,-284.7 274.14,-274.889 268.896,-279.526"/>
</g>
<!-- Box_XnaDrawableGameComponent -->
<g id="node16" class="node"><title>Box_XnaDrawableGameComponent</title>
<polygon fill="#ffffff" stroke="black" points="907.74,-1031 907.74,-1049 1037.74,-1049 1037.74,-1031 907.74,-1031"/>
<text text-anchor="middle" x="972.74" y="-1037.8" font-family="Arial" font-size="8.00">Xna.DrawableGameComponent</text>
</g>
<!-- Box_XnaDrawableGameComponent&#45;&gt;Box_DrawableGameStateComponent -->
<g id="edge4" class="edge"><title>Box_XnaDrawableGameComponent&#45;&gt;Box_DrawableGameStateComponent</title>
<path fill="none" stroke="midnightblue" d="M954.966,-1024.02C940.626,-1011.12 919.775,-992.376 900.719,-975.241"/>
<polygon fill="none" stroke="midnightblue" points="952.818,-1026.79 962.594,-1030.88 957.498,-1021.59 952.818,-1026.79"/>
</g>
<!-- Box_XnaIGameComponent -->
<g id="node17" class="node"><title>Box_XnaIGameComponent</title>
<polygon fill="#ffffff" stroke="black" points="687.74,-1105 687.74,-1123 783.74,-1123 783.74,-1105 687.74,-1105"/>
<text text-anchor="middle" x="735.74" y="-1111.8" font-family="Arial" font-size="8.00">Xna.IGameComponent</text>
</g>
<!-- Box_XnaIGameComponent&#45;&gt;Box_IGameStateComponent -->
<g id="edge8" class="edge"><title>Box_XnaIGameComponent&#45;&gt;Box_IGameStateComponent</title>
<path fill="none" stroke="midnightblue" d="M735.74,-1094.64C735.74,-1086.2 735.74,-1076.16 735.74,-1067"/>
<polygon fill="none" stroke="midnightblue" points="732.24,-1094.93 735.74,-1104.93 739.24,-1094.93 732.24,-1094.93"/>
</g>
<!-- Box_IMouseEventListener -->
<g id="node18" class="node"><title>Box_IMouseEventListener</title>
<polygon fill="#ffffff" stroke="black" points="398.74,-807 398.74,-825 490.74,-825 490.74,-807 398.74,-807"/>
<text text-anchor="middle" x="444.74" y="-813.8" font-family="Arial" font-size="8.00">IMouseEventListener</text>
</g>
<!-- Box_IMouseEventListener&#45;&gt;Box_ColorPicker -->
<g id="edge12" class="edge"><title>Box_IMouseEventListener&#45;&gt;Box_ColorPicker</title>
<path fill="none" stroke="midnightblue" d="M452.822,-797.745C461.272,-778.658 475.185,-747.23 488.873,-716.313"/>
<polygon fill="none" stroke="midnightblue" points="449.574,-796.436 448.726,-806.997 455.974,-799.27 449.574,-796.436"/>
</g>
<!-- Box_IMouseEventListener&#45;&gt;Box_MenuItem -->
<g id="edge34" class="edge"><title>Box_IMouseEventListener&#45;&gt;Box_MenuItem</title>
<path fill="none" stroke="midnightblue" d="M424.477,-800.088C408.88,-786.516 388.408,-765.508 378.74,-742 342.78,-654.559 342.244,-545.257 348.077,-469.164"/>
<polygon fill="none" stroke="midnightblue" points="422.624,-803.101 432.54,-806.831 427.114,-797.731 422.624,-803.101"/>
</g>
<!-- Box_IKeyEventListener -->
<g id="node19" class="node"><title>Box_IKeyEventListener</title>
<polygon fill="#ffffff" stroke="black" points="61.7401,-807 61.7401,-825 143.74,-825 143.74,-807 61.7401,-807"/>
<text text-anchor="middle" x="102.74" y="-813.8" font-family="Arial" font-size="8.00">IKeyEventListener</text>
</g>
<!-- Box_IKeyEventListener&#45;&gt;Box_TextInput -->
<g id="edge28" class="edge"><title>Box_IKeyEventListener&#45;&gt;Box_TextInput</title>
<path fill="none" stroke="midnightblue" d="M110.879,-797.829C122.256,-772.43 143.476,-725.055 160.893,-686.171"/>
<polygon fill="none" stroke="midnightblue" points="107.666,-796.44 106.773,-806.997 114.055,-799.301 107.666,-796.44"/>
</g>
<!-- Box_IKeyEventListener&#45;&gt;Box_MenuItem -->
<g id="edge36" class="edge"><title>Box_IKeyEventListener&#45;&gt;Box_MenuItem</title>
<path fill="none" stroke="midnightblue" d="M82.1464,-800.219C66.3597,-786.722 45.7932,-765.752 36.7401,-742 -0.617471,-643.989 -22.0868,-592.839 36.7401,-506 72.5533,-453.133 133.895,-421.931 193.564,-403.516"/>
<polygon fill="none" stroke="midnightblue" points="80.3683,-803.287 90.3216,-806.918 84.8051,-797.872 80.3683,-803.287"/>
</g>
</g>
</svg>
