<?xml version="1.0" encoding="UTF-8" standalone="no"?>
<!DOCTYPE svg PUBLIC "-//W3C//DTD SVG 1.1//EN"
 "http://www.w3.org/Graphics/SVG/1.1/DTD/svg11.dtd">
<!-- Generated by graphviz version 2.26.3 (20100126.1600)
 -->
<!-- Title: MenuItem Pages: 1 -->
<svg width="449pt" height="444pt"
 viewBox="0.00 0.00 449.00 444.00" xmlns="http://www.w3.org/2000/svg" xmlns:xlink="http://www.w3.org/1999/xlink">
<g id="graph1" class="graph" transform="scale(1 1) rotate(0) translate(4 440)">
<title>MenuItem</title>
<polygon fill="white" stroke="white" points="-4,5 -4,-440 446,-440 446,5 -4,5"/>
<!-- Box_KeyHandler -->
<g id="node1" class="node"><title>Box_KeyHandler</title>
<polygon fill="#fcfcda" stroke="black" points="202,-1 202,-97 340,-97 340,-1 202,-1"/>
<text text-anchor="middle" x="271" y="-85.8" font-family="Helvetica,sans-Serif" font-size="8.00">KeyHandler</text>
<polyline fill="none" stroke="black" points="202,-77 340,-77 "/>
<text text-anchor="start" x="210" y="-65.8" font-family="Helvetica,sans-Serif" font-size="8.00">Attributes:</text>
<text text-anchor="start" x="210" y="-53.8" font-family="Helvetica,sans-Serif" font-size="8.00">&#45; KeyEventComponent : class</text>
<text text-anchor="start" x="210" y="-41.8" font-family="Helvetica,sans-Serif" font-size="8.00">Methods:</text>
<polyline fill="none" stroke="black" points="202,-33 340,-33 "/>
<text text-anchor="start" x="210" y="-21.8" font-family="Helvetica,sans-Serif" font-size="8.00">+ KeyHandler (GameState state)</text>
<text text-anchor="start" x="210" y="-9.8" font-family="Helvetica,sans-Serif" font-size="8.00">+ Update (GameTime gameTime)</text>
</g>
<!-- Box_GameStateComponent -->
<g id="node2" class="node"><title>Box_GameStateComponent</title>
<polygon fill="#fcfcda" stroke="black" points="100.5,-135 100.5,-255 441.5,-255 441.5,-135 100.5,-135"/>
<text text-anchor="middle" x="271" y="-243.8" font-family="Helvetica,sans-Serif" font-size="8.00">GameStateComponent</text>
<polyline fill="none" stroke="black" points="100.5,-235 441.5,-235 "/>
<text text-anchor="start" x="108.5" y="-223.8" font-family="Helvetica,sans-Serif" font-size="8.00">Attributes:</text>
<text text-anchor="start" x="108.5" y="-211.8" font-family="Helvetica,sans-Serif" font-size="8.00"># InputOrder : DisplayLayer</text>
<text text-anchor="start" x="108.5" y="-199.8" font-family="Helvetica,sans-Serif" font-size="8.00">+ state : GameState</text>
<text text-anchor="start" x="108.5" y="-187.8" font-family="Helvetica,sans-Serif" font-size="8.00">+ Index : int</text>
<text text-anchor="start" x="108.5" y="-175.8" font-family="Helvetica,sans-Serif" font-size="8.00">Methods:</text>
<polyline fill="none" stroke="black" points="100.5,-167 441.5,-167 "/>
<text text-anchor="start" x="108.5" y="-155.8" font-family="Helvetica,sans-Serif" font-size="8.00">+ GameStateComponent (GameState state, DisplayLayer inputOrder)</text>
<text text-anchor="start" x="108.5" y="-143.8" font-family="Helvetica,sans-Serif" font-size="8.00">+ SubComponents (GameTime gameTime) : IEnumerable&lt;IGameStateComponent&gt; virtual</text>
</g>
<!-- Box_GameStateComponent&#45;&gt;Box_KeyHandler -->
<g id="edge2" class="edge"><title>Box_GameStateComponent&#45;&gt;Box_KeyHandler</title>
<path fill="none" stroke="midnightblue" d="M271,-124.677C271,-115.324 271,-105.913 271,-97.0587"/>
<polygon fill="none" stroke="midnightblue" points="267.5,-124.773 271,-134.773 274.5,-124.773 267.5,-124.773"/>
</g>
<!-- Box_IGameStateComponent -->
<g id="node3" class="node"><title>Box_IGameStateComponent</title>
<polygon fill="#dafcda" stroke="black" points="0,-293 0,-377 318,-377 318,-293 0,-293"/>
<text text-anchor="middle" x="159" y="-365.8" font-family="Helvetica,sans-Serif" font-size="8.00">IGameStateComponent</text>
<polyline fill="none" stroke="black" points="0,-357 318,-357 "/>
<text text-anchor="start" x="8" y="-345.8" font-family="Helvetica,sans-Serif" font-size="8.00">Attributes:</text>
<text text-anchor="start" x="8" y="-333.8" font-family="Helvetica,sans-Serif" font-size="8.00">+ Index : int</text>
<text text-anchor="start" x="8" y="-321.8" font-family="Helvetica,sans-Serif" font-size="8.00">Methods:</text>
<polyline fill="none" stroke="black" points="0,-313 318,-313 "/>
<text text-anchor="start" x="8" y="-301.8" font-family="Helvetica,sans-Serif" font-size="8.00">+ SubComponents (GameTime gameTime) : IEnumerable&lt;IGameStateComponent&gt;</text>
</g>
<!-- Box_IGameStateComponent&#45;&gt;Box_GameStateComponent -->
<g id="edge6" class="edge"><title>Box_IGameStateComponent&#45;&gt;Box_GameStateComponent</title>
<path fill="none" stroke="midnightblue" d="M192.497,-285.005C200,-275.314 208.136,-265.065 216.239,-255.09"/>
<polygon fill="none" stroke="midnightblue" points="189.675,-282.933 186.358,-292.995 195.226,-287.198 189.675,-282.933"/>
</g>
<!-- Box_IGameStateComponent&#45;&gt;Box_GameStateComponent -->
<g id="edge12" class="edge"><title>Box_IGameStateComponent&#45;&gt;Box_GameStateComponent</title>
<path fill="none" stroke="midnightblue" d="M205.255,-285.295C213.332,-275.519 221.681,-265.165 229.618,-255.09"/>
<polygon fill="none" stroke="midnightblue" points="202.554,-283.069 198.849,-292.995 207.935,-287.546 202.554,-283.069"/>
</g>
<!-- Box_XnaGameComponent -->
<g id="node4" class="node"><title>Box_XnaGameComponent</title>
<polygon fill="#ffffff" stroke="black" points="335.5,-325 335.5,-345 432.5,-345 432.5,-325 335.5,-325"/>
<text text-anchor="middle" x="384" y="-333.8" font-family="Helvetica,sans-Serif" font-size="8.00">Xna.GameComponent</text>
</g>
<!-- Box_XnaGameComponent&#45;&gt;Box_GameStateComponent -->
<g id="edge4" class="edge"><title>Box_XnaGameComponent&#45;&gt;Box_GameStateComponent</title>
<path fill="none" stroke="midnightblue" d="M365.232,-317.507C350.878,-301.756 330.755,-277.667 312.743,-255.004"/>
<polygon fill="none" stroke="midnightblue" points="362.785,-320.015 372.17,-324.932 367.9,-315.235 362.785,-320.015"/>
</g>
<!-- Box_XnaGameComponent&#45;&gt;Box_GameStateComponent -->
<g id="edge10" class="edge"><title>Box_XnaGameComponent&#45;&gt;Box_GameStateComponent</title>
<path fill="none" stroke="midnightblue" d="M373.912,-316.631C362.768,-300.873 344.352,-277.251 326.12,-255.004"/>
<polygon fill="none" stroke="midnightblue" points="371.048,-318.645 379.576,-324.932 376.83,-314.699 371.048,-318.645"/>
</g>
<!-- Box_XnaIGameComponent -->
<g id="node5" class="node"><title>Box_XnaIGameComponent</title>
<polygon fill="#ffffff" stroke="black" points="109.5,-415 109.5,-435 208.5,-435 208.5,-415 109.5,-415"/>
<text text-anchor="middle" x="159" y="-423.8" font-family="Helvetica,sans-Serif" font-size="8.00">Xna.IGameComponent</text>
</g>
<!-- Box_XnaIGameComponent&#45;&gt;Box_IGameStateComponent -->
<g id="edge8" class="edge"><title>Box_XnaIGameComponent&#45;&gt;Box_IGameStateComponent</title>
<path fill="none" stroke="midnightblue" d="M153.253,-404.731C152.518,-396.612 152.187,-386.936 152.26,-377.414"/>
<polygon fill="none" stroke="midnightblue" points="149.783,-405.192 154.506,-414.676 156.728,-404.317 149.783,-405.192"/>
</g>
<!-- Box_XnaIGameComponent&#45;&gt;Box_IGameStateComponent -->
<g id="edge14" class="edge"><title>Box_XnaIGameComponent&#45;&gt;Box_IGameStateComponent</title>
<path fill="none" stroke="midnightblue" d="M164.747,-404.731C165.482,-396.612 165.813,-386.936 165.74,-377.414"/>
<polygon fill="none" stroke="midnightblue" points="161.272,-404.317 163.494,-414.676 168.217,-405.192 161.272,-404.317"/>
</g>
</g>
</svg>
