<?xml version="1.0" encoding="UTF-8" standalone="no"?>
<!DOCTYPE svg PUBLIC "-//W3C//DTD SVG 1.1//EN"
 "http://www.w3.org/Graphics/SVG/1.1/DTD/svg11.dtd">
<!-- Generated by graphviz version 2.26.3 (20100126.1600)
 -->
<!-- Title: MenuItem Pages: 1 -->
<svg width="552pt" height="588pt"
 viewBox="0.00 0.00 552.00 588.00" xmlns="http://www.w3.org/2000/svg" xmlns:xlink="http://www.w3.org/1999/xlink">
<g id="graph1" class="graph" transform="scale(1 1) rotate(0) translate(4 584)">
<title>MenuItem</title>
<polygon fill="white" stroke="white" points="-4,5 -4,-584 549,-584 549,5 -4,5"/>
<!-- Box_GameModelInfo -->
<g id="node1" class="node"><title>Box_GameModelInfo</title>
<polygon fill="#fcfcda" stroke="black" points="208,-183 208,-303 364,-303 364,-183 208,-183"/>
<text text-anchor="middle" x="286" y="-291.8" font-family="Helvetica,sans-Serif" font-size="8.00">GameModelInfo</text>
<polyline fill="none" stroke="black" points="208,-283 364,-283 "/>
<text text-anchor="start" x="216" y="-271.8" font-family="Helvetica,sans-Serif" font-size="8.00">Attributes:</text>
<text text-anchor="start" x="216" y="-259.8" font-family="Helvetica,sans-Serif" font-size="8.00">+ Rotation : Angles3</text>
<text text-anchor="start" x="216" y="-247.8" font-family="Helvetica,sans-Serif" font-size="8.00">+ Scale : float</text>
<text text-anchor="start" x="216" y="-235.8" font-family="Helvetica,sans-Serif" font-size="8.00">+ Modelname : string</text>
<text text-anchor="start" x="216" y="-223.8" font-family="Helvetica,sans-Serif" font-size="8.00">Methods:</text>
<polyline fill="none" stroke="black" points="208,-215 364,-215 "/>
<text text-anchor="start" x="216" y="-203.8" font-family="Helvetica,sans-Serif" font-size="8.00">+ GameModelInfo (string modelname)</text>
<text text-anchor="start" x="216" y="-191.8" font-family="Helvetica,sans-Serif" font-size="8.00">+ Equals (GameObjectInfo other) : bool</text>
</g>
<!-- Box_NodeModelInfo -->
<g id="node3" class="node"><title>Box_NodeModelInfo</title>
<polygon fill="#fcfcda" stroke="black" points="-0.5,-13 -0.5,-133 292.5,-133 292.5,-13 -0.5,-13"/>
<text text-anchor="middle" x="146" y="-121.8" font-family="Helvetica,sans-Serif" font-size="8.00">NodeModelInfo</text>
<polyline fill="none" stroke="black" points="-0.5,-113 292.5,-113 "/>
<text text-anchor="start" x="7.5" y="-101.8" font-family="Helvetica,sans-Serif" font-size="8.00">Attributes:</text>
<text text-anchor="start" x="7.5" y="-89.8" font-family="Helvetica,sans-Serif" font-size="8.00">+ EdgeA : Edge</text>
<text text-anchor="start" x="7.5" y="-77.8" font-family="Helvetica,sans-Serif" font-size="8.00">+ EdgeB : Edge</text>
<text text-anchor="start" x="7.5" y="-65.8" font-family="Helvetica,sans-Serif" font-size="8.00">+ Edges : EdgeList</text>
<text text-anchor="start" x="7.5" y="-53.8" font-family="Helvetica,sans-Serif" font-size="8.00">Methods:</text>
<polyline fill="none" stroke="black" points="-0.5,-45 292.5,-45 "/>
<text text-anchor="start" x="7.5" y="-33.8" font-family="Helvetica,sans-Serif" font-size="8.00">+ NodeModelInfo (EdgeList edges, Edge edgeA, Edge edgeB, Vector3 offset)</text>
<text text-anchor="start" x="7.5" y="-21.8" font-family="Helvetica,sans-Serif" font-size="8.00">+ Equals (GameObjectInfo other) : bool</text>
</g>
<!-- Box_GameModelInfo&#45;&gt;Box_NodeModelInfo -->
<g id="edge8" class="edge"><title>Box_GameModelInfo&#45;&gt;Box_NodeModelInfo</title>
<path fill="none" stroke="midnightblue" d="M223.039,-174.603C211.567,-160.907 199.844,-146.614 189.104,-133.22"/>
<polygon fill="none" stroke="midnightblue" points="220.639,-177.187 229.755,-182.586 225.995,-172.68 220.639,-177.187"/>
</g>
<!-- Box_GameModelInfo&#45;&gt;Box_NodeModelInfo -->
<g id="edge12" class="edge"><title>Box_GameModelInfo&#45;&gt;Box_NodeModelInfo</title>
<path fill="none" stroke="midnightblue" d="M236.307,-174.603C225.222,-160.907 213.402,-146.614 202.081,-133.22"/>
<polygon fill="none" stroke="midnightblue" points="233.74,-176.995 242.74,-182.586 239.191,-172.603 233.74,-176.995"/>
</g>
<!-- Box_PipeModelInfo -->
<g id="node4" class="node"><title>Box_PipeModelInfo</title>
<polygon fill="#fcfcda" stroke="black" points="309.5,-1 309.5,-145 544.5,-145 544.5,-1 309.5,-1"/>
<text text-anchor="middle" x="427" y="-133.8" font-family="Helvetica,sans-Serif" font-size="8.00">PipeModelInfo</text>
<polyline fill="none" stroke="black" points="309.5,-125 544.5,-125 "/>
<text text-anchor="start" x="317.5" y="-113.8" font-family="Helvetica,sans-Serif" font-size="8.00">Attributes:</text>
<text text-anchor="start" x="317.5" y="-101.8" font-family="Helvetica,sans-Serif" font-size="8.00">+ Edge : Edge</text>
<text text-anchor="start" x="317.5" y="-89.8" font-family="Helvetica,sans-Serif" font-size="8.00">+ Direction : Vector3</text>
<text text-anchor="start" x="317.5" y="-77.8" font-family="Helvetica,sans-Serif" font-size="8.00">+ PositionFrom : Vector3</text>
<text text-anchor="start" x="317.5" y="-65.8" font-family="Helvetica,sans-Serif" font-size="8.00">+ PositionTo : Vector3</text>
<text text-anchor="start" x="317.5" y="-53.8" font-family="Helvetica,sans-Serif" font-size="8.00">+ Edges : EdgeList</text>
<text text-anchor="start" x="317.5" y="-41.8" font-family="Helvetica,sans-Serif" font-size="8.00">Methods:</text>
<polyline fill="none" stroke="black" points="309.5,-33 544.5,-33 "/>
<text text-anchor="start" x="317.5" y="-21.8" font-family="Helvetica,sans-Serif" font-size="8.00">+ PipeModelInfo (EdgeList edges, Edge edge, Vector3 offset)</text>
<text text-anchor="start" x="317.5" y="-9.8" font-family="Helvetica,sans-Serif" font-size="8.00">+ Equals (GameObjectInfo other) : bool</text>
</g>
<!-- Box_GameModelInfo&#45;&gt;Box_PipeModelInfo -->
<g id="edge10" class="edge"><title>Box_GameModelInfo&#45;&gt;Box_PipeModelInfo</title>
<path fill="none" stroke="midnightblue" d="M336.148,-174.539C344.038,-164.862 352.295,-154.887 360.482,-145.143"/>
<polygon fill="none" stroke="midnightblue" points="333.201,-172.616 329.616,-182.586 338.635,-177.027 333.201,-172.616"/>
</g>
<!-- Box_GameModelInfo&#45;&gt;Box_PipeModelInfo -->
<g id="edge14" class="edge"><title>Box_GameModelInfo&#45;&gt;Box_PipeModelInfo</title>
<path fill="none" stroke="midnightblue" d="M349.173,-174.829C357.414,-165.061 365.788,-154.985 373.844,-145.143"/>
<polygon fill="none" stroke="midnightblue" points="346.395,-172.693 342.601,-182.586 351.736,-177.219 346.395,-172.693"/>
</g>
<!-- Box_GameObjectInfo -->
<g id="node2" class="node"><title>Box_GameObjectInfo</title>
<polygon fill="#fcfcda" stroke="black" points="160.5,-341 160.5,-521 411.5,-521 411.5,-341 160.5,-341"/>
<text text-anchor="middle" x="286" y="-509.8" font-family="Helvetica,sans-Serif" font-size="8.00">GameObjectInfo</text>
<polyline fill="none" stroke="black" points="160.5,-501 411.5,-501 "/>
<text text-anchor="start" x="168.5" y="-489.8" font-family="Helvetica,sans-Serif" font-size="8.00">Attributes:</text>
<text text-anchor="start" x="168.5" y="-477.8" font-family="Helvetica,sans-Serif" font-size="8.00">+ IsMovable : bool</text>
<text text-anchor="start" x="168.5" y="-465.8" font-family="Helvetica,sans-Serif" font-size="8.00">+ IsSelectable : bool</text>
<text text-anchor="start" x="168.5" y="-453.8" font-family="Helvetica,sans-Serif" font-size="8.00">+ IsVisible : bool</text>
<text text-anchor="start" x="168.5" y="-441.8" font-family="Helvetica,sans-Serif" font-size="8.00">+ Position : Vector3</text>
<text text-anchor="start" x="168.5" y="-429.8" font-family="Helvetica,sans-Serif" font-size="8.00">Methods:</text>
<polyline fill="none" stroke="black" points="160.5,-421 411.5,-421 "/>
<text text-anchor="start" x="168.5" y="-409.8" font-family="Helvetica,sans-Serif" font-size="8.00">+ GameObjectInfo ()</text>
<text text-anchor="start" x="168.5" y="-397.8" font-family="Helvetica,sans-Serif" font-size="8.00">+ operator (GameObjectInfo o1, GameObjectInfo o2) : bool static</text>
<text text-anchor="start" x="168.5" y="-385.8" font-family="Helvetica,sans-Serif" font-size="8.00">+ Equals (Object obj) : bool</text>
<text text-anchor="start" x="168.5" y="-373.8" font-family="Helvetica,sans-Serif" font-size="8.00">+ GetHashCode () : int</text>
<text text-anchor="start" x="168.5" y="-361.8" font-family="Helvetica,sans-Serif" font-size="8.00">+ operator ! (GameObjectInfo o1, GameObjectInfo o2) : bool static</text>
<text text-anchor="start" x="168.5" y="-349.8" font-family="Helvetica,sans-Serif" font-size="8.00">+ Equals (GameObjectInfo other) : bool virtual</text>
</g>
<!-- Box_GameObjectInfo&#45;&gt;Box_GameModelInfo -->
<g id="edge2" class="edge"><title>Box_GameObjectInfo&#45;&gt;Box_GameModelInfo</title>
<path fill="none" stroke="midnightblue" d="M286,-330.639C286,-321.24 286,-311.925 286,-303.074"/>
<polygon fill="none" stroke="midnightblue" points="282.5,-330.854 286,-340.855 289.5,-330.855 282.5,-330.854"/>
</g>
<!-- Box_IEquatable -->
<g id="node5" class="node"><title>Box_IEquatable</title>
<polygon fill="#ffffff" stroke="black" points="225,-559 225,-579 347,-579 347,-559 225,-559"/>
<text text-anchor="middle" x="286" y="-567.8" font-family="Helvetica,sans-Serif" font-size="8.00">IEquatable&lt;GameObjectInfo&gt;</text>
</g>
<!-- Box_IEquatable&#45;&gt;Box_GameObjectInfo -->
<g id="edge4" class="edge"><title>Box_IEquatable&#45;&gt;Box_GameObjectInfo</title>
<path fill="none" stroke="midnightblue" d="M281.039,-548.572C280.33,-540.819 279.833,-531.407 279.545,-521.321"/>
<polygon fill="none" stroke="midnightblue" points="277.577,-549.107 282.227,-558.628 284.529,-548.286 277.577,-549.107"/>
</g>
<!-- Box_IEquatable&#45;&gt;Box_GameObjectInfo -->
<g id="edge6" class="edge"><title>Box_IEquatable&#45;&gt;Box_GameObjectInfo</title>
<path fill="none" stroke="midnightblue" d="M290.961,-548.572C291.67,-540.819 292.167,-531.407 292.455,-521.321"/>
<polygon fill="none" stroke="midnightblue" points="287.471,-548.286 289.773,-558.628 294.423,-549.107 287.471,-548.286"/>
</g>
</g>
</svg>
