<?xml version="1.0" encoding="UTF-8" standalone="no"?>
<!DOCTYPE svg PUBLIC "-//W3C//DTD SVG 1.1//EN"
 "http://www.w3.org/Graphics/SVG/1.1/DTD/svg11.dtd">
<!-- Generated by graphviz version 2.26.3 (20100126.1600)
 -->
<!-- Title: MenuItem Pages: 1 -->
<svg width="954pt" height="870pt"
 viewBox="0.00 0.00 954.00 870.00" xmlns="http://www.w3.org/2000/svg" xmlns:xlink="http://www.w3.org/1999/xlink">
<g id="graph1" class="graph" transform="scale(1 1) rotate(0) translate(4 866)">
<title>MenuItem</title>
<polygon fill="white" stroke="white" points="-4,5 -4,-866 951,-866 951,5 -4,5"/>
<!-- Box_MenuItem -->
<g id="node1" class="node"><title>Box_MenuItem</title>
<polygon fill="#fcfcda" stroke="black" points="273.5,-99 273.5,-315 608.5,-315 608.5,-99 273.5,-99"/>
<text text-anchor="middle" x="441" y="-303.8" font-family="Helvetica,sans-Serif" font-size="8.00">MenuItem</text>
<polyline fill="none" stroke="black" points="273.5,-295 608.5,-295 "/>
<text text-anchor="start" x="281.5" y="-283.8" font-family="Helvetica,sans-Serif" font-size="8.00">+ Info : MenuItemInfo new</text>
<text text-anchor="start" x="281.5" y="-271.8" font-family="Helvetica,sans-Serif" font-size="8.00"># spriteBatch : SpriteBatch</text>
<text text-anchor="start" x="281.5" y="-259.8" font-family="Helvetica,sans-Serif" font-size="8.00">+ ValidKeys : List&lt;Keys&gt;</text>
<text text-anchor="start" x="281.5" y="-247.8" font-family="Helvetica,sans-Serif" font-size="8.00">+ IsKeyEventEnabled : bool</text>
<text text-anchor="start" x="281.5" y="-235.8" font-family="Helvetica,sans-Serif" font-size="8.00">+ IsMouseEventEnabled : bool</text>
<polyline fill="none" stroke="black" points="273.5,-227 608.5,-227 "/>
<text text-anchor="start" x="281.5" y="-215.8" font-family="Helvetica,sans-Serif" font-size="8.00">+ MenuItem (GameState state, DisplayLayer drawOrder, int itemNum, MenuItemInfo info)</text>
<text text-anchor="start" x="281.5" y="-203.8" font-family="Helvetica,sans-Serif" font-size="8.00">+ Draw (GameTime gameTime) override</text>
<text text-anchor="start" x="281.5" y="-191.8" font-family="Helvetica,sans-Serif" font-size="8.00">+ TextPosition (SpriteFont font) : Vector2</text>
<text text-anchor="start" x="281.5" y="-179.8" font-family="Helvetica,sans-Serif" font-size="8.00">+ TextPosition (SpriteFont font, Vector2 scale) : Vector2</text>
<text text-anchor="start" x="281.5" y="-167.8" font-family="Helvetica,sans-Serif" font-size="8.00">+ MinimumSize (SpriteFont font) : Vector2</text>
<text text-anchor="start" x="281.5" y="-155.8" font-family="Helvetica,sans-Serif" font-size="8.00">+ OnLeftClick (Vector2 position, ClickState click, GameTime gameTime)</text>
<text text-anchor="start" x="281.5" y="-143.8" font-family="Helvetica,sans-Serif" font-size="8.00">+ OnRightClick (Vector2 position, ClickState click, GameTime gameTime)</text>
<text text-anchor="start" x="281.5" y="-131.8" font-family="Helvetica,sans-Serif" font-size="8.00">+ OnKeyEvent (List&lt;Keys&gt; key, KeyEvent keyEvent, GameTime gameTime)</text>
<text text-anchor="start" x="281.5" y="-119.8" font-family="Helvetica,sans-Serif" font-size="8.00">+ SetHovered (bool hovered)</text>
<text text-anchor="start" x="281.5" y="-107.8" font-family="Helvetica,sans-Serif" font-size="8.00">+ Collapse () virtual</text>
</g>
<!-- Box_MenuButton -->
<g id="node8" class="node"><title>Box_MenuButton</title>
<polygon fill="#fcfcda" stroke="black" points="269.5,-1 269.5,-61 612.5,-61 612.5,-1 269.5,-1"/>
<text text-anchor="middle" x="441" y="-49.8" font-family="Helvetica,sans-Serif" font-size="8.00">MenuButton</text>
<polyline fill="none" stroke="black" points="269.5,-41 612.5,-41 "/>
<text text-anchor="middle" x="441" y="-29.8" font-family="Helvetica,sans-Serif" font-size="8.00"> </text>
<polyline fill="none" stroke="black" points="269.5,-21 612.5,-21 "/>
<text text-anchor="start" x="277.5" y="-9.8" font-family="Helvetica,sans-Serif" font-size="8.00">+ MenuButton (GameState state, DisplayLayer drawOrder, int itemNum, MenuItemInfo info)</text>
</g>
<!-- Box_MenuItem&#45;&gt;Box_MenuButton -->
<g id="edge18" class="edge"><title>Box_MenuItem&#45;&gt;Box_MenuButton</title>
<path fill="none" stroke="midnightblue" d="M441,-88.6249C441,-78.6314 441,-69.2336 441,-61.0422"/>
<polygon fill="none" stroke="midnightblue" points="437.5,-88.7944 441,-98.7944 444.5,-88.7945 437.5,-88.7944"/>
</g>
<!-- Box_IKeyEventListener -->
<g id="node2" class="node"><title>Box_IKeyEventListener</title>
<polygon fill="#dafcda" stroke="black" points="0,-365 0,-449 286,-449 286,-365 0,-365"/>
<text text-anchor="middle" x="143" y="-437.8" font-family="Helvetica,sans-Serif" font-size="8.00">IKeyEventListener</text>
<polyline fill="none" stroke="black" points="0,-429 286,-429 "/>
<text text-anchor="start" x="8" y="-417.8" font-family="Helvetica,sans-Serif" font-size="8.00">+ ValidKeys : List&lt;Keys&gt;</text>
<text text-anchor="start" x="8" y="-405.8" font-family="Helvetica,sans-Serif" font-size="8.00">+ Index : int</text>
<text text-anchor="start" x="8" y="-393.8" font-family="Helvetica,sans-Serif" font-size="8.00">+ IsKeyEventEnabled : bool</text>
<polyline fill="none" stroke="black" points="0,-385 286,-385 "/>
<text text-anchor="start" x="8" y="-373.8" font-family="Helvetica,sans-Serif" font-size="8.00">+ OnKeyEvent (List&lt;Keys&gt; key, KeyEvent keyEvent, GameTime gameTime)</text>
</g>
<!-- Box_IKeyEventListener&#45;&gt;Box_MenuItem -->
<g id="edge6" class="edge"><title>Box_IKeyEventListener&#45;&gt;Box_MenuItem</title>
<path fill="none" stroke="midnightblue" d="M214.268,-359.169C234.334,-345.702 257.013,-330.481 280.076,-315.003"/>
<polygon fill="none" stroke="midnightblue" points="212.187,-356.351 205.834,-364.83 216.088,-362.163 212.187,-356.351"/>
</g>
<!-- Box_IMouseEventListener -->
<g id="node3" class="node"><title>Box_IMouseEventListener</title>
<polygon fill="#dafcda" stroke="black" points="303.5,-353 303.5,-461 578.5,-461 578.5,-353 303.5,-353"/>
<text text-anchor="middle" x="441" y="-449.8" font-family="Helvetica,sans-Serif" font-size="8.00">IMouseEventListener</text>
<polyline fill="none" stroke="black" points="303.5,-441 578.5,-441 "/>
<text text-anchor="start" x="311.5" y="-429.8" font-family="Helvetica,sans-Serif" font-size="8.00">+ Index : int</text>
<text text-anchor="start" x="311.5" y="-417.8" font-family="Helvetica,sans-Serif" font-size="8.00">+ IsMouseEventEnabled : bool</text>
<polyline fill="none" stroke="black" points="303.5,-409 578.5,-409 "/>
<text text-anchor="start" x="311.5" y="-397.8" font-family="Helvetica,sans-Serif" font-size="8.00">+ OnLeftClick (Vector2 position, ClickState click, GameTime gameTime)</text>
<text text-anchor="start" x="311.5" y="-385.8" font-family="Helvetica,sans-Serif" font-size="8.00">+ OnRightClick (Vector2 position, ClickState click, GameTime gameTime)</text>
<text text-anchor="start" x="311.5" y="-373.8" font-family="Helvetica,sans-Serif" font-size="8.00">+ SetHovered (bool hovered)</text>
<text text-anchor="start" x="311.5" y="-361.8" font-family="Helvetica,sans-Serif" font-size="8.00">+ bounds () : Rectangle</text>
</g>
<!-- Box_IMouseEventListener&#45;&gt;Box_MenuItem -->
<g id="edge4" class="edge"><title>Box_IMouseEventListener&#45;&gt;Box_MenuItem</title>
<path fill="none" stroke="midnightblue" d="M441,-342.683C441,-333.813 441,-324.512 441,-315.115"/>
<polygon fill="none" stroke="midnightblue" points="437.5,-342.877 441,-352.877 444.5,-342.877 437.5,-342.877"/>
</g>
<!-- Box_ItemWidget -->
<g id="node4" class="node"><title>Box_ItemWidget</title>
<polygon fill="#fcfcda" stroke="black" points="595.5,-371 595.5,-443 924.5,-443 924.5,-371 595.5,-371"/>
<text text-anchor="middle" x="760" y="-431.8" font-family="Helvetica,sans-Serif" font-size="8.00">ItemWidget</text>
<polyline fill="none" stroke="black" points="595.5,-423 924.5,-423 "/>
<text text-anchor="start" x="603.5" y="-411.8" font-family="Helvetica,sans-Serif" font-size="8.00"># ItemNum : int</text>
<text text-anchor="start" x="603.5" y="-399.8" font-family="Helvetica,sans-Serif" font-size="8.00">+ ItemState : ItemState</text>
<polyline fill="none" stroke="black" points="595.5,-391 924.5,-391 "/>
<text text-anchor="start" x="603.5" y="-379.8" font-family="Helvetica,sans-Serif" font-size="8.00">+ ItemWidget (GameState state, WidgetInfo info, DisplayLayer drawOrder, int itemNum)</text>
</g>
<!-- Box_ItemWidget&#45;&gt;Box_MenuItem -->
<g id="edge2" class="edge"><title>Box_ItemWidget&#45;&gt;Box_MenuItem</title>
<path fill="none" stroke="midnightblue" d="M693.585,-365.361C668.566,-349.675 638.847,-331.042 608.735,-312.163"/>
<polygon fill="none" stroke="midnightblue" points="691.9,-368.435 702.232,-370.782 695.618,-362.504 691.9,-368.435"/>
</g>
<!-- Box_Widget -->
<g id="node5" class="node"><title>Box_Widget</title>
<polygon fill="#fcfcda" stroke="black" points="627,-499 627,-583 893,-583 893,-499 627,-499"/>
<text text-anchor="middle" x="760" y="-571.8" font-family="Helvetica,sans-Serif" font-size="8.00">Widget</text>
<polyline fill="none" stroke="black" points="627,-563 893,-563 "/>
<text text-anchor="start" x="635" y="-551.8" font-family="Helvetica,sans-Serif" font-size="8.00">+ Info : WidgetInfo</text>
<text text-anchor="start" x="635" y="-539.8" font-family="Helvetica,sans-Serif" font-size="8.00">+ IsVisible : bool virtual</text>
<polyline fill="none" stroke="black" points="627,-531 893,-531 "/>
<text text-anchor="start" x="635" y="-519.8" font-family="Helvetica,sans-Serif" font-size="8.00">+ Widget (GameState state, WidgetInfo info, DisplayLayer drawOrder)</text>
<text text-anchor="start" x="635" y="-507.8" font-family="Helvetica,sans-Serif" font-size="8.00">+ bounds () : Rectangle</text>
</g>
<!-- Box_Widget&#45;&gt;Box_ItemWidget -->
<g id="edge8" class="edge"><title>Box_Widget&#45;&gt;Box_ItemWidget</title>
<path fill="none" stroke="midnightblue" d="M760,-488.613C760,-473.35 760,-457.022 760,-443.013"/>
<polygon fill="none" stroke="midnightblue" points="756.5,-488.969 760,-498.969 763.5,-488.969 756.5,-488.969"/>
</g>
<!-- Box_DrawableGameStateComponent -->
<g id="node6" class="node"><title>Box_DrawableGameStateComponent</title>
<polygon fill="#fcfcda" stroke="black" points="589.5,-621 589.5,-705 930.5,-705 930.5,-621 589.5,-621"/>
<text text-anchor="middle" x="760" y="-693.8" font-family="Helvetica,sans-Serif" font-size="8.00">DrawableGameStateComponent</text>
<polyline fill="none" stroke="black" points="589.5,-685 930.5,-685 "/>
<text text-anchor="start" x="597.5" y="-673.8" font-family="Helvetica,sans-Serif" font-size="8.00">+ state : GameState</text>
<text text-anchor="start" x="597.5" y="-661.8" font-family="Helvetica,sans-Serif" font-size="8.00">+ Index : int</text>
<polyline fill="none" stroke="black" points="589.5,-653 930.5,-653 "/>
<text text-anchor="start" x="597.5" y="-641.8" font-family="Helvetica,sans-Serif" font-size="8.00">+ DrawableGameStateComponent (GameState state, DisplayLayer drawOrder)</text>
<text text-anchor="start" x="597.5" y="-629.8" font-family="Helvetica,sans-Serif" font-size="8.00">+ SubComponents (GameTime gameTime) : IEnumerable&lt;IGameStateComponent&gt; virtual</text>
</g>
<!-- Box_DrawableGameStateComponent&#45;&gt;Box_Widget -->
<g id="edge10" class="edge"><title>Box_DrawableGameStateComponent&#45;&gt;Box_Widget</title>
<path fill="none" stroke="midnightblue" d="M760,-610.537C760,-601.423 760,-592.05 760,-583.252"/>
<polygon fill="none" stroke="midnightblue" points="756.5,-610.673 760,-620.673 763.5,-610.673 756.5,-610.673"/>
</g>
<!-- Box_IGameStateComponent -->
<g id="node7" class="node"><title>Box_IGameStateComponent</title>
<polygon fill="#dafcda" stroke="black" points="480,-743 480,-803 798,-803 798,-743 480,-743"/>
<text text-anchor="middle" x="639" y="-791.8" font-family="Helvetica,sans-Serif" font-size="8.00">IGameStateComponent</text>
<polyline fill="none" stroke="black" points="480,-783 798,-783 "/>
<text text-anchor="start" x="488" y="-771.8" font-family="Helvetica,sans-Serif" font-size="8.00">+ Index : int</text>
<polyline fill="none" stroke="black" points="480,-763 798,-763 "/>
<text text-anchor="start" x="488" y="-751.8" font-family="Helvetica,sans-Serif" font-size="8.00">+ SubComponents (GameTime gameTime) : IEnumerable&lt;IGameStateComponent&gt;</text>
</g>
<!-- Box_IGameStateComponent&#45;&gt;Box_DrawableGameStateComponent -->
<g id="edge14" class="edge"><title>Box_IGameStateComponent&#45;&gt;Box_DrawableGameStateComponent</title>
<path fill="none" stroke="midnightblue" d="M679.738,-735.965C690.538,-726.147 702.282,-715.47 713.37,-705.391"/>
<polygon fill="none" stroke="midnightblue" points="677.109,-733.625 672.064,-742.942 681.818,-738.805 677.109,-733.625"/>
</g>
<!-- Box_XnaDrawableGameComponent -->
<g id="node9" class="node"><title>Box_XnaDrawableGameComponent</title>
<polygon fill="#ffffff" stroke="black" points="815.5,-763 815.5,-783 946.5,-783 946.5,-763 815.5,-763"/>
<text text-anchor="middle" x="881" y="-771.8" font-family="Helvetica,sans-Serif" font-size="8.00">Xna.DrawableGameComponent</text>
</g>
<!-- Box_XnaDrawableGameComponent&#45;&gt;Box_DrawableGameStateComponent -->
<g id="edge12" class="edge"><title>Box_XnaDrawableGameComponent&#45;&gt;Box_DrawableGameStateComponent</title>
<path fill="none" stroke="midnightblue" d="M862.298,-755.998C847.412,-742.466 825.923,-722.93 806.479,-705.254"/>
<polygon fill="none" stroke="midnightblue" points="860.08,-758.712 869.833,-762.849 864.788,-753.532 860.08,-758.712"/>
</g>
<!-- Box_XnaIGameComponent -->
<g id="node10" class="node"><title>Box_XnaIGameComponent</title>
<polygon fill="#ffffff" stroke="black" points="589.5,-841 589.5,-861 688.5,-861 688.5,-841 589.5,-841"/>
<text text-anchor="middle" x="639" y="-849.8" font-family="Helvetica,sans-Serif" font-size="8.00">Xna.IGameComponent</text>
</g>
<!-- Box_XnaIGameComponent&#45;&gt;Box_IGameStateComponent -->
<g id="edge16" class="edge"><title>Box_XnaIGameComponent&#45;&gt;Box_IGameStateComponent</title>
<path fill="none" stroke="midnightblue" d="M639,-830.777C639,-822.329 639,-812.337 639,-803.059"/>
<polygon fill="none" stroke="midnightblue" points="635.5,-830.803 639,-840.803 642.5,-830.803 635.5,-830.803"/>
</g>
</g>
</svg>
