<?xml version="1.0" encoding="UTF-8" standalone="no"?>
<!DOCTYPE svg PUBLIC "-//W3C//DTD SVG 1.1//EN"
 "http://www.w3.org/Graphics/SVG/1.1/DTD/svg11.dtd">
<!-- Generated by graphviz version 2.26.3 (20100126.1600)
 -->
<!-- Title: MenuItem Pages: 1 -->
<svg width="414pt" height="614pt"
 viewBox="0.00 0.00 414.00 614.00" xmlns="http://www.w3.org/2000/svg" xmlns:xlink="http://www.w3.org/1999/xlink">
<g id="graph1" class="graph" transform="scale(1 1) rotate(0) translate(4 610)">
<title>MenuItem</title>
<polygon fill="white" stroke="white" points="-4,5 -4,-610 411,-610 411,5 -4,5"/>
<!-- Box_PipeRenderer -->
<g id="node1" class="node"><title>Box_PipeRenderer</title>
<polygon fill="#fcfcda" stroke="black" points="147.5,-1 147.5,-229 366.5,-229 366.5,-1 147.5,-1"/>
<text text-anchor="middle" x="257" y="-217.8" font-family="Helvetica,sans-Serif" font-size="8.00">PipeRenderer</text>
<polyline fill="none" stroke="black" points="147.5,-209 366.5,-209 "/>
<text text-anchor="start" x="155.5" y="-197.8" font-family="Helvetica,sans-Serif" font-size="8.00">Attributes:</text>
<text text-anchor="start" x="155.5" y="-185.8" font-family="Helvetica,sans-Serif" font-size="8.00">&#45; knots : List&lt;NodeModel&gt;</text>
<text text-anchor="start" x="155.5" y="-173.8" font-family="Helvetica,sans-Serif" font-size="8.00">&#45; knotFactory : NodeModelFactory</text>
<text text-anchor="start" x="155.5" y="-161.8" font-family="Helvetica,sans-Serif" font-size="8.00">&#45; pipeFactory : PipeModelFactory</text>
<text text-anchor="start" x="155.5" y="-149.8" font-family="Helvetica,sans-Serif" font-size="8.00">&#45; pipes : List&lt;PipeModel&gt;</text>
<text text-anchor="start" x="155.5" y="-137.8" font-family="Helvetica,sans-Serif" font-size="8.00">+ World : World</text>
<text text-anchor="start" x="155.5" y="-125.8" font-family="Helvetica,sans-Serif" font-size="8.00">+ Info : dynamic</text>
<text text-anchor="start" x="155.5" y="-113.8" font-family="Helvetica,sans-Serif" font-size="8.00">Methods:</text>
<polyline fill="none" stroke="black" points="147.5,-105 366.5,-105 "/>
<text text-anchor="start" x="155.5" y="-93.8" font-family="Helvetica,sans-Serif" font-size="8.00">&#45; IEnumerable.GetEnumerator () : IEnumerator</text>
<text text-anchor="start" x="155.5" y="-81.8" font-family="Helvetica,sans-Serif" font-size="8.00">+ GetEnumerator () : IEnumerator&lt;IGameObject&gt;</text>
<text text-anchor="start" x="155.5" y="-69.8" font-family="Helvetica,sans-Serif" font-size="8.00">+ PipeRenderer (GameState state, GameObjectInfo info)</text>
<text text-anchor="start" x="155.5" y="-57.8" font-family="Helvetica,sans-Serif" font-size="8.00">+ Intersects (Ray ray) : GameObjectDistance</text>
<text text-anchor="start" x="155.5" y="-45.8" font-family="Helvetica,sans-Serif" font-size="8.00">+ Draw (GameTime gameTime)</text>
<text text-anchor="start" x="155.5" y="-33.8" font-family="Helvetica,sans-Serif" font-size="8.00">+ OnEdgesChanged (EdgeList edges)</text>
<text text-anchor="start" x="155.5" y="-21.8" font-family="Helvetica,sans-Serif" font-size="8.00">+ Update (GameTime gameTime)</text>
<text text-anchor="start" x="155.5" y="-9.8" font-family="Helvetica,sans-Serif" font-size="8.00">+ Center () : Vector3</text>
</g>
<!-- Box_KnotRenderer -->
<g id="node2" class="node"><title>Box_KnotRenderer</title>
<polygon fill="#fcfcda" stroke="black" points="64,-267 64,-435 270,-435 270,-267 64,-267"/>
<text text-anchor="middle" x="167" y="-423.8" font-family="Helvetica,sans-Serif" font-size="8.00">KnotRenderer</text>
<polyline fill="none" stroke="black" points="64,-415 270,-415 "/>
<text text-anchor="start" x="72" y="-403.8" font-family="Helvetica,sans-Serif" font-size="8.00">Attributes:</text>
<text text-anchor="start" x="72" y="-391.8" font-family="Helvetica,sans-Serif" font-size="8.00">+ World : World abstract</text>
<text text-anchor="start" x="72" y="-379.8" font-family="Helvetica,sans-Serif" font-size="8.00"># state : GameState</text>
<text text-anchor="start" x="72" y="-367.8" font-family="Helvetica,sans-Serif" font-size="8.00">+ Info : dynamic abstract</text>
<text text-anchor="start" x="72" y="-355.8" font-family="Helvetica,sans-Serif" font-size="8.00">Methods:</text>
<polyline fill="none" stroke="black" points="64,-347 270,-347 "/>
<text text-anchor="start" x="72" y="-335.8" font-family="Helvetica,sans-Serif" font-size="8.00">+ Intersects (Ray ray) : GameObjectDistance abstract</text>
<text text-anchor="start" x="72" y="-323.8" font-family="Helvetica,sans-Serif" font-size="8.00">+ Center () : Vector3 abstract</text>
<text text-anchor="start" x="72" y="-311.8" font-family="Helvetica,sans-Serif" font-size="8.00">+ Draw (GameTime gameTime) abstract</text>
<text text-anchor="start" x="72" y="-299.8" font-family="Helvetica,sans-Serif" font-size="8.00">+ Update (GameTime gameTime) abstract</text>
<text text-anchor="start" x="72" y="-287.8" font-family="Helvetica,sans-Serif" font-size="8.00">+ KnotRenderer (GameState state)</text>
<text text-anchor="start" x="72" y="-275.8" font-family="Helvetica,sans-Serif" font-size="8.00">+ OnEdgesChanged (EdgeList edges) abstract</text>
</g>
<!-- Box_KnotRenderer&#45;&gt;Box_PipeRenderer -->
<g id="edge2" class="edge"><title>Box_KnotRenderer&#45;&gt;Box_PipeRenderer</title>
<path fill="none" stroke="midnightblue" d="M202.739,-257.284C206.252,-248.073 209.843,-238.656 213.422,-229.271"/>
<polygon fill="none" stroke="midnightblue" points="199.404,-256.207 199.111,-266.798 205.944,-258.702 199.404,-256.207"/>
</g>
<!-- Box_IEdgeChangeListener -->
<g id="node3" class="node"><title>Box_IEdgeChangeListener</title>
<polygon fill="#dafcda" stroke="black" points="0,-503 0,-575 152,-575 152,-503 0,-503"/>
<text text-anchor="middle" x="76" y="-563.8" font-family="Helvetica,sans-Serif" font-size="8.00">IEdgeChangeListener</text>
<polyline fill="none" stroke="black" points="0,-555 152,-555 "/>
<text text-anchor="start" x="8" y="-543.8" font-family="Helvetica,sans-Serif" font-size="8.00">Attributes:</text>
<text text-anchor="start" x="8" y="-531.8" font-family="Helvetica,sans-Serif" font-size="8.00">Methods:</text>
<polyline fill="none" stroke="black" points="0,-523 152,-523 "/>
<text text-anchor="start" x="8" y="-511.8" font-family="Helvetica,sans-Serif" font-size="8.00">+ OnEdgesChanged (EdgeList edges)</text>
</g>
<!-- Box_IEdgeChangeListener&#45;&gt;Box_KnotRenderer -->
<g id="edge6" class="edge"><title>Box_IEdgeChangeListener&#45;&gt;Box_KnotRenderer</title>
<path fill="none" stroke="midnightblue" d="M92.2201,-493.333C100.033,-475.765 109.757,-455.103 119.6,-435.051"/>
<polygon fill="none" stroke="midnightblue" points="88.9006,-492.188 88.0877,-502.752 95.3108,-495.001 88.9006,-492.188"/>
</g>
<!-- Box_IEdgeChangeListener&#45;&gt;Box_KnotRenderer -->
<g id="edge10" class="edge"><title>Box_IEdgeChangeListener&#45;&gt;Box_KnotRenderer</title>
<path fill="none" stroke="midnightblue" d="M103.734,-493.821C112.993,-476.148 123.374,-455.288 133.032,-435.051"/>
<polygon fill="none" stroke="midnightblue" points="100.591,-492.276 99.0037,-502.752 106.777,-495.553 100.591,-492.276"/>
</g>
<!-- Box_IGameObject -->
<g id="node4" class="node"><title>Box_IGameObject</title>
<polygon fill="#dafcda" stroke="black" points="170,-473 170,-605 346,-605 346,-473 170,-473"/>
<text text-anchor="middle" x="258" y="-593.8" font-family="Helvetica,sans-Serif" font-size="8.00">IGameObject</text>
<polyline fill="none" stroke="black" points="170,-585 346,-585 "/>
<text text-anchor="start" x="178" y="-573.8" font-family="Helvetica,sans-Serif" font-size="8.00">Attributes:</text>
<text text-anchor="start" x="178" y="-561.8" font-family="Helvetica,sans-Serif" font-size="8.00">+ Info : dynamic</text>
<text text-anchor="start" x="178" y="-549.8" font-family="Helvetica,sans-Serif" font-size="8.00">+ World : World</text>
<text text-anchor="start" x="178" y="-537.8" font-family="Helvetica,sans-Serif" font-size="8.00">Methods:</text>
<polyline fill="none" stroke="black" points="170,-529 346,-529 "/>
<text text-anchor="start" x="178" y="-517.8" font-family="Helvetica,sans-Serif" font-size="8.00">+ Draw (GameTime gameTime)</text>
<text text-anchor="start" x="178" y="-505.8" font-family="Helvetica,sans-Serif" font-size="8.00">+ Update (GameTime gameTime)</text>
<text text-anchor="start" x="178" y="-493.8" font-family="Helvetica,sans-Serif" font-size="8.00">+ Intersects (Ray ray) : GameObjectDistance</text>
<text text-anchor="start" x="178" y="-481.8" font-family="Helvetica,sans-Serif" font-size="8.00">+ Center () : Vector3</text>
</g>
<!-- Box_IGameObject&#45;&gt;Box_KnotRenderer -->
<g id="edge8" class="edge"><title>Box_IGameObject&#45;&gt;Box_KnotRenderer</title>
<path fill="none" stroke="midnightblue" d="M215.049,-463.956C210.317,-454.44 205.551,-444.654 200.949,-435.01"/>
<polygon fill="none" stroke="midnightblue" points="211.962,-465.607 219.568,-472.983 218.221,-462.474 211.962,-465.607"/>
</g>
<!-- Box_IGameObject&#45;&gt;Box_KnotRenderer -->
<g id="edge12" class="edge"><title>Box_IGameObject&#45;&gt;Box_KnotRenderer</title>
<path fill="none" stroke="midnightblue" d="M228.163,-463.661C223.724,-454.238 219.066,-444.555 214.381,-435.01"/>
<polygon fill="none" stroke="midnightblue" points="225.115,-465.406 232.522,-472.983 231.456,-462.441 225.115,-465.406"/>
</g>
<!-- Box_IEnumerable -->
<g id="node5" class="node"><title>Box_IEnumerable</title>
<polygon fill="#ffffff" stroke="black" points="288,-341 288,-361 406,-361 406,-341 288,-341"/>
<text text-anchor="middle" x="347" y="-349.8" font-family="Helvetica,sans-Serif" font-size="8.00">IEnumerable&lt;IGameObject&gt;</text>
</g>
<!-- Box_IEnumerable&#45;&gt;Box_PipeRenderer -->
<g id="edge4" class="edge"><title>Box_IEnumerable&#45;&gt;Box_PipeRenderer</title>
<path fill="none" stroke="midnightblue" d="M339.476,-331.27C330.702,-308.263 315.481,-268.349 300.484,-229.025"/>
<polygon fill="none" stroke="midnightblue" points="336.299,-332.763 343.133,-340.859 342.84,-330.269 336.299,-332.763"/>
</g>
</g>
</svg>
