<?xml version="1.0" encoding="UTF-8" standalone="no"?>
<!DOCTYPE svg PUBLIC "-//W3C//DTD SVG 1.1//EN"
 "http://www.w3.org/Graphics/SVG/1.1/DTD/svg11.dtd">
<!-- Generated by graphviz version 2.26.3 (20100126.1600)
 -->
<!-- Title: MenuItem Pages: 1 -->
<svg width="2575pt" height="2483pt"
 viewBox="0.00 0.00 618.00 596.00" xmlns="http://www.w3.org/2000/svg" xmlns:xlink="http://www.w3.org/1999/xlink">
<g id="graph1" class="graph" transform="scale(4.16667 4.16667) rotate(0) translate(4 592)">
<title>MenuItem</title>
<polygon fill="white" stroke="white" points="-4,5 -4,-592 615,-592 615,5 -4,5"/>
<!-- Box_ColorPicker -->
<g id="node1" class="node"><title>Box_ColorPicker</title>
<polygon fill="#fcfcda" stroke="black" points="138.5,-1 138.5,-185 423.5,-185 423.5,-1 138.5,-1"/>
<text text-anchor="middle" x="281" y="-173.8" font-family="Arial" font-size="8.00">ColorPicker</text>
<polyline fill="none" stroke="black" points="138.5,-167 423.5,-167 "/>
<text text-anchor="start" x="146.5" y="-155.8" font-family="Arial" font-size="8.00">&#45; tiles : List&lt;Vector2&gt;</text>
<text text-anchor="start" x="146.5" y="-145.8" font-family="Arial" font-size="8.00">+ SelectedColor : Color</text>
<text text-anchor="start" x="146.5" y="-135.8" font-family="Arial" font-size="8.00">+ IsMouseEventEnabled : bool</text>
<text text-anchor="start" x="146.5" y="-125.8" font-family="Arial" font-size="8.00">&#45; colors : List&lt;Color&gt;</text>
<text text-anchor="start" x="146.5" y="-115.8" font-family="Arial" font-size="8.00"># spriteBatch : SpriteBatch</text>
<text text-anchor="start" x="146.5" y="-105.8" font-family="Arial" font-size="8.00">+ OnSelectColor : Action&lt;Color&gt;</text>
<polyline fill="none" stroke="black" points="138.5,-99 423.5,-99 "/>
<text text-anchor="start" x="146.5" y="-87.8" font-family="Arial" font-size="8.00">&#45; Vector2 tileSize (0.032f, 0.032f) : readonly static</text>
<text text-anchor="start" x="146.5" y="-77.8" font-family="Arial" font-size="8.00">&#45; CreateTiles (IEnumerable&lt;Color&gt; _colors) : IEnumerable&lt;Vector2&gt; static</text>
<text text-anchor="start" x="146.5" y="-67.8" font-family="Arial" font-size="8.00">+ ColorPicker (GameState state, WidgetInfo info, DisplayLayer drawOrder)</text>
<text text-anchor="start" x="146.5" y="-57.8" font-family="Arial" font-size="8.00">+ Draw (GameTime gameTime)</text>
<text text-anchor="start" x="146.5" y="-47.8" font-family="Arial" font-size="8.00">+ OnRightClick (Vector2 position, ClickState click, GameTime gameTime)</text>
<text text-anchor="start" x="146.5" y="-37.8" font-family="Arial" font-size="8.00">+ SetHovered (bool hovered)</text>
<text text-anchor="start" x="146.5" y="-27.8" font-family="Arial" font-size="8.00">&#45; CreateColors (int num) : IEnumerable&lt;Color&gt; static</text>
<text text-anchor="start" x="146.5" y="-17.8" font-family="Arial" font-size="8.00">&#45; SelectColor (Color color)</text>
<text text-anchor="start" x="146.5" y="-7.8" font-family="Arial" font-size="8.00">+ OnLeftClick (Vector2 position, ClickState click, GameTime gameTime)</text>
</g>
<!-- Box_IMouseEventListener -->
<g id="node2" class="node"><title>Box_IMouseEventListener</title>
<polygon fill="#dafcda" stroke="black" points="0,-223 0,-317 274,-317 274,-223 0,-223"/>
<text text-anchor="middle" x="137" y="-305.8" font-family="Arial" font-size="8.00">IMouseEventListener</text>
<polyline fill="none" stroke="black" points="0,-299 274,-299 "/>
<text text-anchor="start" x="8" y="-287.8" font-family="Arial" font-size="8.00">+ Index : DisplayLayer</text>
<text text-anchor="start" x="8" y="-277.8" font-family="Arial" font-size="8.00">+ IsMouseEventEnabled : bool</text>
<polyline fill="none" stroke="black" points="0,-271 274,-271 "/>
<text text-anchor="start" x="8" y="-259.8" font-family="Arial" font-size="8.00">+ OnLeftClick (Vector2 position, ClickState click, GameTime gameTime)</text>
<text text-anchor="start" x="8" y="-249.8" font-family="Arial" font-size="8.00">+ OnRightClick (Vector2 position, ClickState click, GameTime gameTime)</text>
<text text-anchor="start" x="8" y="-239.8" font-family="Arial" font-size="8.00">+ SetHovered (bool hovered)</text>
<text text-anchor="start" x="8" y="-229.8" font-family="Arial" font-size="8.00">+ bounds () : Rectangle</text>
</g>
<!-- Box_IMouseEventListener&#45;&gt;Box_ColorPicker -->
<g id="edge4" class="edge"><title>Box_IMouseEventListener&#45;&gt;Box_ColorPicker</title>
<path fill="none" stroke="midnightblue" d="M182.128,-214.53C189.717,-205.202 197.771,-195.302 205.878,-185.337"/>
<polygon fill="none" stroke="midnightblue" points="179.185,-212.601 175.589,-222.567 184.615,-217.019 179.185,-212.601"/>
</g>
<!-- Box_Widget -->
<g id="node3" class="node"><title>Box_Widget</title>
<polygon fill="#fcfcda" stroke="black" points="291.5,-233 291.5,-307 560.5,-307 560.5,-233 291.5,-233"/>
<text text-anchor="middle" x="426" y="-295.8" font-family="Arial" font-size="8.00">Widget</text>
<polyline fill="none" stroke="black" points="291.5,-289 560.5,-289 "/>
<text text-anchor="start" x="299.5" y="-277.8" font-family="Arial" font-size="8.00">+ Info : WidgetInfo</text>
<text text-anchor="start" x="299.5" y="-267.8" font-family="Arial" font-size="8.00">+ IsVisible : bool virtual</text>
<polyline fill="none" stroke="black" points="291.5,-261 560.5,-261 "/>
<text text-anchor="start" x="299.5" y="-249.8" font-family="Arial" font-size="8.00">+ bounds () : Rectangle</text>
<text text-anchor="start" x="299.5" y="-239.8" font-family="Arial" font-size="8.00">+ Widget (GameState state, WidgetInfo info, DisplayLayer drawOrder)</text>
</g>
<!-- Box_Widget&#45;&gt;Box_ColorPicker -->
<g id="edge2" class="edge"><title>Box_Widget&#45;&gt;Box_ColorPicker</title>
<path fill="none" stroke="midnightblue" d="M389.181,-225.056C379.124,-212.779 367.846,-199.012 356.47,-185.126"/>
<polygon fill="none" stroke="midnightblue" points="386.559,-227.377 395.603,-232.895 391.974,-222.941 386.559,-227.377"/>
</g>
<!-- Box_DrawableGameStateComponent -->
<g id="node4" class="node"><title>Box_DrawableGameStateComponent</title>
<polygon fill="#fcfcda" stroke="black" points="260,-355 260,-439 592,-439 592,-355 260,-355"/>
<text text-anchor="middle" x="426" y="-427.8" font-family="Arial" font-size="8.00">DrawableGameStateComponent</text>
<polyline fill="none" stroke="black" points="260,-421 592,-421 "/>
<text text-anchor="start" x="268" y="-409.8" font-family="Arial" font-size="8.00">+ Index : DisplayLayer</text>
<text text-anchor="start" x="268" y="-399.8" font-family="Arial" font-size="8.00">&#45; _index : DisplayLayer</text>
<text text-anchor="start" x="268" y="-389.8" font-family="Arial" font-size="8.00">+ state : GameState</text>
<polyline fill="none" stroke="black" points="260,-383 592,-383 "/>
<text text-anchor="start" x="268" y="-371.8" font-family="Arial" font-size="8.00">+ DrawableGameStateComponent (GameState state, DisplayLayer index)</text>
<text text-anchor="start" x="268" y="-361.8" font-family="Arial" font-size="8.00">+ SubComponents (GameTime gameTime) : IEnumerable&lt;IGameStateComponent&gt; virtual</text>
</g>
<!-- Box_DrawableGameStateComponent&#45;&gt;Box_Widget -->
<g id="edge6" class="edge"><title>Box_DrawableGameStateComponent&#45;&gt;Box_Widget</title>
<path fill="none" stroke="midnightblue" d="M426,-344.449C426,-332.019 426,-319.013 426,-307.412"/>
<polygon fill="none" stroke="midnightblue" points="422.5,-344.711 426,-354.711 429.5,-344.711 422.5,-344.711"/>
</g>
<!-- Box_IGameStateComponent -->
<g id="node5" class="node"><title>Box_IGameStateComponent</title>
<polygon fill="#dafcda" stroke="black" points="154,-477 154,-531 462,-531 462,-477 154,-477"/>
<text text-anchor="middle" x="308" y="-519.8" font-family="Arial" font-size="8.00">IGameStateComponent</text>
<polyline fill="none" stroke="black" points="154,-513 462,-513 "/>
<text text-anchor="start" x="162" y="-501.8" font-family="Arial" font-size="8.00">+ Index : DisplayLayer</text>
<polyline fill="none" stroke="black" points="154,-495 462,-495 "/>
<text text-anchor="start" x="162" y="-483.8" font-family="Arial" font-size="8.00">+ SubComponents (GameTime gameTime) : IEnumerable&lt;IGameStateComponent&gt;</text>
</g>
<!-- Box_IGameStateComponent&#45;&gt;Box_DrawableGameStateComponent -->
<g id="edge10" class="edge"><title>Box_IGameStateComponent&#45;&gt;Box_DrawableGameStateComponent</title>
<path fill="none" stroke="midnightblue" d="M345.383,-470.102C356.133,-460.354 367.995,-449.598 379.236,-439.404"/>
<polygon fill="none" stroke="midnightblue" points="342.833,-467.689 337.776,-476.999 347.535,-472.875 342.833,-467.689"/>
</g>
<!-- Box_XnaDrawableGameComponent -->
<g id="node6" class="node"><title>Box_XnaDrawableGameComponent</title>
<polygon fill="#ffffff" stroke="black" points="480,-495 480,-513 610,-513 610,-495 480,-495"/>
<text text-anchor="middle" x="545" y="-501.8" font-family="Arial" font-size="8.00">Xna.DrawableGameComponent</text>
</g>
<!-- Box_XnaDrawableGameComponent&#45;&gt;Box_DrawableGameStateComponent -->
<g id="edge8" class="edge"><title>Box_XnaDrawableGameComponent&#45;&gt;Box_DrawableGameStateComponent</title>
<path fill="none" stroke="midnightblue" d="M527.226,-488.018C512.886,-475.124 492.035,-456.376 472.979,-439.241"/>
<polygon fill="none" stroke="midnightblue" points="525.078,-490.794 534.854,-494.877 529.758,-485.588 525.078,-490.794"/>
</g>
<!-- Box_XnaIGameComponent -->
<g id="node7" class="node"><title>Box_XnaIGameComponent</title>
<polygon fill="#ffffff" stroke="black" points="260,-569 260,-587 356,-587 356,-569 260,-569"/>
<text text-anchor="middle" x="308" y="-575.8" font-family="Arial" font-size="8.00">Xna.IGameComponent</text>
</g>
<!-- Box_XnaIGameComponent&#45;&gt;Box_IGameStateComponent -->
<g id="edge12" class="edge"><title>Box_XnaIGameComponent&#45;&gt;Box_IGameStateComponent</title>
<path fill="none" stroke="midnightblue" d="M308,-558.64C308,-550.2 308,-540.16 308,-531.004"/>
<polygon fill="none" stroke="midnightblue" points="304.5,-558.926 308,-568.926 311.5,-558.926 304.5,-558.926"/>
</g>
</g>
</svg>
