<?xml version="1.0" encoding="UTF-8" standalone="no"?>
<!DOCTYPE svg PUBLIC "-//W3C//DTD SVG 1.1//EN"
 "http://www.w3.org/Graphics/SVG/1.1/DTD/svg11.dtd">
<!-- Generated by graphviz version 2.26.3 (20100126.1600)
 -->
<!-- Title: MenuItem Pages: 1 -->
<svg width="1254pt" height="626pt"
 viewBox="0.00 0.00 1254.00 626.00" xmlns="http://www.w3.org/2000/svg" xmlns:xlink="http://www.w3.org/1999/xlink">
<g id="graph1" class="graph" transform="scale(1 1) rotate(0) translate(4 622)">
<title>MenuItem</title>
<polygon fill="white" stroke="white" points="-4,5 -4,-622 1251,-622 1251,5 -4,5"/>
<!-- Box_Input -->
<g id="node1" class="node"><title>Box_Input</title>
<polygon fill="#fcfcda" stroke="black" points="0,-219 0,-495 286,-495 286,-219 0,-219"/>
<text text-anchor="middle" x="143" y="-483.8" font-family="Helvetica,sans-Serif" font-size="8.00">Input</text>
<polyline fill="none" stroke="black" points="0,-475 286,-475 "/>
<text text-anchor="start" x="8" y="-463.8" font-family="Helvetica,sans-Serif" font-size="8.00"># FullscreenToggled : bool static</text>
<text text-anchor="start" x="8" y="-451.8" font-family="Helvetica,sans-Serif" font-size="8.00">+ PreviousKeyboardState : KeyboardState static</text>
<text text-anchor="start" x="8" y="-439.8" font-family="Helvetica,sans-Serif" font-size="8.00">+ PreviousMouseState : MouseState static</text>
<text text-anchor="start" x="8" y="-427.8" font-family="Helvetica,sans-Serif" font-size="8.00">&#45; LeftButtonClickTimer : double static</text>
<text text-anchor="start" x="8" y="-415.8" font-family="Helvetica,sans-Serif" font-size="8.00">&#45; RightButtonClickTimer : double static</text>
<text text-anchor="start" x="8" y="-403.8" font-family="Helvetica,sans-Serif" font-size="8.00">&#45; PreviousClickMouseState : MouseState static</text>
<text text-anchor="start" x="8" y="-391.8" font-family="Helvetica,sans-Serif" font-size="8.00">+ LeftButton : ClickState static</text>
<text text-anchor="start" x="8" y="-379.8" font-family="Helvetica,sans-Serif" font-size="8.00">+ RightButton : ClickState static</text>
<text text-anchor="start" x="8" y="-367.8" font-family="Helvetica,sans-Serif" font-size="8.00">+ GrabMouseMovement : bool</text>
<text text-anchor="start" x="8" y="-355.8" font-family="Helvetica,sans-Serif" font-size="8.00">+ CurrentInputAction : InputAction</text>
<text text-anchor="start" x="8" y="-343.8" font-family="Helvetica,sans-Serif" font-size="8.00">+ WASDMode : WASDMode</text>
<text text-anchor="start" x="8" y="-331.8" font-family="Helvetica,sans-Serif" font-size="8.00">+ ValidKeys : List&lt;Keys&gt;</text>
<text text-anchor="start" x="8" y="-319.8" font-family="Helvetica,sans-Serif" font-size="8.00">+ IsKeyEventEnabled : bool</text>
<text text-anchor="start" x="8" y="-307.8" font-family="Helvetica,sans-Serif" font-size="8.00">+ MouseState : MouseState static</text>
<text text-anchor="start" x="8" y="-295.8" font-family="Helvetica,sans-Serif" font-size="8.00">+ KeyboardState : KeyboardState static</text>
<polyline fill="none" stroke="black" points="0,-287 286,-287 "/>
<text text-anchor="start" x="8" y="-275.8" font-family="Helvetica,sans-Serif" font-size="8.00">+ Input (GameState state)</text>
<text text-anchor="start" x="8" y="-263.8" font-family="Helvetica,sans-Serif" font-size="8.00">+ Update (GameTime gameTime) override</text>
<text text-anchor="start" x="8" y="-251.8" font-family="Helvetica,sans-Serif" font-size="8.00"># UpdateKeys (GameTime gameTime) virtual</text>
<text text-anchor="start" x="8" y="-239.8" font-family="Helvetica,sans-Serif" font-size="8.00"># UpdateMouse (GameTime gameTime) virtual</text>
<text text-anchor="start" x="8" y="-227.8" font-family="Helvetica,sans-Serif" font-size="8.00">+ OnKeyEvent (List&lt;Keys&gt; key, KeyEvent keyEvent, GameTime gameTime)</text>
</g>
<!-- Box_MenuScreenInput -->
<g id="node2" class="node"><title>Box_MenuScreenInput</title>
<polygon fill="#fcfcda" stroke="black" points="65.5,-61 65.5,-121 220.5,-121 220.5,-61 65.5,-61"/>
<text text-anchor="middle" x="143" y="-109.8" font-family="Helvetica,sans-Serif" font-size="8.00">MenuScreenInput</text>
<polyline fill="none" stroke="black" points="65.5,-101 220.5,-101 "/>
<text text-anchor="middle" x="143" y="-89.8" font-family="Helvetica,sans-Serif" font-size="8.00"> </text>
<polyline fill="none" stroke="black" points="65.5,-81 220.5,-81 "/>
<text text-anchor="start" x="73.5" y="-69.8" font-family="Helvetica,sans-Serif" font-size="8.00">+ MenuScreenInput (GameState state)</text>
</g>
<!-- Box_Input&#45;&gt;Box_MenuScreenInput -->
<g id="edge6" class="edge"><title>Box_Input&#45;&gt;Box_MenuScreenInput</title>
<path fill="none" stroke="midnightblue" d="M143,-208.57C143,-175.273 143,-143.285 143,-121.103"/>
<polygon fill="none" stroke="midnightblue" points="139.5,-208.936 143,-218.936 146.5,-208.936 139.5,-208.936"/>
</g>
<!-- Box_PipeColoring -->
<g id="node3" class="node"><title>Box_PipeColoring</title>
<polygon fill="#fcfcda" stroke="black" points="304,-303 304,-411 590,-411 590,-303 304,-303"/>
<text text-anchor="middle" x="447" y="-399.8" font-family="Helvetica,sans-Serif" font-size="8.00">PipeColoring</text>
<polyline fill="none" stroke="black" points="304,-391 590,-391 "/>
<text text-anchor="start" x="312" y="-379.8" font-family="Helvetica,sans-Serif" font-size="8.00">+ Knot : Knot</text>
<text text-anchor="start" x="312" y="-367.8" font-family="Helvetica,sans-Serif" font-size="8.00">+ ValidKeys : List&lt;Keys&gt;</text>
<text text-anchor="start" x="312" y="-355.8" font-family="Helvetica,sans-Serif" font-size="8.00">+ IsKeyEventEnabled : bool</text>
<polyline fill="none" stroke="black" points="304,-347 590,-347 "/>
<text text-anchor="start" x="312" y="-335.8" font-family="Helvetica,sans-Serif" font-size="8.00">+ PipeColoring (GameState state)</text>
<text text-anchor="start" x="312" y="-323.8" font-family="Helvetica,sans-Serif" font-size="8.00">+ Update (GameTime gameTime) override</text>
<text text-anchor="start" x="312" y="-311.8" font-family="Helvetica,sans-Serif" font-size="8.00">+ OnKeyEvent (List&lt;Keys&gt; key, KeyEvent keyEvent, GameTime gameTime)</text>
</g>
<!-- Box_MenuItem -->
<g id="node4" class="node"><title>Box_MenuItem</title>
<polygon fill="#fcfcda" stroke="black" points="607.5,-249 607.5,-465 942.5,-465 942.5,-249 607.5,-249"/>
<text text-anchor="middle" x="775" y="-453.8" font-family="Helvetica,sans-Serif" font-size="8.00">MenuItem</text>
<polyline fill="none" stroke="black" points="607.5,-445 942.5,-445 "/>
<text text-anchor="start" x="615.5" y="-433.8" font-family="Helvetica,sans-Serif" font-size="8.00">+ Info : MenuItemInfo new</text>
<text text-anchor="start" x="615.5" y="-421.8" font-family="Helvetica,sans-Serif" font-size="8.00"># spriteBatch : SpriteBatch</text>
<text text-anchor="start" x="615.5" y="-409.8" font-family="Helvetica,sans-Serif" font-size="8.00">+ ValidKeys : List&lt;Keys&gt;</text>
<text text-anchor="start" x="615.5" y="-397.8" font-family="Helvetica,sans-Serif" font-size="8.00">+ IsKeyEventEnabled : bool</text>
<text text-anchor="start" x="615.5" y="-385.8" font-family="Helvetica,sans-Serif" font-size="8.00">+ IsMouseEventEnabled : bool</text>
<polyline fill="none" stroke="black" points="607.5,-377 942.5,-377 "/>
<text text-anchor="start" x="615.5" y="-365.8" font-family="Helvetica,sans-Serif" font-size="8.00">+ MenuItem (GameState state, DisplayLayer drawOrder, int itemNum, MenuItemInfo info)</text>
<text text-anchor="start" x="615.5" y="-353.8" font-family="Helvetica,sans-Serif" font-size="8.00">+ Draw (GameTime gameTime) override</text>
<text text-anchor="start" x="615.5" y="-341.8" font-family="Helvetica,sans-Serif" font-size="8.00">+ TextPosition (SpriteFont font) : Vector2</text>
<text text-anchor="start" x="615.5" y="-329.8" font-family="Helvetica,sans-Serif" font-size="8.00">+ TextPosition (SpriteFont font, Vector2 scale) : Vector2</text>
<text text-anchor="start" x="615.5" y="-317.8" font-family="Helvetica,sans-Serif" font-size="8.00">+ MinimumSize (SpriteFont font) : Vector2</text>
<text text-anchor="start" x="615.5" y="-305.8" font-family="Helvetica,sans-Serif" font-size="8.00">+ OnLeftClick (Vector2 position, ClickState click, GameTime gameTime)</text>
<text text-anchor="start" x="615.5" y="-293.8" font-family="Helvetica,sans-Serif" font-size="8.00">+ OnRightClick (Vector2 position, ClickState click, GameTime gameTime)</text>
<text text-anchor="start" x="615.5" y="-281.8" font-family="Helvetica,sans-Serif" font-size="8.00">+ OnKeyEvent (List&lt;Keys&gt; key, KeyEvent keyEvent, GameTime gameTime)</text>
<text text-anchor="start" x="615.5" y="-269.8" font-family="Helvetica,sans-Serif" font-size="8.00">+ SetHovered (bool hovered)</text>
<text text-anchor="start" x="615.5" y="-257.8" font-family="Helvetica,sans-Serif" font-size="8.00">+ Collapse () virtual</text>
</g>
<!-- Box_DropDownMenu -->
<g id="node5" class="node"><title>Box_DropDownMenu</title>
<polygon fill="#fcfcda" stroke="black" points="780.5,-1 780.5,-181 1139.5,-181 1139.5,-1 780.5,-1"/>
<text text-anchor="middle" x="960" y="-169.8" font-family="Helvetica,sans-Serif" font-size="8.00">DropDownMenu</text>
<polyline fill="none" stroke="black" points="780.5,-161 1139.5,-161 "/>
<text text-anchor="start" x="788.5" y="-149.8" font-family="Helvetica,sans-Serif" font-size="8.00">&#45; dropdown : VerticalMenu</text>
<text text-anchor="start" x="788.5" y="-137.8" font-family="Helvetica,sans-Serif" font-size="8.00">&#45; selected : MenuButton</text>
<polyline fill="none" stroke="black" points="780.5,-129 1139.5,-129 "/>
<text text-anchor="start" x="788.5" y="-117.8" font-family="Helvetica,sans-Serif" font-size="8.00">+ DropDownMenu (GameState state, DisplayLayer drawOrder, int itemNum, MenuItemInfo info)</text>
<text text-anchor="start" x="788.5" y="-105.8" font-family="Helvetica,sans-Serif" font-size="8.00">+ AddEntries (DropDownMenuItem[] entries, DropDownMenuItem defaultEntry)</text>
<text text-anchor="start" x="788.5" y="-93.8" font-family="Helvetica,sans-Serif" font-size="8.00">+ AddEntries (DistinctOptionInfo option)</text>
<text text-anchor="start" x="788.5" y="-81.8" font-family="Helvetica,sans-Serif" font-size="8.00">+ SubComponents (GameTime gameTime) : IEnumerable&lt;IGameStateComponent&gt; override</text>
<text text-anchor="start" x="788.5" y="-69.8" font-family="Helvetica,sans-Serif" font-size="8.00">+ Collapse () override</text>
<text text-anchor="start" x="788.5" y="-57.8" font-family="Helvetica,sans-Serif" font-size="8.00">+ Draw (GameTime gameTime) override</text>
<text text-anchor="start" x="788.5" y="-45.8" font-family="Helvetica,sans-Serif" font-size="8.00">&#45; ValuePosition (int dummy = 0) : Vector2</text>
<text text-anchor="start" x="788.5" y="-33.8" font-family="Helvetica,sans-Serif" font-size="8.00">&#45; ValueSize (int dummy = 0) : Vector2</text>
<text text-anchor="start" x="788.5" y="-21.8" font-family="Helvetica,sans-Serif" font-size="8.00">&#45; DropDownBackgroundColor (ItemState itemState) : Color</text>
<text text-anchor="start" x="788.5" y="-9.8" font-family="Helvetica,sans-Serif" font-size="8.00">&#45; DropDownForegroundColor (ItemState itemState) : Color</text>
</g>
<!-- Box_MenuItem&#45;&gt;Box_DropDownMenu -->
<g id="edge18" class="edge"><title>Box_MenuItem&#45;&gt;Box_DropDownMenu</title>
<path fill="none" stroke="midnightblue" d="M856.127,-240.353C869.905,-220.542 884.025,-200.24 897.238,-181.241"/>
<polygon fill="none" stroke="midnightblue" points="853.083,-238.599 850.247,-248.808 858.83,-242.596 853.083,-238.599"/>
</g>
<!-- Box_MenuButton -->
<g id="node6" class="node"><title>Box_MenuButton</title>
<polygon fill="#fcfcda" stroke="black" points="420.5,-61 420.5,-121 763.5,-121 763.5,-61 420.5,-61"/>
<text text-anchor="middle" x="592" y="-109.8" font-family="Helvetica,sans-Serif" font-size="8.00">MenuButton</text>
<polyline fill="none" stroke="black" points="420.5,-101 763.5,-101 "/>
<text text-anchor="middle" x="592" y="-89.8" font-family="Helvetica,sans-Serif" font-size="8.00"> </text>
<polyline fill="none" stroke="black" points="420.5,-81 763.5,-81 "/>
<text text-anchor="start" x="428.5" y="-69.8" font-family="Helvetica,sans-Serif" font-size="8.00">+ MenuButton (GameState state, DisplayLayer drawOrder, int itemNum, MenuItemInfo info)</text>
</g>
<!-- Box_MenuItem&#45;&gt;Box_MenuButton -->
<g id="edge20" class="edge"><title>Box_MenuItem&#45;&gt;Box_MenuButton</title>
<path fill="none" stroke="midnightblue" d="M694.769,-240.381C664.66,-196.615 632.898,-150.447 612.792,-121.222"/>
<polygon fill="none" stroke="midnightblue" points="692.015,-242.553 700.567,-248.808 697.782,-238.585 692.015,-242.553"/>
</g>
<!-- Box_TextInput -->
<g id="node7" class="node"><title>Box_TextInput</title>
<polygon fill="#fcfcda" stroke="black" points="960,-285 960,-429 1246,-429 1246,-285 960,-285"/>
<text text-anchor="middle" x="1103" y="-417.8" font-family="Helvetica,sans-Serif" font-size="8.00">TextInput</text>
<polyline fill="none" stroke="black" points="960,-409 1246,-409 "/>
<text text-anchor="start" x="968" y="-397.8" font-family="Helvetica,sans-Serif" font-size="8.00">+ InputText : string</text>
<text text-anchor="start" x="968" y="-385.8" font-family="Helvetica,sans-Serif" font-size="8.00">&#45; font : SpriteFont</text>
<text text-anchor="start" x="968" y="-373.8" font-family="Helvetica,sans-Serif" font-size="8.00"># spriteBatch : SpriteBatch</text>
<text text-anchor="start" x="968" y="-361.8" font-family="Helvetica,sans-Serif" font-size="8.00">+ ValidKeys : List&lt;Keys&gt;</text>
<text text-anchor="start" x="968" y="-349.8" font-family="Helvetica,sans-Serif" font-size="8.00">+ IsKeyEventEnabled : bool</text>
<polyline fill="none" stroke="black" points="960,-341 1246,-341 "/>
<text text-anchor="start" x="968" y="-329.8" font-family="Helvetica,sans-Serif" font-size="8.00">+ TextInput (GameState state, WidgetInfo info, DisplayLayer drawOrder)</text>
<text text-anchor="start" x="968" y="-317.8" font-family="Helvetica,sans-Serif" font-size="8.00">+ Update (GameTime gameTime) override</text>
<text text-anchor="start" x="968" y="-305.8" font-family="Helvetica,sans-Serif" font-size="8.00">+ Draw (GameTime gameTime) override</text>
<text text-anchor="start" x="968" y="-293.8" font-family="Helvetica,sans-Serif" font-size="8.00">+ OnKeyEvent (List&lt;Keys&gt; key, KeyEvent keyEvent, GameTime gameTime)</text>
</g>
<!-- Box_IKeyEventListener -->
<g id="node8" class="node"><title>Box_IKeyEventListener</title>
<polygon fill="#dafcda" stroke="black" points="318,-533 318,-617 604,-617 604,-533 318,-533"/>
<text text-anchor="middle" x="461" y="-605.8" font-family="Helvetica,sans-Serif" font-size="8.00">IKeyEventListener</text>
<polyline fill="none" stroke="black" points="318,-597 604,-597 "/>
<text text-anchor="start" x="326" y="-585.8" font-family="Helvetica,sans-Serif" font-size="8.00">+ ValidKeys : List&lt;Keys&gt;</text>
<text text-anchor="start" x="326" y="-573.8" font-family="Helvetica,sans-Serif" font-size="8.00">+ Index : int</text>
<text text-anchor="start" x="326" y="-561.8" font-family="Helvetica,sans-Serif" font-size="8.00">+ IsKeyEventEnabled : bool</text>
<polyline fill="none" stroke="black" points="318,-553 604,-553 "/>
<text text-anchor="start" x="326" y="-541.8" font-family="Helvetica,sans-Serif" font-size="8.00">+ OnKeyEvent (List&lt;Keys&gt; key, KeyEvent keyEvent, GameTime gameTime)</text>
</g>
<!-- Box_IKeyEventListener&#45;&gt;Box_Input -->
<g id="edge4" class="edge"><title>Box_IKeyEventListener&#45;&gt;Box_Input</title>
<path fill="none" stroke="midnightblue" d="M350.946,-528.31C331.742,-518.582 312.371,-507.693 295,-496 292.034,-494.003 289.067,-491.95 286.105,-489.849"/>
<polygon fill="none" stroke="midnightblue" points="349.537,-531.519 360.049,-532.843 352.658,-525.253 349.537,-531.519"/>
</g>
<!-- Box_IKeyEventListener&#45;&gt;Box_PipeColoring -->
<g id="edge10" class="edge"><title>Box_IKeyEventListener&#45;&gt;Box_PipeColoring</title>
<path fill="none" stroke="midnightblue" d="M457.651,-522.857C455.488,-489.168 452.678,-445.416 450.488,-411.308"/>
<polygon fill="none" stroke="midnightblue" points="454.167,-523.212 458.301,-532.967 461.152,-522.764 454.167,-523.212"/>
</g>
<!-- Box_IKeyEventListener&#45;&gt;Box_MenuItem -->
<g id="edge16" class="edge"><title>Box_IKeyEventListener&#45;&gt;Box_MenuItem</title>
<path fill="none" stroke="midnightblue" d="M548.145,-527.732C565.287,-517.706 582.93,-506.858 599,-496 613.195,-486.409 627.71,-476.008 642.015,-465.36"/>
<polygon fill="none" stroke="midnightblue" points="546.133,-524.852 539.237,-532.896 549.644,-530.908 546.133,-524.852"/>
</g>
<!-- Box_IKeyEventListener&#45;&gt;Box_TextInput -->
<g id="edge24" class="edge"><title>Box_IKeyEventListener&#45;&gt;Box_TextInput</title>
<path fill="none" stroke="midnightblue" d="M614.098,-542.757C634.206,-538.915 654.57,-535.22 674,-532 796.476,-511.704 838.415,-548.316 951,-496 984.726,-480.328 1016.14,-454.449 1041.54,-429.243"/>
<polygon fill="none" stroke="midnightblue" points="613.409,-539.325 604.252,-544.654 614.734,-546.199 613.409,-539.325"/>
</g>
<!-- Box_GameStateComponent -->
<g id="node9" class="node"><title>Box_GameStateComponent</title>
<polygon fill="#ffffff" stroke="black" points="140.5,-565 140.5,-585 239.5,-585 239.5,-565 140.5,-565"/>
<text text-anchor="middle" x="190" y="-573.8" font-family="Helvetica,sans-Serif" font-size="8.00">GameStateComponent</text>
</g>
<!-- Box_GameStateComponent&#45;&gt;Box_Input -->
<g id="edge2" class="edge"><title>Box_GameStateComponent&#45;&gt;Box_Input</title>
<path fill="none" stroke="midnightblue" d="M185.659,-554.866C182.471,-540.08 177.83,-518.55 172.769,-495.079"/>
<polygon fill="none" stroke="midnightblue" points="182.267,-555.74 187.796,-564.778 189.11,-554.265 182.267,-555.74"/>
</g>
<!-- Box_GameStateComponent&#45;&gt;Box_PipeColoring -->
<g id="edge8" class="edge"><title>Box_GameStateComponent&#45;&gt;Box_PipeColoring</title>
<path fill="none" stroke="midnightblue" d="M212.466,-559.055C234.057,-543.509 267.386,-518.925 295,-496 327.466,-469.047 362.297,-437.409 390.414,-411.131"/>
<polygon fill="none" stroke="midnightblue" points="210.346,-556.268 204.256,-564.937 214.424,-561.958 210.346,-556.268"/>
</g>
<!-- Box_ItemWidget -->
<g id="node10" class="node"><title>Box_ItemWidget</title>
<polygon fill="#ffffff" stroke="black" points="792.5,-565 792.5,-585 849.5,-585 849.5,-565 792.5,-565"/>
<text text-anchor="middle" x="821" y="-573.8" font-family="Helvetica,sans-Serif" font-size="8.00">ItemWidget</text>
</g>
<!-- Box_ItemWidget&#45;&gt;Box_MenuItem -->
<g id="edge12" class="edge"><title>Box_ItemWidget&#45;&gt;Box_MenuItem</title>
<path fill="none" stroke="midnightblue" d="M816.755,-554.883C812.339,-533.952 805.067,-499.491 797.819,-465.143"/>
<polygon fill="none" stroke="midnightblue" points="813.354,-555.716 818.843,-564.778 820.203,-554.271 813.354,-555.716"/>
</g>
<!-- Box_IMouseEventListener -->
<g id="node11" class="node"><title>Box_IMouseEventListener</title>
<polygon fill="#ffffff" stroke="black" points="683,-565 683,-585 775,-585 775,-565 683,-565"/>
<text text-anchor="middle" x="729" y="-573.8" font-family="Helvetica,sans-Serif" font-size="8.00">IMouseEventListener</text>
</g>
<!-- Box_IMouseEventListener&#45;&gt;Box_MenuItem -->
<g id="edge14" class="edge"><title>Box_IMouseEventListener&#45;&gt;Box_MenuItem</title>
<path fill="none" stroke="midnightblue" d="M733.245,-554.883C737.661,-533.952 744.933,-499.491 752.181,-465.143"/>
<polygon fill="none" stroke="midnightblue" points="729.797,-554.271 731.157,-564.778 736.646,-555.716 729.797,-554.271"/>
</g>
<!-- Box_Widget -->
<g id="node12" class="node"><title>Box_Widget</title>
<polygon fill="#ffffff" stroke="black" points="1082.5,-565 1082.5,-585 1123.5,-585 1123.5,-565 1082.5,-565"/>
<text text-anchor="middle" x="1103" y="-573.8" font-family="Helvetica,sans-Serif" font-size="8.00">Widget</text>
</g>
<!-- Box_Widget&#45;&gt;Box_TextInput -->
<g id="edge22" class="edge"><title>Box_Widget&#45;&gt;Box_TextInput</title>
<path fill="none" stroke="midnightblue" d="M1103,-554.493C1103,-526.025 1103,-473.075 1103,-429.164"/>
<polygon fill="none" stroke="midnightblue" points="1099.5,-554.778 1103,-564.778 1106.5,-554.778 1099.5,-554.778"/>
</g>
</g>
</svg>
