<?xml version="1.0" encoding="UTF-8" standalone="no"?>
<!DOCTYPE svg PUBLIC "-//W3C//DTD SVG 1.1//EN"
 "http://www.w3.org/Graphics/SVG/1.1/DTD/svg11.dtd">
<!-- Generated by graphviz version 2.26.3 (20100126.1600)
 -->
<!-- Title: MenuItem Pages: 1 -->
<svg width="656pt" height="686pt"
 viewBox="0.00 0.00 656.00 686.00" xmlns="http://www.w3.org/2000/svg" xmlns:xlink="http://www.w3.org/1999/xlink">
<g id="graph1" class="graph" transform="scale(1 1) rotate(0) translate(4 682)">
<title>MenuItem</title>
<polygon fill="white" stroke="white" points="-4,5 -4,-682 653,-682 653,5 -4,5"/>
<!-- Box_GameModel -->
<g id="node1" class="node"><title>Box_GameModel</title>
<polygon fill="#fcfcda" stroke="black" points="218,-183 218,-507 430,-507 430,-183 218,-183"/>
<text text-anchor="middle" x="324" y="-495.8" font-family="Helvetica,sans-Serif" font-size="8.00">GameModel</text>
<polyline fill="none" stroke="black" points="218,-487 430,-487 "/>
<text text-anchor="start" x="226" y="-475.8" font-family="Helvetica,sans-Serif" font-size="8.00">Attributes:</text>
<text text-anchor="start" x="226" y="-463.8" font-family="Helvetica,sans-Serif" font-size="8.00">&#45; _rotation : Angles3</text>
<text text-anchor="start" x="226" y="-451.8" font-family="Helvetica,sans-Serif" font-size="8.00">&#45; Bounds : BoundingSphere[]</text>
<text text-anchor="start" x="226" y="-439.8" font-family="Helvetica,sans-Serif" font-size="8.00">&#45; _bounds : BoundingSphere[]</text>
<text text-anchor="start" x="226" y="-427.8" font-family="Helvetica,sans-Serif" font-size="8.00">&#45; _worldMatrix : Matrix</text>
<text text-anchor="start" x="226" y="-415.8" font-family="Helvetica,sans-Serif" font-size="8.00">&#45; _position : Vector3</text>
<text text-anchor="start" x="226" y="-403.8" font-family="Helvetica,sans-Serif" font-size="8.00">+ BaseColor : Color</text>
<text text-anchor="start" x="226" y="-391.8" font-family="Helvetica,sans-Serif" font-size="8.00">+ HighlightColor : Color</text>
<text text-anchor="start" x="226" y="-379.8" font-family="Helvetica,sans-Serif" font-size="8.00">+ WorldMatrix : Matrix</text>
<text text-anchor="start" x="226" y="-367.8" font-family="Helvetica,sans-Serif" font-size="8.00">+ Info : dynamic</text>
<text text-anchor="start" x="226" y="-355.8" font-family="Helvetica,sans-Serif" font-size="8.00">+ Alpha : float</text>
<text text-anchor="start" x="226" y="-343.8" font-family="Helvetica,sans-Serif" font-size="8.00">+ HighlightIntensity : float</text>
<text text-anchor="start" x="226" y="-331.8" font-family="Helvetica,sans-Serif" font-size="8.00">&#45; _scale : float</text>
<text text-anchor="start" x="226" y="-319.8" font-family="Helvetica,sans-Serif" font-size="8.00"># state : GameState</text>
<text text-anchor="start" x="226" y="-307.8" font-family="Helvetica,sans-Serif" font-size="8.00">+ World : World</text>
<text text-anchor="start" x="226" y="-295.8" font-family="Helvetica,sans-Serif" font-size="8.00">+ Model : Model virtual</text>
<text text-anchor="start" x="226" y="-283.8" font-family="Helvetica,sans-Serif" font-size="8.00">Methods:</text>
<polyline fill="none" stroke="black" points="218,-275 430,-275 "/>
<text text-anchor="start" x="226" y="-263.8" font-family="Helvetica,sans-Serif" font-size="8.00">&#45; UpdatePrecomputed ()</text>
<text text-anchor="start" x="226" y="-251.8" font-family="Helvetica,sans-Serif" font-size="8.00">+ GameModel (GameState state, GameModelInfo info)</text>
<text text-anchor="start" x="226" y="-239.8" font-family="Helvetica,sans-Serif" font-size="8.00">+ Draw (GameTime gameTime) virtual</text>
<text text-anchor="start" x="226" y="-227.8" font-family="Helvetica,sans-Serif" font-size="8.00">&#45; inFrustum () : bool</text>
<text text-anchor="start" x="226" y="-215.8" font-family="Helvetica,sans-Serif" font-size="8.00">+ Center () : Vector3</text>
<text text-anchor="start" x="226" y="-203.8" font-family="Helvetica,sans-Serif" font-size="8.00">+ Intersects (Ray ray) : GameObjectDistance virtual</text>
<text text-anchor="start" x="226" y="-191.8" font-family="Helvetica,sans-Serif" font-size="8.00">+ Update (GameTime gameTime) virtual</text>
</g>
<!-- Box_NodeModel -->
<g id="node3" class="node"><title>Box_NodeModel</title>
<polygon fill="#fcfcda" stroke="black" points="-0.5,-25 -0.5,-121 206.5,-121 206.5,-25 -0.5,-25"/>
<text text-anchor="middle" x="103" y="-109.8" font-family="Helvetica,sans-Serif" font-size="8.00">NodeModel</text>
<polyline fill="none" stroke="black" points="-0.5,-101 206.5,-101 "/>
<text text-anchor="start" x="7.5" y="-89.8" font-family="Helvetica,sans-Serif" font-size="8.00">Attributes:</text>
<text text-anchor="start" x="7.5" y="-77.8" font-family="Helvetica,sans-Serif" font-size="8.00">+ Info : NodeModelInfo</text>
<text text-anchor="start" x="7.5" y="-65.8" font-family="Helvetica,sans-Serif" font-size="8.00">Methods:</text>
<polyline fill="none" stroke="black" points="-0.5,-57 206.5,-57 "/>
<text text-anchor="start" x="7.5" y="-45.8" font-family="Helvetica,sans-Serif" font-size="8.00">+ NodeModel (GameState state, NodeModelInfo info)</text>
<text text-anchor="start" x="7.5" y="-33.8" font-family="Helvetica,sans-Serif" font-size="8.00">+ Draw (GameTime gameTime)</text>
</g>
<!-- Box_GameModel&#45;&gt;Box_NodeModel -->
<g id="edge4" class="edge"><title>Box_GameModel&#45;&gt;Box_NodeModel</title>
<path fill="none" stroke="midnightblue" d="M211.381,-206.392C186.496,-175.764 161.754,-145.312 142.206,-121.254"/>
<polygon fill="none" stroke="midnightblue" points="208.685,-208.624 217.708,-214.179 214.118,-204.21 208.685,-208.624"/>
</g>
<!-- Box_PipeModel -->
<g id="node4" class="node"><title>Box_PipeModel</title>
<polygon fill="#fcfcda" stroke="black" points="224,-1 224,-145 424,-145 424,-1 224,-1"/>
<text text-anchor="middle" x="324" y="-133.8" font-family="Helvetica,sans-Serif" font-size="8.00">PipeModel</text>
<polyline fill="none" stroke="black" points="224,-125 424,-125 "/>
<text text-anchor="start" x="232" y="-113.8" font-family="Helvetica,sans-Serif" font-size="8.00">Attributes:</text>
<text text-anchor="start" x="232" y="-101.8" font-family="Helvetica,sans-Serif" font-size="8.00">&#45; Bounds : BoundingSphere[]</text>
<text text-anchor="start" x="232" y="-89.8" font-family="Helvetica,sans-Serif" font-size="8.00">+ Info : PipeModelInfo</text>
<text text-anchor="start" x="232" y="-77.8" font-family="Helvetica,sans-Serif" font-size="8.00">Methods:</text>
<polyline fill="none" stroke="black" points="224,-69 424,-69 "/>
<text text-anchor="start" x="232" y="-57.8" font-family="Helvetica,sans-Serif" font-size="8.00">+ OnDataChange () : Action</text>
<text text-anchor="start" x="232" y="-45.8" font-family="Helvetica,sans-Serif" font-size="8.00">+ Draw (GameTime gameTime)</text>
<text text-anchor="start" x="232" y="-33.8" font-family="Helvetica,sans-Serif" font-size="8.00">+ PipeModel (GameState state, PipeModelInfo info)</text>
<text text-anchor="start" x="232" y="-21.8" font-family="Helvetica,sans-Serif" font-size="8.00">+ Intersects (Ray ray) : GameObjectDistance</text>
<text text-anchor="start" x="232" y="-9.8" font-family="Helvetica,sans-Serif" font-size="8.00">+ Update (GameTime gameTime)</text>
</g>
<!-- Box_GameModel&#45;&gt;Box_PipeModel -->
<g id="edge6" class="edge"><title>Box_GameModel&#45;&gt;Box_PipeModel</title>
<path fill="none" stroke="midnightblue" d="M324,-172.805C324,-163.248 324,-153.949 324,-145.114"/>
<polygon fill="none" stroke="midnightblue" points="320.5,-172.849 324,-182.849 327.5,-172.849 320.5,-172.849"/>
</g>
<!-- Box_TestModel -->
<g id="node5" class="node"><title>Box_TestModel</title>
<polygon fill="#fcfcda" stroke="black" points="442,-31 442,-115 648,-115 648,-31 442,-31"/>
<text text-anchor="middle" x="545" y="-103.8" font-family="Helvetica,sans-Serif" font-size="8.00">TestModel</text>
<polyline fill="none" stroke="black" points="442,-95 648,-95 "/>
<text text-anchor="start" x="450" y="-83.8" font-family="Helvetica,sans-Serif" font-size="8.00">Attributes:</text>
<text text-anchor="start" x="450" y="-71.8" font-family="Helvetica,sans-Serif" font-size="8.00">Methods:</text>
<polyline fill="none" stroke="black" points="442,-63 648,-63 "/>
<text text-anchor="start" x="450" y="-51.8" font-family="Helvetica,sans-Serif" font-size="8.00">+ Update (GameTime gameTime)</text>
<text text-anchor="start" x="450" y="-39.8" font-family="Helvetica,sans-Serif" font-size="8.00">+ TestModel (GameState state, GameModelInfo info)</text>
</g>
<!-- Box_GameModel&#45;&gt;Box_TestModel -->
<g id="edge8" class="edge"><title>Box_GameModel&#45;&gt;Box_TestModel</title>
<path fill="none" stroke="midnightblue" d="M436.771,-206.205C463.707,-173.053 490.463,-140.122 510.633,-115.298"/>
<polygon fill="none" stroke="midnightblue" points="433.882,-204.21 430.292,-214.179 439.315,-208.624 433.882,-204.21"/>
</g>
<!-- Box_IGameObject -->
<g id="node2" class="node"><title>Box_IGameObject</title>
<polygon fill="#dafcda" stroke="black" points="236,-545 236,-677 412,-677 412,-545 236,-545"/>
<text text-anchor="middle" x="324" y="-665.8" font-family="Helvetica,sans-Serif" font-size="8.00">IGameObject</text>
<polyline fill="none" stroke="black" points="236,-657 412,-657 "/>
<text text-anchor="start" x="244" y="-645.8" font-family="Helvetica,sans-Serif" font-size="8.00">Attributes:</text>
<text text-anchor="start" x="244" y="-633.8" font-family="Helvetica,sans-Serif" font-size="8.00">+ Info : dynamic</text>
<text text-anchor="start" x="244" y="-621.8" font-family="Helvetica,sans-Serif" font-size="8.00">+ World : World</text>
<text text-anchor="start" x="244" y="-609.8" font-family="Helvetica,sans-Serif" font-size="8.00">Methods:</text>
<polyline fill="none" stroke="black" points="236,-601 412,-601 "/>
<text text-anchor="start" x="244" y="-589.8" font-family="Helvetica,sans-Serif" font-size="8.00">+ Draw (GameTime gameTime)</text>
<text text-anchor="start" x="244" y="-577.8" font-family="Helvetica,sans-Serif" font-size="8.00">+ Update (GameTime gameTime)</text>
<text text-anchor="start" x="244" y="-565.8" font-family="Helvetica,sans-Serif" font-size="8.00">+ Intersects (Ray ray) : GameObjectDistance</text>
<text text-anchor="start" x="244" y="-553.8" font-family="Helvetica,sans-Serif" font-size="8.00">+ Center () : Vector3</text>
</g>
<!-- Box_IGameObject&#45;&gt;Box_GameModel -->
<g id="edge2" class="edge"><title>Box_IGameObject&#45;&gt;Box_GameModel</title>
<path fill="none" stroke="midnightblue" d="M324,-534.694C324,-525.823 324,-516.538 324,-507.045"/>
<polygon fill="none" stroke="midnightblue" points="320.5,-534.905 324,-544.905 327.5,-534.905 320.5,-534.905"/>
</g>
</g>
</svg>
