<?xml version="1.0" encoding="UTF-8" standalone="no"?>
<!DOCTYPE svg PUBLIC "-//W3C//DTD SVG 1.1//EN"
 "http://www.w3.org/Graphics/SVG/1.1/DTD/svg11.dtd">
<!-- Generated by graphviz version 2.26.3 (20100126.1600)
 -->
<!-- Title: MenuItem Pages: 1 -->
<svg width="449pt" height="516pt"
 viewBox="0.00 0.00 449.00 516.00" xmlns="http://www.w3.org/2000/svg" xmlns:xlink="http://www.w3.org/1999/xlink">
<g id="graph1" class="graph" transform="scale(1 1) rotate(0) translate(4 512)">
<title>MenuItem</title>
<polygon fill="white" stroke="white" points="-4,5 -4,-512 446,-512 446,5 -4,5"/>
<!-- Box_KeyHandler -->
<g id="node1" class="node"><title>Box_KeyHandler</title>
<polygon fill="#fcfcda" stroke="black" points="186,-1 186,-169 356,-169 356,-1 186,-1"/>
<text text-anchor="middle" x="271" y="-157.8" font-family="Helvetica,sans-Serif" font-size="8.00">KeyHandler</text>
<polyline fill="none" stroke="black" points="186,-149 356,-149 "/>
<text text-anchor="start" x="194" y="-137.8" font-family="Helvetica,sans-Serif" font-size="8.00">Attributes:</text>
<text text-anchor="start" x="194" y="-125.8" font-family="Helvetica,sans-Serif" font-size="8.00">Methods:</text>
<text text-anchor="start" x="194" y="-113.8" font-family="Helvetica,sans-Serif" font-size="8.00">private class KeyEventComponent :</text>
<text text-anchor="start" x="194" y="-101.8" font-family="Helvetica,sans-Serif" font-size="8.00">Attributes:</text>
<text text-anchor="start" x="194" y="-89.8" font-family="Helvetica,sans-Serif" font-size="8.00">+ receiver : IKeyEventListener</text>
<text text-anchor="start" x="194" y="-77.8" font-family="Helvetica,sans-Serif" font-size="8.00">+ layer : int</text>
<text text-anchor="start" x="194" y="-65.8" font-family="Helvetica,sans-Serif" font-size="8.00">+ keyEvent : KeyEvent</text>
<text text-anchor="start" x="194" y="-53.8" font-family="Helvetica,sans-Serif" font-size="8.00">+ keys : List&lt;Keys&gt;</text>
<text text-anchor="start" x="194" y="-41.8" font-family="Helvetica,sans-Serif" font-size="8.00">Methods:</text>
<polyline fill="none" stroke="black" points="186,-33 356,-33 "/>
<text text-anchor="start" x="194" y="-21.8" font-family="Helvetica,sans-Serif" font-size="8.00">+ KeyHandler (GameState state)</text>
<text text-anchor="start" x="194" y="-9.8" font-family="Helvetica,sans-Serif" font-size="8.00">+ Update (GameTime gameTime) override</text>
</g>
<!-- Box_GameStateComponent -->
<g id="node2" class="node"><title>Box_GameStateComponent</title>
<polygon fill="#fcfcda" stroke="black" points="100.5,-207 100.5,-327 441.5,-327 441.5,-207 100.5,-207"/>
<text text-anchor="middle" x="271" y="-315.8" font-family="Helvetica,sans-Serif" font-size="8.00">GameStateComponent</text>
<polyline fill="none" stroke="black" points="100.5,-307 441.5,-307 "/>
<text text-anchor="start" x="108.5" y="-295.8" font-family="Helvetica,sans-Serif" font-size="8.00">Attributes:</text>
<text text-anchor="start" x="108.5" y="-283.8" font-family="Helvetica,sans-Serif" font-size="8.00"># InputOrder : DisplayLayer</text>
<text text-anchor="start" x="108.5" y="-271.8" font-family="Helvetica,sans-Serif" font-size="8.00">+ state : GameState</text>
<text text-anchor="start" x="108.5" y="-259.8" font-family="Helvetica,sans-Serif" font-size="8.00">+ Index : int</text>
<text text-anchor="start" x="108.5" y="-247.8" font-family="Helvetica,sans-Serif" font-size="8.00">Methods:</text>
<polyline fill="none" stroke="black" points="100.5,-239 441.5,-239 "/>
<text text-anchor="start" x="108.5" y="-227.8" font-family="Helvetica,sans-Serif" font-size="8.00">+ GameStateComponent (GameState state, DisplayLayer inputOrder)</text>
<text text-anchor="start" x="108.5" y="-215.8" font-family="Helvetica,sans-Serif" font-size="8.00">+ SubComponents (GameTime gameTime) : IEnumerable&lt;IGameStateComponent&gt; virtual</text>
</g>
<!-- Box_GameStateComponent&#45;&gt;Box_KeyHandler -->
<g id="edge2" class="edge"><title>Box_GameStateComponent&#45;&gt;Box_KeyHandler</title>
<path fill="none" stroke="midnightblue" d="M271,-196.799C271,-187.723 271,-178.355 271,-169.084"/>
<polygon fill="none" stroke="midnightblue" points="267.5,-196.902 271,-206.902 274.5,-196.902 267.5,-196.902"/>
</g>
<!-- Box_IGameStateComponent -->
<g id="node3" class="node"><title>Box_IGameStateComponent</title>
<polygon fill="#dafcda" stroke="black" points="0,-365 0,-449 318,-449 318,-365 0,-365"/>
<text text-anchor="middle" x="159" y="-437.8" font-family="Helvetica,sans-Serif" font-size="8.00">IGameStateComponent</text>
<polyline fill="none" stroke="black" points="0,-429 318,-429 "/>
<text text-anchor="start" x="8" y="-417.8" font-family="Helvetica,sans-Serif" font-size="8.00">Attributes:</text>
<text text-anchor="start" x="8" y="-405.8" font-family="Helvetica,sans-Serif" font-size="8.00">+ Index : int</text>
<text text-anchor="start" x="8" y="-393.8" font-family="Helvetica,sans-Serif" font-size="8.00">Methods:</text>
<polyline fill="none" stroke="black" points="0,-385 318,-385 "/>
<text text-anchor="start" x="8" y="-373.8" font-family="Helvetica,sans-Serif" font-size="8.00">+ SubComponents (GameTime gameTime) : IEnumerable&lt;IGameStateComponent&gt;</text>
</g>
<!-- Box_IGameStateComponent&#45;&gt;Box_GameStateComponent -->
<g id="edge6" class="edge"><title>Box_IGameStateComponent&#45;&gt;Box_GameStateComponent</title>
<path fill="none" stroke="midnightblue" d="M198.996,-357.005C206.749,-347.314 214.948,-337.065 222.928,-327.09"/>
<polygon fill="none" stroke="midnightblue" points="196.118,-355 192.604,-364.995 201.584,-359.373 196.118,-355"/>
</g>
<!-- Box_XnaGameComponent -->
<g id="node4" class="node"><title>Box_XnaGameComponent</title>
<polygon fill="#ffffff" stroke="black" points="335.5,-397 335.5,-417 432.5,-417 432.5,-397 335.5,-397"/>
<text text-anchor="middle" x="384" y="-405.8" font-family="Helvetica,sans-Serif" font-size="8.00">Xna.GameComponent</text>
</g>
<!-- Box_XnaGameComponent&#45;&gt;Box_GameStateComponent -->
<g id="edge4" class="edge"><title>Box_XnaGameComponent&#45;&gt;Box_GameStateComponent</title>
<path fill="none" stroke="midnightblue" d="M369.529,-389.071C356.811,-373.314 337.556,-349.459 319.432,-327.004"/>
<polygon fill="none" stroke="midnightblue" points="366.869,-391.348 375.873,-396.932 372.316,-386.952 366.869,-391.348"/>
</g>
<!-- Box_XnaIGameComponent -->
<g id="node5" class="node"><title>Box_XnaIGameComponent</title>
<polygon fill="#ffffff" stroke="black" points="109.5,-487 109.5,-507 208.5,-507 208.5,-487 109.5,-487"/>
<text text-anchor="middle" x="159" y="-495.8" font-family="Helvetica,sans-Serif" font-size="8.00">Xna.IGameComponent</text>
</g>
<!-- Box_XnaIGameComponent&#45;&gt;Box_IGameStateComponent -->
<g id="edge8" class="edge"><title>Box_XnaIGameComponent&#45;&gt;Box_IGameStateComponent</title>
<path fill="none" stroke="midnightblue" d="M159,-476.454C159,-468.393 159,-458.828 159,-449.414"/>
<polygon fill="none" stroke="midnightblue" points="155.5,-476.676 159,-486.676 162.5,-476.676 155.5,-476.676"/>
</g>
</g>
</svg>
