<?xml version="1.0" encoding="UTF-8" standalone="no"?>
<!DOCTYPE svg PUBLIC "-//W3C//DTD SVG 1.1//EN"
 "http://www.w3.org/Graphics/SVG/1.1/DTD/svg11.dtd">
<!-- Generated by graphviz version 2.26.3 (20100126.1600)
 -->
<!-- Title: MenuItem Pages: 1 -->
<svg width="11094pt" height="2700pt"
 viewBox="0.00 0.00 2662.67 648.00" xmlns="http://www.w3.org/2000/svg" xmlns:xlink="http://www.w3.org/1999/xlink">
<g id="graph1" class="graph" transform="scale(4.16667 4.16667) rotate(0) translate(4 644)">
<title>MenuItem</title>
<polygon fill="white" stroke="white" points="-4,5 -4,-644 2659.67,-644 2659.67,5 -4,5"/>
<!-- Box_IGameObject -->
<g id="node1" class="node"><title>Box_IGameObject</title>
<polygon fill="#dafcda" stroke="black" points="1274.5,-545 1274.5,-639 1453.5,-639 1453.5,-545 1274.5,-545"/>
<text text-anchor="middle" x="1364" y="-627.8" font-family="Arial" font-size="8.00">IGameObject</text>
<polyline fill="none" stroke="black" points="1274.5,-621 1453.5,-621 "/>
<text text-anchor="start" x="1282.5" y="-609.8" font-family="Arial" font-size="8.00">+ Info : GameObjectInfo</text>
<text text-anchor="start" x="1282.5" y="-599.8" font-family="Arial" font-size="8.00">+ World : World</text>
<polyline fill="none" stroke="black" points="1274.5,-593 1453.5,-593 "/>
<text text-anchor="start" x="1282.5" y="-581.8" font-family="Arial" font-size="8.00">+ Draw (GameTime time)</text>
<text text-anchor="start" x="1282.5" y="-571.8" font-family="Arial" font-size="8.00">+ Update (GameTime time)</text>
<text text-anchor="start" x="1282.5" y="-561.8" font-family="Arial" font-size="8.00">+ Intersects (Ray ray) : GameObjectDistance</text>
<text text-anchor="start" x="1282.5" y="-551.8" font-family="Arial" font-size="8.00">+ Center () : Vector3</text>
</g>
<!-- Box_EdgeMovement -->
<g id="node2" class="node"><title>Box_EdgeMovement</title>
<polygon fill="#fcfcda" stroke="black" points="1659,-238 1659,-482 2001,-482 2001,-238 1659,-238"/>
<text text-anchor="middle" x="1830" y="-470.8" font-family="Arial" font-size="8.00">EdgeMovement</text>
<polyline fill="none" stroke="black" points="1659,-464 2001,-464 "/>
<text text-anchor="start" x="1667" y="-452.8" font-family="Arial" font-size="8.00">&#45; shadowObjects : List&lt;ShadowGameObject&gt;</text>
<text text-anchor="start" x="1667" y="-442.8" font-family="Arial" font-size="8.00">+ World : World</text>
<text text-anchor="start" x="1667" y="-432.8" font-family="Arial" font-size="8.00">&#45; screen : GameScreen</text>
<text text-anchor="start" x="1667" y="-422.8" font-family="Arial" font-size="8.00">&#45; previousMousePosition : Vector3</text>
<text text-anchor="start" x="1667" y="-412.8" font-family="Arial" font-size="8.00">+ Info : GameObjectInfo</text>
<text text-anchor="start" x="1667" y="-402.8" font-family="Arial" font-size="8.00">+ Knot : Knot</text>
<polyline fill="none" stroke="black" points="1659,-396 2001,-396 "/>
<text text-anchor="start" x="1667" y="-384.8" font-family="Arial" font-size="8.00">&#45; IEnumerable.GetEnumerator () : IEnumerator</text>
<text text-anchor="start" x="1667" y="-374.8" font-family="Arial" font-size="8.00">&#45; MovePipes (Vector3 currentMousePosition)</text>
<text text-anchor="start" x="1667" y="-364.8" font-family="Arial" font-size="8.00">&#45; MoveShadowPipes (Vector3 currentMousePosition)</text>
<text text-anchor="start" x="1667" y="-354.8" font-family="Arial" font-size="8.00">+ EdgeMovement (GameScreen screen, World world, GameObjectInfo info)</text>
<text text-anchor="start" x="1667" y="-344.8" font-family="Arial" font-size="8.00">+ Intersects (Ray ray) : GameObjectDistance</text>
<text text-anchor="start" x="1667" y="-334.8" font-family="Arial" font-size="8.00">+ GetEnumerator () : IEnumerator&lt;IGameObject&gt;</text>
<text text-anchor="start" x="1667" y="-324.8" font-family="Arial" font-size="8.00">+ Draw (GameTime time)</text>
<text text-anchor="start" x="1667" y="-314.8" font-family="Arial" font-size="8.00">+ Update (GameTime time)</text>
<text text-anchor="start" x="1667" y="-304.8" font-family="Arial" font-size="8.00">&#45; ComputeDirection (Vector3 currentMousePosition, out Direction direction, out float count)</text>
<text text-anchor="start" x="1667" y="-294.8" font-family="Arial" font-size="8.00">&#45; ComputeDirection (Vector3 currentMousePosition, out Direction direction, out int countInt)</text>
<text text-anchor="start" x="1667" y="-284.8" font-family="Arial" font-size="8.00">&#45; CreateShadowPipes ()</text>
<text text-anchor="start" x="1667" y="-274.8" font-family="Arial" font-size="8.00">&#45; MoveShadowPipes (Vector3 currentMousePosition, Vector3 direction3D)</text>
<text text-anchor="start" x="1667" y="-264.8" font-family="Arial" font-size="8.00">&#45; TryMovePipes (GameTime time)</text>
<text text-anchor="start" x="1667" y="-254.8" font-family="Arial" font-size="8.00">&#45; TrySelectObject (GameTime time)</text>
<text text-anchor="start" x="1667" y="-244.8" font-family="Arial" font-size="8.00">+ Center () : Vector3</text>
</g>
<!-- Box_IGameObject&#45;&gt;Box_EdgeMovement -->
<g id="edge2" class="edge"><title>Box_IGameObject&#45;&gt;Box_EdgeMovement</title>
<path fill="none" stroke="midnightblue" d="M1463.64,-573.117C1520.42,-559.859 1591.65,-538.894 1650,-508 1664.3,-500.428 1678.53,-491.609 1692.36,-482.118"/>
<polygon fill="none" stroke="midnightblue" points="1462.54,-569.778 1453.58,-575.423 1464.11,-576.601 1462.54,-569.778"/>
</g>
<!-- Box_ShadowGameObject -->
<g id="node3" class="node"><title>Box_ShadowGameObject</title>
<polygon fill="#fcfcda" stroke="black" points="125.5,-288 125.5,-432 370.5,-432 370.5,-288 125.5,-288"/>
<text text-anchor="middle" x="248" y="-420.8" font-family="Arial" font-size="8.00">ShadowGameObject</text>
<polyline fill="none" stroke="black" points="125.5,-414 370.5,-414 "/>
<text text-anchor="start" x="133.5" y="-402.8" font-family="Arial" font-size="8.00">&#45; Obj : IGameObject</text>
<text text-anchor="start" x="133.5" y="-392.8" font-family="Arial" font-size="8.00">+ Info : GameObjectInfo</text>
<text text-anchor="start" x="133.5" y="-382.8" font-family="Arial" font-size="8.00">+ OriginalPosition : Vector3</text>
<text text-anchor="start" x="133.5" y="-372.8" font-family="Arial" font-size="8.00">+ World : World</text>
<text text-anchor="start" x="133.5" y="-362.8" font-family="Arial" font-size="8.00"># screen : GameScreen</text>
<text text-anchor="start" x="133.5" y="-352.8" font-family="Arial" font-size="8.00">+ ShadowPosition : Vector3</text>
<polyline fill="none" stroke="black" points="125.5,-346 370.5,-346 "/>
<text text-anchor="start" x="133.5" y="-334.8" font-family="Arial" font-size="8.00">+ Update (GameTime gameTime) virtual</text>
<text text-anchor="start" x="133.5" y="-324.8" font-family="Arial" font-size="8.00">+ Intersects (Ray ray) : GameObjectDistance</text>
<text text-anchor="start" x="133.5" y="-314.8" font-family="Arial" font-size="8.00">+ ShadowGameObject (GameScreen screen, IGameObject obj)</text>
<text text-anchor="start" x="133.5" y="-304.8" font-family="Arial" font-size="8.00">+ Center () : Vector3</text>
<text text-anchor="start" x="133.5" y="-294.8" font-family="Arial" font-size="8.00">+ Draw (GameTime gameTime) virtual</text>
</g>
<!-- Box_IGameObject&#45;&gt;Box_ShadowGameObject -->
<g id="edge6" class="edge"><title>Box_IGameObject&#45;&gt;Box_ShadowGameObject</title>
<path fill="none" stroke="midnightblue" d="M1264.44,-576.167C1198.36,-566.024 1109.64,-553.105 1031,-544 848.851,-522.911 798.411,-550.34 620,-508 534.112,-487.617 441.888,-451.034 370.753,-419.34"/>
<polygon fill="none" stroke="midnightblue" points="1264.01,-579.643 1274.43,-577.706 1265.08,-572.724 1264.01,-579.643"/>
</g>
<!-- Box_GameModel -->
<g id="node5" class="node"><title>Box_GameModel</title>
<polygon fill="#fcfcda" stroke="black" points="629,-213 629,-507 853,-507 853,-213 629,-213"/>
<text text-anchor="middle" x="741" y="-495.8" font-family="Arial" font-size="8.00">GameModel</text>
<polyline fill="none" stroke="black" points="629,-489 853,-489 "/>
<text text-anchor="start" x="637" y="-477.8" font-family="Arial" font-size="8.00">&#45; IGameObject.Info : GameObjectInfo</text>
<text text-anchor="start" x="637" y="-467.8" font-family="Arial" font-size="8.00">&#45; _rotation : Angles3</text>
<text text-anchor="start" x="637" y="-457.8" font-family="Arial" font-size="8.00">&#45; Bounds : BoundingSphere[]</text>
<text text-anchor="start" x="637" y="-447.8" font-family="Arial" font-size="8.00">&#45; _bounds : BoundingSphere[]</text>
<text text-anchor="start" x="637" y="-437.8" font-family="Arial" font-size="8.00">&#45; _worldMatrix : Matrix</text>
<text text-anchor="start" x="637" y="-427.8" font-family="Arial" font-size="8.00">&#45; _position : Vector3</text>
<text text-anchor="start" x="637" y="-417.8" font-family="Arial" font-size="8.00">&#45; _inFrustum : bool</text>
<text text-anchor="start" x="637" y="-407.8" font-family="Arial" font-size="8.00"># InCameraFrustum : bool</text>
<text text-anchor="start" x="637" y="-397.8" font-family="Arial" font-size="8.00">+ BaseColor : Color</text>
<text text-anchor="start" x="637" y="-387.8" font-family="Arial" font-size="8.00">+ HighlightColor : Color</text>
<text text-anchor="start" x="637" y="-377.8" font-family="Arial" font-size="8.00">+ Info : GameModelInfo</text>
<text text-anchor="start" x="637" y="-367.8" font-family="Arial" font-size="8.00">+ WorldMatrix : Matrix</text>
<text text-anchor="start" x="637" y="-357.8" font-family="Arial" font-size="8.00">+ World : World</text>
<text text-anchor="start" x="637" y="-347.8" font-family="Arial" font-size="8.00">+ Alpha : float</text>
<text text-anchor="start" x="637" y="-337.8" font-family="Arial" font-size="8.00">+ HighlightIntensity : float</text>
<text text-anchor="start" x="637" y="-327.8" font-family="Arial" font-size="8.00">&#45; _scale : Vector3</text>
<text text-anchor="start" x="637" y="-317.8" font-family="Arial" font-size="8.00">&#45; _world : World</text>
<text text-anchor="start" x="637" y="-307.8" font-family="Arial" font-size="8.00"># screen : GameScreen</text>
<text text-anchor="start" x="637" y="-297.8" font-family="Arial" font-size="8.00">+ Model : Model virtual</text>
<polyline fill="none" stroke="black" points="629,-291 853,-291 "/>
<text text-anchor="start" x="637" y="-279.8" font-family="Arial" font-size="8.00">&#45; OnViewChanged ()</text>
<text text-anchor="start" x="637" y="-269.8" font-family="Arial" font-size="8.00">&#45; UpdatePrecomputed ()</text>
<text text-anchor="start" x="637" y="-259.8" font-family="Arial" font-size="8.00">+ GameModel (GameScreen screen, GameModelInfo info)</text>
<text text-anchor="start" x="637" y="-249.8" font-family="Arial" font-size="8.00">+ Draw (GameTime time) virtual</text>
<text text-anchor="start" x="637" y="-239.8" font-family="Arial" font-size="8.00">+ Center () : Vector3</text>
<text text-anchor="start" x="637" y="-229.8" font-family="Arial" font-size="8.00">+ Intersects (Ray ray) : GameObjectDistance virtual</text>
<text text-anchor="start" x="637" y="-219.8" font-family="Arial" font-size="8.00">+ Update (GameTime time) virtual</text>
</g>
<!-- Box_IGameObject&#45;&gt;Box_GameModel -->
<g id="edge10" class="edge"><title>Box_IGameObject&#45;&gt;Box_GameModel</title>
<path fill="none" stroke="midnightblue" d="M1264.22,-577.146C1122.83,-555.83 879.285,-518.026 862,-508 858.986,-506.252 856.015,-504.397 853.089,-502.449"/>
<polygon fill="none" stroke="midnightblue" points="1263.81,-580.623 1274.22,-578.651 1264.85,-573.701 1263.81,-580.623"/>
</g>
<!-- Box_KnotRenderer -->
<g id="node10" class="node"><title>Box_KnotRenderer</title>
<polygon fill="#fcfcda" stroke="black" points="870.5,-293 870.5,-427 1081.5,-427 1081.5,-293 870.5,-293"/>
<text text-anchor="middle" x="976" y="-415.8" font-family="Arial" font-size="8.00">KnotRenderer</text>
<polyline fill="none" stroke="black" points="870.5,-409 1081.5,-409 "/>
<text text-anchor="start" x="878.5" y="-397.8" font-family="Arial" font-size="8.00">+ World : World abstract</text>
<text text-anchor="start" x="878.5" y="-387.8" font-family="Arial" font-size="8.00"># screen : GameScreen</text>
<text text-anchor="start" x="878.5" y="-377.8" font-family="Arial" font-size="8.00">+ Info : GameObjectInfo abstract</text>
<polyline fill="none" stroke="black" points="870.5,-371 1081.5,-371 "/>
<text text-anchor="start" x="878.5" y="-359.8" font-family="Arial" font-size="8.00"># nodeMap () : NodeMap</text>
<text text-anchor="start" x="878.5" y="-349.8" font-family="Arial" font-size="8.00">+ Intersects (Ray ray) : GameObjectDistance abstract</text>
<text text-anchor="start" x="878.5" y="-339.8" font-family="Arial" font-size="8.00">+ Center () : Vector3 abstract</text>
<text text-anchor="start" x="878.5" y="-329.8" font-family="Arial" font-size="8.00">+ Draw (GameTime gameTime) abstract</text>
<text text-anchor="start" x="878.5" y="-319.8" font-family="Arial" font-size="8.00">+ KnotRenderer (GameScreen screen)</text>
<text text-anchor="start" x="878.5" y="-309.8" font-family="Arial" font-size="8.00">+ Update (GameTime gameTime) abstract</text>
<text text-anchor="start" x="878.5" y="-299.8" font-family="Arial" font-size="8.00">+ OnEdgesChanged (EdgeList edges) virtual</text>
</g>
<!-- Box_IGameObject&#45;&gt;Box_KnotRenderer -->
<g id="edge22" class="edge"><title>Box_IGameObject&#45;&gt;Box_KnotRenderer</title>
<path fill="none" stroke="midnightblue" d="M1264.16,-576.748C1209.12,-564.74 1141.69,-543.814 1090,-508 1059.74,-487.034 1033.91,-455.567 1014.52,-427.031"/>
<polygon fill="none" stroke="midnightblue" points="1263.77,-580.244 1274.28,-578.888 1265.22,-573.396 1263.77,-580.244"/>
</g>
<!-- Box_ModelRenderer -->
<g id="node13" class="node"><title>Box_ModelRenderer</title>
<polygon fill="#fcfcda" stroke="black" points="2018.5,-228 2018.5,-492 2257.5,-492 2257.5,-228 2018.5,-228"/>
<text text-anchor="middle" x="2138" y="-480.8" font-family="Arial" font-size="8.00">ModelRenderer</text>
<polyline fill="none" stroke="black" points="2018.5,-474 2257.5,-474 "/>
<text text-anchor="start" x="2026.5" y="-462.8" font-family="Arial" font-size="8.00">&#45; arrows : List&lt;ArrowModel&gt;</text>
<text text-anchor="start" x="2026.5" y="-452.8" font-family="Arial" font-size="8.00">&#45; nodes : List&lt;NodeModel&gt;</text>
<text text-anchor="start" x="2026.5" y="-442.8" font-family="Arial" font-size="8.00">&#45; pipes : List&lt;PipeModel&gt;</text>
<text text-anchor="start" x="2026.5" y="-432.8" font-family="Arial" font-size="8.00">&#45; arrowFactory : ModelFactory</text>
<text text-anchor="start" x="2026.5" y="-422.8" font-family="Arial" font-size="8.00">&#45; nodeFactory : ModelFactory</text>
<text text-anchor="start" x="2026.5" y="-412.8" font-family="Arial" font-size="8.00">&#45; pipeFactory : ModelFactory</text>
<text text-anchor="start" x="2026.5" y="-402.8" font-family="Arial" font-size="8.00">+ Info : GameObjectInfo</text>
<text text-anchor="start" x="2026.5" y="-392.8" font-family="Arial" font-size="8.00">&#45; screen : GameScreen</text>
<text text-anchor="start" x="2026.5" y="-382.8" font-family="Arial" font-size="8.00">&#45; knot : Knot</text>
<text text-anchor="start" x="2026.5" y="-372.8" font-family="Arial" font-size="8.00">+ Knot : Knot</text>
<text text-anchor="start" x="2026.5" y="-362.8" font-family="Arial" font-size="8.00">+ World : World</text>
<polyline fill="none" stroke="black" points="2018.5,-356 2257.5,-356 "/>
<text text-anchor="start" x="2026.5" y="-344.8" font-family="Arial" font-size="8.00">&#45; nodeMap () : NodeMap</text>
<text text-anchor="start" x="2026.5" y="-334.8" font-family="Arial" font-size="8.00">&#45; IEnumerable.GetEnumerator () : IEnumerator</text>
<text text-anchor="start" x="2026.5" y="-324.8" font-family="Arial" font-size="8.00">&#45; CreateArrow (Edge edge)</text>
<text text-anchor="start" x="2026.5" y="-314.8" font-family="Arial" font-size="8.00">+ Draw (GameTime time)</text>
<text text-anchor="start" x="2026.5" y="-304.8" font-family="Arial" font-size="8.00">+ OnEdgesChanged ()</text>
<text text-anchor="start" x="2026.5" y="-294.8" font-family="Arial" font-size="8.00">+ Update (GameTime time)</text>
<text text-anchor="start" x="2026.5" y="-284.8" font-family="Arial" font-size="8.00">&#45; CreateArrows (IList&lt;Edge&gt; selectedEdges)</text>
<text text-anchor="start" x="2026.5" y="-274.8" font-family="Arial" font-size="8.00">+ Intersects (Ray ray) : GameObjectDistance</text>
<text text-anchor="start" x="2026.5" y="-264.8" font-family="Arial" font-size="8.00">+ GetEnumerator () : IEnumerator&lt;IGameObject&gt;</text>
<text text-anchor="start" x="2026.5" y="-254.8" font-family="Arial" font-size="8.00">+ ModelRenderer (GameScreen screen, GameObjectInfo info)</text>
<text text-anchor="start" x="2026.5" y="-244.8" font-family="Arial" font-size="8.00">+ Center () : Vector3</text>
<text text-anchor="start" x="2026.5" y="-234.8" font-family="Arial" font-size="8.00">+ CreateArrows (IEnumerable&lt;Edge&gt; selectedEdges)</text>
</g>
<!-- Box_IGameObject&#45;&gt;Box_ModelRenderer -->
<g id="edge30" class="edge"><title>Box_IGameObject&#45;&gt;Box_ModelRenderer</title>
<path fill="none" stroke="midnightblue" d="M1463.78,-587.661C1620.94,-579.401 1917.78,-557.608 2010,-508 2018.53,-503.413 2026.74,-498.014 2034.61,-492.039"/>
<polygon fill="none" stroke="midnightblue" points="1463.44,-584.174 1453.63,-588.186 1463.8,-591.165 1463.44,-584.174"/>
</g>
<!-- Box_MovableGameObject -->
<g id="node14" class="node"><title>Box_MovableGameObject</title>
<polygon fill="#fcfcda" stroke="black" points="1098.5,-283 1098.5,-437 1349.5,-437 1349.5,-283 1098.5,-283"/>
<text text-anchor="middle" x="1224" y="-425.8" font-family="Arial" font-size="8.00">MovableGameObject</text>
<polyline fill="none" stroke="black" points="1098.5,-419 1349.5,-419 "/>
<text text-anchor="start" x="1106.5" y="-407.8" font-family="Arial" font-size="8.00">&#45; Obj : IGameObject</text>
<text text-anchor="start" x="1106.5" y="-397.8" font-family="Arial" font-size="8.00">+ World : World</text>
<text text-anchor="start" x="1106.5" y="-387.8" font-family="Arial" font-size="8.00">&#45; screen : GameScreen</text>
<text text-anchor="start" x="1106.5" y="-377.8" font-family="Arial" font-size="8.00">+ Info : GameObjectInfo</text>
<polyline fill="none" stroke="black" points="1098.5,-371 1349.5,-371 "/>
<text text-anchor="start" x="1106.5" y="-359.8" font-family="Arial" font-size="8.00"># CurrentGroundPlane () : Plane</text>
<text text-anchor="start" x="1106.5" y="-349.8" font-family="Arial" font-size="8.00">+ MovableGameObject (GameScreen screen, IGameObject obj)</text>
<text text-anchor="start" x="1106.5" y="-339.8" font-family="Arial" font-size="8.00">+ Update (GameTime time) virtual</text>
<text text-anchor="start" x="1106.5" y="-329.8" font-family="Arial" font-size="8.00"># CurrentMouseRay () : Ray</text>
<text text-anchor="start" x="1106.5" y="-319.8" font-family="Arial" font-size="8.00"># CurrentMousePosition (Ray ray, Plane groundPlane) : Vector3?</text>
<text text-anchor="start" x="1106.5" y="-309.8" font-family="Arial" font-size="8.00">+ Intersects (Ray ray) : GameObjectDistance</text>
<text text-anchor="start" x="1106.5" y="-299.8" font-family="Arial" font-size="8.00">+ Center () : Vector3</text>
<text text-anchor="start" x="1106.5" y="-289.8" font-family="Arial" font-size="8.00">+ Draw (GameTime time)</text>
</g>
<!-- Box_IGameObject&#45;&gt;Box_MovableGameObject -->
<g id="edge34" class="edge"><title>Box_IGameObject&#45;&gt;Box_MovableGameObject</title>
<path fill="none" stroke="midnightblue" d="M1330.11,-535.834C1312.26,-506.256 1290.1,-469.53 1270.65,-437.304"/>
<polygon fill="none" stroke="midnightblue" points="1327.34,-538.018 1335.5,-544.772 1333.33,-534.401 1327.34,-538.018"/>
</g>
<!-- Box_PipeMovement -->
<g id="node15" class="node"><title>Box_PipeMovement</title>
<polygon fill="#fcfcda" stroke="black" points="2275,-233 2275,-487 2615,-487 2615,-233 2275,-233"/>
<text text-anchor="middle" x="2445" y="-475.8" font-family="Arial" font-size="8.00">PipeMovement</text>
<polyline fill="none" stroke="black" points="2275,-469 2615,-469 "/>
<text text-anchor="start" x="2283" y="-457.8" font-family="Arial" font-size="8.00">&#45; shadowObjects : List&lt;ShadowGameObject&gt;</text>
<text text-anchor="start" x="2283" y="-447.8" font-family="Arial" font-size="8.00">+ World : World</text>
<text text-anchor="start" x="2283" y="-437.8" font-family="Arial" font-size="8.00">&#45; screen : GameScreen</text>
<text text-anchor="start" x="2283" y="-427.8" font-family="Arial" font-size="8.00">&#45; previousMousePosition : Vector3</text>
<text text-anchor="start" x="2283" y="-417.8" font-family="Arial" font-size="8.00">+ Info : GameObjectInfo</text>
<text text-anchor="start" x="2283" y="-407.8" font-family="Arial" font-size="8.00">+ Knot : Knot</text>
<polyline fill="none" stroke="black" points="2275,-401 2615,-401 "/>
<text text-anchor="start" x="2283" y="-389.8" font-family="Arial" font-size="8.00">&#45; knownEdgeLists () : HashSet&lt;EdgeList&gt;</text>
<text text-anchor="start" x="2283" y="-379.8" font-family="Arial" font-size="8.00">&#45; IEnumerable.GetEnumerator () : IEnumerator</text>
<text text-anchor="start" x="2283" y="-369.8" font-family="Arial" font-size="8.00">&#45; MovePipes (Vector3 currentMousePosition)</text>
<text text-anchor="start" x="2283" y="-359.8" font-family="Arial" font-size="8.00">&#45; MoveShadowPipes (Vector3 currentMousePosition)</text>
<text text-anchor="start" x="2283" y="-349.8" font-family="Arial" font-size="8.00">+ Intersects (Ray ray) : GameObjectDistance</text>
<text text-anchor="start" x="2283" y="-339.8" font-family="Arial" font-size="8.00">+ GetEnumerator () : IEnumerator&lt;IGameObject&gt;</text>
<text text-anchor="start" x="2283" y="-329.8" font-family="Arial" font-size="8.00">+ PipeMovement (GameScreen screen, World world, GameObjectInfo info)</text>
<text text-anchor="start" x="2283" y="-319.8" font-family="Arial" font-size="8.00">+ Draw (GameTime gameTime)</text>
<text text-anchor="start" x="2283" y="-309.8" font-family="Arial" font-size="8.00">&#45; ComputeDirection (Vector3 currentMousePosition, out Vector3 direction, out float count)</text>
<text text-anchor="start" x="2283" y="-299.8" font-family="Arial" font-size="8.00">&#45; ComputeDirection (Vector3 currentMousePosition, out Vector3 direction, out int countInt)</text>
<text text-anchor="start" x="2283" y="-289.8" font-family="Arial" font-size="8.00">&#45; CreateShadowPipes ()</text>
<text text-anchor="start" x="2283" y="-279.8" font-family="Arial" font-size="8.00">&#45; MoveShadowPipes (Vector3 currentMousePosition, Vector3 direction3D)</text>
<text text-anchor="start" x="2283" y="-269.8" font-family="Arial" font-size="8.00">&#45; TryMovePipes (GameTime gameTime)</text>
<text text-anchor="start" x="2283" y="-259.8" font-family="Arial" font-size="8.00">&#45; TrySelectObject (GameTime gameTime)</text>
<text text-anchor="start" x="2283" y="-249.8" font-family="Arial" font-size="8.00">+ Center () : Vector3</text>
<text text-anchor="start" x="2283" y="-239.8" font-family="Arial" font-size="8.00">+ Update (GameTime gameTime)</text>
</g>
<!-- Box_IGameObject&#45;&gt;Box_PipeMovement -->
<g id="edge36" class="edge"><title>Box_IGameObject&#45;&gt;Box_PipeMovement</title>
<path fill="none" stroke="midnightblue" d="M1463.83,-590.074C1667.35,-584.956 2123.06,-567.069 2266,-508 2279.79,-502.302 2293.33,-495.159 2306.41,-487.109"/>
<polygon fill="none" stroke="midnightblue" points="1463.65,-586.577 1453.74,-590.323 1463.82,-593.575 1463.65,-586.577"/>
</g>
<!-- Box_TexturedRectangle -->
<g id="node16" class="node"><title>Box_TexturedRectangle</title>
<polygon fill="#fcfcda" stroke="black" points="1366.5,-233 1366.5,-487 1641.5,-487 1641.5,-233 1366.5,-233"/>
<text text-anchor="middle" x="1504" y="-475.8" font-family="Arial" font-size="8.00">TexturedRectangle</text>
<polyline fill="none" stroke="black" points="1366.5,-469 1641.5,-469 "/>
<text text-anchor="start" x="1374.5" y="-457.8" font-family="Arial" font-size="8.00">&#45; IGameObject.Info : GameObjectInfo</text>
<text text-anchor="start" x="1374.5" y="-447.8" font-family="Arial" font-size="8.00">&#45; basicEffect : BasicEffect</text>
<text text-anchor="start" x="1374.5" y="-437.8" font-family="Arial" font-size="8.00">&#45; texture : Texture2D</text>
<text text-anchor="start" x="1374.5" y="-427.8" font-family="Arial" font-size="8.00">&#45; LowerLeft : Vector3</text>
<text text-anchor="start" x="1374.5" y="-417.8" font-family="Arial" font-size="8.00">&#45; LowerRight : Vector3</text>
<text text-anchor="start" x="1374.5" y="-407.8" font-family="Arial" font-size="8.00">&#45; Normal : Vector3</text>
<text text-anchor="start" x="1374.5" y="-397.8" font-family="Arial" font-size="8.00">&#45; UpperRight : Vector3</text>
<text text-anchor="start" x="1374.5" y="-387.8" font-family="Arial" font-size="8.00">&#45; Vertices : VertexPositionNormalTexture[]</text>
<text text-anchor="start" x="1374.5" y="-377.8" font-family="Arial" font-size="8.00">&#45; Indexes : short[]</text>
<text text-anchor="start" x="1374.5" y="-367.8" font-family="Arial" font-size="8.00">+ Info : TexturedRectangleInfo</text>
<text text-anchor="start" x="1374.5" y="-357.8" font-family="Arial" font-size="8.00">&#45; UpperLeft : Vector3</text>
<text text-anchor="start" x="1374.5" y="-347.8" font-family="Arial" font-size="8.00"># screen : GameScreen</text>
<text text-anchor="start" x="1374.5" y="-337.8" font-family="Arial" font-size="8.00">+ World : World</text>
<polyline fill="none" stroke="black" points="1366.5,-331 1641.5,-331 "/>
<text text-anchor="start" x="1374.5" y="-319.8" font-family="Arial" font-size="8.00">&#45; Length () : Vector3</text>
<text text-anchor="start" x="1374.5" y="-309.8" font-family="Arial" font-size="8.00">&#45; FillVertices ()</text>
<text text-anchor="start" x="1374.5" y="-299.8" font-family="Arial" font-size="8.00">+ Intersects (Ray ray) : GameObjectDistance</text>
<text text-anchor="start" x="1374.5" y="-289.8" font-family="Arial" font-size="8.00">+ TexturedRectangle (GameScreen screen, TexturedRectangleInfo info)</text>
<text text-anchor="start" x="1374.5" y="-279.8" font-family="Arial" font-size="8.00">+ Draw (GameTime time)</text>
<text text-anchor="start" x="1374.5" y="-269.8" font-family="Arial" font-size="8.00"># SetPosition (Vector3 position)</text>
<text text-anchor="start" x="1374.5" y="-259.8" font-family="Arial" font-size="8.00">+ Bounds () : BoundingBox[]</text>
<text text-anchor="start" x="1374.5" y="-249.8" font-family="Arial" font-size="8.00">+ Center () : Vector3</text>
<text text-anchor="start" x="1374.5" y="-239.8" font-family="Arial" font-size="8.00">+ Update (GameTime time)</text>
</g>
<!-- Box_IGameObject&#45;&gt;Box_TexturedRectangle -->
<g id="edge40" class="edge"><title>Box_IGameObject&#45;&gt;Box_TexturedRectangle</title>
<path fill="none" stroke="midnightblue" d="M1397.68,-536.189C1406.71,-521.229 1416.85,-504.422 1427.19,-487.284"/>
<polygon fill="none" stroke="midnightblue" points="1394.67,-534.401 1392.5,-544.772 1400.66,-538.018 1394.67,-534.401"/>
</g>
<!-- Box_ShadowGameModel -->
<g id="node4" class="node"><title>Box_ShadowGameModel</title>
<polygon fill="#fcfcda" stroke="black" points="-0.5,-46 -0.5,-130 248.5,-130 248.5,-46 -0.5,-46"/>
<text text-anchor="middle" x="124" y="-118.8" font-family="Arial" font-size="8.00">ShadowGameModel</text>
<polyline fill="none" stroke="black" points="-0.5,-112 248.5,-112 "/>
<text text-anchor="start" x="7.5" y="-100.8" font-family="Arial" font-size="8.00">+ ShadowColor : Color</text>
<text text-anchor="start" x="7.5" y="-90.8" font-family="Arial" font-size="8.00">&#45; Model : GameModel</text>
<text text-anchor="start" x="7.5" y="-80.8" font-family="Arial" font-size="8.00">+ ShadowAlpha : float</text>
<polyline fill="none" stroke="black" points="-0.5,-74 248.5,-74 "/>
<text text-anchor="start" x="7.5" y="-62.8" font-family="Arial" font-size="8.00">+ ShadowGameModel (GameScreen screen, GameModel model)</text>
<text text-anchor="start" x="7.5" y="-52.8" font-family="Arial" font-size="8.00">+ Draw (GameTime gameTime)</text>
</g>
<!-- Box_ShadowGameObject&#45;&gt;Box_ShadowGameModel -->
<g id="edge8" class="edge"><title>Box_ShadowGameObject&#45;&gt;Box_ShadowGameModel</title>
<path fill="none" stroke="midnightblue" d="M210.867,-278.547C188.646,-229.805 161.318,-169.859 143.317,-130.373"/>
<polygon fill="none" stroke="midnightblue" points="207.763,-280.176 215.096,-287.823 214.132,-277.272 207.763,-280.176"/>
</g>
<!-- Box_ArrowModel -->
<g id="node6" class="node"><title>Box_ArrowModel</title>
<polygon fill="#fcfcda" stroke="black" points="266,-46 266,-130 496,-130 496,-46 266,-46"/>
<text text-anchor="middle" x="381" y="-118.8" font-family="Arial" font-size="8.00">ArrowModel</text>
<polyline fill="none" stroke="black" points="266,-112 496,-112 "/>
<text text-anchor="start" x="274" y="-100.8" font-family="Arial" font-size="8.00">&#45; Bounds : BoundingSphere[]</text>
<text text-anchor="start" x="274" y="-90.8" font-family="Arial" font-size="8.00">+ Info : ArrowModelInfo</text>
<polyline fill="none" stroke="black" points="266,-84 496,-84 "/>
<text text-anchor="start" x="274" y="-72.8" font-family="Arial" font-size="8.00">+ ArrowModel (GameScreen screen, ArrowModelInfo info)</text>
<text text-anchor="start" x="274" y="-62.8" font-family="Arial" font-size="8.00">+ Intersects (Ray ray) : GameObjectDistance</text>
<text text-anchor="start" x="274" y="-52.8" font-family="Arial" font-size="8.00">+ Draw (GameTime time)</text>
</g>
<!-- Box_GameModel&#45;&gt;Box_ArrowModel -->
<g id="edge12" class="edge"><title>Box_GameModel&#45;&gt;Box_ArrowModel</title>
<path fill="none" stroke="midnightblue" d="M620.287,-268.795C558.259,-221.929 485.658,-167.075 436.831,-130.184"/>
<polygon fill="none" stroke="midnightblue" points="618.486,-271.821 628.575,-275.056 622.706,-266.235 618.486,-271.821"/>
</g>
<!-- Box_NodeModel -->
<g id="node7" class="node"><title>Box_NodeModel</title>
<polygon fill="#fcfcda" stroke="black" points="514,-56 514,-120 734,-120 734,-56 514,-56"/>
<text text-anchor="middle" x="624" y="-108.8" font-family="Arial" font-size="8.00">NodeModel</text>
<polyline fill="none" stroke="black" points="514,-102 734,-102 "/>
<text text-anchor="start" x="522" y="-90.8" font-family="Arial" font-size="8.00">+ Info : NodeModelInfo</text>
<polyline fill="none" stroke="black" points="514,-84 734,-84 "/>
<text text-anchor="start" x="522" y="-72.8" font-family="Arial" font-size="8.00">+ NodeModel (GameScreen screen, NodeModelInfo info)</text>
<text text-anchor="start" x="522" y="-62.8" font-family="Arial" font-size="8.00">+ Draw (GameTime time)</text>
</g>
<!-- Box_GameModel&#45;&gt;Box_NodeModel -->
<g id="edge14" class="edge"><title>Box_GameModel&#45;&gt;Box_NodeModel</title>
<path fill="none" stroke="midnightblue" d="M673.656,-203.439C660.034,-171.771 647.067,-141.625 637.801,-120.085"/>
<polygon fill="none" stroke="midnightblue" points="670.539,-205.052 677.706,-212.855 676.97,-202.286 670.539,-205.052"/>
</g>
<!-- Box_PipeModel -->
<g id="node8" class="node"><title>Box_PipeModel</title>
<polygon fill="#fcfcda" stroke="black" points="752,-41 752,-135 964,-135 964,-41 752,-41"/>
<text text-anchor="middle" x="858" y="-123.8" font-family="Arial" font-size="8.00">PipeModel</text>
<polyline fill="none" stroke="black" points="752,-117 964,-117 "/>
<text text-anchor="start" x="760" y="-105.8" font-family="Arial" font-size="8.00">&#45; Bounds : BoundingSphere[]</text>
<text text-anchor="start" x="760" y="-95.8" font-family="Arial" font-size="8.00">+ Info : PipeModelInfo</text>
<polyline fill="none" stroke="black" points="752,-89 964,-89 "/>
<text text-anchor="start" x="760" y="-77.8" font-family="Arial" font-size="8.00">+ OnDataChange () : Action</text>
<text text-anchor="start" x="760" y="-67.8" font-family="Arial" font-size="8.00">+ PipeModel (GameScreen screen, PipeModelInfo info)</text>
<text text-anchor="start" x="760" y="-57.8" font-family="Arial" font-size="8.00">+ Intersects (Ray ray) : GameObjectDistance</text>
<text text-anchor="start" x="760" y="-47.8" font-family="Arial" font-size="8.00">+ Draw (GameTime time)</text>
</g>
<!-- Box_GameModel&#45;&gt;Box_PipeModel -->
<g id="edge16" class="edge"><title>Box_GameModel&#45;&gt;Box_PipeModel</title>
<path fill="none" stroke="midnightblue" d="M808.257,-203.643C818.97,-178.736 829.283,-154.762 837.713,-135.163"/>
<polygon fill="none" stroke="midnightblue" points="805.03,-202.286 804.294,-212.855 811.461,-205.052 805.03,-202.286"/>
</g>
<!-- Box_TestModel -->
<g id="node9" class="node"><title>Box_TestModel</title>
<polygon fill="#fcfcda" stroke="black" points="982,-56 982,-120 1200,-120 1200,-56 982,-56"/>
<text text-anchor="middle" x="1091" y="-108.8" font-family="Arial" font-size="8.00">TestModel</text>
<polyline fill="none" stroke="black" points="982,-102 1200,-102 "/>
<text text-anchor="middle" x="1091" y="-90.8" font-family="Arial" font-size="8.00"> </text>
<polyline fill="none" stroke="black" points="982,-84 1200,-84 "/>
<text text-anchor="start" x="990" y="-72.8" font-family="Arial" font-size="8.00">+ Update (GameTime time)</text>
<text text-anchor="start" x="990" y="-62.8" font-family="Arial" font-size="8.00">+ TestModel (GameScreen screen, GameModelInfo info)</text>
</g>
<!-- Box_GameModel&#45;&gt;Box_TestModel -->
<g id="edge18" class="edge"><title>Box_GameModel&#45;&gt;Box_TestModel</title>
<path fill="none" stroke="midnightblue" d="M861.435,-212.387C861.623,-212.258 861.812,-212.129 862,-212 904.818,-182.736 926.931,-199.82 973,-176 1002.4,-160.8 1032.25,-138.459 1054.57,-120.092"/>
<polygon fill="none" stroke="midnightblue" points="859.107,-209.752 853.067,-218.456 863.217,-215.419 859.107,-209.752"/>
</g>
<!-- Box_LineRenderer -->
<g id="node11" class="node"><title>Box_LineRenderer</title>
<polygon fill="#fcfcda" stroke="black" points="1217.5,-16 1217.5,-160 1450.5,-160 1450.5,-16 1217.5,-16"/>
<text text-anchor="middle" x="1334" y="-148.8" font-family="Arial" font-size="8.00">LineRenderer</text>
<polyline fill="none" stroke="black" points="1217.5,-142 1450.5,-142 "/>
<text text-anchor="start" x="1225.5" y="-130.8" font-family="Arial" font-size="8.00">&#45; edges : EdgeList</text>
<text text-anchor="start" x="1225.5" y="-120.8" font-family="Arial" font-size="8.00">&#45; basicEffect : BasicEffect</text>
<text text-anchor="start" x="1225.5" y="-110.8" font-family="Arial" font-size="8.00">+ Info : GameObjectInfo</text>
<text text-anchor="start" x="1225.5" y="-100.8" font-family="Arial" font-size="8.00">+ World : World</text>
<polyline fill="none" stroke="black" points="1217.5,-94 1450.5,-94 "/>
<text text-anchor="start" x="1225.5" y="-82.8" font-family="Arial" font-size="8.00">+ LineRenderer (GameScreen screen, GameObjectInfo info)</text>
<text text-anchor="start" x="1225.5" y="-72.8" font-family="Arial" font-size="8.00">+ OnEdgesChanged (EdgeList edges)</text>
<text text-anchor="start" x="1225.5" y="-62.8" font-family="Arial" font-size="8.00">&#45; DrawRoundedLines ()</text>
<text text-anchor="start" x="1225.5" y="-52.8" font-family="Arial" font-size="8.00">+ Intersects (Ray ray) : GameObjectDistance</text>
<text text-anchor="start" x="1225.5" y="-42.8" font-family="Arial" font-size="8.00">+ Center () : Vector3</text>
<text text-anchor="start" x="1225.5" y="-32.8" font-family="Arial" font-size="8.00">+ Draw (GameTime gameTime)</text>
<text text-anchor="start" x="1225.5" y="-22.8" font-family="Arial" font-size="8.00">+ Update (GameTime gameTime)</text>
</g>
<!-- Box_KnotRenderer&#45;&gt;Box_LineRenderer -->
<g id="edge24" class="edge"><title>Box_KnotRenderer&#45;&gt;Box_LineRenderer</title>
<path fill="none" stroke="midnightblue" d="M1020.34,-284.483C1038.95,-258.327 1062.66,-230.868 1090,-212 1135.48,-180.613 1159.33,-200.213 1209,-176 1218.66,-171.29 1228.39,-165.868 1237.94,-160.077"/>
<polygon fill="none" stroke="midnightblue" points="1017.31,-282.707 1014.48,-292.916 1023.06,-286.702 1017.31,-282.707"/>
</g>
<!-- Box_PipeRenderer -->
<g id="node12" class="node"><title>Box_PipeRenderer</title>
<polygon fill="#fcfcda" stroke="black" points="1942,-1 1942,-175 2160,-175 2160,-1 1942,-1"/>
<text text-anchor="middle" x="2051" y="-163.8" font-family="Arial" font-size="8.00">PipeRenderer</text>
<polyline fill="none" stroke="black" points="1942,-157 2160,-157 "/>
<text text-anchor="start" x="1950" y="-145.8" font-family="Arial" font-size="8.00">&#45; nodes : List&lt;NodeModel&gt;</text>
<text text-anchor="start" x="1950" y="-135.8" font-family="Arial" font-size="8.00">&#45; nodeFactory : ModelFactory</text>
<text text-anchor="start" x="1950" y="-125.8" font-family="Arial" font-size="8.00">&#45; pipeFactory : ModelFactory</text>
<text text-anchor="start" x="1950" y="-115.8" font-family="Arial" font-size="8.00">&#45; pipes : List&lt;PipeModel&gt;</text>
<text text-anchor="start" x="1950" y="-105.8" font-family="Arial" font-size="8.00">+ Info : GameObjectInfo</text>
<text text-anchor="start" x="1950" y="-95.8" font-family="Arial" font-size="8.00">+ World : World</text>
<polyline fill="none" stroke="black" points="1942,-89 2160,-89 "/>
<text text-anchor="start" x="1950" y="-77.8" font-family="Arial" font-size="8.00">&#45; IEnumerable.GetEnumerator () : IEnumerator</text>
<text text-anchor="start" x="1950" y="-67.8" font-family="Arial" font-size="8.00">+ PipeRenderer (GameState state, GameObjectInfo info)</text>
<text text-anchor="start" x="1950" y="-57.8" font-family="Arial" font-size="8.00">+ Draw (GameTime gameTime)</text>
<text text-anchor="start" x="1950" y="-47.8" font-family="Arial" font-size="8.00">+ OnEdgesChanged (EdgeList edges)</text>
<text text-anchor="start" x="1950" y="-37.8" font-family="Arial" font-size="8.00">+ GetEnumerator () : IEnumerator&lt;IGameObject&gt;</text>
<text text-anchor="start" x="1950" y="-27.8" font-family="Arial" font-size="8.00">+ Intersects (Ray ray) : GameObjectDistance</text>
<text text-anchor="start" x="1950" y="-17.8" font-family="Arial" font-size="8.00">+ Center () : Vector3</text>
<text text-anchor="start" x="1950" y="-7.8" font-family="Arial" font-size="8.00">+ Update (GameTime gameTime)</text>
</g>
<!-- Box_KnotRenderer&#45;&gt;Box_PipeRenderer -->
<g id="edge26" class="edge"><title>Box_KnotRenderer&#45;&gt;Box_PipeRenderer</title>
<path fill="none" stroke="midnightblue" d="M1016.56,-284.292C1035.2,-256.913 1059.92,-228.663 1090,-212 1162.07,-172.078 1377.23,-186.06 1459,-176 1628,-155.208 1823.22,-124.975 1941.84,-105.909"/>
<polygon fill="none" stroke="midnightblue" points="1013.56,-282.475 1010.97,-292.747 1019.4,-286.334 1013.56,-282.475"/>
</g>
<!-- Box_IEnumerable -->
<g id="node17" class="node"><title>Box_IEnumerable</title>
<polygon fill="#ffffff" stroke="black" points="2233.5,-583 2233.5,-601 2348.5,-601 2348.5,-583 2233.5,-583"/>
<text text-anchor="middle" x="2291" y="-589.8" font-family="Arial" font-size="8.00">IEnumerable&lt;IGameObject&gt;</text>
</g>
<!-- Box_IEnumerable&#45;&gt;Box_EdgeMovement -->
<g id="edge4" class="edge"><title>Box_IEnumerable&#45;&gt;Box_EdgeMovement</title>
<path fill="none" stroke="midnightblue" d="M2229.53,-580.979C2170.71,-568.77 2080.74,-545.668 2010,-508 1995.72,-500.394 1981.5,-491.551 1967.68,-482.044"/>
<polygon fill="none" stroke="midnightblue" points="2228.92,-584.426 2239.42,-582.989 2230.31,-577.566 2228.92,-584.426"/>
</g>
<!-- Box_IEnumerable&#45;&gt;Box_PipeRenderer -->
<g id="edge28" class="edge"><title>Box_IEnumerable&#45;&gt;Box_PipeRenderer</title>
<path fill="none" stroke="midnightblue" d="M2358.74,-584.649C2446.4,-573.58 2591.75,-549.397 2624,-508 2664.43,-456.111 2665.3,-263.195 2624,-212 2566.84,-141.15 2309.81,-108.77 2160.12,-95.6909"/>
<polygon fill="none" stroke="midnightblue" points="2358.11,-581.201 2348.61,-585.903 2358.97,-588.148 2358.11,-581.201"/>
</g>
<!-- Box_IEnumerable&#45;&gt;Box_ModelRenderer -->
<g id="edge32" class="edge"><title>Box_IEnumerable&#45;&gt;Box_ModelRenderer</title>
<path fill="none" stroke="midnightblue" d="M2279.39,-574.398C2267.16,-555.846 2246.69,-524.816 2225.08,-492.044"/>
<polygon fill="none" stroke="midnightblue" points="2276.57,-576.484 2285,-582.905 2282.42,-572.63 2276.57,-576.484"/>
</g>
<!-- Box_IEnumerable&#45;&gt;Box_PipeMovement -->
<g id="edge38" class="edge"><title>Box_IEnumerable&#45;&gt;Box_PipeMovement</title>
<path fill="none" stroke="midnightblue" d="M2302.6,-574.53C2315.49,-555.101 2337.55,-521.868 2360.51,-487.285"/>
<polygon fill="none" stroke="midnightblue" points="2299.65,-572.638 2297.04,-582.905 2305.48,-576.509 2299.65,-572.638"/>
</g>
<!-- Box_IEdgeChangeListener -->
<g id="node18" class="node"><title>Box_IEdgeChangeListener</title>
<polygon fill="#ffffff" stroke="black" points="929.5,-583 929.5,-601 1022.5,-601 1022.5,-583 929.5,-583"/>
<text text-anchor="middle" x="976" y="-589.8" font-family="Arial" font-size="8.00">IEdgeChangeListener</text>
</g>
<!-- Box_IEdgeChangeListener&#45;&gt;Box_KnotRenderer -->
<g id="edge20" class="edge"><title>Box_IEdgeChangeListener&#45;&gt;Box_KnotRenderer</title>
<path fill="none" stroke="midnightblue" d="M976,-572.844C976,-541.256 976,-476.791 976,-427.04"/>
<polygon fill="none" stroke="midnightblue" points="972.5,-572.905 976,-582.905 979.5,-572.905 972.5,-572.905"/>
</g>
</g>
</svg>
