<?xml version="1.0" encoding="UTF-8" standalone="no"?>
<!DOCTYPE svg PUBLIC "-//W3C//DTD SVG 1.1//EN"
 "http://www.w3.org/Graphics/SVG/1.1/DTD/svg11.dtd">
<!-- Generated by graphviz version 2.26.3 (20100126.1600)
 -->
<!-- Title: MenuItem Pages: 1 -->
<svg width="548pt" height="350pt"
 viewBox="0.00 0.00 548.00 350.00" xmlns="http://www.w3.org/2000/svg" xmlns:xlink="http://www.w3.org/1999/xlink">
<g id="graph1" class="graph" transform="scale(1 1) rotate(0) translate(4 346)">
<title>MenuItem</title>
<polygon fill="white" stroke="white" points="-4,5 -4,-346 545,-346 545,5 -4,5"/>
<!-- Box_OptionInfo -->
<g id="node1" class="node"><title>Box_OptionInfo</title>
<polygon fill="#fcfcda" stroke="black" points="47.5,-221 47.5,-341 492.5,-341 492.5,-221 47.5,-221"/>
<text text-anchor="middle" x="270" y="-329.8" font-family="Helvetica,sans-Serif" font-size="8.00">OptionInfo</text>
<polyline fill="none" stroke="black" points="47.5,-321 492.5,-321 "/>
<text text-anchor="start" x="55.5" y="-309.8" font-family="Helvetica,sans-Serif" font-size="8.00">+ Section : string</text>
<text text-anchor="start" x="55.5" y="-297.8" font-family="Helvetica,sans-Serif" font-size="8.00">+ Name : string</text>
<text text-anchor="start" x="55.5" y="-285.8" font-family="Helvetica,sans-Serif" font-size="8.00">+ DefaultValue : string</text>
<text text-anchor="start" x="55.5" y="-273.8" font-family="Helvetica,sans-Serif" font-size="8.00">+ OnChange : Action&lt;string&gt;</text>
<text text-anchor="start" x="55.5" y="-261.8" font-family="Helvetica,sans-Serif" font-size="8.00">+ Value : string virtual</text>
<text text-anchor="start" x="55.5" y="-249.8" font-family="Helvetica,sans-Serif" font-size="8.00">&#45; ConfigFile : ConfigFile</text>
<polyline fill="none" stroke="black" points="47.5,-241 492.5,-241 "/>
<text text-anchor="start" x="55.5" y="-229.8" font-family="Helvetica,sans-Serif" font-size="8.00">+ OptionInfo (string section, string name, string defaultValue, Action&lt;string&gt; onChange = null, ConfigFile configFile = null)</text>
</g>
<!-- Box_DistinctOptionInfo -->
<g id="node3" class="node"><title>Box_DistinctOptionInfo</title>
<polygon fill="#fcfcda" stroke="black" points="-0.5,-111 -0.5,-183 540.5,-183 540.5,-111 -0.5,-111"/>
<text text-anchor="middle" x="270" y="-171.8" font-family="Helvetica,sans-Serif" font-size="8.00">DistinctOptionInfo</text>
<polyline fill="none" stroke="black" points="-0.5,-163 540.5,-163 "/>
<text text-anchor="start" x="7.5" y="-151.8" font-family="Helvetica,sans-Serif" font-size="8.00">+ ValidValues : HashSet&lt;string&gt;</text>
<text text-anchor="start" x="7.5" y="-139.8" font-family="Helvetica,sans-Serif" font-size="8.00">+ Value : string override</text>
<polyline fill="none" stroke="black" points="-0.5,-131 540.5,-131 "/>
<text text-anchor="start" x="7.5" y="-119.8" font-family="Helvetica,sans-Serif" font-size="8.00">+ DistinctOptionInfo (string section, string name, string defaultValue, string[] validValues, Action&lt;string&gt; onChange = null, ConfigFile configFile = null)</text>
</g>
<!-- Box_OptionInfo&#45;&gt;Box_DistinctOptionInfo -->
<g id="edge10" class="edge"><title>Box_OptionInfo&#45;&gt;Box_DistinctOptionInfo</title>
<path fill="none" stroke="midnightblue" d="M270,-210.445C270,-201.028 270,-191.706 270,-183.224"/>
<polygon fill="none" stroke="midnightblue" points="266.5,-210.664 270,-220.664 273.5,-210.664 266.5,-210.664"/>
</g>
<!-- Box_BooleanOptionInfo -->
<g id="node2" class="node"><title>Box_BooleanOptionInfo</title>
<polygon fill="#fcfcda" stroke="black" points="37.5,-1 37.5,-73 502.5,-73 502.5,-1 37.5,-1"/>
<text text-anchor="middle" x="270" y="-61.8" font-family="Helvetica,sans-Serif" font-size="8.00">BooleanOptionInfo</text>
<polyline fill="none" stroke="black" points="37.5,-53 502.5,-53 "/>
<text text-anchor="start" x="45.5" y="-41.8" font-family="Helvetica,sans-Serif" font-size="8.00">+ ValidValues : string[] static</text>
<text text-anchor="start" x="45.5" y="-29.8" font-family="Helvetica,sans-Serif" font-size="8.00">+ BoolValue : bool</text>
<polyline fill="none" stroke="black" points="37.5,-21 502.5,-21 "/>
<text text-anchor="start" x="45.5" y="-9.8" font-family="Helvetica,sans-Serif" font-size="8.00">+ BooleanOptionInfo (string section, string name, bool defaultValue, Action&lt;bool&gt; onChange = null, ConfigFile configFile = null)</text>
</g>
<!-- Box_DistinctOptionInfo&#45;&gt;Box_BooleanOptionInfo -->
<g id="edge2" class="edge"><title>Box_DistinctOptionInfo&#45;&gt;Box_BooleanOptionInfo</title>
<path fill="none" stroke="midnightblue" d="M249.98,-100.752C249.491,-91.5127 249.782,-81.9353 250.853,-73.099"/>
<polygon fill="none" stroke="midnightblue" points="246.516,-101.32 250.862,-110.982 253.49,-100.718 246.516,-101.32"/>
</g>
<!-- Box_DistinctOptionInfo&#45;&gt;Box_BooleanOptionInfo -->
<g id="edge4" class="edge"><title>Box_DistinctOptionInfo&#45;&gt;Box_BooleanOptionInfo</title>
<path fill="none" stroke="midnightblue" d="M263.327,-100.752C263.164,-91.5127 263.261,-81.9353 263.618,-73.099"/>
<polygon fill="none" stroke="midnightblue" points="259.835,-101.087 263.621,-110.982 266.832,-100.885 259.835,-101.087"/>
</g>
<!-- Box_DistinctOptionInfo&#45;&gt;Box_BooleanOptionInfo -->
<g id="edge6" class="edge"><title>Box_DistinctOptionInfo&#45;&gt;Box_BooleanOptionInfo</title>
<path fill="none" stroke="midnightblue" d="M276.673,-100.752C276.836,-91.5127 276.739,-81.9353 276.382,-73.099"/>
<polygon fill="none" stroke="midnightblue" points="273.168,-100.885 276.379,-110.982 280.165,-101.087 273.168,-100.885"/>
</g>
<!-- Box_DistinctOptionInfo&#45;&gt;Box_BooleanOptionInfo -->
<g id="edge8" class="edge"><title>Box_DistinctOptionInfo&#45;&gt;Box_BooleanOptionInfo</title>
<path fill="none" stroke="midnightblue" d="M290.02,-100.752C290.509,-91.5127 290.218,-81.9353 289.147,-73.099"/>
<polygon fill="none" stroke="midnightblue" points="286.51,-100.718 289.138,-110.982 293.484,-101.32 286.51,-100.718"/>
</g>
</g>
</svg>
