<?xml version="1.0" encoding="UTF-8" standalone="no"?>
<!DOCTYPE svg PUBLIC "-//W3C//DTD SVG 1.1//EN"
 "http://www.w3.org/Graphics/SVG/1.1/DTD/svg11.dtd">
<!-- Generated by graphviz version 2.26.3 (20100126.1600)
 -->
<!-- Title: MenuItem Pages: 1 -->
<svg width="2208pt" height="3250pt"
 viewBox="0.00 0.00 530.00 780.00" xmlns="http://www.w3.org/2000/svg" xmlns:xlink="http://www.w3.org/1999/xlink">
<g id="graph1" class="graph" transform="scale(4.16667 4.16667) rotate(0) translate(4 776)">
<title>MenuItem</title>
<polygon fill="white" stroke="white" points="-4,5 -4,-776 527,-776 527,5 -4,5"/>
<!-- Box_MenuScreen -->
<g id="node1" class="node"><title>Box_MenuScreen</title>
<polygon fill="#fcfcda" stroke="black" points="164,-335 164,-519 352,-519 352,-335 164,-335"/>
<text text-anchor="middle" x="258" y="-507.8" font-family="Arial" font-size="8.00">MenuScreen</text>
<polyline fill="none" stroke="black" points="164,-501 352,-501 "/>
<text text-anchor="start" x="172" y="-489.8" font-family="Arial" font-size="8.00">&#45; backColor : Color</text>
<text text-anchor="start" x="172" y="-479.8" font-family="Arial" font-size="8.00">&#45; pointer : MousePointer</text>
<text text-anchor="start" x="172" y="-469.8" font-family="Arial" font-size="8.00"># LinePoints : List&lt;Vector2&gt;</text>
<text text-anchor="start" x="172" y="-459.8" font-family="Arial" font-size="8.00"># LineWidth : int</text>
<text text-anchor="start" x="172" y="-449.8" font-family="Arial" font-size="8.00">&#45; spriteBatch : SpriteBatch</text>
<polyline fill="none" stroke="black" points="164,-443 352,-443 "/>
<text text-anchor="start" x="172" y="-431.8" font-family="Arial" font-size="8.00">+ MenuScreen (Core.Game game)</text>
<text text-anchor="start" x="172" y="-421.8" font-family="Arial" font-size="8.00">+ Activate (GameTime gameTime)</text>
<text text-anchor="start" x="172" y="-411.8" font-family="Arial" font-size="8.00">+ Draw (GameTime gameTime)</text>
<text text-anchor="start" x="172" y="-401.8" font-family="Arial" font-size="8.00"># BackgroundColor (ItemState itemState) : Color</text>
<text text-anchor="start" x="172" y="-391.8" font-family="Arial" font-size="8.00"># ForegroundColor (ItemState itemState) : Color</text>
<text text-anchor="start" x="172" y="-381.8" font-family="Arial" font-size="8.00">+ DrawMenu (GameTime gameTime) abstract</text>
<text text-anchor="start" x="172" y="-371.8" font-family="Arial" font-size="8.00">+ UpdateMenu (GameTime gameTime) abstract</text>
<text text-anchor="start" x="172" y="-361.8" font-family="Arial" font-size="8.00">+ Initialize ()</text>
<text text-anchor="start" x="172" y="-351.8" font-family="Arial" font-size="8.00">+ Unload ()</text>
<text text-anchor="start" x="172" y="-341.8" font-family="Arial" font-size="8.00">+ Update (GameTime gameTime)</text>
</g>
<!-- Box_StartScreen -->
<g id="node3" class="node"><title>Box_StartScreen</title>
<polygon fill="#fcfcda" stroke="black" points="0,-168 0,-282 152,-282 152,-168 0,-168"/>
<text text-anchor="middle" x="76" y="-270.8" font-family="Arial" font-size="8.00">StartScreen</text>
<polyline fill="none" stroke="black" points="0,-264 152,-264 "/>
<text text-anchor="start" x="8" y="-252.8" font-family="Arial" font-size="8.00">&#45; spriteBatch : SpriteBatch</text>
<text text-anchor="start" x="8" y="-242.8" font-family="Arial" font-size="8.00">&#45; logo : Texture2D</text>
<text text-anchor="start" x="8" y="-232.8" font-family="Arial" font-size="8.00"># menu : Menu</text>
<polyline fill="none" stroke="black" points="0,-226 152,-226 "/>
<text text-anchor="start" x="8" y="-214.8" font-family="Arial" font-size="8.00">+ StartScreen (Game game)</text>
<text text-anchor="start" x="8" y="-204.8" font-family="Arial" font-size="8.00">+ Activate (GameTime gameTime)</text>
<text text-anchor="start" x="8" y="-194.8" font-family="Arial" font-size="8.00">+ UpdateMenu (GameTime gameTime)</text>
<text text-anchor="start" x="8" y="-184.8" font-family="Arial" font-size="8.00">+ DrawMenu (GameTime gameTime)</text>
<text text-anchor="start" x="8" y="-174.8" font-family="Arial" font-size="8.00">+ Initialize ()</text>
</g>
<!-- Box_MenuScreen&#45;&gt;Box_StartScreen -->
<g id="edge4" class="edge"><title>Box_MenuScreen&#45;&gt;Box_StartScreen</title>
<path fill="none" stroke="midnightblue" d="M168.132,-327.256C154.147,-311.734 140.126,-296.173 127.391,-282.038"/>
<polygon fill="none" stroke="midnightblue" points="165.695,-329.78 174.989,-334.867 170.895,-325.095 165.695,-329.78"/>
</g>
<!-- Box_LoadSavegameScreen -->
<g id="node4" class="node"><title>Box_LoadSavegameScreen</title>
<polygon fill="#fcfcda" stroke="black" points="170,-153 170,-297 346,-297 346,-153 170,-153"/>
<text text-anchor="middle" x="258" y="-285.8" font-family="Arial" font-size="8.00">LoadSavegameScreen</text>
<polyline fill="none" stroke="black" points="170,-279 346,-279 "/>
<text text-anchor="start" x="178" y="-267.8" font-family="Arial" font-size="8.00">&#45; spriteBatch : SpriteBatch</text>
<text text-anchor="start" x="178" y="-257.8" font-family="Arial" font-size="8.00">&#45; menu : VerticalMenu</text>
<text text-anchor="start" x="178" y="-247.8" font-family="Arial" font-size="8.00">&#45; format : IKnotFormat</text>
<polyline fill="none" stroke="black" points="170,-241 346,-241 "/>
<text text-anchor="start" x="178" y="-229.8" font-family="Arial" font-size="8.00">+ LoadSavegameScreen (Core.Game game)</text>
<text text-anchor="start" x="178" y="-219.8" font-family="Arial" font-size="8.00">+ Activate (GameTime gameTime)</text>
<text text-anchor="start" x="178" y="-209.8" font-family="Arial" font-size="8.00">+ DrawMenu (GameTime gameTime)</text>
<text text-anchor="start" x="178" y="-199.8" font-family="Arial" font-size="8.00">&#45; AddDefaultKnots ()</text>
<text text-anchor="start" x="178" y="-189.8" font-family="Arial" font-size="8.00">&#45; AddFileToList (string filename)</text>
<text text-anchor="start" x="178" y="-179.8" font-family="Arial" font-size="8.00">&#45; UpdateFiles ()</text>
<text text-anchor="start" x="178" y="-169.8" font-family="Arial" font-size="8.00">+ Initialize ()</text>
<text text-anchor="start" x="178" y="-159.8" font-family="Arial" font-size="8.00">+ UpdateMenu (GameTime gameTime)</text>
</g>
<!-- Box_MenuScreen&#45;&gt;Box_LoadSavegameScreen -->
<g id="edge6" class="edge"><title>Box_MenuScreen&#45;&gt;Box_LoadSavegameScreen</title>
<path fill="none" stroke="midnightblue" d="M258,-324.726C258,-315.372 258,-306.033 258,-297.029"/>
<polygon fill="none" stroke="midnightblue" points="254.5,-324.867 258,-334.867 261.5,-324.867 254.5,-324.867"/>
</g>
<!-- Box_OptionScreen -->
<g id="node5" class="node"><title>Box_OptionScreen</title>
<polygon fill="#fcfcda" stroke="black" points="364,-173 364,-277 516,-277 516,-173 364,-173"/>
<text text-anchor="middle" x="440" y="-265.8" font-family="Arial" font-size="8.00">OptionScreen</text>
<polyline fill="none" stroke="black" points="364,-259 516,-259 "/>
<text text-anchor="start" x="372" y="-247.8" font-family="Arial" font-size="8.00">&#45; spriteBatch : SpriteBatch</text>
<text text-anchor="start" x="372" y="-237.8" font-family="Arial" font-size="8.00">&#45; menu : VerticalMenu</text>
<polyline fill="none" stroke="black" points="364,-231 516,-231 "/>
<text text-anchor="start" x="372" y="-219.8" font-family="Arial" font-size="8.00">+ OptionScreen (Core.Game game)</text>
<text text-anchor="start" x="372" y="-209.8" font-family="Arial" font-size="8.00">+ Activate (GameTime gameTime)</text>
<text text-anchor="start" x="372" y="-199.8" font-family="Arial" font-size="8.00">+ DrawMenu (GameTime gameTime)</text>
<text text-anchor="start" x="372" y="-189.8" font-family="Arial" font-size="8.00">+ UpdateMenu (GameTime gameTime)</text>
<text text-anchor="start" x="372" y="-179.8" font-family="Arial" font-size="8.00">+ Initialize ()</text>
</g>
<!-- Box_MenuScreen&#45;&gt;Box_OptionScreen -->
<g id="edge8" class="edge"><title>Box_MenuScreen&#45;&gt;Box_OptionScreen</title>
<path fill="none" stroke="midnightblue" d="M348.124,-326.973C363.623,-309.77 379.157,-292.529 392.925,-277.248"/>
<polygon fill="none" stroke="midnightblue" points="345.105,-325.095 341.011,-334.867 350.305,-329.78 345.105,-325.095"/>
</g>
<!-- Box_GameScreen -->
<g id="node2" class="node"><title>Box_GameScreen</title>
<polygon fill="#fcfcda" stroke="black" points="69.5,-557 69.5,-771 446.5,-771 446.5,-557 69.5,-557"/>
<text text-anchor="middle" x="258" y="-759.8" font-family="Arial" font-size="8.00">GameScreen</text>
<polyline fill="none" stroke="black" points="69.5,-753 446.5,-753 "/>
<text text-anchor="start" x="77.5" y="-741.8" font-family="Arial" font-size="8.00">+ content : ContentManager</text>
<text text-anchor="start" x="77.5" y="-731.8" font-family="Arial" font-size="8.00">+ NextState : GameScreen</text>
<text text-anchor="start" x="77.5" y="-721.8" font-family="Arial" font-size="8.00">+ device : GraphicsDevice</text>
<text text-anchor="start" x="77.5" y="-711.8" font-family="Arial" font-size="8.00">+ RenderEffects : RenderEffectStack</text>
<text text-anchor="start" x="77.5" y="-701.8" font-family="Arial" font-size="8.00">+ viewport : Viewport</text>
<text text-anchor="start" x="77.5" y="-691.8" font-family="Arial" font-size="8.00">+ game : Game</text>
<text text-anchor="start" x="77.5" y="-681.8" font-family="Arial" font-size="8.00">+ graphics : GraphicsDeviceManager</text>
<text text-anchor="start" x="77.5" y="-671.8" font-family="Arial" font-size="8.00">+ input : InputManager</text>
<text text-anchor="start" x="77.5" y="-661.8" font-family="Arial" font-size="8.00">+ PostProcessing : RenderEffect</text>
<polyline fill="none" stroke="black" points="69.5,-655 446.5,-655 "/>
<text text-anchor="start" x="77.5" y="-643.8" font-family="Arial" font-size="8.00">+ Draw (GameTime gameTime) abstract</text>
<text text-anchor="start" x="77.5" y="-633.8" font-family="Arial" font-size="8.00">+ Initialize () abstract</text>
<text text-anchor="start" x="77.5" y="-623.8" font-family="Arial" font-size="8.00">+ Unload () abstract</text>
<text text-anchor="start" x="77.5" y="-613.8" font-family="Arial" font-size="8.00">+ Activate (GameTime gameTime) virtual</text>
<text text-anchor="start" x="77.5" y="-603.8" font-family="Arial" font-size="8.00">+ GameScreen (Game game)</text>
<text text-anchor="start" x="77.5" y="-593.8" font-family="Arial" font-size="8.00">+ Update (GameTime gameTime) abstract</text>
<text text-anchor="start" x="77.5" y="-583.8" font-family="Arial" font-size="8.00">+ Deactivate (GameTime gameTime) virtual</text>
<text text-anchor="start" x="77.5" y="-573.8" font-family="Arial" font-size="8.00">+ AddGameComponents (GameTime gameTime, params IGameScreenComponent[] components)</text>
<text text-anchor="start" x="77.5" y="-563.8" font-family="Arial" font-size="8.00">+ RemoveGameComponents (GameTime gameTime, params IGameScreenComponent[] components)</text>
</g>
<!-- Box_GameScreen&#45;&gt;Box_MenuScreen -->
<g id="edge2" class="edge"><title>Box_GameScreen&#45;&gt;Box_MenuScreen</title>
<path fill="none" stroke="midnightblue" d="M258,-546.846C258,-537.529 258,-528.201 258,-519.092"/>
<polygon fill="none" stroke="midnightblue" points="254.5,-546.941 258,-556.941 261.5,-546.941 254.5,-546.941"/>
</g>
<!-- Box_VideoOptionScreen -->
<g id="node6" class="node"><title>Box_VideoOptionScreen</title>
<polygon fill="#fcfcda" stroke="black" points="358,-1 358,-115 522,-115 522,-1 358,-1"/>
<text text-anchor="middle" x="440" y="-103.8" font-family="Arial" font-size="8.00">VideoOptionScreen</text>
<polyline fill="none" stroke="black" points="358,-97 522,-97 "/>
<text text-anchor="start" x="366" y="-85.8" font-family="Arial" font-size="8.00">&#45; spriteBatch : SpriteBatch</text>
<text text-anchor="start" x="366" y="-75.8" font-family="Arial" font-size="8.00">&#45; menu : VerticalMenu</text>
<polyline fill="none" stroke="black" points="358,-69 522,-69 "/>
<text text-anchor="start" x="366" y="-57.8" font-family="Arial" font-size="8.00">+ VideoOptionScreen (Core.Game game)</text>
<text text-anchor="start" x="366" y="-47.8" font-family="Arial" font-size="8.00">+ Activate (GameTime gameTime)</text>
<text text-anchor="start" x="366" y="-37.8" font-family="Arial" font-size="8.00">+ DrawMenu (GameTime gameTime)</text>
<text text-anchor="start" x="366" y="-27.8" font-family="Arial" font-size="8.00">+ Initialize ()</text>
<text text-anchor="start" x="366" y="-17.8" font-family="Arial" font-size="8.00">+ UpdateMenu (GameTime gameTime)</text>
<text text-anchor="start" x="366" y="-7.8" font-family="Arial" font-size="8.00">+ Collapse (MenuItem item)</text>
</g>
<!-- Box_OptionScreen&#45;&gt;Box_VideoOptionScreen -->
<g id="edge10" class="edge"><title>Box_OptionScreen&#45;&gt;Box_VideoOptionScreen</title>
<path fill="none" stroke="midnightblue" d="M440,-162.57C440,-147.012 440,-130.41 440,-115.122"/>
<polygon fill="none" stroke="midnightblue" points="436.5,-162.618 440,-172.618 443.5,-162.618 436.5,-162.618"/>
</g>
</g>
</svg>
