<?xml version="1.0" encoding="UTF-8" standalone="no"?>
<!DOCTYPE svg PUBLIC "-//W3C//DTD SVG 1.1//EN"
 "http://www.w3.org/Graphics/SVG/1.1/DTD/svg11.dtd">
<!-- Generated by graphviz version 2.26.3 (20100126.1600)
 -->
<!-- Title: MenuItem Pages: 1 -->
<svg width="1183pt" height="1908pt"
 viewBox="0.00 0.00 284.00 458.00" xmlns="http://www.w3.org/2000/svg" xmlns:xlink="http://www.w3.org/1999/xlink">
<g id="graph1" class="graph" transform="scale(4.16667 4.16667) rotate(0) translate(4 454)">
<title>MenuItem</title>
<polygon fill="white" stroke="white" points="-4,5 -4,-454 281,-454 281,5 -4,5"/>
<!-- Box_InstancingTest -->
<g id="node1" class="node"><title>Box_InstancingTest</title>
<polygon fill="#fcfcda" stroke="black" points="15.5,-1 15.5,-105 260.5,-105 260.5,-1 15.5,-1"/>
<text text-anchor="middle" x="138" y="-93.8" font-family="Arial" font-size="8.00">InstancingTest</text>
<polyline fill="none" stroke="black" points="15.5,-87 260.5,-87 "/>
<text text-anchor="start" x="23.5" y="-75.8" font-family="Arial" font-size="8.00">&#45; ModelInstances : class</text>
<polyline fill="none" stroke="black" points="15.5,-69 260.5,-69 "/>
<text text-anchor="start" x="23.5" y="-57.8" font-family="Arial" font-size="8.00">&#45; instanceHash () : Hashtable</text>
<text text-anchor="start" x="23.5" y="-47.8" font-family="Arial" font-size="8.00">+ Begin (Color background, GameTime time)</text>
<text text-anchor="start" x="23.5" y="-37.8" font-family="Arial" font-size="8.00"># DrawRenderTarget (SpriteBatch spriteBatch, GameTime time)</text>
<text text-anchor="start" x="23.5" y="-27.8" font-family="Arial" font-size="8.00">+ InstancingTest (GameScreen screen)</text>
<text text-anchor="start" x="23.5" y="-17.8" font-family="Arial" font-size="8.00">+ DrawModel (GameModel model, GameTime time)</text>
<text text-anchor="start" x="23.5" y="-7.8" font-family="Arial" font-size="8.00">+ End (GameTime time)</text>
</g>
<!-- Box_RenderEffect -->
<g id="node2" class="node"><title>Box_RenderEffect</title>
<polygon fill="#fcfcda" stroke="black" points="-0.5,-143 -0.5,-317 276.5,-317 276.5,-143 -0.5,-143"/>
<text text-anchor="middle" x="138" y="-305.8" font-family="Arial" font-size="8.00">RenderEffect</text>
<polyline fill="none" stroke="black" points="-0.5,-299 276.5,-299 "/>
<text text-anchor="start" x="7.5" y="-287.8" font-family="Arial" font-size="8.00">&#45; background : Color</text>
<text text-anchor="start" x="7.5" y="-277.8" font-family="Arial" font-size="8.00">&#45; renderTarget : RenderTargetCache</text>
<text text-anchor="start" x="7.5" y="-267.8" font-family="Arial" font-size="8.00">&#45; spriteBatch : SpriteBatch</text>
<text text-anchor="start" x="7.5" y="-257.8" font-family="Arial" font-size="8.00"># screen : GameScreen</text>
<text text-anchor="start" x="7.5" y="-247.8" font-family="Arial" font-size="8.00">+ RenderTarget : RenderTarget2D</text>
<polyline fill="none" stroke="black" points="-0.5,-241 276.5,-241 "/>
<text text-anchor="start" x="7.5" y="-229.8" font-family="Arial" font-size="8.00"># DrawRenderTarget (SpriteBatch spriteBatch, GameTime time) abstract</text>
<text text-anchor="start" x="7.5" y="-219.8" font-family="Arial" font-size="8.00">+ RenderEffect (GameScreen screen)</text>
<text text-anchor="start" x="7.5" y="-209.8" font-family="Arial" font-size="8.00">+ DrawModel (GameModel model, GameTime time) virtual</text>
<text text-anchor="start" x="7.5" y="-199.8" font-family="Arial" font-size="8.00">+ RemapModel (Model model) virtual</text>
<text text-anchor="start" x="7.5" y="-189.8" font-family="Arial" font-size="8.00">+ Begin (GameTime time)</text>
<text text-anchor="start" x="7.5" y="-179.8" font-family="Arial" font-size="8.00"># ModifyBasicEffect (BasicEffect effect, GameModel model)</text>
<text text-anchor="start" x="7.5" y="-169.8" font-family="Arial" font-size="8.00">+ Begin (Color background, GameTime time) virtual</text>
<text text-anchor="start" x="7.5" y="-159.8" font-family="Arial" font-size="8.00">+ End (GameTime time) virtual</text>
<text text-anchor="start" x="7.5" y="-149.8" font-family="Arial" font-size="8.00">+ DrawLastFrame (GameTime time)</text>
</g>
<!-- Box_RenderEffect&#45;&gt;Box_InstancingTest -->
<g id="edge2" class="edge"><title>Box_RenderEffect&#45;&gt;Box_InstancingTest</title>
<path fill="none" stroke="midnightblue" d="M138,-132.518C138,-123.076 138,-113.772 138,-105.042"/>
<polygon fill="none" stroke="midnightblue" points="134.5,-132.796 138,-142.796 141.5,-132.796 134.5,-132.796"/>
</g>
<!-- Box_IRenderEffect -->
<g id="node3" class="node"><title>Box_IRenderEffect</title>
<polygon fill="#dafcda" stroke="black" points="39.5,-355 39.5,-449 236.5,-449 236.5,-355 39.5,-355"/>
<text text-anchor="middle" x="138" y="-437.8" font-family="Arial" font-size="8.00">IRenderEffect</text>
<polyline fill="none" stroke="black" points="39.5,-431 236.5,-431 "/>
<text text-anchor="start" x="47.5" y="-419.8" font-family="Arial" font-size="8.00">+ RenderTarget : RenderTarget2D</text>
<polyline fill="none" stroke="black" points="39.5,-413 236.5,-413 "/>
<text text-anchor="start" x="47.5" y="-401.8" font-family="Arial" font-size="8.00">+ Begin (GameTime time)</text>
<text text-anchor="start" x="47.5" y="-391.8" font-family="Arial" font-size="8.00">+ End (GameTime time)</text>
<text text-anchor="start" x="47.5" y="-381.8" font-family="Arial" font-size="8.00">+ RemapModel (Model model)</text>
<text text-anchor="start" x="47.5" y="-371.8" font-family="Arial" font-size="8.00">+ DrawModel (GameModel model, GameTime time)</text>
<text text-anchor="start" x="47.5" y="-361.8" font-family="Arial" font-size="8.00">+ DrawLastFrame (GameTime time)</text>
</g>
<!-- Box_IRenderEffect&#45;&gt;Box_RenderEffect -->
<g id="edge4" class="edge"><title>Box_IRenderEffect&#45;&gt;Box_RenderEffect</title>
<path fill="none" stroke="midnightblue" d="M138,-344.473C138,-335.697 138,-326.474 138,-317.233"/>
<polygon fill="none" stroke="midnightblue" points="134.5,-344.545 138,-354.545 141.5,-344.545 134.5,-344.545"/>
</g>
</g>
</svg>
