<?xml version="1.0" encoding="UTF-8" standalone="no"?>
<!DOCTYPE svg PUBLIC "-//W3C//DTD SVG 1.1//EN"
 "http://www.w3.org/Graphics/SVG/1.1/DTD/svg11.dtd">
<!-- Generated by graphviz version 2.26.3 (20100126.1600)
 -->
<!-- Title: MenuItem Pages: 1 -->
<svg width="619pt" height="650pt"
 viewBox="0.00 0.00 619.00 650.00" xmlns="http://www.w3.org/2000/svg" xmlns:xlink="http://www.w3.org/1999/xlink">
<g id="graph1" class="graph" transform="scale(1 1) rotate(0) translate(4 646)">
<title>MenuItem</title>
<polygon fill="white" stroke="white" points="-4,5 -4,-646 616,-646 616,5 -4,5"/>
<!-- Box_IMouseEventListener -->
<g id="node1" class="node"><title>Box_IMouseEventListener</title>
<polygon fill="#dafcda" stroke="black" points="-0.5,-255 -0.5,-363 274.5,-363 274.5,-255 -0.5,-255"/>
<text text-anchor="middle" x="137" y="-351.8" font-family="Helvetica,sans-Serif" font-size="8.00">IMouseEventListener</text>
<polyline fill="none" stroke="black" points="-0.5,-343 274.5,-343 "/>
<text text-anchor="start" x="7.5" y="-331.8" font-family="Helvetica,sans-Serif" font-size="8.00">+ Index : int</text>
<text text-anchor="start" x="7.5" y="-319.8" font-family="Helvetica,sans-Serif" font-size="8.00">+ IsMouseEventEnabled : bool</text>
<polyline fill="none" stroke="black" points="-0.5,-311 274.5,-311 "/>
<text text-anchor="start" x="7.5" y="-299.8" font-family="Helvetica,sans-Serif" font-size="8.00">+ OnLeftClick (Vector2 position, ClickState click, GameTime gameTime)</text>
<text text-anchor="start" x="7.5" y="-287.8" font-family="Helvetica,sans-Serif" font-size="8.00">+ OnRightClick (Vector2 position, ClickState click, GameTime gameTime)</text>
<text text-anchor="start" x="7.5" y="-275.8" font-family="Helvetica,sans-Serif" font-size="8.00">+ SetHovered (bool hovered)</text>
<text text-anchor="start" x="7.5" y="-263.8" font-family="Helvetica,sans-Serif" font-size="8.00">+ bounds () : Rectangle</text>
</g>
<!-- Box_ColorPicker -->
<g id="node5" class="node"><title>Box_ColorPicker</title>
<polygon fill="#fcfcda" stroke="black" points="139.5,-1 139.5,-217 422.5,-217 422.5,-1 139.5,-1"/>
<text text-anchor="middle" x="281" y="-205.8" font-family="Helvetica,sans-Serif" font-size="8.00">ColorPicker</text>
<polyline fill="none" stroke="black" points="139.5,-197 422.5,-197 "/>
<text text-anchor="start" x="147.5" y="-185.8" font-family="Helvetica,sans-Serif" font-size="8.00">&#45; colors : List&lt;Color&gt;</text>
<text text-anchor="start" x="147.5" y="-173.8" font-family="Helvetica,sans-Serif" font-size="8.00">&#45; tiles : List&lt;Vector2&gt;</text>
<text text-anchor="start" x="147.5" y="-161.8" font-family="Helvetica,sans-Serif" font-size="8.00">&#45; Vector2 tileSize : readonly static</text>
<text text-anchor="start" x="147.5" y="-149.8" font-family="Helvetica,sans-Serif" font-size="8.00">+ SelectedColor : Color</text>
<text text-anchor="start" x="147.5" y="-137.8" font-family="Helvetica,sans-Serif" font-size="8.00">+ OnSelectColor : Action&lt;Color&gt;</text>
<text text-anchor="start" x="147.5" y="-125.8" font-family="Helvetica,sans-Serif" font-size="8.00"># spriteBatch : SpriteBatch</text>
<text text-anchor="start" x="147.5" y="-113.8" font-family="Helvetica,sans-Serif" font-size="8.00">+ IsMouseEventEnabled : bool</text>
<polyline fill="none" stroke="black" points="139.5,-105 422.5,-105 "/>
<text text-anchor="start" x="147.5" y="-93.8" font-family="Helvetica,sans-Serif" font-size="8.00">+ ColorPicker (GameState state, WidgetInfo info, DisplayLayer drawOrder)</text>
<text text-anchor="start" x="147.5" y="-81.8" font-family="Helvetica,sans-Serif" font-size="8.00">+ Draw (GameTime gameTime) override</text>
<text text-anchor="start" x="147.5" y="-69.8" font-family="Helvetica,sans-Serif" font-size="8.00">&#45; CreateColors (int num) : IEnumerable&lt;Color&gt; static</text>
<text text-anchor="start" x="147.5" y="-57.8" font-family="Helvetica,sans-Serif" font-size="8.00">&#45; CreateTiles (IEnumerable&lt;Color&gt; _colors) : IEnumerable&lt;Vector2&gt; static</text>
<text text-anchor="start" x="147.5" y="-45.8" font-family="Helvetica,sans-Serif" font-size="8.00">&#45; SelectColor (Color color)</text>
<text text-anchor="start" x="147.5" y="-33.8" font-family="Helvetica,sans-Serif" font-size="8.00">+ OnLeftClick (Vector2 position, ClickState click, GameTime gameTime)</text>
<text text-anchor="start" x="147.5" y="-21.8" font-family="Helvetica,sans-Serif" font-size="8.00">+ OnRightClick (Vector2 position, ClickState click, GameTime gameTime)</text>
<text text-anchor="start" x="147.5" y="-9.8" font-family="Helvetica,sans-Serif" font-size="8.00">+ SetHovered (bool hovered)</text>
</g>
<!-- Box_IMouseEventListener&#45;&gt;Box_ColorPicker -->
<g id="edge12" class="edge"><title>Box_IMouseEventListener&#45;&gt;Box_ColorPicker</title>
<path fill="none" stroke="midnightblue" d="M181.856,-246.7C188.676,-237.228 195.876,-227.227 203.157,-217.115"/>
<polygon fill="none" stroke="midnightblue" points="178.971,-244.717 175.968,-254.877 184.652,-248.807 178.971,-244.717"/>
</g>
<!-- Box_Widget -->
<g id="node2" class="node"><title>Box_Widget</title>
<polygon fill="#fcfcda" stroke="black" points="292,-267 292,-351 558,-351 558,-267 292,-267"/>
<text text-anchor="middle" x="425" y="-339.8" font-family="Helvetica,sans-Serif" font-size="8.00">Widget</text>
<polyline fill="none" stroke="black" points="292,-331 558,-331 "/>
<text text-anchor="start" x="300" y="-319.8" font-family="Helvetica,sans-Serif" font-size="8.00">+ Info : WidgetInfo</text>
<text text-anchor="start" x="300" y="-307.8" font-family="Helvetica,sans-Serif" font-size="8.00">+ IsVisible : bool virtual</text>
<polyline fill="none" stroke="black" points="292,-299 558,-299 "/>
<text text-anchor="start" x="300" y="-287.8" font-family="Helvetica,sans-Serif" font-size="8.00">+ Widget (GameState state, WidgetInfo info, DisplayLayer drawOrder)</text>
<text text-anchor="start" x="300" y="-275.8" font-family="Helvetica,sans-Serif" font-size="8.00">+ bounds () : Rectangle</text>
</g>
<!-- Box_Widget&#45;&gt;Box_ColorPicker -->
<g id="edge10" class="edge"><title>Box_Widget&#45;&gt;Box_ColorPicker</title>
<path fill="none" stroke="midnightblue" d="M388.599,-258.443C379.439,-245.72 369.251,-231.571 358.9,-217.195"/>
<polygon fill="none" stroke="midnightblue" points="385.778,-260.515 394.461,-266.585 391.459,-256.425 385.778,-260.515"/>
</g>
<!-- Box_DrawableGameStateComponent -->
<g id="node3" class="node"><title>Box_DrawableGameStateComponent</title>
<polygon fill="#fcfcda" stroke="black" points="254.5,-401 254.5,-485 595.5,-485 595.5,-401 254.5,-401"/>
<text text-anchor="middle" x="425" y="-473.8" font-family="Helvetica,sans-Serif" font-size="8.00">DrawableGameStateComponent</text>
<polyline fill="none" stroke="black" points="254.5,-465 595.5,-465 "/>
<text text-anchor="start" x="262.5" y="-453.8" font-family="Helvetica,sans-Serif" font-size="8.00">+ state : GameState</text>
<text text-anchor="start" x="262.5" y="-441.8" font-family="Helvetica,sans-Serif" font-size="8.00">+ Index : int</text>
<polyline fill="none" stroke="black" points="254.5,-433 595.5,-433 "/>
<text text-anchor="start" x="262.5" y="-421.8" font-family="Helvetica,sans-Serif" font-size="8.00">+ DrawableGameStateComponent (GameState state, DisplayLayer drawOrder)</text>
<text text-anchor="start" x="262.5" y="-409.8" font-family="Helvetica,sans-Serif" font-size="8.00">+ SubComponents (GameTime gameTime) : IEnumerable&lt;IGameStateComponent&gt; virtual</text>
</g>
<!-- Box_DrawableGameStateComponent&#45;&gt;Box_Widget -->
<g id="edge2" class="edge"><title>Box_DrawableGameStateComponent&#45;&gt;Box_Widget</title>
<path fill="none" stroke="midnightblue" d="M425,-390.715C425,-377.669 425,-363.841 425,-351.342"/>
<polygon fill="none" stroke="midnightblue" points="421.5,-390.969 425,-400.969 428.5,-390.969 421.5,-390.969"/>
</g>
<!-- Box_IGameStateComponent -->
<g id="node4" class="node"><title>Box_IGameStateComponent</title>
<polygon fill="#dafcda" stroke="black" points="145,-523 145,-583 463,-583 463,-523 145,-523"/>
<text text-anchor="middle" x="304" y="-571.8" font-family="Helvetica,sans-Serif" font-size="8.00">IGameStateComponent</text>
<polyline fill="none" stroke="black" points="145,-563 463,-563 "/>
<text text-anchor="start" x="153" y="-551.8" font-family="Helvetica,sans-Serif" font-size="8.00">+ Index : int</text>
<polyline fill="none" stroke="black" points="145,-543 463,-543 "/>
<text text-anchor="start" x="153" y="-531.8" font-family="Helvetica,sans-Serif" font-size="8.00">+ SubComponents (GameTime gameTime) : IEnumerable&lt;IGameStateComponent&gt;</text>
</g>
<!-- Box_IGameStateComponent&#45;&gt;Box_DrawableGameStateComponent -->
<g id="edge6" class="edge"><title>Box_IGameStateComponent&#45;&gt;Box_DrawableGameStateComponent</title>
<path fill="none" stroke="midnightblue" d="M344.738,-515.965C355.538,-506.147 367.282,-495.47 378.37,-485.391"/>
<polygon fill="none" stroke="midnightblue" points="342.109,-513.625 337.064,-522.942 346.818,-518.805 342.109,-513.625"/>
</g>
<!-- Box_XnaDrawableGameComponent -->
<g id="node6" class="node"><title>Box_XnaDrawableGameComponent</title>
<polygon fill="#ffffff" stroke="black" points="480.5,-543 480.5,-563 611.5,-563 611.5,-543 480.5,-543"/>
<text text-anchor="middle" x="546" y="-551.8" font-family="Helvetica,sans-Serif" font-size="8.00">Xna.DrawableGameComponent</text>
</g>
<!-- Box_XnaDrawableGameComponent&#45;&gt;Box_DrawableGameStateComponent -->
<g id="edge4" class="edge"><title>Box_XnaDrawableGameComponent&#45;&gt;Box_DrawableGameStateComponent</title>
<path fill="none" stroke="midnightblue" d="M527.298,-535.998C512.412,-522.466 490.923,-502.93 471.479,-485.254"/>
<polygon fill="none" stroke="midnightblue" points="525.08,-538.712 534.833,-542.849 529.788,-533.532 525.08,-538.712"/>
</g>
<!-- Box_XnaIGameComponent -->
<g id="node7" class="node"><title>Box_XnaIGameComponent</title>
<polygon fill="#ffffff" stroke="black" points="254.5,-621 254.5,-641 353.5,-641 353.5,-621 254.5,-621"/>
<text text-anchor="middle" x="304" y="-629.8" font-family="Helvetica,sans-Serif" font-size="8.00">Xna.IGameComponent</text>
</g>
<!-- Box_XnaIGameComponent&#45;&gt;Box_IGameStateComponent -->
<g id="edge8" class="edge"><title>Box_XnaIGameComponent&#45;&gt;Box_IGameStateComponent</title>
<path fill="none" stroke="midnightblue" d="M304,-610.777C304,-602.329 304,-592.337 304,-583.059"/>
<polygon fill="none" stroke="midnightblue" points="300.5,-610.803 304,-620.803 307.5,-610.803 300.5,-610.803"/>
</g>
</g>
</svg>
