<?xml version="1.0" encoding="UTF-8" standalone="no"?>
<!DOCTYPE svg PUBLIC "-//W3C//DTD SVG 1.1//EN"
 "http://www.w3.org/Graphics/SVG/1.1/DTD/svg11.dtd">
<!-- Generated by graphviz version 2.26.3 (20100126.1600)
 -->
<!-- Title: MenuItem Pages: 1 -->
<svg width="5217pt" height="2283pt"
 viewBox="0.00 0.00 1252.00 548.00" xmlns="http://www.w3.org/2000/svg" xmlns:xlink="http://www.w3.org/1999/xlink">
<g id="graph1" class="graph" transform="scale(4.16667 4.16667) rotate(0) translate(4 544)">
<title>MenuItem</title>
<polygon fill="white" stroke="white" points="-4,5 -4,-544 1249,-544 1249,5 -4,5"/>
<!-- Box_IKeyEventListener -->
<g id="node1" class="node"><title>Box_IKeyEventListener</title>
<polygon fill="#dafcda" stroke="black" points="317.5,-465 317.5,-539 604.5,-539 604.5,-465 317.5,-465"/>
<text text-anchor="middle" x="461" y="-527.8" font-family="Arial" font-size="8.00">IKeyEventListener</text>
<polyline fill="none" stroke="black" points="317.5,-521 604.5,-521 "/>
<text text-anchor="start" x="325.5" y="-509.8" font-family="Arial" font-size="8.00">+ ValidKeys : List&lt;Keys&gt;</text>
<text text-anchor="start" x="325.5" y="-499.8" font-family="Arial" font-size="8.00">+ Index : DisplayLayer</text>
<text text-anchor="start" x="325.5" y="-489.8" font-family="Arial" font-size="8.00">+ IsKeyEventEnabled : bool</text>
<polyline fill="none" stroke="black" points="317.5,-483 604.5,-483 "/>
<text text-anchor="start" x="325.5" y="-471.8" font-family="Arial" font-size="8.00">+ OnKeyEvent (List&lt;Keys&gt; key, KeyEvent keyEvent, GameTime gameTime)</text>
</g>
<!-- Box_Input -->
<g id="node2" class="node"><title>Box_Input</title>
<polygon fill="#fcfcda" stroke="black" points="-0.5,-193 -0.5,-427 286.5,-427 286.5,-193 -0.5,-193"/>
<text text-anchor="middle" x="143" y="-415.8" font-family="Arial" font-size="8.00">Input</text>
<polyline fill="none" stroke="black" points="-0.5,-409 286.5,-409 "/>
<text text-anchor="start" x="7.5" y="-397.8" font-family="Arial" font-size="8.00">&#45; PreviousClickMouseState : MouseState static</text>
<text text-anchor="start" x="7.5" y="-387.8" font-family="Arial" font-size="8.00">&#45; LeftButtonClickTimer : double static</text>
<text text-anchor="start" x="7.5" y="-377.8" font-family="Arial" font-size="8.00">&#45; RightButtonClickTimer : double static</text>
<text text-anchor="start" x="7.5" y="-367.8" font-family="Arial" font-size="8.00">+ GrabMouseMovement : bool</text>
<text text-anchor="start" x="7.5" y="-357.8" font-family="Arial" font-size="8.00">+ LeftButton : ClickState static</text>
<text text-anchor="start" x="7.5" y="-347.8" font-family="Arial" font-size="8.00">+ RightButton : ClickState static</text>
<text text-anchor="start" x="7.5" y="-337.8" font-family="Arial" font-size="8.00">+ PreviousKeyboardState : KeyboardState static</text>
<text text-anchor="start" x="7.5" y="-327.8" font-family="Arial" font-size="8.00">+ MouseState : MouseState static</text>
<text text-anchor="start" x="7.5" y="-317.8" font-family="Arial" font-size="8.00">+ PreviousMouseState : MouseState static</text>
<text text-anchor="start" x="7.5" y="-307.8" font-family="Arial" font-size="8.00"># FullscreenToggled : bool static</text>
<text text-anchor="start" x="7.5" y="-297.8" font-family="Arial" font-size="8.00">+ CurrentInputAction : InputAction</text>
<text text-anchor="start" x="7.5" y="-287.8" font-family="Arial" font-size="8.00">+ ValidKeys : List&lt;Keys&gt;</text>
<text text-anchor="start" x="7.5" y="-277.8" font-family="Arial" font-size="8.00">+ WASDMode : WASDMode</text>
<text text-anchor="start" x="7.5" y="-267.8" font-family="Arial" font-size="8.00">+ IsKeyEventEnabled : bool</text>
<text text-anchor="start" x="7.5" y="-257.8" font-family="Arial" font-size="8.00">+ KeyboardState : KeyboardState static</text>
<polyline fill="none" stroke="black" points="-0.5,-251 286.5,-251 "/>
<text text-anchor="start" x="7.5" y="-239.8" font-family="Arial" font-size="8.00"># UpdateMouse (GameTime gameTime) virtual</text>
<text text-anchor="start" x="7.5" y="-229.8" font-family="Arial" font-size="8.00">+ Update (GameTime gameTime)</text>
<text text-anchor="start" x="7.5" y="-219.8" font-family="Arial" font-size="8.00">+ OnKeyEvent (List&lt;Keys&gt; key, KeyEvent keyEvent, GameTime gameTime)</text>
<text text-anchor="start" x="7.5" y="-209.8" font-family="Arial" font-size="8.00"># UpdateKeys (GameTime gameTime) virtual</text>
<text text-anchor="start" x="7.5" y="-199.8" font-family="Arial" font-size="8.00">+ Input (GameState state)</text>
</g>
<!-- Box_IKeyEventListener&#45;&gt;Box_Input -->
<g id="edge4" class="edge"><title>Box_IKeyEventListener&#45;&gt;Box_Input</title>
<path fill="none" stroke="midnightblue" d="M357.856,-460.66C336.589,-450.861 314.688,-439.795 295,-428 292.277,-426.369 289.548,-424.697 286.815,-422.988"/>
<polygon fill="none" stroke="midnightblue" points="356.695,-463.977 367.247,-464.926 359.59,-457.603 356.695,-463.977"/>
</g>
<!-- Box_PipeColoring -->
<g id="node4" class="node"><title>Box_PipeColoring</title>
<polygon fill="#fcfcda" stroke="black" points="303.5,-263 303.5,-357 590.5,-357 590.5,-263 303.5,-263"/>
<text text-anchor="middle" x="447" y="-345.8" font-family="Arial" font-size="8.00">PipeColoring</text>
<polyline fill="none" stroke="black" points="303.5,-339 590.5,-339 "/>
<text text-anchor="start" x="311.5" y="-327.8" font-family="Arial" font-size="8.00">+ ValidKeys : List&lt;Keys&gt;</text>
<text text-anchor="start" x="311.5" y="-317.8" font-family="Arial" font-size="8.00">+ Knot : Knot</text>
<text text-anchor="start" x="311.5" y="-307.8" font-family="Arial" font-size="8.00">+ IsKeyEventEnabled : bool</text>
<polyline fill="none" stroke="black" points="303.5,-301 590.5,-301 "/>
<text text-anchor="start" x="311.5" y="-289.8" font-family="Arial" font-size="8.00">+ OnKeyEvent (List&lt;Keys&gt; key, KeyEvent keyEvent, GameTime gameTime)</text>
<text text-anchor="start" x="311.5" y="-279.8" font-family="Arial" font-size="8.00">+ PipeColoring (GameState state)</text>
<text text-anchor="start" x="311.5" y="-269.8" font-family="Arial" font-size="8.00">+ Update (GameTime gameTime)</text>
</g>
<!-- Box_IKeyEventListener&#45;&gt;Box_PipeColoring -->
<g id="edge10" class="edge"><title>Box_IKeyEventListener&#45;&gt;Box_PipeColoring</title>
<path fill="none" stroke="midnightblue" d="M457.562,-454.846C455.393,-425.11 452.604,-386.852 450.436,-357.122"/>
<polygon fill="none" stroke="midnightblue" points="454.083,-455.262 458.301,-464.98 461.064,-454.752 454.083,-455.262"/>
</g>
<!-- Box_MenuItem -->
<g id="node5" class="node"><title>Box_MenuItem</title>
<polygon fill="#fcfcda" stroke="black" points="608,-218 608,-402 940,-402 940,-218 608,-218"/>
<text text-anchor="middle" x="774" y="-390.8" font-family="Arial" font-size="8.00">MenuItem</text>
<polyline fill="none" stroke="black" points="608,-384 940,-384 "/>
<text text-anchor="start" x="616" y="-372.8" font-family="Arial" font-size="8.00"># spriteBatch : SpriteBatch</text>
<text text-anchor="start" x="616" y="-362.8" font-family="Arial" font-size="8.00">+ IsMouseEventEnabled : bool</text>
<text text-anchor="start" x="616" y="-352.8" font-family="Arial" font-size="8.00">+ ValidKeys : List&lt;Keys&gt;</text>
<text text-anchor="start" x="616" y="-342.8" font-family="Arial" font-size="8.00">+ IsKeyEventEnabled : bool</text>
<text text-anchor="start" x="616" y="-332.8" font-family="Arial" font-size="8.00">+ Info : MenuItemInfo</text>
<polyline fill="none" stroke="black" points="608,-326 940,-326 "/>
<text text-anchor="start" x="616" y="-314.8" font-family="Arial" font-size="8.00">+ MenuItem (GameState state, DisplayLayer drawOrder, int itemNum, MenuItemInfo info)</text>
<text text-anchor="start" x="616" y="-304.8" font-family="Arial" font-size="8.00">+ Collapse () virtual</text>
<text text-anchor="start" x="616" y="-294.8" font-family="Arial" font-size="8.00">+ OnKeyEvent (List&lt;Keys&gt; key, KeyEvent keyEvent, GameTime gameTime)</text>
<text text-anchor="start" x="616" y="-284.8" font-family="Arial" font-size="8.00">+ OnLeftClick (Vector2 position, ClickState click, GameTime gameTime)</text>
<text text-anchor="start" x="616" y="-274.8" font-family="Arial" font-size="8.00">+ OnRightClick (Vector2 position, ClickState click, GameTime gameTime)</text>
<text text-anchor="start" x="616" y="-264.8" font-family="Arial" font-size="8.00">+ MinimumSize (SpriteFont font) : Vector2</text>
<text text-anchor="start" x="616" y="-254.8" font-family="Arial" font-size="8.00">+ TextPosition (SpriteFont font) : Vector2</text>
<text text-anchor="start" x="616" y="-244.8" font-family="Arial" font-size="8.00">+ TextPosition (SpriteFont font, Vector2 scale) : Vector2</text>
<text text-anchor="start" x="616" y="-234.8" font-family="Arial" font-size="8.00">+ Draw (GameTime gameTime)</text>
<text text-anchor="start" x="616" y="-224.8" font-family="Arial" font-size="8.00">+ SetHovered (bool hovered)</text>
</g>
<!-- Box_IKeyEventListener&#45;&gt;Box_MenuItem -->
<g id="edge16" class="edge"><title>Box_IKeyEventListener&#45;&gt;Box_MenuItem</title>
<path fill="none" stroke="midnightblue" d="M542.26,-460.188C561.094,-450.013 580.913,-438.909 599,-428 612.492,-419.862 626.39,-411.129 640.175,-402.23"/>
<polygon fill="none" stroke="midnightblue" points="540.55,-457.133 533.396,-464.948 543.862,-463.3 540.55,-457.133"/>
</g>
<!-- Box_TextInput -->
<g id="node8" class="node"><title>Box_TextInput</title>
<polygon fill="#fcfcda" stroke="black" points="957.5,-248 957.5,-372 1244.5,-372 1244.5,-248 957.5,-248"/>
<text text-anchor="middle" x="1101" y="-360.8" font-family="Arial" font-size="8.00">TextInput</text>
<polyline fill="none" stroke="black" points="957.5,-354 1244.5,-354 "/>
<text text-anchor="start" x="965.5" y="-342.8" font-family="Arial" font-size="8.00">&#45; font : SpriteFont</text>
<text text-anchor="start" x="965.5" y="-332.8" font-family="Arial" font-size="8.00"># spriteBatch : SpriteBatch</text>
<text text-anchor="start" x="965.5" y="-322.8" font-family="Arial" font-size="8.00">+ IsKeyEventEnabled : bool</text>
<text text-anchor="start" x="965.5" y="-312.8" font-family="Arial" font-size="8.00">+ ValidKeys : List&lt;Keys&gt;</text>
<text text-anchor="start" x="965.5" y="-302.8" font-family="Arial" font-size="8.00">+ InputText : string</text>
<polyline fill="none" stroke="black" points="957.5,-296 1244.5,-296 "/>
<text text-anchor="start" x="965.5" y="-284.8" font-family="Arial" font-size="8.00">+ TextInput (GameState state, WidgetInfo info, DisplayLayer drawOrder)</text>
<text text-anchor="start" x="965.5" y="-274.8" font-family="Arial" font-size="8.00">+ Draw (GameTime gameTime)</text>
<text text-anchor="start" x="965.5" y="-264.8" font-family="Arial" font-size="8.00">+ OnKeyEvent (List&lt;Keys&gt; key, KeyEvent keyEvent, GameTime gameTime)</text>
<text text-anchor="start" x="965.5" y="-254.8" font-family="Arial" font-size="8.00">+ Update (GameTime gameTime)</text>
</g>
<!-- Box_IKeyEventListener&#45;&gt;Box_TextInput -->
<g id="edge24" class="edge"><title>Box_IKeyEventListener&#45;&gt;Box_TextInput</title>
<path fill="none" stroke="midnightblue" d="M614.479,-473.599C634.149,-470.221 654.033,-466.935 673,-464 795.251,-445.082 834.816,-475.594 949,-428 980.607,-414.826 1011.27,-393.284 1036.68,-372.188"/>
<polygon fill="none" stroke="midnightblue" points="613.791,-470.166 604.533,-475.317 614.983,-477.063 613.791,-470.166"/>
</g>
<!-- Box_MenuScreenInput -->
<g id="node3" class="node"><title>Box_MenuScreenInput</title>
<polygon fill="#fcfcda" stroke="black" points="65.5,-51 65.5,-105 220.5,-105 220.5,-51 65.5,-51"/>
<text text-anchor="middle" x="143" y="-93.8" font-family="Arial" font-size="8.00">MenuScreenInput</text>
<polyline fill="none" stroke="black" points="65.5,-87 220.5,-87 "/>
<text text-anchor="middle" x="143" y="-75.8" font-family="Arial" font-size="8.00"> </text>
<polyline fill="none" stroke="black" points="65.5,-69 220.5,-69 "/>
<text text-anchor="start" x="73.5" y="-57.8" font-family="Arial" font-size="8.00">+ MenuScreenInput (GameState state)</text>
</g>
<!-- Box_Input&#45;&gt;Box_MenuScreenInput -->
<g id="edge6" class="edge"><title>Box_Input&#45;&gt;Box_MenuScreenInput</title>
<path fill="none" stroke="midnightblue" d="M143,-182.976C143,-153.55 143,-125.079 143,-105.23"/>
<polygon fill="none" stroke="midnightblue" points="139.5,-182.98 143,-192.98 146.5,-182.981 139.5,-182.98"/>
</g>
<!-- Box_DropDownMenu -->
<g id="node6" class="node"><title>Box_DropDownMenu</title>
<polygon fill="#fcfcda" stroke="black" points="778.5,-1 778.5,-155 1135.5,-155 1135.5,-1 778.5,-1"/>
<text text-anchor="middle" x="957" y="-143.8" font-family="Arial" font-size="8.00">DropDownMenu</text>
<polyline fill="none" stroke="black" points="778.5,-137 1135.5,-137 "/>
<text text-anchor="start" x="786.5" y="-125.8" font-family="Arial" font-size="8.00">&#45; selected : MenuButton</text>
<text text-anchor="start" x="786.5" y="-115.8" font-family="Arial" font-size="8.00">&#45; dropdown : VerticalMenu</text>
<polyline fill="none" stroke="black" points="778.5,-109 1135.5,-109 "/>
<text text-anchor="start" x="786.5" y="-97.8" font-family="Arial" font-size="8.00">&#45; ValuePosition (int dummy) : Vector2</text>
<text text-anchor="start" x="786.5" y="-87.8" font-family="Arial" font-size="8.00">+ DropDownMenu (GameState state, DisplayLayer drawOrder, int itemNum, MenuItemInfo info)</text>
<text text-anchor="start" x="786.5" y="-77.8" font-family="Arial" font-size="8.00">&#45; DropDownBackgroundColor (ItemState itemState) : Color</text>
<text text-anchor="start" x="786.5" y="-67.8" font-family="Arial" font-size="8.00">&#45; DropDownForegroundColor (ItemState itemState) : Color</text>
<text text-anchor="start" x="786.5" y="-57.8" font-family="Arial" font-size="8.00">&#45; ValueSize (int dummy) : Vector2</text>
<text text-anchor="start" x="786.5" y="-47.8" font-family="Arial" font-size="8.00">+ SubComponents (GameTime gameTime) : IEnumerable&lt;IGameStateComponent&gt;</text>
<text text-anchor="start" x="786.5" y="-37.8" font-family="Arial" font-size="8.00">+ Collapse ()</text>
<text text-anchor="start" x="786.5" y="-27.8" font-family="Arial" font-size="8.00">+ Draw (GameTime gameTime)</text>
<text text-anchor="start" x="786.5" y="-17.8" font-family="Arial" font-size="8.00">+ AddEntries (DistinctOptionInfo option)</text>
<text text-anchor="start" x="786.5" y="-7.8" font-family="Arial" font-size="8.00">+ AddEntries (DropDownMenuItem[] entries, DropDownMenuItem defaultEntry)</text>
</g>
<!-- Box_MenuItem&#45;&gt;Box_DropDownMenu -->
<g id="edge18" class="edge"><title>Box_MenuItem&#45;&gt;Box_DropDownMenu</title>
<path fill="none" stroke="midnightblue" d="M853.149,-209.658C867.502,-191.462 882.267,-172.743 895.998,-155.336"/>
<polygon fill="none" stroke="midnightblue" points="850.034,-207.955 846.589,-217.974 855.53,-212.29 850.034,-207.955"/>
</g>
<!-- Box_MenuButton -->
<g id="node7" class="node"><title>Box_MenuButton</title>
<polygon fill="#fcfcda" stroke="black" points="420.5,-51 420.5,-105 761.5,-105 761.5,-51 420.5,-51"/>
<text text-anchor="middle" x="591" y="-93.8" font-family="Arial" font-size="8.00">MenuButton</text>
<polyline fill="none" stroke="black" points="420.5,-87 761.5,-87 "/>
<text text-anchor="middle" x="591" y="-75.8" font-family="Arial" font-size="8.00"> </text>
<polyline fill="none" stroke="black" points="420.5,-69 761.5,-69 "/>
<text text-anchor="start" x="428.5" y="-57.8" font-family="Arial" font-size="8.00">+ MenuButton (GameState state, DisplayLayer drawOrder, int itemNum, MenuItemInfo info)</text>
</g>
<!-- Box_MenuItem&#45;&gt;Box_MenuButton -->
<g id="edge20" class="edge"><title>Box_MenuItem&#45;&gt;Box_MenuButton</title>
<path fill="none" stroke="midnightblue" d="M695.011,-209.861C664.869,-171.648 632.88,-131.093 612.463,-105.21"/>
<polygon fill="none" stroke="midnightblue" points="692.47,-212.29 701.411,-217.974 697.966,-207.955 692.47,-212.29"/>
</g>
<!-- Box_GameStateComponent -->
<g id="node9" class="node"><title>Box_GameStateComponent</title>
<polygon fill="#ffffff" stroke="black" points="141.5,-493 141.5,-511 238.5,-511 238.5,-493 141.5,-493"/>
<text text-anchor="middle" x="190" y="-499.8" font-family="Arial" font-size="8.00">GameStateComponent</text>
</g>
<!-- Box_GameStateComponent&#45;&gt;Box_Input -->
<g id="edge2" class="edge"><title>Box_GameStateComponent&#45;&gt;Box_Input</title>
<path fill="none" stroke="midnightblue" d="M185.416,-483.276C182.002,-469.327 177.021,-448.979 171.663,-427.091"/>
<polygon fill="none" stroke="midnightblue" points="182.019,-484.116 187.796,-492.997 188.818,-482.452 182.019,-484.116"/>
</g>
<!-- Box_GameStateComponent&#45;&gt;Box_PipeColoring -->
<g id="edge8" class="edge"><title>Box_GameStateComponent&#45;&gt;Box_PipeColoring</title>
<path fill="none" stroke="midnightblue" d="M211.776,-487.089C233.158,-472.345 266.607,-449.008 295,-428 325.883,-405.148 359.693,-379.016 387.568,-357.161"/>
<polygon fill="none" stroke="midnightblue" points="209.656,-484.299 203.401,-492.849 213.623,-490.066 209.656,-484.299"/>
</g>
<!-- Box_ItemWidget -->
<g id="node10" class="node"><title>Box_ItemWidget</title>
<polygon fill="#ffffff" stroke="black" points="792,-493 792,-511 848,-511 848,-493 792,-493"/>
<text text-anchor="middle" x="820" y="-499.8" font-family="Arial" font-size="8.00">ItemWidget</text>
</g>
<!-- Box_ItemWidget&#45;&gt;Box_MenuItem -->
<g id="edge12" class="edge"><title>Box_ItemWidget&#45;&gt;Box_MenuItem</title>
<path fill="none" stroke="midnightblue" d="M815.499,-483.211C810.914,-464.076 803.455,-432.944 796.117,-402.313"/>
<polygon fill="none" stroke="midnightblue" points="812.109,-484.088 817.843,-492.997 818.917,-482.457 812.109,-484.088"/>
</g>
<!-- Box_IMouseEventListener -->
<g id="node11" class="node"><title>Box_IMouseEventListener</title>
<polygon fill="#ffffff" stroke="black" points="682,-493 682,-511 774,-511 774,-493 682,-493"/>
<text text-anchor="middle" x="728" y="-499.8" font-family="Arial" font-size="8.00">IMouseEventListener</text>
</g>
<!-- Box_IMouseEventListener&#45;&gt;Box_MenuItem -->
<g id="edge14" class="edge"><title>Box_IMouseEventListener&#45;&gt;Box_MenuItem</title>
<path fill="none" stroke="midnightblue" d="M732.501,-483.211C737.086,-464.076 744.545,-432.944 751.883,-402.313"/>
<polygon fill="none" stroke="midnightblue" points="729.083,-482.457 730.157,-492.997 735.891,-484.088 729.083,-482.457"/>
</g>
<!-- Box_Widget -->
<g id="node12" class="node"><title>Box_Widget</title>
<polygon fill="#ffffff" stroke="black" points="1080.5,-493 1080.5,-511 1121.5,-511 1121.5,-493 1080.5,-493"/>
<text text-anchor="middle" x="1101" y="-499.8" font-family="Arial" font-size="8.00">Widget</text>
</g>
<!-- Box_Widget&#45;&gt;Box_TextInput -->
<g id="edge22" class="edge"><title>Box_Widget&#45;&gt;Box_TextInput</title>
<path fill="none" stroke="midnightblue" d="M1101,-482.802C1101,-457.168 1101,-410.537 1101,-372.171"/>
<polygon fill="none" stroke="midnightblue" points="1097.5,-482.997 1101,-492.997 1104.5,-482.997 1097.5,-482.997"/>
</g>
</g>
</svg>
