<?xml version="1.0" encoding="UTF-8" standalone="no"?>
<!DOCTYPE svg PUBLIC "-//W3C//DTD SVG 1.1//EN"
 "http://www.w3.org/Graphics/SVG/1.1/DTD/svg11.dtd">
<!-- Generated by graphviz version 2.26.3 (20100126.1600)
 -->
<!-- Title: MenuItem Pages: 1 -->
<svg width="350pt" height="386pt"
 viewBox="0.00 0.00 350.00 386.00" xmlns="http://www.w3.org/2000/svg" xmlns:xlink="http://www.w3.org/1999/xlink">
<g id="graph1" class="graph" transform="scale(1 1) rotate(0) translate(4 382)">
<title>MenuItem</title>
<polygon fill="white" stroke="white" points="-4,5 -4,-382 347,-382 347,5 -4,5"/>
<!-- Box_EdgeMovement -->
<g id="node1" class="node"><title>Box_EdgeMovement</title>
<polygon fill="#fcfcda" stroke="black" points="0,-1 0,-245 342,-245 342,-1 0,-1"/>
<text text-anchor="middle" x="171" y="-233.8" font-family="Arial" font-size="8.00">EdgeMovement</text>
<polyline fill="none" stroke="black" points="0,-227 342,-227 "/>
<text text-anchor="start" x="8" y="-215.8" font-family="Arial" font-size="8.00">&#45; shadowObjects : List&lt;ShadowGameObject&gt;</text>
<text text-anchor="start" x="8" y="-205.8" font-family="Arial" font-size="8.00">+ World : World</text>
<text text-anchor="start" x="8" y="-195.8" font-family="Arial" font-size="8.00">&#45; screen : GameScreen</text>
<text text-anchor="start" x="8" y="-185.8" font-family="Arial" font-size="8.00">&#45; previousMousePosition : Vector3</text>
<text text-anchor="start" x="8" y="-175.8" font-family="Arial" font-size="8.00">+ Info : GameObjectInfo</text>
<text text-anchor="start" x="8" y="-165.8" font-family="Arial" font-size="8.00">+ Knot : Knot</text>
<polyline fill="none" stroke="black" points="0,-159 342,-159 "/>
<text text-anchor="start" x="8" y="-147.8" font-family="Arial" font-size="8.00">&#45; IEnumerable.GetEnumerator () : IEnumerator</text>
<text text-anchor="start" x="8" y="-137.8" font-family="Arial" font-size="8.00">&#45; MovePipes (Vector3 currentMousePosition)</text>
<text text-anchor="start" x="8" y="-127.8" font-family="Arial" font-size="8.00">&#45; MoveShadowPipes (Vector3 currentMousePosition)</text>
<text text-anchor="start" x="8" y="-117.8" font-family="Arial" font-size="8.00">+ EdgeMovement (GameScreen screen, World world, GameObjectInfo info)</text>
<text text-anchor="start" x="8" y="-107.8" font-family="Arial" font-size="8.00">+ Intersects (Ray ray) : GameObjectDistance</text>
<text text-anchor="start" x="8" y="-97.8" font-family="Arial" font-size="8.00">+ GetEnumerator () : IEnumerator&lt;IGameObject&gt;</text>
<text text-anchor="start" x="8" y="-87.8" font-family="Arial" font-size="8.00">+ Draw (GameTime time)</text>
<text text-anchor="start" x="8" y="-77.8" font-family="Arial" font-size="8.00">+ Update (GameTime time)</text>
<text text-anchor="start" x="8" y="-67.8" font-family="Arial" font-size="8.00">&#45; ComputeDirection (Vector3 currentMousePosition, out Direction direction, out float count)</text>
<text text-anchor="start" x="8" y="-57.8" font-family="Arial" font-size="8.00">&#45; ComputeDirection (Vector3 currentMousePosition, out Direction direction, out int countInt)</text>
<text text-anchor="start" x="8" y="-47.8" font-family="Arial" font-size="8.00">&#45; CreateShadowPipes ()</text>
<text text-anchor="start" x="8" y="-37.8" font-family="Arial" font-size="8.00">&#45; MoveShadowPipes (Vector3 currentMousePosition, Vector3 direction3D)</text>
<text text-anchor="start" x="8" y="-27.8" font-family="Arial" font-size="8.00">&#45; TryMovePipes (GameTime time)</text>
<text text-anchor="start" x="8" y="-17.8" font-family="Arial" font-size="8.00">&#45; TrySelectObject (GameTime time)</text>
<text text-anchor="start" x="8" y="-7.8" font-family="Arial" font-size="8.00">+ Center () : Vector3</text>
</g>
<!-- Box_IGameObject -->
<g id="node2" class="node"><title>Box_IGameObject</title>
<polygon fill="#dafcda" stroke="black" points="-0.5,-283 -0.5,-377 178.5,-377 178.5,-283 -0.5,-283"/>
<text text-anchor="middle" x="89" y="-365.8" font-family="Arial" font-size="8.00">IGameObject</text>
<polyline fill="none" stroke="black" points="-0.5,-359 178.5,-359 "/>
<text text-anchor="start" x="7.5" y="-347.8" font-family="Arial" font-size="8.00">+ Info : GameObjectInfo</text>
<text text-anchor="start" x="7.5" y="-337.8" font-family="Arial" font-size="8.00">+ World : World</text>
<polyline fill="none" stroke="black" points="-0.5,-331 178.5,-331 "/>
<text text-anchor="start" x="7.5" y="-319.8" font-family="Arial" font-size="8.00">+ Draw (GameTime time)</text>
<text text-anchor="start" x="7.5" y="-309.8" font-family="Arial" font-size="8.00">+ Update (GameTime time)</text>
<text text-anchor="start" x="7.5" y="-299.8" font-family="Arial" font-size="8.00">+ Intersects (Ray ray) : GameObjectDistance</text>
<text text-anchor="start" x="7.5" y="-289.8" font-family="Arial" font-size="8.00">+ Center () : Vector3</text>
</g>
<!-- Box_IGameObject&#45;&gt;Box_EdgeMovement -->
<g id="edge2" class="edge"><title>Box_IGameObject&#45;&gt;Box_EdgeMovement</title>
<path fill="none" stroke="midnightblue" d="M111.43,-273.378C114.948,-264.497 118.698,-255.032 122.537,-245.339"/>
<polygon fill="none" stroke="midnightblue" points="108.139,-272.183 107.71,-282.769 114.647,-274.761 108.139,-272.183"/>
</g>
<!-- Box_IEnumerable -->
<g id="node3" class="node"><title>Box_IEnumerable</title>
<polygon fill="#ffffff" stroke="black" points="195.5,-321 195.5,-339 310.5,-339 310.5,-321 195.5,-321"/>
<text text-anchor="middle" x="253" y="-327.8" font-family="Arial" font-size="8.00">IEnumerable&lt;IGameObject&gt;</text>
</g>
<!-- Box_IEnumerable&#45;&gt;Box_EdgeMovement -->
<g id="edge4" class="edge"><title>Box_IEnumerable&#45;&gt;Box_EdgeMovement</title>
<path fill="none" stroke="midnightblue" d="M245.573,-311.251C239.27,-295.341 229.635,-271.018 219.363,-245.086"/>
<polygon fill="none" stroke="midnightblue" points="242.434,-312.83 249.371,-320.838 248.942,-310.252 242.434,-312.83"/>
</g>
</g>
</svg>
