<?xml version="1.0" encoding="UTF-8" standalone="no"?>
<!DOCTYPE svg PUBLIC "-//W3C//DTD SVG 1.1//EN"
 "http://www.w3.org/Graphics/SVG/1.1/DTD/svg11.dtd">
<!-- Generated by graphviz version 2.26.3 (20100126.1600)
 -->
<!-- Title: MenuItem Pages: 1 -->
<svg width="474pt" height="456pt"
 viewBox="0.00 0.00 474.00 456.00" xmlns="http://www.w3.org/2000/svg" xmlns:xlink="http://www.w3.org/1999/xlink">
<g id="graph1" class="graph" transform="scale(1 1) rotate(0) translate(4 452)">
<title>MenuItem</title>
<polygon fill="white" stroke="white" points="-4,5 -4,-452 471,-452 471,5 -4,5"/>
<!-- Box_MousePointer -->
<g id="node1" class="node"><title>Box_MousePointer</title>
<polygon fill="#fcfcda" stroke="black" points="202.5,-1 202.5,-109 357.5,-109 357.5,-1 202.5,-1"/>
<text text-anchor="middle" x="280" y="-97.8" font-family="Helvetica,sans-Serif" font-size="8.00">MousePointer</text>
<polyline fill="none" stroke="black" points="202.5,-89 357.5,-89 "/>
<text text-anchor="start" x="210.5" y="-77.8" font-family="Helvetica,sans-Serif" font-size="8.00">Attributes:</text>
<text text-anchor="start" x="210.5" y="-65.8" font-family="Helvetica,sans-Serif" font-size="8.00">&#45; spriteBatch : SpriteBatch</text>
<text text-anchor="start" x="210.5" y="-53.8" font-family="Helvetica,sans-Serif" font-size="8.00">Methods:</text>
<polyline fill="none" stroke="black" points="202.5,-45 357.5,-45 "/>
<text text-anchor="start" x="210.5" y="-33.8" font-family="Helvetica,sans-Serif" font-size="8.00">+ MousePointer (GameState state)</text>
<text text-anchor="start" x="210.5" y="-21.8" font-family="Helvetica,sans-Serif" font-size="8.00">&#45; DrawCursor (GameTime gameTime)</text>
<text text-anchor="start" x="210.5" y="-9.8" font-family="Helvetica,sans-Serif" font-size="8.00">+ Draw (GameTime gameTime)</text>
</g>
<!-- Box_DrawableGameStateComponent -->
<g id="node2" class="node"><title>Box_DrawableGameStateComponent</title>
<polygon fill="#fcfcda" stroke="black" points="109.5,-147 109.5,-267 450.5,-267 450.5,-147 109.5,-147"/>
<text text-anchor="middle" x="280" y="-255.8" font-family="Helvetica,sans-Serif" font-size="8.00">DrawableGameStateComponent</text>
<polyline fill="none" stroke="black" points="109.5,-247 450.5,-247 "/>
<text text-anchor="start" x="117.5" y="-235.8" font-family="Helvetica,sans-Serif" font-size="8.00">Attributes:</text>
<text text-anchor="start" x="117.5" y="-223.8" font-family="Helvetica,sans-Serif" font-size="8.00">+ Index : DisplayLayer</text>
<text text-anchor="start" x="117.5" y="-211.8" font-family="Helvetica,sans-Serif" font-size="8.00">&#45; _index : DisplayLayer</text>
<text text-anchor="start" x="117.5" y="-199.8" font-family="Helvetica,sans-Serif" font-size="8.00">+ state : GameState</text>
<text text-anchor="start" x="117.5" y="-187.8" font-family="Helvetica,sans-Serif" font-size="8.00">Methods:</text>
<polyline fill="none" stroke="black" points="109.5,-179 450.5,-179 "/>
<text text-anchor="start" x="117.5" y="-167.8" font-family="Helvetica,sans-Serif" font-size="8.00">+ DrawableGameStateComponent (GameState state, DisplayLayer index)</text>
<text text-anchor="start" x="117.5" y="-155.8" font-family="Helvetica,sans-Serif" font-size="8.00">+ SubComponents (GameTime gameTime) : IEnumerable&lt;IGameStateComponent&gt; virtual</text>
</g>
<!-- Box_DrawableGameStateComponent&#45;&gt;Box_MousePointer -->
<g id="edge2" class="edge"><title>Box_DrawableGameStateComponent&#45;&gt;Box_MousePointer</title>
<path fill="none" stroke="midnightblue" d="M280,-136.907C280,-127.607 280,-118.188 280,-109.212"/>
<polygon fill="none" stroke="midnightblue" points="276.5,-136.926 280,-146.926 283.5,-136.926 276.5,-136.926"/>
</g>
<!-- Box_IGameStateComponent -->
<g id="node3" class="node"><title>Box_IGameStateComponent</title>
<polygon fill="#dafcda" stroke="black" points="0,-305 0,-389 318,-389 318,-305 0,-305"/>
<text text-anchor="middle" x="159" y="-377.8" font-family="Helvetica,sans-Serif" font-size="8.00">IGameStateComponent</text>
<polyline fill="none" stroke="black" points="0,-369 318,-369 "/>
<text text-anchor="start" x="8" y="-357.8" font-family="Helvetica,sans-Serif" font-size="8.00">Attributes:</text>
<text text-anchor="start" x="8" y="-345.8" font-family="Helvetica,sans-Serif" font-size="8.00">+ Index : DisplayLayer</text>
<text text-anchor="start" x="8" y="-333.8" font-family="Helvetica,sans-Serif" font-size="8.00">Methods:</text>
<polyline fill="none" stroke="black" points="0,-325 318,-325 "/>
<text text-anchor="start" x="8" y="-313.8" font-family="Helvetica,sans-Serif" font-size="8.00">+ SubComponents (GameTime gameTime) : IEnumerable&lt;IGameStateComponent&gt;</text>
</g>
<!-- Box_IGameStateComponent&#45;&gt;Box_DrawableGameStateComponent -->
<g id="edge6" class="edge"><title>Box_IGameStateComponent&#45;&gt;Box_DrawableGameStateComponent</title>
<path fill="none" stroke="midnightblue" d="M201.959,-297.295C210.409,-287.519 219.358,-277.165 228.065,-267.09"/>
<polygon fill="none" stroke="midnightblue" points="199.195,-295.141 195.304,-304.995 204.491,-299.718 199.195,-295.141"/>
</g>
<!-- Box_XnaDrawableGameComponent -->
<g id="node4" class="node"><title>Box_XnaDrawableGameComponent</title>
<polygon fill="#ffffff" stroke="black" points="335.5,-337 335.5,-357 466.5,-357 466.5,-337 335.5,-337"/>
<text text-anchor="middle" x="401" y="-345.8" font-family="Helvetica,sans-Serif" font-size="8.00">Xna.DrawableGameComponent</text>
</g>
<!-- Box_XnaDrawableGameComponent&#45;&gt;Box_DrawableGameStateComponent -->
<g id="edge4" class="edge"><title>Box_XnaDrawableGameComponent&#45;&gt;Box_DrawableGameStateComponent</title>
<path fill="none" stroke="midnightblue" d="M385.504,-329.071C371.886,-313.314 351.268,-289.459 331.861,-267.004"/>
<polygon fill="none" stroke="midnightblue" points="383.111,-331.654 392.298,-336.932 388.407,-327.077 383.111,-331.654"/>
</g>
<!-- Box_XnaIGameComponent -->
<g id="node5" class="node"><title>Box_XnaIGameComponent</title>
<polygon fill="#ffffff" stroke="black" points="109.5,-427 109.5,-447 208.5,-447 208.5,-427 109.5,-427"/>
<text text-anchor="middle" x="159" y="-435.8" font-family="Helvetica,sans-Serif" font-size="8.00">Xna.IGameComponent</text>
</g>
<!-- Box_XnaIGameComponent&#45;&gt;Box_IGameStateComponent -->
<g id="edge8" class="edge"><title>Box_XnaIGameComponent&#45;&gt;Box_IGameStateComponent</title>
<path fill="none" stroke="midnightblue" d="M159,-416.454C159,-408.393 159,-398.828 159,-389.414"/>
<polygon fill="none" stroke="midnightblue" points="155.5,-416.676 159,-426.676 162.5,-416.676 155.5,-416.676"/>
</g>
</g>
</svg>
