<?xml version="1.0" encoding="UTF-8" standalone="no"?>
<!DOCTYPE svg PUBLIC "-//W3C//DTD SVG 1.1//EN"
 "http://www.w3.org/Graphics/SVG/1.1/DTD/svg11.dtd">
<!-- Generated by graphviz version 2.26.3 (20100126.1600)
 -->
<!-- Title: MenuItem Pages: 1 -->
<svg width="1937pt" height="3283pt"
 viewBox="0.00 0.00 465.00 788.00" xmlns="http://www.w3.org/2000/svg" xmlns:xlink="http://www.w3.org/1999/xlink">
<g id="graph1" class="graph" transform="scale(4.16667 4.16667) rotate(0) translate(4 784)">
<title>MenuItem</title>
<polygon fill="white" stroke="white" points="-4,5 -4,-784 462,-784 462,5 -4,5"/>
<!-- Box_VerticalMenu -->
<g id="node1" class="node"><title>Box_VerticalMenu</title>
<polygon fill="#fcfcda" stroke="black" points="75,-1 75,-125 445,-125 445,-1 75,-1"/>
<text text-anchor="middle" x="260" y="-113.8" font-family="Arial" font-size="8.00">VerticalMenu</text>
<polyline fill="none" stroke="black" points="75,-107 445,-107 "/>
<text text-anchor="start" x="83" y="-95.8" font-family="Arial" font-size="8.00"># spriteBatch : SpriteBatch</text>
<text text-anchor="start" x="83" y="-85.8" font-family="Arial" font-size="8.00">+ Border : Border</text>
<polyline fill="none" stroke="black" points="75,-79 445,-79 "/>
<text text-anchor="start" x="83" y="-67.8" font-family="Arial" font-size="8.00">+ VerticalMenu (GameScreen screen, WidgetInfo info, DisplayLayer drawOrder)</text>
<text text-anchor="start" x="83" y="-57.8" font-family="Arial" font-size="8.00">+ Align (Viewport viewport, float scale, int posX, int posY, int? sizeX)</text>
<text text-anchor="start" x="83" y="-47.8" font-family="Arial" font-size="8.00">+ AddButton (MenuItemInfo info) : MenuButton</text>
<text text-anchor="start" x="83" y="-37.8" font-family="Arial" font-size="8.00">+ AddDropDown (MenuItemInfo info, DistinctOptionInfo option)</text>
<text text-anchor="start" x="83" y="-27.8" font-family="Arial" font-size="8.00">+ AddDropDown (MenuItemInfo info, DropDownMenuItem[] items, DropDownMenuItem defaultItem)</text>
<text text-anchor="start" x="83" y="-17.8" font-family="Arial" font-size="8.00">+ Draw (GameTime time)</text>
<text text-anchor="start" x="83" y="-7.8" font-family="Arial" font-size="8.00">+ Align (Viewport viewport, float scale, Vector2? givenPosition)</text>
</g>
<!-- Box_Menu -->
<g id="node2" class="node"><title>Box_Menu</title>
<polygon fill="#fcfcda" stroke="black" points="63,-163 63,-397 457,-397 457,-163 63,-163"/>
<text text-anchor="middle" x="260" y="-385.8" font-family="Arial" font-size="8.00">Menu</text>
<polyline fill="none" stroke="black" points="63,-379 457,-379 "/>
<text text-anchor="start" x="71" y="-367.8" font-family="Arial" font-size="8.00">&#45; isVisible : bool</text>
<text text-anchor="start" x="71" y="-357.8" font-family="Arial" font-size="8.00"># Items : List&lt;MenuItem&gt;</text>
<text text-anchor="start" x="71" y="-347.8" font-family="Arial" font-size="8.00">+ Color&gt; ItemBackgroundColor : Func&lt;ItemState,</text>
<text text-anchor="start" x="71" y="-337.8" font-family="Arial" font-size="8.00">+ Color&gt; ItemForegroundColor : Func&lt;ItemState,</text>
<text text-anchor="start" x="71" y="-327.8" font-family="Arial" font-size="8.00">+ Vector2&gt; RelativeItemPosition : Func&lt;int,</text>
<text text-anchor="start" x="71" y="-317.8" font-family="Arial" font-size="8.00">+ ItemAlignX : HAlign?</text>
<text text-anchor="start" x="71" y="-307.8" font-family="Arial" font-size="8.00">+ ItemAlignY : VAlign?</text>
<text text-anchor="start" x="71" y="-297.8" font-family="Arial" font-size="8.00">+ Count : int</text>
<text text-anchor="start" x="71" y="-287.8" font-family="Arial" font-size="8.00">+ IsVisible : bool</text>
<text text-anchor="start" x="71" y="-277.8" font-family="Arial" font-size="8.00">&#45; ItemDisplayLayer : DisplayLayer</text>
<text text-anchor="start" x="71" y="-267.8" font-family="Arial" font-size="8.00">+ Vector2&gt; RelativeItemSize : Func&lt;int,</text>
<polyline fill="none" stroke="black" points="63,-261 457,-261 "/>
<text text-anchor="start" x="71" y="-249.8" font-family="Arial" font-size="8.00">&#45; assignMenuItemInfo (ref MenuItemInfo info, int num, MenuItem item)</text>
<text text-anchor="start" x="71" y="-239.8" font-family="Arial" font-size="8.00">+ Menu (GameScreen screen, WidgetInfo info, DisplayLayer drawOrder)</text>
<text text-anchor="start" x="71" y="-229.8" font-family="Arial" font-size="8.00">+ this (int i) : MenuItem</text>
<text text-anchor="start" x="71" y="-219.8" font-family="Arial" font-size="8.00">+ SubComponents (GameTime time) : IEnumerable&lt;IGameScreenComponent&gt;</text>
<text text-anchor="start" x="71" y="-209.8" font-family="Arial" font-size="8.00">+ CollapseMenus (MenuItem menu)</text>
<text text-anchor="start" x="71" y="-199.8" font-family="Arial" font-size="8.00">+ AddButton (MenuItemInfo info) : MenuButton virtual</text>
<text text-anchor="start" x="71" y="-189.8" font-family="Arial" font-size="8.00">+ AddDropDown (MenuItemInfo info, DistinctOptionInfo option) virtual</text>
<text text-anchor="start" x="71" y="-179.8" font-family="Arial" font-size="8.00">+ AddDropDown (MenuItemInfo info, DropDownMenuItem[] items, DropDownMenuItem defaultItem) virtual</text>
<text text-anchor="start" x="71" y="-169.8" font-family="Arial" font-size="8.00">+ Clear ()</text>
</g>
<!-- Box_Menu&#45;&gt;Box_VerticalMenu -->
<g id="edge2" class="edge"><title>Box_Menu&#45;&gt;Box_VerticalMenu</title>
<path fill="none" stroke="midnightblue" d="M260,-152.908C260,-143.351 260,-133.993 260,-125.141"/>
<polygon fill="none" stroke="midnightblue" points="256.5,-152.925 260,-162.925 263.5,-152.925 256.5,-152.925"/>
</g>
<!-- Box_Widget -->
<g id="node3" class="node"><title>Box_Widget</title>
<polygon fill="#fcfcda" stroke="black" points="118,-435 118,-509 402,-509 402,-435 118,-435"/>
<text text-anchor="middle" x="260" y="-497.8" font-family="Arial" font-size="8.00">Widget</text>
<polyline fill="none" stroke="black" points="118,-491 402,-491 "/>
<text text-anchor="start" x="126" y="-479.8" font-family="Arial" font-size="8.00">+ Info : WidgetInfo</text>
<text text-anchor="start" x="126" y="-469.8" font-family="Arial" font-size="8.00">+ IsVisible : bool virtual</text>
<polyline fill="none" stroke="black" points="118,-463 402,-463 "/>
<text text-anchor="start" x="126" y="-451.8" font-family="Arial" font-size="8.00">+ bounds () : Rectangle</text>
<text text-anchor="start" x="126" y="-441.8" font-family="Arial" font-size="8.00">+ Widget (GameScreen screen, WidgetInfo info, DisplayLayer drawOrder)</text>
</g>
<!-- Box_Widget&#45;&gt;Box_Menu -->
<g id="edge4" class="edge"><title>Box_Widget&#45;&gt;Box_Menu</title>
<path fill="none" stroke="midnightblue" d="M260,-424.835C260,-416.203 260,-406.852 260,-397.201"/>
<polygon fill="none" stroke="midnightblue" points="256.5,-424.98 260,-434.98 263.5,-424.981 256.5,-424.98"/>
</g>
<!-- Box_DrawableGameScreenComponent -->
<g id="node4" class="node"><title>Box_DrawableGameScreenComponent</title>
<polygon fill="#fcfcda" stroke="black" points="101.5,-547 101.5,-631 418.5,-631 418.5,-547 101.5,-547"/>
<text text-anchor="middle" x="260" y="-619.8" font-family="Arial" font-size="8.00">DrawableGameScreenComponent</text>
<polyline fill="none" stroke="black" points="101.5,-613 418.5,-613 "/>
<text text-anchor="start" x="109.5" y="-601.8" font-family="Arial" font-size="8.00">+ Index : DisplayLayer</text>
<text text-anchor="start" x="109.5" y="-591.8" font-family="Arial" font-size="8.00">&#45; _index : DisplayLayer</text>
<text text-anchor="start" x="109.5" y="-581.8" font-family="Arial" font-size="8.00">+ screen : GameScreen</text>
<polyline fill="none" stroke="black" points="101.5,-575 418.5,-575 "/>
<text text-anchor="start" x="109.5" y="-563.8" font-family="Arial" font-size="8.00">+ DrawableGameScreenComponent (GameScreen screen, DisplayLayer index)</text>
<text text-anchor="start" x="109.5" y="-553.8" font-family="Arial" font-size="8.00">+ SubComponents (GameTime time) : IEnumerable&lt;IGameScreenComponent&gt; virtual</text>
</g>
<!-- Box_DrawableGameScreenComponent&#45;&gt;Box_Widget -->
<g id="edge6" class="edge"><title>Box_DrawableGameScreenComponent&#45;&gt;Box_Widget</title>
<path fill="none" stroke="midnightblue" d="M260,-536.482C260,-527.258 260,-517.834 260,-509.14"/>
<polygon fill="none" stroke="midnightblue" points="256.5,-536.76 260,-546.76 263.5,-536.76 256.5,-536.76"/>
</g>
<!-- Box_IGameScreenComponent -->
<g id="node5" class="node"><title>Box_IGameScreenComponent</title>
<polygon fill="#dafcda" stroke="black" points="-0.5,-669 -0.5,-723 292.5,-723 292.5,-669 -0.5,-669"/>
<text text-anchor="middle" x="146" y="-711.8" font-family="Arial" font-size="8.00">IGameScreenComponent</text>
<polyline fill="none" stroke="black" points="-0.5,-705 292.5,-705 "/>
<text text-anchor="start" x="7.5" y="-693.8" font-family="Arial" font-size="8.00">+ Index : DisplayLayer</text>
<polyline fill="none" stroke="black" points="-0.5,-687 292.5,-687 "/>
<text text-anchor="start" x="7.5" y="-675.8" font-family="Arial" font-size="8.00">+ SubComponents (GameTime time) : IEnumerable&lt;IGameScreenComponent&gt;</text>
</g>
<!-- Box_IGameScreenComponent&#45;&gt;Box_DrawableGameScreenComponent -->
<g id="edge10" class="edge"><title>Box_IGameScreenComponent&#45;&gt;Box_DrawableGameScreenComponent</title>
<path fill="none" stroke="midnightblue" d="M182.116,-662.102C192.502,-652.354 203.961,-641.598 214.821,-631.404"/>
<polygon fill="none" stroke="midnightblue" points="179.663,-659.604 174.767,-668.999 184.454,-664.708 179.663,-659.604"/>
</g>
<!-- Box_XnaDrawableGameComponent -->
<g id="node6" class="node"><title>Box_XnaDrawableGameComponent</title>
<polygon fill="#ffffff" stroke="black" points="310,-687 310,-705 440,-705 440,-687 310,-687"/>
<text text-anchor="middle" x="375" y="-693.8" font-family="Arial" font-size="8.00">Xna.DrawableGameComponent</text>
</g>
<!-- Box_XnaDrawableGameComponent&#45;&gt;Box_DrawableGameScreenComponent -->
<g id="edge8" class="edge"><title>Box_XnaDrawableGameComponent&#45;&gt;Box_DrawableGameScreenComponent</title>
<path fill="none" stroke="midnightblue" d="M357.824,-680.018C343.966,-667.124 323.815,-648.376 305.399,-631.241"/>
<polygon fill="none" stroke="midnightblue" points="355.49,-682.628 365.195,-686.877 360.258,-677.503 355.49,-682.628"/>
</g>
<!-- Box_XnaIGameComponent -->
<g id="node7" class="node"><title>Box_XnaIGameComponent</title>
<polygon fill="#ffffff" stroke="black" points="98,-761 98,-779 194,-779 194,-761 98,-761"/>
<text text-anchor="middle" x="146" y="-767.8" font-family="Arial" font-size="8.00">Xna.IGameComponent</text>
</g>
<!-- Box_XnaIGameComponent&#45;&gt;Box_IGameScreenComponent -->
<g id="edge12" class="edge"><title>Box_XnaIGameComponent&#45;&gt;Box_IGameScreenComponent</title>
<path fill="none" stroke="midnightblue" d="M146,-750.64C146,-742.2 146,-732.16 146,-723.004"/>
<polygon fill="none" stroke="midnightblue" points="142.5,-750.926 146,-760.926 149.5,-750.926 142.5,-750.926"/>
</g>
</g>
</svg>
