<?xml version="1.0" encoding="UTF-8" standalone="no"?>
<!DOCTYPE svg PUBLIC "-//W3C//DTD SVG 1.1//EN"
 "http://www.w3.org/Graphics/SVG/1.1/DTD/svg11.dtd">
<!-- Generated by graphviz version 2.26.3 (20100126.1600)
 -->
<!-- Title: MenuItem Pages: 1 -->
<svg width="282pt" height="396pt"
 viewBox="0.00 0.00 282.00 396.00" xmlns="http://www.w3.org/2000/svg" xmlns:xlink="http://www.w3.org/1999/xlink">
<g id="graph1" class="graph" transform="scale(1 1) rotate(0) translate(4 392)">
<title>MenuItem</title>
<polygon fill="white" stroke="white" points="-4,5 -4,-392 279,-392 279,5 -4,5"/>
<!-- Box_TexturedRectangle -->
<g id="node1" class="node"><title>Box_TexturedRectangle</title>
<polygon fill="#fcfcda" stroke="black" points="-0.5,-1 -0.5,-255 274.5,-255 274.5,-1 -0.5,-1"/>
<text text-anchor="middle" x="137" y="-243.8" font-family="Arial" font-size="8.00">TexturedRectangle</text>
<polyline fill="none" stroke="black" points="-0.5,-237 274.5,-237 "/>
<text text-anchor="start" x="7.5" y="-225.8" font-family="Arial" font-size="8.00">&#45; IGameObject.Info : GameObjectInfo</text>
<text text-anchor="start" x="7.5" y="-215.8" font-family="Arial" font-size="8.00">&#45; basicEffect : BasicEffect</text>
<text text-anchor="start" x="7.5" y="-205.8" font-family="Arial" font-size="8.00">&#45; texture : Texture2D</text>
<text text-anchor="start" x="7.5" y="-195.8" font-family="Arial" font-size="8.00">&#45; LowerLeft : Vector3</text>
<text text-anchor="start" x="7.5" y="-185.8" font-family="Arial" font-size="8.00">&#45; LowerRight : Vector3</text>
<text text-anchor="start" x="7.5" y="-175.8" font-family="Arial" font-size="8.00">&#45; Normal : Vector3</text>
<text text-anchor="start" x="7.5" y="-165.8" font-family="Arial" font-size="8.00">&#45; UpperRight : Vector3</text>
<text text-anchor="start" x="7.5" y="-155.8" font-family="Arial" font-size="8.00">&#45; Vertices : VertexPositionNormalTexture[]</text>
<text text-anchor="start" x="7.5" y="-145.8" font-family="Arial" font-size="8.00">&#45; Indexes : short[]</text>
<text text-anchor="start" x="7.5" y="-135.8" font-family="Arial" font-size="8.00">+ Info : TexturedRectangleInfo</text>
<text text-anchor="start" x="7.5" y="-125.8" font-family="Arial" font-size="8.00">&#45; UpperLeft : Vector3</text>
<text text-anchor="start" x="7.5" y="-115.8" font-family="Arial" font-size="8.00"># screen : GameScreen</text>
<text text-anchor="start" x="7.5" y="-105.8" font-family="Arial" font-size="8.00">+ World : World</text>
<polyline fill="none" stroke="black" points="-0.5,-99 274.5,-99 "/>
<text text-anchor="start" x="7.5" y="-87.8" font-family="Arial" font-size="8.00">&#45; Length () : Vector3</text>
<text text-anchor="start" x="7.5" y="-77.8" font-family="Arial" font-size="8.00">&#45; FillVertices ()</text>
<text text-anchor="start" x="7.5" y="-67.8" font-family="Arial" font-size="8.00">+ Intersects (Ray ray) : GameObjectDistance</text>
<text text-anchor="start" x="7.5" y="-57.8" font-family="Arial" font-size="8.00">+ TexturedRectangle (GameScreen screen, TexturedRectangleInfo info)</text>
<text text-anchor="start" x="7.5" y="-47.8" font-family="Arial" font-size="8.00">+ Draw (GameTime time)</text>
<text text-anchor="start" x="7.5" y="-37.8" font-family="Arial" font-size="8.00"># SetPosition (Vector3 position)</text>
<text text-anchor="start" x="7.5" y="-27.8" font-family="Arial" font-size="8.00">+ Bounds () : BoundingBox[]</text>
<text text-anchor="start" x="7.5" y="-17.8" font-family="Arial" font-size="8.00">+ Center () : Vector3</text>
<text text-anchor="start" x="7.5" y="-7.8" font-family="Arial" font-size="8.00">+ Update (GameTime time)</text>
</g>
<!-- Box_IGameObject -->
<g id="node2" class="node"><title>Box_IGameObject</title>
<polygon fill="#dafcda" stroke="black" points="47.5,-293 47.5,-387 226.5,-387 226.5,-293 47.5,-293"/>
<text text-anchor="middle" x="137" y="-375.8" font-family="Arial" font-size="8.00">IGameObject</text>
<polyline fill="none" stroke="black" points="47.5,-369 226.5,-369 "/>
<text text-anchor="start" x="55.5" y="-357.8" font-family="Arial" font-size="8.00">+ Info : GameObjectInfo</text>
<text text-anchor="start" x="55.5" y="-347.8" font-family="Arial" font-size="8.00">+ World : World</text>
<polyline fill="none" stroke="black" points="47.5,-341 226.5,-341 "/>
<text text-anchor="start" x="55.5" y="-329.8" font-family="Arial" font-size="8.00">+ Draw (GameTime time)</text>
<text text-anchor="start" x="55.5" y="-319.8" font-family="Arial" font-size="8.00">+ Update (GameTime time)</text>
<text text-anchor="start" x="55.5" y="-309.8" font-family="Arial" font-size="8.00">+ Intersects (Ray ray) : GameObjectDistance</text>
<text text-anchor="start" x="55.5" y="-299.8" font-family="Arial" font-size="8.00">+ Center () : Vector3</text>
</g>
<!-- Box_IGameObject&#45;&gt;Box_TexturedRectangle -->
<g id="edge2" class="edge"><title>Box_IGameObject&#45;&gt;Box_TexturedRectangle</title>
<path fill="none" stroke="midnightblue" d="M137,-282.69C137,-274.035 137,-264.828 137,-255.384"/>
<polygon fill="none" stroke="midnightblue" points="133.5,-282.95 137,-292.95 140.5,-282.95 133.5,-282.95"/>
</g>
</g>
</svg>
