<?xml version="1.0" encoding="UTF-8" standalone="no"?>
<!DOCTYPE svg PUBLIC "-//W3C//DTD SVG 1.1//EN"
 "http://www.w3.org/Graphics/SVG/1.1/DTD/svg11.dtd">
<!-- Generated by graphviz version 2.26.3 (20100126.1600)
 -->
<!-- Title: MenuItem Pages: 1 -->
<svg width="392pt" height="260pt"
 viewBox="0.00 0.00 392.00 260.00" xmlns="http://www.w3.org/2000/svg" xmlns:xlink="http://www.w3.org/1999/xlink">
<g id="graph1" class="graph" transform="scale(1 1) rotate(0) translate(4 256)">
<title>MenuItem</title>
<polygon fill="white" stroke="white" points="-4,5 -4,-256 389,-256 389,5 -4,5"/>
<!-- Box_KeyHandler -->
<g id="node1" class="node"><title>Box_KeyHandler</title>
<polygon fill="#fcfcda" stroke="black" points="99,-1 99,-65 233,-65 233,-1 99,-1"/>
<text text-anchor="middle" x="166" y="-53.8" font-family="Arial" font-size="8.00">KeyHandler</text>
<polyline fill="none" stroke="black" points="99,-47 233,-47 "/>
<text text-anchor="start" x="107" y="-35.8" font-family="Arial" font-size="8.00">&#45; KeyEventComponent : class</text>
<polyline fill="none" stroke="black" points="99,-29 233,-29 "/>
<text text-anchor="start" x="107" y="-17.8" font-family="Arial" font-size="8.00">+ KeyHandler (GameState state)</text>
<text text-anchor="start" x="107" y="-7.8" font-family="Arial" font-size="8.00">+ Update (GameTime gameTime)</text>
</g>
<!-- Box_GameStateComponent -->
<g id="node2" class="node"><title>Box_GameStateComponent</title>
<polygon fill="#fcfcda" stroke="black" points="0,-103 0,-177 332,-177 332,-103 0,-103"/>
<text text-anchor="middle" x="166" y="-165.8" font-family="Arial" font-size="8.00">GameStateComponent</text>
<polyline fill="none" stroke="black" points="0,-159 332,-159 "/>
<text text-anchor="start" x="8" y="-147.8" font-family="Arial" font-size="8.00">+ Index : DisplayLayer</text>
<text text-anchor="start" x="8" y="-137.8" font-family="Arial" font-size="8.00">+ state : GameState</text>
<polyline fill="none" stroke="black" points="0,-131 332,-131 "/>
<text text-anchor="start" x="8" y="-119.8" font-family="Arial" font-size="8.00">+ GameStateComponent (GameState state, DisplayLayer index)</text>
<text text-anchor="start" x="8" y="-109.8" font-family="Arial" font-size="8.00">+ SubComponents (GameTime gameTime) : IEnumerable&lt;IGameStateComponent&gt; virtual</text>
</g>
<!-- Box_GameStateComponent&#45;&gt;Box_KeyHandler -->
<g id="edge2" class="edge"><title>Box_GameStateComponent&#45;&gt;Box_KeyHandler</title>
<path fill="none" stroke="midnightblue" d="M166,-92.8493C166,-83.4611 166,-73.8084 166,-65.0695"/>
<polygon fill="none" stroke="midnightblue" points="162.5,-92.8768 166,-102.877 169.5,-92.8769 162.5,-92.8768"/>
</g>
<!-- Box_XnaGameComponent -->
<g id="node3" class="node"><title>Box_XnaGameComponent</title>
<polygon fill="#ffffff" stroke="black" points="289.5,-224 289.5,-242 384.5,-242 384.5,-224 289.5,-224"/>
<text text-anchor="middle" x="337" y="-230.8" font-family="Arial" font-size="8.00">Xna.GameComponent</text>
</g>
<!-- Box_IGameStateComponent -->
<g id="node4" class="node"><title>Box_IGameStateComponent</title>
<polygon fill="#ffffff" stroke="black" points="60,-224 60,-242 158,-242 158,-224 60,-224"/>
<text text-anchor="middle" x="109" y="-230.8" font-family="Arial" font-size="8.00">IGameStateComponent</text>
</g>
<!-- Box_IGameStateComponent&#45;&gt;Box_GameStateComponent -->
<g id="edge6" class="edge"><title>Box_IGameStateComponent&#45;&gt;Box_GameStateComponent</title>
<path fill="none" stroke="midnightblue" d="M120.059,-214.956C126.617,-204.256 135.178,-190.289 143.129,-177.316"/>
<polygon fill="none" stroke="midnightblue" points="116.915,-213.388 114.674,-223.743 122.884,-217.046 116.915,-213.388"/>
</g>
<!-- Box_GameComponent -->
<g id="node6" class="node"><title>Box_GameComponent</title>
<polygon fill="none" stroke="black" points="175.5,-215 175.5,-251 272.5,-251 272.5,-215 175.5,-215"/>
<text text-anchor="middle" x="224" y="-230.8" font-family="Arial" font-size="8.00">Box_GameComponent</text>
</g>
<!-- Box_GameComponent&#45;&gt;Box_GameStateComponent -->
<g id="edge4" class="edge"><title>Box_GameComponent&#45;&gt;Box_GameStateComponent</title>
<path fill="none" stroke="midnightblue" d="M207.208,-206.076C201.586,-197.06 195.213,-186.842 189.19,-177.184"/>
<polygon fill="none" stroke="midnightblue" points="204.279,-207.993 212.541,-214.626 210.219,-204.289 204.279,-207.993"/>
</g>
</g>
</svg>
