<?xml version="1.0" encoding="UTF-8" standalone="no"?>
<!DOCTYPE svg PUBLIC "-//W3C//DTD SVG 1.1//EN"
 "http://www.w3.org/Graphics/SVG/1.1/DTD/svg11.dtd">
<!-- Generated by graphviz version 2.26.3 (20100126.1600)
 -->
<!-- Title: MenuItem Pages: 1 -->
<svg width="465pt" height="920pt"
 viewBox="0.00 0.00 465.00 920.00" xmlns="http://www.w3.org/2000/svg" xmlns:xlink="http://www.w3.org/1999/xlink">
<g id="graph1" class="graph" transform="scale(1 1) rotate(0) translate(4 916)">
<title>MenuItem</title>
<polygon fill="white" stroke="white" points="-4,5 -4,-916 462,-916 462,5 -4,5"/>
<!-- Box_Dialog -->
<g id="node1" class="node"><title>Box_Dialog</title>
<polygon fill="#fcfcda" stroke="black" points="114.5,-367 114.5,-511 407.5,-511 407.5,-367 114.5,-367"/>
<text text-anchor="middle" x="261" y="-499.8" font-family="Arial" font-size="8.00">Dialog</text>
<polyline fill="none" stroke="black" points="114.5,-493 407.5,-493 "/>
<text text-anchor="start" x="122.5" y="-481.8" font-family="Arial" font-size="8.00"># spriteBatch : SpriteBatch</text>
<text text-anchor="start" x="122.5" y="-471.8" font-family="Arial" font-size="8.00">+ Done : Action</text>
<text text-anchor="start" x="122.5" y="-461.8" font-family="Arial" font-size="8.00">+ buttons : Menu</text>
<polyline fill="none" stroke="black" points="114.5,-455 407.5,-455 "/>
<text text-anchor="start" x="122.5" y="-443.8" font-family="Arial" font-size="8.00">&#45; ButtonBackgroundColor (ItemState itemState) : Color</text>
<text text-anchor="start" x="122.5" y="-433.8" font-family="Arial" font-size="8.00"># RelativeButtonSize (int n) : Vector2</text>
<text text-anchor="start" x="122.5" y="-423.8" font-family="Arial" font-size="8.00">+ Dialog (GameScreen screen, WidgetInfo info, DisplayLayer drawOrder)</text>
<text text-anchor="start" x="122.5" y="-413.8" font-family="Arial" font-size="8.00">&#45; ButtonForegroundColor (ItemState itemState) : Color</text>
<text text-anchor="start" x="122.5" y="-403.8" font-family="Arial" font-size="8.00"># RelativeButtonPosition (int n) : Vector2</text>
<text text-anchor="start" x="122.5" y="-393.8" font-family="Arial" font-size="8.00"># DrawDialog (GameTime time) abstract</text>
<text text-anchor="start" x="122.5" y="-383.8" font-family="Arial" font-size="8.00">+ SubComponents (GameTime time) : IEnumerable&lt;IGameScreenComponent&gt;</text>
<text text-anchor="start" x="122.5" y="-373.8" font-family="Arial" font-size="8.00">+ Draw (GameTime time)</text>
</g>
<!-- Box_ConfirmDialog -->
<g id="node5" class="node"><title>Box_ConfirmDialog</title>
<polygon fill="#fcfcda" stroke="black" points="106.5,-225 106.5,-329 415.5,-329 415.5,-225 106.5,-225"/>
<text text-anchor="middle" x="261" y="-317.8" font-family="Arial" font-size="8.00">ConfirmDialog</text>
<polyline fill="none" stroke="black" points="106.5,-311 415.5,-311 "/>
<text text-anchor="start" x="114.5" y="-299.8" font-family="Arial" font-size="8.00"># CanClose : bool</text>
<text text-anchor="start" x="114.5" y="-289.8" font-family="Arial" font-size="8.00"># Text : string[]</text>
<polyline fill="none" stroke="black" points="106.5,-283 415.5,-283 "/>
<text text-anchor="start" x="114.5" y="-271.8" font-family="Arial" font-size="8.00"># OnYesClick () : Action</text>
<text text-anchor="start" x="114.5" y="-261.8" font-family="Arial" font-size="8.00"># OnCancelClick () : Action</text>
<text text-anchor="start" x="114.5" y="-251.8" font-family="Arial" font-size="8.00"># OnNoClick () : Action</text>
<text text-anchor="start" x="114.5" y="-241.8" font-family="Arial" font-size="8.00"># DrawDialog (GameTime time)</text>
<text text-anchor="start" x="114.5" y="-231.8" font-family="Arial" font-size="8.00">+ ConfirmDialog (GameScreen screen, WidgetInfo info, DisplayLayer drawOrder)</text>
</g>
<!-- Box_Dialog&#45;&gt;Box_ConfirmDialog -->
<g id="edge12" class="edge"><title>Box_Dialog&#45;&gt;Box_ConfirmDialog</title>
<path fill="none" stroke="midnightblue" d="M261,-356.423C261,-347.099 261,-337.802 261,-329.027"/>
<polygon fill="none" stroke="midnightblue" points="257.5,-356.529 261,-366.529 264.5,-356.529 257.5,-356.529"/>
</g>
<!-- Box_Widget -->
<g id="node2" class="node"><title>Box_Widget</title>
<polygon fill="#fcfcda" stroke="black" points="119,-549 119,-623 403,-623 403,-549 119,-549"/>
<text text-anchor="middle" x="261" y="-611.8" font-family="Arial" font-size="8.00">Widget</text>
<polyline fill="none" stroke="black" points="119,-605 403,-605 "/>
<text text-anchor="start" x="127" y="-593.8" font-family="Arial" font-size="8.00">+ Info : WidgetInfo</text>
<text text-anchor="start" x="127" y="-583.8" font-family="Arial" font-size="8.00">+ IsVisible : bool virtual</text>
<polyline fill="none" stroke="black" points="119,-577 403,-577 "/>
<text text-anchor="start" x="127" y="-565.8" font-family="Arial" font-size="8.00">+ bounds () : Rectangle</text>
<text text-anchor="start" x="127" y="-555.8" font-family="Arial" font-size="8.00">+ Widget (GameScreen screen, WidgetInfo info, DisplayLayer drawOrder)</text>
</g>
<!-- Box_Widget&#45;&gt;Box_Dialog -->
<g id="edge2" class="edge"><title>Box_Widget&#45;&gt;Box_Dialog</title>
<path fill="none" stroke="midnightblue" d="M261,-538.801C261,-529.931 261,-520.473 261,-511.047"/>
<polygon fill="none" stroke="midnightblue" points="257.5,-538.906 261,-548.906 264.5,-538.906 257.5,-538.906"/>
</g>
<!-- Box_DrawableGameScreenComponent -->
<g id="node3" class="node"><title>Box_DrawableGameScreenComponent</title>
<polygon fill="#fcfcda" stroke="black" points="102.5,-661 102.5,-745 419.5,-745 419.5,-661 102.5,-661"/>
<text text-anchor="middle" x="261" y="-733.8" font-family="Arial" font-size="8.00">DrawableGameScreenComponent</text>
<polyline fill="none" stroke="black" points="102.5,-727 419.5,-727 "/>
<text text-anchor="start" x="110.5" y="-715.8" font-family="Arial" font-size="8.00">+ Index : DisplayLayer</text>
<text text-anchor="start" x="110.5" y="-705.8" font-family="Arial" font-size="8.00">&#45; _index : DisplayLayer</text>
<text text-anchor="start" x="110.5" y="-695.8" font-family="Arial" font-size="8.00">+ screen : GameScreen</text>
<polyline fill="none" stroke="black" points="102.5,-689 419.5,-689 "/>
<text text-anchor="start" x="110.5" y="-677.8" font-family="Arial" font-size="8.00">+ DrawableGameScreenComponent (GameScreen screen, DisplayLayer index)</text>
<text text-anchor="start" x="110.5" y="-667.8" font-family="Arial" font-size="8.00">+ SubComponents (GameTime time) : IEnumerable&lt;IGameScreenComponent&gt; virtual</text>
</g>
<!-- Box_DrawableGameScreenComponent&#45;&gt;Box_Widget -->
<g id="edge4" class="edge"><title>Box_DrawableGameScreenComponent&#45;&gt;Box_Widget</title>
<path fill="none" stroke="midnightblue" d="M261,-650.482C261,-641.258 261,-631.834 261,-623.14"/>
<polygon fill="none" stroke="midnightblue" points="257.5,-650.76 261,-660.76 264.5,-650.76 257.5,-650.76"/>
</g>
<!-- Box_IGameScreenComponent -->
<g id="node4" class="node"><title>Box_IGameScreenComponent</title>
<polygon fill="#dafcda" stroke="black" points="-0.5,-783 -0.5,-837 292.5,-837 292.5,-783 -0.5,-783"/>
<text text-anchor="middle" x="146" y="-825.8" font-family="Arial" font-size="8.00">IGameScreenComponent</text>
<polyline fill="none" stroke="black" points="-0.5,-819 292.5,-819 "/>
<text text-anchor="start" x="7.5" y="-807.8" font-family="Arial" font-size="8.00">+ Index : DisplayLayer</text>
<polyline fill="none" stroke="black" points="-0.5,-801 292.5,-801 "/>
<text text-anchor="start" x="7.5" y="-789.8" font-family="Arial" font-size="8.00">+ SubComponents (GameTime time) : IEnumerable&lt;IGameScreenComponent&gt;</text>
</g>
<!-- Box_IGameScreenComponent&#45;&gt;Box_DrawableGameScreenComponent -->
<g id="edge8" class="edge"><title>Box_IGameScreenComponent&#45;&gt;Box_DrawableGameScreenComponent</title>
<path fill="none" stroke="midnightblue" d="M182.433,-776.102C192.91,-766.354 204.469,-755.598 215.425,-745.404"/>
<polygon fill="none" stroke="midnightblue" points="179.956,-773.625 175.019,-782.999 184.725,-778.75 179.956,-773.625"/>
</g>
<!-- Box_TextInputDialog -->
<g id="node6" class="node"><title>Box_TextInputDialog</title>
<polygon fill="#fcfcda" stroke="black" points="104,-103 104,-187 418,-187 418,-103 104,-103"/>
<text text-anchor="middle" x="261" y="-175.8" font-family="Arial" font-size="8.00">TextInputDialog</text>
<polyline fill="none" stroke="black" points="104,-169 418,-169 "/>
<text text-anchor="start" x="112" y="-157.8" font-family="Arial" font-size="8.00"># TextInput : TextInput</text>
<polyline fill="none" stroke="black" points="104,-151 418,-151 "/>
<text text-anchor="start" x="112" y="-139.8" font-family="Arial" font-size="8.00"># TextInputSize () : Vector2</text>
<text text-anchor="start" x="112" y="-129.8" font-family="Arial" font-size="8.00">+ TextInputDialog (GameScreen screen, WidgetInfo info, DisplayLayer drawOrder)</text>
<text text-anchor="start" x="112" y="-119.8" font-family="Arial" font-size="8.00"># TextInputPosition () : Vector2</text>
<text text-anchor="start" x="112" y="-109.8" font-family="Arial" font-size="8.00">+ SubComponents (GameTime time) : IEnumerable&lt;IGameScreenComponent&gt;</text>
</g>
<!-- Box_ConfirmDialog&#45;&gt;Box_TextInputDialog -->
<g id="edge14" class="edge"><title>Box_ConfirmDialog&#45;&gt;Box_TextInputDialog</title>
<path fill="none" stroke="midnightblue" d="M261,-214.727C261,-205.346 261,-195.864 261,-187.043"/>
<polygon fill="none" stroke="midnightblue" points="257.5,-214.83 261,-224.83 264.5,-214.83 257.5,-214.83"/>
</g>
<!-- Box_KnotSaveConfirmDialog -->
<g id="node7" class="node"><title>Box_KnotSaveConfirmDialog</title>
<polygon fill="#fcfcda" stroke="black" points="89,-1 89,-65 433,-65 433,-1 89,-1"/>
<text text-anchor="middle" x="261" y="-53.8" font-family="Arial" font-size="8.00">KnotSaveConfirmDialog</text>
<polyline fill="none" stroke="black" points="89,-47 433,-47 "/>
<text text-anchor="middle" x="261" y="-35.8" font-family="Arial" font-size="8.00"> </text>
<polyline fill="none" stroke="black" points="89,-29 433,-29 "/>
<text text-anchor="start" x="97" y="-17.8" font-family="Arial" font-size="8.00">+ KnotSaveConfirmDialog (GameScreen screen, WidgetInfo info, DisplayLayer drawOrder,</text>
<text text-anchor="start" x="97" y="-7.8" font-family="Arial" font-size="8.00">Knot knot)</text>
</g>
<!-- Box_TextInputDialog&#45;&gt;Box_KnotSaveConfirmDialog -->
<g id="edge16" class="edge"><title>Box_TextInputDialog&#45;&gt;Box_KnotSaveConfirmDialog</title>
<path fill="none" stroke="midnightblue" d="M261,-92.8251C261,-83.3696 261,-73.768 261,-65.1053"/>
<polygon fill="none" stroke="midnightblue" points="257.5,-92.9766 261,-102.977 264.5,-92.9767 257.5,-92.9766"/>
</g>
<!-- Box_XnaDrawableGameComponent -->
<g id="node8" class="node"><title>Box_XnaDrawableGameComponent</title>
<polygon fill="#ffffff" stroke="black" points="213,-884 213,-902 343,-902 343,-884 213,-884"/>
<text text-anchor="middle" x="278" y="-890.8" font-family="Arial" font-size="8.00">Xna.DrawableGameComponent</text>
</g>
<!-- Box_XnaIGameComponent -->
<g id="node9" class="node"><title>Box_XnaIGameComponent</title>
<polygon fill="#ffffff" stroke="black" points="361,-884 361,-902 457,-902 457,-884 361,-884"/>
<text text-anchor="middle" x="409" y="-890.8" font-family="Arial" font-size="8.00">Xna.IGameComponent</text>
</g>
<!-- Box_DrawableGameComponent -->
<g id="node12" class="node"><title>Box_DrawableGameComponent</title>
<polygon fill="none" stroke="black" points="310,-792 310,-828 442,-828 442,-792 310,-792"/>
<text text-anchor="middle" x="376" y="-807.8" font-family="Arial" font-size="8.00">Box_DrawableGameComponent</text>
</g>
<!-- Box_DrawableGameComponent&#45;&gt;Box_DrawableGameScreenComponent -->
<g id="edge6" class="edge"><title>Box_DrawableGameComponent&#45;&gt;Box_DrawableGameScreenComponent</title>
<path fill="none" stroke="midnightblue" d="M348.993,-784.871C336.316,-773.076 320.857,-758.693 306.454,-745.292"/>
<polygon fill="none" stroke="midnightblue" points="346.787,-787.599 356.492,-791.849 351.555,-782.475 346.787,-787.599"/>
</g>
<!-- Box_IGameComponent -->
<g id="node15" class="node"><title>Box_IGameComponent</title>
<polygon fill="none" stroke="black" points="97,-875 97,-911 195,-911 195,-875 97,-875"/>
<text text-anchor="middle" x="146" y="-890.8" font-family="Arial" font-size="8.00">Box_IGameComponent</text>
</g>
<!-- Box_IGameComponent&#45;&gt;Box_IGameScreenComponent -->
<g id="edge10" class="edge"><title>Box_IGameComponent&#45;&gt;Box_IGameScreenComponent</title>
<path fill="none" stroke="midnightblue" d="M146,-864.987C146,-855.995 146,-846.055 146,-837.127"/>
<polygon fill="none" stroke="midnightblue" points="142.5,-864.99 146,-874.99 149.5,-864.99 142.5,-864.99"/>
</g>
</g>
</svg>
