<?xml version="1.0" encoding="UTF-8" standalone="no"?>
<!DOCTYPE svg PUBLIC "-//W3C//DTD SVG 1.1//EN"
 "http://www.w3.org/Graphics/SVG/1.1/DTD/svg11.dtd">
<!-- Generated by graphviz version 2.26.3 (20100126.1600)
 -->
<!-- Title: MenuItem Pages: 1 -->
<svg width="1912pt" height="3675pt"
 viewBox="0.00 0.00 459.00 882.00" xmlns="http://www.w3.org/2000/svg" xmlns:xlink="http://www.w3.org/1999/xlink">
<g id="graph1" class="graph" transform="scale(4.16667 4.16667) rotate(0) translate(4 878)">
<title>MenuItem</title>
<polygon fill="white" stroke="white" points="-4,5 -4,-878 456,-878 456,5 -4,5"/>
<!-- Box_ConfirmDialog -->
<g id="node1" class="node"><title>Box_ConfirmDialog</title>
<polygon fill="#fcfcda" stroke="black" points="105.5,-215 105.5,-309 414.5,-309 414.5,-215 105.5,-215"/>
<text text-anchor="middle" x="260" y="-297.8" font-family="Arial" font-size="8.00">ConfirmDialog</text>
<polyline fill="none" stroke="black" points="105.5,-291 414.5,-291 "/>
<text text-anchor="start" x="113.5" y="-279.8" font-family="Arial" font-size="8.00"># Text : string[]</text>
<polyline fill="none" stroke="black" points="105.5,-273 414.5,-273 "/>
<text text-anchor="start" x="113.5" y="-261.8" font-family="Arial" font-size="8.00"># OnYesClick () : Action</text>
<text text-anchor="start" x="113.5" y="-251.8" font-family="Arial" font-size="8.00"># OnCancelClick () : Action</text>
<text text-anchor="start" x="113.5" y="-241.8" font-family="Arial" font-size="8.00"># OnNoClick () : Action</text>
<text text-anchor="start" x="113.5" y="-231.8" font-family="Arial" font-size="8.00"># DrawDialog (GameTime time)</text>
<text text-anchor="start" x="113.5" y="-221.8" font-family="Arial" font-size="8.00">+ ConfirmDialog (GameScreen screen, WidgetInfo info, DisplayLayer drawOrder)</text>
</g>
<!-- Box_TextInputDialog -->
<g id="node6" class="node"><title>Box_TextInputDialog</title>
<polygon fill="#fcfcda" stroke="black" points="103,-93 103,-177 417,-177 417,-93 103,-93"/>
<text text-anchor="middle" x="260" y="-165.8" font-family="Arial" font-size="8.00">TextInputDialog</text>
<polyline fill="none" stroke="black" points="103,-159 417,-159 "/>
<text text-anchor="start" x="111" y="-147.8" font-family="Arial" font-size="8.00"># TextInput : TextInput</text>
<polyline fill="none" stroke="black" points="103,-141 417,-141 "/>
<text text-anchor="start" x="111" y="-129.8" font-family="Arial" font-size="8.00"># TextInputSize () : Vector2</text>
<text text-anchor="start" x="111" y="-119.8" font-family="Arial" font-size="8.00">+ TextInputDialog (GameScreen screen, WidgetInfo info, DisplayLayer drawOrder)</text>
<text text-anchor="start" x="111" y="-109.8" font-family="Arial" font-size="8.00"># TextInputPosition () : Vector2</text>
<text text-anchor="start" x="111" y="-99.8" font-family="Arial" font-size="8.00">+ SubComponents (GameTime time) : IEnumerable&lt;IGameScreenComponent&gt;</text>
</g>
<!-- Box_ConfirmDialog&#45;&gt;Box_TextInputDialog -->
<g id="edge14" class="edge"><title>Box_ConfirmDialog&#45;&gt;Box_TextInputDialog</title>
<path fill="none" stroke="midnightblue" d="M260,-204.491C260,-195.34 260,-186.022 260,-177.306"/>
<polygon fill="none" stroke="midnightblue" points="256.5,-204.71 260,-214.71 263.5,-204.71 256.5,-204.71"/>
</g>
<!-- Box_Dialog -->
<g id="node2" class="node"><title>Box_Dialog</title>
<polygon fill="#fcfcda" stroke="black" points="113.5,-347 113.5,-491 406.5,-491 406.5,-347 113.5,-347"/>
<text text-anchor="middle" x="260" y="-479.8" font-family="Arial" font-size="8.00">Dialog</text>
<polyline fill="none" stroke="black" points="113.5,-473 406.5,-473 "/>
<text text-anchor="start" x="121.5" y="-461.8" font-family="Arial" font-size="8.00"># spriteBatch : SpriteBatch</text>
<text text-anchor="start" x="121.5" y="-451.8" font-family="Arial" font-size="8.00">+ Done : Action</text>
<text text-anchor="start" x="121.5" y="-441.8" font-family="Arial" font-size="8.00">+ buttons : Menu</text>
<polyline fill="none" stroke="black" points="113.5,-435 406.5,-435 "/>
<text text-anchor="start" x="121.5" y="-423.8" font-family="Arial" font-size="8.00">&#45; ButtonBackgroundColor (ItemState itemState) : Color</text>
<text text-anchor="start" x="121.5" y="-413.8" font-family="Arial" font-size="8.00"># RelativeButtonSize (int n) : Vector2</text>
<text text-anchor="start" x="121.5" y="-403.8" font-family="Arial" font-size="8.00">+ Dialog (GameScreen screen, WidgetInfo info, DisplayLayer drawOrder)</text>
<text text-anchor="start" x="121.5" y="-393.8" font-family="Arial" font-size="8.00">&#45; ButtonForegroundColor (ItemState itemState) : Color</text>
<text text-anchor="start" x="121.5" y="-383.8" font-family="Arial" font-size="8.00"># RelativeButtonPosition (int n) : Vector2</text>
<text text-anchor="start" x="121.5" y="-373.8" font-family="Arial" font-size="8.00"># DrawDialog (GameTime time) abstract</text>
<text text-anchor="start" x="121.5" y="-363.8" font-family="Arial" font-size="8.00">+ SubComponents (GameTime time) : IEnumerable&lt;IGameScreenComponent&gt;</text>
<text text-anchor="start" x="121.5" y="-353.8" font-family="Arial" font-size="8.00">+ Draw (GameTime time)</text>
</g>
<!-- Box_Dialog&#45;&gt;Box_ConfirmDialog -->
<g id="edge2" class="edge"><title>Box_Dialog&#45;&gt;Box_ConfirmDialog</title>
<path fill="none" stroke="midnightblue" d="M260,-336.761C260,-327.389 260,-318.088 260,-309.395"/>
<polygon fill="none" stroke="midnightblue" points="256.5,-336.933 260,-346.933 263.5,-336.933 256.5,-336.933"/>
</g>
<!-- Box_Widget -->
<g id="node3" class="node"><title>Box_Widget</title>
<polygon fill="#fcfcda" stroke="black" points="118,-529 118,-603 402,-603 402,-529 118,-529"/>
<text text-anchor="middle" x="260" y="-591.8" font-family="Arial" font-size="8.00">Widget</text>
<polyline fill="none" stroke="black" points="118,-585 402,-585 "/>
<text text-anchor="start" x="126" y="-573.8" font-family="Arial" font-size="8.00">+ Info : WidgetInfo</text>
<text text-anchor="start" x="126" y="-563.8" font-family="Arial" font-size="8.00">+ IsVisible : bool virtual</text>
<polyline fill="none" stroke="black" points="118,-557 402,-557 "/>
<text text-anchor="start" x="126" y="-545.8" font-family="Arial" font-size="8.00">+ bounds () : Rectangle</text>
<text text-anchor="start" x="126" y="-535.8" font-family="Arial" font-size="8.00">+ Widget (GameScreen screen, WidgetInfo info, DisplayLayer drawOrder)</text>
</g>
<!-- Box_Widget&#45;&gt;Box_Dialog -->
<g id="edge4" class="edge"><title>Box_Widget&#45;&gt;Box_Dialog</title>
<path fill="none" stroke="midnightblue" d="M260,-518.801C260,-509.931 260,-500.473 260,-491.047"/>
<polygon fill="none" stroke="midnightblue" points="256.5,-518.906 260,-528.906 263.5,-518.906 256.5,-518.906"/>
</g>
<!-- Box_DrawableGameScreenComponent -->
<g id="node4" class="node"><title>Box_DrawableGameScreenComponent</title>
<polygon fill="#fcfcda" stroke="black" points="101.5,-641 101.5,-725 418.5,-725 418.5,-641 101.5,-641"/>
<text text-anchor="middle" x="260" y="-713.8" font-family="Arial" font-size="8.00">DrawableGameScreenComponent</text>
<polyline fill="none" stroke="black" points="101.5,-707 418.5,-707 "/>
<text text-anchor="start" x="109.5" y="-695.8" font-family="Arial" font-size="8.00">+ Index : DisplayLayer</text>
<text text-anchor="start" x="109.5" y="-685.8" font-family="Arial" font-size="8.00">&#45; _index : DisplayLayer</text>
<text text-anchor="start" x="109.5" y="-675.8" font-family="Arial" font-size="8.00">+ screen : GameScreen</text>
<polyline fill="none" stroke="black" points="101.5,-669 418.5,-669 "/>
<text text-anchor="start" x="109.5" y="-657.8" font-family="Arial" font-size="8.00">+ DrawableGameScreenComponent (GameScreen screen, DisplayLayer index)</text>
<text text-anchor="start" x="109.5" y="-647.8" font-family="Arial" font-size="8.00">+ SubComponents (GameTime time) : IEnumerable&lt;IGameScreenComponent&gt; virtual</text>
</g>
<!-- Box_DrawableGameScreenComponent&#45;&gt;Box_Widget -->
<g id="edge6" class="edge"><title>Box_DrawableGameScreenComponent&#45;&gt;Box_Widget</title>
<path fill="none" stroke="midnightblue" d="M260,-630.482C260,-621.258 260,-611.834 260,-603.14"/>
<polygon fill="none" stroke="midnightblue" points="256.5,-630.76 260,-640.76 263.5,-630.76 256.5,-630.76"/>
</g>
<!-- Box_IGameScreenComponent -->
<g id="node5" class="node"><title>Box_IGameScreenComponent</title>
<polygon fill="#dafcda" stroke="black" points="-0.5,-763 -0.5,-817 292.5,-817 292.5,-763 -0.5,-763"/>
<text text-anchor="middle" x="146" y="-805.8" font-family="Arial" font-size="8.00">IGameScreenComponent</text>
<polyline fill="none" stroke="black" points="-0.5,-799 292.5,-799 "/>
<text text-anchor="start" x="7.5" y="-787.8" font-family="Arial" font-size="8.00">+ Index : DisplayLayer</text>
<polyline fill="none" stroke="black" points="-0.5,-781 292.5,-781 "/>
<text text-anchor="start" x="7.5" y="-769.8" font-family="Arial" font-size="8.00">+ SubComponents (GameTime time) : IEnumerable&lt;IGameScreenComponent&gt;</text>
</g>
<!-- Box_IGameScreenComponent&#45;&gt;Box_DrawableGameScreenComponent -->
<g id="edge10" class="edge"><title>Box_IGameScreenComponent&#45;&gt;Box_DrawableGameScreenComponent</title>
<path fill="none" stroke="midnightblue" d="M182.116,-756.102C192.502,-746.354 203.961,-735.598 214.821,-725.404"/>
<polygon fill="none" stroke="midnightblue" points="179.663,-753.604 174.767,-762.999 184.454,-758.708 179.663,-753.604"/>
</g>
<!-- Box_KnotSaveConfirmDialog -->
<g id="node7" class="node"><title>Box_KnotSaveConfirmDialog</title>
<polygon fill="#fcfcda" stroke="black" points="68.5,-1 68.5,-55 451.5,-55 451.5,-1 68.5,-1"/>
<text text-anchor="middle" x="260" y="-43.8" font-family="Arial" font-size="8.00">KnotSaveConfirmDialog</text>
<polyline fill="none" stroke="black" points="68.5,-37 451.5,-37 "/>
<text text-anchor="middle" x="260" y="-25.8" font-family="Arial" font-size="8.00"> </text>
<polyline fill="none" stroke="black" points="68.5,-19 451.5,-19 "/>
<text text-anchor="start" x="76.5" y="-7.8" font-family="Arial" font-size="8.00">+ KnotSaveConfirmDialog (GameScreen screen, WidgetInfo info, DisplayLayer drawOrder, Knot knot)</text>
</g>
<!-- Box_TextInputDialog&#45;&gt;Box_KnotSaveConfirmDialog -->
<g id="edge16" class="edge"><title>Box_TextInputDialog&#45;&gt;Box_KnotSaveConfirmDialog</title>
<path fill="none" stroke="midnightblue" d="M260,-82.5276C260,-73.0762 260,-63.582 260,-55.2255"/>
<polygon fill="none" stroke="midnightblue" points="256.5,-82.7107 260,-92.7108 263.5,-82.7108 256.5,-82.7107"/>
</g>
<!-- Box_XnaDrawableGameComponent -->
<g id="node8" class="node"><title>Box_XnaDrawableGameComponent</title>
<polygon fill="#ffffff" stroke="black" points="310,-781 310,-799 440,-799 440,-781 310,-781"/>
<text text-anchor="middle" x="375" y="-787.8" font-family="Arial" font-size="8.00">Xna.DrawableGameComponent</text>
</g>
<!-- Box_XnaDrawableGameComponent&#45;&gt;Box_DrawableGameScreenComponent -->
<g id="edge8" class="edge"><title>Box_XnaDrawableGameComponent&#45;&gt;Box_DrawableGameScreenComponent</title>
<path fill="none" stroke="midnightblue" d="M357.824,-774.018C343.966,-761.124 323.815,-742.376 305.399,-725.241"/>
<polygon fill="none" stroke="midnightblue" points="355.49,-776.628 365.195,-780.877 360.258,-771.503 355.49,-776.628"/>
</g>
<!-- Box_XnaIGameComponent -->
<g id="node9" class="node"><title>Box_XnaIGameComponent</title>
<polygon fill="#ffffff" stroke="black" points="98,-855 98,-873 194,-873 194,-855 98,-855"/>
<text text-anchor="middle" x="146" y="-861.8" font-family="Arial" font-size="8.00">Xna.IGameComponent</text>
</g>
<!-- Box_XnaIGameComponent&#45;&gt;Box_IGameScreenComponent -->
<g id="edge12" class="edge"><title>Box_XnaIGameComponent&#45;&gt;Box_IGameScreenComponent</title>
<path fill="none" stroke="midnightblue" d="M146,-844.64C146,-836.2 146,-826.16 146,-817.004"/>
<polygon fill="none" stroke="midnightblue" points="142.5,-844.926 146,-854.926 149.5,-844.926 142.5,-844.926"/>
</g>
</g>
</svg>
