<?xml version="1.0" encoding="UTF-8" standalone="no"?>
<!DOCTYPE svg PUBLIC "-//W3C//DTD SVG 1.1//EN"
 "http://www.w3.org/Graphics/SVG/1.1/DTD/svg11.dtd">
<!-- Generated by graphviz version 2.26.3 (20100126.1600)
 -->
<!-- Title: MenuItem Pages: 1 -->
<svg width="1008pt" height="1700pt"
 viewBox="0.00 0.00 242.00 408.00" xmlns="http://www.w3.org/2000/svg" xmlns:xlink="http://www.w3.org/1999/xlink">
<g id="graph1" class="graph" transform="scale(4.16667 4.16667) rotate(0) translate(4 404)">
<title>MenuItem</title>
<polygon fill="white" stroke="white" points="-4,5 -4,-404 239,-404 239,5 -4,5"/>
<!-- Box_ShadowGameModel -->
<g id="node1" class="node"><title>Box_ShadowGameModel</title>
<polygon fill="#fcfcda" stroke="black" points="0,-1 0,-85 234,-85 234,-1 0,-1"/>
<text text-anchor="middle" x="117" y="-73.8" font-family="Arial" font-size="8.00">ShadowGameModel</text>
<polyline fill="none" stroke="black" points="0,-67 234,-67 "/>
<text text-anchor="start" x="8" y="-55.8" font-family="Arial" font-size="8.00">+ ShadowColor : Color</text>
<text text-anchor="start" x="8" y="-45.8" font-family="Arial" font-size="8.00">&#45; Model : GameModel</text>
<text text-anchor="start" x="8" y="-35.8" font-family="Arial" font-size="8.00">+ ShadowAlpha : float</text>
<polyline fill="none" stroke="black" points="0,-29 234,-29 "/>
<text text-anchor="start" x="8" y="-17.8" font-family="Arial" font-size="8.00">+ ShadowGameModel (GameState state, GameModel model)</text>
<text text-anchor="start" x="8" y="-7.8" font-family="Arial" font-size="8.00">+ Draw (GameTime gameTime)</text>
</g>
<!-- Box_ShadowGameObject -->
<g id="node2" class="node"><title>Box_ShadowGameObject</title>
<polygon fill="#fcfcda" stroke="black" points="2,-123 2,-267 232,-267 232,-123 2,-123"/>
<text text-anchor="middle" x="117" y="-255.8" font-family="Arial" font-size="8.00">ShadowGameObject</text>
<polyline fill="none" stroke="black" points="2,-249 232,-249 "/>
<text text-anchor="start" x="10" y="-237.8" font-family="Arial" font-size="8.00">&#45; Obj : IGameObject</text>
<text text-anchor="start" x="10" y="-227.8" font-family="Arial" font-size="8.00">+ Info : GameObjectInfo</text>
<text text-anchor="start" x="10" y="-217.8" font-family="Arial" font-size="8.00">+ OriginalPosition : Vector3</text>
<text text-anchor="start" x="10" y="-207.8" font-family="Arial" font-size="8.00">+ World : World</text>
<text text-anchor="start" x="10" y="-197.8" font-family="Arial" font-size="8.00"># state : GameState</text>
<text text-anchor="start" x="10" y="-187.8" font-family="Arial" font-size="8.00">+ ShadowPosition : Vector3</text>
<polyline fill="none" stroke="black" points="2,-181 232,-181 "/>
<text text-anchor="start" x="10" y="-169.8" font-family="Arial" font-size="8.00">+ Update (GameTime gameTime) virtual</text>
<text text-anchor="start" x="10" y="-159.8" font-family="Arial" font-size="8.00">+ Intersects (Ray ray) : GameObjectDistance</text>
<text text-anchor="start" x="10" y="-149.8" font-family="Arial" font-size="8.00">+ ShadowGameObject (GameState state, IGameObject obj)</text>
<text text-anchor="start" x="10" y="-139.8" font-family="Arial" font-size="8.00">+ Center () : Vector3</text>
<text text-anchor="start" x="10" y="-129.8" font-family="Arial" font-size="8.00">+ Draw (GameTime gameTime) virtual</text>
</g>
<!-- Box_ShadowGameObject&#45;&gt;Box_ShadowGameModel -->
<g id="edge2" class="edge"><title>Box_ShadowGameObject&#45;&gt;Box_ShadowGameModel</title>
<path fill="none" stroke="midnightblue" d="M117,-112.324C117,-102.913 117,-93.6404 117,-85.0882"/>
<polygon fill="none" stroke="midnightblue" points="113.5,-112.561 117,-122.561 120.5,-112.561 113.5,-112.561"/>
</g>
<!-- Box_IGameObject -->
<g id="node3" class="node"><title>Box_IGameObject</title>
<polygon fill="#dafcda" stroke="black" points="27.5,-305 27.5,-399 206.5,-399 206.5,-305 27.5,-305"/>
<text text-anchor="middle" x="117" y="-387.8" font-family="Arial" font-size="8.00">IGameObject</text>
<polyline fill="none" stroke="black" points="27.5,-381 206.5,-381 "/>
<text text-anchor="start" x="35.5" y="-369.8" font-family="Arial" font-size="8.00">+ Info : GameObjectInfo</text>
<text text-anchor="start" x="35.5" y="-359.8" font-family="Arial" font-size="8.00">+ World : World</text>
<polyline fill="none" stroke="black" points="27.5,-353 206.5,-353 "/>
<text text-anchor="start" x="35.5" y="-341.8" font-family="Arial" font-size="8.00">+ Draw (GameTime gameTime)</text>
<text text-anchor="start" x="35.5" y="-331.8" font-family="Arial" font-size="8.00">+ Update (GameTime gameTime)</text>
<text text-anchor="start" x="35.5" y="-321.8" font-family="Arial" font-size="8.00">+ Intersects (Ray ray) : GameObjectDistance</text>
<text text-anchor="start" x="35.5" y="-311.8" font-family="Arial" font-size="8.00">+ Center () : Vector3</text>
</g>
<!-- Box_IGameObject&#45;&gt;Box_ShadowGameObject -->
<g id="edge4" class="edge"><title>Box_IGameObject&#45;&gt;Box_ShadowGameObject</title>
<path fill="none" stroke="midnightblue" d="M117,-294.883C117,-285.837 117,-276.38 117,-267.045"/>
<polygon fill="none" stroke="midnightblue" points="113.5,-294.895 117,-304.895 120.5,-294.895 113.5,-294.895"/>
</g>
</g>
</svg>
