<?xml version="1.0" encoding="UTF-8" standalone="no"?>
<!DOCTYPE svg PUBLIC "-//W3C//DTD SVG 1.1//EN"
 "http://www.w3.org/Graphics/SVG/1.1/DTD/svg11.dtd">
<!-- Generated by graphviz version 2.26.3 (20100126.1600)
 -->
<!-- Title: MenuItem Pages: 1 -->
<svg width="4167pt" height="2483pt"
 viewBox="0.00 0.00 1000.00 596.00" xmlns="http://www.w3.org/2000/svg" xmlns:xlink="http://www.w3.org/1999/xlink">
<g id="graph1" class="graph" transform="scale(4.16667 4.16667) rotate(0) translate(4 592)">
<title>MenuItem</title>
<polygon fill="white" stroke="white" points="-4,5 -4,-592 997,-592 997,5 -4,5"/>
<!-- Box_MenuScreenInput -->
<g id="node1" class="node"><title>Box_MenuScreenInput</title>
<polygon fill="#fcfcda" stroke="black" points="444.5,-1 444.5,-55 599.5,-55 599.5,-1 444.5,-1"/>
<text text-anchor="middle" x="522" y="-43.8" font-family="Arial" font-size="8.00">MenuScreenInput</text>
<polyline fill="none" stroke="black" points="444.5,-37 599.5,-37 "/>
<text text-anchor="middle" x="522" y="-25.8" font-family="Arial" font-size="8.00"> </text>
<polyline fill="none" stroke="black" points="444.5,-19 599.5,-19 "/>
<text text-anchor="start" x="452.5" y="-7.8" font-family="Arial" font-size="8.00">+ MenuScreenInput (GameState state)</text>
</g>
<!-- Box_Input -->
<g id="node2" class="node"><title>Box_Input</title>
<polygon fill="#fcfcda" stroke="black" points="378.5,-93 378.5,-327 665.5,-327 665.5,-93 378.5,-93"/>
<text text-anchor="middle" x="522" y="-315.8" font-family="Arial" font-size="8.00">Input</text>
<polyline fill="none" stroke="black" points="378.5,-309 665.5,-309 "/>
<text text-anchor="start" x="386.5" y="-297.8" font-family="Arial" font-size="8.00">&#45; PreviousClickMouseState : MouseState static</text>
<text text-anchor="start" x="386.5" y="-287.8" font-family="Arial" font-size="8.00">&#45; LeftButtonClickTimer : double static</text>
<text text-anchor="start" x="386.5" y="-277.8" font-family="Arial" font-size="8.00">&#45; RightButtonClickTimer : double static</text>
<text text-anchor="start" x="386.5" y="-267.8" font-family="Arial" font-size="8.00">+ GrabMouseMovement : bool</text>
<text text-anchor="start" x="386.5" y="-257.8" font-family="Arial" font-size="8.00">+ LeftButton : ClickState static</text>
<text text-anchor="start" x="386.5" y="-247.8" font-family="Arial" font-size="8.00">+ RightButton : ClickState static</text>
<text text-anchor="start" x="386.5" y="-237.8" font-family="Arial" font-size="8.00">+ PreviousKeyboardState : KeyboardState static</text>
<text text-anchor="start" x="386.5" y="-227.8" font-family="Arial" font-size="8.00">+ MouseState : MouseState static</text>
<text text-anchor="start" x="386.5" y="-217.8" font-family="Arial" font-size="8.00">+ PreviousMouseState : MouseState static</text>
<text text-anchor="start" x="386.5" y="-207.8" font-family="Arial" font-size="8.00"># FullscreenToggled : bool static</text>
<text text-anchor="start" x="386.5" y="-197.8" font-family="Arial" font-size="8.00">+ CurrentInputAction : InputAction</text>
<text text-anchor="start" x="386.5" y="-187.8" font-family="Arial" font-size="8.00">+ ValidKeys : List&lt;Keys&gt;</text>
<text text-anchor="start" x="386.5" y="-177.8" font-family="Arial" font-size="8.00">+ WASDMode : WASDMode</text>
<text text-anchor="start" x="386.5" y="-167.8" font-family="Arial" font-size="8.00">+ IsKeyEventEnabled : bool</text>
<text text-anchor="start" x="386.5" y="-157.8" font-family="Arial" font-size="8.00">+ KeyboardState : KeyboardState static</text>
<polyline fill="none" stroke="black" points="378.5,-151 665.5,-151 "/>
<text text-anchor="start" x="386.5" y="-139.8" font-family="Arial" font-size="8.00"># UpdateMouse (GameTime gameTime) virtual</text>
<text text-anchor="start" x="386.5" y="-129.8" font-family="Arial" font-size="8.00">+ Update (GameTime gameTime)</text>
<text text-anchor="start" x="386.5" y="-119.8" font-family="Arial" font-size="8.00">+ OnKeyEvent (List&lt;Keys&gt; key, KeyEvent keyEvent, GameTime gameTime)</text>
<text text-anchor="start" x="386.5" y="-109.8" font-family="Arial" font-size="8.00"># UpdateKeys (GameTime gameTime) virtual</text>
<text text-anchor="start" x="386.5" y="-99.8" font-family="Arial" font-size="8.00">+ Input (GameState state)</text>
</g>
<!-- Box_Input&#45;&gt;Box_MenuScreenInput -->
<g id="edge2" class="edge"><title>Box_Input&#45;&gt;Box_MenuScreenInput</title>
<path fill="none" stroke="midnightblue" d="M522,-82.6713C522,-72.6201 522,-63.2764 522,-55.2588"/>
<polygon fill="none" stroke="midnightblue" points="518.5,-82.9353 522,-92.9354 525.5,-82.9354 518.5,-82.9353"/>
</g>
<!-- Box_GameScreenComponent -->
<g id="node3" class="node"><title>Box_GameScreenComponent</title>
<polygon fill="#fcfcda" stroke="black" points="-0.5,-365 -0.5,-439 338.5,-439 338.5,-365 -0.5,-365"/>
<text text-anchor="middle" x="169" y="-427.8" font-family="Arial" font-size="8.00">GameScreenComponent</text>
<polyline fill="none" stroke="black" points="-0.5,-421 338.5,-421 "/>
<text text-anchor="start" x="7.5" y="-409.8" font-family="Arial" font-size="8.00">+ Index : DisplayLayer</text>
<text text-anchor="start" x="7.5" y="-399.8" font-family="Arial" font-size="8.00">+ screen : GameScreen</text>
<polyline fill="none" stroke="black" points="-0.5,-393 338.5,-393 "/>
<text text-anchor="start" x="7.5" y="-381.8" font-family="Arial" font-size="8.00">+ GameScreenComponent (GameScreen screen, DisplayLayer index)</text>
<text text-anchor="start" x="7.5" y="-371.8" font-family="Arial" font-size="8.00">+ SubComponents (GameTime gameTime) : IEnumerable&lt;IGameScreenComponent&gt; virtual</text>
</g>
<!-- Box_GameScreenComponent&#45;&gt;Box_Input -->
<g id="edge4" class="edge"><title>Box_GameScreenComponent&#45;&gt;Box_Input</title>
<path fill="none" stroke="midnightblue" d="M246.178,-360.022C284.867,-338.979 332.996,-312.801 378.167,-288.232"/>
<polygon fill="none" stroke="midnightblue" points="244.174,-357.128 237.062,-364.98 247.519,-363.277 244.174,-357.128"/>
</g>
<!-- Box_IGameScreenComponent -->
<g id="node4" class="node"><title>Box_IGameScreenComponent</title>
<polygon fill="#dafcda" stroke="black" points="11.5,-477 11.5,-531 326.5,-531 326.5,-477 11.5,-477"/>
<text text-anchor="middle" x="169" y="-519.8" font-family="Arial" font-size="8.00">IGameScreenComponent</text>
<polyline fill="none" stroke="black" points="11.5,-513 326.5,-513 "/>
<text text-anchor="start" x="19.5" y="-501.8" font-family="Arial" font-size="8.00">+ Index : DisplayLayer</text>
<polyline fill="none" stroke="black" points="11.5,-495 326.5,-495 "/>
<text text-anchor="start" x="19.5" y="-483.8" font-family="Arial" font-size="8.00">+ SubComponents (GameTime gameTime) : IEnumerable&lt;IGameScreenComponent&gt;</text>
</g>
<!-- Box_IGameScreenComponent&#45;&gt;Box_GameScreenComponent -->
<g id="edge10" class="edge"><title>Box_IGameScreenComponent&#45;&gt;Box_GameScreenComponent</title>
<path fill="none" stroke="midnightblue" d="M169,-466.743C169,-457.759 169,-448.159 169,-439.178"/>
<polygon fill="none" stroke="midnightblue" points="165.5,-466.934 169,-476.934 172.5,-466.934 165.5,-466.934"/>
</g>
<!-- Box_IKeyEventListener -->
<g id="node5" class="node"><title>Box_IKeyEventListener</title>
<polygon fill="#dafcda" stroke="black" points="705.5,-365 705.5,-439 992.5,-439 992.5,-365 705.5,-365"/>
<text text-anchor="middle" x="849" y="-427.8" font-family="Arial" font-size="8.00">IKeyEventListener</text>
<polyline fill="none" stroke="black" points="705.5,-421 992.5,-421 "/>
<text text-anchor="start" x="713.5" y="-409.8" font-family="Arial" font-size="8.00">+ ValidKeys : List&lt;Keys&gt;</text>
<text text-anchor="start" x="713.5" y="-399.8" font-family="Arial" font-size="8.00">+ Index : DisplayLayer</text>
<text text-anchor="start" x="713.5" y="-389.8" font-family="Arial" font-size="8.00">+ IsKeyEventEnabled : bool</text>
<polyline fill="none" stroke="black" points="705.5,-383 992.5,-383 "/>
<text text-anchor="start" x="713.5" y="-371.8" font-family="Arial" font-size="8.00">+ OnKeyEvent (List&lt;Keys&gt; key, KeyEvent keyEvent, GameTime gameTime)</text>
</g>
<!-- Box_IKeyEventListener&#45;&gt;Box_Input -->
<g id="edge6" class="edge"><title>Box_IKeyEventListener&#45;&gt;Box_Input</title>
<path fill="none" stroke="midnightblue" d="M776.918,-359.677C744.188,-340.459 704.256,-317.012 665.799,-294.432"/>
<polygon fill="none" stroke="midnightblue" points="775.556,-362.935 785.951,-364.98 779.1,-356.899 775.556,-362.935"/>
</g>
<!-- Box_GameStateComponent -->
<g id="node6" class="node"><title>Box_GameStateComponent</title>
<polygon fill="#fcfcda" stroke="black" points="356,-365 356,-439 688,-439 688,-365 356,-365"/>
<text text-anchor="middle" x="522" y="-427.8" font-family="Arial" font-size="8.00">GameStateComponent</text>
<polyline fill="none" stroke="black" points="356,-421 688,-421 "/>
<text text-anchor="start" x="364" y="-409.8" font-family="Arial" font-size="8.00">+ Index : DisplayLayer</text>
<text text-anchor="start" x="364" y="-399.8" font-family="Arial" font-size="8.00">+ state : GameState</text>
<polyline fill="none" stroke="black" points="356,-393 688,-393 "/>
<text text-anchor="start" x="364" y="-381.8" font-family="Arial" font-size="8.00">+ GameStateComponent (GameState state, DisplayLayer index)</text>
<text text-anchor="start" x="364" y="-371.8" font-family="Arial" font-size="8.00">+ SubComponents (GameTime gameTime) : IEnumerable&lt;IGameStateComponent&gt; virtual</text>
</g>
<!-- Box_GameStateComponent&#45;&gt;Box_Input -->
<g id="edge14" class="edge"><title>Box_GameStateComponent&#45;&gt;Box_Input</title>
<path fill="none" stroke="midnightblue" d="M522,-354.835C522,-346.203 522,-336.852 522,-327.201"/>
<polygon fill="none" stroke="midnightblue" points="518.5,-354.98 522,-364.98 525.5,-354.981 518.5,-354.98"/>
</g>
<!-- Box_XnaGameComponent -->
<g id="node7" class="node"><title>Box_XnaGameComponent</title>
<polygon fill="#ffffff" stroke="black" points="352.5,-495 352.5,-513 447.5,-513 447.5,-495 352.5,-495"/>
<text text-anchor="middle" x="400" y="-501.8" font-family="Arial" font-size="8.00">Xna.GameComponent</text>
</g>
<!-- Box_XnaGameComponent&#45;&gt;Box_GameScreenComponent -->
<g id="edge8" class="edge"><title>Box_XnaGameComponent&#45;&gt;Box_GameScreenComponent</title>
<path fill="none" stroke="midnightblue" d="M370.167,-490.827C340.617,-477.779 293.981,-457.186 253.05,-439.113"/>
<polygon fill="none" stroke="midnightblue" points="368.939,-494.111 379.5,-494.948 371.766,-487.707 368.939,-494.111"/>
</g>
<!-- Box_XnaGameComponent&#45;&gt;Box_GameStateComponent -->
<g id="edge16" class="edge"><title>Box_XnaGameComponent&#45;&gt;Box_GameStateComponent</title>
<path fill="none" stroke="midnightblue" d="M418.704,-488.363C434.35,-475.281 457.309,-456.086 477.61,-439.113"/>
<polygon fill="none" stroke="midnightblue" points="416.254,-485.849 410.827,-494.948 420.744,-491.219 416.254,-485.849"/>
</g>
<!-- Box_XnaIGameComponent -->
<g id="node8" class="node"><title>Box_XnaIGameComponent</title>
<polygon fill="#ffffff" stroke="black" points="121,-569 121,-587 217,-587 217,-569 121,-569"/>
<text text-anchor="middle" x="169" y="-575.8" font-family="Arial" font-size="8.00">Xna.IGameComponent</text>
</g>
<!-- Box_XnaIGameComponent&#45;&gt;Box_IGameScreenComponent -->
<g id="edge12" class="edge"><title>Box_XnaIGameComponent&#45;&gt;Box_IGameScreenComponent</title>
<path fill="none" stroke="midnightblue" d="M169,-558.64C169,-550.2 169,-540.16 169,-531.004"/>
<polygon fill="none" stroke="midnightblue" points="165.5,-558.926 169,-568.926 172.5,-558.926 165.5,-558.926"/>
</g>
<!-- Box_IGameStateComponent -->
<g id="node9" class="node"><title>Box_IGameStateComponent</title>
<polygon fill="#ffffff" stroke="black" points="473,-495 473,-513 571,-513 571,-495 473,-495"/>
<text text-anchor="middle" x="522" y="-501.8" font-family="Arial" font-size="8.00">IGameStateComponent</text>
</g>
<!-- Box_IGameStateComponent&#45;&gt;Box_GameStateComponent -->
<g id="edge18" class="edge"><title>Box_IGameStateComponent&#45;&gt;Box_GameStateComponent</title>
<path fill="none" stroke="midnightblue" d="M522,-484.578C522,-471.746 522,-454.515 522,-439.113"/>
<polygon fill="none" stroke="midnightblue" points="518.5,-484.948 522,-494.948 525.5,-484.948 518.5,-484.948"/>
</g>
</g>
</svg>
