<?xml version="1.0" encoding="UTF-8" standalone="no"?>
<!DOCTYPE svg PUBLIC "-//W3C//DTD SVG 1.1//EN"
 "http://www.w3.org/Graphics/SVG/1.1/DTD/svg11.dtd">
<!-- Generated by graphviz version 2.26.3 (20100126.1600)
 -->
<!-- Title: MenuItem Pages: 1 -->
<svg width="429pt" height="592pt"
 viewBox="0.00 0.00 429.00 592.00" xmlns="http://www.w3.org/2000/svg" xmlns:xlink="http://www.w3.org/1999/xlink">
<g id="graph1" class="graph" transform="scale(1 1) rotate(0) translate(4 588)">
<title>MenuItem</title>
<polygon fill="white" stroke="white" points="-4,5 -4,-588 426,-588 426,5 -4,5"/>
<!-- Box_Camera -->
<g id="node1" class="node"><title>Box_Camera</title>
<polygon fill="#fcfcda" stroke="black" points="160.5,-1 160.5,-305 343.5,-305 343.5,-1 160.5,-1"/>
<text text-anchor="middle" x="252" y="-293.8" font-family="Arial" font-size="8.00">Camera</text>
<polyline fill="none" stroke="black" points="160.5,-287 343.5,-287 "/>
<text text-anchor="start" x="168.5" y="-275.8" font-family="Arial" font-size="8.00">&#45; AutoRotation : Angles3</text>
<text text-anchor="start" x="168.5" y="-265.8" font-family="Arial" font-size="8.00">&#45; _target : Vector3</text>
<text text-anchor="start" x="168.5" y="-255.8" font-family="Arial" font-size="8.00">&#45; aspectRatio : float</text>
<text text-anchor="start" x="168.5" y="-245.8" font-family="Arial" font-size="8.00">&#45; farPlane : float</text>
<text text-anchor="start" x="168.5" y="-235.8" font-family="Arial" font-size="8.00">&#45; nearPlane : float</text>
<text text-anchor="start" x="168.5" y="-225.8" font-family="Arial" font-size="8.00">+ Position : Vector3</text>
<text text-anchor="start" x="168.5" y="-215.8" font-family="Arial" font-size="8.00">+ Target : Vector3</text>
<text text-anchor="start" x="168.5" y="-205.8" font-family="Arial" font-size="8.00">+ TargetDirection : Vector3</text>
<text text-anchor="start" x="168.5" y="-195.8" font-family="Arial" font-size="8.00">+ UpVector : Vector3</text>
<text text-anchor="start" x="168.5" y="-185.8" font-family="Arial" font-size="8.00">+ FoV : float</text>
<text text-anchor="start" x="168.5" y="-175.8" font-family="Arial" font-size="8.00">&#45; World : World</text>
<text text-anchor="start" x="168.5" y="-165.8" font-family="Arial" font-size="8.00">&#45; _position : Vector3</text>
<text text-anchor="start" x="168.5" y="-155.8" font-family="Arial" font-size="8.00">&#45; foV : float</text>
<text text-anchor="start" x="168.5" y="-145.8" font-family="Arial" font-size="8.00">+ RotationAngle : Angles3</text>
<text text-anchor="start" x="168.5" y="-135.8" font-family="Arial" font-size="8.00">+ ViewFrustum : BoundingFrustum</text>
<text text-anchor="start" x="168.5" y="-125.8" font-family="Arial" font-size="8.00">+ ProjectionMatrix : Matrix</text>
<text text-anchor="start" x="168.5" y="-115.8" font-family="Arial" font-size="8.00">+ ViewMatrix : Matrix</text>
<text text-anchor="start" x="168.5" y="-105.8" font-family="Arial" font-size="8.00">+ WorldMatrix : Matrix</text>
<text text-anchor="start" x="168.5" y="-95.8" font-family="Arial" font-size="8.00">+ ArcballTarget : Vector3</text>
<text text-anchor="start" x="168.5" y="-85.8" font-family="Arial" font-size="8.00">+ DefaultPosition : Vector3</text>
<text text-anchor="start" x="168.5" y="-75.8" font-family="Arial" font-size="8.00">+ TargetDistance : float</text>
<polyline fill="none" stroke="black" points="160.5,-69 343.5,-69 "/>
<text text-anchor="start" x="168.5" y="-57.8" font-family="Arial" font-size="8.00">+ OnViewChanged () : Action</text>
<text text-anchor="start" x="168.5" y="-47.8" font-family="Arial" font-size="8.00">+ Camera (GameScreen screen, World world)</text>
<text text-anchor="start" x="168.5" y="-37.8" font-family="Arial" font-size="8.00">+ GetMouseRay (Vector2 mouse) : Ray</text>
<text text-anchor="start" x="168.5" y="-27.8" font-family="Arial" font-size="8.00">&#45; UpdateMatrices (GameTime time)</text>
<text text-anchor="start" x="168.5" y="-17.8" font-family="Arial" font-size="8.00">&#45; UpdateRotation (GameTime time)</text>
<text text-anchor="start" x="168.5" y="-7.8" font-family="Arial" font-size="8.00">+ Update (GameTime time)</text>
</g>
<!-- Box_GameScreenComponent -->
<g id="node2" class="node"><title>Box_GameScreenComponent</title>
<polygon fill="#fcfcda" stroke="black" points="93.5,-343 93.5,-417 410.5,-417 410.5,-343 93.5,-343"/>
<text text-anchor="middle" x="252" y="-405.8" font-family="Arial" font-size="8.00">GameScreenComponent</text>
<polyline fill="none" stroke="black" points="93.5,-399 410.5,-399 "/>
<text text-anchor="start" x="101.5" y="-387.8" font-family="Arial" font-size="8.00">+ Index : DisplayLayer</text>
<text text-anchor="start" x="101.5" y="-377.8" font-family="Arial" font-size="8.00">+ screen : GameScreen</text>
<polyline fill="none" stroke="black" points="93.5,-371 410.5,-371 "/>
<text text-anchor="start" x="101.5" y="-359.8" font-family="Arial" font-size="8.00">+ GameScreenComponent (GameScreen screen, DisplayLayer index)</text>
<text text-anchor="start" x="101.5" y="-349.8" font-family="Arial" font-size="8.00">+ SubComponents (GameTime time) : IEnumerable&lt;IGameScreenComponent&gt; virtual</text>
</g>
<!-- Box_GameScreenComponent&#45;&gt;Box_Camera -->
<g id="edge2" class="edge"><title>Box_GameScreenComponent&#45;&gt;Box_Camera</title>
<path fill="none" stroke="midnightblue" d="M252,-332.743C252,-324.189 252,-314.864 252,-305.107"/>
<polygon fill="none" stroke="midnightblue" points="248.5,-332.77 252,-342.77 255.5,-332.77 248.5,-332.77"/>
</g>
<!-- Box_IGameScreenComponent -->
<g id="node3" class="node"><title>Box_IGameScreenComponent</title>
<polygon fill="#dafcda" stroke="black" points="-0.5,-455 -0.5,-509 292.5,-509 292.5,-455 -0.5,-455"/>
<text text-anchor="middle" x="146" y="-497.8" font-family="Arial" font-size="8.00">IGameScreenComponent</text>
<polyline fill="none" stroke="black" points="-0.5,-491 292.5,-491 "/>
<text text-anchor="start" x="7.5" y="-479.8" font-family="Arial" font-size="8.00">+ Index : DisplayLayer</text>
<polyline fill="none" stroke="black" points="-0.5,-473 292.5,-473 "/>
<text text-anchor="start" x="7.5" y="-461.8" font-family="Arial" font-size="8.00">+ SubComponents (GameTime time) : IEnumerable&lt;IGameScreenComponent&gt;</text>
</g>
<!-- Box_IGameScreenComponent&#45;&gt;Box_GameScreenComponent -->
<g id="edge6" class="edge"><title>Box_IGameScreenComponent&#45;&gt;Box_GameScreenComponent</title>
<path fill="none" stroke="midnightblue" d="M181.399,-447.937C191.66,-438.063 202.915,-427.233 213.364,-417.178"/>
<polygon fill="none" stroke="midnightblue" points="178.907,-445.478 174.128,-454.934 183.76,-450.522 178.907,-445.478"/>
</g>
<!-- Box_XnaGameComponent -->
<g id="node4" class="node"><title>Box_XnaGameComponent</title>
<polygon fill="#ffffff" stroke="black" points="212.5,-556 212.5,-574 307.5,-574 307.5,-556 212.5,-556"/>
<text text-anchor="middle" x="260" y="-562.8" font-family="Arial" font-size="8.00">Xna.GameComponent</text>
</g>
<!-- Box_XnaIGameComponent -->
<g id="node5" class="node"><title>Box_XnaIGameComponent</title>
<polygon fill="#ffffff" stroke="black" points="325,-556 325,-574 421,-574 421,-556 325,-556"/>
<text text-anchor="middle" x="373" y="-562.8" font-family="Arial" font-size="8.00">Xna.IGameComponent</text>
</g>
<!-- Box_GameComponent -->
<g id="node7" class="node"><title>Box_GameComponent</title>
<polygon fill="none" stroke="black" points="309.5,-464 309.5,-500 406.5,-500 406.5,-464 309.5,-464"/>
<text text-anchor="middle" x="358" y="-479.8" font-family="Arial" font-size="8.00">Box_GameComponent</text>
</g>
<!-- Box_GameComponent&#45;&gt;Box_GameScreenComponent -->
<g id="edge4" class="edge"><title>Box_GameComponent&#45;&gt;Box_GameScreenComponent</title>
<path fill="none" stroke="midnightblue" d="M331.696,-456.688C319.279,-444.74 304.216,-430.245 290.543,-417.088"/>
<polygon fill="none" stroke="midnightblue" points="329.417,-459.353 339.049,-463.764 334.27,-454.309 329.417,-459.353"/>
</g>
<!-- Box_IGameComponent -->
<g id="node10" class="node"><title>Box_IGameComponent</title>
<polygon fill="none" stroke="black" points="97,-547 97,-583 195,-583 195,-547 97,-547"/>
<text text-anchor="middle" x="146" y="-562.8" font-family="Arial" font-size="8.00">Box_IGameComponent</text>
</g>
<!-- Box_IGameComponent&#45;&gt;Box_IGameScreenComponent -->
<g id="edge8" class="edge"><title>Box_IGameComponent&#45;&gt;Box_IGameScreenComponent</title>
<path fill="none" stroke="midnightblue" d="M146,-536.987C146,-527.995 146,-518.055 146,-509.127"/>
<polygon fill="none" stroke="midnightblue" points="142.5,-536.99 146,-546.99 149.5,-536.99 142.5,-536.99"/>
</g>
</g>
</svg>
