<?xml version="1.0" encoding="UTF-8" standalone="no"?>
<!DOCTYPE svg PUBLIC "-//W3C//DTD SVG 1.1//EN"
 "http://www.w3.org/Graphics/SVG/1.1/DTD/svg11.dtd">
<!-- Generated by graphviz version 2.26.3 (20100126.1600)
 -->
<!-- Title: MenuItem Pages: 1 -->
<svg width="1716pt" height="686pt"
 viewBox="0.00 0.00 1716.00 686.00" xmlns="http://www.w3.org/2000/svg" xmlns:xlink="http://www.w3.org/1999/xlink">
<g id="graph1" class="graph" transform="scale(1 1) rotate(0) translate(4 682)">
<title>MenuItem</title>
<polygon fill="white" stroke="white" points="-4,5 -4,-682 1713,-682 1713,5 -4,5"/>
<!-- Box_GameModel -->
<g id="node1" class="node"><title>Box_GameModel</title>
<polygon fill="#fcfcda" stroke="black" points="704,-255 704,-519 916,-519 916,-255 704,-255"/>
<text text-anchor="middle" x="810" y="-507.8" font-family="Helvetica,sans-Serif" font-size="8.00">GameModel</text>
<polyline fill="none" stroke="black" points="704,-499 916,-499 "/>
<text text-anchor="start" x="712" y="-487.8" font-family="Helvetica,sans-Serif" font-size="8.00"># state : GameState</text>
<text text-anchor="start" x="712" y="-475.8" font-family="Helvetica,sans-Serif" font-size="8.00">+ Info : dynamic</text>
<text text-anchor="start" x="712" y="-463.8" font-family="Helvetica,sans-Serif" font-size="8.00">+ World : World</text>
<text text-anchor="start" x="712" y="-451.8" font-family="Helvetica,sans-Serif" font-size="8.00">+ Model : Model virtual</text>
<text text-anchor="start" x="712" y="-439.8" font-family="Helvetica,sans-Serif" font-size="8.00">+ BaseColor : Color</text>
<text text-anchor="start" x="712" y="-427.8" font-family="Helvetica,sans-Serif" font-size="8.00">+ HighlightColor : Color</text>
<text text-anchor="start" x="712" y="-415.8" font-family="Helvetica,sans-Serif" font-size="8.00">+ HighlightIntensity : float</text>
<text text-anchor="start" x="712" y="-403.8" font-family="Helvetica,sans-Serif" font-size="8.00">+ Alpha : float</text>
<text text-anchor="start" x="712" y="-391.8" font-family="Helvetica,sans-Serif" font-size="8.00">&#45; _scale : float</text>
<text text-anchor="start" x="712" y="-379.8" font-family="Helvetica,sans-Serif" font-size="8.00">&#45; _rotation : Angles3</text>
<text text-anchor="start" x="712" y="-367.8" font-family="Helvetica,sans-Serif" font-size="8.00">&#45; _position : Vector3</text>
<text text-anchor="start" x="712" y="-355.8" font-family="Helvetica,sans-Serif" font-size="8.00">&#45; _worldMatrix : Matrix</text>
<text text-anchor="start" x="712" y="-343.8" font-family="Helvetica,sans-Serif" font-size="8.00">+ WorldMatrix : Matrix</text>
<polyline fill="none" stroke="black" points="704,-335 916,-335 "/>
<text text-anchor="start" x="712" y="-323.8" font-family="Helvetica,sans-Serif" font-size="8.00">+ GameModel (GameState state, GameModelInfo info)</text>
<text text-anchor="start" x="712" y="-311.8" font-family="Helvetica,sans-Serif" font-size="8.00">+ Update (GameTime gameTime) virtual</text>
<text text-anchor="start" x="712" y="-299.8" font-family="Helvetica,sans-Serif" font-size="8.00">+ Draw (GameTime gameTime) virtual</text>
<text text-anchor="start" x="712" y="-287.8" font-family="Helvetica,sans-Serif" font-size="8.00">+ Intersects (Ray ray) : GameObjectDistance virtual</text>
<text text-anchor="start" x="712" y="-275.8" font-family="Helvetica,sans-Serif" font-size="8.00">+ Center () : Vector3</text>
<text text-anchor="start" x="712" y="-263.8" font-family="Helvetica,sans-Serif" font-size="8.00">&#45; UpdateWorldMatrix ()</text>
</g>
<!-- Box_NodeModel -->
<g id="node2" class="node"><title>Box_NodeModel</title>
<polygon fill="#fcfcda" stroke="black" points="727.5,-67 727.5,-139 934.5,-139 934.5,-67 727.5,-67"/>
<text text-anchor="middle" x="831" y="-127.8" font-family="Helvetica,sans-Serif" font-size="8.00">NodeModel</text>
<polyline fill="none" stroke="black" points="727.5,-119 934.5,-119 "/>
<text text-anchor="start" x="735.5" y="-107.8" font-family="Helvetica,sans-Serif" font-size="8.00">+ Info : NodeModelInfo new</text>
<polyline fill="none" stroke="black" points="727.5,-99 934.5,-99 "/>
<text text-anchor="start" x="735.5" y="-87.8" font-family="Helvetica,sans-Serif" font-size="8.00">+ NodeModel (GameState state, NodeModelInfo info)</text>
<text text-anchor="start" x="735.5" y="-75.8" font-family="Helvetica,sans-Serif" font-size="8.00">+ Draw (GameTime gameTime) override</text>
</g>
<!-- Box_GameModel&#45;&gt;Box_NodeModel -->
<g id="edge4" class="edge"><title>Box_GameModel&#45;&gt;Box_NodeModel</title>
<path fill="none" stroke="midnightblue" d="M820.501,-244.981C823.411,-205.635 826.32,-166.291 828.336,-139.032"/>
<polygon fill="none" stroke="midnightblue" points="817.009,-244.746 819.762,-254.977 823.99,-245.262 817.009,-244.746"/>
</g>
<!-- Box_PipeModel -->
<g id="node3" class="node"><title>Box_PipeModel</title>
<polygon fill="#fcfcda" stroke="black" points="951.5,-43 951.5,-163 1158.5,-163 1158.5,-43 951.5,-43"/>
<text text-anchor="middle" x="1055" y="-151.8" font-family="Helvetica,sans-Serif" font-size="8.00">PipeModel</text>
<polyline fill="none" stroke="black" points="951.5,-143 1158.5,-143 "/>
<text text-anchor="start" x="959.5" y="-131.8" font-family="Helvetica,sans-Serif" font-size="8.00">+ Info : PipeModelInfo new</text>
<text text-anchor="start" x="959.5" y="-119.8" font-family="Helvetica,sans-Serif" font-size="8.00">&#45; Bounds : BoundingSphere[]</text>
<text text-anchor="start" x="959.5" y="-107.8" font-family="Helvetica,sans-Serif" font-size="8.00">+ OnDataChange : Action</text>
<polyline fill="none" stroke="black" points="951.5,-99 1158.5,-99 "/>
<text text-anchor="start" x="959.5" y="-87.8" font-family="Helvetica,sans-Serif" font-size="8.00">+ PipeModel (GameState state, PipeModelInfo info)</text>
<text text-anchor="start" x="959.5" y="-75.8" font-family="Helvetica,sans-Serif" font-size="8.00">+ Draw (GameTime gameTime) override</text>
<text text-anchor="start" x="959.5" y="-63.8" font-family="Helvetica,sans-Serif" font-size="8.00">+ Update (GameTime gameTime) override</text>
<text text-anchor="start" x="959.5" y="-51.8" font-family="Helvetica,sans-Serif" font-size="8.00">+ Intersects (Ray ray) : GameObjectDistance override</text>
</g>
<!-- Box_GameModel&#45;&gt;Box_PipeModel -->
<g id="edge6" class="edge"><title>Box_GameModel&#45;&gt;Box_PipeModel</title>
<path fill="none" stroke="midnightblue" d="M920.976,-246.691C922.321,-245.116 923.663,-243.552 925,-242 947.755,-215.593 973.833,-187.344 996.631,-163.256"/>
<polygon fill="none" stroke="midnightblue" points="918.022,-244.763 914.223,-254.653 923.361,-249.291 918.022,-244.763"/>
</g>
<!-- Box_TestModel -->
<g id="node4" class="node"><title>Box_TestModel</title>
<polygon fill="#fcfcda" stroke="black" points="504,-67 504,-139 710,-139 710,-67 504,-67"/>
<text text-anchor="middle" x="607" y="-127.8" font-family="Helvetica,sans-Serif" font-size="8.00">TestModel</text>
<polyline fill="none" stroke="black" points="504,-119 710,-119 "/>
<text text-anchor="middle" x="607" y="-107.8" font-family="Helvetica,sans-Serif" font-size="8.00"> </text>
<polyline fill="none" stroke="black" points="504,-99 710,-99 "/>
<text text-anchor="start" x="512" y="-87.8" font-family="Helvetica,sans-Serif" font-size="8.00">+ TestModel (GameState state, GameModelInfo info)</text>
<text text-anchor="start" x="512" y="-75.8" font-family="Helvetica,sans-Serif" font-size="8.00">+ Update (GameTime gameTime) override</text>
</g>
<!-- Box_GameModel&#45;&gt;Box_TestModel -->
<g id="edge8" class="edge"><title>Box_GameModel&#45;&gt;Box_TestModel</title>
<path fill="none" stroke="midnightblue" d="M709.738,-246.732C681.198,-206.805 652.528,-166.695 632.755,-139.032"/>
<polygon fill="none" stroke="midnightblue" points="706.969,-248.877 715.631,-254.977 712.664,-244.806 706.969,-248.877"/>
</g>
<!-- Box_KnotRenderer -->
<g id="node5" class="node"><title>Box_KnotRenderer</title>
<polygon fill="#fcfcda" stroke="black" points="480,-315 480,-459 686,-459 686,-315 480,-315"/>
<text text-anchor="middle" x="583" y="-447.8" font-family="Helvetica,sans-Serif" font-size="8.00">KnotRenderer</text>
<polyline fill="none" stroke="black" points="480,-439 686,-439 "/>
<text text-anchor="start" x="488" y="-427.8" font-family="Helvetica,sans-Serif" font-size="8.00"># state : GameState</text>
<text text-anchor="start" x="488" y="-415.8" font-family="Helvetica,sans-Serif" font-size="8.00">+ World : World abstract</text>
<text text-anchor="start" x="488" y="-403.8" font-family="Helvetica,sans-Serif" font-size="8.00">+ Info : dynamic abstract</text>
<polyline fill="none" stroke="black" points="480,-395 686,-395 "/>
<text text-anchor="start" x="488" y="-383.8" font-family="Helvetica,sans-Serif" font-size="8.00">+ KnotRenderer (GameState state)</text>
<text text-anchor="start" x="488" y="-371.8" font-family="Helvetica,sans-Serif" font-size="8.00">+ OnEdgesChanged (EdgeList edges) abstract</text>
<text text-anchor="start" x="488" y="-359.8" font-family="Helvetica,sans-Serif" font-size="8.00">+ Update (GameTime gameTime) abstract</text>
<text text-anchor="start" x="488" y="-347.8" font-family="Helvetica,sans-Serif" font-size="8.00">+ Draw (GameTime gameTime) abstract</text>
<text text-anchor="start" x="488" y="-335.8" font-family="Helvetica,sans-Serif" font-size="8.00">+ Intersects (Ray ray) : GameObjectDistance abstract</text>
<text text-anchor="start" x="488" y="-323.8" font-family="Helvetica,sans-Serif" font-size="8.00">+ Center () : Vector3 abstract</text>
</g>
<!-- Box_LineRenderer -->
<g id="node6" class="node"><title>Box_LineRenderer</title>
<polygon fill="#fcfcda" stroke="black" points="268,-19 268,-187 486,-187 486,-19 268,-19"/>
<text text-anchor="middle" x="377" y="-175.8" font-family="Helvetica,sans-Serif" font-size="8.00">LineRenderer</text>
<polyline fill="none" stroke="black" points="268,-167 486,-167 "/>
<text text-anchor="start" x="276" y="-155.8" font-family="Helvetica,sans-Serif" font-size="8.00">+ Info : dynamic override</text>
<text text-anchor="start" x="276" y="-143.8" font-family="Helvetica,sans-Serif" font-size="8.00">+ World : World override</text>
<text text-anchor="start" x="276" y="-131.8" font-family="Helvetica,sans-Serif" font-size="8.00">&#45; basicEffect : BasicEffect</text>
<text text-anchor="start" x="276" y="-119.8" font-family="Helvetica,sans-Serif" font-size="8.00">&#45; edges : EdgeList</text>
<polyline fill="none" stroke="black" points="268,-111 486,-111 "/>
<text text-anchor="start" x="276" y="-99.8" font-family="Helvetica,sans-Serif" font-size="8.00">+ LineRenderer (GameState state, GameObjectInfo info)</text>
<text text-anchor="start" x="276" y="-87.8" font-family="Helvetica,sans-Serif" font-size="8.00">+ Update (GameTime gameTime) override</text>
<text text-anchor="start" x="276" y="-75.8" font-family="Helvetica,sans-Serif" font-size="8.00">+ OnEdgesChanged (EdgeList edges) override</text>
<text text-anchor="start" x="276" y="-63.8" font-family="Helvetica,sans-Serif" font-size="8.00">+ Draw (GameTime gameTime) override</text>
<text text-anchor="start" x="276" y="-51.8" font-family="Helvetica,sans-Serif" font-size="8.00">&#45; DrawRoundedLines ()</text>
<text text-anchor="start" x="276" y="-39.8" font-family="Helvetica,sans-Serif" font-size="8.00">+ Intersects (Ray ray) : GameObjectDistance override</text>
<text text-anchor="start" x="276" y="-27.8" font-family="Helvetica,sans-Serif" font-size="8.00">+ Center () : Vector3 override</text>
</g>
<!-- Box_KnotRenderer&#45;&gt;Box_LineRenderer -->
<g id="edge14" class="edge"><title>Box_KnotRenderer&#45;&gt;Box_LineRenderer</title>
<path fill="none" stroke="midnightblue" d="M524.696,-306.619C497.601,-269.265 465.387,-224.854 437.969,-187.054"/>
<polygon fill="none" stroke="midnightblue" points="522.046,-308.928 530.751,-314.968 527.713,-304.818 522.046,-308.928"/>
</g>
<!-- Box_PipeRenderer -->
<g id="node7" class="node"><title>Box_PipeRenderer</title>
<polygon fill="#fcfcda" stroke="black" points="-0.5,-1 -0.5,-205 218.5,-205 218.5,-1 -0.5,-1"/>
<text text-anchor="middle" x="109" y="-193.8" font-family="Helvetica,sans-Serif" font-size="8.00">PipeRenderer</text>
<polyline fill="none" stroke="black" points="-0.5,-185 218.5,-185 "/>
<text text-anchor="start" x="7.5" y="-173.8" font-family="Helvetica,sans-Serif" font-size="8.00">+ Info : dynamic override</text>
<text text-anchor="start" x="7.5" y="-161.8" font-family="Helvetica,sans-Serif" font-size="8.00">+ World : World override</text>
<text text-anchor="start" x="7.5" y="-149.8" font-family="Helvetica,sans-Serif" font-size="8.00">&#45; pipes : List&lt;PipeModel&gt;</text>
<text text-anchor="start" x="7.5" y="-137.8" font-family="Helvetica,sans-Serif" font-size="8.00">&#45; knots : List&lt;NodeModel&gt;</text>
<text text-anchor="start" x="7.5" y="-125.8" font-family="Helvetica,sans-Serif" font-size="8.00">&#45; pipeFactory : PipeModelFactory</text>
<text text-anchor="start" x="7.5" y="-113.8" font-family="Helvetica,sans-Serif" font-size="8.00">&#45; knotFactory : NodeModelFactory</text>
<polyline fill="none" stroke="black" points="-0.5,-105 218.5,-105 "/>
<text text-anchor="start" x="7.5" y="-93.8" font-family="Helvetica,sans-Serif" font-size="8.00">+ PipeRenderer (GameState state, GameObjectInfo info)</text>
<text text-anchor="start" x="7.5" y="-81.8" font-family="Helvetica,sans-Serif" font-size="8.00">+ Update (GameTime gameTime) override</text>
<text text-anchor="start" x="7.5" y="-69.8" font-family="Helvetica,sans-Serif" font-size="8.00">+ OnEdgesChanged (EdgeList edges) override</text>
<text text-anchor="start" x="7.5" y="-57.8" font-family="Helvetica,sans-Serif" font-size="8.00">+ GetEnumerator () : IEnumerator&lt;IGameObject&gt;</text>
<text text-anchor="start" x="7.5" y="-45.8" font-family="Helvetica,sans-Serif" font-size="8.00">&#45; IEnumerable.GetEnumerator () : IEnumerator</text>
<text text-anchor="start" x="7.5" y="-33.8" font-family="Helvetica,sans-Serif" font-size="8.00">+ Draw (GameTime gameTime) override</text>
<text text-anchor="start" x="7.5" y="-21.8" font-family="Helvetica,sans-Serif" font-size="8.00">+ Intersects (Ray ray) : GameObjectDistance override</text>
<text text-anchor="start" x="7.5" y="-9.8" font-family="Helvetica,sans-Serif" font-size="8.00">+ Center () : Vector3 override</text>
</g>
<!-- Box_KnotRenderer&#45;&gt;Box_PipeRenderer -->
<g id="edge16" class="edge"><title>Box_KnotRenderer&#45;&gt;Box_PipeRenderer</title>
<path fill="none" stroke="midnightblue" d="M537.439,-306.739C519.747,-282.332 497.34,-257.812 471,-242 389.06,-192.81 347.576,-241.889 259,-206 245.386,-200.484 231.768,-193.573 218.598,-185.957"/>
<polygon fill="none" stroke="midnightblue" points="534.637,-308.839 543.257,-314.998 540.36,-304.807 534.637,-308.839"/>
</g>
<!-- Box_MovableGameObject -->
<g id="node8" class="node"><title>Box_MovableGameObject</title>
<polygon fill="#fcfcda" stroke="black" points="933.5,-297 933.5,-477 1184.5,-477 1184.5,-297 933.5,-297"/>
<text text-anchor="middle" x="1059" y="-465.8" font-family="Helvetica,sans-Serif" font-size="8.00">MovableGameObject</text>
<polyline fill="none" stroke="black" points="933.5,-457 1184.5,-457 "/>
<text text-anchor="start" x="941.5" y="-445.8" font-family="Helvetica,sans-Serif" font-size="8.00">&#45; state : GameState</text>
<text text-anchor="start" x="941.5" y="-433.8" font-family="Helvetica,sans-Serif" font-size="8.00">&#45; Obj : IGameObject</text>
<text text-anchor="start" x="941.5" y="-421.8" font-family="Helvetica,sans-Serif" font-size="8.00">+ World : World</text>
<text text-anchor="start" x="941.5" y="-409.8" font-family="Helvetica,sans-Serif" font-size="8.00">+ Info : dynamic</text>
<polyline fill="none" stroke="black" points="933.5,-401 1184.5,-401 "/>
<text text-anchor="start" x="941.5" y="-389.8" font-family="Helvetica,sans-Serif" font-size="8.00">+ MovableGameObject (GameState state, IGameObject obj)</text>
<text text-anchor="start" x="941.5" y="-377.8" font-family="Helvetica,sans-Serif" font-size="8.00"># CurrentGroundPlane () : Plane</text>
<text text-anchor="start" x="941.5" y="-365.8" font-family="Helvetica,sans-Serif" font-size="8.00"># CurrentMouseRay () : Ray</text>
<text text-anchor="start" x="941.5" y="-353.8" font-family="Helvetica,sans-Serif" font-size="8.00"># CurrentMousePosition (Ray ray, Plane groundPlane) : Vector3?</text>
<text text-anchor="start" x="941.5" y="-341.8" font-family="Helvetica,sans-Serif" font-size="8.00">+ Update (GameTime gameTime) virtual</text>
<text text-anchor="start" x="941.5" y="-329.8" font-family="Helvetica,sans-Serif" font-size="8.00">+ Draw (GameTime gameTime)</text>
<text text-anchor="start" x="941.5" y="-317.8" font-family="Helvetica,sans-Serif" font-size="8.00">+ Intersects (Ray ray) : GameObjectDistance</text>
<text text-anchor="start" x="941.5" y="-305.8" font-family="Helvetica,sans-Serif" font-size="8.00">+ Center () : Vector3</text>
</g>
<!-- Box_PipeMovement -->
<g id="node9" class="node"><title>Box_PipeMovement</title>
<polygon fill="#fcfcda" stroke="black" points="125.5,-261 125.5,-513 462.5,-513 462.5,-261 125.5,-261"/>
<text text-anchor="middle" x="294" y="-501.8" font-family="Helvetica,sans-Serif" font-size="8.00">PipeMovement</text>
<polyline fill="none" stroke="black" points="125.5,-493 462.5,-493 "/>
<text text-anchor="start" x="133.5" y="-481.8" font-family="Helvetica,sans-Serif" font-size="8.00">&#45; state : GameState</text>
<text text-anchor="start" x="133.5" y="-469.8" font-family="Helvetica,sans-Serif" font-size="8.00">+ World : World</text>
<text text-anchor="start" x="133.5" y="-457.8" font-family="Helvetica,sans-Serif" font-size="8.00">+ Info : dynamic</text>
<text text-anchor="start" x="133.5" y="-445.8" font-family="Helvetica,sans-Serif" font-size="8.00">+ Knot : Knot</text>
<text text-anchor="start" x="133.5" y="-433.8" font-family="Helvetica,sans-Serif" font-size="8.00">&#45; previousMousePosition : Vector3</text>
<text text-anchor="start" x="133.5" y="-421.8" font-family="Helvetica,sans-Serif" font-size="8.00">&#45; shadowObjects : List&lt;ShadowGameObject&gt;</text>
<polyline fill="none" stroke="black" points="125.5,-413 462.5,-413 "/>
<text text-anchor="start" x="133.5" y="-401.8" font-family="Helvetica,sans-Serif" font-size="8.00">+ PipeMovement (GameState state, World world, GameObjectInfo info)</text>
<text text-anchor="start" x="133.5" y="-389.8" font-family="Helvetica,sans-Serif" font-size="8.00">+ Update (GameTime gameTime)</text>
<text text-anchor="start" x="133.5" y="-377.8" font-family="Helvetica,sans-Serif" font-size="8.00">&#45; CreateShadowPipes ()</text>
<text text-anchor="start" x="133.5" y="-365.8" font-family="Helvetica,sans-Serif" font-size="8.00">&#45; ComputeDirection (Vector3 currentMousePosition, out Vector3 direction, out float count)</text>
<text text-anchor="start" x="133.5" y="-353.8" font-family="Helvetica,sans-Serif" font-size="8.00">&#45; ComputeDirection (Vector3 currentMousePosition, out Vector3 direction, out int countInt)</text>
<text text-anchor="start" x="133.5" y="-341.8" font-family="Helvetica,sans-Serif" font-size="8.00">&#45; MoveShadowPipes (Vector3 currentMousePosition)</text>
<text text-anchor="start" x="133.5" y="-329.8" font-family="Helvetica,sans-Serif" font-size="8.00">&#45; MovePipes (Vector3 currentMousePosition)</text>
<text text-anchor="start" x="133.5" y="-317.8" font-family="Helvetica,sans-Serif" font-size="8.00">+ Draw (GameTime gameTime)</text>
<text text-anchor="start" x="133.5" y="-305.8" font-family="Helvetica,sans-Serif" font-size="8.00">+ GetEnumerator () : IEnumerator&lt;IGameObject&gt;</text>
<text text-anchor="start" x="133.5" y="-293.8" font-family="Helvetica,sans-Serif" font-size="8.00">&#45; IEnumerable.GetEnumerator () : IEnumerator</text>
<text text-anchor="start" x="133.5" y="-281.8" font-family="Helvetica,sans-Serif" font-size="8.00">+ Intersects (Ray ray) : GameObjectDistance</text>
<text text-anchor="start" x="133.5" y="-269.8" font-family="Helvetica,sans-Serif" font-size="8.00">+ Center () : Vector3</text>
</g>
<!-- Box_ShadowGameObject -->
<g id="node10" class="node"><title>Box_ShadowGameObject</title>
<polygon fill="#fcfcda" stroke="black" points="1201.5,-303 1201.5,-471 1430.5,-471 1430.5,-303 1201.5,-303"/>
<text text-anchor="middle" x="1316" y="-459.8" font-family="Helvetica,sans-Serif" font-size="8.00">ShadowGameObject</text>
<polyline fill="none" stroke="black" points="1201.5,-451 1430.5,-451 "/>
<text text-anchor="start" x="1209.5" y="-439.8" font-family="Helvetica,sans-Serif" font-size="8.00"># state : GameState</text>
<text text-anchor="start" x="1209.5" y="-427.8" font-family="Helvetica,sans-Serif" font-size="8.00">&#45; Obj : IGameObject</text>
<text text-anchor="start" x="1209.5" y="-415.8" font-family="Helvetica,sans-Serif" font-size="8.00">+ World : World</text>
<text text-anchor="start" x="1209.5" y="-403.8" font-family="Helvetica,sans-Serif" font-size="8.00">+ Info : dynamic</text>
<text text-anchor="start" x="1209.5" y="-391.8" font-family="Helvetica,sans-Serif" font-size="8.00">+ ShadowPosition : Vector3</text>
<text text-anchor="start" x="1209.5" y="-379.8" font-family="Helvetica,sans-Serif" font-size="8.00">+ OriginalPosition : Vector3</text>
<polyline fill="none" stroke="black" points="1201.5,-371 1430.5,-371 "/>
<text text-anchor="start" x="1209.5" y="-359.8" font-family="Helvetica,sans-Serif" font-size="8.00">+ ShadowGameObject (GameState state, IGameObject obj)</text>
<text text-anchor="start" x="1209.5" y="-347.8" font-family="Helvetica,sans-Serif" font-size="8.00">+ Update (GameTime gameTime) virtual</text>
<text text-anchor="start" x="1209.5" y="-335.8" font-family="Helvetica,sans-Serif" font-size="8.00">+ Draw (GameTime gameTime) virtual</text>
<text text-anchor="start" x="1209.5" y="-323.8" font-family="Helvetica,sans-Serif" font-size="8.00">+ Intersects (Ray ray) : GameObjectDistance</text>
<text text-anchor="start" x="1209.5" y="-311.8" font-family="Helvetica,sans-Serif" font-size="8.00">+ Center () : Vector3</text>
</g>
<!-- Box_ShadowGameModel -->
<g id="node11" class="node"><title>Box_ShadowGameModel</title>
<polygon fill="#fcfcda" stroke="black" points="1198,-55 1198,-151 1434,-151 1434,-55 1198,-55"/>
<text text-anchor="middle" x="1316" y="-139.8" font-family="Helvetica,sans-Serif" font-size="8.00">ShadowGameModel</text>
<polyline fill="none" stroke="black" points="1198,-131 1434,-131 "/>
<text text-anchor="start" x="1206" y="-119.8" font-family="Helvetica,sans-Serif" font-size="8.00">&#45; Model : GameModel</text>
<text text-anchor="start" x="1206" y="-107.8" font-family="Helvetica,sans-Serif" font-size="8.00">+ ShadowColor : Color</text>
<text text-anchor="start" x="1206" y="-95.8" font-family="Helvetica,sans-Serif" font-size="8.00">+ ShadowAlpha : float</text>
<polyline fill="none" stroke="black" points="1198,-87 1434,-87 "/>
<text text-anchor="start" x="1206" y="-75.8" font-family="Helvetica,sans-Serif" font-size="8.00">+ ShadowGameModel (GameState state, GameModel model)</text>
<text text-anchor="start" x="1206" y="-63.8" font-family="Helvetica,sans-Serif" font-size="8.00">+ Draw (GameTime gameTime) override</text>
</g>
<!-- Box_ShadowGameObject&#45;&gt;Box_ShadowGameModel -->
<g id="edge28" class="edge"><title>Box_ShadowGameObject&#45;&gt;Box_ShadowGameModel</title>
<path fill="none" stroke="midnightblue" d="M1316,-292.665C1316,-245.34 1316,-190.024 1316,-151.387"/>
<polygon fill="none" stroke="midnightblue" points="1312.5,-292.943 1316,-302.943 1319.5,-292.943 1312.5,-292.943"/>
</g>
<!-- Box_TexturedRectangle -->
<g id="node12" class="node"><title>Box_TexturedRectangle</title>
<polygon fill="#fcfcda" stroke="black" points="1447.5,-243 1447.5,-531 1708.5,-531 1708.5,-243 1447.5,-243"/>
<text text-anchor="middle" x="1578" y="-519.8" font-family="Helvetica,sans-Serif" font-size="8.00">TexturedRectangle</text>
<polyline fill="none" stroke="black" points="1447.5,-511 1708.5,-511 "/>
<text text-anchor="start" x="1455.5" y="-499.8" font-family="Helvetica,sans-Serif" font-size="8.00"># state : GameState</text>
<text text-anchor="start" x="1455.5" y="-487.8" font-family="Helvetica,sans-Serif" font-size="8.00">+ Info : dynamic</text>
<text text-anchor="start" x="1455.5" y="-475.8" font-family="Helvetica,sans-Serif" font-size="8.00">+ World : World</text>
<text text-anchor="start" x="1455.5" y="-463.8" font-family="Helvetica,sans-Serif" font-size="8.00">&#45; UpperLeft : Vector3</text>
<text text-anchor="start" x="1455.5" y="-451.8" font-family="Helvetica,sans-Serif" font-size="8.00">&#45; LowerLeft : Vector3</text>
<text text-anchor="start" x="1455.5" y="-439.8" font-family="Helvetica,sans-Serif" font-size="8.00">&#45; UpperRight : Vector3</text>
<text text-anchor="start" x="1455.5" y="-427.8" font-family="Helvetica,sans-Serif" font-size="8.00">&#45; LowerRight : Vector3</text>
<text text-anchor="start" x="1455.5" y="-415.8" font-family="Helvetica,sans-Serif" font-size="8.00">&#45; Normal : Vector3</text>
<text text-anchor="start" x="1455.5" y="-403.8" font-family="Helvetica,sans-Serif" font-size="8.00">&#45; Vertices : VertexPositionNormalTexture[]</text>
<text text-anchor="start" x="1455.5" y="-391.8" font-family="Helvetica,sans-Serif" font-size="8.00">&#45; Indexes : short[]</text>
<text text-anchor="start" x="1455.5" y="-379.8" font-family="Helvetica,sans-Serif" font-size="8.00">&#45; basicEffect : BasicEffect</text>
<text text-anchor="start" x="1455.5" y="-367.8" font-family="Helvetica,sans-Serif" font-size="8.00">&#45; texture : Texture2D</text>
<polyline fill="none" stroke="black" points="1447.5,-359 1708.5,-359 "/>
<text text-anchor="start" x="1455.5" y="-347.8" font-family="Helvetica,sans-Serif" font-size="8.00">+ TexturedRectangle (GameState state, TexturedRectangleInfo info)</text>
<text text-anchor="start" x="1455.5" y="-335.8" font-family="Helvetica,sans-Serif" font-size="8.00">+ Update (GameTime gameTime)</text>
<text text-anchor="start" x="1455.5" y="-323.8" font-family="Helvetica,sans-Serif" font-size="8.00">+ Draw (GameTime gameTime)</text>
<text text-anchor="start" x="1455.5" y="-311.8" font-family="Helvetica,sans-Serif" font-size="8.00">&#45; FillVertices ()</text>
<text text-anchor="start" x="1455.5" y="-299.8" font-family="Helvetica,sans-Serif" font-size="8.00"># SetPosition (Vector3 position)</text>
<text text-anchor="start" x="1455.5" y="-287.8" font-family="Helvetica,sans-Serif" font-size="8.00">&#45; Length () : Vector3</text>
<text text-anchor="start" x="1455.5" y="-275.8" font-family="Helvetica,sans-Serif" font-size="8.00">+ Bounds () : BoundingBox[]</text>
<text text-anchor="start" x="1455.5" y="-263.8" font-family="Helvetica,sans-Serif" font-size="8.00">+ Intersects (Ray ray) : GameObjectDistance</text>
<text text-anchor="start" x="1455.5" y="-251.8" font-family="Helvetica,sans-Serif" font-size="8.00">+ Center () : Vector3</text>
</g>
<!-- Box_IGameObject -->
<g id="node13" class="node"><title>Box_IGameObject</title>
<polygon fill="#dafcda" stroke="black" points="846,-569 846,-677 1022,-677 1022,-569 846,-569"/>
<text text-anchor="middle" x="934" y="-665.8" font-family="Helvetica,sans-Serif" font-size="8.00">IGameObject</text>
<polyline fill="none" stroke="black" points="846,-657 1022,-657 "/>
<text text-anchor="start" x="854" y="-645.8" font-family="Helvetica,sans-Serif" font-size="8.00">+ Info : dynamic</text>
<text text-anchor="start" x="854" y="-633.8" font-family="Helvetica,sans-Serif" font-size="8.00">+ World : World</text>
<polyline fill="none" stroke="black" points="846,-625 1022,-625 "/>
<text text-anchor="start" x="854" y="-613.8" font-family="Helvetica,sans-Serif" font-size="8.00">+ Draw (GameTime gameTime)</text>
<text text-anchor="start" x="854" y="-601.8" font-family="Helvetica,sans-Serif" font-size="8.00">+ Update (GameTime gameTime)</text>
<text text-anchor="start" x="854" y="-589.8" font-family="Helvetica,sans-Serif" font-size="8.00">+ Intersects (Ray ray) : GameObjectDistance</text>
<text text-anchor="start" x="854" y="-577.8" font-family="Helvetica,sans-Serif" font-size="8.00">+ Center () : Vector3</text>
</g>
<!-- Box_IGameObject&#45;&gt;Box_GameModel -->
<g id="edge2" class="edge"><title>Box_IGameObject&#45;&gt;Box_GameModel</title>
<path fill="none" stroke="midnightblue" d="M900.788,-559.789C894.096,-547.054 886.83,-533.225 879.421,-519.123"/>
<polygon fill="none" stroke="midnightblue" points="897.802,-561.632 905.552,-568.857 903.999,-558.376 897.802,-561.632"/>
</g>
<!-- Box_IGameObject&#45;&gt;Box_KnotRenderer -->
<g id="edge12" class="edge"><title>Box_IGameObject&#45;&gt;Box_KnotRenderer</title>
<path fill="none" stroke="midnightblue" d="M836.223,-599.091C790.373,-584.688 736.773,-563.002 695,-532 668.563,-512.38 645.196,-484.923 626.737,-459.174"/>
<polygon fill="none" stroke="midnightblue" points="835.295,-602.467 845.882,-602.055 837.348,-595.775 835.295,-602.467"/>
</g>
<!-- Box_IGameObject&#45;&gt;Box_MovableGameObject -->
<g id="edge20" class="edge"><title>Box_IGameObject&#45;&gt;Box_MovableGameObject</title>
<path fill="none" stroke="midnightblue" d="M967.5,-559.752C980.886,-534.479 996.553,-504.901 1011.1,-477.433"/>
<polygon fill="none" stroke="midnightblue" points="964.265,-558.382 962.678,-568.857 970.451,-561.658 964.265,-558.382"/>
</g>
<!-- Box_IGameObject&#45;&gt;Box_PipeMovement -->
<g id="edge22" class="edge"><title>Box_IGameObject&#45;&gt;Box_PipeMovement</title>
<path fill="none" stroke="midnightblue" d="M835.811,-604.962C704.861,-580.722 487.488,-539.767 471,-532 459.321,-526.499 447.754,-520.057 436.46,-513.003"/>
<polygon fill="none" stroke="midnightblue" points="835.395,-608.445 845.865,-606.822 836.668,-601.561 835.395,-608.445"/>
</g>
<!-- Box_IGameObject&#45;&gt;Box_ShadowGameObject -->
<g id="edge26" class="edge"><title>Box_IGameObject&#45;&gt;Box_ShadowGameObject</title>
<path fill="none" stroke="midnightblue" d="M1031.89,-601.763C1082.96,-587.556 1144.68,-565.244 1193,-532 1216.93,-515.535 1238.95,-493.256 1257.53,-471.106"/>
<polygon fill="none" stroke="midnightblue" points="1030.89,-598.409 1022.16,-604.41 1032.72,-605.163 1030.89,-598.409"/>
</g>
<!-- Box_IGameObject&#45;&gt;Box_TexturedRectangle -->
<g id="edge30" class="edge"><title>Box_IGameObject&#45;&gt;Box_TexturedRectangle</title>
<path fill="none" stroke="midnightblue" d="M1032.23,-612.596C1158.64,-597.968 1370.16,-568.93 1439,-532 1441.77,-530.516 1444.51,-528.958 1447.23,-527.331"/>
<polygon fill="none" stroke="midnightblue" points="1031.69,-609.135 1022.16,-613.753 1032.49,-616.09 1031.69,-609.135"/>
</g>
<!-- Box_IEdgeChangeListener -->
<g id="node14" class="node"><title>Box_IEdgeChangeListener</title>
<polygon fill="#ffffff" stroke="black" points="535.5,-613 535.5,-633 630.5,-633 630.5,-613 535.5,-613"/>
<text text-anchor="middle" x="583" y="-621.8" font-family="Helvetica,sans-Serif" font-size="8.00">IEdgeChangeListener</text>
</g>
<!-- Box_IEdgeChangeListener&#45;&gt;Box_KnotRenderer -->
<g id="edge10" class="edge"><title>Box_IEdgeChangeListener&#45;&gt;Box_KnotRenderer</title>
<path fill="none" stroke="midnightblue" d="M583,-602.706C583,-571.142 583,-508.763 583,-459.17"/>
<polygon fill="none" stroke="midnightblue" points="579.5,-602.859 583,-612.859 586.5,-602.859 579.5,-602.859"/>
</g>
<!-- Box_IEnumerable -->
<g id="node15" class="node"><title>Box_IEnumerable</title>
<polygon fill="#ffffff" stroke="black" points="137,-613 137,-633 255,-633 255,-613 137,-613"/>
<text text-anchor="middle" x="196" y="-621.8" font-family="Helvetica,sans-Serif" font-size="8.00">IEnumerable&lt;IGameObject&gt;</text>
</g>
<!-- Box_IEnumerable&#45;&gt;Box_PipeRenderer -->
<g id="edge18" class="edge"><title>Box_IEnumerable&#45;&gt;Box_PipeRenderer</title>
<path fill="none" stroke="midnightblue" d="M174.905,-606.391C155.754,-589.871 128.764,-562.622 117,-532 76.3277,-426.13 81.2036,-294.45 91.836,-205.106"/>
<polygon fill="none" stroke="midnightblue" points="172.897,-609.274 182.817,-612.996 177.383,-603.901 172.897,-609.274"/>
</g>
<!-- Box_IEnumerable&#45;&gt;Box_PipeMovement -->
<g id="edge24" class="edge"><title>Box_IEnumerable&#45;&gt;Box_PipeMovement</title>
<path fill="none" stroke="midnightblue" d="M204.146,-603.383C212.715,-582.747 226.97,-548.419 241.629,-513.118"/>
<polygon fill="none" stroke="midnightblue" points="200.814,-602.282 200.211,-612.859 207.278,-604.966 200.814,-602.282"/>
</g>
</g>
</svg>
