<?xml version="1.0" encoding="UTF-8" standalone="no"?>
<!DOCTYPE svg PUBLIC "-//W3C//DTD SVG 1.1//EN"
 "http://www.w3.org/Graphics/SVG/1.1/DTD/svg11.dtd">
<!-- Generated by graphviz version 2.26.3 (20100126.1600)
 -->
<!-- Title: MenuItem Pages: 1 -->
<svg width="833pt" height="1233pt"
 viewBox="0.00 0.00 200.00 296.00" xmlns="http://www.w3.org/2000/svg" xmlns:xlink="http://www.w3.org/1999/xlink">
<g id="graph1" class="graph" transform="scale(4.16667 4.16667) rotate(0) translate(4 292)">
<title>MenuItem</title>
<polygon fill="white" stroke="white" points="-4,5 -4,-292 197,-292 197,5 -4,5"/>
<!-- Box_KnotStringIO -->
<g id="node1" class="node"><title>Box_KnotStringIO</title>
<polygon fill="#fcfcda" stroke="black" points="-0.5,-1 -0.5,-175 192.5,-175 192.5,-1 -0.5,-1"/>
<text text-anchor="middle" x="96" y="-163.8" font-family="Arial" font-size="8.00">KnotStringIO</text>
<polyline fill="none" stroke="black" points="-0.5,-157 192.5,-157 "/>
<text text-anchor="start" x="7.5" y="-145.8" font-family="Arial" font-size="8.00">&#45; lines : IEnumerable&lt;string&gt;</text>
<text text-anchor="start" x="7.5" y="-135.8" font-family="Arial" font-size="8.00">+ Edges : IEnumerable&lt;Edge&gt;</text>
<text text-anchor="start" x="7.5" y="-125.8" font-family="Arial" font-size="8.00">+ CountEdges : int</text>
<text text-anchor="start" x="7.5" y="-115.8" font-family="Arial" font-size="8.00">+ Name : string</text>
<text text-anchor="start" x="7.5" y="-105.8" font-family="Arial" font-size="8.00">+ Content : string</text>
<polyline fill="none" stroke="black" points="-0.5,-99 192.5,-99 "/>
<text text-anchor="start" x="7.5" y="-87.8" font-family="Arial" font-size="8.00">&#45; DecodeEdge (char c) : Edge static</text>
<text text-anchor="start" x="7.5" y="-77.8" font-family="Arial" font-size="8.00">&#45; EncodeEdge (Edge edge) : char static</text>
<text text-anchor="start" x="7.5" y="-67.8" font-family="Arial" font-size="8.00">+ Save (Knot knot)</text>
<text text-anchor="start" x="7.5" y="-57.8" font-family="Arial" font-size="8.00">&#45; DecodeColor (string hexString) : Color static</text>
<text text-anchor="start" x="7.5" y="-47.8" font-family="Arial" font-size="8.00">&#45; ToLines (Knot knot) : IEnumerable&lt;string&gt; static</text>
<text text-anchor="start" x="7.5" y="-37.8" font-family="Arial" font-size="8.00">&#45; EncodeColor (Color c) : String static</text>
<text text-anchor="start" x="7.5" y="-27.8" font-family="Arial" font-size="8.00">+ KnotStringIO (Knot knot)</text>
<text text-anchor="start" x="7.5" y="-17.8" font-family="Arial" font-size="8.00">+ KnotStringIO (string content)</text>
<text text-anchor="start" x="7.5" y="-7.8" font-family="Arial" font-size="8.00">+ ToString () : string</text>
</g>
<!-- Box_IKnotIO -->
<g id="node2" class="node"><title>Box_IKnotIO</title>
<polygon fill="#dafcda" stroke="black" points="34.5,-213 34.5,-287 157.5,-287 157.5,-213 34.5,-213"/>
<text text-anchor="middle" x="96" y="-275.8" font-family="Arial" font-size="8.00">IKnotIO</text>
<polyline fill="none" stroke="black" points="34.5,-269 157.5,-269 "/>
<text text-anchor="start" x="42.5" y="-257.8" font-family="Arial" font-size="8.00">+ Edges : IEnumerable&lt;Edge&gt;</text>
<text text-anchor="start" x="42.5" y="-247.8" font-family="Arial" font-size="8.00">+ CountEdges : int</text>
<text text-anchor="start" x="42.5" y="-237.8" font-family="Arial" font-size="8.00">+ Name : string</text>
<polyline fill="none" stroke="black" points="34.5,-231 157.5,-231 "/>
<text text-anchor="start" x="42.5" y="-219.8" font-family="Arial" font-size="8.00">+ Save (Knot knot)</text>
</g>
<!-- Box_IKnotIO&#45;&gt;Box_KnotStringIO -->
<g id="edge2" class="edge"><title>Box_IKnotIO&#45;&gt;Box_KnotStringIO</title>
<path fill="none" stroke="midnightblue" d="M96,-202.57C96,-193.873 96,-184.547 96,-175.111"/>
<polygon fill="none" stroke="midnightblue" points="92.5001,-202.834 96,-212.834 99.5001,-202.834 92.5001,-202.834"/>
</g>
</g>
</svg>
