<?xml version="1.0" encoding="UTF-8" standalone="no"?>
<!DOCTYPE svg PUBLIC "-//W3C//DTD SVG 1.1//EN"
 "http://www.w3.org/Graphics/SVG/1.1/DTD/svg11.dtd">
<!-- Generated by graphviz version 2.26.3 (20100126.1600)
 -->
<!-- Title: MenuItem Pages: 1 -->
<svg width="1987pt" height="3283pt"
 viewBox="0.00 0.00 477.00 788.00" xmlns="http://www.w3.org/2000/svg" xmlns:xlink="http://www.w3.org/1999/xlink">
<g id="graph1" class="graph" transform="scale(4.16667 4.16667) rotate(0) translate(4 784)">
<title>MenuItem</title>
<polygon fill="white" stroke="white" points="-4,5 -4,-784 474,-784 474,5 -4,5"/>
<!-- Box_Menu -->
<g id="node1" class="node"><title>Box_Menu</title>
<polygon fill="#fcfcda" stroke="black" points="75,-163 75,-397 469,-397 469,-163 75,-163"/>
<text text-anchor="middle" x="272" y="-385.8" font-family="Arial" font-size="8.00">Menu</text>
<polyline fill="none" stroke="black" points="75,-379 469,-379 "/>
<text text-anchor="start" x="83" y="-367.8" font-family="Arial" font-size="8.00">&#45; isVisible : bool</text>
<text text-anchor="start" x="83" y="-357.8" font-family="Arial" font-size="8.00"># Items : List&lt;MenuItem&gt;</text>
<text text-anchor="start" x="83" y="-347.8" font-family="Arial" font-size="8.00">+ Color&gt; ItemBackgroundColor : Func&lt;ItemState,</text>
<text text-anchor="start" x="83" y="-337.8" font-family="Arial" font-size="8.00">+ Color&gt; ItemForegroundColor : Func&lt;ItemState,</text>
<text text-anchor="start" x="83" y="-327.8" font-family="Arial" font-size="8.00">+ Vector2&gt; RelativeItemPosition : Func&lt;int,</text>
<text text-anchor="start" x="83" y="-317.8" font-family="Arial" font-size="8.00">+ ItemAlignX : HAlign?</text>
<text text-anchor="start" x="83" y="-307.8" font-family="Arial" font-size="8.00">+ ItemAlignY : VAlign?</text>
<text text-anchor="start" x="83" y="-297.8" font-family="Arial" font-size="8.00">+ Count : int</text>
<text text-anchor="start" x="83" y="-287.8" font-family="Arial" font-size="8.00">+ IsVisible : bool</text>
<text text-anchor="start" x="83" y="-277.8" font-family="Arial" font-size="8.00">&#45; ItemDisplayLayer : DisplayLayer</text>
<text text-anchor="start" x="83" y="-267.8" font-family="Arial" font-size="8.00">+ Vector2&gt; RelativeItemSize : Func&lt;int,</text>
<polyline fill="none" stroke="black" points="75,-261 469,-261 "/>
<text text-anchor="start" x="83" y="-249.8" font-family="Arial" font-size="8.00">&#45; assignMenuItemInfo (ref MenuItemInfo info, int num, MenuItem item)</text>
<text text-anchor="start" x="83" y="-239.8" font-family="Arial" font-size="8.00">+ Menu (GameState state, WidgetInfo info, DisplayLayer drawOrder)</text>
<text text-anchor="start" x="83" y="-229.8" font-family="Arial" font-size="8.00">+ this (int i) : MenuItem</text>
<text text-anchor="start" x="83" y="-219.8" font-family="Arial" font-size="8.00">+ SubComponents (GameTime gameTime) : IEnumerable&lt;IGameStateComponent&gt;</text>
<text text-anchor="start" x="83" y="-209.8" font-family="Arial" font-size="8.00">+ CollapseMenus (MenuItem menu)</text>
<text text-anchor="start" x="83" y="-199.8" font-family="Arial" font-size="8.00">+ AddButton (MenuItemInfo info) : MenuButton virtual</text>
<text text-anchor="start" x="83" y="-189.8" font-family="Arial" font-size="8.00">+ AddDropDown (MenuItemInfo info, DistinctOptionInfo option) virtual</text>
<text text-anchor="start" x="83" y="-179.8" font-family="Arial" font-size="8.00">+ AddDropDown (MenuItemInfo info, DropDownMenuItem[] items, DropDownMenuItem defaultItem) virtual</text>
<text text-anchor="start" x="83" y="-169.8" font-family="Arial" font-size="8.00">+ Clear ()</text>
</g>
<!-- Box_VerticalMenu -->
<g id="node5" class="node"><title>Box_VerticalMenu</title>
<polygon fill="#fcfcda" stroke="black" points="87,-1 87,-125 457,-125 457,-1 87,-1"/>
<text text-anchor="middle" x="272" y="-113.8" font-family="Arial" font-size="8.00">VerticalMenu</text>
<polyline fill="none" stroke="black" points="87,-107 457,-107 "/>
<text text-anchor="start" x="95" y="-95.8" font-family="Arial" font-size="8.00"># spriteBatch : SpriteBatch</text>
<text text-anchor="start" x="95" y="-85.8" font-family="Arial" font-size="8.00">+ Border : Border</text>
<polyline fill="none" stroke="black" points="87,-79 457,-79 "/>
<text text-anchor="start" x="95" y="-67.8" font-family="Arial" font-size="8.00">+ VerticalMenu (GameState state, WidgetInfo info, DisplayLayer drawOrder)</text>
<text text-anchor="start" x="95" y="-57.8" font-family="Arial" font-size="8.00">+ Align (Viewport viewport, float scale, int posX, int posY, int? sizeX)</text>
<text text-anchor="start" x="95" y="-47.8" font-family="Arial" font-size="8.00">+ AddButton (MenuItemInfo info) : MenuButton</text>
<text text-anchor="start" x="95" y="-37.8" font-family="Arial" font-size="8.00">+ AddDropDown (MenuItemInfo info, DistinctOptionInfo option)</text>
<text text-anchor="start" x="95" y="-27.8" font-family="Arial" font-size="8.00">+ AddDropDown (MenuItemInfo info, DropDownMenuItem[] items, DropDownMenuItem defaultItem)</text>
<text text-anchor="start" x="95" y="-17.8" font-family="Arial" font-size="8.00">+ Draw (GameTime gameTime)</text>
<text text-anchor="start" x="95" y="-7.8" font-family="Arial" font-size="8.00">+ Align (Viewport viewport, float scale, Vector2? givenPosition)</text>
</g>
<!-- Box_Menu&#45;&gt;Box_VerticalMenu -->
<g id="edge12" class="edge"><title>Box_Menu&#45;&gt;Box_VerticalMenu</title>
<path fill="none" stroke="midnightblue" d="M272,-152.908C272,-143.351 272,-133.993 272,-125.141"/>
<polygon fill="none" stroke="midnightblue" points="268.5,-152.925 272,-162.925 275.5,-152.925 268.5,-152.925"/>
</g>
<!-- Box_Widget -->
<g id="node2" class="node"><title>Box_Widget</title>
<polygon fill="#fcfcda" stroke="black" points="137.5,-435 137.5,-509 406.5,-509 406.5,-435 137.5,-435"/>
<text text-anchor="middle" x="272" y="-497.8" font-family="Arial" font-size="8.00">Widget</text>
<polyline fill="none" stroke="black" points="137.5,-491 406.5,-491 "/>
<text text-anchor="start" x="145.5" y="-479.8" font-family="Arial" font-size="8.00">+ Info : WidgetInfo</text>
<text text-anchor="start" x="145.5" y="-469.8" font-family="Arial" font-size="8.00">+ IsVisible : bool virtual</text>
<polyline fill="none" stroke="black" points="137.5,-463 406.5,-463 "/>
<text text-anchor="start" x="145.5" y="-451.8" font-family="Arial" font-size="8.00">+ bounds () : Rectangle</text>
<text text-anchor="start" x="145.5" y="-441.8" font-family="Arial" font-size="8.00">+ Widget (GameState state, WidgetInfo info, DisplayLayer drawOrder)</text>
</g>
<!-- Box_Widget&#45;&gt;Box_Menu -->
<g id="edge2" class="edge"><title>Box_Widget&#45;&gt;Box_Menu</title>
<path fill="none" stroke="midnightblue" d="M272,-424.835C272,-416.203 272,-406.852 272,-397.201"/>
<polygon fill="none" stroke="midnightblue" points="268.5,-424.98 272,-434.98 275.5,-424.981 268.5,-424.98"/>
</g>
<!-- Box_DrawableGameStateComponent -->
<g id="node3" class="node"><title>Box_DrawableGameStateComponent</title>
<polygon fill="#fcfcda" stroke="black" points="106,-547 106,-631 438,-631 438,-547 106,-547"/>
<text text-anchor="middle" x="272" y="-619.8" font-family="Arial" font-size="8.00">DrawableGameStateComponent</text>
<polyline fill="none" stroke="black" points="106,-613 438,-613 "/>
<text text-anchor="start" x="114" y="-601.8" font-family="Arial" font-size="8.00">+ Index : DisplayLayer</text>
<text text-anchor="start" x="114" y="-591.8" font-family="Arial" font-size="8.00">&#45; _index : DisplayLayer</text>
<text text-anchor="start" x="114" y="-581.8" font-family="Arial" font-size="8.00">+ state : GameState</text>
<polyline fill="none" stroke="black" points="106,-575 438,-575 "/>
<text text-anchor="start" x="114" y="-563.8" font-family="Arial" font-size="8.00">+ DrawableGameStateComponent (GameState state, DisplayLayer index)</text>
<text text-anchor="start" x="114" y="-553.8" font-family="Arial" font-size="8.00">+ SubComponents (GameTime gameTime) : IEnumerable&lt;IGameStateComponent&gt; virtual</text>
</g>
<!-- Box_DrawableGameStateComponent&#45;&gt;Box_Widget -->
<g id="edge4" class="edge"><title>Box_DrawableGameStateComponent&#45;&gt;Box_Widget</title>
<path fill="none" stroke="midnightblue" d="M272,-536.482C272,-527.258 272,-517.834 272,-509.14"/>
<polygon fill="none" stroke="midnightblue" points="268.5,-536.76 272,-546.76 275.5,-536.76 268.5,-536.76"/>
</g>
<!-- Box_IGameStateComponent -->
<g id="node4" class="node"><title>Box_IGameStateComponent</title>
<polygon fill="#dafcda" stroke="black" points="0,-669 0,-723 308,-723 308,-669 0,-669"/>
<text text-anchor="middle" x="154" y="-711.8" font-family="Arial" font-size="8.00">IGameStateComponent</text>
<polyline fill="none" stroke="black" points="0,-705 308,-705 "/>
<text text-anchor="start" x="8" y="-693.8" font-family="Arial" font-size="8.00">+ Index : DisplayLayer</text>
<polyline fill="none" stroke="black" points="0,-687 308,-687 "/>
<text text-anchor="start" x="8" y="-675.8" font-family="Arial" font-size="8.00">+ SubComponents (GameTime gameTime) : IEnumerable&lt;IGameStateComponent&gt;</text>
</g>
<!-- Box_IGameStateComponent&#45;&gt;Box_DrawableGameStateComponent -->
<g id="edge8" class="edge"><title>Box_IGameStateComponent&#45;&gt;Box_DrawableGameStateComponent</title>
<path fill="none" stroke="midnightblue" d="M191.383,-662.102C202.133,-652.354 213.995,-641.598 225.236,-631.404"/>
<polygon fill="none" stroke="midnightblue" points="188.833,-659.689 183.776,-668.999 193.535,-664.875 188.833,-659.689"/>
</g>
<!-- Box_XnaDrawableGameComponent -->
<g id="node6" class="node"><title>Box_XnaDrawableGameComponent</title>
<polygon fill="#ffffff" stroke="black" points="326,-687 326,-705 456,-705 456,-687 326,-687"/>
<text text-anchor="middle" x="391" y="-693.8" font-family="Arial" font-size="8.00">Xna.DrawableGameComponent</text>
</g>
<!-- Box_XnaDrawableGameComponent&#45;&gt;Box_DrawableGameStateComponent -->
<g id="edge6" class="edge"><title>Box_XnaDrawableGameComponent&#45;&gt;Box_DrawableGameStateComponent</title>
<path fill="none" stroke="midnightblue" d="M373.226,-680.018C358.886,-667.124 338.035,-648.376 318.979,-631.241"/>
<polygon fill="none" stroke="midnightblue" points="371.078,-682.794 380.854,-686.877 375.758,-677.588 371.078,-682.794"/>
</g>
<!-- Box_XnaIGameComponent -->
<g id="node7" class="node"><title>Box_XnaIGameComponent</title>
<polygon fill="#ffffff" stroke="black" points="106,-761 106,-779 202,-779 202,-761 106,-761"/>
<text text-anchor="middle" x="154" y="-767.8" font-family="Arial" font-size="8.00">Xna.IGameComponent</text>
</g>
<!-- Box_XnaIGameComponent&#45;&gt;Box_IGameStateComponent -->
<g id="edge10" class="edge"><title>Box_XnaIGameComponent&#45;&gt;Box_IGameStateComponent</title>
<path fill="none" stroke="midnightblue" d="M154,-750.64C154,-742.2 154,-732.16 154,-723.004"/>
<polygon fill="none" stroke="midnightblue" points="150.5,-750.926 154,-760.926 157.5,-750.926 150.5,-750.926"/>
</g>
</g>
</svg>
