<?xml version="1.0" encoding="UTF-8" standalone="no"?>
<!DOCTYPE svg PUBLIC "-//W3C//DTD SVG 1.1//EN"
 "http://www.w3.org/Graphics/SVG/1.1/DTD/svg11.dtd">
<!-- Generated by graphviz version 2.26.3 (20100126.1600)
 -->
<!-- Title: MenuItem Pages: 1 -->
<svg width="1183pt" height="1825pt"
 viewBox="0.00 0.00 284.00 438.00" xmlns="http://www.w3.org/2000/svg" xmlns:xlink="http://www.w3.org/1999/xlink">
<g id="graph1" class="graph" transform="scale(4.16667 4.16667) rotate(0) translate(4 434)">
<title>MenuItem</title>
<polygon fill="white" stroke="white" points="-4,5 -4,-434 281,-434 281,5 -4,5"/>
<!-- Box_FadeEffect -->
<g id="node1" class="node"><title>Box_FadeEffect</title>
<polygon fill="#fcfcda" stroke="black" points="15.5,-1 15.5,-85 260.5,-85 260.5,-1 15.5,-1"/>
<text text-anchor="middle" x="138" y="-73.8" font-family="Arial" font-size="8.00">FadeEffect</text>
<polyline fill="none" stroke="black" points="15.5,-67 260.5,-67 "/>
<text text-anchor="start" x="23.5" y="-55.8" font-family="Arial" font-size="8.00">&#45; alpha : float</text>
<text text-anchor="start" x="23.5" y="-45.8" font-family="Arial" font-size="8.00">&#45; lastFrame : RenderTarget2D</text>
<text text-anchor="start" x="23.5" y="-35.8" font-family="Arial" font-size="8.00">+ IsFinished : bool</text>
<polyline fill="none" stroke="black" points="15.5,-29 260.5,-29 "/>
<text text-anchor="start" x="23.5" y="-17.8" font-family="Arial" font-size="8.00"># DrawRenderTarget (SpriteBatch spriteBatch, GameTime time)</text>
<text text-anchor="start" x="23.5" y="-7.8" font-family="Arial" font-size="8.00">+ FadeEffect (GameScreen screen, GameScreen oldState)</text>
</g>
<!-- Box_RenderEffect -->
<g id="node2" class="node"><title>Box_RenderEffect</title>
<polygon fill="#fcfcda" stroke="black" points="-0.5,-123 -0.5,-297 276.5,-297 276.5,-123 -0.5,-123"/>
<text text-anchor="middle" x="138" y="-285.8" font-family="Arial" font-size="8.00">RenderEffect</text>
<polyline fill="none" stroke="black" points="-0.5,-279 276.5,-279 "/>
<text text-anchor="start" x="7.5" y="-267.8" font-family="Arial" font-size="8.00">&#45; background : Color</text>
<text text-anchor="start" x="7.5" y="-257.8" font-family="Arial" font-size="8.00">&#45; renderTarget : RenderTargetCache</text>
<text text-anchor="start" x="7.5" y="-247.8" font-family="Arial" font-size="8.00">&#45; spriteBatch : SpriteBatch</text>
<text text-anchor="start" x="7.5" y="-237.8" font-family="Arial" font-size="8.00"># screen : GameScreen</text>
<text text-anchor="start" x="7.5" y="-227.8" font-family="Arial" font-size="8.00">+ RenderTarget : RenderTarget2D</text>
<polyline fill="none" stroke="black" points="-0.5,-221 276.5,-221 "/>
<text text-anchor="start" x="7.5" y="-209.8" font-family="Arial" font-size="8.00"># DrawRenderTarget (SpriteBatch spriteBatch, GameTime time) abstract</text>
<text text-anchor="start" x="7.5" y="-199.8" font-family="Arial" font-size="8.00">+ RenderEffect (GameScreen screen)</text>
<text text-anchor="start" x="7.5" y="-189.8" font-family="Arial" font-size="8.00">+ DrawModel (GameModel model, GameTime time) virtual</text>
<text text-anchor="start" x="7.5" y="-179.8" font-family="Arial" font-size="8.00">+ RemapModel (Model model) virtual</text>
<text text-anchor="start" x="7.5" y="-169.8" font-family="Arial" font-size="8.00">+ Begin (GameTime time)</text>
<text text-anchor="start" x="7.5" y="-159.8" font-family="Arial" font-size="8.00"># ModifyBasicEffect (BasicEffect effect, GameModel model)</text>
<text text-anchor="start" x="7.5" y="-149.8" font-family="Arial" font-size="8.00">+ Begin (Color background, GameTime time) virtual</text>
<text text-anchor="start" x="7.5" y="-139.8" font-family="Arial" font-size="8.00">+ End (GameTime time) virtual</text>
<text text-anchor="start" x="7.5" y="-129.8" font-family="Arial" font-size="8.00">+ DrawLastFrame (GameTime time)</text>
</g>
<!-- Box_RenderEffect&#45;&gt;Box_FadeEffect -->
<g id="edge2" class="edge"><title>Box_RenderEffect&#45;&gt;Box_FadeEffect</title>
<path fill="none" stroke="midnightblue" d="M138,-112.324C138,-102.933 138,-93.7881 138,-85.384"/>
<polygon fill="none" stroke="midnightblue" points="134.5,-112.587 138,-122.587 141.5,-112.587 134.5,-112.587"/>
</g>
<!-- Box_IRenderEffect -->
<g id="node3" class="node"><title>Box_IRenderEffect</title>
<polygon fill="#dafcda" stroke="black" points="39.5,-335 39.5,-429 236.5,-429 236.5,-335 39.5,-335"/>
<text text-anchor="middle" x="138" y="-417.8" font-family="Arial" font-size="8.00">IRenderEffect</text>
<polyline fill="none" stroke="black" points="39.5,-411 236.5,-411 "/>
<text text-anchor="start" x="47.5" y="-399.8" font-family="Arial" font-size="8.00">+ RenderTarget : RenderTarget2D</text>
<polyline fill="none" stroke="black" points="39.5,-393 236.5,-393 "/>
<text text-anchor="start" x="47.5" y="-381.8" font-family="Arial" font-size="8.00">+ Begin (GameTime time)</text>
<text text-anchor="start" x="47.5" y="-371.8" font-family="Arial" font-size="8.00">+ End (GameTime time)</text>
<text text-anchor="start" x="47.5" y="-361.8" font-family="Arial" font-size="8.00">+ RemapModel (Model model)</text>
<text text-anchor="start" x="47.5" y="-351.8" font-family="Arial" font-size="8.00">+ DrawModel (GameModel model, GameTime time)</text>
<text text-anchor="start" x="47.5" y="-341.8" font-family="Arial" font-size="8.00">+ DrawLastFrame (GameTime time)</text>
</g>
<!-- Box_IRenderEffect&#45;&gt;Box_RenderEffect -->
<g id="edge4" class="edge"><title>Box_IRenderEffect&#45;&gt;Box_RenderEffect</title>
<path fill="none" stroke="midnightblue" d="M138,-324.473C138,-315.697 138,-306.474 138,-297.233"/>
<polygon fill="none" stroke="midnightblue" points="134.5,-324.545 138,-334.545 141.5,-324.545 134.5,-324.545"/>
</g>
</g>
</svg>
