<?xml version="1.0" encoding="UTF-8" standalone="no"?>
<!DOCTYPE svg PUBLIC "-//W3C//DTD SVG 1.1//EN"
 "http://www.w3.org/Graphics/SVG/1.1/DTD/svg11.dtd">
<!-- Generated by graphviz version 2.26.3 (20100126.1600)
 -->
<!-- Title: MenuItem Pages: 1 -->
<svg width="354pt" height="506pt"
 viewBox="0.00 0.00 354.00 506.00" xmlns="http://www.w3.org/2000/svg" xmlns:xlink="http://www.w3.org/1999/xlink">
<g id="graph1" class="graph" transform="scale(1 1) rotate(0) translate(4 502)">
<title>MenuItem</title>
<polygon fill="white" stroke="white" points="-4,5 -4,-502 351,-502 351,5 -4,5"/>
<!-- Box_KnotRenderer -->
<g id="node1" class="node"><title>Box_KnotRenderer</title>
<polygon fill="#fcfcda" stroke="black" points="64,-207 64,-351 270,-351 270,-207 64,-207"/>
<text text-anchor="middle" x="167" y="-339.8" font-family="Helvetica,sans-Serif" font-size="8.00">KnotRenderer</text>
<polyline fill="none" stroke="black" points="64,-331 270,-331 "/>
<text text-anchor="start" x="72" y="-319.8" font-family="Helvetica,sans-Serif" font-size="8.00"># state : GameState</text>
<text text-anchor="start" x="72" y="-307.8" font-family="Helvetica,sans-Serif" font-size="8.00">+ World : World abstract</text>
<text text-anchor="start" x="72" y="-295.8" font-family="Helvetica,sans-Serif" font-size="8.00">+ Info : dynamic abstract</text>
<polyline fill="none" stroke="black" points="64,-287 270,-287 "/>
<text text-anchor="start" x="72" y="-275.8" font-family="Helvetica,sans-Serif" font-size="8.00">+ KnotRenderer (GameState state)</text>
<text text-anchor="start" x="72" y="-263.8" font-family="Helvetica,sans-Serif" font-size="8.00">+ OnEdgesChanged (EdgeList edges) abstract</text>
<text text-anchor="start" x="72" y="-251.8" font-family="Helvetica,sans-Serif" font-size="8.00">+ Update (GameTime gameTime) abstract</text>
<text text-anchor="start" x="72" y="-239.8" font-family="Helvetica,sans-Serif" font-size="8.00">+ Draw (GameTime gameTime) abstract</text>
<text text-anchor="start" x="72" y="-227.8" font-family="Helvetica,sans-Serif" font-size="8.00">+ Intersects (Ray ray) : GameObjectDistance abstract</text>
<text text-anchor="start" x="72" y="-215.8" font-family="Helvetica,sans-Serif" font-size="8.00">+ Center () : Vector3 abstract</text>
</g>
<!-- Box_LineRenderer -->
<g id="node4" class="node"><title>Box_LineRenderer</title>
<polygon fill="#fcfcda" stroke="black" points="58,-1 58,-169 276,-169 276,-1 58,-1"/>
<text text-anchor="middle" x="167" y="-157.8" font-family="Helvetica,sans-Serif" font-size="8.00">LineRenderer</text>
<polyline fill="none" stroke="black" points="58,-149 276,-149 "/>
<text text-anchor="start" x="66" y="-137.8" font-family="Helvetica,sans-Serif" font-size="8.00">+ Info : dynamic override</text>
<text text-anchor="start" x="66" y="-125.8" font-family="Helvetica,sans-Serif" font-size="8.00">+ World : World override</text>
<text text-anchor="start" x="66" y="-113.8" font-family="Helvetica,sans-Serif" font-size="8.00">&#45; basicEffect : BasicEffect</text>
<text text-anchor="start" x="66" y="-101.8" font-family="Helvetica,sans-Serif" font-size="8.00">&#45; edges : EdgeList</text>
<polyline fill="none" stroke="black" points="58,-93 276,-93 "/>
<text text-anchor="start" x="66" y="-81.8" font-family="Helvetica,sans-Serif" font-size="8.00">+ LineRenderer (GameState state, GameObjectInfo info)</text>
<text text-anchor="start" x="66" y="-69.8" font-family="Helvetica,sans-Serif" font-size="8.00">+ Update (GameTime gameTime) override</text>
<text text-anchor="start" x="66" y="-57.8" font-family="Helvetica,sans-Serif" font-size="8.00">+ OnEdgesChanged (EdgeList edges) override</text>
<text text-anchor="start" x="66" y="-45.8" font-family="Helvetica,sans-Serif" font-size="8.00">+ Draw (GameTime gameTime) override</text>
<text text-anchor="start" x="66" y="-33.8" font-family="Helvetica,sans-Serif" font-size="8.00">&#45; DrawRoundedLines ()</text>
<text text-anchor="start" x="66" y="-21.8" font-family="Helvetica,sans-Serif" font-size="8.00">+ Intersects (Ray ray) : GameObjectDistance override</text>
<text text-anchor="start" x="66" y="-9.8" font-family="Helvetica,sans-Serif" font-size="8.00">+ Center () : Vector3 override</text>
</g>
<!-- Box_KnotRenderer&#45;&gt;Box_LineRenderer -->
<g id="edge6" class="edge"><title>Box_KnotRenderer&#45;&gt;Box_LineRenderer</title>
<path fill="none" stroke="midnightblue" d="M167,-196.578C167,-187.476 167,-178.199 167,-169.077"/>
<polygon fill="none" stroke="midnightblue" points="163.5,-196.762 167,-206.762 170.5,-196.762 163.5,-196.762"/>
</g>
<!-- Box_IEdgeChangeListener -->
<g id="node2" class="node"><title>Box_IEdgeChangeListener</title>
<polygon fill="#dafcda" stroke="black" points="0,-413 0,-473 152,-473 152,-413 0,-413"/>
<text text-anchor="middle" x="76" y="-461.8" font-family="Helvetica,sans-Serif" font-size="8.00">IEdgeChangeListener</text>
<polyline fill="none" stroke="black" points="0,-453 152,-453 "/>
<text text-anchor="middle" x="76" y="-441.8" font-family="Helvetica,sans-Serif" font-size="8.00"> </text>
<polyline fill="none" stroke="black" points="0,-433 152,-433 "/>
<text text-anchor="start" x="8" y="-421.8" font-family="Helvetica,sans-Serif" font-size="8.00">+ OnEdgesChanged (EdgeList edges)</text>
</g>
<!-- Box_IEdgeChangeListener&#45;&gt;Box_KnotRenderer -->
<g id="edge2" class="edge"><title>Box_IEdgeChangeListener&#45;&gt;Box_KnotRenderer</title>
<path fill="none" stroke="midnightblue" d="M97.6603,-403.964C106.451,-388.121 116.897,-369.296 126.978,-351.127"/>
<polygon fill="none" stroke="midnightblue" points="94.4823,-402.478 92.6908,-412.92 100.603,-405.874 94.4823,-402.478"/>
</g>
<!-- Box_IGameObject -->
<g id="node3" class="node"><title>Box_IGameObject</title>
<polygon fill="#dafcda" stroke="black" points="170,-389 170,-497 346,-497 346,-389 170,-389"/>
<text text-anchor="middle" x="258" y="-485.8" font-family="Helvetica,sans-Serif" font-size="8.00">IGameObject</text>
<polyline fill="none" stroke="black" points="170,-477 346,-477 "/>
<text text-anchor="start" x="178" y="-465.8" font-family="Helvetica,sans-Serif" font-size="8.00">+ Info : dynamic</text>
<text text-anchor="start" x="178" y="-453.8" font-family="Helvetica,sans-Serif" font-size="8.00">+ World : World</text>
<polyline fill="none" stroke="black" points="170,-445 346,-445 "/>
<text text-anchor="start" x="178" y="-433.8" font-family="Helvetica,sans-Serif" font-size="8.00">+ Draw (GameTime gameTime)</text>
<text text-anchor="start" x="178" y="-421.8" font-family="Helvetica,sans-Serif" font-size="8.00">+ Update (GameTime gameTime)</text>
<text text-anchor="start" x="178" y="-409.8" font-family="Helvetica,sans-Serif" font-size="8.00">+ Intersects (Ray ray) : GameObjectDistance</text>
<text text-anchor="start" x="178" y="-397.8" font-family="Helvetica,sans-Serif" font-size="8.00">+ Center () : Vector3</text>
</g>
<!-- Box_IGameObject&#45;&gt;Box_KnotRenderer -->
<g id="edge4" class="edge"><title>Box_IGameObject&#45;&gt;Box_KnotRenderer</title>
<path fill="none" stroke="midnightblue" d="M223.02,-379.959C217.804,-370.559 212.393,-360.807 207.082,-351.236"/>
<polygon fill="none" stroke="midnightblue" points="220.039,-381.8 227.951,-388.846 226.159,-378.403 220.039,-381.8"/>
</g>
</g>
</svg>
