<?xml version="1.0" encoding="UTF-8" standalone="no"?>
<!DOCTYPE svg PUBLIC "-//W3C//DTD SVG 1.1//EN"
 "http://www.w3.org/Graphics/SVG/1.1/DTD/svg11.dtd">
<!-- Generated by graphviz version 2.26.3 (20100126.1600)
 -->
<!-- Title: MenuItem Pages: 1 -->
<svg width="1050pt" height="1025pt"
 viewBox="0.00 0.00 252.00 246.00" xmlns="http://www.w3.org/2000/svg" xmlns:xlink="http://www.w3.org/1999/xlink">
<g id="graph1" class="graph" transform="scale(4.16667 4.16667) rotate(0) translate(4 242)">
<title>MenuItem</title>
<polygon fill="white" stroke="white" points="-4,5 -4,-242 249,-242 249,5 -4,5"/>
<!-- Box_KnotListFormat -->
<g id="node1" class="node"><title>Box_KnotListFormat</title>
<polygon fill="#fcfcda" stroke="black" points="-0.5,-1 -0.5,-115 244.5,-115 244.5,-1 -0.5,-1"/>
<text text-anchor="middle" x="122" y="-103.8" font-family="Arial" font-size="8.00">KnotListFormat</text>
<polyline fill="none" stroke="black" points="-0.5,-97 244.5,-97 "/>
<text text-anchor="start" x="7.5" y="-85.8" font-family="Arial" font-size="8.00">+ FileExtensions : string[]</text>
<polyline fill="none" stroke="black" points="-0.5,-79 244.5,-79 "/>
<text text-anchor="start" x="7.5" y="-67.8" font-family="Arial" font-size="8.00">&#45; ParseLine (string line, out Node? node, out Color? color) static</text>
<text text-anchor="start" x="7.5" y="-57.8" font-family="Arial" font-size="8.00">+ LoadKnot (string filename) : Knot</text>
<text text-anchor="start" x="7.5" y="-47.8" font-family="Arial" font-size="8.00">+ KnotListFormat ()</text>
<text text-anchor="start" x="7.5" y="-37.8" font-family="Arial" font-size="8.00">+ FindFilename (string knotName) : string</text>
<text text-anchor="start" x="7.5" y="-27.8" font-family="Arial" font-size="8.00">+ SaveKnot (Knot knot)</text>
<text text-anchor="start" x="7.5" y="-17.8" font-family="Arial" font-size="8.00">&#45; ParseLines (WrapList&lt;string&gt; lines, EdgeList edges) static</text>
<text text-anchor="start" x="7.5" y="-7.8" font-family="Arial" font-size="8.00">+ LoadInfo (string filename) : KnotInfo</text>
</g>
<!-- Box_IKnotFormat -->
<g id="node2" class="node"><title>Box_IKnotFormat</title>
<polygon fill="#dafcda" stroke="black" points="40.5,-153 40.5,-237 203.5,-237 203.5,-153 40.5,-153"/>
<text text-anchor="middle" x="122" y="-225.8" font-family="Arial" font-size="8.00">IKnotFormat</text>
<polyline fill="none" stroke="black" points="40.5,-219 203.5,-219 "/>
<text text-anchor="start" x="48.5" y="-207.8" font-family="Arial" font-size="8.00">+ FileExtensions : string[]</text>
<polyline fill="none" stroke="black" points="40.5,-201 203.5,-201 "/>
<text text-anchor="start" x="48.5" y="-189.8" font-family="Arial" font-size="8.00">+ LoadInfo (string filename) : KnotInfo</text>
<text text-anchor="start" x="48.5" y="-179.8" font-family="Arial" font-size="8.00">+ LoadKnot (string filename) : Knot</text>
<text text-anchor="start" x="48.5" y="-169.8" font-family="Arial" font-size="8.00">+ SaveKnot (Knot knot)</text>
<text text-anchor="start" x="48.5" y="-159.8" font-family="Arial" font-size="8.00">+ FindFilename (string knotName) : string</text>
</g>
<!-- Box_IKnotFormat&#45;&gt;Box_KnotListFormat -->
<g id="edge2" class="edge"><title>Box_IKnotFormat&#45;&gt;Box_KnotListFormat</title>
<path fill="none" stroke="midnightblue" d="M122,-142.506C122,-133.571 122,-124.252 122,-115.204"/>
<polygon fill="none" stroke="midnightblue" points="118.5,-142.778 122,-152.778 125.5,-142.778 118.5,-142.778"/>
</g>
</g>
</svg>
