<?xml version="1.0" encoding="UTF-8" standalone="no"?>
<!DOCTYPE svg PUBLIC "-//W3C//DTD SVG 1.1//EN"
 "http://www.w3.org/Graphics/SVG/1.1/DTD/svg11.dtd">
<!-- Generated by graphviz version 2.26.3 (20100126.1600)
 -->
<!-- Title: MenuItem Pages: 1 -->
<svg width="2561pt" height="648pt"
 viewBox="0.00 0.00 2561.00 648.00" xmlns="http://www.w3.org/2000/svg" xmlns:xlink="http://www.w3.org/1999/xlink">
<g id="graph1" class="graph" transform="scale(1 1) rotate(0) translate(4 644)">
<title>MenuItem</title>
<polygon fill="white" stroke="white" points="-4,5 -4,-644 2558,-644 2558,5 -4,5"/>
<!-- Box_IGameObject -->
<g id="node1" class="node"><title>Box_IGameObject</title>
<polygon fill="#dafcda" stroke="black" points="1201.5,-545 1201.5,-639 1380.5,-639 1380.5,-545 1201.5,-545"/>
<text text-anchor="middle" x="1291" y="-627.8" font-family="Arial" font-size="8.00">IGameObject</text>
<polyline fill="none" stroke="black" points="1201.5,-621 1380.5,-621 "/>
<text text-anchor="start" x="1209.5" y="-609.8" font-family="Arial" font-size="8.00">+ Info : GameObjectInfo</text>
<text text-anchor="start" x="1209.5" y="-599.8" font-family="Arial" font-size="8.00">+ World : World</text>
<polyline fill="none" stroke="black" points="1201.5,-593 1380.5,-593 "/>
<text text-anchor="start" x="1209.5" y="-581.8" font-family="Arial" font-size="8.00">+ Draw (GameTime time)</text>
<text text-anchor="start" x="1209.5" y="-571.8" font-family="Arial" font-size="8.00">+ Update (GameTime time)</text>
<text text-anchor="start" x="1209.5" y="-561.8" font-family="Arial" font-size="8.00">+ Intersects (Ray ray) : GameObjectDistance</text>
<text text-anchor="start" x="1209.5" y="-551.8" font-family="Arial" font-size="8.00">+ Center () : Vector3</text>
</g>
<!-- Box_EdgeMovement -->
<g id="node2" class="node"><title>Box_EdgeMovement</title>
<polygon fill="#fcfcda" stroke="black" points="977,-228 977,-492 1293,-492 1293,-228 977,-228"/>
<text text-anchor="middle" x="1135" y="-480.8" font-family="Arial" font-size="8.00">EdgeMovement</text>
<polyline fill="none" stroke="black" points="977,-474 1293,-474 "/>
<text text-anchor="start" x="985" y="-462.8" font-family="Arial" font-size="8.00">&#45; shadowObjects : List&lt;ShadowGameObject&gt;</text>
<text text-anchor="start" x="985" y="-452.8" font-family="Arial" font-size="8.00">+ World : World</text>
<text text-anchor="start" x="985" y="-442.8" font-family="Arial" font-size="8.00">&#45; screen : GameScreen</text>
<text text-anchor="start" x="985" y="-432.8" font-family="Arial" font-size="8.00">&#45; previousMousePosition : Vector3</text>
<text text-anchor="start" x="985" y="-422.8" font-family="Arial" font-size="8.00">+ Info : GameObjectInfo</text>
<text text-anchor="start" x="985" y="-412.8" font-family="Arial" font-size="8.00">+ Knot : Knot</text>
<polyline fill="none" stroke="black" points="977,-406 1293,-406 "/>
<text text-anchor="start" x="985" y="-394.8" font-family="Arial" font-size="8.00">&#45; IEnumerable.GetEnumerator () : IEnumerator</text>
<text text-anchor="start" x="985" y="-384.8" font-family="Arial" font-size="8.00">&#45; MovePipes (Vector3 currentMousePosition)</text>
<text text-anchor="start" x="985" y="-374.8" font-family="Arial" font-size="8.00">&#45; MoveShadowPipes (Vector3 currentMousePosition)</text>
<text text-anchor="start" x="985" y="-364.8" font-family="Arial" font-size="8.00">+ EdgeMovement (GameScreen screen, World world, GameObjectInfo info)</text>
<text text-anchor="start" x="985" y="-354.8" font-family="Arial" font-size="8.00">+ Intersects (Ray ray) : GameObjectDistance</text>
<text text-anchor="start" x="985" y="-344.8" font-family="Arial" font-size="8.00">+ GetEnumerator () : IEnumerator&lt;IGameObject&gt;</text>
<text text-anchor="start" x="985" y="-334.8" font-family="Arial" font-size="8.00">+ Draw (GameTime time)</text>
<text text-anchor="start" x="985" y="-324.8" font-family="Arial" font-size="8.00">+ Update (GameTime time)</text>
<text text-anchor="start" x="985" y="-314.8" font-family="Arial" font-size="8.00">&#45; ComputeDirection (Vector3 currentMousePosition, out Direction direction, out float</text>
<text text-anchor="start" x="985" y="-304.8" font-family="Arial" font-size="8.00">count)</text>
<text text-anchor="start" x="985" y="-294.8" font-family="Arial" font-size="8.00">&#45; ComputeDirection (Vector3 currentMousePosition, out Direction direction, out int</text>
<text text-anchor="start" x="985" y="-284.8" font-family="Arial" font-size="8.00">countInt)</text>
<text text-anchor="start" x="985" y="-274.8" font-family="Arial" font-size="8.00">&#45; CreateShadowPipes ()</text>
<text text-anchor="start" x="985" y="-264.8" font-family="Arial" font-size="8.00">&#45; MoveShadowPipes (Vector3 currentMousePosition, Vector3 direction3D)</text>
<text text-anchor="start" x="985" y="-254.8" font-family="Arial" font-size="8.00">&#45; TryMovePipes (GameTime time)</text>
<text text-anchor="start" x="985" y="-244.8" font-family="Arial" font-size="8.00">&#45; TrySelectObject (GameTime time)</text>
<text text-anchor="start" x="985" y="-234.8" font-family="Arial" font-size="8.00">+ Center () : Vector3</text>
</g>
<!-- Box_IGameObject&#45;&gt;Box_EdgeMovement -->
<g id="edge2" class="edge"><title>Box_IGameObject&#45;&gt;Box_EdgeMovement</title>
<path fill="none" stroke="midnightblue" d="M1253.41,-536.103C1244.31,-522.564 1234.19,-507.515 1223.81,-492.079"/>
<polygon fill="none" stroke="midnightblue" points="1250.76,-538.426 1259.24,-544.772 1256.57,-534.52 1250.76,-538.426"/>
</g>
<!-- Box_ShadowGameObject -->
<g id="node3" class="node"><title>Box_ShadowGameObject</title>
<polygon fill="#fcfcda" stroke="black" points="1602.5,-288 1602.5,-432 1847.5,-432 1847.5,-288 1602.5,-288"/>
<text text-anchor="middle" x="1725" y="-420.8" font-family="Arial" font-size="8.00">ShadowGameObject</text>
<polyline fill="none" stroke="black" points="1602.5,-414 1847.5,-414 "/>
<text text-anchor="start" x="1610.5" y="-402.8" font-family="Arial" font-size="8.00">&#45; Obj : IGameObject</text>
<text text-anchor="start" x="1610.5" y="-392.8" font-family="Arial" font-size="8.00">+ Info : GameObjectInfo</text>
<text text-anchor="start" x="1610.5" y="-382.8" font-family="Arial" font-size="8.00">+ OriginalPosition : Vector3</text>
<text text-anchor="start" x="1610.5" y="-372.8" font-family="Arial" font-size="8.00">+ World : World</text>
<text text-anchor="start" x="1610.5" y="-362.8" font-family="Arial" font-size="8.00"># screen : GameScreen</text>
<text text-anchor="start" x="1610.5" y="-352.8" font-family="Arial" font-size="8.00">+ ShadowPosition : Vector3</text>
<polyline fill="none" stroke="black" points="1602.5,-346 1847.5,-346 "/>
<text text-anchor="start" x="1610.5" y="-334.8" font-family="Arial" font-size="8.00">+ Update (GameTime gameTime) virtual</text>
<text text-anchor="start" x="1610.5" y="-324.8" font-family="Arial" font-size="8.00">+ Intersects (Ray ray) : GameObjectDistance</text>
<text text-anchor="start" x="1610.5" y="-314.8" font-family="Arial" font-size="8.00">+ ShadowGameObject (GameScreen screen, IGameObject obj)</text>
<text text-anchor="start" x="1610.5" y="-304.8" font-family="Arial" font-size="8.00">+ Center () : Vector3</text>
<text text-anchor="start" x="1610.5" y="-294.8" font-family="Arial" font-size="8.00">+ Draw (GameTime gameTime) virtual</text>
</g>
<!-- Box_IGameObject&#45;&gt;Box_ShadowGameObject -->
<g id="edge6" class="edge"><title>Box_IGameObject&#45;&gt;Box_ShadowGameObject</title>
<path fill="none" stroke="midnightblue" d="M1390.86,-579.121C1452.94,-567.663 1532.38,-546.49 1594,-508 1625.14,-488.548 1653.13,-459.502 1675.17,-432.279"/>
<polygon fill="none" stroke="midnightblue" points="1389.88,-575.74 1380.65,-580.946 1391.12,-582.63 1389.88,-575.74"/>
</g>
<!-- Box_GameModel -->
<g id="node5" class="node"><title>Box_GameModel</title>
<polygon fill="#fcfcda" stroke="black" points="1865,-213 1865,-507 2089,-507 2089,-213 1865,-213"/>
<text text-anchor="middle" x="1977" y="-495.8" font-family="Arial" font-size="8.00">GameModel</text>
<polyline fill="none" stroke="black" points="1865,-489 2089,-489 "/>
<text text-anchor="start" x="1873" y="-477.8" font-family="Arial" font-size="8.00">&#45; IGameObject.Info : GameObjectInfo</text>
<text text-anchor="start" x="1873" y="-467.8" font-family="Arial" font-size="8.00">&#45; _rotation : Angles3</text>
<text text-anchor="start" x="1873" y="-457.8" font-family="Arial" font-size="8.00">&#45; Bounds : BoundingSphere[]</text>
<text text-anchor="start" x="1873" y="-447.8" font-family="Arial" font-size="8.00">&#45; _bounds : BoundingSphere[]</text>
<text text-anchor="start" x="1873" y="-437.8" font-family="Arial" font-size="8.00">&#45; _worldMatrix : Matrix</text>
<text text-anchor="start" x="1873" y="-427.8" font-family="Arial" font-size="8.00">&#45; _position : Vector3</text>
<text text-anchor="start" x="1873" y="-417.8" font-family="Arial" font-size="8.00">&#45; _inFrustum : bool</text>
<text text-anchor="start" x="1873" y="-407.8" font-family="Arial" font-size="8.00"># InCameraFrustum : bool</text>
<text text-anchor="start" x="1873" y="-397.8" font-family="Arial" font-size="8.00">+ BaseColor : Color</text>
<text text-anchor="start" x="1873" y="-387.8" font-family="Arial" font-size="8.00">+ HighlightColor : Color</text>
<text text-anchor="start" x="1873" y="-377.8" font-family="Arial" font-size="8.00">+ Info : GameModelInfo</text>
<text text-anchor="start" x="1873" y="-367.8" font-family="Arial" font-size="8.00">+ WorldMatrix : Matrix</text>
<text text-anchor="start" x="1873" y="-357.8" font-family="Arial" font-size="8.00">+ World : World</text>
<text text-anchor="start" x="1873" y="-347.8" font-family="Arial" font-size="8.00">+ Alpha : float</text>
<text text-anchor="start" x="1873" y="-337.8" font-family="Arial" font-size="8.00">+ HighlightIntensity : float</text>
<text text-anchor="start" x="1873" y="-327.8" font-family="Arial" font-size="8.00">&#45; _scale : Vector3</text>
<text text-anchor="start" x="1873" y="-317.8" font-family="Arial" font-size="8.00">&#45; _world : World</text>
<text text-anchor="start" x="1873" y="-307.8" font-family="Arial" font-size="8.00"># screen : GameScreen</text>
<text text-anchor="start" x="1873" y="-297.8" font-family="Arial" font-size="8.00">+ Model : Model virtual</text>
<polyline fill="none" stroke="black" points="1865,-291 2089,-291 "/>
<text text-anchor="start" x="1873" y="-279.8" font-family="Arial" font-size="8.00">&#45; OnViewChanged ()</text>
<text text-anchor="start" x="1873" y="-269.8" font-family="Arial" font-size="8.00">&#45; UpdatePrecomputed ()</text>
<text text-anchor="start" x="1873" y="-259.8" font-family="Arial" font-size="8.00">+ GameModel (GameScreen screen, GameModelInfo info)</text>
<text text-anchor="start" x="1873" y="-249.8" font-family="Arial" font-size="8.00">+ Draw (GameTime time) virtual</text>
<text text-anchor="start" x="1873" y="-239.8" font-family="Arial" font-size="8.00">+ Center () : Vector3</text>
<text text-anchor="start" x="1873" y="-229.8" font-family="Arial" font-size="8.00">+ Intersects (Ray ray) : GameObjectDistance virtual</text>
<text text-anchor="start" x="1873" y="-219.8" font-family="Arial" font-size="8.00">+ Update (GameTime time) virtual</text>
</g>
<!-- Box_IGameObject&#45;&gt;Box_GameModel -->
<g id="edge10" class="edge"><title>Box_IGameObject&#45;&gt;Box_GameModel</title>
<path fill="none" stroke="midnightblue" d="M1390.88,-585.798C1531.28,-575.634 1778.5,-552.016 1856,-508 1859.03,-506.279 1862.02,-504.45 1864.95,-502.525"/>
<polygon fill="none" stroke="midnightblue" points="1390.27,-582.332 1380.55,-586.536 1390.77,-589.315 1390.27,-582.332"/>
</g>
<!-- Box_KnotRenderer -->
<g id="node10" class="node"><title>Box_KnotRenderer</title>
<polygon fill="#fcfcda" stroke="black" points="136.5,-228 136.5,-492 371.5,-492 371.5,-228 136.5,-228"/>
<text text-anchor="middle" x="254" y="-480.8" font-family="Arial" font-size="8.00">KnotRenderer</text>
<polyline fill="none" stroke="black" points="136.5,-474 371.5,-474 "/>
<text text-anchor="start" x="144.5" y="-462.8" font-family="Arial" font-size="8.00">&#45; arrows : List&lt;ArrowModel&gt;</text>
<text text-anchor="start" x="144.5" y="-452.8" font-family="Arial" font-size="8.00">&#45; nodes : List&lt;NodeModel&gt;</text>
<text text-anchor="start" x="144.5" y="-442.8" font-family="Arial" font-size="8.00">&#45; pipes : List&lt;PipeModel&gt;</text>
<text text-anchor="start" x="144.5" y="-432.8" font-family="Arial" font-size="8.00">&#45; arrowFactory : ModelFactory</text>
<text text-anchor="start" x="144.5" y="-422.8" font-family="Arial" font-size="8.00">&#45; nodeFactory : ModelFactory</text>
<text text-anchor="start" x="144.5" y="-412.8" font-family="Arial" font-size="8.00">&#45; pipeFactory : ModelFactory</text>
<text text-anchor="start" x="144.5" y="-402.8" font-family="Arial" font-size="8.00">+ Info : GameObjectInfo</text>
<text text-anchor="start" x="144.5" y="-392.8" font-family="Arial" font-size="8.00">&#45; screen : GameScreen</text>
<text text-anchor="start" x="144.5" y="-382.8" font-family="Arial" font-size="8.00">&#45; knot : Knot</text>
<text text-anchor="start" x="144.5" y="-372.8" font-family="Arial" font-size="8.00">+ Knot : Knot</text>
<text text-anchor="start" x="144.5" y="-362.8" font-family="Arial" font-size="8.00">+ World : World</text>
<polyline fill="none" stroke="black" points="136.5,-356 371.5,-356 "/>
<text text-anchor="start" x="144.5" y="-344.8" font-family="Arial" font-size="8.00">&#45; nodeMap () : NodeMap</text>
<text text-anchor="start" x="144.5" y="-334.8" font-family="Arial" font-size="8.00">&#45; IEnumerable.GetEnumerator () : IEnumerator</text>
<text text-anchor="start" x="144.5" y="-324.8" font-family="Arial" font-size="8.00">&#45; CreateArrow (Edge edge)</text>
<text text-anchor="start" x="144.5" y="-314.8" font-family="Arial" font-size="8.00">+ Draw (GameTime time)</text>
<text text-anchor="start" x="144.5" y="-304.8" font-family="Arial" font-size="8.00">+ OnEdgesChanged ()</text>
<text text-anchor="start" x="144.5" y="-294.8" font-family="Arial" font-size="8.00">+ Update (GameTime time)</text>
<text text-anchor="start" x="144.5" y="-284.8" font-family="Arial" font-size="8.00">&#45; CreateArrows (IList&lt;Edge&gt; selectedEdges)</text>
<text text-anchor="start" x="144.5" y="-274.8" font-family="Arial" font-size="8.00">+ Intersects (Ray ray) : GameObjectDistance</text>
<text text-anchor="start" x="144.5" y="-264.8" font-family="Arial" font-size="8.00">+ GetEnumerator () : IEnumerator&lt;IGameObject&gt;</text>
<text text-anchor="start" x="144.5" y="-254.8" font-family="Arial" font-size="8.00">+ KnotRenderer (GameScreen screen, GameObjectInfo info)</text>
<text text-anchor="start" x="144.5" y="-244.8" font-family="Arial" font-size="8.00">+ Center () : Vector3</text>
<text text-anchor="start" x="144.5" y="-234.8" font-family="Arial" font-size="8.00">+ CreateArrows (IEnumerable&lt;Edge&gt; selectedEdges)</text>
</g>
<!-- Box_IGameObject&#45;&gt;Box_KnotRenderer -->
<g id="edge20" class="edge"><title>Box_IGameObject&#45;&gt;Box_KnotRenderer</title>
<path fill="none" stroke="midnightblue" d="M1191.22,-587.046C969.675,-575.441 450.679,-544.682 380,-508 371.314,-503.492 362.979,-498.106 355.027,-492.099"/>
<polygon fill="none" stroke="midnightblue" points="1191.05,-590.542 1201.22,-587.568 1191.41,-583.552 1191.05,-590.542"/>
</g>
<!-- Box_ModelRenderer -->
<g id="node13" class="node"><title>Box_ModelRenderer</title>
<polygon fill="#fcfcda" stroke="black" points="388.5,-228 388.5,-492 627.5,-492 627.5,-228 388.5,-228"/>
<text text-anchor="middle" x="508" y="-480.8" font-family="Arial" font-size="8.00">ModelRenderer</text>
<polyline fill="none" stroke="black" points="388.5,-474 627.5,-474 "/>
<text text-anchor="start" x="396.5" y="-462.8" font-family="Arial" font-size="8.00">&#45; arrows : List&lt;ArrowModel&gt;</text>
<text text-anchor="start" x="396.5" y="-452.8" font-family="Arial" font-size="8.00">&#45; nodes : List&lt;NodeModel&gt;</text>
<text text-anchor="start" x="396.5" y="-442.8" font-family="Arial" font-size="8.00">&#45; pipes : List&lt;PipeModel&gt;</text>
<text text-anchor="start" x="396.5" y="-432.8" font-family="Arial" font-size="8.00">&#45; arrowFactory : ModelFactory</text>
<text text-anchor="start" x="396.5" y="-422.8" font-family="Arial" font-size="8.00">&#45; nodeFactory : ModelFactory</text>
<text text-anchor="start" x="396.5" y="-412.8" font-family="Arial" font-size="8.00">&#45; pipeFactory : ModelFactory</text>
<text text-anchor="start" x="396.5" y="-402.8" font-family="Arial" font-size="8.00">+ Info : GameObjectInfo</text>
<text text-anchor="start" x="396.5" y="-392.8" font-family="Arial" font-size="8.00">&#45; screen : GameScreen</text>
<text text-anchor="start" x="396.5" y="-382.8" font-family="Arial" font-size="8.00">&#45; knot : Knot</text>
<text text-anchor="start" x="396.5" y="-372.8" font-family="Arial" font-size="8.00">+ Knot : Knot</text>
<text text-anchor="start" x="396.5" y="-362.8" font-family="Arial" font-size="8.00">+ World : World</text>
<polyline fill="none" stroke="black" points="388.5,-356 627.5,-356 "/>
<text text-anchor="start" x="396.5" y="-344.8" font-family="Arial" font-size="8.00">&#45; nodeMap () : NodeMap</text>
<text text-anchor="start" x="396.5" y="-334.8" font-family="Arial" font-size="8.00">&#45; IEnumerable.GetEnumerator () : IEnumerator</text>
<text text-anchor="start" x="396.5" y="-324.8" font-family="Arial" font-size="8.00">&#45; CreateArrow (Edge edge)</text>
<text text-anchor="start" x="396.5" y="-314.8" font-family="Arial" font-size="8.00">+ Draw (GameTime time)</text>
<text text-anchor="start" x="396.5" y="-304.8" font-family="Arial" font-size="8.00">+ OnEdgesChanged ()</text>
<text text-anchor="start" x="396.5" y="-294.8" font-family="Arial" font-size="8.00">+ Update (GameTime time)</text>
<text text-anchor="start" x="396.5" y="-284.8" font-family="Arial" font-size="8.00">&#45; CreateArrows (IList&lt;Edge&gt; selectedEdges)</text>
<text text-anchor="start" x="396.5" y="-274.8" font-family="Arial" font-size="8.00">+ Intersects (Ray ray) : GameObjectDistance</text>
<text text-anchor="start" x="396.5" y="-264.8" font-family="Arial" font-size="8.00">+ GetEnumerator () : IEnumerator&lt;IGameObject&gt;</text>
<text text-anchor="start" x="396.5" y="-254.8" font-family="Arial" font-size="8.00">+ ModelRenderer (GameScreen screen, GameObjectInfo info)</text>
<text text-anchor="start" x="396.5" y="-244.8" font-family="Arial" font-size="8.00">+ Center () : Vector3</text>
<text text-anchor="start" x="396.5" y="-234.8" font-family="Arial" font-size="8.00">+ CreateArrows (IEnumerable&lt;Edge&gt; selectedEdges)</text>
</g>
<!-- Box_IGameObject&#45;&gt;Box_ModelRenderer -->
<g id="edge30" class="edge"><title>Box_IGameObject&#45;&gt;Box_ModelRenderer</title>
<path fill="none" stroke="midnightblue" d="M1191.1,-587.862C1032.08,-579.845 729.778,-558.339 636,-508 627.47,-503.421 619.252,-498.027 611.383,-492.057"/>
<polygon fill="none" stroke="midnightblue" points="1191.2,-591.371 1201.36,-588.371 1191.55,-584.38 1191.2,-591.371"/>
</g>
<!-- Box_MovableGameObject -->
<g id="node14" class="node"><title>Box_MovableGameObject</title>
<polygon fill="#fcfcda" stroke="black" points="2106.5,-283 2106.5,-437 2357.5,-437 2357.5,-283 2106.5,-283"/>
<text text-anchor="middle" x="2232" y="-425.8" font-family="Arial" font-size="8.00">MovableGameObject</text>
<polyline fill="none" stroke="black" points="2106.5,-419 2357.5,-419 "/>
<text text-anchor="start" x="2114.5" y="-407.8" font-family="Arial" font-size="8.00">&#45; Obj : IGameObject</text>
<text text-anchor="start" x="2114.5" y="-397.8" font-family="Arial" font-size="8.00">+ World : World</text>
<text text-anchor="start" x="2114.5" y="-387.8" font-family="Arial" font-size="8.00">&#45; screen : GameScreen</text>
<text text-anchor="start" x="2114.5" y="-377.8" font-family="Arial" font-size="8.00">+ Info : GameObjectInfo</text>
<polyline fill="none" stroke="black" points="2106.5,-371 2357.5,-371 "/>
<text text-anchor="start" x="2114.5" y="-359.8" font-family="Arial" font-size="8.00"># CurrentGroundPlane () : Plane</text>
<text text-anchor="start" x="2114.5" y="-349.8" font-family="Arial" font-size="8.00">+ MovableGameObject (GameScreen screen, IGameObject obj)</text>
<text text-anchor="start" x="2114.5" y="-339.8" font-family="Arial" font-size="8.00">+ Update (GameTime time) virtual</text>
<text text-anchor="start" x="2114.5" y="-329.8" font-family="Arial" font-size="8.00"># CurrentMouseRay () : Ray</text>
<text text-anchor="start" x="2114.5" y="-319.8" font-family="Arial" font-size="8.00"># CurrentMousePosition (Ray ray, Plane groundPlane) : Vector3?</text>
<text text-anchor="start" x="2114.5" y="-309.8" font-family="Arial" font-size="8.00">+ Intersects (Ray ray) : GameObjectDistance</text>
<text text-anchor="start" x="2114.5" y="-299.8" font-family="Arial" font-size="8.00">+ Center () : Vector3</text>
<text text-anchor="start" x="2114.5" y="-289.8" font-family="Arial" font-size="8.00">+ Draw (GameTime time)</text>
</g>
<!-- Box_IGameObject&#45;&gt;Box_MovableGameObject -->
<g id="edge34" class="edge"><title>Box_IGameObject&#45;&gt;Box_MovableGameObject</title>
<path fill="none" stroke="midnightblue" d="M1390.97,-590.426C1578.85,-586.038 1976.65,-569.546 2098,-508 2130.15,-491.695 2158.29,-464.212 2180.38,-437.324"/>
<polygon fill="none" stroke="midnightblue" points="1390.73,-586.931 1380.81,-590.656 1390.89,-593.929 1390.73,-586.931"/>
</g>
<!-- Box_TexturedRectangle -->
<g id="node15" class="node"><title>Box_TexturedRectangle</title>
<polygon fill="#fcfcda" stroke="black" points="1310.5,-233 1310.5,-487 1585.5,-487 1585.5,-233 1310.5,-233"/>
<text text-anchor="middle" x="1448" y="-475.8" font-family="Arial" font-size="8.00">TexturedRectangle</text>
<polyline fill="none" stroke="black" points="1310.5,-469 1585.5,-469 "/>
<text text-anchor="start" x="1318.5" y="-457.8" font-family="Arial" font-size="8.00">&#45; IGameObject.Info : GameObjectInfo</text>
<text text-anchor="start" x="1318.5" y="-447.8" font-family="Arial" font-size="8.00">&#45; basicEffect : BasicEffect</text>
<text text-anchor="start" x="1318.5" y="-437.8" font-family="Arial" font-size="8.00">&#45; texture : Texture2D</text>
<text text-anchor="start" x="1318.5" y="-427.8" font-family="Arial" font-size="8.00">&#45; LowerLeft : Vector3</text>
<text text-anchor="start" x="1318.5" y="-417.8" font-family="Arial" font-size="8.00">&#45; LowerRight : Vector3</text>
<text text-anchor="start" x="1318.5" y="-407.8" font-family="Arial" font-size="8.00">&#45; Normal : Vector3</text>
<text text-anchor="start" x="1318.5" y="-397.8" font-family="Arial" font-size="8.00">&#45; UpperRight : Vector3</text>
<text text-anchor="start" x="1318.5" y="-387.8" font-family="Arial" font-size="8.00">&#45; Vertices : VertexPositionNormalTexture[]</text>
<text text-anchor="start" x="1318.5" y="-377.8" font-family="Arial" font-size="8.00">&#45; Indexes : short[]</text>
<text text-anchor="start" x="1318.5" y="-367.8" font-family="Arial" font-size="8.00">+ Info : TexturedRectangleInfo</text>
<text text-anchor="start" x="1318.5" y="-357.8" font-family="Arial" font-size="8.00">&#45; UpperLeft : Vector3</text>
<text text-anchor="start" x="1318.5" y="-347.8" font-family="Arial" font-size="8.00"># screen : GameScreen</text>
<text text-anchor="start" x="1318.5" y="-337.8" font-family="Arial" font-size="8.00">+ World : World</text>
<polyline fill="none" stroke="black" points="1310.5,-331 1585.5,-331 "/>
<text text-anchor="start" x="1318.5" y="-319.8" font-family="Arial" font-size="8.00">&#45; Length () : Vector3</text>
<text text-anchor="start" x="1318.5" y="-309.8" font-family="Arial" font-size="8.00">&#45; FillVertices ()</text>
<text text-anchor="start" x="1318.5" y="-299.8" font-family="Arial" font-size="8.00">+ Intersects (Ray ray) : GameObjectDistance</text>
<text text-anchor="start" x="1318.5" y="-289.8" font-family="Arial" font-size="8.00">+ TexturedRectangle (GameScreen screen, TexturedRectangleInfo info)</text>
<text text-anchor="start" x="1318.5" y="-279.8" font-family="Arial" font-size="8.00">+ Draw (GameTime time)</text>
<text text-anchor="start" x="1318.5" y="-269.8" font-family="Arial" font-size="8.00"># SetPosition (Vector3 position)</text>
<text text-anchor="start" x="1318.5" y="-259.8" font-family="Arial" font-size="8.00">+ Bounds () : BoundingBox[]</text>
<text text-anchor="start" x="1318.5" y="-249.8" font-family="Arial" font-size="8.00">+ Center () : Vector3</text>
<text text-anchor="start" x="1318.5" y="-239.8" font-family="Arial" font-size="8.00">+ Update (GameTime time)</text>
</g>
<!-- Box_IGameObject&#45;&gt;Box_TexturedRectangle -->
<g id="edge36" class="edge"><title>Box_IGameObject&#45;&gt;Box_TexturedRectangle</title>
<path fill="none" stroke="midnightblue" d="M1328.77,-536.189C1338.89,-521.229 1350.27,-504.422 1361.86,-487.284"/>
<polygon fill="none" stroke="midnightblue" points="1325.67,-534.528 1322.96,-544.772 1331.46,-538.451 1325.67,-534.528"/>
</g>
<!-- Box_PipeMovement -->
<g id="node16" class="node"><title>Box_PipeMovement</title>
<polygon fill="#fcfcda" stroke="black" points="645,-223 645,-497 959,-497 959,-223 645,-223"/>
<text text-anchor="middle" x="802" y="-485.8" font-family="Arial" font-size="8.00">PipeMovement</text>
<polyline fill="none" stroke="black" points="645,-479 959,-479 "/>
<text text-anchor="start" x="653" y="-467.8" font-family="Arial" font-size="8.00">&#45; shadowObjects : List&lt;ShadowGameObject&gt;</text>
<text text-anchor="start" x="653" y="-457.8" font-family="Arial" font-size="8.00">+ World : World</text>
<text text-anchor="start" x="653" y="-447.8" font-family="Arial" font-size="8.00">&#45; screen : GameScreen</text>
<text text-anchor="start" x="653" y="-437.8" font-family="Arial" font-size="8.00">&#45; previousMousePosition : Vector3</text>
<text text-anchor="start" x="653" y="-427.8" font-family="Arial" font-size="8.00">+ Info : GameObjectInfo</text>
<text text-anchor="start" x="653" y="-417.8" font-family="Arial" font-size="8.00">+ Knot : Knot</text>
<polyline fill="none" stroke="black" points="645,-411 959,-411 "/>
<text text-anchor="start" x="653" y="-399.8" font-family="Arial" font-size="8.00">&#45; knownEdgeLists () : HashSet&lt;EdgeList&gt;</text>
<text text-anchor="start" x="653" y="-389.8" font-family="Arial" font-size="8.00">&#45; IEnumerable.GetEnumerator () : IEnumerator</text>
<text text-anchor="start" x="653" y="-379.8" font-family="Arial" font-size="8.00">&#45; MovePipes (Vector3 currentMousePosition)</text>
<text text-anchor="start" x="653" y="-369.8" font-family="Arial" font-size="8.00">&#45; MoveShadowPipes (Vector3 currentMousePosition)</text>
<text text-anchor="start" x="653" y="-359.8" font-family="Arial" font-size="8.00">+ Intersects (Ray ray) : GameObjectDistance</text>
<text text-anchor="start" x="653" y="-349.8" font-family="Arial" font-size="8.00">+ GetEnumerator () : IEnumerator&lt;IGameObject&gt;</text>
<text text-anchor="start" x="653" y="-339.8" font-family="Arial" font-size="8.00">+ PipeMovement (GameScreen screen, World world, GameObjectInfo info)</text>
<text text-anchor="start" x="653" y="-329.8" font-family="Arial" font-size="8.00">+ Draw (GameTime gameTime)</text>
<text text-anchor="start" x="653" y="-319.8" font-family="Arial" font-size="8.00">&#45; ComputeDirection (Vector3 currentMousePosition, out Vector3 direction, out float</text>
<text text-anchor="start" x="653" y="-309.8" font-family="Arial" font-size="8.00">count)</text>
<text text-anchor="start" x="653" y="-299.8" font-family="Arial" font-size="8.00">&#45; ComputeDirection (Vector3 currentMousePosition, out Vector3 direction, out int</text>
<text text-anchor="start" x="653" y="-289.8" font-family="Arial" font-size="8.00">countInt)</text>
<text text-anchor="start" x="653" y="-279.8" font-family="Arial" font-size="8.00">&#45; CreateShadowPipes ()</text>
<text text-anchor="start" x="653" y="-269.8" font-family="Arial" font-size="8.00">&#45; MoveShadowPipes (Vector3 currentMousePosition, Vector3 direction3D)</text>
<text text-anchor="start" x="653" y="-259.8" font-family="Arial" font-size="8.00">&#45; TryMovePipes (GameTime gameTime)</text>
<text text-anchor="start" x="653" y="-249.8" font-family="Arial" font-size="8.00">&#45; TrySelectObject (GameTime gameTime)</text>
<text text-anchor="start" x="653" y="-239.8" font-family="Arial" font-size="8.00">+ Center () : Vector3</text>
<text text-anchor="start" x="653" y="-229.8" font-family="Arial" font-size="8.00">+ Update (GameTime gameTime)</text>
</g>
<!-- Box_IGameObject&#45;&gt;Box_PipeMovement -->
<g id="edge38" class="edge"><title>Box_IGameObject&#45;&gt;Box_PipeMovement</title>
<path fill="none" stroke="midnightblue" d="M1191.14,-578.566C1124.93,-566.713 1037.73,-545.309 968,-508 961.702,-504.63 955.447,-500.975 949.262,-497.092"/>
<polygon fill="none" stroke="midnightblue" points="1190.71,-582.044 1201.17,-580.317 1191.92,-575.149 1190.71,-582.044"/>
</g>
<!-- Box_ShadowGameModel -->
<g id="node4" class="node"><title>Box_ShadowGameModel</title>
<polygon fill="#fcfcda" stroke="black" points="1352.5,-46 1352.5,-130 1601.5,-130 1601.5,-46 1352.5,-46"/>
<text text-anchor="middle" x="1477" y="-118.8" font-family="Arial" font-size="8.00">ShadowGameModel</text>
<polyline fill="none" stroke="black" points="1352.5,-112 1601.5,-112 "/>
<text text-anchor="start" x="1360.5" y="-100.8" font-family="Arial" font-size="8.00">+ ShadowColor : Color</text>
<text text-anchor="start" x="1360.5" y="-90.8" font-family="Arial" font-size="8.00">&#45; Model : GameModel</text>
<text text-anchor="start" x="1360.5" y="-80.8" font-family="Arial" font-size="8.00">+ ShadowAlpha : float</text>
<polyline fill="none" stroke="black" points="1352.5,-74 1601.5,-74 "/>
<text text-anchor="start" x="1360.5" y="-62.8" font-family="Arial" font-size="8.00">+ ShadowGameModel (GameScreen screen, GameModel model)</text>
<text text-anchor="start" x="1360.5" y="-52.8" font-family="Arial" font-size="8.00">+ Draw (GameTime gameTime)</text>
</g>
<!-- Box_ShadowGameObject&#45;&gt;Box_ShadowGameModel -->
<g id="edge8" class="edge"><title>Box_ShadowGameObject&#45;&gt;Box_ShadowGameModel</title>
<path fill="none" stroke="midnightblue" d="M1654.98,-279.951C1635.38,-257.812 1613.98,-233.865 1594,-212 1568.84,-184.471 1540.1,-154.002 1517.41,-130.156"/>
<polygon fill="none" stroke="midnightblue" points="1652.58,-282.525 1661.82,-287.7 1657.82,-277.889 1652.58,-282.525"/>
</g>
<!-- Box_ArrowModel -->
<g id="node6" class="node"><title>Box_ArrowModel</title>
<polygon fill="#fcfcda" stroke="black" points="1619,-46 1619,-130 1849,-130 1849,-46 1619,-46"/>
<text text-anchor="middle" x="1734" y="-118.8" font-family="Arial" font-size="8.00">ArrowModel</text>
<polyline fill="none" stroke="black" points="1619,-112 1849,-112 "/>
<text text-anchor="start" x="1627" y="-100.8" font-family="Arial" font-size="8.00">&#45; Bounds : BoundingSphere[]</text>
<text text-anchor="start" x="1627" y="-90.8" font-family="Arial" font-size="8.00">+ Info : ArrowModelInfo</text>
<polyline fill="none" stroke="black" points="1619,-84 1849,-84 "/>
<text text-anchor="start" x="1627" y="-72.8" font-family="Arial" font-size="8.00">+ ArrowModel (GameScreen screen, ArrowModelInfo info)</text>
<text text-anchor="start" x="1627" y="-62.8" font-family="Arial" font-size="8.00">+ Intersects (Ray ray) : GameObjectDistance</text>
<text text-anchor="start" x="1627" y="-52.8" font-family="Arial" font-size="8.00">+ Draw (GameTime time)</text>
</g>
<!-- Box_GameModel&#45;&gt;Box_ArrowModel -->
<g id="edge12" class="edge"><title>Box_GameModel&#45;&gt;Box_ArrowModel</title>
<path fill="none" stroke="midnightblue" d="M1857.89,-214.115C1857.26,-213.408 1856.63,-212.702 1856,-212 1830.79,-183.902 1801.11,-153.68 1777.34,-130.107"/>
<polygon fill="none" stroke="midnightblue" points="1855.44,-216.625 1864.69,-221.787 1860.68,-211.981 1855.44,-216.625"/>
</g>
<!-- Box_NodeModel -->
<g id="node7" class="node"><title>Box_NodeModel</title>
<polygon fill="#fcfcda" stroke="black" points="1867,-56 1867,-120 2087,-120 2087,-56 1867,-56"/>
<text text-anchor="middle" x="1977" y="-108.8" font-family="Arial" font-size="8.00">NodeModel</text>
<polyline fill="none" stroke="black" points="1867,-102 2087,-102 "/>
<text text-anchor="start" x="1875" y="-90.8" font-family="Arial" font-size="8.00">+ Info : NodeModelInfo</text>
<polyline fill="none" stroke="black" points="1867,-84 2087,-84 "/>
<text text-anchor="start" x="1875" y="-72.8" font-family="Arial" font-size="8.00">+ NodeModel (GameScreen screen, NodeModelInfo info)</text>
<text text-anchor="start" x="1875" y="-62.8" font-family="Arial" font-size="8.00">+ Draw (GameTime time)</text>
</g>
<!-- Box_GameModel&#45;&gt;Box_NodeModel -->
<g id="edge14" class="edge"><title>Box_GameModel&#45;&gt;Box_NodeModel</title>
<path fill="none" stroke="midnightblue" d="M1977,-202.624C1977,-171.254 1977,-141.44 1977,-120.085"/>
<polygon fill="none" stroke="midnightblue" points="1973.5,-202.855 1977,-212.855 1980.5,-202.855 1973.5,-202.855"/>
</g>
<!-- Box_PipeModel -->
<g id="node8" class="node"><title>Box_PipeModel</title>
<polygon fill="#fcfcda" stroke="black" points="2105,-41 2105,-135 2317,-135 2317,-41 2105,-41"/>
<text text-anchor="middle" x="2211" y="-123.8" font-family="Arial" font-size="8.00">PipeModel</text>
<polyline fill="none" stroke="black" points="2105,-117 2317,-117 "/>
<text text-anchor="start" x="2113" y="-105.8" font-family="Arial" font-size="8.00">&#45; Bounds : BoundingSphere[]</text>
<text text-anchor="start" x="2113" y="-95.8" font-family="Arial" font-size="8.00">+ Info : PipeModelInfo</text>
<polyline fill="none" stroke="black" points="2105,-89 2317,-89 "/>
<text text-anchor="start" x="2113" y="-77.8" font-family="Arial" font-size="8.00">+ OnDataChange () : Action</text>
<text text-anchor="start" x="2113" y="-67.8" font-family="Arial" font-size="8.00">+ PipeModel (GameScreen screen, PipeModelInfo info)</text>
<text text-anchor="start" x="2113" y="-57.8" font-family="Arial" font-size="8.00">+ Intersects (Ray ray) : GameObjectDistance</text>
<text text-anchor="start" x="2113" y="-47.8" font-family="Arial" font-size="8.00">+ Draw (GameTime time)</text>
</g>
<!-- Box_GameModel&#45;&gt;Box_PipeModel -->
<g id="edge16" class="edge"><title>Box_GameModel&#45;&gt;Box_PipeModel</title>
<path fill="none" stroke="midnightblue" d="M2095.8,-214.553C2096.53,-213.699 2097.27,-212.848 2098,-212 2120.27,-186.206 2145.79,-158.088 2166.93,-135.159"/>
<polygon fill="none" stroke="midnightblue" points="2092.99,-212.45 2089.14,-222.321 2098.31,-217.004 2092.99,-212.45"/>
</g>
<!-- Box_TestModel -->
<g id="node9" class="node"><title>Box_TestModel</title>
<polygon fill="#fcfcda" stroke="black" points="2335,-56 2335,-120 2553,-120 2553,-56 2335,-56"/>
<text text-anchor="middle" x="2444" y="-108.8" font-family="Arial" font-size="8.00">TestModel</text>
<polyline fill="none" stroke="black" points="2335,-102 2553,-102 "/>
<text text-anchor="middle" x="2444" y="-90.8" font-family="Arial" font-size="8.00"> </text>
<polyline fill="none" stroke="black" points="2335,-84 2553,-84 "/>
<text text-anchor="start" x="2343" y="-72.8" font-family="Arial" font-size="8.00">+ Update (GameTime time)</text>
<text text-anchor="start" x="2343" y="-62.8" font-family="Arial" font-size="8.00">+ TestModel (GameScreen screen, GameModelInfo info)</text>
</g>
<!-- Box_GameModel&#45;&gt;Box_TestModel -->
<g id="edge18" class="edge"><title>Box_GameModel&#45;&gt;Box_TestModel</title>
<path fill="none" stroke="midnightblue" d="M2097.72,-212.163C2097.81,-212.109 2097.91,-212.054 2098,-212 2186.98,-160.935 2231.46,-215.826 2326,-176 2357.32,-162.805 2387.95,-139.568 2410.15,-120.285"/>
<polygon fill="none" stroke="midnightblue" points="2095.73,-209.276 2089.07,-217.512 2099.41,-215.229 2095.73,-209.276"/>
</g>
<!-- Box_LineRenderer -->
<g id="node11" class="node"><title>Box_LineRenderer</title>
<polygon fill="#fcfcda" stroke="black" points="235.5,-16 235.5,-160 468.5,-160 468.5,-16 235.5,-16"/>
<text text-anchor="middle" x="352" y="-148.8" font-family="Arial" font-size="8.00">LineRenderer</text>
<polyline fill="none" stroke="black" points="235.5,-142 468.5,-142 "/>
<text text-anchor="start" x="243.5" y="-130.8" font-family="Arial" font-size="8.00">&#45; edges : EdgeList</text>
<text text-anchor="start" x="243.5" y="-120.8" font-family="Arial" font-size="8.00">&#45; basicEffect : BasicEffect</text>
<text text-anchor="start" x="243.5" y="-110.8" font-family="Arial" font-size="8.00">+ Info : GameObjectInfo</text>
<text text-anchor="start" x="243.5" y="-100.8" font-family="Arial" font-size="8.00">+ World : World</text>
<polyline fill="none" stroke="black" points="235.5,-94 468.5,-94 "/>
<text text-anchor="start" x="243.5" y="-82.8" font-family="Arial" font-size="8.00">+ LineRenderer (GameScreen screen, GameObjectInfo info)</text>
<text text-anchor="start" x="243.5" y="-72.8" font-family="Arial" font-size="8.00">+ OnEdgesChanged (EdgeList edges)</text>
<text text-anchor="start" x="243.5" y="-62.8" font-family="Arial" font-size="8.00">&#45; DrawRoundedLines ()</text>
<text text-anchor="start" x="243.5" y="-52.8" font-family="Arial" font-size="8.00">+ Intersects (Ray ray) : GameObjectDistance</text>
<text text-anchor="start" x="243.5" y="-42.8" font-family="Arial" font-size="8.00">+ Center () : Vector3</text>
<text text-anchor="start" x="243.5" y="-32.8" font-family="Arial" font-size="8.00">+ Draw (GameTime gameTime)</text>
<text text-anchor="start" x="243.5" y="-22.8" font-family="Arial" font-size="8.00">+ Update (GameTime gameTime)</text>
</g>
<!-- Box_KnotRenderer&#45;&gt;Box_LineRenderer -->
<g id="edge24" class="edge"><title>Box_KnotRenderer&#45;&gt;Box_LineRenderer</title>
<path fill="none" stroke="midnightblue" d="M305.026,-218.378C312.306,-198.17 319.527,-178.129 326.044,-160.042"/>
<polygon fill="none" stroke="midnightblue" points="301.662,-217.389 301.565,-227.984 308.247,-219.762 301.662,-217.389"/>
</g>
<!-- Box_PipeRenderer -->
<g id="node12" class="node"><title>Box_PipeRenderer</title>
<polygon fill="#fcfcda" stroke="black" points="0,-1 0,-175 218,-175 218,-1 0,-1"/>
<text text-anchor="middle" x="109" y="-163.8" font-family="Arial" font-size="8.00">PipeRenderer</text>
<polyline fill="none" stroke="black" points="0,-157 218,-157 "/>
<text text-anchor="start" x="8" y="-145.8" font-family="Arial" font-size="8.00">&#45; nodes : List&lt;NodeModel&gt;</text>
<text text-anchor="start" x="8" y="-135.8" font-family="Arial" font-size="8.00">&#45; nodeFactory : ModelFactory</text>
<text text-anchor="start" x="8" y="-125.8" font-family="Arial" font-size="8.00">&#45; pipeFactory : ModelFactory</text>
<text text-anchor="start" x="8" y="-115.8" font-family="Arial" font-size="8.00">&#45; pipes : List&lt;PipeModel&gt;</text>
<text text-anchor="start" x="8" y="-105.8" font-family="Arial" font-size="8.00">+ Info : GameObjectInfo</text>
<text text-anchor="start" x="8" y="-95.8" font-family="Arial" font-size="8.00">+ World : World</text>
<polyline fill="none" stroke="black" points="0,-89 218,-89 "/>
<text text-anchor="start" x="8" y="-77.8" font-family="Arial" font-size="8.00">&#45; IEnumerable.GetEnumerator () : IEnumerator</text>
<text text-anchor="start" x="8" y="-67.8" font-family="Arial" font-size="8.00">+ PipeRenderer (GameState state, GameObjectInfo info)</text>
<text text-anchor="start" x="8" y="-57.8" font-family="Arial" font-size="8.00">+ Draw (GameTime gameTime)</text>
<text text-anchor="start" x="8" y="-47.8" font-family="Arial" font-size="8.00">+ OnEdgesChanged (EdgeList edges)</text>
<text text-anchor="start" x="8" y="-37.8" font-family="Arial" font-size="8.00">+ GetEnumerator () : IEnumerator&lt;IGameObject&gt;</text>
<text text-anchor="start" x="8" y="-27.8" font-family="Arial" font-size="8.00">+ Intersects (Ray ray) : GameObjectDistance</text>
<text text-anchor="start" x="8" y="-17.8" font-family="Arial" font-size="8.00">+ Center () : Vector3</text>
<text text-anchor="start" x="8" y="-7.8" font-family="Arial" font-size="8.00">+ Update (GameTime gameTime)</text>
</g>
<!-- Box_KnotRenderer&#45;&gt;Box_PipeRenderer -->
<g id="edge26" class="edge"><title>Box_KnotRenderer&#45;&gt;Box_PipeRenderer</title>
<path fill="none" stroke="midnightblue" d="M178.712,-218.769C170.826,-203.978 162.985,-189.268 155.561,-175.343"/>
<polygon fill="none" stroke="midnightblue" points="175.831,-220.806 183.624,-227.984 182.008,-217.513 175.831,-220.806"/>
</g>
<!-- Box_IEnumerable -->
<g id="node17" class="node"><title>Box_IEnumerable</title>
<polygon fill="#ffffff" stroke="black" points="450.5,-583 450.5,-601 565.5,-601 565.5,-583 450.5,-583"/>
<text text-anchor="middle" x="508" y="-589.8" font-family="Arial" font-size="8.00">IEnumerable&lt;IGameObject&gt;</text>
</g>
<!-- Box_IEnumerable&#45;&gt;Box_EdgeMovement -->
<g id="edge4" class="edge"><title>Box_IEnumerable&#45;&gt;Box_EdgeMovement</title>
<path fill="none" stroke="midnightblue" d="M575.945,-584.15C686.508,-570.622 899.867,-541.155 968,-508 977.58,-503.338 987.028,-497.97 996.263,-492.102"/>
<polygon fill="none" stroke="midnightblue" points="575.403,-580.69 565.898,-585.37 576.247,-587.639 575.403,-580.69"/>
</g>
<!-- Box_IEnumerable&#45;&gt;Box_KnotRenderer -->
<g id="edge22" class="edge"><title>Box_IEnumerable&#45;&gt;Box_KnotRenderer</title>
<path fill="none" stroke="midnightblue" d="M481.913,-577.841C454.919,-562.535 412.265,-536.479 380,-508 374.308,-502.976 368.642,-497.691 363.044,-492.231"/>
<polygon fill="none" stroke="midnightblue" points="480.33,-580.965 490.766,-582.793 483.747,-574.856 480.33,-580.965"/>
</g>
<!-- Box_IEnumerable&#45;&gt;Box_PipeRenderer -->
<g id="edge28" class="edge"><title>Box_IEnumerable&#45;&gt;Box_PipeRenderer</title>
<path fill="none" stroke="midnightblue" d="M440.331,-586.733C342.122,-577.555 167.48,-554.946 128,-508 50.7196,-416.105 64.9114,-268.889 84.9289,-175.392"/>
<polygon fill="none" stroke="midnightblue" points="440.185,-590.234 450.462,-587.657 440.821,-583.263 440.185,-590.234"/>
</g>
<!-- Box_IEnumerable&#45;&gt;Box_ModelRenderer -->
<g id="edge32" class="edge"><title>Box_IEnumerable&#45;&gt;Box_ModelRenderer</title>
<path fill="none" stroke="midnightblue" d="M508,-572.838C508,-554.137 508,-523.914 508,-492.044"/>
<polygon fill="none" stroke="midnightblue" points="504.5,-572.905 508,-582.905 511.5,-572.905 504.5,-572.905"/>
</g>
<!-- Box_IEnumerable&#45;&gt;Box_PipeMovement -->
<g id="edge40" class="edge"><title>Box_IEnumerable&#45;&gt;Box_PipeMovement</title>
<path fill="none" stroke="midnightblue" d="M532.372,-577.496C558.676,-561.504 601.442,-534.515 636,-508 640.595,-504.475 645.221,-500.854 649.86,-497.162"/>
<polygon fill="none" stroke="midnightblue" points="530.224,-574.704 523.472,-582.869 533.842,-580.697 530.224,-574.704"/>
</g>
</g>
</svg>
