<?xml version="1.0" encoding="UTF-8" standalone="no"?>
<!DOCTYPE svg PUBLIC "-//W3C//DTD SVG 1.1//EN"
 "http://www.w3.org/Graphics/SVG/1.1/DTD/svg11.dtd">
<!-- Generated by graphviz version 2.26.3 (20100126.1600)
 -->
<!-- Title: MenuItem Pages: 1 -->
<svg width="200pt" height="206pt"
 viewBox="0.00 0.00 200.00 206.00" xmlns="http://www.w3.org/2000/svg" xmlns:xlink="http://www.w3.org/1999/xlink">
<g id="graph1" class="graph" transform="scale(1 1) rotate(0) translate(4 202)">
<title>MenuItem</title>
<polygon fill="white" stroke="white" points="-4,5 -4,-202 197,-202 197,5 -4,5"/>
<!-- Box_IKnotIO -->
<g id="node1" class="node"><title>Box_IKnotIO</title>
<polygon fill="#dafcda" stroke="black" points="-0.5,-123 -0.5,-197 192.5,-197 192.5,-123 -0.5,-123"/>
<text text-anchor="middle" x="96" y="-185.8" font-family="Arial" font-size="8.00">IKnotIO</text>
<polyline fill="none" stroke="black" points="-0.5,-179 192.5,-179 "/>
<text text-anchor="middle" x="96" y="-167.8" font-family="Arial" font-size="8.00"> </text>
<polyline fill="none" stroke="black" points="-0.5,-161 192.5,-161 "/>
<text text-anchor="start" x="7.5" y="-149.8" font-family="Arial" font-size="8.00">+ Load (string filename) : Knot</text>
<text text-anchor="start" x="7.5" y="-139.8" font-family="Arial" font-size="8.00">+ LoadMetaData (string filename) : KnotMetaData</text>
<text text-anchor="start" x="7.5" y="-129.8" font-family="Arial" font-size="8.00">+ Save (Knot knot)</text>
</g>
<!-- Box_KnotFileIO -->
<g id="node2" class="node"><title>Box_KnotFileIO</title>
<polygon fill="#fcfcda" stroke="black" points="-0.5,-1 -0.5,-85 192.5,-85 192.5,-1 -0.5,-1"/>
<text text-anchor="middle" x="96" y="-73.8" font-family="Arial" font-size="8.00">KnotFileIO</text>
<polyline fill="none" stroke="black" points="-0.5,-67 192.5,-67 "/>
<text text-anchor="start" x="7.5" y="-55.8" font-family="Arial" font-size="8.00">+ FileExtensions : string[] static</text>
<polyline fill="none" stroke="black" points="-0.5,-49 192.5,-49 "/>
<text text-anchor="start" x="7.5" y="-37.8" font-family="Arial" font-size="8.00">+ LoadMetaData (string filename) : KnotMetaData</text>
<text text-anchor="start" x="7.5" y="-27.8" font-family="Arial" font-size="8.00">+ Load (string filename) : Knot</text>
<text text-anchor="start" x="7.5" y="-17.8" font-family="Arial" font-size="8.00">+ ToString () : string</text>
<text text-anchor="start" x="7.5" y="-7.8" font-family="Arial" font-size="8.00">+ Save (Knot knot)</text>
</g>
<!-- Box_IKnotIO&#45;&gt;Box_KnotFileIO -->
<g id="edge2" class="edge"><title>Box_IKnotIO&#45;&gt;Box_KnotFileIO</title>
<path fill="none" stroke="midnightblue" d="M96,-112.829C96,-103.647 96,-94.0784 96,-85.0744"/>
<polygon fill="none" stroke="midnightblue" points="92.5001,-112.98 96,-122.98 99.5001,-112.981 92.5001,-112.98"/>
</g>
</g>
</svg>
