<?xml version="1.0" encoding="UTF-8" standalone="no"?>
<!DOCTYPE svg PUBLIC "-//W3C//DTD SVG 1.1//EN"
 "http://www.w3.org/Graphics/SVG/1.1/DTD/svg11.dtd">
<!-- Generated by graphviz version 2.26.3 (20100126.1600)
 -->
<!-- Title: MenuItem Pages: 1 -->
<svg width="718pt" height="798pt"
 viewBox="0.00 0.00 718.00 798.00" xmlns="http://www.w3.org/2000/svg" xmlns:xlink="http://www.w3.org/1999/xlink">
<g id="graph1" class="graph" transform="scale(1 1) rotate(0) translate(4 794)">
<title>MenuItem</title>
<polygon fill="white" stroke="white" points="-4,5 -4,-794 715,-794 715,5 -4,5"/>
<!-- Box_MenuScreen -->
<g id="node1" class="node"><title>Box_MenuScreen</title>
<polygon fill="#fcfcda" stroke="black" points="241,-345 241,-529 429,-529 429,-345 241,-345"/>
<text text-anchor="middle" x="335" y="-517.8" font-family="Arial" font-size="8.00">MenuScreen</text>
<polyline fill="none" stroke="black" points="241,-511 429,-511 "/>
<text text-anchor="start" x="249" y="-499.8" font-family="Arial" font-size="8.00">&#45; backColor : Color</text>
<text text-anchor="start" x="249" y="-489.8" font-family="Arial" font-size="8.00">&#45; pointer : MousePointer</text>
<text text-anchor="start" x="249" y="-479.8" font-family="Arial" font-size="8.00"># LinePoints : List&lt;Vector2&gt;</text>
<text text-anchor="start" x="249" y="-469.8" font-family="Arial" font-size="8.00"># LineWidth : int</text>
<text text-anchor="start" x="249" y="-459.8" font-family="Arial" font-size="8.00">&#45; spriteBatch : SpriteBatch</text>
<polyline fill="none" stroke="black" points="241,-453 429,-453 "/>
<text text-anchor="start" x="249" y="-441.8" font-family="Arial" font-size="8.00">+ MenuScreen (Core.Knot3Game game)</text>
<text text-anchor="start" x="249" y="-431.8" font-family="Arial" font-size="8.00">+ Activate (GameTime time)</text>
<text text-anchor="start" x="249" y="-421.8" font-family="Arial" font-size="8.00">+ Draw (GameTime time)</text>
<text text-anchor="start" x="249" y="-411.8" font-family="Arial" font-size="8.00"># BackgroundColor (ItemState itemState) : Color</text>
<text text-anchor="start" x="249" y="-401.8" font-family="Arial" font-size="8.00"># ForegroundColor (ItemState itemState) : Color</text>
<text text-anchor="start" x="249" y="-391.8" font-family="Arial" font-size="8.00">+ DrawMenu (GameTime time) abstract</text>
<text text-anchor="start" x="249" y="-381.8" font-family="Arial" font-size="8.00">+ UpdateMenu (GameTime time) abstract</text>
<text text-anchor="start" x="249" y="-371.8" font-family="Arial" font-size="8.00">+ Initialize ()</text>
<text text-anchor="start" x="249" y="-361.8" font-family="Arial" font-size="8.00">+ Unload ()</text>
<text text-anchor="start" x="249" y="-351.8" font-family="Arial" font-size="8.00">+ Update (GameTime time)</text>
</g>
<!-- Box_StartScreen -->
<g id="node3" class="node"><title>Box_StartScreen</title>
<polygon fill="#fcfcda" stroke="black" points="-0.5,-173 -0.5,-287 138.5,-287 138.5,-173 -0.5,-173"/>
<text text-anchor="middle" x="69" y="-275.8" font-family="Arial" font-size="8.00">StartScreen</text>
<polyline fill="none" stroke="black" points="-0.5,-269 138.5,-269 "/>
<text text-anchor="start" x="7.5" y="-257.8" font-family="Arial" font-size="8.00">&#45; spriteBatch : SpriteBatch</text>
<text text-anchor="start" x="7.5" y="-247.8" font-family="Arial" font-size="8.00">&#45; logo : Texture2D</text>
<text text-anchor="start" x="7.5" y="-237.8" font-family="Arial" font-size="8.00"># menu : Menu</text>
<polyline fill="none" stroke="black" points="-0.5,-231 138.5,-231 "/>
<text text-anchor="start" x="7.5" y="-219.8" font-family="Arial" font-size="8.00">+ StartScreen (Knot3Game game)</text>
<text text-anchor="start" x="7.5" y="-209.8" font-family="Arial" font-size="8.00">+ Activate (GameTime time)</text>
<text text-anchor="start" x="7.5" y="-199.8" font-family="Arial" font-size="8.00">+ UpdateMenu (GameTime time)</text>
<text text-anchor="start" x="7.5" y="-189.8" font-family="Arial" font-size="8.00">+ DrawMenu (GameTime time)</text>
<text text-anchor="start" x="7.5" y="-179.8" font-family="Arial" font-size="8.00">+ Initialize ()</text>
</g>
<!-- Box_MenuScreen&#45;&gt;Box_StartScreen -->
<g id="edge4" class="edge"><title>Box_MenuScreen&#45;&gt;Box_StartScreen</title>
<path fill="none" stroke="midnightblue" d="M232.374,-371.598C203.942,-352.149 173.6,-330.106 147,-308 139.194,-301.513 131.277,-294.368 123.629,-287.117"/>
<polygon fill="none" stroke="midnightblue" points="230.495,-374.552 240.733,-377.279 234.43,-368.763 230.495,-374.552"/>
</g>
<!-- Box_CreativeLoadScreen -->
<g id="node4" class="node"><title>Box_CreativeLoadScreen</title>
<polygon fill="#fcfcda" stroke="black" points="156,-153 156,-307 324,-307 324,-153 156,-153"/>
<text text-anchor="middle" x="240" y="-295.8" font-family="Arial" font-size="8.00">CreativeLoadScreen</text>
<polyline fill="none" stroke="black" points="156,-289 324,-289 "/>
<text text-anchor="start" x="164" y="-277.8" font-family="Arial" font-size="8.00">&#45; fileIndex : FileIndex</text>
<text text-anchor="start" x="164" y="-267.8" font-family="Arial" font-size="8.00">&#45; fileFormat : IKnotIO</text>
<text text-anchor="start" x="164" y="-257.8" font-family="Arial" font-size="8.00">&#45; spriteBatch : SpriteBatch</text>
<text text-anchor="start" x="164" y="-247.8" font-family="Arial" font-size="8.00">&#45; menu : VerticalMenu</text>
<polyline fill="none" stroke="black" points="156,-241 324,-241 "/>
<text text-anchor="start" x="164" y="-229.8" font-family="Arial" font-size="8.00">&#45; AddDefaultKnots ()</text>
<text text-anchor="start" x="164" y="-219.8" font-family="Arial" font-size="8.00">+ CreativeLoadScreen (Core.Game game)</text>
<text text-anchor="start" x="164" y="-209.8" font-family="Arial" font-size="8.00">+ Activate (GameTime time)</text>
<text text-anchor="start" x="164" y="-199.8" font-family="Arial" font-size="8.00">+ DrawMenu (GameTime time)</text>
<text text-anchor="start" x="164" y="-189.8" font-family="Arial" font-size="8.00">&#45; AddFileToList (string filename)</text>
<text text-anchor="start" x="164" y="-179.8" font-family="Arial" font-size="8.00">&#45; UpdateFiles ()</text>
<text text-anchor="start" x="164" y="-169.8" font-family="Arial" font-size="8.00">+ Initialize ()</text>
<text text-anchor="start" x="164" y="-159.8" font-family="Arial" font-size="8.00">+ UpdateMenu (GameTime time)</text>
</g>
<!-- Box_MenuScreen&#45;&gt;Box_CreativeLoadScreen -->
<g id="edge6" class="edge"><title>Box_MenuScreen&#45;&gt;Box_CreativeLoadScreen</title>
<path fill="none" stroke="midnightblue" d="M288.457,-335.585C284.085,-326.059 279.703,-316.51 275.458,-307.261"/>
<polygon fill="none" stroke="midnightblue" points="285.288,-337.071 292.64,-344.7 291.65,-334.151 285.288,-337.071"/>
</g>
<!-- Box_LoadSavegameScreen -->
<g id="node5" class="node"><title>Box_LoadSavegameScreen</title>
<polygon fill="#fcfcda" stroke="black" points="342,-153 342,-307 518,-307 518,-153 342,-153"/>
<text text-anchor="middle" x="430" y="-295.8" font-family="Arial" font-size="8.00">LoadSavegameScreen</text>
<polyline fill="none" stroke="black" points="342,-289 518,-289 "/>
<text text-anchor="start" x="350" y="-277.8" font-family="Arial" font-size="8.00">&#45; fileIndex : FileIndex</text>
<text text-anchor="start" x="350" y="-267.8" font-family="Arial" font-size="8.00">&#45; fileFormat : IKnotIO</text>
<text text-anchor="start" x="350" y="-257.8" font-family="Arial" font-size="8.00">&#45; spriteBatch : SpriteBatch</text>
<text text-anchor="start" x="350" y="-247.8" font-family="Arial" font-size="8.00">&#45; menu : VerticalMenu</text>
<polyline fill="none" stroke="black" points="342,-241 518,-241 "/>
<text text-anchor="start" x="350" y="-229.8" font-family="Arial" font-size="8.00">&#45; AddDefaultKnots ()</text>
<text text-anchor="start" x="350" y="-219.8" font-family="Arial" font-size="8.00">+ LoadSavegameScreen (Core.Game game)</text>
<text text-anchor="start" x="350" y="-209.8" font-family="Arial" font-size="8.00">+ Activate (GameTime time)</text>
<text text-anchor="start" x="350" y="-199.8" font-family="Arial" font-size="8.00">+ DrawMenu (GameTime time)</text>
<text text-anchor="start" x="350" y="-189.8" font-family="Arial" font-size="8.00">&#45; AddFileToList (string filename)</text>
<text text-anchor="start" x="350" y="-179.8" font-family="Arial" font-size="8.00">&#45; UpdateFiles ()</text>
<text text-anchor="start" x="350" y="-169.8" font-family="Arial" font-size="8.00">+ Initialize ()</text>
<text text-anchor="start" x="350" y="-159.8" font-family="Arial" font-size="8.00">+ UpdateMenu (GameTime time)</text>
</g>
<!-- Box_MenuScreen&#45;&gt;Box_LoadSavegameScreen -->
<g id="edge8" class="edge"><title>Box_MenuScreen&#45;&gt;Box_LoadSavegameScreen</title>
<path fill="none" stroke="midnightblue" d="M381.543,-335.585C385.915,-326.059 390.297,-316.51 394.542,-307.261"/>
<polygon fill="none" stroke="midnightblue" points="378.35,-334.151 377.36,-344.7 384.712,-337.071 378.35,-334.151"/>
</g>
<!-- Box_OptionScreen -->
<g id="node6" class="node"><title>Box_OptionScreen</title>
<polygon fill="#fcfcda" stroke="black" points="536,-178 536,-282 700,-282 700,-178 536,-178"/>
<text text-anchor="middle" x="618" y="-270.8" font-family="Arial" font-size="8.00">OptionScreen</text>
<polyline fill="none" stroke="black" points="536,-264 700,-264 "/>
<text text-anchor="start" x="544" y="-252.8" font-family="Arial" font-size="8.00">&#45; spriteBatch : SpriteBatch</text>
<text text-anchor="start" x="544" y="-242.8" font-family="Arial" font-size="8.00">&#45; menu : VerticalMenu</text>
<polyline fill="none" stroke="black" points="536,-236 700,-236 "/>
<text text-anchor="start" x="544" y="-224.8" font-family="Arial" font-size="8.00">+ OptionScreen (Core.Knot3Game game)</text>
<text text-anchor="start" x="544" y="-214.8" font-family="Arial" font-size="8.00">+ Activate (GameTime time)</text>
<text text-anchor="start" x="544" y="-204.8" font-family="Arial" font-size="8.00">+ DrawMenu (GameTime time)</text>
<text text-anchor="start" x="544" y="-194.8" font-family="Arial" font-size="8.00">+ UpdateMenu (GameTime time)</text>
<text text-anchor="start" x="544" y="-184.8" font-family="Arial" font-size="8.00">+ Initialize ()</text>
</g>
<!-- Box_MenuScreen&#45;&gt;Box_OptionScreen -->
<g id="edge10" class="edge"><title>Box_MenuScreen&#45;&gt;Box_OptionScreen</title>
<path fill="none" stroke="midnightblue" d="M437.907,-371.076C467.187,-351.46 498.778,-329.459 527,-308 537.601,-299.939 548.588,-291.034 559.107,-282.21"/>
<polygon fill="none" stroke="midnightblue" points="435.685,-368.351 429.309,-376.812 439.57,-374.174 435.685,-368.351"/>
</g>
<!-- Box_GameScreen -->
<g id="node2" class="node"><title>Box_GameScreen</title>
<polygon fill="#fcfcda" stroke="black" points="157.5,-566.5 157.5,-789.5 512.5,-789.5 512.5,-566.5 157.5,-566.5"/>
<text text-anchor="middle" x="335" y="-778.3" font-family="Arial" font-size="8.00">GameScreen</text>
<polyline fill="none" stroke="black" points="157.5,-771.5 512.5,-771.5 "/>
<text text-anchor="start" x="165.5" y="-760.3" font-family="Arial" font-size="8.00">+ content : ContentManager</text>
<text text-anchor="start" x="165.5" y="-750.3" font-family="Arial" font-size="8.00">+ NextState : GameScreen</text>
<text text-anchor="start" x="165.5" y="-740.3" font-family="Arial" font-size="8.00">+ device : GraphicsDevice</text>
<text text-anchor="start" x="165.5" y="-730.3" font-family="Arial" font-size="8.00">+ RenderEffects : RenderEffectStack</text>
<text text-anchor="start" x="165.5" y="-720.3" font-family="Arial" font-size="8.00">+ viewport : Viewport</text>
<text text-anchor="start" x="165.5" y="-710.3" font-family="Arial" font-size="8.00">+ graphics : GraphicsDeviceManager</text>
<text text-anchor="start" x="165.5" y="-700.3" font-family="Arial" font-size="8.00">+ input : InputManager</text>
<text text-anchor="start" x="165.5" y="-690.3" font-family="Arial" font-size="8.00">+ game : Knot3Game</text>
<text text-anchor="start" x="165.5" y="-680.3" font-family="Arial" font-size="8.00">+ PostProcessing : RenderEffect</text>
<polyline fill="none" stroke="black" points="157.5,-673.5 512.5,-673.5 "/>
<text text-anchor="start" x="165.5" y="-662.3" font-family="Arial" font-size="8.00">+ Draw (GameTime time) abstract</text>
<text text-anchor="start" x="165.5" y="-652.3" font-family="Arial" font-size="8.00">+ Initialize () abstract</text>
<text text-anchor="start" x="165.5" y="-642.3" font-family="Arial" font-size="8.00">+ Unload () abstract</text>
<text text-anchor="start" x="165.5" y="-632.3" font-family="Arial" font-size="8.00">+ Activate (GameTime time) virtual</text>
<text text-anchor="start" x="165.5" y="-622.3" font-family="Arial" font-size="8.00">+ GameScreen (Knot3Game game)</text>
<text text-anchor="start" x="165.5" y="-612.3" font-family="Arial" font-size="8.00">+ Update (GameTime time) abstract</text>
<text text-anchor="start" x="165.5" y="-602.3" font-family="Arial" font-size="8.00">+ Deactivate (GameTime time) virtual</text>
<text text-anchor="start" x="165.5" y="-592.3" font-family="Arial" font-size="8.00">+ AddGameComponents (GameTime time, params IGameScreenComponent[] components)</text>
<text text-anchor="start" x="165.5" y="-582.3" font-family="Arial" font-size="8.00">+ RemoveGameComponents (GameTime time, params IGameScreenComponent[] components)</text>
</g>
<!-- Box_GameScreen&#45;&gt;Box_MenuScreen -->
<g id="edge2" class="edge"><title>Box_GameScreen&#45;&gt;Box_MenuScreen</title>
<path fill="none" stroke="midnightblue" d="M335,-556.1C335,-547.044 335,-537.998 335,-529.167"/>
<polygon fill="none" stroke="midnightblue" points="331.5,-556.319 335,-566.319 338.5,-556.319 331.5,-556.319"/>
</g>
<!-- Box_VideoOptionScreen -->
<g id="node7" class="node"><title>Box_VideoOptionScreen</title>
<polygon fill="#fcfcda" stroke="black" points="525.5,-1 525.5,-115 710.5,-115 710.5,-1 525.5,-1"/>
<text text-anchor="middle" x="618" y="-103.8" font-family="Arial" font-size="8.00">VideoOptionScreen</text>
<polyline fill="none" stroke="black" points="525.5,-97 710.5,-97 "/>
<text text-anchor="start" x="533.5" y="-85.8" font-family="Arial" font-size="8.00">&#45; spriteBatch : SpriteBatch</text>
<text text-anchor="start" x="533.5" y="-75.8" font-family="Arial" font-size="8.00">&#45; menu : VerticalMenu</text>
<polyline fill="none" stroke="black" points="525.5,-69 710.5,-69 "/>
<text text-anchor="start" x="533.5" y="-57.8" font-family="Arial" font-size="8.00">+ VideoOptionScreen (Core.Knot3Game game)</text>
<text text-anchor="start" x="533.5" y="-47.8" font-family="Arial" font-size="8.00">+ Activate (GameTime time)</text>
<text text-anchor="start" x="533.5" y="-37.8" font-family="Arial" font-size="8.00">+ DrawMenu (GameTime time)</text>
<text text-anchor="start" x="533.5" y="-27.8" font-family="Arial" font-size="8.00">+ Initialize ()</text>
<text text-anchor="start" x="533.5" y="-17.8" font-family="Arial" font-size="8.00">+ UpdateMenu (GameTime time)</text>
<text text-anchor="start" x="533.5" y="-7.8" font-family="Arial" font-size="8.00">+ Collapse (MenuItem item)</text>
</g>
<!-- Box_OptionScreen&#45;&gt;Box_VideoOptionScreen -->
<g id="edge12" class="edge"><title>Box_OptionScreen&#45;&gt;Box_VideoOptionScreen</title>
<path fill="none" stroke="midnightblue" d="M618,-167.505C618,-150.446 618,-132.05 618,-115.296"/>
<polygon fill="none" stroke="midnightblue" points="614.5,-167.928 618,-177.928 621.5,-167.928 614.5,-167.928"/>
</g>
</g>
</svg>
