<?xml version="1.0" encoding="UTF-8" standalone="no"?>
<!DOCTYPE svg PUBLIC "-//W3C//DTD SVG 1.1//EN"
 "http://www.w3.org/Graphics/SVG/1.1/DTD/svg11.dtd">
<!-- Generated by graphviz version 2.26.3 (20100126.1600)
 -->
<!-- Title: MenuItem Pages: 1 -->
<svg width="928pt" height="838pt"
 viewBox="0.00 0.00 928.00 838.00" xmlns="http://www.w3.org/2000/svg" xmlns:xlink="http://www.w3.org/1999/xlink">
<g id="graph1" class="graph" transform="scale(1 1) rotate(0) translate(4 834)">
<title>MenuItem</title>
<polygon fill="white" stroke="white" points="-4,5 -4,-834 925,-834 925,5 -4,5"/>
<!-- Box_MenuButton -->
<g id="node1" class="node"><title>Box_MenuButton</title>
<polygon fill="#fcfcda" stroke="black" points="239,-1 239,-65 577,-65 577,-1 239,-1"/>
<text text-anchor="middle" x="408" y="-53.8" font-family="Arial" font-size="8.00">MenuButton</text>
<polyline fill="none" stroke="black" points="239,-47 577,-47 "/>
<text text-anchor="middle" x="408" y="-35.8" font-family="Arial" font-size="8.00"> </text>
<polyline fill="none" stroke="black" points="239,-29 577,-29 "/>
<text text-anchor="start" x="247" y="-17.8" font-family="Arial" font-size="8.00">+ MenuButton (GameScreen screen, DisplayLayer drawOrder, int itemNum, MenuItemInfo</text>
<text text-anchor="start" x="247" y="-7.8" font-family="Arial" font-size="8.00">info)</text>
</g>
<!-- Box_MenuItem -->
<g id="node2" class="node"><title>Box_MenuItem</title>
<polygon fill="#fcfcda" stroke="black" points="243.5,-103 243.5,-297 572.5,-297 572.5,-103 243.5,-103"/>
<text text-anchor="middle" x="408" y="-285.8" font-family="Arial" font-size="8.00">MenuItem</text>
<polyline fill="none" stroke="black" points="243.5,-279 572.5,-279 "/>
<text text-anchor="start" x="251.5" y="-267.8" font-family="Arial" font-size="8.00"># spriteBatch : SpriteBatch</text>
<text text-anchor="start" x="251.5" y="-257.8" font-family="Arial" font-size="8.00">+ IsMouseEventEnabled : bool</text>
<text text-anchor="start" x="251.5" y="-247.8" font-family="Arial" font-size="8.00">+ ValidKeys : List&lt;Keys&gt;</text>
<text text-anchor="start" x="251.5" y="-237.8" font-family="Arial" font-size="8.00">+ IsKeyEventEnabled : bool</text>
<text text-anchor="start" x="251.5" y="-227.8" font-family="Arial" font-size="8.00">+ Info : MenuItemInfo</text>
<polyline fill="none" stroke="black" points="243.5,-221 572.5,-221 "/>
<text text-anchor="start" x="251.5" y="-209.8" font-family="Arial" font-size="8.00">+ MenuItem (GameScreen screen, DisplayLayer drawOrder, int itemNum, MenuItemInfo</text>
<text text-anchor="start" x="251.5" y="-199.8" font-family="Arial" font-size="8.00">info)</text>
<text text-anchor="start" x="251.5" y="-189.8" font-family="Arial" font-size="8.00">+ Collapse () virtual</text>
<text text-anchor="start" x="251.5" y="-179.8" font-family="Arial" font-size="8.00">+ OnKeyEvent (List&lt;Keys&gt; key, KeyEvent keyEvent, GameTime time)</text>
<text text-anchor="start" x="251.5" y="-169.8" font-family="Arial" font-size="8.00">+ OnLeftClick (Vector2 position, ClickState click, GameTime time)</text>
<text text-anchor="start" x="251.5" y="-159.8" font-family="Arial" font-size="8.00">+ OnRightClick (Vector2 position, ClickState click, GameTime time)</text>
<text text-anchor="start" x="251.5" y="-149.8" font-family="Arial" font-size="8.00">+ MinimumSize (SpriteFont font) : Vector2</text>
<text text-anchor="start" x="251.5" y="-139.8" font-family="Arial" font-size="8.00">+ TextPosition (SpriteFont font) : Vector2</text>
<text text-anchor="start" x="251.5" y="-129.8" font-family="Arial" font-size="8.00">+ TextPosition (SpriteFont font, Vector2 scale) : Vector2</text>
<text text-anchor="start" x="251.5" y="-119.8" font-family="Arial" font-size="8.00">+ Draw (GameTime time)</text>
<text text-anchor="start" x="251.5" y="-109.8" font-family="Arial" font-size="8.00">+ SetHovered (bool hovered)</text>
</g>
<!-- Box_MenuItem&#45;&gt;Box_MenuButton -->
<g id="edge2" class="edge"><title>Box_MenuItem&#45;&gt;Box_MenuButton</title>
<path fill="none" stroke="midnightblue" d="M408,-92.8523C408,-82.9863 408,-73.6005 408,-65.3106"/>
<polygon fill="none" stroke="midnightblue" points="404.5,-92.8554 408,-102.855 411.5,-92.8554 404.5,-92.8554"/>
</g>
<!-- Box_IKeyEventListener -->
<g id="node3" class="node"><title>Box_IKeyEventListener</title>
<polygon fill="#dafcda" stroke="black" points="-0.5,-345 -0.5,-419 264.5,-419 264.5,-345 -0.5,-345"/>
<text text-anchor="middle" x="132" y="-407.8" font-family="Arial" font-size="8.00">IKeyEventListener</text>
<polyline fill="none" stroke="black" points="-0.5,-401 264.5,-401 "/>
<text text-anchor="start" x="7.5" y="-389.8" font-family="Arial" font-size="8.00">+ ValidKeys : List&lt;Keys&gt;</text>
<text text-anchor="start" x="7.5" y="-379.8" font-family="Arial" font-size="8.00">+ Index : DisplayLayer</text>
<text text-anchor="start" x="7.5" y="-369.8" font-family="Arial" font-size="8.00">+ IsKeyEventEnabled : bool</text>
<polyline fill="none" stroke="black" points="-0.5,-363 264.5,-363 "/>
<text text-anchor="start" x="7.5" y="-351.8" font-family="Arial" font-size="8.00">+ OnKeyEvent (List&lt;Keys&gt; key, KeyEvent keyEvent, GameTime time)</text>
</g>
<!-- Box_IKeyEventListener&#45;&gt;Box_MenuItem -->
<g id="edge8" class="edge"><title>Box_IKeyEventListener&#45;&gt;Box_MenuItem</title>
<path fill="none" stroke="midnightblue" d="M196.641,-339.375C216.11,-326.536 238.326,-311.886 260.869,-297.021"/>
<polygon fill="none" stroke="midnightblue" points="194.607,-336.523 188.185,-344.95 198.461,-342.367 194.607,-336.523"/>
</g>
<!-- Box_IMouseEventListener -->
<g id="node4" class="node"><title>Box_IMouseEventListener</title>
<polygon fill="#dafcda" stroke="black" points="282,-335 282,-429 534,-429 534,-335 282,-335"/>
<text text-anchor="middle" x="408" y="-417.8" font-family="Arial" font-size="8.00">IMouseEventListener</text>
<polyline fill="none" stroke="black" points="282,-411 534,-411 "/>
<text text-anchor="start" x="290" y="-399.8" font-family="Arial" font-size="8.00">+ Index : DisplayLayer</text>
<text text-anchor="start" x="290" y="-389.8" font-family="Arial" font-size="8.00">+ IsMouseEventEnabled : bool</text>
<polyline fill="none" stroke="black" points="282,-383 534,-383 "/>
<text text-anchor="start" x="290" y="-371.8" font-family="Arial" font-size="8.00">+ OnLeftClick (Vector2 position, ClickState click, GameTime time)</text>
<text text-anchor="start" x="290" y="-361.8" font-family="Arial" font-size="8.00">+ OnRightClick (Vector2 position, ClickState click, GameTime time)</text>
<text text-anchor="start" x="290" y="-351.8" font-family="Arial" font-size="8.00">+ SetHovered (bool hovered)</text>
<text text-anchor="start" x="290" y="-341.8" font-family="Arial" font-size="8.00">+ bounds () : Rectangle</text>
</g>
<!-- Box_IMouseEventListener&#45;&gt;Box_MenuItem -->
<g id="edge6" class="edge"><title>Box_IMouseEventListener&#45;&gt;Box_MenuItem</title>
<path fill="none" stroke="midnightblue" d="M408,-324.612C408,-315.845 408,-306.594 408,-297.255"/>
<polygon fill="none" stroke="midnightblue" points="404.5,-324.657 408,-334.657 411.5,-324.657 404.5,-324.657"/>
</g>
<!-- Box_ItemWidget -->
<g id="node5" class="node"><title>Box_ItemWidget</title>
<polygon fill="#fcfcda" stroke="black" points="552,-345.5 552,-418.5 896,-418.5 896,-345.5 552,-345.5"/>
<text text-anchor="middle" x="724" y="-407.3" font-family="Arial" font-size="8.00">ItemWidget</text>
<polyline fill="none" stroke="black" points="552,-400.5 896,-400.5 "/>
<text text-anchor="start" x="560" y="-389.3" font-family="Arial" font-size="8.00">+ ItemState : ItemState</text>
<text text-anchor="start" x="560" y="-379.3" font-family="Arial" font-size="8.00"># ItemNum : int</text>
<polyline fill="none" stroke="black" points="552,-372.5 896,-372.5 "/>
<text text-anchor="start" x="560" y="-361.3" font-family="Arial" font-size="8.00">+ ItemWidget (GameScreen screen, WidgetInfo info, DisplayLayer drawOrder, int itemNum)</text>
</g>
<!-- Box_ItemWidget&#45;&gt;Box_MenuItem -->
<g id="edge4" class="edge"><title>Box_ItemWidget&#45;&gt;Box_MenuItem</title>
<path fill="none" stroke="midnightblue" d="M651.509,-340.249C627.736,-326.557 600.266,-310.735 572.527,-294.759"/>
<polygon fill="none" stroke="midnightblue" points="650.02,-343.431 660.433,-345.389 653.514,-337.365 650.02,-343.431"/>
</g>
<!-- Box_Widget -->
<g id="node6" class="node"><title>Box_Widget</title>
<polygon fill="#fcfcda" stroke="black" points="582,-467 582,-541 866,-541 866,-467 582,-467"/>
<text text-anchor="middle" x="724" y="-529.8" font-family="Arial" font-size="8.00">Widget</text>
<polyline fill="none" stroke="black" points="582,-523 866,-523 "/>
<text text-anchor="start" x="590" y="-511.8" font-family="Arial" font-size="8.00">+ Info : WidgetInfo</text>
<text text-anchor="start" x="590" y="-501.8" font-family="Arial" font-size="8.00">+ IsVisible : bool virtual</text>
<polyline fill="none" stroke="black" points="582,-495 866,-495 "/>
<text text-anchor="start" x="590" y="-483.8" font-family="Arial" font-size="8.00">+ bounds () : Rectangle</text>
<text text-anchor="start" x="590" y="-473.8" font-family="Arial" font-size="8.00">+ Widget (GameScreen screen, WidgetInfo info, DisplayLayer drawOrder)</text>
</g>
<!-- Box_Widget&#45;&gt;Box_ItemWidget -->
<g id="edge10" class="edge"><title>Box_Widget&#45;&gt;Box_ItemWidget</title>
<path fill="none" stroke="midnightblue" d="M724,-456.42C724,-443.86 724,-430.501 724,-418.62"/>
<polygon fill="none" stroke="midnightblue" points="720.5,-456.733 724,-466.733 727.5,-456.733 720.5,-456.733"/>
</g>
<!-- Box_DrawableGameScreenComponent -->
<g id="node7" class="node"><title>Box_DrawableGameScreenComponent</title>
<polygon fill="#fcfcda" stroke="black" points="565.5,-579 565.5,-663 882.5,-663 882.5,-579 565.5,-579"/>
<text text-anchor="middle" x="724" y="-651.8" font-family="Arial" font-size="8.00">DrawableGameScreenComponent</text>
<polyline fill="none" stroke="black" points="565.5,-645 882.5,-645 "/>
<text text-anchor="start" x="573.5" y="-633.8" font-family="Arial" font-size="8.00">+ Index : DisplayLayer</text>
<text text-anchor="start" x="573.5" y="-623.8" font-family="Arial" font-size="8.00">&#45; _index : DisplayLayer</text>
<text text-anchor="start" x="573.5" y="-613.8" font-family="Arial" font-size="8.00">+ screen : GameScreen</text>
<polyline fill="none" stroke="black" points="565.5,-607 882.5,-607 "/>
<text text-anchor="start" x="573.5" y="-595.8" font-family="Arial" font-size="8.00">+ DrawableGameScreenComponent (GameScreen screen, DisplayLayer index)</text>
<text text-anchor="start" x="573.5" y="-585.8" font-family="Arial" font-size="8.00">+ SubComponents (GameTime time) : IEnumerable&lt;IGameScreenComponent&gt; virtual</text>
</g>
<!-- Box_DrawableGameScreenComponent&#45;&gt;Box_Widget -->
<g id="edge12" class="edge"><title>Box_DrawableGameScreenComponent&#45;&gt;Box_Widget</title>
<path fill="none" stroke="midnightblue" d="M724,-568.482C724,-559.258 724,-549.834 724,-541.14"/>
<polygon fill="none" stroke="midnightblue" points="720.5,-568.76 724,-578.76 727.5,-568.76 720.5,-568.76"/>
</g>
<!-- Box_IGameScreenComponent -->
<g id="node8" class="node"><title>Box_IGameScreenComponent</title>
<polygon fill="#dafcda" stroke="black" points="462.5,-701 462.5,-755 755.5,-755 755.5,-701 462.5,-701"/>
<text text-anchor="middle" x="609" y="-743.8" font-family="Arial" font-size="8.00">IGameScreenComponent</text>
<polyline fill="none" stroke="black" points="462.5,-737 755.5,-737 "/>
<text text-anchor="start" x="470.5" y="-725.8" font-family="Arial" font-size="8.00">+ Index : DisplayLayer</text>
<polyline fill="none" stroke="black" points="462.5,-719 755.5,-719 "/>
<text text-anchor="start" x="470.5" y="-707.8" font-family="Arial" font-size="8.00">+ SubComponents (GameTime time) : IEnumerable&lt;IGameScreenComponent&gt;</text>
</g>
<!-- Box_IGameScreenComponent&#45;&gt;Box_DrawableGameScreenComponent -->
<g id="edge16" class="edge"><title>Box_IGameScreenComponent&#45;&gt;Box_DrawableGameScreenComponent</title>
<path fill="none" stroke="midnightblue" d="M645.433,-694.102C655.91,-684.354 667.469,-673.598 678.425,-663.404"/>
<polygon fill="none" stroke="midnightblue" points="642.956,-691.625 638.019,-700.999 647.725,-696.75 642.956,-691.625"/>
</g>
<!-- Box_XnaDrawableGameComponent -->
<g id="node9" class="node"><title>Box_XnaDrawableGameComponent</title>
<polygon fill="#ffffff" stroke="black" points="676,-802 676,-820 806,-820 806,-802 676,-802"/>
<text text-anchor="middle" x="741" y="-808.8" font-family="Arial" font-size="8.00">Xna.DrawableGameComponent</text>
</g>
<!-- Box_XnaIGameComponent -->
<g id="node10" class="node"><title>Box_XnaIGameComponent</title>
<polygon fill="#ffffff" stroke="black" points="824,-802 824,-820 920,-820 920,-802 824,-802"/>
<text text-anchor="middle" x="872" y="-808.8" font-family="Arial" font-size="8.00">Xna.IGameComponent</text>
</g>
<!-- Box_DrawableGameComponent -->
<g id="node17" class="node"><title>Box_DrawableGameComponent</title>
<polygon fill="none" stroke="black" points="773,-710 773,-746 905,-746 905,-710 773,-710"/>
<text text-anchor="middle" x="839" y="-725.8" font-family="Arial" font-size="8.00">Box_DrawableGameComponent</text>
</g>
<!-- Box_DrawableGameComponent&#45;&gt;Box_DrawableGameScreenComponent -->
<g id="edge14" class="edge"><title>Box_DrawableGameComponent&#45;&gt;Box_DrawableGameScreenComponent</title>
<path fill="none" stroke="midnightblue" d="M811.993,-702.871C799.316,-691.076 783.857,-676.693 769.454,-663.292"/>
<polygon fill="none" stroke="midnightblue" points="809.787,-705.599 819.492,-709.849 814.555,-700.475 809.787,-705.599"/>
</g>
<!-- Box_IGameComponent -->
<g id="node20" class="node"><title>Box_IGameComponent</title>
<polygon fill="none" stroke="black" points="560,-793 560,-829 658,-829 658,-793 560,-793"/>
<text text-anchor="middle" x="609" y="-808.8" font-family="Arial" font-size="8.00">Box_IGameComponent</text>
</g>
<!-- Box_IGameComponent&#45;&gt;Box_IGameScreenComponent -->
<g id="edge18" class="edge"><title>Box_IGameComponent&#45;&gt;Box_IGameScreenComponent</title>
<path fill="none" stroke="midnightblue" d="M609,-782.987C609,-773.995 609,-764.055 609,-755.127"/>
<polygon fill="none" stroke="midnightblue" points="605.5,-782.99 609,-792.99 612.5,-782.99 605.5,-782.99"/>
</g>
</g>
</svg>
