<?xml version="1.0" encoding="UTF-8" standalone="no"?>
<!DOCTYPE svg PUBLIC "-//W3C//DTD SVG 1.1//EN"
 "http://www.w3.org/Graphics/SVG/1.1/DTD/svg11.dtd">
<!-- Generated by graphviz version 2.26.3 (20100126.1600)
 -->
<!-- Title: MenuItem Pages: 1 -->
<svg width="184pt" height="260pt"
 viewBox="0.00 0.00 184.00 260.00" xmlns="http://www.w3.org/2000/svg" xmlns:xlink="http://www.w3.org/1999/xlink">
<g id="graph1" class="graph" transform="scale(1 1) rotate(0) translate(4 256)">
<title>MenuItem</title>
<polygon fill="white" stroke="white" points="-4,5 -4,-256 181,-256 181,5 -4,5"/>
<!-- Box_Node -->
<g id="node1" class="node"><title>Box_Node</title>
<polygon fill="#fcfcda" stroke="black" points="0,-1 0,-195 176,-195 176,-1 0,-1"/>
<text text-anchor="middle" x="88" y="-183.8" font-family="Arial" font-size="8.00">Node</text>
<polyline fill="none" stroke="black" points="0,-177 176,-177 "/>
<text text-anchor="start" x="8" y="-165.8" font-family="Arial" font-size="8.00">+ X : int</text>
<text text-anchor="start" x="8" y="-155.8" font-family="Arial" font-size="8.00">+ Y : int</text>
<text text-anchor="start" x="8" y="-145.8" font-family="Arial" font-size="8.00">+ Z : int</text>
<text text-anchor="start" x="8" y="-135.8" font-family="Arial" font-size="8.00">+ Scale : int static</text>
<polyline fill="none" stroke="black" points="0,-129 176,-129 "/>
<text text-anchor="start" x="8" y="-117.8" font-family="Arial" font-size="8.00">+ GetHashCode () : int</text>
<text text-anchor="start" x="8" y="-107.8" font-family="Arial" font-size="8.00">+ Node (int x, int y, int z) : this()</text>
<text text-anchor="start" x="8" y="-97.8" font-family="Arial" font-size="8.00">+ CenterBetween (Node other) : Vector3</text>
<text text-anchor="start" x="8" y="-87.8" font-family="Arial" font-size="8.00">+ Vector () : Vector3</text>
<text text-anchor="start" x="8" y="-77.8" font-family="Arial" font-size="8.00">+ Equals (Node other) : bool</text>
<text text-anchor="start" x="8" y="-67.8" font-family="Arial" font-size="8.00">+ Clone () : object</text>
<text text-anchor="start" x="8" y="-57.8" font-family="Arial" font-size="8.00">+ Equals (object obj) : bool</text>
<text text-anchor="start" x="8" y="-47.8" font-family="Arial" font-size="8.00">+ ToString () : string</text>
<text text-anchor="start" x="8" y="-37.8" font-family="Arial" font-size="8.00">+ operator (Node a, Vector3 b) : Node static</text>
<text text-anchor="start" x="8" y="-27.8" font-family="Arial" font-size="8.00">&#45; operator (Node a, Node b) : Vector3 static</text>
<text text-anchor="start" x="8" y="-17.8" font-family="Arial" font-size="8.00">+ operator ! (Node a, Node b) : bool static</text>
<text text-anchor="start" x="8" y="-7.8" font-family="Arial" font-size="8.00">+ operator (Node a, Node b) : bool static</text>
</g>
<!-- Box_IEquatable -->
<g id="node2" class="node"><title>Box_IEquatable</title>
<polygon fill="#ffffff" stroke="black" points="5.5,-233 5.5,-251 86.5,-251 86.5,-233 5.5,-233"/>
<text text-anchor="middle" x="46" y="-239.8" font-family="Arial" font-size="8.00">IEquatable&lt;Node&gt;</text>
</g>
<!-- Box_IEquatable&#45;&gt;Box_Node -->
<g id="edge2" class="edge"><title>Box_IEquatable&#45;&gt;Box_Node</title>
<path fill="none" stroke="midnightblue" d="M51.445,-223.331C53.7234,-215.52 56.5577,-205.802 59.6335,-195.257"/>
<polygon fill="none" stroke="midnightblue" points="48.0674,-222.412 48.6273,-232.992 54.7874,-224.372 48.0674,-222.412"/>
</g>
<!-- Box_ICloneable -->
<g id="node3" class="node"><title>Box_ICloneable</title>
<polygon fill="#ffffff" stroke="black" points="103.5,-233 103.5,-251 156.5,-251 156.5,-233 103.5,-233"/>
<text text-anchor="middle" x="130" y="-239.8" font-family="Arial" font-size="8.00">ICloneable</text>
</g>
<!-- Box_ICloneable&#45;&gt;Box_Node -->
<g id="edge4" class="edge"><title>Box_ICloneable&#45;&gt;Box_Node</title>
<path fill="none" stroke="midnightblue" d="M124.555,-223.331C122.277,-215.52 119.442,-205.802 116.367,-195.257"/>
<polygon fill="none" stroke="midnightblue" points="121.213,-224.372 127.373,-232.992 127.933,-222.412 121.213,-224.372"/>
</g>
</g>
</svg>
