<?xml version="1.0" encoding="UTF-8" standalone="no"?>
<!DOCTYPE svg PUBLIC "-//W3C//DTD SVG 1.1//EN"
 "http://www.w3.org/Graphics/SVG/1.1/DTD/svg11.dtd">
<!-- Generated by graphviz version 2.26.3 (20100126.1600)
 -->
<!-- Title: MenuItem Pages: 1 -->
<svg width="2070pt" height="1380pt"
 viewBox="0.00 0.00 2070.00 1380.00" xmlns="http://www.w3.org/2000/svg" xmlns:xlink="http://www.w3.org/1999/xlink">
<g id="graph1" class="graph" transform="scale(1 1) rotate(0) translate(4 1376)">
<title>MenuItem</title>
<polygon fill="white" stroke="white" points="-4,5 -4,-1376 2067,-1376 2067,5 -4,5"/>
<!-- Box_DrawableGameScreenComponent -->
<g id="node1" class="node"><title>Box_DrawableGameScreenComponent</title>
<polygon fill="#fcfcda" stroke="black" points="427.5,-1121 427.5,-1205 744.5,-1205 744.5,-1121 427.5,-1121"/>
<text text-anchor="middle" x="586" y="-1193.8" font-family="Arial" font-size="8.00">DrawableGameScreenComponent</text>
<polyline fill="none" stroke="black" points="427.5,-1187 744.5,-1187 "/>
<text text-anchor="start" x="435.5" y="-1175.8" font-family="Arial" font-size="8.00">+ Index : DisplayLayer</text>
<text text-anchor="start" x="435.5" y="-1165.8" font-family="Arial" font-size="8.00">&#45; _index : DisplayLayer</text>
<text text-anchor="start" x="435.5" y="-1155.8" font-family="Arial" font-size="8.00">+ screen : GameScreen</text>
<polyline fill="none" stroke="black" points="427.5,-1149 744.5,-1149 "/>
<text text-anchor="start" x="435.5" y="-1137.8" font-family="Arial" font-size="8.00">+ DrawableGameScreenComponent (GameScreen screen, DisplayLayer index)</text>
<text text-anchor="start" x="435.5" y="-1127.8" font-family="Arial" font-size="8.00">+ SubComponents (GameTime time) : IEnumerable&lt;IGameScreenComponent&gt; virtual</text>
</g>
<!-- Box_MousePointer -->
<g id="node3" class="node"><title>Box_MousePointer</title>
<polygon fill="#fcfcda" stroke="black" points="-0.5,-914 -0.5,-988 154.5,-988 154.5,-914 -0.5,-914"/>
<text text-anchor="middle" x="77" y="-976.8" font-family="Arial" font-size="8.00">MousePointer</text>
<polyline fill="none" stroke="black" points="-0.5,-970 154.5,-970 "/>
<text text-anchor="start" x="7.5" y="-958.8" font-family="Arial" font-size="8.00">&#45; spriteBatch : SpriteBatch</text>
<polyline fill="none" stroke="black" points="-0.5,-952 154.5,-952 "/>
<text text-anchor="start" x="7.5" y="-940.8" font-family="Arial" font-size="8.00">+ MousePointer (GameScreen screen)</text>
<text text-anchor="start" x="7.5" y="-930.8" font-family="Arial" font-size="8.00">&#45; DrawCursor (GameTime time)</text>
<text text-anchor="start" x="7.5" y="-920.8" font-family="Arial" font-size="8.00">+ Draw (GameTime time)</text>
</g>
<!-- Box_DrawableGameScreenComponent&#45;&gt;Box_MousePointer -->
<g id="edge8" class="edge"><title>Box_DrawableGameScreenComponent&#45;&gt;Box_MousePointer</title>
<path fill="none" stroke="midnightblue" d="M417.197,-1145.21C318.146,-1132.15 204.504,-1111.83 163,-1084 128.516,-1060.87 104.791,-1018.76 91.1312,-988.098"/>
<polygon fill="none" stroke="midnightblue" points="416.979,-1148.71 427.347,-1146.52 417.882,-1141.76 416.979,-1148.71"/>
</g>
<!-- Box_Overlay -->
<g id="node4" class="node"><title>Box_Overlay</title>
<polygon fill="#fcfcda" stroke="black" points="172,-819 172,-1083 474,-1083 474,-819 172,-819"/>
<text text-anchor="middle" x="323" y="-1071.8" font-family="Arial" font-size="8.00">Overlay</text>
<polyline fill="none" stroke="black" points="172,-1065 474,-1065 "/>
<text text-anchor="start" x="180" y="-1053.8" font-family="Arial" font-size="8.00">&#45; effect : BasicEffect</text>
<text text-anchor="start" x="180" y="-1043.8" font-family="Arial" font-size="8.00">&#45; _elapsed_time : float</text>
<text text-anchor="start" x="180" y="-1033.8" font-family="Arial" font-size="8.00">&#45; _fps : int</text>
<text text-anchor="start" x="180" y="-1023.8" font-family="Arial" font-size="8.00">&#45; World : World</text>
<text text-anchor="start" x="180" y="-1013.8" font-family="Arial" font-size="8.00">+ HashtableWrapper : class</text>
<text text-anchor="start" x="180" y="-1003.8" font-family="Arial" font-size="8.00">&#45; _total_frames : int</text>
<text text-anchor="start" x="180" y="-993.8" font-family="Arial" font-size="8.00">&#45; spriteBatch : SpriteBatch</text>
<text text-anchor="start" x="180" y="-983.8" font-family="Arial" font-size="8.00">&#45; font : SpriteFont</text>
<polyline fill="none" stroke="black" points="172,-977 474,-977 "/>
<text text-anchor="start" x="180" y="-965.8" font-family="Arial" font-size="8.00">&#45; profiler () : Hashtable static</text>
<text text-anchor="start" x="180" y="-955.8" font-family="Arial" font-size="8.00">+ Profiler () : HashtableWrapper static</text>
<text text-anchor="start" x="180" y="-945.8" font-family="Arial" font-size="8.00">&#45; DrawFPS (GameTime time)</text>
<text text-anchor="start" x="180" y="-935.8" font-family="Arial" font-size="8.00">&#45; DrawString (float n, int width, int height, Color color)</text>
<text text-anchor="start" x="180" y="-925.8" font-family="Arial" font-size="8.00">&#45; DrawVectorCoordinates (Vector3 vector, int width2, int width3, int width4, int</text>
<text text-anchor="start" x="180" y="-915.8" font-family="Arial" font-size="8.00">height)</text>
<text text-anchor="start" x="180" y="-905.8" font-family="Arial" font-size="8.00">&#45; UpdateFPS (GameTime time)</text>
<text text-anchor="start" x="180" y="-895.8" font-family="Arial" font-size="8.00">+ Overlay (GameScreen screen, World world)</text>
<text text-anchor="start" x="180" y="-885.8" font-family="Arial" font-size="8.00">+ Draw (GameTime time)</text>
<text text-anchor="start" x="180" y="-875.8" font-family="Arial" font-size="8.00">&#45; DrawCoordinates (GameTime time)</text>
<text text-anchor="start" x="180" y="-865.8" font-family="Arial" font-size="8.00">&#45; DrawOverlay (GameTime time)</text>
<text text-anchor="start" x="180" y="-855.8" font-family="Arial" font-size="8.00">&#45; DrawProfiler (GameTime time)</text>
<text text-anchor="start" x="180" y="-845.8" font-family="Arial" font-size="8.00">&#45; DrawString (string str, int width, int height, Color color)</text>
<text text-anchor="start" x="180" y="-835.8" font-family="Arial" font-size="8.00"># LoadContent ()</text>
<text text-anchor="start" x="180" y="-825.8" font-family="Arial" font-size="8.00">+ Update (GameTime time)</text>
</g>
<!-- Box_DrawableGameScreenComponent&#45;&gt;Box_Overlay -->
<g id="edge10" class="edge"><title>Box_DrawableGameScreenComponent&#45;&gt;Box_Overlay</title>
<path fill="none" stroke="midnightblue" d="M522.308,-1114.77C509.234,-1104.7 495.614,-1094.07 483,-1084 480.036,-1081.63 477.047,-1079.24 474.038,-1076.82"/>
<polygon fill="none" stroke="midnightblue" points="520.303,-1117.64 530.365,-1120.96 524.569,-1112.09 520.303,-1117.64"/>
</g>
<!-- Box_World -->
<g id="node5" class="node"><title>Box_World</title>
<polygon fill="#fcfcda" stroke="black" points="1009.5,-834 1009.5,-1068 1302.5,-1068 1302.5,-834 1009.5,-834"/>
<text text-anchor="middle" x="1156" y="-1056.8" font-family="Arial" font-size="8.00">World</text>
<polyline fill="none" stroke="black" points="1009.5,-1050 1302.5,-1050 "/>
<text text-anchor="start" x="1017.5" y="-1038.8" font-family="Arial" font-size="8.00">&#45; currentEffect : IRenderEffect</text>
<text text-anchor="start" x="1017.5" y="-1028.8" font-family="Arial" font-size="8.00">&#45; _redraw : bool</text>
<text text-anchor="start" x="1017.5" y="-1018.8" font-family="Arial" font-size="8.00">+ SelectedObject : IGameObject</text>
<text text-anchor="start" x="1017.5" y="-1008.8" font-family="Arial" font-size="8.00">+ Objects : List&lt;IGameObject&gt;</text>
<text text-anchor="start" x="1017.5" y="-998.8" font-family="Arial" font-size="8.00">+ Redraw : bool</text>
<text text-anchor="start" x="1017.5" y="-988.8" font-family="Arial" font-size="8.00">&#45; _selectedObject : IGameObject</text>
<text text-anchor="start" x="1017.5" y="-978.8" font-family="Arial" font-size="8.00">&#45; effects : List&lt;IRenderEffect&gt;</text>
<text text-anchor="start" x="1017.5" y="-968.8" font-family="Arial" font-size="8.00">&#45; floor : TexturedRectangle</text>
<text text-anchor="start" x="1017.5" y="-958.8" font-family="Arial" font-size="8.00">+ Camera : Camera</text>
<polyline fill="none" stroke="black" points="1009.5,-952 1302.5,-952 "/>
<text text-anchor="start" x="1017.5" y="-940.8" font-family="Arial" font-size="8.00">+ SelectionChanged (o) : Action&lt;IGameObject&gt;</text>
<text text-anchor="start" x="1017.5" y="-930.8" font-family="Arial" font-size="8.00">&#45; IEnumerable.GetEnumerator () : IEnumerator</text>
<text text-anchor="start" x="1017.5" y="-920.8" font-family="Arial" font-size="8.00">+ World (GameScreen screen)</text>
<text text-anchor="start" x="1017.5" y="-910.8" font-family="Arial" font-size="8.00">+ SelectedObjectDistance () : float</text>
<text text-anchor="start" x="1017.5" y="-900.8" font-family="Arial" font-size="8.00">+ SubComponents (GameTime time) : IEnumerable&lt;IGameScreenComponent&gt;</text>
<text text-anchor="start" x="1017.5" y="-890.8" font-family="Arial" font-size="8.00">+ Draw (GameTime time)</text>
<text text-anchor="start" x="1017.5" y="-880.8" font-family="Arial" font-size="8.00">+ Update (GameTime time)</text>
<text text-anchor="start" x="1017.5" y="-870.8" font-family="Arial" font-size="8.00">+ Add (IGameObject obj)</text>
<text text-anchor="start" x="1017.5" y="-860.8" font-family="Arial" font-size="8.00">+ GetEnumerator () : IEnumerator&lt;IGameObject&gt;</text>
<text text-anchor="start" x="1017.5" y="-850.8" font-family="Arial" font-size="8.00">+ Initialize ()</text>
<text text-anchor="start" x="1017.5" y="-840.8" font-family="Arial" font-size="8.00">+ SelectObject (IGameObject obj, GameTime time)</text>
</g>
<!-- Box_DrawableGameScreenComponent&#45;&gt;Box_World -->
<g id="edge12" class="edge"><title>Box_DrawableGameScreenComponent&#45;&gt;Box_World</title>
<path fill="none" stroke="midnightblue" d="M754.745,-1139.87C849.679,-1125.11 957.638,-1104.87 1001,-1084 1010.58,-1079.39 1020.05,-1074.03 1029.3,-1068.16"/>
<polygon fill="none" stroke="midnightblue" points="754.068,-1136.43 744.719,-1141.42 755.135,-1143.35 754.068,-1136.43"/>
</g>
<!-- Box_Widget -->
<g id="node6" class="node"><title>Box_Widget</title>
<polygon fill="#fcfcda" stroke="black" points="708,-914 708,-988 992,-988 992,-914 708,-914"/>
<text text-anchor="middle" x="850" y="-976.8" font-family="Arial" font-size="8.00">Widget</text>
<polyline fill="none" stroke="black" points="708,-970 992,-970 "/>
<text text-anchor="start" x="716" y="-958.8" font-family="Arial" font-size="8.00">+ Info : WidgetInfo</text>
<text text-anchor="start" x="716" y="-948.8" font-family="Arial" font-size="8.00">+ IsVisible : bool virtual</text>
<polyline fill="none" stroke="black" points="708,-942 992,-942 "/>
<text text-anchor="start" x="716" y="-930.8" font-family="Arial" font-size="8.00">+ bounds () : Rectangle</text>
<text text-anchor="start" x="716" y="-920.8" font-family="Arial" font-size="8.00">+ Widget (GameScreen screen, WidgetInfo info, DisplayLayer drawOrder)</text>
</g>
<!-- Box_DrawableGameScreenComponent&#45;&gt;Box_Widget -->
<g id="edge16" class="edge"><title>Box_DrawableGameScreenComponent&#45;&gt;Box_Widget</title>
<path fill="none" stroke="midnightblue" d="M655.419,-1115.16C669.37,-1105.11 683.796,-1094.4 697,-1084 736.265,-1053.08 779.045,-1015.54 809.36,-988.239"/>
<polygon fill="none" stroke="midnightblue" points="653.364,-1112.33 647.272,-1120.99 657.44,-1118.02 653.364,-1112.33"/>
</g>
<!-- Box_IGameScreenComponent -->
<g id="node2" class="node"><title>Box_IGameScreenComponent</title>
<polygon fill="#dafcda" stroke="black" points="324.5,-1243 324.5,-1297 617.5,-1297 617.5,-1243 324.5,-1243"/>
<text text-anchor="middle" x="471" y="-1285.8" font-family="Arial" font-size="8.00">IGameScreenComponent</text>
<polyline fill="none" stroke="black" points="324.5,-1279 617.5,-1279 "/>
<text text-anchor="start" x="332.5" y="-1267.8" font-family="Arial" font-size="8.00">+ Index : DisplayLayer</text>
<polyline fill="none" stroke="black" points="324.5,-1261 617.5,-1261 "/>
<text text-anchor="start" x="332.5" y="-1249.8" font-family="Arial" font-size="8.00">+ SubComponents (GameTime time) : IEnumerable&lt;IGameScreenComponent&gt;</text>
</g>
<!-- Box_IGameScreenComponent&#45;&gt;Box_DrawableGameScreenComponent -->
<g id="edge4" class="edge"><title>Box_IGameScreenComponent&#45;&gt;Box_DrawableGameScreenComponent</title>
<path fill="none" stroke="midnightblue" d="M507.433,-1236.1C517.91,-1226.35 529.469,-1215.6 540.425,-1205.4"/>
<polygon fill="none" stroke="midnightblue" points="504.956,-1233.63 500.019,-1243 509.725,-1238.75 504.956,-1233.63"/>
</g>
<!-- Box_ColorPicker -->
<g id="node7" class="node"><title>Box_ColorPicker</title>
<polygon fill="#fcfcda" stroke="black" points="386,-567 386,-751 686,-751 686,-567 386,-567"/>
<text text-anchor="middle" x="536" y="-739.8" font-family="Arial" font-size="8.00">ColorPicker</text>
<polyline fill="none" stroke="black" points="386,-733 686,-733 "/>
<text text-anchor="start" x="394" y="-721.8" font-family="Arial" font-size="8.00">&#45; tiles : List&lt;Vector2&gt;</text>
<text text-anchor="start" x="394" y="-711.8" font-family="Arial" font-size="8.00">+ SelectedColor : Color</text>
<text text-anchor="start" x="394" y="-701.8" font-family="Arial" font-size="8.00">+ IsMouseEventEnabled : bool</text>
<text text-anchor="start" x="394" y="-691.8" font-family="Arial" font-size="8.00">&#45; colors : List&lt;Color&gt;</text>
<text text-anchor="start" x="394" y="-681.8" font-family="Arial" font-size="8.00"># spriteBatch : SpriteBatch</text>
<text text-anchor="start" x="394" y="-671.8" font-family="Arial" font-size="8.00">+ OnSelectColor : Action&lt;Color&gt;</text>
<polyline fill="none" stroke="black" points="386,-665 686,-665 "/>
<text text-anchor="start" x="394" y="-653.8" font-family="Arial" font-size="8.00">&#45; Vector2 tileSize (0.032f, 0.032f) : readonly static</text>
<text text-anchor="start" x="394" y="-643.8" font-family="Arial" font-size="8.00">&#45; CreateTiles (IEnumerable&lt;Color&gt; _colors) : IEnumerable&lt;Vector2&gt; static</text>
<text text-anchor="start" x="394" y="-633.8" font-family="Arial" font-size="8.00">+ ColorPicker (GameScreen screen, WidgetInfo info, DisplayLayer drawOrder)</text>
<text text-anchor="start" x="394" y="-623.8" font-family="Arial" font-size="8.00">+ Draw (GameTime time)</text>
<text text-anchor="start" x="394" y="-613.8" font-family="Arial" font-size="8.00">+ OnRightClick (Vector2 position, ClickState click, GameTime time)</text>
<text text-anchor="start" x="394" y="-603.8" font-family="Arial" font-size="8.00">+ SetHovered (bool hovered)</text>
<text text-anchor="start" x="394" y="-593.8" font-family="Arial" font-size="8.00">&#45; CreateColors (int num) : IEnumerable&lt;Color&gt; static</text>
<text text-anchor="start" x="394" y="-583.8" font-family="Arial" font-size="8.00">&#45; SelectColor (Color color)</text>
<text text-anchor="start" x="394" y="-573.8" font-family="Arial" font-size="8.00">+ OnLeftClick (Vector2 position, ClickState click, GameTime time)</text>
</g>
<!-- Box_Widget&#45;&gt;Box_ColorPicker -->
<g id="edge18" class="edge"><title>Box_Widget&#45;&gt;Box_ColorPicker</title>
<path fill="none" stroke="midnightblue" d="M802.48,-906.809C758.28,-865.707 691.029,-803.167 635.147,-751.2"/>
<polygon fill="none" stroke="midnightblue" points="800.206,-909.475 809.913,-913.721 804.973,-904.348 800.206,-909.475"/>
</g>
<!-- Box_Dialog -->
<g id="node8" class="node"><title>Box_Dialog</title>
<polygon fill="#fcfcda" stroke="black" points="1375.5,-587 1375.5,-731 1668.5,-731 1668.5,-587 1375.5,-587"/>
<text text-anchor="middle" x="1522" y="-719.8" font-family="Arial" font-size="8.00">Dialog</text>
<polyline fill="none" stroke="black" points="1375.5,-713 1668.5,-713 "/>
<text text-anchor="start" x="1383.5" y="-701.8" font-family="Arial" font-size="8.00"># spriteBatch : SpriteBatch</text>
<text text-anchor="start" x="1383.5" y="-691.8" font-family="Arial" font-size="8.00">+ Done : Action</text>
<text text-anchor="start" x="1383.5" y="-681.8" font-family="Arial" font-size="8.00">+ buttons : Menu</text>
<polyline fill="none" stroke="black" points="1375.5,-675 1668.5,-675 "/>
<text text-anchor="start" x="1383.5" y="-663.8" font-family="Arial" font-size="8.00">&#45; ButtonBackgroundColor (ItemState itemState) : Color</text>
<text text-anchor="start" x="1383.5" y="-653.8" font-family="Arial" font-size="8.00"># RelativeButtonSize (int n) : Vector2</text>
<text text-anchor="start" x="1383.5" y="-643.8" font-family="Arial" font-size="8.00">+ Dialog (GameScreen screen, WidgetInfo info, DisplayLayer drawOrder)</text>
<text text-anchor="start" x="1383.5" y="-633.8" font-family="Arial" font-size="8.00">&#45; ButtonForegroundColor (ItemState itemState) : Color</text>
<text text-anchor="start" x="1383.5" y="-623.8" font-family="Arial" font-size="8.00"># RelativeButtonPosition (int n) : Vector2</text>
<text text-anchor="start" x="1383.5" y="-613.8" font-family="Arial" font-size="8.00"># DrawDialog (GameTime time) abstract</text>
<text text-anchor="start" x="1383.5" y="-603.8" font-family="Arial" font-size="8.00">+ SubComponents (GameTime time) : IEnumerable&lt;IGameScreenComponent&gt;</text>
<text text-anchor="start" x="1383.5" y="-593.8" font-family="Arial" font-size="8.00">+ Draw (GameTime time)</text>
</g>
<!-- Box_Widget&#45;&gt;Box_Dialog -->
<g id="edge22" class="edge"><title>Box_Widget&#45;&gt;Box_Dialog</title>
<path fill="none" stroke="midnightblue" d="M886.936,-906.216C914.849,-875.765 955.959,-837.58 1001,-818 1150.9,-752.836 1215.48,-843.298 1367,-782 1396.3,-770.148 1424.56,-750.929 1448.74,-731.168"/>
<polygon fill="none" stroke="midnightblue" points="884.22,-904.001 880.13,-913.775 889.422,-908.685 884.22,-904.001"/>
</g>
<!-- Box_Menu -->
<g id="node12" class="node"><title>Box_Menu</title>
<polygon fill="#fcfcda" stroke="black" points="1690,-537 1690,-781 2060,-781 2060,-537 1690,-537"/>
<text text-anchor="middle" x="1875" y="-769.8" font-family="Arial" font-size="8.00">Menu</text>
<polyline fill="none" stroke="black" points="1690,-763 2060,-763 "/>
<text text-anchor="start" x="1698" y="-751.8" font-family="Arial" font-size="8.00">&#45; isVisible : bool</text>
<text text-anchor="start" x="1698" y="-741.8" font-family="Arial" font-size="8.00"># Items : List&lt;MenuItem&gt;</text>
<text text-anchor="start" x="1698" y="-731.8" font-family="Arial" font-size="8.00">+ Color&gt; ItemBackgroundColor : Func&lt;ItemState,</text>
<text text-anchor="start" x="1698" y="-721.8" font-family="Arial" font-size="8.00">+ Color&gt; ItemForegroundColor : Func&lt;ItemState,</text>
<text text-anchor="start" x="1698" y="-711.8" font-family="Arial" font-size="8.00">+ Vector2&gt; RelativeItemPosition : Func&lt;int,</text>
<text text-anchor="start" x="1698" y="-701.8" font-family="Arial" font-size="8.00">+ ItemAlignX : HAlign?</text>
<text text-anchor="start" x="1698" y="-691.8" font-family="Arial" font-size="8.00">+ ItemAlignY : VAlign?</text>
<text text-anchor="start" x="1698" y="-681.8" font-family="Arial" font-size="8.00">+ Count : int</text>
<text text-anchor="start" x="1698" y="-671.8" font-family="Arial" font-size="8.00">+ IsVisible : bool</text>
<text text-anchor="start" x="1698" y="-661.8" font-family="Arial" font-size="8.00">&#45; ItemDisplayLayer : DisplayLayer</text>
<text text-anchor="start" x="1698" y="-651.8" font-family="Arial" font-size="8.00">+ Vector2&gt; RelativeItemSize : Func&lt;int,</text>
<polyline fill="none" stroke="black" points="1690,-645 2060,-645 "/>
<text text-anchor="start" x="1698" y="-633.8" font-family="Arial" font-size="8.00">&#45; assignMenuItemInfo (ref MenuItemInfo info, int num, MenuItem item)</text>
<text text-anchor="start" x="1698" y="-623.8" font-family="Arial" font-size="8.00">+ Menu (GameScreen screen, WidgetInfo info, DisplayLayer drawOrder)</text>
<text text-anchor="start" x="1698" y="-613.8" font-family="Arial" font-size="8.00">+ this (int i) : MenuItem</text>
<text text-anchor="start" x="1698" y="-603.8" font-family="Arial" font-size="8.00">+ SubComponents (GameTime time) : IEnumerable&lt;IGameScreenComponent&gt;</text>
<text text-anchor="start" x="1698" y="-593.8" font-family="Arial" font-size="8.00">+ CollapseMenus (MenuItem menu)</text>
<text text-anchor="start" x="1698" y="-583.8" font-family="Arial" font-size="8.00">+ AddButton (MenuItemInfo info) : MenuButton virtual</text>
<text text-anchor="start" x="1698" y="-573.8" font-family="Arial" font-size="8.00">+ AddDropDown (MenuItemInfo info, DistinctOptionInfo option) virtual</text>
<text text-anchor="start" x="1698" y="-563.8" font-family="Arial" font-size="8.00">+ AddDropDown (MenuItemInfo info, DropDownMenuItem[] items, DropDownMenuItem defaultItem)</text>
<text text-anchor="start" x="1698" y="-553.8" font-family="Arial" font-size="8.00">virtual</text>
<text text-anchor="start" x="1698" y="-543.8" font-family="Arial" font-size="8.00">+ Clear ()</text>
</g>
<!-- Box_Widget&#45;&gt;Box_Menu -->
<g id="edge30" class="edge"><title>Box_Widget&#45;&gt;Box_Menu</title>
<path fill="none" stroke="midnightblue" d="M886.131,-906.201C913.925,-875.353 955.233,-836.687 1001,-818 1140.27,-761.133 1533.49,-827.108 1677,-782 1681.25,-780.665 1685.49,-779.218 1689.73,-777.671"/>
<polygon fill="none" stroke="midnightblue" points="883.362,-904.048 879.361,-913.858 888.607,-908.685 883.362,-904.048"/>
</g>
<!-- Box_TextInput -->
<g id="node14" class="node"><title>Box_TextInput</title>
<polygon fill="#fcfcda" stroke="black" points="704,-597 704,-721 996,-721 996,-597 704,-597"/>
<text text-anchor="middle" x="850" y="-709.8" font-family="Arial" font-size="8.00">TextInput</text>
<polyline fill="none" stroke="black" points="704,-703 996,-703 "/>
<text text-anchor="start" x="712" y="-691.8" font-family="Arial" font-size="8.00">&#45; font : SpriteFont</text>
<text text-anchor="start" x="712" y="-681.8" font-family="Arial" font-size="8.00"># spriteBatch : SpriteBatch</text>
<text text-anchor="start" x="712" y="-671.8" font-family="Arial" font-size="8.00">+ IsKeyEventEnabled : bool</text>
<text text-anchor="start" x="712" y="-661.8" font-family="Arial" font-size="8.00">+ ValidKeys : List&lt;Keys&gt;</text>
<text text-anchor="start" x="712" y="-651.8" font-family="Arial" font-size="8.00">+ InputText : string</text>
<polyline fill="none" stroke="black" points="704,-645 996,-645 "/>
<text text-anchor="start" x="712" y="-633.8" font-family="Arial" font-size="8.00">+ TextInput (GameScreen screen, WidgetInfo info, DisplayLayer drawOrder)</text>
<text text-anchor="start" x="712" y="-623.8" font-family="Arial" font-size="8.00">+ Draw (GameTime time)</text>
<text text-anchor="start" x="712" y="-613.8" font-family="Arial" font-size="8.00">+ OnKeyEvent (List&lt;Keys&gt; key, KeyEvent keyEvent, GameTime time)</text>
<text text-anchor="start" x="712" y="-603.8" font-family="Arial" font-size="8.00">+ Update (GameTime time)</text>
</g>
<!-- Box_Widget&#45;&gt;Box_TextInput -->
<g id="edge34" class="edge"><title>Box_Widget&#45;&gt;Box_TextInput</title>
<path fill="none" stroke="midnightblue" d="M850,-903.571C850,-853.882 850,-775.614 850,-721.046"/>
<polygon fill="none" stroke="midnightblue" points="846.5,-903.721 850,-913.721 853.5,-903.721 846.5,-903.721"/>
</g>
<!-- Box_ItemWidget -->
<g id="node15" class="node"><title>Box_ItemWidget</title>
<polygon fill="#fcfcda" stroke="black" points="1014,-622.5 1014,-695.5 1358,-695.5 1358,-622.5 1014,-622.5"/>
<text text-anchor="middle" x="1186" y="-684.3" font-family="Arial" font-size="8.00">ItemWidget</text>
<polyline fill="none" stroke="black" points="1014,-677.5 1358,-677.5 "/>
<text text-anchor="start" x="1022" y="-666.3" font-family="Arial" font-size="8.00">+ ItemState : ItemState</text>
<text text-anchor="start" x="1022" y="-656.3" font-family="Arial" font-size="8.00"># ItemNum : int</text>
<polyline fill="none" stroke="black" points="1014,-649.5 1358,-649.5 "/>
<text text-anchor="start" x="1022" y="-638.3" font-family="Arial" font-size="8.00">+ ItemWidget (GameScreen screen, WidgetInfo info, DisplayLayer drawOrder, int itemNum)</text>
</g>
<!-- Box_Widget&#45;&gt;Box_ItemWidget -->
<g id="edge38" class="edge"><title>Box_Widget&#45;&gt;Box_ItemWidget</title>
<path fill="none" stroke="midnightblue" d="M899.531,-907.104C928.941,-881.108 967.009,-847.575 1001,-818 1049.4,-775.885 1105.31,-727.932 1142.88,-695.8"/>
<polygon fill="none" stroke="midnightblue" points="897.036,-904.638 891.863,-913.885 901.673,-909.882 897.036,-904.638"/>
</g>
<!-- Box_ConfirmDialog -->
<g id="node9" class="node"><title>Box_ConfirmDialog</title>
<polygon fill="#fcfcda" stroke="black" points="1365.5,-350 1365.5,-454 1674.5,-454 1674.5,-350 1365.5,-350"/>
<text text-anchor="middle" x="1520" y="-442.8" font-family="Arial" font-size="8.00">ConfirmDialog</text>
<polyline fill="none" stroke="black" points="1365.5,-436 1674.5,-436 "/>
<text text-anchor="start" x="1373.5" y="-424.8" font-family="Arial" font-size="8.00"># CanClose : bool</text>
<text text-anchor="start" x="1373.5" y="-414.8" font-family="Arial" font-size="8.00"># Text : string[]</text>
<polyline fill="none" stroke="black" points="1365.5,-408 1674.5,-408 "/>
<text text-anchor="start" x="1373.5" y="-396.8" font-family="Arial" font-size="8.00"># OnYesClick () : Action</text>
<text text-anchor="start" x="1373.5" y="-386.8" font-family="Arial" font-size="8.00"># OnCancelClick () : Action</text>
<text text-anchor="start" x="1373.5" y="-376.8" font-family="Arial" font-size="8.00"># OnNoClick () : Action</text>
<text text-anchor="start" x="1373.5" y="-366.8" font-family="Arial" font-size="8.00"># DrawDialog (GameTime time)</text>
<text text-anchor="start" x="1373.5" y="-356.8" font-family="Arial" font-size="8.00">+ ConfirmDialog (GameScreen screen, WidgetInfo info, DisplayLayer drawOrder)</text>
</g>
<!-- Box_Dialog&#45;&gt;Box_ConfirmDialog -->
<g id="edge24" class="edge"><title>Box_Dialog&#45;&gt;Box_ConfirmDialog</title>
<path fill="none" stroke="midnightblue" d="M1521.36,-576.672C1521.05,-536.489 1520.68,-489.358 1520.41,-454.187"/>
<polygon fill="none" stroke="midnightblue" points="1517.86,-576.755 1521.44,-586.727 1524.86,-576.7 1517.86,-576.755"/>
</g>
<!-- Box_TextInputDialog -->
<g id="node10" class="node"><title>Box_TextInputDialog</title>
<polygon fill="#fcfcda" stroke="black" points="1363,-143 1363,-227 1677,-227 1677,-143 1363,-143"/>
<text text-anchor="middle" x="1520" y="-215.8" font-family="Arial" font-size="8.00">TextInputDialog</text>
<polyline fill="none" stroke="black" points="1363,-209 1677,-209 "/>
<text text-anchor="start" x="1371" y="-197.8" font-family="Arial" font-size="8.00"># TextInput : TextInput</text>
<polyline fill="none" stroke="black" points="1363,-191 1677,-191 "/>
<text text-anchor="start" x="1371" y="-179.8" font-family="Arial" font-size="8.00"># TextInputSize () : Vector2</text>
<text text-anchor="start" x="1371" y="-169.8" font-family="Arial" font-size="8.00">+ TextInputDialog (GameScreen screen, WidgetInfo info, DisplayLayer drawOrder)</text>
<text text-anchor="start" x="1371" y="-159.8" font-family="Arial" font-size="8.00"># TextInputPosition () : Vector2</text>
<text text-anchor="start" x="1371" y="-149.8" font-family="Arial" font-size="8.00">+ SubComponents (GameTime time) : IEnumerable&lt;IGameScreenComponent&gt;</text>
</g>
<!-- Box_ConfirmDialog&#45;&gt;Box_TextInputDialog -->
<g id="edge26" class="edge"><title>Box_ConfirmDialog&#45;&gt;Box_TextInputDialog</title>
<path fill="none" stroke="midnightblue" d="M1520,-339.36C1520,-303.405 1520,-259.217 1520,-227.345"/>
<polygon fill="none" stroke="midnightblue" points="1516.5,-339.747 1520,-349.747 1523.5,-339.747 1516.5,-339.747"/>
</g>
<!-- Box_KnotSaveConfirmDialog -->
<g id="node11" class="node"><title>Box_KnotSaveConfirmDialog</title>
<polygon fill="#fcfcda" stroke="black" points="1348,-1 1348,-65 1692,-65 1692,-1 1348,-1"/>
<text text-anchor="middle" x="1520" y="-53.8" font-family="Arial" font-size="8.00">KnotSaveConfirmDialog</text>
<polyline fill="none" stroke="black" points="1348,-47 1692,-47 "/>
<text text-anchor="middle" x="1520" y="-35.8" font-family="Arial" font-size="8.00"> </text>
<polyline fill="none" stroke="black" points="1348,-29 1692,-29 "/>
<text text-anchor="start" x="1356" y="-17.8" font-family="Arial" font-size="8.00">+ KnotSaveConfirmDialog (GameScreen screen, WidgetInfo info, DisplayLayer drawOrder,</text>
<text text-anchor="start" x="1356" y="-7.8" font-family="Arial" font-size="8.00">Knot knot)</text>
</g>
<!-- Box_TextInputDialog&#45;&gt;Box_KnotSaveConfirmDialog -->
<g id="edge28" class="edge"><title>Box_TextInputDialog&#45;&gt;Box_KnotSaveConfirmDialog</title>
<path fill="none" stroke="midnightblue" d="M1520,-132.654C1520,-110.345 1520,-85.016 1520,-65.4767"/>
<polygon fill="none" stroke="midnightblue" points="1516.5,-132.659 1520,-142.66 1523.5,-132.66 1516.5,-132.659"/>
</g>
<!-- Box_VerticalMenu -->
<g id="node13" class="node"><title>Box_VerticalMenu</title>
<polygon fill="#fcfcda" stroke="black" points="1692,-335.5 1692,-468.5 2062,-468.5 2062,-335.5 1692,-335.5"/>
<text text-anchor="middle" x="1877" y="-457.3" font-family="Arial" font-size="8.00">VerticalMenu</text>
<polyline fill="none" stroke="black" points="1692,-450.5 2062,-450.5 "/>
<text text-anchor="start" x="1700" y="-439.3" font-family="Arial" font-size="8.00"># spriteBatch : SpriteBatch</text>
<text text-anchor="start" x="1700" y="-429.3" font-family="Arial" font-size="8.00">+ Border : Border</text>
<polyline fill="none" stroke="black" points="1692,-422.5 2062,-422.5 "/>
<text text-anchor="start" x="1700" y="-411.3" font-family="Arial" font-size="8.00">+ VerticalMenu (GameScreen screen, WidgetInfo info, DisplayLayer drawOrder)</text>
<text text-anchor="start" x="1700" y="-401.3" font-family="Arial" font-size="8.00">+ Align (Viewport viewport, float scale, int posX, int posY, int? sizeX)</text>
<text text-anchor="start" x="1700" y="-391.3" font-family="Arial" font-size="8.00">+ AddButton (MenuItemInfo info) : MenuButton</text>
<text text-anchor="start" x="1700" y="-381.3" font-family="Arial" font-size="8.00">+ AddDropDown (MenuItemInfo info, DistinctOptionInfo option)</text>
<text text-anchor="start" x="1700" y="-371.3" font-family="Arial" font-size="8.00">+ AddDropDown (MenuItemInfo info, DropDownMenuItem[] items, DropDownMenuItem defaultItem)</text>
<text text-anchor="start" x="1700" y="-352.3" font-family="Arial" font-size="8.00">+ Draw (GameTime time)</text>
<text text-anchor="start" x="1700" y="-342.3" font-family="Arial" font-size="8.00">+ Align (Viewport viewport, float scale, Vector2? givenPosition)</text>
</g>
<!-- Box_Menu&#45;&gt;Box_VerticalMenu -->
<g id="edge32" class="edge"><title>Box_Menu&#45;&gt;Box_VerticalMenu</title>
<path fill="none" stroke="midnightblue" d="M1876.03,-526.669C1876.19,-506.49 1876.34,-486.438 1876.48,-468.504"/>
<polygon fill="none" stroke="midnightblue" points="1872.53,-526.871 1875.95,-536.898 1879.53,-526.925 1872.53,-526.871"/>
</g>
<!-- Box_MenuItem -->
<g id="node16" class="node"><title>Box_MenuItem</title>
<polygon fill="#fcfcda" stroke="black" points="193.5,-305 193.5,-499 522.5,-499 522.5,-305 193.5,-305"/>
<text text-anchor="middle" x="358" y="-487.8" font-family="Arial" font-size="8.00">MenuItem</text>
<polyline fill="none" stroke="black" points="193.5,-481 522.5,-481 "/>
<text text-anchor="start" x="201.5" y="-469.8" font-family="Arial" font-size="8.00"># spriteBatch : SpriteBatch</text>
<text text-anchor="start" x="201.5" y="-459.8" font-family="Arial" font-size="8.00">+ IsMouseEventEnabled : bool</text>
<text text-anchor="start" x="201.5" y="-449.8" font-family="Arial" font-size="8.00">+ ValidKeys : List&lt;Keys&gt;</text>
<text text-anchor="start" x="201.5" y="-439.8" font-family="Arial" font-size="8.00">+ IsKeyEventEnabled : bool</text>
<text text-anchor="start" x="201.5" y="-429.8" font-family="Arial" font-size="8.00">+ Info : MenuItemInfo</text>
<polyline fill="none" stroke="black" points="193.5,-423 522.5,-423 "/>
<text text-anchor="start" x="201.5" y="-411.8" font-family="Arial" font-size="8.00">+ MenuItem (GameScreen screen, DisplayLayer drawOrder, int itemNum, MenuItemInfo</text>
<text text-anchor="start" x="201.5" y="-401.8" font-family="Arial" font-size="8.00">info)</text>
<text text-anchor="start" x="201.5" y="-391.8" font-family="Arial" font-size="8.00">+ Collapse () virtual</text>
<text text-anchor="start" x="201.5" y="-381.8" font-family="Arial" font-size="8.00">+ OnKeyEvent (List&lt;Keys&gt; key, KeyEvent keyEvent, GameTime time)</text>
<text text-anchor="start" x="201.5" y="-371.8" font-family="Arial" font-size="8.00">+ OnLeftClick (Vector2 position, ClickState click, GameTime time)</text>
<text text-anchor="start" x="201.5" y="-361.8" font-family="Arial" font-size="8.00">+ OnRightClick (Vector2 position, ClickState click, GameTime time)</text>
<text text-anchor="start" x="201.5" y="-351.8" font-family="Arial" font-size="8.00">+ MinimumSize (SpriteFont font) : Vector2</text>
<text text-anchor="start" x="201.5" y="-341.8" font-family="Arial" font-size="8.00">+ TextPosition (SpriteFont font) : Vector2</text>
<text text-anchor="start" x="201.5" y="-331.8" font-family="Arial" font-size="8.00">+ TextPosition (SpriteFont font, Vector2 scale) : Vector2</text>
<text text-anchor="start" x="201.5" y="-321.8" font-family="Arial" font-size="8.00">+ Draw (GameTime time)</text>
<text text-anchor="start" x="201.5" y="-311.8" font-family="Arial" font-size="8.00">+ SetHovered (bool hovered)</text>
</g>
<!-- Box_ItemWidget&#45;&gt;Box_MenuItem -->
<g id="edge40" class="edge"><title>Box_ItemWidget&#45;&gt;Box_MenuItem</title>
<path fill="none" stroke="midnightblue" d="M1134.7,-616.041C1100.1,-589.191 1052.29,-556.024 1005,-536 848.667,-469.802 656.848,-435.359 522.825,-418.079"/>
<polygon fill="none" stroke="midnightblue" points="1132.73,-618.946 1142.76,-622.367 1137.05,-613.44 1132.73,-618.946"/>
</g>
<!-- Box_DropDownMenu -->
<g id="node17" class="node"><title>Box_DropDownMenu</title>
<polygon fill="#fcfcda" stroke="black" points="0.5,-103 0.5,-267 353.5,-267 353.5,-103 0.5,-103"/>
<text text-anchor="middle" x="177" y="-255.8" font-family="Arial" font-size="8.00">DropDownMenu</text>
<polyline fill="none" stroke="black" points="0.5,-249 353.5,-249 "/>
<text text-anchor="start" x="8.5" y="-237.8" font-family="Arial" font-size="8.00">&#45; selected : MenuButton</text>
<text text-anchor="start" x="8.5" y="-227.8" font-family="Arial" font-size="8.00">&#45; dropdown : VerticalMenu</text>
<polyline fill="none" stroke="black" points="0.5,-221 353.5,-221 "/>
<text text-anchor="start" x="8.5" y="-209.8" font-family="Arial" font-size="8.00">&#45; ValuePosition (int dummy) : Vector2</text>
<text text-anchor="start" x="8.5" y="-199.8" font-family="Arial" font-size="8.00">+ DropDownMenu (GameScreen screen, DisplayLayer drawOrder, int itemNum, MenuItemInfo</text>
<text text-anchor="start" x="8.5" y="-189.8" font-family="Arial" font-size="8.00">info)</text>
<text text-anchor="start" x="8.5" y="-179.8" font-family="Arial" font-size="8.00">&#45; DropDownBackgroundColor (ItemState itemState) : Color</text>
<text text-anchor="start" x="8.5" y="-169.8" font-family="Arial" font-size="8.00">&#45; DropDownForegroundColor (ItemState itemState) : Color</text>
<text text-anchor="start" x="8.5" y="-159.8" font-family="Arial" font-size="8.00">&#45; ValueSize (int dummy) : Vector2</text>
<text text-anchor="start" x="8.5" y="-149.8" font-family="Arial" font-size="8.00">+ SubComponents (GameTime time) : IEnumerable&lt;IGameScreenComponent&gt;</text>
<text text-anchor="start" x="8.5" y="-139.8" font-family="Arial" font-size="8.00">+ Collapse ()</text>
<text text-anchor="start" x="8.5" y="-129.8" font-family="Arial" font-size="8.00">+ Draw (GameTime time)</text>
<text text-anchor="start" x="8.5" y="-119.8" font-family="Arial" font-size="8.00">+ AddEntries (DistinctOptionInfo option)</text>
<text text-anchor="start" x="8.5" y="-109.8" font-family="Arial" font-size="8.00">+ AddEntries (DropDownMenuItem[] entries, DropDownMenuItem defaultEntry)</text>
</g>
<!-- Box_MenuItem&#45;&gt;Box_DropDownMenu -->
<g id="edge46" class="edge"><title>Box_MenuItem&#45;&gt;Box_DropDownMenu</title>
<path fill="none" stroke="midnightblue" d="M270.588,-297.203C262.15,-287.086 253.676,-276.927 245.461,-267.077"/>
<polygon fill="none" stroke="midnightblue" points="267.936,-299.487 277.029,-304.925 273.312,-295.003 267.936,-299.487"/>
</g>
<!-- Box_MenuButton -->
<g id="node18" class="node"><title>Box_MenuButton</title>
<polygon fill="#fcfcda" stroke="black" points="371,-153 371,-217 709,-217 709,-153 371,-153"/>
<text text-anchor="middle" x="540" y="-205.8" font-family="Arial" font-size="8.00">MenuButton</text>
<polyline fill="none" stroke="black" points="371,-199 709,-199 "/>
<text text-anchor="middle" x="540" y="-187.8" font-family="Arial" font-size="8.00"> </text>
<polyline fill="none" stroke="black" points="371,-181 709,-181 "/>
<text text-anchor="start" x="379" y="-169.8" font-family="Arial" font-size="8.00">+ MenuButton (GameScreen screen, DisplayLayer drawOrder, int itemNum, MenuItemInfo</text>
<text text-anchor="start" x="379" y="-159.8" font-family="Arial" font-size="8.00">info)</text>
</g>
<!-- Box_MenuItem&#45;&gt;Box_MenuButton -->
<g id="edge48" class="edge"><title>Box_MenuItem&#45;&gt;Box_MenuButton</title>
<path fill="none" stroke="midnightblue" d="M445.957,-297.128C470.392,-267.994 495.121,-238.51 513.084,-217.092"/>
<polygon fill="none" stroke="midnightblue" points="443.163,-295.013 439.418,-304.925 448.526,-299.512 443.163,-295.013"/>
</g>
<!-- Box_XnaDrawableGameComponent -->
<g id="node19" class="node"><title>Box_XnaDrawableGameComponent</title>
<polygon fill="#ffffff" stroke="black" points="538,-1344 538,-1362 668,-1362 668,-1344 538,-1344"/>
<text text-anchor="middle" x="603" y="-1350.8" font-family="Arial" font-size="8.00">Xna.DrawableGameComponent</text>
</g>
<!-- Box_XnaIGameComponent -->
<g id="node20" class="node"><title>Box_XnaIGameComponent</title>
<polygon fill="#ffffff" stroke="black" points="686,-1344 686,-1362 782,-1362 782,-1344 686,-1344"/>
<text text-anchor="middle" x="734" y="-1350.8" font-family="Arial" font-size="8.00">Xna.IGameComponent</text>
</g>
<!-- Box_IEnumerable -->
<g id="node21" class="node"><title>Box_IEnumerable</title>
<polygon fill="#ffffff" stroke="black" points="1098.5,-1154 1098.5,-1172 1213.5,-1172 1213.5,-1154 1098.5,-1154"/>
<text text-anchor="middle" x="1156" y="-1160.8" font-family="Arial" font-size="8.00">IEnumerable&lt;IGameObject&gt;</text>
</g>
<!-- Box_IEnumerable&#45;&gt;Box_World -->
<g id="edge14" class="edge"><title>Box_IEnumerable&#45;&gt;Box_World</title>
<path fill="none" stroke="midnightblue" d="M1156,-1143.7C1156,-1125.79 1156,-1097.51 1156,-1068.08"/>
<polygon fill="none" stroke="midnightblue" points="1152.5,-1143.89 1156,-1153.89 1159.5,-1143.89 1152.5,-1143.89"/>
</g>
<!-- Box_IMouseEventListener -->
<g id="node22" class="node"><title>Box_IMouseEventListener</title>
<polygon fill="#ffffff" stroke="black" points="492,-942 492,-960 584,-960 584,-942 492,-942"/>
<text text-anchor="middle" x="538" y="-948.8" font-family="Arial" font-size="8.00">IMouseEventListener</text>
</g>
<!-- Box_IMouseEventListener&#45;&gt;Box_ColorPicker -->
<g id="edge20" class="edge"><title>Box_IMouseEventListener&#45;&gt;Box_ColorPicker</title>
<path fill="none" stroke="midnightblue" d="M537.869,-931.846C537.622,-895.74 537.072,-815.472 536.632,-751.292"/>
<polygon fill="none" stroke="midnightblue" points="534.369,-931.965 537.938,-941.941 541.369,-931.917 534.369,-931.965"/>
</g>
<!-- Box_IMouseEventListener&#45;&gt;Box_MenuItem -->
<g id="edge42" class="edge"><title>Box_IMouseEventListener&#45;&gt;Box_MenuItem</title>
<path fill="none" stroke="midnightblue" d="M535.529,-931.923C530.741,-902.926 517.447,-847.973 483,-818 434.857,-776.11 383.06,-832.466 344,-782 282.378,-702.386 299.141,-582.777 322.768,-499.075"/>
<polygon fill="none" stroke="midnightblue" points="532.09,-932.598 537.015,-941.979 539.015,-931.575 532.09,-932.598"/>
</g>
<!-- Box_IKeyEventListener -->
<g id="node23" class="node"><title>Box_IKeyEventListener</title>
<polygon fill="#ffffff" stroke="black" points="606,-942 606,-960 688,-960 688,-942 606,-942"/>
<text text-anchor="middle" x="647" y="-948.8" font-family="Arial" font-size="8.00">IKeyEventListener</text>
</g>
<!-- Box_IKeyEventListener&#45;&gt;Box_TextInput -->
<g id="edge36" class="edge"><title>Box_IKeyEventListener&#45;&gt;Box_TextInput</title>
<path fill="none" stroke="midnightblue" d="M651.895,-932.045C659.361,-905.23 675.273,-855.332 699,-818 721.359,-782.819 752.218,-748.644 780.213,-721.051"/>
<polygon fill="none" stroke="midnightblue" points="648.511,-931.154 649.292,-941.72 655.27,-932.973 648.511,-931.154"/>
</g>
<!-- Box_IKeyEventListener&#45;&gt;Box_MenuItem -->
<g id="edge44" class="edge"><title>Box_IKeyEventListener&#45;&gt;Box_MenuItem</title>
<path fill="none" stroke="midnightblue" d="M644.998,-931.552C640.863,-902.062 628.55,-846.463 593,-818 517.026,-757.172 441.743,-854.666 377,-782 341.078,-741.682 343.29,-597.861 349.579,-499.192"/>
<polygon fill="none" stroke="midnightblue" points="641.562,-932.289 646.248,-941.791 648.511,-931.441 641.562,-932.289"/>
</g>
<!-- Box_DrawableGameComponent -->
<g id="node24" class="node"><title>Box_DrawableGameComponent</title>
<polygon fill="none" stroke="black" points="635,-1252 635,-1288 767,-1288 767,-1252 635,-1252"/>
<text text-anchor="middle" x="701" y="-1267.8" font-family="Arial" font-size="8.00">Box_DrawableGameComponent</text>
</g>
<!-- Box_DrawableGameComponent&#45;&gt;Box_DrawableGameScreenComponent -->
<g id="edge2" class="edge"><title>Box_DrawableGameComponent&#45;&gt;Box_DrawableGameScreenComponent</title>
<path fill="none" stroke="midnightblue" d="M673.993,-1244.87C661.316,-1233.08 645.857,-1218.69 631.454,-1205.29"/>
<polygon fill="none" stroke="midnightblue" points="671.787,-1247.6 681.492,-1251.85 676.555,-1242.47 671.787,-1247.6"/>
</g>
<!-- Box_IGameComponent -->
<g id="node27" class="node"><title>Box_IGameComponent</title>
<polygon fill="none" stroke="black" points="422,-1335 422,-1371 520,-1371 520,-1335 422,-1335"/>
<text text-anchor="middle" x="471" y="-1350.8" font-family="Arial" font-size="8.00">Box_IGameComponent</text>
</g>
<!-- Box_IGameComponent&#45;&gt;Box_IGameScreenComponent -->
<g id="edge6" class="edge"><title>Box_IGameComponent&#45;&gt;Box_IGameScreenComponent</title>
<path fill="none" stroke="midnightblue" d="M471,-1324.99C471,-1315.99 471,-1306.05 471,-1297.13"/>
<polygon fill="none" stroke="midnightblue" points="467.5,-1324.99 471,-1334.99 474.5,-1324.99 467.5,-1324.99"/>
</g>
</g>
</svg>
