<?xml version="1.0" encoding="UTF-8" standalone="no"?>
<!DOCTYPE svg PUBLIC "-//W3C//DTD SVG 1.1//EN"
 "http://www.w3.org/Graphics/SVG/1.1/DTD/svg11.dtd">
<!-- Generated by graphviz version 2.26.3 (20100126.1600)
 -->
<!-- Title: MenuItem Pages: 1 -->
<svg width="318pt" height="462pt"
 viewBox="0.00 0.00 318.00 462.00" xmlns="http://www.w3.org/2000/svg" xmlns:xlink="http://www.w3.org/1999/xlink">
<g id="graph1" class="graph" transform="scale(1 1) rotate(0) translate(4 458)">
<title>MenuItem</title>
<polygon fill="white" stroke="white" points="-4,5 -4,-458 315,-458 315,5 -4,5"/>
<!-- Box_WidgetInfo -->
<g id="node1" class="node"><title>Box_WidgetInfo</title>
<polygon fill="#fcfcda" stroke="black" points="48.5,-183 48.5,-397 261.5,-397 261.5,-183 48.5,-183"/>
<text text-anchor="middle" x="155" y="-385.8" font-family="Arial" font-size="8.00">WidgetInfo</text>
<polyline fill="none" stroke="black" points="48.5,-379 261.5,-379 "/>
<text text-anchor="start" x="56.5" y="-367.8" font-family="Arial" font-size="8.00">+ AlignX : HAlign</text>
<text text-anchor="start" x="56.5" y="-357.8" font-family="Arial" font-size="8.00">+ AlignY : VAlign</text>
<text text-anchor="start" x="56.5" y="-347.8" font-family="Arial" font-size="8.00">+ RelativePosition : Func&lt;Vector2&gt;</text>
<polyline fill="none" stroke="black" points="48.5,-341 261.5,-341 "/>
<text text-anchor="start" x="56.5" y="-329.8" font-family="Arial" font-size="8.00">+ BackgroundColor () : Func&lt;Color&gt;</text>
<text text-anchor="start" x="56.5" y="-319.8" font-family="Arial" font-size="8.00">+ ForegroundColor () : Func&lt;Color&gt;</text>
<text text-anchor="start" x="56.5" y="-309.8" font-family="Arial" font-size="8.00">+ RelativePadding () : Func&lt;Vector2&gt;</text>
<text text-anchor="start" x="56.5" y="-299.8" font-family="Arial" font-size="8.00">+ RelativeSize () : Func&lt;Vector2&gt;</text>
<text text-anchor="start" x="56.5" y="-289.8" font-family="Arial" font-size="8.00">+ ScaledRectangle (Viewport viewport) : Rectangle</text>
<text text-anchor="start" x="56.5" y="-279.8" font-family="Arial" font-size="8.00">+ ScaledPosition (Viewport viewport) : Vector2</text>
<text text-anchor="start" x="56.5" y="-269.8" font-family="Arial" font-size="8.00">+ operator (WidgetInfo o1, WidgetInfo o2) : bool static</text>
<text text-anchor="start" x="56.5" y="-259.8" font-family="Arial" font-size="8.00">+ RelativeRectangle () : Rectangle</text>
<text text-anchor="start" x="56.5" y="-249.8" font-family="Arial" font-size="8.00">+ ScaledPadding (Viewport viewport) : Vector2</text>
<text text-anchor="start" x="56.5" y="-239.8" font-family="Arial" font-size="8.00">+ ScaledSize (Viewport viewport) : Vector2</text>
<text text-anchor="start" x="56.5" y="-229.8" font-family="Arial" font-size="8.00">+ WidgetInfo ()</text>
<text text-anchor="start" x="56.5" y="-219.8" font-family="Arial" font-size="8.00">+ Equals (Object obj) : bool</text>
<text text-anchor="start" x="56.5" y="-209.8" font-family="Arial" font-size="8.00">+ GetHashCode () : int</text>
<text text-anchor="start" x="56.5" y="-199.8" font-family="Arial" font-size="8.00">+ operator ! (WidgetInfo o1, WidgetInfo o2) : bool static</text>
<text text-anchor="start" x="56.5" y="-189.8" font-family="Arial" font-size="8.00">+ Equals (WidgetInfo other) : bool virtual</text>
</g>
<!-- Box_MenuItemInfo -->
<g id="node2" class="node"><title>Box_MenuItemInfo</title>
<polygon fill="#fcfcda" stroke="black" points="0,-1 0,-145 310,-145 310,-1 0,-1"/>
<text text-anchor="middle" x="155" y="-133.8" font-family="Arial" font-size="8.00">MenuItemInfo</text>
<polyline fill="none" stroke="black" points="0,-127 310,-127 "/>
<text text-anchor="start" x="8" y="-115.8" font-family="Arial" font-size="8.00">+ Text : string</text>
<polyline fill="none" stroke="black" points="0,-109 310,-109 "/>
<text text-anchor="start" x="8" y="-97.8" font-family="Arial" font-size="8.00">+ Keys () : List&lt;Keys&gt;</text>
<text text-anchor="start" x="8" y="-87.8" font-family="Arial" font-size="8.00">+ OnClick () : Action</text>
<text text-anchor="start" x="8" y="-77.8" font-family="Arial" font-size="8.00">+ AddKey (Keys key) : MenuItemInfo</text>
<text text-anchor="start" x="8" y="-67.8" font-family="Arial" font-size="8.00">+ MenuItemInfo (string text) : this()</text>
<text text-anchor="start" x="8" y="-57.8" font-family="Arial" font-size="8.00">+ MenuItemInfo (string text, Action onClick) : this()</text>
<text text-anchor="start" x="8" y="-47.8" font-family="Arial" font-size="8.00">+ MenuItemInfo (string text, Vector2 topLeft, Vector2 bottomRight, Action onClick)</text>
<text text-anchor="start" x="8" y="-37.8" font-family="Arial" font-size="8.00">: this(text, onClick)</text>
<text text-anchor="start" x="8" y="-27.8" font-family="Arial" font-size="8.00">+ MenuItemInfo (string text, float left, float top, float right, float bottom, Action</text>
<text text-anchor="start" x="8" y="-17.8" font-family="Arial" font-size="8.00">onClick) : this(text, onClick)</text>
<text text-anchor="start" x="8" y="-7.8" font-family="Arial" font-size="8.00">+ MenuItemInfo ()</text>
</g>
<!-- Box_WidgetInfo&#45;&gt;Box_MenuItemInfo -->
<g id="edge4" class="edge"><title>Box_WidgetInfo&#45;&gt;Box_MenuItemInfo</title>
<path fill="none" stroke="midnightblue" d="M155,-172.654C155,-163.35 155,-154.133 155,-145.279"/>
<polygon fill="none" stroke="midnightblue" points="151.5,-172.771 155,-182.771 158.5,-172.771 151.5,-172.771"/>
</g>
<!-- Box_IEquatable -->
<g id="node3" class="node"><title>Box_IEquatable</title>
<polygon fill="#ffffff" stroke="black" points="104.5,-435 104.5,-453 205.5,-453 205.5,-435 104.5,-435"/>
<text text-anchor="middle" x="155" y="-441.8" font-family="Arial" font-size="8.00">IEquatable&lt;WidgetInfo&gt;</text>
</g>
<!-- Box_IEquatable&#45;&gt;Box_WidgetInfo -->
<g id="edge2" class="edge"><title>Box_IEquatable&#45;&gt;Box_WidgetInfo</title>
<path fill="none" stroke="midnightblue" d="M155,-424.659C155,-416.972 155,-407.489 155,-397.145"/>
<polygon fill="none" stroke="midnightblue" points="151.5,-424.828 155,-434.828 158.5,-424.828 151.5,-424.828"/>
</g>
</g>
</svg>
