<?xml version="1.0" encoding="UTF-8" standalone="no"?>
<!DOCTYPE svg PUBLIC "-//W3C//DTD SVG 1.1//EN"
 "http://www.w3.org/Graphics/SVG/1.1/DTD/svg11.dtd">
<!-- Generated by graphviz version 2.26.3 (20100126.1600)
 -->
<!-- Title: MenuItem Pages: 1 -->
<svg width="1818pt" height="558pt"
 viewBox="0.00 0.00 1818.00 558.00" xmlns="http://www.w3.org/2000/svg" xmlns:xlink="http://www.w3.org/1999/xlink">
<g id="graph1" class="graph" transform="scale(1 1) rotate(0) translate(4 554)">
<title>MenuItem</title>
<polygon fill="white" stroke="white" points="-4,5 -4,-554 1815,-554 1815,5 -4,5"/>
<!-- Box_IKeyEventListener -->
<g id="node1" class="node"><title>Box_IKeyEventListener</title>
<polygon fill="#dafcda" stroke="black" points="601.5,-475 601.5,-549 866.5,-549 866.5,-475 601.5,-475"/>
<text text-anchor="middle" x="734" y="-537.8" font-family="Arial" font-size="8.00">IKeyEventListener</text>
<polyline fill="none" stroke="black" points="601.5,-531 866.5,-531 "/>
<text text-anchor="start" x="609.5" y="-519.8" font-family="Arial" font-size="8.00">+ ValidKeys : List&lt;Keys&gt;</text>
<text text-anchor="start" x="609.5" y="-509.8" font-family="Arial" font-size="8.00">+ Index : DisplayLayer</text>
<text text-anchor="start" x="609.5" y="-499.8" font-family="Arial" font-size="8.00">+ IsKeyEventEnabled : bool</text>
<polyline fill="none" stroke="black" points="601.5,-493 866.5,-493 "/>
<text text-anchor="start" x="609.5" y="-481.8" font-family="Arial" font-size="8.00">+ OnKeyEvent (List&lt;Keys&gt; key, KeyEvent keyEvent, GameTime time)</text>
</g>
<!-- Box_KnotInputHandler -->
<g id="node2" class="node"><title>Box_KnotInputHandler</title>
<polygon fill="#fcfcda" stroke="black" points="-0.5,-248 -0.5,-392 264.5,-392 264.5,-248 -0.5,-248"/>
<text text-anchor="middle" x="132" y="-380.8" font-family="Arial" font-size="8.00">KnotInputHandler</text>
<polyline fill="none" stroke="black" points="-0.5,-374 264.5,-374 "/>
<text text-anchor="start" x="7.5" y="-362.8" font-family="Arial" font-size="8.00">&#45; wasdSpeed : int</text>
<text text-anchor="start" x="7.5" y="-352.8" font-family="Arial" font-size="8.00">&#45; camera : Camera</text>
<text text-anchor="start" x="7.5" y="-342.8" font-family="Arial" font-size="8.00">&#45; World : World</text>
<text text-anchor="start" x="7.5" y="-332.8" font-family="Arial" font-size="8.00">+ ValidKeys : List&lt;Keys&gt;</text>
<text text-anchor="start" x="7.5" y="-322.8" font-family="Arial" font-size="8.00">+ IsKeyEventEnabled : bool</text>
<polyline fill="none" stroke="black" points="-0.5,-316 264.5,-316 "/>
<text text-anchor="start" x="7.5" y="-304.8" font-family="Arial" font-size="8.00"># UpdateMouse (GameTime time)</text>
<text text-anchor="start" x="7.5" y="-294.8" font-family="Arial" font-size="8.00">+ KnotInputHandler (GameScreen screen, World world)</text>
<text text-anchor="start" x="7.5" y="-284.8" font-family="Arial" font-size="8.00">+ OnKeyEvent (List&lt;Keys&gt; key, KeyEvent keyEvent, GameTime time)</text>
<text text-anchor="start" x="7.5" y="-274.8" font-family="Arial" font-size="8.00">&#45; ResetMousePosition ()</text>
<text text-anchor="start" x="7.5" y="-264.8" font-family="Arial" font-size="8.00"># UpdateKeys (GameTime time)</text>
<text text-anchor="start" x="7.5" y="-254.8" font-family="Arial" font-size="8.00">+ Update (GameTime time)</text>
</g>
<!-- Box_IKeyEventListener&#45;&gt;Box_KnotInputHandler -->
<g id="edge4" class="edge"><title>Box_IKeyEventListener&#45;&gt;Box_KnotInputHandler</title>
<path fill="none" stroke="midnightblue" d="M591.273,-490.963C461.371,-471.525 287.633,-444.676 273,-438 248.17,-426.673 224.197,-409.749 203.28,-392.231"/>
<polygon fill="none" stroke="midnightblue" points="590.925,-494.45 601.333,-492.467 591.96,-487.527 590.925,-494.45"/>
</g>
<!-- Box_EdgeColoring -->
<g id="node3" class="node"><title>Box_EdgeColoring</title>
<polygon fill="#fcfcda" stroke="black" points="281.5,-273 281.5,-367 546.5,-367 546.5,-273 281.5,-273"/>
<text text-anchor="middle" x="414" y="-355.8" font-family="Arial" font-size="8.00">EdgeColoring</text>
<polyline fill="none" stroke="black" points="281.5,-349 546.5,-349 "/>
<text text-anchor="start" x="289.5" y="-337.8" font-family="Arial" font-size="8.00">+ ValidKeys : List&lt;Keys&gt;</text>
<text text-anchor="start" x="289.5" y="-327.8" font-family="Arial" font-size="8.00">+ Knot : Knot</text>
<text text-anchor="start" x="289.5" y="-317.8" font-family="Arial" font-size="8.00">+ IsKeyEventEnabled : bool</text>
<polyline fill="none" stroke="black" points="281.5,-311 546.5,-311 "/>
<text text-anchor="start" x="289.5" y="-299.8" font-family="Arial" font-size="8.00">+ OnKeyEvent (List&lt;Keys&gt; key, KeyEvent keyEvent, GameTime time)</text>
<text text-anchor="start" x="289.5" y="-289.8" font-family="Arial" font-size="8.00">+ EdgeColoring (GameScreen screen)</text>
<text text-anchor="start" x="289.5" y="-279.8" font-family="Arial" font-size="8.00">+ Update (GameTime time)</text>
</g>
<!-- Box_IKeyEventListener&#45;&gt;Box_EdgeColoring -->
<g id="edge8" class="edge"><title>Box_IKeyEventListener&#45;&gt;Box_EdgeColoring</title>
<path fill="none" stroke="midnightblue" d="M619.72,-470.88C597.644,-461.248 575.136,-450.191 555,-438 521.96,-417.996 488.653,-390.54 462.713,-367.146"/>
<polygon fill="none" stroke="midnightblue" points="618.577,-474.198 629.147,-474.92 621.334,-467.764 618.577,-474.198"/>
</g>
<!-- Box_MenuItem -->
<g id="node4" class="node"><title>Box_MenuItem</title>
<polygon fill="#fcfcda" stroke="black" points="867.5,-223 867.5,-417 1196.5,-417 1196.5,-223 867.5,-223"/>
<text text-anchor="middle" x="1032" y="-405.8" font-family="Arial" font-size="8.00">MenuItem</text>
<polyline fill="none" stroke="black" points="867.5,-399 1196.5,-399 "/>
<text text-anchor="start" x="875.5" y="-387.8" font-family="Arial" font-size="8.00"># spriteBatch : SpriteBatch</text>
<text text-anchor="start" x="875.5" y="-377.8" font-family="Arial" font-size="8.00">+ IsMouseEventEnabled : bool</text>
<text text-anchor="start" x="875.5" y="-367.8" font-family="Arial" font-size="8.00">+ ValidKeys : List&lt;Keys&gt;</text>
<text text-anchor="start" x="875.5" y="-357.8" font-family="Arial" font-size="8.00">+ IsKeyEventEnabled : bool</text>
<text text-anchor="start" x="875.5" y="-347.8" font-family="Arial" font-size="8.00">+ Info : MenuItemInfo</text>
<polyline fill="none" stroke="black" points="867.5,-341 1196.5,-341 "/>
<text text-anchor="start" x="875.5" y="-329.8" font-family="Arial" font-size="8.00">+ MenuItem (GameScreen screen, DisplayLayer drawOrder, int itemNum, MenuItemInfo</text>
<text text-anchor="start" x="875.5" y="-319.8" font-family="Arial" font-size="8.00">info)</text>
<text text-anchor="start" x="875.5" y="-309.8" font-family="Arial" font-size="8.00">+ Collapse () virtual</text>
<text text-anchor="start" x="875.5" y="-299.8" font-family="Arial" font-size="8.00">+ OnKeyEvent (List&lt;Keys&gt; key, KeyEvent keyEvent, GameTime time)</text>
<text text-anchor="start" x="875.5" y="-289.8" font-family="Arial" font-size="8.00">+ OnLeftClick (Vector2 position, ClickState click, GameTime time)</text>
<text text-anchor="start" x="875.5" y="-279.8" font-family="Arial" font-size="8.00">+ OnRightClick (Vector2 position, ClickState click, GameTime time)</text>
<text text-anchor="start" x="875.5" y="-269.8" font-family="Arial" font-size="8.00">+ MinimumSize (SpriteFont font) : Vector2</text>
<text text-anchor="start" x="875.5" y="-259.8" font-family="Arial" font-size="8.00">+ TextPosition (SpriteFont font) : Vector2</text>
<text text-anchor="start" x="875.5" y="-249.8" font-family="Arial" font-size="8.00">+ TextPosition (SpriteFont font, Vector2 scale) : Vector2</text>
<text text-anchor="start" x="875.5" y="-239.8" font-family="Arial" font-size="8.00">+ Draw (GameTime time)</text>
<text text-anchor="start" x="875.5" y="-229.8" font-family="Arial" font-size="8.00">+ SetHovered (bool hovered)</text>
</g>
<!-- Box_IKeyEventListener&#45;&gt;Box_MenuItem -->
<g id="edge14" class="edge"><title>Box_IKeyEventListener&#45;&gt;Box_MenuItem</title>
<path fill="none" stroke="midnightblue" d="M807.24,-469.704C824.353,-459.529 842.42,-448.547 859,-438 869.583,-431.268 880.456,-424.207 891.348,-417.029"/>
<polygon fill="none" stroke="midnightblue" points="805.212,-466.837 798.391,-474.945 808.779,-472.86 805.212,-466.837"/>
</g>
<!-- Box_TextInput -->
<g id="node7" class="node"><title>Box_TextInput</title>
<polygon fill="#fcfcda" stroke="black" points="1214,-258 1214,-382 1506,-382 1506,-258 1214,-258"/>
<text text-anchor="middle" x="1360" y="-370.8" font-family="Arial" font-size="8.00">TextInput</text>
<polyline fill="none" stroke="black" points="1214,-364 1506,-364 "/>
<text text-anchor="start" x="1222" y="-352.8" font-family="Arial" font-size="8.00">&#45; font : SpriteFont</text>
<text text-anchor="start" x="1222" y="-342.8" font-family="Arial" font-size="8.00"># spriteBatch : SpriteBatch</text>
<text text-anchor="start" x="1222" y="-332.8" font-family="Arial" font-size="8.00">+ IsKeyEventEnabled : bool</text>
<text text-anchor="start" x="1222" y="-322.8" font-family="Arial" font-size="8.00">+ ValidKeys : List&lt;Keys&gt;</text>
<text text-anchor="start" x="1222" y="-312.8" font-family="Arial" font-size="8.00">+ InputText : string</text>
<polyline fill="none" stroke="black" points="1214,-306 1506,-306 "/>
<text text-anchor="start" x="1222" y="-294.8" font-family="Arial" font-size="8.00">+ TextInput (GameScreen screen, WidgetInfo info, DisplayLayer drawOrder)</text>
<text text-anchor="start" x="1222" y="-284.8" font-family="Arial" font-size="8.00">+ Draw (GameTime time)</text>
<text text-anchor="start" x="1222" y="-274.8" font-family="Arial" font-size="8.00">+ OnKeyEvent (List&lt;Keys&gt; key, KeyEvent keyEvent, GameTime time)</text>
<text text-anchor="start" x="1222" y="-264.8" font-family="Arial" font-size="8.00">+ Update (GameTime time)</text>
</g>
<!-- Box_IKeyEventListener&#45;&gt;Box_TextInput -->
<g id="edge22" class="edge"><title>Box_IKeyEventListener&#45;&gt;Box_TextInput</title>
<path fill="none" stroke="midnightblue" d="M876.568,-486.075C900.717,-481.892 925.556,-477.719 949,-474 1062.48,-455.998 1098.96,-482.234 1205,-438 1236.99,-424.654 1268.22,-403.078 1294.16,-382.003"/>
<polygon fill="none" stroke="midnightblue" points="875.883,-482.642 866.631,-487.804 877.083,-489.538 875.883,-482.642"/>
</g>
<!-- Box_Input -->
<g id="node8" class="node"><title>Box_Input</title>
<polygon fill="#fcfcda" stroke="black" points="1523.5,-203 1523.5,-437 1810.5,-437 1810.5,-203 1523.5,-203"/>
<text text-anchor="middle" x="1667" y="-425.8" font-family="Arial" font-size="8.00">Input</text>
<polyline fill="none" stroke="black" points="1523.5,-419 1810.5,-419 "/>
<text text-anchor="start" x="1531.5" y="-407.8" font-family="Arial" font-size="8.00">&#45; PreviousClickMouseState : MouseState static</text>
<text text-anchor="start" x="1531.5" y="-397.8" font-family="Arial" font-size="8.00">&#45; LeftButtonClickTimer : double static</text>
<text text-anchor="start" x="1531.5" y="-387.8" font-family="Arial" font-size="8.00">&#45; RightButtonClickTimer : double static</text>
<text text-anchor="start" x="1531.5" y="-377.8" font-family="Arial" font-size="8.00">+ GrabMouseMovement : bool</text>
<text text-anchor="start" x="1531.5" y="-367.8" font-family="Arial" font-size="8.00">+ LeftButton : ClickState static</text>
<text text-anchor="start" x="1531.5" y="-357.8" font-family="Arial" font-size="8.00">+ RightButton : ClickState static</text>
<text text-anchor="start" x="1531.5" y="-347.8" font-family="Arial" font-size="8.00">+ PreviousKeyboardState : KeyboardState static</text>
<text text-anchor="start" x="1531.5" y="-337.8" font-family="Arial" font-size="8.00">+ MouseState : MouseState static</text>
<text text-anchor="start" x="1531.5" y="-327.8" font-family="Arial" font-size="8.00">+ PreviousMouseState : MouseState static</text>
<text text-anchor="start" x="1531.5" y="-317.8" font-family="Arial" font-size="8.00"># FullscreenToggled : bool static</text>
<text text-anchor="start" x="1531.5" y="-307.8" font-family="Arial" font-size="8.00">+ CurrentInputAction : InputAction</text>
<text text-anchor="start" x="1531.5" y="-297.8" font-family="Arial" font-size="8.00">+ ValidKeys : List&lt;Keys&gt;</text>
<text text-anchor="start" x="1531.5" y="-287.8" font-family="Arial" font-size="8.00">+ WASDMode : WASDMode</text>
<text text-anchor="start" x="1531.5" y="-277.8" font-family="Arial" font-size="8.00">+ IsKeyEventEnabled : bool</text>
<text text-anchor="start" x="1531.5" y="-267.8" font-family="Arial" font-size="8.00">+ KeyboardState : KeyboardState static</text>
<polyline fill="none" stroke="black" points="1523.5,-261 1810.5,-261 "/>
<text text-anchor="start" x="1531.5" y="-249.8" font-family="Arial" font-size="8.00"># UpdateMouse (GameTime gameTime) virtual</text>
<text text-anchor="start" x="1531.5" y="-239.8" font-family="Arial" font-size="8.00">+ Update (GameTime gameTime)</text>
<text text-anchor="start" x="1531.5" y="-229.8" font-family="Arial" font-size="8.00">+ OnKeyEvent (List&lt;Keys&gt; key, KeyEvent keyEvent, GameTime gameTime)</text>
<text text-anchor="start" x="1531.5" y="-219.8" font-family="Arial" font-size="8.00"># UpdateKeys (GameTime gameTime) virtual</text>
<text text-anchor="start" x="1531.5" y="-209.8" font-family="Arial" font-size="8.00">+ Input (GameState state)</text>
</g>
<!-- Box_IKeyEventListener&#45;&gt;Box_Input -->
<g id="edge26" class="edge"><title>Box_IKeyEventListener&#45;&gt;Box_Input</title>
<path fill="none" stroke="midnightblue" d="M876.609,-484.5C900.703,-480.513 925.514,-476.813 949,-474 1074.14,-459.009 1397.13,-482.613 1515,-438 1517.81,-436.936 1520.61,-435.8 1523.4,-434.6"/>
<polygon fill="none" stroke="midnightblue" points="875.979,-481.057 866.696,-486.163 877.137,-487.96 875.979,-481.057"/>
</g>
<!-- Box_PipeColoring -->
<g id="node10" class="node"><title>Box_PipeColoring</title>
<polygon fill="#fcfcda" stroke="black" points="563.5,-273 563.5,-367 850.5,-367 850.5,-273 563.5,-273"/>
<text text-anchor="middle" x="707" y="-355.8" font-family="Arial" font-size="8.00">PipeColoring</text>
<polyline fill="none" stroke="black" points="563.5,-349 850.5,-349 "/>
<text text-anchor="start" x="571.5" y="-337.8" font-family="Arial" font-size="8.00">+ ValidKeys : List&lt;Keys&gt;</text>
<text text-anchor="start" x="571.5" y="-327.8" font-family="Arial" font-size="8.00">+ Knot : Knot</text>
<text text-anchor="start" x="571.5" y="-317.8" font-family="Arial" font-size="8.00">+ IsKeyEventEnabled : bool</text>
<polyline fill="none" stroke="black" points="563.5,-311 850.5,-311 "/>
<text text-anchor="start" x="571.5" y="-299.8" font-family="Arial" font-size="8.00">+ OnKeyEvent (List&lt;Keys&gt; key, KeyEvent keyEvent, GameTime gameTime)</text>
<text text-anchor="start" x="571.5" y="-289.8" font-family="Arial" font-size="8.00">+ PipeColoring (GameScreen screen)</text>
<text text-anchor="start" x="571.5" y="-279.8" font-family="Arial" font-size="8.00">+ Update (GameTime gameTime)</text>
</g>
<!-- Box_IKeyEventListener&#45;&gt;Box_PipeColoring -->
<g id="edge32" class="edge"><title>Box_IKeyEventListener&#45;&gt;Box_PipeColoring</title>
<path fill="none" stroke="midnightblue" d="M727.369,-464.846C723.187,-435.11 717.807,-396.852 713.627,-367.122"/>
<polygon fill="none" stroke="midnightblue" points="723.936,-465.565 728.794,-474.98 730.867,-464.59 723.936,-465.565"/>
</g>
<!-- Box_DropDownMenu -->
<g id="node5" class="node"><title>Box_DropDownMenu</title>
<polygon fill="#fcfcda" stroke="black" points="1037.5,-1 1037.5,-165 1390.5,-165 1390.5,-1 1037.5,-1"/>
<text text-anchor="middle" x="1214" y="-153.8" font-family="Arial" font-size="8.00">DropDownMenu</text>
<polyline fill="none" stroke="black" points="1037.5,-147 1390.5,-147 "/>
<text text-anchor="start" x="1045.5" y="-135.8" font-family="Arial" font-size="8.00">&#45; selected : MenuButton</text>
<text text-anchor="start" x="1045.5" y="-125.8" font-family="Arial" font-size="8.00">&#45; dropdown : VerticalMenu</text>
<polyline fill="none" stroke="black" points="1037.5,-119 1390.5,-119 "/>
<text text-anchor="start" x="1045.5" y="-107.8" font-family="Arial" font-size="8.00">&#45; ValuePosition (int dummy) : Vector2</text>
<text text-anchor="start" x="1045.5" y="-97.8" font-family="Arial" font-size="8.00">+ DropDownMenu (GameScreen screen, DisplayLayer drawOrder, int itemNum, MenuItemInfo</text>
<text text-anchor="start" x="1045.5" y="-87.8" font-family="Arial" font-size="8.00">info)</text>
<text text-anchor="start" x="1045.5" y="-77.8" font-family="Arial" font-size="8.00">&#45; DropDownBackgroundColor (ItemState itemState) : Color</text>
<text text-anchor="start" x="1045.5" y="-67.8" font-family="Arial" font-size="8.00">&#45; DropDownForegroundColor (ItemState itemState) : Color</text>
<text text-anchor="start" x="1045.5" y="-57.8" font-family="Arial" font-size="8.00">&#45; ValueSize (int dummy) : Vector2</text>
<text text-anchor="start" x="1045.5" y="-47.8" font-family="Arial" font-size="8.00">+ SubComponents (GameTime time) : IEnumerable&lt;IGameScreenComponent&gt;</text>
<text text-anchor="start" x="1045.5" y="-37.8" font-family="Arial" font-size="8.00">+ Collapse ()</text>
<text text-anchor="start" x="1045.5" y="-27.8" font-family="Arial" font-size="8.00">+ Draw (GameTime time)</text>
<text text-anchor="start" x="1045.5" y="-17.8" font-family="Arial" font-size="8.00">+ AddEntries (DistinctOptionInfo option)</text>
<text text-anchor="start" x="1045.5" y="-7.8" font-family="Arial" font-size="8.00">+ AddEntries (DropDownMenuItem[] entries, DropDownMenuItem defaultEntry)</text>
</g>
<!-- Box_MenuItem&#45;&gt;Box_DropDownMenu -->
<g id="edge16" class="edge"><title>Box_MenuItem&#45;&gt;Box_DropDownMenu</title>
<path fill="none" stroke="midnightblue" d="M1112.79,-214.79C1125.57,-198.16 1138.61,-181.176 1150.9,-165.171"/>
<polygon fill="none" stroke="midnightblue" points="1109.87,-212.856 1106.55,-222.919 1115.42,-217.12 1109.87,-212.856"/>
</g>
<!-- Box_MenuButton -->
<g id="node6" class="node"><title>Box_MenuButton</title>
<polygon fill="#fcfcda" stroke="black" points="682,-51 682,-115 1020,-115 1020,-51 682,-51"/>
<text text-anchor="middle" x="851" y="-103.8" font-family="Arial" font-size="8.00">MenuButton</text>
<polyline fill="none" stroke="black" points="682,-97 1020,-97 "/>
<text text-anchor="middle" x="851" y="-85.8" font-family="Arial" font-size="8.00"> </text>
<polyline fill="none" stroke="black" points="682,-79 1020,-79 "/>
<text text-anchor="start" x="690" y="-67.8" font-family="Arial" font-size="8.00">+ MenuButton (GameScreen screen, DisplayLayer drawOrder, int itemNum, MenuItemInfo</text>
<text text-anchor="start" x="690" y="-57.8" font-family="Arial" font-size="8.00">info)</text>
</g>
<!-- Box_MenuItem&#45;&gt;Box_MenuButton -->
<g id="edge18" class="edge"><title>Box_MenuItem&#45;&gt;Box_MenuButton</title>
<path fill="none" stroke="midnightblue" d="M951.629,-214.762C924.057,-178.661 895.216,-140.896 875.514,-115.099"/>
<polygon fill="none" stroke="midnightblue" points="949.007,-217.096 957.858,-222.919 954.57,-212.847 949.007,-217.096"/>
</g>
<!-- Box_MenuScreenInput -->
<g id="node9" class="node"><title>Box_MenuScreenInput</title>
<polygon fill="#fcfcda" stroke="black" points="1589.5,-56 1589.5,-110 1744.5,-110 1744.5,-56 1589.5,-56"/>
<text text-anchor="middle" x="1667" y="-98.8" font-family="Arial" font-size="8.00">MenuScreenInput</text>
<polyline fill="none" stroke="black" points="1589.5,-92 1744.5,-92 "/>
<text text-anchor="middle" x="1667" y="-80.8" font-family="Arial" font-size="8.00"> </text>
<polyline fill="none" stroke="black" points="1589.5,-74 1744.5,-74 "/>
<text text-anchor="start" x="1597.5" y="-62.8" font-family="Arial" font-size="8.00">+ MenuScreenInput (GameState state)</text>
</g>
<!-- Box_Input&#45;&gt;Box_MenuScreenInput -->
<g id="edge28" class="edge"><title>Box_Input&#45;&gt;Box_MenuScreenInput</title>
<path fill="none" stroke="midnightblue" d="M1667,-192.714C1667,-161.43 1667,-130.967 1667,-110.111"/>
<polygon fill="none" stroke="midnightblue" points="1663.5,-192.889 1667,-202.889 1670.5,-192.889 1663.5,-192.889"/>
</g>
<!-- Box_GameScreenComponent -->
<g id="node11" class="node"><title>Box_GameScreenComponent</title>
<polygon fill="#ffffff" stroke="black" points="362,-503 362,-521 466,-521 466,-503 362,-503"/>
<text text-anchor="middle" x="414" y="-509.8" font-family="Arial" font-size="8.00">GameScreenComponent</text>
</g>
<!-- Box_GameScreenComponent&#45;&gt;Box_KnotInputHandler -->
<g id="edge2" class="edge"><title>Box_GameScreenComponent&#45;&gt;Box_KnotInputHandler</title>
<path fill="none" stroke="midnightblue" d="M384.355,-498.719C355.083,-485.087 309.529,-462.462 273,-438 252.445,-424.235 231.413,-407.99 212.077,-392.028"/>
<polygon fill="none" stroke="midnightblue" points="383.073,-501.982 393.621,-502.987 386.002,-495.624 383.073,-501.982"/>
</g>
<!-- Box_GameScreenComponent&#45;&gt;Box_EdgeColoring -->
<g id="edge6" class="edge"><title>Box_GameScreenComponent&#45;&gt;Box_EdgeColoring</title>
<path fill="none" stroke="midnightblue" d="M414,-492.96C414,-463.882 414,-407.525 414,-367.036"/>
<polygon fill="none" stroke="midnightblue" points="410.5,-492.997 414,-502.997 417.5,-492.997 410.5,-492.997"/>
</g>
<!-- Box_GameScreenComponent&#45;&gt;Box_PipeColoring -->
<g id="edge30" class="edge"><title>Box_GameScreenComponent&#45;&gt;Box_PipeColoring</title>
<path fill="none" stroke="midnightblue" d="M442.963,-498.663C472.068,-484.834 517.819,-461.922 555,-438 588.292,-416.58 623.332,-389.707 651.368,-367.018"/>
<polygon fill="none" stroke="midnightblue" points="441.323,-495.566 433.767,-502.992 444.305,-501.899 441.323,-495.566"/>
</g>
<!-- Box_ItemWidget -->
<g id="node12" class="node"><title>Box_ItemWidget</title>
<polygon fill="#ffffff" stroke="black" points="958,-503 958,-521 1014,-521 1014,-503 958,-503"/>
<text text-anchor="middle" x="986" y="-509.8" font-family="Arial" font-size="8.00">ItemWidget</text>
</g>
<!-- Box_ItemWidget&#45;&gt;Box_MenuItem -->
<g id="edge10" class="edge"><title>Box_ItemWidget&#45;&gt;Box_MenuItem</title>
<path fill="none" stroke="midnightblue" d="M990.504,-493.199C994.845,-475.081 1001.76,-446.214 1008.71,-417.201"/>
<polygon fill="none" stroke="midnightblue" points="987.083,-492.457 988.157,-502.997 993.891,-494.088 987.083,-492.457"/>
</g>
<!-- Box_IMouseEventListener -->
<g id="node13" class="node"><title>Box_IMouseEventListener</title>
<polygon fill="#ffffff" stroke="black" points="1032,-503 1032,-521 1124,-521 1124,-503 1032,-503"/>
<text text-anchor="middle" x="1078" y="-509.8" font-family="Arial" font-size="8.00">IMouseEventListener</text>
</g>
<!-- Box_IMouseEventListener&#45;&gt;Box_MenuItem -->
<g id="edge12" class="edge"><title>Box_IMouseEventListener&#45;&gt;Box_MenuItem</title>
<path fill="none" stroke="midnightblue" d="M1073.5,-493.199C1069.15,-475.081 1062.24,-446.214 1055.29,-417.201"/>
<polygon fill="none" stroke="midnightblue" points="1070.11,-494.088 1075.84,-502.997 1076.92,-492.457 1070.11,-494.088"/>
</g>
<!-- Box_Widget -->
<g id="node14" class="node"><title>Box_Widget</title>
<polygon fill="#ffffff" stroke="black" points="1339.5,-503 1339.5,-521 1380.5,-521 1380.5,-503 1339.5,-503"/>
<text text-anchor="middle" x="1360" y="-509.8" font-family="Arial" font-size="8.00">Widget</text>
</g>
<!-- Box_Widget&#45;&gt;Box_TextInput -->
<g id="edge20" class="edge"><title>Box_Widget&#45;&gt;Box_TextInput</title>
<path fill="none" stroke="midnightblue" d="M1360,-492.802C1360,-467.168 1360,-420.537 1360,-382.171"/>
<polygon fill="none" stroke="midnightblue" points="1356.5,-492.997 1360,-502.997 1363.5,-492.997 1356.5,-492.997"/>
</g>
<!-- Box_GameStateComponent -->
<g id="node15" class="node"><title>Box_GameStateComponent</title>
<polygon fill="#ffffff" stroke="black" points="1618.5,-503 1618.5,-521 1715.5,-521 1715.5,-503 1618.5,-503"/>
<text text-anchor="middle" x="1667" y="-509.8" font-family="Arial" font-size="8.00">GameStateComponent</text>
</g>
<!-- Box_GameStateComponent&#45;&gt;Box_Input -->
<g id="edge24" class="edge"><title>Box_GameStateComponent&#45;&gt;Box_Input</title>
<path fill="none" stroke="midnightblue" d="M1667,-492.859C1667,-478.924 1667,-458.762 1667,-437.091"/>
<polygon fill="none" stroke="midnightblue" points="1663.5,-492.997 1667,-502.997 1670.5,-492.997 1663.5,-492.997"/>
</g>
</g>
</svg>
