<?xml version="1.0" encoding="UTF-8" standalone="no"?>
<!DOCTYPE svg PUBLIC "-//W3C//DTD SVG 1.1//EN"
 "http://www.w3.org/Graphics/SVG/1.1/DTD/svg11.dtd">
<!-- Generated by graphviz version 2.26.3 (20100126.1600)
 -->
<!-- Title: MenuItem Pages: 1 -->
<svg width="316pt" height="444pt"
 viewBox="0.00 0.00 316.00 444.00" xmlns="http://www.w3.org/2000/svg" xmlns:xlink="http://www.w3.org/1999/xlink">
<g id="graph1" class="graph" transform="scale(1 1) rotate(0) translate(4 440)">
<title>MenuItem</title>
<polygon fill="white" stroke="white" points="-4,5 -4,-440 313,-440 313,5 -4,5"/>
<!-- Box_NodeModelInfo -->
<g id="node1" class="node"><title>Box_NodeModelInfo</title>
<polygon fill="#fcfcda" stroke="black" points="0,-1 0,-85 308,-85 308,-1 0,-1"/>
<text text-anchor="middle" x="154" y="-73.8" font-family="Arial" font-size="8.00">NodeModelInfo</text>
<polyline fill="none" stroke="black" points="0,-67 308,-67 "/>
<text text-anchor="start" x="8" y="-55.8" font-family="Arial" font-size="8.00">+ EdgeA : Edge</text>
<text text-anchor="start" x="8" y="-45.8" font-family="Arial" font-size="8.00">+ EdgeB : Edge</text>
<text text-anchor="start" x="8" y="-35.8" font-family="Arial" font-size="8.00">+ NodeMap : NodeMap</text>
<polyline fill="none" stroke="black" points="0,-29 308,-29 "/>
<text text-anchor="start" x="8" y="-17.8" font-family="Arial" font-size="8.00">+ NodeModelInfo (NodeMap nodeMap, Edge edgeA, Edge edgeB, Vector3 offset)</text>
<text text-anchor="start" x="8" y="-7.8" font-family="Arial" font-size="8.00">+ Equals (GameObjectInfo other) : bool</text>
</g>
<!-- Box_GameModelInfo -->
<g id="node2" class="node"><title>Box_GameModelInfo</title>
<polygon fill="#fcfcda" stroke="black" points="76,-123 76,-207 232,-207 232,-123 76,-123"/>
<text text-anchor="middle" x="154" y="-195.8" font-family="Arial" font-size="8.00">GameModelInfo</text>
<polyline fill="none" stroke="black" points="76,-189 232,-189 "/>
<text text-anchor="start" x="84" y="-177.8" font-family="Arial" font-size="8.00">+ Rotation : Angles3</text>
<text text-anchor="start" x="84" y="-167.8" font-family="Arial" font-size="8.00">+ Scale : Vector3</text>
<text text-anchor="start" x="84" y="-157.8" font-family="Arial" font-size="8.00">+ Modelname : string</text>
<polyline fill="none" stroke="black" points="76,-151 232,-151 "/>
<text text-anchor="start" x="84" y="-139.8" font-family="Arial" font-size="8.00">+ GameModelInfo (string modelname)</text>
<text text-anchor="start" x="84" y="-129.8" font-family="Arial" font-size="8.00">+ Equals (GameObjectInfo other) : bool</text>
</g>
<!-- Box_GameModelInfo&#45;&gt;Box_NodeModelInfo -->
<g id="edge2" class="edge"><title>Box_GameModelInfo&#45;&gt;Box_NodeModelInfo</title>
<path fill="none" stroke="midnightblue" d="M154,-112.537C154,-103.423 154,-94.0497 154,-85.2525"/>
<polygon fill="none" stroke="midnightblue" points="150.5,-112.673 154,-122.673 157.5,-112.673 150.5,-112.673"/>
</g>
<!-- Box_GameObjectInfo -->
<g id="node3" class="node"><title>Box_GameObjectInfo</title>
<polygon fill="#fcfcda" stroke="black" points="28,-245 28,-379 280,-379 280,-245 28,-245"/>
<text text-anchor="middle" x="154" y="-367.8" font-family="Arial" font-size="8.00">GameObjectInfo</text>
<polyline fill="none" stroke="black" points="28,-361 280,-361 "/>
<text text-anchor="start" x="36" y="-349.8" font-family="Arial" font-size="8.00">+ IsMovable : bool</text>
<text text-anchor="start" x="36" y="-339.8" font-family="Arial" font-size="8.00">+ IsSelectable : bool</text>
<text text-anchor="start" x="36" y="-329.8" font-family="Arial" font-size="8.00">+ IsVisible : bool</text>
<text text-anchor="start" x="36" y="-319.8" font-family="Arial" font-size="8.00">+ Position : Vector3</text>
<polyline fill="none" stroke="black" points="28,-313 280,-313 "/>
<text text-anchor="start" x="36" y="-301.8" font-family="Arial" font-size="8.00">+ GameObjectInfo ()</text>
<text text-anchor="start" x="36" y="-291.8" font-family="Arial" font-size="8.00">+ operator (GameObjectInfo o1, GameObjectInfo o2) : bool static</text>
<text text-anchor="start" x="36" y="-281.8" font-family="Arial" font-size="8.00">+ Equals (Object obj) : bool</text>
<text text-anchor="start" x="36" y="-271.8" font-family="Arial" font-size="8.00">+ GetHashCode () : int</text>
<text text-anchor="start" x="36" y="-261.8" font-family="Arial" font-size="8.00">+ operator ! (GameObjectInfo o1, GameObjectInfo o2) : bool static</text>
<text text-anchor="start" x="36" y="-251.8" font-family="Arial" font-size="8.00">+ Equals (GameObjectInfo other) : bool virtual</text>
</g>
<!-- Box_GameObjectInfo&#45;&gt;Box_GameModelInfo -->
<g id="edge4" class="edge"><title>Box_GameObjectInfo&#45;&gt;Box_GameModelInfo</title>
<path fill="none" stroke="midnightblue" d="M154,-234.668C154,-225.194 154,-215.804 154,-207.132"/>
<polygon fill="none" stroke="midnightblue" points="150.5,-234.953 154,-244.953 157.5,-234.953 150.5,-234.953"/>
</g>
<!-- Box_IEquatable -->
<g id="node4" class="node"><title>Box_IEquatable</title>
<polygon fill="#ffffff" stroke="black" points="94,-417 94,-435 214,-435 214,-417 94,-417"/>
<text text-anchor="middle" x="154" y="-423.8" font-family="Arial" font-size="8.00">IEquatable&lt;GameObjectInfo&gt;</text>
</g>
<!-- Box_IEquatable&#45;&gt;Box_GameObjectInfo -->
<g id="edge6" class="edge"><title>Box_IEquatable&#45;&gt;Box_GameObjectInfo</title>
<path fill="none" stroke="midnightblue" d="M154,-406.57C154,-398.742 154,-389.21 154,-379.246"/>
<polygon fill="none" stroke="midnightblue" points="150.5,-406.671 154,-416.671 157.5,-406.671 150.5,-406.671"/>
</g>
</g>
</svg>
