<?xml version="1.0" encoding="UTF-8" standalone="no"?>
<!DOCTYPE svg PUBLIC "-//W3C//DTD SVG 1.1//EN"
 "http://www.w3.org/Graphics/SVG/1.1/DTD/svg11.dtd">
<!-- Generated by graphviz version 2.26.3 (20100126.1600)
 -->
<!-- Title: MenuItem Pages: 1 -->
<svg width="344pt" height="194pt"
 viewBox="0.00 0.00 344.00 194.00" xmlns="http://www.w3.org/2000/svg" xmlns:xlink="http://www.w3.org/1999/xlink">
<g id="graph1" class="graph" transform="scale(1 1) rotate(0) translate(4 190)">
<title>MenuItem</title>
<polygon fill="white" stroke="white" points="-4,5 -4,-190 341,-190 341,5 -4,5"/>
<!-- Box_Game -->
<g id="node1" class="node"><title>Box_Game</title>
<polygon fill="#fcfcda" stroke="black" points="-0.5,-1 -0.5,-185 166.5,-185 166.5,-1 -0.5,-1"/>
<text text-anchor="middle" x="83" y="-173.8" font-family="Arial" font-size="8.00">Game</text>
<polyline fill="none" stroke="black" points="-0.5,-167 166.5,-167 "/>
<text text-anchor="start" x="7.5" y="-155.8" font-family="Arial" font-size="8.00">+ IsFullscreen : bool</text>
<text text-anchor="start" x="7.5" y="-145.8" font-family="Arial" font-size="8.00">+ Debug : bool static</text>
<text text-anchor="start" x="7.5" y="-135.8" font-family="Arial" font-size="8.00">&#45; isFullscreen : bool</text>
<text text-anchor="start" x="7.5" y="-125.8" font-family="Arial" font-size="8.00">+ State : GameScreen</text>
<text text-anchor="start" x="7.5" y="-115.8" font-family="Arial" font-size="8.00">+ graphics : GraphicsDeviceManager</text>
<text text-anchor="start" x="7.5" y="-105.8" font-family="Arial" font-size="8.00">+ VSync : bool</text>
<polyline fill="none" stroke="black" points="-0.5,-99 166.5,-99 "/>
<text text-anchor="start" x="7.5" y="-87.8" font-family="Arial" font-size="8.00">+ DefaultSize (1280, 720) : Vector2 static</text>
<text text-anchor="start" x="7.5" y="-77.8" font-family="Arial" font-size="8.00"># Draw (GameTime time)</text>
<text text-anchor="start" x="7.5" y="-67.8" font-family="Arial" font-size="8.00"># LoadContent ()</text>
<text text-anchor="start" x="7.5" y="-57.8" font-family="Arial" font-size="8.00">+ Game ()</text>
<text text-anchor="start" x="7.5" y="-47.8" font-family="Arial" font-size="8.00">&#45; UpdateInput (GameTime time)</text>
<text text-anchor="start" x="7.5" y="-37.8" font-family="Arial" font-size="8.00"># Initialize ()</text>
<text text-anchor="start" x="7.5" y="-27.8" font-family="Arial" font-size="8.00"># UnloadContent ()</text>
<text text-anchor="start" x="7.5" y="-17.8" font-family="Arial" font-size="8.00"># Update (GameTime time)</text>
<text text-anchor="start" x="7.5" y="-7.8" font-family="Arial" font-size="8.00">+ Time (Action action) : TimeSpan static</text>
</g>
<!-- Box_Game&#45;&gt;Box_Game -->
<g id="edge2" class="edge"><title>Box_Game&#45;&gt;Box_Game</title>
<path fill="none" stroke="midnightblue" d="M174.908,-117.08C180.585,-111.387 184,-103.36 184,-93 184,-78.2656 177.092,-68.2509 166.594,-62.9557"/>
<polygon fill="none" stroke="midnightblue" points="172.679,-114.371 166.594,-123.044 176.76,-120.059 172.679,-114.371"/>
</g>
<!-- Box_MicrosoftXnaFrameworkGame -->
<g id="node2" class="node"><title>Box_MicrosoftXnaFrameworkGame</title>
<polygon fill="#ffffff" stroke="black" points="202,-84 202,-102 336,-102 336,-84 202,-84"/>
<text text-anchor="middle" x="269" y="-90.8" font-family="Arial" font-size="8.00">Microsoft.Xna.Framework.Game</text>
</g>
</g>
</svg>
