<?xml version="1.0" encoding="UTF-8" standalone="no"?>
<!DOCTYPE svg PUBLIC "-//W3C//DTD SVG 1.1//EN"
 "http://www.w3.org/Graphics/SVG/1.1/DTD/svg11.dtd">
<!-- Generated by graphviz version 2.26.3 (20100126.1600)
 -->
<!-- Title: MenuItem Pages: 1 -->
<svg width="718pt" height="848pt"
 viewBox="0.00 0.00 718.00 848.00" xmlns="http://www.w3.org/2000/svg" xmlns:xlink="http://www.w3.org/1999/xlink">
<g id="graph1" class="graph" transform="scale(1 1) rotate(0) translate(4 844)">
<title>MenuItem</title>
<polygon fill="white" stroke="white" points="-4,5 -4,-844 715,-844 715,5 -4,5"/>
<!-- Box_GameScreen -->
<g id="node1" class="node"><title>Box_GameScreen</title>
<polygon fill="#fcfcda" stroke="black" points="58.5,-616.5 58.5,-839.5 413.5,-839.5 413.5,-616.5 58.5,-616.5"/>
<text text-anchor="middle" x="236" y="-828.3" font-family="Arial" font-size="8.00">GameScreen</text>
<polyline fill="none" stroke="black" points="58.5,-821.5 413.5,-821.5 "/>
<text text-anchor="start" x="66.5" y="-810.3" font-family="Arial" font-size="8.00">+ content : ContentManager</text>
<text text-anchor="start" x="66.5" y="-800.3" font-family="Arial" font-size="8.00">+ NextState : GameScreen</text>
<text text-anchor="start" x="66.5" y="-790.3" font-family="Arial" font-size="8.00">+ device : GraphicsDevice</text>
<text text-anchor="start" x="66.5" y="-780.3" font-family="Arial" font-size="8.00">+ RenderEffects : RenderEffectStack</text>
<text text-anchor="start" x="66.5" y="-770.3" font-family="Arial" font-size="8.00">+ viewport : Viewport</text>
<text text-anchor="start" x="66.5" y="-760.3" font-family="Arial" font-size="8.00">+ graphics : GraphicsDeviceManager</text>
<text text-anchor="start" x="66.5" y="-750.3" font-family="Arial" font-size="8.00">+ input : InputManager</text>
<text text-anchor="start" x="66.5" y="-740.3" font-family="Arial" font-size="8.00">+ game : Knot3Game</text>
<text text-anchor="start" x="66.5" y="-730.3" font-family="Arial" font-size="8.00">+ PostProcessing : RenderEffect</text>
<polyline fill="none" stroke="black" points="58.5,-723.5 413.5,-723.5 "/>
<text text-anchor="start" x="66.5" y="-712.3" font-family="Arial" font-size="8.00">+ Draw (GameTime time) abstract</text>
<text text-anchor="start" x="66.5" y="-702.3" font-family="Arial" font-size="8.00">+ Initialize () abstract</text>
<text text-anchor="start" x="66.5" y="-692.3" font-family="Arial" font-size="8.00">+ Unload () abstract</text>
<text text-anchor="start" x="66.5" y="-682.3" font-family="Arial" font-size="8.00">+ Activate (GameTime time) virtual</text>
<text text-anchor="start" x="66.5" y="-672.3" font-family="Arial" font-size="8.00">+ GameScreen (Knot3Game game)</text>
<text text-anchor="start" x="66.5" y="-662.3" font-family="Arial" font-size="8.00">+ Update (GameTime time) abstract</text>
<text text-anchor="start" x="66.5" y="-652.3" font-family="Arial" font-size="8.00">+ Deactivate (GameTime time) virtual</text>
<text text-anchor="start" x="66.5" y="-642.3" font-family="Arial" font-size="8.00">+ AddGameComponents (GameTime time, params IGameScreenComponent[] components)</text>
<text text-anchor="start" x="66.5" y="-632.3" font-family="Arial" font-size="8.00">+ RemoveGameComponents (GameTime time, params IGameScreenComponent[] components)</text>
</g>
<!-- Box_CreativeModeScreen -->
<g id="node2" class="node"><title>Box_CreativeModeScreen</title>
<polygon fill="#fcfcda" stroke="black" points="53,-345 53,-579 223,-579 223,-345 53,-345"/>
<text text-anchor="middle" x="138" y="-567.8" font-family="Arial" font-size="8.00">CreativeModeScreen</text>
<polyline fill="none" stroke="black" points="53,-561 223,-561 "/>
<text text-anchor="start" x="61" y="-549.8" font-family="Arial" font-size="8.00">&#45; dialog : Dialog</text>
<text text-anchor="start" x="61" y="-539.8" font-family="Arial" font-size="8.00">&#45; coloring : EdgeColoring</text>
<text text-anchor="start" x="61" y="-529.8" font-family="Arial" font-size="8.00">&#45; movement : EdgeMovement</text>
<text text-anchor="start" x="61" y="-519.8" font-family="Arial" font-size="8.00">&#45; knotInput : KnotInputHandler</text>
<text text-anchor="start" x="61" y="-509.8" font-family="Arial" font-size="8.00">&#45; renderer : KnotRenderer</text>
<text text-anchor="start" x="61" y="-499.8" font-family="Arial" font-size="8.00">&#45; picker : ModelMouseHandler</text>
<text text-anchor="start" x="61" y="-489.8" font-family="Arial" font-size="8.00">&#45; pointer : MousePointer</text>
<text text-anchor="start" x="61" y="-479.8" font-family="Arial" font-size="8.00">&#45; overlay : Overlay</text>
<text text-anchor="start" x="61" y="-469.8" font-family="Arial" font-size="8.00">&#45; world : World</text>
<text text-anchor="start" x="61" y="-459.8" font-family="Arial" font-size="8.00">&#45; knotModified : bool</text>
<text text-anchor="start" x="61" y="-449.8" font-family="Arial" font-size="8.00">+ Knot : Knot</text>
<text text-anchor="start" x="61" y="-439.8" font-family="Arial" font-size="8.00">&#45; knot : Knot</text>
<polyline fill="none" stroke="black" points="53,-433 223,-433 "/>
<text text-anchor="start" x="61" y="-421.8" font-family="Arial" font-size="8.00">&#45; UpdateInput (GameTime time)</text>
<text text-anchor="start" x="61" y="-411.8" font-family="Arial" font-size="8.00">+ CreativeModeScreen (Core.Game game)</text>
<text text-anchor="start" x="61" y="-401.8" font-family="Arial" font-size="8.00">+ Activate (GameTime time)</text>
<text text-anchor="start" x="61" y="-391.8" font-family="Arial" font-size="8.00">+ Draw (GameTime time)</text>
<text text-anchor="start" x="61" y="-381.8" font-family="Arial" font-size="8.00">+ Initialize ()</text>
<text text-anchor="start" x="61" y="-371.8" font-family="Arial" font-size="8.00">+ LoadFile (string file)</text>
<text text-anchor="start" x="61" y="-361.8" font-family="Arial" font-size="8.00">+ Unload ()</text>
<text text-anchor="start" x="61" y="-351.8" font-family="Arial" font-size="8.00">+ Update (GameTime time)</text>
</g>
<!-- Box_GameScreen&#45;&gt;Box_CreativeModeScreen -->
<g id="edge2" class="edge"><title>Box_GameScreen&#45;&gt;Box_CreativeModeScreen</title>
<path fill="none" stroke="midnightblue" d="M191.366,-606.849C187.995,-597.701 184.597,-588.478 181.235,-579.353"/>
<polygon fill="none" stroke="midnightblue" points="188.124,-608.175 194.865,-616.348 194.692,-605.755 188.124,-608.175"/>
</g>
<!-- Box_MenuScreen -->
<g id="node3" class="node"><title>Box_MenuScreen</title>
<polygon fill="#fcfcda" stroke="black" points="241,-370 241,-554 429,-554 429,-370 241,-370"/>
<text text-anchor="middle" x="335" y="-542.8" font-family="Arial" font-size="8.00">MenuScreen</text>
<polyline fill="none" stroke="black" points="241,-536 429,-536 "/>
<text text-anchor="start" x="249" y="-524.8" font-family="Arial" font-size="8.00">&#45; backColor : Color</text>
<text text-anchor="start" x="249" y="-514.8" font-family="Arial" font-size="8.00">&#45; pointer : MousePointer</text>
<text text-anchor="start" x="249" y="-504.8" font-family="Arial" font-size="8.00"># LinePoints : List&lt;Vector2&gt;</text>
<text text-anchor="start" x="249" y="-494.8" font-family="Arial" font-size="8.00"># LineWidth : int</text>
<text text-anchor="start" x="249" y="-484.8" font-family="Arial" font-size="8.00">&#45; spriteBatch : SpriteBatch</text>
<polyline fill="none" stroke="black" points="241,-478 429,-478 "/>
<text text-anchor="start" x="249" y="-466.8" font-family="Arial" font-size="8.00">+ MenuScreen (Core.Knot3Game game)</text>
<text text-anchor="start" x="249" y="-456.8" font-family="Arial" font-size="8.00">+ Activate (GameTime time)</text>
<text text-anchor="start" x="249" y="-446.8" font-family="Arial" font-size="8.00">+ Draw (GameTime time)</text>
<text text-anchor="start" x="249" y="-436.8" font-family="Arial" font-size="8.00"># BackgroundColor (ItemState itemState) : Color</text>
<text text-anchor="start" x="249" y="-426.8" font-family="Arial" font-size="8.00"># ForegroundColor (ItemState itemState) : Color</text>
<text text-anchor="start" x="249" y="-416.8" font-family="Arial" font-size="8.00">+ DrawMenu (GameTime time) abstract</text>
<text text-anchor="start" x="249" y="-406.8" font-family="Arial" font-size="8.00">+ UpdateMenu (GameTime time) abstract</text>
<text text-anchor="start" x="249" y="-396.8" font-family="Arial" font-size="8.00">+ Initialize ()</text>
<text text-anchor="start" x="249" y="-386.8" font-family="Arial" font-size="8.00">+ Unload ()</text>
<text text-anchor="start" x="249" y="-376.8" font-family="Arial" font-size="8.00">+ Update (GameTime time)</text>
</g>
<!-- Box_GameScreen&#45;&gt;Box_MenuScreen -->
<g id="edge4" class="edge"><title>Box_GameScreen&#45;&gt;Box_MenuScreen</title>
<path fill="none" stroke="midnightblue" d="M281.192,-606.574C287.765,-588.915 294.439,-570.982 300.747,-554.033"/>
<polygon fill="none" stroke="midnightblue" points="277.763,-605.755 277.555,-616.348 284.323,-608.197 277.763,-605.755"/>
</g>
<!-- Box_StartScreen -->
<g id="node4" class="node"><title>Box_StartScreen</title>
<polygon fill="#fcfcda" stroke="black" points="-0.5,-173 -0.5,-287 138.5,-287 138.5,-173 -0.5,-173"/>
<text text-anchor="middle" x="69" y="-275.8" font-family="Arial" font-size="8.00">StartScreen</text>
<polyline fill="none" stroke="black" points="-0.5,-269 138.5,-269 "/>
<text text-anchor="start" x="7.5" y="-257.8" font-family="Arial" font-size="8.00">&#45; spriteBatch : SpriteBatch</text>
<text text-anchor="start" x="7.5" y="-247.8" font-family="Arial" font-size="8.00">&#45; logo : Texture2D</text>
<text text-anchor="start" x="7.5" y="-237.8" font-family="Arial" font-size="8.00"># menu : Menu</text>
<polyline fill="none" stroke="black" points="-0.5,-231 138.5,-231 "/>
<text text-anchor="start" x="7.5" y="-219.8" font-family="Arial" font-size="8.00">+ StartScreen (Knot3Game game)</text>
<text text-anchor="start" x="7.5" y="-209.8" font-family="Arial" font-size="8.00">+ Activate (GameTime time)</text>
<text text-anchor="start" x="7.5" y="-199.8" font-family="Arial" font-size="8.00">+ UpdateMenu (GameTime time)</text>
<text text-anchor="start" x="7.5" y="-189.8" font-family="Arial" font-size="8.00">+ DrawMenu (GameTime time)</text>
<text text-anchor="start" x="7.5" y="-179.8" font-family="Arial" font-size="8.00">+ Initialize ()</text>
</g>
<!-- Box_MenuScreen&#45;&gt;Box_StartScreen -->
<g id="edge6" class="edge"><title>Box_MenuScreen&#45;&gt;Box_StartScreen</title>
<path fill="none" stroke="midnightblue" d="M254.87,-362.853C247.502,-356.069 239.845,-349.683 232,-344 198.775,-319.933 181.022,-330.928 147,-308 137.948,-301.899 129.06,-294.649 120.712,-287.062"/>
<polygon fill="none" stroke="midnightblue" points="252.478,-365.409 262.139,-369.759 257.299,-360.334 252.478,-365.409"/>
</g>
<!-- Box_CreativeLoadScreen -->
<g id="node5" class="node"><title>Box_CreativeLoadScreen</title>
<polygon fill="#fcfcda" stroke="black" points="156,-153 156,-307 324,-307 324,-153 156,-153"/>
<text text-anchor="middle" x="240" y="-295.8" font-family="Arial" font-size="8.00">CreativeLoadScreen</text>
<polyline fill="none" stroke="black" points="156,-289 324,-289 "/>
<text text-anchor="start" x="164" y="-277.8" font-family="Arial" font-size="8.00">&#45; fileIndex : FileIndex</text>
<text text-anchor="start" x="164" y="-267.8" font-family="Arial" font-size="8.00">&#45; fileFormat : IKnotIO</text>
<text text-anchor="start" x="164" y="-257.8" font-family="Arial" font-size="8.00">&#45; spriteBatch : SpriteBatch</text>
<text text-anchor="start" x="164" y="-247.8" font-family="Arial" font-size="8.00">&#45; menu : VerticalMenu</text>
<polyline fill="none" stroke="black" points="156,-241 324,-241 "/>
<text text-anchor="start" x="164" y="-229.8" font-family="Arial" font-size="8.00">&#45; AddDefaultKnots ()</text>
<text text-anchor="start" x="164" y="-219.8" font-family="Arial" font-size="8.00">+ CreativeLoadScreen (Core.Game game)</text>
<text text-anchor="start" x="164" y="-209.8" font-family="Arial" font-size="8.00">+ Activate (GameTime time)</text>
<text text-anchor="start" x="164" y="-199.8" font-family="Arial" font-size="8.00">+ DrawMenu (GameTime time)</text>
<text text-anchor="start" x="164" y="-189.8" font-family="Arial" font-size="8.00">&#45; AddFileToList (string filename)</text>
<text text-anchor="start" x="164" y="-179.8" font-family="Arial" font-size="8.00">&#45; UpdateFiles ()</text>
<text text-anchor="start" x="164" y="-169.8" font-family="Arial" font-size="8.00">+ Initialize ()</text>
<text text-anchor="start" x="164" y="-159.8" font-family="Arial" font-size="8.00">+ UpdateMenu (GameTime time)</text>
</g>
<!-- Box_MenuScreen&#45;&gt;Box_CreativeLoadScreen -->
<g id="edge8" class="edge"><title>Box_MenuScreen&#45;&gt;Box_CreativeLoadScreen</title>
<path fill="none" stroke="midnightblue" d="M293.509,-360.674C286.185,-342.788 278.667,-324.429 271.668,-307.336"/>
<polygon fill="none" stroke="midnightblue" points="290.289,-362.046 297.317,-369.974 296.767,-359.394 290.289,-362.046"/>
</g>
<!-- Box_LoadSavegameScreen -->
<g id="node6" class="node"><title>Box_LoadSavegameScreen</title>
<polygon fill="#fcfcda" stroke="black" points="342,-153 342,-307 518,-307 518,-153 342,-153"/>
<text text-anchor="middle" x="430" y="-295.8" font-family="Arial" font-size="8.00">LoadSavegameScreen</text>
<polyline fill="none" stroke="black" points="342,-289 518,-289 "/>
<text text-anchor="start" x="350" y="-277.8" font-family="Arial" font-size="8.00">&#45; fileIndex : FileIndex</text>
<text text-anchor="start" x="350" y="-267.8" font-family="Arial" font-size="8.00">&#45; fileFormat : IKnotIO</text>
<text text-anchor="start" x="350" y="-257.8" font-family="Arial" font-size="8.00">&#45; spriteBatch : SpriteBatch</text>
<text text-anchor="start" x="350" y="-247.8" font-family="Arial" font-size="8.00">&#45; menu : VerticalMenu</text>
<polyline fill="none" stroke="black" points="342,-241 518,-241 "/>
<text text-anchor="start" x="350" y="-229.8" font-family="Arial" font-size="8.00">&#45; AddDefaultKnots ()</text>
<text text-anchor="start" x="350" y="-219.8" font-family="Arial" font-size="8.00">+ LoadSavegameScreen (Core.Game game)</text>
<text text-anchor="start" x="350" y="-209.8" font-family="Arial" font-size="8.00">+ Activate (GameTime time)</text>
<text text-anchor="start" x="350" y="-199.8" font-family="Arial" font-size="8.00">+ DrawMenu (GameTime time)</text>
<text text-anchor="start" x="350" y="-189.8" font-family="Arial" font-size="8.00">&#45; AddFileToList (string filename)</text>
<text text-anchor="start" x="350" y="-179.8" font-family="Arial" font-size="8.00">&#45; UpdateFiles ()</text>
<text text-anchor="start" x="350" y="-169.8" font-family="Arial" font-size="8.00">+ Initialize ()</text>
<text text-anchor="start" x="350" y="-159.8" font-family="Arial" font-size="8.00">+ UpdateMenu (GameTime time)</text>
</g>
<!-- Box_MenuScreen&#45;&gt;Box_LoadSavegameScreen -->
<g id="edge10" class="edge"><title>Box_MenuScreen&#45;&gt;Box_LoadSavegameScreen</title>
<path fill="none" stroke="midnightblue" d="M376.491,-360.674C383.815,-342.788 391.333,-324.429 398.332,-307.336"/>
<polygon fill="none" stroke="midnightblue" points="373.233,-359.394 372.683,-369.974 379.711,-362.046 373.233,-359.394"/>
</g>
<!-- Box_OptionScreen -->
<g id="node7" class="node"><title>Box_OptionScreen</title>
<polygon fill="#fcfcda" stroke="black" points="536,-178 536,-282 700,-282 700,-178 536,-178"/>
<text text-anchor="middle" x="618" y="-270.8" font-family="Arial" font-size="8.00">OptionScreen</text>
<polyline fill="none" stroke="black" points="536,-264 700,-264 "/>
<text text-anchor="start" x="544" y="-252.8" font-family="Arial" font-size="8.00">&#45; spriteBatch : SpriteBatch</text>
<text text-anchor="start" x="544" y="-242.8" font-family="Arial" font-size="8.00">&#45; menu : VerticalMenu</text>
<polyline fill="none" stroke="black" points="536,-236 700,-236 "/>
<text text-anchor="start" x="544" y="-224.8" font-family="Arial" font-size="8.00">+ OptionScreen (Core.Knot3Game game)</text>
<text text-anchor="start" x="544" y="-214.8" font-family="Arial" font-size="8.00">+ Activate (GameTime time)</text>
<text text-anchor="start" x="544" y="-204.8" font-family="Arial" font-size="8.00">+ DrawMenu (GameTime time)</text>
<text text-anchor="start" x="544" y="-194.8" font-family="Arial" font-size="8.00">+ UpdateMenu (GameTime time)</text>
<text text-anchor="start" x="544" y="-184.8" font-family="Arial" font-size="8.00">+ Initialize ()</text>
</g>
<!-- Box_MenuScreen&#45;&gt;Box_OptionScreen -->
<g id="edge12" class="edge"><title>Box_MenuScreen&#45;&gt;Box_OptionScreen</title>
<path fill="none" stroke="midnightblue" d="M437.386,-380.893C466.501,-357.555 498.136,-331.935 527,-308 536.931,-299.765 547.389,-290.944 557.536,-282.303"/>
<polygon fill="none" stroke="midnightblue" points="434.864,-378.43 429.245,-387.412 439.239,-383.894 434.864,-378.43"/>
</g>
<!-- Box_VideoOptionScreen -->
<g id="node8" class="node"><title>Box_VideoOptionScreen</title>
<polygon fill="#fcfcda" stroke="black" points="525.5,-1 525.5,-115 710.5,-115 710.5,-1 525.5,-1"/>
<text text-anchor="middle" x="618" y="-103.8" font-family="Arial" font-size="8.00">VideoOptionScreen</text>
<polyline fill="none" stroke="black" points="525.5,-97 710.5,-97 "/>
<text text-anchor="start" x="533.5" y="-85.8" font-family="Arial" font-size="8.00">&#45; spriteBatch : SpriteBatch</text>
<text text-anchor="start" x="533.5" y="-75.8" font-family="Arial" font-size="8.00">&#45; menu : VerticalMenu</text>
<polyline fill="none" stroke="black" points="525.5,-69 710.5,-69 "/>
<text text-anchor="start" x="533.5" y="-57.8" font-family="Arial" font-size="8.00">+ VideoOptionScreen (Core.Knot3Game game)</text>
<text text-anchor="start" x="533.5" y="-47.8" font-family="Arial" font-size="8.00">+ Activate (GameTime time)</text>
<text text-anchor="start" x="533.5" y="-37.8" font-family="Arial" font-size="8.00">+ DrawMenu (GameTime time)</text>
<text text-anchor="start" x="533.5" y="-27.8" font-family="Arial" font-size="8.00">+ Initialize ()</text>
<text text-anchor="start" x="533.5" y="-17.8" font-family="Arial" font-size="8.00">+ UpdateMenu (GameTime time)</text>
<text text-anchor="start" x="533.5" y="-7.8" font-family="Arial" font-size="8.00">+ Collapse (MenuItem item)</text>
</g>
<!-- Box_OptionScreen&#45;&gt;Box_VideoOptionScreen -->
<g id="edge14" class="edge"><title>Box_OptionScreen&#45;&gt;Box_VideoOptionScreen</title>
<path fill="none" stroke="midnightblue" d="M618,-167.505C618,-150.446 618,-132.05 618,-115.296"/>
<polygon fill="none" stroke="midnightblue" points="614.5,-167.928 618,-177.928 621.5,-167.928 614.5,-167.928"/>
</g>
</g>
</svg>
