<?xml version="1.0" encoding="UTF-8" standalone="no"?>
<!DOCTYPE svg PUBLIC "-//W3C//DTD SVG 1.1//EN"
 "http://www.w3.org/Graphics/SVG/1.1/DTD/svg11.dtd">
<!-- Generated by graphviz version 2.26.3 (20100126.1600)
 -->
<!-- Title: MenuItem Pages: 1 -->
<svg width="465pt" height="562pt"
 viewBox="0.00 0.00 465.00 562.00" xmlns="http://www.w3.org/2000/svg" xmlns:xlink="http://www.w3.org/1999/xlink">
<g id="graph1" class="graph" transform="scale(1 1) rotate(0) translate(4 558)">
<title>MenuItem</title>
<polygon fill="white" stroke="white" points="-4,5 -4,-558 462,-558 462,5 -4,5"/>
<!-- Box_Overlay -->
<g id="node1" class="node"><title>Box_Overlay</title>
<polygon fill="#fcfcda" stroke="black" points="110,-1 110,-265 412,-265 412,-1 110,-1"/>
<text text-anchor="middle" x="261" y="-253.8" font-family="Arial" font-size="8.00">Overlay</text>
<polyline fill="none" stroke="black" points="110,-247 412,-247 "/>
<text text-anchor="start" x="118" y="-235.8" font-family="Arial" font-size="8.00">&#45; effect : BasicEffect</text>
<text text-anchor="start" x="118" y="-225.8" font-family="Arial" font-size="8.00">&#45; _elapsed_time : float</text>
<text text-anchor="start" x="118" y="-215.8" font-family="Arial" font-size="8.00">&#45; _fps : int</text>
<text text-anchor="start" x="118" y="-205.8" font-family="Arial" font-size="8.00">&#45; World : World</text>
<text text-anchor="start" x="118" y="-195.8" font-family="Arial" font-size="8.00">+ HashtableWrapper : class</text>
<text text-anchor="start" x="118" y="-185.8" font-family="Arial" font-size="8.00">&#45; _total_frames : int</text>
<text text-anchor="start" x="118" y="-175.8" font-family="Arial" font-size="8.00">&#45; spriteBatch : SpriteBatch</text>
<text text-anchor="start" x="118" y="-165.8" font-family="Arial" font-size="8.00">&#45; font : SpriteFont</text>
<polyline fill="none" stroke="black" points="110,-159 412,-159 "/>
<text text-anchor="start" x="118" y="-147.8" font-family="Arial" font-size="8.00">&#45; profiler () : Hashtable static</text>
<text text-anchor="start" x="118" y="-137.8" font-family="Arial" font-size="8.00">+ Profiler () : HashtableWrapper static</text>
<text text-anchor="start" x="118" y="-127.8" font-family="Arial" font-size="8.00">&#45; DrawFPS (GameTime time)</text>
<text text-anchor="start" x="118" y="-117.8" font-family="Arial" font-size="8.00">&#45; DrawString (float n, int width, int height, Color color)</text>
<text text-anchor="start" x="118" y="-107.8" font-family="Arial" font-size="8.00">&#45; DrawVectorCoordinates (Vector3 vector, int width2, int width3, int width4, int</text>
<text text-anchor="start" x="118" y="-97.8" font-family="Arial" font-size="8.00">height)</text>
<text text-anchor="start" x="118" y="-87.8" font-family="Arial" font-size="8.00">&#45; UpdateFPS (GameTime time)</text>
<text text-anchor="start" x="118" y="-77.8" font-family="Arial" font-size="8.00">+ Overlay (GameScreen screen, World world)</text>
<text text-anchor="start" x="118" y="-67.8" font-family="Arial" font-size="8.00">+ Draw (GameTime time)</text>
<text text-anchor="start" x="118" y="-57.8" font-family="Arial" font-size="8.00">&#45; DrawCoordinates (GameTime time)</text>
<text text-anchor="start" x="118" y="-47.8" font-family="Arial" font-size="8.00">&#45; DrawOverlay (GameTime time)</text>
<text text-anchor="start" x="118" y="-37.8" font-family="Arial" font-size="8.00">&#45; DrawProfiler (GameTime time)</text>
<text text-anchor="start" x="118" y="-27.8" font-family="Arial" font-size="8.00">&#45; DrawString (string str, int width, int height, Color color)</text>
<text text-anchor="start" x="118" y="-17.8" font-family="Arial" font-size="8.00"># LoadContent ()</text>
<text text-anchor="start" x="118" y="-7.8" font-family="Arial" font-size="8.00">+ Update (GameTime time)</text>
</g>
<!-- Box_DrawableGameScreenComponent -->
<g id="node2" class="node"><title>Box_DrawableGameScreenComponent</title>
<polygon fill="#fcfcda" stroke="black" points="102.5,-303 102.5,-387 419.5,-387 419.5,-303 102.5,-303"/>
<text text-anchor="middle" x="261" y="-375.8" font-family="Arial" font-size="8.00">DrawableGameScreenComponent</text>
<polyline fill="none" stroke="black" points="102.5,-369 419.5,-369 "/>
<text text-anchor="start" x="110.5" y="-357.8" font-family="Arial" font-size="8.00">+ Index : DisplayLayer</text>
<text text-anchor="start" x="110.5" y="-347.8" font-family="Arial" font-size="8.00">&#45; _index : DisplayLayer</text>
<text text-anchor="start" x="110.5" y="-337.8" font-family="Arial" font-size="8.00">+ screen : GameScreen</text>
<polyline fill="none" stroke="black" points="102.5,-331 419.5,-331 "/>
<text text-anchor="start" x="110.5" y="-319.8" font-family="Arial" font-size="8.00">+ DrawableGameScreenComponent (GameScreen screen, DisplayLayer index)</text>
<text text-anchor="start" x="110.5" y="-309.8" font-family="Arial" font-size="8.00">+ SubComponents (GameTime time) : IEnumerable&lt;IGameScreenComponent&gt; virtual</text>
</g>
<!-- Box_DrawableGameScreenComponent&#45;&gt;Box_Overlay -->
<g id="edge2" class="edge"><title>Box_DrawableGameScreenComponent&#45;&gt;Box_Overlay</title>
<path fill="none" stroke="midnightblue" d="M261,-292.651C261,-283.998 261,-274.697 261,-265.091"/>
<polygon fill="none" stroke="midnightblue" points="257.5,-292.862 261,-302.862 264.5,-292.862 257.5,-292.862"/>
</g>
<!-- Box_IGameScreenComponent -->
<g id="node3" class="node"><title>Box_IGameScreenComponent</title>
<polygon fill="#dafcda" stroke="black" points="-0.5,-425 -0.5,-479 292.5,-479 292.5,-425 -0.5,-425"/>
<text text-anchor="middle" x="146" y="-467.8" font-family="Arial" font-size="8.00">IGameScreenComponent</text>
<polyline fill="none" stroke="black" points="-0.5,-461 292.5,-461 "/>
<text text-anchor="start" x="7.5" y="-449.8" font-family="Arial" font-size="8.00">+ Index : DisplayLayer</text>
<polyline fill="none" stroke="black" points="-0.5,-443 292.5,-443 "/>
<text text-anchor="start" x="7.5" y="-431.8" font-family="Arial" font-size="8.00">+ SubComponents (GameTime time) : IEnumerable&lt;IGameScreenComponent&gt;</text>
</g>
<!-- Box_IGameScreenComponent&#45;&gt;Box_DrawableGameScreenComponent -->
<g id="edge6" class="edge"><title>Box_IGameScreenComponent&#45;&gt;Box_DrawableGameScreenComponent</title>
<path fill="none" stroke="midnightblue" d="M182.433,-418.102C192.91,-408.354 204.469,-397.598 215.425,-387.404"/>
<polygon fill="none" stroke="midnightblue" points="179.956,-415.625 175.019,-424.999 184.725,-420.75 179.956,-415.625"/>
</g>
<!-- Box_XnaDrawableGameComponent -->
<g id="node4" class="node"><title>Box_XnaDrawableGameComponent</title>
<polygon fill="#ffffff" stroke="black" points="213,-526 213,-544 343,-544 343,-526 213,-526"/>
<text text-anchor="middle" x="278" y="-532.8" font-family="Arial" font-size="8.00">Xna.DrawableGameComponent</text>
</g>
<!-- Box_XnaIGameComponent -->
<g id="node5" class="node"><title>Box_XnaIGameComponent</title>
<polygon fill="#ffffff" stroke="black" points="361,-526 361,-544 457,-544 457,-526 361,-526"/>
<text text-anchor="middle" x="409" y="-532.8" font-family="Arial" font-size="8.00">Xna.IGameComponent</text>
</g>
<!-- Box_DrawableGameComponent -->
<g id="node7" class="node"><title>Box_DrawableGameComponent</title>
<polygon fill="none" stroke="black" points="310,-434 310,-470 442,-470 442,-434 310,-434"/>
<text text-anchor="middle" x="376" y="-449.8" font-family="Arial" font-size="8.00">Box_DrawableGameComponent</text>
</g>
<!-- Box_DrawableGameComponent&#45;&gt;Box_DrawableGameScreenComponent -->
<g id="edge4" class="edge"><title>Box_DrawableGameComponent&#45;&gt;Box_DrawableGameScreenComponent</title>
<path fill="none" stroke="midnightblue" d="M348.993,-426.871C336.316,-415.076 320.857,-400.693 306.454,-387.292"/>
<polygon fill="none" stroke="midnightblue" points="346.787,-429.599 356.492,-433.849 351.555,-424.475 346.787,-429.599"/>
</g>
<!-- Box_IGameComponent -->
<g id="node10" class="node"><title>Box_IGameComponent</title>
<polygon fill="none" stroke="black" points="97,-517 97,-553 195,-553 195,-517 97,-517"/>
<text text-anchor="middle" x="146" y="-532.8" font-family="Arial" font-size="8.00">Box_IGameComponent</text>
</g>
<!-- Box_IGameComponent&#45;&gt;Box_IGameScreenComponent -->
<g id="edge8" class="edge"><title>Box_IGameComponent&#45;&gt;Box_IGameScreenComponent</title>
<path fill="none" stroke="midnightblue" d="M146,-506.987C146,-497.995 146,-488.055 146,-479.127"/>
<polygon fill="none" stroke="midnightblue" points="142.5,-506.99 146,-516.99 149.5,-506.99 142.5,-506.99"/>
</g>
</g>
</svg>
