<?xml version="1.0" encoding="UTF-8" standalone="no"?>
<!DOCTYPE svg PUBLIC "-//W3C//DTD SVG 1.1//EN"
 "http://www.w3.org/Graphics/SVG/1.1/DTD/svg11.dtd">
<!-- Generated by graphviz version 2.26.3 (20100126.1600)
 -->
<!-- Title: MenuItem Pages: 1 -->
<svg width="700pt" height="432pt"
 viewBox="0.00 0.00 700.00 432.00" xmlns="http://www.w3.org/2000/svg" xmlns:xlink="http://www.w3.org/1999/xlink">
<g id="graph1" class="graph" transform="scale(1 1) rotate(0) translate(4 428)">
<title>MenuItem</title>
<polygon fill="white" stroke="white" points="-4,5 -4,-428 697,-428 697,5 -4,5"/>
<!-- Box_KnotInputHandler -->
<g id="node1" class="node"><title>Box_KnotInputHandler</title>
<polygon fill="#fcfcda" stroke="black" points="273.5,-1 273.5,-145 538.5,-145 538.5,-1 273.5,-1"/>
<text text-anchor="middle" x="406" y="-133.8" font-family="Arial" font-size="8.00">KnotInputHandler</text>
<polyline fill="none" stroke="black" points="273.5,-127 538.5,-127 "/>
<text text-anchor="start" x="281.5" y="-115.8" font-family="Arial" font-size="8.00">&#45; wasdSpeed : int</text>
<text text-anchor="start" x="281.5" y="-105.8" font-family="Arial" font-size="8.00">&#45; camera : Camera</text>
<text text-anchor="start" x="281.5" y="-95.8" font-family="Arial" font-size="8.00">&#45; World : World</text>
<text text-anchor="start" x="281.5" y="-85.8" font-family="Arial" font-size="8.00">+ ValidKeys : List&lt;Keys&gt;</text>
<text text-anchor="start" x="281.5" y="-75.8" font-family="Arial" font-size="8.00">+ IsKeyEventEnabled : bool</text>
<polyline fill="none" stroke="black" points="273.5,-69 538.5,-69 "/>
<text text-anchor="start" x="281.5" y="-57.8" font-family="Arial" font-size="8.00"># UpdateMouse (GameTime time)</text>
<text text-anchor="start" x="281.5" y="-47.8" font-family="Arial" font-size="8.00">+ KnotInputHandler (GameScreen screen, World world)</text>
<text text-anchor="start" x="281.5" y="-37.8" font-family="Arial" font-size="8.00">+ OnKeyEvent (List&lt;Keys&gt; key, KeyEvent keyEvent, GameTime time)</text>
<text text-anchor="start" x="281.5" y="-27.8" font-family="Arial" font-size="8.00">&#45; ResetMousePosition ()</text>
<text text-anchor="start" x="281.5" y="-17.8" font-family="Arial" font-size="8.00"># UpdateKeys (GameTime time)</text>
<text text-anchor="start" x="281.5" y="-7.8" font-family="Arial" font-size="8.00">+ Update (GameTime time)</text>
</g>
<!-- Box_GameScreenComponent -->
<g id="node2" class="node"><title>Box_GameScreenComponent</title>
<polygon fill="#fcfcda" stroke="black" points="93.5,-183 93.5,-257 410.5,-257 410.5,-183 93.5,-183"/>
<text text-anchor="middle" x="252" y="-245.8" font-family="Arial" font-size="8.00">GameScreenComponent</text>
<polyline fill="none" stroke="black" points="93.5,-239 410.5,-239 "/>
<text text-anchor="start" x="101.5" y="-227.8" font-family="Arial" font-size="8.00">+ Index : DisplayLayer</text>
<text text-anchor="start" x="101.5" y="-217.8" font-family="Arial" font-size="8.00">+ screen : GameScreen</text>
<polyline fill="none" stroke="black" points="93.5,-211 410.5,-211 "/>
<text text-anchor="start" x="101.5" y="-199.8" font-family="Arial" font-size="8.00">+ GameScreenComponent (GameScreen screen, DisplayLayer index)</text>
<text text-anchor="start" x="101.5" y="-189.8" font-family="Arial" font-size="8.00">+ SubComponents (GameTime time) : IEnumerable&lt;IGameScreenComponent&gt; virtual</text>
</g>
<!-- Box_GameScreenComponent&#45;&gt;Box_KnotInputHandler -->
<g id="edge2" class="edge"><title>Box_GameScreenComponent&#45;&gt;Box_KnotInputHandler</title>
<path fill="none" stroke="midnightblue" d="M298.141,-175.956C308.369,-166.194 319.467,-155.6 330.523,-145.047"/>
<polygon fill="none" stroke="midnightblue" points="295.678,-173.469 290.861,-182.906 300.511,-178.533 295.678,-173.469"/>
</g>
<!-- Box_IGameScreenComponent -->
<g id="node3" class="node"><title>Box_IGameScreenComponent</title>
<polygon fill="#dafcda" stroke="black" points="-0.5,-295 -0.5,-349 292.5,-349 292.5,-295 -0.5,-295"/>
<text text-anchor="middle" x="146" y="-337.8" font-family="Arial" font-size="8.00">IGameScreenComponent</text>
<polyline fill="none" stroke="black" points="-0.5,-331 292.5,-331 "/>
<text text-anchor="start" x="7.5" y="-319.8" font-family="Arial" font-size="8.00">+ Index : DisplayLayer</text>
<polyline fill="none" stroke="black" points="-0.5,-313 292.5,-313 "/>
<text text-anchor="start" x="7.5" y="-301.8" font-family="Arial" font-size="8.00">+ SubComponents (GameTime time) : IEnumerable&lt;IGameScreenComponent&gt;</text>
</g>
<!-- Box_IGameScreenComponent&#45;&gt;Box_GameScreenComponent -->
<g id="edge8" class="edge"><title>Box_IGameScreenComponent&#45;&gt;Box_GameScreenComponent</title>
<path fill="none" stroke="midnightblue" d="M181.399,-287.937C191.66,-278.063 202.915,-267.233 213.364,-257.178"/>
<polygon fill="none" stroke="midnightblue" points="178.907,-285.478 174.128,-294.934 183.76,-290.522 178.907,-285.478"/>
</g>
<!-- Box_IKeyEventListener -->
<g id="node4" class="node"><title>Box_IKeyEventListener</title>
<polygon fill="#dafcda" stroke="black" points="427.5,-183 427.5,-257 692.5,-257 692.5,-183 427.5,-183"/>
<text text-anchor="middle" x="560" y="-245.8" font-family="Arial" font-size="8.00">IKeyEventListener</text>
<polyline fill="none" stroke="black" points="427.5,-239 692.5,-239 "/>
<text text-anchor="start" x="435.5" y="-227.8" font-family="Arial" font-size="8.00">+ ValidKeys : List&lt;Keys&gt;</text>
<text text-anchor="start" x="435.5" y="-217.8" font-family="Arial" font-size="8.00">+ Index : DisplayLayer</text>
<text text-anchor="start" x="435.5" y="-207.8" font-family="Arial" font-size="8.00">+ IsKeyEventEnabled : bool</text>
<polyline fill="none" stroke="black" points="427.5,-201 692.5,-201 "/>
<text text-anchor="start" x="435.5" y="-189.8" font-family="Arial" font-size="8.00">+ OnKeyEvent (List&lt;Keys&gt; key, KeyEvent keyEvent, GameTime time)</text>
</g>
<!-- Box_IKeyEventListener&#45;&gt;Box_KnotInputHandler -->
<g id="edge4" class="edge"><title>Box_IKeyEventListener&#45;&gt;Box_KnotInputHandler</title>
<path fill="none" stroke="midnightblue" d="M513.859,-175.956C503.631,-166.194 492.533,-155.6 481.477,-145.047"/>
<polygon fill="none" stroke="midnightblue" points="511.489,-178.533 521.139,-182.906 516.322,-173.469 511.489,-178.533"/>
</g>
<!-- Box_XnaGameComponent -->
<g id="node5" class="node"><title>Box_XnaGameComponent</title>
<polygon fill="#ffffff" stroke="black" points="212.5,-396 212.5,-414 307.5,-414 307.5,-396 212.5,-396"/>
<text text-anchor="middle" x="260" y="-402.8" font-family="Arial" font-size="8.00">Xna.GameComponent</text>
</g>
<!-- Box_XnaIGameComponent -->
<g id="node6" class="node"><title>Box_XnaIGameComponent</title>
<polygon fill="#ffffff" stroke="black" points="325,-396 325,-414 421,-414 421,-396 325,-396"/>
<text text-anchor="middle" x="373" y="-402.8" font-family="Arial" font-size="8.00">Xna.IGameComponent</text>
</g>
<!-- Box_GameComponent -->
<g id="node9" class="node"><title>Box_GameComponent</title>
<polygon fill="none" stroke="black" points="309.5,-304 309.5,-340 406.5,-340 406.5,-304 309.5,-304"/>
<text text-anchor="middle" x="358" y="-319.8" font-family="Arial" font-size="8.00">Box_GameComponent</text>
</g>
<!-- Box_GameComponent&#45;&gt;Box_GameScreenComponent -->
<g id="edge6" class="edge"><title>Box_GameComponent&#45;&gt;Box_GameScreenComponent</title>
<path fill="none" stroke="midnightblue" d="M331.696,-296.688C319.279,-284.74 304.216,-270.245 290.543,-257.088"/>
<polygon fill="none" stroke="midnightblue" points="329.417,-299.353 339.049,-303.764 334.27,-294.309 329.417,-299.353"/>
</g>
<!-- Box_IGameComponent -->
<g id="node12" class="node"><title>Box_IGameComponent</title>
<polygon fill="none" stroke="black" points="97,-387 97,-423 195,-423 195,-387 97,-387"/>
<text text-anchor="middle" x="146" y="-402.8" font-family="Arial" font-size="8.00">Box_IGameComponent</text>
</g>
<!-- Box_IGameComponent&#45;&gt;Box_IGameScreenComponent -->
<g id="edge10" class="edge"><title>Box_IGameComponent&#45;&gt;Box_IGameScreenComponent</title>
<path fill="none" stroke="midnightblue" d="M146,-376.987C146,-367.995 146,-358.055 146,-349.127"/>
<polygon fill="none" stroke="midnightblue" points="142.5,-376.99 146,-386.99 149.5,-376.99 142.5,-376.99"/>
</g>
</g>
</svg>
