<?xml version="1.0" encoding="UTF-8" standalone="no"?>
<!DOCTYPE svg PUBLIC "-//W3C//DTD SVG 1.1//EN"
 "http://www.w3.org/Graphics/SVG/1.1/DTD/svg11.dtd">
<!-- Generated by graphviz version 2.26.3 (20100126.1600)
 -->
<!-- Title: MenuItem Pages: 1 -->
<svg width="700pt" height="382pt"
 viewBox="0.00 0.00 700.00 382.00" xmlns="http://www.w3.org/2000/svg" xmlns:xlink="http://www.w3.org/1999/xlink">
<g id="graph1" class="graph" transform="scale(1 1) rotate(0) translate(4 378)">
<title>MenuItem</title>
<polygon fill="white" stroke="white" points="-4,5 -4,-378 697,-378 697,5 -4,5"/>
<!-- Box_EdgeColoring -->
<g id="node1" class="node"><title>Box_EdgeColoring</title>
<polygon fill="#fcfcda" stroke="black" points="273.5,-1 273.5,-95 538.5,-95 538.5,-1 273.5,-1"/>
<text text-anchor="middle" x="406" y="-83.8" font-family="Arial" font-size="8.00">EdgeColoring</text>
<polyline fill="none" stroke="black" points="273.5,-77 538.5,-77 "/>
<text text-anchor="start" x="281.5" y="-65.8" font-family="Arial" font-size="8.00">+ ValidKeys : List&lt;Keys&gt;</text>
<text text-anchor="start" x="281.5" y="-55.8" font-family="Arial" font-size="8.00">+ Knot : Knot</text>
<text text-anchor="start" x="281.5" y="-45.8" font-family="Arial" font-size="8.00">+ IsKeyEventEnabled : bool</text>
<polyline fill="none" stroke="black" points="273.5,-39 538.5,-39 "/>
<text text-anchor="start" x="281.5" y="-27.8" font-family="Arial" font-size="8.00">+ OnKeyEvent (List&lt;Keys&gt; key, KeyEvent keyEvent, GameTime time)</text>
<text text-anchor="start" x="281.5" y="-17.8" font-family="Arial" font-size="8.00">+ EdgeColoring (GameScreen screen)</text>
<text text-anchor="start" x="281.5" y="-7.8" font-family="Arial" font-size="8.00">+ Update (GameTime time)</text>
</g>
<!-- Box_GameScreenComponent -->
<g id="node2" class="node"><title>Box_GameScreenComponent</title>
<polygon fill="#fcfcda" stroke="black" points="93.5,-133 93.5,-207 410.5,-207 410.5,-133 93.5,-133"/>
<text text-anchor="middle" x="252" y="-195.8" font-family="Arial" font-size="8.00">GameScreenComponent</text>
<polyline fill="none" stroke="black" points="93.5,-189 410.5,-189 "/>
<text text-anchor="start" x="101.5" y="-177.8" font-family="Arial" font-size="8.00">+ Index : DisplayLayer</text>
<text text-anchor="start" x="101.5" y="-167.8" font-family="Arial" font-size="8.00">+ screen : GameScreen</text>
<polyline fill="none" stroke="black" points="93.5,-161 410.5,-161 "/>
<text text-anchor="start" x="101.5" y="-149.8" font-family="Arial" font-size="8.00">+ GameScreenComponent (GameScreen screen, DisplayLayer index)</text>
<text text-anchor="start" x="101.5" y="-139.8" font-family="Arial" font-size="8.00">+ SubComponents (GameTime time) : IEnumerable&lt;IGameScreenComponent&gt; virtual</text>
</g>
<!-- Box_GameScreenComponent&#45;&gt;Box_EdgeColoring -->
<g id="edge2" class="edge"><title>Box_GameScreenComponent&#45;&gt;Box_EdgeColoring</title>
<path fill="none" stroke="midnightblue" d="M306.894,-126.513C319.713,-116.358 333.425,-105.495 346.435,-95.1875"/>
<polygon fill="none" stroke="midnightblue" points="304.707,-123.78 299.042,-132.733 309.054,-129.267 304.707,-123.78"/>
</g>
<!-- Box_IGameScreenComponent -->
<g id="node3" class="node"><title>Box_IGameScreenComponent</title>
<polygon fill="#dafcda" stroke="black" points="-0.5,-245 -0.5,-299 292.5,-299 292.5,-245 -0.5,-245"/>
<text text-anchor="middle" x="146" y="-287.8" font-family="Arial" font-size="8.00">IGameScreenComponent</text>
<polyline fill="none" stroke="black" points="-0.5,-281 292.5,-281 "/>
<text text-anchor="start" x="7.5" y="-269.8" font-family="Arial" font-size="8.00">+ Index : DisplayLayer</text>
<polyline fill="none" stroke="black" points="-0.5,-263 292.5,-263 "/>
<text text-anchor="start" x="7.5" y="-251.8" font-family="Arial" font-size="8.00">+ SubComponents (GameTime time) : IEnumerable&lt;IGameScreenComponent&gt;</text>
</g>
<!-- Box_IGameScreenComponent&#45;&gt;Box_GameScreenComponent -->
<g id="edge8" class="edge"><title>Box_IGameScreenComponent&#45;&gt;Box_GameScreenComponent</title>
<path fill="none" stroke="midnightblue" d="M181.399,-237.937C191.66,-228.063 202.915,-217.233 213.364,-207.178"/>
<polygon fill="none" stroke="midnightblue" points="178.907,-235.478 174.128,-244.934 183.76,-240.522 178.907,-235.478"/>
</g>
<!-- Box_IKeyEventListener -->
<g id="node4" class="node"><title>Box_IKeyEventListener</title>
<polygon fill="#dafcda" stroke="black" points="427.5,-133 427.5,-207 692.5,-207 692.5,-133 427.5,-133"/>
<text text-anchor="middle" x="560" y="-195.8" font-family="Arial" font-size="8.00">IKeyEventListener</text>
<polyline fill="none" stroke="black" points="427.5,-189 692.5,-189 "/>
<text text-anchor="start" x="435.5" y="-177.8" font-family="Arial" font-size="8.00">+ ValidKeys : List&lt;Keys&gt;</text>
<text text-anchor="start" x="435.5" y="-167.8" font-family="Arial" font-size="8.00">+ Index : DisplayLayer</text>
<text text-anchor="start" x="435.5" y="-157.8" font-family="Arial" font-size="8.00">+ IsKeyEventEnabled : bool</text>
<polyline fill="none" stroke="black" points="427.5,-151 692.5,-151 "/>
<text text-anchor="start" x="435.5" y="-139.8" font-family="Arial" font-size="8.00">+ OnKeyEvent (List&lt;Keys&gt; key, KeyEvent keyEvent, GameTime time)</text>
</g>
<!-- Box_IKeyEventListener&#45;&gt;Box_EdgeColoring -->
<g id="edge4" class="edge"><title>Box_IKeyEventListener&#45;&gt;Box_EdgeColoring</title>
<path fill="none" stroke="midnightblue" d="M505.106,-126.513C492.287,-116.358 478.575,-105.495 465.565,-95.1875"/>
<polygon fill="none" stroke="midnightblue" points="502.946,-129.267 512.958,-132.733 507.293,-123.78 502.946,-129.267"/>
</g>
<!-- Box_XnaGameComponent -->
<g id="node5" class="node"><title>Box_XnaGameComponent</title>
<polygon fill="#ffffff" stroke="black" points="212.5,-346 212.5,-364 307.5,-364 307.5,-346 212.5,-346"/>
<text text-anchor="middle" x="260" y="-352.8" font-family="Arial" font-size="8.00">Xna.GameComponent</text>
</g>
<!-- Box_XnaIGameComponent -->
<g id="node6" class="node"><title>Box_XnaIGameComponent</title>
<polygon fill="#ffffff" stroke="black" points="325,-346 325,-364 421,-364 421,-346 325,-346"/>
<text text-anchor="middle" x="373" y="-352.8" font-family="Arial" font-size="8.00">Xna.IGameComponent</text>
</g>
<!-- Box_GameComponent -->
<g id="node9" class="node"><title>Box_GameComponent</title>
<polygon fill="none" stroke="black" points="309.5,-254 309.5,-290 406.5,-290 406.5,-254 309.5,-254"/>
<text text-anchor="middle" x="358" y="-269.8" font-family="Arial" font-size="8.00">Box_GameComponent</text>
</g>
<!-- Box_GameComponent&#45;&gt;Box_GameScreenComponent -->
<g id="edge6" class="edge"><title>Box_GameComponent&#45;&gt;Box_GameScreenComponent</title>
<path fill="none" stroke="midnightblue" d="M331.696,-246.688C319.279,-234.74 304.216,-220.245 290.543,-207.088"/>
<polygon fill="none" stroke="midnightblue" points="329.417,-249.353 339.049,-253.764 334.27,-244.309 329.417,-249.353"/>
</g>
<!-- Box_IGameComponent -->
<g id="node12" class="node"><title>Box_IGameComponent</title>
<polygon fill="none" stroke="black" points="97,-337 97,-373 195,-373 195,-337 97,-337"/>
<text text-anchor="middle" x="146" y="-352.8" font-family="Arial" font-size="8.00">Box_IGameComponent</text>
</g>
<!-- Box_IGameComponent&#45;&gt;Box_IGameScreenComponent -->
<g id="edge10" class="edge"><title>Box_IGameComponent&#45;&gt;Box_IGameScreenComponent</title>
<path fill="none" stroke="midnightblue" d="M146,-326.987C146,-317.995 146,-308.055 146,-299.127"/>
<polygon fill="none" stroke="midnightblue" points="142.5,-326.99 146,-336.99 149.5,-326.99 142.5,-326.99"/>
</g>
</g>
</svg>
