<?xml version="1.0" encoding="UTF-8" standalone="no"?>
<!DOCTYPE svg PUBLIC "-//W3C//DTD SVG 1.1//EN"
 "http://www.w3.org/Graphics/SVG/1.1/DTD/svg11.dtd">
<!-- Generated by graphviz version 2.26.3 (20100126.1600)
 -->
<!-- Title: MenuItem Pages: 1 -->
<svg width="914pt" height="504pt"
 viewBox="0.00 0.00 914.00 504.00" xmlns="http://www.w3.org/2000/svg" xmlns:xlink="http://www.w3.org/1999/xlink">
<g id="graph1" class="graph" transform="scale(1 1) rotate(0) translate(4 500)">
<title>MenuItem</title>
<polygon fill="white" stroke="white" points="-4,5 -4,-500 911,-500 911,5 -4,5"/>
<!-- Box_GameObjectInfo -->
<g id="node1" class="node"><title>Box_GameObjectInfo</title>
<polygon fill="#fcfcda" stroke="black" points="443,-305 443,-439 695,-439 695,-305 443,-305"/>
<text text-anchor="middle" x="569" y="-427.8" font-family="Arial" font-size="8.00">GameObjectInfo</text>
<polyline fill="none" stroke="black" points="443,-421 695,-421 "/>
<text text-anchor="start" x="451" y="-409.8" font-family="Arial" font-size="8.00">+ IsMovable : bool</text>
<text text-anchor="start" x="451" y="-399.8" font-family="Arial" font-size="8.00">+ IsSelectable : bool</text>
<text text-anchor="start" x="451" y="-389.8" font-family="Arial" font-size="8.00">+ IsVisible : bool</text>
<text text-anchor="start" x="451" y="-379.8" font-family="Arial" font-size="8.00">+ Position : Vector3</text>
<polyline fill="none" stroke="black" points="443,-373 695,-373 "/>
<text text-anchor="start" x="451" y="-361.8" font-family="Arial" font-size="8.00">+ GameObjectInfo ()</text>
<text text-anchor="start" x="451" y="-351.8" font-family="Arial" font-size="8.00">+ operator (GameObjectInfo o1, GameObjectInfo o2) : bool static</text>
<text text-anchor="start" x="451" y="-341.8" font-family="Arial" font-size="8.00">+ Equals (Object obj) : bool</text>
<text text-anchor="start" x="451" y="-331.8" font-family="Arial" font-size="8.00">+ GetHashCode () : int</text>
<text text-anchor="start" x="451" y="-321.8" font-family="Arial" font-size="8.00">+ operator ! (GameObjectInfo o1, GameObjectInfo o2) : bool static</text>
<text text-anchor="start" x="451" y="-311.8" font-family="Arial" font-size="8.00">+ Equals (GameObjectInfo other) : bool virtual</text>
</g>
<!-- Box_GameModelInfo -->
<g id="node2" class="node"><title>Box_GameModelInfo</title>
<polygon fill="#fcfcda" stroke="black" points="368,-168 368,-252 524,-252 524,-168 368,-168"/>
<text text-anchor="middle" x="446" y="-240.8" font-family="Arial" font-size="8.00">GameModelInfo</text>
<polyline fill="none" stroke="black" points="368,-234 524,-234 "/>
<text text-anchor="start" x="376" y="-222.8" font-family="Arial" font-size="8.00">+ Rotation : Angles3</text>
<text text-anchor="start" x="376" y="-212.8" font-family="Arial" font-size="8.00">+ Scale : Vector3</text>
<text text-anchor="start" x="376" y="-202.8" font-family="Arial" font-size="8.00">+ Modelname : string</text>
<polyline fill="none" stroke="black" points="368,-196 524,-196 "/>
<text text-anchor="start" x="376" y="-184.8" font-family="Arial" font-size="8.00">+ GameModelInfo (string modelname)</text>
<text text-anchor="start" x="376" y="-174.8" font-family="Arial" font-size="8.00">+ Equals (GameObjectInfo other) : bool</text>
</g>
<!-- Box_GameObjectInfo&#45;&gt;Box_GameModelInfo -->
<g id="edge4" class="edge"><title>Box_GameObjectInfo&#45;&gt;Box_GameModelInfo</title>
<path fill="none" stroke="midnightblue" d="M511.554,-296.339C500.068,-281.211 488.392,-265.833 478.139,-252.329"/>
<polygon fill="none" stroke="midnightblue" points="509.071,-298.857 517.905,-304.705 514.646,-294.624 509.071,-298.857"/>
</g>
<!-- Box_TexturedRectangleInfo -->
<g id="node6" class="node"><title>Box_TexturedRectangleInfo</title>
<polygon fill="#fcfcda" stroke="black" points="542,-153 542,-267 842,-267 842,-153 542,-153"/>
<text text-anchor="middle" x="692" y="-255.8" font-family="Arial" font-size="8.00">TexturedRectangleInfo</text>
<polyline fill="none" stroke="black" points="542,-249 842,-249 "/>
<text text-anchor="start" x="550" y="-237.8" font-family="Arial" font-size="8.00">+ Left : Vector3</text>
<text text-anchor="start" x="550" y="-227.8" font-family="Arial" font-size="8.00">+ Up : Vector3</text>
<text text-anchor="start" x="550" y="-217.8" font-family="Arial" font-size="8.00">+ Height : float</text>
<text text-anchor="start" x="550" y="-207.8" font-family="Arial" font-size="8.00">+ Width : float</text>
<text text-anchor="start" x="550" y="-197.8" font-family="Arial" font-size="8.00">+ Texturename : string</text>
<polyline fill="none" stroke="black" points="542,-191 842,-191 "/>
<text text-anchor="start" x="550" y="-179.8" font-family="Arial" font-size="8.00">+ TexturedRectangleInfo (string texturename, Vector3 origin, Vector3 left, float</text>
<text text-anchor="start" x="550" y="-169.8" font-family="Arial" font-size="8.00">width, Vector3 up, float height)</text>
<text text-anchor="start" x="550" y="-159.8" font-family="Arial" font-size="8.00">+ Equals (GameObjectInfo other) : bool</text>
</g>
<!-- Box_GameObjectInfo&#45;&gt;Box_TexturedRectangleInfo -->
<g id="edge12" class="edge"><title>Box_GameObjectInfo&#45;&gt;Box_TexturedRectangleInfo</title>
<path fill="none" stroke="midnightblue" d="M626.146,-296.735C633.726,-286.751 641.395,-276.65 648.689,-267.044"/>
<polygon fill="none" stroke="midnightblue" points="623.354,-294.624 620.095,-304.705 628.929,-298.857 623.354,-294.624"/>
</g>
<!-- Box_ArrowModelInfo -->
<g id="node3" class="node"><title>Box_ArrowModelInfo</title>
<polygon fill="#fcfcda" stroke="black" points="0,-16 0,-100 274,-100 274,-16 0,-16"/>
<text text-anchor="middle" x="137" y="-88.8" font-family="Arial" font-size="8.00">ArrowModelInfo</text>
<polyline fill="none" stroke="black" points="0,-82 274,-82 "/>
<text text-anchor="start" x="8" y="-70.8" font-family="Arial" font-size="8.00">+ Diameter : float</text>
<text text-anchor="start" x="8" y="-60.8" font-family="Arial" font-size="8.00">+ Length : float</text>
<text text-anchor="start" x="8" y="-50.8" font-family="Arial" font-size="8.00">+ Direction : Vector3</text>
<polyline fill="none" stroke="black" points="0,-44 274,-44 "/>
<text text-anchor="start" x="8" y="-32.8" font-family="Arial" font-size="8.00">+ ArrowModelInfo (Vector3 position, Vector3 direction, Vector3 offset)</text>
<text text-anchor="start" x="8" y="-22.8" font-family="Arial" font-size="8.00">+ Equals (GameObjectInfo other) : bool</text>
</g>
<!-- Box_GameModelInfo&#45;&gt;Box_ArrowModelInfo -->
<g id="edge6" class="edge"><title>Box_GameModelInfo&#45;&gt;Box_ArrowModelInfo</title>
<path fill="none" stroke="midnightblue" d="M358.403,-166.91C315.852,-145.979 264.911,-120.921 222.625,-100.12"/>
<polygon fill="none" stroke="midnightblue" points="357.109,-170.174 367.627,-171.447 360.199,-163.893 357.109,-170.174"/>
</g>
<!-- Box_NodeModelInfo -->
<g id="node4" class="node"><title>Box_NodeModelInfo</title>
<polygon fill="#fcfcda" stroke="black" points="292,-16 292,-100 600,-100 600,-16 292,-16"/>
<text text-anchor="middle" x="446" y="-88.8" font-family="Arial" font-size="8.00">NodeModelInfo</text>
<polyline fill="none" stroke="black" points="292,-82 600,-82 "/>
<text text-anchor="start" x="300" y="-70.8" font-family="Arial" font-size="8.00">+ EdgeA : Edge</text>
<text text-anchor="start" x="300" y="-60.8" font-family="Arial" font-size="8.00">+ EdgeB : Edge</text>
<text text-anchor="start" x="300" y="-50.8" font-family="Arial" font-size="8.00">+ NodeMap : NodeMap</text>
<polyline fill="none" stroke="black" points="292,-44 600,-44 "/>
<text text-anchor="start" x="300" y="-32.8" font-family="Arial" font-size="8.00">+ NodeModelInfo (NodeMap nodeMap, Edge edgeA, Edge edgeB, Vector3 offset)</text>
<text text-anchor="start" x="300" y="-22.8" font-family="Arial" font-size="8.00">+ Equals (GameObjectInfo other) : bool</text>
</g>
<!-- Box_GameModelInfo&#45;&gt;Box_NodeModelInfo -->
<g id="edge8" class="edge"><title>Box_GameModelInfo&#45;&gt;Box_NodeModelInfo</title>
<path fill="none" stroke="midnightblue" d="M446,-157.493C446,-138.742 446,-117.875 446,-100.113"/>
<polygon fill="none" stroke="midnightblue" points="442.5,-157.659 446,-167.66 449.5,-157.66 442.5,-157.659"/>
</g>
<!-- Box_PipeModelInfo -->
<g id="node5" class="node"><title>Box_PipeModelInfo</title>
<polygon fill="#fcfcda" stroke="black" points="617.5,-1 617.5,-115 906.5,-115 906.5,-1 617.5,-1"/>
<text text-anchor="middle" x="762" y="-103.8" font-family="Arial" font-size="8.00">PipeModelInfo</text>
<polyline fill="none" stroke="black" points="617.5,-97 906.5,-97 "/>
<text text-anchor="start" x="625.5" y="-85.8" font-family="Arial" font-size="8.00">+ Edge : Edge</text>
<text text-anchor="start" x="625.5" y="-75.8" font-family="Arial" font-size="8.00">+ NodeMap : NodeMap</text>
<text text-anchor="start" x="625.5" y="-65.8" font-family="Arial" font-size="8.00">+ Direction : Vector3</text>
<text text-anchor="start" x="625.5" y="-55.8" font-family="Arial" font-size="8.00">+ PositionFrom : Vector3</text>
<text text-anchor="start" x="625.5" y="-45.8" font-family="Arial" font-size="8.00">+ PositionTo : Vector3</text>
<text text-anchor="start" x="625.5" y="-35.8" font-family="Arial" font-size="8.00">+ Knot : Knot</text>
<polyline fill="none" stroke="black" points="617.5,-29 906.5,-29 "/>
<text text-anchor="start" x="625.5" y="-17.8" font-family="Arial" font-size="8.00">+ PipeModelInfo (Knot knot, NodeMap nodeMap, Edge edge, Vector3 offset)</text>
<text text-anchor="start" x="625.5" y="-7.8" font-family="Arial" font-size="8.00">+ Equals (GameObjectInfo other) : bool</text>
</g>
<!-- Box_GameModelInfo&#45;&gt;Box_PipeModelInfo -->
<g id="edge10" class="edge"><title>Box_GameModelInfo&#45;&gt;Box_PipeModelInfo</title>
<path fill="none" stroke="midnightblue" d="M514.75,-162.391C520.833,-158.724 526.97,-155.207 533,-152 549.743,-143.096 582.156,-129.161 617.446,-114.72"/>
<polygon fill="none" stroke="midnightblue" points="512.571,-159.623 505.898,-167.852 516.246,-165.581 512.571,-159.623"/>
</g>
<!-- Box_IEquatable -->
<g id="node7" class="node"><title>Box_IEquatable</title>
<polygon fill="#ffffff" stroke="black" points="509,-477 509,-495 629,-495 629,-477 509,-477"/>
<text text-anchor="middle" x="569" y="-483.8" font-family="Arial" font-size="8.00">IEquatable&lt;GameObjectInfo&gt;</text>
</g>
<!-- Box_IEquatable&#45;&gt;Box_GameObjectInfo -->
<g id="edge2" class="edge"><title>Box_IEquatable&#45;&gt;Box_GameObjectInfo</title>
<path fill="none" stroke="midnightblue" d="M569,-466.57C569,-458.742 569,-449.21 569,-439.246"/>
<polygon fill="none" stroke="midnightblue" points="565.5,-466.671 569,-476.671 572.5,-466.671 565.5,-466.671"/>
</g>
</g>
</svg>
