<?xml version="1.0" encoding="UTF-8" standalone="no"?>
<!DOCTYPE svg PUBLIC "-//W3C//DTD SVG 1.1//EN"
 "http://www.w3.org/Graphics/SVG/1.1/DTD/svg11.dtd">
<!-- Generated by graphviz version 2.26.3 (20100126.1600)
 -->
<!-- Title: MenuItem Pages: 1 -->
<svg width="304pt" height="216pt"
 viewBox="0.00 0.00 304.00 216.00" xmlns="http://www.w3.org/2000/svg" xmlns:xlink="http://www.w3.org/1999/xlink">
<g id="graph1" class="graph" transform="scale(1 1) rotate(0) translate(4 212)">
<title>MenuItem</title>
<polygon fill="white" stroke="white" points="-4,5 -4,-212 301,-212 301,5 -4,5"/>
<!-- Box_PipeModelFactory -->
<g id="node1" class="node"><title>Box_PipeModelFactory</title>
<polygon fill="#fcfcda" stroke="black" points="15.5,-1 15.5,-73 280.5,-73 280.5,-1 15.5,-1"/>
<text text-anchor="middle" x="148" y="-61.8" font-family="Helvetica,sans-Serif" font-size="8.00">PipeModelFactory</text>
<polyline fill="none" stroke="black" points="15.5,-53 280.5,-53 "/>
<text text-anchor="start" x="23.5" y="-41.8" font-family="Helvetica,sans-Serif" font-size="8.00">Attributes:</text>
<text text-anchor="start" x="23.5" y="-29.8" font-family="Helvetica,sans-Serif" font-size="8.00">Methods:</text>
<polyline fill="none" stroke="black" points="15.5,-21 280.5,-21 "/>
<text text-anchor="start" x="23.5" y="-9.8" font-family="Helvetica,sans-Serif" font-size="8.00"># CreateModel (GameState state, GameModelInfo info) : GameModel</text>
</g>
<!-- Box_ModelFactory -->
<g id="node2" class="node"><title>Box_ModelFactory</title>
<polygon fill="#fcfcda" stroke="black" points="0,-111 0,-207 296,-207 296,-111 0,-111"/>
<text text-anchor="middle" x="148" y="-195.8" font-family="Helvetica,sans-Serif" font-size="8.00">ModelFactory</text>
<polyline fill="none" stroke="black" points="0,-187 296,-187 "/>
<text text-anchor="start" x="8" y="-175.8" font-family="Helvetica,sans-Serif" font-size="8.00">Attributes:</text>
<text text-anchor="start" x="8" y="-163.8" font-family="Helvetica,sans-Serif" font-size="8.00">Methods:</text>
<polyline fill="none" stroke="black" points="0,-155 296,-155 "/>
<text text-anchor="start" x="8" y="-143.8" font-family="Helvetica,sans-Serif" font-size="8.00">&#45; GameModel&gt; cache () : Dictionary&lt;GameModelInfo,</text>
<text text-anchor="start" x="8" y="-131.8" font-family="Helvetica,sans-Serif" font-size="8.00"># CreateModel (GameState state, GameModelInfo info) : GameModel abstract</text>
<text text-anchor="start" x="8" y="-119.8" font-family="Helvetica,sans-Serif" font-size="8.00">+ this (GameState state, GameModelInfo info) : GameModel</text>
</g>
<!-- Box_ModelFactory&#45;&gt;Box_PipeModelFactory -->
<g id="edge2" class="edge"><title>Box_ModelFactory&#45;&gt;Box_PipeModelFactory</title>
<path fill="none" stroke="midnightblue" d="M148,-100.687C148,-91.3142 148,-81.8565 148,-73.2016"/>
<polygon fill="none" stroke="midnightblue" points="144.5,-100.782 148,-110.782 151.5,-100.782 144.5,-100.782"/>
</g>
</g>
</svg>
