<?xml version="1.0" encoding="UTF-8" standalone="no"?>
<!DOCTYPE svg PUBLIC "-//W3C//DTD SVG 1.1//EN"
 "http://www.w3.org/Graphics/SVG/1.1/DTD/svg11.dtd">
<!-- Generated by graphviz version 2.26.3 (20100126.1600)
 -->
<!-- Title: MenuItem Pages: 1 -->
<svg width="242pt" height="310pt"
 viewBox="0.00 0.00 242.00 310.00" xmlns="http://www.w3.org/2000/svg" xmlns:xlink="http://www.w3.org/1999/xlink">
<g id="graph1" class="graph" transform="scale(1 1) rotate(0) translate(4 306)">
<title>MenuItem</title>
<polygon fill="white" stroke="white" points="-4,5 -4,-306 239,-306 239,5 -4,5"/>
<!-- Box_Knot -->
<g id="node1" class="node"><title>Box_Knot</title>
<polygon fill="#fcfcda" stroke="black" points="0,-1 0,-245 234,-245 234,-1 0,-1"/>
<text text-anchor="middle" x="117" y="-233.8" font-family="Arial" font-size="8.00">Knot</text>
<polyline fill="none" stroke="black" points="0,-227 234,-227 "/>
<text text-anchor="start" x="8" y="-215.8" font-family="Arial" font-size="8.00">&#45; edges : Circle&lt;Edge&gt;</text>
<text text-anchor="start" x="8" y="-205.8" font-family="Arial" font-size="8.00">&#45; selectedEdges : List&lt;Edge&gt;</text>
<text text-anchor="start" x="8" y="-195.8" font-family="Arial" font-size="8.00">+ EdgesChanged : Action</text>
<text text-anchor="start" x="8" y="-185.8" font-family="Arial" font-size="8.00">+ SelectionChanged : Action</text>
<text text-anchor="start" x="8" y="-175.8" font-family="Arial" font-size="8.00">+ MetaData : KnotMetaData</text>
<text text-anchor="start" x="8" y="-165.8" font-family="Arial" font-size="8.00">&#45; lastSelected : Circle&lt;Edge&gt;</text>
<text text-anchor="start" x="8" y="-155.8" font-family="Arial" font-size="8.00">+ SelectedEdges : IEnumerable&lt;Edge&gt;</text>
<text text-anchor="start" x="8" y="-145.8" font-family="Arial" font-size="8.00">+ Name : string</text>
<polyline fill="none" stroke="black" points="0,-139 234,-139 "/>
<text text-anchor="start" x="8" y="-127.8" font-family="Arial" font-size="8.00">&#45; IEnumerable.GetEnumerator () : IEnumerator</text>
<text text-anchor="start" x="8" y="-117.8" font-family="Arial" font-size="8.00">+ GetEnumerator () : IEnumerator&lt;Edge&gt;</text>
<text text-anchor="start" x="8" y="-107.8" font-family="Arial" font-size="8.00">+ Knot (KnotMetaData metaData, IEnumerable&lt;Edge&gt; edges)</text>
<text text-anchor="start" x="8" y="-97.8" font-family="Arial" font-size="8.00">+ Knot ()</text>
<text text-anchor="start" x="8" y="-87.8" font-family="Arial" font-size="8.00">+ IsSelected (Edge edge) : bool</text>
<text text-anchor="start" x="8" y="-77.8" font-family="Arial" font-size="8.00">+ Clone () : object</text>
<text text-anchor="start" x="8" y="-67.8" font-family="Arial" font-size="8.00">+ AddRangeToSelection (Edge selectedEdge)</text>
<text text-anchor="start" x="8" y="-57.8" font-family="Arial" font-size="8.00">+ AddToSelection (Edge edge)</text>
<text text-anchor="start" x="8" y="-47.8" font-family="Arial" font-size="8.00">+ ClearSelection ()</text>
<text text-anchor="start" x="8" y="-37.8" font-family="Arial" font-size="8.00">+ Move (Direction direction, int distance)</text>
<text text-anchor="start" x="8" y="-27.8" font-family="Arial" font-size="8.00">+ Save (IKnotIO file)</text>
<text text-anchor="start" x="8" y="-17.8" font-family="Arial" font-size="8.00">+ ToString () : string</text>
<text text-anchor="start" x="8" y="-7.8" font-family="Arial" font-size="8.00">+ Save ()</text>
</g>
<!-- Box_IEnumerable -->
<g id="node2" class="node"><title>Box_IEnumerable</title>
<polygon fill="#ffffff" stroke="black" points="30.5,-283 30.5,-301 117.5,-301 117.5,-283 30.5,-283"/>
<text text-anchor="middle" x="74" y="-289.8" font-family="Arial" font-size="8.00">IEnumerable&lt;Edge&gt;</text>
</g>
<!-- Box_IEnumerable&#45;&gt;Box_Knot -->
<g id="edge2" class="edge"><title>Box_IEnumerable&#45;&gt;Box_Knot</title>
<path fill="none" stroke="midnightblue" d="M78.8228,-273.045C80.7904,-265.312 83.2407,-255.682 85.944,-245.057"/>
<polygon fill="none" stroke="midnightblue" points="75.3858,-272.36 76.3119,-282.914 82.1697,-274.086 75.3858,-272.36"/>
</g>
<!-- Box_ICloneable -->
<g id="node3" class="node"><title>Box_ICloneable</title>
<polygon fill="#ffffff" stroke="black" points="134.5,-283 134.5,-301 187.5,-301 187.5,-283 134.5,-283"/>
<text text-anchor="middle" x="161" y="-289.8" font-family="Arial" font-size="8.00">ICloneable</text>
</g>
<!-- Box_ICloneable&#45;&gt;Box_Knot -->
<g id="edge4" class="edge"><title>Box_ICloneable&#45;&gt;Box_Knot</title>
<path fill="none" stroke="midnightblue" d="M156.065,-273.045C154.052,-265.312 151.544,-255.682 148.778,-245.057"/>
<polygon fill="none" stroke="midnightblue" points="152.728,-274.118 158.634,-282.914 159.502,-272.355 152.728,-274.118"/>
</g>
</g>
</svg>
