<?xml version="1.0" encoding="UTF-8" standalone="no"?>
<!DOCTYPE svg PUBLIC "-//W3C//DTD SVG 1.1//EN"
 "http://www.w3.org/Graphics/SVG/1.1/DTD/svg11.dtd">
<!-- Generated by graphviz version 2.26.3 (20100126.1600)
 -->
<!-- Title: MenuItem Pages: 1 -->
<svg width="804pt" height="522pt"
 viewBox="0.00 0.00 804.00 522.00" xmlns="http://www.w3.org/2000/svg" xmlns:xlink="http://www.w3.org/1999/xlink">
<g id="graph1" class="graph" transform="scale(1 1) rotate(0) translate(4 518)">
<title>MenuItem</title>
<polygon fill="white" stroke="white" points="-4,5 -4,-518 801,-518 801,5 -4,5"/>
<!-- Box_GameStateComponent -->
<g id="node1" class="node"><title>Box_GameStateComponent</title>
<polygon fill="#fcfcda" stroke="black" points="282,-365 282,-439 614,-439 614,-365 282,-365"/>
<text text-anchor="middle" x="448" y="-427.8" font-family="Arial" font-size="8.00">GameStateComponent</text>
<polyline fill="none" stroke="black" points="282,-421 614,-421 "/>
<text text-anchor="start" x="290" y="-409.8" font-family="Arial" font-size="8.00">+ Index : DisplayLayer</text>
<text text-anchor="start" x="290" y="-399.8" font-family="Arial" font-size="8.00">+ state : GameState</text>
<polyline fill="none" stroke="black" points="282,-393 614,-393 "/>
<text text-anchor="start" x="290" y="-381.8" font-family="Arial" font-size="8.00">+ GameStateComponent (GameState state, DisplayLayer index)</text>
<text text-anchor="start" x="290" y="-371.8" font-family="Arial" font-size="8.00">+ SubComponents (GameTime gameTime) : IEnumerable&lt;IGameStateComponent&gt; virtual</text>
</g>
<!-- Box_ClickHandler -->
<g id="node2" class="node"><title>Box_ClickHandler</title>
<polygon fill="#fcfcda" stroke="black" points="304,-178 304,-242 440,-242 440,-178 304,-178"/>
<text text-anchor="middle" x="372" y="-230.8" font-family="Arial" font-size="8.00">ClickHandler</text>
<polyline fill="none" stroke="black" points="304,-224 440,-224 "/>
<text text-anchor="start" x="312" y="-212.8" font-family="Arial" font-size="8.00">&#45; ClickEventComponent : class</text>
<polyline fill="none" stroke="black" points="304,-206 440,-206 "/>
<text text-anchor="start" x="312" y="-194.8" font-family="Arial" font-size="8.00">+ ClickHandler (GameState state)</text>
<text text-anchor="start" x="312" y="-184.8" font-family="Arial" font-size="8.00">+ Update (GameTime gameTime)</text>
</g>
<!-- Box_GameStateComponent&#45;&gt;Box_ClickHandler -->
<g id="edge6" class="edge"><title>Box_GameStateComponent&#45;&gt;Box_ClickHandler</title>
<path fill="none" stroke="midnightblue" d="M429.564,-355.425C415.67,-320.324 396.977,-273.101 384.715,-242.123"/>
<polygon fill="none" stroke="midnightblue" points="426.412,-356.971 433.346,-364.98 432.92,-354.394 426.412,-356.971"/>
</g>
<!-- Box_Input -->
<g id="node3" class="node"><title>Box_Input</title>
<polygon fill="#fcfcda" stroke="black" points="-0.5,-93 -0.5,-327 286.5,-327 286.5,-93 -0.5,-93"/>
<text text-anchor="middle" x="143" y="-315.8" font-family="Arial" font-size="8.00">Input</text>
<polyline fill="none" stroke="black" points="-0.5,-309 286.5,-309 "/>
<text text-anchor="start" x="7.5" y="-297.8" font-family="Arial" font-size="8.00">&#45; PreviousClickMouseState : MouseState static</text>
<text text-anchor="start" x="7.5" y="-287.8" font-family="Arial" font-size="8.00">&#45; LeftButtonClickTimer : double static</text>
<text text-anchor="start" x="7.5" y="-277.8" font-family="Arial" font-size="8.00">&#45; RightButtonClickTimer : double static</text>
<text text-anchor="start" x="7.5" y="-267.8" font-family="Arial" font-size="8.00">+ GrabMouseMovement : bool</text>
<text text-anchor="start" x="7.5" y="-257.8" font-family="Arial" font-size="8.00">+ LeftButton : ClickState static</text>
<text text-anchor="start" x="7.5" y="-247.8" font-family="Arial" font-size="8.00">+ RightButton : ClickState static</text>
<text text-anchor="start" x="7.5" y="-237.8" font-family="Arial" font-size="8.00">+ PreviousKeyboardState : KeyboardState static</text>
<text text-anchor="start" x="7.5" y="-227.8" font-family="Arial" font-size="8.00">+ MouseState : MouseState static</text>
<text text-anchor="start" x="7.5" y="-217.8" font-family="Arial" font-size="8.00">+ PreviousMouseState : MouseState static</text>
<text text-anchor="start" x="7.5" y="-207.8" font-family="Arial" font-size="8.00"># FullscreenToggled : bool static</text>
<text text-anchor="start" x="7.5" y="-197.8" font-family="Arial" font-size="8.00">+ CurrentInputAction : InputAction</text>
<text text-anchor="start" x="7.5" y="-187.8" font-family="Arial" font-size="8.00">+ ValidKeys : List&lt;Keys&gt;</text>
<text text-anchor="start" x="7.5" y="-177.8" font-family="Arial" font-size="8.00">+ WASDMode : WASDMode</text>
<text text-anchor="start" x="7.5" y="-167.8" font-family="Arial" font-size="8.00">+ IsKeyEventEnabled : bool</text>
<text text-anchor="start" x="7.5" y="-157.8" font-family="Arial" font-size="8.00">+ KeyboardState : KeyboardState static</text>
<polyline fill="none" stroke="black" points="-0.5,-151 286.5,-151 "/>
<text text-anchor="start" x="7.5" y="-139.8" font-family="Arial" font-size="8.00"># UpdateMouse (GameTime gameTime) virtual</text>
<text text-anchor="start" x="7.5" y="-129.8" font-family="Arial" font-size="8.00">+ Update (GameTime gameTime)</text>
<text text-anchor="start" x="7.5" y="-119.8" font-family="Arial" font-size="8.00">+ OnKeyEvent (List&lt;Keys&gt; key, KeyEvent keyEvent, GameTime gameTime)</text>
<text text-anchor="start" x="7.5" y="-109.8" font-family="Arial" font-size="8.00"># UpdateKeys (GameTime gameTime) virtual</text>
<text text-anchor="start" x="7.5" y="-99.8" font-family="Arial" font-size="8.00">+ Input (GameState state)</text>
</g>
<!-- Box_GameStateComponent&#45;&gt;Box_Input -->
<g id="edge8" class="edge"><title>Box_GameStateComponent&#45;&gt;Box_Input</title>
<path fill="none" stroke="midnightblue" d="M354.211,-360.488C334.246,-350.594 313.59,-339.534 295,-328 292.303,-326.327 289.597,-324.615 286.886,-322.871"/>
<polygon fill="none" stroke="midnightblue" points="352.806,-363.696 363.326,-364.949 355.883,-357.409 352.806,-363.696"/>
</g>
<!-- Box_KeyHandler -->
<g id="node5" class="node"><title>Box_KeyHandler</title>
<polygon fill="#fcfcda" stroke="black" points="458,-178 458,-242 592,-242 592,-178 458,-178"/>
<text text-anchor="middle" x="525" y="-230.8" font-family="Arial" font-size="8.00">KeyHandler</text>
<polyline fill="none" stroke="black" points="458,-224 592,-224 "/>
<text text-anchor="start" x="466" y="-212.8" font-family="Arial" font-size="8.00">&#45; KeyEventComponent : class</text>
<polyline fill="none" stroke="black" points="458,-206 592,-206 "/>
<text text-anchor="start" x="466" y="-194.8" font-family="Arial" font-size="8.00">+ KeyHandler (GameState state)</text>
<text text-anchor="start" x="466" y="-184.8" font-family="Arial" font-size="8.00">+ Update (GameTime gameTime)</text>
</g>
<!-- Box_GameStateComponent&#45;&gt;Box_KeyHandler -->
<g id="edge14" class="edge"><title>Box_GameStateComponent&#45;&gt;Box_KeyHandler</title>
<path fill="none" stroke="midnightblue" d="M466.678,-355.425C480.756,-320.324 499.694,-273.101 512.117,-242.123"/>
<polygon fill="none" stroke="midnightblue" points="463.32,-354.396 462.846,-364.98 469.817,-357.002 463.32,-354.396"/>
</g>
<!-- Box_MousePicker -->
<g id="node6" class="node"><title>Box_MousePicker</title>
<polygon fill="#fcfcda" stroke="black" points="610,-163 610,-257 796,-257 796,-163 610,-163"/>
<text text-anchor="middle" x="703" y="-245.8" font-family="Arial" font-size="8.00">MousePicker</text>
<polyline fill="none" stroke="black" points="610,-239 796,-239 "/>
<text text-anchor="start" x="618" y="-227.8" font-family="Arial" font-size="8.00">&#45; lastMousePosition : Vector2</text>
<text text-anchor="start" x="618" y="-217.8" font-family="Arial" font-size="8.00">&#45; World : World</text>
<text text-anchor="start" x="618" y="-207.8" font-family="Arial" font-size="8.00">&#45; lastRayCheck : double</text>
<polyline fill="none" stroke="black" points="610,-201 796,-201 "/>
<text text-anchor="start" x="618" y="-189.8" font-family="Arial" font-size="8.00">+ MousePicker (GameState state, World world)</text>
<text text-anchor="start" x="618" y="-179.8" font-family="Arial" font-size="8.00">+ Update (GameTime gameTime)</text>
<text text-anchor="start" x="618" y="-169.8" font-family="Arial" font-size="8.00">+ UpdateMouseRay (GameTime gameTime)</text>
</g>
<!-- Box_GameStateComponent&#45;&gt;Box_MousePicker -->
<g id="edge16" class="edge"><title>Box_GameStateComponent&#45;&gt;Box_MousePicker</title>
<path fill="none" stroke="midnightblue" d="M549.517,-360.161C567.439,-350.784 585.349,-340.003 601,-328 627,-308.06 651.209,-280.608 669.511,-257.2"/>
<polygon fill="none" stroke="midnightblue" points="547.474,-357.275 540.156,-364.936 550.654,-363.51 547.474,-357.275"/>
</g>
<!-- Box_MenuScreenInput -->
<g id="node4" class="node"><title>Box_MenuScreenInput</title>
<polygon fill="#fcfcda" stroke="black" points="65.5,-1 65.5,-55 220.5,-55 220.5,-1 65.5,-1"/>
<text text-anchor="middle" x="143" y="-43.8" font-family="Arial" font-size="8.00">MenuScreenInput</text>
<polyline fill="none" stroke="black" points="65.5,-37 220.5,-37 "/>
<text text-anchor="middle" x="143" y="-25.8" font-family="Arial" font-size="8.00"> </text>
<polyline fill="none" stroke="black" points="65.5,-19 220.5,-19 "/>
<text text-anchor="start" x="73.5" y="-7.8" font-family="Arial" font-size="8.00">+ MenuScreenInput (GameState state)</text>
</g>
<!-- Box_Input&#45;&gt;Box_MenuScreenInput -->
<g id="edge12" class="edge"><title>Box_Input&#45;&gt;Box_MenuScreenInput</title>
<path fill="none" stroke="midnightblue" d="M143,-82.6713C143,-72.6201 143,-63.2764 143,-55.2588"/>
<polygon fill="none" stroke="midnightblue" points="139.5,-82.9353 143,-92.9354 146.5,-82.9354 139.5,-82.9353"/>
</g>
<!-- Box_XnaGameComponent -->
<g id="node7" class="node"><title>Box_XnaGameComponent</title>
<polygon fill="#ffffff" stroke="black" points="570.5,-486 570.5,-504 665.5,-504 665.5,-486 570.5,-486"/>
<text text-anchor="middle" x="618" y="-492.8" font-family="Arial" font-size="8.00">Xna.GameComponent</text>
</g>
<!-- Box_IGameStateComponent -->
<g id="node8" class="node"><title>Box_IGameStateComponent</title>
<polygon fill="#ffffff" stroke="black" points="341,-486 341,-504 439,-504 439,-486 341,-486"/>
<text text-anchor="middle" x="390" y="-492.8" font-family="Arial" font-size="8.00">IGameStateComponent</text>
</g>
<!-- Box_IGameStateComponent&#45;&gt;Box_GameStateComponent -->
<g id="edge4" class="edge"><title>Box_IGameStateComponent&#45;&gt;Box_GameStateComponent</title>
<path fill="none" stroke="midnightblue" d="M401.253,-476.956C407.926,-466.256 416.637,-452.289 424.728,-439.316"/>
<polygon fill="none" stroke="midnightblue" points="398.095,-475.406 395.773,-485.743 404.035,-479.11 398.095,-475.406"/>
</g>
<!-- Box_IKeyEventListener -->
<g id="node9" class="node"><title>Box_IKeyEventListener</title>
<polygon fill="#ffffff" stroke="black" points="102,-393 102,-411 184,-411 184,-393 102,-393"/>
<text text-anchor="middle" x="143" y="-399.8" font-family="Arial" font-size="8.00">IKeyEventListener</text>
</g>
<!-- Box_IKeyEventListener&#45;&gt;Box_Input -->
<g id="edge10" class="edge"><title>Box_IKeyEventListener&#45;&gt;Box_Input</title>
<path fill="none" stroke="midnightblue" d="M143,-382.859C143,-368.924 143,-348.762 143,-327.091"/>
<polygon fill="none" stroke="midnightblue" points="139.5,-382.997 143,-392.997 146.5,-382.997 139.5,-382.997"/>
</g>
<!-- Box_GameComponent -->
<g id="node10" class="node"><title>Box_GameComponent</title>
<polygon fill="none" stroke="black" points="456.5,-477 456.5,-513 553.5,-513 553.5,-477 456.5,-477"/>
<text text-anchor="middle" x="505" y="-492.8" font-family="Arial" font-size="8.00">Box_GameComponent</text>
</g>
<!-- Box_GameComponent&#45;&gt;Box_GameStateComponent -->
<g id="edge2" class="edge"><title>Box_GameComponent&#45;&gt;Box_GameStateComponent</title>
<path fill="none" stroke="midnightblue" d="M488.498,-468.076C482.972,-459.06 476.71,-448.842 470.79,-439.184"/>
<polygon fill="none" stroke="midnightblue" points="485.529,-469.929 493.739,-476.626 491.497,-466.271 485.529,-469.929"/>
</g>
</g>
</svg>
