<?xml version="1.0" encoding="UTF-8" standalone="no"?>
<!DOCTYPE svg PUBLIC "-//W3C//DTD SVG 1.1//EN"
 "http://www.w3.org/Graphics/SVG/1.1/DTD/svg11.dtd">
<!-- Generated by graphviz version 2.26.3 (20100126.1600)
 -->
<!-- Title: MenuItem Pages: 1 -->
<svg width="308pt" height="352pt"
 viewBox="0.00 0.00 308.00 352.00" xmlns="http://www.w3.org/2000/svg" xmlns:xlink="http://www.w3.org/1999/xlink">
<g id="graph1" class="graph" transform="scale(1 1) rotate(0) translate(4 348)">
<title>MenuItem</title>
<polygon fill="white" stroke="white" points="-4,5 -4,-348 305,-348 305,5 -4,5"/>
<!-- Box_TexturedRectangleInfo -->
<g id="node1" class="node"><title>Box_TexturedRectangleInfo</title>
<polygon fill="#fcfcda" stroke="black" points="0,-1 0,-115 300,-115 300,-1 0,-1"/>
<text text-anchor="middle" x="150" y="-103.8" font-family="Arial" font-size="8.00">TexturedRectangleInfo</text>
<polyline fill="none" stroke="black" points="0,-97 300,-97 "/>
<text text-anchor="start" x="8" y="-85.8" font-family="Arial" font-size="8.00">+ Left : Vector3</text>
<text text-anchor="start" x="8" y="-75.8" font-family="Arial" font-size="8.00">+ Up : Vector3</text>
<text text-anchor="start" x="8" y="-65.8" font-family="Arial" font-size="8.00">+ Height : float</text>
<text text-anchor="start" x="8" y="-55.8" font-family="Arial" font-size="8.00">+ Width : float</text>
<text text-anchor="start" x="8" y="-45.8" font-family="Arial" font-size="8.00">+ Texturename : string</text>
<polyline fill="none" stroke="black" points="0,-39 300,-39 "/>
<text text-anchor="start" x="8" y="-27.8" font-family="Arial" font-size="8.00">+ TexturedRectangleInfo (string texturename, Vector3 origin, Vector3 left, float</text>
<text text-anchor="start" x="8" y="-17.8" font-family="Arial" font-size="8.00">width, Vector3 up, float height)</text>
<text text-anchor="start" x="8" y="-7.8" font-family="Arial" font-size="8.00">+ Equals (GameObjectInfo other) : bool</text>
</g>
<!-- Box_GameObjectInfo -->
<g id="node2" class="node"><title>Box_GameObjectInfo</title>
<polygon fill="#fcfcda" stroke="black" points="24,-153 24,-287 276,-287 276,-153 24,-153"/>
<text text-anchor="middle" x="150" y="-275.8" font-family="Arial" font-size="8.00">GameObjectInfo</text>
<polyline fill="none" stroke="black" points="24,-269 276,-269 "/>
<text text-anchor="start" x="32" y="-257.8" font-family="Arial" font-size="8.00">+ IsMovable : bool</text>
<text text-anchor="start" x="32" y="-247.8" font-family="Arial" font-size="8.00">+ IsSelectable : bool</text>
<text text-anchor="start" x="32" y="-237.8" font-family="Arial" font-size="8.00">+ IsVisible : bool</text>
<text text-anchor="start" x="32" y="-227.8" font-family="Arial" font-size="8.00">+ Position : Vector3</text>
<polyline fill="none" stroke="black" points="24,-221 276,-221 "/>
<text text-anchor="start" x="32" y="-209.8" font-family="Arial" font-size="8.00">+ GameObjectInfo ()</text>
<text text-anchor="start" x="32" y="-199.8" font-family="Arial" font-size="8.00">+ operator (GameObjectInfo o1, GameObjectInfo o2) : bool static</text>
<text text-anchor="start" x="32" y="-189.8" font-family="Arial" font-size="8.00">+ Equals (Object obj) : bool</text>
<text text-anchor="start" x="32" y="-179.8" font-family="Arial" font-size="8.00">+ GetHashCode () : int</text>
<text text-anchor="start" x="32" y="-169.8" font-family="Arial" font-size="8.00">+ operator ! (GameObjectInfo o1, GameObjectInfo o2) : bool static</text>
<text text-anchor="start" x="32" y="-159.8" font-family="Arial" font-size="8.00">+ Equals (GameObjectInfo other) : bool virtual</text>
</g>
<!-- Box_GameObjectInfo&#45;&gt;Box_TexturedRectangleInfo -->
<g id="edge2" class="edge"><title>Box_GameObjectInfo&#45;&gt;Box_TexturedRectangleInfo</title>
<path fill="none" stroke="midnightblue" d="M150,-142.657C150,-133.353 150,-123.985 150,-115.044"/>
<polygon fill="none" stroke="midnightblue" points="146.5,-142.705 150,-152.705 153.5,-142.705 146.5,-142.705"/>
</g>
<!-- Box_IEquatable -->
<g id="node3" class="node"><title>Box_IEquatable</title>
<polygon fill="#ffffff" stroke="black" points="90,-325 90,-343 210,-343 210,-325 90,-325"/>
<text text-anchor="middle" x="150" y="-331.8" font-family="Arial" font-size="8.00">IEquatable&lt;GameObjectInfo&gt;</text>
</g>
<!-- Box_IEquatable&#45;&gt;Box_GameObjectInfo -->
<g id="edge4" class="edge"><title>Box_IEquatable&#45;&gt;Box_GameObjectInfo</title>
<path fill="none" stroke="midnightblue" d="M150,-314.57C150,-306.742 150,-297.21 150,-287.246"/>
<polygon fill="none" stroke="midnightblue" points="146.5,-314.671 150,-324.671 153.5,-314.671 146.5,-314.671"/>
</g>
</g>
</svg>
