<?xml version="1.0" encoding="UTF-8" standalone="no"?>
<!DOCTYPE svg PUBLIC "-//W3C//DTD SVG 1.1//EN"
 "http://www.w3.org/Graphics/SVG/1.1/DTD/svg11.dtd">
<!-- Generated by graphviz version 2.26.3 (20100126.1600)
 -->
<!-- Title: MenuItem Pages: 1 -->
<svg width="1300pt" height="498pt"
 viewBox="0.00 0.00 1300.00 498.00" xmlns="http://www.w3.org/2000/svg" xmlns:xlink="http://www.w3.org/1999/xlink">
<g id="graph1" class="graph" transform="scale(1 1) rotate(0) translate(4 494)">
<title>MenuItem</title>
<polygon fill="white" stroke="white" points="-4,5 -4,-494 1297,-494 1297,5 -4,5"/>
<!-- Box_IRenderEffect -->
<g id="node1" class="node"><title>Box_IRenderEffect</title>
<polygon fill="#dafcda" stroke="black" points="547.5,-395 547.5,-489 744.5,-489 744.5,-395 547.5,-395"/>
<text text-anchor="middle" x="646" y="-477.8" font-family="Arial" font-size="8.00">IRenderEffect</text>
<polyline fill="none" stroke="black" points="547.5,-471 744.5,-471 "/>
<text text-anchor="start" x="555.5" y="-459.8" font-family="Arial" font-size="8.00">+ RenderTarget : RenderTarget2D</text>
<polyline fill="none" stroke="black" points="547.5,-453 744.5,-453 "/>
<text text-anchor="start" x="555.5" y="-441.8" font-family="Arial" font-size="8.00">+ Begin (GameTime time)</text>
<text text-anchor="start" x="555.5" y="-431.8" font-family="Arial" font-size="8.00">+ End (GameTime time)</text>
<text text-anchor="start" x="555.5" y="-421.8" font-family="Arial" font-size="8.00">+ RemapModel (Model model)</text>
<text text-anchor="start" x="555.5" y="-411.8" font-family="Arial" font-size="8.00">+ DrawModel (GameModel model, GameTime time)</text>
<text text-anchor="start" x="555.5" y="-401.8" font-family="Arial" font-size="8.00">+ DrawLastFrame (GameTime time)</text>
</g>
<!-- Box_RenderEffect -->
<g id="node2" class="node"><title>Box_RenderEffect</title>
<polygon fill="#fcfcda" stroke="black" points="507.5,-183 507.5,-357 784.5,-357 784.5,-183 507.5,-183"/>
<text text-anchor="middle" x="646" y="-345.8" font-family="Arial" font-size="8.00">RenderEffect</text>
<polyline fill="none" stroke="black" points="507.5,-339 784.5,-339 "/>
<text text-anchor="start" x="515.5" y="-327.8" font-family="Arial" font-size="8.00">&#45; background : Color</text>
<text text-anchor="start" x="515.5" y="-317.8" font-family="Arial" font-size="8.00">&#45; renderTarget : RenderTargetCache</text>
<text text-anchor="start" x="515.5" y="-307.8" font-family="Arial" font-size="8.00">&#45; spriteBatch : SpriteBatch</text>
<text text-anchor="start" x="515.5" y="-297.8" font-family="Arial" font-size="8.00"># screen : GameScreen</text>
<text text-anchor="start" x="515.5" y="-287.8" font-family="Arial" font-size="8.00">+ RenderTarget : RenderTarget2D</text>
<polyline fill="none" stroke="black" points="507.5,-281 784.5,-281 "/>
<text text-anchor="start" x="515.5" y="-269.8" font-family="Arial" font-size="8.00"># DrawRenderTarget (SpriteBatch spriteBatch, GameTime time) abstract</text>
<text text-anchor="start" x="515.5" y="-259.8" font-family="Arial" font-size="8.00">+ RenderEffect (GameScreen screen)</text>
<text text-anchor="start" x="515.5" y="-249.8" font-family="Arial" font-size="8.00">+ DrawModel (GameModel model, GameTime time) virtual</text>
<text text-anchor="start" x="515.5" y="-239.8" font-family="Arial" font-size="8.00">+ RemapModel (Model model) virtual</text>
<text text-anchor="start" x="515.5" y="-229.8" font-family="Arial" font-size="8.00">+ Begin (GameTime time)</text>
<text text-anchor="start" x="515.5" y="-219.8" font-family="Arial" font-size="8.00"># ModifyBasicEffect (BasicEffect effect, GameModel model)</text>
<text text-anchor="start" x="515.5" y="-209.8" font-family="Arial" font-size="8.00">+ Begin (Color background, GameTime time) virtual</text>
<text text-anchor="start" x="515.5" y="-199.8" font-family="Arial" font-size="8.00">+ End (GameTime time) virtual</text>
<text text-anchor="start" x="515.5" y="-189.8" font-family="Arial" font-size="8.00">+ DrawLastFrame (GameTime time)</text>
</g>
<!-- Box_IRenderEffect&#45;&gt;Box_RenderEffect -->
<g id="edge2" class="edge"><title>Box_IRenderEffect&#45;&gt;Box_RenderEffect</title>
<path fill="none" stroke="midnightblue" d="M646,-384.473C646,-375.697 646,-366.474 646,-357.233"/>
<polygon fill="none" stroke="midnightblue" points="642.5,-384.545 646,-394.545 649.5,-384.545 642.5,-384.545"/>
</g>
<!-- Box_BlurEffect -->
<g id="node3" class="node"><title>Box_BlurEffect</title>
<polygon fill="#fcfcda" stroke="black" points="-0.5,-31 -0.5,-115 244.5,-115 244.5,-31 -0.5,-31"/>
<text text-anchor="middle" x="122" y="-103.8" font-family="Arial" font-size="8.00">BlurEffect</text>
<polyline fill="none" stroke="black" points="-0.5,-97 244.5,-97 "/>
<text text-anchor="start" x="7.5" y="-85.8" font-family="Arial" font-size="8.00">&#45; testEffect : Effect static</text>
<polyline fill="none" stroke="black" points="-0.5,-79 244.5,-79 "/>
<text text-anchor="start" x="7.5" y="-67.8" font-family="Arial" font-size="8.00">+ BlurEffect (GameScreen screen)</text>
<text text-anchor="start" x="7.5" y="-57.8" font-family="Arial" font-size="8.00"># DrawRenderTarget (SpriteBatch spriteBatch, GameTime time)</text>
<text text-anchor="start" x="7.5" y="-47.8" font-family="Arial" font-size="8.00">+ Begin (Color background, GameTime time)</text>
<text text-anchor="start" x="7.5" y="-37.8" font-family="Arial" font-size="8.00">+ End (GameTime time)</text>
</g>
<!-- Box_RenderEffect&#45;&gt;Box_BlurEffect -->
<g id="edge4" class="edge"><title>Box_RenderEffect&#45;&gt;Box_BlurEffect</title>
<path fill="none" stroke="midnightblue" d="M497.161,-230.77C422.556,-209.175 331.596,-179.882 253,-146 232.438,-137.136 210.908,-125.989 191.379,-115.094"/>
<polygon fill="none" stroke="midnightblue" points="496.53,-234.231 507.108,-233.632 498.466,-227.504 496.53,-234.231"/>
</g>
<!-- Box_CelShadingEffect -->
<g id="node4" class="node"><title>Box_CelShadingEffect</title>
<polygon fill="#fcfcda" stroke="black" points="261.5,-1 261.5,-145 506.5,-145 506.5,-1 261.5,-1"/>
<text text-anchor="middle" x="384" y="-133.8" font-family="Arial" font-size="8.00">CelShadingEffect</text>
<polyline fill="none" stroke="black" points="261.5,-127 506.5,-127 "/>
<text text-anchor="start" x="269.5" y="-115.8" font-family="Arial" font-size="8.00">&#45; outlineShader : Effect</text>
<text text-anchor="start" x="269.5" y="-105.8" font-family="Arial" font-size="8.00">&#45; celMap : Texture2D</text>
<text text-anchor="start" x="269.5" y="-95.8" font-family="Arial" font-size="8.00">&#45; lightDirection : Vector4</text>
<text text-anchor="start" x="269.5" y="-85.8" font-family="Arial" font-size="8.00">&#45; outlineThickness : float</text>
<text text-anchor="start" x="269.5" y="-75.8" font-family="Arial" font-size="8.00">&#45; outlineThreshold : float</text>
<text text-anchor="start" x="269.5" y="-65.8" font-family="Arial" font-size="8.00">&#45; celShader : Effect</text>
<text text-anchor="start" x="269.5" y="-55.8" font-family="Arial" font-size="8.00">+ Color : Color</text>
<polyline fill="none" stroke="black" points="261.5,-49 506.5,-49 "/>
<text text-anchor="start" x="269.5" y="-37.8" font-family="Arial" font-size="8.00">+ CelShadingEffect (GameScreen screen)</text>
<text text-anchor="start" x="269.5" y="-27.8" font-family="Arial" font-size="8.00"># DrawRenderTarget (SpriteBatch spriteBatch, GameTime time)</text>
<text text-anchor="start" x="269.5" y="-17.8" font-family="Arial" font-size="8.00">+ DrawModel (GameModel model, GameTime time)</text>
<text text-anchor="start" x="269.5" y="-7.8" font-family="Arial" font-size="8.00">+ RemapModel (Model model)</text>
</g>
<!-- Box_RenderEffect&#45;&gt;Box_CelShadingEffect -->
<g id="edge6" class="edge"><title>Box_RenderEffect&#45;&gt;Box_CelShadingEffect</title>
<path fill="none" stroke="midnightblue" d="M521.698,-176.536C507.674,-165.991 493.547,-155.369 479.963,-145.155"/>
<polygon fill="none" stroke="midnightblue" points="519.843,-179.52 529.939,-182.733 524.05,-173.925 519.843,-179.52"/>
</g>
<!-- Box_FadeEffect -->
<g id="node5" class="node"><title>Box_FadeEffect</title>
<polygon fill="#fcfcda" stroke="black" points="523.5,-31 523.5,-115 768.5,-115 768.5,-31 523.5,-31"/>
<text text-anchor="middle" x="646" y="-103.8" font-family="Arial" font-size="8.00">FadeEffect</text>
<polyline fill="none" stroke="black" points="523.5,-97 768.5,-97 "/>
<text text-anchor="start" x="531.5" y="-85.8" font-family="Arial" font-size="8.00">&#45; alpha : float</text>
<text text-anchor="start" x="531.5" y="-75.8" font-family="Arial" font-size="8.00">&#45; lastFrame : RenderTarget2D</text>
<text text-anchor="start" x="531.5" y="-65.8" font-family="Arial" font-size="8.00">+ IsFinished : bool</text>
<polyline fill="none" stroke="black" points="523.5,-59 768.5,-59 "/>
<text text-anchor="start" x="531.5" y="-47.8" font-family="Arial" font-size="8.00"># DrawRenderTarget (SpriteBatch spriteBatch, GameTime time)</text>
<text text-anchor="start" x="531.5" y="-37.8" font-family="Arial" font-size="8.00">+ FadeEffect (GameScreen screen, GameScreen oldState)</text>
</g>
<!-- Box_RenderEffect&#45;&gt;Box_FadeEffect -->
<g id="edge8" class="edge"><title>Box_RenderEffect&#45;&gt;Box_FadeEffect</title>
<path fill="none" stroke="midnightblue" d="M646,-172.521C646,-152.331 646,-132.083 646,-115.173"/>
<polygon fill="none" stroke="midnightblue" points="642.5,-172.733 646,-182.733 649.5,-172.733 642.5,-172.733"/>
</g>
<!-- Box_InstancingTest -->
<g id="node6" class="node"><title>Box_InstancingTest</title>
<polygon fill="#fcfcda" stroke="black" points="785.5,-21 785.5,-125 1030.5,-125 1030.5,-21 785.5,-21"/>
<text text-anchor="middle" x="908" y="-113.8" font-family="Arial" font-size="8.00">InstancingTest</text>
<polyline fill="none" stroke="black" points="785.5,-107 1030.5,-107 "/>
<text text-anchor="start" x="793.5" y="-95.8" font-family="Arial" font-size="8.00">&#45; ModelInstances : class</text>
<polyline fill="none" stroke="black" points="785.5,-89 1030.5,-89 "/>
<text text-anchor="start" x="793.5" y="-77.8" font-family="Arial" font-size="8.00">&#45; instanceHash () : Hashtable</text>
<text text-anchor="start" x="793.5" y="-67.8" font-family="Arial" font-size="8.00">+ Begin (Color background, GameTime time)</text>
<text text-anchor="start" x="793.5" y="-57.8" font-family="Arial" font-size="8.00"># DrawRenderTarget (SpriteBatch spriteBatch, GameTime time)</text>
<text text-anchor="start" x="793.5" y="-47.8" font-family="Arial" font-size="8.00">+ InstancingTest (GameScreen screen)</text>
<text text-anchor="start" x="793.5" y="-37.8" font-family="Arial" font-size="8.00">+ DrawModel (GameModel model, GameTime time)</text>
<text text-anchor="start" x="793.5" y="-27.8" font-family="Arial" font-size="8.00">+ End (GameTime time)</text>
</g>
<!-- Box_RenderEffect&#45;&gt;Box_InstancingTest -->
<g id="edge10" class="edge"><title>Box_RenderEffect&#45;&gt;Box_InstancingTest</title>
<path fill="none" stroke="midnightblue" d="M770.355,-176.496C793.85,-158.83 817.632,-140.949 838.665,-125.134"/>
<polygon fill="none" stroke="midnightblue" points="767.95,-173.925 762.061,-182.733 772.157,-179.52 767.95,-173.925"/>
</g>
<!-- Box_NoEffect -->
<g id="node7" class="node"><title>Box_NoEffect</title>
<polygon fill="#fcfcda" stroke="black" points="1047.5,-41 1047.5,-105 1292.5,-105 1292.5,-41 1047.5,-41"/>
<text text-anchor="middle" x="1170" y="-93.8" font-family="Arial" font-size="8.00">NoEffect</text>
<polyline fill="none" stroke="black" points="1047.5,-87 1292.5,-87 "/>
<text text-anchor="middle" x="1170" y="-75.8" font-family="Arial" font-size="8.00"> </text>
<polyline fill="none" stroke="black" points="1047.5,-69 1292.5,-69 "/>
<text text-anchor="start" x="1055.5" y="-57.8" font-family="Arial" font-size="8.00"># DrawRenderTarget (SpriteBatch spriteBatch, GameTime time)</text>
<text text-anchor="start" x="1055.5" y="-47.8" font-family="Arial" font-size="8.00">+ NoEffect (GameScreen screen)</text>
</g>
<!-- Box_RenderEffect&#45;&gt;Box_NoEffect -->
<g id="edge12" class="edge"><title>Box_RenderEffect&#45;&gt;Box_NoEffect</title>
<path fill="none" stroke="midnightblue" d="M794.839,-230.77C869.444,-209.175 960.404,-179.882 1039,-146 1065.9,-134.405 1094.45,-118.903 1118.02,-105.167"/>
<polygon fill="none" stroke="midnightblue" points="793.534,-227.504 784.892,-233.632 795.47,-234.231 793.534,-227.504"/>
</g>
</g>
</svg>
