<?xml version="1.0" encoding="UTF-8" standalone="no"?>
<!DOCTYPE svg PUBLIC "-//W3C//DTD SVG 1.1//EN"
 "http://www.w3.org/Graphics/SVG/1.1/DTD/svg11.dtd">
<!-- Generated by graphviz version 2.26.3 (20100126.1600)
 -->
<!-- Title: MenuItem Pages: 1 -->
<svg width="337pt" height="406pt"
 viewBox="0.00 0.00 337.00 406.00" xmlns="http://www.w3.org/2000/svg" xmlns:xlink="http://www.w3.org/1999/xlink">
<g id="graph1" class="graph" transform="scale(1 1) rotate(0) translate(4 402)">
<title>MenuItem</title>
<polygon fill="white" stroke="white" points="-4,5 -4,-402 334,-402 334,5 -4,5"/>
<!-- Box_EdgeMovement -->
<g id="node1" class="node"><title>Box_EdgeMovement</title>
<polygon fill="#fcfcda" stroke="black" points="13,-1 13,-265 329,-265 329,-1 13,-1"/>
<text text-anchor="middle" x="171" y="-253.8" font-family="Arial" font-size="8.00">EdgeMovement</text>
<polyline fill="none" stroke="black" points="13,-247 329,-247 "/>
<text text-anchor="start" x="21" y="-235.8" font-family="Arial" font-size="8.00">&#45; shadowObjects : List&lt;ShadowGameObject&gt;</text>
<text text-anchor="start" x="21" y="-225.8" font-family="Arial" font-size="8.00">+ World : World</text>
<text text-anchor="start" x="21" y="-215.8" font-family="Arial" font-size="8.00">&#45; screen : GameScreen</text>
<text text-anchor="start" x="21" y="-205.8" font-family="Arial" font-size="8.00">&#45; previousMousePosition : Vector3</text>
<text text-anchor="start" x="21" y="-195.8" font-family="Arial" font-size="8.00">+ Info : GameObjectInfo</text>
<text text-anchor="start" x="21" y="-185.8" font-family="Arial" font-size="8.00">+ Knot : Knot</text>
<polyline fill="none" stroke="black" points="13,-179 329,-179 "/>
<text text-anchor="start" x="21" y="-167.8" font-family="Arial" font-size="8.00">&#45; IEnumerable.GetEnumerator () : IEnumerator</text>
<text text-anchor="start" x="21" y="-157.8" font-family="Arial" font-size="8.00">&#45; MovePipes (Vector3 currentMousePosition)</text>
<text text-anchor="start" x="21" y="-147.8" font-family="Arial" font-size="8.00">&#45; MoveShadowPipes (Vector3 currentMousePosition)</text>
<text text-anchor="start" x="21" y="-137.8" font-family="Arial" font-size="8.00">+ EdgeMovement (GameScreen screen, World world, GameObjectInfo info)</text>
<text text-anchor="start" x="21" y="-127.8" font-family="Arial" font-size="8.00">+ Intersects (Ray ray) : GameObjectDistance</text>
<text text-anchor="start" x="21" y="-117.8" font-family="Arial" font-size="8.00">+ GetEnumerator () : IEnumerator&lt;IGameObject&gt;</text>
<text text-anchor="start" x="21" y="-107.8" font-family="Arial" font-size="8.00">+ Draw (GameTime time)</text>
<text text-anchor="start" x="21" y="-97.8" font-family="Arial" font-size="8.00">+ Update (GameTime time)</text>
<text text-anchor="start" x="21" y="-87.8" font-family="Arial" font-size="8.00">&#45; ComputeDirection (Vector3 currentMousePosition, out Direction direction, out float</text>
<text text-anchor="start" x="21" y="-77.8" font-family="Arial" font-size="8.00">count)</text>
<text text-anchor="start" x="21" y="-67.8" font-family="Arial" font-size="8.00">&#45; ComputeDirection (Vector3 currentMousePosition, out Direction direction, out int</text>
<text text-anchor="start" x="21" y="-57.8" font-family="Arial" font-size="8.00">countInt)</text>
<text text-anchor="start" x="21" y="-47.8" font-family="Arial" font-size="8.00">&#45; CreateShadowPipes ()</text>
<text text-anchor="start" x="21" y="-37.8" font-family="Arial" font-size="8.00">&#45; MoveShadowPipes (Vector3 currentMousePosition, Vector3 direction3D)</text>
<text text-anchor="start" x="21" y="-27.8" font-family="Arial" font-size="8.00">&#45; TryMovePipes (GameTime time)</text>
<text text-anchor="start" x="21" y="-17.8" font-family="Arial" font-size="8.00">&#45; TrySelectObject (GameTime time)</text>
<text text-anchor="start" x="21" y="-7.8" font-family="Arial" font-size="8.00">+ Center () : Vector3</text>
</g>
<!-- Box_IGameObject -->
<g id="node2" class="node"><title>Box_IGameObject</title>
<polygon fill="#dafcda" stroke="black" points="-0.5,-303 -0.5,-397 178.5,-397 178.5,-303 -0.5,-303"/>
<text text-anchor="middle" x="89" y="-385.8" font-family="Arial" font-size="8.00">IGameObject</text>
<polyline fill="none" stroke="black" points="-0.5,-379 178.5,-379 "/>
<text text-anchor="start" x="7.5" y="-367.8" font-family="Arial" font-size="8.00">+ Info : GameObjectInfo</text>
<text text-anchor="start" x="7.5" y="-357.8" font-family="Arial" font-size="8.00">+ World : World</text>
<polyline fill="none" stroke="black" points="-0.5,-351 178.5,-351 "/>
<text text-anchor="start" x="7.5" y="-339.8" font-family="Arial" font-size="8.00">+ Draw (GameTime time)</text>
<text text-anchor="start" x="7.5" y="-329.8" font-family="Arial" font-size="8.00">+ Update (GameTime time)</text>
<text text-anchor="start" x="7.5" y="-319.8" font-family="Arial" font-size="8.00">+ Intersects (Ray ray) : GameObjectDistance</text>
<text text-anchor="start" x="7.5" y="-309.8" font-family="Arial" font-size="8.00">+ Center () : Vector3</text>
</g>
<!-- Box_IGameObject&#45;&gt;Box_EdgeMovement -->
<g id="edge2" class="edge"><title>Box_IGameObject&#45;&gt;Box_EdgeMovement</title>
<path fill="none" stroke="midnightblue" d="M110.349,-293.503C113.716,-284.593 117.314,-275.071 121.015,-265.277"/>
<polygon fill="none" stroke="midnightblue" points="107.054,-292.323 106.793,-302.914 113.602,-294.797 107.054,-292.323"/>
</g>
<!-- Box_IEnumerable -->
<g id="node3" class="node"><title>Box_IEnumerable</title>
<polygon fill="#ffffff" stroke="black" points="195.5,-341 195.5,-359 310.5,-359 310.5,-341 195.5,-341"/>
<text text-anchor="middle" x="253" y="-347.8" font-family="Arial" font-size="8.00">IEnumerable&lt;IGameObject&gt;</text>
</g>
<!-- Box_IEnumerable&#45;&gt;Box_EdgeMovement -->
<g id="edge4" class="edge"><title>Box_IEnumerable&#45;&gt;Box_EdgeMovement</title>
<path fill="none" stroke="midnightblue" d="M245.982,-331.429C240.002,-315.602 230.819,-291.302 220.907,-265.071"/>
<polygon fill="none" stroke="midnightblue" points="242.772,-332.835 249.581,-340.952 249.32,-330.36 242.772,-332.835"/>
</g>
</g>
</svg>
