<?xml version="1.0" encoding="UTF-8" standalone="no"?>
<!DOCTYPE svg PUBLIC "-//W3C//DTD SVG 1.1//EN"
 "http://www.w3.org/Graphics/SVG/1.1/DTD/svg11.dtd">
<!-- Generated by graphviz version 2.26.3 (20100126.1600)
 -->
<!-- Title: MenuItem Pages: 1 -->
<svg width="455pt" height="168pt"
 viewBox="0.00 0.00 455.00 168.00" xmlns="http://www.w3.org/2000/svg" xmlns:xlink="http://www.w3.org/1999/xlink">
<g id="graph1" class="graph" transform="scale(1 1) rotate(0) translate(4 164)">
<title>MenuItem</title>
<polygon fill="white" stroke="white" points="-4,5 -4,-164 452,-164 452,5 -4,5"/>
<!-- Box_DrawableGameStateComponent -->
<g id="node1" class="node"><title>Box_DrawableGameStateComponent</title>
<polygon fill="#fcfcda" stroke="black" points="0,-1 0,-85 332,-85 332,-1 0,-1"/>
<text text-anchor="middle" x="166" y="-73.8" font-family="Arial" font-size="8.00">DrawableGameStateComponent</text>
<polyline fill="none" stroke="black" points="0,-67 332,-67 "/>
<text text-anchor="start" x="8" y="-55.8" font-family="Arial" font-size="8.00">+ Index : DisplayLayer</text>
<text text-anchor="start" x="8" y="-45.8" font-family="Arial" font-size="8.00">&#45; _index : DisplayLayer</text>
<text text-anchor="start" x="8" y="-35.8" font-family="Arial" font-size="8.00">+ state : GameState</text>
<polyline fill="none" stroke="black" points="0,-29 332,-29 "/>
<text text-anchor="start" x="8" y="-17.8" font-family="Arial" font-size="8.00">+ DrawableGameStateComponent (GameState state, DisplayLayer index)</text>
<text text-anchor="start" x="8" y="-7.8" font-family="Arial" font-size="8.00">+ SubComponents (GameTime gameTime) : IEnumerable&lt;IGameStateComponent&gt; virtual</text>
</g>
<!-- Box_XnaDrawableGameComponent -->
<g id="node2" class="node"><title>Box_XnaDrawableGameComponent</title>
<polygon fill="#ffffff" stroke="black" points="317,-132 317,-150 447,-150 447,-132 317,-132"/>
<text text-anchor="middle" x="382" y="-138.8" font-family="Arial" font-size="8.00">Xna.DrawableGameComponent</text>
</g>
<!-- Box_IGameStateComponent -->
<g id="node3" class="node"><title>Box_IGameStateComponent</title>
<polygon fill="#ffffff" stroke="black" points="51,-132 51,-150 149,-150 149,-132 51,-132"/>
<text text-anchor="middle" x="100" y="-138.8" font-family="Arial" font-size="8.00">IGameStateComponent</text>
</g>
<!-- Box_IGameStateComponent&#45;&gt;Box_DrawableGameStateComponent -->
<g id="edge4" class="edge"><title>Box_IGameStateComponent&#45;&gt;Box_DrawableGameStateComponent</title>
<path fill="none" stroke="midnightblue" d="M111.739,-123.569C118.935,-112.885 128.479,-98.7125 137.555,-85.2363"/>
<polygon fill="none" stroke="midnightblue" points="108.774,-121.707 106.091,-131.956 114.58,-125.617 108.774,-121.707"/>
</g>
<!-- Box_DrawableGameComponent -->
<g id="node4" class="node"><title>Box_DrawableGameComponent</title>
<polygon fill="none" stroke="black" points="167,-123 167,-159 299,-159 299,-123 167,-123"/>
<text text-anchor="middle" x="233" y="-138.8" font-family="Arial" font-size="8.00">Box_DrawableGameComponent</text>
</g>
<!-- Box_DrawableGameComponent&#45;&gt;Box_DrawableGameStateComponent -->
<g id="edge2" class="edge"><title>Box_DrawableGameComponent&#45;&gt;Box_DrawableGameStateComponent</title>
<path fill="none" stroke="midnightblue" d="M214.634,-114.137C208.549,-105.236 201.62,-95.1012 194.938,-85.3275"/>
<polygon fill="none" stroke="midnightblue" points="211.865,-116.287 220.398,-122.567 217.643,-112.336 211.865,-116.287"/>
</g>
</g>
</svg>
