<?xml version="1.0" encoding="UTF-8" standalone="no"?>
<!DOCTYPE svg PUBLIC "-//W3C//DTD SVG 1.1//EN"
 "http://www.w3.org/Graphics/SVG/1.1/DTD/svg11.dtd">
<!-- Generated by graphviz version 2.26.3 (20100126.1600)
 -->
<!-- Title: MenuItem Pages: 1 -->
<svg width="429pt" height="392pt"
 viewBox="0.00 0.00 429.00 392.00" xmlns="http://www.w3.org/2000/svg" xmlns:xlink="http://www.w3.org/1999/xlink">
<g id="graph1" class="graph" transform="scale(1 1) rotate(0) translate(4 388)">
<title>MenuItem</title>
<polygon fill="white" stroke="white" points="-4,5 -4,-388 426,-388 426,5 -4,5"/>
<!-- Box_ModelMouseHandler -->
<g id="node1" class="node"><title>Box_ModelMouseHandler</title>
<polygon fill="#fcfcda" stroke="black" points="138,-1 138,-105 366,-105 366,-1 138,-1"/>
<text text-anchor="middle" x="252" y="-93.8" font-family="Arial" font-size="8.00">ModelMouseHandler</text>
<polyline fill="none" stroke="black" points="138,-87 366,-87 "/>
<text text-anchor="start" x="146" y="-75.8" font-family="Arial" font-size="8.00">&#45; lastMousePosition : Vector2</text>
<text text-anchor="start" x="146" y="-65.8" font-family="Arial" font-size="8.00">&#45; World : World</text>
<text text-anchor="start" x="146" y="-55.8" font-family="Arial" font-size="8.00">&#45; lastRayCheck : double</text>
<polyline fill="none" stroke="black" points="138,-49 366,-49 "/>
<text text-anchor="start" x="146" y="-37.8" font-family="Arial" font-size="8.00">&#45; UpdateMouseRay (GameTime time)</text>
<text text-anchor="start" x="146" y="-27.8" font-family="Arial" font-size="8.00">+ ModelMouseHandler (GameScreen screen, World world)</text>
<text text-anchor="start" x="146" y="-17.8" font-family="Arial" font-size="8.00">&#45; CheckMouseRay (GameTime time)</text>
<text text-anchor="start" x="146" y="-7.8" font-family="Arial" font-size="8.00">+ Update (GameTime time)</text>
</g>
<!-- Box_GameScreenComponent -->
<g id="node2" class="node"><title>Box_GameScreenComponent</title>
<polygon fill="#fcfcda" stroke="black" points="93.5,-143 93.5,-217 410.5,-217 410.5,-143 93.5,-143"/>
<text text-anchor="middle" x="252" y="-205.8" font-family="Arial" font-size="8.00">GameScreenComponent</text>
<polyline fill="none" stroke="black" points="93.5,-199 410.5,-199 "/>
<text text-anchor="start" x="101.5" y="-187.8" font-family="Arial" font-size="8.00">+ Index : DisplayLayer</text>
<text text-anchor="start" x="101.5" y="-177.8" font-family="Arial" font-size="8.00">+ screen : GameScreen</text>
<polyline fill="none" stroke="black" points="93.5,-171 410.5,-171 "/>
<text text-anchor="start" x="101.5" y="-159.8" font-family="Arial" font-size="8.00">+ GameScreenComponent (GameScreen screen, DisplayLayer index)</text>
<text text-anchor="start" x="101.5" y="-149.8" font-family="Arial" font-size="8.00">+ SubComponents (GameTime time) : IEnumerable&lt;IGameScreenComponent&gt; virtual</text>
</g>
<!-- Box_GameScreenComponent&#45;&gt;Box_ModelMouseHandler -->
<g id="edge2" class="edge"><title>Box_GameScreenComponent&#45;&gt;Box_ModelMouseHandler</title>
<path fill="none" stroke="midnightblue" d="M252,-132.74C252,-123.847 252,-114.498 252,-105.458"/>
<polygon fill="none" stroke="midnightblue" points="248.5,-132.925 252,-142.925 255.5,-132.925 248.5,-132.925"/>
</g>
<!-- Box_IGameScreenComponent -->
<g id="node3" class="node"><title>Box_IGameScreenComponent</title>
<polygon fill="#dafcda" stroke="black" points="-0.5,-255 -0.5,-309 292.5,-309 292.5,-255 -0.5,-255"/>
<text text-anchor="middle" x="146" y="-297.8" font-family="Arial" font-size="8.00">IGameScreenComponent</text>
<polyline fill="none" stroke="black" points="-0.5,-291 292.5,-291 "/>
<text text-anchor="start" x="7.5" y="-279.8" font-family="Arial" font-size="8.00">+ Index : DisplayLayer</text>
<polyline fill="none" stroke="black" points="-0.5,-273 292.5,-273 "/>
<text text-anchor="start" x="7.5" y="-261.8" font-family="Arial" font-size="8.00">+ SubComponents (GameTime time) : IEnumerable&lt;IGameScreenComponent&gt;</text>
</g>
<!-- Box_IGameScreenComponent&#45;&gt;Box_GameScreenComponent -->
<g id="edge6" class="edge"><title>Box_IGameScreenComponent&#45;&gt;Box_GameScreenComponent</title>
<path fill="none" stroke="midnightblue" d="M181.399,-247.937C191.66,-238.063 202.915,-227.233 213.364,-217.178"/>
<polygon fill="none" stroke="midnightblue" points="178.907,-245.478 174.128,-254.934 183.76,-250.522 178.907,-245.478"/>
</g>
<!-- Box_XnaGameComponent -->
<g id="node4" class="node"><title>Box_XnaGameComponent</title>
<polygon fill="#ffffff" stroke="black" points="212.5,-356 212.5,-374 307.5,-374 307.5,-356 212.5,-356"/>
<text text-anchor="middle" x="260" y="-362.8" font-family="Arial" font-size="8.00">Xna.GameComponent</text>
</g>
<!-- Box_XnaIGameComponent -->
<g id="node5" class="node"><title>Box_XnaIGameComponent</title>
<polygon fill="#ffffff" stroke="black" points="325,-356 325,-374 421,-374 421,-356 325,-356"/>
<text text-anchor="middle" x="373" y="-362.8" font-family="Arial" font-size="8.00">Xna.IGameComponent</text>
</g>
<!-- Box_GameComponent -->
<g id="node7" class="node"><title>Box_GameComponent</title>
<polygon fill="none" stroke="black" points="309.5,-264 309.5,-300 406.5,-300 406.5,-264 309.5,-264"/>
<text text-anchor="middle" x="358" y="-279.8" font-family="Arial" font-size="8.00">Box_GameComponent</text>
</g>
<!-- Box_GameComponent&#45;&gt;Box_GameScreenComponent -->
<g id="edge4" class="edge"><title>Box_GameComponent&#45;&gt;Box_GameScreenComponent</title>
<path fill="none" stroke="midnightblue" d="M331.696,-256.688C319.279,-244.74 304.216,-230.245 290.543,-217.088"/>
<polygon fill="none" stroke="midnightblue" points="329.417,-259.353 339.049,-263.764 334.27,-254.309 329.417,-259.353"/>
</g>
<!-- Box_IGameComponent -->
<g id="node10" class="node"><title>Box_IGameComponent</title>
<polygon fill="none" stroke="black" points="97,-347 97,-383 195,-383 195,-347 97,-347"/>
<text text-anchor="middle" x="146" y="-362.8" font-family="Arial" font-size="8.00">Box_IGameComponent</text>
</g>
<!-- Box_IGameComponent&#45;&gt;Box_IGameScreenComponent -->
<g id="edge8" class="edge"><title>Box_IGameComponent&#45;&gt;Box_IGameScreenComponent</title>
<path fill="none" stroke="midnightblue" d="M146,-336.987C146,-327.995 146,-318.055 146,-309.127"/>
<polygon fill="none" stroke="midnightblue" points="142.5,-336.99 146,-346.99 149.5,-336.99 142.5,-336.99"/>
</g>
</g>
</svg>
