<?xml version="1.0" encoding="UTF-8" standalone="no"?>
<!DOCTYPE svg PUBLIC "-//W3C//DTD SVG 1.1//EN"
 "http://www.w3.org/Graphics/SVG/1.1/DTD/svg11.dtd">
<!-- Generated by graphviz version 2.26.3 (20100126.1600)
 -->
<!-- Title: MenuItem Pages: 1 -->
<svg width="914pt" height="474pt"
 viewBox="0.00 0.00 914.00 474.00" xmlns="http://www.w3.org/2000/svg" xmlns:xlink="http://www.w3.org/1999/xlink">
<g id="graph1" class="graph" transform="scale(1 1) rotate(0) translate(4 470)">
<title>MenuItem</title>
<polygon fill="white" stroke="white" points="-4,5 -4,-470 911,-470 911,5 -4,5"/>
<!-- Box_GameModelInfo -->
<g id="node1" class="node"><title>Box_GameModelInfo</title>
<polygon fill="#fcfcda" stroke="black" points="368,-153 368,-237 524,-237 524,-153 368,-153"/>
<text text-anchor="middle" x="446" y="-225.8" font-family="Arial" font-size="8.00">GameModelInfo</text>
<polyline fill="none" stroke="black" points="368,-219 524,-219 "/>
<text text-anchor="start" x="376" y="-207.8" font-family="Arial" font-size="8.00">+ Rotation : Angles3</text>
<text text-anchor="start" x="376" y="-197.8" font-family="Arial" font-size="8.00">+ Scale : Vector3</text>
<text text-anchor="start" x="376" y="-187.8" font-family="Arial" font-size="8.00">+ Modelname : string</text>
<polyline fill="none" stroke="black" points="368,-181 524,-181 "/>
<text text-anchor="start" x="376" y="-169.8" font-family="Arial" font-size="8.00">+ GameModelInfo (string modelname)</text>
<text text-anchor="start" x="376" y="-159.8" font-family="Arial" font-size="8.00">+ Equals (GameObjectInfo other) : bool</text>
</g>
<!-- Box_ArrowModelInfo -->
<g id="node3" class="node"><title>Box_ArrowModelInfo</title>
<polygon fill="#fcfcda" stroke="black" points="0,-16 0,-100 274,-100 274,-16 0,-16"/>
<text text-anchor="middle" x="137" y="-88.8" font-family="Arial" font-size="8.00">ArrowModelInfo</text>
<polyline fill="none" stroke="black" points="0,-82 274,-82 "/>
<text text-anchor="start" x="8" y="-70.8" font-family="Arial" font-size="8.00">+ Diameter : float</text>
<text text-anchor="start" x="8" y="-60.8" font-family="Arial" font-size="8.00">+ Length : float</text>
<text text-anchor="start" x="8" y="-50.8" font-family="Arial" font-size="8.00">+ Direction : Vector3</text>
<polyline fill="none" stroke="black" points="0,-44 274,-44 "/>
<text text-anchor="start" x="8" y="-32.8" font-family="Arial" font-size="8.00">+ ArrowModelInfo (Vector3 position, Vector3 direction, Vector3 offset)</text>
<text text-anchor="start" x="8" y="-22.8" font-family="Arial" font-size="8.00">+ Equals (GameObjectInfo other) : bool</text>
</g>
<!-- Box_GameModelInfo&#45;&gt;Box_ArrowModelInfo -->
<g id="edge6" class="edge"><title>Box_GameModelInfo&#45;&gt;Box_ArrowModelInfo</title>
<path fill="none" stroke="midnightblue" d="M358.278,-156.107C318.798,-138.603 272.116,-117.906 231.829,-100.044"/>
<polygon fill="none" stroke="midnightblue" points="357.066,-159.398 367.627,-160.252 359.904,-152.999 357.066,-159.398"/>
</g>
<!-- Box_NodeModelInfo -->
<g id="node4" class="node"><title>Box_NodeModelInfo</title>
<polygon fill="#fcfcda" stroke="black" points="292,-16 292,-100 600,-100 600,-16 292,-16"/>
<text text-anchor="middle" x="446" y="-88.8" font-family="Arial" font-size="8.00">NodeModelInfo</text>
<polyline fill="none" stroke="black" points="292,-82 600,-82 "/>
<text text-anchor="start" x="300" y="-70.8" font-family="Arial" font-size="8.00">+ EdgeA : Edge</text>
<text text-anchor="start" x="300" y="-60.8" font-family="Arial" font-size="8.00">+ EdgeB : Edge</text>
<text text-anchor="start" x="300" y="-50.8" font-family="Arial" font-size="8.00">+ NodeMap : NodeMap</text>
<polyline fill="none" stroke="black" points="292,-44 600,-44 "/>
<text text-anchor="start" x="300" y="-32.8" font-family="Arial" font-size="8.00">+ NodeModelInfo (NodeMap nodeMap, Edge edgeA, Edge edgeB, Vector3 offset)</text>
<text text-anchor="start" x="300" y="-22.8" font-family="Arial" font-size="8.00">+ Equals (GameObjectInfo other) : bool</text>
</g>
<!-- Box_GameModelInfo&#45;&gt;Box_NodeModelInfo -->
<g id="edge8" class="edge"><title>Box_GameModelInfo&#45;&gt;Box_NodeModelInfo</title>
<path fill="none" stroke="midnightblue" d="M446,-142.768C446,-128.736 446,-113.739 446,-100.319"/>
<polygon fill="none" stroke="midnightblue" points="442.5,-142.778 446,-152.778 449.5,-142.778 442.5,-142.778"/>
</g>
<!-- Box_PipeModelInfo -->
<g id="node5" class="node"><title>Box_PipeModelInfo</title>
<polygon fill="#fcfcda" stroke="black" points="617.5,-1 617.5,-115 906.5,-115 906.5,-1 617.5,-1"/>
<text text-anchor="middle" x="762" y="-103.8" font-family="Arial" font-size="8.00">PipeModelInfo</text>
<polyline fill="none" stroke="black" points="617.5,-97 906.5,-97 "/>
<text text-anchor="start" x="625.5" y="-85.8" font-family="Arial" font-size="8.00">+ Edge : Edge</text>
<text text-anchor="start" x="625.5" y="-75.8" font-family="Arial" font-size="8.00">+ NodeMap : NodeMap</text>
<text text-anchor="start" x="625.5" y="-65.8" font-family="Arial" font-size="8.00">+ Direction : Vector3</text>
<text text-anchor="start" x="625.5" y="-55.8" font-family="Arial" font-size="8.00">+ PositionFrom : Vector3</text>
<text text-anchor="start" x="625.5" y="-45.8" font-family="Arial" font-size="8.00">+ PositionTo : Vector3</text>
<text text-anchor="start" x="625.5" y="-35.8" font-family="Arial" font-size="8.00">+ Knot : Knot</text>
<polyline fill="none" stroke="black" points="617.5,-29 906.5,-29 "/>
<text text-anchor="start" x="625.5" y="-17.8" font-family="Arial" font-size="8.00">+ PipeModelInfo (Knot knot, NodeMap nodeMap, Edge edge, Vector3 offset)</text>
<text text-anchor="start" x="625.5" y="-7.8" font-family="Arial" font-size="8.00">+ Equals (GameObjectInfo other) : bool</text>
</g>
<!-- Box_GameModelInfo&#45;&gt;Box_PipeModelInfo -->
<g id="edge10" class="edge"><title>Box_GameModelInfo&#45;&gt;Box_PipeModelInfo</title>
<path fill="none" stroke="midnightblue" d="M533.673,-156.99C563.599,-144.016 597.754,-129.208 630.367,-115.069"/>
<polygon fill="none" stroke="midnightblue" points="531.895,-153.946 524.112,-161.135 534.679,-160.368 531.895,-153.946"/>
</g>
<!-- Box_GameObjectInfo -->
<g id="node2" class="node"><title>Box_GameObjectInfo</title>
<polygon fill="#fcfcda" stroke="black" points="320,-275 320,-409 572,-409 572,-275 320,-275"/>
<text text-anchor="middle" x="446" y="-397.8" font-family="Arial" font-size="8.00">GameObjectInfo</text>
<polyline fill="none" stroke="black" points="320,-391 572,-391 "/>
<text text-anchor="start" x="328" y="-379.8" font-family="Arial" font-size="8.00">+ IsMovable : bool</text>
<text text-anchor="start" x="328" y="-369.8" font-family="Arial" font-size="8.00">+ IsSelectable : bool</text>
<text text-anchor="start" x="328" y="-359.8" font-family="Arial" font-size="8.00">+ IsVisible : bool</text>
<text text-anchor="start" x="328" y="-349.8" font-family="Arial" font-size="8.00">+ Position : Vector3</text>
<polyline fill="none" stroke="black" points="320,-343 572,-343 "/>
<text text-anchor="start" x="328" y="-331.8" font-family="Arial" font-size="8.00">+ GameObjectInfo ()</text>
<text text-anchor="start" x="328" y="-321.8" font-family="Arial" font-size="8.00">+ operator (GameObjectInfo o1, GameObjectInfo o2) : bool static</text>
<text text-anchor="start" x="328" y="-311.8" font-family="Arial" font-size="8.00">+ Equals (Object obj) : bool</text>
<text text-anchor="start" x="328" y="-301.8" font-family="Arial" font-size="8.00">+ GetHashCode () : int</text>
<text text-anchor="start" x="328" y="-291.8" font-family="Arial" font-size="8.00">+ operator ! (GameObjectInfo o1, GameObjectInfo o2) : bool static</text>
<text text-anchor="start" x="328" y="-281.8" font-family="Arial" font-size="8.00">+ Equals (GameObjectInfo other) : bool virtual</text>
</g>
<!-- Box_GameObjectInfo&#45;&gt;Box_GameModelInfo -->
<g id="edge2" class="edge"><title>Box_GameObjectInfo&#45;&gt;Box_GameModelInfo</title>
<path fill="none" stroke="midnightblue" d="M446,-264.668C446,-255.194 446,-245.804 446,-237.132"/>
<polygon fill="none" stroke="midnightblue" points="442.5,-264.953 446,-274.953 449.5,-264.953 442.5,-264.953"/>
</g>
<!-- Box_IEquatable -->
<g id="node6" class="node"><title>Box_IEquatable</title>
<polygon fill="#ffffff" stroke="black" points="386,-447 386,-465 506,-465 506,-447 386,-447"/>
<text text-anchor="middle" x="446" y="-453.8" font-family="Arial" font-size="8.00">IEquatable&lt;GameObjectInfo&gt;</text>
</g>
<!-- Box_IEquatable&#45;&gt;Box_GameObjectInfo -->
<g id="edge4" class="edge"><title>Box_IEquatable&#45;&gt;Box_GameObjectInfo</title>
<path fill="none" stroke="midnightblue" d="M446,-436.57C446,-428.742 446,-419.21 446,-409.246"/>
<polygon fill="none" stroke="midnightblue" points="442.5,-436.671 446,-446.671 449.5,-436.671 442.5,-436.671"/>
</g>
</g>
</svg>
