<?xml version="1.0" encoding="UTF-8" standalone="no"?>
<!DOCTYPE svg PUBLIC "-//W3C//DTD SVG 1.1//EN"
 "http://www.w3.org/Graphics/SVG/1.1/DTD/svg11.dtd">
<!-- Generated by graphviz version 2.26.3 (20100126.1600)
 -->
<!-- Title: MenuItem Pages: 1 -->
<svg width="673pt" height="522pt"
 viewBox="0.00 0.00 673.00 522.00" xmlns="http://www.w3.org/2000/svg" xmlns:xlink="http://www.w3.org/1999/xlink">
<g id="graph1" class="graph" transform="scale(1 1) rotate(0) translate(4 518)">
<title>MenuItem</title>
<polygon fill="white" stroke="white" points="-4,5 -4,-518 670,-518 670,5 -4,5"/>
<!-- Box_MenuScreenInput -->
<g id="node1" class="node"><title>Box_MenuScreenInput</title>
<polygon fill="#fcfcda" stroke="black" points="212.5,-1 212.5,-55 367.5,-55 367.5,-1 212.5,-1"/>
<text text-anchor="middle" x="290" y="-43.8" font-family="Arial" font-size="8.00">MenuScreenInput</text>
<polyline fill="none" stroke="black" points="212.5,-37 367.5,-37 "/>
<text text-anchor="middle" x="290" y="-25.8" font-family="Arial" font-size="8.00"> </text>
<polyline fill="none" stroke="black" points="212.5,-19 367.5,-19 "/>
<text text-anchor="start" x="220.5" y="-7.8" font-family="Arial" font-size="8.00">+ MenuScreenInput (GameState state)</text>
</g>
<!-- Box_Input -->
<g id="node2" class="node"><title>Box_Input</title>
<polygon fill="#fcfcda" stroke="black" points="146.5,-93 146.5,-327 433.5,-327 433.5,-93 146.5,-93"/>
<text text-anchor="middle" x="290" y="-315.8" font-family="Arial" font-size="8.00">Input</text>
<polyline fill="none" stroke="black" points="146.5,-309 433.5,-309 "/>
<text text-anchor="start" x="154.5" y="-297.8" font-family="Arial" font-size="8.00">&#45; PreviousClickMouseState : MouseState static</text>
<text text-anchor="start" x="154.5" y="-287.8" font-family="Arial" font-size="8.00">&#45; LeftButtonClickTimer : double static</text>
<text text-anchor="start" x="154.5" y="-277.8" font-family="Arial" font-size="8.00">&#45; RightButtonClickTimer : double static</text>
<text text-anchor="start" x="154.5" y="-267.8" font-family="Arial" font-size="8.00">+ GrabMouseMovement : bool</text>
<text text-anchor="start" x="154.5" y="-257.8" font-family="Arial" font-size="8.00">+ LeftButton : ClickState static</text>
<text text-anchor="start" x="154.5" y="-247.8" font-family="Arial" font-size="8.00">+ RightButton : ClickState static</text>
<text text-anchor="start" x="154.5" y="-237.8" font-family="Arial" font-size="8.00">+ PreviousKeyboardState : KeyboardState static</text>
<text text-anchor="start" x="154.5" y="-227.8" font-family="Arial" font-size="8.00">+ MouseState : MouseState static</text>
<text text-anchor="start" x="154.5" y="-217.8" font-family="Arial" font-size="8.00">+ PreviousMouseState : MouseState static</text>
<text text-anchor="start" x="154.5" y="-207.8" font-family="Arial" font-size="8.00"># FullscreenToggled : bool static</text>
<text text-anchor="start" x="154.5" y="-197.8" font-family="Arial" font-size="8.00">+ CurrentInputAction : InputAction</text>
<text text-anchor="start" x="154.5" y="-187.8" font-family="Arial" font-size="8.00">+ ValidKeys : List&lt;Keys&gt;</text>
<text text-anchor="start" x="154.5" y="-177.8" font-family="Arial" font-size="8.00">+ WASDMode : WASDMode</text>
<text text-anchor="start" x="154.5" y="-167.8" font-family="Arial" font-size="8.00">+ IsKeyEventEnabled : bool</text>
<text text-anchor="start" x="154.5" y="-157.8" font-family="Arial" font-size="8.00">+ KeyboardState : KeyboardState static</text>
<polyline fill="none" stroke="black" points="146.5,-151 433.5,-151 "/>
<text text-anchor="start" x="154.5" y="-139.8" font-family="Arial" font-size="8.00"># UpdateMouse (GameTime gameTime) virtual</text>
<text text-anchor="start" x="154.5" y="-129.8" font-family="Arial" font-size="8.00">+ Update (GameTime gameTime)</text>
<text text-anchor="start" x="154.5" y="-119.8" font-family="Arial" font-size="8.00">+ OnKeyEvent (List&lt;Keys&gt; key, KeyEvent keyEvent, GameTime gameTime)</text>
<text text-anchor="start" x="154.5" y="-109.8" font-family="Arial" font-size="8.00"># UpdateKeys (GameTime gameTime) virtual</text>
<text text-anchor="start" x="154.5" y="-99.8" font-family="Arial" font-size="8.00">+ Input (GameState state)</text>
</g>
<!-- Box_Input&#45;&gt;Box_MenuScreenInput -->
<g id="edge2" class="edge"><title>Box_Input&#45;&gt;Box_MenuScreenInput</title>
<path fill="none" stroke="midnightblue" d="M290,-82.6713C290,-72.6201 290,-63.2764 290,-55.2588"/>
<polygon fill="none" stroke="midnightblue" points="286.5,-82.9353 290,-92.9354 293.5,-82.9354 286.5,-82.9353"/>
</g>
<!-- Box_IKeyEventListener -->
<g id="node3" class="node"><title>Box_IKeyEventListener</title>
<polygon fill="#dafcda" stroke="black" points="-0.5,-365 -0.5,-439 264.5,-439 264.5,-365 -0.5,-365"/>
<text text-anchor="middle" x="132" y="-427.8" font-family="Arial" font-size="8.00">IKeyEventListener</text>
<polyline fill="none" stroke="black" points="-0.5,-421 264.5,-421 "/>
<text text-anchor="start" x="7.5" y="-409.8" font-family="Arial" font-size="8.00">+ ValidKeys : List&lt;Keys&gt;</text>
<text text-anchor="start" x="7.5" y="-399.8" font-family="Arial" font-size="8.00">+ Index : DisplayLayer</text>
<text text-anchor="start" x="7.5" y="-389.8" font-family="Arial" font-size="8.00">+ IsKeyEventEnabled : bool</text>
<polyline fill="none" stroke="black" points="-0.5,-383 264.5,-383 "/>
<text text-anchor="start" x="7.5" y="-371.8" font-family="Arial" font-size="8.00">+ OnKeyEvent (List&lt;Keys&gt; key, KeyEvent keyEvent, GameTime time)</text>
</g>
<!-- Box_IKeyEventListener&#45;&gt;Box_Input -->
<g id="edge6" class="edge"><title>Box_IKeyEventListener&#45;&gt;Box_Input</title>
<path fill="none" stroke="midnightblue" d="M168.953,-357.095C176.566,-347.844 184.913,-337.701 193.553,-327.201"/>
<polygon fill="none" stroke="midnightblue" points="166.116,-355.035 162.464,-364.98 171.521,-359.483 166.116,-355.035"/>
</g>
<!-- Box_GameStateComponent -->
<g id="node4" class="node"><title>Box_GameStateComponent</title>
<polygon fill="#fcfcda" stroke="black" points="282,-365 282,-439 614,-439 614,-365 282,-365"/>
<text text-anchor="middle" x="448" y="-427.8" font-family="Arial" font-size="8.00">GameStateComponent</text>
<polyline fill="none" stroke="black" points="282,-421 614,-421 "/>
<text text-anchor="start" x="290" y="-409.8" font-family="Arial" font-size="8.00">+ Index : DisplayLayer</text>
<text text-anchor="start" x="290" y="-399.8" font-family="Arial" font-size="8.00">+ state : GameState</text>
<polyline fill="none" stroke="black" points="282,-393 614,-393 "/>
<text text-anchor="start" x="290" y="-381.8" font-family="Arial" font-size="8.00">+ GameStateComponent (GameState state, DisplayLayer index)</text>
<text text-anchor="start" x="290" y="-371.8" font-family="Arial" font-size="8.00">+ SubComponents (GameTime gameTime) : IEnumerable&lt;IGameStateComponent&gt; virtual</text>
</g>
<!-- Box_GameStateComponent&#45;&gt;Box_Input -->
<g id="edge4" class="edge"><title>Box_GameStateComponent&#45;&gt;Box_Input</title>
<path fill="none" stroke="midnightblue" d="M411.047,-357.095C403.434,-347.844 395.087,-337.701 386.447,-327.201"/>
<polygon fill="none" stroke="midnightblue" points="408.479,-359.483 417.536,-364.98 413.884,-355.035 408.479,-359.483"/>
</g>
<!-- Box_XnaGameComponent -->
<g id="node5" class="node"><title>Box_XnaGameComponent</title>
<polygon fill="#ffffff" stroke="black" points="570.5,-486 570.5,-504 665.5,-504 665.5,-486 570.5,-486"/>
<text text-anchor="middle" x="618" y="-492.8" font-family="Arial" font-size="8.00">Xna.GameComponent</text>
</g>
<!-- Box_IGameStateComponent -->
<g id="node6" class="node"><title>Box_IGameStateComponent</title>
<polygon fill="#ffffff" stroke="black" points="341,-486 341,-504 439,-504 439,-486 341,-486"/>
<text text-anchor="middle" x="390" y="-492.8" font-family="Arial" font-size="8.00">IGameStateComponent</text>
</g>
<!-- Box_IGameStateComponent&#45;&gt;Box_GameStateComponent -->
<g id="edge10" class="edge"><title>Box_IGameStateComponent&#45;&gt;Box_GameStateComponent</title>
<path fill="none" stroke="midnightblue" d="M401.253,-476.956C407.926,-466.256 416.637,-452.289 424.728,-439.316"/>
<polygon fill="none" stroke="midnightblue" points="398.095,-475.406 395.773,-485.743 404.035,-479.11 398.095,-475.406"/>
</g>
<!-- Box_GameComponent -->
<g id="node10" class="node"><title>Box_GameComponent</title>
<polygon fill="none" stroke="black" points="456.5,-477 456.5,-513 553.5,-513 553.5,-477 456.5,-477"/>
<text text-anchor="middle" x="505" y="-492.8" font-family="Arial" font-size="8.00">Box_GameComponent</text>
</g>
<!-- Box_GameComponent&#45;&gt;Box_GameStateComponent -->
<g id="edge8" class="edge"><title>Box_GameComponent&#45;&gt;Box_GameStateComponent</title>
<path fill="none" stroke="midnightblue" d="M488.498,-468.076C482.972,-459.06 476.71,-448.842 470.79,-439.184"/>
<polygon fill="none" stroke="midnightblue" points="485.529,-469.929 493.739,-476.626 491.497,-466.271 485.529,-469.929"/>
</g>
</g>
</svg>
