<?xml version="1.0" encoding="UTF-8" standalone="no"?>
<!DOCTYPE svg PUBLIC "-//W3C//DTD SVG 1.1//EN"
 "http://www.w3.org/Graphics/SVG/1.1/DTD/svg11.dtd">
<!-- Generated by graphviz version 2.26.3 (20100126.1600)
 -->
<!-- Title: MenuItem Pages: 1 -->
<svg width="340pt" height="346pt"
 viewBox="0.00 0.00 340.00 346.00" xmlns="http://www.w3.org/2000/svg" xmlns:xlink="http://www.w3.org/1999/xlink">
<g id="graph1" class="graph" transform="scale(1 1) rotate(0) translate(4 342)">
<title>MenuItem</title>
<polygon fill="white" stroke="white" points="-4,5 -4,-342 337,-342 337,5 -4,5"/>
<!-- Box_BooleanOptionInfo -->
<g id="node1" class="node"><title>Box_BooleanOptionInfo</title>
<polygon fill="#fcfcda" stroke="black" points="11.5,-1 11.5,-75 320.5,-75 320.5,-1 11.5,-1"/>
<text text-anchor="middle" x="166" y="-63.8" font-family="Arial" font-size="8.00">BooleanOptionInfo</text>
<polyline fill="none" stroke="black" points="11.5,-57 320.5,-57 "/>
<text text-anchor="start" x="19.5" y="-45.8" font-family="Arial" font-size="8.00">+ BoolValue : bool</text>
<text text-anchor="start" x="19.5" y="-35.8" font-family="Arial" font-size="8.00">+ ValidValues : string[] static</text>
<polyline fill="none" stroke="black" points="11.5,-29 320.5,-29 "/>
<text text-anchor="start" x="19.5" y="-17.8" font-family="Arial" font-size="8.00">+ BooleanOptionInfo (string section, string name, bool defaultValue, Action&lt;bool&gt;</text>
<text text-anchor="start" x="19.5" y="-7.8" font-family="Arial" font-size="8.00">onChange)</text>
</g>
<!-- Box_DistinctOptionInfo -->
<g id="node2" class="node"><title>Box_DistinctOptionInfo</title>
<polygon fill="#fcfcda" stroke="black" points="21.5,-113 21.5,-187 310.5,-187 310.5,-113 21.5,-113"/>
<text text-anchor="middle" x="166" y="-175.8" font-family="Arial" font-size="8.00">DistinctOptionInfo</text>
<polyline fill="none" stroke="black" points="21.5,-169 310.5,-169 "/>
<text text-anchor="start" x="29.5" y="-157.8" font-family="Arial" font-size="8.00">+ ValidValues : HashSet&lt;string&gt;</text>
<text text-anchor="start" x="29.5" y="-147.8" font-family="Arial" font-size="8.00">+ Value : string</text>
<polyline fill="none" stroke="black" points="21.5,-141 310.5,-141 "/>
<text text-anchor="start" x="29.5" y="-129.8" font-family="Arial" font-size="8.00">+ DistinctOptionInfo (string section, string name, string defaultValue, string[]</text>
<text text-anchor="start" x="29.5" y="-119.8" font-family="Arial" font-size="8.00">validValues, Action&lt;string&gt; onChange)</text>
</g>
<!-- Box_DistinctOptionInfo&#45;&gt;Box_BooleanOptionInfo -->
<g id="edge2" class="edge"><title>Box_DistinctOptionInfo&#45;&gt;Box_BooleanOptionInfo</title>
<path fill="none" stroke="midnightblue" d="M166,-102.547C166,-93.3834 166,-83.9074 166,-75.1315"/>
<polygon fill="none" stroke="midnightblue" points="162.5,-102.706 166,-112.706 169.5,-102.706 162.5,-102.706"/>
</g>
<!-- Box_OptionInfo -->
<g id="node3" class="node"><title>Box_OptionInfo</title>
<polygon fill="#fcfcda" stroke="black" points="0,-224.5 0,-337.5 332,-337.5 332,-224.5 0,-224.5"/>
<text text-anchor="middle" x="166" y="-326.3" font-family="Arial" font-size="8.00">OptionInfo</text>
<polyline fill="none" stroke="black" points="0,-319.5 332,-319.5 "/>
<text text-anchor="start" x="8" y="-308.3" font-family="Arial" font-size="8.00">&#45; ConfigFile : ConfigFile</text>
<text text-anchor="start" x="8" y="-298.3" font-family="Arial" font-size="8.00">+ OnChange : Action&lt;string&gt;</text>
<text text-anchor="start" x="8" y="-288.3" font-family="Arial" font-size="8.00">+ DefaultValue : string</text>
<text text-anchor="start" x="8" y="-278.3" font-family="Arial" font-size="8.00">+ Name : string</text>
<text text-anchor="start" x="8" y="-268.3" font-family="Arial" font-size="8.00">+ Section : string</text>
<text text-anchor="start" x="8" y="-258.3" font-family="Arial" font-size="8.00">+ Value : string virtual</text>
<polyline fill="none" stroke="black" points="0,-251.5 332,-251.5 "/>
<text text-anchor="start" x="8" y="-240.3" font-family="Arial" font-size="8.00">+ OptionInfo (string section, string name, string defaultValue, Action&lt;string&gt; onChange)</text>
</g>
<!-- Box_OptionInfo&#45;&gt;Box_DistinctOptionInfo -->
<g id="edge4" class="edge"><title>Box_OptionInfo&#45;&gt;Box_DistinctOptionInfo</title>
<path fill="none" stroke="midnightblue" d="M166,-214.217C166,-204.901 166,-195.62 166,-187.127"/>
<polygon fill="none" stroke="midnightblue" points="162.5,-214.303 166,-224.303 169.5,-214.303 162.5,-214.303"/>
</g>
</g>
</svg>
