<?xml version="1.0" encoding="UTF-8" standalone="no"?>
<!DOCTYPE svg PUBLIC "-//W3C//DTD SVG 1.1//EN"
 "http://www.w3.org/Graphics/SVG/1.1/DTD/svg11.dtd">
<!-- Generated by graphviz version 2.26.3 (20100126.1600)
 -->
<!-- Title: MenuItem Pages: 1 -->
<svg width="264pt" height="240pt"
 viewBox="0.00 0.00 264.00 240.00" xmlns="http://www.w3.org/2000/svg" xmlns:xlink="http://www.w3.org/1999/xlink">
<g id="graph1" class="graph" transform="scale(1 1) rotate(0) translate(4 236)">
<title>MenuItem</title>
<polygon fill="white" stroke="white" points="-4,5 -4,-236 261,-236 261,5 -4,5"/>
<!-- Box_EdgeListFormat -->
<g id="node1" class="node"><title>Box_EdgeListFormat</title>
<polygon fill="#fcfcda" stroke="black" points="-0.5,-1 -0.5,-175 256.5,-175 256.5,-1 -0.5,-1"/>
<text text-anchor="middle" x="128" y="-163.8" font-family="Arial" font-size="8.00">EdgeListFormat</text>
<polyline fill="none" stroke="black" points="-0.5,-157 256.5,-157 "/>
<text text-anchor="start" x="7.5" y="-145.8" font-family="Arial" font-size="8.00">+ FileExtensions : string[]</text>
<polyline fill="none" stroke="black" points="-0.5,-139 256.5,-139 "/>
<text text-anchor="start" x="7.5" y="-127.8" font-family="Arial" font-size="8.00">&#45; DecodeEdge (char c) : Edge static</text>
<text text-anchor="start" x="7.5" y="-117.8" font-family="Arial" font-size="8.00">&#45; ParseIntegers (string str) : IEnumerable&lt;int&gt; static</text>
<text text-anchor="start" x="7.5" y="-107.8" font-family="Arial" font-size="8.00">&#45; EncodeEdge (Edge edge) : char static</text>
<text text-anchor="start" x="7.5" y="-97.8" font-family="Arial" font-size="8.00">+ EdgeListFormat ()</text>
<text text-anchor="start" x="7.5" y="-87.8" font-family="Arial" font-size="8.00">+ LoadKnot (string filename) : Knot</text>
<text text-anchor="start" x="7.5" y="-77.8" font-family="Arial" font-size="8.00">+ FindFilename (string knotName) : string</text>
<text text-anchor="start" x="7.5" y="-67.8" font-family="Arial" font-size="8.00">+ SaveKnot (Knot knot)</text>
<text text-anchor="start" x="7.5" y="-57.8" font-family="Arial" font-size="8.00">&#45; DecodeColor (string hexString) : Color static</text>
<text text-anchor="start" x="7.5" y="-47.8" font-family="Arial" font-size="8.00">&#45; ToLines (Knot knot) : IEnumerable&lt;string&gt; static</text>
<text text-anchor="start" x="7.5" y="-37.8" font-family="Arial" font-size="8.00">&#45; EncodeColor (Color c) : String static</text>
<text text-anchor="start" x="7.5" y="-27.8" font-family="Arial" font-size="8.00">&#45; ParseLine (string line, out Edge edge, out Color color) : bool static</text>
<text text-anchor="start" x="7.5" y="-17.8" font-family="Arial" font-size="8.00">&#45; ParseLines (List&lt;string&gt; lines, EdgeList edges) static</text>
<text text-anchor="start" x="7.5" y="-7.8" font-family="Arial" font-size="8.00">+ LoadInfo (string filename) : KnotInfo</text>
</g>
<!-- Box_IKnotFormat -->
<g id="node2" class="node"><title>Box_IKnotFormat</title>
<polygon fill="#ffffff" stroke="black" points="98.5,-213 98.5,-231 157.5,-231 157.5,-213 98.5,-213"/>
<text text-anchor="middle" x="128" y="-219.8" font-family="Arial" font-size="8.00">IKnotFormat</text>
</g>
<!-- Box_IKnotFormat&#45;&gt;Box_EdgeListFormat -->
<g id="edge2" class="edge"><title>Box_IKnotFormat&#45;&gt;Box_EdgeListFormat</title>
<path fill="none" stroke="midnightblue" d="M128,-202.541C128,-194.819 128,-185.359 128,-175.217"/>
<polygon fill="none" stroke="midnightblue" points="124.5,-202.79 128,-212.79 131.5,-202.79 124.5,-202.79"/>
</g>
</g>
</svg>
