<?xml version="1.0" encoding="UTF-8" standalone="no"?>
<!DOCTYPE svg PUBLIC "-//W3C//DTD SVG 1.1//EN"
 "http://www.w3.org/Graphics/SVG/1.1/DTD/svg11.dtd">
<!-- Generated by graphviz version 2.26.3 (20100126.1600)
 -->
<!-- Title: MenuItem Pages: 1 -->
<svg width="429pt" height="352pt"
 viewBox="0.00 0.00 429.00 352.00" xmlns="http://www.w3.org/2000/svg" xmlns:xlink="http://www.w3.org/1999/xlink">
<g id="graph1" class="graph" transform="scale(1 1) rotate(0) translate(4 348)">
<title>MenuItem</title>
<polygon fill="white" stroke="white" points="-4,5 -4,-348 426,-348 426,5 -4,5"/>
<!-- Box_WidgetKeyHandler -->
<g id="node1" class="node"><title>Box_WidgetKeyHandler</title>
<polygon fill="#fcfcda" stroke="black" points="165.5,-1 165.5,-65 338.5,-65 338.5,-1 165.5,-1"/>
<text text-anchor="middle" x="252" y="-53.8" font-family="Arial" font-size="8.00">WidgetKeyHandler</text>
<polyline fill="none" stroke="black" points="165.5,-47 338.5,-47 "/>
<text text-anchor="start" x="173.5" y="-35.8" font-family="Arial" font-size="8.00">&#45; KeyEventComponent : class</text>
<polyline fill="none" stroke="black" points="165.5,-29 338.5,-29 "/>
<text text-anchor="start" x="173.5" y="-17.8" font-family="Arial" font-size="8.00">+ WidgetKeyHandler (GameScreen screen)</text>
<text text-anchor="start" x="173.5" y="-7.8" font-family="Arial" font-size="8.00">+ Update (GameTime time)</text>
</g>
<!-- Box_GameScreenComponent -->
<g id="node2" class="node"><title>Box_GameScreenComponent</title>
<polygon fill="#fcfcda" stroke="black" points="93.5,-103 93.5,-177 410.5,-177 410.5,-103 93.5,-103"/>
<text text-anchor="middle" x="252" y="-165.8" font-family="Arial" font-size="8.00">GameScreenComponent</text>
<polyline fill="none" stroke="black" points="93.5,-159 410.5,-159 "/>
<text text-anchor="start" x="101.5" y="-147.8" font-family="Arial" font-size="8.00">+ Index : DisplayLayer</text>
<text text-anchor="start" x="101.5" y="-137.8" font-family="Arial" font-size="8.00">+ screen : GameScreen</text>
<polyline fill="none" stroke="black" points="93.5,-131 410.5,-131 "/>
<text text-anchor="start" x="101.5" y="-119.8" font-family="Arial" font-size="8.00">+ GameScreenComponent (GameScreen screen, DisplayLayer index)</text>
<text text-anchor="start" x="101.5" y="-109.8" font-family="Arial" font-size="8.00">+ SubComponents (GameTime time) : IEnumerable&lt;IGameScreenComponent&gt; virtual</text>
</g>
<!-- Box_GameScreenComponent&#45;&gt;Box_WidgetKeyHandler -->
<g id="edge2" class="edge"><title>Box_GameScreenComponent&#45;&gt;Box_WidgetKeyHandler</title>
<path fill="none" stroke="midnightblue" d="M252,-92.8493C252,-83.4611 252,-73.8084 252,-65.0695"/>
<polygon fill="none" stroke="midnightblue" points="248.5,-92.8768 252,-102.877 255.5,-92.8769 248.5,-92.8768"/>
</g>
<!-- Box_IGameScreenComponent -->
<g id="node3" class="node"><title>Box_IGameScreenComponent</title>
<polygon fill="#dafcda" stroke="black" points="-0.5,-215 -0.5,-269 292.5,-269 292.5,-215 -0.5,-215"/>
<text text-anchor="middle" x="146" y="-257.8" font-family="Arial" font-size="8.00">IGameScreenComponent</text>
<polyline fill="none" stroke="black" points="-0.5,-251 292.5,-251 "/>
<text text-anchor="start" x="7.5" y="-239.8" font-family="Arial" font-size="8.00">+ Index : DisplayLayer</text>
<polyline fill="none" stroke="black" points="-0.5,-233 292.5,-233 "/>
<text text-anchor="start" x="7.5" y="-221.8" font-family="Arial" font-size="8.00">+ SubComponents (GameTime time) : IEnumerable&lt;IGameScreenComponent&gt;</text>
</g>
<!-- Box_IGameScreenComponent&#45;&gt;Box_GameScreenComponent -->
<g id="edge6" class="edge"><title>Box_IGameScreenComponent&#45;&gt;Box_GameScreenComponent</title>
<path fill="none" stroke="midnightblue" d="M181.399,-207.937C191.66,-198.063 202.915,-187.233 213.364,-177.178"/>
<polygon fill="none" stroke="midnightblue" points="178.907,-205.478 174.128,-214.934 183.76,-210.522 178.907,-205.478"/>
</g>
<!-- Box_XnaGameComponent -->
<g id="node4" class="node"><title>Box_XnaGameComponent</title>
<polygon fill="#ffffff" stroke="black" points="212.5,-316 212.5,-334 307.5,-334 307.5,-316 212.5,-316"/>
<text text-anchor="middle" x="260" y="-322.8" font-family="Arial" font-size="8.00">Xna.GameComponent</text>
</g>
<!-- Box_XnaIGameComponent -->
<g id="node5" class="node"><title>Box_XnaIGameComponent</title>
<polygon fill="#ffffff" stroke="black" points="325,-316 325,-334 421,-334 421,-316 325,-316"/>
<text text-anchor="middle" x="373" y="-322.8" font-family="Arial" font-size="8.00">Xna.IGameComponent</text>
</g>
<!-- Box_GameComponent -->
<g id="node7" class="node"><title>Box_GameComponent</title>
<polygon fill="none" stroke="black" points="309.5,-224 309.5,-260 406.5,-260 406.5,-224 309.5,-224"/>
<text text-anchor="middle" x="358" y="-239.8" font-family="Arial" font-size="8.00">Box_GameComponent</text>
</g>
<!-- Box_GameComponent&#45;&gt;Box_GameScreenComponent -->
<g id="edge4" class="edge"><title>Box_GameComponent&#45;&gt;Box_GameScreenComponent</title>
<path fill="none" stroke="midnightblue" d="M331.696,-216.688C319.279,-204.74 304.216,-190.245 290.543,-177.088"/>
<polygon fill="none" stroke="midnightblue" points="329.417,-219.353 339.049,-223.764 334.27,-214.309 329.417,-219.353"/>
</g>
<!-- Box_IGameComponent -->
<g id="node10" class="node"><title>Box_IGameComponent</title>
<polygon fill="none" stroke="black" points="97,-307 97,-343 195,-343 195,-307 97,-307"/>
<text text-anchor="middle" x="146" y="-322.8" font-family="Arial" font-size="8.00">Box_IGameComponent</text>
</g>
<!-- Box_IGameComponent&#45;&gt;Box_IGameScreenComponent -->
<g id="edge8" class="edge"><title>Box_IGameComponent&#45;&gt;Box_IGameScreenComponent</title>
<path fill="none" stroke="midnightblue" d="M146,-296.987C146,-287.995 146,-278.055 146,-269.127"/>
<polygon fill="none" stroke="midnightblue" points="142.5,-296.99 146,-306.99 149.5,-296.99 142.5,-296.99"/>
</g>
</g>
</svg>
