<?xml version="1.0" encoding="UTF-8" standalone="no"?>
<!DOCTYPE svg PUBLIC "-//W3C//DTD SVG 1.1//EN"
 "http://www.w3.org/Graphics/SVG/1.1/DTD/svg11.dtd">
<!-- Generated by graphviz version 2.26.3 (20100126.1600)
 -->
<!-- Title: MenuItem Pages: 1 -->
<svg width="465pt" height="824pt"
 viewBox="0.00 0.00 465.00 824.00" xmlns="http://www.w3.org/2000/svg" xmlns:xlink="http://www.w3.org/1999/xlink">
<g id="graph1" class="graph" transform="scale(1 1) rotate(0) translate(4 820)">
<title>MenuItem</title>
<polygon fill="white" stroke="white" points="-4,5 -4,-820 462,-820 462,5 -4,5"/>
<!-- Box_Menu -->
<g id="node1" class="node"><title>Box_Menu</title>
<polygon fill="#fcfcda" stroke="black" points="76,-171 76,-415 446,-415 446,-171 76,-171"/>
<text text-anchor="middle" x="261" y="-403.8" font-family="Arial" font-size="8.00">Menu</text>
<polyline fill="none" stroke="black" points="76,-397 446,-397 "/>
<text text-anchor="start" x="84" y="-385.8" font-family="Arial" font-size="8.00">&#45; isVisible : bool</text>
<text text-anchor="start" x="84" y="-375.8" font-family="Arial" font-size="8.00"># Items : List&lt;MenuItem&gt;</text>
<text text-anchor="start" x="84" y="-365.8" font-family="Arial" font-size="8.00">+ Color&gt; ItemBackgroundColor : Func&lt;ItemState,</text>
<text text-anchor="start" x="84" y="-355.8" font-family="Arial" font-size="8.00">+ Color&gt; ItemForegroundColor : Func&lt;ItemState,</text>
<text text-anchor="start" x="84" y="-345.8" font-family="Arial" font-size="8.00">+ Vector2&gt; RelativeItemPosition : Func&lt;int,</text>
<text text-anchor="start" x="84" y="-335.8" font-family="Arial" font-size="8.00">+ ItemAlignX : HAlign?</text>
<text text-anchor="start" x="84" y="-325.8" font-family="Arial" font-size="8.00">+ ItemAlignY : VAlign?</text>
<text text-anchor="start" x="84" y="-315.8" font-family="Arial" font-size="8.00">+ Count : int</text>
<text text-anchor="start" x="84" y="-305.8" font-family="Arial" font-size="8.00">+ IsVisible : bool</text>
<text text-anchor="start" x="84" y="-295.8" font-family="Arial" font-size="8.00">&#45; ItemDisplayLayer : DisplayLayer</text>
<text text-anchor="start" x="84" y="-285.8" font-family="Arial" font-size="8.00">+ Vector2&gt; RelativeItemSize : Func&lt;int,</text>
<polyline fill="none" stroke="black" points="76,-279 446,-279 "/>
<text text-anchor="start" x="84" y="-267.8" font-family="Arial" font-size="8.00">&#45; assignMenuItemInfo (ref MenuItemInfo info, int num, MenuItem item)</text>
<text text-anchor="start" x="84" y="-257.8" font-family="Arial" font-size="8.00">+ Menu (GameScreen screen, WidgetInfo info, DisplayLayer drawOrder)</text>
<text text-anchor="start" x="84" y="-247.8" font-family="Arial" font-size="8.00">+ this (int i) : MenuItem</text>
<text text-anchor="start" x="84" y="-237.8" font-family="Arial" font-size="8.00">+ SubComponents (GameTime time) : IEnumerable&lt;IGameScreenComponent&gt;</text>
<text text-anchor="start" x="84" y="-227.8" font-family="Arial" font-size="8.00">+ CollapseMenus (MenuItem menu)</text>
<text text-anchor="start" x="84" y="-217.8" font-family="Arial" font-size="8.00">+ AddButton (MenuItemInfo info) : MenuButton virtual</text>
<text text-anchor="start" x="84" y="-207.8" font-family="Arial" font-size="8.00">+ AddDropDown (MenuItemInfo info, DistinctOptionInfo option) virtual</text>
<text text-anchor="start" x="84" y="-197.8" font-family="Arial" font-size="8.00">+ AddDropDown (MenuItemInfo info, DropDownMenuItem[] items, DropDownMenuItem defaultItem)</text>
<text text-anchor="start" x="84" y="-187.8" font-family="Arial" font-size="8.00">virtual</text>
<text text-anchor="start" x="84" y="-177.8" font-family="Arial" font-size="8.00">+ Clear ()</text>
</g>
<!-- Box_VerticalMenu -->
<g id="node5" class="node"><title>Box_VerticalMenu</title>
<polygon fill="#fcfcda" stroke="black" points="76,-0.5 76,-133.5 446,-133.5 446,-0.5 76,-0.5"/>
<text text-anchor="middle" x="261" y="-122.3" font-family="Arial" font-size="8.00">VerticalMenu</text>
<polyline fill="none" stroke="black" points="76,-115.5 446,-115.5 "/>
<text text-anchor="start" x="84" y="-104.3" font-family="Arial" font-size="8.00"># spriteBatch : SpriteBatch</text>
<text text-anchor="start" x="84" y="-94.3" font-family="Arial" font-size="8.00">+ Border : Border</text>
<polyline fill="none" stroke="black" points="76,-87.5 446,-87.5 "/>
<text text-anchor="start" x="84" y="-76.3" font-family="Arial" font-size="8.00">+ VerticalMenu (GameScreen screen, WidgetInfo info, DisplayLayer drawOrder)</text>
<text text-anchor="start" x="84" y="-66.3" font-family="Arial" font-size="8.00">+ Align (Viewport viewport, float scale, int posX, int posY, int? sizeX)</text>
<text text-anchor="start" x="84" y="-56.3" font-family="Arial" font-size="8.00">+ AddButton (MenuItemInfo info) : MenuButton</text>
<text text-anchor="start" x="84" y="-46.3" font-family="Arial" font-size="8.00">+ AddDropDown (MenuItemInfo info, DistinctOptionInfo option)</text>
<text text-anchor="start" x="84" y="-36.3" font-family="Arial" font-size="8.00">+ AddDropDown (MenuItemInfo info, DropDownMenuItem[] items, DropDownMenuItem defaultItem)</text>
<text text-anchor="start" x="84" y="-17.3" font-family="Arial" font-size="8.00">+ Draw (GameTime time)</text>
<text text-anchor="start" x="84" y="-7.3" font-family="Arial" font-size="8.00">+ Align (Viewport viewport, float scale, Vector2? givenPosition)</text>
</g>
<!-- Box_Menu&#45;&gt;Box_VerticalMenu -->
<g id="edge12" class="edge"><title>Box_Menu&#45;&gt;Box_VerticalMenu</title>
<path fill="none" stroke="midnightblue" d="M261,-160.592C261,-151.294 261,-142.176 261,-133.502"/>
<polygon fill="none" stroke="midnightblue" points="257.5,-160.74 261,-170.74 264.5,-160.74 257.5,-160.74"/>
</g>
<!-- Box_Widget -->
<g id="node2" class="node"><title>Box_Widget</title>
<polygon fill="#fcfcda" stroke="black" points="119,-453 119,-527 403,-527 403,-453 119,-453"/>
<text text-anchor="middle" x="261" y="-515.8" font-family="Arial" font-size="8.00">Widget</text>
<polyline fill="none" stroke="black" points="119,-509 403,-509 "/>
<text text-anchor="start" x="127" y="-497.8" font-family="Arial" font-size="8.00">+ Info : WidgetInfo</text>
<text text-anchor="start" x="127" y="-487.8" font-family="Arial" font-size="8.00">+ IsVisible : bool virtual</text>
<polyline fill="none" stroke="black" points="119,-481 403,-481 "/>
<text text-anchor="start" x="127" y="-469.8" font-family="Arial" font-size="8.00">+ bounds () : Rectangle</text>
<text text-anchor="start" x="127" y="-459.8" font-family="Arial" font-size="8.00">+ Widget (GameScreen screen, WidgetInfo info, DisplayLayer drawOrder)</text>
</g>
<!-- Box_Widget&#45;&gt;Box_Menu -->
<g id="edge2" class="edge"><title>Box_Widget&#45;&gt;Box_Menu</title>
<path fill="none" stroke="midnightblue" d="M261,-442.869C261,-434.293 261,-424.995 261,-415.374"/>
<polygon fill="none" stroke="midnightblue" points="257.5,-442.946 261,-452.946 264.5,-442.946 257.5,-442.946"/>
</g>
<!-- Box_DrawableGameScreenComponent -->
<g id="node3" class="node"><title>Box_DrawableGameScreenComponent</title>
<polygon fill="#fcfcda" stroke="black" points="102.5,-565 102.5,-649 419.5,-649 419.5,-565 102.5,-565"/>
<text text-anchor="middle" x="261" y="-637.8" font-family="Arial" font-size="8.00">DrawableGameScreenComponent</text>
<polyline fill="none" stroke="black" points="102.5,-631 419.5,-631 "/>
<text text-anchor="start" x="110.5" y="-619.8" font-family="Arial" font-size="8.00">+ Index : DisplayLayer</text>
<text text-anchor="start" x="110.5" y="-609.8" font-family="Arial" font-size="8.00">&#45; _index : DisplayLayer</text>
<text text-anchor="start" x="110.5" y="-599.8" font-family="Arial" font-size="8.00">+ screen : GameScreen</text>
<polyline fill="none" stroke="black" points="102.5,-593 419.5,-593 "/>
<text text-anchor="start" x="110.5" y="-581.8" font-family="Arial" font-size="8.00">+ DrawableGameScreenComponent (GameScreen screen, DisplayLayer index)</text>
<text text-anchor="start" x="110.5" y="-571.8" font-family="Arial" font-size="8.00">+ SubComponents (GameTime time) : IEnumerable&lt;IGameScreenComponent&gt; virtual</text>
</g>
<!-- Box_DrawableGameScreenComponent&#45;&gt;Box_Widget -->
<g id="edge4" class="edge"><title>Box_DrawableGameScreenComponent&#45;&gt;Box_Widget</title>
<path fill="none" stroke="midnightblue" d="M261,-554.482C261,-545.258 261,-535.834 261,-527.14"/>
<polygon fill="none" stroke="midnightblue" points="257.5,-554.76 261,-564.76 264.5,-554.76 257.5,-554.76"/>
</g>
<!-- Box_IGameScreenComponent -->
<g id="node4" class="node"><title>Box_IGameScreenComponent</title>
<polygon fill="#dafcda" stroke="black" points="-0.5,-687 -0.5,-741 292.5,-741 292.5,-687 -0.5,-687"/>
<text text-anchor="middle" x="146" y="-729.8" font-family="Arial" font-size="8.00">IGameScreenComponent</text>
<polyline fill="none" stroke="black" points="-0.5,-723 292.5,-723 "/>
<text text-anchor="start" x="7.5" y="-711.8" font-family="Arial" font-size="8.00">+ Index : DisplayLayer</text>
<polyline fill="none" stroke="black" points="-0.5,-705 292.5,-705 "/>
<text text-anchor="start" x="7.5" y="-693.8" font-family="Arial" font-size="8.00">+ SubComponents (GameTime time) : IEnumerable&lt;IGameScreenComponent&gt;</text>
</g>
<!-- Box_IGameScreenComponent&#45;&gt;Box_DrawableGameScreenComponent -->
<g id="edge8" class="edge"><title>Box_IGameScreenComponent&#45;&gt;Box_DrawableGameScreenComponent</title>
<path fill="none" stroke="midnightblue" d="M182.433,-680.102C192.91,-670.354 204.469,-659.598 215.425,-649.404"/>
<polygon fill="none" stroke="midnightblue" points="179.956,-677.625 175.019,-686.999 184.725,-682.75 179.956,-677.625"/>
</g>
<!-- Box_XnaDrawableGameComponent -->
<g id="node6" class="node"><title>Box_XnaDrawableGameComponent</title>
<polygon fill="#ffffff" stroke="black" points="213,-788 213,-806 343,-806 343,-788 213,-788"/>
<text text-anchor="middle" x="278" y="-794.8" font-family="Arial" font-size="8.00">Xna.DrawableGameComponent</text>
</g>
<!-- Box_XnaIGameComponent -->
<g id="node7" class="node"><title>Box_XnaIGameComponent</title>
<polygon fill="#ffffff" stroke="black" points="361,-788 361,-806 457,-806 457,-788 361,-788"/>
<text text-anchor="middle" x="409" y="-794.8" font-family="Arial" font-size="8.00">Xna.IGameComponent</text>
</g>
<!-- Box_DrawableGameComponent -->
<g id="node10" class="node"><title>Box_DrawableGameComponent</title>
<polygon fill="none" stroke="black" points="310,-696 310,-732 442,-732 442,-696 310,-696"/>
<text text-anchor="middle" x="376" y="-711.8" font-family="Arial" font-size="8.00">Box_DrawableGameComponent</text>
</g>
<!-- Box_DrawableGameComponent&#45;&gt;Box_DrawableGameScreenComponent -->
<g id="edge6" class="edge"><title>Box_DrawableGameComponent&#45;&gt;Box_DrawableGameScreenComponent</title>
<path fill="none" stroke="midnightblue" d="M348.993,-688.871C336.316,-677.076 320.857,-662.693 306.454,-649.292"/>
<polygon fill="none" stroke="midnightblue" points="346.787,-691.599 356.492,-695.849 351.555,-686.475 346.787,-691.599"/>
</g>
<!-- Box_IGameComponent -->
<g id="node13" class="node"><title>Box_IGameComponent</title>
<polygon fill="none" stroke="black" points="97,-779 97,-815 195,-815 195,-779 97,-779"/>
<text text-anchor="middle" x="146" y="-794.8" font-family="Arial" font-size="8.00">Box_IGameComponent</text>
</g>
<!-- Box_IGameComponent&#45;&gt;Box_IGameScreenComponent -->
<g id="edge10" class="edge"><title>Box_IGameComponent&#45;&gt;Box_IGameScreenComponent</title>
<path fill="none" stroke="midnightblue" d="M146,-768.987C146,-759.995 146,-750.055 146,-741.127"/>
<polygon fill="none" stroke="midnightblue" points="142.5,-768.99 146,-778.99 149.5,-768.99 142.5,-768.99"/>
</g>
</g>
</svg>
